<svg xmlns="http://www.w3.org/2000/svg" xmlns:rdkit="http://www.rdkit.org/xml" xmlns:xlink="http://www.w3.org/1999/xlink" version="1.1" baseProfile="full" xml:space="preserve" width="900px" height="160px" viewBox="0 0 900 160">
<!-- END OF HEADER -->
<rect style="opacity:1.0;fill:#FFFFFF;stroke:none" width="900.0" height="160.0" x="0.0" y="0.0"> </rect>
<path class="bond-0 atom-0 atom-1" d="M 19.0,33.6 L 31.2,48.7" style="fill:none;fill-rule:evenodd;stroke:#000000;stroke-width:2.0px;stroke-linecap:butt;stroke-linejoin:miter;stroke-opacity:1"/>
<path class="bond-0 atom-0 atom-1" d="M 21.2,31.8 L 33.4,46.9" style="fill:none;fill-rule:evenodd;stroke:#000000;stroke-width:2.0px;stroke-linecap:butt;stroke-linejoin:miter;stroke-opacity:1"/>
<path class="bond-0 atom-0 atom-1" d="M 16.8,35.4 L 29.0,50.5" style="fill:none;fill-rule:evenodd;stroke:#000000;stroke-width:2.0px;stroke-linecap:butt;stroke-linejoin:miter;stroke-opacity:1"/>
<path class="bond-1 atom-1 atom-2" d="M 31.2,48.7 L 43.3,63.8" style="fill:none;fill-rule:evenodd;stroke:#000000;stroke-width:2.0px;stroke-linecap:butt;stroke-linejoin:miter;stroke-opacity:1"/>
<path class="bond-2 atom-2 atom-3" d="M 43.3,63.8 L 62.5,60.8" style="fill:none;fill-rule:evenodd;stroke:#000000;stroke-width:2.0px;stroke-linecap:butt;stroke-linejoin:miter;stroke-opacity:1"/>
<path class="bond-2 atom-2 atom-3" d="M 45.4,66.4 L 61.3,63.9" style="fill:none;fill-rule:evenodd;stroke:#000000;stroke-width:2.0px;stroke-linecap:butt;stroke-linejoin:miter;stroke-opacity:1"/>
<path class="bond-3 atom-3 atom-4" d="M 62.5,60.8 L 74.7,75.9" style="fill:none;fill-rule:evenodd;stroke:#000000;stroke-width:2.0px;stroke-linecap:butt;stroke-linejoin:miter;stroke-opacity:1"/>
<path class="bond-4 atom-4 atom-5" d="M 74.7,75.9 L 82.9,74.7" style="fill:none;fill-rule:evenodd;stroke:#000000;stroke-width:2.0px;stroke-linecap:butt;stroke-linejoin:miter;stroke-opacity:1"/>
<path class="bond-4 atom-4 atom-5" d="M 82.9,74.7 L 91.1,73.4" style="fill:none;fill-rule:evenodd;stroke:#0000FF;stroke-width:2.0px;stroke-linecap:butt;stroke-linejoin:miter;stroke-opacity:1"/>
<path class="bond-5 atom-4 atom-6" d="M 74.7,75.9 L 67.7,94.0" style="fill:none;fill-rule:evenodd;stroke:#000000;stroke-width:2.0px;stroke-linecap:butt;stroke-linejoin:miter;stroke-opacity:1"/>
<path class="bond-5 atom-4 atom-6" d="M 71.4,76.4 L 65.6,91.5" style="fill:none;fill-rule:evenodd;stroke:#000000;stroke-width:2.0px;stroke-linecap:butt;stroke-linejoin:miter;stroke-opacity:1"/>
<path class="bond-6 atom-6 atom-7" d="M 67.7,94.0 L 79.8,109.1" style="fill:none;fill-rule:evenodd;stroke:#000000;stroke-width:2.0px;stroke-linecap:butt;stroke-linejoin:miter;stroke-opacity:1"/>
<path class="bond-7 atom-7 atom-8" d="M 79.8,109.1 L 88.2,107.8" style="fill:none;fill-rule:evenodd;stroke:#000000;stroke-width:2.0px;stroke-linecap:butt;stroke-linejoin:miter;stroke-opacity:1"/>
<path class="bond-7 atom-7 atom-8" d="M 88.2,107.8 L 96.6,106.5" style="fill:none;fill-rule:evenodd;stroke:#CCCC00;stroke-width:2.0px;stroke-linecap:butt;stroke-linejoin:miter;stroke-opacity:1"/>
<path class="bond-8 atom-8 atom-9" d="M 98.1,109.9 L 99.1,116.0" style="fill:none;fill-rule:evenodd;stroke:#CCCC00;stroke-width:2.0px;stroke-linecap:butt;stroke-linejoin:miter;stroke-opacity:1"/>
<path class="bond-8 atom-8 atom-9" d="M 99.1,116.0 L 100.0,122.1" style="fill:none;fill-rule:evenodd;stroke:#FF0000;stroke-width:2.0px;stroke-linecap:butt;stroke-linejoin:miter;stroke-opacity:1"/>
<path class="bond-8 atom-8 atom-9" d="M 100.9,109.4 L 101.9,115.6" style="fill:none;fill-rule:evenodd;stroke:#CCCC00;stroke-width:2.0px;stroke-linecap:butt;stroke-linejoin:miter;stroke-opacity:1"/>
<path class="bond-8 atom-8 atom-9" d="M 101.9,115.6 L 102.8,121.7" style="fill:none;fill-rule:evenodd;stroke:#FF0000;stroke-width:2.0px;stroke-linecap:butt;stroke-linejoin:miter;stroke-opacity:1"/>
<path class="bond-9 atom-8 atom-10" d="M 99.9,102.6 L 98.9,96.4" style="fill:none;fill-rule:evenodd;stroke:#CCCC00;stroke-width:2.0px;stroke-linecap:butt;stroke-linejoin:miter;stroke-opacity:1"/>
<path class="bond-9 atom-8 atom-10" d="M 98.9,96.4 L 98.0,90.3" style="fill:none;fill-rule:evenodd;stroke:#FF0000;stroke-width:2.0px;stroke-linecap:butt;stroke-linejoin:miter;stroke-opacity:1"/>
<path class="bond-9 atom-8 atom-10" d="M 97.1,103.0 L 96.1,96.9" style="fill:none;fill-rule:evenodd;stroke:#CCCC00;stroke-width:2.0px;stroke-linecap:butt;stroke-linejoin:miter;stroke-opacity:1"/>
<path class="bond-9 atom-8 atom-10" d="M 96.1,96.9 L 95.1,90.7" style="fill:none;fill-rule:evenodd;stroke:#FF0000;stroke-width:2.0px;stroke-linecap:butt;stroke-linejoin:miter;stroke-opacity:1"/>
<path class="bond-10 atom-8 atom-11" d="M 101.4,105.8 L 109.8,104.5" style="fill:none;fill-rule:evenodd;stroke:#CCCC00;stroke-width:2.0px;stroke-linecap:butt;stroke-linejoin:miter;stroke-opacity:1"/>
<path class="bond-10 atom-8 atom-11" d="M 109.8,104.5 L 118.1,103.2" style="fill:none;fill-rule:evenodd;stroke:#000000;stroke-width:2.0px;stroke-linecap:butt;stroke-linejoin:miter;stroke-opacity:1"/>
<path class="bond-11 atom-11 atom-12" d="M 118.1,103.2 L 125.1,85.1" style="fill:none;fill-rule:evenodd;stroke:#000000;stroke-width:2.0px;stroke-linecap:butt;stroke-linejoin:miter;stroke-opacity:1"/>
<path class="bond-12 atom-12 atom-13" d="M 125.1,85.1 L 144.3,82.1" style="fill:none;fill-rule:evenodd;stroke:#000000;stroke-width:2.0px;stroke-linecap:butt;stroke-linejoin:miter;stroke-opacity:1"/>
<path class="bond-13 atom-13 atom-14" d="M 144.3,82.1 L 156.5,97.2" style="fill:none;fill-rule:evenodd;stroke:#000000;stroke-width:2.0px;stroke-linecap:butt;stroke-linejoin:miter;stroke-opacity:1"/>
<path class="bond-14 atom-14 atom-15" d="M 156.5,97.2 L 175.6,94.2" style="fill:none;fill-rule:evenodd;stroke:#000000;stroke-width:2.0px;stroke-linecap:butt;stroke-linejoin:miter;stroke-opacity:1"/>
<path class="bond-15 atom-15 atom-16" d="M 175.6,94.2 L 182.6,76.2" style="fill:none;fill-rule:evenodd;stroke:#000000;stroke-width:2.0px;stroke-linecap:butt;stroke-linejoin:miter;stroke-opacity:1"/>
<path class="bond-16 atom-16 atom-17" d="M 182.6,76.2 L 201.8,73.2" style="fill:none;fill-rule:evenodd;stroke:#000000;stroke-width:2.0px;stroke-linecap:butt;stroke-linejoin:miter;stroke-opacity:1"/>
<path class="bond-17 atom-17 atom-18" d="M 201.8,73.2 L 205.4,66.2" style="fill:none;fill-rule:evenodd;stroke:#000000;stroke-width:2.0px;stroke-linecap:butt;stroke-linejoin:miter;stroke-opacity:1"/>
<path class="bond-17 atom-17 atom-18" d="M 205.4,66.2 L 208.9,59.3" style="fill:none;fill-rule:evenodd;stroke:#0000FF;stroke-width:2.0px;stroke-linecap:butt;stroke-linejoin:miter;stroke-opacity:1"/>
<path class="bond-17 atom-17 atom-18" d="M 205.3,72.6 L 208.4,66.6" style="fill:none;fill-rule:evenodd;stroke:#000000;stroke-width:2.0px;stroke-linecap:butt;stroke-linejoin:miter;stroke-opacity:1"/>
<path class="bond-17 atom-17 atom-18" d="M 208.4,66.6 L 211.4,60.6" style="fill:none;fill-rule:evenodd;stroke:#0000FF;stroke-width:2.0px;stroke-linecap:butt;stroke-linejoin:miter;stroke-opacity:1"/>
<path class="bond-18 atom-18 atom-19" d="M 213.4,56.4 L 227.1,58.6" style="fill:none;fill-rule:evenodd;stroke:#0000FF;stroke-width:2.0px;stroke-linecap:butt;stroke-linejoin:miter;stroke-opacity:1"/>
<path class="bond-19 atom-19 atom-20" d="M 230.3,62.4 L 231.5,70.3" style="fill:none;fill-rule:evenodd;stroke:#0000FF;stroke-width:2.0px;stroke-linecap:butt;stroke-linejoin:miter;stroke-opacity:1"/>
<path class="bond-19 atom-19 atom-20" d="M 231.5,70.3 L 232.8,78.2" style="fill:none;fill-rule:evenodd;stroke:#000000;stroke-width:2.0px;stroke-linecap:butt;stroke-linejoin:miter;stroke-opacity:1"/>
<path class="bond-19 atom-19 atom-20" d="M 227.5,62.8 L 228.6,69.7" style="fill:none;fill-rule:evenodd;stroke:#0000FF;stroke-width:2.0px;stroke-linecap:butt;stroke-linejoin:miter;stroke-opacity:1"/>
<path class="bond-19 atom-19 atom-20" d="M 228.6,69.7 L 229.6,76.6" style="fill:none;fill-rule:evenodd;stroke:#000000;stroke-width:2.0px;stroke-linecap:butt;stroke-linejoin:miter;stroke-opacity:1"/>
<path class="bond-20 atom-20 atom-21" d="M 232.8,78.2 L 250.0,87.0" style="fill:none;fill-rule:evenodd;stroke:#000000;stroke-width:2.0px;stroke-linecap:butt;stroke-linejoin:miter;stroke-opacity:1"/>
<path class="bond-21 atom-21 atom-22" d="M 250.0,87.0 L 251.0,106.4" style="fill:none;fill-rule:evenodd;stroke:#000000;stroke-width:2.0px;stroke-linecap:butt;stroke-linejoin:miter;stroke-opacity:1"/>
<path class="bond-21 atom-21 atom-22" d="M 252.9,88.5 L 253.7,104.6" style="fill:none;fill-rule:evenodd;stroke:#000000;stroke-width:2.0px;stroke-linecap:butt;stroke-linejoin:miter;stroke-opacity:1"/>
<path class="bond-22 atom-22 atom-23" d="M 251.0,106.4 L 268.2,115.2" style="fill:none;fill-rule:evenodd;stroke:#000000;stroke-width:2.0px;stroke-linecap:butt;stroke-linejoin:miter;stroke-opacity:1"/>
<path class="bond-23 atom-23 atom-24" d="M 268.2,115.2 L 284.5,104.7" style="fill:none;fill-rule:evenodd;stroke:#000000;stroke-width:2.0px;stroke-linecap:butt;stroke-linejoin:miter;stroke-opacity:1"/>
<path class="bond-23 atom-23 atom-24" d="M 268.1,112.0 L 281.6,103.2" style="fill:none;fill-rule:evenodd;stroke:#000000;stroke-width:2.0px;stroke-linecap:butt;stroke-linejoin:miter;stroke-opacity:1"/>
<path class="bond-24 atom-24 atom-25" d="M 284.5,104.7 L 283.6,85.4" style="fill:none;fill-rule:evenodd;stroke:#000000;stroke-width:2.0px;stroke-linecap:butt;stroke-linejoin:miter;stroke-opacity:1"/>
<path class="bond-25 atom-25 atom-26" d="M 283.6,85.4 L 266.3,76.5" style="fill:none;fill-rule:evenodd;stroke:#000000;stroke-width:2.0px;stroke-linecap:butt;stroke-linejoin:miter;stroke-opacity:1"/>
<path class="bond-25 atom-25 atom-26" d="M 280.8,87.1 L 266.5,79.8" style="fill:none;fill-rule:evenodd;stroke:#000000;stroke-width:2.0px;stroke-linecap:butt;stroke-linejoin:miter;stroke-opacity:1"/>
<path class="bond-26 atom-26 atom-27" d="M 266.3,76.5 L 265.4,57.1" style="fill:none;fill-rule:evenodd;stroke:#000000;stroke-width:2.0px;stroke-linecap:butt;stroke-linejoin:miter;stroke-opacity:1"/>
<path class="bond-27 atom-27 atom-28" d="M 265.4,57.1 L 265.0,49.1" style="fill:none;fill-rule:evenodd;stroke:#000000;stroke-width:2.0px;stroke-linecap:butt;stroke-linejoin:miter;stroke-opacity:1"/>
<path class="bond-27 atom-27 atom-28" d="M 265.0,49.1 L 264.6,41.1" style="fill:none;fill-rule:evenodd;stroke:#33CCCC;stroke-width:2.0px;stroke-linecap:butt;stroke-linejoin:miter;stroke-opacity:1"/>
<path class="bond-28 atom-27 atom-29" d="M 265.4,57.1 L 273.9,56.7" style="fill:none;fill-rule:evenodd;stroke:#000000;stroke-width:2.0px;stroke-linecap:butt;stroke-linejoin:miter;stroke-opacity:1"/>
<path class="bond-28 atom-27 atom-29" d="M 273.9,56.7 L 282.5,56.3" style="fill:none;fill-rule:evenodd;stroke:#33CCCC;stroke-width:2.0px;stroke-linecap:butt;stroke-linejoin:miter;stroke-opacity:1"/>
<path class="bond-29 atom-27 atom-30" d="M 265.4,57.1 L 256.8,57.6" style="fill:none;fill-rule:evenodd;stroke:#000000;stroke-width:2.0px;stroke-linecap:butt;stroke-linejoin:miter;stroke-opacity:1"/>
<path class="bond-29 atom-27 atom-30" d="M 256.8,57.6 L 248.3,58.0" style="fill:none;fill-rule:evenodd;stroke:#33CCCC;stroke-width:2.0px;stroke-linecap:butt;stroke-linejoin:miter;stroke-opacity:1"/>
<path class="bond-30 atom-20 atom-31" d="M 232.8,78.2 L 225.5,81.9" style="fill:none;fill-rule:evenodd;stroke:#000000;stroke-width:2.0px;stroke-linecap:butt;stroke-linejoin:miter;stroke-opacity:1"/>
<path class="bond-30 atom-20 atom-31" d="M 225.5,81.9 L 218.2,85.6" style="fill:none;fill-rule:evenodd;stroke:#0000FF;stroke-width:2.0px;stroke-linecap:butt;stroke-linejoin:miter;stroke-opacity:1"/>
<path class="bond-31 atom-31 atom-32" d="M 214.9,90.3 L 213.7,98.2" style="fill:none;fill-rule:evenodd;stroke:#0000FF;stroke-width:2.0px;stroke-linecap:butt;stroke-linejoin:miter;stroke-opacity:1"/>
<path class="bond-31 atom-31 atom-32" d="M 213.7,98.2 L 212.4,106.1" style="fill:none;fill-rule:evenodd;stroke:#000000;stroke-width:2.0px;stroke-linecap:butt;stroke-linejoin:miter;stroke-opacity:1"/>
<path class="bond-32 atom-16 atom-33" d="M 182.6,76.2 L 170.5,61.0" style="fill:none;fill-rule:evenodd;stroke:#000000;stroke-width:2.0px;stroke-linecap:butt;stroke-linejoin:miter;stroke-opacity:1"/>
<path class="bond-33 atom-33 atom-34" d="M 170.5,61.0 L 151.3,64.0" style="fill:none;fill-rule:evenodd;stroke:#000000;stroke-width:2.0px;stroke-linecap:butt;stroke-linejoin:miter;stroke-opacity:1"/>
<path class="bond-34 atom-16 atom-35" d="M 182.6,76.2 L 174.8,76.9" style="fill:none;fill-rule:evenodd;stroke:#000000;stroke-width:2.0px;stroke-linecap:butt;stroke-linejoin:miter;stroke-opacity:1"/>
<path class="bond-35 atom-35 atom-36" d="M 169.3,77.6 L 157.5,79.4" style="fill:none;fill-rule:evenodd;stroke:#000000;stroke-width:2.0px;stroke-linecap:butt;stroke-linejoin:miter;stroke-opacity:1"/>
<path class="bond-36 atom-6 atom-37" d="M 67.7,94.0 L 48.5,97.0" style="fill:none;fill-rule:evenodd;stroke:#000000;stroke-width:2.0px;stroke-linecap:butt;stroke-linejoin:miter;stroke-opacity:1"/>
<path class="bond-37 atom-37 atom-38" d="M 48.5,97.0 L 36.3,81.9" style="fill:none;fill-rule:evenodd;stroke:#000000;stroke-width:2.0px;stroke-linecap:butt;stroke-linejoin:miter;stroke-opacity:1"/>
<path class="bond-37 atom-37 atom-38" d="M 49.7,93.9 L 39.6,81.4" style="fill:none;fill-rule:evenodd;stroke:#000000;stroke-width:2.0px;stroke-linecap:butt;stroke-linejoin:miter;stroke-opacity:1"/>
<path class="bond-38 atom-38 atom-39" d="M 36.3,81.9 L 28.1,83.2" style="fill:none;fill-rule:evenodd;stroke:#000000;stroke-width:2.0px;stroke-linecap:butt;stroke-linejoin:miter;stroke-opacity:1"/>
<path class="bond-38 atom-38 atom-39" d="M 28.1,83.2 L 19.9,84.5" style="fill:none;fill-rule:evenodd;stroke:#0000FF;stroke-width:2.0px;stroke-linecap:butt;stroke-linejoin:miter;stroke-opacity:1"/>
<path class="bond-39 atom-38 atom-2" d="M 36.3,81.9 L 43.3,63.8" style="fill:none;fill-rule:evenodd;stroke:#000000;stroke-width:2.0px;stroke-linecap:butt;stroke-linejoin:miter;stroke-opacity:1"/>
<path class="bond-40 atom-34 atom-13" d="M 151.3,64.0 L 144.3,82.1" style="fill:none;fill-rule:evenodd;stroke:#000000;stroke-width:2.0px;stroke-linecap:butt;stroke-linejoin:miter;stroke-opacity:1"/>
<path class="bond-41 atom-36 atom-13" d="M 152.0,80.4 L 144.3,82.1" style="fill:none;fill-rule:evenodd;stroke:#000000;stroke-width:2.0px;stroke-linecap:butt;stroke-linejoin:miter;stroke-opacity:1"/>
<path class="bond-42 atom-31 atom-17" d="M 212.8,84.2 L 207.3,78.7" style="fill:none;fill-rule:evenodd;stroke:#0000FF;stroke-width:2.0px;stroke-linecap:butt;stroke-linejoin:miter;stroke-opacity:1"/>
<path class="bond-42 atom-31 atom-17" d="M 207.3,78.7 L 201.8,73.2" style="fill:none;fill-rule:evenodd;stroke:#000000;stroke-width:2.0px;stroke-linecap:butt;stroke-linejoin:miter;stroke-opacity:1"/>
<path class="bond-43 atom-26 atom-21" d="M 266.3,76.5 L 250.0,87.0" style="fill:none;fill-rule:evenodd;stroke:#000000;stroke-width:2.0px;stroke-linecap:butt;stroke-linejoin:miter;stroke-opacity:1"/>
<path d="M 30.6,48.0 L 31.2,48.7 L 31.8,49.5" style="fill:none;stroke:#000000;stroke-width:2.0px;stroke-linecap:butt;stroke-linejoin:miter;stroke-opacity:1;"/>
<path d="M 61.5,61.0 L 62.5,60.8 L 63.1,61.6" style="fill:none;stroke:#000000;stroke-width:2.0px;stroke-linecap:butt;stroke-linejoin:miter;stroke-opacity:1;"/>
<path d="M 79.2,108.4 L 79.8,109.1 L 80.2,109.1" style="fill:none;stroke:#000000;stroke-width:2.0px;stroke-linecap:butt;stroke-linejoin:miter;stroke-opacity:1;"/>
<path d="M 117.7,103.2 L 118.1,103.2 L 118.5,102.3" style="fill:none;stroke:#000000;stroke-width:2.0px;stroke-linecap:butt;stroke-linejoin:miter;stroke-opacity:1;"/>
<path d="M 124.8,86.0 L 125.1,85.1 L 126.1,84.9" style="fill:none;stroke:#000000;stroke-width:2.0px;stroke-linecap:butt;stroke-linejoin:miter;stroke-opacity:1;"/>
<path d="M 155.9,96.5 L 156.5,97.2 L 157.4,97.1" style="fill:none;stroke:#000000;stroke-width:2.0px;stroke-linecap:butt;stroke-linejoin:miter;stroke-opacity:1;"/>
<path d="M 174.7,94.4 L 175.6,94.2 L 176.0,93.3" style="fill:none;stroke:#000000;stroke-width:2.0px;stroke-linecap:butt;stroke-linejoin:miter;stroke-opacity:1;"/>
<path d="M 250.9,105.4 L 251.0,106.4 L 251.9,106.8" style="fill:none;stroke:#000000;stroke-width:2.0px;stroke-linecap:butt;stroke-linejoin:miter;stroke-opacity:1;"/>
<path d="M 267.4,114.8 L 268.2,115.2 L 269.1,114.7" style="fill:none;stroke:#000000;stroke-width:2.0px;stroke-linecap:butt;stroke-linejoin:miter;stroke-opacity:1;"/>
<path d="M 283.7,105.3 L 284.5,104.7 L 284.5,103.8" style="fill:none;stroke:#000000;stroke-width:2.0px;stroke-linecap:butt;stroke-linejoin:miter;stroke-opacity:1;"/>
<path d="M 283.6,86.3 L 283.6,85.4 L 282.7,84.9" style="fill:none;stroke:#000000;stroke-width:2.0px;stroke-linecap:butt;stroke-linejoin:miter;stroke-opacity:1;"/>
<path d="M 171.1,61.8 L 170.5,61.0 L 169.5,61.2" style="fill:none;stroke:#000000;stroke-width:2.0px;stroke-linecap:butt;stroke-linejoin:miter;stroke-opacity:1;"/>
<path d="M 152.3,63.9 L 151.3,64.0 L 151.0,64.9" style="fill:none;stroke:#000000;stroke-width:2.0px;stroke-linecap:butt;stroke-linejoin:miter;stroke-opacity:1;"/>
<path d="M 49.5,96.9 L 48.5,97.0 L 47.9,96.3" style="fill:none;stroke:#000000;stroke-width:2.0px;stroke-linecap:butt;stroke-linejoin:miter;stroke-opacity:1;"/>
<path class="atom-5" d="M 92.6 70.2 L 94.4 73.1 Q 94.6 73.4, 94.9 73.9 Q 95.2 74.5, 95.2 74.5 L 95.2 70.2 L 95.9 70.2 L 95.9 75.7 L 95.2 75.7 L 93.2 72.5 Q 93.0 72.2, 92.8 71.7 Q 92.5 71.3, 92.5 71.2 L 92.5 75.7 L 91.7 75.7 L 91.7 70.2 L 92.6 70.2 " fill="#0000FF"/>
<path class="atom-5" d="M 97.0 70.2 L 97.7 70.2 L 97.7 72.6 L 100.5 72.6 L 100.5 70.2 L 101.3 70.2 L 101.3 75.7 L 100.5 75.7 L 100.5 73.2 L 97.7 73.2 L 97.7 75.7 L 97.0 75.7 L 97.0 70.2 " fill="#0000FF"/>
<path class="atom-8" d="M 97.4 108.0 Q 97.5 108.1, 97.8 108.2 Q 98.0 108.3, 98.3 108.3 Q 98.6 108.4, 98.9 108.4 Q 99.4 108.4, 99.7 108.2 Q 100.0 107.9, 100.0 107.5 Q 100.0 107.2, 99.8 107.0 Q 99.7 106.8, 99.4 106.7 Q 99.2 106.6, 98.8 106.5 Q 98.3 106.3, 98.0 106.2 Q 97.8 106.0, 97.5 105.7 Q 97.3 105.5, 97.3 105.0 Q 97.3 104.3, 97.8 103.8 Q 98.3 103.4, 99.2 103.4 Q 99.8 103.4, 100.6 103.7 L 100.4 104.3 Q 99.7 104.0, 99.2 104.0 Q 98.7 104.0, 98.4 104.3 Q 98.1 104.5, 98.1 104.9 Q 98.1 105.2, 98.3 105.3 Q 98.4 105.5, 98.6 105.6 Q 98.9 105.7, 99.2 105.8 Q 99.7 106.0, 100.0 106.1 Q 100.3 106.3, 100.5 106.6 Q 100.7 106.9, 100.7 107.5 Q 100.7 108.2, 100.2 108.6 Q 99.7 109.0, 98.9 109.0 Q 98.4 109.0, 98.0 108.9 Q 97.7 108.8, 97.2 108.7 L 97.4 108.0 " fill="#CCCC00"/>
<path class="atom-9" d="M 99.4 125.3 Q 99.4 124.0, 100.1 123.3 Q 100.7 122.5, 102.0 122.5 Q 103.2 122.5, 103.8 123.3 Q 104.5 124.0, 104.5 125.3 Q 104.5 126.7, 103.8 127.4 Q 103.2 128.2, 102.0 128.2 Q 100.8 128.2, 100.1 127.4 Q 99.4 126.7, 99.4 125.3 M 102.0 127.6 Q 102.8 127.6, 103.3 127.0 Q 103.7 126.4, 103.7 125.3 Q 103.7 124.3, 103.3 123.7 Q 102.8 123.2, 102.0 123.2 Q 101.1 123.2, 100.7 123.7 Q 100.2 124.2, 100.2 125.3 Q 100.2 126.4, 100.7 127.0 Q 101.1 127.6, 102.0 127.6 " fill="#FF0000"/>
<path class="atom-10" d="M 93.5 87.0 Q 93.5 85.7, 94.1 85.0 Q 94.8 84.2, 96.0 84.2 Q 97.2 84.2, 97.9 85.0 Q 98.5 85.7, 98.5 87.0 Q 98.5 88.3, 97.9 89.1 Q 97.2 89.9, 96.0 89.9 Q 94.8 89.9, 94.1 89.1 Q 93.5 88.3, 93.5 87.0 M 96.0 89.2 Q 96.8 89.2, 97.3 88.7 Q 97.7 88.1, 97.7 87.0 Q 97.7 85.9, 97.3 85.4 Q 96.8 84.8, 96.0 84.8 Q 95.2 84.8, 94.7 85.4 Q 94.3 85.9, 94.3 87.0 Q 94.3 88.1, 94.7 88.7 Q 95.2 89.2, 96.0 89.2 " fill="#FF0000"/>
<path class="atom-18" d="M 209.4 53.2 L 211.2 56.1 Q 211.4 56.4, 211.7 56.9 Q 212.0 57.4, 212.0 57.4 L 212.0 53.2 L 212.7 53.2 L 212.7 58.7 L 212.0 58.7 L 210.0 55.5 Q 209.8 55.1, 209.6 54.7 Q 209.4 54.3, 209.3 54.1 L 209.3 58.7 L 208.6 58.7 L 208.6 53.2 L 209.4 53.2 " fill="#0000FF"/>
<path class="atom-19" d="M 228.6 56.3 L 230.4 59.2 Q 230.6 59.5, 230.8 60.0 Q 231.1 60.5, 231.1 60.5 L 231.1 56.3 L 231.9 56.3 L 231.9 61.8 L 231.1 61.8 L 229.2 58.6 Q 229.0 58.2, 228.7 57.8 Q 228.5 57.3, 228.4 57.2 L 228.4 61.8 L 227.7 61.8 L 227.7 56.3 L 228.6 56.3 " fill="#0000FF"/>
<path class="atom-28" d="M 262.8 35.0 L 266.0 35.0 L 266.0 35.6 L 263.5 35.6 L 263.5 37.3 L 265.8 37.3 L 265.8 38.0 L 263.5 38.0 L 263.5 40.5 L 262.8 40.5 L 262.8 35.0 " fill="#33CCCC"/>
<path class="atom-29" d="M 283.1 53.4 L 286.4 53.4 L 286.4 54.1 L 283.8 54.1 L 283.8 55.7 L 286.1 55.7 L 286.1 56.4 L 283.8 56.4 L 283.8 58.9 L 283.1 58.9 L 283.1 53.4 " fill="#33CCCC"/>
<path class="atom-30" d="M 244.4 55.3 L 247.6 55.3 L 247.6 56.0 L 245.1 56.0 L 245.1 57.6 L 247.3 57.6 L 247.3 58.3 L 245.1 58.3 L 245.1 60.8 L 244.4 60.8 L 244.4 55.3 " fill="#33CCCC"/>
<path class="atom-31" d="M 214.3 84.2 L 216.1 87.1 Q 216.2 87.4, 216.5 87.9 Q 216.8 88.4, 216.8 88.4 L 216.8 84.2 L 217.6 84.2 L 217.6 89.7 L 216.8 89.7 L 214.9 86.5 Q 214.6 86.1, 214.4 85.7 Q 214.2 85.3, 214.1 85.1 L 214.1 89.7 L 213.4 89.7 L 213.4 84.2 L 214.3 84.2 " fill="#0000FF"/>
<path class="atom-35" d="M 169.9 77.2 Q 169.9 75.8, 170.6 75.1 Q 171.2 74.4, 172.4 74.4 Q 173.5 74.4, 174.2 75.2 L 173.6 75.6 Q 173.2 75.0, 172.4 75.0 Q 171.6 75.0, 171.1 75.6 Q 170.7 76.1, 170.7 77.2 Q 170.7 78.2, 171.2 78.8 Q 171.6 79.4, 172.5 79.4 Q 173.1 79.4, 173.8 79.0 L 174.0 79.6 Q 173.7 79.8, 173.3 79.9 Q 172.9 80.0, 172.4 80.0 Q 171.2 80.0, 170.6 79.3 Q 169.9 78.5, 169.9 77.2 " fill="#000000"/>
<path class="atom-36" d="M 152.6 79.9 Q 152.6 78.5, 153.2 77.8 Q 153.9 77.1, 155.1 77.1 Q 156.2 77.1, 156.8 77.9 L 156.3 78.3 Q 155.9 77.7, 155.1 77.7 Q 154.3 77.7, 153.8 78.2 Q 153.4 78.8, 153.4 79.9 Q 153.4 80.9, 153.8 81.5 Q 154.3 82.1, 155.2 82.1 Q 155.8 82.1, 156.5 81.7 L 156.7 82.3 Q 156.4 82.5, 156.0 82.6 Q 155.5 82.7, 155.1 82.7 Q 153.9 82.7, 153.2 81.9 Q 152.6 81.2, 152.6 79.9 " fill="#000000"/>
<path class="atom-39" d="M 16.0 82.1 L 17.8 85.0 Q 17.9 85.3, 18.2 85.8 Q 18.5 86.4, 18.5 86.4 L 18.5 82.1 L 19.3 82.1 L 19.3 87.6 L 18.5 87.6 L 16.6 84.4 Q 16.3 84.1, 16.1 83.6 Q 15.9 83.2, 15.8 83.1 L 15.8 87.6 L 15.1 87.6 L 15.1 82.1 L 16.0 82.1 " fill="#0000FF"/>
<path class="atom-5" d="M 102.8,73.0 L 102.8,73.0 L 102.8,73.0 L 102.8,73.1 L 102.8,73.1 L 102.8,73.1 L 102.8,73.2 L 102.8,73.2 L 102.7,73.2 L 102.7,73.2 L 102.7,73.3 L 102.7,73.3 L 102.6,73.3 L 102.6,73.3 L 102.6,73.3 L 102.5,73.3 L 102.5,73.3 L 102.5,73.3 L 102.4,73.4 L 102.4,73.3 L 102.4,73.3 L 102.3,73.3 L 102.3,73.3 L 102.3,73.3 L 102.2,73.3 L 102.2,73.3 L 102.2,73.3 L 102.2,73.2 L 102.1,73.2 L 102.1,73.2 L 102.1,73.2 L 102.1,73.1 L 102.1,73.1 L 102.1,73.1 L 102.1,73.0 L 102.0,73.0 L 102.0,73.0 L 102.0,72.9 L 102.0,72.9 L 102.1,72.9 L 102.1,72.8 L 102.1,72.8 L 102.1,72.8 L 102.1,72.8 L 102.1,72.7 L 102.1,72.7 L 102.2,72.7 L 102.2,72.7 L 102.2,72.6 L 102.2,72.6 L 102.3,72.6 L 102.3,72.6 L 102.3,72.6 L 102.4,72.6 L 102.4,72.6 L 102.4,72.6 L 102.5,72.6 L 102.5,72.6 L 102.5,72.6 L 102.6,72.6 L 102.6,72.6 L 102.6,72.6 L 102.7,72.6 L 102.7,72.7 L 102.7,72.7 L 102.7,72.7 L 102.8,72.7 L 102.8,72.8 L 102.8,72.8 L 102.8,72.8 L 102.8,72.9 L 102.8,72.9 L 102.8,72.9 L 102.8,73.0 L 102.4,73.0 Z" style="fill:#000000;fill-rule:evenodd;fill-opacity:1;stroke:#000000;stroke-width:0.0px;stroke-linecap:butt;stroke-linejoin:miter;stroke-opacity:1;"/>
<path class="atom-39" d="M 14.3,85.7 L 14.3,85.7 L 14.3,85.7 L 14.3,85.8 L 14.3,85.8 L 14.3,85.8 L 14.3,85.8 L 14.2,85.9 L 14.2,85.9 L 14.2,85.9 L 14.2,86.0 L 14.2,86.0 L 14.1,86.0 L 14.1,86.0 L 14.1,86.0 L 14.0,86.0 L 14.0,86.0 L 14.0,86.0 L 13.9,86.0 L 13.9,86.0 L 13.9,86.0 L 13.8,86.0 L 13.8,86.0 L 13.8,86.0 L 13.7,86.0 L 13.7,86.0 L 13.7,86.0 L 13.7,85.9 L 13.6,85.9 L 13.6,85.9 L 13.6,85.9 L 13.6,85.8 L 13.6,85.8 L 13.6,85.8 L 13.5,85.7 L 13.5,85.7 L 13.5,85.7 L 13.5,85.6 L 13.5,85.6 L 13.5,85.6 L 13.6,85.5 L 13.6,85.5 L 13.6,85.5 L 13.6,85.5 L 13.6,85.4 L 13.6,85.4 L 13.7,85.4 L 13.7,85.4 L 13.7,85.3 L 13.7,85.3 L 13.8,85.3 L 13.8,85.3 L 13.8,85.3 L 13.9,85.3 L 13.9,85.3 L 13.9,85.3 L 14.0,85.3 L 14.0,85.3 L 14.0,85.3 L 14.1,85.3 L 14.1,85.3 L 14.1,85.3 L 14.2,85.3 L 14.2,85.4 L 14.2,85.4 L 14.2,85.4 L 14.2,85.4 L 14.3,85.5 L 14.3,85.5 L 14.3,85.5 L 14.3,85.6 L 14.3,85.6 L 14.3,85.6 L 14.3,85.7 L 13.9,85.7 Z" style="fill:#000000;fill-rule:evenodd;fill-opacity:1;stroke:#000000;stroke-width:0.0px;stroke-linecap:butt;stroke-linejoin:miter;stroke-opacity:1;"/>
<path class="atom-39" d="M 14.3,84.1 L 14.3,84.1 L 14.3,84.2 L 14.3,84.2 L 14.3,84.2 L 14.3,84.3 L 14.3,84.3 L 14.2,84.3 L 14.2,84.4 L 14.2,84.4 L 14.2,84.4 L 14.2,84.4 L 14.1,84.4 L 14.1,84.5 L 14.1,84.5 L 14.0,84.5 L 14.0,84.5 L 14.0,84.5 L 13.9,84.5 L 13.9,84.5 L 13.9,84.5 L 13.8,84.5 L 13.8,84.5 L 13.8,84.5 L 13.7,84.4 L 13.7,84.4 L 13.7,84.4 L 13.7,84.4 L 13.6,84.4 L 13.6,84.3 L 13.6,84.3 L 13.6,84.3 L 13.6,84.3 L 13.6,84.2 L 13.5,84.2 L 13.5,84.2 L 13.5,84.1 L 13.5,84.1 L 13.5,84.1 L 13.5,84.0 L 13.6,84.0 L 13.6,84.0 L 13.6,83.9 L 13.6,83.9 L 13.6,83.9 L 13.6,83.8 L 13.7,83.8 L 13.7,83.8 L 13.7,83.8 L 13.7,83.8 L 13.8,83.7 L 13.8,83.7 L 13.8,83.7 L 13.9,83.7 L 13.9,83.7 L 13.9,83.7 L 14.0,83.7 L 14.0,83.7 L 14.0,83.7 L 14.1,83.7 L 14.1,83.8 L 14.1,83.8 L 14.2,83.8 L 14.2,83.8 L 14.2,83.8 L 14.2,83.9 L 14.2,83.9 L 14.3,83.9 L 14.3,83.9 L 14.3,84.0 L 14.3,84.0 L 14.3,84.0 L 14.3,84.1 L 14.3,84.1 L 13.9,84.1 Z" style="fill:#000000;fill-rule:evenodd;fill-opacity:1;stroke:#000000;stroke-width:0.0px;stroke-linecap:butt;stroke-linejoin:miter;stroke-opacity:1;"/>
<path class="bond-0 atom-0 atom-1" d="M 319.0,33.6 L 331.2,48.7" style="fill:none;fill-rule:evenodd;stroke:#000000;stroke-width:2.0px;stroke-linecap:butt;stroke-linejoin:miter;stroke-opacity:1"/>
<path class="bond-0 atom-0 atom-1" d="M 321.2,31.8 L 333.4,46.9" style="fill:none;fill-rule:evenodd;stroke:#000000;stroke-width:2.0px;stroke-linecap:butt;stroke-linejoin:miter;stroke-opacity:1"/>
<path class="bond-0 atom-0 atom-1" d="M 316.8,35.4 L 329.0,50.5" style="fill:none;fill-rule:evenodd;stroke:#000000;stroke-width:2.0px;stroke-linecap:butt;stroke-linejoin:miter;stroke-opacity:1"/>
<path class="bond-1 atom-1 atom-2" d="M 331.2,48.7 L 343.3,63.8" style="fill:none;fill-rule:evenodd;stroke:#000000;stroke-width:2.0px;stroke-linecap:butt;stroke-linejoin:miter;stroke-opacity:1"/>
<path class="bond-2 atom-2 atom-3" d="M 343.3,63.8 L 362.5,60.8" style="fill:none;fill-rule:evenodd;stroke:#000000;stroke-width:2.0px;stroke-linecap:butt;stroke-linejoin:miter;stroke-opacity:1"/>
<path class="bond-2 atom-2 atom-3" d="M 345.4,66.4 L 361.3,63.9" style="fill:none;fill-rule:evenodd;stroke:#000000;stroke-width:2.0px;stroke-linecap:butt;stroke-linejoin:miter;stroke-opacity:1"/>
<path class="bond-3 atom-3 atom-4" d="M 362.5,60.8 L 374.7,75.9" style="fill:none;fill-rule:evenodd;stroke:#000000;stroke-width:2.0px;stroke-linecap:butt;stroke-linejoin:miter;stroke-opacity:1"/>
<path class="bond-4 atom-4 atom-5" d="M 374.7,75.9 L 382.9,74.7" style="fill:none;fill-rule:evenodd;stroke:#000000;stroke-width:2.0px;stroke-linecap:butt;stroke-linejoin:miter;stroke-opacity:1"/>
<path class="bond-4 atom-4 atom-5" d="M 382.9,74.7 L 391.1,73.4" style="fill:none;fill-rule:evenodd;stroke:#0000FF;stroke-width:2.0px;stroke-linecap:butt;stroke-linejoin:miter;stroke-opacity:1"/>
<path class="bond-5 atom-4 atom-6" d="M 374.7,75.9 L 367.7,94.0" style="fill:none;fill-rule:evenodd;stroke:#000000;stroke-width:2.0px;stroke-linecap:butt;stroke-linejoin:miter;stroke-opacity:1"/>
<path class="bond-5 atom-4 atom-6" d="M 371.4,76.4 L 365.6,91.5" style="fill:none;fill-rule:evenodd;stroke:#000000;stroke-width:2.0px;stroke-linecap:butt;stroke-linejoin:miter;stroke-opacity:1"/>
<path class="bond-6 atom-6 atom-7" d="M 367.7,94.0 L 379.8,109.1" style="fill:none;fill-rule:evenodd;stroke:#000000;stroke-width:2.0px;stroke-linecap:butt;stroke-linejoin:miter;stroke-opacity:1"/>
<path class="bond-7 atom-7 atom-8" d="M 379.8,109.1 L 388.2,107.8" style="fill:none;fill-rule:evenodd;stroke:#000000;stroke-width:2.0px;stroke-linecap:butt;stroke-linejoin:miter;stroke-opacity:1"/>
<path class="bond-7 atom-7 atom-8" d="M 388.2,107.8 L 396.6,106.5" style="fill:none;fill-rule:evenodd;stroke:#CCCC00;stroke-width:2.0px;stroke-linecap:butt;stroke-linejoin:miter;stroke-opacity:1"/>
<path class="bond-8 atom-8 atom-9" d="M 398.1,109.9 L 399.1,116.0" style="fill:none;fill-rule:evenodd;stroke:#CCCC00;stroke-width:2.0px;stroke-linecap:butt;stroke-linejoin:miter;stroke-opacity:1"/>
<path class="bond-8 atom-8 atom-9" d="M 399.1,116.0 L 400.0,122.1" style="fill:none;fill-rule:evenodd;stroke:#FF0000;stroke-width:2.0px;stroke-linecap:butt;stroke-linejoin:miter;stroke-opacity:1"/>
<path class="bond-8 atom-8 atom-9" d="M 400.9,109.4 L 401.9,115.6" style="fill:none;fill-rule:evenodd;stroke:#CCCC00;stroke-width:2.0px;stroke-linecap:butt;stroke-linejoin:miter;stroke-opacity:1"/>
<path class="bond-8 atom-8 atom-9" d="M 401.9,115.6 L 402.8,121.7" style="fill:none;fill-rule:evenodd;stroke:#FF0000;stroke-width:2.0px;stroke-linecap:butt;stroke-linejoin:miter;stroke-opacity:1"/>
<path class="bond-9 atom-8 atom-10" d="M 399.9,102.6 L 398.9,96.4" style="fill:none;fill-rule:evenodd;stroke:#CCCC00;stroke-width:2.0px;stroke-linecap:butt;stroke-linejoin:miter;stroke-opacity:1"/>
<path class="bond-9 atom-8 atom-10" d="M 398.9,96.4 L 398.0,90.3" style="fill:none;fill-rule:evenodd;stroke:#FF0000;stroke-width:2.0px;stroke-linecap:butt;stroke-linejoin:miter;stroke-opacity:1"/>
<path class="bond-9 atom-8 atom-10" d="M 397.1,103.0 L 396.1,96.9" style="fill:none;fill-rule:evenodd;stroke:#CCCC00;stroke-width:2.0px;stroke-linecap:butt;stroke-linejoin:miter;stroke-opacity:1"/>
<path class="bond-9 atom-8 atom-10" d="M 396.1,96.9 L 395.1,90.7" style="fill:none;fill-rule:evenodd;stroke:#FF0000;stroke-width:2.0px;stroke-linecap:butt;stroke-linejoin:miter;stroke-opacity:1"/>
<path class="bond-10 atom-8 atom-11" d="M 401.4,105.8 L 409.8,104.5" style="fill:none;fill-rule:evenodd;stroke:#CCCC00;stroke-width:2.0px;stroke-linecap:butt;stroke-linejoin:miter;stroke-opacity:1"/>
<path class="bond-10 atom-8 atom-11" d="M 409.8,104.5 L 418.1,103.2" style="fill:none;fill-rule:evenodd;stroke:#000000;stroke-width:2.0px;stroke-linecap:butt;stroke-linejoin:miter;stroke-opacity:1"/>
<path class="bond-11 atom-11 atom-12" d="M 418.1,103.2 L 425.1,85.1" style="fill:none;fill-rule:evenodd;stroke:#000000;stroke-width:2.0px;stroke-linecap:butt;stroke-linejoin:miter;stroke-opacity:1"/>
<path class="bond-12 atom-12 atom-13" d="M 425.1,85.1 L 444.3,82.1" style="fill:none;fill-rule:evenodd;stroke:#000000;stroke-width:2.0px;stroke-linecap:butt;stroke-linejoin:miter;stroke-opacity:1"/>
<path class="bond-13 atom-13 atom-14" d="M 444.3,82.1 L 456.5,97.2" style="fill:none;fill-rule:evenodd;stroke:#000000;stroke-width:2.0px;stroke-linecap:butt;stroke-linejoin:miter;stroke-opacity:1"/>
<path class="bond-14 atom-14 atom-15" d="M 456.5,97.2 L 475.6,94.2" style="fill:none;fill-rule:evenodd;stroke:#000000;stroke-width:2.0px;stroke-linecap:butt;stroke-linejoin:miter;stroke-opacity:1"/>
<path class="bond-15 atom-15 atom-16" d="M 475.6,94.2 L 482.6,76.2" style="fill:none;fill-rule:evenodd;stroke:#000000;stroke-width:2.0px;stroke-linecap:butt;stroke-linejoin:miter;stroke-opacity:1"/>
<path class="bond-16 atom-16 atom-17" d="M 482.6,76.2 L 501.8,73.2" style="fill:none;fill-rule:evenodd;stroke:#000000;stroke-width:2.0px;stroke-linecap:butt;stroke-linejoin:miter;stroke-opacity:1"/>
<path class="bond-17 atom-17 atom-18" d="M 501.8,73.2 L 505.4,66.2" style="fill:none;fill-rule:evenodd;stroke:#000000;stroke-width:2.0px;stroke-linecap:butt;stroke-linejoin:miter;stroke-opacity:1"/>
<path class="bond-17 atom-17 atom-18" d="M 505.4,66.2 L 508.9,59.3" style="fill:none;fill-rule:evenodd;stroke:#0000FF;stroke-width:2.0px;stroke-linecap:butt;stroke-linejoin:miter;stroke-opacity:1"/>
<path class="bond-17 atom-17 atom-18" d="M 505.3,72.6 L 508.4,66.6" style="fill:none;fill-rule:evenodd;stroke:#000000;stroke-width:2.0px;stroke-linecap:butt;stroke-linejoin:miter;stroke-opacity:1"/>
<path class="bond-17 atom-17 atom-18" d="M 508.4,66.6 L 511.4,60.6" style="fill:none;fill-rule:evenodd;stroke:#0000FF;stroke-width:2.0px;stroke-linecap:butt;stroke-linejoin:miter;stroke-opacity:1"/>
<path class="bond-18 atom-18 atom-19" d="M 513.4,56.4 L 527.1,58.6" style="fill:none;fill-rule:evenodd;stroke:#0000FF;stroke-width:2.0px;stroke-linecap:butt;stroke-linejoin:miter;stroke-opacity:1"/>
<path class="bond-19 atom-19 atom-20" d="M 530.3,62.4 L 531.5,70.3" style="fill:none;fill-rule:evenodd;stroke:#0000FF;stroke-width:2.0px;stroke-linecap:butt;stroke-linejoin:miter;stroke-opacity:1"/>
<path class="bond-19 atom-19 atom-20" d="M 531.5,70.3 L 532.8,78.2" style="fill:none;fill-rule:evenodd;stroke:#000000;stroke-width:2.0px;stroke-linecap:butt;stroke-linejoin:miter;stroke-opacity:1"/>
<path class="bond-19 atom-19 atom-20" d="M 527.5,62.8 L 528.6,69.7" style="fill:none;fill-rule:evenodd;stroke:#0000FF;stroke-width:2.0px;stroke-linecap:butt;stroke-linejoin:miter;stroke-opacity:1"/>
<path class="bond-19 atom-19 atom-20" d="M 528.6,69.7 L 529.6,76.6" style="fill:none;fill-rule:evenodd;stroke:#000000;stroke-width:2.0px;stroke-linecap:butt;stroke-linejoin:miter;stroke-opacity:1"/>
<path class="bond-20 atom-20 atom-21" d="M 532.8,78.2 L 550.0,87.0" style="fill:none;fill-rule:evenodd;stroke:#000000;stroke-width:2.0px;stroke-linecap:butt;stroke-linejoin:miter;stroke-opacity:1"/>
<path class="bond-21 atom-21 atom-22" d="M 550.0,87.0 L 551.0,106.4" style="fill:none;fill-rule:evenodd;stroke:#000000;stroke-width:2.0px;stroke-linecap:butt;stroke-linejoin:miter;stroke-opacity:1"/>
<path class="bond-21 atom-21 atom-22" d="M 552.9,88.5 L 553.7,104.6" style="fill:none;fill-rule:evenodd;stroke:#000000;stroke-width:2.0px;stroke-linecap:butt;stroke-linejoin:miter;stroke-opacity:1"/>
<path class="bond-22 atom-22 atom-23" d="M 551.0,106.4 L 568.2,115.2" style="fill:none;fill-rule:evenodd;stroke:#000000;stroke-width:2.0px;stroke-linecap:butt;stroke-linejoin:miter;stroke-opacity:1"/>
<path class="bond-23 atom-23 atom-24" d="M 568.2,115.2 L 584.5,104.7" style="fill:none;fill-rule:evenodd;stroke:#000000;stroke-width:2.0px;stroke-linecap:butt;stroke-linejoin:miter;stroke-opacity:1"/>
<path class="bond-23 atom-23 atom-24" d="M 568.1,112.0 L 581.6,103.2" style="fill:none;fill-rule:evenodd;stroke:#000000;stroke-width:2.0px;stroke-linecap:butt;stroke-linejoin:miter;stroke-opacity:1"/>
<path class="bond-24 atom-24 atom-25" d="M 584.5,104.7 L 583.6,85.4" style="fill:none;fill-rule:evenodd;stroke:#000000;stroke-width:2.0px;stroke-linecap:butt;stroke-linejoin:miter;stroke-opacity:1"/>
<path class="bond-25 atom-25 atom-26" d="M 583.6,85.4 L 566.3,76.5" style="fill:none;fill-rule:evenodd;stroke:#000000;stroke-width:2.0px;stroke-linecap:butt;stroke-linejoin:miter;stroke-opacity:1"/>
<path class="bond-25 atom-25 atom-26" d="M 580.8,87.1 L 566.5,79.8" style="fill:none;fill-rule:evenodd;stroke:#000000;stroke-width:2.0px;stroke-linecap:butt;stroke-linejoin:miter;stroke-opacity:1"/>
<path class="bond-26 atom-26 atom-27" d="M 566.3,76.5 L 565.4,57.1" style="fill:none;fill-rule:evenodd;stroke:#000000;stroke-width:2.0px;stroke-linecap:butt;stroke-linejoin:miter;stroke-opacity:1"/>
<path class="bond-27 atom-27 atom-28" d="M 565.4,57.1 L 565.0,49.1" style="fill:none;fill-rule:evenodd;stroke:#000000;stroke-width:2.0px;stroke-linecap:butt;stroke-linejoin:miter;stroke-opacity:1"/>
<path class="bond-27 atom-27 atom-28" d="M 565.0,49.1 L 564.6,41.1" style="fill:none;fill-rule:evenodd;stroke:#33CCCC;stroke-width:2.0px;stroke-linecap:butt;stroke-linejoin:miter;stroke-opacity:1"/>
<path class="bond-28 atom-27 atom-29" d="M 565.4,57.1 L 573.9,56.7" style="fill:none;fill-rule:evenodd;stroke:#000000;stroke-width:2.0px;stroke-linecap:butt;stroke-linejoin:miter;stroke-opacity:1"/>
<path class="bond-28 atom-27 atom-29" d="M 573.9,56.7 L 582.5,56.3" style="fill:none;fill-rule:evenodd;stroke:#33CCCC;stroke-width:2.0px;stroke-linecap:butt;stroke-linejoin:miter;stroke-opacity:1"/>
<path class="bond-29 atom-27 atom-30" d="M 565.4,57.1 L 556.8,57.6" style="fill:none;fill-rule:evenodd;stroke:#000000;stroke-width:2.0px;stroke-linecap:butt;stroke-linejoin:miter;stroke-opacity:1"/>
<path class="bond-29 atom-27 atom-30" d="M 556.8,57.6 L 548.3,58.0" style="fill:none;fill-rule:evenodd;stroke:#33CCCC;stroke-width:2.0px;stroke-linecap:butt;stroke-linejoin:miter;stroke-opacity:1"/>
<path class="bond-30 atom-20 atom-31" d="M 532.8,78.2 L 525.5,81.9" style="fill:none;fill-rule:evenodd;stroke:#000000;stroke-width:2.0px;stroke-linecap:butt;stroke-linejoin:miter;stroke-opacity:1"/>
<path class="bond-30 atom-20 atom-31" d="M 525.5,81.9 L 518.2,85.6" style="fill:none;fill-rule:evenodd;stroke:#0000FF;stroke-width:2.0px;stroke-linecap:butt;stroke-linejoin:miter;stroke-opacity:1"/>
<path class="bond-31 atom-31 atom-32" d="M 514.9,90.3 L 513.7,98.2" style="fill:none;fill-rule:evenodd;stroke:#0000FF;stroke-width:2.0px;stroke-linecap:butt;stroke-linejoin:miter;stroke-opacity:1"/>
<path class="bond-31 atom-31 atom-32" d="M 513.7,98.2 L 512.4,106.1" style="fill:none;fill-rule:evenodd;stroke:#000000;stroke-width:2.0px;stroke-linecap:butt;stroke-linejoin:miter;stroke-opacity:1"/>
<path class="bond-32 atom-16 atom-33" d="M 482.6,76.2 L 470.5,61.0" style="fill:none;fill-rule:evenodd;stroke:#000000;stroke-width:2.0px;stroke-linecap:butt;stroke-linejoin:miter;stroke-opacity:1"/>
<path class="bond-33 atom-33 atom-34" d="M 470.5,61.0 L 451.3,64.0" style="fill:none;fill-rule:evenodd;stroke:#000000;stroke-width:2.0px;stroke-linecap:butt;stroke-linejoin:miter;stroke-opacity:1"/>
<path class="bond-34 atom-16 atom-35" d="M 482.6,76.2 L 474.8,76.9" style="fill:none;fill-rule:evenodd;stroke:#000000;stroke-width:2.0px;stroke-linecap:butt;stroke-linejoin:miter;stroke-opacity:1"/>
<path class="bond-35 atom-35 atom-36" d="M 469.3,77.6 L 457.5,79.4" style="fill:none;fill-rule:evenodd;stroke:#000000;stroke-width:2.0px;stroke-linecap:butt;stroke-linejoin:miter;stroke-opacity:1"/>
<path class="bond-36 atom-6 atom-37" d="M 367.7,94.0 L 348.5,97.0" style="fill:none;fill-rule:evenodd;stroke:#000000;stroke-width:2.0px;stroke-linecap:butt;stroke-linejoin:miter;stroke-opacity:1"/>
<path class="bond-37 atom-37 atom-38" d="M 348.5,97.0 L 336.3,81.9" style="fill:none;fill-rule:evenodd;stroke:#000000;stroke-width:2.0px;stroke-linecap:butt;stroke-linejoin:miter;stroke-opacity:1"/>
<path class="bond-37 atom-37 atom-38" d="M 349.7,93.9 L 339.6,81.4" style="fill:none;fill-rule:evenodd;stroke:#000000;stroke-width:2.0px;stroke-linecap:butt;stroke-linejoin:miter;stroke-opacity:1"/>
<path class="bond-38 atom-38 atom-39" d="M 336.3,81.9 L 328.1,83.2" style="fill:none;fill-rule:evenodd;stroke:#000000;stroke-width:2.0px;stroke-linecap:butt;stroke-linejoin:miter;stroke-opacity:1"/>
<path class="bond-38 atom-38 atom-39" d="M 328.1,83.2 L 319.9,84.5" style="fill:none;fill-rule:evenodd;stroke:#0000FF;stroke-width:2.0px;stroke-linecap:butt;stroke-linejoin:miter;stroke-opacity:1"/>
<path class="bond-39 atom-38 atom-2" d="M 336.3,81.9 L 343.3,63.8" style="fill:none;fill-rule:evenodd;stroke:#000000;stroke-width:2.0px;stroke-linecap:butt;stroke-linejoin:miter;stroke-opacity:1"/>
<path class="bond-40 atom-34 atom-13" d="M 451.3,64.0 L 444.3,82.1" style="fill:none;fill-rule:evenodd;stroke:#000000;stroke-width:2.0px;stroke-linecap:butt;stroke-linejoin:miter;stroke-opacity:1"/>
<path class="bond-41 atom-36 atom-13" d="M 452.0,80.4 L 444.3,82.1" style="fill:none;fill-rule:evenodd;stroke:#000000;stroke-width:2.0px;stroke-linecap:butt;stroke-linejoin:miter;stroke-opacity:1"/>
<path class="bond-42 atom-31 atom-17" d="M 512.8,84.2 L 507.3,78.7" style="fill:none;fill-rule:evenodd;stroke:#0000FF;stroke-width:2.0px;stroke-linecap:butt;stroke-linejoin:miter;stroke-opacity:1"/>
<path class="bond-42 atom-31 atom-17" d="M 507.3,78.7 L 501.8,73.2" style="fill:none;fill-rule:evenodd;stroke:#000000;stroke-width:2.0px;stroke-linecap:butt;stroke-linejoin:miter;stroke-opacity:1"/>
<path class="bond-43 atom-26 atom-21" d="M 566.3,76.5 L 550.0,87.0" style="fill:none;fill-rule:evenodd;stroke:#000000;stroke-width:2.0px;stroke-linecap:butt;stroke-linejoin:miter;stroke-opacity:1"/>
<path d="M 330.6,48.0 L 331.2,48.7 L 331.8,49.5" style="fill:none;stroke:#000000;stroke-width:2.0px;stroke-linecap:butt;stroke-linejoin:miter;stroke-opacity:1;"/>
<path d="M 361.5,61.0 L 362.5,60.8 L 363.1,61.6" style="fill:none;stroke:#000000;stroke-width:2.0px;stroke-linecap:butt;stroke-linejoin:miter;stroke-opacity:1;"/>
<path d="M 379.2,108.4 L 379.8,109.1 L 380.2,109.1" style="fill:none;stroke:#000000;stroke-width:2.0px;stroke-linecap:butt;stroke-linejoin:miter;stroke-opacity:1;"/>
<path d="M 417.7,103.2 L 418.1,103.2 L 418.5,102.3" style="fill:none;stroke:#000000;stroke-width:2.0px;stroke-linecap:butt;stroke-linejoin:miter;stroke-opacity:1;"/>
<path d="M 424.8,86.0 L 425.1,85.1 L 426.1,84.9" style="fill:none;stroke:#000000;stroke-width:2.0px;stroke-linecap:butt;stroke-linejoin:miter;stroke-opacity:1;"/>
<path d="M 455.9,96.5 L 456.5,97.2 L 457.4,97.1" style="fill:none;stroke:#000000;stroke-width:2.0px;stroke-linecap:butt;stroke-linejoin:miter;stroke-opacity:1;"/>
<path d="M 474.7,94.4 L 475.6,94.2 L 476.0,93.3" style="fill:none;stroke:#000000;stroke-width:2.0px;stroke-linecap:butt;stroke-linejoin:miter;stroke-opacity:1;"/>
<path d="M 550.9,105.4 L 551.0,106.4 L 551.9,106.8" style="fill:none;stroke:#000000;stroke-width:2.0px;stroke-linecap:butt;stroke-linejoin:miter;stroke-opacity:1;"/>
<path d="M 567.4,114.8 L 568.2,115.2 L 569.1,114.7" style="fill:none;stroke:#000000;stroke-width:2.0px;stroke-linecap:butt;stroke-linejoin:miter;stroke-opacity:1;"/>
<path d="M 583.7,105.3 L 584.5,104.7 L 584.5,103.8" style="fill:none;stroke:#000000;stroke-width:2.0px;stroke-linecap:butt;stroke-linejoin:miter;stroke-opacity:1;"/>
<path d="M 583.6,86.3 L 583.6,85.4 L 582.7,84.9" style="fill:none;stroke:#000000;stroke-width:2.0px;stroke-linecap:butt;stroke-linejoin:miter;stroke-opacity:1;"/>
<path d="M 471.1,61.8 L 470.5,61.0 L 469.5,61.2" style="fill:none;stroke:#000000;stroke-width:2.0px;stroke-linecap:butt;stroke-linejoin:miter;stroke-opacity:1;"/>
<path d="M 452.3,63.9 L 451.3,64.0 L 451.0,64.9" style="fill:none;stroke:#000000;stroke-width:2.0px;stroke-linecap:butt;stroke-linejoin:miter;stroke-opacity:1;"/>
<path d="M 349.5,96.9 L 348.5,97.0 L 347.9,96.3" style="fill:none;stroke:#000000;stroke-width:2.0px;stroke-linecap:butt;stroke-linejoin:miter;stroke-opacity:1;"/>
<path class="atom-5" d="M 392.6 70.2 L 394.4 73.1 Q 394.6 73.4, 394.9 73.9 Q 395.2 74.5, 395.2 74.5 L 395.2 70.2 L 395.9 70.2 L 395.9 75.7 L 395.2 75.7 L 393.2 72.5 Q 393.0 72.2, 392.8 71.7 Q 392.5 71.3, 392.5 71.2 L 392.5 75.7 L 391.7 75.7 L 391.7 70.2 L 392.6 70.2 " fill="#0000FF"/>
<path class="atom-5" d="M 397.0 70.2 L 397.7 70.2 L 397.7 72.6 L 400.5 72.6 L 400.5 70.2 L 401.3 70.2 L 401.3 75.7 L 400.5 75.7 L 400.5 73.2 L 397.7 73.2 L 397.7 75.7 L 397.0 75.7 L 397.0 70.2 " fill="#0000FF"/>
<path class="atom-5" d="M 402.3 75.5 Q 402.5 75.2, 402.8 75.0 Q 403.1 74.8, 403.5 74.8 Q 404.1 74.8, 404.4 75.1 Q 404.7 75.4, 404.7 75.9 Q 404.7 76.4, 404.3 76.9 Q 403.9 77.5, 403.1 78.0 L 404.8 78.0 L 404.8 78.5 L 402.3 78.5 L 402.3 78.1 Q 403.0 77.6, 403.4 77.3 Q 403.8 76.9, 404.0 76.6 Q 404.2 76.3, 404.2 75.9 Q 404.2 75.6, 404.0 75.4 Q 403.8 75.2, 403.5 75.2 Q 403.2 75.2, 403.0 75.3 Q 402.9 75.4, 402.7 75.7 L 402.3 75.5 " fill="#0000FF"/>
<path class="atom-8" d="M 397.4 108.0 Q 397.5 108.1, 397.8 108.2 Q 398.0 108.3, 398.3 108.3 Q 398.6 108.4, 398.9 108.4 Q 399.4 108.4, 399.7 108.2 Q 400.0 107.9, 400.0 107.5 Q 400.0 107.2, 399.8 107.0 Q 399.7 106.8, 399.4 106.7 Q 399.2 106.6, 398.8 106.5 Q 398.3 106.3, 398.0 106.2 Q 397.8 106.0, 397.5 105.7 Q 397.3 105.5, 397.3 105.0 Q 397.3 104.3, 397.8 103.8 Q 398.3 103.4, 399.2 103.4 Q 399.8 103.4, 400.6 103.7 L 400.4 104.3 Q 399.7 104.0, 399.2 104.0 Q 398.7 104.0, 398.4 104.3 Q 398.1 104.5, 398.1 104.9 Q 398.1 105.2, 398.3 105.3 Q 398.4 105.5, 398.6 105.6 Q 398.9 105.7, 399.2 105.8 Q 399.7 106.0, 400.0 106.1 Q 400.3 106.3, 400.5 106.6 Q 400.7 106.9, 400.7 107.5 Q 400.7 108.2, 400.2 108.6 Q 399.7 109.0, 398.9 109.0 Q 398.4 109.0, 398.0 108.9 Q 397.7 108.8, 397.2 108.7 L 397.4 108.0 " fill="#CCCC00"/>
<path class="atom-9" d="M 399.4 125.3 Q 399.4 124.0, 400.1 123.3 Q 400.7 122.5, 402.0 122.5 Q 403.2 122.5, 403.8 123.3 Q 404.5 124.0, 404.5 125.3 Q 404.5 126.7, 403.8 127.4 Q 403.2 128.2, 402.0 128.2 Q 400.8 128.2, 400.1 127.4 Q 399.4 126.7, 399.4 125.3 M 402.0 127.6 Q 402.8 127.6, 403.3 127.0 Q 403.7 126.4, 403.7 125.3 Q 403.7 124.3, 403.3 123.7 Q 402.8 123.2, 402.0 123.2 Q 401.1 123.2, 400.7 123.7 Q 400.2 124.2, 400.2 125.3 Q 400.2 126.4, 400.7 127.0 Q 401.1 127.6, 402.0 127.6 " fill="#FF0000"/>
<path class="atom-10" d="M 393.5 87.0 Q 393.5 85.7, 394.1 85.0 Q 394.8 84.2, 396.0 84.2 Q 397.2 84.2, 397.9 85.0 Q 398.5 85.7, 398.5 87.0 Q 398.5 88.3, 397.9 89.1 Q 397.2 89.9, 396.0 89.9 Q 394.8 89.9, 394.1 89.1 Q 393.5 88.3, 393.5 87.0 M 396.0 89.2 Q 396.8 89.2, 397.3 88.7 Q 397.7 88.1, 397.7 87.0 Q 397.7 85.9, 397.3 85.4 Q 396.8 84.8, 396.0 84.8 Q 395.2 84.8, 394.7 85.4 Q 394.3 85.9, 394.3 87.0 Q 394.3 88.1, 394.7 88.7 Q 395.2 89.2, 396.0 89.2 " fill="#FF0000"/>
<path class="atom-18" d="M 509.4 53.2 L 511.2 56.1 Q 511.4 56.4, 511.7 56.9 Q 512.0 57.4, 512.0 57.4 L 512.0 53.2 L 512.7 53.2 L 512.7 58.7 L 512.0 58.7 L 510.0 55.5 Q 509.8 55.1, 509.6 54.7 Q 509.4 54.3, 509.3 54.1 L 509.3 58.7 L 508.6 58.7 L 508.6 53.2 L 509.4 53.2 " fill="#0000FF"/>
<path class="atom-19" d="M 528.6 56.3 L 530.4 59.2 Q 530.6 59.5, 530.8 60.0 Q 531.1 60.5, 531.1 60.5 L 531.1 56.3 L 531.9 56.3 L 531.9 61.8 L 531.1 61.8 L 529.2 58.6 Q 529.0 58.2, 528.7 57.8 Q 528.5 57.3, 528.4 57.2 L 528.4 61.8 L 527.7 61.8 L 527.7 56.3 L 528.6 56.3 " fill="#0000FF"/>
<path class="atom-28" d="M 562.8 35.0 L 566.0 35.0 L 566.0 35.6 L 563.5 35.6 L 563.5 37.3 L 565.8 37.3 L 565.8 38.0 L 563.5 38.0 L 563.5 40.5 L 562.8 40.5 L 562.8 35.0 " fill="#33CCCC"/>
<path class="atom-29" d="M 583.1 53.4 L 586.4 53.4 L 586.4 54.1 L 583.8 54.1 L 583.8 55.7 L 586.1 55.7 L 586.1 56.4 L 583.8 56.4 L 583.8 58.9 L 583.1 58.9 L 583.1 53.4 " fill="#33CCCC"/>
<path class="atom-30" d="M 544.4 55.3 L 547.6 55.3 L 547.6 56.0 L 545.1 56.0 L 545.1 57.6 L 547.3 57.6 L 547.3 58.3 L 545.1 58.3 L 545.1 60.8 L 544.4 60.8 L 544.4 55.3 " fill="#33CCCC"/>
<path class="atom-31" d="M 514.3 84.2 L 516.1 87.1 Q 516.2 87.4, 516.5 87.9 Q 516.8 88.4, 516.8 88.4 L 516.8 84.2 L 517.6 84.2 L 517.6 89.7 L 516.8 89.7 L 514.9 86.5 Q 514.6 86.1, 514.4 85.7 Q 514.2 85.3, 514.1 85.1 L 514.1 89.7 L 513.4 89.7 L 513.4 84.2 L 514.3 84.2 " fill="#0000FF"/>
<path class="atom-35" d="M 469.9 77.2 Q 469.9 75.8, 470.6 75.1 Q 471.2 74.4, 472.4 74.4 Q 473.5 74.4, 474.2 75.2 L 473.6 75.6 Q 473.2 75.0, 472.4 75.0 Q 471.6 75.0, 471.1 75.6 Q 470.7 76.1, 470.7 77.2 Q 470.7 78.2, 471.2 78.8 Q 471.6 79.4, 472.5 79.4 Q 473.1 79.4, 473.8 79.0 L 474.0 79.6 Q 473.7 79.8, 473.3 79.9 Q 472.9 80.0, 472.4 80.0 Q 471.2 80.0, 470.6 79.3 Q 469.9 78.5, 469.9 77.2 " fill="#000000"/>
<path class="atom-36" d="M 452.6 79.9 Q 452.6 78.5, 453.2 77.8 Q 453.9 77.1, 455.1 77.1 Q 456.2 77.1, 456.8 77.9 L 456.3 78.3 Q 455.9 77.7, 455.1 77.7 Q 454.3 77.7, 453.8 78.2 Q 453.4 78.8, 453.4 79.9 Q 453.4 80.9, 453.8 81.5 Q 454.3 82.1, 455.2 82.1 Q 455.8 82.1, 456.5 81.7 L 456.7 82.3 Q 456.4 82.5, 456.0 82.6 Q 455.5 82.7, 455.1 82.7 Q 453.9 82.7, 453.2 81.9 Q 452.6 81.2, 452.6 79.9 " fill="#000000"/>
<path class="atom-39" d="M 316.0 82.1 L 317.8 85.0 Q 317.9 85.3, 318.2 85.8 Q 318.5 86.4, 318.5 86.4 L 318.5 82.1 L 319.3 82.1 L 319.3 87.6 L 318.5 87.6 L 316.6 84.4 Q 316.3 84.1, 316.1 83.6 Q 315.9 83.2, 315.8 83.1 L 315.8 87.6 L 315.1 87.6 L 315.1 82.1 L 316.0 82.1 " fill="#0000FF"/>
<path class="atom-39" d="M 314.3,85.7 L 314.3,85.7 L 314.3,85.7 L 314.3,85.8 L 314.3,85.8 L 314.3,85.8 L 314.3,85.8 L 314.2,85.9 L 314.2,85.9 L 314.2,85.9 L 314.2,86.0 L 314.2,86.0 L 314.1,86.0 L 314.1,86.0 L 314.1,86.0 L 314.0,86.0 L 314.0,86.0 L 314.0,86.0 L 313.9,86.0 L 313.9,86.0 L 313.9,86.0 L 313.8,86.0 L 313.8,86.0 L 313.8,86.0 L 313.7,86.0 L 313.7,86.0 L 313.7,86.0 L 313.7,85.9 L 313.6,85.9 L 313.6,85.9 L 313.6,85.9 L 313.6,85.8 L 313.6,85.8 L 313.6,85.8 L 313.5,85.7 L 313.5,85.7 L 313.5,85.7 L 313.5,85.6 L 313.5,85.6 L 313.5,85.6 L 313.6,85.5 L 313.6,85.5 L 313.6,85.5 L 313.6,85.5 L 313.6,85.4 L 313.6,85.4 L 313.7,85.4 L 313.7,85.4 L 313.7,85.3 L 313.7,85.3 L 313.8,85.3 L 313.8,85.3 L 313.8,85.3 L 313.9,85.3 L 313.9,85.3 L 313.9,85.3 L 314.0,85.3 L 314.0,85.3 L 314.0,85.3 L 314.1,85.3 L 314.1,85.3 L 314.1,85.3 L 314.2,85.3 L 314.2,85.4 L 314.2,85.4 L 314.2,85.4 L 314.2,85.4 L 314.3,85.5 L 314.3,85.5 L 314.3,85.5 L 314.3,85.6 L 314.3,85.6 L 314.3,85.6 L 314.3,85.7 L 313.9,85.7 Z" style="fill:#000000;fill-rule:evenodd;fill-opacity:1;stroke:#000000;stroke-width:0.0px;stroke-linecap:butt;stroke-linejoin:miter;stroke-opacity:1;"/>
<path class="atom-39" d="M 314.3,84.1 L 314.3,84.1 L 314.3,84.2 L 314.3,84.2 L 314.3,84.2 L 314.3,84.3 L 314.3,84.3 L 314.2,84.3 L 314.2,84.4 L 314.2,84.4 L 314.2,84.4 L 314.2,84.4 L 314.1,84.4 L 314.1,84.5 L 314.1,84.5 L 314.0,84.5 L 314.0,84.5 L 314.0,84.5 L 313.9,84.5 L 313.9,84.5 L 313.9,84.5 L 313.8,84.5 L 313.8,84.5 L 313.8,84.5 L 313.7,84.4 L 313.7,84.4 L 313.7,84.4 L 313.7,84.4 L 313.6,84.4 L 313.6,84.3 L 313.6,84.3 L 313.6,84.3 L 313.6,84.3 L 313.6,84.2 L 313.5,84.2 L 313.5,84.2 L 313.5,84.1 L 313.5,84.1 L 313.5,84.1 L 313.5,84.0 L 313.6,84.0 L 313.6,84.0 L 313.6,83.9 L 313.6,83.9 L 313.6,83.9 L 313.6,83.8 L 313.7,83.8 L 313.7,83.8 L 313.7,83.8 L 313.7,83.8 L 313.8,83.7 L 313.8,83.7 L 313.8,83.7 L 313.9,83.7 L 313.9,83.7 L 313.9,83.7 L 314.0,83.7 L 314.0,83.7 L 314.0,83.7 L 314.1,83.7 L 314.1,83.8 L 314.1,83.8 L 314.2,83.8 L 314.2,83.8 L 314.2,83.8 L 314.2,83.9 L 314.2,83.9 L 314.3,83.9 L 314.3,83.9 L 314.3,84.0 L 314.3,84.0 L 314.3,84.0 L 314.3,84.1 L 314.3,84.1 L 313.9,84.1 Z" style="fill:#000000;fill-rule:evenodd;fill-opacity:1;stroke:#000000;stroke-width:0.0px;stroke-linecap:butt;stroke-linejoin:miter;stroke-opacity:1;"/>
<path class="bond-0 atom-0 atom-1" d="M 647.4,38.0 L 647.4,46.0" style="fill:none;fill-rule:evenodd;stroke:#000000;stroke-width:2.0px;stroke-linecap:butt;stroke-linejoin:miter;stroke-opacity:1"/>
<path class="bond-0 atom-0 atom-1" d="M 647.4,46.0 L 647.4,54.0" style="fill:none;fill-rule:evenodd;stroke:#0000FF;stroke-width:2.0px;stroke-linecap:butt;stroke-linejoin:miter;stroke-opacity:1"/>
<path class="bond-1 atom-1 atom-2" d="M 644.7,59.4 L 638.2,64.1" style="fill:none;fill-rule:evenodd;stroke:#0000FF;stroke-width:2.0px;stroke-linecap:butt;stroke-linejoin:miter;stroke-opacity:1"/>
<path class="bond-1 atom-1 atom-2" d="M 638.2,64.1 L 631.7,68.8" style="fill:none;fill-rule:evenodd;stroke:#000000;stroke-width:2.0px;stroke-linecap:butt;stroke-linejoin:miter;stroke-opacity:1"/>
<path class="bond-2 atom-2 atom-3" d="M 631.7,68.8 L 637.6,87.2" style="fill:none;fill-rule:evenodd;stroke:#000000;stroke-width:2.0px;stroke-linecap:butt;stroke-linejoin:miter;stroke-opacity:1"/>
<path class="bond-2 atom-2 atom-3" d="M 635.0,69.9 L 639.7,84.4" style="fill:none;fill-rule:evenodd;stroke:#000000;stroke-width:2.0px;stroke-linecap:butt;stroke-linejoin:miter;stroke-opacity:1"/>
<path class="bond-3 atom-3 atom-4" d="M 637.6,87.2 L 633.1,93.4" style="fill:none;fill-rule:evenodd;stroke:#000000;stroke-width:2.0px;stroke-linecap:butt;stroke-linejoin:miter;stroke-opacity:1"/>
<path class="bond-3 atom-3 atom-4" d="M 633.1,93.4 L 628.6,99.5" style="fill:none;fill-rule:evenodd;stroke:#0000FF;stroke-width:2.0px;stroke-linecap:butt;stroke-linejoin:miter;stroke-opacity:1"/>
<path class="bond-4 atom-3 atom-5" d="M 637.6,87.2 L 657.0,87.3" style="fill:none;fill-rule:evenodd;stroke:#000000;stroke-width:2.0px;stroke-linecap:butt;stroke-linejoin:miter;stroke-opacity:1"/>
<path class="bond-5 atom-5 atom-6" d="M 657.0,87.3 L 668.4,103.0" style="fill:none;fill-rule:evenodd;stroke:#000000;stroke-width:2.0px;stroke-linecap:butt;stroke-linejoin:miter;stroke-opacity:1"/>
<path class="bond-6 atom-6 atom-7" d="M 668.4,103.0 L 676.8,102.1" style="fill:none;fill-rule:evenodd;stroke:#000000;stroke-width:2.0px;stroke-linecap:butt;stroke-linejoin:miter;stroke-opacity:1"/>
<path class="bond-6 atom-6 atom-7" d="M 676.8,102.1 L 685.3,101.2" style="fill:none;fill-rule:evenodd;stroke:#CCCC00;stroke-width:2.0px;stroke-linecap:butt;stroke-linejoin:miter;stroke-opacity:1"/>
<path class="bond-7 atom-7 atom-8" d="M 686.6,104.7 L 687.2,110.8" style="fill:none;fill-rule:evenodd;stroke:#CCCC00;stroke-width:2.0px;stroke-linecap:butt;stroke-linejoin:miter;stroke-opacity:1"/>
<path class="bond-7 atom-7 atom-8" d="M 687.2,110.8 L 687.9,117.0" style="fill:none;fill-rule:evenodd;stroke:#FF0000;stroke-width:2.0px;stroke-linecap:butt;stroke-linejoin:miter;stroke-opacity:1"/>
<path class="bond-7 atom-7 atom-8" d="M 689.4,104.4 L 690.1,110.6" style="fill:none;fill-rule:evenodd;stroke:#CCCC00;stroke-width:2.0px;stroke-linecap:butt;stroke-linejoin:miter;stroke-opacity:1"/>
<path class="bond-7 atom-7 atom-8" d="M 690.1,110.6 L 690.7,116.7" style="fill:none;fill-rule:evenodd;stroke:#FF0000;stroke-width:2.0px;stroke-linecap:butt;stroke-linejoin:miter;stroke-opacity:1"/>
<path class="bond-8 atom-7 atom-9" d="M 688.7,97.5 L 688.1,91.3" style="fill:none;fill-rule:evenodd;stroke:#CCCC00;stroke-width:2.0px;stroke-linecap:butt;stroke-linejoin:miter;stroke-opacity:1"/>
<path class="bond-8 atom-7 atom-9" d="M 688.1,91.3 L 687.4,85.1" style="fill:none;fill-rule:evenodd;stroke:#FF0000;stroke-width:2.0px;stroke-linecap:butt;stroke-linejoin:miter;stroke-opacity:1"/>
<path class="bond-8 atom-7 atom-9" d="M 685.9,97.8 L 685.3,91.6" style="fill:none;fill-rule:evenodd;stroke:#CCCC00;stroke-width:2.0px;stroke-linecap:butt;stroke-linejoin:miter;stroke-opacity:1"/>
<path class="bond-8 atom-7 atom-9" d="M 685.3,91.6 L 684.6,85.3" style="fill:none;fill-rule:evenodd;stroke:#FF0000;stroke-width:2.0px;stroke-linecap:butt;stroke-linejoin:miter;stroke-opacity:1"/>
<path class="bond-9 atom-7 atom-10" d="M 690.0,100.8 L 698.5,99.9" style="fill:none;fill-rule:evenodd;stroke:#CCCC00;stroke-width:2.0px;stroke-linecap:butt;stroke-linejoin:miter;stroke-opacity:1"/>
<path class="bond-9 atom-7 atom-10" d="M 698.5,99.9 L 706.9,99.0" style="fill:none;fill-rule:evenodd;stroke:#000000;stroke-width:2.0px;stroke-linecap:butt;stroke-linejoin:miter;stroke-opacity:1"/>
<path class="bond-10 atom-10 atom-11" d="M 706.9,99.0 L 714.9,81.3" style="fill:none;fill-rule:evenodd;stroke:#000000;stroke-width:2.0px;stroke-linecap:butt;stroke-linejoin:miter;stroke-opacity:1"/>
<path class="bond-11 atom-11 atom-12" d="M 714.9,81.3 L 734.2,79.3" style="fill:none;fill-rule:evenodd;stroke:#000000;stroke-width:2.0px;stroke-linecap:butt;stroke-linejoin:miter;stroke-opacity:1"/>
<path class="bond-12 atom-12 atom-13" d="M 734.2,79.3 L 745.5,95.1" style="fill:none;fill-rule:evenodd;stroke:#000000;stroke-width:2.0px;stroke-linecap:butt;stroke-linejoin:miter;stroke-opacity:1"/>
<path class="bond-13 atom-13 atom-14" d="M 745.5,95.1 L 764.8,93.1" style="fill:none;fill-rule:evenodd;stroke:#000000;stroke-width:2.0px;stroke-linecap:butt;stroke-linejoin:miter;stroke-opacity:1"/>
<path class="bond-14 atom-14 atom-15" d="M 764.8,93.1 L 772.7,75.4" style="fill:none;fill-rule:evenodd;stroke:#000000;stroke-width:2.0px;stroke-linecap:butt;stroke-linejoin:miter;stroke-opacity:1"/>
<path class="bond-15 atom-15 atom-16" d="M 772.7,75.4 L 792.0,73.4" style="fill:none;fill-rule:evenodd;stroke:#000000;stroke-width:2.0px;stroke-linecap:butt;stroke-linejoin:miter;stroke-opacity:1"/>
<path class="bond-16 atom-16 atom-17" d="M 792.0,73.4 L 795.9,66.7" style="fill:none;fill-rule:evenodd;stroke:#000000;stroke-width:2.0px;stroke-linecap:butt;stroke-linejoin:miter;stroke-opacity:1"/>
<path class="bond-16 atom-16 atom-17" d="M 795.9,66.7 L 799.8,60.0" style="fill:none;fill-rule:evenodd;stroke:#0000FF;stroke-width:2.0px;stroke-linecap:butt;stroke-linejoin:miter;stroke-opacity:1"/>
<path class="bond-16 atom-16 atom-17" d="M 795.5,73.0 L 798.9,67.2" style="fill:none;fill-rule:evenodd;stroke:#000000;stroke-width:2.0px;stroke-linecap:butt;stroke-linejoin:miter;stroke-opacity:1"/>
<path class="bond-16 atom-16 atom-17" d="M 798.9,67.2 L 802.3,61.4" style="fill:none;fill-rule:evenodd;stroke:#0000FF;stroke-width:2.0px;stroke-linecap:butt;stroke-linejoin:miter;stroke-opacity:1"/>
<path class="bond-17 atom-17 atom-18" d="M 804.5,57.2 L 818.0,60.1" style="fill:none;fill-rule:evenodd;stroke:#0000FF;stroke-width:2.0px;stroke-linecap:butt;stroke-linejoin:miter;stroke-opacity:1"/>
<path class="bond-18 atom-18 atom-19" d="M 821.1,64.1 L 821.9,72.0" style="fill:none;fill-rule:evenodd;stroke:#0000FF;stroke-width:2.0px;stroke-linecap:butt;stroke-linejoin:miter;stroke-opacity:1"/>
<path class="bond-18 atom-18 atom-19" d="M 821.9,72.0 L 822.7,80.0" style="fill:none;fill-rule:evenodd;stroke:#000000;stroke-width:2.0px;stroke-linecap:butt;stroke-linejoin:miter;stroke-opacity:1"/>
<path class="bond-18 atom-18 atom-19" d="M 818.3,64.4 L 819.0,71.3" style="fill:none;fill-rule:evenodd;stroke:#0000FF;stroke-width:2.0px;stroke-linecap:butt;stroke-linejoin:miter;stroke-opacity:1"/>
<path class="bond-18 atom-18 atom-19" d="M 819.0,71.3 L 819.7,78.2" style="fill:none;fill-rule:evenodd;stroke:#000000;stroke-width:2.0px;stroke-linecap:butt;stroke-linejoin:miter;stroke-opacity:1"/>
<path class="bond-19 atom-19 atom-20" d="M 822.7,80.0 L 839.5,89.7" style="fill:none;fill-rule:evenodd;stroke:#000000;stroke-width:2.0px;stroke-linecap:butt;stroke-linejoin:miter;stroke-opacity:1"/>
<path class="bond-20 atom-20 atom-21" d="M 839.5,89.7 L 839.4,109.1" style="fill:none;fill-rule:evenodd;stroke:#000000;stroke-width:2.0px;stroke-linecap:butt;stroke-linejoin:miter;stroke-opacity:1"/>
<path class="bond-20 atom-20 atom-21" d="M 842.3,91.4 L 842.3,107.5" style="fill:none;fill-rule:evenodd;stroke:#000000;stroke-width:2.0px;stroke-linecap:butt;stroke-linejoin:miter;stroke-opacity:1"/>
<path class="bond-21 atom-21 atom-22" d="M 839.4,109.1 L 856.2,118.9" style="fill:none;fill-rule:evenodd;stroke:#000000;stroke-width:2.0px;stroke-linecap:butt;stroke-linejoin:miter;stroke-opacity:1"/>
<path class="bond-22 atom-22 atom-23" d="M 856.2,118.9 L 873.0,109.2" style="fill:none;fill-rule:evenodd;stroke:#000000;stroke-width:2.0px;stroke-linecap:butt;stroke-linejoin:miter;stroke-opacity:1"/>
<path class="bond-22 atom-22 atom-23" d="M 856.2,115.6 L 870.2,107.6" style="fill:none;fill-rule:evenodd;stroke:#000000;stroke-width:2.0px;stroke-linecap:butt;stroke-linejoin:miter;stroke-opacity:1"/>
<path class="bond-23 atom-23 atom-24" d="M 873.0,109.2 L 873.1,89.8" style="fill:none;fill-rule:evenodd;stroke:#000000;stroke-width:2.0px;stroke-linecap:butt;stroke-linejoin:miter;stroke-opacity:1"/>
<path class="bond-24 atom-24 atom-25" d="M 873.1,89.8 L 856.3,80.1" style="fill:none;fill-rule:evenodd;stroke:#000000;stroke-width:2.0px;stroke-linecap:butt;stroke-linejoin:miter;stroke-opacity:1"/>
<path class="bond-24 atom-24 atom-25" d="M 870.2,91.4 L 856.3,83.4" style="fill:none;fill-rule:evenodd;stroke:#000000;stroke-width:2.0px;stroke-linecap:butt;stroke-linejoin:miter;stroke-opacity:1"/>
<path class="bond-25 atom-25 atom-26" d="M 856.3,80.1 L 856.3,60.7" style="fill:none;fill-rule:evenodd;stroke:#000000;stroke-width:2.0px;stroke-linecap:butt;stroke-linejoin:miter;stroke-opacity:1"/>
<path class="bond-26 atom-26 atom-27" d="M 856.3,60.7 L 856.4,52.7" style="fill:none;fill-rule:evenodd;stroke:#000000;stroke-width:2.0px;stroke-linecap:butt;stroke-linejoin:miter;stroke-opacity:1"/>
<path class="bond-26 atom-26 atom-27" d="M 856.4,52.7 L 856.4,44.7" style="fill:none;fill-rule:evenodd;stroke:#33CCCC;stroke-width:2.0px;stroke-linecap:butt;stroke-linejoin:miter;stroke-opacity:1"/>
<path class="bond-27 atom-26 atom-28" d="M 856.3,60.7 L 864.9,60.7" style="fill:none;fill-rule:evenodd;stroke:#000000;stroke-width:2.0px;stroke-linecap:butt;stroke-linejoin:miter;stroke-opacity:1"/>
<path class="bond-27 atom-26 atom-28" d="M 864.9,60.7 L 873.5,60.7" style="fill:none;fill-rule:evenodd;stroke:#33CCCC;stroke-width:2.0px;stroke-linecap:butt;stroke-linejoin:miter;stroke-opacity:1"/>
<path class="bond-28 atom-26 atom-29" d="M 856.3,60.7 L 847.8,60.7" style="fill:none;fill-rule:evenodd;stroke:#000000;stroke-width:2.0px;stroke-linecap:butt;stroke-linejoin:miter;stroke-opacity:1"/>
<path class="bond-28 atom-26 atom-29" d="M 847.8,60.7 L 839.2,60.6" style="fill:none;fill-rule:evenodd;stroke:#33CCCC;stroke-width:2.0px;stroke-linecap:butt;stroke-linejoin:miter;stroke-opacity:1"/>
<path class="bond-29 atom-19 atom-30" d="M 822.7,80.0 L 815.2,83.3" style="fill:none;fill-rule:evenodd;stroke:#000000;stroke-width:2.0px;stroke-linecap:butt;stroke-linejoin:miter;stroke-opacity:1"/>
<path class="bond-29 atom-19 atom-30" d="M 815.2,83.3 L 807.7,86.6" style="fill:none;fill-rule:evenodd;stroke:#0000FF;stroke-width:2.0px;stroke-linecap:butt;stroke-linejoin:miter;stroke-opacity:1"/>
<path class="bond-30 atom-30 atom-31" d="M 804.3,91.2 L 802.6,99.0" style="fill:none;fill-rule:evenodd;stroke:#0000FF;stroke-width:2.0px;stroke-linecap:butt;stroke-linejoin:miter;stroke-opacity:1"/>
<path class="bond-30 atom-30 atom-31" d="M 802.6,99.0 L 800.9,106.8" style="fill:none;fill-rule:evenodd;stroke:#000000;stroke-width:2.0px;stroke-linecap:butt;stroke-linejoin:miter;stroke-opacity:1"/>
<path class="bond-31 atom-15 atom-32" d="M 772.7,75.4 L 761.4,59.7" style="fill:none;fill-rule:evenodd;stroke:#000000;stroke-width:2.0px;stroke-linecap:butt;stroke-linejoin:miter;stroke-opacity:1"/>
<path class="bond-32 atom-32 atom-33" d="M 761.4,59.7 L 742.1,61.6" style="fill:none;fill-rule:evenodd;stroke:#000000;stroke-width:2.0px;stroke-linecap:butt;stroke-linejoin:miter;stroke-opacity:1"/>
<path class="bond-33 atom-15 atom-34" d="M 772.7,75.4 L 764.8,75.7" style="fill:none;fill-rule:evenodd;stroke:#000000;stroke-width:2.0px;stroke-linecap:butt;stroke-linejoin:miter;stroke-opacity:1"/>
<path class="bond-34 atom-34 atom-35" d="M 759.4,76.1 L 747.4,77.3" style="fill:none;fill-rule:evenodd;stroke:#000000;stroke-width:2.0px;stroke-linecap:butt;stroke-linejoin:miter;stroke-opacity:1"/>
<path class="bond-35 atom-5 atom-36" d="M 657.0,87.3 L 663.0,68.8" style="fill:none;fill-rule:evenodd;stroke:#000000;stroke-width:2.0px;stroke-linecap:butt;stroke-linejoin:miter;stroke-opacity:1"/>
<path class="bond-35 atom-5 atom-36" d="M 654.9,84.4 L 659.7,69.9" style="fill:none;fill-rule:evenodd;stroke:#000000;stroke-width:2.0px;stroke-linecap:butt;stroke-linejoin:miter;stroke-opacity:1"/>
<path class="bond-36 atom-36 atom-37" d="M 663.0,68.8 L 679.1,63.7" style="fill:none;fill-rule:evenodd;stroke:#000000;stroke-width:2.0px;stroke-linecap:butt;stroke-linejoin:miter;stroke-opacity:1"/>
<path class="bond-37 atom-36 atom-1" d="M 663.0,68.8 L 656.6,64.1" style="fill:none;fill-rule:evenodd;stroke:#000000;stroke-width:2.0px;stroke-linecap:butt;stroke-linejoin:miter;stroke-opacity:1"/>
<path class="bond-37 atom-36 atom-1" d="M 656.6,64.1 L 650.1,59.4" style="fill:none;fill-rule:evenodd;stroke:#0000FF;stroke-width:2.0px;stroke-linecap:butt;stroke-linejoin:miter;stroke-opacity:1"/>
<path class="bond-38 atom-33 atom-12" d="M 742.1,61.6 L 734.2,79.3" style="fill:none;fill-rule:evenodd;stroke:#000000;stroke-width:2.0px;stroke-linecap:butt;stroke-linejoin:miter;stroke-opacity:1"/>
<path class="bond-39 atom-35 atom-12" d="M 741.9,78.1 L 734.2,79.3" style="fill:none;fill-rule:evenodd;stroke:#000000;stroke-width:2.0px;stroke-linecap:butt;stroke-linejoin:miter;stroke-opacity:1"/>
<path class="bond-40 atom-30 atom-16" d="M 802.3,84.8 L 797.2,79.1" style="fill:none;fill-rule:evenodd;stroke:#0000FF;stroke-width:2.0px;stroke-linecap:butt;stroke-linejoin:miter;stroke-opacity:1"/>
<path class="bond-40 atom-30 atom-16" d="M 797.2,79.1 L 792.0,73.4" style="fill:none;fill-rule:evenodd;stroke:#000000;stroke-width:2.0px;stroke-linecap:butt;stroke-linejoin:miter;stroke-opacity:1"/>
<path class="bond-41 atom-25 atom-20" d="M 856.3,80.1 L 839.5,89.7" style="fill:none;fill-rule:evenodd;stroke:#000000;stroke-width:2.0px;stroke-linecap:butt;stroke-linejoin:miter;stroke-opacity:1"/>
<path d="M 632.0,68.5 L 631.7,68.8 L 632.0,69.7" style="fill:none;stroke:#000000;stroke-width:2.0px;stroke-linecap:butt;stroke-linejoin:miter;stroke-opacity:1;"/>
<path d="M 667.8,102.2 L 668.4,103.0 L 668.8,102.9" style="fill:none;stroke:#000000;stroke-width:2.0px;stroke-linecap:butt;stroke-linejoin:miter;stroke-opacity:1;"/>
<path d="M 706.5,99.1 L 706.9,99.0 L 707.3,98.1" style="fill:none;stroke:#000000;stroke-width:2.0px;stroke-linecap:butt;stroke-linejoin:miter;stroke-opacity:1;"/>
<path d="M 714.5,82.2 L 714.9,81.3 L 715.8,81.2" style="fill:none;stroke:#000000;stroke-width:2.0px;stroke-linecap:butt;stroke-linejoin:miter;stroke-opacity:1;"/>
<path d="M 745.0,94.3 L 745.5,95.1 L 746.5,95.0" style="fill:none;stroke:#000000;stroke-width:2.0px;stroke-linecap:butt;stroke-linejoin:miter;stroke-opacity:1;"/>
<path d="M 763.8,93.2 L 764.8,93.1 L 765.2,92.2" style="fill:none;stroke:#000000;stroke-width:2.0px;stroke-linecap:butt;stroke-linejoin:miter;stroke-opacity:1;"/>
<path d="M 839.4,108.2 L 839.4,109.1 L 840.3,109.6" style="fill:none;stroke:#000000;stroke-width:2.0px;stroke-linecap:butt;stroke-linejoin:miter;stroke-opacity:1;"/>
<path d="M 855.4,118.4 L 856.2,118.9 L 857.0,118.4" style="fill:none;stroke:#000000;stroke-width:2.0px;stroke-linecap:butt;stroke-linejoin:miter;stroke-opacity:1;"/>
<path d="M 872.2,109.7 L 873.0,109.2 L 873.0,108.2" style="fill:none;stroke:#000000;stroke-width:2.0px;stroke-linecap:butt;stroke-linejoin:miter;stroke-opacity:1;"/>
<path d="M 873.1,90.8 L 873.1,89.8 L 872.2,89.3" style="fill:none;stroke:#000000;stroke-width:2.0px;stroke-linecap:butt;stroke-linejoin:miter;stroke-opacity:1;"/>
<path d="M 761.9,60.4 L 761.4,59.7 L 760.4,59.8" style="fill:none;stroke:#000000;stroke-width:2.0px;stroke-linecap:butt;stroke-linejoin:miter;stroke-opacity:1;"/>
<path d="M 743.1,61.5 L 742.1,61.6 L 741.7,62.5" style="fill:none;stroke:#000000;stroke-width:2.0px;stroke-linecap:butt;stroke-linejoin:miter;stroke-opacity:1;"/>
<path class="atom-1" d="M 646.2 54.7 L 648.0 57.6 Q 648.1 57.9, 648.4 58.4 Q 648.7 58.9, 648.7 58.9 L 648.7 54.7 L 649.5 54.7 L 649.5 60.1 L 648.7 60.1 L 646.8 57.0 Q 646.5 56.6, 646.3 56.2 Q 646.1 55.7, 646.0 55.6 L 646.0 60.1 L 645.3 60.1 L 645.3 54.7 L 646.2 54.7 " fill="#0000FF"/>
<path class="atom-4" d="M 625.0 100.1 L 626.8 103.0 Q 626.9 103.3, 627.2 103.9 Q 627.5 104.4, 627.5 104.4 L 627.5 100.1 L 628.2 100.1 L 628.2 105.6 L 627.5 105.6 L 625.6 102.4 Q 625.3 102.1, 625.1 101.6 Q 624.9 101.2, 624.8 101.1 L 624.8 105.6 L 624.1 105.6 L 624.1 100.1 L 625.0 100.1 " fill="#0000FF"/>
<path class="atom-7" d="M 686.1 102.9 Q 686.2 102.9, 686.4 103.0 Q 686.7 103.1, 686.9 103.2 Q 687.2 103.3, 687.5 103.3 Q 688.0 103.3, 688.3 103.0 Q 688.6 102.8, 688.6 102.3 Q 688.6 102.0, 688.5 101.8 Q 688.3 101.6, 688.1 101.5 Q 687.9 101.4, 687.5 101.3 Q 687.0 101.2, 686.7 101.0 Q 686.4 100.9, 686.2 100.6 Q 686.0 100.3, 686.0 99.8 Q 686.0 99.1, 686.5 98.7 Q 686.9 98.3, 687.9 98.3 Q 688.5 98.3, 689.2 98.6 L 689.1 99.2 Q 688.4 98.9, 687.9 98.9 Q 687.4 98.9, 687.1 99.1 Q 686.8 99.3, 686.8 99.7 Q 686.8 100.0, 686.9 100.2 Q 687.1 100.4, 687.3 100.5 Q 687.5 100.6, 687.9 100.7 Q 688.4 100.8, 688.7 101.0 Q 689.0 101.1, 689.2 101.5 Q 689.4 101.8, 689.4 102.3 Q 689.4 103.1, 688.9 103.5 Q 688.4 103.9, 687.5 103.9 Q 687.1 103.9, 686.7 103.8 Q 686.3 103.7, 685.9 103.5 L 686.1 102.9 " fill="#CCCC00"/>
<path class="atom-8" d="M 687.1 120.3 Q 687.1 119.0, 687.8 118.3 Q 688.4 117.5, 689.6 117.5 Q 690.8 117.5, 691.5 118.3 Q 692.1 119.0, 692.1 120.3 Q 692.1 121.6, 691.5 122.4 Q 690.8 123.2, 689.6 123.2 Q 688.4 123.2, 687.8 122.4 Q 687.1 121.6, 687.1 120.3 M 689.6 122.5 Q 690.5 122.5, 690.9 122.0 Q 691.4 121.4, 691.4 120.3 Q 691.4 119.2, 690.9 118.7 Q 690.5 118.1, 689.6 118.1 Q 688.8 118.1, 688.3 118.7 Q 687.9 119.2, 687.9 120.3 Q 687.9 121.4, 688.3 122.0 Q 688.8 122.5, 689.6 122.5 " fill="#FF0000"/>
<path class="atom-9" d="M 683.1 81.7 Q 683.1 80.4, 683.8 79.7 Q 684.4 78.9, 685.7 78.9 Q 686.9 78.9, 687.5 79.7 Q 688.2 80.4, 688.2 81.7 Q 688.2 83.1, 687.5 83.8 Q 686.9 84.6, 685.7 84.6 Q 684.5 84.6, 683.8 83.8 Q 683.1 83.1, 683.1 81.7 M 685.7 84.0 Q 686.5 84.0, 687.0 83.4 Q 687.4 82.8, 687.4 81.7 Q 687.4 80.6, 687.0 80.1 Q 686.5 79.6, 685.7 79.6 Q 684.8 79.6, 684.4 80.1 Q 683.9 80.6, 683.9 81.7 Q 683.9 82.8, 684.4 83.4 Q 684.8 84.0, 685.7 84.0 " fill="#FF0000"/>
<path class="atom-17" d="M 800.6 53.9 L 802.4 56.8 Q 802.5 57.1, 802.8 57.6 Q 803.1 58.1, 803.1 58.1 L 803.1 53.9 L 803.9 53.9 L 803.9 59.4 L 803.1 59.4 L 801.2 56.2 Q 800.9 55.8, 800.7 55.4 Q 800.5 55.0, 800.4 54.8 L 800.4 59.4 L 799.7 59.4 L 799.7 53.9 L 800.6 53.9 " fill="#0000FF"/>
<path class="atom-18" d="M 819.5 58.0 L 821.3 60.9 Q 821.5 61.2, 821.8 61.7 Q 822.1 62.2, 822.1 62.2 L 822.1 58.0 L 822.8 58.0 L 822.8 63.4 L 822.1 63.4 L 820.1 60.3 Q 819.9 59.9, 819.7 59.5 Q 819.4 59.0, 819.4 58.9 L 819.4 63.4 L 818.6 63.4 L 818.6 58.0 L 819.5 58.0 " fill="#0000FF"/>
<path class="atom-27" d="M 854.8 38.5 L 858.0 38.5 L 858.0 39.2 L 855.5 39.2 L 855.5 40.8 L 857.7 40.8 L 857.7 41.5 L 855.5 41.5 L 855.5 44.0 L 854.8 44.0 L 854.8 38.5 " fill="#33CCCC"/>
<path class="atom-28" d="M 874.1 58.0 L 877.4 58.0 L 877.4 58.6 L 874.8 58.6 L 874.8 60.3 L 877.1 60.3 L 877.1 60.9 L 874.8 60.9 L 874.8 63.5 L 874.1 63.5 L 874.1 58.0 " fill="#33CCCC"/>
<path class="atom-29" d="M 835.3 57.9 L 838.6 57.9 L 838.6 58.5 L 836.1 58.5 L 836.1 60.2 L 838.3 60.2 L 838.3 60.8 L 836.1 60.8 L 836.1 63.4 L 835.3 63.4 L 835.3 57.9 " fill="#33CCCC"/>
<path class="atom-30" d="M 803.8 85.1 L 805.6 88.0 Q 805.7 88.3, 806.0 88.8 Q 806.3 89.3, 806.3 89.4 L 806.3 85.1 L 807.1 85.1 L 807.1 90.6 L 806.3 90.6 L 804.4 87.4 Q 804.1 87.0, 803.9 86.6 Q 803.7 86.2, 803.6 86.0 L 803.6 90.6 L 802.9 90.6 L 802.9 85.1 L 803.8 85.1 " fill="#0000FF"/>
<path class="atom-34" d="M 760.0 75.8 Q 760.0 74.5, 760.6 73.8 Q 761.3 73.0, 762.5 73.0 Q 763.6 73.0, 764.2 73.8 L 763.7 74.3 Q 763.3 73.7, 762.5 73.7 Q 761.7 73.7, 761.2 74.2 Q 760.8 74.8, 760.8 75.8 Q 760.8 76.9, 761.2 77.5 Q 761.7 78.0, 762.6 78.0 Q 763.2 78.0, 763.9 77.7 L 764.1 78.3 Q 763.8 78.4, 763.4 78.6 Q 762.9 78.7, 762.5 78.7 Q 761.3 78.7, 760.6 77.9 Q 760.0 77.2, 760.0 75.8 " fill="#000000"/>
<path class="atom-35" d="M 742.5 77.6 Q 742.5 76.3, 743.2 75.6 Q 743.8 74.8, 745.0 74.8 Q 746.2 74.8, 746.8 75.6 L 746.3 76.0 Q 745.8 75.5, 745.0 75.5 Q 744.2 75.5, 743.8 76.0 Q 743.3 76.6, 743.3 77.6 Q 743.3 78.7, 743.8 79.3 Q 744.2 79.8, 745.1 79.8 Q 745.7 79.8, 746.4 79.5 L 746.7 80.1 Q 746.4 80.2, 745.9 80.3 Q 745.5 80.5, 745.0 80.5 Q 743.8 80.5, 743.2 79.7 Q 742.5 79.0, 742.5 77.6 " fill="#000000"/>
<path class="atom-37" d="M 679.9 64.8 Q 680.0 64.8, 680.3 64.9 Q 680.5 65.0, 680.8 65.1 Q 681.1 65.2, 681.4 65.2 Q 681.9 65.2, 682.2 64.9 Q 682.5 64.6, 682.5 64.2 Q 682.5 63.9, 682.3 63.7 Q 682.2 63.5, 681.9 63.4 Q 681.7 63.3, 681.3 63.2 Q 680.8 63.1, 680.5 62.9 Q 680.3 62.8, 680.0 62.5 Q 679.8 62.2, 679.8 61.7 Q 679.8 61.0, 680.3 60.6 Q 680.8 60.2, 681.7 60.2 Q 682.4 60.2, 683.1 60.5 L 682.9 61.1 Q 682.2 60.8, 681.7 60.8 Q 681.2 60.8, 680.9 61.0 Q 680.6 61.2, 680.6 61.6 Q 680.6 61.9, 680.8 62.1 Q 680.9 62.3, 681.1 62.4 Q 681.4 62.5, 681.7 62.6 Q 682.2 62.7, 682.5 62.9 Q 682.8 63.0, 683.0 63.4 Q 683.3 63.7, 683.3 64.2 Q 683.3 65.0, 682.7 65.4 Q 682.2 65.8, 681.4 65.8 Q 680.9 65.8, 680.5 65.7 Q 680.2 65.6, 679.7 65.4 L 679.9 64.8 " fill="#000000"/>
<path class="atom-37" d="M 683.9 60.1 L 684.6 60.1 L 684.6 60.8 L 683.9 60.8 L 683.9 60.1 M 683.9 61.6 L 684.6 61.6 L 684.6 65.6 L 683.9 65.6 L 683.9 61.6 " fill="#000000"/>
<path class="atom-37" d="M 685.6 60.1 L 686.3 60.1 L 686.3 62.5 L 689.1 62.5 L 689.1 60.1 L 689.9 60.1 L 689.9 65.6 L 689.1 65.6 L 689.1 63.1 L 686.3 63.1 L 686.3 65.6 L 685.6 65.6 L 685.6 60.1 " fill="#000000"/>
<path class="atom-0" d="M 650.1,38.8 L 650.1,38.8 L 650.1,38.9 L 650.1,38.9 L 650.1,38.9 L 650.1,38.9 L 650.1,39.0 L 650.1,39.0 L 650.0,39.0 L 650.0,39.1 L 650.0,39.1 L 650.0,39.1 L 649.9,39.1 L 649.9,39.1 L 649.9,39.1 L 649.9,39.2 L 649.8,39.2 L 649.8,39.2 L 649.8,39.2 L 649.7,39.2 L 649.7,39.2 L 649.7,39.2 L 649.6,39.2 L 649.6,39.1 L 649.6,39.1 L 649.5,39.1 L 649.5,39.1 L 649.5,39.1 L 649.5,39.0 L 649.4,39.0 L 649.4,39.0 L 649.4,39.0 L 649.4,38.9 L 649.4,38.9 L 649.4,38.9 L 649.4,38.8 L 649.4,38.8 L 649.4,38.8 L 649.4,38.7 L 649.4,38.7 L 649.4,38.7 L 649.4,38.6 L 649.4,38.6 L 649.4,38.6 L 649.4,38.6 L 649.5,38.5 L 649.5,38.5 L 649.5,38.5 L 649.5,38.5 L 649.6,38.4 L 649.6,38.4 L 649.6,38.4 L 649.7,38.4 L 649.7,38.4 L 649.7,38.4 L 649.8,38.4 L 649.8,38.4 L 649.8,38.4 L 649.9,38.4 L 649.9,38.4 L 649.9,38.4 L 649.9,38.5 L 650.0,38.5 L 650.0,38.5 L 650.0,38.5 L 650.0,38.5 L 650.1,38.6 L 650.1,38.6 L 650.1,38.6 L 650.1,38.7 L 650.1,38.7 L 650.1,38.7 L 650.1,38.8 L 650.1,38.8 L 649.7,38.8 Z" style="fill:#000000;fill-rule:evenodd;fill-opacity:1;stroke:#000000;stroke-width:0.0px;stroke-linecap:butt;stroke-linejoin:miter;stroke-opacity:1;"/>
<path class="atom-0" d="M 650.1,37.2 L 650.1,37.3 L 650.1,37.3 L 650.1,37.3 L 650.1,37.4 L 650.1,37.4 L 650.1,37.4 L 650.1,37.5 L 650.0,37.5 L 650.0,37.5 L 650.0,37.5 L 650.0,37.5 L 649.9,37.6 L 649.9,37.6 L 649.9,37.6 L 649.9,37.6 L 649.8,37.6 L 649.8,37.6 L 649.8,37.6 L 649.7,37.6 L 649.7,37.6 L 649.7,37.6 L 649.6,37.6 L 649.6,37.6 L 649.6,37.6 L 649.5,37.6 L 649.5,37.5 L 649.5,37.5 L 649.5,37.5 L 649.4,37.5 L 649.4,37.4 L 649.4,37.4 L 649.4,37.4 L 649.4,37.3 L 649.4,37.3 L 649.4,37.3 L 649.4,37.2 L 649.4,37.2 L 649.4,37.2 L 649.4,37.2 L 649.4,37.1 L 649.4,37.1 L 649.4,37.1 L 649.4,37.0 L 649.4,37.0 L 649.5,37.0 L 649.5,37.0 L 649.5,36.9 L 649.5,36.9 L 649.6,36.9 L 649.6,36.9 L 649.6,36.9 L 649.7,36.9 L 649.7,36.8 L 649.7,36.8 L 649.8,36.8 L 649.8,36.8 L 649.8,36.9 L 649.9,36.9 L 649.9,36.9 L 649.9,36.9 L 649.9,36.9 L 650.0,36.9 L 650.0,36.9 L 650.0,37.0 L 650.0,37.0 L 650.1,37.0 L 650.1,37.0 L 650.1,37.1 L 650.1,37.1 L 650.1,37.1 L 650.1,37.2 L 650.1,37.2 L 650.1,37.2 L 649.7,37.2 Z" style="fill:#000000;fill-rule:evenodd;fill-opacity:1;stroke:#000000;stroke-width:0.0px;stroke-linecap:butt;stroke-linejoin:miter;stroke-opacity:1;"/>
<path class="atom-4" d="M 623.3,103.7 L 623.3,103.7 L 623.3,103.7 L 623.3,103.8 L 623.3,103.8 L 623.3,103.8 L 623.3,103.8 L 623.2,103.9 L 623.2,103.9 L 623.2,103.9 L 623.2,104.0 L 623.1,104.0 L 623.1,104.0 L 623.1,104.0 L 623.1,104.0 L 623.0,104.0 L 623.0,104.0 L 623.0,104.0 L 622.9,104.0 L 622.9,104.0 L 622.9,104.0 L 622.8,104.0 L 622.8,104.0 L 622.8,104.0 L 622.7,104.0 L 622.7,104.0 L 622.7,104.0 L 622.7,103.9 L 622.6,103.9 L 622.6,103.9 L 622.6,103.9 L 622.6,103.8 L 622.6,103.8 L 622.5,103.8 L 622.5,103.7 L 622.5,103.7 L 622.5,103.7 L 622.5,103.6 L 622.5,103.6 L 622.5,103.6 L 622.5,103.5 L 622.6,103.5 L 622.6,103.5 L 622.6,103.5 L 622.6,103.4 L 622.6,103.4 L 622.7,103.4 L 622.7,103.4 L 622.7,103.3 L 622.7,103.3 L 622.8,103.3 L 622.8,103.3 L 622.8,103.3 L 622.9,103.3 L 622.9,103.3 L 622.9,103.3 L 623.0,103.3 L 623.0,103.3 L 623.0,103.3 L 623.1,103.3 L 623.1,103.3 L 623.1,103.3 L 623.1,103.3 L 623.2,103.4 L 623.2,103.4 L 623.2,103.4 L 623.2,103.4 L 623.3,103.5 L 623.3,103.5 L 623.3,103.5 L 623.3,103.6 L 623.3,103.6 L 623.3,103.6 L 623.3,103.7 L 622.9,103.7 Z" style="fill:#000000;fill-rule:evenodd;fill-opacity:1;stroke:#000000;stroke-width:0.0px;stroke-linecap:butt;stroke-linejoin:miter;stroke-opacity:1;"/>
<path class="atom-4" d="M 623.3,102.1 L 623.3,102.1 L 623.3,102.2 L 623.3,102.2 L 623.3,102.2 L 623.3,102.3 L 623.3,102.3 L 623.2,102.3 L 623.2,102.4 L 623.2,102.4 L 623.2,102.4 L 623.1,102.4 L 623.1,102.4 L 623.1,102.5 L 623.1,102.5 L 623.0,102.5 L 623.0,102.5 L 623.0,102.5 L 622.9,102.5 L 622.9,102.5 L 622.9,102.5 L 622.8,102.5 L 622.8,102.5 L 622.8,102.5 L 622.7,102.4 L 622.7,102.4 L 622.7,102.4 L 622.7,102.4 L 622.6,102.4 L 622.6,102.3 L 622.6,102.3 L 622.6,102.3 L 622.6,102.3 L 622.5,102.2 L 622.5,102.2 L 622.5,102.2 L 622.5,102.1 L 622.5,102.1 L 622.5,102.1 L 622.5,102.0 L 622.5,102.0 L 622.6,102.0 L 622.6,101.9 L 622.6,101.9 L 622.6,101.9 L 622.6,101.8 L 622.7,101.8 L 622.7,101.8 L 622.7,101.8 L 622.7,101.8 L 622.8,101.8 L 622.8,101.7 L 622.8,101.7 L 622.9,101.7 L 622.9,101.7 L 622.9,101.7 L 623.0,101.7 L 623.0,101.7 L 623.0,101.7 L 623.1,101.7 L 623.1,101.8 L 623.1,101.8 L 623.1,101.8 L 623.2,101.8 L 623.2,101.8 L 623.2,101.9 L 623.2,101.9 L 623.3,101.9 L 623.3,101.9 L 623.3,102.0 L 623.3,102.0 L 623.3,102.0 L 623.3,102.1 L 623.3,102.1 L 622.9,102.1 Z" style="fill:#000000;fill-rule:evenodd;fill-opacity:1;stroke:#000000;stroke-width:0.0px;stroke-linecap:butt;stroke-linejoin:miter;stroke-opacity:1;"/>
<path class="atom-37" d="M 691.4,63.7 L 691.4,63.7 L 691.4,63.7 L 691.4,63.8 L 691.4,63.8 L 691.4,63.8 L 691.4,63.9 L 691.3,63.9 L 691.3,63.9 L 691.3,63.9 L 691.3,64.0 L 691.3,64.0 L 691.2,64.0 L 691.2,64.0 L 691.2,64.0 L 691.1,64.0 L 691.1,64.0 L 691.1,64.0 L 691.0,64.1 L 691.0,64.1 L 691.0,64.0 L 690.9,64.0 L 690.9,64.0 L 690.9,64.0 L 690.8,64.0 L 690.8,64.0 L 690.8,64.0 L 690.8,63.9 L 690.7,63.9 L 690.7,63.9 L 690.7,63.9 L 690.7,63.8 L 690.7,63.8 L 690.7,63.8 L 690.6,63.7 L 690.6,63.7 L 690.6,63.7 L 690.6,63.6 L 690.6,63.6 L 690.6,63.6 L 690.7,63.5 L 690.7,63.5 L 690.7,63.5 L 690.7,63.5 L 690.7,63.4 L 690.7,63.4 L 690.8,63.4 L 690.8,63.4 L 690.8,63.3 L 690.8,63.3 L 690.9,63.3 L 690.9,63.3 L 690.9,63.3 L 691.0,63.3 L 691.0,63.3 L 691.0,63.3 L 691.1,63.3 L 691.1,63.3 L 691.1,63.3 L 691.2,63.3 L 691.2,63.3 L 691.2,63.3 L 691.3,63.3 L 691.3,63.4 L 691.3,63.4 L 691.3,63.4 L 691.3,63.4 L 691.4,63.5 L 691.4,63.5 L 691.4,63.5 L 691.4,63.6 L 691.4,63.6 L 691.4,63.6 L 691.4,63.7 L 691.0,63.7 Z" style="fill:#000000;fill-rule:evenodd;fill-opacity:1;stroke:#000000;stroke-width:0.0px;stroke-linecap:butt;stroke-linejoin:miter;stroke-opacity:1;"/>
<path class="atom-37" d="M 691.4,62.1 L 691.4,62.1 L 691.4,62.2 L 691.4,62.2 L 691.4,62.2 L 691.4,62.3 L 691.4,62.3 L 691.3,62.3 L 691.3,62.4 L 691.3,62.4 L 691.3,62.4 L 691.3,62.4 L 691.2,62.4 L 691.2,62.5 L 691.2,62.5 L 691.1,62.5 L 691.1,62.5 L 691.1,62.5 L 691.0,62.5 L 691.0,62.5 L 691.0,62.5 L 690.9,62.5 L 690.9,62.5 L 690.9,62.5 L 690.8,62.5 L 690.8,62.4 L 690.8,62.4 L 690.8,62.4 L 690.7,62.4 L 690.7,62.3 L 690.7,62.3 L 690.7,62.3 L 690.7,62.3 L 690.7,62.2 L 690.6,62.2 L 690.6,62.2 L 690.6,62.1 L 690.6,62.1 L 690.6,62.1 L 690.6,62.0 L 690.7,62.0 L 690.7,62.0 L 690.7,61.9 L 690.7,61.9 L 690.7,61.9 L 690.7,61.9 L 690.8,61.8 L 690.8,61.8 L 690.8,61.8 L 690.8,61.8 L 690.9,61.8 L 690.9,61.7 L 690.9,61.7 L 691.0,61.7 L 691.0,61.7 L 691.0,61.7 L 691.1,61.7 L 691.1,61.7 L 691.1,61.7 L 691.2,61.8 L 691.2,61.8 L 691.2,61.8 L 691.3,61.8 L 691.3,61.8 L 691.3,61.8 L 691.3,61.9 L 691.3,61.9 L 691.4,61.9 L 691.4,62.0 L 691.4,62.0 L 691.4,62.0 L 691.4,62.0 L 691.4,62.1 L 691.4,62.1 L 691.0,62.1 Z" style="fill:#000000;fill-rule:evenodd;fill-opacity:1;stroke:#000000;stroke-width:0.0px;stroke-linecap:butt;stroke-linejoin:miter;stroke-opacity:1;"/>
</svg>