<svg xmlns="http://www.w3.org/2000/svg" xmlns:rdkit="http://www.rdkit.org/xml" xmlns:xlink="http://www.w3.org/1999/xlink" version="1.1" baseProfile="full" xml:space="preserve" width="900px" height="160px" viewBox="0 0 900 160">
<!-- END OF HEADER -->
<rect style="opacity:1.0;fill:#FFFFFF;stroke:none" width="900.0" height="160.0" x="0.0" y="0.0"> </rect>
<path class="bond-0 atom-0 atom-1" d="M 286.2,82.2 L 279.3,104.9" style="fill:none;fill-rule:evenodd;stroke:#000000;stroke-width:2.0px;stroke-linecap:butt;stroke-linejoin:miter;stroke-opacity:1"/>
<path class="bond-1 atom-1 atom-2" d="M 279.3,104.9 L 269.2,107.2" style="fill:none;fill-rule:evenodd;stroke:#000000;stroke-width:2.0px;stroke-linecap:butt;stroke-linejoin:miter;stroke-opacity:1"/>
<path class="bond-1 atom-1 atom-2" d="M 269.2,107.2 L 259.1,109.5" style="fill:none;fill-rule:evenodd;stroke:#CCCC00;stroke-width:2.0px;stroke-linecap:butt;stroke-linejoin:miter;stroke-opacity:1"/>
<path class="bond-2 atom-2 atom-3" d="M 256.9,105.7 L 255.2,98.3" style="fill:none;fill-rule:evenodd;stroke:#CCCC00;stroke-width:2.0px;stroke-linecap:butt;stroke-linejoin:miter;stroke-opacity:1"/>
<path class="bond-2 atom-2 atom-3" d="M 255.2,98.3 L 253.6,91.0" style="fill:none;fill-rule:evenodd;stroke:#FF0000;stroke-width:2.0px;stroke-linecap:butt;stroke-linejoin:miter;stroke-opacity:1"/>
<path class="bond-2 atom-2 atom-3" d="M 253.5,106.5 L 251.8,99.1" style="fill:none;fill-rule:evenodd;stroke:#CCCC00;stroke-width:2.0px;stroke-linecap:butt;stroke-linejoin:miter;stroke-opacity:1"/>
<path class="bond-2 atom-2 atom-3" d="M 251.8,99.1 L 250.1,91.8" style="fill:none;fill-rule:evenodd;stroke:#FF0000;stroke-width:2.0px;stroke-linecap:butt;stroke-linejoin:miter;stroke-opacity:1"/>
<path class="bond-3 atom-2 atom-4" d="M 255.4,114.9 L 257.1,122.2" style="fill:none;fill-rule:evenodd;stroke:#CCCC00;stroke-width:2.0px;stroke-linecap:butt;stroke-linejoin:miter;stroke-opacity:1"/>
<path class="bond-3 atom-2 atom-4" d="M 257.1,122.2 L 258.8,129.5" style="fill:none;fill-rule:evenodd;stroke:#FF0000;stroke-width:2.0px;stroke-linecap:butt;stroke-linejoin:miter;stroke-opacity:1"/>
<path class="bond-3 atom-2 atom-4" d="M 258.9,114.1 L 260.6,121.4" style="fill:none;fill-rule:evenodd;stroke:#CCCC00;stroke-width:2.0px;stroke-linecap:butt;stroke-linejoin:miter;stroke-opacity:1"/>
<path class="bond-3 atom-2 atom-4" d="M 260.6,121.4 L 262.2,128.7" style="fill:none;fill-rule:evenodd;stroke:#FF0000;stroke-width:2.0px;stroke-linecap:butt;stroke-linejoin:miter;stroke-opacity:1"/>
<path class="bond-4 atom-2 atom-5" d="M 253.2,110.9 L 243.1,113.2" style="fill:none;fill-rule:evenodd;stroke:#CCCC00;stroke-width:2.0px;stroke-linecap:butt;stroke-linejoin:miter;stroke-opacity:1"/>
<path class="bond-4 atom-2 atom-5" d="M 243.1,113.2 L 233.0,115.5" style="fill:none;fill-rule:evenodd;stroke:#000000;stroke-width:2.0px;stroke-linecap:butt;stroke-linejoin:miter;stroke-opacity:1"/>
<path class="bond-5 atom-5 atom-6" d="M 233.0,115.5 L 216.9,98.2" style="fill:none;fill-rule:evenodd;stroke:#000000;stroke-width:2.0px;stroke-linecap:butt;stroke-linejoin:miter;stroke-opacity:1"/>
<path class="bond-6 atom-6 atom-7" d="M 216.9,98.2 L 193.8,103.5" style="fill:none;fill-rule:evenodd;stroke:#000000;stroke-width:2.0px;stroke-linecap:butt;stroke-linejoin:miter;stroke-opacity:1"/>
<path class="bond-7 atom-7 atom-8" d="M 193.8,103.5 L 188.5,126.6" style="fill:none;fill-rule:evenodd;stroke:#000000;stroke-width:2.0px;stroke-linecap:butt;stroke-linejoin:miter;stroke-opacity:1"/>
<path class="bond-8 atom-8 atom-9" d="M 188.5,126.6 L 167.2,136.9" style="fill:none;fill-rule:evenodd;stroke:#000000;stroke-width:2.0px;stroke-linecap:butt;stroke-linejoin:miter;stroke-opacity:1"/>
<path class="bond-9 atom-9 atom-10" d="M 167.2,136.9 L 145.8,126.7" style="fill:none;fill-rule:evenodd;stroke:#000000;stroke-width:2.0px;stroke-linecap:butt;stroke-linejoin:miter;stroke-opacity:1"/>
<path class="bond-10 atom-10 atom-11" d="M 145.8,126.7 L 140.5,103.6" style="fill:none;fill-rule:evenodd;stroke:#000000;stroke-width:2.0px;stroke-linecap:butt;stroke-linejoin:miter;stroke-opacity:1"/>
<path class="bond-11 atom-11 atom-12" d="M 140.5,103.6 L 117.4,98.3" style="fill:none;fill-rule:evenodd;stroke:#000000;stroke-width:2.0px;stroke-linecap:butt;stroke-linejoin:miter;stroke-opacity:1"/>
<path class="bond-12 atom-12 atom-13" d="M 117.4,98.3 L 113.6,89.5" style="fill:none;fill-rule:evenodd;stroke:#000000;stroke-width:2.0px;stroke-linecap:butt;stroke-linejoin:miter;stroke-opacity:1"/>
<path class="bond-12 atom-12 atom-13" d="M 113.6,89.5 L 109.8,80.7" style="fill:none;fill-rule:evenodd;stroke:#0000FF;stroke-width:2.0px;stroke-linecap:butt;stroke-linejoin:miter;stroke-opacity:1"/>
<path class="bond-12 atom-12 atom-13" d="M 113.1,97.4 L 109.8,89.7" style="fill:none;fill-rule:evenodd;stroke:#000000;stroke-width:2.0px;stroke-linecap:butt;stroke-linejoin:miter;stroke-opacity:1"/>
<path class="bond-12 atom-12 atom-13" d="M 109.8,89.7 L 106.5,82.1" style="fill:none;fill-rule:evenodd;stroke:#0000FF;stroke-width:2.0px;stroke-linecap:butt;stroke-linejoin:miter;stroke-opacity:1"/>
<path class="bond-13 atom-13 atom-14" d="M 104.7,76.9 L 87.7,78.4" style="fill:none;fill-rule:evenodd;stroke:#0000FF;stroke-width:2.0px;stroke-linecap:butt;stroke-linejoin:miter;stroke-opacity:1"/>
<path class="bond-14 atom-14 atom-15" d="M 83.5,82.9 L 81.3,92.4" style="fill:none;fill-rule:evenodd;stroke:#0000FF;stroke-width:2.0px;stroke-linecap:butt;stroke-linejoin:miter;stroke-opacity:1"/>
<path class="bond-14 atom-14 atom-15" d="M 81.3,92.4 L 79.2,101.8" style="fill:none;fill-rule:evenodd;stroke:#000000;stroke-width:2.0px;stroke-linecap:butt;stroke-linejoin:miter;stroke-opacity:1"/>
<path class="bond-14 atom-14 atom-15" d="M 86.9,83.6 L 85.1,91.9" style="fill:none;fill-rule:evenodd;stroke:#0000FF;stroke-width:2.0px;stroke-linecap:butt;stroke-linejoin:miter;stroke-opacity:1"/>
<path class="bond-14 atom-14 atom-15" d="M 85.1,91.9 L 83.2,100.1" style="fill:none;fill-rule:evenodd;stroke:#000000;stroke-width:2.0px;stroke-linecap:butt;stroke-linejoin:miter;stroke-opacity:1"/>
<path class="bond-15 atom-15 atom-16" d="M 79.2,101.8 L 57.4,111.2" style="fill:none;fill-rule:evenodd;stroke:#000000;stroke-width:2.0px;stroke-linecap:butt;stroke-linejoin:miter;stroke-opacity:1"/>
<path class="bond-16 atom-16 atom-17" d="M 57.4,111.2 L 54.6,134.8" style="fill:none;fill-rule:evenodd;stroke:#000000;stroke-width:2.0px;stroke-linecap:butt;stroke-linejoin:miter;stroke-opacity:1"/>
<path class="bond-16 atom-16 atom-17" d="M 53.6,112.8 L 51.3,132.3" style="fill:none;fill-rule:evenodd;stroke:#000000;stroke-width:2.0px;stroke-linecap:butt;stroke-linejoin:miter;stroke-opacity:1"/>
<path class="bond-17 atom-17 atom-18" d="M 54.6,134.8 L 32.8,144.1" style="fill:none;fill-rule:evenodd;stroke:#000000;stroke-width:2.0px;stroke-linecap:butt;stroke-linejoin:miter;stroke-opacity:1"/>
<path class="bond-18 atom-18 atom-19" d="M 32.8,144.1 L 13.8,129.9" style="fill:none;fill-rule:evenodd;stroke:#000000;stroke-width:2.0px;stroke-linecap:butt;stroke-linejoin:miter;stroke-opacity:1"/>
<path class="bond-18 atom-18 atom-19" d="M 33.3,140.0 L 17.6,128.3" style="fill:none;fill-rule:evenodd;stroke:#000000;stroke-width:2.0px;stroke-linecap:butt;stroke-linejoin:miter;stroke-opacity:1"/>
<path class="bond-19 atom-19 atom-20" d="M 13.8,129.9 L 16.6,106.4" style="fill:none;fill-rule:evenodd;stroke:#000000;stroke-width:2.0px;stroke-linecap:butt;stroke-linejoin:miter;stroke-opacity:1"/>
<path class="bond-20 atom-20 atom-21" d="M 16.6,106.4 L 38.4,97.0" style="fill:none;fill-rule:evenodd;stroke:#000000;stroke-width:2.0px;stroke-linecap:butt;stroke-linejoin:miter;stroke-opacity:1"/>
<path class="bond-20 atom-20 atom-21" d="M 19.9,108.8 L 37.9,101.1" style="fill:none;fill-rule:evenodd;stroke:#000000;stroke-width:2.0px;stroke-linecap:butt;stroke-linejoin:miter;stroke-opacity:1"/>
<path class="bond-21 atom-21 atom-22" d="M 38.4,97.0 L 41.2,73.5" style="fill:none;fill-rule:evenodd;stroke:#000000;stroke-width:2.0px;stroke-linecap:butt;stroke-linejoin:miter;stroke-opacity:1"/>
<path class="bond-22 atom-22 atom-23" d="M 41.2,73.5 L 42.3,63.8" style="fill:none;fill-rule:evenodd;stroke:#000000;stroke-width:2.0px;stroke-linecap:butt;stroke-linejoin:miter;stroke-opacity:1"/>
<path class="bond-22 atom-22 atom-23" d="M 42.3,63.8 L 43.5,54.1" style="fill:none;fill-rule:evenodd;stroke:#33CCCC;stroke-width:2.0px;stroke-linecap:butt;stroke-linejoin:miter;stroke-opacity:1"/>
<path class="bond-23 atom-22 atom-24" d="M 41.2,73.5 L 30.8,72.2" style="fill:none;fill-rule:evenodd;stroke:#000000;stroke-width:2.0px;stroke-linecap:butt;stroke-linejoin:miter;stroke-opacity:1"/>
<path class="bond-23 atom-22 atom-24" d="M 30.8,72.2 L 20.4,71.0" style="fill:none;fill-rule:evenodd;stroke:#33CCCC;stroke-width:2.0px;stroke-linecap:butt;stroke-linejoin:miter;stroke-opacity:1"/>
<path class="bond-24 atom-22 atom-25" d="M 41.2,73.5 L 51.5,74.7" style="fill:none;fill-rule:evenodd;stroke:#000000;stroke-width:2.0px;stroke-linecap:butt;stroke-linejoin:miter;stroke-opacity:1"/>
<path class="bond-24 atom-22 atom-25" d="M 51.5,74.7 L 61.9,75.9" style="fill:none;fill-rule:evenodd;stroke:#33CCCC;stroke-width:2.0px;stroke-linecap:butt;stroke-linejoin:miter;stroke-opacity:1"/>
<path class="bond-25 atom-15 atom-26" d="M 79.2,101.8 L 87.7,106.9" style="fill:none;fill-rule:evenodd;stroke:#000000;stroke-width:2.0px;stroke-linecap:butt;stroke-linejoin:miter;stroke-opacity:1"/>
<path class="bond-25 atom-15 atom-26" d="M 87.7,106.9 L 96.2,112.0" style="fill:none;fill-rule:evenodd;stroke:#0000FF;stroke-width:2.0px;stroke-linecap:butt;stroke-linejoin:miter;stroke-opacity:1"/>
<path class="bond-26 atom-26 atom-27" d="M 99.9,118.1 L 100.8,127.8" style="fill:none;fill-rule:evenodd;stroke:#0000FF;stroke-width:2.0px;stroke-linecap:butt;stroke-linejoin:miter;stroke-opacity:1"/>
<path class="bond-26 atom-26 atom-27" d="M 100.8,127.8 L 101.7,137.6" style="fill:none;fill-rule:evenodd;stroke:#000000;stroke-width:2.0px;stroke-linecap:butt;stroke-linejoin:miter;stroke-opacity:1"/>
<path class="bond-27 atom-11 atom-28" d="M 140.5,103.6 L 155.2,85.0" style="fill:none;fill-rule:evenodd;stroke:#000000;stroke-width:2.0px;stroke-linecap:butt;stroke-linejoin:miter;stroke-opacity:1"/>
<path class="bond-28 atom-28 atom-29" d="M 155.2,85.0 L 179.0,85.0" style="fill:none;fill-rule:evenodd;stroke:#000000;stroke-width:2.0px;stroke-linecap:butt;stroke-linejoin:miter;stroke-opacity:1"/>
<path class="bond-29 atom-11 atom-30" d="M 140.5,103.6 L 136.5,79.9" style="fill:none;fill-rule:evenodd;stroke:#000000;stroke-width:2.0px;stroke-linecap:butt;stroke-linejoin:miter;stroke-opacity:1"/>
<path class="bond-30 atom-30 atom-31" d="M 136.5,79.9 L 143.2,73.1" style="fill:none;fill-rule:evenodd;stroke:#000000;stroke-width:2.0px;stroke-linecap:butt;stroke-linejoin:miter;stroke-opacity:1"/>
<path class="bond-30 atom-30 atom-31" d="M 143.2,73.1 L 149.9,66.4" style="fill:none;fill-rule:evenodd;stroke:#0000FF;stroke-width:2.0px;stroke-linecap:butt;stroke-linejoin:miter;stroke-opacity:1"/>
<path class="bond-31 atom-31 atom-32" d="M 151.5,58.9 L 147.8,50.1" style="fill:none;fill-rule:evenodd;stroke:#0000FF;stroke-width:2.0px;stroke-linecap:butt;stroke-linejoin:miter;stroke-opacity:1"/>
<path class="bond-31 atom-31 atom-32" d="M 147.8,50.1 L 144.1,41.2" style="fill:none;fill-rule:evenodd;stroke:#000000;stroke-width:2.0px;stroke-linecap:butt;stroke-linejoin:miter;stroke-opacity:1"/>
<path class="bond-32 atom-32 atom-33" d="M 144.1,41.2 L 140.4,32.4" style="fill:none;fill-rule:evenodd;stroke:#000000;stroke-width:2.0px;stroke-linecap:butt;stroke-linejoin:miter;stroke-opacity:1"/>
<path class="bond-32 atom-32 atom-33" d="M 140.4,32.4 L 136.8,23.6" style="fill:none;fill-rule:evenodd;stroke:#FF0000;stroke-width:2.0px;stroke-linecap:butt;stroke-linejoin:miter;stroke-opacity:1"/>
<path class="bond-33 atom-32 atom-34" d="M 144.1,41.2 L 153.1,37.4" style="fill:none;fill-rule:evenodd;stroke:#000000;stroke-width:2.0px;stroke-linecap:butt;stroke-linejoin:miter;stroke-opacity:1"/>
<path class="bond-33 atom-32 atom-34" d="M 153.1,37.4 L 162.1,33.7" style="fill:none;fill-rule:evenodd;stroke:#FF0000;stroke-width:2.0px;stroke-linecap:butt;stroke-linejoin:miter;stroke-opacity:1"/>
<path class="bond-34 atom-32 atom-35" d="M 144.1,41.2 L 134.6,45.2" style="fill:none;fill-rule:evenodd;stroke:#000000;stroke-width:2.0px;stroke-linecap:butt;stroke-linejoin:miter;stroke-opacity:1"/>
<path class="bond-34 atom-32 atom-35" d="M 134.6,45.2 L 125.0,49.1" style="fill:none;fill-rule:evenodd;stroke:#33CCCC;stroke-width:2.0px;stroke-linecap:butt;stroke-linejoin:miter;stroke-opacity:1"/>
<path class="bond-35 atom-31 atom-36" d="M 156.6,63.1 L 166.7,63.0" style="fill:none;fill-rule:evenodd;stroke:#0000FF;stroke-width:2.0px;stroke-linecap:butt;stroke-linejoin:miter;stroke-opacity:1"/>
<path class="bond-35 atom-31 atom-36" d="M 166.7,63.0 L 176.9,63.0" style="fill:none;fill-rule:evenodd;stroke:#000000;stroke-width:2.0px;stroke-linecap:butt;stroke-linejoin:miter;stroke-opacity:1"/>
<path class="bond-36 atom-36 atom-37" d="M 176.9,63.0 L 193.7,79.8" style="fill:none;fill-rule:evenodd;stroke:#000000;stroke-width:2.0px;stroke-linecap:butt;stroke-linejoin:miter;stroke-opacity:1"/>
<path class="bond-37 atom-29 atom-7" d="M 179.0,85.0 L 193.8,103.5" style="fill:none;fill-rule:evenodd;stroke:#000000;stroke-width:2.0px;stroke-linecap:butt;stroke-linejoin:miter;stroke-opacity:1"/>
<path class="bond-38 atom-37 atom-7" d="M 193.7,79.8 L 193.8,103.5" style="fill:none;fill-rule:evenodd;stroke:#000000;stroke-width:2.0px;stroke-linecap:butt;stroke-linejoin:miter;stroke-opacity:1"/>
<path class="bond-39 atom-26 atom-12" d="M 102.9,111.1 L 110.1,104.7" style="fill:none;fill-rule:evenodd;stroke:#0000FF;stroke-width:2.0px;stroke-linecap:butt;stroke-linejoin:miter;stroke-opacity:1"/>
<path class="bond-39 atom-26 atom-12" d="M 110.1,104.7 L 117.4,98.3" style="fill:none;fill-rule:evenodd;stroke:#000000;stroke-width:2.0px;stroke-linecap:butt;stroke-linejoin:miter;stroke-opacity:1"/>
<path class="bond-40 atom-21 atom-16" d="M 38.4,97.0 L 57.4,111.2" style="fill:none;fill-rule:evenodd;stroke:#000000;stroke-width:2.0px;stroke-linecap:butt;stroke-linejoin:miter;stroke-opacity:1"/>
<path d="M 279.6,103.7 L 279.3,104.9 L 278.8,105.0" style="fill:none;stroke:#000000;stroke-width:2.0px;stroke-linecap:butt;stroke-linejoin:miter;stroke-opacity:1;"/>
<path d="M 233.5,115.4 L 233.0,115.5 L 232.2,114.6" style="fill:none;stroke:#000000;stroke-width:2.0px;stroke-linecap:butt;stroke-linejoin:miter;stroke-opacity:1;"/>
<path d="M 217.7,99.0 L 216.9,98.2 L 215.7,98.4" style="fill:none;stroke:#000000;stroke-width:2.0px;stroke-linecap:butt;stroke-linejoin:miter;stroke-opacity:1;"/>
<path d="M 188.8,125.5 L 188.5,126.6 L 187.5,127.1" style="fill:none;stroke:#000000;stroke-width:2.0px;stroke-linecap:butt;stroke-linejoin:miter;stroke-opacity:1;"/>
<path d="M 168.3,136.4 L 167.2,136.9 L 166.1,136.4" style="fill:none;stroke:#000000;stroke-width:2.0px;stroke-linecap:butt;stroke-linejoin:miter;stroke-opacity:1;"/>
<path d="M 146.9,127.2 L 145.8,126.7 L 145.5,125.5" style="fill:none;stroke:#000000;stroke-width:2.0px;stroke-linecap:butt;stroke-linejoin:miter;stroke-opacity:1;"/>
<path d="M 54.7,133.6 L 54.6,134.8 L 53.5,135.2" style="fill:none;stroke:#000000;stroke-width:2.0px;stroke-linecap:butt;stroke-linejoin:miter;stroke-opacity:1;"/>
<path d="M 33.9,143.6 L 32.8,144.1 L 31.8,143.4" style="fill:none;stroke:#000000;stroke-width:2.0px;stroke-linecap:butt;stroke-linejoin:miter;stroke-opacity:1;"/>
<path d="M 14.7,130.6 L 13.8,129.9 L 13.9,128.7" style="fill:none;stroke:#000000;stroke-width:2.0px;stroke-linecap:butt;stroke-linejoin:miter;stroke-opacity:1;"/>
<path d="M 16.4,107.5 L 16.6,106.4 L 17.7,105.9" style="fill:none;stroke:#000000;stroke-width:2.0px;stroke-linecap:butt;stroke-linejoin:miter;stroke-opacity:1;"/>
<path d="M 154.5,85.9 L 155.2,85.0 L 156.4,85.0" style="fill:none;stroke:#000000;stroke-width:2.0px;stroke-linecap:butt;stroke-linejoin:miter;stroke-opacity:1;"/>
<path d="M 177.8,85.0 L 179.0,85.0 L 179.7,85.9" style="fill:none;stroke:#000000;stroke-width:2.0px;stroke-linecap:butt;stroke-linejoin:miter;stroke-opacity:1;"/>
<path d="M 136.7,81.1 L 136.5,79.9 L 136.8,79.5" style="fill:none;stroke:#000000;stroke-width:2.0px;stroke-linecap:butt;stroke-linejoin:miter;stroke-opacity:1;"/>
<path d="M 176.4,63.0 L 176.9,63.0 L 177.8,63.9" style="fill:none;stroke:#000000;stroke-width:2.0px;stroke-linecap:butt;stroke-linejoin:miter;stroke-opacity:1;"/>
<path d="M 192.9,78.9 L 193.7,79.8 L 193.7,81.0" style="fill:none;stroke:#000000;stroke-width:2.0px;stroke-linecap:butt;stroke-linejoin:miter;stroke-opacity:1;"/>
<path class="atom-2" d="M 254.3 112.5 Q 254.3 112.5, 254.6 112.7 Q 255.0 112.8, 255.3 112.9 Q 255.7 113.0, 256.0 113.0 Q 256.6 113.0, 257.0 112.7 Q 257.4 112.3, 257.4 111.8 Q 257.4 111.4, 257.2 111.2 Q 257.0 111.0, 256.7 110.9 Q 256.4 110.7, 256.0 110.6 Q 255.4 110.4, 255.0 110.2 Q 254.6 110.1, 254.4 109.7 Q 254.1 109.3, 254.1 108.7 Q 254.1 107.9, 254.7 107.4 Q 255.3 106.9, 256.4 106.9 Q 257.2 106.9, 258.1 107.2 L 257.9 108.0 Q 257.1 107.6, 256.5 107.6 Q 255.8 107.6, 255.4 107.9 Q 255.1 108.2, 255.1 108.6 Q 255.1 109.0, 255.3 109.2 Q 255.5 109.4, 255.7 109.5 Q 256.0 109.7, 256.5 109.8 Q 257.1 110.0, 257.4 110.2 Q 257.8 110.4, 258.0 110.8 Q 258.3 111.1, 258.3 111.8 Q 258.3 112.7, 257.7 113.2 Q 257.1 113.7, 256.0 113.7 Q 255.4 113.7, 255.0 113.6 Q 254.5 113.5, 254.0 113.3 L 254.3 112.5 " fill="#CCCC00"/>
<path class="atom-3" d="M 247.8 87.1 Q 247.8 85.5, 248.5 84.6 Q 249.3 83.7, 250.8 83.7 Q 252.3 83.7, 253.1 84.6 Q 253.9 85.5, 253.9 87.1 Q 253.9 88.7, 253.1 89.7 Q 252.3 90.6, 250.8 90.6 Q 249.4 90.6, 248.5 89.7 Q 247.8 88.7, 247.8 87.1 M 250.8 89.8 Q 251.9 89.8, 252.4 89.1 Q 253.0 88.5, 253.0 87.1 Q 253.0 85.8, 252.4 85.1 Q 251.9 84.5, 250.8 84.5 Q 249.8 84.5, 249.3 85.1 Q 248.7 85.8, 248.7 87.1 Q 248.7 88.5, 249.3 89.1 Q 249.8 89.8, 250.8 89.8 " fill="#FF0000"/>
<path class="atom-4" d="M 258.4 133.3 Q 258.4 131.7, 259.2 130.8 Q 260.0 129.9, 261.5 129.9 Q 263.0 129.9, 263.8 130.8 Q 264.6 131.7, 264.6 133.3 Q 264.6 135.0, 263.7 135.9 Q 262.9 136.8, 261.5 136.8 Q 260.0 136.8, 259.2 135.9 Q 258.4 135.0, 258.4 133.3 M 261.5 136.1 Q 262.5 136.1, 263.0 135.4 Q 263.6 134.7, 263.6 133.3 Q 263.6 132.0, 263.0 131.3 Q 262.5 130.7, 261.5 130.7 Q 260.4 130.7, 259.9 131.3 Q 259.3 132.0, 259.3 133.3 Q 259.3 134.7, 259.9 135.4 Q 260.4 136.1, 261.5 136.1 " fill="#FF0000"/>
<path class="atom-13" d="M 106.5 73.2 L 108.7 76.7 Q 108.9 77.1, 109.3 77.7 Q 109.6 78.4, 109.7 78.4 L 109.7 73.2 L 110.6 73.2 L 110.6 79.9 L 109.6 79.9 L 107.3 76.0 Q 107.0 75.6, 106.7 75.0 Q 106.4 74.5, 106.3 74.4 L 106.3 79.9 L 105.5 79.9 L 105.5 73.2 L 106.5 73.2 " fill="#0000FF"/>
<path class="atom-14" d="M 82.9 75.4 L 85.1 78.9 Q 85.3 79.3, 85.7 79.9 Q 86.0 80.5, 86.0 80.6 L 86.0 75.4 L 86.9 75.4 L 86.9 82.1 L 86.0 82.1 L 83.7 78.2 Q 83.4 77.7, 83.1 77.2 Q 82.8 76.7, 82.7 76.5 L 82.7 82.1 L 81.8 82.1 L 81.8 75.4 L 82.9 75.4 " fill="#0000FF"/>
<path class="atom-23" d="M 41.9 46.6 L 45.9 46.6 L 45.9 47.3 L 42.9 47.3 L 42.9 49.4 L 45.6 49.4 L 45.6 50.1 L 42.9 50.1 L 42.9 53.3 L 41.9 53.3 L 41.9 46.6 " fill="#33CCCC"/>
<path class="atom-24" d="M 15.6 67.3 L 19.6 67.3 L 19.6 68.1 L 16.5 68.1 L 16.5 70.1 L 19.3 70.1 L 19.3 70.9 L 16.5 70.9 L 16.5 74.0 L 15.6 74.0 L 15.6 67.3 " fill="#33CCCC"/>
<path class="atom-25" d="M 62.7 72.9 L 66.7 72.9 L 66.7 73.7 L 63.6 73.7 L 63.6 75.7 L 66.4 75.7 L 66.4 76.5 L 63.6 76.5 L 63.6 79.6 L 62.7 79.6 L 62.7 72.9 " fill="#33CCCC"/>
<path class="atom-26" d="M 98.0 110.6 L 100.2 114.2 Q 100.5 114.5, 100.8 115.2 Q 101.2 115.8, 101.2 115.8 L 101.2 110.6 L 102.1 110.6 L 102.1 117.3 L 101.2 117.3 L 98.8 113.4 Q 98.5 113.0, 98.2 112.5 Q 97.9 111.9, 97.9 111.8 L 97.9 117.3 L 97.0 117.3 L 97.0 110.6 L 98.0 110.6 " fill="#0000FF"/>
<path class="atom-31" d="M 151.7 59.7 L 153.9 63.3 Q 154.2 63.6, 154.5 64.3 Q 154.9 64.9, 154.9 64.9 L 154.9 59.7 L 155.8 59.7 L 155.8 66.4 L 154.8 66.4 L 152.5 62.5 Q 152.2 62.1, 151.9 61.6 Q 151.6 61.0, 151.5 60.9 L 151.5 66.4 L 150.7 66.4 L 150.7 59.7 L 151.7 59.7 " fill="#0000FF"/>
<path class="atom-33" d="M 131.9 19.3 Q 131.9 17.7, 132.7 16.8 Q 133.5 15.9, 135.0 15.9 Q 136.5 15.9, 137.3 16.8 Q 138.1 17.7, 138.1 19.3 Q 138.1 20.9, 137.3 21.9 Q 136.5 22.8, 135.0 22.8 Q 133.5 22.8, 132.7 21.9 Q 131.9 20.9, 131.9 19.3 M 135.0 22.0 Q 136.0 22.0, 136.6 21.3 Q 137.1 20.7, 137.1 19.3 Q 137.1 18.0, 136.6 17.3 Q 136.0 16.6, 135.0 16.6 Q 134.0 16.6, 133.4 17.3 Q 132.9 18.0, 132.9 19.3 Q 132.9 20.7, 133.4 21.3 Q 134.0 22.0, 135.0 22.0 " fill="#FF0000"/>
<path class="atom-34" d="M 162.9 32.1 Q 162.9 30.5, 163.7 29.6 Q 164.5 28.7, 166.0 28.7 Q 167.5 28.7, 168.3 29.6 Q 169.1 30.5, 169.1 32.1 Q 169.1 33.7, 168.3 34.6 Q 167.5 35.6, 166.0 35.6 Q 164.5 35.6, 163.7 34.6 Q 162.9 33.7, 162.9 32.1 M 166.0 34.8 Q 167.0 34.8, 167.6 34.1 Q 168.1 33.4, 168.1 32.1 Q 168.1 30.8, 167.6 30.1 Q 167.0 29.4, 166.0 29.4 Q 165.0 29.4, 164.4 30.1 Q 163.9 30.8, 163.9 32.1 Q 163.9 33.4, 164.4 34.1 Q 165.0 34.8, 166.0 34.8 " fill="#FF0000"/>
<path class="atom-35" d="M 120.2 46.9 L 124.2 46.9 L 124.2 47.7 L 121.1 47.7 L 121.1 49.7 L 123.9 49.7 L 123.9 50.5 L 121.1 50.5 L 121.1 53.6 L 120.2 53.6 L 120.2 46.9 " fill="#33CCCC"/>
<path class="atom-33" d="M 131.0,19.3 L 131.0,19.3 L 131.0,19.4 L 130.9,19.4 L 130.9,19.4 L 130.9,19.5 L 130.9,19.5 L 130.9,19.6 L 130.9,19.6 L 130.8,19.6 L 130.8,19.6 L 130.8,19.7 L 130.7,19.7 L 130.7,19.7 L 130.7,19.7 L 130.6,19.7 L 130.6,19.8 L 130.5,19.8 L 130.5,19.8 L 130.5,19.8 L 130.4,19.8 L 130.4,19.7 L 130.3,19.7 L 130.3,19.7 L 130.3,19.7 L 130.2,19.7 L 130.2,19.7 L 130.2,19.6 L 130.1,19.6 L 130.1,19.6 L 130.1,19.5 L 130.1,19.5 L 130.0,19.5 L 130.0,19.4 L 130.0,19.4 L 130.0,19.3 L 130.0,19.3 L 130.0,19.3 L 130.0,19.2 L 130.0,19.2 L 130.0,19.1 L 130.0,19.1 L 130.1,19.1 L 130.1,19.0 L 130.1,19.0 L 130.1,19.0 L 130.2,18.9 L 130.2,18.9 L 130.2,18.9 L 130.3,18.9 L 130.3,18.9 L 130.3,18.8 L 130.4,18.8 L 130.4,18.8 L 130.5,18.8 L 130.5,18.8 L 130.5,18.8 L 130.6,18.8 L 130.6,18.8 L 130.7,18.8 L 130.7,18.9 L 130.7,18.9 L 130.8,18.9 L 130.8,18.9 L 130.8,19.0 L 130.9,19.0 L 130.9,19.0 L 130.9,19.1 L 130.9,19.1 L 130.9,19.1 L 130.9,19.2 L 131.0,19.2 L 131.0,19.2 L 131.0,19.3 L 130.5,19.3 Z" style="fill:#000000;fill-rule:evenodd;fill-opacity:1;stroke:#000000;stroke-width:0.0px;stroke-linecap:butt;stroke-linejoin:miter;stroke-opacity:1;"/>
<path class="atom-34" d="M 171.0,32.1 L 171.0,32.1 L 171.0,32.1 L 171.0,32.2 L 171.0,32.2 L 170.9,32.3 L 170.9,32.3 L 170.9,32.3 L 170.9,32.4 L 170.8,32.4 L 170.8,32.4 L 170.8,32.4 L 170.7,32.5 L 170.7,32.5 L 170.7,32.5 L 170.6,32.5 L 170.6,32.5 L 170.6,32.5 L 170.5,32.5 L 170.5,32.5 L 170.4,32.5 L 170.4,32.5 L 170.4,32.5 L 170.3,32.5 L 170.3,32.5 L 170.2,32.5 L 170.2,32.4 L 170.2,32.4 L 170.2,32.4 L 170.1,32.3 L 170.1,32.3 L 170.1,32.3 L 170.1,32.2 L 170.1,32.2 L 170.0,32.2 L 170.0,32.1 L 170.0,32.1 L 170.0,32.0 L 170.0,32.0 L 170.0,32.0 L 170.1,31.9 L 170.1,31.9 L 170.1,31.8 L 170.1,31.8 L 170.1,31.8 L 170.2,31.7 L 170.2,31.7 L 170.2,31.7 L 170.2,31.7 L 170.3,31.6 L 170.3,31.6 L 170.4,31.6 L 170.4,31.6 L 170.4,31.6 L 170.5,31.6 L 170.5,31.6 L 170.6,31.6 L 170.6,31.6 L 170.6,31.6 L 170.7,31.6 L 170.7,31.6 L 170.7,31.7 L 170.8,31.7 L 170.8,31.7 L 170.8,31.7 L 170.9,31.8 L 170.9,31.8 L 170.9,31.8 L 170.9,31.9 L 171.0,31.9 L 171.0,31.9 L 171.0,32.0 L 171.0,32.0 L 171.0,32.1 L 170.5,32.1 Z" style="fill:#000000;fill-rule:evenodd;fill-opacity:1;stroke:#000000;stroke-width:0.0px;stroke-linecap:butt;stroke-linejoin:miter;stroke-opacity:1;"/>
<path class="bond-0 atom-0 atom-1" d="M 439.5,18.6 L 448.5,40.6" style="fill:none;fill-rule:evenodd;stroke:#000000;stroke-width:2.0px;stroke-linecap:butt;stroke-linejoin:miter;stroke-opacity:1"/>
<path class="bond-1 atom-1 atom-2" d="M 448.5,40.6 L 439.5,44.3" style="fill:none;fill-rule:evenodd;stroke:#000000;stroke-width:2.0px;stroke-linecap:butt;stroke-linejoin:miter;stroke-opacity:1"/>
<path class="bond-1 atom-1 atom-2" d="M 439.5,44.3 L 430.4,48.0" style="fill:none;fill-rule:evenodd;stroke:#FF0000;stroke-width:2.0px;stroke-linecap:butt;stroke-linejoin:miter;stroke-opacity:1"/>
<path class="bond-2 atom-1 atom-3" d="M 448.5,40.6 L 467.5,32.8" style="fill:none;fill-rule:evenodd;stroke:#000000;stroke-width:2.0px;stroke-linecap:butt;stroke-linejoin:miter;stroke-opacity:1"/>
<path class="bond-3 atom-1 atom-4" d="M 448.5,40.6 L 452.1,49.5" style="fill:none;fill-rule:evenodd;stroke:#000000;stroke-width:2.0px;stroke-linecap:butt;stroke-linejoin:miter;stroke-opacity:1"/>
<path class="bond-3 atom-1 atom-4" d="M 452.1,49.5 L 455.8,58.4" style="fill:none;fill-rule:evenodd;stroke:#0000FF;stroke-width:2.0px;stroke-linecap:butt;stroke-linejoin:miter;stroke-opacity:1"/>
<path class="bond-4 atom-4 atom-5" d="M 460.8,62.6 L 471.0,62.6" style="fill:none;fill-rule:evenodd;stroke:#0000FF;stroke-width:2.0px;stroke-linecap:butt;stroke-linejoin:miter;stroke-opacity:1"/>
<path class="bond-4 atom-4 atom-5" d="M 471.0,62.6 L 481.2,62.7" style="fill:none;fill-rule:evenodd;stroke:#000000;stroke-width:2.0px;stroke-linecap:butt;stroke-linejoin:miter;stroke-opacity:1"/>
<path class="bond-5 atom-5 atom-6" d="M 481.2,62.7 L 497.9,79.5" style="fill:none;fill-rule:evenodd;stroke:#000000;stroke-width:2.0px;stroke-linecap:butt;stroke-linejoin:miter;stroke-opacity:1"/>
<path class="bond-6 atom-6 atom-7" d="M 497.9,79.5 L 493.8,103.2" style="fill:none;fill-rule:evenodd;stroke:#000000;stroke-width:2.0px;stroke-linecap:butt;stroke-linejoin:miter;stroke-opacity:1"/>
<path class="bond-7 atom-7 atom-8" d="M 493.8,103.2 L 516.9,98.0" style="fill:none;fill-rule:evenodd;stroke:#000000;stroke-width:2.0px;stroke-linecap:butt;stroke-linejoin:miter;stroke-opacity:1"/>
<path class="bond-8 atom-8 atom-9" d="M 516.9,98.0 L 533.0,115.5" style="fill:none;fill-rule:evenodd;stroke:#000000;stroke-width:2.0px;stroke-linecap:butt;stroke-linejoin:miter;stroke-opacity:1"/>
<path class="bond-9 atom-9 atom-10" d="M 533.0,115.5 L 543.1,113.2" style="fill:none;fill-rule:evenodd;stroke:#000000;stroke-width:2.0px;stroke-linecap:butt;stroke-linejoin:miter;stroke-opacity:1"/>
<path class="bond-9 atom-9 atom-10" d="M 543.1,113.2 L 553.2,111.0" style="fill:none;fill-rule:evenodd;stroke:#CCCC00;stroke-width:2.0px;stroke-linecap:butt;stroke-linejoin:miter;stroke-opacity:1"/>
<path class="bond-10 atom-10 atom-11" d="M 556.9,105.8 L 555.3,98.4" style="fill:none;fill-rule:evenodd;stroke:#CCCC00;stroke-width:2.0px;stroke-linecap:butt;stroke-linejoin:miter;stroke-opacity:1"/>
<path class="bond-10 atom-10 atom-11" d="M 555.3,98.4 L 553.6,91.1" style="fill:none;fill-rule:evenodd;stroke:#FF0000;stroke-width:2.0px;stroke-linecap:butt;stroke-linejoin:miter;stroke-opacity:1"/>
<path class="bond-10 atom-10 atom-11" d="M 553.5,106.6 L 551.8,99.2" style="fill:none;fill-rule:evenodd;stroke:#CCCC00;stroke-width:2.0px;stroke-linecap:butt;stroke-linejoin:miter;stroke-opacity:1"/>
<path class="bond-10 atom-10 atom-11" d="M 551.8,99.2 L 550.2,91.8" style="fill:none;fill-rule:evenodd;stroke:#FF0000;stroke-width:2.0px;stroke-linecap:butt;stroke-linejoin:miter;stroke-opacity:1"/>
<path class="bond-11 atom-10 atom-12" d="M 555.4,115.0 L 557.0,122.3" style="fill:none;fill-rule:evenodd;stroke:#CCCC00;stroke-width:2.0px;stroke-linecap:butt;stroke-linejoin:miter;stroke-opacity:1"/>
<path class="bond-11 atom-10 atom-12" d="M 557.0,122.3 L 558.6,129.7" style="fill:none;fill-rule:evenodd;stroke:#FF0000;stroke-width:2.0px;stroke-linecap:butt;stroke-linejoin:miter;stroke-opacity:1"/>
<path class="bond-11 atom-10 atom-12" d="M 558.8,114.2 L 560.5,121.6" style="fill:none;fill-rule:evenodd;stroke:#CCCC00;stroke-width:2.0px;stroke-linecap:butt;stroke-linejoin:miter;stroke-opacity:1"/>
<path class="bond-11 atom-10 atom-12" d="M 560.5,121.6 L 562.1,128.9" style="fill:none;fill-rule:evenodd;stroke:#FF0000;stroke-width:2.0px;stroke-linecap:butt;stroke-linejoin:miter;stroke-opacity:1"/>
<path class="bond-12 atom-10 atom-13" d="M 559.1,109.7 L 569.2,107.4" style="fill:none;fill-rule:evenodd;stroke:#CCCC00;stroke-width:2.0px;stroke-linecap:butt;stroke-linejoin:miter;stroke-opacity:1"/>
<path class="bond-12 atom-10 atom-13" d="M 569.2,107.4 L 579.3,105.2" style="fill:none;fill-rule:evenodd;stroke:#000000;stroke-width:2.0px;stroke-linecap:butt;stroke-linejoin:miter;stroke-opacity:1"/>
<path class="bond-13 atom-13 atom-14" d="M 579.3,105.2 L 586.4,82.5" style="fill:none;fill-rule:evenodd;stroke:#000000;stroke-width:2.0px;stroke-linecap:butt;stroke-linejoin:miter;stroke-opacity:1"/>
<path class="bond-14 atom-7 atom-15" d="M 493.8,103.2 L 488.4,126.3" style="fill:none;fill-rule:evenodd;stroke:#000000;stroke-width:2.0px;stroke-linecap:butt;stroke-linejoin:miter;stroke-opacity:1"/>
<path class="bond-15 atom-15 atom-16" d="M 488.4,126.3 L 467.0,136.5" style="fill:none;fill-rule:evenodd;stroke:#000000;stroke-width:2.0px;stroke-linecap:butt;stroke-linejoin:miter;stroke-opacity:1"/>
<path class="bond-16 atom-16 atom-17" d="M 467.0,136.5 L 445.7,126.1" style="fill:none;fill-rule:evenodd;stroke:#000000;stroke-width:2.0px;stroke-linecap:butt;stroke-linejoin:miter;stroke-opacity:1"/>
<path class="bond-17 atom-17 atom-18" d="M 445.7,126.1 L 440.5,102.9" style="fill:none;fill-rule:evenodd;stroke:#000000;stroke-width:2.0px;stroke-linecap:butt;stroke-linejoin:miter;stroke-opacity:1"/>
<path class="bond-18 atom-18 atom-19" d="M 440.5,102.9 L 417.4,97.6" style="fill:none;fill-rule:evenodd;stroke:#000000;stroke-width:2.0px;stroke-linecap:butt;stroke-linejoin:miter;stroke-opacity:1"/>
<path class="bond-19 atom-19 atom-20" d="M 417.4,97.6 L 413.7,88.7" style="fill:none;fill-rule:evenodd;stroke:#000000;stroke-width:2.0px;stroke-linecap:butt;stroke-linejoin:miter;stroke-opacity:1"/>
<path class="bond-19 atom-19 atom-20" d="M 413.7,88.7 L 409.9,79.9" style="fill:none;fill-rule:evenodd;stroke:#0000FF;stroke-width:2.0px;stroke-linecap:butt;stroke-linejoin:miter;stroke-opacity:1"/>
<path class="bond-19 atom-19 atom-20" d="M 413.1,96.6 L 409.9,88.9" style="fill:none;fill-rule:evenodd;stroke:#000000;stroke-width:2.0px;stroke-linecap:butt;stroke-linejoin:miter;stroke-opacity:1"/>
<path class="bond-19 atom-19 atom-20" d="M 409.9,88.9 L 406.7,81.2" style="fill:none;fill-rule:evenodd;stroke:#0000FF;stroke-width:2.0px;stroke-linecap:butt;stroke-linejoin:miter;stroke-opacity:1"/>
<path class="bond-20 atom-20 atom-21" d="M 404.9,76.0 L 387.9,77.4" style="fill:none;fill-rule:evenodd;stroke:#0000FF;stroke-width:2.0px;stroke-linecap:butt;stroke-linejoin:miter;stroke-opacity:1"/>
<path class="bond-21 atom-21 atom-22" d="M 383.6,81.9 L 381.4,91.3" style="fill:none;fill-rule:evenodd;stroke:#0000FF;stroke-width:2.0px;stroke-linecap:butt;stroke-linejoin:miter;stroke-opacity:1"/>
<path class="bond-21 atom-21 atom-22" d="M 381.4,91.3 L 379.2,100.8" style="fill:none;fill-rule:evenodd;stroke:#000000;stroke-width:2.0px;stroke-linecap:butt;stroke-linejoin:miter;stroke-opacity:1"/>
<path class="bond-21 atom-21 atom-22" d="M 387.1,82.7 L 385.2,90.9" style="fill:none;fill-rule:evenodd;stroke:#0000FF;stroke-width:2.0px;stroke-linecap:butt;stroke-linejoin:miter;stroke-opacity:1"/>
<path class="bond-21 atom-21 atom-22" d="M 385.2,90.9 L 383.2,99.1" style="fill:none;fill-rule:evenodd;stroke:#000000;stroke-width:2.0px;stroke-linecap:butt;stroke-linejoin:miter;stroke-opacity:1"/>
<path class="bond-22 atom-22 atom-23" d="M 379.2,100.8 L 357.3,110.0" style="fill:none;fill-rule:evenodd;stroke:#000000;stroke-width:2.0px;stroke-linecap:butt;stroke-linejoin:miter;stroke-opacity:1"/>
<path class="bond-23 atom-23 atom-24" d="M 357.3,110.0 L 354.4,133.6" style="fill:none;fill-rule:evenodd;stroke:#000000;stroke-width:2.0px;stroke-linecap:butt;stroke-linejoin:miter;stroke-opacity:1"/>
<path class="bond-23 atom-23 atom-24" d="M 353.5,111.6 L 351.1,131.1" style="fill:none;fill-rule:evenodd;stroke:#000000;stroke-width:2.0px;stroke-linecap:butt;stroke-linejoin:miter;stroke-opacity:1"/>
<path class="bond-24 atom-24 atom-25" d="M 354.4,133.6 L 332.5,142.8" style="fill:none;fill-rule:evenodd;stroke:#000000;stroke-width:2.0px;stroke-linecap:butt;stroke-linejoin:miter;stroke-opacity:1"/>
<path class="bond-25 atom-25 atom-26" d="M 332.5,142.8 L 313.6,128.5" style="fill:none;fill-rule:evenodd;stroke:#000000;stroke-width:2.0px;stroke-linecap:butt;stroke-linejoin:miter;stroke-opacity:1"/>
<path class="bond-25 atom-25 atom-26" d="M 333.1,138.7 L 317.4,126.9" style="fill:none;fill-rule:evenodd;stroke:#000000;stroke-width:2.0px;stroke-linecap:butt;stroke-linejoin:miter;stroke-opacity:1"/>
<path class="bond-26 atom-26 atom-27" d="M 313.6,128.5 L 316.6,104.9" style="fill:none;fill-rule:evenodd;stroke:#000000;stroke-width:2.0px;stroke-linecap:butt;stroke-linejoin:miter;stroke-opacity:1"/>
<path class="bond-27 atom-27 atom-28" d="M 316.6,104.9 L 338.4,95.7" style="fill:none;fill-rule:evenodd;stroke:#000000;stroke-width:2.0px;stroke-linecap:butt;stroke-linejoin:miter;stroke-opacity:1"/>
<path class="bond-27 atom-27 atom-28" d="M 319.9,107.4 L 337.9,99.8" style="fill:none;fill-rule:evenodd;stroke:#000000;stroke-width:2.0px;stroke-linecap:butt;stroke-linejoin:miter;stroke-opacity:1"/>
<path class="bond-28 atom-28 atom-29" d="M 338.4,95.7 L 341.4,72.2" style="fill:none;fill-rule:evenodd;stroke:#000000;stroke-width:2.0px;stroke-linecap:butt;stroke-linejoin:miter;stroke-opacity:1"/>
<path class="bond-29 atom-29 atom-30" d="M 341.4,72.2 L 342.6,62.5" style="fill:none;fill-rule:evenodd;stroke:#000000;stroke-width:2.0px;stroke-linecap:butt;stroke-linejoin:miter;stroke-opacity:1"/>
<path class="bond-29 atom-29 atom-30" d="M 342.6,62.5 L 343.8,52.8" style="fill:none;fill-rule:evenodd;stroke:#33CCCC;stroke-width:2.0px;stroke-linecap:butt;stroke-linejoin:miter;stroke-opacity:1"/>
<path class="bond-30 atom-29 atom-31" d="M 341.4,72.2 L 331.0,70.9" style="fill:none;fill-rule:evenodd;stroke:#000000;stroke-width:2.0px;stroke-linecap:butt;stroke-linejoin:miter;stroke-opacity:1"/>
<path class="bond-30 atom-29 atom-31" d="M 331.0,70.9 L 320.6,69.6" style="fill:none;fill-rule:evenodd;stroke:#33CCCC;stroke-width:2.0px;stroke-linecap:butt;stroke-linejoin:miter;stroke-opacity:1"/>
<path class="bond-31 atom-29 atom-32" d="M 341.4,72.2 L 351.7,73.5" style="fill:none;fill-rule:evenodd;stroke:#000000;stroke-width:2.0px;stroke-linecap:butt;stroke-linejoin:miter;stroke-opacity:1"/>
<path class="bond-31 atom-29 atom-32" d="M 351.7,73.5 L 362.1,74.8" style="fill:none;fill-rule:evenodd;stroke:#33CCCC;stroke-width:2.0px;stroke-linecap:butt;stroke-linejoin:miter;stroke-opacity:1"/>
<path class="bond-32 atom-22 atom-33" d="M 379.2,100.8 L 387.7,105.9" style="fill:none;fill-rule:evenodd;stroke:#000000;stroke-width:2.0px;stroke-linecap:butt;stroke-linejoin:miter;stroke-opacity:1"/>
<path class="bond-32 atom-22 atom-33" d="M 387.7,105.9 L 396.2,111.1" style="fill:none;fill-rule:evenodd;stroke:#0000FF;stroke-width:2.0px;stroke-linecap:butt;stroke-linejoin:miter;stroke-opacity:1"/>
<path class="bond-33 atom-33 atom-34" d="M 399.8,117.2 L 400.7,127.0" style="fill:none;fill-rule:evenodd;stroke:#0000FF;stroke-width:2.0px;stroke-linecap:butt;stroke-linejoin:miter;stroke-opacity:1"/>
<path class="bond-33 atom-33 atom-34" d="M 400.7,127.0 L 401.5,136.7" style="fill:none;fill-rule:evenodd;stroke:#000000;stroke-width:2.0px;stroke-linecap:butt;stroke-linejoin:miter;stroke-opacity:1"/>
<path class="bond-34 atom-18 atom-35" d="M 440.5,102.9 L 455.4,84.5" style="fill:none;fill-rule:evenodd;stroke:#000000;stroke-width:2.0px;stroke-linecap:butt;stroke-linejoin:miter;stroke-opacity:1"/>
<path class="bond-35 atom-35 atom-36" d="M 455.4,84.5 L 479.1,84.6" style="fill:none;fill-rule:evenodd;stroke:#000000;stroke-width:2.0px;stroke-linecap:butt;stroke-linejoin:miter;stroke-opacity:1"/>
<path class="bond-36 atom-18 atom-37" d="M 440.5,102.9 L 440.6,79.2" style="fill:none;fill-rule:evenodd;stroke:#000000;stroke-width:2.0px;stroke-linecap:butt;stroke-linejoin:miter;stroke-opacity:1"/>
<path class="bond-37 atom-37 atom-4" d="M 440.6,79.2 L 447.4,72.5" style="fill:none;fill-rule:evenodd;stroke:#000000;stroke-width:2.0px;stroke-linecap:butt;stroke-linejoin:miter;stroke-opacity:1"/>
<path class="bond-37 atom-37 atom-4" d="M 447.4,72.5 L 454.1,65.8" style="fill:none;fill-rule:evenodd;stroke:#0000FF;stroke-width:2.0px;stroke-linecap:butt;stroke-linejoin:miter;stroke-opacity:1"/>
<path class="bond-38 atom-36 atom-7" d="M 479.1,84.6 L 493.8,103.2" style="fill:none;fill-rule:evenodd;stroke:#000000;stroke-width:2.0px;stroke-linecap:butt;stroke-linejoin:miter;stroke-opacity:1"/>
<path class="bond-39 atom-33 atom-19" d="M 402.8,110.2 L 410.1,103.9" style="fill:none;fill-rule:evenodd;stroke:#0000FF;stroke-width:2.0px;stroke-linecap:butt;stroke-linejoin:miter;stroke-opacity:1"/>
<path class="bond-39 atom-33 atom-19" d="M 410.1,103.9 L 417.4,97.6" style="fill:none;fill-rule:evenodd;stroke:#000000;stroke-width:2.0px;stroke-linecap:butt;stroke-linejoin:miter;stroke-opacity:1"/>
<path class="bond-40 atom-28 atom-23" d="M 338.4,95.7 L 357.3,110.0" style="fill:none;fill-rule:evenodd;stroke:#000000;stroke-width:2.0px;stroke-linecap:butt;stroke-linejoin:miter;stroke-opacity:1"/>
<path d="M 480.7,62.7 L 481.2,62.7 L 482.0,63.5" style="fill:none;stroke:#000000;stroke-width:2.0px;stroke-linecap:butt;stroke-linejoin:miter;stroke-opacity:1;"/>
<path d="M 497.0,78.7 L 497.9,79.5 L 497.7,80.7" style="fill:none;stroke:#000000;stroke-width:2.0px;stroke-linecap:butt;stroke-linejoin:miter;stroke-opacity:1;"/>
<path d="M 515.8,98.3 L 516.9,98.0 L 517.7,98.9" style="fill:none;stroke:#000000;stroke-width:2.0px;stroke-linecap:butt;stroke-linejoin:miter;stroke-opacity:1;"/>
<path d="M 532.2,114.6 L 533.0,115.5 L 533.5,115.4" style="fill:none;stroke:#000000;stroke-width:2.0px;stroke-linecap:butt;stroke-linejoin:miter;stroke-opacity:1;"/>
<path d="M 578.8,105.3 L 579.3,105.2 L 579.6,104.0" style="fill:none;stroke:#000000;stroke-width:2.0px;stroke-linecap:butt;stroke-linejoin:miter;stroke-opacity:1;"/>
<path d="M 488.7,125.1 L 488.4,126.3 L 487.3,126.8" style="fill:none;stroke:#000000;stroke-width:2.0px;stroke-linecap:butt;stroke-linejoin:miter;stroke-opacity:1;"/>
<path d="M 468.1,136.0 L 467.0,136.5 L 465.9,136.0" style="fill:none;stroke:#000000;stroke-width:2.0px;stroke-linecap:butt;stroke-linejoin:miter;stroke-opacity:1;"/>
<path d="M 446.7,126.6 L 445.7,126.1 L 445.4,124.9" style="fill:none;stroke:#000000;stroke-width:2.0px;stroke-linecap:butt;stroke-linejoin:miter;stroke-opacity:1;"/>
<path d="M 354.5,132.4 L 354.4,133.6 L 353.3,134.0" style="fill:none;stroke:#000000;stroke-width:2.0px;stroke-linecap:butt;stroke-linejoin:miter;stroke-opacity:1;"/>
<path d="M 333.6,142.3 L 332.5,142.8 L 331.6,142.1" style="fill:none;stroke:#000000;stroke-width:2.0px;stroke-linecap:butt;stroke-linejoin:miter;stroke-opacity:1;"/>
<path d="M 314.6,129.2 L 313.6,128.5 L 313.8,127.3" style="fill:none;stroke:#000000;stroke-width:2.0px;stroke-linecap:butt;stroke-linejoin:miter;stroke-opacity:1;"/>
<path d="M 316.4,106.1 L 316.6,104.9 L 317.7,104.5" style="fill:none;stroke:#000000;stroke-width:2.0px;stroke-linecap:butt;stroke-linejoin:miter;stroke-opacity:1;"/>
<path d="M 454.6,85.4 L 455.4,84.5 L 456.6,84.5" style="fill:none;stroke:#000000;stroke-width:2.0px;stroke-linecap:butt;stroke-linejoin:miter;stroke-opacity:1;"/>
<path d="M 477.9,84.6 L 479.1,84.6 L 479.8,85.5" style="fill:none;stroke:#000000;stroke-width:2.0px;stroke-linecap:butt;stroke-linejoin:miter;stroke-opacity:1;"/>
<path d="M 440.6,80.4 L 440.6,79.2 L 441.0,78.9" style="fill:none;stroke:#000000;stroke-width:2.0px;stroke-linecap:butt;stroke-linejoin:miter;stroke-opacity:1;"/>
<path class="atom-2" d="M 423.5 49.6 Q 423.5 48.0, 424.3 47.1 Q 425.1 46.2, 426.5 46.2 Q 428.0 46.2, 428.8 47.1 Q 429.6 48.0, 429.6 49.6 Q 429.6 51.2, 428.8 52.1 Q 428.0 53.1, 426.5 53.1 Q 425.1 53.1, 424.3 52.1 Q 423.5 51.2, 423.5 49.6 M 426.5 52.3 Q 427.6 52.3, 428.1 51.6 Q 428.7 50.9, 428.7 49.6 Q 428.7 48.3, 428.1 47.6 Q 427.6 46.9, 426.5 46.9 Q 425.5 46.9, 425.0 47.6 Q 424.4 48.3, 424.4 49.6 Q 424.4 50.9, 425.0 51.6 Q 425.5 52.3, 426.5 52.3 " fill="#FF0000"/>
<path class="atom-3" d="M 468.5 33.9 Q 468.6 34.0, 468.9 34.1 Q 469.2 34.2, 469.6 34.3 Q 469.9 34.4, 470.3 34.4 Q 470.9 34.4, 471.3 34.1 Q 471.7 33.8, 471.7 33.2 Q 471.7 32.9, 471.5 32.6 Q 471.3 32.4, 471.0 32.3 Q 470.7 32.2, 470.2 32.0 Q 469.6 31.8, 469.3 31.7 Q 468.9 31.5, 468.7 31.1 Q 468.4 30.8, 468.4 30.2 Q 468.4 29.3, 469.0 28.8 Q 469.6 28.3, 470.7 28.3 Q 471.5 28.3, 472.4 28.7 L 472.2 29.4 Q 471.4 29.0, 470.7 29.0 Q 470.1 29.0, 469.7 29.3 Q 469.4 29.6, 469.4 30.1 Q 469.4 30.4, 469.6 30.6 Q 469.8 30.9, 470.0 31.0 Q 470.3 31.1, 470.7 31.2 Q 471.4 31.4, 471.7 31.6 Q 472.1 31.8, 472.3 32.2 Q 472.6 32.6, 472.6 33.2 Q 472.6 34.2, 472.0 34.7 Q 471.4 35.2, 470.3 35.2 Q 469.7 35.2, 469.3 35.0 Q 468.8 34.9, 468.3 34.7 L 468.5 33.9 " fill="#000000"/>
<path class="atom-3" d="M 473.3 28.3 L 474.2 28.3 L 474.2 29.1 L 473.3 29.1 L 473.3 28.3 M 473.3 30.1 L 474.2 30.1 L 474.2 35.0 L 473.3 35.0 L 473.3 30.1 " fill="#000000"/>
<path class="atom-4" d="M 456.0 59.2 L 458.2 62.7 Q 458.4 63.1, 458.8 63.7 Q 459.1 64.4, 459.1 64.4 L 459.1 59.2 L 460.0 59.2 L 460.0 65.9 L 459.1 65.9 L 456.7 62.0 Q 456.5 61.6, 456.2 61.0 Q 455.9 60.5, 455.8 60.4 L 455.8 65.9 L 454.9 65.9 L 454.9 59.2 L 456.0 59.2 " fill="#0000FF"/>
<path class="atom-10" d="M 554.2 112.6 Q 554.3 112.7, 554.6 112.8 Q 554.9 112.9, 555.3 113.0 Q 555.6 113.1, 556.0 113.1 Q 556.6 113.1, 557.0 112.8 Q 557.3 112.5, 557.3 111.9 Q 557.3 111.6, 557.1 111.3 Q 557.0 111.1, 556.7 111.0 Q 556.4 110.9, 555.9 110.7 Q 555.3 110.5, 555.0 110.4 Q 554.6 110.2, 554.4 109.8 Q 554.1 109.5, 554.1 108.9 Q 554.1 108.0, 554.7 107.5 Q 555.3 107.0, 556.4 107.0 Q 557.2 107.0, 558.1 107.3 L 557.8 108.1 Q 557.0 107.7, 556.4 107.7 Q 555.8 107.7, 555.4 108.0 Q 555.1 108.3, 555.1 108.7 Q 555.1 109.1, 555.2 109.3 Q 555.4 109.5, 555.7 109.7 Q 556.0 109.8, 556.4 109.9 Q 557.0 110.1, 557.4 110.3 Q 557.8 110.5, 558.0 110.9 Q 558.3 111.3, 558.3 111.9 Q 558.3 112.9, 557.7 113.4 Q 557.0 113.8, 556.0 113.8 Q 555.4 113.8, 554.9 113.7 Q 554.5 113.6, 554.0 113.4 L 554.2 112.6 " fill="#CCCC00"/>
<path class="atom-11" d="M 547.9 87.2 Q 547.9 85.6, 548.7 84.7 Q 549.5 83.8, 551.0 83.8 Q 552.4 83.8, 553.2 84.7 Q 554.0 85.6, 554.0 87.2 Q 554.0 88.8, 553.2 89.8 Q 552.4 90.7, 551.0 90.7 Q 549.5 90.7, 548.7 89.8 Q 547.9 88.8, 547.9 87.2 M 551.0 89.9 Q 552.0 89.9, 552.5 89.2 Q 553.1 88.5, 553.1 87.2 Q 553.1 85.9, 552.5 85.2 Q 552.0 84.5, 551.0 84.5 Q 549.9 84.5, 549.4 85.2 Q 548.8 85.9, 548.8 87.2 Q 548.8 88.6, 549.4 89.2 Q 549.9 89.9, 551.0 89.9 " fill="#FF0000"/>
<path class="atom-12" d="M 558.2 133.5 Q 558.2 131.9, 559.0 131.0 Q 559.8 130.1, 561.3 130.1 Q 562.8 130.1, 563.6 131.0 Q 564.4 131.9, 564.4 133.5 Q 564.4 135.1, 563.6 136.0 Q 562.8 137.0, 561.3 137.0 Q 559.8 137.0, 559.0 136.0 Q 558.2 135.1, 558.2 133.5 M 561.3 136.2 Q 562.3 136.2, 562.9 135.5 Q 563.4 134.8, 563.4 133.5 Q 563.4 132.2, 562.9 131.5 Q 562.3 130.8, 561.3 130.8 Q 560.3 130.8, 559.7 131.5 Q 559.2 132.2, 559.2 133.5 Q 559.2 134.8, 559.7 135.5 Q 560.3 136.2, 561.3 136.2 " fill="#FF0000"/>
<path class="atom-20" d="M 406.7 72.4 L 408.9 75.9 Q 409.1 76.3, 409.5 76.9 Q 409.8 77.5, 409.9 77.6 L 409.9 72.4 L 410.7 72.4 L 410.7 79.1 L 409.8 79.1 L 407.5 75.2 Q 407.2 74.7, 406.9 74.2 Q 406.6 73.7, 406.5 73.5 L 406.5 79.1 L 405.6 79.1 L 405.6 72.4 L 406.7 72.4 " fill="#0000FF"/>
<path class="atom-21" d="M 383.1 74.4 L 385.3 77.9 Q 385.5 78.3, 385.9 78.9 Q 386.2 79.5, 386.2 79.6 L 386.2 74.4 L 387.1 74.4 L 387.1 81.1 L 386.2 81.1 L 383.8 77.2 Q 383.6 76.7, 383.3 76.2 Q 383.0 75.7, 382.9 75.5 L 382.9 81.1 L 382.0 81.1 L 382.0 74.4 L 383.1 74.4 " fill="#0000FF"/>
<path class="atom-30" d="M 342.3 45.3 L 346.3 45.3 L 346.3 46.1 L 343.2 46.1 L 343.2 48.1 L 346.0 48.1 L 346.0 48.9 L 343.2 48.9 L 343.2 52.0 L 342.3 52.0 L 342.3 45.3 " fill="#33CCCC"/>
<path class="atom-31" d="M 315.8 65.9 L 319.8 65.9 L 319.8 66.7 L 316.7 66.7 L 316.7 68.7 L 319.5 68.7 L 319.5 69.5 L 316.7 69.5 L 316.7 72.6 L 315.8 72.6 L 315.8 65.9 " fill="#33CCCC"/>
<path class="atom-32" d="M 362.9 71.8 L 366.9 71.8 L 366.9 72.5 L 363.8 72.5 L 363.8 74.6 L 366.6 74.6 L 366.6 75.4 L 363.8 75.4 L 363.8 78.5 L 362.9 78.5 L 362.9 71.8 " fill="#33CCCC"/>
<path class="atom-33" d="M 398.0 109.7 L 400.2 113.3 Q 400.4 113.6, 400.8 114.3 Q 401.1 114.9, 401.1 114.9 L 401.1 109.7 L 402.0 109.7 L 402.0 116.4 L 401.1 116.4 L 398.7 112.5 Q 398.5 112.1, 398.2 111.6 Q 397.9 111.0, 397.8 110.9 L 397.8 116.4 L 396.9 116.4 L 396.9 109.7 L 398.0 109.7 " fill="#0000FF"/>
<path class="atom-0" d="M 437.2,19.6 L 437.1,19.6 L 437.1,19.7 L 437.1,19.7 L 437.1,19.7 L 437.1,19.8 L 437.1,19.8 L 437.1,19.9 L 437.0,19.9 L 437.0,19.9 L 437.0,19.9 L 437.0,20.0 L 436.9,20.0 L 436.9,20.0 L 436.8,20.0 L 436.8,20.0 L 436.8,20.1 L 436.7,20.1 L 436.7,20.1 L 436.6,20.1 L 436.6,20.1 L 436.6,20.1 L 436.5,20.0 L 436.5,20.0 L 436.5,20.0 L 436.4,20.0 L 436.4,20.0 L 436.4,19.9 L 436.3,19.9 L 436.3,19.9 L 436.3,19.8 L 436.3,19.8 L 436.2,19.8 L 436.2,19.7 L 436.2,19.7 L 436.2,19.7 L 436.2,19.6 L 436.2,19.6 L 436.2,19.5 L 436.2,19.5 L 436.2,19.4 L 436.2,19.4 L 436.3,19.4 L 436.3,19.3 L 436.3,19.3 L 436.3,19.3 L 436.4,19.2 L 436.4,19.2 L 436.4,19.2 L 436.5,19.2 L 436.5,19.2 L 436.5,19.1 L 436.6,19.1 L 436.6,19.1 L 436.6,19.1 L 436.7,19.1 L 436.7,19.1 L 436.8,19.1 L 436.8,19.1 L 436.8,19.1 L 436.9,19.2 L 436.9,19.2 L 437.0,19.2 L 437.0,19.2 L 437.0,19.3 L 437.0,19.3 L 437.1,19.3 L 437.1,19.4 L 437.1,19.4 L 437.1,19.4 L 437.1,19.5 L 437.1,19.5 L 437.1,19.5 L 437.2,19.6 L 436.7,19.6 Z" style="fill:#000000;fill-rule:evenodd;fill-opacity:1;stroke:#000000;stroke-width:0.0px;stroke-linecap:butt;stroke-linejoin:miter;stroke-opacity:1;"/>
<path class="atom-0" d="M 437.2,17.7 L 437.1,17.7 L 437.1,17.8 L 437.1,17.8 L 437.1,17.9 L 437.1,17.9 L 437.1,17.9 L 437.1,18.0 L 437.0,18.0 L 437.0,18.0 L 437.0,18.1 L 437.0,18.1 L 436.9,18.1 L 436.9,18.1 L 436.8,18.1 L 436.8,18.1 L 436.8,18.2 L 436.7,18.2 L 436.7,18.2 L 436.6,18.2 L 436.6,18.2 L 436.6,18.2 L 436.5,18.1 L 436.5,18.1 L 436.5,18.1 L 436.4,18.1 L 436.4,18.1 L 436.4,18.0 L 436.3,18.0 L 436.3,18.0 L 436.3,17.9 L 436.3,17.9 L 436.2,17.9 L 436.2,17.8 L 436.2,17.8 L 436.2,17.8 L 436.2,17.7 L 436.2,17.7 L 436.2,17.6 L 436.2,17.6 L 436.2,17.6 L 436.2,17.5 L 436.3,17.5 L 436.3,17.4 L 436.3,17.4 L 436.3,17.4 L 436.4,17.3 L 436.4,17.3 L 436.4,17.3 L 436.5,17.3 L 436.5,17.3 L 436.5,17.2 L 436.6,17.2 L 436.6,17.2 L 436.6,17.2 L 436.7,17.2 L 436.7,17.2 L 436.8,17.2 L 436.8,17.2 L 436.8,17.2 L 436.9,17.3 L 436.9,17.3 L 437.0,17.3 L 437.0,17.3 L 437.0,17.4 L 437.0,17.4 L 437.1,17.4 L 437.1,17.5 L 437.1,17.5 L 437.1,17.5 L 437.1,17.6 L 437.1,17.6 L 437.1,17.7 L 437.2,17.7 L 436.7,17.7 Z" style="fill:#000000;fill-rule:evenodd;fill-opacity:1;stroke:#000000;stroke-width:0.0px;stroke-linecap:butt;stroke-linejoin:miter;stroke-opacity:1;"/>
<path class="atom-2" d="M 422.5,49.6 L 422.5,49.6 L 422.5,49.6 L 422.5,49.7 L 422.5,49.7 L 422.5,49.8 L 422.5,49.8 L 422.4,49.8 L 422.4,49.9 L 422.4,49.9 L 422.3,49.9 L 422.3,49.9 L 422.3,50.0 L 422.2,50.0 L 422.2,50.0 L 422.2,50.0 L 422.1,50.0 L 422.1,50.0 L 422.0,50.0 L 422.0,50.0 L 422.0,50.0 L 421.9,50.0 L 421.9,50.0 L 421.8,50.0 L 421.8,50.0 L 421.8,50.0 L 421.7,49.9 L 421.7,49.9 L 421.7,49.9 L 421.7,49.8 L 421.6,49.8 L 421.6,49.8 L 421.6,49.7 L 421.6,49.7 L 421.6,49.7 L 421.6,49.6 L 421.6,49.6 L 421.6,49.5 L 421.6,49.5 L 421.6,49.5 L 421.6,49.4 L 421.6,49.4 L 421.6,49.3 L 421.6,49.3 L 421.7,49.3 L 421.7,49.2 L 421.7,49.2 L 421.7,49.2 L 421.8,49.2 L 421.8,49.1 L 421.8,49.1 L 421.9,49.1 L 421.9,49.1 L 422.0,49.1 L 422.0,49.1 L 422.0,49.1 L 422.1,49.1 L 422.1,49.1 L 422.2,49.1 L 422.2,49.1 L 422.2,49.1 L 422.3,49.2 L 422.3,49.2 L 422.3,49.2 L 422.4,49.2 L 422.4,49.3 L 422.4,49.3 L 422.5,49.3 L 422.5,49.4 L 422.5,49.4 L 422.5,49.4 L 422.5,49.5 L 422.5,49.5 L 422.5,49.6 L 422.0,49.6 Z" style="fill:#000000;fill-rule:evenodd;fill-opacity:1;stroke:#000000;stroke-width:0.0px;stroke-linecap:butt;stroke-linejoin:miter;stroke-opacity:1;"/>
<path class="atom-3" d="M 476.1,29.2 L 476.1,29.3 L 476.1,29.3 L 476.1,29.4 L 476.0,29.4 L 476.0,29.4 L 476.0,29.5 L 476.0,29.5 L 476.0,29.6 L 475.9,29.6 L 475.9,29.6 L 475.9,29.6 L 475.8,29.7 L 475.8,29.7 L 475.8,29.7 L 475.7,29.7 L 475.7,29.7 L 475.6,29.7 L 475.6,29.7 L 475.6,29.7 L 475.5,29.7 L 475.5,29.7 L 475.4,29.7 L 475.4,29.7 L 475.4,29.7 L 475.3,29.6 L 475.3,29.6 L 475.3,29.6 L 475.2,29.6 L 475.2,29.5 L 475.2,29.5 L 475.2,29.5 L 475.2,29.4 L 475.1,29.4 L 475.1,29.4 L 475.1,29.3 L 475.1,29.3 L 475.1,29.2 L 475.1,29.2 L 475.1,29.1 L 475.1,29.1 L 475.2,29.1 L 475.2,29.0 L 475.2,29.0 L 475.2,29.0 L 475.2,28.9 L 475.3,28.9 L 475.3,28.9 L 475.3,28.9 L 475.4,28.8 L 475.4,28.8 L 475.4,28.8 L 475.5,28.8 L 475.5,28.8 L 475.6,28.8 L 475.6,28.8 L 475.6,28.8 L 475.7,28.8 L 475.7,28.8 L 475.8,28.8 L 475.8,28.8 L 475.8,28.8 L 475.9,28.9 L 475.9,28.9 L 475.9,28.9 L 476.0,28.9 L 476.0,29.0 L 476.0,29.0 L 476.0,29.1 L 476.0,29.1 L 476.1,29.1 L 476.1,29.2 L 476.1,29.2 L 476.1,29.2 L 475.6,29.2 Z" style="fill:#000000;fill-rule:evenodd;fill-opacity:1;stroke:#000000;stroke-width:0.0px;stroke-linecap:butt;stroke-linejoin:miter;stroke-opacity:1;"/>
<path class="atom-3" d="M 476.1,34.0 L 476.1,34.0 L 476.1,34.1 L 476.1,34.1 L 476.0,34.2 L 476.0,34.2 L 476.0,34.2 L 476.0,34.3 L 476.0,34.3 L 475.9,34.3 L 475.9,34.4 L 475.9,34.4 L 475.8,34.4 L 475.8,34.4 L 475.8,34.4 L 475.7,34.4 L 475.7,34.5 L 475.6,34.5 L 475.6,34.5 L 475.6,34.5 L 475.5,34.5 L 475.5,34.5 L 475.4,34.4 L 475.4,34.4 L 475.4,34.4 L 475.3,34.4 L 475.3,34.4 L 475.3,34.3 L 475.2,34.3 L 475.2,34.3 L 475.2,34.2 L 475.2,34.2 L 475.2,34.2 L 475.1,34.1 L 475.1,34.1 L 475.1,34.1 L 475.1,34.0 L 475.1,34.0 L 475.1,33.9 L 475.1,33.9 L 475.1,33.9 L 475.2,33.8 L 475.2,33.8 L 475.2,33.7 L 475.2,33.7 L 475.2,33.7 L 475.3,33.6 L 475.3,33.6 L 475.3,33.6 L 475.4,33.6 L 475.4,33.6 L 475.4,33.5 L 475.5,33.5 L 475.5,33.5 L 475.6,33.5 L 475.6,33.5 L 475.6,33.5 L 475.7,33.5 L 475.7,33.5 L 475.8,33.5 L 475.8,33.6 L 475.8,33.6 L 475.9,33.6 L 475.9,33.6 L 475.9,33.7 L 476.0,33.7 L 476.0,33.7 L 476.0,33.8 L 476.0,33.8 L 476.0,33.8 L 476.1,33.9 L 476.1,33.9 L 476.1,34.0 L 476.1,34.0 L 475.6,34.0 Z" style="fill:#000000;fill-rule:evenodd;fill-opacity:1;stroke:#000000;stroke-width:0.0px;stroke-linecap:butt;stroke-linejoin:miter;stroke-opacity:1;"/>
<path class="atom-3" d="M 476.1,31.6 L 476.1,31.7 L 476.1,31.7 L 476.1,31.7 L 476.0,31.8 L 476.0,31.8 L 476.0,31.9 L 476.0,31.9 L 476.0,31.9 L 475.9,32.0 L 475.9,32.0 L 475.9,32.0 L 475.8,32.0 L 475.8,32.0 L 475.8,32.1 L 475.7,32.1 L 475.7,32.1 L 475.6,32.1 L 475.6,32.1 L 475.6,32.1 L 475.5,32.1 L 475.5,32.1 L 475.4,32.1 L 475.4,32.1 L 475.4,32.0 L 475.3,32.0 L 475.3,32.0 L 475.3,32.0 L 475.2,31.9 L 475.2,31.9 L 475.2,31.9 L 475.2,31.8 L 475.2,31.8 L 475.1,31.8 L 475.1,31.7 L 475.1,31.7 L 475.1,31.6 L 475.1,31.6 L 475.1,31.6 L 475.1,31.5 L 475.1,31.5 L 475.2,31.4 L 475.2,31.4 L 475.2,31.4 L 475.2,31.3 L 475.2,31.3 L 475.3,31.3 L 475.3,31.2 L 475.3,31.2 L 475.4,31.2 L 475.4,31.2 L 475.4,31.2 L 475.5,31.2 L 475.5,31.2 L 475.6,31.1 L 475.6,31.1 L 475.6,31.1 L 475.7,31.2 L 475.7,31.2 L 475.8,31.2 L 475.8,31.2 L 475.8,31.2 L 475.9,31.2 L 475.9,31.3 L 475.9,31.3 L 476.0,31.3 L 476.0,31.4 L 476.0,31.4 L 476.0,31.4 L 476.0,31.5 L 476.1,31.5 L 476.1,31.5 L 476.1,31.6 L 476.1,31.6 L 475.6,31.6 Z" style="fill:#000000;fill-rule:evenodd;fill-opacity:1;stroke:#000000;stroke-width:0.0px;stroke-linecap:butt;stroke-linejoin:miter;stroke-opacity:1;"/>
<path class="bond-0 atom-0 atom-1" d="M 773.9,51.5 L 752.5,41.3" style="fill:none;fill-rule:evenodd;stroke:#000000;stroke-width:2.0px;stroke-linecap:butt;stroke-linejoin:miter;stroke-opacity:1"/>
<path class="bond-1 atom-1 atom-2" d="M 752.5,41.3 L 743.5,37.0" style="fill:none;fill-rule:evenodd;stroke:#000000;stroke-width:2.0px;stroke-linecap:butt;stroke-linejoin:miter;stroke-opacity:1"/>
<path class="bond-1 atom-1 atom-2" d="M 743.5,37.0 L 734.4,32.7" style="fill:none;fill-rule:evenodd;stroke:#0000FF;stroke-width:2.0px;stroke-linecap:butt;stroke-linejoin:miter;stroke-opacity:1"/>
<path class="bond-2 atom-1 atom-3" d="M 752.5,41.3 L 756.6,32.7" style="fill:none;fill-rule:evenodd;stroke:#000000;stroke-width:2.0px;stroke-linecap:butt;stroke-linejoin:miter;stroke-opacity:1"/>
<path class="bond-2 atom-1 atom-3" d="M 756.6,32.7 L 760.7,24.1" style="fill:none;fill-rule:evenodd;stroke:#FF0000;stroke-width:2.0px;stroke-linecap:butt;stroke-linejoin:miter;stroke-opacity:1"/>
<path class="bond-3 atom-1 atom-4" d="M 752.5,41.3 L 748.4,49.9" style="fill:none;fill-rule:evenodd;stroke:#000000;stroke-width:2.0px;stroke-linecap:butt;stroke-linejoin:miter;stroke-opacity:1"/>
<path class="bond-3 atom-1 atom-4" d="M 748.4,49.9 L 744.3,58.5" style="fill:none;fill-rule:evenodd;stroke:#0000FF;stroke-width:2.0px;stroke-linecap:butt;stroke-linejoin:miter;stroke-opacity:1"/>
<path class="bond-4 atom-4 atom-5" d="M 739.0,62.5 L 728.8,62.0" style="fill:none;fill-rule:evenodd;stroke:#0000FF;stroke-width:2.0px;stroke-linecap:butt;stroke-linejoin:miter;stroke-opacity:1"/>
<path class="bond-4 atom-4 atom-5" d="M 728.8,62.0 L 718.6,61.4" style="fill:none;fill-rule:evenodd;stroke:#000000;stroke-width:2.0px;stroke-linecap:butt;stroke-linejoin:miter;stroke-opacity:1"/>
<path class="bond-5 atom-5 atom-6" d="M 718.6,61.4 L 701.0,77.3" style="fill:none;fill-rule:evenodd;stroke:#000000;stroke-width:2.0px;stroke-linecap:butt;stroke-linejoin:miter;stroke-opacity:1"/>
<path class="bond-6 atom-6 atom-7" d="M 701.0,77.3 L 699.8,101.0" style="fill:none;fill-rule:evenodd;stroke:#000000;stroke-width:2.0px;stroke-linecap:butt;stroke-linejoin:miter;stroke-opacity:1"/>
<path class="bond-7 atom-7 atom-8" d="M 699.8,101.0 L 678.4,90.8" style="fill:none;fill-rule:evenodd;stroke:#000000;stroke-width:2.0px;stroke-linecap:butt;stroke-linejoin:miter;stroke-opacity:1"/>
<path class="bond-8 atom-8 atom-9" d="M 678.4,90.8 L 658.8,104.2" style="fill:none;fill-rule:evenodd;stroke:#000000;stroke-width:2.0px;stroke-linecap:butt;stroke-linejoin:miter;stroke-opacity:1"/>
<path class="bond-9 atom-9 atom-10" d="M 658.8,104.2 L 649.6,99.8" style="fill:none;fill-rule:evenodd;stroke:#000000;stroke-width:2.0px;stroke-linecap:butt;stroke-linejoin:miter;stroke-opacity:1"/>
<path class="bond-9 atom-9 atom-10" d="M 649.6,99.8 L 640.3,95.4" style="fill:none;fill-rule:evenodd;stroke:#CCCC00;stroke-width:2.0px;stroke-linecap:butt;stroke-linejoin:miter;stroke-opacity:1"/>
<path class="bond-10 atom-10 atom-11" d="M 641.0,90.7 L 644.1,84.2" style="fill:none;fill-rule:evenodd;stroke:#CCCC00;stroke-width:2.0px;stroke-linecap:butt;stroke-linejoin:miter;stroke-opacity:1"/>
<path class="bond-10 atom-10 atom-11" d="M 644.1,84.2 L 647.2,77.7" style="fill:none;fill-rule:evenodd;stroke:#FF0000;stroke-width:2.0px;stroke-linecap:butt;stroke-linejoin:miter;stroke-opacity:1"/>
<path class="bond-10 atom-10 atom-11" d="M 637.8,89.1 L 640.9,82.6" style="fill:none;fill-rule:evenodd;stroke:#CCCC00;stroke-width:2.0px;stroke-linecap:butt;stroke-linejoin:miter;stroke-opacity:1"/>
<path class="bond-10 atom-10 atom-11" d="M 640.9,82.6 L 644.0,76.1" style="fill:none;fill-rule:evenodd;stroke:#FF0000;stroke-width:2.0px;stroke-linecap:butt;stroke-linejoin:miter;stroke-opacity:1"/>
<path class="bond-11 atom-10 atom-12" d="M 633.8,97.6 L 630.7,104.0" style="fill:none;fill-rule:evenodd;stroke:#CCCC00;stroke-width:2.0px;stroke-linecap:butt;stroke-linejoin:miter;stroke-opacity:1"/>
<path class="bond-11 atom-10 atom-12" d="M 630.7,104.0 L 627.6,110.5" style="fill:none;fill-rule:evenodd;stroke:#FF0000;stroke-width:2.0px;stroke-linecap:butt;stroke-linejoin:miter;stroke-opacity:1"/>
<path class="bond-11 atom-10 atom-12" d="M 637.0,99.1 L 633.9,105.6" style="fill:none;fill-rule:evenodd;stroke:#CCCC00;stroke-width:2.0px;stroke-linecap:butt;stroke-linejoin:miter;stroke-opacity:1"/>
<path class="bond-11 atom-10 atom-12" d="M 633.9,105.6 L 630.8,112.0" style="fill:none;fill-rule:evenodd;stroke:#FF0000;stroke-width:2.0px;stroke-linecap:butt;stroke-linejoin:miter;stroke-opacity:1"/>
<path class="bond-12 atom-10 atom-13" d="M 634.5,92.6 L 625.2,88.2" style="fill:none;fill-rule:evenodd;stroke:#CCCC00;stroke-width:2.0px;stroke-linecap:butt;stroke-linejoin:miter;stroke-opacity:1"/>
<path class="bond-12 atom-10 atom-13" d="M 625.2,88.2 L 616.0,83.8" style="fill:none;fill-rule:evenodd;stroke:#000000;stroke-width:2.0px;stroke-linecap:butt;stroke-linejoin:miter;stroke-opacity:1"/>
<path class="bond-13 atom-13 atom-14" d="M 616.0,83.8 L 614.1,60.2" style="fill:none;fill-rule:evenodd;stroke:#000000;stroke-width:2.0px;stroke-linecap:butt;stroke-linejoin:miter;stroke-opacity:1"/>
<path class="bond-14 atom-7 atom-15" d="M 699.8,101.0 L 698.5,124.7" style="fill:none;fill-rule:evenodd;stroke:#000000;stroke-width:2.0px;stroke-linecap:butt;stroke-linejoin:miter;stroke-opacity:1"/>
<path class="bond-15 atom-15 atom-16" d="M 698.5,124.7 L 714.4,142.3" style="fill:none;fill-rule:evenodd;stroke:#000000;stroke-width:2.0px;stroke-linecap:butt;stroke-linejoin:miter;stroke-opacity:1"/>
<path class="bond-16 atom-16 atom-17" d="M 714.4,142.3 L 738.1,143.5" style="fill:none;fill-rule:evenodd;stroke:#000000;stroke-width:2.0px;stroke-linecap:butt;stroke-linejoin:miter;stroke-opacity:1"/>
<path class="bond-17 atom-17 atom-18" d="M 738.1,143.5 L 755.7,127.7" style="fill:none;fill-rule:evenodd;stroke:#000000;stroke-width:2.0px;stroke-linecap:butt;stroke-linejoin:miter;stroke-opacity:1"/>
<path class="bond-18 atom-18 atom-19" d="M 755.7,127.7 L 756.9,104.0" style="fill:none;fill-rule:evenodd;stroke:#000000;stroke-width:2.0px;stroke-linecap:butt;stroke-linejoin:miter;stroke-opacity:1"/>
<path class="bond-19 atom-19 atom-20" d="M 756.9,104.0 L 779.3,96.1" style="fill:none;fill-rule:evenodd;stroke:#000000;stroke-width:2.0px;stroke-linecap:butt;stroke-linejoin:miter;stroke-opacity:1"/>
<path class="bond-20 atom-20 atom-21" d="M 779.3,96.1 L 782.0,86.8" style="fill:none;fill-rule:evenodd;stroke:#000000;stroke-width:2.0px;stroke-linecap:butt;stroke-linejoin:miter;stroke-opacity:1"/>
<path class="bond-20 atom-20 atom-21" d="M 782.0,86.8 L 784.8,77.5" style="fill:none;fill-rule:evenodd;stroke:#0000FF;stroke-width:2.0px;stroke-linecap:butt;stroke-linejoin:miter;stroke-opacity:1"/>
<path class="bond-20 atom-20 atom-21" d="M 783.4,94.6 L 785.8,86.5" style="fill:none;fill-rule:evenodd;stroke:#000000;stroke-width:2.0px;stroke-linecap:butt;stroke-linejoin:miter;stroke-opacity:1"/>
<path class="bond-20 atom-20 atom-21" d="M 785.8,86.5 L 788.2,78.5" style="fill:none;fill-rule:evenodd;stroke:#0000FF;stroke-width:2.0px;stroke-linecap:butt;stroke-linejoin:miter;stroke-opacity:1"/>
<path class="bond-21 atom-21 atom-22" d="M 789.3,73.2 L 806.4,72.8" style="fill:none;fill-rule:evenodd;stroke:#0000FF;stroke-width:2.0px;stroke-linecap:butt;stroke-linejoin:miter;stroke-opacity:1"/>
<path class="bond-22 atom-22 atom-23" d="M 811.2,76.8 L 814.4,85.9" style="fill:none;fill-rule:evenodd;stroke:#0000FF;stroke-width:2.0px;stroke-linecap:butt;stroke-linejoin:miter;stroke-opacity:1"/>
<path class="bond-22 atom-22 atom-23" d="M 814.4,85.9 L 817.6,95.0" style="fill:none;fill-rule:evenodd;stroke:#000000;stroke-width:2.0px;stroke-linecap:butt;stroke-linejoin:miter;stroke-opacity:1"/>
<path class="bond-22 atom-22 atom-23" d="M 807.8,78.0 L 810.6,85.9" style="fill:none;fill-rule:evenodd;stroke:#0000FF;stroke-width:2.0px;stroke-linecap:butt;stroke-linejoin:miter;stroke-opacity:1"/>
<path class="bond-22 atom-22 atom-23" d="M 810.6,85.9 L 813.4,93.8" style="fill:none;fill-rule:evenodd;stroke:#000000;stroke-width:2.0px;stroke-linecap:butt;stroke-linejoin:miter;stroke-opacity:1"/>
<path class="bond-23 atom-23 atom-24" d="M 817.6,95.0 L 840.4,101.8" style="fill:none;fill-rule:evenodd;stroke:#000000;stroke-width:2.0px;stroke-linecap:butt;stroke-linejoin:miter;stroke-opacity:1"/>
<path class="bond-24 atom-24 atom-25" d="M 840.4,101.8 L 845.9,124.8" style="fill:none;fill-rule:evenodd;stroke:#000000;stroke-width:2.0px;stroke-linecap:butt;stroke-linejoin:miter;stroke-opacity:1"/>
<path class="bond-24 atom-24 atom-25" d="M 844.3,102.9 L 848.9,122.0" style="fill:none;fill-rule:evenodd;stroke:#000000;stroke-width:2.0px;stroke-linecap:butt;stroke-linejoin:miter;stroke-opacity:1"/>
<path class="bond-25 atom-25 atom-26" d="M 845.9,124.8 L 868.7,131.6" style="fill:none;fill-rule:evenodd;stroke:#000000;stroke-width:2.0px;stroke-linecap:butt;stroke-linejoin:miter;stroke-opacity:1"/>
<path class="bond-26 atom-26 atom-27" d="M 868.7,131.6 L 885.9,115.2" style="fill:none;fill-rule:evenodd;stroke:#000000;stroke-width:2.0px;stroke-linecap:butt;stroke-linejoin:miter;stroke-opacity:1"/>
<path class="bond-26 atom-26 atom-27" d="M 867.7,127.6 L 881.9,114.1" style="fill:none;fill-rule:evenodd;stroke:#000000;stroke-width:2.0px;stroke-linecap:butt;stroke-linejoin:miter;stroke-opacity:1"/>
<path class="bond-27 atom-27 atom-28" d="M 885.9,115.2 L 880.3,92.2" style="fill:none;fill-rule:evenodd;stroke:#000000;stroke-width:2.0px;stroke-linecap:butt;stroke-linejoin:miter;stroke-opacity:1"/>
<path class="bond-28 atom-28 atom-29" d="M 880.3,92.2 L 857.6,85.4" style="fill:none;fill-rule:evenodd;stroke:#000000;stroke-width:2.0px;stroke-linecap:butt;stroke-linejoin:miter;stroke-opacity:1"/>
<path class="bond-28 atom-28 atom-29" d="M 877.3,95.0 L 858.5,89.4" style="fill:none;fill-rule:evenodd;stroke:#000000;stroke-width:2.0px;stroke-linecap:butt;stroke-linejoin:miter;stroke-opacity:1"/>
<path class="bond-29 atom-29 atom-30" d="M 857.6,85.4 L 852.0,62.4" style="fill:none;fill-rule:evenodd;stroke:#000000;stroke-width:2.0px;stroke-linecap:butt;stroke-linejoin:miter;stroke-opacity:1"/>
<path class="bond-30 atom-30 atom-31" d="M 852.0,62.4 L 849.8,52.9" style="fill:none;fill-rule:evenodd;stroke:#000000;stroke-width:2.0px;stroke-linecap:butt;stroke-linejoin:miter;stroke-opacity:1"/>
<path class="bond-30 atom-30 atom-31" d="M 849.8,52.9 L 847.5,43.5" style="fill:none;fill-rule:evenodd;stroke:#33CCCC;stroke-width:2.0px;stroke-linecap:butt;stroke-linejoin:miter;stroke-opacity:1"/>
<path class="bond-31 atom-30 atom-32" d="M 852.0,62.4 L 862.2,59.9" style="fill:none;fill-rule:evenodd;stroke:#000000;stroke-width:2.0px;stroke-linecap:butt;stroke-linejoin:miter;stroke-opacity:1"/>
<path class="bond-31 atom-30 atom-32" d="M 862.2,59.9 L 872.3,57.5" style="fill:none;fill-rule:evenodd;stroke:#33CCCC;stroke-width:2.0px;stroke-linecap:butt;stroke-linejoin:miter;stroke-opacity:1"/>
<path class="bond-32 atom-30 atom-33" d="M 852.0,62.4 L 841.9,64.8" style="fill:none;fill-rule:evenodd;stroke:#000000;stroke-width:2.0px;stroke-linecap:butt;stroke-linejoin:miter;stroke-opacity:1"/>
<path class="bond-32 atom-30 atom-33" d="M 841.9,64.8 L 831.8,67.3" style="fill:none;fill-rule:evenodd;stroke:#33CCCC;stroke-width:2.0px;stroke-linecap:butt;stroke-linejoin:miter;stroke-opacity:1"/>
<path class="bond-33 atom-23 atom-34" d="M 817.6,95.0 L 809.9,101.0" style="fill:none;fill-rule:evenodd;stroke:#000000;stroke-width:2.0px;stroke-linecap:butt;stroke-linejoin:miter;stroke-opacity:1"/>
<path class="bond-33 atom-23 atom-34" d="M 809.9,101.0 L 802.2,106.9" style="fill:none;fill-rule:evenodd;stroke:#0000FF;stroke-width:2.0px;stroke-linecap:butt;stroke-linejoin:miter;stroke-opacity:1"/>
<path class="bond-34 atom-34 atom-35" d="M 798.9,113.6 L 799.2,123.4" style="fill:none;fill-rule:evenodd;stroke:#0000FF;stroke-width:2.0px;stroke-linecap:butt;stroke-linejoin:miter;stroke-opacity:1"/>
<path class="bond-34 atom-34 atom-35" d="M 799.2,123.4 L 799.5,133.2" style="fill:none;fill-rule:evenodd;stroke:#000000;stroke-width:2.0px;stroke-linecap:butt;stroke-linejoin:miter;stroke-opacity:1"/>
<path class="bond-35 atom-19 atom-36" d="M 756.9,104.0 L 741.1,86.4" style="fill:none;fill-rule:evenodd;stroke:#000000;stroke-width:2.0px;stroke-linecap:butt;stroke-linejoin:miter;stroke-opacity:1"/>
<path class="bond-36 atom-36 atom-37" d="M 741.1,86.4 L 717.4,85.1" style="fill:none;fill-rule:evenodd;stroke:#000000;stroke-width:2.0px;stroke-linecap:butt;stroke-linejoin:miter;stroke-opacity:1"/>
<path class="bond-37 atom-19 atom-38" d="M 756.9,104.0 L 758.2,80.3" style="fill:none;fill-rule:evenodd;stroke:#000000;stroke-width:2.0px;stroke-linecap:butt;stroke-linejoin:miter;stroke-opacity:1"/>
<path class="bond-38 atom-38 atom-4" d="M 758.2,80.3 L 751.9,73.3" style="fill:none;fill-rule:evenodd;stroke:#000000;stroke-width:2.0px;stroke-linecap:butt;stroke-linejoin:miter;stroke-opacity:1"/>
<path class="bond-38 atom-38 atom-4" d="M 751.9,73.3 L 745.6,66.4" style="fill:none;fill-rule:evenodd;stroke:#0000FF;stroke-width:2.0px;stroke-linecap:butt;stroke-linejoin:miter;stroke-opacity:1"/>
<path class="bond-39 atom-37 atom-7" d="M 717.4,85.1 L 699.8,101.0" style="fill:none;fill-rule:evenodd;stroke:#000000;stroke-width:2.0px;stroke-linecap:butt;stroke-linejoin:miter;stroke-opacity:1"/>
<path class="bond-40 atom-34 atom-20" d="M 795.5,107.2 L 787.4,101.6" style="fill:none;fill-rule:evenodd;stroke:#0000FF;stroke-width:2.0px;stroke-linecap:butt;stroke-linejoin:miter;stroke-opacity:1"/>
<path class="bond-40 atom-34 atom-20" d="M 787.4,101.6 L 779.3,96.1" style="fill:none;fill-rule:evenodd;stroke:#000000;stroke-width:2.0px;stroke-linecap:butt;stroke-linejoin:miter;stroke-opacity:1"/>
<path class="bond-41 atom-29 atom-24" d="M 857.6,85.4 L 840.4,101.8" style="fill:none;fill-rule:evenodd;stroke:#000000;stroke-width:2.0px;stroke-linecap:butt;stroke-linejoin:miter;stroke-opacity:1"/>
<path d="M 719.1,61.5 L 718.6,61.4 L 717.7,62.2" style="fill:none;stroke:#000000;stroke-width:2.0px;stroke-linecap:butt;stroke-linejoin:miter;stroke-opacity:1;"/>
<path d="M 701.9,76.5 L 701.0,77.3 L 700.9,78.5" style="fill:none;stroke:#000000;stroke-width:2.0px;stroke-linecap:butt;stroke-linejoin:miter;stroke-opacity:1;"/>
<path d="M 679.4,91.3 L 678.4,90.8 L 677.4,91.5" style="fill:none;stroke:#000000;stroke-width:2.0px;stroke-linecap:butt;stroke-linejoin:miter;stroke-opacity:1;"/>
<path d="M 659.8,103.6 L 658.8,104.2 L 658.4,104.0" style="fill:none;stroke:#000000;stroke-width:2.0px;stroke-linecap:butt;stroke-linejoin:miter;stroke-opacity:1;"/>
<path d="M 616.5,84.0 L 616.0,83.8 L 615.9,82.6" style="fill:none;stroke:#000000;stroke-width:2.0px;stroke-linecap:butt;stroke-linejoin:miter;stroke-opacity:1;"/>
<path d="M 698.6,123.5 L 698.5,124.7 L 699.3,125.6" style="fill:none;stroke:#000000;stroke-width:2.0px;stroke-linecap:butt;stroke-linejoin:miter;stroke-opacity:1;"/>
<path d="M 713.6,141.4 L 714.4,142.3 L 715.6,142.4" style="fill:none;stroke:#000000;stroke-width:2.0px;stroke-linecap:butt;stroke-linejoin:miter;stroke-opacity:1;"/>
<path d="M 736.9,143.5 L 738.1,143.5 L 739.0,142.7" style="fill:none;stroke:#000000;stroke-width:2.0px;stroke-linecap:butt;stroke-linejoin:miter;stroke-opacity:1;"/>
<path d="M 754.8,128.5 L 755.7,127.7 L 755.8,126.5" style="fill:none;stroke:#000000;stroke-width:2.0px;stroke-linecap:butt;stroke-linejoin:miter;stroke-opacity:1;"/>
<path d="M 845.6,123.7 L 845.9,124.8 L 847.1,125.2" style="fill:none;stroke:#000000;stroke-width:2.0px;stroke-linecap:butt;stroke-linejoin:miter;stroke-opacity:1;"/>
<path d="M 867.5,131.2 L 868.7,131.6 L 869.5,130.7" style="fill:none;stroke:#000000;stroke-width:2.0px;stroke-linecap:butt;stroke-linejoin:miter;stroke-opacity:1;"/>
<path d="M 885.0,116.0 L 885.9,115.2 L 885.6,114.1" style="fill:none;stroke:#000000;stroke-width:2.0px;stroke-linecap:butt;stroke-linejoin:miter;stroke-opacity:1;"/>
<path d="M 880.6,93.3 L 880.3,92.2 L 879.2,91.8" style="fill:none;stroke:#000000;stroke-width:2.0px;stroke-linecap:butt;stroke-linejoin:miter;stroke-opacity:1;"/>
<path d="M 741.9,87.2 L 741.1,86.4 L 739.9,86.3" style="fill:none;stroke:#000000;stroke-width:2.0px;stroke-linecap:butt;stroke-linejoin:miter;stroke-opacity:1;"/>
<path d="M 718.6,85.2 L 717.4,85.1 L 716.5,85.9" style="fill:none;stroke:#000000;stroke-width:2.0px;stroke-linecap:butt;stroke-linejoin:miter;stroke-opacity:1;"/>
<path d="M 758.1,81.5 L 758.2,80.3 L 757.9,79.9" style="fill:none;stroke:#000000;stroke-width:2.0px;stroke-linecap:butt;stroke-linejoin:miter;stroke-opacity:1;"/>
<path class="atom-2" d="M 729.6 27.7 L 731.8 31.3 Q 732.0 31.6, 732.4 32.3 Q 732.7 32.9, 732.7 32.9 L 732.7 27.7 L 733.6 27.7 L 733.6 34.4 L 732.7 34.4 L 730.4 30.5 Q 730.1 30.1, 729.8 29.6 Q 729.5 29.0, 729.4 28.9 L 729.4 34.4 L 728.5 34.4 L 728.5 27.7 L 729.6 27.7 " fill="#0000FF"/>
<path class="atom-3" d="M 759.6 19.9 Q 759.6 18.3, 760.4 17.4 Q 761.2 16.5, 762.7 16.5 Q 764.2 16.5, 765.0 17.4 Q 765.8 18.3, 765.8 19.9 Q 765.8 21.5, 765.0 22.4 Q 764.2 23.4, 762.7 23.4 Q 761.2 23.4, 760.4 22.4 Q 759.6 21.5, 759.6 19.9 M 762.7 22.6 Q 763.7 22.6, 764.3 21.9 Q 764.8 21.2, 764.8 19.9 Q 764.8 18.6, 764.3 17.9 Q 763.7 17.2, 762.7 17.2 Q 761.7 17.2, 761.1 17.9 Q 760.6 18.6, 760.6 19.9 Q 760.6 21.2, 761.1 21.9 Q 761.7 22.6, 762.7 22.6 " fill="#FF0000"/>
<path class="atom-4" d="M 740.8 59.3 L 743.0 62.9 Q 743.2 63.2, 743.6 63.9 Q 743.9 64.5, 744.0 64.5 L 744.0 59.3 L 744.8 59.3 L 744.8 66.0 L 743.9 66.0 L 741.6 62.1 Q 741.3 61.7, 741.0 61.2 Q 740.7 60.6, 740.6 60.5 L 740.6 66.0 L 739.8 66.0 L 739.8 59.3 L 740.8 59.3 " fill="#0000FF"/>
<path class="atom-10" d="M 635.5 96.3 Q 635.6 96.4, 635.9 96.5 Q 636.2 96.6, 636.6 96.7 Q 636.9 96.8, 637.3 96.8 Q 637.9 96.8, 638.3 96.5 Q 638.6 96.2, 638.6 95.6 Q 638.6 95.3, 638.4 95.0 Q 638.3 94.8, 638.0 94.7 Q 637.7 94.6, 637.2 94.4 Q 636.6 94.2, 636.3 94.1 Q 635.9 93.9, 635.6 93.5 Q 635.4 93.2, 635.4 92.6 Q 635.4 91.7, 636.0 91.2 Q 636.6 90.7, 637.7 90.7 Q 638.5 90.7, 639.3 91.1 L 639.1 91.8 Q 638.3 91.4, 637.7 91.4 Q 637.1 91.4, 636.7 91.7 Q 636.3 92.0, 636.4 92.5 Q 636.4 92.8, 636.5 93.0 Q 636.7 93.3, 637.0 93.4 Q 637.3 93.5, 637.7 93.6 Q 638.3 93.8, 638.7 94.0 Q 639.0 94.2, 639.3 94.6 Q 639.6 95.0, 639.6 95.6 Q 639.6 96.6, 638.9 97.1 Q 638.3 97.6, 637.3 97.6 Q 636.7 97.6, 636.2 97.4 Q 635.8 97.3, 635.3 97.1 L 635.5 96.3 " fill="#CCCC00"/>
<path class="atom-11" d="M 644.5 72.6 Q 644.5 71.0, 645.3 70.1 Q 646.1 69.2, 647.6 69.2 Q 649.1 69.2, 649.9 70.1 Q 650.7 71.0, 650.7 72.6 Q 650.7 74.3, 649.9 75.2 Q 649.1 76.1, 647.6 76.1 Q 646.1 76.1, 645.3 75.2 Q 644.5 74.3, 644.5 72.6 M 647.6 75.4 Q 648.6 75.4, 649.2 74.7 Q 649.8 74.0, 649.8 72.6 Q 649.8 71.3, 649.2 70.7 Q 648.6 70.0, 647.6 70.0 Q 646.6 70.0, 646.0 70.7 Q 645.5 71.3, 645.5 72.6 Q 645.5 74.0, 646.0 74.7 Q 646.6 75.4, 647.6 75.4 " fill="#FF0000"/>
<path class="atom-12" d="M 624.1 115.5 Q 624.1 113.8, 624.9 112.9 Q 625.7 112.0, 627.2 112.0 Q 628.7 112.0, 629.5 112.9 Q 630.3 113.8, 630.3 115.5 Q 630.3 117.1, 629.5 118.0 Q 628.7 118.9, 627.2 118.9 Q 625.7 118.9, 624.9 118.0 Q 624.1 117.1, 624.1 115.5 M 627.2 118.2 Q 628.2 118.2, 628.8 117.5 Q 629.3 116.8, 629.3 115.5 Q 629.3 114.1, 628.8 113.5 Q 628.2 112.8, 627.2 112.8 Q 626.2 112.8, 625.6 113.5 Q 625.1 114.1, 625.1 115.5 Q 625.1 116.8, 625.6 117.5 Q 626.2 118.2, 627.2 118.2 " fill="#FF0000"/>
<path class="atom-21" d="M 784.5 70.0 L 786.7 73.5 Q 787.0 73.9, 787.3 74.5 Q 787.7 75.1, 787.7 75.2 L 787.7 70.0 L 788.6 70.0 L 788.6 76.7 L 787.6 76.7 L 785.3 72.8 Q 785.0 72.3, 784.7 71.8 Q 784.4 71.3, 784.3 71.1 L 784.3 76.7 L 783.5 76.7 L 783.5 70.0 L 784.5 70.0 " fill="#0000FF"/>
<path class="atom-22" d="M 808.2 69.3 L 810.4 72.9 Q 810.7 73.2, 811.0 73.9 Q 811.4 74.5, 811.4 74.5 L 811.4 69.3 L 812.3 69.3 L 812.3 76.0 L 811.3 76.0 L 809.0 72.2 Q 808.7 71.7, 808.4 71.2 Q 808.1 70.7, 808.0 70.5 L 808.0 76.0 L 807.2 76.0 L 807.2 69.3 L 808.2 69.3 " fill="#0000FF"/>
<path class="atom-31" d="M 844.5 36.0 L 848.5 36.0 L 848.5 36.7 L 845.4 36.7 L 845.4 38.8 L 848.1 38.8 L 848.1 39.6 L 845.4 39.6 L 845.4 42.7 L 844.5 42.7 L 844.5 36.0 " fill="#33CCCC"/>
<path class="atom-32" d="M 873.1 53.5 L 877.1 53.5 L 877.1 54.2 L 874.0 54.2 L 874.0 56.3 L 876.7 56.3 L 876.7 57.1 L 874.0 57.1 L 874.0 60.2 L 873.1 60.2 L 873.1 53.5 " fill="#33CCCC"/>
<path class="atom-33" d="M 827.0 64.6 L 831.0 64.6 L 831.0 65.3 L 827.9 65.3 L 827.9 67.4 L 830.6 67.4 L 830.6 68.2 L 827.9 68.2 L 827.9 71.3 L 827.0 71.3 L 827.0 64.6 " fill="#33CCCC"/>
<path class="atom-34" d="M 797.4 106.1 L 799.6 109.7 Q 799.8 110.0, 800.1 110.7 Q 800.5 111.3, 800.5 111.3 L 800.5 106.1 L 801.4 106.1 L 801.4 112.8 L 800.5 112.8 L 798.1 108.9 Q 797.8 108.5, 797.5 108.0 Q 797.2 107.5, 797.2 107.3 L 797.2 112.8 L 796.3 112.8 L 796.3 106.1 L 797.4 106.1 " fill="#0000FF"/>
<path class="atom-0" d="M 777.2,52.4 L 777.2,52.5 L 777.2,52.5 L 777.2,52.5 L 777.2,52.6 L 777.2,52.6 L 777.2,52.7 L 777.1,52.7 L 777.1,52.7 L 777.1,52.8 L 777.1,52.8 L 777.0,52.8 L 777.0,52.8 L 777.0,52.8 L 776.9,52.9 L 776.9,52.9 L 776.8,52.9 L 776.8,52.9 L 776.8,52.9 L 776.7,52.9 L 776.7,52.9 L 776.6,52.9 L 776.6,52.9 L 776.6,52.9 L 776.5,52.8 L 776.5,52.8 L 776.5,52.8 L 776.4,52.8 L 776.4,52.7 L 776.4,52.7 L 776.4,52.7 L 776.3,52.6 L 776.3,52.6 L 776.3,52.6 L 776.3,52.5 L 776.3,52.5 L 776.3,52.4 L 776.3,52.4 L 776.3,52.4 L 776.3,52.3 L 776.3,52.3 L 776.3,52.2 L 776.3,52.2 L 776.4,52.2 L 776.4,52.1 L 776.4,52.1 L 776.4,52.1 L 776.5,52.0 L 776.5,52.0 L 776.5,52.0 L 776.6,52.0 L 776.6,52.0 L 776.6,52.0 L 776.7,52.0 L 776.7,51.9 L 776.8,51.9 L 776.8,52.0 L 776.8,52.0 L 776.9,52.0 L 776.9,52.0 L 777.0,52.0 L 777.0,52.0 L 777.0,52.0 L 777.1,52.1 L 777.1,52.1 L 777.1,52.1 L 777.1,52.2 L 777.2,52.2 L 777.2,52.2 L 777.2,52.3 L 777.2,52.3 L 777.2,52.3 L 777.2,52.4 L 777.2,52.4 L 776.8,52.4 Z" style="fill:#000000;fill-rule:evenodd;fill-opacity:1;stroke:#000000;stroke-width:0.0px;stroke-linecap:butt;stroke-linejoin:miter;stroke-opacity:1;"/>
<path class="atom-0" d="M 777.2,50.5 L 777.2,50.6 L 777.2,50.6 L 777.2,50.6 L 777.2,50.7 L 777.2,50.7 L 777.2,50.8 L 777.1,50.8 L 777.1,50.8 L 777.1,50.9 L 777.1,50.9 L 777.0,50.9 L 777.0,50.9 L 777.0,51.0 L 776.9,51.0 L 776.9,51.0 L 776.8,51.0 L 776.8,51.0 L 776.8,51.0 L 776.7,51.0 L 776.7,51.0 L 776.6,51.0 L 776.6,51.0 L 776.6,51.0 L 776.5,50.9 L 776.5,50.9 L 776.5,50.9 L 776.4,50.9 L 776.4,50.8 L 776.4,50.8 L 776.4,50.8 L 776.3,50.7 L 776.3,50.7 L 776.3,50.7 L 776.3,50.6 L 776.3,50.6 L 776.3,50.5 L 776.3,50.5 L 776.3,50.5 L 776.3,50.4 L 776.3,50.4 L 776.3,50.3 L 776.3,50.3 L 776.4,50.3 L 776.4,50.2 L 776.4,50.2 L 776.4,50.2 L 776.5,50.2 L 776.5,50.1 L 776.5,50.1 L 776.6,50.1 L 776.6,50.1 L 776.6,50.1 L 776.7,50.1 L 776.7,50.1 L 776.8,50.1 L 776.8,50.1 L 776.8,50.1 L 776.9,50.1 L 776.9,50.1 L 777.0,50.1 L 777.0,50.1 L 777.0,50.1 L 777.1,50.2 L 777.1,50.2 L 777.1,50.2 L 777.1,50.3 L 777.2,50.3 L 777.2,50.3 L 777.2,50.4 L 777.2,50.4 L 777.2,50.4 L 777.2,50.5 L 777.2,50.5 L 776.8,50.5 Z" style="fill:#000000;fill-rule:evenodd;fill-opacity:1;stroke:#000000;stroke-width:0.0px;stroke-linecap:butt;stroke-linejoin:miter;stroke-opacity:1;"/>
<path class="atom-2" d="M 727.6,32.0 L 727.6,32.1 L 727.6,32.1 L 727.6,32.1 L 727.6,32.2 L 727.6,32.2 L 727.5,32.3 L 727.5,32.3 L 727.5,32.3 L 727.5,32.3 L 727.4,32.4 L 727.4,32.4 L 727.4,32.4 L 727.3,32.4 L 727.3,32.5 L 727.3,32.5 L 727.2,32.5 L 727.2,32.5 L 727.1,32.5 L 727.1,32.5 L 727.1,32.5 L 727.0,32.5 L 727.0,32.5 L 726.9,32.5 L 726.9,32.4 L 726.9,32.4 L 726.8,32.4 L 726.8,32.4 L 726.8,32.3 L 726.7,32.3 L 726.7,32.3 L 726.7,32.2 L 726.7,32.2 L 726.7,32.2 L 726.7,32.1 L 726.7,32.1 L 726.7,32.0 L 726.7,32.0 L 726.7,32.0 L 726.7,31.9 L 726.7,31.9 L 726.7,31.8 L 726.7,31.8 L 726.7,31.8 L 726.7,31.7 L 726.8,31.7 L 726.8,31.7 L 726.8,31.6 L 726.9,31.6 L 726.9,31.6 L 726.9,31.6 L 727.0,31.6 L 727.0,31.6 L 727.1,31.5 L 727.1,31.5 L 727.1,31.5 L 727.2,31.5 L 727.2,31.6 L 727.3,31.6 L 727.3,31.6 L 727.3,31.6 L 727.4,31.6 L 727.4,31.6 L 727.4,31.7 L 727.5,31.7 L 727.5,31.7 L 727.5,31.7 L 727.5,31.8 L 727.6,31.8 L 727.6,31.9 L 727.6,31.9 L 727.6,31.9 L 727.6,32.0 L 727.6,32.0 L 727.1,32.0 Z" style="fill:#000000;fill-rule:evenodd;fill-opacity:1;stroke:#000000;stroke-width:0.0px;stroke-linecap:butt;stroke-linejoin:miter;stroke-opacity:1;"/>
<path class="atom-2" d="M 727.6,30.1 L 727.6,30.2 L 727.6,30.2 L 727.6,30.2 L 727.6,30.3 L 727.6,30.3 L 727.5,30.4 L 727.5,30.4 L 727.5,30.4 L 727.5,30.5 L 727.4,30.5 L 727.4,30.5 L 727.4,30.5 L 727.3,30.5 L 727.3,30.6 L 727.3,30.6 L 727.2,30.6 L 727.2,30.6 L 727.1,30.6 L 727.1,30.6 L 727.1,30.6 L 727.0,30.6 L 727.0,30.6 L 726.9,30.6 L 726.9,30.5 L 726.9,30.5 L 726.8,30.5 L 726.8,30.5 L 726.8,30.4 L 726.7,30.4 L 726.7,30.4 L 726.7,30.3 L 726.7,30.3 L 726.7,30.3 L 726.7,30.2 L 726.7,30.2 L 726.7,30.1 L 726.7,30.1 L 726.7,30.1 L 726.7,30.0 L 726.7,30.0 L 726.7,29.9 L 726.7,29.9 L 726.7,29.9 L 726.7,29.8 L 726.8,29.8 L 726.8,29.8 L 726.8,29.7 L 726.9,29.7 L 726.9,29.7 L 726.9,29.7 L 727.0,29.7 L 727.0,29.7 L 727.1,29.7 L 727.1,29.6 L 727.1,29.6 L 727.2,29.6 L 727.2,29.7 L 727.3,29.7 L 727.3,29.7 L 727.3,29.7 L 727.4,29.7 L 727.4,29.7 L 727.4,29.8 L 727.5,29.8 L 727.5,29.8 L 727.5,29.9 L 727.5,29.9 L 727.6,29.9 L 727.6,30.0 L 727.6,30.0 L 727.6,30.0 L 727.6,30.1 L 727.6,30.1 L 727.1,30.1 Z" style="fill:#000000;fill-rule:evenodd;fill-opacity:1;stroke:#000000;stroke-width:0.0px;stroke-linecap:butt;stroke-linejoin:miter;stroke-opacity:1;"/>
<path class="atom-3" d="M 767.7,19.9 L 767.7,19.9 L 767.7,19.9 L 767.7,20.0 L 767.7,20.0 L 767.6,20.1 L 767.6,20.1 L 767.6,20.1 L 767.6,20.2 L 767.5,20.2 L 767.5,20.2 L 767.5,20.2 L 767.5,20.3 L 767.4,20.3 L 767.4,20.3 L 767.3,20.3 L 767.3,20.3 L 767.3,20.3 L 767.2,20.3 L 767.2,20.3 L 767.1,20.3 L 767.1,20.3 L 767.1,20.3 L 767.0,20.3 L 767.0,20.3 L 766.9,20.3 L 766.9,20.2 L 766.9,20.2 L 766.9,20.2 L 766.8,20.2 L 766.8,20.1 L 766.8,20.1 L 766.8,20.0 L 766.8,20.0 L 766.7,20.0 L 766.7,19.9 L 766.7,19.9 L 766.7,19.8 L 766.7,19.8 L 766.7,19.8 L 766.8,19.7 L 766.8,19.7 L 766.8,19.6 L 766.8,19.6 L 766.8,19.6 L 766.9,19.5 L 766.9,19.5 L 766.9,19.5 L 766.9,19.5 L 767.0,19.4 L 767.0,19.4 L 767.1,19.4 L 767.1,19.4 L 767.1,19.4 L 767.2,19.4 L 767.2,19.4 L 767.3,19.4 L 767.3,19.4 L 767.3,19.4 L 767.4,19.4 L 767.4,19.4 L 767.5,19.5 L 767.5,19.5 L 767.5,19.5 L 767.5,19.5 L 767.6,19.6 L 767.6,19.6 L 767.6,19.6 L 767.6,19.7 L 767.7,19.7 L 767.7,19.7 L 767.7,19.8 L 767.7,19.8 L 767.7,19.9 L 767.2,19.9 Z" style="fill:#000000;fill-rule:evenodd;fill-opacity:1;stroke:#000000;stroke-width:0.0px;stroke-linecap:butt;stroke-linejoin:miter;stroke-opacity:1;"/>
</svg>