<svg xmlns="http://www.w3.org/2000/svg" xmlns:rdkit="http://www.rdkit.org/xml" xmlns:xlink="http://www.w3.org/1999/xlink" version="1.1" baseProfile="full" xml:space="preserve" width="900px" height="160px" viewBox="0 0 900 160">
<!-- END OF HEADER -->
<rect style="opacity:1.0;fill:#FFFFFF;stroke:none" width="900.0" height="160.0" x="0.0" y="0.0"> </rect>
<path class="bond-0 atom-0 atom-1" d="M 85.9,58.5 L 88.3,77.5" style="fill:none;fill-rule:evenodd;stroke:#000000;stroke-width:2.0px;stroke-linecap:butt;stroke-linejoin:miter;stroke-opacity:1"/>
<path class="bond-1 atom-1 atom-2" d="M 88.3,77.5 L 69.4,74.1" style="fill:none;fill-rule:evenodd;stroke:#000000;stroke-width:2.0px;stroke-linecap:butt;stroke-linejoin:miter;stroke-opacity:1"/>
<path class="bond-2 atom-1 atom-3" d="M 88.3,77.5 L 81.7,95.4" style="fill:none;fill-rule:evenodd;stroke:#000000;stroke-width:2.0px;stroke-linecap:butt;stroke-linejoin:miter;stroke-opacity:1"/>
<path class="bond-3 atom-3 atom-4" d="M 78.0,96.4 L 77.9,95.7" style="fill:none;fill-rule:evenodd;stroke:#000000;stroke-width:1.0px;stroke-linecap:butt;stroke-linejoin:miter;stroke-opacity:1"/>
<path class="bond-3 atom-3 atom-4" d="M 74.3,97.5 L 74.1,96.1" style="fill:none;fill-rule:evenodd;stroke:#000000;stroke-width:1.0px;stroke-linecap:butt;stroke-linejoin:miter;stroke-opacity:1"/>
<path class="bond-3 atom-3 atom-4" d="M 70.6,98.5 L 70.2,96.4" style="fill:none;fill-rule:evenodd;stroke:#FF0000;stroke-width:1.0px;stroke-linecap:butt;stroke-linejoin:miter;stroke-opacity:1"/>
<path class="bond-3 atom-3 atom-4" d="M 66.9,99.5 L 66.4,96.7" style="fill:none;fill-rule:evenodd;stroke:#FF0000;stroke-width:1.0px;stroke-linecap:butt;stroke-linejoin:miter;stroke-opacity:1"/>
<path class="bond-4 atom-3 atom-5" d="M 81.7,95.4 L 94.0,110.1" style="fill:none;fill-rule:evenodd;stroke:#000000;stroke-width:2.0px;stroke-linecap:butt;stroke-linejoin:miter;stroke-opacity:1"/>
<path class="bond-5 atom-5 atom-6" d="M 94.0,110.1 L 112.9,106.8" style="fill:none;fill-rule:evenodd;stroke:#000000;stroke-width:2.0px;stroke-linecap:butt;stroke-linejoin:miter;stroke-opacity:1"/>
<path class="bond-6 atom-6 atom-7" d="M 112.9,106.8 L 119.4,88.8" style="fill:none;fill-rule:evenodd;stroke:#000000;stroke-width:2.0px;stroke-linecap:butt;stroke-linejoin:miter;stroke-opacity:1"/>
<path class="bond-7 atom-7 atom-8" d="M 122.1,91.5 L 121.6,91.9" style="fill:none;fill-rule:evenodd;stroke:#000000;stroke-width:1.0px;stroke-linecap:butt;stroke-linejoin:miter;stroke-opacity:1"/>
<path class="bond-7 atom-7 atom-8" d="M 124.7,94.3 L 123.9,95.0" style="fill:none;fill-rule:evenodd;stroke:#000000;stroke-width:1.0px;stroke-linecap:butt;stroke-linejoin:miter;stroke-opacity:1"/>
<path class="bond-7 atom-7 atom-8" d="M 127.4,97.0 L 126.1,98.1" style="fill:none;fill-rule:evenodd;stroke:#000000;stroke-width:1.0px;stroke-linecap:butt;stroke-linejoin:miter;stroke-opacity:1"/>
<path class="bond-7 atom-7 atom-8" d="M 130.1,99.8 L 128.4,101.2" style="fill:none;fill-rule:evenodd;stroke:#000000;stroke-width:1.0px;stroke-linecap:butt;stroke-linejoin:miter;stroke-opacity:1"/>
<path class="bond-7 atom-7 atom-8" d="M 132.8,102.5 L 130.6,104.3" style="fill:none;fill-rule:evenodd;stroke:#000000;stroke-width:1.0px;stroke-linecap:butt;stroke-linejoin:miter;stroke-opacity:1"/>
<path class="bond-8 atom-7 atom-9" d="M 119.4,88.8 L 107.1,74.1" style="fill:none;fill-rule:evenodd;stroke:#000000;stroke-width:2.0px;stroke-linecap:butt;stroke-linejoin:miter;stroke-opacity:1"/>
<path class="bond-9 atom-9 atom-10" d="M 107.1,74.1 L 113.6,56.2" style="fill:none;fill-rule:evenodd;stroke:#000000;stroke-width:2.0px;stroke-linecap:butt;stroke-linejoin:miter;stroke-opacity:1"/>
<path class="bond-10 atom-10 atom-11" d="M 113.6,56.2 L 132.5,52.8" style="fill:none;fill-rule:evenodd;stroke:#000000;stroke-width:2.0px;stroke-linecap:butt;stroke-linejoin:miter;stroke-opacity:1"/>
<path class="bond-11 atom-11 atom-12" d="M 132.5,52.8 L 144.8,67.5" style="fill:none;fill-rule:evenodd;stroke:#000000;stroke-width:2.0px;stroke-linecap:butt;stroke-linejoin:miter;stroke-opacity:1"/>
<path class="bond-12 atom-12 atom-13" d="M 145.1,64.4 L 145.8,64.5" style="fill:none;fill-rule:evenodd;stroke:#000000;stroke-width:1.0px;stroke-linecap:butt;stroke-linejoin:miter;stroke-opacity:1"/>
<path class="bond-12 atom-12 atom-13" d="M 145.5,61.2 L 146.9,61.5" style="fill:none;fill-rule:evenodd;stroke:#000000;stroke-width:1.0px;stroke-linecap:butt;stroke-linejoin:miter;stroke-opacity:1"/>
<path class="bond-12 atom-12 atom-13" d="M 145.9,58.1 L 147.9,58.6" style="fill:none;fill-rule:evenodd;stroke:#000000;stroke-width:1.0px;stroke-linecap:butt;stroke-linejoin:miter;stroke-opacity:1"/>
<path class="bond-12 atom-12 atom-13" d="M 146.2,55.0 L 149.0,55.6" style="fill:none;fill-rule:evenodd;stroke:#000000;stroke-width:1.0px;stroke-linecap:butt;stroke-linejoin:miter;stroke-opacity:1"/>
<path class="bond-13 atom-12 atom-14" d="M 144.8,67.5 L 138.2,85.5" style="fill:none;fill-rule:evenodd;stroke:#000000;stroke-width:2.0px;stroke-linecap:butt;stroke-linejoin:miter;stroke-opacity:1"/>
<path class="bond-14 atom-14 atom-15" d="M 138.2,85.5 L 150.5,100.1" style="fill:none;fill-rule:evenodd;stroke:#000000;stroke-width:2.0px;stroke-linecap:butt;stroke-linejoin:miter;stroke-opacity:1"/>
<path class="bond-15 atom-15 atom-16" d="M 149.5,98.9 L 146.7,106.6" style="fill:none;fill-rule:evenodd;stroke:#000000;stroke-width:2.0px;stroke-linecap:butt;stroke-linejoin:miter;stroke-opacity:1"/>
<path class="bond-15 atom-15 atom-16" d="M 146.7,106.6 L 143.9,114.2" style="fill:none;fill-rule:evenodd;stroke:#FF0000;stroke-width:2.0px;stroke-linecap:butt;stroke-linejoin:miter;stroke-opacity:1"/>
<path class="bond-15 atom-15 atom-16" d="M 152.1,99.8 L 149.3,107.5" style="fill:none;fill-rule:evenodd;stroke:#000000;stroke-width:2.0px;stroke-linecap:butt;stroke-linejoin:miter;stroke-opacity:1"/>
<path class="bond-15 atom-15 atom-16" d="M 149.3,107.5 L 146.5,115.2" style="fill:none;fill-rule:evenodd;stroke:#FF0000;stroke-width:2.0px;stroke-linecap:butt;stroke-linejoin:miter;stroke-opacity:1"/>
<path class="bond-16 atom-15 atom-17" d="M 150.5,100.1 L 169.4,96.8" style="fill:none;fill-rule:evenodd;stroke:#000000;stroke-width:2.0px;stroke-linecap:butt;stroke-linejoin:miter;stroke-opacity:1"/>
<path class="bond-17 atom-17 atom-18" d="M 169.4,96.8 L 175.9,78.8" style="fill:none;fill-rule:evenodd;stroke:#000000;stroke-width:2.0px;stroke-linecap:butt;stroke-linejoin:miter;stroke-opacity:1"/>
<path class="bond-17 atom-17 atom-18" d="M 167.3,94.3 L 172.7,79.4" style="fill:none;fill-rule:evenodd;stroke:#000000;stroke-width:2.0px;stroke-linecap:butt;stroke-linejoin:miter;stroke-opacity:1"/>
<path class="bond-18 atom-18 atom-19" d="M 175.9,78.8 L 194.7,75.5" style="fill:none;fill-rule:evenodd;stroke:#000000;stroke-width:2.0px;stroke-linecap:butt;stroke-linejoin:miter;stroke-opacity:1"/>
<path class="bond-19 atom-19 atom-20" d="M 194.7,75.5 L 207.0,90.2" style="fill:none;fill-rule:evenodd;stroke:#000000;stroke-width:2.0px;stroke-linecap:butt;stroke-linejoin:miter;stroke-opacity:1"/>
<path class="bond-20 atom-20 atom-21" d="M 207.0,90.2 L 225.9,86.8" style="fill:none;fill-rule:evenodd;stroke:#000000;stroke-width:2.0px;stroke-linecap:butt;stroke-linejoin:miter;stroke-opacity:1"/>
<path class="bond-21 atom-21 atom-22" d="M 225.9,86.8 L 244.9,88.8 L 244.4,91.6 Z" style="fill:#000000;fill-rule:evenodd;fill-opacity:1;stroke:#000000;stroke-width:0.5px;stroke-linecap:butt;stroke-linejoin:miter;stroke-opacity:1;"/>
<path class="bond-22 atom-21 atom-23" d="M 225.9,86.8 L 225.9,106.0" style="fill:none;fill-rule:evenodd;stroke:#000000;stroke-width:2.0px;stroke-linecap:butt;stroke-linejoin:miter;stroke-opacity:1"/>
<path class="bond-23 atom-23 atom-24" d="M 224.4,106.8 L 231.5,110.9" style="fill:none;fill-rule:evenodd;stroke:#000000;stroke-width:2.0px;stroke-linecap:butt;stroke-linejoin:miter;stroke-opacity:1"/>
<path class="bond-23 atom-23 atom-24" d="M 231.5,110.9 L 238.6,115.0" style="fill:none;fill-rule:evenodd;stroke:#FF0000;stroke-width:2.0px;stroke-linecap:butt;stroke-linejoin:miter;stroke-opacity:1"/>
<path class="bond-23 atom-23 atom-24" d="M 225.9,104.3 L 232.9,108.4" style="fill:none;fill-rule:evenodd;stroke:#000000;stroke-width:2.0px;stroke-linecap:butt;stroke-linejoin:miter;stroke-opacity:1"/>
<path class="bond-23 atom-23 atom-24" d="M 232.9,108.4 L 240.0,112.5" style="fill:none;fill-rule:evenodd;stroke:#FF0000;stroke-width:2.0px;stroke-linecap:butt;stroke-linejoin:miter;stroke-opacity:1"/>
<path class="bond-24 atom-23 atom-25" d="M 225.9,106.0 L 219.1,109.8" style="fill:none;fill-rule:evenodd;stroke:#000000;stroke-width:2.0px;stroke-linecap:butt;stroke-linejoin:miter;stroke-opacity:1"/>
<path class="bond-24 atom-23 atom-25" d="M 219.1,109.8 L 212.4,113.7" style="fill:none;fill-rule:evenodd;stroke:#FF0000;stroke-width:2.0px;stroke-linecap:butt;stroke-linejoin:miter;stroke-opacity:1"/>
<path class="bond-25 atom-21 atom-26" d="M 225.9,86.8 L 232.4,68.9" style="fill:none;fill-rule:evenodd;stroke:#000000;stroke-width:2.0px;stroke-linecap:butt;stroke-linejoin:miter;stroke-opacity:1"/>
<path class="bond-26 atom-26 atom-27" d="M 232.4,68.9 L 220.1,54.2" style="fill:none;fill-rule:evenodd;stroke:#000000;stroke-width:2.0px;stroke-linecap:butt;stroke-linejoin:miter;stroke-opacity:1"/>
<path class="bond-27 atom-27 atom-28" d="M 220.1,54.2 L 201.3,57.5" style="fill:none;fill-rule:evenodd;stroke:#000000;stroke-width:2.0px;stroke-linecap:butt;stroke-linejoin:miter;stroke-opacity:1"/>
<path class="bond-28 atom-28 atom-29" d="M 202.3,53.8 L 202.8,54.0" style="fill:none;fill-rule:evenodd;stroke:#000000;stroke-width:1.0px;stroke-linecap:butt;stroke-linejoin:miter;stroke-opacity:1"/>
<path class="bond-28 atom-28 atom-29" d="M 203.4,50.2 L 204.4,50.5" style="fill:none;fill-rule:evenodd;stroke:#000000;stroke-width:1.0px;stroke-linecap:butt;stroke-linejoin:miter;stroke-opacity:1"/>
<path class="bond-28 atom-28 atom-29" d="M 204.4,46.5 L 206.0,47.0" style="fill:none;fill-rule:evenodd;stroke:#000000;stroke-width:1.0px;stroke-linecap:butt;stroke-linejoin:miter;stroke-opacity:1"/>
<path class="bond-28 atom-28 atom-29" d="M 205.4,42.8 L 207.6,43.5" style="fill:none;fill-rule:evenodd;stroke:#000000;stroke-width:1.0px;stroke-linecap:butt;stroke-linejoin:miter;stroke-opacity:1"/>
<path class="bond-28 atom-28 atom-29" d="M 206.5,39.1 L 209.1,40.1" style="fill:none;fill-rule:evenodd;stroke:#000000;stroke-width:1.0px;stroke-linecap:butt;stroke-linejoin:miter;stroke-opacity:1"/>
<path class="bond-29 atom-28 atom-30" d="M 201.3,57.5 L 189.0,42.9" style="fill:none;fill-rule:evenodd;stroke:#000000;stroke-width:2.0px;stroke-linecap:butt;stroke-linejoin:miter;stroke-opacity:1"/>
<path class="bond-30 atom-30 atom-31" d="M 189.0,42.9 L 170.1,46.2" style="fill:none;fill-rule:evenodd;stroke:#000000;stroke-width:2.0px;stroke-linecap:butt;stroke-linejoin:miter;stroke-opacity:1"/>
<path class="bond-31 atom-31 atom-32" d="M 170.1,46.2 L 163.6,64.2" style="fill:none;fill-rule:evenodd;stroke:#000000;stroke-width:2.0px;stroke-linecap:butt;stroke-linejoin:miter;stroke-opacity:1"/>
<path class="bond-32 atom-32 atom-33" d="M 163.6,64.2 L 155.6,54.4 L 158.0,52.9 Z" style="fill:#000000;fill-rule:evenodd;fill-opacity:1;stroke:#000000;stroke-width:0.5px;stroke-linecap:butt;stroke-linejoin:miter;stroke-opacity:1;"/>
<path class="bond-33 atom-9 atom-1" d="M 107.1,74.1 L 88.3,77.5" style="fill:none;fill-rule:evenodd;stroke:#000000;stroke-width:2.0px;stroke-linecap:butt;stroke-linejoin:miter;stroke-opacity:1"/>
<path class="bond-34 atom-32 atom-12" d="M 163.6,64.2 L 144.8,67.5" style="fill:none;fill-rule:evenodd;stroke:#000000;stroke-width:2.0px;stroke-linecap:butt;stroke-linejoin:miter;stroke-opacity:1"/>
<path class="bond-35 atom-14 atom-7" d="M 138.2,85.5 L 119.4,88.8" style="fill:none;fill-rule:evenodd;stroke:#000000;stroke-width:2.0px;stroke-linecap:butt;stroke-linejoin:miter;stroke-opacity:1"/>
<path class="bond-36 atom-32 atom-18" d="M 163.6,64.2 L 175.9,78.8" style="fill:none;fill-rule:evenodd;stroke:#000000;stroke-width:2.0px;stroke-linecap:butt;stroke-linejoin:miter;stroke-opacity:1"/>
<path class="bond-37 atom-28 atom-19" d="M 201.3,57.5 L 194.7,75.5" style="fill:none;fill-rule:evenodd;stroke:#000000;stroke-width:2.0px;stroke-linecap:butt;stroke-linejoin:miter;stroke-opacity:1"/>
<path class="bond-38 atom-9 atom-34" d="M 107.1,74.1 L 98.1,62.8 L 100.4,61.3 Z" style="fill:#000000;fill-rule:evenodd;fill-opacity:1;stroke:#000000;stroke-width:0.5px;stroke-linecap:butt;stroke-linejoin:miter;stroke-opacity:1;"/>
<path class="bond-39 atom-14 atom-35" d="M 138.2,85.5 L 153.5,81.4 L 154.0,84.1 Z" style="fill:#000000;fill-rule:evenodd;fill-opacity:1;stroke:#000000;stroke-width:0.5px;stroke-linecap:butt;stroke-linejoin:miter;stroke-opacity:1;"/>
<path class="bond-40 atom-19 atom-36" d="M 193.8,79.1 L 193.1,78.9" style="fill:none;fill-rule:evenodd;stroke:#000000;stroke-width:1.0px;stroke-linecap:butt;stroke-linejoin:miter;stroke-opacity:1"/>
<path class="bond-40 atom-19 atom-36" d="M 192.8,82.8 L 191.5,82.3" style="fill:none;fill-rule:evenodd;stroke:#000000;stroke-width:1.0px;stroke-linecap:butt;stroke-linejoin:miter;stroke-opacity:1"/>
<path class="bond-40 atom-19 atom-36" d="M 191.9,86.4 L 189.9,85.7" style="fill:none;fill-rule:evenodd;stroke:#000000;stroke-width:1.0px;stroke-linecap:butt;stroke-linejoin:miter;stroke-opacity:1"/>
<path class="bond-40 atom-19 atom-36" d="M 191.0,90.0 L 188.3,89.0" style="fill:none;fill-rule:evenodd;stroke:#000000;stroke-width:1.0px;stroke-linecap:butt;stroke-linejoin:miter;stroke-opacity:1"/>
<path d="M 82.1,94.5 L 81.7,95.4 L 82.3,96.2" style="fill:none;stroke:#000000;stroke-width:2.0px;stroke-linecap:butt;stroke-linejoin:miter;stroke-opacity:1;"/>
<path d="M 93.4,109.3 L 94.0,110.1 L 95.0,109.9" style="fill:none;stroke:#000000;stroke-width:2.0px;stroke-linecap:butt;stroke-linejoin:miter;stroke-opacity:1;"/>
<path d="M 111.9,106.9 L 112.9,106.8 L 113.2,105.9" style="fill:none;stroke:#000000;stroke-width:2.0px;stroke-linecap:butt;stroke-linejoin:miter;stroke-opacity:1;"/>
<path d="M 113.3,57.1 L 113.6,56.2 L 114.6,56.0" style="fill:none;stroke:#000000;stroke-width:2.0px;stroke-linecap:butt;stroke-linejoin:miter;stroke-opacity:1;"/>
<path d="M 131.5,53.0 L 132.5,52.8 L 133.1,53.6" style="fill:none;stroke:#000000;stroke-width:2.0px;stroke-linecap:butt;stroke-linejoin:miter;stroke-opacity:1;"/>
<path d="M 149.9,99.4 L 150.5,100.1 L 151.5,100.0" style="fill:none;stroke:#000000;stroke-width:2.0px;stroke-linecap:butt;stroke-linejoin:miter;stroke-opacity:1;"/>
<path d="M 168.4,97.0 L 169.4,96.8 L 169.7,95.9" style="fill:none;stroke:#000000;stroke-width:2.0px;stroke-linecap:butt;stroke-linejoin:miter;stroke-opacity:1;"/>
<path d="M 206.4,89.4 L 207.0,90.2 L 208.0,90.0" style="fill:none;stroke:#000000;stroke-width:2.0px;stroke-linecap:butt;stroke-linejoin:miter;stroke-opacity:1;"/>
<path d="M 225.9,105.0 L 225.9,106.0 L 225.5,106.2" style="fill:none;stroke:#000000;stroke-width:2.0px;stroke-linecap:butt;stroke-linejoin:miter;stroke-opacity:1;"/>
<path d="M 232.1,69.8 L 232.4,68.9 L 231.8,68.1" style="fill:none;stroke:#000000;stroke-width:2.0px;stroke-linecap:butt;stroke-linejoin:miter;stroke-opacity:1;"/>
<path d="M 220.7,55.0 L 220.1,54.2 L 219.2,54.4" style="fill:none;stroke:#000000;stroke-width:2.0px;stroke-linecap:butt;stroke-linejoin:miter;stroke-opacity:1;"/>
<path d="M 189.6,43.6 L 189.0,42.9 L 188.0,43.1" style="fill:none;stroke:#000000;stroke-width:2.0px;stroke-linecap:butt;stroke-linejoin:miter;stroke-opacity:1;"/>
<path d="M 171.1,46.0 L 170.1,46.2 L 169.8,47.1" style="fill:none;stroke:#000000;stroke-width:2.0px;stroke-linecap:butt;stroke-linejoin:miter;stroke-opacity:1;"/>
<path class="atom-4" d="M 55.1 96.1 L 55.8 96.1 L 55.8 98.4 L 58.6 98.4 L 58.6 96.1 L 59.3 96.1 L 59.3 101.5 L 58.6 101.5 L 58.6 99.0 L 55.8 99.0 L 55.8 101.5 L 55.1 101.5 L 55.1 96.1 " fill="#FF0000"/>
<path class="atom-4" d="M 60.4 98.8 Q 60.4 97.5, 61.1 96.7 Q 61.7 96.0, 62.9 96.0 Q 64.1 96.0, 64.7 96.7 Q 65.4 97.5, 65.4 98.8 Q 65.4 100.1, 64.7 100.8 Q 64.1 101.6, 62.9 101.6 Q 61.7 101.6, 61.1 100.8 Q 60.4 100.1, 60.4 98.8 M 62.9 101.0 Q 63.7 101.0, 64.2 100.4 Q 64.6 99.9, 64.6 98.8 Q 64.6 97.7, 64.2 97.2 Q 63.7 96.6, 62.9 96.6 Q 62.1 96.6, 61.6 97.2 Q 61.2 97.7, 61.2 98.8 Q 61.2 99.9, 61.6 100.4 Q 62.1 101.0, 62.9 101.0 " fill="#FF0000"/>
<path class="atom-16" d="M 141.5 118.1 Q 141.5 116.8, 142.1 116.1 Q 142.8 115.4, 144.0 115.4 Q 145.2 115.4, 145.8 116.1 Q 146.5 116.8, 146.5 118.1 Q 146.5 119.4, 145.8 120.2 Q 145.2 120.9, 144.0 120.9 Q 142.8 120.9, 142.1 120.2 Q 141.5 119.4, 141.5 118.1 M 144.0 120.3 Q 144.8 120.3, 145.3 119.8 Q 145.7 119.2, 145.7 118.1 Q 145.7 117.0, 145.3 116.5 Q 144.8 116.0, 144.0 116.0 Q 143.2 116.0, 142.7 116.5 Q 142.3 117.0, 142.3 118.1 Q 142.3 119.2, 142.7 119.8 Q 143.2 120.3, 144.0 120.3 " fill="#FF0000"/>
<path class="atom-24" d="M 239.9 115.5 Q 239.9 114.2, 240.6 113.5 Q 241.2 112.8, 242.4 112.8 Q 243.6 112.8, 244.3 113.5 Q 244.9 114.2, 244.9 115.5 Q 244.9 116.9, 244.3 117.6 Q 243.6 118.4, 242.4 118.4 Q 241.2 118.4, 240.6 117.6 Q 239.9 116.9, 239.9 115.5 M 242.4 117.7 Q 243.2 117.7, 243.7 117.2 Q 244.1 116.6, 244.1 115.5 Q 244.1 114.5, 243.7 113.9 Q 243.2 113.4, 242.4 113.4 Q 241.6 113.4, 241.1 113.9 Q 240.7 114.5, 240.7 115.5 Q 240.7 116.6, 241.1 117.2 Q 241.6 117.7, 242.4 117.7 " fill="#FF0000"/>
<path class="atom-25" d="M 201.5 112.8 L 202.2 112.8 L 202.2 115.2 L 205.0 115.2 L 205.0 112.8 L 205.7 112.8 L 205.7 118.3 L 205.0 118.3 L 205.0 115.8 L 202.2 115.8 L 202.2 118.3 L 201.5 118.3 L 201.5 112.8 " fill="#FF0000"/>
<path class="atom-25" d="M 206.8 115.5 Q 206.8 114.2, 207.5 113.5 Q 208.1 112.8, 209.3 112.8 Q 210.5 112.8, 211.1 113.5 Q 211.8 114.2, 211.8 115.5 Q 211.8 116.9, 211.1 117.6 Q 210.5 118.3, 209.3 118.3 Q 208.1 118.3, 207.5 117.6 Q 206.8 116.9, 206.8 115.5 M 209.3 117.7 Q 210.1 117.7, 210.6 117.2 Q 211.0 116.6, 211.0 115.5 Q 211.0 114.5, 210.6 113.9 Q 210.1 113.4, 209.3 113.4 Q 208.5 113.4, 208.0 113.9 Q 207.6 114.5, 207.6 115.5 Q 207.6 116.6, 208.0 117.2 Q 208.5 117.7, 209.3 117.7 " fill="#FF0000"/>
<path class="atom-34" d="M 94.6 55.4 L 95.3 55.4 L 95.3 57.7 L 98.1 57.7 L 98.1 55.4 L 98.8 55.4 L 98.8 60.8 L 98.1 60.8 L 98.1 58.3 L 95.3 58.3 L 95.3 60.8 L 94.6 60.8 L 94.6 55.4 " fill="#000000"/>
<path class="atom-35" d="M 154.9 79.4 L 155.7 79.4 L 155.7 81.7 L 158.5 81.7 L 158.5 79.4 L 159.2 79.4 L 159.2 84.9 L 158.5 84.9 L 158.5 82.4 L 155.7 82.4 L 155.7 84.9 L 154.9 84.9 L 154.9 79.4 " fill="#000000"/>
<path class="atom-36" d="M 186.1 90.8 L 186.8 90.8 L 186.8 93.1 L 189.6 93.1 L 189.6 90.8 L 190.3 90.8 L 190.3 96.2 L 189.6 96.2 L 189.6 93.7 L 186.8 93.7 L 186.8 96.2 L 186.1 96.2 L 186.1 90.8 " fill="#000000"/>
<path class="bond-0 atom-0 atom-1" d="M 365.9,117.8 L 384.8,114.5" style="fill:none;fill-rule:evenodd;stroke:#000000;stroke-width:2.0px;stroke-linecap:butt;stroke-linejoin:miter;stroke-opacity:1"/>
<path class="bond-1 atom-1 atom-2" d="M 384.8,114.5 L 378.2,96.5" style="fill:none;fill-rule:evenodd;stroke:#000000;stroke-width:2.0px;stroke-linecap:butt;stroke-linejoin:miter;stroke-opacity:1"/>
<path class="bond-2 atom-2 atom-3" d="M 378.2,96.5 L 382.9,90.9" style="fill:none;fill-rule:evenodd;stroke:#000000;stroke-width:2.0px;stroke-linecap:butt;stroke-linejoin:miter;stroke-opacity:1"/>
<path class="bond-2 atom-2 atom-3" d="M 382.9,90.9 L 387.6,85.3" style="fill:none;fill-rule:evenodd;stroke:#FF0000;stroke-width:2.0px;stroke-linecap:butt;stroke-linejoin:miter;stroke-opacity:1"/>
<path class="bond-3 atom-3 atom-4" d="M 389.3,78.5 L 386.6,71.2" style="fill:none;fill-rule:evenodd;stroke:#FF0000;stroke-width:2.0px;stroke-linecap:butt;stroke-linejoin:miter;stroke-opacity:1"/>
<path class="bond-3 atom-3 atom-4" d="M 386.6,71.2 L 384.0,63.9" style="fill:none;fill-rule:evenodd;stroke:#000000;stroke-width:2.0px;stroke-linecap:butt;stroke-linejoin:miter;stroke-opacity:1"/>
<path class="bond-4 atom-4 atom-5" d="M 384.0,63.9 L 396.3,49.2" style="fill:none;fill-rule:evenodd;stroke:#000000;stroke-width:2.0px;stroke-linecap:butt;stroke-linejoin:miter;stroke-opacity:1"/>
<path class="bond-4 atom-4 atom-5" d="M 382.8,60.8 L 393.0,48.7" style="fill:none;fill-rule:evenodd;stroke:#000000;stroke-width:2.0px;stroke-linecap:butt;stroke-linejoin:miter;stroke-opacity:1"/>
<path class="bond-5 atom-5 atom-6" d="M 396.3,49.2 L 389.7,31.3" style="fill:none;fill-rule:evenodd;stroke:#000000;stroke-width:2.0px;stroke-linecap:butt;stroke-linejoin:miter;stroke-opacity:1"/>
<path class="bond-6 atom-6 atom-7" d="M 389.7,31.3 L 370.9,28.0" style="fill:none;fill-rule:evenodd;stroke:#000000;stroke-width:2.0px;stroke-linecap:butt;stroke-linejoin:miter;stroke-opacity:1"/>
<path class="bond-6 atom-6 atom-7" d="M 387.6,33.8 L 372.0,31.1" style="fill:none;fill-rule:evenodd;stroke:#000000;stroke-width:2.0px;stroke-linecap:butt;stroke-linejoin:miter;stroke-opacity:1"/>
<path class="bond-7 atom-7 atom-8" d="M 370.9,28.0 L 368.2,20.6" style="fill:none;fill-rule:evenodd;stroke:#000000;stroke-width:2.0px;stroke-linecap:butt;stroke-linejoin:miter;stroke-opacity:1"/>
<path class="bond-7 atom-7 atom-8" d="M 368.2,20.6 L 365.6,13.3" style="fill:none;fill-rule:evenodd;stroke:#33CCCC;stroke-width:2.0px;stroke-linecap:butt;stroke-linejoin:miter;stroke-opacity:1"/>
<path class="bond-8 atom-7 atom-9" d="M 370.9,28.0 L 358.6,42.6" style="fill:none;fill-rule:evenodd;stroke:#000000;stroke-width:2.0px;stroke-linecap:butt;stroke-linejoin:miter;stroke-opacity:1"/>
<path class="bond-9 atom-9 atom-10" d="M 358.6,42.6 L 365.1,60.6" style="fill:none;fill-rule:evenodd;stroke:#000000;stroke-width:2.0px;stroke-linecap:butt;stroke-linejoin:miter;stroke-opacity:1"/>
<path class="bond-9 atom-9 atom-10" d="M 361.9,43.2 L 367.3,58.0" style="fill:none;fill-rule:evenodd;stroke:#000000;stroke-width:2.0px;stroke-linecap:butt;stroke-linejoin:miter;stroke-opacity:1"/>
<path class="bond-10 atom-1 atom-11" d="M 384.8,114.5 L 384.8,133.6" style="fill:none;fill-rule:evenodd;stroke:#000000;stroke-width:2.0px;stroke-linecap:butt;stroke-linejoin:miter;stroke-opacity:1"/>
<path class="bond-11 atom-11 atom-12" d="M 384.8,133.6 L 401.3,143.2" style="fill:none;fill-rule:evenodd;stroke:#000000;stroke-width:2.0px;stroke-linecap:butt;stroke-linejoin:miter;stroke-opacity:1"/>
<path class="bond-12 atom-12 atom-13" d="M 401.3,143.2 L 417.9,133.6" style="fill:none;fill-rule:evenodd;stroke:#000000;stroke-width:2.0px;stroke-linecap:butt;stroke-linejoin:miter;stroke-opacity:1"/>
<path class="bond-13 atom-13 atom-14" d="M 417.9,133.6 L 417.9,152.7" style="fill:none;fill-rule:evenodd;stroke:#000000;stroke-width:2.0px;stroke-linecap:butt;stroke-linejoin:miter;stroke-opacity:1"/>
<path class="bond-14 atom-13 atom-15" d="M 417.9,133.6 L 434.5,143.2" style="fill:none;fill-rule:evenodd;stroke:#000000;stroke-width:2.0px;stroke-linecap:butt;stroke-linejoin:miter;stroke-opacity:1"/>
<path class="bond-15 atom-15 atom-16" d="M 434.5,143.2 L 451.0,133.6" style="fill:none;fill-rule:evenodd;stroke:#000000;stroke-width:2.0px;stroke-linecap:butt;stroke-linejoin:miter;stroke-opacity:1"/>
<path class="bond-16 atom-16 atom-17" d="M 451.0,133.6 L 451.0,114.5" style="fill:none;fill-rule:evenodd;stroke:#000000;stroke-width:2.0px;stroke-linecap:butt;stroke-linejoin:miter;stroke-opacity:1"/>
<path class="bond-17 atom-17 atom-18" d="M 451.0,114.5 L 451.0,95.4" style="fill:none;fill-rule:evenodd;stroke:#000000;stroke-width:2.0px;stroke-linecap:butt;stroke-linejoin:miter;stroke-opacity:1"/>
<path class="bond-18 atom-17 atom-19" d="M 451.0,114.5 L 434.5,104.9" style="fill:none;fill-rule:evenodd;stroke:#000000;stroke-width:2.0px;stroke-linecap:butt;stroke-linejoin:miter;stroke-opacity:1"/>
<path class="bond-19 atom-19 atom-20" d="M 434.5,104.9 L 434.5,85.8" style="fill:none;fill-rule:evenodd;stroke:#000000;stroke-width:2.0px;stroke-linecap:butt;stroke-linejoin:miter;stroke-opacity:1"/>
<path class="bond-19 atom-19 atom-20" d="M 437.3,103.3 L 437.3,87.4" style="fill:none;fill-rule:evenodd;stroke:#000000;stroke-width:2.0px;stroke-linecap:butt;stroke-linejoin:miter;stroke-opacity:1"/>
<path class="bond-20 atom-20 atom-21" d="M 434.5,85.8 L 451.0,76.2" style="fill:none;fill-rule:evenodd;stroke:#000000;stroke-width:2.0px;stroke-linecap:butt;stroke-linejoin:miter;stroke-opacity:1"/>
<path class="bond-21 atom-21 atom-22" d="M 452.5,77.1 L 452.5,68.8" style="fill:none;fill-rule:evenodd;stroke:#000000;stroke-width:2.0px;stroke-linecap:butt;stroke-linejoin:miter;stroke-opacity:1"/>
<path class="bond-21 atom-21 atom-22" d="M 452.5,68.8 L 452.5,60.6" style="fill:none;fill-rule:evenodd;stroke:#FF0000;stroke-width:2.0px;stroke-linecap:butt;stroke-linejoin:miter;stroke-opacity:1"/>
<path class="bond-21 atom-21 atom-22" d="M 449.6,77.1 L 449.6,68.8" style="fill:none;fill-rule:evenodd;stroke:#000000;stroke-width:2.0px;stroke-linecap:butt;stroke-linejoin:miter;stroke-opacity:1"/>
<path class="bond-21 atom-21 atom-22" d="M 449.6,68.8 L 449.6,60.6" style="fill:none;fill-rule:evenodd;stroke:#FF0000;stroke-width:2.0px;stroke-linecap:butt;stroke-linejoin:miter;stroke-opacity:1"/>
<path class="bond-22 atom-21 atom-23" d="M 451.0,76.2 L 467.6,85.8" style="fill:none;fill-rule:evenodd;stroke:#000000;stroke-width:2.0px;stroke-linecap:butt;stroke-linejoin:miter;stroke-opacity:1"/>
<path class="bond-23 atom-23 atom-24" d="M 467.6,85.8 L 484.1,76.2" style="fill:none;fill-rule:evenodd;stroke:#000000;stroke-width:2.0px;stroke-linecap:butt;stroke-linejoin:miter;stroke-opacity:1"/>
<path class="bond-24 atom-24 atom-25" d="M 484.1,76.2 L 467.6,66.7" style="fill:none;fill-rule:evenodd;stroke:#000000;stroke-width:2.0px;stroke-linecap:butt;stroke-linejoin:miter;stroke-opacity:1"/>
<path class="bond-25 atom-24 atom-26" d="M 484.1,76.2 L 484.1,57.1" style="fill:none;fill-rule:evenodd;stroke:#000000;stroke-width:2.0px;stroke-linecap:butt;stroke-linejoin:miter;stroke-opacity:1"/>
<path class="bond-26 atom-26 atom-27" d="M 484.1,57.1 L 500.7,47.5" style="fill:none;fill-rule:evenodd;stroke:#000000;stroke-width:2.0px;stroke-linecap:butt;stroke-linejoin:miter;stroke-opacity:1"/>
<path class="bond-27 atom-27 atom-28" d="M 500.7,47.5 L 517.3,57.1" style="fill:none;fill-rule:evenodd;stroke:#000000;stroke-width:2.0px;stroke-linecap:butt;stroke-linejoin:miter;stroke-opacity:1"/>
<path class="bond-28 atom-28 atom-29" d="M 517.3,57.1 L 524.0,53.2" style="fill:none;fill-rule:evenodd;stroke:#000000;stroke-width:2.0px;stroke-linecap:butt;stroke-linejoin:miter;stroke-opacity:1"/>
<path class="bond-28 atom-28 atom-29" d="M 524.0,53.2 L 530.7,49.3" style="fill:none;fill-rule:evenodd;stroke:#FF0000;stroke-width:2.0px;stroke-linecap:butt;stroke-linejoin:miter;stroke-opacity:1"/>
<path class="bond-29 atom-28 atom-30" d="M 517.3,57.1 L 517.3,76.2" style="fill:none;fill-rule:evenodd;stroke:#000000;stroke-width:2.0px;stroke-linecap:butt;stroke-linejoin:miter;stroke-opacity:1"/>
<path class="bond-30 atom-30 atom-31" d="M 517.3,76.2 L 523.8,94.2" style="fill:none;fill-rule:evenodd;stroke:#000000;stroke-width:2.0px;stroke-linecap:butt;stroke-linejoin:miter;stroke-opacity:1"/>
<path class="bond-31 atom-30 atom-32" d="M 517.3,76.2 L 536.1,72.9" style="fill:none;fill-rule:evenodd;stroke:#000000;stroke-width:2.0px;stroke-linecap:butt;stroke-linejoin:miter;stroke-opacity:1"/>
<path class="bond-32 atom-30 atom-33" d="M 517.3,76.2 L 500.7,85.8" style="fill:none;fill-rule:evenodd;stroke:#000000;stroke-width:2.0px;stroke-linecap:butt;stroke-linejoin:miter;stroke-opacity:1"/>
<path class="bond-33 atom-33 atom-34" d="M 500.7,85.8 L 500.7,104.9" style="fill:none;fill-rule:evenodd;stroke:#000000;stroke-width:2.0px;stroke-linecap:butt;stroke-linejoin:miter;stroke-opacity:1"/>
<path class="bond-34 atom-34 atom-35" d="M 500.7,104.9 L 484.1,114.5" style="fill:none;fill-rule:evenodd;stroke:#000000;stroke-width:2.0px;stroke-linecap:butt;stroke-linejoin:miter;stroke-opacity:1"/>
<path class="bond-35 atom-35 atom-36" d="M 484.1,114.5 L 467.6,104.9" style="fill:none;fill-rule:evenodd;stroke:#000000;stroke-width:2.0px;stroke-linecap:butt;stroke-linejoin:miter;stroke-opacity:1"/>
<path class="bond-36 atom-36 atom-37" d="M 467.6,104.9 L 467.6,124.0" style="fill:none;fill-rule:evenodd;stroke:#000000;stroke-width:2.0px;stroke-linecap:butt;stroke-linejoin:miter;stroke-opacity:1"/>
<path class="bond-37 atom-19 atom-38" d="M 434.5,104.9 L 417.9,114.5" style="fill:none;fill-rule:evenodd;stroke:#000000;stroke-width:2.0px;stroke-linecap:butt;stroke-linejoin:miter;stroke-opacity:1"/>
<path class="bond-38 atom-38 atom-39" d="M 417.9,114.5 L 401.3,104.9" style="fill:none;fill-rule:evenodd;stroke:#000000;stroke-width:2.0px;stroke-linecap:butt;stroke-linejoin:miter;stroke-opacity:1"/>
<path class="bond-39 atom-39 atom-1" d="M 401.3,104.9 L 384.8,114.5" style="fill:none;fill-rule:evenodd;stroke:#000000;stroke-width:2.0px;stroke-linecap:butt;stroke-linejoin:miter;stroke-opacity:1"/>
<path class="bond-40 atom-10 atom-4" d="M 365.1,60.6 L 384.0,63.9" style="fill:none;fill-rule:evenodd;stroke:#000000;stroke-width:2.0px;stroke-linecap:butt;stroke-linejoin:miter;stroke-opacity:1"/>
<path class="bond-41 atom-38 atom-13" d="M 417.9,114.5 L 417.9,133.6" style="fill:none;fill-rule:evenodd;stroke:#000000;stroke-width:2.0px;stroke-linecap:butt;stroke-linejoin:miter;stroke-opacity:1"/>
<path class="bond-42 atom-36 atom-17" d="M 467.6,104.9 L 451.0,114.5" style="fill:none;fill-rule:evenodd;stroke:#000000;stroke-width:2.0px;stroke-linecap:butt;stroke-linejoin:miter;stroke-opacity:1"/>
<path class="bond-43 atom-36 atom-23" d="M 467.6,104.9 L 467.6,85.8" style="fill:none;fill-rule:evenodd;stroke:#000000;stroke-width:2.0px;stroke-linecap:butt;stroke-linejoin:miter;stroke-opacity:1"/>
<path class="bond-44 atom-33 atom-24" d="M 500.7,85.8 L 484.1,76.2" style="fill:none;fill-rule:evenodd;stroke:#000000;stroke-width:2.0px;stroke-linecap:butt;stroke-linejoin:miter;stroke-opacity:1"/>
<path d="M 378.6,97.4 L 378.2,96.5 L 378.5,96.2" style="fill:none;stroke:#000000;stroke-width:2.0px;stroke-linecap:butt;stroke-linejoin:miter;stroke-opacity:1;"/>
<path d="M 395.7,50.0 L 396.3,49.2 L 395.9,48.3" style="fill:none;stroke:#000000;stroke-width:2.0px;stroke-linecap:butt;stroke-linejoin:miter;stroke-opacity:1;"/>
<path d="M 390.1,32.2 L 389.7,31.3 L 388.8,31.1" style="fill:none;stroke:#000000;stroke-width:2.0px;stroke-linecap:butt;stroke-linejoin:miter;stroke-opacity:1;"/>
<path d="M 359.2,41.9 L 358.6,42.6 L 358.9,43.5" style="fill:none;stroke:#000000;stroke-width:2.0px;stroke-linecap:butt;stroke-linejoin:miter;stroke-opacity:1;"/>
<path d="M 364.8,59.7 L 365.1,60.6 L 366.1,60.7" style="fill:none;stroke:#000000;stroke-width:2.0px;stroke-linecap:butt;stroke-linejoin:miter;stroke-opacity:1;"/>
<path d="M 384.8,132.7 L 384.8,133.6 L 385.6,134.1" style="fill:none;stroke:#000000;stroke-width:2.0px;stroke-linecap:butt;stroke-linejoin:miter;stroke-opacity:1;"/>
<path d="M 400.5,142.7 L 401.3,143.2 L 402.2,142.7" style="fill:none;stroke:#000000;stroke-width:2.0px;stroke-linecap:butt;stroke-linejoin:miter;stroke-opacity:1;"/>
<path d="M 433.6,142.7 L 434.5,143.2 L 435.3,142.7" style="fill:none;stroke:#000000;stroke-width:2.0px;stroke-linecap:butt;stroke-linejoin:miter;stroke-opacity:1;"/>
<path d="M 450.2,134.1 L 451.0,133.6 L 451.0,132.6" style="fill:none;stroke:#000000;stroke-width:2.0px;stroke-linecap:butt;stroke-linejoin:miter;stroke-opacity:1;"/>
<path d="M 434.5,86.7 L 434.5,85.8 L 435.3,85.3" style="fill:none;stroke:#000000;stroke-width:2.0px;stroke-linecap:butt;stroke-linejoin:miter;stroke-opacity:1;"/>
<path d="M 450.2,76.7 L 451.0,76.2 L 451.8,76.7" style="fill:none;stroke:#000000;stroke-width:2.0px;stroke-linecap:butt;stroke-linejoin:miter;stroke-opacity:1;"/>
<path d="M 484.1,58.1 L 484.1,57.1 L 485.0,56.6" style="fill:none;stroke:#000000;stroke-width:2.0px;stroke-linecap:butt;stroke-linejoin:miter;stroke-opacity:1;"/>
<path d="M 499.9,48.0 L 500.7,47.5 L 501.5,48.0" style="fill:none;stroke:#000000;stroke-width:2.0px;stroke-linecap:butt;stroke-linejoin:miter;stroke-opacity:1;"/>
<path d="M 500.7,104.0 L 500.7,104.9 L 499.9,105.4" style="fill:none;stroke:#000000;stroke-width:2.0px;stroke-linecap:butt;stroke-linejoin:miter;stroke-opacity:1;"/>
<path d="M 485.0,114.0 L 484.1,114.5 L 483.3,114.0" style="fill:none;stroke:#000000;stroke-width:2.0px;stroke-linecap:butt;stroke-linejoin:miter;stroke-opacity:1;"/>
<path d="M 402.2,105.4 L 401.3,104.9 L 400.5,105.4" style="fill:none;stroke:#000000;stroke-width:2.0px;stroke-linecap:butt;stroke-linejoin:miter;stroke-opacity:1;"/>
<path class="atom-3" d="M 388.0 81.9 Q 388.0 80.6, 388.7 79.8 Q 389.3 79.1, 390.5 79.1 Q 391.7 79.1, 392.4 79.8 Q 393.0 80.6, 393.0 81.9 Q 393.0 83.2, 392.4 83.9 Q 391.7 84.7, 390.5 84.7 Q 389.3 84.7, 388.7 83.9 Q 388.0 83.2, 388.0 81.9 M 390.5 84.1 Q 391.4 84.1, 391.8 83.5 Q 392.2 83.0, 392.2 81.9 Q 392.2 80.8, 391.8 80.3 Q 391.4 79.7, 390.5 79.7 Q 389.7 79.7, 389.2 80.3 Q 388.8 80.8, 388.8 81.9 Q 388.8 83.0, 389.2 83.5 Q 389.7 84.1, 390.5 84.1 " fill="#FF0000"/>
<path class="atom-8" d="M 362.7 7.3 L 366.0 7.3 L 366.0 7.9 L 363.5 7.9 L 363.5 9.5 L 365.7 9.5 L 365.7 10.2 L 363.5 10.2 L 363.5 12.7 L 362.7 12.7 L 362.7 7.3 " fill="#33CCCC"/>
<path class="atom-22" d="M 448.5 57.1 Q 448.5 55.8, 449.2 55.1 Q 449.8 54.4, 451.0 54.4 Q 452.2 54.4, 452.9 55.1 Q 453.5 55.8, 453.5 57.1 Q 453.5 58.4, 452.9 59.2 Q 452.2 59.9, 451.0 59.9 Q 449.8 59.9, 449.2 59.2 Q 448.5 58.4, 448.5 57.1 M 451.0 59.3 Q 451.8 59.3, 452.3 58.8 Q 452.7 58.2, 452.7 57.1 Q 452.7 56.1, 452.3 55.5 Q 451.8 55.0, 451.0 55.0 Q 450.2 55.0, 449.7 55.5 Q 449.3 56.0, 449.3 57.1 Q 449.3 58.2, 449.7 58.8 Q 450.2 59.3, 451.0 59.3 " fill="#FF0000"/>
<path class="atom-29" d="M 531.3 47.5 Q 531.3 46.2, 532.0 45.5 Q 532.6 44.8, 533.8 44.8 Q 535.0 44.8, 535.7 45.5 Q 536.3 46.2, 536.3 47.5 Q 536.3 48.9, 535.7 49.6 Q 535.0 50.4, 533.8 50.4 Q 532.6 50.4, 532.0 49.6 Q 531.3 48.9, 531.3 47.5 M 533.8 49.7 Q 534.7 49.7, 535.1 49.2 Q 535.5 48.6, 535.5 47.5 Q 535.5 46.5, 535.1 45.9 Q 534.7 45.4, 533.8 45.4 Q 533.0 45.4, 532.5 45.9 Q 532.1 46.5, 532.1 47.5 Q 532.1 48.6, 532.5 49.2 Q 533.0 49.7, 533.8 49.7 " fill="#FF0000"/>
<path class="atom-29" d="M 537.2 44.9 L 537.9 44.9 L 537.9 47.2 L 540.7 47.2 L 540.7 44.9 L 541.4 44.9 L 541.4 50.3 L 540.7 50.3 L 540.7 47.8 L 537.9 47.8 L 537.9 50.3 L 537.2 50.3 L 537.2 44.9 " fill="#FF0000"/>
<path class="bond-0 atom-0 atom-1" d="M 729.2,88.4 L 732.6,81.4" style="fill:none;fill-rule:evenodd;stroke:#000000;stroke-width:2.0px;stroke-linecap:butt;stroke-linejoin:miter;stroke-opacity:1"/>
<path class="bond-0 atom-0 atom-1" d="M 732.6,81.4 L 736.0,74.5" style="fill:none;fill-rule:evenodd;stroke:#0000FF;stroke-width:2.0px;stroke-linecap:butt;stroke-linejoin:miter;stroke-opacity:1"/>
<path class="bond-1 atom-1 atom-2" d="M 740.3,70.7 L 748.4,69.3" style="fill:none;fill-rule:evenodd;stroke:#0000FF;stroke-width:2.0px;stroke-linecap:butt;stroke-linejoin:miter;stroke-opacity:1"/>
<path class="bond-1 atom-1 atom-2" d="M 748.4,69.3 L 756.5,67.9" style="fill:none;fill-rule:evenodd;stroke:#000000;stroke-width:2.0px;stroke-linecap:butt;stroke-linejoin:miter;stroke-opacity:1"/>
<path class="bond-2 atom-2 atom-3" d="M 756.5,67.9 L 770.2,81.2" style="fill:none;fill-rule:evenodd;stroke:#000000;stroke-width:2.0px;stroke-linecap:butt;stroke-linejoin:miter;stroke-opacity:1"/>
<path class="bond-3 atom-3 atom-4" d="M 770.2,81.2 L 765.5,99.8" style="fill:none;fill-rule:evenodd;stroke:#000000;stroke-width:2.0px;stroke-linecap:butt;stroke-linejoin:miter;stroke-opacity:1"/>
<path class="bond-3 atom-3 atom-4" d="M 772.6,83.5 L 768.7,98.9" style="fill:none;fill-rule:evenodd;stroke:#000000;stroke-width:2.0px;stroke-linecap:butt;stroke-linejoin:miter;stroke-opacity:1"/>
<path class="bond-4 atom-4 atom-5" d="M 765.5,99.8 L 779.3,113.1" style="fill:none;fill-rule:evenodd;stroke:#000000;stroke-width:2.0px;stroke-linecap:butt;stroke-linejoin:miter;stroke-opacity:1"/>
<path class="bond-5 atom-5 atom-6" d="M 779.3,113.1 L 797.7,107.8" style="fill:none;fill-rule:evenodd;stroke:#000000;stroke-width:2.0px;stroke-linecap:butt;stroke-linejoin:miter;stroke-opacity:1"/>
<path class="bond-5 atom-5 atom-6" d="M 780.1,109.9 L 795.3,105.5" style="fill:none;fill-rule:evenodd;stroke:#000000;stroke-width:2.0px;stroke-linecap:butt;stroke-linejoin:miter;stroke-opacity:1"/>
<path class="bond-6 atom-6 atom-7" d="M 797.7,107.8 L 802.3,89.3" style="fill:none;fill-rule:evenodd;stroke:#000000;stroke-width:2.0px;stroke-linecap:butt;stroke-linejoin:miter;stroke-opacity:1"/>
<path class="bond-7 atom-7 atom-8" d="M 802.3,89.3 L 788.6,76.0" style="fill:none;fill-rule:evenodd;stroke:#000000;stroke-width:2.0px;stroke-linecap:butt;stroke-linejoin:miter;stroke-opacity:1"/>
<path class="bond-7 atom-7 atom-8" d="M 799.1,90.2 L 787.8,79.2" style="fill:none;fill-rule:evenodd;stroke:#000000;stroke-width:2.0px;stroke-linecap:butt;stroke-linejoin:miter;stroke-opacity:1"/>
<path class="bond-8 atom-8 atom-9" d="M 788.6,76.0 L 793.2,57.4" style="fill:none;fill-rule:evenodd;stroke:#000000;stroke-width:2.0px;stroke-linecap:butt;stroke-linejoin:miter;stroke-opacity:1"/>
<path class="bond-9 atom-9 atom-10" d="M 793.2,57.4 L 795.2,49.8" style="fill:none;fill-rule:evenodd;stroke:#000000;stroke-width:2.0px;stroke-linecap:butt;stroke-linejoin:miter;stroke-opacity:1"/>
<path class="bond-9 atom-9 atom-10" d="M 795.2,49.8 L 797.1,42.2" style="fill:none;fill-rule:evenodd;stroke:#33CCCC;stroke-width:2.0px;stroke-linecap:butt;stroke-linejoin:miter;stroke-opacity:1"/>
<path class="bond-10 atom-9 atom-11" d="M 793.2,57.4 L 801.4,59.5" style="fill:none;fill-rule:evenodd;stroke:#000000;stroke-width:2.0px;stroke-linecap:butt;stroke-linejoin:miter;stroke-opacity:1"/>
<path class="bond-10 atom-9 atom-11" d="M 801.4,59.5 L 809.5,61.5" style="fill:none;fill-rule:evenodd;stroke:#33CCCC;stroke-width:2.0px;stroke-linecap:butt;stroke-linejoin:miter;stroke-opacity:1"/>
<path class="bond-11 atom-9 atom-12" d="M 793.2,57.4 L 785.1,55.4" style="fill:none;fill-rule:evenodd;stroke:#000000;stroke-width:2.0px;stroke-linecap:butt;stroke-linejoin:miter;stroke-opacity:1"/>
<path class="bond-11 atom-9 atom-12" d="M 785.1,55.4 L 776.9,53.3" style="fill:none;fill-rule:evenodd;stroke:#33CCCC;stroke-width:2.0px;stroke-linecap:butt;stroke-linejoin:miter;stroke-opacity:1"/>
<path class="bond-12 atom-2 atom-13" d="M 756.5,67.9 L 757.6,60.1" style="fill:none;fill-rule:evenodd;stroke:#000000;stroke-width:2.0px;stroke-linecap:butt;stroke-linejoin:miter;stroke-opacity:1"/>
<path class="bond-12 atom-2 atom-13" d="M 757.6,60.1 L 758.7,52.3" style="fill:none;fill-rule:evenodd;stroke:#0000FF;stroke-width:2.0px;stroke-linecap:butt;stroke-linejoin:miter;stroke-opacity:1"/>
<path class="bond-12 atom-2 atom-13" d="M 753.9,65.4 L 754.9,58.7" style="fill:none;fill-rule:evenodd;stroke:#000000;stroke-width:2.0px;stroke-linecap:butt;stroke-linejoin:miter;stroke-opacity:1"/>
<path class="bond-12 atom-2 atom-13" d="M 754.9,58.7 L 755.8,51.9" style="fill:none;fill-rule:evenodd;stroke:#0000FF;stroke-width:2.0px;stroke-linecap:butt;stroke-linejoin:miter;stroke-opacity:1"/>
<path class="bond-13 atom-13 atom-14" d="M 756.5,47.7 L 744.7,41.9" style="fill:none;fill-rule:evenodd;stroke:#0000FF;stroke-width:2.0px;stroke-linecap:butt;stroke-linejoin:miter;stroke-opacity:1"/>
<path class="bond-14 atom-14 atom-15" d="M 739.3,43.3 L 734.0,48.8" style="fill:none;fill-rule:evenodd;stroke:#0000FF;stroke-width:2.0px;stroke-linecap:butt;stroke-linejoin:miter;stroke-opacity:1"/>
<path class="bond-14 atom-14 atom-15" d="M 734.0,48.8 L 728.7,54.3" style="fill:none;fill-rule:evenodd;stroke:#000000;stroke-width:2.0px;stroke-linecap:butt;stroke-linejoin:miter;stroke-opacity:1"/>
<path class="bond-14 atom-14 atom-15" d="M 741.4,45.3 L 736.8,50.1" style="fill:none;fill-rule:evenodd;stroke:#0000FF;stroke-width:2.0px;stroke-linecap:butt;stroke-linejoin:miter;stroke-opacity:1"/>
<path class="bond-14 atom-14 atom-15" d="M 736.8,50.1 L 732.2,54.8" style="fill:none;fill-rule:evenodd;stroke:#000000;stroke-width:2.0px;stroke-linecap:butt;stroke-linejoin:miter;stroke-opacity:1"/>
<path class="bond-15 atom-15 atom-16" d="M 728.7,54.3 L 709.7,51.6" style="fill:none;fill-rule:evenodd;stroke:#000000;stroke-width:2.0px;stroke-linecap:butt;stroke-linejoin:miter;stroke-opacity:1"/>
<path class="bond-16 atom-16 atom-17" d="M 709.7,51.6 L 707.0,70.5" style="fill:none;fill-rule:evenodd;stroke:#000000;stroke-width:2.0px;stroke-linecap:butt;stroke-linejoin:miter;stroke-opacity:1"/>
<path class="bond-17 atom-17 atom-18" d="M 707.0,70.5 L 689.3,77.7" style="fill:none;fill-rule:evenodd;stroke:#000000;stroke-width:2.0px;stroke-linecap:butt;stroke-linejoin:miter;stroke-opacity:1"/>
<path class="bond-17 atom-17 atom-18" d="M 706.6,73.8 L 691.9,79.7" style="fill:none;fill-rule:evenodd;stroke:#000000;stroke-width:2.0px;stroke-linecap:butt;stroke-linejoin:miter;stroke-opacity:1"/>
<path class="bond-18 atom-18 atom-19" d="M 689.3,77.7 L 686.6,96.6" style="fill:none;fill-rule:evenodd;stroke:#000000;stroke-width:2.0px;stroke-linecap:butt;stroke-linejoin:miter;stroke-opacity:1"/>
<path class="bond-19 atom-19 atom-20" d="M 686.6,96.6 L 701.7,108.4" style="fill:none;fill-rule:evenodd;stroke:#000000;stroke-width:2.0px;stroke-linecap:butt;stroke-linejoin:miter;stroke-opacity:1"/>
<path class="bond-19 atom-19 atom-20" d="M 689.7,95.4 L 702.1,105.1" style="fill:none;fill-rule:evenodd;stroke:#000000;stroke-width:2.0px;stroke-linecap:butt;stroke-linejoin:miter;stroke-opacity:1"/>
<path class="bond-20 atom-20 atom-21" d="M 701.7,108.4 L 700.5,116.2" style="fill:none;fill-rule:evenodd;stroke:#000000;stroke-width:2.0px;stroke-linecap:butt;stroke-linejoin:miter;stroke-opacity:1"/>
<path class="bond-20 atom-20 atom-21" d="M 700.5,116.2 L 699.4,124.0" style="fill:none;fill-rule:evenodd;stroke:#33CCCC;stroke-width:2.0px;stroke-linecap:butt;stroke-linejoin:miter;stroke-opacity:1"/>
<path class="bond-21 atom-20 atom-22" d="M 701.7,108.4 L 719.4,101.3" style="fill:none;fill-rule:evenodd;stroke:#000000;stroke-width:2.0px;stroke-linecap:butt;stroke-linejoin:miter;stroke-opacity:1"/>
<path class="bond-22 atom-22 atom-23" d="M 719.4,101.3 L 722.1,82.3" style="fill:none;fill-rule:evenodd;stroke:#000000;stroke-width:2.0px;stroke-linecap:butt;stroke-linejoin:miter;stroke-opacity:1"/>
<path class="bond-22 atom-22 atom-23" d="M 716.8,99.2 L 719.0,83.6" style="fill:none;fill-rule:evenodd;stroke:#000000;stroke-width:2.0px;stroke-linecap:butt;stroke-linejoin:miter;stroke-opacity:1"/>
<path class="bond-23 atom-16 atom-24" d="M 709.7,51.6 L 712.4,32.7" style="fill:none;fill-rule:evenodd;stroke:#000000;stroke-width:2.0px;stroke-linecap:butt;stroke-linejoin:miter;stroke-opacity:1"/>
<path class="bond-24 atom-24 atom-25" d="M 712.4,32.7 L 693.5,30.0" style="fill:none;fill-rule:evenodd;stroke:#000000;stroke-width:2.0px;stroke-linecap:butt;stroke-linejoin:miter;stroke-opacity:1"/>
<path class="bond-25 atom-25 atom-26" d="M 693.5,30.0 L 690.8,48.9" style="fill:none;fill-rule:evenodd;stroke:#000000;stroke-width:2.0px;stroke-linecap:butt;stroke-linejoin:miter;stroke-opacity:1"/>
<path class="bond-26 atom-15 atom-1" d="M 728.7,54.3 L 732.3,61.1" style="fill:none;fill-rule:evenodd;stroke:#000000;stroke-width:2.0px;stroke-linecap:butt;stroke-linejoin:miter;stroke-opacity:1"/>
<path class="bond-26 atom-15 atom-1" d="M 732.3,61.1 L 735.8,67.8" style="fill:none;fill-rule:evenodd;stroke:#0000FF;stroke-width:2.0px;stroke-linecap:butt;stroke-linejoin:miter;stroke-opacity:1"/>
<path class="bond-27 atom-26 atom-16" d="M 690.8,48.9 L 709.7,51.6" style="fill:none;fill-rule:evenodd;stroke:#000000;stroke-width:2.0px;stroke-linecap:butt;stroke-linejoin:miter;stroke-opacity:1"/>
<path class="bond-28 atom-8 atom-3" d="M 788.6,76.0 L 770.2,81.2" style="fill:none;fill-rule:evenodd;stroke:#000000;stroke-width:2.0px;stroke-linecap:butt;stroke-linejoin:miter;stroke-opacity:1"/>
<path class="bond-29 atom-23 atom-17" d="M 722.1,82.3 L 707.0,70.5" style="fill:none;fill-rule:evenodd;stroke:#000000;stroke-width:2.0px;stroke-linecap:butt;stroke-linejoin:miter;stroke-opacity:1"/>
<path d="M 765.8,98.8 L 765.5,99.8 L 766.2,100.4" style="fill:none;stroke:#000000;stroke-width:2.0px;stroke-linecap:butt;stroke-linejoin:miter;stroke-opacity:1;"/>
<path d="M 778.6,112.4 L 779.3,113.1 L 780.2,112.8" style="fill:none;stroke:#000000;stroke-width:2.0px;stroke-linecap:butt;stroke-linejoin:miter;stroke-opacity:1;"/>
<path d="M 796.7,108.1 L 797.7,107.8 L 797.9,106.9" style="fill:none;stroke:#000000;stroke-width:2.0px;stroke-linecap:butt;stroke-linejoin:miter;stroke-opacity:1;"/>
<path d="M 802.1,90.2 L 802.3,89.3 L 801.6,88.6" style="fill:none;stroke:#000000;stroke-width:2.0px;stroke-linecap:butt;stroke-linejoin:miter;stroke-opacity:1;"/>
<path d="M 690.2,77.3 L 689.3,77.7 L 689.2,78.6" style="fill:none;stroke:#000000;stroke-width:2.0px;stroke-linecap:butt;stroke-linejoin:miter;stroke-opacity:1;"/>
<path d="M 686.7,95.6 L 686.6,96.6 L 687.4,97.2" style="fill:none;stroke:#000000;stroke-width:2.0px;stroke-linecap:butt;stroke-linejoin:miter;stroke-opacity:1;"/>
<path d="M 718.5,101.6 L 719.4,101.3 L 719.5,100.3" style="fill:none;stroke:#000000;stroke-width:2.0px;stroke-linecap:butt;stroke-linejoin:miter;stroke-opacity:1;"/>
<path d="M 722.0,83.3 L 722.1,82.3 L 721.3,81.7" style="fill:none;stroke:#000000;stroke-width:2.0px;stroke-linecap:butt;stroke-linejoin:miter;stroke-opacity:1;"/>
<path d="M 712.3,33.6 L 712.4,32.7 L 711.5,32.5" style="fill:none;stroke:#000000;stroke-width:2.0px;stroke-linecap:butt;stroke-linejoin:miter;stroke-opacity:1;"/>
<path d="M 694.4,30.1 L 693.5,30.0 L 693.4,30.9" style="fill:none;stroke:#000000;stroke-width:2.0px;stroke-linecap:butt;stroke-linejoin:miter;stroke-opacity:1;"/>
<path d="M 690.9,48.0 L 690.8,48.9 L 691.7,49.0" style="fill:none;stroke:#000000;stroke-width:2.0px;stroke-linecap:butt;stroke-linejoin:miter;stroke-opacity:1;"/>
<path class="atom-1" d="M 736.4 68.5 L 738.2 71.3 Q 738.4 71.6, 738.7 72.1 Q 738.9 72.7, 739.0 72.7 L 739.0 68.5 L 739.7 68.5 L 739.7 73.9 L 738.9 73.9 L 737.0 70.8 Q 736.8 70.4, 736.6 70.0 Q 736.3 69.6, 736.3 69.4 L 736.3 73.9 L 735.6 73.9 L 735.6 68.5 L 736.4 68.5 " fill="#0000FF"/>
<path class="atom-10" d="M 796.3 36.2 L 799.5 36.2 L 799.5 36.8 L 797.0 36.8 L 797.0 38.4 L 799.2 38.4 L 799.2 39.1 L 797.0 39.1 L 797.0 41.6 L 796.3 41.6 L 796.3 36.2 " fill="#33CCCC"/>
<path class="atom-11" d="M 810.2 59.4 L 813.4 59.4 L 813.4 60.0 L 810.9 60.0 L 810.9 61.6 L 813.1 61.6 L 813.1 62.3 L 810.9 62.3 L 810.9 64.8 L 810.2 64.8 L 810.2 59.4 " fill="#33CCCC"/>
<path class="atom-12" d="M 773.1 50.1 L 776.3 50.1 L 776.3 50.7 L 773.8 50.7 L 773.8 52.3 L 776.0 52.3 L 776.0 52.9 L 773.8 52.9 L 773.8 55.5 L 773.1 55.5 L 773.1 50.1 " fill="#33CCCC"/>
<path class="atom-13" d="M 758.0 46.3 L 759.7 49.1 Q 759.9 49.4, 760.2 49.9 Q 760.5 50.4, 760.5 50.5 L 760.5 46.3 L 761.2 46.3 L 761.2 51.7 L 760.5 51.7 L 758.6 48.5 Q 758.3 48.2, 758.1 47.8 Q 757.9 47.3, 757.8 47.2 L 757.8 51.7 L 757.1 51.7 L 757.1 46.3 L 758.0 46.3 " fill="#0000FF"/>
<path class="atom-14" d="M 740.8 37.8 L 742.6 40.7 Q 742.7 41.0, 743.0 41.5 Q 743.3 42.0, 743.3 42.1 L 743.3 37.8 L 744.0 37.8 L 744.0 43.3 L 743.3 43.3 L 741.4 40.1 Q 741.2 39.8, 740.9 39.3 Q 740.7 38.9, 740.6 38.8 L 740.6 43.3 L 739.9 43.3 L 739.9 37.8 L 740.8 37.8 " fill="#0000FF"/>
<path class="atom-21" d="M 697.3 124.6 L 700.6 124.6 L 700.6 125.2 L 698.1 125.2 L 698.1 126.9 L 700.3 126.9 L 700.3 127.5 L 698.1 127.5 L 698.1 130.0 L 697.3 130.0 L 697.3 124.6 " fill="#33CCCC"/>
</svg>