<svg xmlns="http://www.w3.org/2000/svg" xmlns:rdkit="http://www.rdkit.org/xml" xmlns:xlink="http://www.w3.org/1999/xlink" version="1.1" baseProfile="full" xml:space="preserve" width="900px" height="160px" viewBox="0 0 900 160">
<!-- END OF HEADER -->
<rect style="opacity:1.0;fill:#FFFFFF;stroke:none" width="900.0" height="160.0" x="0.0" y="0.0"> </rect>
<path class="bond-0 atom-0 atom-1" d="M 88.1,60.0 L 90.2,77.6" style="fill:none;fill-rule:evenodd;stroke:#000000;stroke-width:2.0px;stroke-linecap:butt;stroke-linejoin:miter;stroke-opacity:1"/>
<path class="bond-1 atom-1 atom-2" d="M 90.2,77.6 L 72.7,74.6" style="fill:none;fill-rule:evenodd;stroke:#000000;stroke-width:2.0px;stroke-linecap:butt;stroke-linejoin:miter;stroke-opacity:1"/>
<path class="bond-2 atom-1 atom-3" d="M 90.2,77.6 L 84.1,94.3" style="fill:none;fill-rule:evenodd;stroke:#000000;stroke-width:2.0px;stroke-linecap:butt;stroke-linejoin:miter;stroke-opacity:1"/>
<path class="bond-3 atom-3 atom-4" d="M 84.7,92.9 L 77.0,94.3" style="fill:none;fill-rule:evenodd;stroke:#000000;stroke-width:2.0px;stroke-linecap:butt;stroke-linejoin:miter;stroke-opacity:1"/>
<path class="bond-3 atom-3 atom-4" d="M 77.0,94.3 L 69.3,95.6" style="fill:none;fill-rule:evenodd;stroke:#FF0000;stroke-width:2.0px;stroke-linecap:butt;stroke-linejoin:miter;stroke-opacity:1"/>
<path class="bond-3 atom-3 atom-4" d="M 85.1,95.5 L 77.4,96.8" style="fill:none;fill-rule:evenodd;stroke:#000000;stroke-width:2.0px;stroke-linecap:butt;stroke-linejoin:miter;stroke-opacity:1"/>
<path class="bond-3 atom-3 atom-4" d="M 77.4,96.8 L 69.8,98.2" style="fill:none;fill-rule:evenodd;stroke:#FF0000;stroke-width:2.0px;stroke-linecap:butt;stroke-linejoin:miter;stroke-opacity:1"/>
<path class="bond-4 atom-3 atom-5" d="M 84.1,94.3 L 95.6,107.9" style="fill:none;fill-rule:evenodd;stroke:#000000;stroke-width:2.0px;stroke-linecap:butt;stroke-linejoin:miter;stroke-opacity:1"/>
<path class="bond-5 atom-5 atom-6" d="M 95.6,107.9 L 113.0,104.8" style="fill:none;fill-rule:evenodd;stroke:#000000;stroke-width:2.0px;stroke-linecap:butt;stroke-linejoin:miter;stroke-opacity:1"/>
<path class="bond-6 atom-6 atom-7" d="M 113.0,104.8 L 119.1,88.2" style="fill:none;fill-rule:evenodd;stroke:#000000;stroke-width:2.0px;stroke-linecap:butt;stroke-linejoin:miter;stroke-opacity:1"/>
<path class="bond-7 atom-7 atom-8" d="M 121.6,90.7 L 121.2,91.0" style="fill:none;fill-rule:evenodd;stroke:#000000;stroke-width:1.0px;stroke-linecap:butt;stroke-linejoin:miter;stroke-opacity:1"/>
<path class="bond-7 atom-7 atom-8" d="M 124.1,93.3 L 123.3,93.9" style="fill:none;fill-rule:evenodd;stroke:#000000;stroke-width:1.0px;stroke-linecap:butt;stroke-linejoin:miter;stroke-opacity:1"/>
<path class="bond-7 atom-7 atom-8" d="M 126.6,95.8 L 125.4,96.8" style="fill:none;fill-rule:evenodd;stroke:#000000;stroke-width:1.0px;stroke-linecap:butt;stroke-linejoin:miter;stroke-opacity:1"/>
<path class="bond-7 atom-7 atom-8" d="M 129.0,98.4 L 127.4,99.7" style="fill:none;fill-rule:evenodd;stroke:#000000;stroke-width:1.0px;stroke-linecap:butt;stroke-linejoin:miter;stroke-opacity:1"/>
<path class="bond-7 atom-7 atom-8" d="M 131.5,100.9 L 129.5,102.6" style="fill:none;fill-rule:evenodd;stroke:#000000;stroke-width:1.0px;stroke-linecap:butt;stroke-linejoin:miter;stroke-opacity:1"/>
<path class="bond-8 atom-7 atom-9" d="M 119.1,88.2 L 107.7,74.6" style="fill:none;fill-rule:evenodd;stroke:#000000;stroke-width:2.0px;stroke-linecap:butt;stroke-linejoin:miter;stroke-opacity:1"/>
<path class="bond-9 atom-9 atom-10" d="M 107.7,74.6 L 113.8,57.9" style="fill:none;fill-rule:evenodd;stroke:#000000;stroke-width:2.0px;stroke-linecap:butt;stroke-linejoin:miter;stroke-opacity:1"/>
<path class="bond-10 atom-10 atom-11" d="M 113.8,57.9 L 131.3,54.8" style="fill:none;fill-rule:evenodd;stroke:#000000;stroke-width:2.0px;stroke-linecap:butt;stroke-linejoin:miter;stroke-opacity:1"/>
<path class="bond-11 atom-11 atom-12" d="M 131.3,54.8 L 142.7,68.4" style="fill:none;fill-rule:evenodd;stroke:#000000;stroke-width:2.0px;stroke-linecap:butt;stroke-linejoin:miter;stroke-opacity:1"/>
<path class="bond-12 atom-12 atom-13" d="M 143.1,64.5 L 144.0,64.7" style="fill:none;fill-rule:evenodd;stroke:#000000;stroke-width:1.0px;stroke-linecap:butt;stroke-linejoin:miter;stroke-opacity:1"/>
<path class="bond-12 atom-12 atom-13" d="M 143.6,60.6 L 145.3,61.0" style="fill:none;fill-rule:evenodd;stroke:#000000;stroke-width:1.0px;stroke-linecap:butt;stroke-linejoin:miter;stroke-opacity:1"/>
<path class="bond-12 atom-12 atom-13" d="M 144.0,56.8 L 146.6,57.3" style="fill:none;fill-rule:evenodd;stroke:#000000;stroke-width:1.0px;stroke-linecap:butt;stroke-linejoin:miter;stroke-opacity:1"/>
<path class="bond-13 atom-12 atom-14" d="M 142.7,68.4 L 136.6,85.1" style="fill:none;fill-rule:evenodd;stroke:#000000;stroke-width:2.0px;stroke-linecap:butt;stroke-linejoin:miter;stroke-opacity:1"/>
<path class="bond-14 atom-14 atom-15" d="M 136.6,85.1 L 148.0,98.7" style="fill:none;fill-rule:evenodd;stroke:#000000;stroke-width:2.0px;stroke-linecap:butt;stroke-linejoin:miter;stroke-opacity:1"/>
<path class="bond-15 atom-15 atom-16" d="M 147.0,97.5 L 144.4,104.7" style="fill:none;fill-rule:evenodd;stroke:#000000;stroke-width:2.0px;stroke-linecap:butt;stroke-linejoin:miter;stroke-opacity:1"/>
<path class="bond-15 atom-15 atom-16" d="M 144.4,104.7 L 141.8,111.8" style="fill:none;fill-rule:evenodd;stroke:#FF0000;stroke-width:2.0px;stroke-linecap:butt;stroke-linejoin:miter;stroke-opacity:1"/>
<path class="bond-15 atom-15 atom-16" d="M 149.5,98.4 L 146.9,105.6" style="fill:none;fill-rule:evenodd;stroke:#000000;stroke-width:2.0px;stroke-linecap:butt;stroke-linejoin:miter;stroke-opacity:1"/>
<path class="bond-15 atom-15 atom-16" d="M 146.9,105.6 L 144.3,112.7" style="fill:none;fill-rule:evenodd;stroke:#FF0000;stroke-width:2.0px;stroke-linecap:butt;stroke-linejoin:miter;stroke-opacity:1"/>
<path class="bond-16 atom-15 atom-17" d="M 148.0,98.7 L 165.5,95.6" style="fill:none;fill-rule:evenodd;stroke:#000000;stroke-width:2.0px;stroke-linecap:butt;stroke-linejoin:miter;stroke-opacity:1"/>
<path class="bond-17 atom-17 atom-18" d="M 165.5,95.6 L 171.6,78.9" style="fill:none;fill-rule:evenodd;stroke:#000000;stroke-width:2.0px;stroke-linecap:butt;stroke-linejoin:miter;stroke-opacity:1"/>
<path class="bond-17 atom-17 atom-18" d="M 163.5,93.3 L 168.6,79.4" style="fill:none;fill-rule:evenodd;stroke:#000000;stroke-width:2.0px;stroke-linecap:butt;stroke-linejoin:miter;stroke-opacity:1"/>
<path class="bond-18 atom-18 atom-19" d="M 171.6,78.9 L 189.0,75.8" style="fill:none;fill-rule:evenodd;stroke:#000000;stroke-width:2.0px;stroke-linecap:butt;stroke-linejoin:miter;stroke-opacity:1"/>
<path class="bond-19 atom-19 atom-20" d="M 189.0,75.8 L 200.5,89.4" style="fill:none;fill-rule:evenodd;stroke:#000000;stroke-width:2.0px;stroke-linecap:butt;stroke-linejoin:miter;stroke-opacity:1"/>
<path class="bond-20 atom-20 atom-21" d="M 200.5,89.4 L 217.9,86.4" style="fill:none;fill-rule:evenodd;stroke:#000000;stroke-width:2.0px;stroke-linecap:butt;stroke-linejoin:miter;stroke-opacity:1"/>
<path class="bond-21 atom-21 atom-22" d="M 217.9,86.4 L 235.7,88.1 L 235.2,90.7 Z" style="fill:#000000;fill-rule:evenodd;fill-opacity:1;stroke:#000000;stroke-width:0.5px;stroke-linecap:butt;stroke-linejoin:miter;stroke-opacity:1;"/>
<path class="bond-22 atom-21 atom-23" d="M 217.9,86.4 L 217.9,104.1" style="fill:none;fill-rule:evenodd;stroke:#000000;stroke-width:2.0px;stroke-linecap:butt;stroke-linejoin:miter;stroke-opacity:1"/>
<path class="bond-23 atom-23 atom-24" d="M 216.6,104.9 L 223.2,108.7" style="fill:none;fill-rule:evenodd;stroke:#000000;stroke-width:2.0px;stroke-linecap:butt;stroke-linejoin:miter;stroke-opacity:1"/>
<path class="bond-23 atom-23 atom-24" d="M 223.2,108.7 L 229.8,112.5" style="fill:none;fill-rule:evenodd;stroke:#FF0000;stroke-width:2.0px;stroke-linecap:butt;stroke-linejoin:miter;stroke-opacity:1"/>
<path class="bond-23 atom-23 atom-24" d="M 217.9,102.6 L 224.5,106.4" style="fill:none;fill-rule:evenodd;stroke:#000000;stroke-width:2.0px;stroke-linecap:butt;stroke-linejoin:miter;stroke-opacity:1"/>
<path class="bond-23 atom-23 atom-24" d="M 224.5,106.4 L 231.1,110.2" style="fill:none;fill-rule:evenodd;stroke:#FF0000;stroke-width:2.0px;stroke-linecap:butt;stroke-linejoin:miter;stroke-opacity:1"/>
<path class="bond-24 atom-23 atom-25" d="M 217.9,104.1 L 211.7,107.7" style="fill:none;fill-rule:evenodd;stroke:#000000;stroke-width:2.0px;stroke-linecap:butt;stroke-linejoin:miter;stroke-opacity:1"/>
<path class="bond-24 atom-23 atom-25" d="M 211.7,107.7 L 205.4,111.3" style="fill:none;fill-rule:evenodd;stroke:#FF0000;stroke-width:2.0px;stroke-linecap:butt;stroke-linejoin:miter;stroke-opacity:1"/>
<path class="bond-25 atom-21 atom-26" d="M 217.9,86.4 L 224.0,69.7" style="fill:none;fill-rule:evenodd;stroke:#000000;stroke-width:2.0px;stroke-linecap:butt;stroke-linejoin:miter;stroke-opacity:1"/>
<path class="bond-26 atom-26 atom-27" d="M 224.0,69.7 L 212.6,56.1" style="fill:none;fill-rule:evenodd;stroke:#000000;stroke-width:2.0px;stroke-linecap:butt;stroke-linejoin:miter;stroke-opacity:1"/>
<path class="bond-27 atom-27 atom-28" d="M 212.6,56.1 L 195.1,59.1" style="fill:none;fill-rule:evenodd;stroke:#000000;stroke-width:2.0px;stroke-linecap:butt;stroke-linejoin:miter;stroke-opacity:1"/>
<path class="bond-28 atom-28 atom-29" d="M 196.1,55.7 L 196.6,55.9" style="fill:none;fill-rule:evenodd;stroke:#000000;stroke-width:1.0px;stroke-linecap:butt;stroke-linejoin:miter;stroke-opacity:1"/>
<path class="bond-28 atom-28 atom-29" d="M 197.1,52.3 L 198.0,52.7" style="fill:none;fill-rule:evenodd;stroke:#000000;stroke-width:1.0px;stroke-linecap:butt;stroke-linejoin:miter;stroke-opacity:1"/>
<path class="bond-28 atom-28 atom-29" d="M 198.0,48.9 L 199.5,49.4" style="fill:none;fill-rule:evenodd;stroke:#000000;stroke-width:1.0px;stroke-linecap:butt;stroke-linejoin:miter;stroke-opacity:1"/>
<path class="bond-28 atom-28 atom-29" d="M 199.0,45.4 L 201.0,46.2" style="fill:none;fill-rule:evenodd;stroke:#000000;stroke-width:1.0px;stroke-linecap:butt;stroke-linejoin:miter;stroke-opacity:1"/>
<path class="bond-28 atom-28 atom-29" d="M 200.0,42.0 L 202.4,42.9" style="fill:none;fill-rule:evenodd;stroke:#000000;stroke-width:1.0px;stroke-linecap:butt;stroke-linejoin:miter;stroke-opacity:1"/>
<path class="bond-29 atom-28 atom-30" d="M 195.1,59.1 L 183.7,45.5" style="fill:none;fill-rule:evenodd;stroke:#000000;stroke-width:2.0px;stroke-linecap:butt;stroke-linejoin:miter;stroke-opacity:1"/>
<path class="bond-30 atom-30 atom-31" d="M 183.7,45.5 L 166.2,48.6" style="fill:none;fill-rule:evenodd;stroke:#000000;stroke-width:2.0px;stroke-linecap:butt;stroke-linejoin:miter;stroke-opacity:1"/>
<path class="bond-31 atom-31 atom-32" d="M 166.2,48.6 L 160.1,65.3" style="fill:none;fill-rule:evenodd;stroke:#000000;stroke-width:2.0px;stroke-linecap:butt;stroke-linejoin:miter;stroke-opacity:1"/>
<path class="bond-32 atom-32 atom-33" d="M 160.1,65.3 L 152.7,56.3 L 154.9,54.8 Z" style="fill:#000000;fill-rule:evenodd;fill-opacity:1;stroke:#000000;stroke-width:0.5px;stroke-linecap:butt;stroke-linejoin:miter;stroke-opacity:1;"/>
<path class="bond-33 atom-9 atom-1" d="M 107.7,74.6 L 90.2,77.6" style="fill:none;fill-rule:evenodd;stroke:#000000;stroke-width:2.0px;stroke-linecap:butt;stroke-linejoin:miter;stroke-opacity:1"/>
<path class="bond-34 atom-32 atom-12" d="M 160.1,65.3 L 142.7,68.4" style="fill:none;fill-rule:evenodd;stroke:#000000;stroke-width:2.0px;stroke-linecap:butt;stroke-linejoin:miter;stroke-opacity:1"/>
<path class="bond-35 atom-14 atom-7" d="M 136.6,85.1 L 119.1,88.2" style="fill:none;fill-rule:evenodd;stroke:#000000;stroke-width:2.0px;stroke-linecap:butt;stroke-linejoin:miter;stroke-opacity:1"/>
<path class="bond-36 atom-32 atom-18" d="M 160.1,65.3 L 171.6,78.9" style="fill:none;fill-rule:evenodd;stroke:#000000;stroke-width:2.0px;stroke-linecap:butt;stroke-linejoin:miter;stroke-opacity:1"/>
<path class="bond-37 atom-28 atom-19" d="M 195.1,59.1 L 189.0,75.8" style="fill:none;fill-rule:evenodd;stroke:#000000;stroke-width:2.0px;stroke-linecap:butt;stroke-linejoin:miter;stroke-opacity:1"/>
<path class="bond-38 atom-9 atom-34" d="M 107.7,74.6 L 99.3,64.0 L 101.5,62.6 Z" style="fill:#000000;fill-rule:evenodd;fill-opacity:1;stroke:#000000;stroke-width:0.5px;stroke-linecap:butt;stroke-linejoin:miter;stroke-opacity:1;"/>
<path class="bond-39 atom-14 atom-35" d="M 136.6,85.1 L 150.7,81.3 L 151.2,83.8 Z" style="fill:#000000;fill-rule:evenodd;fill-opacity:1;stroke:#000000;stroke-width:0.5px;stroke-linecap:butt;stroke-linejoin:miter;stroke-opacity:1;"/>
<path class="bond-40 atom-19 atom-36" d="M 188.2,79.2 L 187.6,79.0" style="fill:none;fill-rule:evenodd;stroke:#000000;stroke-width:1.0px;stroke-linecap:butt;stroke-linejoin:miter;stroke-opacity:1"/>
<path class="bond-40 atom-19 atom-36" d="M 187.3,82.6 L 186.1,82.1" style="fill:none;fill-rule:evenodd;stroke:#000000;stroke-width:1.0px;stroke-linecap:butt;stroke-linejoin:miter;stroke-opacity:1"/>
<path class="bond-40 atom-19 atom-36" d="M 186.4,85.9 L 184.6,85.3" style="fill:none;fill-rule:evenodd;stroke:#000000;stroke-width:1.0px;stroke-linecap:butt;stroke-linejoin:miter;stroke-opacity:1"/>
<path class="bond-40 atom-19 atom-36" d="M 185.5,89.3 L 183.1,88.4" style="fill:none;fill-rule:evenodd;stroke:#000000;stroke-width:1.0px;stroke-linecap:butt;stroke-linejoin:miter;stroke-opacity:1"/>
<path d="M 84.4,93.5 L 84.1,94.3 L 84.7,95.0" style="fill:none;stroke:#000000;stroke-width:2.0px;stroke-linecap:butt;stroke-linejoin:miter;stroke-opacity:1;"/>
<path d="M 95.0,107.2 L 95.6,107.9 L 96.4,107.8" style="fill:none;stroke:#000000;stroke-width:2.0px;stroke-linecap:butt;stroke-linejoin:miter;stroke-opacity:1;"/>
<path d="M 112.2,105.0 L 113.0,104.8 L 113.3,104.0" style="fill:none;stroke:#000000;stroke-width:2.0px;stroke-linecap:butt;stroke-linejoin:miter;stroke-opacity:1;"/>
<path d="M 113.5,58.7 L 113.8,57.9 L 114.6,57.7" style="fill:none;stroke:#000000;stroke-width:2.0px;stroke-linecap:butt;stroke-linejoin:miter;stroke-opacity:1;"/>
<path d="M 130.4,54.9 L 131.3,54.8 L 131.8,55.5" style="fill:none;stroke:#000000;stroke-width:2.0px;stroke-linecap:butt;stroke-linejoin:miter;stroke-opacity:1;"/>
<path d="M 147.4,98.0 L 148.0,98.7 L 148.9,98.5" style="fill:none;stroke:#000000;stroke-width:2.0px;stroke-linecap:butt;stroke-linejoin:miter;stroke-opacity:1;"/>
<path d="M 164.6,95.8 L 165.5,95.6 L 165.8,94.8" style="fill:none;stroke:#000000;stroke-width:2.0px;stroke-linecap:butt;stroke-linejoin:miter;stroke-opacity:1;"/>
<path d="M 199.9,88.8 L 200.5,89.4 L 201.3,89.3" style="fill:none;stroke:#000000;stroke-width:2.0px;stroke-linecap:butt;stroke-linejoin:miter;stroke-opacity:1;"/>
<path d="M 217.9,103.2 L 217.9,104.1 L 217.6,104.3" style="fill:none;stroke:#000000;stroke-width:2.0px;stroke-linecap:butt;stroke-linejoin:miter;stroke-opacity:1;"/>
<path d="M 223.7,70.5 L 224.0,69.7 L 223.4,69.0" style="fill:none;stroke:#000000;stroke-width:2.0px;stroke-linecap:butt;stroke-linejoin:miter;stroke-opacity:1;"/>
<path d="M 213.2,56.7 L 212.6,56.1 L 211.7,56.2" style="fill:none;stroke:#000000;stroke-width:2.0px;stroke-linecap:butt;stroke-linejoin:miter;stroke-opacity:1;"/>
<path d="M 184.3,46.2 L 183.7,45.5 L 182.8,45.7" style="fill:none;stroke:#000000;stroke-width:2.0px;stroke-linecap:butt;stroke-linejoin:miter;stroke-opacity:1;"/>
<path d="M 167.1,48.5 L 166.2,48.6 L 165.9,49.5" style="fill:none;stroke:#000000;stroke-width:2.0px;stroke-linecap:butt;stroke-linejoin:miter;stroke-opacity:1;"/>
<path class="atom-4" d="M 64.3 97.4 Q 64.3 96.2, 64.9 95.5 Q 65.5 94.9, 66.7 94.9 Q 67.8 94.9, 68.4 95.5 Q 69.0 96.2, 69.0 97.4 Q 69.0 98.6, 68.4 99.3 Q 67.8 100.0, 66.7 100.0 Q 65.5 100.0, 64.9 99.3 Q 64.3 98.6, 64.3 97.4 M 66.7 99.5 Q 67.4 99.5, 67.8 98.9 Q 68.3 98.4, 68.3 97.4 Q 68.3 96.4, 67.8 95.9 Q 67.4 95.4, 66.7 95.4 Q 65.9 95.4, 65.5 95.9 Q 65.1 96.4, 65.1 97.4 Q 65.1 98.4, 65.5 98.9 Q 65.9 99.5, 66.7 99.5 " fill="#FF0000"/>
<path class="atom-16" d="M 139.6 115.4 Q 139.6 114.2, 140.2 113.5 Q 140.8 112.8, 141.9 112.8 Q 143.0 112.8, 143.6 113.5 Q 144.2 114.2, 144.2 115.4 Q 144.2 116.6, 143.6 117.3 Q 143.0 118.0, 141.9 118.0 Q 140.8 118.0, 140.2 117.3 Q 139.6 116.6, 139.6 115.4 M 141.9 117.4 Q 142.7 117.4, 143.1 116.9 Q 143.5 116.4, 143.5 115.4 Q 143.5 114.4, 143.1 113.9 Q 142.7 113.4, 141.9 113.4 Q 141.2 113.4, 140.7 113.9 Q 140.3 114.4, 140.3 115.4 Q 140.3 116.4, 140.7 116.9 Q 141.2 117.4, 141.9 117.4 " fill="#FF0000"/>
<path class="atom-24" d="M 231.0 113.0 Q 231.0 111.8, 231.6 111.1 Q 232.2 110.4, 233.3 110.4 Q 234.4 110.4, 235.0 111.1 Q 235.6 111.8, 235.6 113.0 Q 235.6 114.2, 235.0 114.9 Q 234.4 115.6, 233.3 115.6 Q 232.2 115.6, 231.6 114.9 Q 231.0 114.2, 231.0 113.0 M 233.3 115.0 Q 234.1 115.0, 234.5 114.5 Q 234.9 114.0, 234.9 113.0 Q 234.9 112.0, 234.5 111.5 Q 234.1 111.0, 233.3 111.0 Q 232.5 111.0, 232.1 111.5 Q 231.7 112.0, 231.7 113.0 Q 231.7 114.0, 232.1 114.5 Q 232.5 115.0, 233.3 115.0 " fill="#FF0000"/>
<path class="atom-25" d="M 195.3 110.5 L 196.0 110.5 L 196.0 112.6 L 198.5 112.6 L 198.5 110.5 L 199.2 110.5 L 199.2 115.5 L 198.5 115.5 L 198.5 113.2 L 196.0 113.2 L 196.0 115.5 L 195.3 115.5 L 195.3 110.5 " fill="#FF0000"/>
<path class="atom-25" d="M 200.3 113.0 Q 200.3 111.8, 200.9 111.1 Q 201.4 110.4, 202.6 110.4 Q 203.7 110.4, 204.3 111.1 Q 204.9 111.8, 204.9 113.0 Q 204.9 114.2, 204.3 114.9 Q 203.7 115.6, 202.6 115.6 Q 201.5 115.6, 200.9 114.9 Q 200.3 114.2, 200.3 113.0 M 202.6 115.0 Q 203.3 115.0, 203.7 114.5 Q 204.2 114.0, 204.2 113.0 Q 204.2 112.0, 203.7 111.5 Q 203.3 111.0, 202.6 111.0 Q 201.8 111.0, 201.4 111.5 Q 201.0 112.0, 201.0 113.0 Q 201.0 114.0, 201.4 114.5 Q 201.8 115.0, 202.6 115.0 " fill="#FF0000"/>
<path class="atom-34" d="M 96.1 57.2 L 96.7 57.2 L 96.7 59.3 L 99.3 59.3 L 99.3 57.2 L 100.0 57.2 L 100.0 62.2 L 99.3 62.2 L 99.3 59.9 L 96.7 59.9 L 96.7 62.2 L 96.1 62.2 L 96.1 57.2 " fill="#000000"/>
<path class="atom-35" d="M 152.1 79.5 L 152.8 79.5 L 152.8 81.6 L 155.4 81.6 L 155.4 79.5 L 156.0 79.5 L 156.0 84.5 L 155.4 84.5 L 155.4 82.2 L 152.8 82.2 L 152.8 84.5 L 152.1 84.5 L 152.1 79.5 " fill="#000000"/>
<path class="atom-36" d="M 181.0 90.0 L 181.7 90.0 L 181.7 92.1 L 184.3 92.1 L 184.3 90.0 L 184.9 90.0 L 184.9 95.0 L 184.3 95.0 L 184.3 92.7 L 181.7 92.7 L 181.7 95.0 L 181.0 95.0 L 181.0 90.0 " fill="#000000"/>
<path class="bond-0 atom-0 atom-1" d="M 536.3,58.1 L 518.6,59.4" style="fill:none;fill-rule:evenodd;stroke:#000000;stroke-width:2.0px;stroke-linecap:butt;stroke-linejoin:miter;stroke-opacity:1"/>
<path class="bond-1 atom-1 atom-2" d="M 518.6,59.4 L 510.9,75.4" style="fill:none;fill-rule:evenodd;stroke:#000000;stroke-width:2.0px;stroke-linecap:butt;stroke-linejoin:miter;stroke-opacity:1"/>
<path class="bond-2 atom-2 atom-3" d="M 510.9,75.4 L 493.2,76.7" style="fill:none;fill-rule:evenodd;stroke:#000000;stroke-width:2.0px;stroke-linecap:butt;stroke-linejoin:miter;stroke-opacity:1"/>
<path class="bond-3 atom-3 atom-4" d="M 493.2,76.7 L 485.5,92.7" style="fill:none;fill-rule:evenodd;stroke:#000000;stroke-width:2.0px;stroke-linecap:butt;stroke-linejoin:miter;stroke-opacity:1"/>
<path class="bond-4 atom-4 atom-5" d="M 485.5,92.7 L 467.7,94.0" style="fill:none;fill-rule:evenodd;stroke:#000000;stroke-width:2.0px;stroke-linecap:butt;stroke-linejoin:miter;stroke-opacity:1"/>
<path class="bond-5 atom-5 atom-6" d="M 467.7,94.0 L 457.8,79.3" style="fill:none;fill-rule:evenodd;stroke:#000000;stroke-width:2.0px;stroke-linecap:butt;stroke-linejoin:miter;stroke-opacity:1"/>
<path class="bond-6 atom-6 atom-7" d="M 457.8,79.3 L 440.1,80.6" style="fill:none;fill-rule:evenodd;stroke:#000000;stroke-width:2.0px;stroke-linecap:butt;stroke-linejoin:miter;stroke-opacity:1"/>
<path class="bond-7 atom-7 atom-8" d="M 440.1,80.6 L 432.3,96.5" style="fill:none;fill-rule:evenodd;stroke:#000000;stroke-width:2.0px;stroke-linecap:butt;stroke-linejoin:miter;stroke-opacity:1"/>
<path class="bond-8 atom-8 atom-9" d="M 432.3,96.5 L 414.6,97.8" style="fill:none;fill-rule:evenodd;stroke:#000000;stroke-width:2.0px;stroke-linecap:butt;stroke-linejoin:miter;stroke-opacity:1"/>
<path class="bond-9 atom-9 atom-10" d="M 414.6,97.8 L 410.9,103.8" style="fill:none;fill-rule:evenodd;stroke:#000000;stroke-width:2.0px;stroke-linecap:butt;stroke-linejoin:miter;stroke-opacity:1"/>
<path class="bond-9 atom-9 atom-10" d="M 410.9,103.8 L 407.2,109.8" style="fill:none;fill-rule:evenodd;stroke:#0000FF;stroke-width:2.0px;stroke-linecap:butt;stroke-linejoin:miter;stroke-opacity:1"/>
<path class="bond-9 atom-9 atom-10" d="M 411.5,98.1 L 408.2,103.3" style="fill:none;fill-rule:evenodd;stroke:#000000;stroke-width:2.0px;stroke-linecap:butt;stroke-linejoin:miter;stroke-opacity:1"/>
<path class="bond-9 atom-9 atom-10" d="M 408.2,103.3 L 405.0,108.5" style="fill:none;fill-rule:evenodd;stroke:#0000FF;stroke-width:2.0px;stroke-linecap:butt;stroke-linejoin:miter;stroke-opacity:1"/>
<path class="bond-10 atom-10 atom-11" d="M 402.8,112.3 L 390.5,109.3" style="fill:none;fill-rule:evenodd;stroke:#0000FF;stroke-width:2.0px;stroke-linecap:butt;stroke-linejoin:miter;stroke-opacity:1"/>
<path class="bond-11 atom-11 atom-12" d="M 387.8,105.6 L 387.3,98.3" style="fill:none;fill-rule:evenodd;stroke:#0000FF;stroke-width:2.0px;stroke-linecap:butt;stroke-linejoin:miter;stroke-opacity:1"/>
<path class="bond-11 atom-11 atom-12" d="M 387.3,98.3 L 386.7,91.0" style="fill:none;fill-rule:evenodd;stroke:#000000;stroke-width:2.0px;stroke-linecap:butt;stroke-linejoin:miter;stroke-opacity:1"/>
<path class="bond-11 atom-11 atom-12" d="M 390.4,105.4 L 389.9,99.0" style="fill:none;fill-rule:evenodd;stroke:#0000FF;stroke-width:2.0px;stroke-linecap:butt;stroke-linejoin:miter;stroke-opacity:1"/>
<path class="bond-11 atom-11 atom-12" d="M 389.9,99.0 L 389.4,92.6" style="fill:none;fill-rule:evenodd;stroke:#000000;stroke-width:2.0px;stroke-linecap:butt;stroke-linejoin:miter;stroke-opacity:1"/>
<path class="bond-12 atom-12 atom-13" d="M 386.7,91.0 L 393.7,88.1" style="fill:none;fill-rule:evenodd;stroke:#000000;stroke-width:2.0px;stroke-linecap:butt;stroke-linejoin:miter;stroke-opacity:1"/>
<path class="bond-12 atom-12 atom-13" d="M 393.7,88.1 L 400.7,85.3" style="fill:none;fill-rule:evenodd;stroke:#0000FF;stroke-width:2.0px;stroke-linecap:butt;stroke-linejoin:miter;stroke-opacity:1"/>
<path class="bond-13 atom-13 atom-14" d="M 404.5,81.2 L 407.3,74.5" style="fill:none;fill-rule:evenodd;stroke:#0000FF;stroke-width:2.0px;stroke-linecap:butt;stroke-linejoin:miter;stroke-opacity:1"/>
<path class="bond-13 atom-13 atom-14" d="M 407.3,74.5 L 410.1,67.9" style="fill:none;fill-rule:evenodd;stroke:#000000;stroke-width:2.0px;stroke-linecap:butt;stroke-linejoin:miter;stroke-opacity:1"/>
<path class="bond-14 atom-14 atom-15" d="M 410.1,67.9 L 403.4,51.5" style="fill:none;fill-rule:evenodd;stroke:#000000;stroke-width:2.0px;stroke-linecap:butt;stroke-linejoin:miter;stroke-opacity:1"/>
<path class="bond-15 atom-15 atom-16" d="M 403.4,51.5 L 387.0,44.6" style="fill:none;fill-rule:evenodd;stroke:#000000;stroke-width:2.0px;stroke-linecap:butt;stroke-linejoin:miter;stroke-opacity:1"/>
<path class="bond-16 atom-16 atom-17" d="M 387.0,44.6 L 370.6,51.3" style="fill:none;fill-rule:evenodd;stroke:#000000;stroke-width:2.0px;stroke-linecap:butt;stroke-linejoin:miter;stroke-opacity:1"/>
<path class="bond-17 atom-17 atom-18" d="M 370.6,51.3 L 363.7,67.6" style="fill:none;fill-rule:evenodd;stroke:#000000;stroke-width:2.0px;stroke-linecap:butt;stroke-linejoin:miter;stroke-opacity:1"/>
<path class="bond-18 atom-18 atom-19" d="M 363.7,67.6 L 370.4,84.1" style="fill:none;fill-rule:evenodd;stroke:#000000;stroke-width:2.0px;stroke-linecap:butt;stroke-linejoin:miter;stroke-opacity:1"/>
<path class="bond-19 atom-8 atom-20" d="M 432.3,96.5 L 442.3,111.2" style="fill:none;fill-rule:evenodd;stroke:#000000;stroke-width:2.0px;stroke-linecap:butt;stroke-linejoin:miter;stroke-opacity:1"/>
<path class="bond-20 atom-20 atom-21" d="M 442.3,111.2 L 460.0,109.9" style="fill:none;fill-rule:evenodd;stroke:#000000;stroke-width:2.0px;stroke-linecap:butt;stroke-linejoin:miter;stroke-opacity:1"/>
<path class="bond-21 atom-8 atom-22" d="M 432.3,96.5 L 439.6,96.5" style="fill:none;fill-rule:evenodd;stroke:#000000;stroke-width:2.0px;stroke-linecap:butt;stroke-linejoin:miter;stroke-opacity:1"/>
<path class="bond-22 atom-22 atom-23" d="M 444.6,96.2 L 455.6,95.4" style="fill:none;fill-rule:evenodd;stroke:#000000;stroke-width:2.0px;stroke-linecap:butt;stroke-linejoin:miter;stroke-opacity:1"/>
<path class="bond-23 atom-21 atom-5" d="M 460.0,109.9 L 467.7,94.0" style="fill:none;fill-rule:evenodd;stroke:#000000;stroke-width:2.0px;stroke-linecap:butt;stroke-linejoin:miter;stroke-opacity:1"/>
<path class="bond-24 atom-23 atom-5" d="M 460.6,94.9 L 467.7,94.0" style="fill:none;fill-rule:evenodd;stroke:#000000;stroke-width:2.0px;stroke-linecap:butt;stroke-linejoin:miter;stroke-opacity:1"/>
<path class="bond-25 atom-13 atom-9" d="M 405.6,87.2 L 410.1,92.5" style="fill:none;fill-rule:evenodd;stroke:#0000FF;stroke-width:2.0px;stroke-linecap:butt;stroke-linejoin:miter;stroke-opacity:1"/>
<path class="bond-25 atom-13 atom-9" d="M 410.1,92.5 L 414.6,97.8" style="fill:none;fill-rule:evenodd;stroke:#000000;stroke-width:2.0px;stroke-linecap:butt;stroke-linejoin:miter;stroke-opacity:1"/>
<path class="bond-26 atom-19 atom-12" d="M 370.4,84.1 L 386.7,91.0" style="fill:none;fill-rule:evenodd;stroke:#000000;stroke-width:2.0px;stroke-linecap:butt;stroke-linejoin:miter;stroke-opacity:1"/>
<path d="M 519.5,59.3 L 518.6,59.4 L 518.2,60.2" style="fill:none;stroke:#000000;stroke-width:2.0px;stroke-linecap:butt;stroke-linejoin:miter;stroke-opacity:1;"/>
<path d="M 511.3,74.6 L 510.9,75.4 L 510.0,75.5" style="fill:none;stroke:#000000;stroke-width:2.0px;stroke-linecap:butt;stroke-linejoin:miter;stroke-opacity:1;"/>
<path d="M 494.1,76.6 L 493.2,76.7 L 492.8,77.5" style="fill:none;stroke:#000000;stroke-width:2.0px;stroke-linecap:butt;stroke-linejoin:miter;stroke-opacity:1;"/>
<path d="M 485.8,91.9 L 485.5,92.7 L 484.6,92.7" style="fill:none;stroke:#000000;stroke-width:2.0px;stroke-linecap:butt;stroke-linejoin:miter;stroke-opacity:1;"/>
<path d="M 458.3,80.0 L 457.8,79.3 L 456.9,79.3" style="fill:none;stroke:#000000;stroke-width:2.0px;stroke-linecap:butt;stroke-linejoin:miter;stroke-opacity:1;"/>
<path d="M 441.0,80.5 L 440.1,80.6 L 439.7,81.4" style="fill:none;stroke:#000000;stroke-width:2.0px;stroke-linecap:butt;stroke-linejoin:miter;stroke-opacity:1;"/>
<path d="M 409.9,68.2 L 410.1,67.9 L 409.7,67.1" style="fill:none;stroke:#000000;stroke-width:2.0px;stroke-linecap:butt;stroke-linejoin:miter;stroke-opacity:1;"/>
<path d="M 403.7,52.3 L 403.4,51.5 L 402.5,51.1" style="fill:none;stroke:#000000;stroke-width:2.0px;stroke-linecap:butt;stroke-linejoin:miter;stroke-opacity:1;"/>
<path d="M 387.8,44.9 L 387.0,44.6 L 386.2,44.9" style="fill:none;stroke:#000000;stroke-width:2.0px;stroke-linecap:butt;stroke-linejoin:miter;stroke-opacity:1;"/>
<path d="M 371.4,50.9 L 370.6,51.3 L 370.2,52.1" style="fill:none;stroke:#000000;stroke-width:2.0px;stroke-linecap:butt;stroke-linejoin:miter;stroke-opacity:1;"/>
<path d="M 364.0,66.8 L 363.7,67.6 L 364.0,68.5" style="fill:none;stroke:#000000;stroke-width:2.0px;stroke-linecap:butt;stroke-linejoin:miter;stroke-opacity:1;"/>
<path d="M 370.0,83.3 L 370.4,84.1 L 371.2,84.4" style="fill:none;stroke:#000000;stroke-width:2.0px;stroke-linecap:butt;stroke-linejoin:miter;stroke-opacity:1;"/>
<path d="M 441.8,110.5 L 442.3,111.2 L 443.2,111.2" style="fill:none;stroke:#000000;stroke-width:2.0px;stroke-linecap:butt;stroke-linejoin:miter;stroke-opacity:1;"/>
<path d="M 459.1,110.0 L 460.0,109.9 L 460.4,109.1" style="fill:none;stroke:#000000;stroke-width:2.0px;stroke-linecap:butt;stroke-linejoin:miter;stroke-opacity:1;"/>
<path class="atom-10" d="M 404.2 110.4 L 405.8 113.1 Q 406.0 113.3, 406.2 113.8 Q 406.5 114.3, 406.5 114.3 L 406.5 110.4 L 407.2 110.4 L 407.2 115.4 L 406.5 115.4 L 404.7 112.5 Q 404.5 112.2, 404.3 111.8 Q 404.1 111.4, 404.0 111.3 L 404.0 115.4 L 403.4 115.4 L 403.4 110.4 L 404.2 110.4 " fill="#0000FF"/>
<path class="atom-11" d="M 386.9 106.2 L 388.6 108.8 Q 388.7 109.1, 389.0 109.6 Q 389.2 110.0, 389.3 110.1 L 389.3 106.2 L 389.9 106.2 L 389.9 111.2 L 389.2 111.2 L 387.5 108.3 Q 387.3 107.9, 387.0 107.5 Q 386.8 107.2, 386.8 107.0 L 386.8 111.2 L 386.1 111.2 L 386.1 106.2 L 386.9 106.2 " fill="#0000FF"/>
<path class="atom-13" d="M 402.1 81.7 L 403.7 84.4 Q 403.9 84.7, 404.1 85.2 Q 404.4 85.6, 404.4 85.7 L 404.4 81.7 L 405.1 81.7 L 405.1 86.8 L 404.4 86.8 L 402.6 83.9 Q 402.4 83.5, 402.2 83.1 Q 402.0 82.7, 401.9 82.6 L 401.9 86.8 L 401.3 86.8 L 401.3 81.7 L 402.1 81.7 " fill="#0000FF"/>
<path class="atom-22" d="M 440.1 96.4 Q 440.1 95.2, 440.7 94.5 Q 441.3 93.9, 442.4 93.9 Q 443.5 93.9, 444.0 94.6 L 443.5 95.0 Q 443.1 94.5, 442.4 94.5 Q 441.7 94.5, 441.3 95.0 Q 440.9 95.5, 440.9 96.4 Q 440.9 97.4, 441.3 98.0 Q 441.7 98.5, 442.5 98.5 Q 443.1 98.5, 443.7 98.1 L 443.9 98.7 Q 443.6 98.8, 443.2 98.9 Q 442.8 99.0, 442.4 99.0 Q 441.3 99.0, 440.7 98.4 Q 440.1 97.7, 440.1 96.4 " fill="#000000"/>
<path class="atom-23" d="M 456.1 95.3 Q 456.1 94.0, 456.7 93.4 Q 457.3 92.7, 458.4 92.7 Q 459.5 92.7, 460.0 93.4 L 459.6 93.8 Q 459.2 93.3, 458.4 93.3 Q 457.7 93.3, 457.3 93.8 Q 456.9 94.3, 456.9 95.3 Q 456.9 96.3, 457.3 96.8 Q 457.7 97.3, 458.5 97.3 Q 459.1 97.3, 459.7 97.0 L 459.9 97.5 Q 459.6 97.7, 459.3 97.8 Q 458.9 97.9, 458.4 97.9 Q 457.3 97.9, 456.7 97.2 Q 456.1 96.5, 456.1 95.3 " fill="#000000"/>
<path class="bond-0 atom-0 atom-1" d="M 745.2,95.3 L 748.0,88.6" style="fill:none;fill-rule:evenodd;stroke:#000000;stroke-width:2.0px;stroke-linecap:butt;stroke-linejoin:miter;stroke-opacity:1"/>
<path class="bond-0 atom-0 atom-1" d="M 748.0,88.6 L 750.7,82.0" style="fill:none;fill-rule:evenodd;stroke:#0000FF;stroke-width:2.0px;stroke-linecap:butt;stroke-linejoin:miter;stroke-opacity:1"/>
<path class="bond-1 atom-1 atom-2" d="M 750.1,75.8 L 746.4,69.8" style="fill:none;fill-rule:evenodd;stroke:#0000FF;stroke-width:2.0px;stroke-linecap:butt;stroke-linejoin:miter;stroke-opacity:1"/>
<path class="bond-1 atom-1 atom-2" d="M 746.4,69.8 L 742.7,63.7" style="fill:none;fill-rule:evenodd;stroke:#000000;stroke-width:2.0px;stroke-linecap:butt;stroke-linejoin:miter;stroke-opacity:1"/>
<path class="bond-2 atom-2 atom-3" d="M 742.7,63.7 L 725.0,62.3" style="fill:none;fill-rule:evenodd;stroke:#000000;stroke-width:2.0px;stroke-linecap:butt;stroke-linejoin:miter;stroke-opacity:1"/>
<path class="bond-3 atom-3 atom-4" d="M 725.0,62.3 L 715.0,77.0" style="fill:none;fill-rule:evenodd;stroke:#000000;stroke-width:2.0px;stroke-linecap:butt;stroke-linejoin:miter;stroke-opacity:1"/>
<path class="bond-3 atom-3 atom-4" d="M 722.0,62.1 L 713.7,74.2" style="fill:none;fill-rule:evenodd;stroke:#000000;stroke-width:2.0px;stroke-linecap:butt;stroke-linejoin:miter;stroke-opacity:1"/>
<path class="bond-4 atom-4 atom-5" d="M 715.0,77.0 L 697.3,75.6" style="fill:none;fill-rule:evenodd;stroke:#000000;stroke-width:2.0px;stroke-linecap:butt;stroke-linejoin:miter;stroke-opacity:1"/>
<path class="bond-5 atom-5 atom-6" d="M 697.3,75.6 L 689.6,59.6" style="fill:none;fill-rule:evenodd;stroke:#000000;stroke-width:2.0px;stroke-linecap:butt;stroke-linejoin:miter;stroke-opacity:1"/>
<path class="bond-5 atom-5 atom-6" d="M 699.0,73.0 L 692.7,59.8" style="fill:none;fill-rule:evenodd;stroke:#000000;stroke-width:2.0px;stroke-linecap:butt;stroke-linejoin:miter;stroke-opacity:1"/>
<path class="bond-6 atom-6 atom-7" d="M 689.6,59.6 L 674.1,58.3" style="fill:none;fill-rule:evenodd;stroke:#000000;stroke-width:2.0px;stroke-linecap:butt;stroke-linejoin:miter;stroke-opacity:1"/>
<path class="bond-7 atom-6 atom-8" d="M 689.6,59.6 L 699.7,44.9" style="fill:none;fill-rule:evenodd;stroke:#000000;stroke-width:2.0px;stroke-linecap:butt;stroke-linejoin:miter;stroke-opacity:1"/>
<path class="bond-8 atom-8 atom-9" d="M 699.7,44.9 L 717.4,46.3" style="fill:none;fill-rule:evenodd;stroke:#000000;stroke-width:2.0px;stroke-linecap:butt;stroke-linejoin:miter;stroke-opacity:1"/>
<path class="bond-8 atom-8 atom-9" d="M 701.0,47.7 L 715.7,48.9" style="fill:none;fill-rule:evenodd;stroke:#000000;stroke-width:2.0px;stroke-linecap:butt;stroke-linejoin:miter;stroke-opacity:1"/>
<path class="bond-9 atom-2 atom-10" d="M 742.7,63.7 L 747.3,58.5" style="fill:none;fill-rule:evenodd;stroke:#000000;stroke-width:2.0px;stroke-linecap:butt;stroke-linejoin:miter;stroke-opacity:1"/>
<path class="bond-9 atom-2 atom-10" d="M 747.3,58.5 L 751.8,53.2" style="fill:none;fill-rule:evenodd;stroke:#0000FF;stroke-width:2.0px;stroke-linecap:butt;stroke-linejoin:miter;stroke-opacity:1"/>
<path class="bond-9 atom-2 atom-10" d="M 746.0,64.0 L 749.9,59.5" style="fill:none;fill-rule:evenodd;stroke:#000000;stroke-width:2.0px;stroke-linecap:butt;stroke-linejoin:miter;stroke-opacity:1"/>
<path class="bond-9 atom-2 atom-10" d="M 749.9,59.5 L 753.8,54.9" style="fill:none;fill-rule:evenodd;stroke:#0000FF;stroke-width:2.0px;stroke-linecap:butt;stroke-linejoin:miter;stroke-opacity:1"/>
<path class="bond-10 atom-10 atom-11" d="M 756.8,51.3 L 768.2,56.0" style="fill:none;fill-rule:evenodd;stroke:#0000FF;stroke-width:2.0px;stroke-linecap:butt;stroke-linejoin:miter;stroke-opacity:1"/>
<path class="bond-11 atom-11 atom-12" d="M 770.4,60.2 L 769.9,67.5" style="fill:none;fill-rule:evenodd;stroke:#0000FF;stroke-width:2.0px;stroke-linecap:butt;stroke-linejoin:miter;stroke-opacity:1"/>
<path class="bond-11 atom-11 atom-12" d="M 769.9,67.5 L 769.3,74.8" style="fill:none;fill-rule:evenodd;stroke:#000000;stroke-width:2.0px;stroke-linecap:butt;stroke-linejoin:miter;stroke-opacity:1"/>
<path class="bond-11 atom-11 atom-12" d="M 767.8,59.9 L 767.3,66.3" style="fill:none;fill-rule:evenodd;stroke:#0000FF;stroke-width:2.0px;stroke-linecap:butt;stroke-linejoin:miter;stroke-opacity:1"/>
<path class="bond-11 atom-11 atom-12" d="M 767.3,66.3 L 766.8,72.6" style="fill:none;fill-rule:evenodd;stroke:#000000;stroke-width:2.0px;stroke-linecap:butt;stroke-linejoin:miter;stroke-opacity:1"/>
<path class="bond-12 atom-12 atom-13" d="M 769.3,74.8 L 782.8,86.3" style="fill:none;fill-rule:evenodd;stroke:#000000;stroke-width:2.0px;stroke-linecap:butt;stroke-linejoin:miter;stroke-opacity:1"/>
<path class="bond-13 atom-13 atom-14" d="M 782.8,86.3 L 791.8,71.0" style="fill:none;fill-rule:evenodd;stroke:#000000;stroke-width:2.0px;stroke-linecap:butt;stroke-linejoin:miter;stroke-opacity:1"/>
<path class="bond-14 atom-14 atom-15" d="M 791.8,71.0 L 809.5,71.2" style="fill:none;fill-rule:evenodd;stroke:#000000;stroke-width:2.0px;stroke-linecap:butt;stroke-linejoin:miter;stroke-opacity:1"/>
<path class="bond-14 atom-14 atom-15" d="M 793.4,68.3 L 808.0,68.5" style="fill:none;fill-rule:evenodd;stroke:#000000;stroke-width:2.0px;stroke-linecap:butt;stroke-linejoin:miter;stroke-opacity:1"/>
<path class="bond-15 atom-15 atom-16" d="M 809.5,71.2 L 818.6,55.9" style="fill:none;fill-rule:evenodd;stroke:#000000;stroke-width:2.0px;stroke-linecap:butt;stroke-linejoin:miter;stroke-opacity:1"/>
<path class="bond-16 atom-16 atom-17" d="M 818.6,55.9 L 809.8,40.4" style="fill:none;fill-rule:evenodd;stroke:#000000;stroke-width:2.0px;stroke-linecap:butt;stroke-linejoin:miter;stroke-opacity:1"/>
<path class="bond-16 atom-16 atom-17" d="M 815.5,55.8 L 808.3,43.1" style="fill:none;fill-rule:evenodd;stroke:#000000;stroke-width:2.0px;stroke-linecap:butt;stroke-linejoin:miter;stroke-opacity:1"/>
<path class="bond-17 atom-17 atom-18" d="M 809.8,40.4 L 818.8,25.1" style="fill:none;fill-rule:evenodd;stroke:#000000;stroke-width:2.0px;stroke-linecap:butt;stroke-linejoin:miter;stroke-opacity:1"/>
<path class="bond-18 atom-18 atom-19" d="M 818.8,25.1 L 803.5,16.1" style="fill:none;fill-rule:evenodd;stroke:#000000;stroke-width:2.0px;stroke-linecap:butt;stroke-linejoin:miter;stroke-opacity:1"/>
<path class="bond-19 atom-18 atom-20" d="M 818.8,25.1 L 834.1,34.1" style="fill:none;fill-rule:evenodd;stroke:#000000;stroke-width:2.0px;stroke-linecap:butt;stroke-linejoin:miter;stroke-opacity:1"/>
<path class="bond-20 atom-18 atom-21" d="M 818.8,25.1 L 822.4,19.1" style="fill:none;fill-rule:evenodd;stroke:#000000;stroke-width:2.0px;stroke-linecap:butt;stroke-linejoin:miter;stroke-opacity:1"/>
<path class="bond-20 atom-18 atom-21" d="M 822.4,19.1 L 826.0,13.0" style="fill:none;fill-rule:evenodd;stroke:#FF0000;stroke-width:2.0px;stroke-linecap:butt;stroke-linejoin:miter;stroke-opacity:1"/>
<path class="bond-21 atom-17 atom-22" d="M 809.8,40.4 L 792.1,40.2" style="fill:none;fill-rule:evenodd;stroke:#000000;stroke-width:2.0px;stroke-linecap:butt;stroke-linejoin:miter;stroke-opacity:1"/>
<path class="bond-22 atom-22 atom-23" d="M 792.1,40.2 L 783.1,55.5" style="fill:none;fill-rule:evenodd;stroke:#000000;stroke-width:2.0px;stroke-linecap:butt;stroke-linejoin:miter;stroke-opacity:1"/>
<path class="bond-22 atom-22 atom-23" d="M 793.6,42.9 L 786.1,55.6" style="fill:none;fill-rule:evenodd;stroke:#000000;stroke-width:2.0px;stroke-linecap:butt;stroke-linejoin:miter;stroke-opacity:1"/>
<path class="bond-23 atom-13 atom-24" d="M 782.8,86.3 L 769.1,97.6" style="fill:none;fill-rule:evenodd;stroke:#000000;stroke-width:2.0px;stroke-linecap:butt;stroke-linejoin:miter;stroke-opacity:1"/>
<path class="bond-24 atom-24 atom-25" d="M 769.1,97.6 L 772.0,115.1" style="fill:none;fill-rule:evenodd;stroke:#000000;stroke-width:2.0px;stroke-linecap:butt;stroke-linejoin:miter;stroke-opacity:1"/>
<path class="bond-25 atom-25 atom-26" d="M 772.0,115.1 L 788.6,121.3" style="fill:none;fill-rule:evenodd;stroke:#000000;stroke-width:2.0px;stroke-linecap:butt;stroke-linejoin:miter;stroke-opacity:1"/>
<path class="bond-26 atom-26 atom-27" d="M 788.6,121.3 L 791.5,138.8" style="fill:none;fill-rule:evenodd;stroke:#000000;stroke-width:2.0px;stroke-linecap:butt;stroke-linejoin:miter;stroke-opacity:1"/>
<path class="bond-27 atom-27 atom-28" d="M 790.4,139.8 L 797.6,142.5" style="fill:none;fill-rule:evenodd;stroke:#000000;stroke-width:2.0px;stroke-linecap:butt;stroke-linejoin:miter;stroke-opacity:1"/>
<path class="bond-27 atom-27 atom-28" d="M 797.6,142.5 L 804.8,145.2" style="fill:none;fill-rule:evenodd;stroke:#FF0000;stroke-width:2.0px;stroke-linecap:butt;stroke-linejoin:miter;stroke-opacity:1"/>
<path class="bond-27 atom-27 atom-28" d="M 791.3,137.3 L 798.5,140.0" style="fill:none;fill-rule:evenodd;stroke:#000000;stroke-width:2.0px;stroke-linecap:butt;stroke-linejoin:miter;stroke-opacity:1"/>
<path class="bond-27 atom-27 atom-28" d="M 798.5,140.0 L 805.7,142.7" style="fill:none;fill-rule:evenodd;stroke:#FF0000;stroke-width:2.0px;stroke-linecap:butt;stroke-linejoin:miter;stroke-opacity:1"/>
<path class="bond-28 atom-27 atom-29" d="M 791.5,138.8 L 786.1,143.3" style="fill:none;fill-rule:evenodd;stroke:#000000;stroke-width:2.0px;stroke-linecap:butt;stroke-linejoin:miter;stroke-opacity:1"/>
<path class="bond-28 atom-27 atom-29" d="M 786.1,143.3 L 780.7,147.7" style="fill:none;fill-rule:evenodd;stroke:#FF0000;stroke-width:2.0px;stroke-linecap:butt;stroke-linejoin:miter;stroke-opacity:1"/>
<path class="bond-29 atom-26 atom-30" d="M 788.6,121.3 L 802.3,110.0" style="fill:none;fill-rule:evenodd;stroke:#000000;stroke-width:2.0px;stroke-linecap:butt;stroke-linejoin:miter;stroke-opacity:1"/>
<path class="bond-30 atom-30 atom-31" d="M 802.3,110.0 L 799.4,92.5" style="fill:none;fill-rule:evenodd;stroke:#000000;stroke-width:2.0px;stroke-linecap:butt;stroke-linejoin:miter;stroke-opacity:1"/>
<path class="bond-31 atom-12 atom-1" d="M 769.3,74.8 L 761.9,76.5" style="fill:none;fill-rule:evenodd;stroke:#000000;stroke-width:2.0px;stroke-linecap:butt;stroke-linejoin:miter;stroke-opacity:1"/>
<path class="bond-31 atom-12 atom-1" d="M 761.9,76.5 L 754.5,78.3" style="fill:none;fill-rule:evenodd;stroke:#0000FF;stroke-width:2.0px;stroke-linecap:butt;stroke-linejoin:miter;stroke-opacity:1"/>
<path class="bond-32 atom-31 atom-13" d="M 799.4,92.5 L 782.8,86.3" style="fill:none;fill-rule:evenodd;stroke:#000000;stroke-width:2.0px;stroke-linecap:butt;stroke-linejoin:miter;stroke-opacity:1"/>
<path class="bond-33 atom-9 atom-3" d="M 717.4,46.3 L 725.0,62.3" style="fill:none;fill-rule:evenodd;stroke:#000000;stroke-width:2.0px;stroke-linecap:butt;stroke-linejoin:miter;stroke-opacity:1"/>
<path class="bond-34 atom-23 atom-14" d="M 783.1,55.5 L 791.8,71.0" style="fill:none;fill-rule:evenodd;stroke:#000000;stroke-width:2.0px;stroke-linecap:butt;stroke-linejoin:miter;stroke-opacity:1"/>
<path d="M 715.5,76.2 L 715.0,77.0 L 714.1,76.9" style="fill:none;stroke:#000000;stroke-width:2.0px;stroke-linecap:butt;stroke-linejoin:miter;stroke-opacity:1;"/>
<path d="M 698.2,75.6 L 697.3,75.6 L 696.9,74.8" style="fill:none;stroke:#000000;stroke-width:2.0px;stroke-linecap:butt;stroke-linejoin:miter;stroke-opacity:1;"/>
<path d="M 699.2,45.7 L 699.7,44.9 L 700.6,45.0" style="fill:none;stroke:#000000;stroke-width:2.0px;stroke-linecap:butt;stroke-linejoin:miter;stroke-opacity:1;"/>
<path d="M 716.5,46.3 L 717.4,46.3 L 717.8,47.1" style="fill:none;stroke:#000000;stroke-width:2.0px;stroke-linecap:butt;stroke-linejoin:miter;stroke-opacity:1;"/>
<path d="M 808.7,71.1 L 809.5,71.2 L 810.0,70.4" style="fill:none;stroke:#000000;stroke-width:2.0px;stroke-linecap:butt;stroke-linejoin:miter;stroke-opacity:1;"/>
<path d="M 818.1,56.6 L 818.6,55.9 L 818.1,55.1" style="fill:none;stroke:#000000;stroke-width:2.0px;stroke-linecap:butt;stroke-linejoin:miter;stroke-opacity:1;"/>
<path d="M 793.0,40.2 L 792.1,40.2 L 791.6,41.0" style="fill:none;stroke:#000000;stroke-width:2.0px;stroke-linecap:butt;stroke-linejoin:miter;stroke-opacity:1;"/>
<path d="M 783.5,54.8 L 783.1,55.5 L 783.5,56.3" style="fill:none;stroke:#000000;stroke-width:2.0px;stroke-linecap:butt;stroke-linejoin:miter;stroke-opacity:1;"/>
<path d="M 769.8,97.0 L 769.1,97.6 L 769.2,98.4" style="fill:none;stroke:#000000;stroke-width:2.0px;stroke-linecap:butt;stroke-linejoin:miter;stroke-opacity:1;"/>
<path d="M 771.8,114.2 L 772.0,115.1 L 772.8,115.4" style="fill:none;stroke:#000000;stroke-width:2.0px;stroke-linecap:butt;stroke-linejoin:miter;stroke-opacity:1;"/>
<path d="M 791.4,137.9 L 791.5,138.8 L 791.3,139.0" style="fill:none;stroke:#000000;stroke-width:2.0px;stroke-linecap:butt;stroke-linejoin:miter;stroke-opacity:1;"/>
<path d="M 801.6,110.6 L 802.3,110.0 L 802.2,109.1" style="fill:none;stroke:#000000;stroke-width:2.0px;stroke-linecap:butt;stroke-linejoin:miter;stroke-opacity:1;"/>
<path d="M 799.5,93.4 L 799.4,92.5 L 798.6,92.2" style="fill:none;stroke:#000000;stroke-width:2.0px;stroke-linecap:butt;stroke-linejoin:miter;stroke-opacity:1;"/>
<path class="atom-1" d="M 750.9 76.4 L 752.5 79.0 Q 752.7 79.3, 753.0 79.8 Q 753.2 80.3, 753.3 80.3 L 753.3 76.4 L 753.9 76.4 L 753.9 81.4 L 753.2 81.4 L 751.5 78.5 Q 751.3 78.2, 751.0 77.8 Q 750.8 77.4, 750.8 77.2 L 750.8 81.4 L 750.1 81.4 L 750.1 76.4 L 750.9 76.4 " fill="#0000FF"/>
<path class="atom-7" d="M 666.6 59.9 Q 666.7 59.9, 666.9 60.0 Q 667.2 60.1, 667.4 60.2 Q 667.7 60.2, 667.9 60.2 Q 668.4 60.2, 668.7 60.0 Q 669.0 59.8, 669.0 59.4 Q 669.0 59.1, 668.8 58.9 Q 668.7 58.7, 668.5 58.6 Q 668.3 58.5, 667.9 58.4 Q 667.5 58.3, 667.2 58.2 Q 666.9 58.1, 666.7 57.8 Q 666.6 57.5, 666.6 57.1 Q 666.6 56.4, 667.0 56.0 Q 667.4 55.6, 668.3 55.6 Q 668.9 55.6, 669.5 55.9 L 669.3 56.5 Q 668.7 56.2, 668.3 56.2 Q 667.8 56.2, 667.5 56.4 Q 667.3 56.6, 667.3 57.0 Q 667.3 57.2, 667.4 57.4 Q 667.5 57.6, 667.7 57.7 Q 668.0 57.8, 668.3 57.9 Q 668.7 58.0, 669.0 58.1 Q 669.3 58.3, 669.5 58.6 Q 669.7 58.9, 669.7 59.4 Q 669.7 60.0, 669.2 60.4 Q 668.7 60.8, 668.0 60.8 Q 667.5 60.8, 667.2 60.7 Q 666.8 60.6, 666.5 60.4 L 666.6 59.9 " fill="#000000"/>
<path class="atom-7" d="M 670.3 58.8 Q 670.3 57.9, 670.8 57.4 Q 671.2 56.9, 672.0 56.9 Q 672.8 56.9, 673.2 57.4 Q 673.6 57.9, 673.6 58.8 L 673.6 58.9 L 671.0 58.9 Q 671.0 59.5, 671.3 59.9 Q 671.6 60.2, 672.1 60.2 Q 672.4 60.2, 672.6 60.1 Q 672.9 60.1, 673.2 59.9 L 673.4 60.4 Q 673.1 60.6, 672.7 60.6 Q 672.4 60.7, 672.1 60.7 Q 671.2 60.7, 670.8 60.2 Q 670.3 59.7, 670.3 58.8 M 672.0 57.5 Q 671.6 57.5, 671.4 57.7 Q 671.1 58.0, 671.0 58.4 L 672.9 58.4 Q 672.8 57.9, 672.6 57.7 Q 672.4 57.5, 672.0 57.5 " fill="#000000"/>
<path class="atom-10" d="M 753.2 47.7 L 754.8 50.4 Q 755.0 50.7, 755.2 51.1 Q 755.5 51.6, 755.5 51.6 L 755.5 47.7 L 756.2 47.7 L 756.2 52.8 L 755.5 52.8 L 753.7 49.9 Q 753.5 49.5, 753.3 49.1 Q 753.1 48.7, 753.0 48.6 L 753.0 52.8 L 752.4 52.8 L 752.4 47.7 L 753.2 47.7 " fill="#0000FF"/>
<path class="atom-11" d="M 769.6 54.5 L 771.2 57.2 Q 771.4 57.5, 771.6 57.9 Q 771.9 58.4, 771.9 58.4 L 771.9 54.5 L 772.6 54.5 L 772.6 59.6 L 771.9 59.6 L 770.1 56.7 Q 769.9 56.3, 769.7 55.9 Q 769.5 55.5, 769.4 55.4 L 769.4 59.6 L 768.8 59.6 L 768.8 54.5 L 769.6 54.5 " fill="#0000FF"/>
<path class="atom-21" d="M 825.5 9.8 Q 825.5 8.6, 826.1 7.9 Q 826.7 7.3, 827.9 7.3 Q 829.0 7.3, 829.6 7.9 Q 830.2 8.6, 830.2 9.8 Q 830.2 11.1, 829.6 11.7 Q 829.0 12.4, 827.9 12.4 Q 826.7 12.4, 826.1 11.7 Q 825.5 11.1, 825.5 9.8 M 827.9 11.9 Q 828.6 11.9, 829.0 11.4 Q 829.5 10.8, 829.5 9.8 Q 829.5 8.8, 829.0 8.3 Q 828.6 7.8, 827.9 7.8 Q 827.1 7.8, 826.7 8.3 Q 826.3 8.8, 826.3 9.8 Q 826.3 10.8, 826.7 11.4 Q 827.1 11.9, 827.9 11.9 " fill="#FF0000"/>
<path class="atom-21" d="M 830.9 7.3 L 831.6 7.3 L 831.6 9.5 L 834.2 9.5 L 834.2 7.3 L 834.9 7.3 L 834.9 12.4 L 834.2 12.4 L 834.2 10.0 L 831.6 10.0 L 831.6 12.4 L 830.9 12.4 L 830.9 7.3 " fill="#FF0000"/>
<path class="atom-28" d="M 805.9 145.1 Q 805.9 143.8, 806.5 143.2 Q 807.1 142.5, 808.2 142.5 Q 809.3 142.5, 809.9 143.2 Q 810.5 143.8, 810.5 145.1 Q 810.5 146.3, 809.9 147.0 Q 809.3 147.7, 808.2 147.7 Q 807.1 147.7, 806.5 147.0 Q 805.9 146.3, 805.9 145.1 M 808.2 147.1 Q 808.9 147.1, 809.4 146.6 Q 809.8 146.1, 809.8 145.1 Q 809.8 144.1, 809.4 143.6 Q 808.9 143.1, 808.2 143.1 Q 807.4 143.1, 807.0 143.6 Q 806.6 144.1, 806.6 145.1 Q 806.6 146.1, 807.0 146.6 Q 807.4 147.1, 808.2 147.1 " fill="#FF0000"/>
<path class="atom-29" d="M 770.6 147.6 L 771.3 147.6 L 771.3 149.8 L 773.8 149.8 L 773.8 147.6 L 774.5 147.6 L 774.5 152.6 L 773.8 152.6 L 773.8 150.3 L 771.3 150.3 L 771.3 152.6 L 770.6 152.6 L 770.6 147.6 " fill="#FF0000"/>
<path class="atom-29" d="M 775.5 150.1 Q 775.5 148.9, 776.1 148.2 Q 776.7 147.6, 777.8 147.6 Q 779.0 147.6, 779.6 148.2 Q 780.2 148.9, 780.2 150.1 Q 780.2 151.3, 779.5 152.0 Q 778.9 152.7, 777.8 152.7 Q 776.7 152.7, 776.1 152.0 Q 775.5 151.3, 775.5 150.1 M 777.8 152.2 Q 778.6 152.2, 779.0 151.6 Q 779.4 151.1, 779.4 150.1 Q 779.4 149.1, 779.0 148.6 Q 778.6 148.1, 777.8 148.1 Q 777.1 148.1, 776.7 148.6 Q 776.2 149.1, 776.2 150.1 Q 776.2 151.1, 776.7 151.6 Q 777.1 152.2, 777.8 152.2 " fill="#FF0000"/>
<path class="atom-7" d="M 665.7,58.2 L 665.7,58.2 L 665.7,58.2 L 665.7,58.2 L 665.7,58.3 L 665.7,58.3 L 665.7,58.3 L 665.7,58.4 L 665.7,58.4 L 665.6,58.4 L 665.6,58.4 L 665.6,58.4 L 665.6,58.5 L 665.5,58.5 L 665.5,58.5 L 665.5,58.5 L 665.5,58.5 L 665.4,58.5 L 665.4,58.5 L 665.4,58.5 L 665.3,58.5 L 665.3,58.5 L 665.3,58.5 L 665.2,58.5 L 665.2,58.5 L 665.2,58.4 L 665.2,58.4 L 665.1,58.4 L 665.1,58.4 L 665.1,58.4 L 665.1,58.3 L 665.1,58.3 L 665.1,58.3 L 665.0,58.3 L 665.0,58.2 L 665.0,58.2 L 665.0,58.2 L 665.0,58.1 L 665.0,58.1 L 665.0,58.1 L 665.0,58.0 L 665.1,58.0 L 665.1,58.0 L 665.1,58.0 L 665.1,57.9 L 665.1,57.9 L 665.1,57.9 L 665.2,57.9 L 665.2,57.9 L 665.2,57.8 L 665.2,57.8 L 665.3,57.8 L 665.3,57.8 L 665.3,57.8 L 665.4,57.8 L 665.4,57.8 L 665.4,57.8 L 665.5,57.8 L 665.5,57.8 L 665.5,57.8 L 665.5,57.8 L 665.6,57.8 L 665.6,57.9 L 665.6,57.9 L 665.6,57.9 L 665.7,57.9 L 665.7,58.0 L 665.7,58.0 L 665.7,58.0 L 665.7,58.0 L 665.7,58.1 L 665.7,58.1 L 665.7,58.1 L 665.7,58.2 L 665.4,58.2 Z" style="fill:#000000;fill-rule:evenodd;fill-opacity:1;stroke:#000000;stroke-width:0.0px;stroke-linecap:butt;stroke-linejoin:miter;stroke-opacity:1;"/>
</svg>