<svg xmlns="http://www.w3.org/2000/svg" xmlns:rdkit="http://www.rdkit.org/xml" xmlns:xlink="http://www.w3.org/1999/xlink" version="1.1" baseProfile="full" xml:space="preserve" width="900px" height="160px" viewBox="0 0 900 160">
<!-- END OF HEADER -->
<rect style="opacity:1.0;fill:#FFFFFF;stroke:none" width="900.0" height="160.0" x="0.0" y="0.0"> </rect>
<path class="bond-0 atom-0 atom-1" d="M 53.9,96.3 L 55.6,75.3" style="fill:none;fill-rule:evenodd;stroke:#000000;stroke-width:2.0px;stroke-linecap:butt;stroke-linejoin:miter;stroke-opacity:1"/>
<path class="bond-1 atom-1 atom-2" d="M 55.6,75.3 L 34.6,77.3" style="fill:none;fill-rule:evenodd;stroke:#000000;stroke-width:2.0px;stroke-linecap:butt;stroke-linejoin:miter;stroke-opacity:1"/>
<path class="bond-2 atom-2 atom-3" d="M 33.5,75.8 L 29.8,84.0" style="fill:none;fill-rule:evenodd;stroke:#000000;stroke-width:2.0px;stroke-linecap:butt;stroke-linejoin:miter;stroke-opacity:1"/>
<path class="bond-2 atom-2 atom-3" d="M 29.8,84.0 L 26.1,92.2" style="fill:none;fill-rule:evenodd;stroke:#FF0000;stroke-width:2.0px;stroke-linecap:butt;stroke-linejoin:miter;stroke-opacity:1"/>
<path class="bond-2 atom-2 atom-3" d="M 36.4,77.1 L 32.7,85.3" style="fill:none;fill-rule:evenodd;stroke:#000000;stroke-width:2.0px;stroke-linecap:butt;stroke-linejoin:miter;stroke-opacity:1"/>
<path class="bond-2 atom-2 atom-3" d="M 32.7,85.3 L 29.0,93.5" style="fill:none;fill-rule:evenodd;stroke:#FF0000;stroke-width:2.0px;stroke-linecap:butt;stroke-linejoin:miter;stroke-opacity:1"/>
<path class="bond-3 atom-2 atom-4" d="M 34.6,77.3 L 29.8,70.6" style="fill:none;fill-rule:evenodd;stroke:#000000;stroke-width:2.0px;stroke-linecap:butt;stroke-linejoin:miter;stroke-opacity:1"/>
<path class="bond-3 atom-2 atom-4" d="M 29.8,70.6 L 25.0,64.0" style="fill:none;fill-rule:evenodd;stroke:#FF0000;stroke-width:2.0px;stroke-linecap:butt;stroke-linejoin:miter;stroke-opacity:1"/>
<path class="bond-4 atom-1 atom-5" d="M 55.6,75.3 L 49.9,54.9" style="fill:none;fill-rule:evenodd;stroke:#000000;stroke-width:2.0px;stroke-linecap:butt;stroke-linejoin:miter;stroke-opacity:1"/>
<path class="bond-5 atom-5 atom-6" d="M 49.9,54.9 L 64.7,39.9" style="fill:none;fill-rule:evenodd;stroke:#000000;stroke-width:2.0px;stroke-linecap:butt;stroke-linejoin:miter;stroke-opacity:1"/>
<path class="bond-6 atom-6 atom-7" d="M 64.7,39.9 L 85.1,45.1" style="fill:none;fill-rule:evenodd;stroke:#000000;stroke-width:2.0px;stroke-linecap:butt;stroke-linejoin:miter;stroke-opacity:1"/>
<path class="bond-7 atom-7 atom-8" d="M 85.1,45.1 L 79.5,24.8" style="fill:none;fill-rule:evenodd;stroke:#000000;stroke-width:2.0px;stroke-linecap:butt;stroke-linejoin:miter;stroke-opacity:1"/>
<path class="bond-8 atom-7 atom-9" d="M 85.1,45.1 L 99.9,30.0" style="fill:none;fill-rule:evenodd;stroke:#000000;stroke-width:2.0px;stroke-linecap:butt;stroke-linejoin:miter;stroke-opacity:1"/>
<path class="bond-9 atom-9 atom-10" d="M 99.9,30.0 L 120.4,35.3" style="fill:none;fill-rule:evenodd;stroke:#000000;stroke-width:2.0px;stroke-linecap:butt;stroke-linejoin:miter;stroke-opacity:1"/>
<path class="bond-10 atom-10 atom-11" d="M 120.4,35.3 L 126.0,55.6" style="fill:none;fill-rule:evenodd;stroke:#000000;stroke-width:2.0px;stroke-linecap:butt;stroke-linejoin:miter;stroke-opacity:1"/>
<path class="bond-11 atom-11 atom-12" d="M 126.0,55.6 L 131.7,76.0" style="fill:none;fill-rule:evenodd;stroke:#000000;stroke-width:2.0px;stroke-linecap:butt;stroke-linejoin:miter;stroke-opacity:1"/>
<path class="bond-12 atom-11 atom-13" d="M 126.0,55.6 L 111.2,70.7" style="fill:none;fill-rule:evenodd;stroke:#000000;stroke-width:2.0px;stroke-linecap:butt;stroke-linejoin:miter;stroke-opacity:1"/>
<path class="bond-13 atom-13 atom-14" d="M 111.2,70.7 L 116.9,91.0" style="fill:none;fill-rule:evenodd;stroke:#000000;stroke-width:2.0px;stroke-linecap:butt;stroke-linejoin:miter;stroke-opacity:1"/>
<path class="bond-13 atom-13 atom-14" d="M 114.8,71.6 L 119.5,88.4" style="fill:none;fill-rule:evenodd;stroke:#000000;stroke-width:2.0px;stroke-linecap:butt;stroke-linejoin:miter;stroke-opacity:1"/>
<path class="bond-14 atom-14 atom-15" d="M 116.9,91.0 L 137.4,96.3" style="fill:none;fill-rule:evenodd;stroke:#000000;stroke-width:2.0px;stroke-linecap:butt;stroke-linejoin:miter;stroke-opacity:1"/>
<path class="bond-15 atom-15 atom-16" d="M 135.6,95.9 L 138.0,104.6" style="fill:none;fill-rule:evenodd;stroke:#000000;stroke-width:2.0px;stroke-linecap:butt;stroke-linejoin:miter;stroke-opacity:1"/>
<path class="bond-15 atom-15 atom-16" d="M 138.0,104.6 L 140.5,113.3" style="fill:none;fill-rule:evenodd;stroke:#FF0000;stroke-width:2.0px;stroke-linecap:butt;stroke-linejoin:miter;stroke-opacity:1"/>
<path class="bond-15 atom-15 atom-16" d="M 138.6,95.0 L 141.1,103.7" style="fill:none;fill-rule:evenodd;stroke:#000000;stroke-width:2.0px;stroke-linecap:butt;stroke-linejoin:miter;stroke-opacity:1"/>
<path class="bond-15 atom-15 atom-16" d="M 141.1,103.7 L 143.5,112.5" style="fill:none;fill-rule:evenodd;stroke:#FF0000;stroke-width:2.0px;stroke-linecap:butt;stroke-linejoin:miter;stroke-opacity:1"/>
<path class="bond-16 atom-15 atom-17" d="M 137.4,96.3 L 152.1,81.2" style="fill:none;fill-rule:evenodd;stroke:#000000;stroke-width:2.0px;stroke-linecap:butt;stroke-linejoin:miter;stroke-opacity:1"/>
<path class="bond-17 atom-17 atom-18" d="M 152.1,81.2 L 170.5,91.6" style="fill:none;fill-rule:evenodd;stroke:#000000;stroke-width:2.0px;stroke-linecap:butt;stroke-linejoin:miter;stroke-opacity:1"/>
<path class="bond-18 atom-18 atom-19" d="M 170.5,91.6 L 151.1,99.9" style="fill:none;fill-rule:evenodd;stroke:#000000;stroke-width:2.0px;stroke-linecap:butt;stroke-linejoin:miter;stroke-opacity:1"/>
<path class="bond-19 atom-18 atom-20" d="M 170.5,91.6 L 165.3,112.0" style="fill:none;fill-rule:evenodd;stroke:#000000;stroke-width:2.0px;stroke-linecap:butt;stroke-linejoin:miter;stroke-opacity:1"/>
<path class="bond-20 atom-20 atom-21" d="M 165.3,112.0 L 180.3,126.8" style="fill:none;fill-rule:evenodd;stroke:#000000;stroke-width:2.0px;stroke-linecap:butt;stroke-linejoin:miter;stroke-opacity:1"/>
<path class="bond-21 atom-21 atom-22" d="M 180.3,126.8 L 200.7,121.2" style="fill:none;fill-rule:evenodd;stroke:#000000;stroke-width:2.0px;stroke-linecap:butt;stroke-linejoin:miter;stroke-opacity:1"/>
<path class="bond-22 atom-22 atom-23" d="M 200.7,121.2 L 206.5,126.9" style="fill:none;fill-rule:evenodd;stroke:#000000;stroke-width:2.0px;stroke-linecap:butt;stroke-linejoin:miter;stroke-opacity:1"/>
<path class="bond-22 atom-22 atom-23" d="M 206.5,126.9 L 212.3,132.6" style="fill:none;fill-rule:evenodd;stroke:#FF0000;stroke-width:2.0px;stroke-linecap:butt;stroke-linejoin:miter;stroke-opacity:1"/>
<path class="bond-23 atom-22 atom-24" d="M 200.7,121.2 L 205.9,100.7" style="fill:none;fill-rule:evenodd;stroke:#000000;stroke-width:2.0px;stroke-linecap:butt;stroke-linejoin:miter;stroke-opacity:1"/>
<path class="bond-24 atom-24 atom-25" d="M 205.9,100.7 L 217.9,83.3" style="fill:none;fill-rule:evenodd;stroke:#000000;stroke-width:2.0px;stroke-linecap:butt;stroke-linejoin:miter;stroke-opacity:1"/>
<path class="bond-25 atom-24 atom-26" d="M 205.9,100.7 L 225.1,109.4" style="fill:none;fill-rule:evenodd;stroke:#000000;stroke-width:2.0px;stroke-linecap:butt;stroke-linejoin:miter;stroke-opacity:1"/>
<path class="bond-26 atom-24 atom-27" d="M 205.9,100.7 L 190.9,85.9" style="fill:none;fill-rule:evenodd;stroke:#000000;stroke-width:2.0px;stroke-linecap:butt;stroke-linejoin:miter;stroke-opacity:1"/>
<path class="bond-27 atom-27 atom-28" d="M 190.9,85.9 L 201.2,67.6" style="fill:none;fill-rule:evenodd;stroke:#000000;stroke-width:2.0px;stroke-linecap:butt;stroke-linejoin:miter;stroke-opacity:1"/>
<path class="bond-28 atom-28 atom-29" d="M 201.2,67.6 L 195.6,47.2" style="fill:none;fill-rule:evenodd;stroke:#000000;stroke-width:2.0px;stroke-linecap:butt;stroke-linejoin:miter;stroke-opacity:1"/>
<path class="bond-29 atom-29 atom-30" d="M 195.6,47.2 L 212.2,34.2" style="fill:none;fill-rule:evenodd;stroke:#000000;stroke-width:2.0px;stroke-linecap:butt;stroke-linejoin:miter;stroke-opacity:1"/>
<path class="bond-30 atom-30 atom-31" d="M 212.2,34.2 L 229.0,41.0" style="fill:none;fill-rule:evenodd;stroke:#000000;stroke-width:2.0px;stroke-linecap:butt;stroke-linejoin:miter;stroke-opacity:1"/>
<path class="bond-31 atom-31 atom-32" d="M 234.5,39.9 L 248.4,29.1" style="fill:none;fill-rule:evenodd;stroke:#000000;stroke-width:2.0px;stroke-linecap:butt;stroke-linejoin:miter;stroke-opacity:1"/>
<path class="bond-32 atom-32 atom-33" d="M 248.4,29.1 L 256.7,32.4" style="fill:none;fill-rule:evenodd;stroke:#000000;stroke-width:2.0px;stroke-linecap:butt;stroke-linejoin:miter;stroke-opacity:1"/>
<path class="bond-32 atom-32 atom-33" d="M 256.7,32.4 L 265.0,35.8" style="fill:none;fill-rule:evenodd;stroke:#0000FF;stroke-width:2.0px;stroke-linecap:butt;stroke-linejoin:miter;stroke-opacity:1"/>
<path class="bond-32 atom-32 atom-33" d="M 248.9,32.7 L 256.4,35.7" style="fill:none;fill-rule:evenodd;stroke:#000000;stroke-width:2.0px;stroke-linecap:butt;stroke-linejoin:miter;stroke-opacity:1"/>
<path class="bond-32 atom-32 atom-33" d="M 256.4,35.7 L 263.8,38.7" style="fill:none;fill-rule:evenodd;stroke:#0000FF;stroke-width:2.0px;stroke-linecap:butt;stroke-linejoin:miter;stroke-opacity:1"/>
<path class="bond-33 atom-33 atom-34" d="M 270.9,34.6 L 276.5,30.3" style="fill:none;fill-rule:evenodd;stroke:#0000FF;stroke-width:2.0px;stroke-linecap:butt;stroke-linejoin:miter;stroke-opacity:1"/>
<path class="bond-33 atom-33 atom-34" d="M 276.5,30.3 L 282.1,25.9" style="fill:none;fill-rule:evenodd;stroke:#33CCCC;stroke-width:2.0px;stroke-linecap:butt;stroke-linejoin:miter;stroke-opacity:1"/>
<path class="bond-34 atom-29 atom-35" d="M 195.6,47.2 L 177.2,36.8" style="fill:none;fill-rule:evenodd;stroke:#000000;stroke-width:2.0px;stroke-linecap:butt;stroke-linejoin:miter;stroke-opacity:1"/>
<path class="bond-35 atom-35 atom-36" d="M 177.2,36.8 L 156.8,42.5" style="fill:none;fill-rule:evenodd;stroke:#000000;stroke-width:2.0px;stroke-linecap:butt;stroke-linejoin:miter;stroke-opacity:1"/>
<path class="bond-36 atom-36 atom-37" d="M 156.8,42.5 L 146.5,60.9" style="fill:none;fill-rule:evenodd;stroke:#000000;stroke-width:2.0px;stroke-linecap:butt;stroke-linejoin:miter;stroke-opacity:1"/>
<path class="bond-37 atom-37 atom-38" d="M 146.5,60.9 L 138.2,41.5" style="fill:none;fill-rule:evenodd;stroke:#000000;stroke-width:2.0px;stroke-linecap:butt;stroke-linejoin:miter;stroke-opacity:1"/>
<path class="bond-38 atom-13 atom-39" d="M 111.2,70.7 L 90.8,65.4" style="fill:none;fill-rule:evenodd;stroke:#000000;stroke-width:2.0px;stroke-linecap:butt;stroke-linejoin:miter;stroke-opacity:1"/>
<path class="bond-39 atom-39 atom-40" d="M 90.8,65.4 L 76.0,80.5" style="fill:none;fill-rule:evenodd;stroke:#000000;stroke-width:2.0px;stroke-linecap:butt;stroke-linejoin:miter;stroke-opacity:1"/>
<path class="bond-40 atom-40 atom-1" d="M 76.0,80.5 L 55.6,75.3" style="fill:none;fill-rule:evenodd;stroke:#000000;stroke-width:2.0px;stroke-linecap:butt;stroke-linejoin:miter;stroke-opacity:1"/>
<path class="bond-41 atom-39 atom-7" d="M 90.8,65.4 L 85.1,45.1" style="fill:none;fill-rule:evenodd;stroke:#000000;stroke-width:2.0px;stroke-linecap:butt;stroke-linejoin:miter;stroke-opacity:1"/>
<path class="bond-42 atom-37 atom-11" d="M 146.5,60.9 L 126.0,55.6" style="fill:none;fill-rule:evenodd;stroke:#000000;stroke-width:2.0px;stroke-linecap:butt;stroke-linejoin:miter;stroke-opacity:1"/>
<path class="bond-43 atom-37 atom-17" d="M 146.5,60.9 L 152.1,81.2" style="fill:none;fill-rule:evenodd;stroke:#000000;stroke-width:2.0px;stroke-linecap:butt;stroke-linejoin:miter;stroke-opacity:1"/>
<path class="bond-44 atom-27 atom-18" d="M 190.9,85.9 L 170.5,91.6" style="fill:none;fill-rule:evenodd;stroke:#000000;stroke-width:2.0px;stroke-linecap:butt;stroke-linejoin:miter;stroke-opacity:1"/>
<path d="M 35.6,77.2 L 34.6,77.3 L 34.3,77.0" style="fill:none;stroke:#000000;stroke-width:2.0px;stroke-linecap:butt;stroke-linejoin:miter;stroke-opacity:1;"/>
<path d="M 50.2,55.9 L 49.9,54.9 L 50.6,54.2" style="fill:none;stroke:#000000;stroke-width:2.0px;stroke-linecap:butt;stroke-linejoin:miter;stroke-opacity:1;"/>
<path d="M 63.9,40.6 L 64.7,39.9 L 65.7,40.1" style="fill:none;stroke:#000000;stroke-width:2.0px;stroke-linecap:butt;stroke-linejoin:miter;stroke-opacity:1;"/>
<path d="M 99.2,30.8 L 99.9,30.0 L 100.9,30.3" style="fill:none;stroke:#000000;stroke-width:2.0px;stroke-linecap:butt;stroke-linejoin:miter;stroke-opacity:1;"/>
<path d="M 119.3,35.0 L 120.4,35.3 L 120.6,36.3" style="fill:none;stroke:#000000;stroke-width:2.0px;stroke-linecap:butt;stroke-linejoin:miter;stroke-opacity:1;"/>
<path d="M 116.6,90.0 L 116.9,91.0 L 117.9,91.3" style="fill:none;stroke:#000000;stroke-width:2.0px;stroke-linecap:butt;stroke-linejoin:miter;stroke-opacity:1;"/>
<path d="M 136.3,96.0 L 137.4,96.3 L 138.1,95.6" style="fill:none;stroke:#000000;stroke-width:2.0px;stroke-linecap:butt;stroke-linejoin:miter;stroke-opacity:1;"/>
<path d="M 165.5,111.0 L 165.3,112.0 L 166.0,112.8" style="fill:none;stroke:#000000;stroke-width:2.0px;stroke-linecap:butt;stroke-linejoin:miter;stroke-opacity:1;"/>
<path d="M 179.6,126.1 L 180.3,126.8 L 181.3,126.5" style="fill:none;stroke:#000000;stroke-width:2.0px;stroke-linecap:butt;stroke-linejoin:miter;stroke-opacity:1;"/>
<path d="M 200.7,68.5 L 201.2,67.6 L 200.9,66.5" style="fill:none;stroke:#000000;stroke-width:2.0px;stroke-linecap:butt;stroke-linejoin:miter;stroke-opacity:1;"/>
<path d="M 211.3,34.8 L 212.2,34.2 L 213.0,34.5" style="fill:none;stroke:#000000;stroke-width:2.0px;stroke-linecap:butt;stroke-linejoin:miter;stroke-opacity:1;"/>
<path d="M 247.7,29.6 L 248.4,29.1 L 248.8,29.2" style="fill:none;stroke:#000000;stroke-width:2.0px;stroke-linecap:butt;stroke-linejoin:miter;stroke-opacity:1;"/>
<path d="M 178.1,37.4 L 177.2,36.8 L 176.2,37.1" style="fill:none;stroke:#000000;stroke-width:2.0px;stroke-linecap:butt;stroke-linejoin:miter;stroke-opacity:1;"/>
<path d="M 157.9,42.2 L 156.8,42.5 L 156.3,43.4" style="fill:none;stroke:#000000;stroke-width:2.0px;stroke-linecap:butt;stroke-linejoin:miter;stroke-opacity:1;"/>
<path d="M 76.8,79.8 L 76.0,80.5 L 75.0,80.3" style="fill:none;stroke:#000000;stroke-width:2.0px;stroke-linecap:butt;stroke-linejoin:miter;stroke-opacity:1;"/>
<path class="atom-3" d="M 23.1 96.5 Q 23.1 95.1, 23.8 94.3 Q 24.5 93.5, 25.8 93.5 Q 27.2 93.5, 27.9 94.3 Q 28.6 95.1, 28.6 96.5 Q 28.6 98.0, 27.9 98.8 Q 27.1 99.6, 25.8 99.6 Q 24.5 99.6, 23.8 98.8 Q 23.1 98.0, 23.1 96.5 M 25.8 99.0 Q 26.7 99.0, 27.2 98.4 Q 27.7 97.7, 27.7 96.5 Q 27.7 95.4, 27.2 94.8 Q 26.7 94.2, 25.8 94.2 Q 24.9 94.2, 24.4 94.8 Q 23.9 95.4, 23.9 96.5 Q 23.9 97.8, 24.4 98.4 Q 24.9 99.0, 25.8 99.0 " fill="#FF0000"/>
<path class="atom-4" d="M 13.6 57.2 L 14.4 57.2 L 14.4 59.7 L 17.5 59.7 L 17.5 57.2 L 18.3 57.2 L 18.3 63.2 L 17.5 63.2 L 17.5 60.4 L 14.4 60.4 L 14.4 63.2 L 13.6 63.2 L 13.6 57.2 " fill="#FF0000"/>
<path class="atom-4" d="M 19.5 60.2 Q 19.5 58.7, 20.2 57.9 Q 21.0 57.1, 22.3 57.1 Q 23.6 57.1, 24.3 57.9 Q 25.0 58.7, 25.0 60.2 Q 25.0 61.6, 24.3 62.4 Q 23.6 63.3, 22.3 63.3 Q 21.0 63.3, 20.2 62.4 Q 19.5 61.6, 19.5 60.2 M 22.3 62.6 Q 23.2 62.6, 23.7 62.0 Q 24.2 61.4, 24.2 60.2 Q 24.2 59.0, 23.7 58.4 Q 23.2 57.8, 22.3 57.8 Q 21.4 57.8, 20.9 58.4 Q 20.4 59.0, 20.4 60.2 Q 20.4 61.4, 20.9 62.0 Q 21.4 62.6, 22.3 62.6 " fill="#FF0000"/>
<path class="atom-16" d="M 140.3 116.7 Q 140.3 115.2, 141.0 114.4 Q 141.7 113.6, 143.0 113.6 Q 144.3 113.6, 145.1 114.4 Q 145.8 115.2, 145.8 116.7 Q 145.8 118.1, 145.0 118.9 Q 144.3 119.8, 143.0 119.8 Q 141.7 119.8, 141.0 118.9 Q 140.3 118.1, 140.3 116.7 M 143.0 119.1 Q 143.9 119.1, 144.4 118.5 Q 144.9 117.9, 144.9 116.7 Q 144.9 115.5, 144.4 114.9 Q 143.9 114.3, 143.0 114.3 Q 142.1 114.3, 141.6 114.9 Q 141.1 115.5, 141.1 116.7 Q 141.1 117.9, 141.6 118.5 Q 142.1 119.1, 143.0 119.1 " fill="#FF0000"/>
<path class="atom-23" d="M 213.0 136.0 Q 213.0 134.5, 213.7 133.7 Q 214.4 132.9, 215.7 132.9 Q 217.1 132.9, 217.8 133.7 Q 218.5 134.5, 218.5 136.0 Q 218.5 137.4, 217.8 138.2 Q 217.1 139.1, 215.7 139.1 Q 214.4 139.1, 213.7 138.2 Q 213.0 137.4, 213.0 136.0 M 215.7 138.4 Q 216.7 138.4, 217.1 137.8 Q 217.6 137.2, 217.6 136.0 Q 217.6 134.8, 217.1 134.2 Q 216.7 133.6, 215.7 133.6 Q 214.8 133.6, 214.3 134.2 Q 213.8 134.8, 213.8 136.0 Q 213.8 137.2, 214.3 137.8 Q 214.8 138.4, 215.7 138.4 " fill="#FF0000"/>
<path class="atom-23" d="M 219.4 133.0 L 220.2 133.0 L 220.2 135.5 L 223.3 135.5 L 223.3 133.0 L 224.1 133.0 L 224.1 139.0 L 223.3 139.0 L 223.3 136.2 L 220.2 136.2 L 220.2 139.0 L 219.4 139.0 L 219.4 133.0 " fill="#FF0000"/>
<path class="atom-31" d="M 232.6 41.9 Q 233.2 42.1, 233.5 42.4 Q 233.8 42.8, 233.8 43.3 Q 233.8 44.1, 233.3 44.6 Q 232.7 45.1, 231.7 45.1 L 229.7 45.1 L 229.7 39.1 L 231.5 39.1 Q 232.5 39.1, 233.0 39.5 Q 233.5 39.9, 233.5 40.7 Q 233.5 41.6, 232.6 41.9 M 230.5 39.8 L 230.5 41.6 L 231.5 41.6 Q 232.1 41.6, 232.4 41.4 Q 232.7 41.2, 232.7 40.7 Q 232.7 39.8, 231.5 39.8 L 230.5 39.8 M 231.7 44.4 Q 232.3 44.4, 232.6 44.1 Q 233.0 43.8, 233.0 43.3 Q 233.0 42.8, 232.6 42.6 Q 232.3 42.3, 231.6 42.3 L 230.5 42.3 L 230.5 44.4 L 231.7 44.4 " fill="#000000"/>
<path class="atom-31" d="M 229.4 45.7 L 230.2 45.7 L 230.2 48.2 L 233.3 48.2 L 233.3 45.7 L 234.1 45.7 L 234.1 51.6 L 233.3 51.6 L 233.3 48.9 L 230.2 48.9 L 230.2 51.6 L 229.4 51.6 L 229.4 45.7 " fill="#000000"/>
<path class="atom-33" d="M 266.6 34.0 L 268.6 37.1 Q 268.8 37.4, 269.1 38.0 Q 269.4 38.6, 269.4 38.6 L 269.4 34.0 L 270.2 34.0 L 270.2 39.9 L 269.4 39.9 L 267.3 36.5 Q 267.1 36.1, 266.8 35.6 Q 266.6 35.1, 266.5 35.0 L 266.5 39.9 L 265.7 39.9 L 265.7 34.0 L 266.6 34.0 " fill="#0000FF"/>
<path class="atom-34" d="M 282.8 20.9 L 286.4 20.9 L 286.4 21.6 L 283.6 21.6 L 283.6 23.4 L 286.1 23.4 L 286.1 24.1 L 283.6 24.1 L 283.6 26.9 L 282.8 26.9 L 282.8 20.9 " fill="#33CCCC"/>
<path class="atom-29" d="M 193.5,47.2 L 193.4,47.3 L 193.4,47.3 L 193.4,47.3 L 193.4,47.4 L 193.4,47.4 L 193.4,47.4 L 193.4,47.5 L 193.4,47.5 L 193.3,47.5 L 193.3,47.5 L 193.3,47.6 L 193.2,47.6 L 193.2,47.6 L 193.2,47.6 L 193.1,47.6 L 193.1,47.6 L 193.1,47.6 L 193.0,47.6 L 193.0,47.6 L 193.0,47.6 L 192.9,47.6 L 192.9,47.6 L 192.9,47.6 L 192.8,47.6 L 192.8,47.6 L 192.8,47.5 L 192.7,47.5 L 192.7,47.5 L 192.7,47.5 L 192.7,47.4 L 192.7,47.4 L 192.6,47.4 L 192.6,47.3 L 192.6,47.3 L 192.6,47.3 L 192.6,47.2 L 192.6,47.2 L 192.6,47.2 L 192.6,47.1 L 192.6,47.1 L 192.6,47.1 L 192.7,47.0 L 192.7,47.0 L 192.7,47.0 L 192.7,46.9 L 192.7,46.9 L 192.8,46.9 L 192.8,46.9 L 192.8,46.8 L 192.9,46.8 L 192.9,46.8 L 192.9,46.8 L 193.0,46.8 L 193.0,46.8 L 193.0,46.8 L 193.1,46.8 L 193.1,46.8 L 193.1,46.8 L 193.2,46.8 L 193.2,46.8 L 193.2,46.9 L 193.3,46.9 L 193.3,46.9 L 193.3,46.9 L 193.4,46.9 L 193.4,47.0 L 193.4,47.0 L 193.4,47.0 L 193.4,47.1 L 193.4,47.1 L 193.4,47.1 L 193.4,47.2 L 193.5,47.2 L 193.0,47.2 Z" style="fill:#000000;fill-rule:evenodd;fill-opacity:1;stroke:#000000;stroke-width:0.0px;stroke-linecap:butt;stroke-linejoin:miter;stroke-opacity:1;"/>
<path class="atom-30" d="M 213.4,32.3 L 213.4,32.3 L 213.4,32.4 L 213.4,32.4 L 213.4,32.4 L 213.4,32.5 L 213.4,32.5 L 213.4,32.5 L 213.4,32.6 L 213.3,32.6 L 213.3,32.6 L 213.3,32.6 L 213.2,32.7 L 213.2,32.7 L 213.2,32.7 L 213.1,32.7 L 213.1,32.7 L 213.1,32.7 L 213.0,32.7 L 213.0,32.7 L 213.0,32.7 L 212.9,32.7 L 212.9,32.7 L 212.9,32.7 L 212.8,32.7 L 212.8,32.7 L 212.8,32.6 L 212.7,32.6 L 212.7,32.6 L 212.7,32.6 L 212.7,32.5 L 212.6,32.5 L 212.6,32.5 L 212.6,32.4 L 212.6,32.4 L 212.6,32.4 L 212.6,32.3 L 212.6,32.3 L 212.6,32.2 L 212.6,32.2 L 212.6,32.2 L 212.6,32.1 L 212.6,32.1 L 212.7,32.1 L 212.7,32.0 L 212.7,32.0 L 212.7,32.0 L 212.8,32.0 L 212.8,31.9 L 212.8,31.9 L 212.9,31.9 L 212.9,31.9 L 212.9,31.9 L 213.0,31.9 L 213.0,31.9 L 213.0,31.9 L 213.1,31.9 L 213.1,31.9 L 213.1,31.9 L 213.2,31.9 L 213.2,31.9 L 213.2,31.9 L 213.3,32.0 L 213.3,32.0 L 213.3,32.0 L 213.4,32.0 L 213.4,32.1 L 213.4,32.1 L 213.4,32.1 L 213.4,32.2 L 213.4,32.2 L 213.4,32.2 L 213.4,32.3 L 213.4,32.3 L 213.0,32.3 Z" style="fill:#000000;fill-rule:evenodd;fill-opacity:1;stroke:#000000;stroke-width:0.0px;stroke-linecap:butt;stroke-linejoin:miter;stroke-opacity:1;"/>
<path class="atom-30" d="M 211.8,32.3 L 211.8,32.3 L 211.8,32.4 L 211.7,32.4 L 211.7,32.4 L 211.7,32.5 L 211.7,32.5 L 211.7,32.5 L 211.7,32.6 L 211.6,32.6 L 211.6,32.6 L 211.6,32.6 L 211.6,32.7 L 211.5,32.7 L 211.5,32.7 L 211.5,32.7 L 211.4,32.7 L 211.4,32.7 L 211.3,32.7 L 211.3,32.7 L 211.3,32.7 L 211.2,32.7 L 211.2,32.7 L 211.2,32.7 L 211.1,32.7 L 211.1,32.7 L 211.1,32.6 L 211.0,32.6 L 211.0,32.6 L 211.0,32.6 L 211.0,32.5 L 211.0,32.5 L 210.9,32.5 L 210.9,32.4 L 210.9,32.4 L 210.9,32.4 L 210.9,32.3 L 210.9,32.3 L 210.9,32.2 L 210.9,32.2 L 210.9,32.2 L 210.9,32.1 L 211.0,32.1 L 211.0,32.1 L 211.0,32.0 L 211.0,32.0 L 211.0,32.0 L 211.1,32.0 L 211.1,31.9 L 211.1,31.9 L 211.2,31.9 L 211.2,31.9 L 211.2,31.9 L 211.3,31.9 L 211.3,31.9 L 211.3,31.9 L 211.4,31.9 L 211.4,31.9 L 211.5,31.9 L 211.5,31.9 L 211.5,31.9 L 211.6,31.9 L 211.6,32.0 L 211.6,32.0 L 211.6,32.0 L 211.7,32.0 L 211.7,32.1 L 211.7,32.1 L 211.7,32.1 L 211.7,32.2 L 211.7,32.2 L 211.8,32.2 L 211.8,32.3 L 211.8,32.3 L 211.3,32.3 Z" style="fill:#000000;fill-rule:evenodd;fill-opacity:1;stroke:#000000;stroke-width:0.0px;stroke-linecap:butt;stroke-linejoin:miter;stroke-opacity:1;"/>
<path class="atom-32" d="M 248.8,27.2 L 248.8,27.2 L 248.8,27.2 L 248.8,27.3 L 248.8,27.3 L 248.8,27.3 L 248.8,27.4 L 248.7,27.4 L 248.7,27.4 L 248.7,27.5 L 248.7,27.5 L 248.6,27.5 L 248.6,27.5 L 248.6,27.5 L 248.5,27.6 L 248.5,27.6 L 248.5,27.6 L 248.4,27.6 L 248.4,27.6 L 248.4,27.6 L 248.3,27.6 L 248.3,27.6 L 248.2,27.6 L 248.2,27.6 L 248.2,27.5 L 248.2,27.5 L 248.1,27.5 L 248.1,27.5 L 248.1,27.4 L 248.0,27.4 L 248.0,27.4 L 248.0,27.4 L 248.0,27.3 L 248.0,27.3 L 248.0,27.3 L 248.0,27.2 L 248.0,27.2 L 248.0,27.1 L 248.0,27.1 L 248.0,27.1 L 248.0,27.0 L 248.0,27.0 L 248.0,27.0 L 248.0,26.9 L 248.0,26.9 L 248.1,26.9 L 248.1,26.9 L 248.1,26.8 L 248.2,26.8 L 248.2,26.8 L 248.2,26.8 L 248.2,26.8 L 248.3,26.8 L 248.3,26.7 L 248.4,26.7 L 248.4,26.7 L 248.4,26.7 L 248.5,26.8 L 248.5,26.8 L 248.5,26.8 L 248.6,26.8 L 248.6,26.8 L 248.6,26.8 L 248.7,26.8 L 248.7,26.9 L 248.7,26.9 L 248.7,26.9 L 248.8,27.0 L 248.8,27.0 L 248.8,27.0 L 248.8,27.1 L 248.8,27.1 L 248.8,27.1 L 248.8,27.2 L 248.4,27.2 Z" style="fill:#000000;fill-rule:evenodd;fill-opacity:1;stroke:#000000;stroke-width:0.0px;stroke-linecap:butt;stroke-linejoin:miter;stroke-opacity:1;"/>
<path class="bond-0 atom-0 atom-1" d="M 351.0,95.1 L 356.1,74.6" style="fill:none;fill-rule:evenodd;stroke:#000000;stroke-width:2.0px;stroke-linecap:butt;stroke-linejoin:miter;stroke-opacity:1"/>
<path class="bond-1 atom-1 atom-2" d="M 356.1,74.6 L 335.0,73.2" style="fill:none;fill-rule:evenodd;stroke:#000000;stroke-width:2.0px;stroke-linecap:butt;stroke-linejoin:miter;stroke-opacity:1"/>
<path class="bond-2 atom-2 atom-3" d="M 334.2,71.5 L 329.3,78.8" style="fill:none;fill-rule:evenodd;stroke:#000000;stroke-width:2.0px;stroke-linecap:butt;stroke-linejoin:miter;stroke-opacity:1"/>
<path class="bond-2 atom-2 atom-3" d="M 329.3,78.8 L 324.4,86.1" style="fill:none;fill-rule:evenodd;stroke:#FF0000;stroke-width:2.0px;stroke-linecap:butt;stroke-linejoin:miter;stroke-opacity:1"/>
<path class="bond-2 atom-2 atom-3" d="M 336.8,73.3 L 331.9,80.6" style="fill:none;fill-rule:evenodd;stroke:#000000;stroke-width:2.0px;stroke-linecap:butt;stroke-linejoin:miter;stroke-opacity:1"/>
<path class="bond-2 atom-2 atom-3" d="M 331.9,80.6 L 327.1,87.9" style="fill:none;fill-rule:evenodd;stroke:#FF0000;stroke-width:2.0px;stroke-linecap:butt;stroke-linejoin:miter;stroke-opacity:1"/>
<path class="bond-3 atom-2 atom-4" d="M 335.0,73.2 L 331.3,65.6" style="fill:none;fill-rule:evenodd;stroke:#000000;stroke-width:2.0px;stroke-linecap:butt;stroke-linejoin:miter;stroke-opacity:1"/>
<path class="bond-3 atom-2 atom-4" d="M 331.3,65.6 L 327.5,58.0" style="fill:none;fill-rule:evenodd;stroke:#FF0000;stroke-width:2.0px;stroke-linecap:butt;stroke-linejoin:miter;stroke-opacity:1"/>
<path class="bond-4 atom-1 atom-5" d="M 356.1,74.6 L 353.8,53.6" style="fill:none;fill-rule:evenodd;stroke:#000000;stroke-width:2.0px;stroke-linecap:butt;stroke-linejoin:miter;stroke-opacity:1"/>
<path class="bond-5 atom-5 atom-6" d="M 353.8,53.6 L 370.8,41.1" style="fill:none;fill-rule:evenodd;stroke:#000000;stroke-width:2.0px;stroke-linecap:butt;stroke-linejoin:miter;stroke-opacity:1"/>
<path class="bond-6 atom-6 atom-7" d="M 370.8,41.1 L 390.1,49.6" style="fill:none;fill-rule:evenodd;stroke:#000000;stroke-width:2.0px;stroke-linecap:butt;stroke-linejoin:miter;stroke-opacity:1"/>
<path class="bond-7 atom-7 atom-8" d="M 390.1,49.6 L 387.8,28.6" style="fill:none;fill-rule:evenodd;stroke:#000000;stroke-width:2.0px;stroke-linecap:butt;stroke-linejoin:miter;stroke-opacity:1"/>
<path class="bond-8 atom-7 atom-9" d="M 390.1,49.6 L 407.2,37.1" style="fill:none;fill-rule:evenodd;stroke:#000000;stroke-width:2.0px;stroke-linecap:butt;stroke-linejoin:miter;stroke-opacity:1"/>
<path class="bond-9 atom-9 atom-10" d="M 407.2,37.1 L 426.5,45.7" style="fill:none;fill-rule:evenodd;stroke:#000000;stroke-width:2.0px;stroke-linecap:butt;stroke-linejoin:miter;stroke-opacity:1"/>
<path class="bond-10 atom-10 atom-11" d="M 426.5,45.7 L 428.8,66.6" style="fill:none;fill-rule:evenodd;stroke:#000000;stroke-width:2.0px;stroke-linecap:butt;stroke-linejoin:miter;stroke-opacity:1"/>
<path class="bond-11 atom-11 atom-12" d="M 428.8,66.6 L 431.0,87.6" style="fill:none;fill-rule:evenodd;stroke:#000000;stroke-width:2.0px;stroke-linecap:butt;stroke-linejoin:miter;stroke-opacity:1"/>
<path class="bond-12 atom-11 atom-13" d="M 428.8,66.6 L 411.7,79.1" style="fill:none;fill-rule:evenodd;stroke:#000000;stroke-width:2.0px;stroke-linecap:butt;stroke-linejoin:miter;stroke-opacity:1"/>
<path class="bond-13 atom-13 atom-14" d="M 411.7,79.1 L 414.0,100.1" style="fill:none;fill-rule:evenodd;stroke:#000000;stroke-width:2.0px;stroke-linecap:butt;stroke-linejoin:miter;stroke-opacity:1"/>
<path class="bond-13 atom-13 atom-14" d="M 415.1,80.6 L 417.0,97.9" style="fill:none;fill-rule:evenodd;stroke:#000000;stroke-width:2.0px;stroke-linecap:butt;stroke-linejoin:miter;stroke-opacity:1"/>
<path class="bond-14 atom-14 atom-15" d="M 414.0,100.1 L 433.3,108.6" style="fill:none;fill-rule:evenodd;stroke:#000000;stroke-width:2.0px;stroke-linecap:butt;stroke-linejoin:miter;stroke-opacity:1"/>
<path class="bond-15 atom-15 atom-16" d="M 431.7,107.9 L 432.7,117.0" style="fill:none;fill-rule:evenodd;stroke:#000000;stroke-width:2.0px;stroke-linecap:butt;stroke-linejoin:miter;stroke-opacity:1"/>
<path class="bond-15 atom-15 atom-16" d="M 432.7,117.0 L 433.6,126.1" style="fill:none;fill-rule:evenodd;stroke:#FF0000;stroke-width:2.0px;stroke-linecap:butt;stroke-linejoin:miter;stroke-opacity:1"/>
<path class="bond-15 atom-15 atom-16" d="M 434.8,107.5 L 435.8,116.6" style="fill:none;fill-rule:evenodd;stroke:#000000;stroke-width:2.0px;stroke-linecap:butt;stroke-linejoin:miter;stroke-opacity:1"/>
<path class="bond-15 atom-15 atom-16" d="M 435.8,116.6 L 436.8,125.7" style="fill:none;fill-rule:evenodd;stroke:#FF0000;stroke-width:2.0px;stroke-linecap:butt;stroke-linejoin:miter;stroke-opacity:1"/>
<path class="bond-16 atom-15 atom-17" d="M 433.3,108.6 L 450.4,96.1" style="fill:none;fill-rule:evenodd;stroke:#000000;stroke-width:2.0px;stroke-linecap:butt;stroke-linejoin:miter;stroke-opacity:1"/>
<path class="bond-17 atom-17 atom-18" d="M 450.4,96.1 L 468.2,107.4" style="fill:none;fill-rule:evenodd;stroke:#000000;stroke-width:2.0px;stroke-linecap:butt;stroke-linejoin:miter;stroke-opacity:1"/>
<path class="bond-18 atom-18 atom-19" d="M 468.2,107.4 L 448.8,115.8" style="fill:none;fill-rule:evenodd;stroke:#000000;stroke-width:2.0px;stroke-linecap:butt;stroke-linejoin:miter;stroke-opacity:1"/>
<path class="bond-19 atom-18 atom-20" d="M 468.2,107.4 L 464.2,128.2" style="fill:none;fill-rule:evenodd;stroke:#000000;stroke-width:2.0px;stroke-linecap:butt;stroke-linejoin:miter;stroke-opacity:1"/>
<path class="bond-20 atom-20 atom-21" d="M 464.2,128.2 L 480.2,142.0" style="fill:none;fill-rule:evenodd;stroke:#000000;stroke-width:2.0px;stroke-linecap:butt;stroke-linejoin:miter;stroke-opacity:1"/>
<path class="bond-21 atom-21 atom-22" d="M 480.2,142.0 L 500.1,135.1" style="fill:none;fill-rule:evenodd;stroke:#000000;stroke-width:2.0px;stroke-linecap:butt;stroke-linejoin:miter;stroke-opacity:1"/>
<path class="bond-22 atom-22 atom-23" d="M 500.1,135.1 L 506.4,140.5" style="fill:none;fill-rule:evenodd;stroke:#000000;stroke-width:2.0px;stroke-linecap:butt;stroke-linejoin:miter;stroke-opacity:1"/>
<path class="bond-22 atom-22 atom-23" d="M 506.4,140.5 L 512.6,145.9" style="fill:none;fill-rule:evenodd;stroke:#FF0000;stroke-width:2.0px;stroke-linecap:butt;stroke-linejoin:miter;stroke-opacity:1"/>
<path class="bond-23 atom-22 atom-24" d="M 500.1,135.1 L 504.1,114.4" style="fill:none;fill-rule:evenodd;stroke:#000000;stroke-width:2.0px;stroke-linecap:butt;stroke-linejoin:miter;stroke-opacity:1"/>
<path class="bond-24 atom-24 atom-25" d="M 504.1,114.4 L 515.0,96.3" style="fill:none;fill-rule:evenodd;stroke:#000000;stroke-width:2.0px;stroke-linecap:butt;stroke-linejoin:miter;stroke-opacity:1"/>
<path class="bond-25 atom-24 atom-26" d="M 504.1,114.4 L 523.8,121.9" style="fill:none;fill-rule:evenodd;stroke:#000000;stroke-width:2.0px;stroke-linecap:butt;stroke-linejoin:miter;stroke-opacity:1"/>
<path class="bond-26 atom-24 atom-27" d="M 504.1,114.4 L 488.2,100.5" style="fill:none;fill-rule:evenodd;stroke:#000000;stroke-width:2.0px;stroke-linecap:butt;stroke-linejoin:miter;stroke-opacity:1"/>
<path class="bond-27 atom-27 atom-28" d="M 488.2,100.5 L 495.2,80.6" style="fill:none;fill-rule:evenodd;stroke:#000000;stroke-width:2.0px;stroke-linecap:butt;stroke-linejoin:miter;stroke-opacity:1"/>
<path class="bond-28 atom-28 atom-29" d="M 495.2,80.6 L 484.0,62.7" style="fill:none;fill-rule:evenodd;stroke:#000000;stroke-width:2.0px;stroke-linecap:butt;stroke-linejoin:miter;stroke-opacity:1"/>
<path class="bond-29 atom-29 atom-30" d="M 484.0,62.7 L 495.3,44.9" style="fill:none;fill-rule:evenodd;stroke:#000000;stroke-width:2.0px;stroke-linecap:butt;stroke-linejoin:miter;stroke-opacity:1"/>
<path class="bond-30 atom-30 atom-31" d="M 495.3,44.9 L 504.4,45.3" style="fill:none;fill-rule:evenodd;stroke:#000000;stroke-width:2.0px;stroke-linecap:butt;stroke-linejoin:miter;stroke-opacity:1"/>
<path class="bond-30 atom-30 atom-31" d="M 504.4,45.3 L 513.5,45.6" style="fill:none;fill-rule:evenodd;stroke:#0000FF;stroke-width:2.0px;stroke-linecap:butt;stroke-linejoin:miter;stroke-opacity:1"/>
<path class="bond-31 atom-31 atom-32" d="M 518.8,42.1 L 523.2,35.0" style="fill:none;fill-rule:evenodd;stroke:#0000FF;stroke-width:2.0px;stroke-linecap:butt;stroke-linejoin:miter;stroke-opacity:1"/>
<path class="bond-31 atom-31 atom-32" d="M 523.2,35.0 L 527.7,27.9" style="fill:none;fill-rule:evenodd;stroke:#000000;stroke-width:2.0px;stroke-linecap:butt;stroke-linejoin:miter;stroke-opacity:1"/>
<path class="bond-32 atom-32 atom-33" d="M 527.7,27.9 L 548.8,28.8" style="fill:none;fill-rule:evenodd;stroke:#000000;stroke-width:2.0px;stroke-linecap:butt;stroke-linejoin:miter;stroke-opacity:1"/>
<path class="bond-33 atom-33 atom-34" d="M 548.8,28.8 L 553.3,21.7" style="fill:none;fill-rule:evenodd;stroke:#000000;stroke-width:2.0px;stroke-linecap:butt;stroke-linejoin:miter;stroke-opacity:1"/>
<path class="bond-33 atom-33 atom-34" d="M 553.3,21.7 L 557.8,14.6" style="fill:none;fill-rule:evenodd;stroke:#0000FF;stroke-width:2.0px;stroke-linecap:butt;stroke-linejoin:miter;stroke-opacity:1"/>
<path class="bond-33 atom-33 atom-34" d="M 547.1,25.5 L 551.1,19.2" style="fill:none;fill-rule:evenodd;stroke:#000000;stroke-width:2.0px;stroke-linecap:butt;stroke-linejoin:miter;stroke-opacity:1"/>
<path class="bond-33 atom-33 atom-34" d="M 551.1,19.2 L 555.1,12.9" style="fill:none;fill-rule:evenodd;stroke:#0000FF;stroke-width:2.0px;stroke-linecap:butt;stroke-linejoin:miter;stroke-opacity:1"/>
<path class="bond-34 atom-34 atom-35" d="M 563.1,11.1 L 570.9,11.4" style="fill:none;fill-rule:evenodd;stroke:#0000FF;stroke-width:2.0px;stroke-linecap:butt;stroke-linejoin:miter;stroke-opacity:1"/>
<path class="bond-34 atom-34 atom-35" d="M 570.9,11.4 L 578.7,11.7" style="fill:none;fill-rule:evenodd;stroke:#33CCCC;stroke-width:2.0px;stroke-linecap:butt;stroke-linejoin:miter;stroke-opacity:1"/>
<path class="bond-35 atom-29 atom-36" d="M 484.0,62.7 L 463.1,60.3" style="fill:none;fill-rule:evenodd;stroke:#000000;stroke-width:2.0px;stroke-linecap:butt;stroke-linejoin:miter;stroke-opacity:1"/>
<path class="bond-36 atom-36 atom-37" d="M 463.1,60.3 L 448.1,75.2" style="fill:none;fill-rule:evenodd;stroke:#000000;stroke-width:2.0px;stroke-linecap:butt;stroke-linejoin:miter;stroke-opacity:1"/>
<path class="bond-37 atom-37 atom-38" d="M 448.1,75.2 L 444.2,54.4" style="fill:none;fill-rule:evenodd;stroke:#000000;stroke-width:2.0px;stroke-linecap:butt;stroke-linejoin:miter;stroke-opacity:1"/>
<path class="bond-38 atom-13 atom-39" d="M 411.7,79.1 L 392.4,70.6" style="fill:none;fill-rule:evenodd;stroke:#000000;stroke-width:2.0px;stroke-linecap:butt;stroke-linejoin:miter;stroke-opacity:1"/>
<path class="bond-39 atom-39 atom-40" d="M 392.4,70.6 L 375.4,83.1" style="fill:none;fill-rule:evenodd;stroke:#000000;stroke-width:2.0px;stroke-linecap:butt;stroke-linejoin:miter;stroke-opacity:1"/>
<path class="bond-40 atom-40 atom-1" d="M 375.4,83.1 L 356.1,74.6" style="fill:none;fill-rule:evenodd;stroke:#000000;stroke-width:2.0px;stroke-linecap:butt;stroke-linejoin:miter;stroke-opacity:1"/>
<path class="bond-41 atom-39 atom-7" d="M 392.4,70.6 L 390.1,49.6" style="fill:none;fill-rule:evenodd;stroke:#000000;stroke-width:2.0px;stroke-linecap:butt;stroke-linejoin:miter;stroke-opacity:1"/>
<path class="bond-42 atom-37 atom-11" d="M 448.1,75.2 L 428.8,66.6" style="fill:none;fill-rule:evenodd;stroke:#000000;stroke-width:2.0px;stroke-linecap:butt;stroke-linejoin:miter;stroke-opacity:1"/>
<path class="bond-43 atom-37 atom-17" d="M 448.1,75.2 L 450.4,96.1" style="fill:none;fill-rule:evenodd;stroke:#000000;stroke-width:2.0px;stroke-linecap:butt;stroke-linejoin:miter;stroke-opacity:1"/>
<path class="bond-44 atom-27 atom-18" d="M 488.2,100.5 L 468.2,107.4" style="fill:none;fill-rule:evenodd;stroke:#000000;stroke-width:2.0px;stroke-linecap:butt;stroke-linejoin:miter;stroke-opacity:1"/>
<path d="M 336.1,73.2 L 335.0,73.2 L 334.8,72.8" style="fill:none;stroke:#000000;stroke-width:2.0px;stroke-linecap:butt;stroke-linejoin:miter;stroke-opacity:1;"/>
<path d="M 353.9,54.6 L 353.8,53.6 L 354.6,53.0" style="fill:none;stroke:#000000;stroke-width:2.0px;stroke-linecap:butt;stroke-linejoin:miter;stroke-opacity:1;"/>
<path d="M 370.0,41.7 L 370.8,41.1 L 371.8,41.5" style="fill:none;stroke:#000000;stroke-width:2.0px;stroke-linecap:butt;stroke-linejoin:miter;stroke-opacity:1;"/>
<path d="M 406.3,37.8 L 407.2,37.1 L 408.1,37.6" style="fill:none;stroke:#000000;stroke-width:2.0px;stroke-linecap:butt;stroke-linejoin:miter;stroke-opacity:1;"/>
<path d="M 425.5,45.2 L 426.5,45.7 L 426.6,46.7" style="fill:none;stroke:#000000;stroke-width:2.0px;stroke-linecap:butt;stroke-linejoin:miter;stroke-opacity:1;"/>
<path d="M 413.9,99.1 L 414.0,100.1 L 415.0,100.5" style="fill:none;stroke:#000000;stroke-width:2.0px;stroke-linecap:butt;stroke-linejoin:miter;stroke-opacity:1;"/>
<path d="M 432.4,108.2 L 433.3,108.6 L 434.2,108.0" style="fill:none;stroke:#000000;stroke-width:2.0px;stroke-linecap:butt;stroke-linejoin:miter;stroke-opacity:1;"/>
<path d="M 464.4,127.1 L 464.2,128.2 L 465.0,128.9" style="fill:none;stroke:#000000;stroke-width:2.0px;stroke-linecap:butt;stroke-linejoin:miter;stroke-opacity:1;"/>
<path d="M 479.4,141.3 L 480.2,142.0 L 481.2,141.6" style="fill:none;stroke:#000000;stroke-width:2.0px;stroke-linecap:butt;stroke-linejoin:miter;stroke-opacity:1;"/>
<path d="M 494.8,81.6 L 495.2,80.6 L 494.6,79.7" style="fill:none;stroke:#000000;stroke-width:2.0px;stroke-linecap:butt;stroke-linejoin:miter;stroke-opacity:1;"/>
<path d="M 494.8,45.8 L 495.3,44.9 L 495.8,44.9" style="fill:none;stroke:#000000;stroke-width:2.0px;stroke-linecap:butt;stroke-linejoin:miter;stroke-opacity:1;"/>
<path d="M 527.5,28.3 L 527.7,27.9 L 528.8,28.0" style="fill:none;stroke:#000000;stroke-width:2.0px;stroke-linecap:butt;stroke-linejoin:miter;stroke-opacity:1;"/>
<path d="M 547.8,28.7 L 548.8,28.8 L 549.0,28.4" style="fill:none;stroke:#000000;stroke-width:2.0px;stroke-linecap:butt;stroke-linejoin:miter;stroke-opacity:1;"/>
<path d="M 464.1,60.4 L 463.1,60.3 L 462.3,61.0" style="fill:none;stroke:#000000;stroke-width:2.0px;stroke-linecap:butt;stroke-linejoin:miter;stroke-opacity:1;"/>
<path d="M 376.2,82.5 L 375.4,83.1 L 374.4,82.7" style="fill:none;stroke:#000000;stroke-width:2.0px;stroke-linecap:butt;stroke-linejoin:miter;stroke-opacity:1;"/>
<path class="atom-3" d="M 320.5 90.7 Q 320.5 89.3, 321.2 88.5 Q 321.9 87.7, 323.3 87.7 Q 324.6 87.7, 325.3 88.5 Q 326.0 89.3, 326.0 90.7 Q 326.0 92.2, 325.3 93.0 Q 324.6 93.8, 323.3 93.8 Q 321.9 93.8, 321.2 93.0 Q 320.5 92.2, 320.5 90.7 M 323.3 93.2 Q 324.2 93.2, 324.7 92.6 Q 325.2 91.9, 325.2 90.7 Q 325.2 89.6, 324.7 89.0 Q 324.2 88.4, 323.3 88.4 Q 322.3 88.4, 321.9 89.0 Q 321.4 89.6, 321.4 90.7 Q 321.4 91.9, 321.9 92.6 Q 322.3 93.2, 323.3 93.2 " fill="#FF0000"/>
<path class="atom-4" d="M 317.0 51.3 L 317.8 51.3 L 317.8 53.8 L 320.9 53.8 L 320.9 51.3 L 321.7 51.3 L 321.7 57.3 L 320.9 57.3 L 320.9 54.5 L 317.8 54.5 L 317.8 57.3 L 317.0 57.3 L 317.0 51.3 " fill="#FF0000"/>
<path class="atom-4" d="M 322.9 54.3 Q 322.9 52.8, 323.6 52.0 Q 324.3 51.2, 325.7 51.2 Q 327.0 51.2, 327.7 52.0 Q 328.4 52.8, 328.4 54.3 Q 328.4 55.7, 327.7 56.5 Q 327.0 57.4, 325.7 57.4 Q 324.4 57.4, 323.6 56.5 Q 322.9 55.7, 322.9 54.3 M 325.7 56.7 Q 326.6 56.7, 327.1 56.1 Q 327.6 55.5, 327.6 54.3 Q 327.6 53.1, 327.1 52.5 Q 326.6 51.9, 325.7 51.9 Q 324.8 51.9, 324.3 52.5 Q 323.8 53.1, 323.8 54.3 Q 323.8 55.5, 324.3 56.1 Q 324.8 56.7, 325.7 56.7 " fill="#FF0000"/>
<path class="atom-16" d="M 432.9 129.6 Q 432.9 128.2, 433.6 127.4 Q 434.3 126.6, 435.6 126.6 Q 437.0 126.6, 437.7 127.4 Q 438.4 128.2, 438.4 129.6 Q 438.4 131.1, 437.7 131.9 Q 436.9 132.7, 435.6 132.7 Q 434.3 132.7, 433.6 131.9 Q 432.9 131.1, 432.9 129.6 M 435.6 132.0 Q 436.5 132.0, 437.0 131.4 Q 437.5 130.8, 437.5 129.6 Q 437.5 128.4, 437.0 127.9 Q 436.5 127.3, 435.6 127.3 Q 434.7 127.3, 434.2 127.8 Q 433.7 128.4, 433.7 129.6 Q 433.7 130.8, 434.2 131.4 Q 434.7 132.0, 435.6 132.0 " fill="#FF0000"/>
<path class="atom-23" d="M 513.3 148.9 Q 513.3 147.5, 514.0 146.7 Q 514.7 145.9, 516.1 145.9 Q 517.4 145.9, 518.1 146.7 Q 518.8 147.5, 518.8 148.9 Q 518.8 150.4, 518.1 151.2 Q 517.4 152.0, 516.1 152.0 Q 514.7 152.0, 514.0 151.2 Q 513.3 150.4, 513.3 148.9 M 516.1 151.4 Q 517.0 151.4, 517.5 150.8 Q 518.0 150.1, 518.0 148.9 Q 518.0 147.8, 517.5 147.2 Q 517.0 146.6, 516.1 146.6 Q 515.1 146.6, 514.6 147.2 Q 514.2 147.8, 514.2 148.9 Q 514.2 150.1, 514.6 150.8 Q 515.1 151.4, 516.1 151.4 " fill="#FF0000"/>
<path class="atom-23" d="M 519.7 146.0 L 520.5 146.0 L 520.5 148.5 L 523.6 148.5 L 523.6 146.0 L 524.4 146.0 L 524.4 151.9 L 523.6 151.9 L 523.6 149.2 L 520.5 149.2 L 520.5 151.9 L 519.7 151.9 L 519.7 146.0 " fill="#FF0000"/>
<path class="atom-31" d="M 515.1 42.8 L 517.1 45.9 Q 517.3 46.2, 517.6 46.8 Q 517.9 47.4, 517.9 47.4 L 517.9 42.8 L 518.7 42.8 L 518.7 48.7 L 517.9 48.7 L 515.8 45.3 Q 515.5 44.9, 515.3 44.4 Q 515.0 43.9, 514.9 43.8 L 514.9 48.7 L 514.2 48.7 L 514.2 42.8 L 515.1 42.8 " fill="#0000FF"/>
<path class="atom-34" d="M 558.8 8.0 L 560.7 11.1 Q 560.9 11.4, 561.3 12.0 Q 561.6 12.6, 561.6 12.6 L 561.6 8.0 L 562.4 8.0 L 562.4 13.9 L 561.6 13.9 L 559.5 10.5 Q 559.2 10.1, 558.9 9.6 Q 558.7 9.1, 558.6 9.0 L 558.6 13.9 L 557.8 13.9 L 557.8 8.0 L 558.8 8.0 " fill="#0000FF"/>
<path class="atom-35" d="M 579.4 8.8 L 583.0 8.8 L 583.0 9.5 L 580.2 9.5 L 580.2 11.3 L 582.7 11.3 L 582.7 12.0 L 580.2 12.0 L 580.2 14.8 L 579.4 14.8 L 579.4 8.8 " fill="#33CCCC"/>
<path class="atom-29" d="M 484.5,64.6 L 484.5,64.7 L 484.4,64.7 L 484.4,64.7 L 484.4,64.8 L 484.4,64.8 L 484.4,64.8 L 484.4,64.9 L 484.4,64.9 L 484.3,64.9 L 484.3,64.9 L 484.3,65.0 L 484.2,65.0 L 484.2,65.0 L 484.2,65.0 L 484.1,65.0 L 484.1,65.0 L 484.1,65.0 L 484.0,65.0 L 484.0,65.0 L 484.0,65.0 L 483.9,65.0 L 483.9,65.0 L 483.9,65.0 L 483.8,65.0 L 483.8,65.0 L 483.8,65.0 L 483.7,64.9 L 483.7,64.9 L 483.7,64.9 L 483.7,64.8 L 483.7,64.8 L 483.6,64.8 L 483.6,64.7 L 483.6,64.7 L 483.6,64.7 L 483.6,64.6 L 483.6,64.6 L 483.6,64.6 L 483.6,64.5 L 483.6,64.5 L 483.6,64.5 L 483.7,64.4 L 483.7,64.4 L 483.7,64.4 L 483.7,64.3 L 483.7,64.3 L 483.8,64.3 L 483.8,64.3 L 483.8,64.2 L 483.9,64.2 L 483.9,64.2 L 483.9,64.2 L 484.0,64.2 L 484.0,64.2 L 484.0,64.2 L 484.1,64.2 L 484.1,64.2 L 484.1,64.2 L 484.2,64.2 L 484.2,64.2 L 484.2,64.3 L 484.3,64.3 L 484.3,64.3 L 484.3,64.3 L 484.4,64.4 L 484.4,64.4 L 484.4,64.4 L 484.4,64.4 L 484.4,64.5 L 484.4,64.5 L 484.4,64.5 L 484.5,64.6 L 484.5,64.6 L 484.0,64.6 Z" style="fill:#000000;fill-rule:evenodd;fill-opacity:1;stroke:#000000;stroke-width:0.0px;stroke-linecap:butt;stroke-linejoin:miter;stroke-opacity:1;"/>
<path class="atom-30" d="M 493.2,45.7 L 493.2,45.8 L 493.2,45.8 L 493.2,45.8 L 493.2,45.9 L 493.2,45.9 L 493.2,45.9 L 493.1,46.0 L 493.1,46.0 L 493.1,46.0 L 493.1,46.1 L 493.0,46.1 L 493.0,46.1 L 493.0,46.1 L 492.9,46.1 L 492.9,46.1 L 492.9,46.1 L 492.8,46.2 L 492.8,46.2 L 492.8,46.2 L 492.7,46.1 L 492.7,46.1 L 492.7,46.1 L 492.6,46.1 L 492.6,46.1 L 492.6,46.1 L 492.5,46.1 L 492.5,46.0 L 492.5,46.0 L 492.5,46.0 L 492.4,46.0 L 492.4,45.9 L 492.4,45.9 L 492.4,45.9 L 492.4,45.8 L 492.4,45.8 L 492.4,45.8 L 492.4,45.7 L 492.4,45.7 L 492.4,45.6 L 492.4,45.6 L 492.4,45.6 L 492.4,45.5 L 492.4,45.5 L 492.5,45.5 L 492.5,45.4 L 492.5,45.4 L 492.5,45.4 L 492.6,45.4 L 492.6,45.4 L 492.6,45.3 L 492.7,45.3 L 492.7,45.3 L 492.7,45.3 L 492.8,45.3 L 492.8,45.3 L 492.8,45.3 L 492.9,45.3 L 492.9,45.3 L 492.9,45.3 L 493.0,45.4 L 493.0,45.4 L 493.0,45.4 L 493.1,45.4 L 493.1,45.4 L 493.1,45.5 L 493.1,45.5 L 493.2,45.5 L 493.2,45.6 L 493.2,45.6 L 493.2,45.6 L 493.2,45.7 L 493.2,45.7 L 493.2,45.7 L 492.8,45.7 Z" style="fill:#000000;fill-rule:evenodd;fill-opacity:1;stroke:#000000;stroke-width:0.0px;stroke-linecap:butt;stroke-linejoin:miter;stroke-opacity:1;"/>
<path class="atom-30" d="M 493.2,44.0 L 493.2,44.1 L 493.2,44.1 L 493.2,44.2 L 493.2,44.2 L 493.2,44.2 L 493.2,44.3 L 493.1,44.3 L 493.1,44.3 L 493.1,44.3 L 493.1,44.4 L 493.0,44.4 L 493.0,44.4 L 493.0,44.4 L 492.9,44.4 L 492.9,44.4 L 492.9,44.5 L 492.8,44.5 L 492.8,44.5 L 492.8,44.5 L 492.7,44.5 L 492.7,44.5 L 492.7,44.4 L 492.6,44.4 L 492.6,44.4 L 492.6,44.4 L 492.5,44.4 L 492.5,44.4 L 492.5,44.3 L 492.5,44.3 L 492.4,44.3 L 492.4,44.2 L 492.4,44.2 L 492.4,44.2 L 492.4,44.1 L 492.4,44.1 L 492.4,44.1 L 492.4,44.0 L 492.4,44.0 L 492.4,44.0 L 492.4,43.9 L 492.4,43.9 L 492.4,43.9 L 492.4,43.8 L 492.5,43.8 L 492.5,43.8 L 492.5,43.7 L 492.5,43.7 L 492.6,43.7 L 492.6,43.7 L 492.6,43.7 L 492.7,43.6 L 492.7,43.6 L 492.7,43.6 L 492.8,43.6 L 492.8,43.6 L 492.8,43.6 L 492.9,43.6 L 492.9,43.6 L 492.9,43.6 L 493.0,43.7 L 493.0,43.7 L 493.0,43.7 L 493.1,43.7 L 493.1,43.7 L 493.1,43.8 L 493.1,43.8 L 493.2,43.8 L 493.2,43.9 L 493.2,43.9 L 493.2,43.9 L 493.2,44.0 L 493.2,44.0 L 493.2,44.0 L 492.8,44.0 Z" style="fill:#000000;fill-rule:evenodd;fill-opacity:1;stroke:#000000;stroke-width:0.0px;stroke-linecap:butt;stroke-linejoin:miter;stroke-opacity:1;"/>
<path class="atom-31" d="M 520.4,45.8 L 520.4,45.8 L 520.4,45.8 L 520.4,45.9 L 520.4,45.9 L 520.3,45.9 L 520.3,46.0 L 520.3,46.0 L 520.3,46.0 L 520.3,46.0 L 520.2,46.1 L 520.2,46.1 L 520.2,46.1 L 520.1,46.1 L 520.1,46.1 L 520.1,46.2 L 520.0,46.2 L 520.0,46.2 L 520.0,46.2 L 519.9,46.2 L 519.9,46.2 L 519.9,46.2 L 519.8,46.2 L 519.8,46.1 L 519.8,46.1 L 519.7,46.1 L 519.7,46.1 L 519.7,46.1 L 519.6,46.0 L 519.6,46.0 L 519.6,46.0 L 519.6,45.9 L 519.6,45.9 L 519.6,45.9 L 519.5,45.8 L 519.5,45.8 L 519.5,45.8 L 519.5,45.7 L 519.5,45.7 L 519.5,45.7 L 519.6,45.6 L 519.6,45.6 L 519.6,45.6 L 519.6,45.5 L 519.6,45.5 L 519.6,45.5 L 519.7,45.4 L 519.7,45.4 L 519.7,45.4 L 519.8,45.4 L 519.8,45.4 L 519.8,45.4 L 519.9,45.3 L 519.9,45.3 L 519.9,45.3 L 520.0,45.3 L 520.0,45.3 L 520.0,45.3 L 520.1,45.3 L 520.1,45.4 L 520.1,45.4 L 520.2,45.4 L 520.2,45.4 L 520.2,45.4 L 520.3,45.5 L 520.3,45.5 L 520.3,45.5 L 520.3,45.5 L 520.3,45.6 L 520.4,45.6 L 520.4,45.6 L 520.4,45.7 L 520.4,45.7 L 520.4,45.8 L 520.0,45.8 Z" style="fill:#000000;fill-rule:evenodd;fill-opacity:1;stroke:#000000;stroke-width:0.0px;stroke-linecap:butt;stroke-linejoin:miter;stroke-opacity:1;"/>
<path class="atom-32" d="M 525.6,28.8 L 525.6,28.8 L 525.6,28.8 L 525.6,28.9 L 525.6,28.9 L 525.6,28.9 L 525.6,29.0 L 525.5,29.0 L 525.5,29.0 L 525.5,29.1 L 525.5,29.1 L 525.4,29.1 L 525.4,29.1 L 525.4,29.1 L 525.3,29.2 L 525.3,29.2 L 525.3,29.2 L 525.2,29.2 L 525.2,29.2 L 525.2,29.2 L 525.1,29.2 L 525.1,29.2 L 525.0,29.2 L 525.0,29.2 L 525.0,29.1 L 525.0,29.1 L 524.9,29.1 L 524.9,29.1 L 524.9,29.0 L 524.8,29.0 L 524.8,29.0 L 524.8,29.0 L 524.8,28.9 L 524.8,28.9 L 524.8,28.9 L 524.8,28.8 L 524.8,28.8 L 524.8,28.7 L 524.8,28.7 L 524.8,28.7 L 524.8,28.6 L 524.8,28.6 L 524.8,28.6 L 524.8,28.5 L 524.8,28.5 L 524.9,28.5 L 524.9,28.5 L 524.9,28.4 L 525.0,28.4 L 525.0,28.4 L 525.0,28.4 L 525.0,28.4 L 525.1,28.4 L 525.1,28.3 L 525.2,28.3 L 525.2,28.3 L 525.2,28.3 L 525.3,28.3 L 525.3,28.4 L 525.3,28.4 L 525.4,28.4 L 525.4,28.4 L 525.4,28.4 L 525.5,28.4 L 525.5,28.5 L 525.5,28.5 L 525.5,28.5 L 525.6,28.6 L 525.6,28.6 L 525.6,28.6 L 525.6,28.7 L 525.6,28.7 L 525.6,28.7 L 525.6,28.8 L 525.2,28.8 Z" style="fill:#000000;fill-rule:evenodd;fill-opacity:1;stroke:#000000;stroke-width:0.0px;stroke-linecap:butt;stroke-linejoin:miter;stroke-opacity:1;"/>
<path class="atom-32" d="M 525.6,27.1 L 525.6,27.1 L 525.6,27.1 L 525.6,27.2 L 525.6,27.2 L 525.6,27.3 L 525.6,27.3 L 525.5,27.3 L 525.5,27.3 L 525.5,27.4 L 525.5,27.4 L 525.4,27.4 L 525.4,27.4 L 525.4,27.5 L 525.3,27.5 L 525.3,27.5 L 525.3,27.5 L 525.2,27.5 L 525.2,27.5 L 525.2,27.5 L 525.1,27.5 L 525.1,27.5 L 525.0,27.5 L 525.0,27.5 L 525.0,27.4 L 525.0,27.4 L 524.9,27.4 L 524.9,27.4 L 524.9,27.4 L 524.8,27.3 L 524.8,27.3 L 524.8,27.3 L 524.8,27.2 L 524.8,27.2 L 524.8,27.2 L 524.8,27.1 L 524.8,27.1 L 524.8,27.1 L 524.8,27.0 L 524.8,27.0 L 524.8,26.9 L 524.8,26.9 L 524.8,26.9 L 524.8,26.9 L 524.8,26.8 L 524.9,26.8 L 524.9,26.8 L 524.9,26.7 L 525.0,26.7 L 525.0,26.7 L 525.0,26.7 L 525.0,26.7 L 525.1,26.7 L 525.1,26.7 L 525.2,26.7 L 525.2,26.7 L 525.2,26.7 L 525.3,26.7 L 525.3,26.7 L 525.3,26.7 L 525.4,26.7 L 525.4,26.7 L 525.4,26.7 L 525.5,26.8 L 525.5,26.8 L 525.5,26.8 L 525.5,26.8 L 525.6,26.9 L 525.6,26.9 L 525.6,26.9 L 525.6,27.0 L 525.6,27.0 L 525.6,27.0 L 525.6,27.1 L 525.2,27.1 Z" style="fill:#000000;fill-rule:evenodd;fill-opacity:1;stroke:#000000;stroke-width:0.0px;stroke-linecap:butt;stroke-linejoin:miter;stroke-opacity:1;"/>
<path class="atom-33" d="M 551.8,28.8 L 551.8,28.8 L 551.8,28.9 L 551.8,28.9 L 551.7,28.9 L 551.7,29.0 L 551.7,29.0 L 551.7,29.0 L 551.7,29.1 L 551.6,29.1 L 551.6,29.1 L 551.6,29.1 L 551.6,29.1 L 551.5,29.2 L 551.5,29.2 L 551.5,29.2 L 551.4,29.2 L 551.4,29.2 L 551.4,29.2 L 551.3,29.2 L 551.3,29.2 L 551.2,29.2 L 551.2,29.2 L 551.2,29.2 L 551.1,29.2 L 551.1,29.1 L 551.1,29.1 L 551.1,29.1 L 551.0,29.1 L 551.0,29.0 L 551.0,29.0 L 551.0,29.0 L 551.0,28.9 L 550.9,28.9 L 550.9,28.9 L 550.9,28.8 L 550.9,28.8 L 550.9,28.8 L 550.9,28.7 L 550.9,28.7 L 550.9,28.7 L 551.0,28.6 L 551.0,28.6 L 551.0,28.6 L 551.0,28.5 L 551.0,28.5 L 551.1,28.5 L 551.1,28.5 L 551.1,28.4 L 551.1,28.4 L 551.2,28.4 L 551.2,28.4 L 551.2,28.4 L 551.3,28.4 L 551.3,28.4 L 551.4,28.4 L 551.4,28.4 L 551.4,28.4 L 551.5,28.4 L 551.5,28.4 L 551.5,28.4 L 551.6,28.4 L 551.6,28.4 L 551.6,28.5 L 551.6,28.5 L 551.7,28.5 L 551.7,28.5 L 551.7,28.6 L 551.7,28.6 L 551.7,28.6 L 551.8,28.7 L 551.8,28.7 L 551.8,28.7 L 551.8,28.8 L 551.3,28.8 Z" style="fill:#000000;fill-rule:evenodd;fill-opacity:1;stroke:#000000;stroke-width:0.0px;stroke-linecap:butt;stroke-linejoin:miter;stroke-opacity:1;"/>
<path class="bond-0 atom-0 atom-1" d="M 669.0,108.8 L 670.2,87.8" style="fill:none;fill-rule:evenodd;stroke:#000000;stroke-width:2.0px;stroke-linecap:butt;stroke-linejoin:miter;stroke-opacity:1"/>
<path class="bond-1 atom-1 atom-2" d="M 670.2,87.8 L 649.3,90.2" style="fill:none;fill-rule:evenodd;stroke:#000000;stroke-width:2.0px;stroke-linecap:butt;stroke-linejoin:miter;stroke-opacity:1"/>
<path class="bond-2 atom-2 atom-3" d="M 648.2,88.7 L 644.6,97.0" style="fill:none;fill-rule:evenodd;stroke:#000000;stroke-width:2.0px;stroke-linecap:butt;stroke-linejoin:miter;stroke-opacity:1"/>
<path class="bond-2 atom-2 atom-3" d="M 644.6,97.0 L 641.0,105.2" style="fill:none;fill-rule:evenodd;stroke:#FF0000;stroke-width:2.0px;stroke-linecap:butt;stroke-linejoin:miter;stroke-opacity:1"/>
<path class="bond-2 atom-2 atom-3" d="M 651.1,90.0 L 647.5,98.2" style="fill:none;fill-rule:evenodd;stroke:#000000;stroke-width:2.0px;stroke-linecap:butt;stroke-linejoin:miter;stroke-opacity:1"/>
<path class="bond-2 atom-2 atom-3" d="M 647.5,98.2 L 643.9,106.5" style="fill:none;fill-rule:evenodd;stroke:#FF0000;stroke-width:2.0px;stroke-linecap:butt;stroke-linejoin:miter;stroke-opacity:1"/>
<path class="bond-3 atom-2 atom-4" d="M 649.3,90.2 L 644.4,83.6" style="fill:none;fill-rule:evenodd;stroke:#000000;stroke-width:2.0px;stroke-linecap:butt;stroke-linejoin:miter;stroke-opacity:1"/>
<path class="bond-3 atom-2 atom-4" d="M 644.4,83.6 L 639.5,77.0" style="fill:none;fill-rule:evenodd;stroke:#FF0000;stroke-width:2.0px;stroke-linecap:butt;stroke-linejoin:miter;stroke-opacity:1"/>
<path class="bond-4 atom-1 atom-5" d="M 670.2,87.8 L 664.2,67.5" style="fill:none;fill-rule:evenodd;stroke:#000000;stroke-width:2.0px;stroke-linecap:butt;stroke-linejoin:miter;stroke-opacity:1"/>
<path class="bond-5 atom-5 atom-6" d="M 664.2,67.5 L 678.7,52.2" style="fill:none;fill-rule:evenodd;stroke:#000000;stroke-width:2.0px;stroke-linecap:butt;stroke-linejoin:miter;stroke-opacity:1"/>
<path class="bond-6 atom-6 atom-7" d="M 678.7,52.2 L 699.3,57.1" style="fill:none;fill-rule:evenodd;stroke:#000000;stroke-width:2.0px;stroke-linecap:butt;stroke-linejoin:miter;stroke-opacity:1"/>
<path class="bond-7 atom-7 atom-8" d="M 699.3,57.1 L 693.2,36.9" style="fill:none;fill-rule:evenodd;stroke:#000000;stroke-width:2.0px;stroke-linecap:butt;stroke-linejoin:miter;stroke-opacity:1"/>
<path class="bond-8 atom-7 atom-9" d="M 699.3,57.1 L 713.8,41.8" style="fill:none;fill-rule:evenodd;stroke:#000000;stroke-width:2.0px;stroke-linecap:butt;stroke-linejoin:miter;stroke-opacity:1"/>
<path class="bond-9 atom-9 atom-10" d="M 713.8,41.8 L 734.3,46.7" style="fill:none;fill-rule:evenodd;stroke:#000000;stroke-width:2.0px;stroke-linecap:butt;stroke-linejoin:miter;stroke-opacity:1"/>
<path class="bond-10 atom-10 atom-11" d="M 734.3,46.7 L 740.3,66.9" style="fill:none;fill-rule:evenodd;stroke:#000000;stroke-width:2.0px;stroke-linecap:butt;stroke-linejoin:miter;stroke-opacity:1"/>
<path class="bond-11 atom-11 atom-12" d="M 740.3,66.9 L 746.3,87.2" style="fill:none;fill-rule:evenodd;stroke:#000000;stroke-width:2.0px;stroke-linecap:butt;stroke-linejoin:miter;stroke-opacity:1"/>
<path class="bond-12 atom-11 atom-13" d="M 740.3,66.9 L 725.8,82.3" style="fill:none;fill-rule:evenodd;stroke:#000000;stroke-width:2.0px;stroke-linecap:butt;stroke-linejoin:miter;stroke-opacity:1"/>
<path class="bond-13 atom-13 atom-14" d="M 725.8,82.3 L 731.8,102.5" style="fill:none;fill-rule:evenodd;stroke:#000000;stroke-width:2.0px;stroke-linecap:butt;stroke-linejoin:miter;stroke-opacity:1"/>
<path class="bond-13 atom-13 atom-14" d="M 729.4,83.1 L 734.3,99.8" style="fill:none;fill-rule:evenodd;stroke:#000000;stroke-width:2.0px;stroke-linecap:butt;stroke-linejoin:miter;stroke-opacity:1"/>
<path class="bond-14 atom-14 atom-15" d="M 731.8,102.5 L 752.4,107.4" style="fill:none;fill-rule:evenodd;stroke:#000000;stroke-width:2.0px;stroke-linecap:butt;stroke-linejoin:miter;stroke-opacity:1"/>
<path class="bond-15 atom-15 atom-16" d="M 750.6,107.0 L 753.2,115.7" style="fill:none;fill-rule:evenodd;stroke:#000000;stroke-width:2.0px;stroke-linecap:butt;stroke-linejoin:miter;stroke-opacity:1"/>
<path class="bond-15 atom-15 atom-16" d="M 753.2,115.7 L 755.8,124.4" style="fill:none;fill-rule:evenodd;stroke:#FF0000;stroke-width:2.0px;stroke-linecap:butt;stroke-linejoin:miter;stroke-opacity:1"/>
<path class="bond-15 atom-15 atom-16" d="M 753.6,106.1 L 756.2,114.8" style="fill:none;fill-rule:evenodd;stroke:#000000;stroke-width:2.0px;stroke-linecap:butt;stroke-linejoin:miter;stroke-opacity:1"/>
<path class="bond-15 atom-15 atom-16" d="M 756.2,114.8 L 758.8,123.5" style="fill:none;fill-rule:evenodd;stroke:#FF0000;stroke-width:2.0px;stroke-linecap:butt;stroke-linejoin:miter;stroke-opacity:1"/>
<path class="bond-16 atom-15 atom-17" d="M 752.4,107.4 L 766.9,92.1" style="fill:none;fill-rule:evenodd;stroke:#000000;stroke-width:2.0px;stroke-linecap:butt;stroke-linejoin:miter;stroke-opacity:1"/>
<path class="bond-17 atom-17 atom-18" d="M 766.9,92.1 L 786.4,100.0" style="fill:none;fill-rule:evenodd;stroke:#000000;stroke-width:2.0px;stroke-linecap:butt;stroke-linejoin:miter;stroke-opacity:1"/>
<path class="bond-18 atom-18 atom-19" d="M 786.4,100.0 L 768.9,111.7" style="fill:none;fill-rule:evenodd;stroke:#000000;stroke-width:2.0px;stroke-linecap:butt;stroke-linejoin:miter;stroke-opacity:1"/>
<path class="bond-19 atom-18 atom-20" d="M 786.4,100.0 L 786.2,121.1" style="fill:none;fill-rule:evenodd;stroke:#000000;stroke-width:2.0px;stroke-linecap:butt;stroke-linejoin:miter;stroke-opacity:1"/>
<path class="bond-20 atom-20 atom-21" d="M 786.2,121.1 L 804.4,131.8" style="fill:none;fill-rule:evenodd;stroke:#000000;stroke-width:2.0px;stroke-linecap:butt;stroke-linejoin:miter;stroke-opacity:1"/>
<path class="bond-21 atom-21 atom-22" d="M 804.4,131.8 L 822.8,121.4" style="fill:none;fill-rule:evenodd;stroke:#000000;stroke-width:2.0px;stroke-linecap:butt;stroke-linejoin:miter;stroke-opacity:1"/>
<path class="bond-22 atom-22 atom-23" d="M 822.8,121.4 L 830.2,125.8" style="fill:none;fill-rule:evenodd;stroke:#000000;stroke-width:2.0px;stroke-linecap:butt;stroke-linejoin:miter;stroke-opacity:1"/>
<path class="bond-22 atom-22 atom-23" d="M 830.2,125.8 L 837.5,130.2" style="fill:none;fill-rule:evenodd;stroke:#FF0000;stroke-width:2.0px;stroke-linecap:butt;stroke-linejoin:miter;stroke-opacity:1"/>
<path class="bond-23 atom-22 atom-24" d="M 822.8,121.4 L 823.0,100.3" style="fill:none;fill-rule:evenodd;stroke:#000000;stroke-width:2.0px;stroke-linecap:butt;stroke-linejoin:miter;stroke-opacity:1"/>
<path class="bond-24 atom-24 atom-25" d="M 823.0,100.3 L 830.4,80.6" style="fill:none;fill-rule:evenodd;stroke:#000000;stroke-width:2.0px;stroke-linecap:butt;stroke-linejoin:miter;stroke-opacity:1"/>
<path class="bond-25 atom-24 atom-26" d="M 823.0,100.3 L 843.8,104.2" style="fill:none;fill-rule:evenodd;stroke:#000000;stroke-width:2.0px;stroke-linecap:butt;stroke-linejoin:miter;stroke-opacity:1"/>
<path class="bond-26 atom-24 atom-27" d="M 823.0,100.3 L 804.8,89.6" style="fill:none;fill-rule:evenodd;stroke:#000000;stroke-width:2.0px;stroke-linecap:butt;stroke-linejoin:miter;stroke-opacity:1"/>
<path class="bond-27 atom-27 atom-28" d="M 804.8,89.6 L 808.2,68.8" style="fill:none;fill-rule:evenodd;stroke:#000000;stroke-width:2.0px;stroke-linecap:butt;stroke-linejoin:miter;stroke-opacity:1"/>
<path class="bond-28 atom-28 atom-29" d="M 808.2,68.8 L 794.0,53.1" style="fill:none;fill-rule:evenodd;stroke:#000000;stroke-width:2.0px;stroke-linecap:butt;stroke-linejoin:miter;stroke-opacity:1"/>
<path class="bond-29 atom-29 atom-30" d="M 794.0,53.1 L 801.9,33.6" style="fill:none;fill-rule:evenodd;stroke:#000000;stroke-width:2.0px;stroke-linecap:butt;stroke-linejoin:miter;stroke-opacity:1"/>
<path class="bond-30 atom-30 atom-31" d="M 801.9,33.6 L 820.1,31.0" style="fill:none;fill-rule:evenodd;stroke:#000000;stroke-width:2.0px;stroke-linecap:butt;stroke-linejoin:miter;stroke-opacity:1"/>
<path class="bond-30 atom-30 atom-31" d="M 804.1,36.4 L 820.5,34.1" style="fill:none;fill-rule:evenodd;stroke:#000000;stroke-width:2.0px;stroke-linecap:butt;stroke-linejoin:miter;stroke-opacity:1"/>
<path class="bond-31 atom-31 atom-32" d="M 825.5,30.2 L 833.1,29.2" style="fill:none;fill-rule:evenodd;stroke:#000000;stroke-width:2.0px;stroke-linecap:butt;stroke-linejoin:miter;stroke-opacity:1"/>
<path class="bond-31 atom-31 atom-32" d="M 833.1,29.2 L 840.7,28.1" style="fill:none;fill-rule:evenodd;stroke:#0000FF;stroke-width:2.0px;stroke-linecap:butt;stroke-linejoin:miter;stroke-opacity:1"/>
<path class="bond-32 atom-32 atom-33" d="M 847.8,30.4 L 851.4,35.0" style="fill:none;fill-rule:evenodd;stroke:#0000FF;stroke-width:2.0px;stroke-linecap:butt;stroke-linejoin:miter;stroke-opacity:1"/>
<path class="bond-32 atom-32 atom-33" d="M 851.4,35.0 L 855.0,39.6" style="fill:none;fill-rule:evenodd;stroke:#000000;stroke-width:2.0px;stroke-linecap:butt;stroke-linejoin:miter;stroke-opacity:1"/>
<path class="bond-32 atom-32 atom-33" d="M 845.3,32.4 L 848.9,37.0" style="fill:none;fill-rule:evenodd;stroke:#0000FF;stroke-width:2.0px;stroke-linecap:butt;stroke-linejoin:miter;stroke-opacity:1"/>
<path class="bond-32 atom-32 atom-33" d="M 848.9,37.0 L 852.6,41.6" style="fill:none;fill-rule:evenodd;stroke:#000000;stroke-width:2.0px;stroke-linecap:butt;stroke-linejoin:miter;stroke-opacity:1"/>
<path class="bond-33 atom-33 atom-34" d="M 860.9,47.1 L 864.5,51.7" style="fill:none;fill-rule:evenodd;stroke:#000000;stroke-width:2.0px;stroke-linecap:butt;stroke-linejoin:miter;stroke-opacity:1"/>
<path class="bond-33 atom-33 atom-34" d="M 864.5,51.7 L 868.1,56.3" style="fill:none;fill-rule:evenodd;stroke:#0000FF;stroke-width:2.0px;stroke-linecap:butt;stroke-linejoin:miter;stroke-opacity:1"/>
<path class="bond-33 atom-33 atom-34" d="M 858.4,49.1 L 862.0,53.7" style="fill:none;fill-rule:evenodd;stroke:#000000;stroke-width:2.0px;stroke-linecap:butt;stroke-linejoin:miter;stroke-opacity:1"/>
<path class="bond-33 atom-33 atom-34" d="M 862.0,53.7 L 865.6,58.3" style="fill:none;fill-rule:evenodd;stroke:#0000FF;stroke-width:2.0px;stroke-linecap:butt;stroke-linejoin:miter;stroke-opacity:1"/>
<path class="bond-34 atom-34 atom-35" d="M 868.2,64.6 L 865.7,70.7" style="fill:none;fill-rule:evenodd;stroke:#0000FF;stroke-width:2.0px;stroke-linecap:butt;stroke-linejoin:miter;stroke-opacity:1"/>
<path class="bond-34 atom-34 atom-35" d="M 865.7,70.7 L 863.3,76.8" style="fill:none;fill-rule:evenodd;stroke:#33CCCC;stroke-width:2.0px;stroke-linecap:butt;stroke-linejoin:miter;stroke-opacity:1"/>
<path class="bond-35 atom-29 atom-36" d="M 794.0,53.1 L 772.9,54.5" style="fill:none;fill-rule:evenodd;stroke:#000000;stroke-width:2.0px;stroke-linecap:butt;stroke-linejoin:miter;stroke-opacity:1"/>
<path class="bond-36 atom-36 atom-37" d="M 772.9,54.5 L 760.9,71.8" style="fill:none;fill-rule:evenodd;stroke:#000000;stroke-width:2.0px;stroke-linecap:butt;stroke-linejoin:miter;stroke-opacity:1"/>
<path class="bond-37 atom-37 atom-38" d="M 760.9,71.8 L 753.3,52.1" style="fill:none;fill-rule:evenodd;stroke:#000000;stroke-width:2.0px;stroke-linecap:butt;stroke-linejoin:miter;stroke-opacity:1"/>
<path class="bond-38 atom-13 atom-39" d="M 725.8,82.3 L 705.3,77.3" style="fill:none;fill-rule:evenodd;stroke:#000000;stroke-width:2.0px;stroke-linecap:butt;stroke-linejoin:miter;stroke-opacity:1"/>
<path class="bond-39 atom-39 atom-40" d="M 705.3,77.3 L 690.8,92.7" style="fill:none;fill-rule:evenodd;stroke:#000000;stroke-width:2.0px;stroke-linecap:butt;stroke-linejoin:miter;stroke-opacity:1"/>
<path class="bond-40 atom-40 atom-1" d="M 690.8,92.7 L 670.2,87.8" style="fill:none;fill-rule:evenodd;stroke:#000000;stroke-width:2.0px;stroke-linecap:butt;stroke-linejoin:miter;stroke-opacity:1"/>
<path class="bond-41 atom-39 atom-7" d="M 705.3,77.3 L 699.3,57.1" style="fill:none;fill-rule:evenodd;stroke:#000000;stroke-width:2.0px;stroke-linecap:butt;stroke-linejoin:miter;stroke-opacity:1"/>
<path class="bond-42 atom-37 atom-11" d="M 760.9,71.8 L 740.3,66.9" style="fill:none;fill-rule:evenodd;stroke:#000000;stroke-width:2.0px;stroke-linecap:butt;stroke-linejoin:miter;stroke-opacity:1"/>
<path class="bond-43 atom-37 atom-17" d="M 760.9,71.8 L 766.9,92.1" style="fill:none;fill-rule:evenodd;stroke:#000000;stroke-width:2.0px;stroke-linecap:butt;stroke-linejoin:miter;stroke-opacity:1"/>
<path class="bond-44 atom-27 atom-18" d="M 804.8,89.6 L 786.4,100.0" style="fill:none;fill-rule:evenodd;stroke:#000000;stroke-width:2.0px;stroke-linecap:butt;stroke-linejoin:miter;stroke-opacity:1"/>
<path d="M 650.3,90.1 L 649.3,90.2 L 649.0,89.9" style="fill:none;stroke:#000000;stroke-width:2.0px;stroke-linecap:butt;stroke-linejoin:miter;stroke-opacity:1;"/>
<path d="M 664.5,68.6 L 664.2,67.5 L 664.9,66.8" style="fill:none;stroke:#000000;stroke-width:2.0px;stroke-linecap:butt;stroke-linejoin:miter;stroke-opacity:1;"/>
<path d="M 678.0,53.0 L 678.7,52.2 L 679.8,52.5" style="fill:none;stroke:#000000;stroke-width:2.0px;stroke-linecap:butt;stroke-linejoin:miter;stroke-opacity:1;"/>
<path d="M 713.0,42.5 L 713.8,41.8 L 714.8,42.0" style="fill:none;stroke:#000000;stroke-width:2.0px;stroke-linecap:butt;stroke-linejoin:miter;stroke-opacity:1;"/>
<path d="M 733.3,46.4 L 734.3,46.7 L 734.6,47.7" style="fill:none;stroke:#000000;stroke-width:2.0px;stroke-linecap:butt;stroke-linejoin:miter;stroke-opacity:1;"/>
<path d="M 731.5,101.5 L 731.8,102.5 L 732.9,102.7" style="fill:none;stroke:#000000;stroke-width:2.0px;stroke-linecap:butt;stroke-linejoin:miter;stroke-opacity:1;"/>
<path d="M 751.3,107.1 L 752.4,107.4 L 753.1,106.6" style="fill:none;stroke:#000000;stroke-width:2.0px;stroke-linecap:butt;stroke-linejoin:miter;stroke-opacity:1;"/>
<path d="M 786.2,120.0 L 786.2,121.1 L 787.1,121.6" style="fill:none;stroke:#000000;stroke-width:2.0px;stroke-linecap:butt;stroke-linejoin:miter;stroke-opacity:1;"/>
<path d="M 803.5,131.3 L 804.4,131.8 L 805.3,131.3" style="fill:none;stroke:#000000;stroke-width:2.0px;stroke-linecap:butt;stroke-linejoin:miter;stroke-opacity:1;"/>
<path d="M 808.0,69.8 L 808.2,68.8 L 807.5,68.0" style="fill:none;stroke:#000000;stroke-width:2.0px;stroke-linecap:butt;stroke-linejoin:miter;stroke-opacity:1;"/>
<path d="M 801.5,34.5 L 801.9,33.6 L 802.8,33.4" style="fill:none;stroke:#000000;stroke-width:2.0px;stroke-linecap:butt;stroke-linejoin:miter;stroke-opacity:1;"/>
<path d="M 774.0,54.4 L 772.9,54.5 L 772.3,55.4" style="fill:none;stroke:#000000;stroke-width:2.0px;stroke-linecap:butt;stroke-linejoin:miter;stroke-opacity:1;"/>
<path d="M 691.5,91.9 L 690.8,92.7 L 689.7,92.4" style="fill:none;stroke:#000000;stroke-width:2.0px;stroke-linecap:butt;stroke-linejoin:miter;stroke-opacity:1;"/>
<path class="atom-3" d="M 638.1 109.6 Q 638.1 108.1, 638.8 107.3 Q 639.5 106.5, 640.9 106.5 Q 642.2 106.5, 642.9 107.3 Q 643.6 108.1, 643.6 109.6 Q 643.6 111.0, 642.9 111.9 Q 642.2 112.7, 640.9 112.7 Q 639.5 112.7, 638.8 111.9 Q 638.1 111.0, 638.1 109.6 M 640.9 112.0 Q 641.8 112.0, 642.3 111.4 Q 642.8 110.8, 642.8 109.6 Q 642.8 108.4, 642.3 107.8 Q 641.8 107.2, 640.9 107.2 Q 640.0 107.2, 639.5 107.8 Q 639.0 108.4, 639.0 109.6 Q 639.0 110.8, 639.5 111.4 Q 640.0 112.0, 640.9 112.0 " fill="#FF0000"/>
<path class="atom-4" d="M 628.0 70.3 L 628.8 70.3 L 628.8 72.8 L 631.9 72.8 L 631.9 70.3 L 632.7 70.3 L 632.7 76.3 L 631.9 76.3 L 631.9 73.5 L 628.8 73.5 L 628.8 76.3 L 628.0 76.3 L 628.0 70.3 " fill="#FF0000"/>
<path class="atom-4" d="M 633.9 73.2 Q 633.9 71.8, 634.6 71.0 Q 635.4 70.2, 636.7 70.2 Q 638.0 70.2, 638.7 71.0 Q 639.4 71.8, 639.4 73.2 Q 639.4 74.7, 638.7 75.5 Q 638.0 76.3, 636.7 76.3 Q 635.4 76.3, 634.6 75.5 Q 633.9 74.7, 633.9 73.2 M 636.7 75.7 Q 637.6 75.7, 638.1 75.1 Q 638.6 74.4, 638.6 73.2 Q 638.6 72.1, 638.1 71.5 Q 637.6 70.9, 636.7 70.9 Q 635.8 70.9, 635.3 71.5 Q 634.8 72.1, 634.8 73.2 Q 634.8 74.5, 635.3 75.1 Q 635.8 75.7, 636.7 75.7 " fill="#FF0000"/>
<path class="atom-16" d="M 755.6 127.6 Q 755.6 126.2, 756.3 125.4 Q 757.1 124.6, 758.4 124.6 Q 759.7 124.6, 760.4 125.4 Q 761.1 126.2, 761.1 127.6 Q 761.1 129.1, 760.4 129.9 Q 759.7 130.7, 758.4 130.7 Q 757.1 130.7, 756.3 129.9 Q 755.6 129.1, 755.6 127.6 M 758.4 130.1 Q 759.3 130.1, 759.8 129.5 Q 760.3 128.8, 760.3 127.6 Q 760.3 126.5, 759.8 125.9 Q 759.3 125.3, 758.4 125.3 Q 757.5 125.3, 757.0 125.9 Q 756.5 126.5, 756.5 127.6 Q 756.5 128.8, 757.0 129.5 Q 757.5 130.1, 758.4 130.1 " fill="#FF0000"/>
<path class="atom-23" d="M 838.2 132.2 Q 838.2 130.8, 838.9 130.0 Q 839.6 129.2, 841.0 129.2 Q 842.3 129.2, 843.0 130.0 Q 843.7 130.8, 843.7 132.2 Q 843.7 133.7, 843.0 134.5 Q 842.3 135.3, 841.0 135.3 Q 839.7 135.3, 838.9 134.5 Q 838.2 133.7, 838.2 132.2 M 841.0 134.6 Q 841.9 134.6, 842.4 134.0 Q 842.9 133.4, 842.9 132.2 Q 842.9 131.0, 842.4 130.4 Q 841.9 129.8, 841.0 129.8 Q 840.1 129.8, 839.6 130.4 Q 839.1 131.0, 839.1 132.2 Q 839.1 133.4, 839.6 134.0 Q 840.1 134.6, 841.0 134.6 " fill="#FF0000"/>
<path class="atom-23" d="M 844.6 129.2 L 845.5 129.2 L 845.5 131.8 L 848.5 131.8 L 848.5 129.2 L 849.3 129.2 L 849.3 135.2 L 848.5 135.2 L 848.5 132.4 L 845.5 132.4 L 845.5 135.2 L 844.6 135.2 L 844.6 129.2 " fill="#FF0000"/>
<path class="atom-31" d="M 823.7 30.5 Q 824.3 30.6, 824.5 31.0 Q 824.8 31.3, 824.8 31.9 Q 824.8 32.7, 824.3 33.2 Q 823.8 33.6, 822.8 33.6 L 820.8 33.6 L 820.8 27.6 L 822.5 27.6 Q 823.6 27.6, 824.1 28.1 Q 824.6 28.5, 824.6 29.2 Q 824.6 30.1, 823.7 30.5 M 821.6 28.3 L 821.6 30.2 L 822.5 30.2 Q 823.1 30.2, 823.4 30.0 Q 823.7 29.7, 823.7 29.2 Q 823.7 28.3, 822.5 28.3 L 821.6 28.3 M 822.8 32.9 Q 823.4 32.9, 823.7 32.7 Q 824.0 32.4, 824.0 31.9 Q 824.0 31.4, 823.6 31.1 Q 823.3 30.9, 822.7 30.9 L 821.6 30.9 L 821.6 32.9 L 822.8 32.9 " fill="#000000"/>
<path class="atom-32" d="M 842.4 24.7 L 844.3 27.9 Q 844.5 28.2, 844.9 28.7 Q 845.2 29.3, 845.2 29.3 L 845.2 24.7 L 846.0 24.7 L 846.0 30.7 L 845.2 30.7 L 843.1 27.2 Q 842.8 26.8, 842.5 26.3 Q 842.3 25.9, 842.2 25.7 L 842.2 30.7 L 841.4 30.7 L 841.4 24.7 L 842.4 24.7 " fill="#0000FF"/>
<path class="atom-33" d="M 854.4 44.4 Q 854.4 42.9, 855.1 42.1 Q 855.8 41.3, 857.1 41.3 Q 858.4 41.3, 859.0 42.2 L 858.5 42.6 Q 858.0 42.0, 857.1 42.0 Q 856.2 42.0, 855.7 42.6 Q 855.3 43.2, 855.3 44.4 Q 855.3 45.5, 855.8 46.1 Q 856.2 46.7, 857.2 46.7 Q 857.9 46.7, 858.6 46.4 L 858.9 47.0 Q 858.6 47.2, 858.1 47.3 Q 857.6 47.4, 857.1 47.4 Q 855.8 47.4, 855.1 46.6 Q 854.4 45.8, 854.4 44.4 " fill="#000000"/>
<path class="atom-34" d="M 868.4 58.0 L 870.3 61.1 Q 870.5 61.5, 870.8 62.0 Q 871.2 62.6, 871.2 62.6 L 871.2 58.0 L 872.0 58.0 L 872.0 64.0 L 871.1 64.0 L 869.0 60.5 Q 868.8 60.1, 868.5 59.6 Q 868.3 59.2, 868.2 59.0 L 868.2 64.0 L 867.4 64.0 L 867.4 58.0 L 868.4 58.0 " fill="#0000FF"/>
<path class="atom-35" d="M 860.0 77.5 L 863.6 77.5 L 863.6 78.2 L 860.8 78.2 L 860.8 80.0 L 863.3 80.0 L 863.3 80.7 L 860.8 80.7 L 860.8 83.5 L 860.0 83.5 L 860.0 77.5 " fill="#33CCCC"/>
<path class="atom-29" d="M 794.4,55.0 L 794.4,55.1 L 794.4,55.1 L 794.4,55.1 L 794.4,55.2 L 794.4,55.2 L 794.4,55.2 L 794.3,55.3 L 794.3,55.3 L 794.3,55.3 L 794.3,55.4 L 794.2,55.4 L 794.2,55.4 L 794.2,55.4 L 794.1,55.4 L 794.1,55.4 L 794.1,55.5 L 794.0,55.5 L 794.0,55.5 L 794.0,55.5 L 793.9,55.5 L 793.9,55.4 L 793.9,55.4 L 793.8,55.4 L 793.8,55.4 L 793.8,55.4 L 793.7,55.4 L 793.7,55.3 L 793.7,55.3 L 793.7,55.3 L 793.6,55.3 L 793.6,55.2 L 793.6,55.2 L 793.6,55.2 L 793.6,55.1 L 793.6,55.1 L 793.6,55.1 L 793.6,55.0 L 793.6,55.0 L 793.6,54.9 L 793.6,54.9 L 793.6,54.9 L 793.6,54.8 L 793.6,54.8 L 793.7,54.8 L 793.7,54.8 L 793.7,54.7 L 793.7,54.7 L 793.8,54.7 L 793.8,54.7 L 793.8,54.6 L 793.9,54.6 L 793.9,54.6 L 793.9,54.6 L 794.0,54.6 L 794.0,54.6 L 794.0,54.6 L 794.1,54.6 L 794.1,54.6 L 794.1,54.6 L 794.2,54.7 L 794.2,54.7 L 794.2,54.7 L 794.3,54.7 L 794.3,54.7 L 794.3,54.8 L 794.3,54.8 L 794.4,54.8 L 794.4,54.9 L 794.4,54.9 L 794.4,54.9 L 794.4,55.0 L 794.4,55.0 L 794.4,55.0 L 794.0,55.0 Z" style="fill:#000000;fill-rule:evenodd;fill-opacity:1;stroke:#000000;stroke-width:0.0px;stroke-linecap:butt;stroke-linejoin:miter;stroke-opacity:1;"/>
<path class="atom-30" d="M 799.8,33.6 L 799.8,33.6 L 799.8,33.6 L 799.8,33.7 L 799.8,33.7 L 799.7,33.7 L 799.7,33.8 L 799.7,33.8 L 799.7,33.8 L 799.7,33.9 L 799.6,33.9 L 799.6,33.9 L 799.6,33.9 L 799.5,33.9 L 799.5,34.0 L 799.5,34.0 L 799.4,34.0 L 799.4,34.0 L 799.4,34.0 L 799.3,34.0 L 799.3,34.0 L 799.3,34.0 L 799.2,34.0 L 799.2,34.0 L 799.2,33.9 L 799.1,33.9 L 799.1,33.9 L 799.1,33.9 L 799.1,33.8 L 799.0,33.8 L 799.0,33.8 L 799.0,33.8 L 799.0,33.7 L 799.0,33.7 L 799.0,33.7 L 798.9,33.6 L 798.9,33.6 L 798.9,33.5 L 798.9,33.5 L 799.0,33.5 L 799.0,33.4 L 799.0,33.4 L 799.0,33.4 L 799.0,33.3 L 799.0,33.3 L 799.1,33.3 L 799.1,33.3 L 799.1,33.2 L 799.1,33.2 L 799.2,33.2 L 799.2,33.2 L 799.2,33.2 L 799.3,33.2 L 799.3,33.1 L 799.3,33.1 L 799.4,33.1 L 799.4,33.1 L 799.4,33.1 L 799.5,33.2 L 799.5,33.2 L 799.5,33.2 L 799.6,33.2 L 799.6,33.2 L 799.6,33.2 L 799.7,33.3 L 799.7,33.3 L 799.7,33.3 L 799.7,33.4 L 799.7,33.4 L 799.8,33.4 L 799.8,33.5 L 799.8,33.5 L 799.8,33.5 L 799.8,33.6 L 799.4,33.6 Z" style="fill:#000000;fill-rule:evenodd;fill-opacity:1;stroke:#000000;stroke-width:0.0px;stroke-linecap:butt;stroke-linejoin:miter;stroke-opacity:1;"/>
</svg>