<svg xmlns="http://www.w3.org/2000/svg" xmlns:rdkit="http://www.rdkit.org/xml" xmlns:xlink="http://www.w3.org/1999/xlink" version="1.1" baseProfile="full" xml:space="preserve" width="900px" height="160px" viewBox="0 0 900 160">
<!-- END OF HEADER -->
<rect style="opacity:1.0;fill:#FFFFFF;stroke:none" width="900.0" height="160.0" x="0.0" y="0.0"> </rect>
<path class="bond-0 atom-0 atom-1" d="M 70.7,15.7 L 58.8,27.3" style="fill:none;fill-rule:evenodd;stroke:#000000;stroke-width:2.0px;stroke-linecap:butt;stroke-linejoin:miter;stroke-opacity:1"/>
<path class="bond-1 atom-1 atom-2" d="M 58.8,27.3 L 60.5,33.9" style="fill:none;fill-rule:evenodd;stroke:#000000;stroke-width:2.0px;stroke-linecap:butt;stroke-linejoin:miter;stroke-opacity:1"/>
<path class="bond-1 atom-1 atom-2" d="M 60.5,33.9 L 62.1,40.5" style="fill:none;fill-rule:evenodd;stroke:#A01EEF;stroke-width:2.0px;stroke-linecap:butt;stroke-linejoin:miter;stroke-opacity:1"/>
<path class="bond-2 atom-2 atom-3" d="M 64.9,51.5 L 65.5,54.1" style="fill:none;fill-rule:evenodd;stroke:#A01EEF;stroke-width:2.0px;stroke-linecap:butt;stroke-linejoin:miter;stroke-opacity:1"/>
<path class="bond-2 atom-2 atom-3" d="M 65.5,54.1 L 66.2,56.7" style="fill:none;fill-rule:evenodd;stroke:#000000;stroke-width:2.0px;stroke-linecap:butt;stroke-linejoin:miter;stroke-opacity:1"/>
<path class="bond-3 atom-3 atom-4" d="M 67.8,59.8 L 82.9,64.1" style="fill:none;fill-rule:evenodd;stroke:#000000;stroke-width:2.0px;stroke-linecap:butt;stroke-linejoin:miter;stroke-opacity:1"/>
<path class="bond-4 atom-4 atom-5" d="M 82.9,64.1 L 82.7,80.8" style="fill:none;fill-rule:evenodd;stroke:#000000;stroke-width:2.0px;stroke-linecap:butt;stroke-linejoin:miter;stroke-opacity:1"/>
<path class="bond-5 atom-5 atom-6" d="M 82.7,80.8 L 76.1,78.2" style="fill:none;fill-rule:evenodd;stroke:#000000;stroke-width:2.0px;stroke-linecap:butt;stroke-linejoin:miter;stroke-opacity:1"/>
<path class="bond-5 atom-5 atom-6" d="M 76.1,78.2 L 69.5,75.7" style="fill:none;fill-rule:evenodd;stroke:#0000FF;stroke-width:2.0px;stroke-linecap:butt;stroke-linejoin:miter;stroke-opacity:1"/>
<path class="bond-6 atom-5 atom-7" d="M 82.7,80.8 L 78.0,86.2" style="fill:none;fill-rule:evenodd;stroke:#000000;stroke-width:2.0px;stroke-linecap:butt;stroke-linejoin:miter;stroke-opacity:1"/>
<path class="bond-6 atom-5 atom-7" d="M 78.0,86.2 L 73.2,91.7" style="fill:none;fill-rule:evenodd;stroke:#7F4C19;stroke-width:2.0px;stroke-linecap:butt;stroke-linejoin:miter;stroke-opacity:1"/>
<path class="bond-7 atom-5 atom-8" d="M 82.7,80.8 L 90.8,95.3" style="fill:none;fill-rule:evenodd;stroke:#000000;stroke-width:2.0px;stroke-linecap:butt;stroke-linejoin:miter;stroke-opacity:1"/>
<path class="bond-8 atom-8 atom-9" d="M 90.8,95.3 L 105.1,103.8" style="fill:none;fill-rule:evenodd;stroke:#000000;stroke-width:2.0px;stroke-linecap:butt;stroke-linejoin:miter;stroke-opacity:1"/>
<path class="bond-9 atom-9 atom-10" d="M 105.1,103.8 L 121.7,104.1" style="fill:none;fill-rule:evenodd;stroke:#000000;stroke-width:2.0px;stroke-linecap:butt;stroke-linejoin:miter;stroke-opacity:1"/>
<path class="bond-10 atom-10 atom-11" d="M 121.7,104.1 L 121.5,120.7" style="fill:none;fill-rule:evenodd;stroke:#000000;stroke-width:2.0px;stroke-linecap:butt;stroke-linejoin:miter;stroke-opacity:1"/>
<path class="bond-11 atom-11 atom-12" d="M 121.5,120.7 L 115.5,136.3" style="fill:none;fill-rule:evenodd;stroke:#000000;stroke-width:2.0px;stroke-linecap:butt;stroke-linejoin:miter;stroke-opacity:1"/>
<path class="bond-12 atom-11 atom-13" d="M 121.5,120.7 L 105.1,117.6" style="fill:none;fill-rule:evenodd;stroke:#000000;stroke-width:2.0px;stroke-linecap:butt;stroke-linejoin:miter;stroke-opacity:1"/>
<path class="bond-13 atom-11 atom-14" d="M 121.5,120.7 L 135.7,129.3" style="fill:none;fill-rule:evenodd;stroke:#000000;stroke-width:2.0px;stroke-linecap:butt;stroke-linejoin:miter;stroke-opacity:1"/>
<path class="bond-14 atom-14 atom-15" d="M 135.7,129.3 L 135.6,136.1" style="fill:none;fill-rule:evenodd;stroke:#000000;stroke-width:2.0px;stroke-linecap:butt;stroke-linejoin:miter;stroke-opacity:1"/>
<path class="bond-14 atom-14 atom-15" d="M 135.6,136.1 L 135.5,143.0" style="fill:none;fill-rule:evenodd;stroke:#FF0000;stroke-width:2.0px;stroke-linecap:butt;stroke-linejoin:miter;stroke-opacity:1"/>
<path class="bond-15 atom-14 atom-16" d="M 135.7,129.3 L 150.3,121.2" style="fill:none;fill-rule:evenodd;stroke:#000000;stroke-width:2.0px;stroke-linecap:butt;stroke-linejoin:miter;stroke-opacity:1"/>
<path class="bond-16 atom-16 atom-17" d="M 150.3,121.2 L 150.5,104.5" style="fill:none;fill-rule:evenodd;stroke:#000000;stroke-width:2.0px;stroke-linecap:butt;stroke-linejoin:miter;stroke-opacity:1"/>
<path class="bond-17 atom-17 atom-18" d="M 150.5,104.5 L 136.2,96.0" style="fill:none;fill-rule:evenodd;stroke:#000000;stroke-width:2.0px;stroke-linecap:butt;stroke-linejoin:miter;stroke-opacity:1"/>
<path class="bond-18 atom-18 atom-19" d="M 136.2,96.0 L 152.9,96.0" style="fill:none;fill-rule:evenodd;stroke:#000000;stroke-width:2.0px;stroke-linecap:butt;stroke-linejoin:miter;stroke-opacity:1"/>
<path class="bond-19 atom-18 atom-20" d="M 136.2,96.0 L 144.8,81.7" style="fill:none;fill-rule:evenodd;stroke:#000000;stroke-width:2.0px;stroke-linecap:butt;stroke-linejoin:miter;stroke-opacity:1"/>
<path class="bond-20 atom-20 atom-21" d="M 144.8,81.7 L 159.1,90.2" style="fill:none;fill-rule:evenodd;stroke:#000000;stroke-width:2.0px;stroke-linecap:butt;stroke-linejoin:miter;stroke-opacity:1"/>
<path class="bond-21 atom-21 atom-22" d="M 157.6,89.4 L 159.3,96.6" style="fill:none;fill-rule:evenodd;stroke:#000000;stroke-width:2.0px;stroke-linecap:butt;stroke-linejoin:miter;stroke-opacity:1"/>
<path class="bond-21 atom-21 atom-22" d="M 159.3,96.6 L 161.0,103.8" style="fill:none;fill-rule:evenodd;stroke:#FF0000;stroke-width:2.0px;stroke-linecap:butt;stroke-linejoin:miter;stroke-opacity:1"/>
<path class="bond-21 atom-21 atom-22" d="M 160.2,89.6 L 161.7,96.0" style="fill:none;fill-rule:evenodd;stroke:#000000;stroke-width:2.0px;stroke-linecap:butt;stroke-linejoin:miter;stroke-opacity:1"/>
<path class="bond-21 atom-21 atom-22" d="M 161.7,96.0 L 163.4,103.2" style="fill:none;fill-rule:evenodd;stroke:#FF0000;stroke-width:2.0px;stroke-linecap:butt;stroke-linejoin:miter;stroke-opacity:1"/>
<path class="bond-22 atom-21 atom-23" d="M 159.1,90.2 L 173.6,82.1" style="fill:none;fill-rule:evenodd;stroke:#000000;stroke-width:2.0px;stroke-linecap:butt;stroke-linejoin:miter;stroke-opacity:1"/>
<path class="bond-23 atom-23 atom-24" d="M 173.6,82.1 L 173.9,65.5" style="fill:none;fill-rule:evenodd;stroke:#000000;stroke-width:2.0px;stroke-linecap:butt;stroke-linejoin:miter;stroke-opacity:1"/>
<path class="bond-23 atom-23 atom-24" d="M 171.1,80.7 L 171.4,66.9" style="fill:none;fill-rule:evenodd;stroke:#000000;stroke-width:2.0px;stroke-linecap:butt;stroke-linejoin:miter;stroke-opacity:1"/>
<path class="bond-24 atom-24 atom-25" d="M 173.9,65.5 L 188.4,57.4" style="fill:none;fill-rule:evenodd;stroke:#000000;stroke-width:2.0px;stroke-linecap:butt;stroke-linejoin:miter;stroke-opacity:1"/>
<path class="bond-25 atom-25 atom-26" d="M 188.4,57.4 L 202.7,65.9" style="fill:none;fill-rule:evenodd;stroke:#000000;stroke-width:2.0px;stroke-linecap:butt;stroke-linejoin:miter;stroke-opacity:1"/>
<path class="bond-26 atom-26 atom-27" d="M 202.7,65.9 L 217.2,57.8" style="fill:none;fill-rule:evenodd;stroke:#000000;stroke-width:2.0px;stroke-linecap:butt;stroke-linejoin:miter;stroke-opacity:1"/>
<path class="bond-27 atom-27 atom-28" d="M 217.2,57.8 L 233.7,55.2" style="fill:none;fill-rule:evenodd;stroke:#000000;stroke-width:2.0px;stroke-linecap:butt;stroke-linejoin:miter;stroke-opacity:1"/>
<path class="bond-28 atom-27 atom-29" d="M 217.2,57.8 L 222.7,73.6" style="fill:none;fill-rule:evenodd;stroke:#000000;stroke-width:2.0px;stroke-linecap:butt;stroke-linejoin:miter;stroke-opacity:1"/>
<path class="bond-29 atom-29 atom-30" d="M 221.7,74.7 L 228.9,76.0" style="fill:none;fill-rule:evenodd;stroke:#000000;stroke-width:2.0px;stroke-linecap:butt;stroke-linejoin:miter;stroke-opacity:1"/>
<path class="bond-29 atom-29 atom-30" d="M 228.9,76.0 L 236.1,77.4" style="fill:none;fill-rule:evenodd;stroke:#FF0000;stroke-width:2.0px;stroke-linecap:butt;stroke-linejoin:miter;stroke-opacity:1"/>
<path class="bond-29 atom-29 atom-30" d="M 222.2,72.2 L 229.4,73.6" style="fill:none;fill-rule:evenodd;stroke:#000000;stroke-width:2.0px;stroke-linecap:butt;stroke-linejoin:miter;stroke-opacity:1"/>
<path class="bond-29 atom-29 atom-30" d="M 229.4,73.6 L 236.6,75.0" style="fill:none;fill-rule:evenodd;stroke:#FF0000;stroke-width:2.0px;stroke-linecap:butt;stroke-linejoin:miter;stroke-opacity:1"/>
<path class="bond-30 atom-29 atom-31" d="M 222.7,73.6 L 218.5,78.4" style="fill:none;fill-rule:evenodd;stroke:#000000;stroke-width:2.0px;stroke-linecap:butt;stroke-linejoin:miter;stroke-opacity:1"/>
<path class="bond-30 atom-29 atom-31" d="M 218.5,78.4 L 214.3,83.2" style="fill:none;fill-rule:evenodd;stroke:#FF0000;stroke-width:2.0px;stroke-linecap:butt;stroke-linejoin:miter;stroke-opacity:1"/>
<path class="bond-31 atom-27 atom-32" d="M 217.2,57.8 L 217.5,41.2" style="fill:none;fill-rule:evenodd;stroke:#000000;stroke-width:2.0px;stroke-linecap:butt;stroke-linejoin:miter;stroke-opacity:1"/>
<path class="bond-32 atom-32 atom-33" d="M 217.5,41.2 L 203.2,32.7" style="fill:none;fill-rule:evenodd;stroke:#000000;stroke-width:2.0px;stroke-linecap:butt;stroke-linejoin:miter;stroke-opacity:1"/>
<path class="bond-33 atom-33 atom-34" d="M 203.2,32.7 L 188.7,40.8" style="fill:none;fill-rule:evenodd;stroke:#000000;stroke-width:2.0px;stroke-linecap:butt;stroke-linejoin:miter;stroke-opacity:1"/>
<path class="bond-34 atom-34 atom-35" d="M 188.7,40.8 L 188.9,24.1" style="fill:none;fill-rule:evenodd;stroke:#000000;stroke-width:2.0px;stroke-linecap:butt;stroke-linejoin:miter;stroke-opacity:1"/>
<path class="bond-35 atom-34 atom-36" d="M 188.7,40.8 L 174.4,32.2" style="fill:none;fill-rule:evenodd;stroke:#000000;stroke-width:2.0px;stroke-linecap:butt;stroke-linejoin:miter;stroke-opacity:1"/>
<path class="bond-36 atom-36 atom-37" d="M 174.4,32.2 L 159.8,40.3" style="fill:none;fill-rule:evenodd;stroke:#000000;stroke-width:2.0px;stroke-linecap:butt;stroke-linejoin:miter;stroke-opacity:1"/>
<path class="bond-37 atom-37 atom-38" d="M 159.8,40.3 L 159.6,57.0" style="fill:none;fill-rule:evenodd;stroke:#000000;stroke-width:2.0px;stroke-linecap:butt;stroke-linejoin:miter;stroke-opacity:1"/>
<path class="bond-38 atom-38 atom-39" d="M 159.6,57.0 L 159.3,73.6" style="fill:none;fill-rule:evenodd;stroke:#000000;stroke-width:2.0px;stroke-linecap:butt;stroke-linejoin:miter;stroke-opacity:1"/>
<path class="bond-39 atom-38 atom-40" d="M 159.6,57.0 L 145.0,65.1" style="fill:none;fill-rule:evenodd;stroke:#000000;stroke-width:2.0px;stroke-linecap:butt;stroke-linejoin:miter;stroke-opacity:1"/>
<path class="bond-40 atom-40 atom-41" d="M 145.0,65.1 L 149.6,49.0" style="fill:none;fill-rule:evenodd;stroke:#000000;stroke-width:2.0px;stroke-linecap:butt;stroke-linejoin:miter;stroke-opacity:1"/>
<path class="bond-41 atom-40 atom-42" d="M 145.0,65.1 L 136.9,50.5" style="fill:none;fill-rule:evenodd;stroke:#000000;stroke-width:2.0px;stroke-linecap:butt;stroke-linejoin:miter;stroke-opacity:1"/>
<path class="bond-42 atom-42 atom-43" d="M 136.9,50.5 L 122.7,42.0" style="fill:none;fill-rule:evenodd;stroke:#000000;stroke-width:2.0px;stroke-linecap:butt;stroke-linejoin:miter;stroke-opacity:1"/>
<path class="bond-43 atom-43 atom-44" d="M 122.7,42.0 L 106.0,41.7" style="fill:none;fill-rule:evenodd;stroke:#000000;stroke-width:2.0px;stroke-linecap:butt;stroke-linejoin:miter;stroke-opacity:1"/>
<path class="bond-44 atom-44 atom-45" d="M 106.0,41.7 L 102.7,28.5" style="fill:none;fill-rule:evenodd;stroke:#000000;stroke-width:2.0px;stroke-linecap:butt;stroke-linejoin:miter;stroke-opacity:1"/>
<path class="bond-45 atom-45 atom-46" d="M 102.8,24.8 L 107.9,19.8" style="fill:none;fill-rule:evenodd;stroke:#000000;stroke-width:2.0px;stroke-linecap:butt;stroke-linejoin:miter;stroke-opacity:1"/>
<path class="bond-45 atom-45 atom-46" d="M 107.9,19.8 L 113.0,14.8" style="fill:none;fill-rule:evenodd;stroke:#A01EEF;stroke-width:2.0px;stroke-linecap:butt;stroke-linejoin:miter;stroke-opacity:1"/>
<path class="bond-46 atom-44 atom-47" d="M 106.0,41.7 L 91.5,49.8" style="fill:none;fill-rule:evenodd;stroke:#000000;stroke-width:2.0px;stroke-linecap:butt;stroke-linejoin:miter;stroke-opacity:1"/>
<path class="bond-47 atom-47 atom-48" d="M 91.5,49.8 L 90.4,43.1" style="fill:none;fill-rule:evenodd;stroke:#000000;stroke-width:2.0px;stroke-linecap:butt;stroke-linejoin:miter;stroke-opacity:1"/>
<path class="bond-47 atom-47 atom-48" d="M 90.4,43.1 L 89.3,36.4" style="fill:none;fill-rule:evenodd;stroke:#FF0000;stroke-width:2.0px;stroke-linecap:butt;stroke-linejoin:miter;stroke-opacity:1"/>
<path class="bond-48 atom-47 atom-49" d="M 91.5,49.8 L 84.1,48.4" style="fill:none;fill-rule:evenodd;stroke:#000000;stroke-width:2.0px;stroke-linecap:butt;stroke-linejoin:miter;stroke-opacity:1"/>
<path class="bond-48 atom-47 atom-49" d="M 84.1,48.4 L 76.7,47.0" style="fill:none;fill-rule:evenodd;stroke:#7F4C19;stroke-width:2.0px;stroke-linecap:butt;stroke-linejoin:miter;stroke-opacity:1"/>
<path class="bond-49 atom-47 atom-4" d="M 91.5,49.8 L 82.9,64.1" style="fill:none;fill-rule:evenodd;stroke:#000000;stroke-width:2.0px;stroke-linecap:butt;stroke-linejoin:miter;stroke-opacity:1"/>
<path class="bond-50 atom-18 atom-10" d="M 136.2,96.0 L 121.7,104.1" style="fill:none;fill-rule:evenodd;stroke:#000000;stroke-width:2.0px;stroke-linecap:butt;stroke-linejoin:miter;stroke-opacity:1"/>
<path class="bond-51 atom-40 atom-20" d="M 145.0,65.1 L 144.8,81.7" style="fill:none;fill-rule:evenodd;stroke:#000000;stroke-width:2.0px;stroke-linecap:butt;stroke-linejoin:miter;stroke-opacity:1"/>
<path class="bond-52 atom-38 atom-24" d="M 159.6,57.0 L 173.9,65.5" style="fill:none;fill-rule:evenodd;stroke:#000000;stroke-width:2.0px;stroke-linecap:butt;stroke-linejoin:miter;stroke-opacity:1"/>
<path class="bond-53 atom-34 atom-25" d="M 188.7,40.8 L 188.4,57.4" style="fill:none;fill-rule:evenodd;stroke:#000000;stroke-width:2.0px;stroke-linecap:butt;stroke-linejoin:miter;stroke-opacity:1"/>
<path d="M 59.4,26.7 L 58.8,27.3 L 58.9,27.6" style="fill:none;stroke:#000000;stroke-width:2.0px;stroke-linecap:butt;stroke-linejoin:miter;stroke-opacity:1;"/>
<path d="M 90.4,94.6 L 90.8,95.3 L 91.5,95.7" style="fill:none;stroke:#000000;stroke-width:2.0px;stroke-linecap:butt;stroke-linejoin:miter;stroke-opacity:1;"/>
<path d="M 104.4,103.4 L 105.1,103.8 L 105.9,103.8" style="fill:none;stroke:#000000;stroke-width:2.0px;stroke-linecap:butt;stroke-linejoin:miter;stroke-opacity:1;"/>
<path d="M 149.6,121.6 L 150.3,121.2 L 150.3,120.3" style="fill:none;stroke:#000000;stroke-width:2.0px;stroke-linecap:butt;stroke-linejoin:miter;stroke-opacity:1;"/>
<path d="M 150.5,105.4 L 150.5,104.5 L 149.8,104.1" style="fill:none;stroke:#000000;stroke-width:2.0px;stroke-linecap:butt;stroke-linejoin:miter;stroke-opacity:1;"/>
<path d="M 158.4,89.8 L 159.1,90.2 L 159.8,89.8" style="fill:none;stroke:#000000;stroke-width:2.0px;stroke-linecap:butt;stroke-linejoin:miter;stroke-opacity:1;"/>
<path d="M 172.9,82.5 L 173.6,82.1 L 173.6,81.3" style="fill:none;stroke:#000000;stroke-width:2.0px;stroke-linecap:butt;stroke-linejoin:miter;stroke-opacity:1;"/>
<path d="M 202.0,65.5 L 202.7,65.9 L 203.4,65.5" style="fill:none;stroke:#000000;stroke-width:2.0px;stroke-linecap:butt;stroke-linejoin:miter;stroke-opacity:1;"/>
<path d="M 222.4,72.8 L 222.7,73.6 L 222.5,73.8" style="fill:none;stroke:#000000;stroke-width:2.0px;stroke-linecap:butt;stroke-linejoin:miter;stroke-opacity:1;"/>
<path d="M 217.5,42.0 L 217.5,41.2 L 216.8,40.8" style="fill:none;stroke:#000000;stroke-width:2.0px;stroke-linecap:butt;stroke-linejoin:miter;stroke-opacity:1;"/>
<path d="M 203.9,33.1 L 203.2,32.7 L 202.5,33.1" style="fill:none;stroke:#000000;stroke-width:2.0px;stroke-linecap:butt;stroke-linejoin:miter;stroke-opacity:1;"/>
<path d="M 175.1,32.6 L 174.4,32.2 L 173.7,32.6" style="fill:none;stroke:#000000;stroke-width:2.0px;stroke-linecap:butt;stroke-linejoin:miter;stroke-opacity:1;"/>
<path d="M 160.6,39.9 L 159.8,40.3 L 159.8,41.1" style="fill:none;stroke:#000000;stroke-width:2.0px;stroke-linecap:butt;stroke-linejoin:miter;stroke-opacity:1;"/>
<path d="M 137.3,51.2 L 136.9,50.5 L 136.2,50.1" style="fill:none;stroke:#000000;stroke-width:2.0px;stroke-linecap:butt;stroke-linejoin:miter;stroke-opacity:1;"/>
<path d="M 123.4,42.4 L 122.7,42.0 L 121.8,42.0" style="fill:none;stroke:#000000;stroke-width:2.0px;stroke-linecap:butt;stroke-linejoin:miter;stroke-opacity:1;"/>
<path class="atom-2" d="M 62.5 41.0 L 63.2 41.0 L 63.2 45.8 L 62.5 45.8 L 62.5 41.0 " fill="#A01EEF"/>
<path class="atom-2" d="M 61.0 46.3 L 61.7 46.3 L 61.7 48.3 L 64.1 48.3 L 64.1 46.3 L 64.7 46.3 L 64.7 51.0 L 64.1 51.0 L 64.1 48.8 L 61.7 48.8 L 61.7 51.0 L 61.0 51.0 L 61.0 46.3 " fill="#A01EEF"/>
<path class="atom-3" d="M 63.3 61.2 Q 63.3 61.2, 63.6 61.3 Q 63.8 61.4, 64.0 61.4 Q 64.3 61.5, 64.5 61.5 Q 64.9 61.5, 65.2 61.3 Q 65.5 61.1, 65.5 60.7 Q 65.5 60.4, 65.3 60.3 Q 65.2 60.1, 65.0 60.0 Q 64.8 59.9, 64.5 59.8 Q 64.1 59.7, 63.8 59.6 Q 63.6 59.5, 63.4 59.2 Q 63.2 59.0, 63.2 58.5 Q 63.2 57.9, 63.6 57.6 Q 64.0 57.2, 64.8 57.2 Q 65.4 57.2, 66.0 57.5 L 65.8 58.0 Q 65.3 57.8, 64.8 57.8 Q 64.4 57.8, 64.1 57.9 Q 63.9 58.1, 63.9 58.5 Q 63.9 58.7, 64.0 58.9 Q 64.1 59.0, 64.3 59.1 Q 64.5 59.2, 64.8 59.3 Q 65.3 59.4, 65.5 59.6 Q 65.8 59.7, 65.9 60.0 Q 66.1 60.2, 66.1 60.7 Q 66.1 61.3, 65.7 61.7 Q 65.3 62.0, 64.5 62.0 Q 64.1 62.0, 63.8 61.9 Q 63.5 61.9, 63.1 61.7 L 63.3 61.2 " fill="#000000"/>
<path class="atom-3" d="M 66.6 57.2 L 67.2 57.2 L 67.2 57.8 L 66.6 57.8 L 66.6 57.2 M 66.6 58.5 L 67.2 58.5 L 67.2 61.9 L 66.6 61.9 L 66.6 58.5 " fill="#000000"/>
<path class="atom-6" d="M 66.1 72.5 L 67.6 75.0 Q 67.8 75.2, 68.0 75.7 Q 68.3 76.1, 68.3 76.1 L 68.3 72.5 L 68.9 72.5 L 68.9 77.2 L 68.3 77.2 L 66.6 74.4 Q 66.4 74.1, 66.2 73.8 Q 66.0 73.4, 66.0 73.3 L 66.0 77.2 L 65.3 77.2 L 65.3 72.5 L 66.1 72.5 " fill="#0000FF"/>
<path class="atom-6" d="M 69.8 73.3 L 70.6 73.3 L 70.6 72.4 L 71.0 72.4 L 71.0 73.3 L 71.9 73.3 L 71.9 73.6 L 71.0 73.6 L 71.0 74.5 L 70.6 74.5 L 70.6 73.6 L 69.8 73.6 L 69.8 73.3 " fill="#0000FF"/>
<path class="atom-7" d="M 69.3 93.2 Q 69.8 93.3, 70.0 93.6 Q 70.2 93.9, 70.2 94.3 Q 70.2 95.0, 69.8 95.3 Q 69.4 95.7, 68.6 95.7 L 67.0 95.7 L 67.0 91.0 L 68.4 91.0 Q 69.2 91.0, 69.6 91.3 Q 70.0 91.6, 70.0 92.2 Q 70.0 92.9, 69.3 93.2 M 67.7 91.5 L 67.7 93.0 L 68.4 93.0 Q 68.9 93.0, 69.1 92.8 Q 69.4 92.6, 69.4 92.2 Q 69.4 91.5, 68.4 91.5 L 67.7 91.5 M 68.6 95.2 Q 69.1 95.2, 69.3 94.9 Q 69.6 94.7, 69.6 94.3 Q 69.6 93.9, 69.3 93.7 Q 69.0 93.5, 68.5 93.5 L 67.7 93.5 L 67.7 95.2 L 68.6 95.2 " fill="#7F4C19"/>
<path class="atom-7" d="M 71.3 92.3 L 71.4 92.7 Q 71.7 92.2, 72.3 92.2 Q 72.5 92.2, 72.8 92.3 L 72.7 92.8 Q 72.4 92.8, 72.2 92.8 Q 71.9 92.8, 71.8 92.9 Q 71.6 93.0, 71.4 93.3 L 71.4 95.7 L 70.8 95.7 L 70.8 92.3 L 71.3 92.3 " fill="#7F4C19"/>
<path class="atom-15" d="M 133.3 145.9 Q 133.3 144.8, 133.9 144.2 Q 134.4 143.5, 135.5 143.5 Q 136.5 143.5, 137.1 144.2 Q 137.6 144.8, 137.6 145.9 Q 137.6 147.1, 137.1 147.7 Q 136.5 148.4, 135.5 148.4 Q 134.4 148.4, 133.9 147.7 Q 133.3 147.1, 133.3 145.9 M 135.5 147.8 Q 136.2 147.8, 136.6 147.4 Q 137.0 146.9, 137.0 145.9 Q 137.0 145.0, 136.6 144.5 Q 136.2 144.1, 135.5 144.1 Q 134.8 144.1, 134.4 144.5 Q 134.0 145.0, 134.0 145.9 Q 134.0 146.9, 134.4 147.4 Q 134.8 147.8, 135.5 147.8 " fill="#FF0000"/>
<path class="atom-15" d="M 138.4 143.6 L 139.0 143.6 L 139.0 145.6 L 141.4 145.6 L 141.4 143.6 L 142.1 143.6 L 142.1 148.3 L 141.4 148.3 L 141.4 146.1 L 139.0 146.1 L 139.0 148.3 L 138.4 148.3 L 138.4 143.6 " fill="#FF0000"/>
<path class="atom-22" d="M 160.7 106.5 Q 160.7 105.3, 161.3 104.7 Q 161.8 104.1, 162.9 104.1 Q 163.9 104.1, 164.5 104.7 Q 165.0 105.3, 165.0 106.5 Q 165.0 107.6, 164.5 108.3 Q 163.9 108.9, 162.9 108.9 Q 161.8 108.9, 161.3 108.3 Q 160.7 107.6, 160.7 106.5 M 162.9 108.4 Q 163.6 108.4, 164.0 107.9 Q 164.4 107.4, 164.4 106.5 Q 164.4 105.5, 164.0 105.1 Q 163.6 104.6, 162.9 104.6 Q 162.1 104.6, 161.7 105.1 Q 161.4 105.5, 161.4 106.5 Q 161.4 107.4, 161.7 107.9 Q 162.1 108.4, 162.9 108.4 " fill="#FF0000"/>
<path class="atom-30" d="M 236.9 76.7 Q 236.9 75.6, 237.4 75.0 Q 238.0 74.3, 239.0 74.3 Q 240.1 74.3, 240.6 75.0 Q 241.2 75.6, 241.2 76.7 Q 241.2 77.9, 240.6 78.5 Q 240.1 79.2, 239.0 79.2 Q 238.0 79.2, 237.4 78.5 Q 236.9 77.9, 236.9 76.7 M 239.0 78.6 Q 239.8 78.6, 240.1 78.2 Q 240.5 77.7, 240.5 76.7 Q 240.5 75.8, 240.1 75.3 Q 239.8 74.9, 239.0 74.9 Q 238.3 74.9, 237.9 75.3 Q 237.5 75.8, 237.5 76.7 Q 237.5 77.7, 237.9 78.2 Q 238.3 78.6, 239.0 78.6 " fill="#FF0000"/>
<path class="atom-31" d="M 205.0 83.8 L 205.6 83.8 L 205.6 85.8 L 208.0 85.8 L 208.0 83.8 L 208.7 83.8 L 208.7 88.5 L 208.0 88.5 L 208.0 86.4 L 205.6 86.4 L 205.6 88.5 L 205.0 88.5 L 205.0 83.8 " fill="#FF0000"/>
<path class="atom-31" d="M 209.6 86.2 Q 209.6 85.0, 210.2 84.4 Q 210.8 83.8, 211.8 83.8 Q 212.8 83.8, 213.4 84.4 Q 214.0 85.0, 214.0 86.2 Q 214.0 87.3, 213.4 88.0 Q 212.8 88.6, 211.8 88.6 Q 210.8 88.6, 210.2 88.0 Q 209.6 87.3, 209.6 86.2 M 211.8 88.1 Q 212.5 88.1, 212.9 87.6 Q 213.3 87.1, 213.3 86.2 Q 213.3 85.2, 212.9 84.8 Q 212.5 84.3, 211.8 84.3 Q 211.1 84.3, 210.7 84.8 Q 210.3 85.2, 210.3 86.2 Q 210.3 87.1, 210.7 87.6 Q 211.1 88.1, 211.8 88.1 " fill="#FF0000"/>
<path class="atom-45" d="M 98.3 27.2 Q 98.4 27.2, 98.6 27.3 Q 98.8 27.4, 99.0 27.5 Q 99.3 27.5, 99.5 27.5 Q 100.0 27.5, 100.2 27.3 Q 100.5 27.1, 100.5 26.7 Q 100.5 26.5, 100.4 26.3 Q 100.2 26.1, 100.0 26.0 Q 99.8 26.0, 99.5 25.9 Q 99.1 25.7, 98.8 25.6 Q 98.6 25.5, 98.4 25.2 Q 98.2 25.0, 98.2 24.6 Q 98.2 24.0, 98.6 23.6 Q 99.0 23.2, 99.8 23.2 Q 100.4 23.2, 101.0 23.5 L 100.8 24.0 Q 100.3 23.8, 99.9 23.8 Q 99.4 23.8, 99.1 24.0 Q 98.9 24.2, 98.9 24.5 Q 98.9 24.7, 99.0 24.9 Q 99.2 25.0, 99.3 25.1 Q 99.5 25.2, 99.9 25.3 Q 100.3 25.4, 100.5 25.6 Q 100.8 25.7, 101.0 26.0 Q 101.2 26.3, 101.2 26.7 Q 101.2 27.4, 100.7 27.7 Q 100.3 28.1, 99.6 28.1 Q 99.1 28.1, 98.8 28.0 Q 98.5 27.9, 98.1 27.7 L 98.3 27.2 " fill="#000000"/>
<path class="atom-45" d="M 101.6 23.2 L 102.3 23.2 L 102.3 23.8 L 101.6 23.8 L 101.6 23.2 M 101.6 24.5 L 102.3 24.5 L 102.3 27.9 L 101.6 27.9 L 101.6 24.5 " fill="#000000"/>
<path class="atom-46" d="M 113.6 11.6 L 114.2 11.6 L 114.2 16.4 L 113.6 16.4 L 113.6 11.6 " fill="#A01EEF"/>
<path class="atom-48" d="M 86.7 33.4 Q 86.7 32.3, 87.2 31.6 Q 87.8 31.0, 88.8 31.0 Q 89.9 31.0, 90.4 31.6 Q 91.0 32.3, 91.0 33.4 Q 91.0 34.5, 90.4 35.2 Q 89.9 35.8, 88.8 35.8 Q 87.8 35.8, 87.2 35.2 Q 86.7 34.6, 86.7 33.4 M 88.8 35.3 Q 89.6 35.3, 89.9 34.8 Q 90.3 34.3, 90.3 33.4 Q 90.3 32.5, 89.9 32.0 Q 89.6 31.5, 88.8 31.5 Q 88.1 31.5, 87.7 32.0 Q 87.3 32.5, 87.3 33.4 Q 87.3 34.4, 87.7 34.8 Q 88.1 35.3, 88.8 35.3 " fill="#FF0000"/>
<path class="atom-48" d="M 91.7 31.1 L 92.4 31.1 L 92.4 33.1 L 94.8 33.1 L 94.8 31.1 L 95.4 31.1 L 95.4 35.8 L 94.8 35.8 L 94.8 33.6 L 92.4 33.6 L 92.4 35.8 L 91.7 35.8 L 91.7 31.1 " fill="#FF0000"/>
<path class="atom-49" d="M 72.7 46.6 Q 73.1 46.7, 73.3 47.0 Q 73.6 47.2, 73.6 47.6 Q 73.6 48.3, 73.2 48.7 Q 72.8 49.0, 72.0 49.0 L 70.4 49.0 L 70.4 44.3 L 71.8 44.3 Q 72.6 44.3, 73.0 44.7 Q 73.4 45.0, 73.4 45.6 Q 73.4 46.3, 72.7 46.6 M 71.0 44.9 L 71.0 46.3 L 71.8 46.3 Q 72.2 46.3, 72.5 46.2 Q 72.7 46.0, 72.7 45.6 Q 72.7 44.9, 71.8 44.9 L 71.0 44.9 M 72.0 48.5 Q 72.4 48.5, 72.7 48.3 Q 72.9 48.1, 72.9 47.6 Q 72.9 47.3, 72.6 47.1 Q 72.4 46.9, 71.9 46.9 L 71.0 46.9 L 71.0 48.5 L 72.0 48.5 " fill="#7F4C19"/>
<path class="atom-49" d="M 74.7 45.6 L 74.7 46.1 Q 75.1 45.6, 75.7 45.6 Q 75.9 45.6, 76.1 45.6 L 76.0 46.2 Q 75.7 46.1, 75.6 46.1 Q 75.3 46.1, 75.1 46.2 Q 74.9 46.3, 74.8 46.6 L 74.8 49.0 L 74.1 49.0 L 74.1 45.6 L 74.7 45.6 " fill="#7F4C19"/>
<path class="atom-3" d="M 62.4,60.2 L 62.4,60.3 L 62.4,60.3 L 62.4,60.3 L 62.4,60.3 L 62.4,60.4 L 62.4,60.4 L 62.4,60.4 L 62.4,60.4 L 62.3,60.5 L 62.3,60.5 L 62.3,60.5 L 62.3,60.5 L 62.2,60.5 L 62.2,60.5 L 62.2,60.5 L 62.2,60.5 L 62.1,60.6 L 62.1,60.6 L 62.1,60.6 L 62.1,60.6 L 62.0,60.5 L 62.0,60.5 L 62.0,60.5 L 61.9,60.5 L 61.9,60.5 L 61.9,60.5 L 61.9,60.5 L 61.9,60.4 L 61.8,60.4 L 61.8,60.4 L 61.8,60.4 L 61.8,60.3 L 61.8,60.3 L 61.8,60.3 L 61.8,60.3 L 61.8,60.2 L 61.8,60.2 L 61.8,60.2 L 61.8,60.2 L 61.8,60.1 L 61.8,60.1 L 61.8,60.1 L 61.8,60.0 L 61.8,60.0 L 61.9,60.0 L 61.9,60.0 L 61.9,60.0 L 61.9,59.9 L 61.9,59.9 L 62.0,59.9 L 62.0,59.9 L 62.0,59.9 L 62.1,59.9 L 62.1,59.9 L 62.1,59.9 L 62.1,59.9 L 62.2,59.9 L 62.2,59.9 L 62.2,59.9 L 62.2,59.9 L 62.3,59.9 L 62.3,60.0 L 62.3,60.0 L 62.3,60.0 L 62.4,60.0 L 62.4,60.0 L 62.4,60.1 L 62.4,60.1 L 62.4,60.1 L 62.4,60.1 L 62.4,60.2 L 62.4,60.2 L 62.4,60.2 L 62.1,60.2 Z" style="fill:#000000;fill-rule:evenodd;fill-opacity:1;stroke:#000000;stroke-width:0.0px;stroke-linecap:butt;stroke-linejoin:miter;stroke-opacity:1;"/>
<path class="atom-3" d="M 62.4,58.9 L 62.4,58.9 L 62.4,58.9 L 62.4,59.0 L 62.4,59.0 L 62.4,59.0 L 62.4,59.1 L 62.4,59.1 L 62.4,59.1 L 62.3,59.1 L 62.3,59.1 L 62.3,59.2 L 62.3,59.2 L 62.2,59.2 L 62.2,59.2 L 62.2,59.2 L 62.2,59.2 L 62.1,59.2 L 62.1,59.2 L 62.1,59.2 L 62.1,59.2 L 62.0,59.2 L 62.0,59.2 L 62.0,59.2 L 61.9,59.2 L 61.9,59.2 L 61.9,59.2 L 61.9,59.1 L 61.9,59.1 L 61.8,59.1 L 61.8,59.1 L 61.8,59.0 L 61.8,59.0 L 61.8,59.0 L 61.8,59.0 L 61.8,58.9 L 61.8,58.9 L 61.8,58.9 L 61.8,58.8 L 61.8,58.8 L 61.8,58.8 L 61.8,58.8 L 61.8,58.7 L 61.8,58.7 L 61.8,58.7 L 61.9,58.7 L 61.9,58.6 L 61.9,58.6 L 61.9,58.6 L 61.9,58.6 L 62.0,58.6 L 62.0,58.6 L 62.0,58.6 L 62.1,58.6 L 62.1,58.6 L 62.1,58.6 L 62.1,58.6 L 62.2,58.6 L 62.2,58.6 L 62.2,58.6 L 62.2,58.6 L 62.3,58.6 L 62.3,58.6 L 62.3,58.6 L 62.3,58.7 L 62.4,58.7 L 62.4,58.7 L 62.4,58.7 L 62.4,58.8 L 62.4,58.8 L 62.4,58.8 L 62.4,58.8 L 62.4,58.9 L 62.4,58.9 L 62.1,58.9 Z" style="fill:#000000;fill-rule:evenodd;fill-opacity:1;stroke:#000000;stroke-width:0.0px;stroke-linecap:butt;stroke-linejoin:miter;stroke-opacity:1;"/>
<path class="atom-6" d="M 64.7,73.2 L 64.7,73.2 L 64.7,73.2 L 64.7,73.2 L 64.7,73.3 L 64.6,73.3 L 64.6,73.3 L 64.6,73.3 L 64.6,73.4 L 64.6,73.4 L 64.6,73.4 L 64.5,73.4 L 64.5,73.4 L 64.5,73.5 L 64.5,73.5 L 64.4,73.5 L 64.4,73.5 L 64.4,73.5 L 64.3,73.5 L 64.3,73.5 L 64.3,73.5 L 64.3,73.5 L 64.2,73.5 L 64.2,73.5 L 64.2,73.5 L 64.2,73.4 L 64.1,73.4 L 64.1,73.4 L 64.1,73.4 L 64.1,73.4 L 64.1,73.3 L 64.0,73.3 L 64.0,73.3 L 64.0,73.3 L 64.0,73.2 L 64.0,73.2 L 64.0,73.2 L 64.0,73.1 L 64.0,73.1 L 64.0,73.1 L 64.0,73.1 L 64.0,73.0 L 64.0,73.0 L 64.1,73.0 L 64.1,73.0 L 64.1,72.9 L 64.1,72.9 L 64.1,72.9 L 64.2,72.9 L 64.2,72.9 L 64.2,72.9 L 64.2,72.8 L 64.3,72.8 L 64.3,72.8 L 64.3,72.8 L 64.3,72.8 L 64.4,72.8 L 64.4,72.8 L 64.4,72.8 L 64.5,72.8 L 64.5,72.9 L 64.5,72.9 L 64.5,72.9 L 64.6,72.9 L 64.6,72.9 L 64.6,72.9 L 64.6,73.0 L 64.6,73.0 L 64.6,73.0 L 64.7,73.0 L 64.7,73.1 L 64.7,73.1 L 64.7,73.1 L 64.7,73.2 L 64.3,73.2 Z" style="fill:#000000;fill-rule:evenodd;fill-opacity:1;stroke:#000000;stroke-width:0.0px;stroke-linecap:butt;stroke-linejoin:miter;stroke-opacity:1;"/>
<path class="atom-6" d="M 64.7,76.5 L 64.7,76.5 L 64.7,76.5 L 64.7,76.6 L 64.7,76.6 L 64.6,76.6 L 64.6,76.7 L 64.6,76.7 L 64.6,76.7 L 64.6,76.7 L 64.6,76.7 L 64.5,76.8 L 64.5,76.8 L 64.5,76.8 L 64.5,76.8 L 64.4,76.8 L 64.4,76.8 L 64.4,76.8 L 64.3,76.8 L 64.3,76.8 L 64.3,76.8 L 64.3,76.8 L 64.2,76.8 L 64.2,76.8 L 64.2,76.8 L 64.2,76.8 L 64.1,76.7 L 64.1,76.7 L 64.1,76.7 L 64.1,76.7 L 64.1,76.7 L 64.0,76.6 L 64.0,76.6 L 64.0,76.6 L 64.0,76.6 L 64.0,76.5 L 64.0,76.5 L 64.0,76.5 L 64.0,76.4 L 64.0,76.4 L 64.0,76.4 L 64.0,76.4 L 64.0,76.3 L 64.1,76.3 L 64.1,76.3 L 64.1,76.3 L 64.1,76.2 L 64.1,76.2 L 64.2,76.2 L 64.2,76.2 L 64.2,76.2 L 64.2,76.2 L 64.3,76.2 L 64.3,76.2 L 64.3,76.2 L 64.3,76.2 L 64.4,76.2 L 64.4,76.2 L 64.4,76.2 L 64.5,76.2 L 64.5,76.2 L 64.5,76.2 L 64.5,76.2 L 64.6,76.2 L 64.6,76.3 L 64.6,76.3 L 64.6,76.3 L 64.6,76.3 L 64.6,76.3 L 64.7,76.4 L 64.7,76.4 L 64.7,76.4 L 64.7,76.5 L 64.7,76.5 L 64.3,76.5 Z" style="fill:#000000;fill-rule:evenodd;fill-opacity:1;stroke:#000000;stroke-width:0.0px;stroke-linecap:butt;stroke-linejoin:miter;stroke-opacity:1;"/>
<path class="atom-6" d="M 64.7,74.8 L 64.7,74.9 L 64.7,74.9 L 64.7,74.9 L 64.7,74.9 L 64.6,75.0 L 64.6,75.0 L 64.6,75.0 L 64.6,75.0 L 64.6,75.1 L 64.6,75.1 L 64.5,75.1 L 64.5,75.1 L 64.5,75.1 L 64.5,75.1 L 64.4,75.1 L 64.4,75.1 L 64.4,75.2 L 64.3,75.2 L 64.3,75.2 L 64.3,75.2 L 64.3,75.1 L 64.2,75.1 L 64.2,75.1 L 64.2,75.1 L 64.2,75.1 L 64.1,75.1 L 64.1,75.1 L 64.1,75.0 L 64.1,75.0 L 64.1,75.0 L 64.0,75.0 L 64.0,74.9 L 64.0,74.9 L 64.0,74.9 L 64.0,74.9 L 64.0,74.8 L 64.0,74.8 L 64.0,74.8 L 64.0,74.8 L 64.0,74.7 L 64.0,74.7 L 64.0,74.7 L 64.1,74.6 L 64.1,74.6 L 64.1,74.6 L 64.1,74.6 L 64.1,74.6 L 64.2,74.5 L 64.2,74.5 L 64.2,74.5 L 64.2,74.5 L 64.3,74.5 L 64.3,74.5 L 64.3,74.5 L 64.3,74.5 L 64.4,74.5 L 64.4,74.5 L 64.4,74.5 L 64.5,74.5 L 64.5,74.5 L 64.5,74.5 L 64.5,74.6 L 64.6,74.6 L 64.6,74.6 L 64.6,74.6 L 64.6,74.6 L 64.6,74.7 L 64.6,74.7 L 64.7,74.7 L 64.7,74.7 L 64.7,74.8 L 64.7,74.8 L 64.7,74.8 L 64.3,74.8 Z" style="fill:#000000;fill-rule:evenodd;fill-opacity:1;stroke:#000000;stroke-width:0.0px;stroke-linecap:butt;stroke-linejoin:miter;stroke-opacity:1;"/>
<path class="atom-45" d="M 97.5,26.2 L 97.5,26.3 L 97.5,26.3 L 97.5,26.3 L 97.4,26.4 L 97.4,26.4 L 97.4,26.4 L 97.4,26.4 L 97.4,26.5 L 97.4,26.5 L 97.3,26.5 L 97.3,26.5 L 97.3,26.5 L 97.3,26.5 L 97.3,26.6 L 97.2,26.6 L 97.2,26.6 L 97.2,26.6 L 97.1,26.6 L 97.1,26.6 L 97.1,26.6 L 97.1,26.6 L 97.0,26.6 L 97.0,26.6 L 97.0,26.5 L 96.9,26.5 L 96.9,26.5 L 96.9,26.5 L 96.9,26.5 L 96.9,26.4 L 96.8,26.4 L 96.8,26.4 L 96.8,26.4 L 96.8,26.3 L 96.8,26.3 L 96.8,26.3 L 96.8,26.3 L 96.8,26.2 L 96.8,26.2 L 96.8,26.2 L 96.8,26.1 L 96.8,26.1 L 96.8,26.1 L 96.8,26.1 L 96.9,26.0 L 96.9,26.0 L 96.9,26.0 L 96.9,26.0 L 96.9,26.0 L 97.0,26.0 L 97.0,25.9 L 97.0,25.9 L 97.1,25.9 L 97.1,25.9 L 97.1,25.9 L 97.1,25.9 L 97.2,25.9 L 97.2,25.9 L 97.2,25.9 L 97.3,25.9 L 97.3,25.9 L 97.3,26.0 L 97.3,26.0 L 97.3,26.0 L 97.4,26.0 L 97.4,26.0 L 97.4,26.1 L 97.4,26.1 L 97.4,26.1 L 97.4,26.1 L 97.5,26.2 L 97.5,26.2 L 97.5,26.2 L 97.5,26.2 L 97.1,26.2 Z" style="fill:#000000;fill-rule:evenodd;fill-opacity:1;stroke:#000000;stroke-width:0.0px;stroke-linecap:butt;stroke-linejoin:miter;stroke-opacity:1;"/>
<path class="atom-45" d="M 97.5,24.9 L 97.5,24.9 L 97.5,25.0 L 97.5,25.0 L 97.4,25.0 L 97.4,25.1 L 97.4,25.1 L 97.4,25.1 L 97.4,25.1 L 97.4,25.1 L 97.3,25.2 L 97.3,25.2 L 97.3,25.2 L 97.3,25.2 L 97.3,25.2 L 97.2,25.2 L 97.2,25.2 L 97.2,25.2 L 97.1,25.2 L 97.1,25.2 L 97.1,25.2 L 97.1,25.2 L 97.0,25.2 L 97.0,25.2 L 97.0,25.2 L 96.9,25.2 L 96.9,25.2 L 96.9,25.2 L 96.9,25.1 L 96.9,25.1 L 96.8,25.1 L 96.8,25.1 L 96.8,25.0 L 96.8,25.0 L 96.8,25.0 L 96.8,25.0 L 96.8,24.9 L 96.8,24.9 L 96.8,24.9 L 96.8,24.8 L 96.8,24.8 L 96.8,24.8 L 96.8,24.8 L 96.8,24.7 L 96.9,24.7 L 96.9,24.7 L 96.9,24.7 L 96.9,24.7 L 96.9,24.6 L 97.0,24.6 L 97.0,24.6 L 97.0,24.6 L 97.1,24.6 L 97.1,24.6 L 97.1,24.6 L 97.1,24.6 L 97.2,24.6 L 97.2,24.6 L 97.2,24.6 L 97.3,24.6 L 97.3,24.6 L 97.3,24.6 L 97.3,24.6 L 97.3,24.7 L 97.4,24.7 L 97.4,24.7 L 97.4,24.7 L 97.4,24.8 L 97.4,24.8 L 97.4,24.8 L 97.5,24.8 L 97.5,24.9 L 97.5,24.9 L 97.5,24.9 L 97.1,24.9 Z" style="fill:#000000;fill-rule:evenodd;fill-opacity:1;stroke:#000000;stroke-width:0.0px;stroke-linecap:butt;stroke-linejoin:miter;stroke-opacity:1;"/>
<path class="bond-0 atom-0 atom-1" d="M 382.9,7.3 L 398.7,12.4" style="fill:none;fill-rule:evenodd;stroke:#000000;stroke-width:2.0px;stroke-linecap:butt;stroke-linejoin:miter;stroke-opacity:1"/>
<path class="bond-1 atom-1 atom-2" d="M 398.7,12.4 L 399.6,16.5" style="fill:none;fill-rule:evenodd;stroke:#000000;stroke-width:2.0px;stroke-linecap:butt;stroke-linejoin:miter;stroke-opacity:1"/>
<path class="bond-1 atom-1 atom-2" d="M 399.6,16.5 L 400.4,20.6" style="fill:none;fill-rule:evenodd;stroke:#A01EEF;stroke-width:2.0px;stroke-linecap:butt;stroke-linejoin:miter;stroke-opacity:1"/>
<path class="bond-2 atom-2 atom-3" d="M 402.8,31.6 L 404.2,38.3" style="fill:none;fill-rule:evenodd;stroke:#A01EEF;stroke-width:2.0px;stroke-linecap:butt;stroke-linejoin:miter;stroke-opacity:1"/>
<path class="bond-2 atom-2 atom-3" d="M 404.2,38.3 L 405.6,45.0" style="fill:none;fill-rule:evenodd;stroke:#000000;stroke-width:2.0px;stroke-linecap:butt;stroke-linejoin:miter;stroke-opacity:1"/>
<path class="bond-3 atom-3 atom-4" d="M 405.6,45.0 L 422.2,45.9" style="fill:none;fill-rule:evenodd;stroke:#000000;stroke-width:2.0px;stroke-linecap:butt;stroke-linejoin:miter;stroke-opacity:1"/>
<path class="bond-4 atom-4 atom-5" d="M 422.2,45.9 L 436.1,55.0" style="fill:none;fill-rule:evenodd;stroke:#000000;stroke-width:2.0px;stroke-linecap:butt;stroke-linejoin:miter;stroke-opacity:1"/>
<path class="bond-5 atom-5 atom-6" d="M 436.1,55.0 L 443.7,69.8" style="fill:none;fill-rule:evenodd;stroke:#000000;stroke-width:2.0px;stroke-linecap:butt;stroke-linejoin:miter;stroke-opacity:1"/>
<path class="bond-6 atom-6 atom-7" d="M 443.7,69.8 L 448.8,54.0" style="fill:none;fill-rule:evenodd;stroke:#000000;stroke-width:2.0px;stroke-linecap:butt;stroke-linejoin:miter;stroke-opacity:1"/>
<path class="bond-7 atom-6 atom-8" d="M 443.7,69.8 L 442.8,86.5" style="fill:none;fill-rule:evenodd;stroke:#000000;stroke-width:2.0px;stroke-linecap:butt;stroke-linejoin:miter;stroke-opacity:1"/>
<path class="bond-8 atom-8 atom-9" d="M 442.8,86.5 L 456.7,95.6" style="fill:none;fill-rule:evenodd;stroke:#000000;stroke-width:2.0px;stroke-linecap:butt;stroke-linejoin:miter;stroke-opacity:1"/>
<path class="bond-9 atom-9 atom-10" d="M 455.3,94.6 L 456.7,101.9" style="fill:none;fill-rule:evenodd;stroke:#000000;stroke-width:2.0px;stroke-linecap:butt;stroke-linejoin:miter;stroke-opacity:1"/>
<path class="bond-9 atom-9 atom-10" d="M 456.7,101.9 L 458.1,109.2" style="fill:none;fill-rule:evenodd;stroke:#FF0000;stroke-width:2.0px;stroke-linecap:butt;stroke-linejoin:miter;stroke-opacity:1"/>
<path class="bond-9 atom-9 atom-10" d="M 457.9,95.0 L 459.1,101.4" style="fill:none;fill-rule:evenodd;stroke:#000000;stroke-width:2.0px;stroke-linecap:butt;stroke-linejoin:miter;stroke-opacity:1"/>
<path class="bond-9 atom-9 atom-10" d="M 459.1,101.4 L 460.5,108.7" style="fill:none;fill-rule:evenodd;stroke:#FF0000;stroke-width:2.0px;stroke-linecap:butt;stroke-linejoin:miter;stroke-opacity:1"/>
<path class="bond-10 atom-9 atom-11" d="M 456.7,95.6 L 471.6,88.0" style="fill:none;fill-rule:evenodd;stroke:#000000;stroke-width:2.0px;stroke-linecap:butt;stroke-linejoin:miter;stroke-opacity:1"/>
<path class="bond-11 atom-11 atom-12" d="M 471.6,88.0 L 472.5,71.4" style="fill:none;fill-rule:evenodd;stroke:#000000;stroke-width:2.0px;stroke-linecap:butt;stroke-linejoin:miter;stroke-opacity:1"/>
<path class="bond-11 atom-11 atom-12" d="M 469.2,86.4 L 469.9,72.7" style="fill:none;fill-rule:evenodd;stroke:#000000;stroke-width:2.0px;stroke-linecap:butt;stroke-linejoin:miter;stroke-opacity:1"/>
<path class="bond-12 atom-12 atom-13" d="M 472.5,71.4 L 487.3,63.9" style="fill:none;fill-rule:evenodd;stroke:#000000;stroke-width:2.0px;stroke-linecap:butt;stroke-linejoin:miter;stroke-opacity:1"/>
<path class="bond-13 atom-13 atom-14" d="M 487.3,63.9 L 501.3,73.0" style="fill:none;fill-rule:evenodd;stroke:#000000;stroke-width:2.0px;stroke-linecap:butt;stroke-linejoin:miter;stroke-opacity:1"/>
<path class="bond-14 atom-14 atom-15" d="M 501.3,73.0 L 516.1,65.4" style="fill:none;fill-rule:evenodd;stroke:#000000;stroke-width:2.0px;stroke-linecap:butt;stroke-linejoin:miter;stroke-opacity:1"/>
<path class="bond-15 atom-15 atom-16" d="M 516.1,65.4 L 532.6,63.4" style="fill:none;fill-rule:evenodd;stroke:#000000;stroke-width:2.0px;stroke-linecap:butt;stroke-linejoin:miter;stroke-opacity:1"/>
<path class="bond-16 atom-15 atom-17" d="M 516.1,65.4 L 520.9,81.3" style="fill:none;fill-rule:evenodd;stroke:#000000;stroke-width:2.0px;stroke-linecap:butt;stroke-linejoin:miter;stroke-opacity:1"/>
<path class="bond-17 atom-17 atom-18" d="M 519.9,82.4 L 527.1,84.1" style="fill:none;fill-rule:evenodd;stroke:#000000;stroke-width:2.0px;stroke-linecap:butt;stroke-linejoin:miter;stroke-opacity:1"/>
<path class="bond-17 atom-17 atom-18" d="M 527.1,84.1 L 534.2,85.7" style="fill:none;fill-rule:evenodd;stroke:#FF0000;stroke-width:2.0px;stroke-linecap:butt;stroke-linejoin:miter;stroke-opacity:1"/>
<path class="bond-17 atom-17 atom-18" d="M 520.5,80.0 L 527.6,81.6" style="fill:none;fill-rule:evenodd;stroke:#000000;stroke-width:2.0px;stroke-linecap:butt;stroke-linejoin:miter;stroke-opacity:1"/>
<path class="bond-17 atom-17 atom-18" d="M 527.6,81.6 L 534.7,83.3" style="fill:none;fill-rule:evenodd;stroke:#FF0000;stroke-width:2.0px;stroke-linecap:butt;stroke-linejoin:miter;stroke-opacity:1"/>
<path class="bond-18 atom-17 atom-19" d="M 520.9,81.3 L 516.6,86.0" style="fill:none;fill-rule:evenodd;stroke:#000000;stroke-width:2.0px;stroke-linecap:butt;stroke-linejoin:miter;stroke-opacity:1"/>
<path class="bond-18 atom-17 atom-19" d="M 516.6,86.0 L 512.3,90.6" style="fill:none;fill-rule:evenodd;stroke:#FF0000;stroke-width:2.0px;stroke-linecap:butt;stroke-linejoin:miter;stroke-opacity:1"/>
<path class="bond-19 atom-15 atom-20" d="M 516.1,65.4 L 517.0,48.8" style="fill:none;fill-rule:evenodd;stroke:#000000;stroke-width:2.0px;stroke-linecap:butt;stroke-linejoin:miter;stroke-opacity:1"/>
<path class="bond-20 atom-20 atom-21" d="M 517.0,48.8 L 503.0,39.7" style="fill:none;fill-rule:evenodd;stroke:#000000;stroke-width:2.0px;stroke-linecap:butt;stroke-linejoin:miter;stroke-opacity:1"/>
<path class="bond-21 atom-21 atom-22" d="M 503.0,39.7 L 488.2,47.2" style="fill:none;fill-rule:evenodd;stroke:#000000;stroke-width:2.0px;stroke-linecap:butt;stroke-linejoin:miter;stroke-opacity:1"/>
<path class="bond-22 atom-22 atom-23" d="M 488.2,47.2 L 489.1,30.6" style="fill:none;fill-rule:evenodd;stroke:#000000;stroke-width:2.0px;stroke-linecap:butt;stroke-linejoin:miter;stroke-opacity:1"/>
<path class="bond-23 atom-22 atom-24" d="M 488.2,47.2 L 474.3,38.2" style="fill:none;fill-rule:evenodd;stroke:#000000;stroke-width:2.0px;stroke-linecap:butt;stroke-linejoin:miter;stroke-opacity:1"/>
<path class="bond-24 atom-24 atom-25" d="M 474.3,38.2 L 459.4,45.7" style="fill:none;fill-rule:evenodd;stroke:#000000;stroke-width:2.0px;stroke-linecap:butt;stroke-linejoin:miter;stroke-opacity:1"/>
<path class="bond-25 atom-25 atom-26" d="M 459.4,45.7 L 458.5,62.3" style="fill:none;fill-rule:evenodd;stroke:#000000;stroke-width:2.0px;stroke-linecap:butt;stroke-linejoin:miter;stroke-opacity:1"/>
<path class="bond-26 atom-26 atom-27" d="M 458.5,62.3 L 457.6,78.9" style="fill:none;fill-rule:evenodd;stroke:#000000;stroke-width:2.0px;stroke-linecap:butt;stroke-linejoin:miter;stroke-opacity:1"/>
<path class="bond-27 atom-8 atom-28" d="M 442.8,86.5 L 433.7,100.4" style="fill:none;fill-rule:evenodd;stroke:#000000;stroke-width:2.0px;stroke-linecap:butt;stroke-linejoin:miter;stroke-opacity:1"/>
<path class="bond-28 atom-28 atom-29" d="M 433.7,100.4 L 450.3,101.0" style="fill:none;fill-rule:evenodd;stroke:#000000;stroke-width:2.0px;stroke-linecap:butt;stroke-linejoin:miter;stroke-opacity:1"/>
<path class="bond-29 atom-28 atom-30" d="M 433.7,100.4 L 447.6,109.5" style="fill:none;fill-rule:evenodd;stroke:#000000;stroke-width:2.0px;stroke-linecap:butt;stroke-linejoin:miter;stroke-opacity:1"/>
<path class="bond-30 atom-30 atom-31" d="M 447.6,109.5 L 446.7,126.1" style="fill:none;fill-rule:evenodd;stroke:#000000;stroke-width:2.0px;stroke-linecap:butt;stroke-linejoin:miter;stroke-opacity:1"/>
<path class="bond-31 atom-31 atom-32" d="M 446.7,126.1 L 431.9,133.7" style="fill:none;fill-rule:evenodd;stroke:#000000;stroke-width:2.0px;stroke-linecap:butt;stroke-linejoin:miter;stroke-opacity:1"/>
<path class="bond-32 atom-32 atom-33" d="M 431.9,133.7 L 431.5,140.5" style="fill:none;fill-rule:evenodd;stroke:#000000;stroke-width:2.0px;stroke-linecap:butt;stroke-linejoin:miter;stroke-opacity:1"/>
<path class="bond-32 atom-32 atom-33" d="M 431.5,140.5 L 431.2,147.3" style="fill:none;fill-rule:evenodd;stroke:#FF0000;stroke-width:2.0px;stroke-linecap:butt;stroke-linejoin:miter;stroke-opacity:1"/>
<path class="bond-33 atom-32 atom-34" d="M 431.9,133.7 L 417.9,124.6" style="fill:none;fill-rule:evenodd;stroke:#000000;stroke-width:2.0px;stroke-linecap:butt;stroke-linejoin:miter;stroke-opacity:1"/>
<path class="bond-34 atom-34 atom-35" d="M 417.9,124.6 L 401.7,120.8" style="fill:none;fill-rule:evenodd;stroke:#000000;stroke-width:2.0px;stroke-linecap:butt;stroke-linejoin:miter;stroke-opacity:1"/>
<path class="bond-35 atom-34 atom-36" d="M 417.9,124.6 L 411.4,139.9" style="fill:none;fill-rule:evenodd;stroke:#000000;stroke-width:2.0px;stroke-linecap:butt;stroke-linejoin:miter;stroke-opacity:1"/>
<path class="bond-36 atom-34 atom-37" d="M 417.9,124.6 L 418.8,107.9" style="fill:none;fill-rule:evenodd;stroke:#000000;stroke-width:2.0px;stroke-linecap:butt;stroke-linejoin:miter;stroke-opacity:1"/>
<path class="bond-37 atom-37 atom-38" d="M 418.8,107.9 L 402.2,107.0" style="fill:none;fill-rule:evenodd;stroke:#000000;stroke-width:2.0px;stroke-linecap:butt;stroke-linejoin:miter;stroke-opacity:1"/>
<path class="bond-38 atom-38 atom-39" d="M 402.2,107.0 L 388.3,98.0" style="fill:none;fill-rule:evenodd;stroke:#000000;stroke-width:2.0px;stroke-linecap:butt;stroke-linejoin:miter;stroke-opacity:1"/>
<path class="bond-39 atom-39 atom-40" d="M 388.3,98.0 L 380.7,83.1" style="fill:none;fill-rule:evenodd;stroke:#000000;stroke-width:2.0px;stroke-linecap:butt;stroke-linejoin:miter;stroke-opacity:1"/>
<path class="bond-40 atom-40 atom-41" d="M 380.7,83.1 L 376.4,87.7" style="fill:none;fill-rule:evenodd;stroke:#000000;stroke-width:2.0px;stroke-linecap:butt;stroke-linejoin:miter;stroke-opacity:1"/>
<path class="bond-40 atom-40 atom-41" d="M 376.4,87.7 L 372.1,92.3" style="fill:none;fill-rule:evenodd;stroke:#0000FF;stroke-width:2.0px;stroke-linecap:butt;stroke-linejoin:miter;stroke-opacity:1"/>
<path class="bond-41 atom-40 atom-42" d="M 380.7,83.1 L 373.9,80.2" style="fill:none;fill-rule:evenodd;stroke:#000000;stroke-width:2.0px;stroke-linecap:butt;stroke-linejoin:miter;stroke-opacity:1"/>
<path class="bond-41 atom-40 atom-42" d="M 373.9,80.2 L 367.0,77.2" style="fill:none;fill-rule:evenodd;stroke:#7F4C19;stroke-width:2.0px;stroke-linecap:butt;stroke-linejoin:miter;stroke-opacity:1"/>
<path class="bond-42 atom-40 atom-43" d="M 380.7,83.1 L 381.6,66.5" style="fill:none;fill-rule:evenodd;stroke:#000000;stroke-width:2.0px;stroke-linecap:butt;stroke-linejoin:miter;stroke-opacity:1"/>
<path class="bond-43 atom-43 atom-44" d="M 381.6,66.5 L 375.1,64.4" style="fill:none;fill-rule:evenodd;stroke:#000000;stroke-width:2.0px;stroke-linecap:butt;stroke-linejoin:miter;stroke-opacity:1"/>
<path class="bond-43 atom-43 atom-44" d="M 375.1,64.4 L 368.5,62.2" style="fill:none;fill-rule:evenodd;stroke:#FF0000;stroke-width:2.0px;stroke-linecap:butt;stroke-linejoin:miter;stroke-opacity:1"/>
<path class="bond-44 atom-44 atom-45" d="M 365.2,58.4 L 364.1,53.2" style="fill:none;fill-rule:evenodd;stroke:#FF0000;stroke-width:2.0px;stroke-linecap:butt;stroke-linejoin:miter;stroke-opacity:1"/>
<path class="bond-44 atom-44 atom-45" d="M 364.1,53.2 L 363.0,47.9" style="fill:none;fill-rule:evenodd;stroke:#7F4C19;stroke-width:2.0px;stroke-linecap:butt;stroke-linejoin:miter;stroke-opacity:1"/>
<path class="bond-45 atom-43 atom-46" d="M 381.6,66.5 L 390.7,52.5" style="fill:none;fill-rule:evenodd;stroke:#000000;stroke-width:2.0px;stroke-linecap:butt;stroke-linejoin:miter;stroke-opacity:1"/>
<path class="bond-46 atom-46 atom-47" d="M 390.7,52.5 L 384.0,51.0" style="fill:none;fill-rule:evenodd;stroke:#000000;stroke-width:2.0px;stroke-linecap:butt;stroke-linejoin:miter;stroke-opacity:1"/>
<path class="bond-46 atom-46 atom-47" d="M 384.0,51.0 L 377.2,49.4" style="fill:none;fill-rule:evenodd;stroke:#FF0000;stroke-width:2.0px;stroke-linecap:butt;stroke-linejoin:miter;stroke-opacity:1"/>
<path class="bond-47 atom-46 atom-48" d="M 390.7,52.5 L 389.9,45.7" style="fill:none;fill-rule:evenodd;stroke:#000000;stroke-width:2.0px;stroke-linecap:butt;stroke-linejoin:miter;stroke-opacity:1"/>
<path class="bond-47 atom-46 atom-48" d="M 389.9,45.7 L 389.1,38.9" style="fill:none;fill-rule:evenodd;stroke:#7F4C19;stroke-width:2.0px;stroke-linecap:butt;stroke-linejoin:miter;stroke-opacity:1"/>
<path class="bond-48 atom-46 atom-3" d="M 390.7,52.5 L 405.6,45.0" style="fill:none;fill-rule:evenodd;stroke:#000000;stroke-width:2.0px;stroke-linecap:butt;stroke-linejoin:miter;stroke-opacity:1"/>
<path class="bond-49 atom-26 atom-6" d="M 458.5,62.3 L 443.7,69.8" style="fill:none;fill-rule:evenodd;stroke:#000000;stroke-width:2.0px;stroke-linecap:butt;stroke-linejoin:miter;stroke-opacity:1"/>
<path class="bond-50 atom-37 atom-28" d="M 418.8,107.9 L 433.7,100.4" style="fill:none;fill-rule:evenodd;stroke:#000000;stroke-width:2.0px;stroke-linecap:butt;stroke-linejoin:miter;stroke-opacity:1"/>
<path class="bond-51 atom-26 atom-12" d="M 458.5,62.3 L 472.5,71.4" style="fill:none;fill-rule:evenodd;stroke:#000000;stroke-width:2.0px;stroke-linecap:butt;stroke-linejoin:miter;stroke-opacity:1"/>
<path class="bond-52 atom-22 atom-13" d="M 488.2,47.2 L 487.3,63.9" style="fill:none;fill-rule:evenodd;stroke:#000000;stroke-width:2.0px;stroke-linecap:butt;stroke-linejoin:miter;stroke-opacity:1"/>
<path d="M 397.9,12.2 L 398.7,12.4 L 398.8,12.6" style="fill:none;stroke:#000000;stroke-width:2.0px;stroke-linecap:butt;stroke-linejoin:miter;stroke-opacity:1;"/>
<path d="M 421.4,45.9 L 422.2,45.9 L 422.9,46.4" style="fill:none;stroke:#000000;stroke-width:2.0px;stroke-linecap:butt;stroke-linejoin:miter;stroke-opacity:1;"/>
<path d="M 435.4,54.5 L 436.1,55.0 L 436.5,55.7" style="fill:none;stroke:#000000;stroke-width:2.0px;stroke-linecap:butt;stroke-linejoin:miter;stroke-opacity:1;"/>
<path d="M 456.0,95.1 L 456.7,95.6 L 457.5,95.2" style="fill:none;stroke:#000000;stroke-width:2.0px;stroke-linecap:butt;stroke-linejoin:miter;stroke-opacity:1;"/>
<path d="M 470.8,88.4 L 471.6,88.0 L 471.6,87.2" style="fill:none;stroke:#000000;stroke-width:2.0px;stroke-linecap:butt;stroke-linejoin:miter;stroke-opacity:1;"/>
<path d="M 500.6,72.5 L 501.3,73.0 L 502.0,72.6" style="fill:none;stroke:#000000;stroke-width:2.0px;stroke-linecap:butt;stroke-linejoin:miter;stroke-opacity:1;"/>
<path d="M 520.7,80.6 L 520.9,81.3 L 520.7,81.6" style="fill:none;stroke:#000000;stroke-width:2.0px;stroke-linecap:butt;stroke-linejoin:miter;stroke-opacity:1;"/>
<path d="M 516.9,49.6 L 517.0,48.8 L 516.3,48.3" style="fill:none;stroke:#000000;stroke-width:2.0px;stroke-linecap:butt;stroke-linejoin:miter;stroke-opacity:1;"/>
<path d="M 503.7,40.2 L 503.0,39.7 L 502.3,40.1" style="fill:none;stroke:#000000;stroke-width:2.0px;stroke-linecap:butt;stroke-linejoin:miter;stroke-opacity:1;"/>
<path d="M 475.0,38.6 L 474.3,38.2 L 473.5,38.5" style="fill:none;stroke:#000000;stroke-width:2.0px;stroke-linecap:butt;stroke-linejoin:miter;stroke-opacity:1;"/>
<path d="M 460.2,45.3 L 459.4,45.7 L 459.4,46.5" style="fill:none;stroke:#000000;stroke-width:2.0px;stroke-linecap:butt;stroke-linejoin:miter;stroke-opacity:1;"/>
<path d="M 446.9,109.0 L 447.6,109.5 L 447.6,110.3" style="fill:none;stroke:#000000;stroke-width:2.0px;stroke-linecap:butt;stroke-linejoin:miter;stroke-opacity:1;"/>
<path d="M 446.8,125.3 L 446.7,126.1 L 446.0,126.5" style="fill:none;stroke:#000000;stroke-width:2.0px;stroke-linecap:butt;stroke-linejoin:miter;stroke-opacity:1;"/>
<path d="M 403.1,107.1 L 402.2,107.0 L 401.5,106.6" style="fill:none;stroke:#000000;stroke-width:2.0px;stroke-linecap:butt;stroke-linejoin:miter;stroke-opacity:1;"/>
<path d="M 389.0,98.4 L 388.3,98.0 L 387.9,97.2" style="fill:none;stroke:#000000;stroke-width:2.0px;stroke-linecap:butt;stroke-linejoin:miter;stroke-opacity:1;"/>
<path class="atom-2" d="M 401.8 26.4 L 402.5 26.4 L 402.5 31.1 L 401.8 31.1 L 401.8 26.4 " fill="#A01EEF"/>
<path class="atom-2" d="M 400.3 21.2 L 400.9 21.2 L 400.9 23.2 L 403.3 23.2 L 403.3 21.2 L 404.0 21.2 L 404.0 25.9 L 403.3 25.9 L 403.3 23.7 L 400.9 23.7 L 400.9 25.9 L 400.3 25.9 L 400.3 21.2 " fill="#A01EEF"/>
<path class="atom-10" d="M 457.7 111.9 Q 457.7 110.8, 458.3 110.1 Q 458.8 109.5, 459.9 109.5 Q 460.9 109.5, 461.5 110.1 Q 462.0 110.8, 462.0 111.9 Q 462.0 113.1, 461.5 113.7 Q 460.9 114.4, 459.9 114.4 Q 458.8 114.4, 458.3 113.7 Q 457.7 113.1, 457.7 111.9 M 459.9 113.8 Q 460.6 113.8, 461.0 113.3 Q 461.4 112.9, 461.4 111.9 Q 461.4 111.0, 461.0 110.5 Q 460.6 110.0, 459.9 110.0 Q 459.2 110.0, 458.8 110.5 Q 458.4 111.0, 458.4 111.9 Q 458.4 112.9, 458.8 113.3 Q 459.2 113.8, 459.9 113.8 " fill="#FF0000"/>
<path class="atom-18" d="M 535.0 85.1 Q 535.0 84.0, 535.5 83.4 Q 536.1 82.7, 537.1 82.7 Q 538.2 82.7, 538.8 83.4 Q 539.3 84.0, 539.3 85.1 Q 539.3 86.3, 538.7 86.9 Q 538.2 87.6, 537.1 87.6 Q 536.1 87.6, 535.5 86.9 Q 535.0 86.3, 535.0 85.1 M 537.1 87.0 Q 537.9 87.0, 538.3 86.6 Q 538.6 86.1, 538.6 85.1 Q 538.6 84.2, 538.3 83.7 Q 537.9 83.3, 537.1 83.3 Q 536.4 83.3, 536.0 83.7 Q 535.6 84.2, 535.6 85.1 Q 535.6 86.1, 536.0 86.6 Q 536.4 87.0, 537.1 87.0 " fill="#FF0000"/>
<path class="atom-19" d="M 502.7 91.2 L 503.4 91.2 L 503.4 93.2 L 505.8 93.2 L 505.8 91.2 L 506.4 91.2 L 506.4 95.9 L 505.8 95.9 L 505.8 93.7 L 503.4 93.7 L 503.4 95.9 L 502.7 95.9 L 502.7 91.2 " fill="#FF0000"/>
<path class="atom-19" d="M 507.4 93.5 Q 507.4 92.4, 508.0 91.8 Q 508.5 91.1, 509.6 91.1 Q 510.6 91.1, 511.2 91.8 Q 511.7 92.4, 511.7 93.5 Q 511.7 94.7, 511.2 95.3 Q 510.6 96.0, 509.6 96.0 Q 508.5 96.0, 508.0 95.3 Q 507.4 94.7, 507.4 93.5 M 509.6 95.4 Q 510.3 95.4, 510.7 94.9 Q 511.1 94.5, 511.1 93.5 Q 511.1 92.6, 510.7 92.1 Q 510.3 91.7, 509.6 91.7 Q 508.8 91.7, 508.5 92.1 Q 508.1 92.6, 508.1 93.5 Q 508.1 94.5, 508.5 94.9 Q 508.8 95.4, 509.6 95.4 " fill="#FF0000"/>
<path class="atom-33" d="M 428.8 150.3 Q 428.8 149.2, 429.4 148.5 Q 430.0 147.9, 431.0 147.9 Q 432.0 147.9, 432.6 148.5 Q 433.2 149.2, 433.2 150.3 Q 433.2 151.4, 432.6 152.1 Q 432.0 152.7, 431.0 152.7 Q 430.0 152.7, 429.4 152.1 Q 428.8 151.4, 428.8 150.3 M 431.0 152.2 Q 431.7 152.2, 432.1 151.7 Q 432.5 151.2, 432.5 150.3 Q 432.5 149.4, 432.1 148.9 Q 431.7 148.4, 431.0 148.4 Q 430.3 148.4, 429.9 148.9 Q 429.5 149.4, 429.5 150.3 Q 429.5 151.2, 429.9 151.7 Q 430.3 152.2, 431.0 152.2 " fill="#FF0000"/>
<path class="atom-33" d="M 433.9 147.9 L 434.5 147.9 L 434.5 149.9 L 436.9 149.9 L 436.9 147.9 L 437.6 147.9 L 437.6 152.7 L 436.9 152.7 L 436.9 150.5 L 434.5 150.5 L 434.5 152.7 L 433.9 152.7 L 433.9 147.9 " fill="#FF0000"/>
<path class="atom-41" d="M 368.3 92.9 L 369.9 95.4 Q 370.0 95.7, 370.3 96.1 Q 370.5 96.5, 370.5 96.6 L 370.5 92.9 L 371.2 92.9 L 371.2 97.6 L 370.5 97.6 L 368.9 94.9 Q 368.7 94.6, 368.5 94.2 Q 368.3 93.8, 368.2 93.7 L 368.2 97.6 L 367.6 97.6 L 367.6 92.9 L 368.3 92.9 " fill="#0000FF"/>
<path class="atom-41" d="M 372.1 93.8 L 372.9 93.8 L 372.9 92.9 L 373.3 92.9 L 373.3 93.8 L 374.1 93.8 L 374.1 94.1 L 373.3 94.1 L 373.3 95.0 L 372.9 95.0 L 372.9 94.1 L 372.1 94.1 L 372.1 93.8 " fill="#0000FF"/>
<path class="atom-42" d="M 363.0 76.5 Q 363.4 76.6, 363.7 76.9 Q 363.9 77.1, 363.9 77.5 Q 363.9 78.2, 363.5 78.6 Q 363.1 78.9, 362.3 78.9 L 360.7 78.9 L 360.7 74.2 L 362.1 74.2 Q 362.9 74.2, 363.3 74.6 Q 363.7 74.9, 363.7 75.5 Q 363.7 76.2, 363.0 76.5 M 361.3 74.8 L 361.3 76.2 L 362.1 76.2 Q 362.5 76.2, 362.8 76.1 Q 363.0 75.9, 363.0 75.5 Q 363.0 74.8, 362.1 74.8 L 361.3 74.8 M 362.3 78.4 Q 362.7 78.4, 363.0 78.2 Q 363.2 78.0, 363.2 77.5 Q 363.2 77.2, 363.0 77.0 Q 362.7 76.8, 362.2 76.8 L 361.3 76.8 L 361.3 78.4 L 362.3 78.4 " fill="#7F4C19"/>
<path class="atom-42" d="M 365.0 75.5 L 365.0 76.0 Q 365.4 75.5, 366.0 75.5 Q 366.2 75.5, 366.4 75.5 L 366.3 76.1 Q 366.0 76.0, 365.9 76.0 Q 365.6 76.0, 365.4 76.1 Q 365.2 76.2, 365.1 76.5 L 365.1 78.9 L 364.5 78.9 L 364.5 75.5 L 365.0 75.5 " fill="#7F4C19"/>
<path class="atom-44" d="M 363.7 61.3 Q 363.7 60.2, 364.2 59.6 Q 364.8 58.9, 365.8 58.9 Q 366.9 58.9, 367.4 59.6 Q 368.0 60.2, 368.0 61.3 Q 368.0 62.5, 367.4 63.1 Q 366.9 63.8, 365.8 63.8 Q 364.8 63.8, 364.2 63.1 Q 363.7 62.5, 363.7 61.3 M 365.8 63.2 Q 366.5 63.2, 366.9 62.8 Q 367.3 62.3, 367.3 61.3 Q 367.3 60.4, 366.9 59.9 Q 366.5 59.5, 365.8 59.5 Q 365.1 59.5, 364.7 59.9 Q 364.3 60.4, 364.3 61.3 Q 364.3 62.3, 364.7 62.8 Q 365.1 63.2, 365.8 63.2 " fill="#FF0000"/>
<path class="atom-44" d="M 368.7 59.8 L 369.5 59.8 L 369.5 58.9 L 369.9 58.9 L 369.9 59.8 L 370.7 59.8 L 370.7 60.1 L 369.9 60.1 L 369.9 61.0 L 369.5 61.0 L 369.5 60.1 L 368.7 60.1 L 368.7 59.8 " fill="#FF0000"/>
<path class="atom-45" d="M 363.1 44.9 Q 363.5 45.0, 363.8 45.3 Q 364.0 45.6, 364.0 46.0 Q 364.0 46.7, 363.6 47.0 Q 363.2 47.4, 362.4 47.4 L 360.8 47.4 L 360.8 42.7 L 362.2 42.7 Q 363.0 42.7, 363.4 43.0 Q 363.8 43.3, 363.8 43.9 Q 363.8 44.6, 363.1 44.9 M 361.4 43.2 L 361.4 44.7 L 362.2 44.7 Q 362.6 44.7, 362.9 44.5 Q 363.1 44.3, 363.1 43.9 Q 363.1 43.2, 362.2 43.2 L 361.4 43.2 M 362.4 46.9 Q 362.8 46.9, 363.1 46.6 Q 363.3 46.4, 363.3 46.0 Q 363.3 45.6, 363.1 45.4 Q 362.8 45.2, 362.3 45.2 L 361.4 45.2 L 361.4 46.9 L 362.4 46.9 " fill="#7F4C19"/>
<path class="atom-45" d="M 365.1 44.0 L 365.1 44.4 Q 365.5 43.9, 366.1 43.9 Q 366.3 43.9, 366.5 44.0 L 366.4 44.5 Q 366.1 44.5, 366.0 44.5 Q 365.7 44.5, 365.5 44.6 Q 365.3 44.7, 365.2 44.9 L 365.2 47.4 L 364.6 47.4 L 364.6 44.0 L 365.1 44.0 " fill="#7F4C19"/>
<path class="atom-47" d="M 367.7 46.4 L 368.3 46.4 L 368.3 48.5 L 370.8 48.5 L 370.8 46.4 L 371.4 46.4 L 371.4 51.2 L 370.8 51.2 L 370.8 49.0 L 368.3 49.0 L 368.3 51.2 L 367.7 51.2 L 367.7 46.4 " fill="#FF0000"/>
<path class="atom-47" d="M 372.4 48.8 Q 372.4 47.7, 372.9 47.0 Q 373.5 46.4, 374.5 46.4 Q 375.6 46.4, 376.1 47.0 Q 376.7 47.7, 376.7 48.8 Q 376.7 49.9, 376.1 50.6 Q 375.6 51.2, 374.5 51.2 Q 373.5 51.2, 372.9 50.6 Q 372.4 49.9, 372.4 48.8 M 374.5 50.7 Q 375.2 50.7, 375.6 50.2 Q 376.0 49.7, 376.0 48.8 Q 376.0 47.9, 375.6 47.4 Q 375.2 46.9, 374.5 46.9 Q 373.8 46.9, 373.4 47.4 Q 373.0 47.9, 373.0 48.8 Q 373.0 49.7, 373.4 50.2 Q 373.8 50.7, 374.5 50.7 " fill="#FF0000"/>
<path class="atom-48" d="M 389.4 35.9 Q 389.9 36.0, 390.1 36.3 Q 390.3 36.6, 390.3 37.0 Q 390.3 37.6, 389.9 38.0 Q 389.5 38.4, 388.7 38.4 L 387.1 38.4 L 387.1 33.7 L 388.5 33.7 Q 389.3 33.7, 389.7 34.0 Q 390.1 34.3, 390.1 34.9 Q 390.1 35.6, 389.4 35.9 M 387.8 34.2 L 387.8 35.7 L 388.5 35.7 Q 389.0 35.7, 389.2 35.5 Q 389.5 35.3, 389.5 34.9 Q 389.5 34.2, 388.5 34.2 L 387.8 34.2 M 388.7 37.8 Q 389.2 37.8, 389.4 37.6 Q 389.7 37.4, 389.7 37.0 Q 389.7 36.6, 389.4 36.4 Q 389.1 36.2, 388.6 36.2 L 387.8 36.2 L 387.8 37.8 L 388.7 37.8 " fill="#7F4C19"/>
<path class="atom-48" d="M 391.4 35.0 L 391.5 35.4 Q 391.8 34.9, 392.4 34.9 Q 392.6 34.9, 392.9 35.0 L 392.8 35.5 Q 392.5 35.5, 392.3 35.5 Q 392.0 35.5, 391.9 35.6 Q 391.7 35.7, 391.5 35.9 L 391.5 38.4 L 390.9 38.4 L 390.9 35.0 L 391.4 35.0 " fill="#7F4C19"/>
<path class="atom-41" d="M 366.9,93.6 L 366.9,93.6 L 366.9,93.7 L 366.9,93.7 L 366.9,93.7 L 366.9,93.7 L 366.9,93.8 L 366.9,93.8 L 366.8,93.8 L 366.8,93.8 L 366.8,93.9 L 366.8,93.9 L 366.8,93.9 L 366.7,93.9 L 366.7,93.9 L 366.7,93.9 L 366.7,93.9 L 366.6,93.9 L 366.6,93.9 L 366.6,93.9 L 366.5,93.9 L 366.5,93.9 L 366.5,93.9 L 366.5,93.9 L 366.4,93.9 L 366.4,93.9 L 366.4,93.9 L 366.4,93.8 L 366.3,93.8 L 366.3,93.8 L 366.3,93.8 L 366.3,93.8 L 366.3,93.7 L 366.3,93.7 L 366.3,93.7 L 366.3,93.6 L 366.3,93.6 L 366.3,93.6 L 366.3,93.6 L 366.3,93.5 L 366.3,93.5 L 366.3,93.5 L 366.3,93.5 L 366.3,93.4 L 366.3,93.4 L 366.3,93.4 L 366.4,93.4 L 366.4,93.3 L 366.4,93.3 L 366.4,93.3 L 366.5,93.3 L 366.5,93.3 L 366.5,93.3 L 366.5,93.3 L 366.6,93.3 L 366.6,93.3 L 366.6,93.3 L 366.7,93.3 L 366.7,93.3 L 366.7,93.3 L 366.7,93.3 L 366.8,93.3 L 366.8,93.3 L 366.8,93.4 L 366.8,93.4 L 366.8,93.4 L 366.9,93.4 L 366.9,93.4 L 366.9,93.5 L 366.9,93.5 L 366.9,93.5 L 366.9,93.5 L 366.9,93.6 L 366.9,93.6 L 366.6,93.6 Z" style="fill:#000000;fill-rule:evenodd;fill-opacity:1;stroke:#000000;stroke-width:0.0px;stroke-linecap:butt;stroke-linejoin:miter;stroke-opacity:1;"/>
<path class="atom-41" d="M 366.9,96.9 L 366.9,97.0 L 366.9,97.0 L 366.9,97.0 L 366.9,97.0 L 366.9,97.1 L 366.9,97.1 L 366.9,97.1 L 366.8,97.1 L 366.8,97.2 L 366.8,97.2 L 366.8,97.2 L 366.8,97.2 L 366.7,97.2 L 366.7,97.2 L 366.7,97.3 L 366.7,97.3 L 366.6,97.3 L 366.6,97.3 L 366.6,97.3 L 366.5,97.3 L 366.5,97.3 L 366.5,97.2 L 366.5,97.2 L 366.4,97.2 L 366.4,97.2 L 366.4,97.2 L 366.4,97.2 L 366.3,97.2 L 366.3,97.1 L 366.3,97.1 L 366.3,97.1 L 366.3,97.1 L 366.3,97.0 L 366.3,97.0 L 366.3,97.0 L 366.3,96.9 L 366.3,96.9 L 366.3,96.9 L 366.3,96.9 L 366.3,96.8 L 366.3,96.8 L 366.3,96.8 L 366.3,96.8 L 366.3,96.7 L 366.3,96.7 L 366.4,96.7 L 366.4,96.7 L 366.4,96.7 L 366.4,96.6 L 366.5,96.6 L 366.5,96.6 L 366.5,96.6 L 366.5,96.6 L 366.6,96.6 L 366.6,96.6 L 366.6,96.6 L 366.7,96.6 L 366.7,96.6 L 366.7,96.6 L 366.7,96.6 L 366.8,96.6 L 366.8,96.7 L 366.8,96.7 L 366.8,96.7 L 366.8,96.7 L 366.9,96.7 L 366.9,96.8 L 366.9,96.8 L 366.9,96.8 L 366.9,96.8 L 366.9,96.9 L 366.9,96.9 L 366.9,96.9 L 366.6,96.9 Z" style="fill:#000000;fill-rule:evenodd;fill-opacity:1;stroke:#000000;stroke-width:0.0px;stroke-linecap:butt;stroke-linejoin:miter;stroke-opacity:1;"/>
<path class="atom-41" d="M 366.9,95.3 L 366.9,95.3 L 366.9,95.3 L 366.9,95.4 L 366.9,95.4 L 366.9,95.4 L 366.9,95.4 L 366.9,95.5 L 366.8,95.5 L 366.8,95.5 L 366.8,95.5 L 366.8,95.5 L 366.8,95.6 L 366.7,95.6 L 366.7,95.6 L 366.7,95.6 L 366.7,95.6 L 366.6,95.6 L 366.6,95.6 L 366.6,95.6 L 366.5,95.6 L 366.5,95.6 L 366.5,95.6 L 366.5,95.6 L 366.4,95.6 L 366.4,95.5 L 366.4,95.5 L 366.4,95.5 L 366.3,95.5 L 366.3,95.5 L 366.3,95.4 L 366.3,95.4 L 366.3,95.4 L 366.3,95.4 L 366.3,95.3 L 366.3,95.3 L 366.3,95.3 L 366.3,95.3 L 366.3,95.2 L 366.3,95.2 L 366.3,95.2 L 366.3,95.1 L 366.3,95.1 L 366.3,95.1 L 366.3,95.1 L 366.3,95.0 L 366.4,95.0 L 366.4,95.0 L 366.4,95.0 L 366.4,95.0 L 366.5,95.0 L 366.5,95.0 L 366.5,94.9 L 366.5,94.9 L 366.6,94.9 L 366.6,94.9 L 366.6,94.9 L 366.7,94.9 L 366.7,94.9 L 366.7,95.0 L 366.7,95.0 L 366.8,95.0 L 366.8,95.0 L 366.8,95.0 L 366.8,95.0 L 366.8,95.1 L 366.9,95.1 L 366.9,95.1 L 366.9,95.1 L 366.9,95.2 L 366.9,95.2 L 366.9,95.2 L 366.9,95.2 L 366.9,95.3 L 366.6,95.3 Z" style="fill:#000000;fill-rule:evenodd;fill-opacity:1;stroke:#000000;stroke-width:0.0px;stroke-linecap:butt;stroke-linejoin:miter;stroke-opacity:1;"/>
<path class="atom-44" d="M 363.0,61.3 L 363.0,61.4 L 363.0,61.4 L 363.0,61.4 L 363.0,61.4 L 363.0,61.5 L 363.0,61.5 L 362.9,61.5 L 362.9,61.5 L 362.9,61.6 L 362.9,61.6 L 362.9,61.6 L 362.8,61.6 L 362.8,61.6 L 362.8,61.6 L 362.8,61.6 L 362.7,61.6 L 362.7,61.7 L 362.7,61.7 L 362.6,61.7 L 362.6,61.7 L 362.6,61.6 L 362.6,61.6 L 362.5,61.6 L 362.5,61.6 L 362.5,61.6 L 362.5,61.6 L 362.4,61.6 L 362.4,61.5 L 362.4,61.5 L 362.4,61.5 L 362.4,61.5 L 362.4,61.4 L 362.3,61.4 L 362.3,61.4 L 362.3,61.4 L 362.3,61.3 L 362.3,61.3 L 362.3,61.3 L 362.3,61.3 L 362.3,61.2 L 362.4,61.2 L 362.4,61.2 L 362.4,61.1 L 362.4,61.1 L 362.4,61.1 L 362.4,61.1 L 362.5,61.1 L 362.5,61.0 L 362.5,61.0 L 362.5,61.0 L 362.6,61.0 L 362.6,61.0 L 362.6,61.0 L 362.6,61.0 L 362.7,61.0 L 362.7,61.0 L 362.7,61.0 L 362.8,61.0 L 362.8,61.0 L 362.8,61.0 L 362.8,61.0 L 362.9,61.1 L 362.9,61.1 L 362.9,61.1 L 362.9,61.1 L 362.9,61.1 L 363.0,61.2 L 363.0,61.2 L 363.0,61.2 L 363.0,61.2 L 363.0,61.3 L 363.0,61.3 L 363.0,61.3 L 362.7,61.3 Z" style="fill:#000000;fill-rule:evenodd;fill-opacity:1;stroke:#000000;stroke-width:0.0px;stroke-linecap:butt;stroke-linejoin:miter;stroke-opacity:1;"/>
<path class="bond-0 atom-0 atom-1" d="M 654.1,34.5 L 669.8,40.0" style="fill:none;fill-rule:evenodd;stroke:#000000;stroke-width:2.0px;stroke-linecap:butt;stroke-linejoin:miter;stroke-opacity:1"/>
<path class="bond-1 atom-1 atom-2" d="M 669.8,40.0 L 672.9,56.3" style="fill:none;fill-rule:evenodd;stroke:#000000;stroke-width:2.0px;stroke-linecap:butt;stroke-linejoin:miter;stroke-opacity:1"/>
<path class="bond-2 atom-2 atom-3" d="M 672.9,56.3 L 667.1,61.4" style="fill:none;fill-rule:evenodd;stroke:#000000;stroke-width:2.0px;stroke-linecap:butt;stroke-linejoin:miter;stroke-opacity:1"/>
<path class="bond-2 atom-2 atom-3" d="M 667.1,61.4 L 661.2,66.4" style="fill:none;fill-rule:evenodd;stroke:#A01EEF;stroke-width:2.0px;stroke-linecap:butt;stroke-linejoin:miter;stroke-opacity:1"/>
<path class="bond-3 atom-2 atom-4" d="M 672.9,56.3 L 688.6,61.8" style="fill:none;fill-rule:evenodd;stroke:#000000;stroke-width:2.0px;stroke-linecap:butt;stroke-linejoin:miter;stroke-opacity:1"/>
<path class="bond-4 atom-4 atom-5" d="M 688.6,61.8 L 687.4,78.4" style="fill:none;fill-rule:evenodd;stroke:#000000;stroke-width:2.0px;stroke-linecap:butt;stroke-linejoin:miter;stroke-opacity:1"/>
<path class="bond-5 atom-5 atom-6" d="M 687.4,78.4 L 681.0,75.5" style="fill:none;fill-rule:evenodd;stroke:#000000;stroke-width:2.0px;stroke-linecap:butt;stroke-linejoin:miter;stroke-opacity:1"/>
<path class="bond-5 atom-5 atom-6" d="M 681.0,75.5 L 674.6,72.6" style="fill:none;fill-rule:evenodd;stroke:#0000FF;stroke-width:2.0px;stroke-linecap:butt;stroke-linejoin:miter;stroke-opacity:1"/>
<path class="bond-6 atom-5 atom-7" d="M 687.4,78.4 L 682.4,83.5" style="fill:none;fill-rule:evenodd;stroke:#000000;stroke-width:2.0px;stroke-linecap:butt;stroke-linejoin:miter;stroke-opacity:1"/>
<path class="bond-6 atom-5 atom-7" d="M 682.4,83.5 L 677.4,88.7" style="fill:none;fill-rule:evenodd;stroke:#7F4C19;stroke-width:2.0px;stroke-linecap:butt;stroke-linejoin:miter;stroke-opacity:1"/>
<path class="bond-7 atom-5 atom-8" d="M 687.4,78.4 L 694.7,93.3" style="fill:none;fill-rule:evenodd;stroke:#000000;stroke-width:2.0px;stroke-linecap:butt;stroke-linejoin:miter;stroke-opacity:1"/>
<path class="bond-8 atom-8 atom-9" d="M 694.7,93.3 L 708.5,102.7" style="fill:none;fill-rule:evenodd;stroke:#000000;stroke-width:2.0px;stroke-linecap:butt;stroke-linejoin:miter;stroke-opacity:1"/>
<path class="bond-9 atom-9 atom-10" d="M 708.5,102.7 L 725.1,103.9" style="fill:none;fill-rule:evenodd;stroke:#000000;stroke-width:2.0px;stroke-linecap:butt;stroke-linejoin:miter;stroke-opacity:1"/>
<path class="bond-10 atom-10 atom-11" d="M 725.1,103.9 L 723.9,120.5" style="fill:none;fill-rule:evenodd;stroke:#000000;stroke-width:2.0px;stroke-linecap:butt;stroke-linejoin:miter;stroke-opacity:1"/>
<path class="bond-11 atom-11 atom-12" d="M 723.9,120.5 L 717.1,135.7" style="fill:none;fill-rule:evenodd;stroke:#000000;stroke-width:2.0px;stroke-linecap:butt;stroke-linejoin:miter;stroke-opacity:1"/>
<path class="bond-12 atom-11 atom-13" d="M 723.9,120.5 L 707.7,116.4" style="fill:none;fill-rule:evenodd;stroke:#000000;stroke-width:2.0px;stroke-linecap:butt;stroke-linejoin:miter;stroke-opacity:1"/>
<path class="bond-13 atom-11 atom-14" d="M 723.9,120.5 L 737.7,129.8" style="fill:none;fill-rule:evenodd;stroke:#000000;stroke-width:2.0px;stroke-linecap:butt;stroke-linejoin:miter;stroke-opacity:1"/>
<path class="bond-14 atom-14 atom-15" d="M 737.7,129.8 L 737.2,136.7" style="fill:none;fill-rule:evenodd;stroke:#000000;stroke-width:2.0px;stroke-linecap:butt;stroke-linejoin:miter;stroke-opacity:1"/>
<path class="bond-14 atom-14 atom-15" d="M 737.2,136.7 L 736.7,143.5" style="fill:none;fill-rule:evenodd;stroke:#FF0000;stroke-width:2.0px;stroke-linecap:butt;stroke-linejoin:miter;stroke-opacity:1"/>
<path class="bond-15 atom-14 atom-16" d="M 737.7,129.8 L 752.6,122.6" style="fill:none;fill-rule:evenodd;stroke:#000000;stroke-width:2.0px;stroke-linecap:butt;stroke-linejoin:miter;stroke-opacity:1"/>
<path class="bond-16 atom-16 atom-17" d="M 752.6,122.6 L 753.8,106.0" style="fill:none;fill-rule:evenodd;stroke:#000000;stroke-width:2.0px;stroke-linecap:butt;stroke-linejoin:miter;stroke-opacity:1"/>
<path class="bond-17 atom-17 atom-18" d="M 753.8,106.0 L 740.1,96.6" style="fill:none;fill-rule:evenodd;stroke:#000000;stroke-width:2.0px;stroke-linecap:butt;stroke-linejoin:miter;stroke-opacity:1"/>
<path class="bond-18 atom-18 atom-19" d="M 740.1,96.6 L 756.7,97.5" style="fill:none;fill-rule:evenodd;stroke:#000000;stroke-width:2.0px;stroke-linecap:butt;stroke-linejoin:miter;stroke-opacity:1"/>
<path class="bond-19 atom-18 atom-20" d="M 740.1,96.6 L 749.4,82.8" style="fill:none;fill-rule:evenodd;stroke:#000000;stroke-width:2.0px;stroke-linecap:butt;stroke-linejoin:miter;stroke-opacity:1"/>
<path class="bond-20 atom-20 atom-21" d="M 749.4,82.8 L 763.2,92.2" style="fill:none;fill-rule:evenodd;stroke:#000000;stroke-width:2.0px;stroke-linecap:butt;stroke-linejoin:miter;stroke-opacity:1"/>
<path class="bond-21 atom-21 atom-22" d="M 761.7,91.2 L 763.0,98.5" style="fill:none;fill-rule:evenodd;stroke:#000000;stroke-width:2.0px;stroke-linecap:butt;stroke-linejoin:miter;stroke-opacity:1"/>
<path class="bond-21 atom-21 atom-22" d="M 763.0,98.5 L 764.3,105.9" style="fill:none;fill-rule:evenodd;stroke:#FF0000;stroke-width:2.0px;stroke-linecap:butt;stroke-linejoin:miter;stroke-opacity:1"/>
<path class="bond-21 atom-21 atom-22" d="M 764.3,91.6 L 765.5,98.1" style="fill:none;fill-rule:evenodd;stroke:#000000;stroke-width:2.0px;stroke-linecap:butt;stroke-linejoin:miter;stroke-opacity:1"/>
<path class="bond-21 atom-21 atom-22" d="M 765.5,98.1 L 766.7,105.4" style="fill:none;fill-rule:evenodd;stroke:#FF0000;stroke-width:2.0px;stroke-linecap:butt;stroke-linejoin:miter;stroke-opacity:1"/>
<path class="bond-22 atom-21 atom-23" d="M 763.2,92.2 L 778.2,84.9" style="fill:none;fill-rule:evenodd;stroke:#000000;stroke-width:2.0px;stroke-linecap:butt;stroke-linejoin:miter;stroke-opacity:1"/>
<path class="bond-23 atom-23 atom-24" d="M 778.2,84.9 L 779.4,68.3" style="fill:none;fill-rule:evenodd;stroke:#000000;stroke-width:2.0px;stroke-linecap:butt;stroke-linejoin:miter;stroke-opacity:1"/>
<path class="bond-23 atom-23 atom-24" d="M 775.8,83.3 L 776.8,69.6" style="fill:none;fill-rule:evenodd;stroke:#000000;stroke-width:2.0px;stroke-linecap:butt;stroke-linejoin:miter;stroke-opacity:1"/>
<path class="bond-24 atom-24 atom-25" d="M 779.4,68.3 L 794.3,61.1" style="fill:none;fill-rule:evenodd;stroke:#000000;stroke-width:2.0px;stroke-linecap:butt;stroke-linejoin:miter;stroke-opacity:1"/>
<path class="bond-25 atom-25 atom-26" d="M 794.3,61.1 L 808.1,70.4" style="fill:none;fill-rule:evenodd;stroke:#000000;stroke-width:2.0px;stroke-linecap:butt;stroke-linejoin:miter;stroke-opacity:1"/>
<path class="bond-26 atom-26 atom-27" d="M 808.1,70.4 L 823.1,63.1" style="fill:none;fill-rule:evenodd;stroke:#000000;stroke-width:2.0px;stroke-linecap:butt;stroke-linejoin:miter;stroke-opacity:1"/>
<path class="bond-27 atom-27 atom-28" d="M 823.1,63.1 L 839.6,61.4" style="fill:none;fill-rule:evenodd;stroke:#000000;stroke-width:2.0px;stroke-linecap:butt;stroke-linejoin:miter;stroke-opacity:1"/>
<path class="bond-28 atom-27 atom-29" d="M 823.1,63.1 L 827.6,79.2" style="fill:none;fill-rule:evenodd;stroke:#000000;stroke-width:2.0px;stroke-linecap:butt;stroke-linejoin:miter;stroke-opacity:1"/>
<path class="bond-29 atom-29 atom-30" d="M 826.6,80.2 L 833.7,82.0" style="fill:none;fill-rule:evenodd;stroke:#000000;stroke-width:2.0px;stroke-linecap:butt;stroke-linejoin:miter;stroke-opacity:1"/>
<path class="bond-29 atom-29 atom-30" d="M 833.7,82.0 L 840.8,83.7" style="fill:none;fill-rule:evenodd;stroke:#FF0000;stroke-width:2.0px;stroke-linecap:butt;stroke-linejoin:miter;stroke-opacity:1"/>
<path class="bond-29 atom-29 atom-30" d="M 827.2,77.8 L 834.3,79.5" style="fill:none;fill-rule:evenodd;stroke:#000000;stroke-width:2.0px;stroke-linecap:butt;stroke-linejoin:miter;stroke-opacity:1"/>
<path class="bond-29 atom-29 atom-30" d="M 834.3,79.5 L 841.4,81.3" style="fill:none;fill-rule:evenodd;stroke:#FF0000;stroke-width:2.0px;stroke-linecap:butt;stroke-linejoin:miter;stroke-opacity:1"/>
<path class="bond-30 atom-29 atom-31" d="M 827.6,79.2 L 823.2,83.7" style="fill:none;fill-rule:evenodd;stroke:#000000;stroke-width:2.0px;stroke-linecap:butt;stroke-linejoin:miter;stroke-opacity:1"/>
<path class="bond-30 atom-29 atom-31" d="M 823.2,83.7 L 818.8,88.3" style="fill:none;fill-rule:evenodd;stroke:#FF0000;stroke-width:2.0px;stroke-linecap:butt;stroke-linejoin:miter;stroke-opacity:1"/>
<path class="bond-31 atom-27 atom-32" d="M 823.1,63.1 L 824.3,46.5" style="fill:none;fill-rule:evenodd;stroke:#000000;stroke-width:2.0px;stroke-linecap:butt;stroke-linejoin:miter;stroke-opacity:1"/>
<path class="bond-32 atom-32 atom-33" d="M 824.3,46.5 L 810.5,37.2" style="fill:none;fill-rule:evenodd;stroke:#000000;stroke-width:2.0px;stroke-linecap:butt;stroke-linejoin:miter;stroke-opacity:1"/>
<path class="bond-33 atom-33 atom-34" d="M 810.5,37.2 L 795.5,44.5" style="fill:none;fill-rule:evenodd;stroke:#000000;stroke-width:2.0px;stroke-linecap:butt;stroke-linejoin:miter;stroke-opacity:1"/>
<path class="bond-34 atom-34 atom-35" d="M 795.5,44.5 L 796.7,27.9" style="fill:none;fill-rule:evenodd;stroke:#000000;stroke-width:2.0px;stroke-linecap:butt;stroke-linejoin:miter;stroke-opacity:1"/>
<path class="bond-35 atom-34 atom-36" d="M 795.5,44.5 L 781.8,35.1" style="fill:none;fill-rule:evenodd;stroke:#000000;stroke-width:2.0px;stroke-linecap:butt;stroke-linejoin:miter;stroke-opacity:1"/>
<path class="bond-36 atom-36 atom-37" d="M 781.8,35.1 L 766.8,42.4" style="fill:none;fill-rule:evenodd;stroke:#000000;stroke-width:2.0px;stroke-linecap:butt;stroke-linejoin:miter;stroke-opacity:1"/>
<path class="bond-37 atom-37 atom-38" d="M 766.8,42.4 L 765.6,59.0" style="fill:none;fill-rule:evenodd;stroke:#000000;stroke-width:2.0px;stroke-linecap:butt;stroke-linejoin:miter;stroke-opacity:1"/>
<path class="bond-38 atom-38 atom-39" d="M 765.6,59.0 L 764.4,75.6" style="fill:none;fill-rule:evenodd;stroke:#000000;stroke-width:2.0px;stroke-linecap:butt;stroke-linejoin:miter;stroke-opacity:1"/>
<path class="bond-39 atom-38 atom-40" d="M 765.6,59.0 L 750.6,66.2" style="fill:none;fill-rule:evenodd;stroke:#000000;stroke-width:2.0px;stroke-linecap:butt;stroke-linejoin:miter;stroke-opacity:1"/>
<path class="bond-40 atom-40 atom-41" d="M 750.6,66.2 L 756.1,50.5" style="fill:none;fill-rule:evenodd;stroke:#000000;stroke-width:2.0px;stroke-linecap:butt;stroke-linejoin:miter;stroke-opacity:1"/>
<path class="bond-41 atom-40 atom-42" d="M 750.6,66.2 L 743.3,51.3" style="fill:none;fill-rule:evenodd;stroke:#000000;stroke-width:2.0px;stroke-linecap:butt;stroke-linejoin:miter;stroke-opacity:1"/>
<path class="bond-42 atom-42 atom-43" d="M 743.3,51.3 L 729.6,41.9" style="fill:none;fill-rule:evenodd;stroke:#000000;stroke-width:2.0px;stroke-linecap:butt;stroke-linejoin:miter;stroke-opacity:1"/>
<path class="bond-43 atom-43 atom-44" d="M 729.6,41.9 L 713.0,40.7" style="fill:none;fill-rule:evenodd;stroke:#000000;stroke-width:2.0px;stroke-linecap:butt;stroke-linejoin:miter;stroke-opacity:1"/>
<path class="bond-44 atom-44 atom-45" d="M 713.0,40.7 L 710.4,27.3" style="fill:none;fill-rule:evenodd;stroke:#000000;stroke-width:2.0px;stroke-linecap:butt;stroke-linejoin:miter;stroke-opacity:1"/>
<path class="bond-45 atom-45 atom-46" d="M 710.7,23.6 L 716.1,18.9" style="fill:none;fill-rule:evenodd;stroke:#000000;stroke-width:2.0px;stroke-linecap:butt;stroke-linejoin:miter;stroke-opacity:1"/>
<path class="bond-45 atom-45 atom-46" d="M 716.1,18.9 L 721.6,14.2" style="fill:none;fill-rule:evenodd;stroke:#A01EEF;stroke-width:2.0px;stroke-linecap:butt;stroke-linejoin:miter;stroke-opacity:1"/>
<path class="bond-46 atom-44 atom-47" d="M 713.0,40.7 L 698.0,48.0" style="fill:none;fill-rule:evenodd;stroke:#000000;stroke-width:2.0px;stroke-linecap:butt;stroke-linejoin:miter;stroke-opacity:1"/>
<path class="bond-47 atom-47 atom-48" d="M 698.0,48.0 L 697.3,41.2" style="fill:none;fill-rule:evenodd;stroke:#000000;stroke-width:2.0px;stroke-linecap:butt;stroke-linejoin:miter;stroke-opacity:1"/>
<path class="bond-47 atom-47 atom-48" d="M 697.3,41.2 L 696.6,34.4" style="fill:none;fill-rule:evenodd;stroke:#FF0000;stroke-width:2.0px;stroke-linecap:butt;stroke-linejoin:miter;stroke-opacity:1"/>
<path class="bond-48 atom-47 atom-49" d="M 698.0,48.0 L 690.7,46.1" style="fill:none;fill-rule:evenodd;stroke:#000000;stroke-width:2.0px;stroke-linecap:butt;stroke-linejoin:miter;stroke-opacity:1"/>
<path class="bond-48 atom-47 atom-49" d="M 690.7,46.1 L 683.4,44.3" style="fill:none;fill-rule:evenodd;stroke:#7F4C19;stroke-width:2.0px;stroke-linecap:butt;stroke-linejoin:miter;stroke-opacity:1"/>
<path class="bond-49 atom-47 atom-4" d="M 698.0,48.0 L 688.6,61.8" style="fill:none;fill-rule:evenodd;stroke:#000000;stroke-width:2.0px;stroke-linecap:butt;stroke-linejoin:miter;stroke-opacity:1"/>
<path class="bond-50 atom-18 atom-10" d="M 740.1,96.6 L 725.1,103.9" style="fill:none;fill-rule:evenodd;stroke:#000000;stroke-width:2.0px;stroke-linecap:butt;stroke-linejoin:miter;stroke-opacity:1"/>
<path class="bond-51 atom-40 atom-20" d="M 750.6,66.2 L 749.4,82.8" style="fill:none;fill-rule:evenodd;stroke:#000000;stroke-width:2.0px;stroke-linecap:butt;stroke-linejoin:miter;stroke-opacity:1"/>
<path class="bond-52 atom-38 atom-24" d="M 765.6,59.0 L 779.4,68.3" style="fill:none;fill-rule:evenodd;stroke:#000000;stroke-width:2.0px;stroke-linecap:butt;stroke-linejoin:miter;stroke-opacity:1"/>
<path class="bond-53 atom-34 atom-25" d="M 795.5,44.5 L 794.3,61.1" style="fill:none;fill-rule:evenodd;stroke:#000000;stroke-width:2.0px;stroke-linecap:butt;stroke-linejoin:miter;stroke-opacity:1"/>
<path d="M 669.0,39.7 L 669.8,40.0 L 669.9,40.8" style="fill:none;stroke:#000000;stroke-width:2.0px;stroke-linecap:butt;stroke-linejoin:miter;stroke-opacity:1;"/>
<path d="M 694.3,92.6 L 694.7,93.3 L 695.4,93.8" style="fill:none;stroke:#000000;stroke-width:2.0px;stroke-linecap:butt;stroke-linejoin:miter;stroke-opacity:1;"/>
<path d="M 707.8,102.2 L 708.5,102.7 L 709.3,102.7" style="fill:none;stroke:#000000;stroke-width:2.0px;stroke-linecap:butt;stroke-linejoin:miter;stroke-opacity:1;"/>
<path d="M 751.9,122.9 L 752.6,122.6 L 752.7,121.7" style="fill:none;stroke:#000000;stroke-width:2.0px;stroke-linecap:butt;stroke-linejoin:miter;stroke-opacity:1;"/>
<path d="M 753.8,106.8 L 753.8,106.0 L 753.1,105.5" style="fill:none;stroke:#000000;stroke-width:2.0px;stroke-linecap:butt;stroke-linejoin:miter;stroke-opacity:1;"/>
<path d="M 762.5,91.7 L 763.2,92.2 L 763.9,91.8" style="fill:none;stroke:#000000;stroke-width:2.0px;stroke-linecap:butt;stroke-linejoin:miter;stroke-opacity:1;"/>
<path d="M 777.4,85.3 L 778.2,84.9 L 778.2,84.1" style="fill:none;stroke:#000000;stroke-width:2.0px;stroke-linecap:butt;stroke-linejoin:miter;stroke-opacity:1;"/>
<path d="M 807.4,69.9 L 808.1,70.4 L 808.9,70.0" style="fill:none;stroke:#000000;stroke-width:2.0px;stroke-linecap:butt;stroke-linejoin:miter;stroke-opacity:1;"/>
<path d="M 827.4,78.4 L 827.6,79.2 L 827.4,79.4" style="fill:none;stroke:#000000;stroke-width:2.0px;stroke-linecap:butt;stroke-linejoin:miter;stroke-opacity:1;"/>
<path d="M 824.2,47.4 L 824.3,46.5 L 823.6,46.1" style="fill:none;stroke:#000000;stroke-width:2.0px;stroke-linecap:butt;stroke-linejoin:miter;stroke-opacity:1;"/>
<path d="M 811.2,37.7 L 810.5,37.2 L 809.8,37.6" style="fill:none;stroke:#000000;stroke-width:2.0px;stroke-linecap:butt;stroke-linejoin:miter;stroke-opacity:1;"/>
<path d="M 782.4,35.6 L 781.8,35.1 L 781.0,35.5" style="fill:none;stroke:#000000;stroke-width:2.0px;stroke-linecap:butt;stroke-linejoin:miter;stroke-opacity:1;"/>
<path d="M 767.5,42.0 L 766.8,42.4 L 766.7,43.2" style="fill:none;stroke:#000000;stroke-width:2.0px;stroke-linecap:butt;stroke-linejoin:miter;stroke-opacity:1;"/>
<path d="M 743.7,52.0 L 743.3,51.3 L 742.7,50.8" style="fill:none;stroke:#000000;stroke-width:2.0px;stroke-linecap:butt;stroke-linejoin:miter;stroke-opacity:1;"/>
<path d="M 730.3,42.4 L 729.6,41.9 L 728.7,41.9" style="fill:none;stroke:#000000;stroke-width:2.0px;stroke-linecap:butt;stroke-linejoin:miter;stroke-opacity:1;"/>
<path class="atom-3" d="M 660.0 64.8 L 660.6 64.8 L 660.6 69.6 L 660.0 69.6 L 660.0 64.8 " fill="#A01EEF"/>
<path class="atom-6" d="M 671.2 69.2 L 672.8 71.7 Q 672.9 71.9, 673.2 72.4 Q 673.4 72.8, 673.4 72.9 L 673.4 69.2 L 674.0 69.2 L 674.0 73.9 L 673.4 73.9 L 671.7 71.2 Q 671.5 70.9, 671.3 70.5 Q 671.1 70.1, 671.1 70.0 L 671.1 73.9 L 670.5 73.9 L 670.5 69.2 L 671.2 69.2 " fill="#0000FF"/>
<path class="atom-6" d="M 674.9 70.0 L 675.8 70.0 L 675.8 69.2 L 676.1 69.2 L 676.1 70.0 L 677.0 70.0 L 677.0 70.4 L 676.1 70.4 L 676.1 71.2 L 675.8 71.2 L 675.8 70.4 L 674.9 70.4 L 674.9 70.0 " fill="#0000FF"/>
<path class="atom-7" d="M 673.4 90.2 Q 673.8 90.3, 674.1 90.6 Q 674.3 90.9, 674.3 91.3 Q 674.3 91.9, 673.9 92.3 Q 673.5 92.7, 672.7 92.7 L 671.1 92.7 L 671.1 87.9 L 672.5 87.9 Q 673.3 87.9, 673.7 88.3 Q 674.1 88.6, 674.1 89.2 Q 674.1 89.9, 673.4 90.2 M 671.7 88.5 L 671.7 90.0 L 672.5 90.0 Q 673.0 90.0, 673.2 89.8 Q 673.4 89.6, 673.4 89.2 Q 673.4 88.5, 672.5 88.5 L 671.7 88.5 M 672.7 92.1 Q 673.1 92.1, 673.4 91.9 Q 673.6 91.7, 673.6 91.3 Q 673.6 90.9, 673.4 90.7 Q 673.1 90.5, 672.6 90.5 L 671.7 90.5 L 671.7 92.1 L 672.7 92.1 " fill="#7F4C19"/>
<path class="atom-7" d="M 675.4 89.2 L 675.4 89.7 Q 675.8 89.2, 676.4 89.2 Q 676.6 89.2, 676.8 89.2 L 676.7 89.8 Q 676.4 89.7, 676.3 89.7 Q 676.0 89.7, 675.8 89.9 Q 675.6 90.0, 675.5 90.2 L 675.5 92.7 L 674.9 92.7 L 674.9 89.2 L 675.4 89.2 " fill="#7F4C19"/>
<path class="atom-15" d="M 734.3 146.4 Q 734.3 145.3, 734.8 144.7 Q 735.4 144.0, 736.5 144.0 Q 737.5 144.0, 738.1 144.7 Q 738.6 145.3, 738.6 146.4 Q 738.6 147.6, 738.1 148.2 Q 737.5 148.9, 736.5 148.9 Q 735.4 148.9, 734.8 148.2 Q 734.3 147.6, 734.3 146.4 M 736.5 148.3 Q 737.2 148.3, 737.6 147.9 Q 738.0 147.4, 738.0 146.4 Q 738.0 145.5, 737.6 145.0 Q 737.2 144.6, 736.5 144.6 Q 735.7 144.6, 735.3 145.0 Q 735.0 145.5, 735.0 146.4 Q 735.0 147.4, 735.3 147.9 Q 735.7 148.3, 736.5 148.3 " fill="#FF0000"/>
<path class="atom-15" d="M 739.4 144.1 L 740.0 144.1 L 740.0 146.1 L 742.4 146.1 L 742.4 144.1 L 743.0 144.1 L 743.0 148.8 L 742.4 148.8 L 742.4 146.6 L 740.0 146.6 L 740.0 148.8 L 739.4 148.8 L 739.4 144.1 " fill="#FF0000"/>
<path class="atom-22" d="M 763.9 108.6 Q 763.9 107.5, 764.4 106.8 Q 765.0 106.2, 766.0 106.2 Q 767.1 106.2, 767.6 106.8 Q 768.2 107.5, 768.2 108.6 Q 768.2 109.7, 767.6 110.4 Q 767.1 111.0, 766.0 111.0 Q 765.0 111.0, 764.4 110.4 Q 763.9 109.7, 763.9 108.6 M 766.0 110.5 Q 766.7 110.5, 767.1 110.0 Q 767.5 109.5, 767.5 108.6 Q 767.5 107.7, 767.1 107.2 Q 766.7 106.7, 766.0 106.7 Q 765.3 106.7, 764.9 107.2 Q 764.5 107.7, 764.5 108.6 Q 764.5 109.5, 764.9 110.0 Q 765.3 110.5, 766.0 110.5 " fill="#FF0000"/>
<path class="atom-30" d="M 841.6 83.2 Q 841.6 82.1, 842.2 81.5 Q 842.7 80.8, 843.8 80.8 Q 844.8 80.8, 845.4 81.5 Q 845.9 82.1, 845.9 83.2 Q 845.9 84.4, 845.4 85.0 Q 844.8 85.7, 843.8 85.7 Q 842.7 85.7, 842.2 85.0 Q 841.6 84.4, 841.6 83.2 M 843.8 85.1 Q 844.5 85.1, 844.9 84.7 Q 845.3 84.2, 845.3 83.2 Q 845.3 82.3, 844.9 81.8 Q 844.5 81.4, 843.8 81.4 Q 843.1 81.4, 842.7 81.8 Q 842.3 82.3, 842.3 83.2 Q 842.3 84.2, 842.7 84.7 Q 843.1 85.1, 843.8 85.1 " fill="#FF0000"/>
<path class="atom-31" d="M 809.2 88.8 L 809.9 88.8 L 809.9 90.8 L 812.3 90.8 L 812.3 88.8 L 812.9 88.8 L 812.9 93.5 L 812.3 93.5 L 812.3 91.3 L 809.9 91.3 L 809.9 93.5 L 809.2 93.5 L 809.2 88.8 " fill="#FF0000"/>
<path class="atom-31" d="M 813.9 91.1 Q 813.9 90.0, 814.4 89.4 Q 815.0 88.7, 816.0 88.7 Q 817.1 88.7, 817.6 89.4 Q 818.2 90.0, 818.2 91.1 Q 818.2 92.3, 817.6 92.9 Q 817.1 93.6, 816.0 93.6 Q 815.0 93.6, 814.4 92.9 Q 813.9 92.3, 813.9 91.1 M 816.0 93.0 Q 816.8 93.0, 817.2 92.5 Q 817.5 92.1, 817.5 91.1 Q 817.5 90.2, 817.2 89.7 Q 816.8 89.3, 816.0 89.3 Q 815.3 89.3, 814.9 89.7 Q 814.5 90.2, 814.5 91.1 Q 814.5 92.1, 814.9 92.5 Q 815.3 93.0, 816.0 93.0 " fill="#FF0000"/>
<path class="atom-45" d="M 706.2 26.0 Q 706.2 26.0, 706.5 26.1 Q 706.7 26.2, 706.9 26.3 Q 707.2 26.3, 707.4 26.3 Q 707.8 26.3, 708.1 26.1 Q 708.4 25.9, 708.4 25.5 Q 708.4 25.2, 708.2 25.1 Q 708.1 24.9, 707.9 24.8 Q 707.7 24.8, 707.4 24.7 Q 707.0 24.5, 706.7 24.4 Q 706.5 24.3, 706.3 24.0 Q 706.1 23.8, 706.1 23.4 Q 706.1 22.8, 706.5 22.4 Q 706.9 22.0, 707.7 22.0 Q 708.3 22.0, 708.9 22.3 L 708.7 22.8 Q 708.2 22.6, 707.7 22.6 Q 707.3 22.6, 707.0 22.8 Q 706.8 23.0, 706.8 23.3 Q 706.8 23.5, 706.9 23.7 Q 707.0 23.8, 707.2 23.9 Q 707.4 24.0, 707.7 24.1 Q 708.2 24.2, 708.4 24.4 Q 708.7 24.5, 708.8 24.8 Q 709.0 25.0, 709.0 25.5 Q 709.0 26.2, 708.6 26.5 Q 708.2 26.9, 707.4 26.9 Q 707.0 26.9, 706.7 26.8 Q 706.4 26.7, 706.0 26.5 L 706.2 26.0 " fill="#000000"/>
<path class="atom-45" d="M 709.5 22.0 L 710.1 22.0 L 710.1 22.6 L 709.5 22.6 L 709.5 22.0 M 709.5 23.3 L 710.1 23.3 L 710.1 26.7 L 709.5 26.7 L 709.5 23.3 " fill="#000000"/>
<path class="atom-46" d="M 722.1 11.1 L 722.7 11.1 L 722.7 15.9 L 722.1 15.9 L 722.1 11.1 " fill="#A01EEF"/>
<path class="atom-48" d="M 694.1 31.4 Q 694.1 30.3, 694.7 29.7 Q 695.2 29.0, 696.3 29.0 Q 697.3 29.0, 697.9 29.7 Q 698.5 30.3, 698.5 31.4 Q 698.5 32.6, 697.9 33.2 Q 697.3 33.9, 696.3 33.9 Q 695.2 33.9, 694.7 33.2 Q 694.1 32.6, 694.1 31.4 M 696.3 33.3 Q 697.0 33.3, 697.4 32.9 Q 697.8 32.4, 697.8 31.4 Q 697.8 30.5, 697.4 30.0 Q 697.0 29.6, 696.3 29.6 Q 695.6 29.6, 695.2 30.0 Q 694.8 30.5, 694.8 31.4 Q 694.8 32.4, 695.2 32.9 Q 695.6 33.3, 696.3 33.3 " fill="#FF0000"/>
<path class="atom-48" d="M 699.2 29.1 L 699.8 29.1 L 699.8 31.1 L 702.2 31.1 L 702.2 29.1 L 702.9 29.1 L 702.9 33.8 L 702.2 33.8 L 702.2 31.6 L 699.8 31.6 L 699.8 33.8 L 699.2 33.8 L 699.2 29.1 " fill="#FF0000"/>
<path class="atom-49" d="M 679.4 43.8 Q 679.8 43.9, 680.1 44.2 Q 680.3 44.5, 680.3 44.9 Q 680.3 45.5, 679.9 45.9 Q 679.5 46.3, 678.7 46.3 L 677.1 46.3 L 677.1 41.6 L 678.5 41.6 Q 679.3 41.6, 679.7 41.9 Q 680.1 42.2, 680.1 42.8 Q 680.1 43.5, 679.4 43.8 M 677.7 42.1 L 677.7 43.6 L 678.5 43.6 Q 679.0 43.6, 679.2 43.4 Q 679.4 43.2, 679.4 42.8 Q 679.4 42.1, 678.5 42.1 L 677.7 42.1 M 678.7 45.7 Q 679.1 45.7, 679.4 45.5 Q 679.6 45.3, 679.6 44.9 Q 679.6 44.5, 679.4 44.3 Q 679.1 44.1, 678.6 44.1 L 677.7 44.1 L 677.7 45.7 L 678.7 45.7 " fill="#7F4C19"/>
<path class="atom-49" d="M 681.4 42.9 L 681.4 43.3 Q 681.8 42.8, 682.4 42.8 Q 682.6 42.8, 682.8 42.9 L 682.7 43.4 Q 682.4 43.3, 682.3 43.3 Q 682.0 43.3, 681.8 43.5 Q 681.6 43.6, 681.5 43.8 L 681.5 46.3 L 680.9 46.3 L 680.9 42.9 L 681.4 42.9 " fill="#7F4C19"/>
<path class="atom-6" d="M 669.8,69.9 L 669.8,69.9 L 669.8,69.9 L 669.8,70.0 L 669.8,70.0 L 669.8,70.0 L 669.8,70.1 L 669.7,70.1 L 669.7,70.1 L 669.7,70.1 L 669.7,70.1 L 669.7,70.2 L 669.6,70.2 L 669.6,70.2 L 669.6,70.2 L 669.6,70.2 L 669.5,70.2 L 669.5,70.2 L 669.5,70.2 L 669.4,70.2 L 669.4,70.2 L 669.4,70.2 L 669.4,70.2 L 669.3,70.2 L 669.3,70.2 L 669.3,70.2 L 669.3,70.1 L 669.2,70.1 L 669.2,70.1 L 669.2,70.1 L 669.2,70.1 L 669.2,70.0 L 669.2,70.0 L 669.1,70.0 L 669.1,70.0 L 669.1,69.9 L 669.1,69.9 L 669.1,69.9 L 669.1,69.8 L 669.1,69.8 L 669.1,69.8 L 669.2,69.8 L 669.2,69.7 L 669.2,69.7 L 669.2,69.7 L 669.2,69.7 L 669.2,69.6 L 669.3,69.6 L 669.3,69.6 L 669.3,69.6 L 669.3,69.6 L 669.4,69.6 L 669.4,69.6 L 669.4,69.6 L 669.4,69.6 L 669.5,69.6 L 669.5,69.6 L 669.5,69.6 L 669.6,69.6 L 669.6,69.6 L 669.6,69.6 L 669.6,69.6 L 669.7,69.6 L 669.7,69.6 L 669.7,69.7 L 669.7,69.7 L 669.7,69.7 L 669.8,69.7 L 669.8,69.7 L 669.8,69.8 L 669.8,69.8 L 669.8,69.8 L 669.8,69.9 L 669.8,69.9 L 669.5,69.9 Z" style="fill:#000000;fill-rule:evenodd;fill-opacity:1;stroke:#000000;stroke-width:0.0px;stroke-linecap:butt;stroke-linejoin:miter;stroke-opacity:1;"/>
<path class="atom-6" d="M 669.8,73.2 L 669.8,73.2 L 669.8,73.3 L 669.8,73.3 L 669.8,73.3 L 669.8,73.4 L 669.8,73.4 L 669.7,73.4 L 669.7,73.4 L 669.7,73.4 L 669.7,73.5 L 669.7,73.5 L 669.6,73.5 L 669.6,73.5 L 669.6,73.5 L 669.6,73.5 L 669.5,73.5 L 669.5,73.5 L 669.5,73.5 L 669.4,73.5 L 669.4,73.5 L 669.4,73.5 L 669.4,73.5 L 669.3,73.5 L 669.3,73.5 L 669.3,73.5 L 669.3,73.5 L 669.2,73.5 L 669.2,73.4 L 669.2,73.4 L 669.2,73.4 L 669.2,73.4 L 669.2,73.3 L 669.1,73.3 L 669.1,73.3 L 669.1,73.3 L 669.1,73.2 L 669.1,73.2 L 669.1,73.2 L 669.1,73.1 L 669.1,73.1 L 669.2,73.1 L 669.2,73.1 L 669.2,73.0 L 669.2,73.0 L 669.2,73.0 L 669.2,73.0 L 669.3,73.0 L 669.3,72.9 L 669.3,72.9 L 669.3,72.9 L 669.4,72.9 L 669.4,72.9 L 669.4,72.9 L 669.4,72.9 L 669.5,72.9 L 669.5,72.9 L 669.5,72.9 L 669.6,72.9 L 669.6,72.9 L 669.6,72.9 L 669.6,72.9 L 669.7,72.9 L 669.7,73.0 L 669.7,73.0 L 669.7,73.0 L 669.7,73.0 L 669.8,73.1 L 669.8,73.1 L 669.8,73.1 L 669.8,73.1 L 669.8,73.2 L 669.8,73.2 L 669.8,73.2 L 669.5,73.2 Z" style="fill:#000000;fill-rule:evenodd;fill-opacity:1;stroke:#000000;stroke-width:0.0px;stroke-linecap:butt;stroke-linejoin:miter;stroke-opacity:1;"/>
<path class="atom-6" d="M 669.8,71.6 L 669.8,71.6 L 669.8,71.6 L 669.8,71.6 L 669.8,71.7 L 669.8,71.7 L 669.8,71.7 L 669.7,71.7 L 669.7,71.8 L 669.7,71.8 L 669.7,71.8 L 669.7,71.8 L 669.6,71.8 L 669.6,71.9 L 669.6,71.9 L 669.6,71.9 L 669.5,71.9 L 669.5,71.9 L 669.5,71.9 L 669.4,71.9 L 669.4,71.9 L 669.4,71.9 L 669.4,71.9 L 669.3,71.9 L 669.3,71.8 L 669.3,71.8 L 669.3,71.8 L 669.2,71.8 L 669.2,71.8 L 669.2,71.8 L 669.2,71.7 L 669.2,71.7 L 669.2,71.7 L 669.1,71.7 L 669.1,71.6 L 669.1,71.6 L 669.1,71.6 L 669.1,71.5 L 669.1,71.5 L 669.1,71.5 L 669.1,71.5 L 669.2,71.4 L 669.2,71.4 L 669.2,71.4 L 669.2,71.4 L 669.2,71.3 L 669.2,71.3 L 669.3,71.3 L 669.3,71.3 L 669.3,71.3 L 669.3,71.2 L 669.4,71.2 L 669.4,71.2 L 669.4,71.2 L 669.4,71.2 L 669.5,71.2 L 669.5,71.2 L 669.5,71.2 L 669.6,71.2 L 669.6,71.2 L 669.6,71.3 L 669.6,71.3 L 669.7,71.3 L 669.7,71.3 L 669.7,71.3 L 669.7,71.3 L 669.7,71.4 L 669.8,71.4 L 669.8,71.4 L 669.8,71.4 L 669.8,71.5 L 669.8,71.5 L 669.8,71.5 L 669.8,71.6 L 669.5,71.6 Z" style="fill:#000000;fill-rule:evenodd;fill-opacity:1;stroke:#000000;stroke-width:0.0px;stroke-linecap:butt;stroke-linejoin:miter;stroke-opacity:1;"/>
<path class="atom-45" d="M 705.3,25.0 L 705.3,25.1 L 705.3,25.1 L 705.3,25.1 L 705.3,25.2 L 705.3,25.2 L 705.3,25.2 L 705.3,25.2 L 705.3,25.3 L 705.2,25.3 L 705.2,25.3 L 705.2,25.3 L 705.2,25.3 L 705.2,25.3 L 705.1,25.4 L 705.1,25.4 L 705.1,25.4 L 705.0,25.4 L 705.0,25.4 L 705.0,25.4 L 705.0,25.4 L 704.9,25.4 L 704.9,25.4 L 704.9,25.3 L 704.8,25.3 L 704.8,25.3 L 704.8,25.3 L 704.8,25.3 L 704.8,25.3 L 704.7,25.2 L 704.7,25.2 L 704.7,25.2 L 704.7,25.2 L 704.7,25.1 L 704.7,25.1 L 704.7,25.1 L 704.7,25.1 L 704.7,25.0 L 704.7,25.0 L 704.7,25.0 L 704.7,24.9 L 704.7,24.9 L 704.7,24.9 L 704.7,24.9 L 704.7,24.8 L 704.8,24.8 L 704.8,24.8 L 704.8,24.8 L 704.8,24.8 L 704.8,24.7 L 704.9,24.7 L 704.9,24.7 L 704.9,24.7 L 705.0,24.7 L 705.0,24.7 L 705.0,24.7 L 705.0,24.7 L 705.1,24.7 L 705.1,24.7 L 705.1,24.7 L 705.2,24.7 L 705.2,24.8 L 705.2,24.8 L 705.2,24.8 L 705.2,24.8 L 705.3,24.8 L 705.3,24.9 L 705.3,24.9 L 705.3,24.9 L 705.3,24.9 L 705.3,25.0 L 705.3,25.0 L 705.3,25.0 L 705.3,25.0 L 705.0,25.0 Z" style="fill:#000000;fill-rule:evenodd;fill-opacity:1;stroke:#000000;stroke-width:0.0px;stroke-linecap:butt;stroke-linejoin:miter;stroke-opacity:1;"/>
<path class="atom-45" d="M 705.3,23.7 L 705.3,23.7 L 705.3,23.8 L 705.3,23.8 L 705.3,23.8 L 705.3,23.8 L 705.3,23.9 L 705.3,23.9 L 705.3,23.9 L 705.2,23.9 L 705.2,24.0 L 705.2,24.0 L 705.2,24.0 L 705.2,24.0 L 705.1,24.0 L 705.1,24.0 L 705.1,24.0 L 705.0,24.0 L 705.0,24.0 L 705.0,24.0 L 705.0,24.0 L 704.9,24.0 L 704.9,24.0 L 704.9,24.0 L 704.8,24.0 L 704.8,24.0 L 704.8,24.0 L 704.8,24.0 L 704.8,23.9 L 704.7,23.9 L 704.7,23.9 L 704.7,23.9 L 704.7,23.8 L 704.7,23.8 L 704.7,23.8 L 704.7,23.8 L 704.7,23.7 L 704.7,23.7 L 704.7,23.7 L 704.7,23.6 L 704.7,23.6 L 704.7,23.6 L 704.7,23.6 L 704.7,23.5 L 704.7,23.5 L 704.8,23.5 L 704.8,23.5 L 704.8,23.4 L 704.8,23.4 L 704.8,23.4 L 704.9,23.4 L 704.9,23.4 L 704.9,23.4 L 705.0,23.4 L 705.0,23.4 L 705.0,23.4 L 705.0,23.4 L 705.1,23.4 L 705.1,23.4 L 705.1,23.4 L 705.2,23.4 L 705.2,23.4 L 705.2,23.4 L 705.2,23.5 L 705.2,23.5 L 705.3,23.5 L 705.3,23.5 L 705.3,23.5 L 705.3,23.6 L 705.3,23.6 L 705.3,23.6 L 705.3,23.7 L 705.3,23.7 L 705.3,23.7 L 705.0,23.7 Z" style="fill:#000000;fill-rule:evenodd;fill-opacity:1;stroke:#000000;stroke-width:0.0px;stroke-linecap:butt;stroke-linejoin:miter;stroke-opacity:1;"/>
</svg>