<svg xmlns="http://www.w3.org/2000/svg" xmlns:rdkit="http://www.rdkit.org/xml" xmlns:xlink="http://www.w3.org/1999/xlink" version="1.1" baseProfile="full" xml:space="preserve" width="900px" height="160px" viewBox="0 0 900 160">
<!-- END OF HEADER -->
<rect style="opacity:1.0;fill:#FFFFFF;stroke:none" width="900.0" height="160.0" x="0.0" y="0.0"> </rect>
<path class="bond-0 atom-0 atom-1" d="M 267.9,74.2 L 262.8,74.9" style="fill:none;fill-rule:evenodd;stroke:#FF0000;stroke-width:2.0px;stroke-linecap:butt;stroke-linejoin:miter;stroke-opacity:1"/>
<path class="bond-0 atom-0 atom-1" d="M 262.8,74.9 L 257.7,75.6" style="fill:none;fill-rule:evenodd;stroke:#0000FF;stroke-width:2.0px;stroke-linecap:butt;stroke-linejoin:miter;stroke-opacity:1"/>
<path class="bond-1 atom-1 atom-2" d="M 253.5,73.3 L 248.5,66.8" style="fill:none;fill-rule:evenodd;stroke:#0000FF;stroke-width:2.0px;stroke-linecap:butt;stroke-linejoin:miter;stroke-opacity:1"/>
<path class="bond-2 atom-2 atom-3" d="M 244.3,64.5 L 238.9,65.3" style="fill:none;fill-rule:evenodd;stroke:#0000FF;stroke-width:2.0px;stroke-linecap:butt;stroke-linejoin:miter;stroke-opacity:1"/>
<path class="bond-2 atom-2 atom-3" d="M 238.9,65.3 L 233.5,66.0" style="fill:none;fill-rule:evenodd;stroke:#CCCC00;stroke-width:2.0px;stroke-linecap:butt;stroke-linejoin:miter;stroke-opacity:1"/>
<path class="bond-3 atom-3 atom-4" d="M 230.6,69.0 L 228.3,74.5" style="fill:none;fill-rule:evenodd;stroke:#CCCC00;stroke-width:2.0px;stroke-linecap:butt;stroke-linejoin:miter;stroke-opacity:1"/>
<path class="bond-3 atom-3 atom-4" d="M 228.3,74.5 L 226.1,80.1" style="fill:none;fill-rule:evenodd;stroke:#000000;stroke-width:2.0px;stroke-linecap:butt;stroke-linejoin:miter;stroke-opacity:1"/>
<path class="bond-4 atom-4 atom-5" d="M 226.1,80.1 L 211.3,82.1" style="fill:none;fill-rule:evenodd;stroke:#000000;stroke-width:2.0px;stroke-linecap:butt;stroke-linejoin:miter;stroke-opacity:1"/>
<path class="bond-5 atom-5 atom-6" d="M 211.3,82.1 L 207.8,77.6" style="fill:none;fill-rule:evenodd;stroke:#000000;stroke-width:2.0px;stroke-linecap:butt;stroke-linejoin:miter;stroke-opacity:1"/>
<path class="bond-5 atom-5 atom-6" d="M 207.8,77.6 L 204.2,73.0" style="fill:none;fill-rule:evenodd;stroke:#0000FF;stroke-width:2.0px;stroke-linecap:butt;stroke-linejoin:miter;stroke-opacity:1"/>
<path class="bond-6 atom-6 atom-7" d="M 200.0,70.7 L 193.7,71.6" style="fill:none;fill-rule:evenodd;stroke:#0000FF;stroke-width:2.0px;stroke-linecap:butt;stroke-linejoin:miter;stroke-opacity:1"/>
<path class="bond-6 atom-6 atom-7" d="M 193.7,71.6 L 187.4,72.5" style="fill:none;fill-rule:evenodd;stroke:#000000;stroke-width:2.0px;stroke-linecap:butt;stroke-linejoin:miter;stroke-opacity:1"/>
<path class="bond-7 atom-7 atom-8" d="M 187.4,72.5 L 178.2,60.7" style="fill:none;fill-rule:evenodd;stroke:#000000;stroke-width:2.0px;stroke-linecap:butt;stroke-linejoin:miter;stroke-opacity:1"/>
<path class="bond-7 atom-7 atom-8" d="M 184.8,72.8 L 177.3,63.2" style="fill:none;fill-rule:evenodd;stroke:#000000;stroke-width:2.0px;stroke-linecap:butt;stroke-linejoin:miter;stroke-opacity:1"/>
<path class="bond-8 atom-8 atom-9" d="M 178.2,60.7 L 163.5,62.8" style="fill:none;fill-rule:evenodd;stroke:#000000;stroke-width:2.0px;stroke-linecap:butt;stroke-linejoin:miter;stroke-opacity:1"/>
<path class="bond-9 atom-9 atom-10" d="M 163.5,62.8 L 157.9,76.6" style="fill:none;fill-rule:evenodd;stroke:#000000;stroke-width:2.0px;stroke-linecap:butt;stroke-linejoin:miter;stroke-opacity:1"/>
<path class="bond-9 atom-9 atom-10" d="M 165.1,64.9 L 160.5,76.2" style="fill:none;fill-rule:evenodd;stroke:#000000;stroke-width:2.0px;stroke-linecap:butt;stroke-linejoin:miter;stroke-opacity:1"/>
<path class="bond-10 atom-10 atom-11" d="M 157.9,76.6 L 151.6,77.5" style="fill:none;fill-rule:evenodd;stroke:#000000;stroke-width:2.0px;stroke-linecap:butt;stroke-linejoin:miter;stroke-opacity:1"/>
<path class="bond-10 atom-10 atom-11" d="M 151.6,77.5 L 145.3,78.4" style="fill:none;fill-rule:evenodd;stroke:#0000FF;stroke-width:2.0px;stroke-linecap:butt;stroke-linejoin:miter;stroke-opacity:1"/>
<path class="bond-11 atom-11 atom-12" d="M 141.1,76.0 L 137.5,71.5" style="fill:none;fill-rule:evenodd;stroke:#0000FF;stroke-width:2.0px;stroke-linecap:butt;stroke-linejoin:miter;stroke-opacity:1"/>
<path class="bond-11 atom-11 atom-12" d="M 137.5,71.5 L 134.0,66.9" style="fill:none;fill-rule:evenodd;stroke:#000000;stroke-width:2.0px;stroke-linecap:butt;stroke-linejoin:miter;stroke-opacity:1"/>
<path class="bond-12 atom-12 atom-13" d="M 134.0,66.9 L 119.2,69.0" style="fill:none;fill-rule:evenodd;stroke:#000000;stroke-width:2.0px;stroke-linecap:butt;stroke-linejoin:miter;stroke-opacity:1"/>
<path class="bond-13 atom-13 atom-14" d="M 119.2,69.0 L 117.0,74.6" style="fill:none;fill-rule:evenodd;stroke:#000000;stroke-width:2.0px;stroke-linecap:butt;stroke-linejoin:miter;stroke-opacity:1"/>
<path class="bond-13 atom-13 atom-14" d="M 117.0,74.6 L 114.7,80.2" style="fill:none;fill-rule:evenodd;stroke:#0000FF;stroke-width:2.0px;stroke-linecap:butt;stroke-linejoin:miter;stroke-opacity:1"/>
<path class="bond-14 atom-14 atom-15" d="M 111.5,83.1 L 105.2,84.0" style="fill:none;fill-rule:evenodd;stroke:#0000FF;stroke-width:2.0px;stroke-linecap:butt;stroke-linejoin:miter;stroke-opacity:1"/>
<path class="bond-14 atom-14 atom-15" d="M 105.2,84.0 L 98.9,84.9" style="fill:none;fill-rule:evenodd;stroke:#000000;stroke-width:2.0px;stroke-linecap:butt;stroke-linejoin:miter;stroke-opacity:1"/>
<path class="bond-15 atom-15 atom-16" d="M 98.1,83.8 L 95.7,89.7" style="fill:none;fill-rule:evenodd;stroke:#000000;stroke-width:2.0px;stroke-linecap:butt;stroke-linejoin:miter;stroke-opacity:1"/>
<path class="bond-15 atom-15 atom-16" d="M 95.7,89.7 L 93.3,95.6" style="fill:none;fill-rule:evenodd;stroke:#FF0000;stroke-width:2.0px;stroke-linecap:butt;stroke-linejoin:miter;stroke-opacity:1"/>
<path class="bond-15 atom-15 atom-16" d="M 100.2,84.7 L 97.8,90.6" style="fill:none;fill-rule:evenodd;stroke:#000000;stroke-width:2.0px;stroke-linecap:butt;stroke-linejoin:miter;stroke-opacity:1"/>
<path class="bond-15 atom-15 atom-16" d="M 97.8,90.6 L 95.5,96.5" style="fill:none;fill-rule:evenodd;stroke:#FF0000;stroke-width:2.0px;stroke-linecap:butt;stroke-linejoin:miter;stroke-opacity:1"/>
<path class="bond-16 atom-15 atom-17" d="M 98.9,84.9 L 95.3,80.3" style="fill:none;fill-rule:evenodd;stroke:#000000;stroke-width:2.0px;stroke-linecap:butt;stroke-linejoin:miter;stroke-opacity:1"/>
<path class="bond-16 atom-15 atom-17" d="M 95.3,80.3 L 91.8,75.8" style="fill:none;fill-rule:evenodd;stroke:#0000FF;stroke-width:2.0px;stroke-linecap:butt;stroke-linejoin:miter;stroke-opacity:1"/>
<path class="bond-17 atom-17 atom-18" d="M 87.6,73.4 L 81.3,74.3" style="fill:none;fill-rule:evenodd;stroke:#0000FF;stroke-width:2.0px;stroke-linecap:butt;stroke-linejoin:miter;stroke-opacity:1"/>
<path class="bond-17 atom-17 atom-18" d="M 81.3,74.3 L 75.0,75.2" style="fill:none;fill-rule:evenodd;stroke:#000000;stroke-width:2.0px;stroke-linecap:butt;stroke-linejoin:miter;stroke-opacity:1"/>
<path class="bond-18 atom-18 atom-19" d="M 75.0,75.2 L 65.8,63.5" style="fill:none;fill-rule:evenodd;stroke:#000000;stroke-width:2.0px;stroke-linecap:butt;stroke-linejoin:miter;stroke-opacity:1"/>
<path class="bond-19 atom-19 atom-20" d="M 65.8,63.5 L 60.2,77.3" style="fill:none;fill-rule:evenodd;stroke:#000000;stroke-width:2.0px;stroke-linecap:butt;stroke-linejoin:miter;stroke-opacity:1"/>
<path class="bond-20 atom-20 atom-21" d="M 60.2,77.3 L 45.5,79.3" style="fill:none;fill-rule:evenodd;stroke:#000000;stroke-width:2.0px;stroke-linecap:butt;stroke-linejoin:miter;stroke-opacity:1"/>
<path class="bond-21 atom-21 atom-22" d="M 45.5,79.3 L 54.7,91.1" style="fill:none;fill-rule:evenodd;stroke:#000000;stroke-width:2.0px;stroke-linecap:butt;stroke-linejoin:miter;stroke-opacity:1"/>
<path class="bond-22 atom-22 atom-23" d="M 54.7,91.1 L 69.4,89.0" style="fill:none;fill-rule:evenodd;stroke:#000000;stroke-width:2.0px;stroke-linecap:butt;stroke-linejoin:miter;stroke-opacity:1"/>
<path class="bond-23 atom-23 atom-24" d="M 69.4,89.0 L 44.0,68.5" style="fill:none;fill-rule:evenodd;stroke:#000000;stroke-width:2.0px;stroke-linecap:butt;stroke-linejoin:miter;stroke-opacity:1"/>
<path class="bond-24 atom-24 atom-25" d="M 44.0,68.5 L 41.9,53.8" style="fill:none;fill-rule:evenodd;stroke:#000000;stroke-width:2.0px;stroke-linecap:butt;stroke-linejoin:miter;stroke-opacity:1"/>
<path class="bond-25 atom-25 atom-26" d="M 41.9,53.8 L 38.4,49.3" style="fill:none;fill-rule:evenodd;stroke:#000000;stroke-width:2.0px;stroke-linecap:butt;stroke-linejoin:miter;stroke-opacity:1"/>
<path class="bond-25 atom-25 atom-26" d="M 38.4,49.3 L 34.9,44.8" style="fill:none;fill-rule:evenodd;stroke:#FF0000;stroke-width:2.0px;stroke-linecap:butt;stroke-linejoin:miter;stroke-opacity:1"/>
<path class="bond-26 atom-25 atom-27" d="M 41.9,53.8 L 36.3,67.6" style="fill:none;fill-rule:evenodd;stroke:#000000;stroke-width:2.0px;stroke-linecap:butt;stroke-linejoin:miter;stroke-opacity:1"/>
<path class="bond-27 atom-25 atom-28" d="M 41.9,53.8 L 56.7,51.7" style="fill:none;fill-rule:evenodd;stroke:#000000;stroke-width:2.0px;stroke-linecap:butt;stroke-linejoin:miter;stroke-opacity:1"/>
<path class="bond-28 atom-14 atom-29" d="M 115.7,85.4 L 119.3,90.0" style="fill:none;fill-rule:evenodd;stroke:#0000FF;stroke-width:2.0px;stroke-linecap:butt;stroke-linejoin:miter;stroke-opacity:1"/>
<path class="bond-28 atom-14 atom-29" d="M 119.3,90.0 L 122.8,94.6" style="fill:none;fill-rule:evenodd;stroke:#000000;stroke-width:2.0px;stroke-linecap:butt;stroke-linejoin:miter;stroke-opacity:1"/>
<path class="bond-29 atom-29 atom-30" d="M 122.8,94.6 L 117.2,108.4" style="fill:none;fill-rule:evenodd;stroke:#000000;stroke-width:2.0px;stroke-linecap:butt;stroke-linejoin:miter;stroke-opacity:1"/>
<path class="bond-29 atom-29 atom-30" d="M 124.5,96.6 L 119.9,108.0" style="fill:none;fill-rule:evenodd;stroke:#000000;stroke-width:2.0px;stroke-linecap:butt;stroke-linejoin:miter;stroke-opacity:1"/>
<path class="bond-30 atom-30 atom-31" d="M 117.2,108.4 L 126.4,120.1" style="fill:none;fill-rule:evenodd;stroke:#000000;stroke-width:2.0px;stroke-linecap:butt;stroke-linejoin:miter;stroke-opacity:1"/>
<path class="bond-31 atom-31 atom-32" d="M 126.4,120.1 L 141.2,118.0" style="fill:none;fill-rule:evenodd;stroke:#000000;stroke-width:2.0px;stroke-linecap:butt;stroke-linejoin:miter;stroke-opacity:1"/>
<path class="bond-31 atom-31 atom-32" d="M 127.4,117.6 L 139.5,115.9" style="fill:none;fill-rule:evenodd;stroke:#000000;stroke-width:2.0px;stroke-linecap:butt;stroke-linejoin:miter;stroke-opacity:1"/>
<path class="bond-32 atom-32 atom-33" d="M 141.2,118.0 L 146.7,104.2" style="fill:none;fill-rule:evenodd;stroke:#000000;stroke-width:2.0px;stroke-linecap:butt;stroke-linejoin:miter;stroke-opacity:1"/>
<path class="bond-33 atom-33 atom-34" d="M 146.7,104.2 L 137.6,92.5" style="fill:none;fill-rule:evenodd;stroke:#000000;stroke-width:2.0px;stroke-linecap:butt;stroke-linejoin:miter;stroke-opacity:1"/>
<path class="bond-33 atom-33 atom-34" d="M 144.1,104.6 L 136.6,94.9" style="fill:none;fill-rule:evenodd;stroke:#000000;stroke-width:2.0px;stroke-linecap:butt;stroke-linejoin:miter;stroke-opacity:1"/>
<path class="bond-34 atom-10 atom-35" d="M 157.9,76.6 L 161.5,81.2" style="fill:none;fill-rule:evenodd;stroke:#000000;stroke-width:2.0px;stroke-linecap:butt;stroke-linejoin:miter;stroke-opacity:1"/>
<path class="bond-34 atom-10 atom-35" d="M 161.5,81.2 L 165.0,85.7" style="fill:none;fill-rule:evenodd;stroke:#0000FF;stroke-width:2.0px;stroke-linecap:butt;stroke-linejoin:miter;stroke-opacity:1"/>
<path class="bond-35 atom-35 atom-36" d="M 169.2,88.1 L 175.5,87.2" style="fill:none;fill-rule:evenodd;stroke:#0000FF;stroke-width:2.0px;stroke-linecap:butt;stroke-linejoin:miter;stroke-opacity:1"/>
<path class="bond-35 atom-35 atom-36" d="M 175.5,87.2 L 181.8,86.3" style="fill:none;fill-rule:evenodd;stroke:#000000;stroke-width:2.0px;stroke-linecap:butt;stroke-linejoin:miter;stroke-opacity:1"/>
<path class="bond-35 atom-35 atom-36" d="M 168.9,85.8 L 174.5,85.0" style="fill:none;fill-rule:evenodd;stroke:#0000FF;stroke-width:2.0px;stroke-linecap:butt;stroke-linejoin:miter;stroke-opacity:1"/>
<path class="bond-35 atom-35 atom-36" d="M 174.5,85.0 L 180.2,84.2" style="fill:none;fill-rule:evenodd;stroke:#000000;stroke-width:2.0px;stroke-linecap:butt;stroke-linejoin:miter;stroke-opacity:1"/>
<path class="bond-36 atom-6 atom-37" d="M 203.2,67.8 L 205.5,62.2" style="fill:none;fill-rule:evenodd;stroke:#0000FF;stroke-width:2.0px;stroke-linecap:butt;stroke-linejoin:miter;stroke-opacity:1"/>
<path class="bond-36 atom-6 atom-37" d="M 205.5,62.2 L 207.7,56.6" style="fill:none;fill-rule:evenodd;stroke:#000000;stroke-width:2.0px;stroke-linecap:butt;stroke-linejoin:miter;stroke-opacity:1"/>
<path class="bond-37 atom-37 atom-38" d="M 207.7,56.6 L 222.5,54.5" style="fill:none;fill-rule:evenodd;stroke:#000000;stroke-width:2.0px;stroke-linecap:butt;stroke-linejoin:miter;stroke-opacity:1"/>
<path class="bond-38 atom-38 atom-3" d="M 222.5,54.5 L 226.1,59.2" style="fill:none;fill-rule:evenodd;stroke:#000000;stroke-width:2.0px;stroke-linecap:butt;stroke-linejoin:miter;stroke-opacity:1"/>
<path class="bond-38 atom-38 atom-3" d="M 226.1,59.2 L 229.8,63.9" style="fill:none;fill-rule:evenodd;stroke:#CCCC00;stroke-width:2.0px;stroke-linecap:butt;stroke-linejoin:miter;stroke-opacity:1"/>
<path class="bond-39 atom-36 atom-7" d="M 181.8,86.3 L 187.4,72.5" style="fill:none;fill-rule:evenodd;stroke:#000000;stroke-width:2.0px;stroke-linecap:butt;stroke-linejoin:miter;stroke-opacity:1"/>
<path class="bond-40 atom-34 atom-11" d="M 137.6,92.5 L 139.8,86.9" style="fill:none;fill-rule:evenodd;stroke:#000000;stroke-width:2.0px;stroke-linecap:butt;stroke-linejoin:miter;stroke-opacity:1"/>
<path class="bond-40 atom-34 atom-11" d="M 139.8,86.9 L 142.1,81.3" style="fill:none;fill-rule:evenodd;stroke:#0000FF;stroke-width:2.0px;stroke-linecap:butt;stroke-linejoin:miter;stroke-opacity:1"/>
<path class="bond-41 atom-23 atom-18" d="M 69.4,89.0 L 75.0,75.2" style="fill:none;fill-rule:evenodd;stroke:#000000;stroke-width:2.0px;stroke-linecap:butt;stroke-linejoin:miter;stroke-opacity:1"/>
<path class="bond-42 atom-34 atom-29" d="M 137.6,92.5 L 122.8,94.6" style="fill:none;fill-rule:evenodd;stroke:#000000;stroke-width:2.0px;stroke-linecap:butt;stroke-linejoin:miter;stroke-opacity:1"/>
<path class="bond-43 atom-28 atom-19" d="M 56.7,51.7 L 65.8,63.5" style="fill:none;fill-rule:evenodd;stroke:#000000;stroke-width:2.0px;stroke-linecap:butt;stroke-linejoin:miter;stroke-opacity:1"/>
<path class="bond-44 atom-27 atom-21" d="M 36.3,67.6 L 45.5,79.3" style="fill:none;fill-rule:evenodd;stroke:#000000;stroke-width:2.0px;stroke-linecap:butt;stroke-linejoin:miter;stroke-opacity:1"/>
<path d="M 226.2,79.8 L 226.1,80.1 L 225.3,80.2" style="fill:none;stroke:#000000;stroke-width:2.0px;stroke-linecap:butt;stroke-linejoin:miter;stroke-opacity:1;"/>
<path d="M 212.1,82.0 L 211.3,82.1 L 211.1,81.9" style="fill:none;stroke:#000000;stroke-width:2.0px;stroke-linecap:butt;stroke-linejoin:miter;stroke-opacity:1;"/>
<path d="M 178.7,61.3 L 178.2,60.7 L 177.5,60.8" style="fill:none;stroke:#000000;stroke-width:2.0px;stroke-linecap:butt;stroke-linejoin:miter;stroke-opacity:1;"/>
<path d="M 164.2,62.7 L 163.5,62.8 L 163.2,63.5" style="fill:none;stroke:#000000;stroke-width:2.0px;stroke-linecap:butt;stroke-linejoin:miter;stroke-opacity:1;"/>
<path d="M 134.2,67.2 L 134.0,66.9 L 133.3,67.0" style="fill:none;stroke:#000000;stroke-width:2.0px;stroke-linecap:butt;stroke-linejoin:miter;stroke-opacity:1;"/>
<path d="M 120.0,68.9 L 119.2,69.0 L 119.1,69.3" style="fill:none;stroke:#000000;stroke-width:2.0px;stroke-linecap:butt;stroke-linejoin:miter;stroke-opacity:1;"/>
<path d="M 99.2,84.8 L 98.9,84.9 L 98.7,84.6" style="fill:none;stroke:#000000;stroke-width:2.0px;stroke-linecap:butt;stroke-linejoin:miter;stroke-opacity:1;"/>
<path d="M 60.5,76.6 L 60.2,77.3 L 59.5,77.4" style="fill:none;stroke:#000000;stroke-width:2.0px;stroke-linecap:butt;stroke-linejoin:miter;stroke-opacity:1;"/>
<path d="M 54.2,90.5 L 54.7,91.1 L 55.4,91.0" style="fill:none;stroke:#000000;stroke-width:2.0px;stroke-linecap:butt;stroke-linejoin:miter;stroke-opacity:1;"/>
<path d="M 45.2,69.6 L 44.0,68.5 L 43.9,67.8" style="fill:none;stroke:#000000;stroke-width:2.0px;stroke-linecap:butt;stroke-linejoin:miter;stroke-opacity:1;"/>
<path d="M 36.6,66.9 L 36.3,67.6 L 36.8,68.2" style="fill:none;stroke:#000000;stroke-width:2.0px;stroke-linecap:butt;stroke-linejoin:miter;stroke-opacity:1;"/>
<path d="M 55.9,51.8 L 56.7,51.7 L 57.1,52.3" style="fill:none;stroke:#000000;stroke-width:2.0px;stroke-linecap:butt;stroke-linejoin:miter;stroke-opacity:1;"/>
<path d="M 117.5,107.7 L 117.2,108.4 L 117.7,108.9" style="fill:none;stroke:#000000;stroke-width:2.0px;stroke-linecap:butt;stroke-linejoin:miter;stroke-opacity:1;"/>
<path d="M 125.9,119.5 L 126.4,120.1 L 127.1,120.0" style="fill:none;stroke:#000000;stroke-width:2.0px;stroke-linecap:butt;stroke-linejoin:miter;stroke-opacity:1;"/>
<path d="M 140.4,118.1 L 141.2,118.0 L 141.4,117.3" style="fill:none;stroke:#000000;stroke-width:2.0px;stroke-linecap:butt;stroke-linejoin:miter;stroke-opacity:1;"/>
<path d="M 146.5,104.9 L 146.7,104.2 L 146.3,103.6" style="fill:none;stroke:#000000;stroke-width:2.0px;stroke-linecap:butt;stroke-linejoin:miter;stroke-opacity:1;"/>
<path d="M 181.5,86.3 L 181.8,86.3 L 182.1,85.6" style="fill:none;stroke:#000000;stroke-width:2.0px;stroke-linecap:butt;stroke-linejoin:miter;stroke-opacity:1;"/>
<path d="M 207.6,56.9 L 207.7,56.6 L 208.5,56.5" style="fill:none;stroke:#000000;stroke-width:2.0px;stroke-linecap:butt;stroke-linejoin:miter;stroke-opacity:1;"/>
<path d="M 221.8,54.6 L 222.5,54.5 L 222.7,54.8" style="fill:none;stroke:#000000;stroke-width:2.0px;stroke-linecap:butt;stroke-linejoin:miter;stroke-opacity:1;"/>
<path class="atom-0" d="M 268.4 73.9 Q 268.4 72.9, 268.9 72.3 Q 269.4 71.7, 270.3 71.7 Q 271.3 71.7, 271.8 72.3 Q 272.3 72.9, 272.3 73.9 Q 272.3 74.9, 271.8 75.5 Q 271.3 76.1, 270.3 76.1 Q 269.4 76.1, 268.9 75.5 Q 268.4 74.9, 268.4 73.9 M 270.3 75.6 Q 271.0 75.6, 271.3 75.2 Q 271.7 74.7, 271.7 73.9 Q 271.7 73.1, 271.3 72.6 Q 271.0 72.2, 270.3 72.2 Q 269.7 72.2, 269.3 72.6 Q 269.0 73.1, 269.0 73.9 Q 269.0 74.7, 269.3 75.2 Q 269.7 75.6, 270.3 75.6 " fill="#FF0000"/>
<path class="atom-1" d="M 254.6 73.8 L 256.0 76.1 Q 256.2 76.3, 256.4 76.7 Q 256.6 77.1, 256.6 77.1 L 256.6 73.8 L 257.2 73.8 L 257.2 78.1 L 256.6 78.1 L 255.1 75.6 Q 254.9 75.3, 254.8 75.0 Q 254.6 74.7, 254.5 74.6 L 254.5 78.1 L 254.0 78.1 L 254.0 73.8 L 254.6 73.8 " fill="#0000FF"/>
<path class="atom-2" d="M 245.5 62.1 L 246.9 64.3 Q 247.0 64.6, 247.2 65.0 Q 247.4 65.4, 247.5 65.4 L 247.5 62.1 L 248.0 62.1 L 248.0 66.3 L 247.4 66.3 L 245.9 63.9 Q 245.8 63.6, 245.6 63.3 Q 245.4 62.9, 245.4 62.8 L 245.4 66.3 L 244.8 66.3 L 244.8 62.1 L 245.5 62.1 " fill="#0000FF"/>
<path class="atom-3" d="M 230.5 67.7 Q 230.5 67.7, 230.7 67.8 Q 230.9 67.9, 231.1 68.0 Q 231.3 68.0, 231.6 68.0 Q 232.0 68.0, 232.2 67.8 Q 232.4 67.6, 232.4 67.3 Q 232.4 67.1, 232.3 66.9 Q 232.2 66.8, 232.0 66.7 Q 231.8 66.6, 231.5 66.5 Q 231.2 66.4, 230.9 66.3 Q 230.7 66.2, 230.5 66.0 Q 230.4 65.7, 230.4 65.3 Q 230.4 64.8, 230.7 64.5 Q 231.1 64.2, 231.8 64.2 Q 232.3 64.2, 232.9 64.4 L 232.7 64.9 Q 232.2 64.6, 231.9 64.6 Q 231.4 64.6, 231.2 64.8 Q 231.0 65.0, 231.0 65.3 Q 231.0 65.5, 231.1 65.6 Q 231.2 65.8, 231.4 65.9 Q 231.6 65.9, 231.9 66.0 Q 232.2 66.1, 232.5 66.3 Q 232.7 66.4, 232.9 66.6 Q 233.0 66.9, 233.0 67.3 Q 233.0 67.9, 232.6 68.2 Q 232.2 68.5, 231.6 68.5 Q 231.2 68.5, 230.9 68.4 Q 230.6 68.3, 230.3 68.2 L 230.5 67.7 " fill="#CCCC00"/>
<path class="atom-6" d="M 201.2 68.3 L 202.6 70.5 Q 202.8 70.8, 203.0 71.2 Q 203.2 71.6, 203.2 71.6 L 203.2 68.3 L 203.8 68.3 L 203.8 72.5 L 203.2 72.5 L 201.7 70.1 Q 201.5 69.8, 201.3 69.5 Q 201.2 69.1, 201.1 69.0 L 201.1 72.5 L 200.5 72.5 L 200.5 68.3 L 201.2 68.3 " fill="#0000FF"/>
<path class="atom-11" d="M 142.2 76.6 L 143.6 78.8 Q 143.7 79.0, 144.0 79.4 Q 144.2 79.8, 144.2 79.9 L 144.2 76.6 L 144.8 76.6 L 144.8 80.8 L 144.2 80.8 L 142.7 78.3 Q 142.5 78.1, 142.3 77.7 Q 142.2 77.4, 142.1 77.3 L 142.1 80.8 L 141.5 80.8 L 141.5 76.6 L 142.2 76.6 " fill="#0000FF"/>
<path class="atom-14" d="M 112.7 80.7 L 114.1 82.9 Q 114.2 83.2, 114.5 83.6 Q 114.7 84.0, 114.7 84.0 L 114.7 80.7 L 115.3 80.7 L 115.3 84.9 L 114.7 84.9 L 113.2 82.5 Q 113.0 82.2, 112.8 81.9 Q 112.7 81.5, 112.6 81.4 L 112.6 84.9 L 112.0 84.9 L 112.0 80.7 L 112.7 80.7 " fill="#0000FF"/>
<path class="atom-16" d="M 91.4 98.7 Q 91.4 97.7, 91.9 97.1 Q 92.4 96.5, 93.3 96.5 Q 94.3 96.5, 94.8 97.1 Q 95.3 97.7, 95.3 98.7 Q 95.3 99.7, 94.8 100.3 Q 94.3 100.9, 93.3 100.9 Q 92.4 100.9, 91.9 100.3 Q 91.4 99.7, 91.4 98.7 M 93.3 100.4 Q 94.0 100.4, 94.3 100.0 Q 94.7 99.5, 94.7 98.7 Q 94.7 97.9, 94.3 97.4 Q 94.0 97.0, 93.3 97.0 Q 92.7 97.0, 92.3 97.4 Q 92.0 97.9, 92.0 98.7 Q 92.0 99.6, 92.3 100.0 Q 92.7 100.4, 93.3 100.4 " fill="#FF0000"/>
<path class="atom-17" d="M 88.8 71.0 L 90.2 73.3 Q 90.3 73.5, 90.6 73.9 Q 90.8 74.3, 90.8 74.3 L 90.8 71.0 L 91.4 71.0 L 91.4 75.3 L 90.8 75.3 L 89.3 72.8 Q 89.1 72.5, 88.9 72.2 Q 88.7 71.9, 88.7 71.8 L 88.7 75.3 L 88.1 75.3 L 88.1 71.0 L 88.8 71.0 " fill="#0000FF"/>
<path class="atom-17" d="M 92.2 71.0 L 92.8 71.0 L 92.8 72.8 L 94.9 72.8 L 94.9 71.0 L 95.5 71.0 L 95.5 75.3 L 94.9 75.3 L 94.9 73.3 L 92.8 73.3 L 92.8 75.3 L 92.2 75.3 L 92.2 71.0 " fill="#0000FF"/>
<path class="atom-26" d="M 26.6 39.9 L 27.2 39.9 L 27.2 41.8 L 29.3 41.8 L 29.3 39.9 L 29.9 39.9 L 29.9 44.2 L 29.3 44.2 L 29.3 42.2 L 27.2 42.2 L 27.2 44.2 L 26.6 44.2 L 26.6 39.9 " fill="#FF0000"/>
<path class="atom-26" d="M 30.8 42.1 Q 30.8 41.0, 31.3 40.5 Q 31.8 39.9, 32.7 39.9 Q 33.7 39.9, 34.2 40.5 Q 34.7 41.0, 34.7 42.1 Q 34.7 43.1, 34.2 43.7 Q 33.7 44.3, 32.7 44.3 Q 31.8 44.3, 31.3 43.7 Q 30.8 43.1, 30.8 42.1 M 32.7 43.8 Q 33.4 43.8, 33.7 43.4 Q 34.1 42.9, 34.1 42.1 Q 34.1 41.2, 33.7 40.8 Q 33.4 40.4, 32.7 40.4 Q 32.1 40.4, 31.7 40.8 Q 31.4 41.2, 31.4 42.1 Q 31.4 42.9, 31.7 43.4 Q 32.1 43.8, 32.7 43.8 " fill="#FF0000"/>
<path class="atom-35" d="M 166.1 86.2 L 167.5 88.5 Q 167.7 88.7, 167.9 89.1 Q 168.1 89.5, 168.1 89.5 L 168.1 86.2 L 168.7 86.2 L 168.7 90.5 L 168.1 90.5 L 166.6 88.0 Q 166.4 87.7, 166.2 87.4 Q 166.1 87.1, 166.0 87.0 L 166.0 90.5 L 165.5 90.5 L 165.5 86.2 L 166.1 86.2 " fill="#0000FF"/>
<path class="atom-0" d="M 273.5,73.9 L 273.5,73.9 L 273.5,73.9 L 273.5,74.0 L 273.5,74.0 L 273.4,74.0 L 273.4,74.0 L 273.4,74.0 L 273.4,74.1 L 273.4,74.1 L 273.4,74.1 L 273.4,74.1 L 273.3,74.1 L 273.3,74.1 L 273.3,74.2 L 273.3,74.2 L 273.2,74.2 L 273.2,74.2 L 273.2,74.2 L 273.2,74.2 L 273.1,74.2 L 273.1,74.2 L 273.1,74.2 L 273.1,74.2 L 273.0,74.1 L 273.0,74.1 L 273.0,74.1 L 273.0,74.1 L 273.0,74.1 L 272.9,74.1 L 272.9,74.0 L 272.9,74.0 L 272.9,74.0 L 272.9,74.0 L 272.9,73.9 L 272.9,73.9 L 272.9,73.9 L 272.9,73.9 L 272.9,73.8 L 272.9,73.8 L 272.9,73.8 L 272.9,73.8 L 272.9,73.7 L 272.9,73.7 L 272.9,73.7 L 273.0,73.7 L 273.0,73.7 L 273.0,73.6 L 273.0,73.6 L 273.0,73.6 L 273.1,73.6 L 273.1,73.6 L 273.1,73.6 L 273.1,73.6 L 273.2,73.6 L 273.2,73.6 L 273.2,73.6 L 273.2,73.6 L 273.3,73.6 L 273.3,73.6 L 273.3,73.6 L 273.3,73.6 L 273.4,73.6 L 273.4,73.7 L 273.4,73.7 L 273.4,73.7 L 273.4,73.7 L 273.4,73.7 L 273.4,73.8 L 273.5,73.8 L 273.5,73.8 L 273.5,73.8 L 273.5,73.9 L 273.5,73.9 L 273.2,73.9 Z" style="fill:#000000;fill-rule:evenodd;fill-opacity:1;stroke:#000000;stroke-width:0.0px;stroke-linecap:butt;stroke-linejoin:miter;stroke-opacity:1;"/>
<path class="atom-1" d="M 253.4,75.9 L 253.4,76.0 L 253.4,76.0 L 253.4,76.0 L 253.3,76.0 L 253.3,76.1 L 253.3,76.1 L 253.3,76.1 L 253.3,76.1 L 253.3,76.2 L 253.3,76.2 L 253.2,76.2 L 253.2,76.2 L 253.2,76.2 L 253.2,76.2 L 253.1,76.2 L 253.1,76.2 L 253.1,76.2 L 253.1,76.2 L 253.0,76.2 L 253.0,76.2 L 253.0,76.2 L 253.0,76.2 L 252.9,76.2 L 252.9,76.2 L 252.9,76.2 L 252.9,76.2 L 252.9,76.2 L 252.8,76.1 L 252.8,76.1 L 252.8,76.1 L 252.8,76.1 L 252.8,76.1 L 252.8,76.0 L 252.8,76.0 L 252.8,76.0 L 252.8,76.0 L 252.8,75.9 L 252.8,75.9 L 252.8,75.9 L 252.8,75.9 L 252.8,75.8 L 252.8,75.8 L 252.8,75.8 L 252.8,75.8 L 252.8,75.7 L 252.9,75.7 L 252.9,75.7 L 252.9,75.7 L 252.9,75.7 L 252.9,75.7 L 253.0,75.7 L 253.0,75.7 L 253.0,75.6 L 253.0,75.6 L 253.1,75.6 L 253.1,75.6 L 253.1,75.7 L 253.1,75.7 L 253.2,75.7 L 253.2,75.7 L 253.2,75.7 L 253.2,75.7 L 253.3,75.7 L 253.3,75.7 L 253.3,75.8 L 253.3,75.8 L 253.3,75.8 L 253.3,75.8 L 253.3,75.8 L 253.4,75.9 L 253.4,75.9 L 253.4,75.9 L 253.4,75.9 L 253.1,75.9 Z" style="fill:#000000;fill-rule:evenodd;fill-opacity:1;stroke:#000000;stroke-width:0.0px;stroke-linecap:butt;stroke-linejoin:miter;stroke-opacity:1;"/>
<path class="atom-2" d="M 249.2,64.2 L 249.2,64.2 L 249.2,64.3 L 249.2,64.3 L 249.2,64.3 L 249.2,64.3 L 249.2,64.4 L 249.2,64.4 L 249.2,64.4 L 249.1,64.4 L 249.1,64.4 L 249.1,64.4 L 249.1,64.5 L 249.1,64.5 L 249.0,64.5 L 249.0,64.5 L 249.0,64.5 L 249.0,64.5 L 248.9,64.5 L 248.9,64.5 L 248.9,64.5 L 248.9,64.5 L 248.8,64.5 L 248.8,64.5 L 248.8,64.5 L 248.8,64.5 L 248.7,64.4 L 248.7,64.4 L 248.7,64.4 L 248.7,64.4 L 248.7,64.4 L 248.7,64.3 L 248.6,64.3 L 248.6,64.3 L 248.6,64.3 L 248.6,64.2 L 248.6,64.2 L 248.6,64.2 L 248.6,64.2 L 248.6,64.1 L 248.6,64.1 L 248.6,64.1 L 248.7,64.1 L 248.7,64.0 L 248.7,64.0 L 248.7,64.0 L 248.7,64.0 L 248.7,64.0 L 248.8,64.0 L 248.8,63.9 L 248.8,63.9 L 248.8,63.9 L 248.9,63.9 L 248.9,63.9 L 248.9,63.9 L 248.9,63.9 L 249.0,63.9 L 249.0,63.9 L 249.0,63.9 L 249.0,63.9 L 249.1,63.9 L 249.1,63.9 L 249.1,64.0 L 249.1,64.0 L 249.1,64.0 L 249.2,64.0 L 249.2,64.0 L 249.2,64.1 L 249.2,64.1 L 249.2,64.1 L 249.2,64.1 L 249.2,64.2 L 249.2,64.2 L 249.2,64.2 L 248.9,64.2 Z" style="fill:#000000;fill-rule:evenodd;fill-opacity:1;stroke:#000000;stroke-width:0.0px;stroke-linecap:butt;stroke-linejoin:miter;stroke-opacity:1;"/>
<path class="atom-3" d="M 229.7,66.3 L 229.7,66.3 L 229.7,66.3 L 229.7,66.3 L 229.7,66.4 L 229.7,66.4 L 229.7,66.4 L 229.6,66.4 L 229.6,66.5 L 229.6,66.5 L 229.6,66.5 L 229.6,66.5 L 229.6,66.5 L 229.5,66.5 L 229.5,66.6 L 229.5,66.6 L 229.5,66.6 L 229.4,66.6 L 229.4,66.6 L 229.4,66.6 L 229.4,66.6 L 229.3,66.6 L 229.3,66.6 L 229.3,66.5 L 229.3,66.5 L 229.2,66.5 L 229.2,66.5 L 229.2,66.5 L 229.2,66.5 L 229.2,66.5 L 229.1,66.4 L 229.1,66.4 L 229.1,66.4 L 229.1,66.4 L 229.1,66.3 L 229.1,66.3 L 229.1,66.3 L 229.1,66.3 L 229.1,66.2 L 229.1,66.2 L 229.1,66.2 L 229.1,66.2 L 229.1,66.1 L 229.1,66.1 L 229.2,66.1 L 229.2,66.1 L 229.2,66.1 L 229.2,66.0 L 229.2,66.0 L 229.3,66.0 L 229.3,66.0 L 229.3,66.0 L 229.3,66.0 L 229.4,66.0 L 229.4,66.0 L 229.4,66.0 L 229.4,66.0 L 229.5,66.0 L 229.5,66.0 L 229.5,66.0 L 229.5,66.0 L 229.6,66.0 L 229.6,66.0 L 229.6,66.0 L 229.6,66.1 L 229.6,66.1 L 229.6,66.1 L 229.7,66.1 L 229.7,66.1 L 229.7,66.2 L 229.7,66.2 L 229.7,66.2 L 229.7,66.2 L 229.7,66.3 L 229.4,66.3 Z" style="fill:#000000;fill-rule:evenodd;fill-opacity:1;stroke:#000000;stroke-width:0.0px;stroke-linecap:butt;stroke-linejoin:miter;stroke-opacity:1;"/>
<path class="bond-0 atom-0 atom-1" d="M 580.9,63.8 L 576.7,66.2" style="fill:none;fill-rule:evenodd;stroke:#FF0000;stroke-width:2.0px;stroke-linecap:butt;stroke-linejoin:miter;stroke-opacity:1"/>
<path class="bond-0 atom-0 atom-1" d="M 576.7,66.2 L 572.5,68.5" style="fill:none;fill-rule:evenodd;stroke:#0000FF;stroke-width:2.0px;stroke-linecap:butt;stroke-linejoin:miter;stroke-opacity:1"/>
<path class="bond-1 atom-1 atom-2" d="M 568.3,68.5 L 559.6,63.5" style="fill:none;fill-rule:evenodd;stroke:#0000FF;stroke-width:2.0px;stroke-linecap:butt;stroke-linejoin:miter;stroke-opacity:1"/>
<path class="bond-2 atom-2 atom-3" d="M 555.4,63.4 L 550.0,66.5" style="fill:none;fill-rule:evenodd;stroke:#0000FF;stroke-width:2.0px;stroke-linecap:butt;stroke-linejoin:miter;stroke-opacity:1"/>
<path class="bond-2 atom-2 atom-3" d="M 550.0,66.5 L 544.6,69.6" style="fill:none;fill-rule:evenodd;stroke:#000000;stroke-width:2.0px;stroke-linecap:butt;stroke-linejoin:miter;stroke-opacity:1"/>
<path class="bond-3 atom-3 atom-4" d="M 544.6,69.6 L 531.7,62.1" style="fill:none;fill-rule:evenodd;stroke:#000000;stroke-width:2.0px;stroke-linecap:butt;stroke-linejoin:miter;stroke-opacity:1"/>
<path class="bond-4 atom-4 atom-5" d="M 531.7,62.1 L 526.3,65.1" style="fill:none;fill-rule:evenodd;stroke:#000000;stroke-width:2.0px;stroke-linecap:butt;stroke-linejoin:miter;stroke-opacity:1"/>
<path class="bond-4 atom-4 atom-5" d="M 526.3,65.1 L 520.9,68.2" style="fill:none;fill-rule:evenodd;stroke:#0000FF;stroke-width:2.0px;stroke-linecap:butt;stroke-linejoin:miter;stroke-opacity:1"/>
<path class="bond-5 atom-5 atom-6" d="M 516.7,68.0 L 511.6,64.5" style="fill:none;fill-rule:evenodd;stroke:#0000FF;stroke-width:2.0px;stroke-linecap:butt;stroke-linejoin:miter;stroke-opacity:1"/>
<path class="bond-5 atom-5 atom-6" d="M 511.6,64.5 L 506.5,61.0" style="fill:none;fill-rule:evenodd;stroke:#000000;stroke-width:2.0px;stroke-linecap:butt;stroke-linejoin:miter;stroke-opacity:1"/>
<path class="bond-6 atom-6 atom-7" d="M 506.5,61.0 L 492.3,65.3" style="fill:none;fill-rule:evenodd;stroke:#000000;stroke-width:2.0px;stroke-linecap:butt;stroke-linejoin:miter;stroke-opacity:1"/>
<path class="bond-7 atom-7 atom-8" d="M 492.3,65.3 L 490.0,70.9" style="fill:none;fill-rule:evenodd;stroke:#000000;stroke-width:2.0px;stroke-linecap:butt;stroke-linejoin:miter;stroke-opacity:1"/>
<path class="bond-7 atom-7 atom-8" d="M 490.0,70.9 L 487.8,76.5" style="fill:none;fill-rule:evenodd;stroke:#0000FF;stroke-width:2.0px;stroke-linecap:butt;stroke-linejoin:miter;stroke-opacity:1"/>
<path class="bond-8 atom-8 atom-9" d="M 484.6,79.2 L 478.3,79.7" style="fill:none;fill-rule:evenodd;stroke:#0000FF;stroke-width:2.0px;stroke-linecap:butt;stroke-linejoin:miter;stroke-opacity:1"/>
<path class="bond-8 atom-8 atom-9" d="M 478.3,79.7 L 471.9,80.1" style="fill:none;fill-rule:evenodd;stroke:#000000;stroke-width:2.0px;stroke-linecap:butt;stroke-linejoin:miter;stroke-opacity:1"/>
<path class="bond-9 atom-9 atom-10" d="M 471.9,80.1 L 463.6,67.8" style="fill:none;fill-rule:evenodd;stroke:#000000;stroke-width:2.0px;stroke-linecap:butt;stroke-linejoin:miter;stroke-opacity:1"/>
<path class="bond-9 atom-9 atom-10" d="M 469.2,80.3 L 462.4,70.1" style="fill:none;fill-rule:evenodd;stroke:#000000;stroke-width:2.0px;stroke-linecap:butt;stroke-linejoin:miter;stroke-opacity:1"/>
<path class="bond-10 atom-10 atom-11" d="M 463.6,67.8 L 448.7,68.8" style="fill:none;fill-rule:evenodd;stroke:#000000;stroke-width:2.0px;stroke-linecap:butt;stroke-linejoin:miter;stroke-opacity:1"/>
<path class="bond-11 atom-11 atom-12" d="M 448.7,68.8 L 442.2,82.1" style="fill:none;fill-rule:evenodd;stroke:#000000;stroke-width:2.0px;stroke-linecap:butt;stroke-linejoin:miter;stroke-opacity:1"/>
<path class="bond-11 atom-11 atom-12" d="M 450.2,71.0 L 444.8,82.0" style="fill:none;fill-rule:evenodd;stroke:#000000;stroke-width:2.0px;stroke-linecap:butt;stroke-linejoin:miter;stroke-opacity:1"/>
<path class="bond-12 atom-12 atom-13" d="M 442.2,82.1 L 435.8,82.6" style="fill:none;fill-rule:evenodd;stroke:#000000;stroke-width:2.0px;stroke-linecap:butt;stroke-linejoin:miter;stroke-opacity:1"/>
<path class="bond-12 atom-12 atom-13" d="M 435.8,82.6 L 429.4,83.0" style="fill:none;fill-rule:evenodd;stroke:#0000FF;stroke-width:2.0px;stroke-linecap:butt;stroke-linejoin:miter;stroke-opacity:1"/>
<path class="bond-13 atom-13 atom-14" d="M 425.5,80.5 L 422.3,75.7" style="fill:none;fill-rule:evenodd;stroke:#0000FF;stroke-width:2.0px;stroke-linecap:butt;stroke-linejoin:miter;stroke-opacity:1"/>
<path class="bond-13 atom-13 atom-14" d="M 422.3,75.7 L 419.0,70.8" style="fill:none;fill-rule:evenodd;stroke:#000000;stroke-width:2.0px;stroke-linecap:butt;stroke-linejoin:miter;stroke-opacity:1"/>
<path class="bond-14 atom-14 atom-15" d="M 419.0,70.8 L 404.1,71.8" style="fill:none;fill-rule:evenodd;stroke:#000000;stroke-width:2.0px;stroke-linecap:butt;stroke-linejoin:miter;stroke-opacity:1"/>
<path class="bond-15 atom-15 atom-16" d="M 404.1,71.8 L 401.5,77.2" style="fill:none;fill-rule:evenodd;stroke:#000000;stroke-width:2.0px;stroke-linecap:butt;stroke-linejoin:miter;stroke-opacity:1"/>
<path class="bond-15 atom-15 atom-16" d="M 401.5,77.2 L 398.9,82.6" style="fill:none;fill-rule:evenodd;stroke:#0000FF;stroke-width:2.0px;stroke-linecap:butt;stroke-linejoin:miter;stroke-opacity:1"/>
<path class="bond-16 atom-16 atom-17" d="M 395.5,85.4 L 389.1,85.8" style="fill:none;fill-rule:evenodd;stroke:#0000FF;stroke-width:2.0px;stroke-linecap:butt;stroke-linejoin:miter;stroke-opacity:1"/>
<path class="bond-16 atom-16 atom-17" d="M 389.1,85.8 L 382.7,86.2" style="fill:none;fill-rule:evenodd;stroke:#000000;stroke-width:2.0px;stroke-linecap:butt;stroke-linejoin:miter;stroke-opacity:1"/>
<path class="bond-17 atom-17 atom-18" d="M 382.0,85.1 L 379.2,90.8" style="fill:none;fill-rule:evenodd;stroke:#000000;stroke-width:2.0px;stroke-linecap:butt;stroke-linejoin:miter;stroke-opacity:1"/>
<path class="bond-17 atom-17 atom-18" d="M 379.2,90.8 L 376.4,96.5" style="fill:none;fill-rule:evenodd;stroke:#FF0000;stroke-width:2.0px;stroke-linecap:butt;stroke-linejoin:miter;stroke-opacity:1"/>
<path class="bond-17 atom-17 atom-18" d="M 384.0,86.1 L 381.3,91.8" style="fill:none;fill-rule:evenodd;stroke:#000000;stroke-width:2.0px;stroke-linecap:butt;stroke-linejoin:miter;stroke-opacity:1"/>
<path class="bond-17 atom-17 atom-18" d="M 381.3,91.8 L 378.5,97.5" style="fill:none;fill-rule:evenodd;stroke:#FF0000;stroke-width:2.0px;stroke-linecap:butt;stroke-linejoin:miter;stroke-opacity:1"/>
<path class="bond-18 atom-17 atom-19" d="M 382.7,86.2 L 379.4,81.4" style="fill:none;fill-rule:evenodd;stroke:#000000;stroke-width:2.0px;stroke-linecap:butt;stroke-linejoin:miter;stroke-opacity:1"/>
<path class="bond-18 atom-17 atom-19" d="M 379.4,81.4 L 376.2,76.5" style="fill:none;fill-rule:evenodd;stroke:#0000FF;stroke-width:2.0px;stroke-linecap:butt;stroke-linejoin:miter;stroke-opacity:1"/>
<path class="bond-19 atom-19 atom-20" d="M 372.3,74.0 L 365.9,74.5" style="fill:none;fill-rule:evenodd;stroke:#0000FF;stroke-width:2.0px;stroke-linecap:butt;stroke-linejoin:miter;stroke-opacity:1"/>
<path class="bond-19 atom-19 atom-20" d="M 365.9,74.5 L 359.5,74.9" style="fill:none;fill-rule:evenodd;stroke:#000000;stroke-width:2.0px;stroke-linecap:butt;stroke-linejoin:miter;stroke-opacity:1"/>
<path class="bond-20 atom-20 atom-21" d="M 359.5,74.9 L 351.2,62.5" style="fill:none;fill-rule:evenodd;stroke:#000000;stroke-width:2.0px;stroke-linecap:butt;stroke-linejoin:miter;stroke-opacity:1"/>
<path class="bond-21 atom-21 atom-22" d="M 351.2,62.5 L 344.7,75.9" style="fill:none;fill-rule:evenodd;stroke:#000000;stroke-width:2.0px;stroke-linecap:butt;stroke-linejoin:miter;stroke-opacity:1"/>
<path class="bond-22 atom-22 atom-23" d="M 344.7,75.9 L 329.8,76.9" style="fill:none;fill-rule:evenodd;stroke:#000000;stroke-width:2.0px;stroke-linecap:butt;stroke-linejoin:miter;stroke-opacity:1"/>
<path class="bond-23 atom-23 atom-24" d="M 329.8,76.9 L 338.1,89.3" style="fill:none;fill-rule:evenodd;stroke:#000000;stroke-width:2.0px;stroke-linecap:butt;stroke-linejoin:miter;stroke-opacity:1"/>
<path class="bond-24 atom-24 atom-25" d="M 338.1,89.3 L 353.0,88.3" style="fill:none;fill-rule:evenodd;stroke:#000000;stroke-width:2.0px;stroke-linecap:butt;stroke-linejoin:miter;stroke-opacity:1"/>
<path class="bond-25 atom-25 atom-26" d="M 353.0,88.3 L 329.1,66.1" style="fill:none;fill-rule:evenodd;stroke:#000000;stroke-width:2.0px;stroke-linecap:butt;stroke-linejoin:miter;stroke-opacity:1"/>
<path class="bond-26 atom-26 atom-27" d="M 329.1,66.1 L 328.1,51.2" style="fill:none;fill-rule:evenodd;stroke:#000000;stroke-width:2.0px;stroke-linecap:butt;stroke-linejoin:miter;stroke-opacity:1"/>
<path class="bond-27 atom-27 atom-28" d="M 328.1,51.2 L 324.8,46.4" style="fill:none;fill-rule:evenodd;stroke:#000000;stroke-width:2.0px;stroke-linecap:butt;stroke-linejoin:miter;stroke-opacity:1"/>
<path class="bond-27 atom-27 atom-28" d="M 324.8,46.4 L 321.6,41.6" style="fill:none;fill-rule:evenodd;stroke:#FF0000;stroke-width:2.0px;stroke-linecap:butt;stroke-linejoin:miter;stroke-opacity:1"/>
<path class="bond-28 atom-27 atom-29" d="M 328.1,51.2 L 321.5,64.6" style="fill:none;fill-rule:evenodd;stroke:#000000;stroke-width:2.0px;stroke-linecap:butt;stroke-linejoin:miter;stroke-opacity:1"/>
<path class="bond-29 atom-27 atom-30" d="M 328.1,51.2 L 342.9,50.2" style="fill:none;fill-rule:evenodd;stroke:#000000;stroke-width:2.0px;stroke-linecap:butt;stroke-linejoin:miter;stroke-opacity:1"/>
<path class="bond-30 atom-16 atom-31" d="M 399.3,87.8 L 402.6,92.7" style="fill:none;fill-rule:evenodd;stroke:#0000FF;stroke-width:2.0px;stroke-linecap:butt;stroke-linejoin:miter;stroke-opacity:1"/>
<path class="bond-30 atom-16 atom-31" d="M 402.6,92.7 L 405.9,97.6" style="fill:none;fill-rule:evenodd;stroke:#000000;stroke-width:2.0px;stroke-linecap:butt;stroke-linejoin:miter;stroke-opacity:1"/>
<path class="bond-31 atom-31 atom-32" d="M 405.9,97.6 L 399.4,110.9" style="fill:none;fill-rule:evenodd;stroke:#000000;stroke-width:2.0px;stroke-linecap:butt;stroke-linejoin:miter;stroke-opacity:1"/>
<path class="bond-31 atom-31 atom-32" d="M 407.4,99.8 L 402.0,110.8" style="fill:none;fill-rule:evenodd;stroke:#000000;stroke-width:2.0px;stroke-linecap:butt;stroke-linejoin:miter;stroke-opacity:1"/>
<path class="bond-32 atom-32 atom-33" d="M 399.4,110.9 L 407.7,123.3" style="fill:none;fill-rule:evenodd;stroke:#000000;stroke-width:2.0px;stroke-linecap:butt;stroke-linejoin:miter;stroke-opacity:1"/>
<path class="bond-33 atom-33 atom-34" d="M 407.7,123.3 L 422.5,122.3" style="fill:none;fill-rule:evenodd;stroke:#000000;stroke-width:2.0px;stroke-linecap:butt;stroke-linejoin:miter;stroke-opacity:1"/>
<path class="bond-33 atom-33 atom-34" d="M 408.8,120.9 L 421.0,120.1" style="fill:none;fill-rule:evenodd;stroke:#000000;stroke-width:2.0px;stroke-linecap:butt;stroke-linejoin:miter;stroke-opacity:1"/>
<path class="bond-34 atom-34 atom-35" d="M 422.5,122.3 L 429.1,108.9" style="fill:none;fill-rule:evenodd;stroke:#000000;stroke-width:2.0px;stroke-linecap:butt;stroke-linejoin:miter;stroke-opacity:1"/>
<path class="bond-35 atom-35 atom-36" d="M 429.1,108.9 L 420.8,96.5" style="fill:none;fill-rule:evenodd;stroke:#000000;stroke-width:2.0px;stroke-linecap:butt;stroke-linejoin:miter;stroke-opacity:1"/>
<path class="bond-35 atom-35 atom-36" d="M 426.4,109.1 L 419.6,98.9" style="fill:none;fill-rule:evenodd;stroke:#000000;stroke-width:2.0px;stroke-linecap:butt;stroke-linejoin:miter;stroke-opacity:1"/>
<path class="bond-36 atom-12 atom-37" d="M 442.2,82.1 L 445.4,87.0" style="fill:none;fill-rule:evenodd;stroke:#000000;stroke-width:2.0px;stroke-linecap:butt;stroke-linejoin:miter;stroke-opacity:1"/>
<path class="bond-36 atom-12 atom-37" d="M 445.4,87.0 L 448.7,91.9" style="fill:none;fill-rule:evenodd;stroke:#0000FF;stroke-width:2.0px;stroke-linecap:butt;stroke-linejoin:miter;stroke-opacity:1"/>
<path class="bond-37 atom-37 atom-38" d="M 452.6,94.4 L 459.0,93.9" style="fill:none;fill-rule:evenodd;stroke:#0000FF;stroke-width:2.0px;stroke-linecap:butt;stroke-linejoin:miter;stroke-opacity:1"/>
<path class="bond-37 atom-37 atom-38" d="M 459.0,93.9 L 465.3,93.5" style="fill:none;fill-rule:evenodd;stroke:#000000;stroke-width:2.0px;stroke-linecap:butt;stroke-linejoin:miter;stroke-opacity:1"/>
<path class="bond-37 atom-37 atom-38" d="M 452.4,92.1 L 458.1,91.7" style="fill:none;fill-rule:evenodd;stroke:#0000FF;stroke-width:2.0px;stroke-linecap:butt;stroke-linejoin:miter;stroke-opacity:1"/>
<path class="bond-37 atom-37 atom-38" d="M 458.1,91.7 L 463.9,91.3" style="fill:none;fill-rule:evenodd;stroke:#000000;stroke-width:2.0px;stroke-linecap:butt;stroke-linejoin:miter;stroke-opacity:1"/>
<path class="bond-38 atom-8 atom-39" d="M 488.2,81.7 L 491.2,86.9" style="fill:none;fill-rule:evenodd;stroke:#0000FF;stroke-width:2.0px;stroke-linecap:butt;stroke-linejoin:miter;stroke-opacity:1"/>
<path class="bond-38 atom-8 atom-39" d="M 491.2,86.9 L 494.1,92.0" style="fill:none;fill-rule:evenodd;stroke:#000000;stroke-width:2.0px;stroke-linecap:butt;stroke-linejoin:miter;stroke-opacity:1"/>
<path class="bond-39 atom-39 atom-40" d="M 494.1,92.0 L 500.5,93.0" style="fill:none;fill-rule:evenodd;stroke:#000000;stroke-width:2.0px;stroke-linecap:butt;stroke-linejoin:miter;stroke-opacity:1"/>
<path class="bond-39 atom-39 atom-40" d="M 500.5,93.0 L 507.0,94.1" style="fill:none;fill-rule:evenodd;stroke:#FF7F00;stroke-width:2.0px;stroke-linecap:butt;stroke-linejoin:miter;stroke-opacity:1"/>
<path class="bond-40 atom-40 atom-41" d="M 510.7,92.6 L 514.3,89.3" style="fill:none;fill-rule:evenodd;stroke:#FF7F00;stroke-width:2.0px;stroke-linecap:butt;stroke-linejoin:miter;stroke-opacity:1"/>
<path class="bond-40 atom-40 atom-41" d="M 514.3,89.3 L 517.9,86.0" style="fill:none;fill-rule:evenodd;stroke:#CCCC00;stroke-width:2.0px;stroke-linecap:butt;stroke-linejoin:miter;stroke-opacity:1"/>
<path class="bond-41 atom-41 atom-5" d="M 519.6,81.7 L 519.3,76.9" style="fill:none;fill-rule:evenodd;stroke:#CCCC00;stroke-width:2.0px;stroke-linecap:butt;stroke-linejoin:miter;stroke-opacity:1"/>
<path class="bond-41 atom-41 atom-5" d="M 519.3,76.9 L 519.0,72.1" style="fill:none;fill-rule:evenodd;stroke:#0000FF;stroke-width:2.0px;stroke-linecap:butt;stroke-linejoin:miter;stroke-opacity:1"/>
<path class="bond-42 atom-38 atom-9" d="M 465.3,93.5 L 471.9,80.1" style="fill:none;fill-rule:evenodd;stroke:#000000;stroke-width:2.0px;stroke-linecap:butt;stroke-linejoin:miter;stroke-opacity:1"/>
<path class="bond-43 atom-36 atom-13" d="M 420.8,96.5 L 423.4,91.2" style="fill:none;fill-rule:evenodd;stroke:#000000;stroke-width:2.0px;stroke-linecap:butt;stroke-linejoin:miter;stroke-opacity:1"/>
<path class="bond-43 atom-36 atom-13" d="M 423.4,91.2 L 426.0,85.8" style="fill:none;fill-rule:evenodd;stroke:#0000FF;stroke-width:2.0px;stroke-linecap:butt;stroke-linejoin:miter;stroke-opacity:1"/>
<path class="bond-44 atom-25 atom-20" d="M 353.0,88.3 L 359.5,74.9" style="fill:none;fill-rule:evenodd;stroke:#000000;stroke-width:2.0px;stroke-linecap:butt;stroke-linejoin:miter;stroke-opacity:1"/>
<path class="bond-45 atom-36 atom-31" d="M 420.8,96.5 L 405.9,97.6" style="fill:none;fill-rule:evenodd;stroke:#000000;stroke-width:2.0px;stroke-linecap:butt;stroke-linejoin:miter;stroke-opacity:1"/>
<path class="bond-46 atom-30 atom-21" d="M 342.9,50.2 L 351.2,62.5" style="fill:none;fill-rule:evenodd;stroke:#000000;stroke-width:2.0px;stroke-linecap:butt;stroke-linejoin:miter;stroke-opacity:1"/>
<path class="bond-47 atom-29 atom-23" d="M 321.5,64.6 L 329.8,76.9" style="fill:none;fill-rule:evenodd;stroke:#000000;stroke-width:2.0px;stroke-linecap:butt;stroke-linejoin:miter;stroke-opacity:1"/>
<path d="M 544.8,69.4 L 544.6,69.6 L 543.9,69.2" style="fill:none;stroke:#000000;stroke-width:2.0px;stroke-linecap:butt;stroke-linejoin:miter;stroke-opacity:1;"/>
<path d="M 532.4,62.4 L 531.7,62.1 L 531.5,62.2" style="fill:none;stroke:#000000;stroke-width:2.0px;stroke-linecap:butt;stroke-linejoin:miter;stroke-opacity:1;"/>
<path d="M 506.8,61.1 L 506.5,61.0 L 505.8,61.2" style="fill:none;stroke:#000000;stroke-width:2.0px;stroke-linecap:butt;stroke-linejoin:miter;stroke-opacity:1;"/>
<path d="M 493.0,65.0 L 492.3,65.3 L 492.2,65.5" style="fill:none;stroke:#000000;stroke-width:2.0px;stroke-linecap:butt;stroke-linejoin:miter;stroke-opacity:1;"/>
<path d="M 464.0,68.4 L 463.6,67.8 L 462.8,67.8" style="fill:none;stroke:#000000;stroke-width:2.0px;stroke-linecap:butt;stroke-linejoin:miter;stroke-opacity:1;"/>
<path d="M 449.4,68.7 L 448.7,68.8 L 448.4,69.4" style="fill:none;stroke:#000000;stroke-width:2.0px;stroke-linecap:butt;stroke-linejoin:miter;stroke-opacity:1;"/>
<path d="M 419.2,71.1 L 419.0,70.8 L 418.2,70.9" style="fill:none;stroke:#000000;stroke-width:2.0px;stroke-linecap:butt;stroke-linejoin:miter;stroke-opacity:1;"/>
<path d="M 404.9,71.8 L 404.1,71.8 L 404.0,72.1" style="fill:none;stroke:#000000;stroke-width:2.0px;stroke-linecap:butt;stroke-linejoin:miter;stroke-opacity:1;"/>
<path d="M 383.0,86.2 L 382.7,86.2 L 382.6,86.0" style="fill:none;stroke:#000000;stroke-width:2.0px;stroke-linecap:butt;stroke-linejoin:miter;stroke-opacity:1;"/>
<path d="M 345.0,75.2 L 344.7,75.9 L 343.9,76.0" style="fill:none;stroke:#000000;stroke-width:2.0px;stroke-linecap:butt;stroke-linejoin:miter;stroke-opacity:1;"/>
<path d="M 337.7,88.7 L 338.1,89.3 L 338.9,89.2" style="fill:none;stroke:#000000;stroke-width:2.0px;stroke-linecap:butt;stroke-linejoin:miter;stroke-opacity:1;"/>
<path d="M 330.3,67.2 L 329.1,66.1 L 329.0,65.3" style="fill:none;stroke:#000000;stroke-width:2.0px;stroke-linecap:butt;stroke-linejoin:miter;stroke-opacity:1;"/>
<path d="M 321.8,63.9 L 321.5,64.6 L 321.9,65.2" style="fill:none;stroke:#000000;stroke-width:2.0px;stroke-linecap:butt;stroke-linejoin:miter;stroke-opacity:1;"/>
<path d="M 342.2,50.2 L 342.9,50.2 L 343.3,50.8" style="fill:none;stroke:#000000;stroke-width:2.0px;stroke-linecap:butt;stroke-linejoin:miter;stroke-opacity:1;"/>
<path d="M 399.7,110.3 L 399.4,110.9 L 399.8,111.6" style="fill:none;stroke:#000000;stroke-width:2.0px;stroke-linecap:butt;stroke-linejoin:miter;stroke-opacity:1;"/>
<path d="M 407.2,122.7 L 407.7,123.3 L 408.4,123.3" style="fill:none;stroke:#000000;stroke-width:2.0px;stroke-linecap:butt;stroke-linejoin:miter;stroke-opacity:1;"/>
<path d="M 421.8,122.3 L 422.5,122.3 L 422.9,121.6" style="fill:none;stroke:#000000;stroke-width:2.0px;stroke-linecap:butt;stroke-linejoin:miter;stroke-opacity:1;"/>
<path d="M 428.7,109.6 L 429.1,108.9 L 428.7,108.3" style="fill:none;stroke:#000000;stroke-width:2.0px;stroke-linecap:butt;stroke-linejoin:miter;stroke-opacity:1;"/>
<path d="M 465.0,93.5 L 465.3,93.5 L 465.7,92.8" style="fill:none;stroke:#000000;stroke-width:2.0px;stroke-linecap:butt;stroke-linejoin:miter;stroke-opacity:1;"/>
<path d="M 494.0,91.8 L 494.1,92.0 L 494.4,92.1" style="fill:none;stroke:#000000;stroke-width:2.0px;stroke-linecap:butt;stroke-linejoin:miter;stroke-opacity:1;"/>
<path class="atom-0" d="M 581.4 62.4 Q 581.4 61.4, 581.9 60.8 Q 582.4 60.2, 583.3 60.2 Q 584.3 60.2, 584.8 60.8 Q 585.3 61.4, 585.3 62.4 Q 585.3 63.4, 584.8 64.0 Q 584.3 64.6, 583.3 64.6 Q 582.4 64.6, 581.9 64.0 Q 581.4 63.4, 581.4 62.4 M 583.3 64.1 Q 584.0 64.1, 584.3 63.7 Q 584.7 63.2, 584.7 62.4 Q 584.7 61.6, 584.3 61.1 Q 584.0 60.7, 583.3 60.7 Q 582.7 60.7, 582.3 61.1 Q 582.0 61.5, 582.0 62.4 Q 582.0 63.2, 582.3 63.7 Q 582.7 64.1, 583.3 64.1 " fill="#FF0000"/>
<path class="atom-1" d="M 569.4 67.6 L 570.8 69.9 Q 571.0 70.1, 571.2 70.5 Q 571.4 70.9, 571.4 70.9 L 571.4 67.6 L 572.0 67.6 L 572.0 71.9 L 571.4 71.9 L 569.9 69.4 Q 569.7 69.1, 569.6 68.8 Q 569.4 68.5, 569.3 68.4 L 569.3 71.9 L 568.8 71.9 L 568.8 67.6 L 569.4 67.6 " fill="#0000FF"/>
<path class="atom-2" d="M 556.6 60.1 L 558.0 62.3 Q 558.1 62.6, 558.3 63.0 Q 558.6 63.4, 558.6 63.4 L 558.6 60.1 L 559.1 60.1 L 559.1 64.3 L 558.6 64.3 L 557.1 61.9 Q 556.9 61.6, 556.7 61.3 Q 556.5 60.9, 556.5 60.8 L 556.5 64.3 L 555.9 64.3 L 555.9 60.1 L 556.6 60.1 " fill="#0000FF"/>
<path class="atom-5" d="M 517.8 67.3 L 519.2 69.5 Q 519.4 69.8, 519.6 70.2 Q 519.8 70.6, 519.8 70.6 L 519.8 67.3 L 520.4 67.3 L 520.4 71.5 L 519.8 71.5 L 518.3 69.1 Q 518.1 68.8, 518.0 68.5 Q 517.8 68.1, 517.7 68.0 L 517.7 71.5 L 517.2 71.5 L 517.2 67.3 L 517.8 67.3 " fill="#0000FF"/>
<path class="atom-8" d="M 485.8 77.0 L 487.2 79.2 Q 487.3 79.4, 487.6 79.8 Q 487.8 80.2, 487.8 80.3 L 487.8 77.0 L 488.4 77.0 L 488.4 81.2 L 487.8 81.2 L 486.3 78.8 Q 486.1 78.5, 485.9 78.1 Q 485.7 77.8, 485.7 77.7 L 485.7 81.2 L 485.1 81.2 L 485.1 77.0 L 485.8 77.0 " fill="#0000FF"/>
<path class="atom-13" d="M 426.4 81.0 L 427.8 83.3 Q 427.9 83.5, 428.1 83.9 Q 428.3 84.3, 428.3 84.3 L 428.3 81.0 L 428.9 81.0 L 428.9 85.3 L 428.3 85.3 L 426.8 82.8 Q 426.7 82.5, 426.5 82.2 Q 426.3 81.9, 426.2 81.8 L 426.2 85.3 L 425.7 85.3 L 425.7 81.0 L 426.4 81.0 " fill="#0000FF"/>
<path class="atom-16" d="M 396.6 83.1 L 398.0 85.3 Q 398.2 85.6, 398.4 86.0 Q 398.6 86.4, 398.6 86.4 L 398.6 83.1 L 399.2 83.1 L 399.2 87.3 L 398.6 87.3 L 397.1 84.9 Q 396.9 84.6, 396.8 84.3 Q 396.6 83.9, 396.5 83.8 L 396.5 87.3 L 396.0 87.3 L 396.0 83.1 L 396.6 83.1 " fill="#0000FF"/>
<path class="atom-18" d="M 374.2 99.6 Q 374.2 98.6, 374.7 98.0 Q 375.2 97.5, 376.2 97.5 Q 377.1 97.5, 377.6 98.0 Q 378.1 98.6, 378.1 99.6 Q 378.1 100.7, 377.6 101.2 Q 377.1 101.8, 376.2 101.8 Q 375.2 101.8, 374.7 101.2 Q 374.2 100.7, 374.2 99.6 M 376.2 101.3 Q 376.8 101.3, 377.2 100.9 Q 377.5 100.5, 377.5 99.6 Q 377.5 98.8, 377.2 98.4 Q 376.8 97.9, 376.2 97.9 Q 375.5 97.9, 375.2 98.4 Q 374.8 98.8, 374.8 99.6 Q 374.8 100.5, 375.2 100.9 Q 375.5 101.3, 376.2 101.3 " fill="#FF0000"/>
<path class="atom-19" d="M 373.5 71.8 L 374.9 74.0 Q 375.0 74.2, 375.2 74.6 Q 375.4 75.0, 375.5 75.1 L 375.5 71.8 L 376.0 71.8 L 376.0 76.0 L 375.4 76.0 L 373.9 73.5 Q 373.8 73.3, 373.6 72.9 Q 373.4 72.6, 373.4 72.5 L 373.4 76.0 L 372.8 76.0 L 372.8 71.8 L 373.5 71.8 " fill="#0000FF"/>
<path class="atom-19" d="M 376.8 71.8 L 377.4 71.8 L 377.4 73.6 L 379.6 73.6 L 379.6 71.8 L 380.2 71.8 L 380.2 76.0 L 379.6 76.0 L 379.6 74.0 L 377.4 74.0 L 377.4 76.0 L 376.8 76.0 L 376.8 71.8 " fill="#0000FF"/>
<path class="atom-28" d="M 313.6 36.7 L 314.2 36.7 L 314.2 38.5 L 316.4 38.5 L 316.4 36.7 L 316.9 36.7 L 316.9 41.0 L 316.4 41.0 L 316.4 39.0 L 314.2 39.0 L 314.2 41.0 L 313.6 41.0 L 313.6 36.7 " fill="#FF0000"/>
<path class="atom-28" d="M 317.8 38.9 Q 317.8 37.8, 318.3 37.3 Q 318.8 36.7, 319.7 36.7 Q 320.7 36.7, 321.2 37.3 Q 321.7 37.8, 321.7 38.9 Q 321.7 39.9, 321.2 40.5 Q 320.7 41.1, 319.7 41.1 Q 318.8 41.1, 318.3 40.5 Q 317.8 39.9, 317.8 38.9 M 319.7 40.6 Q 320.4 40.6, 320.7 40.1 Q 321.1 39.7, 321.1 38.9 Q 321.1 38.0, 320.7 37.6 Q 320.4 37.2, 319.7 37.2 Q 319.1 37.2, 318.7 37.6 Q 318.4 38.0, 318.4 38.9 Q 318.4 39.7, 318.7 40.1 Q 319.1 40.6, 319.7 40.6 " fill="#FF0000"/>
<path class="atom-37" d="M 449.5 92.4 L 450.9 94.6 Q 451.1 94.9, 451.3 95.3 Q 451.5 95.7, 451.5 95.7 L 451.5 92.4 L 452.1 92.4 L 452.1 96.6 L 451.5 96.6 L 450.0 94.2 Q 449.8 93.9, 449.6 93.6 Q 449.5 93.2, 449.4 93.1 L 449.4 96.6 L 448.9 96.6 L 448.9 92.4 L 449.5 92.4 " fill="#0000FF"/>
<path class="atom-40" d="M 508.7 92.2 Q 509.4 92.2, 509.8 92.6 Q 510.2 92.9, 510.2 93.5 Q 510.2 94.1, 509.8 94.4 Q 509.4 94.7, 508.7 94.7 L 508.0 94.7 L 508.0 96.5 L 507.5 96.5 L 507.5 92.2 L 508.7 92.2 M 508.7 94.2 Q 509.1 94.2, 509.4 94.0 Q 509.6 93.8, 509.6 93.5 Q 509.6 93.1, 509.4 92.9 Q 509.1 92.7, 508.7 92.7 L 508.0 92.7 L 508.0 94.2 L 508.7 94.2 " fill="#FF7F00"/>
<path class="atom-40" d="M 507.2 96.9 L 507.7 96.9 L 507.7 98.7 L 509.9 98.7 L 509.9 96.9 L 510.5 96.9 L 510.5 101.1 L 509.9 101.1 L 509.9 99.2 L 507.7 99.2 L 507.7 101.1 L 507.2 101.1 L 507.2 96.9 " fill="#FF7F00"/>
<path class="atom-41" d="M 518.6 85.7 Q 518.6 85.8, 518.8 85.8 Q 519.0 85.9, 519.3 86.0 Q 519.5 86.0, 519.7 86.0 Q 520.1 86.0, 520.3 85.8 Q 520.6 85.6, 520.6 85.3 Q 520.6 85.1, 520.4 84.9 Q 520.3 84.8, 520.2 84.7 Q 520.0 84.6, 519.7 84.5 Q 519.3 84.4, 519.1 84.3 Q 518.8 84.2, 518.7 84.0 Q 518.5 83.7, 518.5 83.4 Q 518.5 82.8, 518.9 82.5 Q 519.3 82.2, 520.0 82.2 Q 520.5 82.2, 521.0 82.4 L 520.9 82.9 Q 520.4 82.6, 520.0 82.6 Q 519.6 82.6, 519.4 82.8 Q 519.1 83.0, 519.1 83.3 Q 519.1 83.5, 519.2 83.7 Q 519.4 83.8, 519.5 83.9 Q 519.7 83.9, 520.0 84.0 Q 520.4 84.2, 520.6 84.3 Q 520.8 84.4, 521.0 84.6 Q 521.2 84.9, 521.2 85.3 Q 521.2 85.9, 520.8 86.2 Q 520.4 86.5, 519.7 86.5 Q 519.3 86.5, 519.1 86.4 Q 518.8 86.4, 518.4 86.2 L 518.6 85.7 " fill="#CCCC00"/>
<path class="atom-0" d="M 586.5,62.4 L 586.5,62.4 L 586.5,62.4 L 586.5,62.5 L 586.5,62.5 L 586.4,62.5 L 586.4,62.5 L 586.4,62.5 L 586.4,62.6 L 586.4,62.6 L 586.4,62.6 L 586.3,62.6 L 586.3,62.6 L 586.3,62.6 L 586.3,62.7 L 586.3,62.7 L 586.2,62.7 L 586.2,62.7 L 586.2,62.7 L 586.2,62.7 L 586.1,62.7 L 586.1,62.7 L 586.1,62.7 L 586.1,62.7 L 586.0,62.6 L 586.0,62.6 L 586.0,62.6 L 586.0,62.6 L 585.9,62.6 L 585.9,62.6 L 585.9,62.5 L 585.9,62.5 L 585.9,62.5 L 585.9,62.5 L 585.9,62.4 L 585.9,62.4 L 585.9,62.4 L 585.9,62.4 L 585.9,62.3 L 585.9,62.3 L 585.9,62.3 L 585.9,62.3 L 585.9,62.2 L 585.9,62.2 L 585.9,62.2 L 585.9,62.2 L 586.0,62.2 L 586.0,62.1 L 586.0,62.1 L 586.0,62.1 L 586.1,62.1 L 586.1,62.1 L 586.1,62.1 L 586.1,62.1 L 586.2,62.1 L 586.2,62.1 L 586.2,62.1 L 586.2,62.1 L 586.3,62.1 L 586.3,62.1 L 586.3,62.1 L 586.3,62.1 L 586.3,62.1 L 586.4,62.1 L 586.4,62.2 L 586.4,62.2 L 586.4,62.2 L 586.4,62.2 L 586.4,62.3 L 586.5,62.3 L 586.5,62.3 L 586.5,62.3 L 586.5,62.4 L 586.5,62.4 L 586.2,62.4 Z" style="fill:#000000;fill-rule:evenodd;fill-opacity:1;stroke:#000000;stroke-width:0.0px;stroke-linecap:butt;stroke-linejoin:miter;stroke-opacity:1;"/>
<path class="atom-1" d="M 573.2,69.7 L 573.2,69.8 L 573.2,69.8 L 573.2,69.8 L 573.2,69.8 L 573.2,69.9 L 573.1,69.9 L 573.1,69.9 L 573.1,69.9 L 573.1,70.0 L 573.1,70.0 L 573.1,70.0 L 573.0,70.0 L 573.0,70.0 L 573.0,70.0 L 573.0,70.0 L 572.9,70.0 L 572.9,70.0 L 572.9,70.0 L 572.9,70.0 L 572.8,70.0 L 572.8,70.0 L 572.8,70.0 L 572.8,70.0 L 572.7,70.0 L 572.7,70.0 L 572.7,70.0 L 572.7,70.0 L 572.7,69.9 L 572.6,69.9 L 572.6,69.9 L 572.6,69.9 L 572.6,69.9 L 572.6,69.8 L 572.6,69.8 L 572.6,69.8 L 572.6,69.8 L 572.6,69.7 L 572.6,69.7 L 572.6,69.7 L 572.6,69.7 L 572.6,69.6 L 572.6,69.6 L 572.6,69.6 L 572.6,69.6 L 572.7,69.5 L 572.7,69.5 L 572.7,69.5 L 572.7,69.5 L 572.7,69.5 L 572.8,69.5 L 572.8,69.5 L 572.8,69.5 L 572.8,69.4 L 572.9,69.4 L 572.9,69.4 L 572.9,69.4 L 572.9,69.4 L 573.0,69.5 L 573.0,69.5 L 573.0,69.5 L 573.0,69.5 L 573.1,69.5 L 573.1,69.5 L 573.1,69.5 L 573.1,69.6 L 573.1,69.6 L 573.1,69.6 L 573.2,69.6 L 573.2,69.6 L 573.2,69.7 L 573.2,69.7 L 573.2,69.7 L 573.2,69.7 L 572.9,69.7 Z" style="fill:#000000;fill-rule:evenodd;fill-opacity:1;stroke:#000000;stroke-width:0.0px;stroke-linecap:butt;stroke-linejoin:miter;stroke-opacity:1;"/>
<path class="atom-2" d="M 560.3,62.2 L 560.3,62.2 L 560.3,62.3 L 560.3,62.3 L 560.3,62.3 L 560.3,62.3 L 560.3,62.4 L 560.3,62.4 L 560.3,62.4 L 560.2,62.4 L 560.2,62.4 L 560.2,62.5 L 560.2,62.5 L 560.2,62.5 L 560.1,62.5 L 560.1,62.5 L 560.1,62.5 L 560.1,62.5 L 560.0,62.5 L 560.0,62.5 L 560.0,62.5 L 560.0,62.5 L 559.9,62.5 L 559.9,62.5 L 559.9,62.5 L 559.9,62.5 L 559.8,62.5 L 559.8,62.4 L 559.8,62.4 L 559.8,62.4 L 559.8,62.4 L 559.8,62.4 L 559.8,62.3 L 559.7,62.3 L 559.7,62.3 L 559.7,62.3 L 559.7,62.2 L 559.7,62.2 L 559.7,62.2 L 559.7,62.2 L 559.7,62.1 L 559.8,62.1 L 559.8,62.1 L 559.8,62.1 L 559.8,62.0 L 559.8,62.0 L 559.8,62.0 L 559.8,62.0 L 559.9,62.0 L 559.9,62.0 L 559.9,61.9 L 559.9,61.9 L 560.0,61.9 L 560.0,61.9 L 560.0,61.9 L 560.0,61.9 L 560.1,61.9 L 560.1,61.9 L 560.1,61.9 L 560.1,61.9 L 560.2,61.9 L 560.2,62.0 L 560.2,62.0 L 560.2,62.0 L 560.2,62.0 L 560.3,62.0 L 560.3,62.0 L 560.3,62.1 L 560.3,62.1 L 560.3,62.1 L 560.3,62.1 L 560.3,62.2 L 560.3,62.2 L 560.3,62.2 L 560.0,62.2 Z" style="fill:#000000;fill-rule:evenodd;fill-opacity:1;stroke:#000000;stroke-width:0.0px;stroke-linecap:butt;stroke-linejoin:miter;stroke-opacity:1;"/>
<path class="atom-3" d="M 545.5,70.9 L 545.5,71.0 L 545.5,71.0 L 545.5,71.0 L 545.5,71.0 L 545.5,71.1 L 545.4,71.1 L 545.4,71.1 L 545.4,71.1 L 545.4,71.1 L 545.4,71.2 L 545.4,71.2 L 545.3,71.2 L 545.3,71.2 L 545.3,71.2 L 545.3,71.2 L 545.2,71.2 L 545.2,71.2 L 545.2,71.2 L 545.2,71.2 L 545.1,71.2 L 545.1,71.2 L 545.1,71.2 L 545.1,71.2 L 545.0,71.2 L 545.0,71.2 L 545.0,71.2 L 545.0,71.2 L 545.0,71.1 L 544.9,71.1 L 544.9,71.1 L 544.9,71.1 L 544.9,71.0 L 544.9,71.0 L 544.9,71.0 L 544.9,71.0 L 544.9,70.9 L 544.9,70.9 L 544.9,70.9 L 544.9,70.9 L 544.9,70.8 L 544.9,70.8 L 544.9,70.8 L 544.9,70.8 L 544.9,70.8 L 545.0,70.7 L 545.0,70.7 L 545.0,70.7 L 545.0,70.7 L 545.0,70.7 L 545.1,70.7 L 545.1,70.6 L 545.1,70.6 L 545.1,70.6 L 545.2,70.6 L 545.2,70.6 L 545.2,70.6 L 545.2,70.6 L 545.3,70.6 L 545.3,70.7 L 545.3,70.7 L 545.3,70.7 L 545.4,70.7 L 545.4,70.7 L 545.4,70.7 L 545.4,70.7 L 545.4,70.8 L 545.4,70.8 L 545.5,70.8 L 545.5,70.8 L 545.5,70.9 L 545.5,70.9 L 545.5,70.9 L 545.5,70.9 L 545.2,70.9 Z" style="fill:#000000;fill-rule:evenodd;fill-opacity:1;stroke:#000000;stroke-width:0.0px;stroke-linecap:butt;stroke-linejoin:miter;stroke-opacity:1;"/>
<path class="atom-3" d="M 544.3,70.9 L 544.3,71.0 L 544.3,71.0 L 544.3,71.0 L 544.3,71.0 L 544.3,71.1 L 544.2,71.1 L 544.2,71.1 L 544.2,71.1 L 544.2,71.1 L 544.2,71.2 L 544.2,71.2 L 544.1,71.2 L 544.1,71.2 L 544.1,71.2 L 544.1,71.2 L 544.0,71.2 L 544.0,71.2 L 544.0,71.2 L 544.0,71.2 L 543.9,71.2 L 543.9,71.2 L 543.9,71.2 L 543.9,71.2 L 543.8,71.2 L 543.8,71.2 L 543.8,71.2 L 543.8,71.2 L 543.8,71.1 L 543.7,71.1 L 543.7,71.1 L 543.7,71.1 L 543.7,71.0 L 543.7,71.0 L 543.7,71.0 L 543.7,71.0 L 543.7,70.9 L 543.7,70.9 L 543.7,70.9 L 543.7,70.9 L 543.7,70.8 L 543.7,70.8 L 543.7,70.8 L 543.7,70.8 L 543.7,70.8 L 543.8,70.7 L 543.8,70.7 L 543.8,70.7 L 543.8,70.7 L 543.8,70.7 L 543.9,70.7 L 543.9,70.6 L 543.9,70.6 L 543.9,70.6 L 544.0,70.6 L 544.0,70.6 L 544.0,70.6 L 544.0,70.6 L 544.1,70.6 L 544.1,70.7 L 544.1,70.7 L 544.1,70.7 L 544.2,70.7 L 544.2,70.7 L 544.2,70.7 L 544.2,70.7 L 544.2,70.8 L 544.2,70.8 L 544.3,70.8 L 544.3,70.8 L 544.3,70.9 L 544.3,70.9 L 544.3,70.9 L 544.3,70.9 L 544.0,70.9 Z" style="fill:#000000;fill-rule:evenodd;fill-opacity:1;stroke:#000000;stroke-width:0.0px;stroke-linecap:butt;stroke-linejoin:miter;stroke-opacity:1;"/>
<path class="atom-4" d="M 532.6,60.7 L 532.6,60.7 L 532.6,60.8 L 532.6,60.8 L 532.6,60.8 L 532.6,60.8 L 532.6,60.9 L 532.6,60.9 L 532.6,60.9 L 532.5,60.9 L 532.5,60.9 L 532.5,60.9 L 532.5,61.0 L 532.5,61.0 L 532.4,61.0 L 532.4,61.0 L 532.4,61.0 L 532.4,61.0 L 532.3,61.0 L 532.3,61.0 L 532.3,61.0 L 532.3,61.0 L 532.2,61.0 L 532.2,61.0 L 532.2,61.0 L 532.2,61.0 L 532.1,60.9 L 532.1,60.9 L 532.1,60.9 L 532.1,60.9 L 532.1,60.9 L 532.1,60.8 L 532.0,60.8 L 532.0,60.8 L 532.0,60.8 L 532.0,60.7 L 532.0,60.7 L 532.0,60.7 L 532.0,60.7 L 532.0,60.6 L 532.0,60.6 L 532.0,60.6 L 532.1,60.6 L 532.1,60.5 L 532.1,60.5 L 532.1,60.5 L 532.1,60.5 L 532.1,60.5 L 532.2,60.5 L 532.2,60.4 L 532.2,60.4 L 532.2,60.4 L 532.3,60.4 L 532.3,60.4 L 532.3,60.4 L 532.3,60.4 L 532.4,60.4 L 532.4,60.4 L 532.4,60.4 L 532.4,60.4 L 532.5,60.4 L 532.5,60.4 L 532.5,60.5 L 532.5,60.5 L 532.5,60.5 L 532.6,60.5 L 532.6,60.5 L 532.6,60.6 L 532.6,60.6 L 532.6,60.6 L 532.6,60.6 L 532.6,60.7 L 532.6,60.7 L 532.6,60.7 L 532.3,60.7 Z" style="fill:#000000;fill-rule:evenodd;fill-opacity:1;stroke:#000000;stroke-width:0.0px;stroke-linecap:butt;stroke-linejoin:miter;stroke-opacity:1;"/>
<path class="atom-4" d="M 531.4,60.7 L 531.4,60.7 L 531.4,60.8 L 531.4,60.8 L 531.4,60.8 L 531.4,60.8 L 531.4,60.9 L 531.4,60.9 L 531.4,60.9 L 531.3,60.9 L 531.3,60.9 L 531.3,60.9 L 531.3,61.0 L 531.3,61.0 L 531.2,61.0 L 531.2,61.0 L 531.2,61.0 L 531.2,61.0 L 531.1,61.0 L 531.1,61.0 L 531.1,61.0 L 531.1,61.0 L 531.0,61.0 L 531.0,61.0 L 531.0,61.0 L 531.0,61.0 L 530.9,60.9 L 530.9,60.9 L 530.9,60.9 L 530.9,60.9 L 530.9,60.9 L 530.9,60.8 L 530.8,60.8 L 530.8,60.8 L 530.8,60.8 L 530.8,60.7 L 530.8,60.7 L 530.8,60.7 L 530.8,60.7 L 530.8,60.6 L 530.8,60.6 L 530.8,60.6 L 530.9,60.6 L 530.9,60.5 L 530.9,60.5 L 530.9,60.5 L 530.9,60.5 L 530.9,60.5 L 531.0,60.5 L 531.0,60.4 L 531.0,60.4 L 531.0,60.4 L 531.1,60.4 L 531.1,60.4 L 531.1,60.4 L 531.1,60.4 L 531.2,60.4 L 531.2,60.4 L 531.2,60.4 L 531.2,60.4 L 531.3,60.4 L 531.3,60.4 L 531.3,60.5 L 531.3,60.5 L 531.3,60.5 L 531.4,60.5 L 531.4,60.5 L 531.4,60.6 L 531.4,60.6 L 531.4,60.6 L 531.4,60.6 L 531.4,60.7 L 531.4,60.7 L 531.4,60.7 L 531.1,60.7 Z" style="fill:#000000;fill-rule:evenodd;fill-opacity:1;stroke:#000000;stroke-width:0.0px;stroke-linecap:butt;stroke-linejoin:miter;stroke-opacity:1;"/>
<path class="atom-6" d="M 506.8,59.6 L 506.8,59.6 L 506.8,59.7 L 506.8,59.7 L 506.8,59.7 L 506.8,59.7 L 506.8,59.8 L 506.8,59.8 L 506.8,59.8 L 506.7,59.8 L 506.7,59.8 L 506.7,59.8 L 506.7,59.9 L 506.7,59.9 L 506.6,59.9 L 506.6,59.9 L 506.6,59.9 L 506.6,59.9 L 506.5,59.9 L 506.5,59.9 L 506.5,59.9 L 506.5,59.9 L 506.4,59.9 L 506.4,59.9 L 506.4,59.9 L 506.4,59.9 L 506.3,59.8 L 506.3,59.8 L 506.3,59.8 L 506.3,59.8 L 506.3,59.8 L 506.3,59.7 L 506.2,59.7 L 506.2,59.7 L 506.2,59.7 L 506.2,59.6 L 506.2,59.6 L 506.2,59.6 L 506.2,59.6 L 506.2,59.5 L 506.2,59.5 L 506.2,59.5 L 506.3,59.5 L 506.3,59.4 L 506.3,59.4 L 506.3,59.4 L 506.3,59.4 L 506.3,59.4 L 506.4,59.4 L 506.4,59.3 L 506.4,59.3 L 506.4,59.3 L 506.5,59.3 L 506.5,59.3 L 506.5,59.3 L 506.5,59.3 L 506.6,59.3 L 506.6,59.3 L 506.6,59.3 L 506.6,59.3 L 506.7,59.3 L 506.7,59.3 L 506.7,59.4 L 506.7,59.4 L 506.7,59.4 L 506.8,59.4 L 506.8,59.4 L 506.8,59.5 L 506.8,59.5 L 506.8,59.5 L 506.8,59.5 L 506.8,59.6 L 506.8,59.6 L 506.8,59.6 L 506.5,59.6 Z" style="fill:#000000;fill-rule:evenodd;fill-opacity:1;stroke:#000000;stroke-width:0.0px;stroke-linecap:butt;stroke-linejoin:miter;stroke-opacity:1;"/>
<path class="bond-0 atom-0 atom-1" d="M 880.0,81.8 L 874.9,82.6" style="fill:none;fill-rule:evenodd;stroke:#FF0000;stroke-width:2.0px;stroke-linecap:butt;stroke-linejoin:miter;stroke-opacity:1"/>
<path class="bond-0 atom-0 atom-1" d="M 874.9,82.6 L 869.9,83.4" style="fill:none;fill-rule:evenodd;stroke:#0000FF;stroke-width:2.0px;stroke-linecap:butt;stroke-linejoin:miter;stroke-opacity:1"/>
<path class="bond-1 atom-1 atom-2" d="M 865.7,81.1 L 860.6,74.7" style="fill:none;fill-rule:evenodd;stroke:#0000FF;stroke-width:2.0px;stroke-linecap:butt;stroke-linejoin:miter;stroke-opacity:1"/>
<path class="bond-2 atom-2 atom-3" d="M 856.4,72.4 L 850.0,73.3" style="fill:none;fill-rule:evenodd;stroke:#0000FF;stroke-width:2.0px;stroke-linecap:butt;stroke-linejoin:miter;stroke-opacity:1"/>
<path class="bond-2 atom-2 atom-3" d="M 850.0,73.3 L 843.7,74.2" style="fill:none;fill-rule:evenodd;stroke:#000000;stroke-width:2.0px;stroke-linecap:butt;stroke-linejoin:miter;stroke-opacity:1"/>
<path class="bond-3 atom-3 atom-4" d="M 843.7,74.2 L 834.5,62.6" style="fill:none;fill-rule:evenodd;stroke:#000000;stroke-width:2.0px;stroke-linecap:butt;stroke-linejoin:miter;stroke-opacity:1"/>
<path class="bond-4 atom-4 atom-5" d="M 834.5,62.6 L 828.2,63.5" style="fill:none;fill-rule:evenodd;stroke:#000000;stroke-width:2.0px;stroke-linecap:butt;stroke-linejoin:miter;stroke-opacity:1"/>
<path class="bond-4 atom-4 atom-5" d="M 828.2,63.5 L 821.8,64.5" style="fill:none;fill-rule:evenodd;stroke:#0000FF;stroke-width:2.0px;stroke-linecap:butt;stroke-linejoin:miter;stroke-opacity:1"/>
<path class="bond-5 atom-5 atom-6" d="M 818.7,67.4 L 816.5,73.0" style="fill:none;fill-rule:evenodd;stroke:#0000FF;stroke-width:2.0px;stroke-linecap:butt;stroke-linejoin:miter;stroke-opacity:1"/>
<path class="bond-5 atom-5 atom-6" d="M 816.5,73.0 L 814.3,78.7" style="fill:none;fill-rule:evenodd;stroke:#000000;stroke-width:2.0px;stroke-linecap:butt;stroke-linejoin:miter;stroke-opacity:1"/>
<path class="bond-6 atom-6 atom-7" d="M 814.3,78.7 L 799.6,80.9" style="fill:none;fill-rule:evenodd;stroke:#000000;stroke-width:2.0px;stroke-linecap:butt;stroke-linejoin:miter;stroke-opacity:1"/>
<path class="bond-7 atom-7 atom-8" d="M 799.6,80.9 L 796.0,76.4" style="fill:none;fill-rule:evenodd;stroke:#000000;stroke-width:2.0px;stroke-linecap:butt;stroke-linejoin:miter;stroke-opacity:1"/>
<path class="bond-7 atom-7 atom-8" d="M 796.0,76.4 L 792.4,71.9" style="fill:none;fill-rule:evenodd;stroke:#0000FF;stroke-width:2.0px;stroke-linecap:butt;stroke-linejoin:miter;stroke-opacity:1"/>
<path class="bond-8 atom-8 atom-9" d="M 788.2,69.5 L 781.9,70.5" style="fill:none;fill-rule:evenodd;stroke:#0000FF;stroke-width:2.0px;stroke-linecap:butt;stroke-linejoin:miter;stroke-opacity:1"/>
<path class="bond-8 atom-8 atom-9" d="M 781.9,70.5 L 775.5,71.4" style="fill:none;fill-rule:evenodd;stroke:#000000;stroke-width:2.0px;stroke-linecap:butt;stroke-linejoin:miter;stroke-opacity:1"/>
<path class="bond-9 atom-9 atom-10" d="M 775.5,71.4 L 766.3,59.8" style="fill:none;fill-rule:evenodd;stroke:#000000;stroke-width:2.0px;stroke-linecap:butt;stroke-linejoin:miter;stroke-opacity:1"/>
<path class="bond-9 atom-9 atom-10" d="M 772.9,71.8 L 765.3,62.2" style="fill:none;fill-rule:evenodd;stroke:#000000;stroke-width:2.0px;stroke-linecap:butt;stroke-linejoin:miter;stroke-opacity:1"/>
<path class="bond-10 atom-10 atom-11" d="M 766.3,59.8 L 751.5,62.0" style="fill:none;fill-rule:evenodd;stroke:#000000;stroke-width:2.0px;stroke-linecap:butt;stroke-linejoin:miter;stroke-opacity:1"/>
<path class="bond-11 atom-11 atom-12" d="M 751.5,62.0 L 746.1,75.9" style="fill:none;fill-rule:evenodd;stroke:#000000;stroke-width:2.0px;stroke-linecap:butt;stroke-linejoin:miter;stroke-opacity:1"/>
<path class="bond-11 atom-11 atom-12" d="M 753.2,64.1 L 748.7,75.5" style="fill:none;fill-rule:evenodd;stroke:#000000;stroke-width:2.0px;stroke-linecap:butt;stroke-linejoin:miter;stroke-opacity:1"/>
<path class="bond-12 atom-12 atom-13" d="M 746.1,75.9 L 739.8,76.8" style="fill:none;fill-rule:evenodd;stroke:#000000;stroke-width:2.0px;stroke-linecap:butt;stroke-linejoin:miter;stroke-opacity:1"/>
<path class="bond-12 atom-12 atom-13" d="M 739.8,76.8 L 733.5,77.7" style="fill:none;fill-rule:evenodd;stroke:#0000FF;stroke-width:2.0px;stroke-linecap:butt;stroke-linejoin:miter;stroke-opacity:1"/>
<path class="bond-13 atom-13 atom-14" d="M 729.3,75.4 L 725.7,70.9" style="fill:none;fill-rule:evenodd;stroke:#0000FF;stroke-width:2.0px;stroke-linecap:butt;stroke-linejoin:miter;stroke-opacity:1"/>
<path class="bond-13 atom-13 atom-14" d="M 725.7,70.9 L 722.1,66.4" style="fill:none;fill-rule:evenodd;stroke:#000000;stroke-width:2.0px;stroke-linecap:butt;stroke-linejoin:miter;stroke-opacity:1"/>
<path class="bond-14 atom-14 atom-15" d="M 722.1,66.4 L 707.3,68.6" style="fill:none;fill-rule:evenodd;stroke:#000000;stroke-width:2.0px;stroke-linecap:butt;stroke-linejoin:miter;stroke-opacity:1"/>
<path class="bond-15 atom-15 atom-16" d="M 707.3,68.6 L 705.1,74.2" style="fill:none;fill-rule:evenodd;stroke:#000000;stroke-width:2.0px;stroke-linecap:butt;stroke-linejoin:miter;stroke-opacity:1"/>
<path class="bond-15 atom-15 atom-16" d="M 705.1,74.2 L 702.9,79.9" style="fill:none;fill-rule:evenodd;stroke:#0000FF;stroke-width:2.0px;stroke-linecap:butt;stroke-linejoin:miter;stroke-opacity:1"/>
<path class="bond-16 atom-16 atom-17" d="M 699.8,82.8 L 693.5,83.7" style="fill:none;fill-rule:evenodd;stroke:#0000FF;stroke-width:2.0px;stroke-linecap:butt;stroke-linejoin:miter;stroke-opacity:1"/>
<path class="bond-16 atom-16 atom-17" d="M 693.5,83.7 L 687.2,84.7" style="fill:none;fill-rule:evenodd;stroke:#000000;stroke-width:2.0px;stroke-linecap:butt;stroke-linejoin:miter;stroke-opacity:1"/>
<path class="bond-17 atom-17 atom-18" d="M 686.3,83.7 L 684.0,89.6" style="fill:none;fill-rule:evenodd;stroke:#000000;stroke-width:2.0px;stroke-linecap:butt;stroke-linejoin:miter;stroke-opacity:1"/>
<path class="bond-17 atom-17 atom-18" d="M 684.0,89.6 L 681.7,95.5" style="fill:none;fill-rule:evenodd;stroke:#FF0000;stroke-width:2.0px;stroke-linecap:butt;stroke-linejoin:miter;stroke-opacity:1"/>
<path class="bond-17 atom-17 atom-18" d="M 688.5,84.5 L 686.1,90.4" style="fill:none;fill-rule:evenodd;stroke:#000000;stroke-width:2.0px;stroke-linecap:butt;stroke-linejoin:miter;stroke-opacity:1"/>
<path class="bond-17 atom-17 atom-18" d="M 686.1,90.4 L 683.8,96.3" style="fill:none;fill-rule:evenodd;stroke:#FF0000;stroke-width:2.0px;stroke-linecap:butt;stroke-linejoin:miter;stroke-opacity:1"/>
<path class="bond-18 atom-17 atom-19" d="M 687.2,84.7 L 683.6,80.2" style="fill:none;fill-rule:evenodd;stroke:#000000;stroke-width:2.0px;stroke-linecap:butt;stroke-linejoin:miter;stroke-opacity:1"/>
<path class="bond-18 atom-17 atom-19" d="M 683.6,80.2 L 680.0,75.7" style="fill:none;fill-rule:evenodd;stroke:#0000FF;stroke-width:2.0px;stroke-linecap:butt;stroke-linejoin:miter;stroke-opacity:1"/>
<path class="bond-19 atom-19 atom-20" d="M 675.8,73.4 L 669.5,74.3" style="fill:none;fill-rule:evenodd;stroke:#0000FF;stroke-width:2.0px;stroke-linecap:butt;stroke-linejoin:miter;stroke-opacity:1"/>
<path class="bond-19 atom-19 atom-20" d="M 669.5,74.3 L 663.2,75.2" style="fill:none;fill-rule:evenodd;stroke:#000000;stroke-width:2.0px;stroke-linecap:butt;stroke-linejoin:miter;stroke-opacity:1"/>
<path class="bond-20 atom-20 atom-21" d="M 663.2,75.2 L 653.9,63.6" style="fill:none;fill-rule:evenodd;stroke:#000000;stroke-width:2.0px;stroke-linecap:butt;stroke-linejoin:miter;stroke-opacity:1"/>
<path class="bond-21 atom-21 atom-22" d="M 653.9,63.6 L 648.4,77.5" style="fill:none;fill-rule:evenodd;stroke:#000000;stroke-width:2.0px;stroke-linecap:butt;stroke-linejoin:miter;stroke-opacity:1"/>
<path class="bond-22 atom-22 atom-23" d="M 648.4,77.5 L 633.7,79.7" style="fill:none;fill-rule:evenodd;stroke:#000000;stroke-width:2.0px;stroke-linecap:butt;stroke-linejoin:miter;stroke-opacity:1"/>
<path class="bond-23 atom-23 atom-24" d="M 633.7,79.7 L 643.0,91.3" style="fill:none;fill-rule:evenodd;stroke:#000000;stroke-width:2.0px;stroke-linecap:butt;stroke-linejoin:miter;stroke-opacity:1"/>
<path class="bond-24 atom-24 atom-25" d="M 643.0,91.3 L 657.7,89.1" style="fill:none;fill-rule:evenodd;stroke:#000000;stroke-width:2.0px;stroke-linecap:butt;stroke-linejoin:miter;stroke-opacity:1"/>
<path class="bond-25 atom-25 atom-26" d="M 657.7,89.1 L 632.1,68.9" style="fill:none;fill-rule:evenodd;stroke:#000000;stroke-width:2.0px;stroke-linecap:butt;stroke-linejoin:miter;stroke-opacity:1"/>
<path class="bond-26 atom-26 atom-27" d="M 632.1,68.9 L 629.9,54.2" style="fill:none;fill-rule:evenodd;stroke:#000000;stroke-width:2.0px;stroke-linecap:butt;stroke-linejoin:miter;stroke-opacity:1"/>
<path class="bond-27 atom-27 atom-28" d="M 629.9,54.2 L 626.3,49.7" style="fill:none;fill-rule:evenodd;stroke:#000000;stroke-width:2.0px;stroke-linecap:butt;stroke-linejoin:miter;stroke-opacity:1"/>
<path class="bond-27 atom-27 atom-28" d="M 626.3,49.7 L 622.8,45.2" style="fill:none;fill-rule:evenodd;stroke:#FF0000;stroke-width:2.0px;stroke-linecap:butt;stroke-linejoin:miter;stroke-opacity:1"/>
<path class="bond-28 atom-27 atom-29" d="M 629.9,54.2 L 624.4,68.0" style="fill:none;fill-rule:evenodd;stroke:#000000;stroke-width:2.0px;stroke-linecap:butt;stroke-linejoin:miter;stroke-opacity:1"/>
<path class="bond-29 atom-27 atom-30" d="M 629.9,54.2 L 644.6,51.9" style="fill:none;fill-rule:evenodd;stroke:#000000;stroke-width:2.0px;stroke-linecap:butt;stroke-linejoin:miter;stroke-opacity:1"/>
<path class="bond-30 atom-16 atom-31" d="M 704.0,85.1 L 707.6,89.6" style="fill:none;fill-rule:evenodd;stroke:#0000FF;stroke-width:2.0px;stroke-linecap:butt;stroke-linejoin:miter;stroke-opacity:1"/>
<path class="bond-30 atom-16 atom-31" d="M 707.6,89.6 L 711.2,94.1" style="fill:none;fill-rule:evenodd;stroke:#000000;stroke-width:2.0px;stroke-linecap:butt;stroke-linejoin:miter;stroke-opacity:1"/>
<path class="bond-31 atom-31 atom-32" d="M 711.2,94.1 L 705.7,108.0" style="fill:none;fill-rule:evenodd;stroke:#000000;stroke-width:2.0px;stroke-linecap:butt;stroke-linejoin:miter;stroke-opacity:1"/>
<path class="bond-31 atom-31 atom-32" d="M 712.8,96.2 L 708.3,107.6" style="fill:none;fill-rule:evenodd;stroke:#000000;stroke-width:2.0px;stroke-linecap:butt;stroke-linejoin:miter;stroke-opacity:1"/>
<path class="bond-32 atom-32 atom-33" d="M 705.7,108.0 L 715.0,119.6" style="fill:none;fill-rule:evenodd;stroke:#000000;stroke-width:2.0px;stroke-linecap:butt;stroke-linejoin:miter;stroke-opacity:1"/>
<path class="bond-33 atom-33 atom-34" d="M 715.0,119.6 L 729.7,117.4" style="fill:none;fill-rule:evenodd;stroke:#000000;stroke-width:2.0px;stroke-linecap:butt;stroke-linejoin:miter;stroke-opacity:1"/>
<path class="bond-33 atom-33 atom-34" d="M 716.0,117.2 L 728.1,115.4" style="fill:none;fill-rule:evenodd;stroke:#000000;stroke-width:2.0px;stroke-linecap:butt;stroke-linejoin:miter;stroke-opacity:1"/>
<path class="bond-34 atom-34 atom-35" d="M 729.7,117.4 L 735.2,103.6" style="fill:none;fill-rule:evenodd;stroke:#000000;stroke-width:2.0px;stroke-linecap:butt;stroke-linejoin:miter;stroke-opacity:1"/>
<path class="bond-35 atom-35 atom-36" d="M 735.2,103.6 L 725.9,91.9" style="fill:none;fill-rule:evenodd;stroke:#000000;stroke-width:2.0px;stroke-linecap:butt;stroke-linejoin:miter;stroke-opacity:1"/>
<path class="bond-35 atom-35 atom-36" d="M 732.6,104.0 L 724.9,94.4" style="fill:none;fill-rule:evenodd;stroke:#000000;stroke-width:2.0px;stroke-linecap:butt;stroke-linejoin:miter;stroke-opacity:1"/>
<path class="bond-36 atom-12 atom-37" d="M 746.1,75.9 L 749.7,80.4" style="fill:none;fill-rule:evenodd;stroke:#000000;stroke-width:2.0px;stroke-linecap:butt;stroke-linejoin:miter;stroke-opacity:1"/>
<path class="bond-36 atom-12 atom-37" d="M 749.7,80.4 L 753.3,84.9" style="fill:none;fill-rule:evenodd;stroke:#0000FF;stroke-width:2.0px;stroke-linecap:butt;stroke-linejoin:miter;stroke-opacity:1"/>
<path class="bond-37 atom-37 atom-38" d="M 757.5,87.2 L 763.8,86.2" style="fill:none;fill-rule:evenodd;stroke:#0000FF;stroke-width:2.0px;stroke-linecap:butt;stroke-linejoin:miter;stroke-opacity:1"/>
<path class="bond-37 atom-37 atom-38" d="M 763.8,86.2 L 770.1,85.3" style="fill:none;fill-rule:evenodd;stroke:#000000;stroke-width:2.0px;stroke-linecap:butt;stroke-linejoin:miter;stroke-opacity:1"/>
<path class="bond-37 atom-37 atom-38" d="M 757.1,84.9 L 762.8,84.1" style="fill:none;fill-rule:evenodd;stroke:#0000FF;stroke-width:2.0px;stroke-linecap:butt;stroke-linejoin:miter;stroke-opacity:1"/>
<path class="bond-37 atom-37 atom-38" d="M 762.8,84.1 L 768.4,83.2" style="fill:none;fill-rule:evenodd;stroke:#000000;stroke-width:2.0px;stroke-linecap:butt;stroke-linejoin:miter;stroke-opacity:1"/>
<path class="bond-38 atom-8 atom-39" d="M 791.3,66.6 L 793.5,61.0" style="fill:none;fill-rule:evenodd;stroke:#0000FF;stroke-width:2.0px;stroke-linecap:butt;stroke-linejoin:miter;stroke-opacity:1"/>
<path class="bond-38 atom-8 atom-39" d="M 793.5,61.0 L 795.7,55.4" style="fill:none;fill-rule:evenodd;stroke:#000000;stroke-width:2.0px;stroke-linecap:butt;stroke-linejoin:miter;stroke-opacity:1"/>
<path class="bond-39 atom-39 atom-40" d="M 795.7,55.4 L 810.5,53.2" style="fill:none;fill-rule:evenodd;stroke:#000000;stroke-width:2.0px;stroke-linecap:butt;stroke-linejoin:miter;stroke-opacity:1"/>
<path class="bond-40 atom-40 atom-5" d="M 810.5,53.2 L 814.0,57.7" style="fill:none;fill-rule:evenodd;stroke:#000000;stroke-width:2.0px;stroke-linecap:butt;stroke-linejoin:miter;stroke-opacity:1"/>
<path class="bond-40 atom-40 atom-5" d="M 814.0,57.7 L 817.6,62.2" style="fill:none;fill-rule:evenodd;stroke:#0000FF;stroke-width:2.0px;stroke-linecap:butt;stroke-linejoin:miter;stroke-opacity:1"/>
<path class="bond-41 atom-38 atom-9" d="M 770.1,85.3 L 775.5,71.4" style="fill:none;fill-rule:evenodd;stroke:#000000;stroke-width:2.0px;stroke-linecap:butt;stroke-linejoin:miter;stroke-opacity:1"/>
<path class="bond-42 atom-36 atom-13" d="M 725.9,91.9 L 728.1,86.3" style="fill:none;fill-rule:evenodd;stroke:#000000;stroke-width:2.0px;stroke-linecap:butt;stroke-linejoin:miter;stroke-opacity:1"/>
<path class="bond-42 atom-36 atom-13" d="M 728.1,86.3 L 730.3,80.7" style="fill:none;fill-rule:evenodd;stroke:#0000FF;stroke-width:2.0px;stroke-linecap:butt;stroke-linejoin:miter;stroke-opacity:1"/>
<path class="bond-43 atom-25 atom-20" d="M 657.7,89.1 L 663.2,75.2" style="fill:none;fill-rule:evenodd;stroke:#000000;stroke-width:2.0px;stroke-linecap:butt;stroke-linejoin:miter;stroke-opacity:1"/>
<path class="bond-44 atom-36 atom-31" d="M 725.9,91.9 L 711.2,94.1" style="fill:none;fill-rule:evenodd;stroke:#000000;stroke-width:2.0px;stroke-linecap:butt;stroke-linejoin:miter;stroke-opacity:1"/>
<path class="bond-45 atom-30 atom-21" d="M 644.6,51.9 L 653.9,63.6" style="fill:none;fill-rule:evenodd;stroke:#000000;stroke-width:2.0px;stroke-linecap:butt;stroke-linejoin:miter;stroke-opacity:1"/>
<path class="bond-46 atom-29 atom-23" d="M 624.4,68.0 L 633.7,79.7" style="fill:none;fill-rule:evenodd;stroke:#000000;stroke-width:2.0px;stroke-linecap:butt;stroke-linejoin:miter;stroke-opacity:1"/>
<path d="M 844.1,74.2 L 843.7,74.2 L 843.3,73.7" style="fill:none;stroke:#000000;stroke-width:2.0px;stroke-linecap:butt;stroke-linejoin:miter;stroke-opacity:1;"/>
<path d="M 834.9,63.2 L 834.5,62.6 L 834.1,62.6" style="fill:none;stroke:#000000;stroke-width:2.0px;stroke-linecap:butt;stroke-linejoin:miter;stroke-opacity:1;"/>
<path d="M 814.4,78.4 L 814.3,78.7 L 813.5,78.8" style="fill:none;stroke:#000000;stroke-width:2.0px;stroke-linecap:butt;stroke-linejoin:miter;stroke-opacity:1;"/>
<path d="M 800.3,80.8 L 799.6,80.9 L 799.4,80.6" style="fill:none;stroke:#000000;stroke-width:2.0px;stroke-linecap:butt;stroke-linejoin:miter;stroke-opacity:1;"/>
<path d="M 766.7,60.4 L 766.3,59.8 L 765.5,59.9" style="fill:none;stroke:#000000;stroke-width:2.0px;stroke-linecap:butt;stroke-linejoin:miter;stroke-opacity:1;"/>
<path d="M 752.3,61.9 L 751.5,62.0 L 751.3,62.7" style="fill:none;stroke:#000000;stroke-width:2.0px;stroke-linecap:butt;stroke-linejoin:miter;stroke-opacity:1;"/>
<path d="M 722.3,66.6 L 722.1,66.4 L 721.3,66.5" style="fill:none;stroke:#000000;stroke-width:2.0px;stroke-linecap:butt;stroke-linejoin:miter;stroke-opacity:1;"/>
<path d="M 708.1,68.5 L 707.3,68.6 L 707.2,68.9" style="fill:none;stroke:#000000;stroke-width:2.0px;stroke-linecap:butt;stroke-linejoin:miter;stroke-opacity:1;"/>
<path d="M 687.5,84.6 L 687.2,84.7 L 687.0,84.5" style="fill:none;stroke:#000000;stroke-width:2.0px;stroke-linecap:butt;stroke-linejoin:miter;stroke-opacity:1;"/>
<path d="M 648.7,76.8 L 648.4,77.5 L 647.7,77.6" style="fill:none;stroke:#000000;stroke-width:2.0px;stroke-linecap:butt;stroke-linejoin:miter;stroke-opacity:1;"/>
<path d="M 642.5,90.7 L 643.0,91.3 L 643.7,91.2" style="fill:none;stroke:#000000;stroke-width:2.0px;stroke-linecap:butt;stroke-linejoin:miter;stroke-opacity:1;"/>
<path d="M 633.4,69.9 L 632.1,68.9 L 632.0,68.1" style="fill:none;stroke:#000000;stroke-width:2.0px;stroke-linecap:butt;stroke-linejoin:miter;stroke-opacity:1;"/>
<path d="M 624.7,67.3 L 624.4,68.0 L 624.9,68.6" style="fill:none;stroke:#000000;stroke-width:2.0px;stroke-linecap:butt;stroke-linejoin:miter;stroke-opacity:1;"/>
<path d="M 643.9,52.1 L 644.6,51.9 L 645.1,52.5" style="fill:none;stroke:#000000;stroke-width:2.0px;stroke-linecap:butt;stroke-linejoin:miter;stroke-opacity:1;"/>
<path d="M 706.0,107.3 L 705.7,108.0 L 706.2,108.6" style="fill:none;stroke:#000000;stroke-width:2.0px;stroke-linecap:butt;stroke-linejoin:miter;stroke-opacity:1;"/>
<path d="M 714.5,119.1 L 715.0,119.6 L 715.7,119.5" style="fill:none;stroke:#000000;stroke-width:2.0px;stroke-linecap:butt;stroke-linejoin:miter;stroke-opacity:1;"/>
<path d="M 729.0,117.5 L 729.7,117.4 L 730.0,116.7" style="fill:none;stroke:#000000;stroke-width:2.0px;stroke-linecap:butt;stroke-linejoin:miter;stroke-opacity:1;"/>
<path d="M 734.9,104.3 L 735.2,103.6 L 734.7,103.0" style="fill:none;stroke:#000000;stroke-width:2.0px;stroke-linecap:butt;stroke-linejoin:miter;stroke-opacity:1;"/>
<path d="M 769.8,85.3 L 770.1,85.3 L 770.4,84.6" style="fill:none;stroke:#000000;stroke-width:2.0px;stroke-linecap:butt;stroke-linejoin:miter;stroke-opacity:1;"/>
<path d="M 795.6,55.6 L 795.7,55.4 L 796.5,55.3" style="fill:none;stroke:#000000;stroke-width:2.0px;stroke-linecap:butt;stroke-linejoin:miter;stroke-opacity:1;"/>
<path d="M 809.7,53.3 L 810.5,53.2 L 810.6,53.4" style="fill:none;stroke:#000000;stroke-width:2.0px;stroke-linecap:butt;stroke-linejoin:miter;stroke-opacity:1;"/>
<path class="atom-0" d="M 880.5 81.5 Q 880.5 80.5, 881.0 79.9 Q 881.5 79.3, 882.5 79.3 Q 883.4 79.3, 883.9 79.9 Q 884.4 80.5, 884.4 81.5 Q 884.4 82.5, 883.9 83.1 Q 883.4 83.7, 882.5 83.7 Q 881.5 83.7, 881.0 83.1 Q 880.5 82.5, 880.5 81.5 M 882.5 83.2 Q 883.1 83.2, 883.5 82.8 Q 883.8 82.3, 883.8 81.5 Q 883.8 80.7, 883.5 80.2 Q 883.1 79.8, 882.5 79.8 Q 881.8 79.8, 881.5 80.2 Q 881.1 80.7, 881.1 81.5 Q 881.1 82.3, 881.5 82.8 Q 881.8 83.2, 882.5 83.2 " fill="#FF0000"/>
<path class="atom-1" d="M 866.8 81.6 L 868.2 83.8 Q 868.3 84.0, 868.6 84.4 Q 868.8 84.8, 868.8 84.9 L 868.8 81.6 L 869.4 81.6 L 869.4 85.8 L 868.8 85.8 L 867.3 83.4 Q 867.1 83.1, 866.9 82.7 Q 866.7 82.4, 866.7 82.3 L 866.7 85.8 L 866.1 85.8 L 866.1 81.6 L 866.8 81.6 " fill="#0000FF"/>
<path class="atom-2" d="M 857.5 69.9 L 858.9 72.2 Q 859.1 72.4, 859.3 72.8 Q 859.5 73.2, 859.5 73.2 L 859.5 69.9 L 860.1 69.9 L 860.1 74.2 L 859.5 74.2 L 858.0 71.7 Q 857.8 71.4, 857.6 71.1 Q 857.5 70.8, 857.4 70.7 L 857.4 74.2 L 856.9 74.2 L 856.9 69.9 L 857.5 69.9 " fill="#0000FF"/>
<path class="atom-5" d="M 818.8 62.7 L 820.2 64.9 Q 820.3 65.2, 820.5 65.6 Q 820.8 66.0, 820.8 66.0 L 820.8 62.7 L 821.3 62.7 L 821.3 66.9 L 820.8 66.9 L 819.3 64.5 Q 819.1 64.2, 818.9 63.8 Q 818.7 63.5, 818.7 63.4 L 818.7 66.9 L 818.1 66.9 L 818.1 62.7 L 818.8 62.7 " fill="#0000FF"/>
<path class="atom-8" d="M 789.3 67.1 L 790.7 69.3 Q 790.9 69.6, 791.1 70.0 Q 791.3 70.4, 791.3 70.4 L 791.3 67.1 L 791.9 67.1 L 791.9 71.3 L 791.3 71.3 L 789.8 68.9 Q 789.6 68.6, 789.4 68.3 Q 789.3 67.9, 789.2 67.8 L 789.2 71.3 L 788.7 71.3 L 788.7 67.1 L 789.3 67.1 " fill="#0000FF"/>
<path class="atom-13" d="M 730.4 75.9 L 731.8 78.2 Q 731.9 78.4, 732.2 78.8 Q 732.4 79.2, 732.4 79.2 L 732.4 75.9 L 733.0 75.9 L 733.0 80.2 L 732.4 80.2 L 730.9 77.7 Q 730.7 77.4, 730.5 77.1 Q 730.3 76.8, 730.3 76.7 L 730.3 80.2 L 729.7 80.2 L 729.7 75.9 L 730.4 75.9 " fill="#0000FF"/>
<path class="atom-16" d="M 701.0 80.4 L 702.3 82.6 Q 702.5 82.8, 702.7 83.2 Q 702.9 83.6, 702.9 83.7 L 702.9 80.4 L 703.5 80.4 L 703.5 84.6 L 702.9 84.6 L 701.4 82.1 Q 701.3 81.9, 701.1 81.5 Q 700.9 81.2, 700.8 81.1 L 700.8 84.6 L 700.3 84.6 L 700.3 80.4 L 701.0 80.4 " fill="#0000FF"/>
<path class="atom-18" d="M 679.8 98.6 Q 679.8 97.5, 680.3 97.0 Q 680.8 96.4, 681.7 96.4 Q 682.7 96.4, 683.2 97.0 Q 683.7 97.5, 683.7 98.6 Q 683.7 99.6, 683.2 100.2 Q 682.6 100.8, 681.7 100.8 Q 680.8 100.8, 680.3 100.2 Q 679.8 99.6, 679.8 98.6 M 681.7 100.3 Q 682.4 100.3, 682.7 99.9 Q 683.1 99.4, 683.1 98.6 Q 683.1 97.7, 682.7 97.3 Q 682.4 96.9, 681.7 96.9 Q 681.1 96.9, 680.7 97.3 Q 680.4 97.7, 680.4 98.6 Q 680.4 99.4, 680.7 99.9 Q 681.1 100.3, 681.7 100.3 " fill="#FF0000"/>
<path class="atom-19" d="M 676.9 70.9 L 678.3 73.2 Q 678.5 73.4, 678.7 73.8 Q 678.9 74.2, 678.9 74.2 L 678.9 70.9 L 679.5 70.9 L 679.5 75.2 L 678.9 75.2 L 677.4 72.7 Q 677.2 72.4, 677.1 72.1 Q 676.9 71.8, 676.8 71.7 L 676.8 75.2 L 676.3 75.2 L 676.3 70.9 L 676.9 70.9 " fill="#0000FF"/>
<path class="atom-19" d="M 680.3 70.9 L 680.9 70.9 L 680.9 72.7 L 683.1 72.7 L 683.1 70.9 L 683.6 70.9 L 683.6 75.2 L 683.1 75.2 L 683.1 73.2 L 680.9 73.2 L 680.9 75.2 L 680.3 75.2 L 680.3 70.9 " fill="#0000FF"/>
<path class="atom-28" d="M 614.4 40.4 L 615.0 40.4 L 615.0 42.2 L 617.2 42.2 L 617.2 40.4 L 617.8 40.4 L 617.8 44.7 L 617.2 44.7 L 617.2 42.7 L 615.0 42.7 L 615.0 44.7 L 614.4 44.7 L 614.4 40.4 " fill="#FF0000"/>
<path class="atom-28" d="M 618.6 42.5 Q 618.6 41.5, 619.1 40.9 Q 619.6 40.4, 620.6 40.4 Q 621.5 40.4, 622.0 40.9 Q 622.5 41.5, 622.5 42.5 Q 622.5 43.5, 622.0 44.1 Q 621.5 44.7, 620.6 44.7 Q 619.7 44.7, 619.1 44.1 Q 618.6 43.6, 618.6 42.5 M 620.6 44.2 Q 621.2 44.2, 621.6 43.8 Q 621.9 43.4, 621.9 42.5 Q 621.9 41.7, 621.6 41.3 Q 621.2 40.8, 620.6 40.8 Q 619.9 40.8, 619.6 41.3 Q 619.2 41.7, 619.2 42.5 Q 619.2 43.4, 619.6 43.8 Q 619.9 44.2, 620.6 44.2 " fill="#FF0000"/>
<path class="atom-37" d="M 754.4 85.4 L 755.8 87.6 Q 756.0 87.9, 756.2 88.3 Q 756.4 88.7, 756.4 88.7 L 756.4 85.4 L 757.0 85.4 L 757.0 89.6 L 756.4 89.6 L 754.9 87.2 Q 754.7 86.9, 754.5 86.5 Q 754.4 86.2, 754.3 86.1 L 754.3 89.6 L 753.8 89.6 L 753.8 85.4 L 754.4 85.4 " fill="#0000FF"/>
<path class="atom-0" d="M 885.6,81.5 L 885.6,81.5 L 885.6,81.5 L 885.6,81.6 L 885.6,81.6 L 885.6,81.6 L 885.6,81.6 L 885.6,81.6 L 885.6,81.7 L 885.5,81.7 L 885.5,81.7 L 885.5,81.7 L 885.5,81.7 L 885.5,81.7 L 885.4,81.8 L 885.4,81.8 L 885.4,81.8 L 885.4,81.8 L 885.3,81.8 L 885.3,81.8 L 885.3,81.8 L 885.3,81.8 L 885.2,81.8 L 885.2,81.8 L 885.2,81.7 L 885.2,81.7 L 885.1,81.7 L 885.1,81.7 L 885.1,81.7 L 885.1,81.7 L 885.1,81.6 L 885.1,81.6 L 885.1,81.6 L 885.0,81.6 L 885.0,81.5 L 885.0,81.5 L 885.0,81.5 L 885.0,81.5 L 885.0,81.4 L 885.0,81.4 L 885.0,81.4 L 885.1,81.4 L 885.1,81.3 L 885.1,81.3 L 885.1,81.3 L 885.1,81.3 L 885.1,81.3 L 885.1,81.2 L 885.2,81.2 L 885.2,81.2 L 885.2,81.2 L 885.2,81.2 L 885.3,81.2 L 885.3,81.2 L 885.3,81.2 L 885.3,81.2 L 885.4,81.2 L 885.4,81.2 L 885.4,81.2 L 885.4,81.2 L 885.5,81.2 L 885.5,81.2 L 885.5,81.2 L 885.5,81.3 L 885.5,81.3 L 885.6,81.3 L 885.6,81.3 L 885.6,81.3 L 885.6,81.4 L 885.6,81.4 L 885.6,81.4 L 885.6,81.4 L 885.6,81.5 L 885.6,81.5 L 885.3,81.5 Z" style="fill:#000000;fill-rule:evenodd;fill-opacity:1;stroke:#000000;stroke-width:0.0px;stroke-linecap:butt;stroke-linejoin:miter;stroke-opacity:1;"/>
<path class="atom-1" d="M 865.5,83.7 L 865.5,83.7 L 865.5,83.7 L 865.5,83.8 L 865.5,83.8 L 865.5,83.8 L 865.5,83.8 L 865.5,83.9 L 865.5,83.9 L 865.5,83.9 L 865.4,83.9 L 865.4,83.9 L 865.4,83.9 L 865.4,84.0 L 865.3,84.0 L 865.3,84.0 L 865.3,84.0 L 865.3,84.0 L 865.2,84.0 L 865.2,84.0 L 865.2,84.0 L 865.2,84.0 L 865.1,84.0 L 865.1,84.0 L 865.1,84.0 L 865.1,83.9 L 865.1,83.9 L 865.0,83.9 L 865.0,83.9 L 865.0,83.9 L 865.0,83.8 L 865.0,83.8 L 865.0,83.8 L 865.0,83.8 L 864.9,83.8 L 864.9,83.7 L 864.9,83.7 L 864.9,83.7 L 864.9,83.6 L 864.9,83.6 L 865.0,83.6 L 865.0,83.6 L 865.0,83.6 L 865.0,83.5 L 865.0,83.5 L 865.0,83.5 L 865.0,83.5 L 865.1,83.5 L 865.1,83.4 L 865.1,83.4 L 865.1,83.4 L 865.1,83.4 L 865.2,83.4 L 865.2,83.4 L 865.2,83.4 L 865.2,83.4 L 865.3,83.4 L 865.3,83.4 L 865.3,83.4 L 865.3,83.4 L 865.4,83.4 L 865.4,83.4 L 865.4,83.4 L 865.4,83.5 L 865.5,83.5 L 865.5,83.5 L 865.5,83.5 L 865.5,83.5 L 865.5,83.6 L 865.5,83.6 L 865.5,83.6 L 865.5,83.6 L 865.5,83.7 L 865.5,83.7 L 865.2,83.7 Z" style="fill:#000000;fill-rule:evenodd;fill-opacity:1;stroke:#000000;stroke-width:0.0px;stroke-linecap:butt;stroke-linejoin:miter;stroke-opacity:1;"/>
<path class="atom-2" d="M 861.3,72.0 L 861.3,72.1 L 861.3,72.1 L 861.3,72.1 L 861.3,72.1 L 861.3,72.2 L 861.2,72.2 L 861.2,72.2 L 861.2,72.2 L 861.2,72.2 L 861.2,72.3 L 861.2,72.3 L 861.1,72.3 L 861.1,72.3 L 861.1,72.3 L 861.1,72.3 L 861.0,72.3 L 861.0,72.3 L 861.0,72.3 L 861.0,72.3 L 860.9,72.3 L 860.9,72.3 L 860.9,72.3 L 860.9,72.3 L 860.8,72.3 L 860.8,72.3 L 860.8,72.3 L 860.8,72.3 L 860.8,72.2 L 860.7,72.2 L 860.7,72.2 L 860.7,72.2 L 860.7,72.1 L 860.7,72.1 L 860.7,72.1 L 860.7,72.1 L 860.7,72.0 L 860.7,72.0 L 860.7,72.0 L 860.7,72.0 L 860.7,71.9 L 860.7,71.9 L 860.7,71.9 L 860.7,71.9 L 860.7,71.9 L 860.8,71.8 L 860.8,71.8 L 860.8,71.8 L 860.8,71.8 L 860.8,71.8 L 860.9,71.8 L 860.9,71.8 L 860.9,71.7 L 860.9,71.7 L 861.0,71.7 L 861.0,71.7 L 861.0,71.7 L 861.0,71.7 L 861.1,71.7 L 861.1,71.8 L 861.1,71.8 L 861.1,71.8 L 861.2,71.8 L 861.2,71.8 L 861.2,71.8 L 861.2,71.8 L 861.2,71.9 L 861.2,71.9 L 861.3,71.9 L 861.3,71.9 L 861.3,72.0 L 861.3,72.0 L 861.3,72.0 L 861.3,72.0 L 861.0,72.0 Z" style="fill:#000000;fill-rule:evenodd;fill-opacity:1;stroke:#000000;stroke-width:0.0px;stroke-linecap:butt;stroke-linejoin:miter;stroke-opacity:1;"/>
<path class="atom-3" d="M 842.2,74.8 L 842.2,74.9 L 842.2,74.9 L 842.2,74.9 L 842.2,74.9 L 842.2,75.0 L 842.2,75.0 L 842.2,75.0 L 842.2,75.0 L 842.2,75.1 L 842.1,75.1 L 842.1,75.1 L 842.1,75.1 L 842.1,75.1 L 842.0,75.1 L 842.0,75.1 L 842.0,75.1 L 842.0,75.1 L 841.9,75.1 L 841.9,75.1 L 841.9,75.1 L 841.9,75.1 L 841.8,75.1 L 841.8,75.1 L 841.8,75.1 L 841.8,75.1 L 841.8,75.1 L 841.7,75.1 L 841.7,75.0 L 841.7,75.0 L 841.7,75.0 L 841.7,75.0 L 841.7,75.0 L 841.7,74.9 L 841.6,74.9 L 841.6,74.9 L 841.6,74.9 L 841.6,74.8 L 841.6,74.8 L 841.6,74.8 L 841.7,74.8 L 841.7,74.7 L 841.7,74.7 L 841.7,74.7 L 841.7,74.7 L 841.7,74.6 L 841.7,74.6 L 841.8,74.6 L 841.8,74.6 L 841.8,74.6 L 841.8,74.6 L 841.8,74.6 L 841.9,74.6 L 841.9,74.5 L 841.9,74.5 L 841.9,74.5 L 842.0,74.5 L 842.0,74.6 L 842.0,74.6 L 842.0,74.6 L 842.1,74.6 L 842.1,74.6 L 842.1,74.6 L 842.1,74.6 L 842.2,74.6 L 842.2,74.7 L 842.2,74.7 L 842.2,74.7 L 842.2,74.7 L 842.2,74.7 L 842.2,74.8 L 842.2,74.8 L 842.2,74.8 L 842.2,74.8 L 841.9,74.8 Z" style="fill:#000000;fill-rule:evenodd;fill-opacity:1;stroke:#000000;stroke-width:0.0px;stroke-linecap:butt;stroke-linejoin:miter;stroke-opacity:1;"/>
<path class="atom-3" d="M 842.2,73.6 L 842.2,73.7 L 842.2,73.7 L 842.2,73.7 L 842.2,73.7 L 842.2,73.8 L 842.2,73.8 L 842.2,73.8 L 842.2,73.8 L 842.2,73.9 L 842.1,73.9 L 842.1,73.9 L 842.1,73.9 L 842.1,73.9 L 842.0,73.9 L 842.0,73.9 L 842.0,73.9 L 842.0,73.9 L 841.9,73.9 L 841.9,73.9 L 841.9,73.9 L 841.9,73.9 L 841.8,73.9 L 841.8,73.9 L 841.8,73.9 L 841.8,73.9 L 841.8,73.9 L 841.7,73.9 L 841.7,73.8 L 841.7,73.8 L 841.7,73.8 L 841.7,73.8 L 841.7,73.8 L 841.7,73.7 L 841.6,73.7 L 841.6,73.7 L 841.6,73.7 L 841.6,73.6 L 841.6,73.6 L 841.6,73.6 L 841.7,73.6 L 841.7,73.5 L 841.7,73.5 L 841.7,73.5 L 841.7,73.5 L 841.7,73.4 L 841.7,73.4 L 841.8,73.4 L 841.8,73.4 L 841.8,73.4 L 841.8,73.4 L 841.8,73.4 L 841.9,73.4 L 841.9,73.3 L 841.9,73.3 L 841.9,73.3 L 842.0,73.3 L 842.0,73.4 L 842.0,73.4 L 842.0,73.4 L 842.1,73.4 L 842.1,73.4 L 842.1,73.4 L 842.1,73.4 L 842.2,73.4 L 842.2,73.5 L 842.2,73.5 L 842.2,73.5 L 842.2,73.5 L 842.2,73.5 L 842.2,73.6 L 842.2,73.6 L 842.2,73.6 L 842.2,73.6 L 841.9,73.6 Z" style="fill:#000000;fill-rule:evenodd;fill-opacity:1;stroke:#000000;stroke-width:0.0px;stroke-linecap:butt;stroke-linejoin:miter;stroke-opacity:1;"/>
<path class="atom-4" d="M 836.6,63.2 L 836.6,63.2 L 836.6,63.2 L 836.6,63.3 L 836.5,63.3 L 836.5,63.3 L 836.5,63.3 L 836.5,63.4 L 836.5,63.4 L 836.5,63.4 L 836.5,63.4 L 836.4,63.4 L 836.4,63.5 L 836.4,63.5 L 836.4,63.5 L 836.3,63.5 L 836.3,63.5 L 836.3,63.5 L 836.3,63.5 L 836.2,63.5 L 836.2,63.5 L 836.2,63.5 L 836.2,63.5 L 836.1,63.5 L 836.1,63.5 L 836.1,63.4 L 836.1,63.4 L 836.1,63.4 L 836.0,63.4 L 836.0,63.4 L 836.0,63.4 L 836.0,63.3 L 836.0,63.3 L 836.0,63.3 L 836.0,63.3 L 836.0,63.2 L 836.0,63.2 L 836.0,63.2 L 836.0,63.2 L 836.0,63.1 L 836.0,63.1 L 836.0,63.1 L 836.0,63.1 L 836.0,63.0 L 836.0,63.0 L 836.0,63.0 L 836.1,63.0 L 836.1,63.0 L 836.1,62.9 L 836.1,62.9 L 836.1,62.9 L 836.2,62.9 L 836.2,62.9 L 836.2,62.9 L 836.2,62.9 L 836.3,62.9 L 836.3,62.9 L 836.3,62.9 L 836.3,62.9 L 836.4,62.9 L 836.4,62.9 L 836.4,62.9 L 836.4,63.0 L 836.5,63.0 L 836.5,63.0 L 836.5,63.0 L 836.5,63.0 L 836.5,63.0 L 836.5,63.1 L 836.5,63.1 L 836.6,63.1 L 836.6,63.1 L 836.6,63.2 L 836.6,63.2 L 836.3,63.2 Z" style="fill:#000000;fill-rule:evenodd;fill-opacity:1;stroke:#000000;stroke-width:0.0px;stroke-linecap:butt;stroke-linejoin:miter;stroke-opacity:1;"/>
<path class="atom-4" d="M 836.6,62.0 L 836.6,62.0 L 836.6,62.0 L 836.6,62.1 L 836.5,62.1 L 836.5,62.1 L 836.5,62.1 L 836.5,62.2 L 836.5,62.2 L 836.5,62.2 L 836.5,62.2 L 836.4,62.2 L 836.4,62.3 L 836.4,62.3 L 836.4,62.3 L 836.3,62.3 L 836.3,62.3 L 836.3,62.3 L 836.3,62.3 L 836.2,62.3 L 836.2,62.3 L 836.2,62.3 L 836.2,62.3 L 836.1,62.3 L 836.1,62.3 L 836.1,62.2 L 836.1,62.2 L 836.1,62.2 L 836.0,62.2 L 836.0,62.2 L 836.0,62.2 L 836.0,62.1 L 836.0,62.1 L 836.0,62.1 L 836.0,62.1 L 836.0,62.0 L 836.0,62.0 L 836.0,62.0 L 836.0,62.0 L 836.0,61.9 L 836.0,61.9 L 836.0,61.9 L 836.0,61.9 L 836.0,61.8 L 836.0,61.8 L 836.0,61.8 L 836.1,61.8 L 836.1,61.8 L 836.1,61.7 L 836.1,61.7 L 836.1,61.7 L 836.2,61.7 L 836.2,61.7 L 836.2,61.7 L 836.2,61.7 L 836.3,61.7 L 836.3,61.7 L 836.3,61.7 L 836.3,61.7 L 836.4,61.7 L 836.4,61.7 L 836.4,61.7 L 836.4,61.8 L 836.5,61.8 L 836.5,61.8 L 836.5,61.8 L 836.5,61.8 L 836.5,61.8 L 836.5,61.9 L 836.5,61.9 L 836.6,61.9 L 836.6,61.9 L 836.6,62.0 L 836.6,62.0 L 836.3,62.0 Z" style="fill:#000000;fill-rule:evenodd;fill-opacity:1;stroke:#000000;stroke-width:0.0px;stroke-linecap:butt;stroke-linejoin:miter;stroke-opacity:1;"/>
</svg>