<svg baseProfile="full" height="200px" version="1.1" viewBox="0 0 200 200" width="200px" xml:space="preserve" xmlns="http://www.w3.org/2000/svg" xmlns:rdkit="http://www.rdkit.org/xml" xmlns:xlink="http://www.w3.org/1999/xlink">
<!-- END OF HEADER -->
<rect height="200.0" style="opacity:1.0;fill:#FFFFFF;stroke:none" width="200.0" x="0.0" y="0.0"> </rect>
<rect height="200.0" style="opacity:1.0;fill:#FFFFFF;stroke:none" width="200.0" x="0.0" y="0.0"> </rect>
<path class="bond-0 atom-0 atom-1" d="M 37.5,135.1 L 54.0,125.6" style="fill:none;fill-rule:evenodd;stroke:#0000FF;stroke-width:2.0px;stroke-linecap:butt;stroke-linejoin:miter;stroke-opacity:1"/>
<path class="bond-0 atom-0 atom-1" d="M 54.0,125.6 L 70.5,116.1" style="fill:none;fill-rule:evenodd;stroke:#000000;stroke-width:2.0px;stroke-linecap:butt;stroke-linejoin:miter;stroke-opacity:1"/>
<path class="bond-1 atom-1 atom-2" d="M 70.5,116.1 L 70.5,71.2" style="fill:none;fill-rule:evenodd;stroke:#000000;stroke-width:2.0px;stroke-linecap:butt;stroke-linejoin:miter;stroke-opacity:1"/>
<path class="bond-1 atom-1 atom-2" d="M 79.5,109.4 L 79.5,77.9" style="fill:none;fill-rule:evenodd;stroke:#000000;stroke-width:2.0px;stroke-linecap:butt;stroke-linejoin:miter;stroke-opacity:1"/>
<path class="bond-7 atom-7 atom-1" d="M 109.4,138.5 L 70.5,116.1" style="fill:none;fill-rule:evenodd;stroke:#000000;stroke-width:2.0px;stroke-linecap:butt;stroke-linejoin:miter;stroke-opacity:1"/>
<path class="bond-2 atom-2 atom-3" d="M 70.5,71.2 L 109.4,48.7" style="fill:none;fill-rule:evenodd;stroke:#000000;stroke-width:2.0px;stroke-linecap:butt;stroke-linejoin:miter;stroke-opacity:1"/>
<path class="bond-3 atom-3 atom-4" d="M 109.4,48.7 L 125.8,58.3" style="fill:none;fill-rule:evenodd;stroke:#000000;stroke-width:2.0px;stroke-linecap:butt;stroke-linejoin:miter;stroke-opacity:1"/>
<path class="bond-3 atom-3 atom-4" d="M 125.8,58.3 L 142.3,67.8" style="fill:none;fill-rule:evenodd;stroke:#0000FF;stroke-width:2.0px;stroke-linecap:butt;stroke-linejoin:miter;stroke-opacity:1"/>
<path class="bond-3 atom-3 atom-4" d="M 109.8,59.4 L 121.3,66.0" style="fill:none;fill-rule:evenodd;stroke:#000000;stroke-width:2.0px;stroke-linecap:butt;stroke-linejoin:miter;stroke-opacity:1"/>
<path class="bond-3 atom-3 atom-4" d="M 121.3,66.0 L 132.9,72.7" style="fill:none;fill-rule:evenodd;stroke:#0000FF;stroke-width:2.0px;stroke-linecap:butt;stroke-linejoin:miter;stroke-opacity:1"/>
<path class="bond-4 atom-4 atom-5" d="M 148.2,78.7 L 148.2,97.4" style="fill:none;fill-rule:evenodd;stroke:#0000FF;stroke-width:2.0px;stroke-linecap:butt;stroke-linejoin:miter;stroke-opacity:1"/>
<path class="bond-4 atom-4 atom-5" d="M 148.2,97.4 L 148.2,116.1" style="fill:none;fill-rule:evenodd;stroke:#000000;stroke-width:2.0px;stroke-linecap:butt;stroke-linejoin:miter;stroke-opacity:1"/>
<path class="bond-5 atom-5 atom-6" d="M 148.2,116.1 L 165.2,125.9" style="fill:none;fill-rule:evenodd;stroke:#000000;stroke-width:2.0px;stroke-linecap:butt;stroke-linejoin:miter;stroke-opacity:1"/>
<path class="bond-5 atom-5 atom-6" d="M 165.2,125.9 L 182.2,135.7" style="fill:none;fill-rule:evenodd;stroke:#33CCCC;stroke-width:2.0px;stroke-linecap:butt;stroke-linejoin:miter;stroke-opacity:1"/>
<path class="bond-6 atom-5 atom-7" d="M 148.2,116.1 L 109.4,138.5" style="fill:none;fill-rule:evenodd;stroke:#000000;stroke-width:2.0px;stroke-linecap:butt;stroke-linejoin:miter;stroke-opacity:1"/>
<path class="bond-6 atom-5 atom-7" d="M 137.9,111.7 L 110.7,127.4" style="fill:none;fill-rule:evenodd;stroke:#000000;stroke-width:2.0px;stroke-linecap:butt;stroke-linejoin:miter;stroke-opacity:1"/>
<path class="atom-0" d="M 9.1 132.2 L 10.8 132.2 L 10.8 137.6 L 17.3 137.6 L 17.3 132.2 L 19.0 132.2 L 19.0 144.9 L 17.3 144.9 L 17.3 139.0 L 10.8 139.0 L 10.8 144.9 L 9.1 144.9 L 9.1 132.2 " fill="#0000FF"/>
<path class="atom-0" d="M 19.7 144.5 Q 20.0 143.7, 20.7 143.2 Q 21.4 142.8, 22.5 142.8 Q 23.7 142.8, 24.4 143.5 Q 25.1 144.1, 25.1 145.4 Q 25.1 146.6, 24.2 147.8 Q 23.3 148.9, 21.4 150.3 L 25.3 150.3 L 25.3 151.3 L 19.6 151.3 L 19.6 150.5 Q 21.2 149.3, 22.1 148.5 Q 23.1 147.7, 23.5 146.9 Q 24.0 146.2, 24.0 145.4 Q 24.0 144.6, 23.6 144.2 Q 23.2 143.7, 22.5 143.7 Q 21.8 143.7, 21.3 144.0 Q 20.9 144.3, 20.6 144.9 L 19.7 144.5 " fill="#0000FF"/>
<path class="atom-0" d="M 28.8 132.2 L 33.0 138.9 Q 33.4 139.6, 34.0 140.8 Q 34.7 142.0, 34.7 142.1 L 34.7 132.2 L 36.4 132.2 L 36.4 144.9 L 34.7 144.9 L 30.2 137.5 Q 29.7 136.7, 29.1 135.7 Q 28.6 134.7, 28.4 134.4 L 28.4 144.9 L 26.8 144.9 L 26.8 132.2 L 28.8 132.2 " fill="#0000FF"/>
<path class="atom-4" d="M 145.4 64.8 L 149.6 71.6 Q 150.0 72.2, 150.7 73.4 Q 151.3 74.6, 151.4 74.7 L 151.4 64.8 L 153.1 64.8 L 153.1 77.6 L 151.3 77.6 L 146.9 70.2 Q 146.3 69.3, 145.8 68.3 Q 145.2 67.4, 145.1 67.0 L 145.1 77.6 L 143.4 77.6 L 143.4 64.8 L 145.4 64.8 " fill="#0000FF"/>
<path class="atom-6" d="M 183.3 132.2 L 190.9 132.2 L 190.9 133.6 L 185.1 133.6 L 185.1 137.5 L 190.3 137.5 L 190.3 139.0 L 185.1 139.0 L 185.1 144.9 L 183.3 144.9 L 183.3 132.2 " fill="#33CCCC"/>
</svg>