<svg baseProfile="full" height="200px" version="1.1" viewBox="0 0 200 200" width="200px" xml:space="preserve" xmlns="http://www.w3.org/2000/svg" xmlns:rdkit="http://www.rdkit.org/xml" xmlns:xlink="http://www.w3.org/1999/xlink">
<!-- END OF HEADER -->
<rect height="200.0" style="opacity:1.0;fill:#FFFFFF;stroke:none" width="200.0" x="0.0" y="0.0"> </rect>
<rect height="200.0" style="opacity:1.0;fill:#FFFFFF;stroke:none" width="200.0" x="0.0" y="0.0"> </rect>
<path class="bond-0 atom-0 atom-1" d="M 36.3,54.4 L 54.7,100.0" style="fill:none;fill-rule:evenodd;stroke:#000000;stroke-width:2.0px;stroke-linecap:butt;stroke-linejoin:miter;stroke-opacity:1"/>
<path class="bond-1 atom-1 atom-2" d="M 54.7,100.0 L 73.0,145.6" style="fill:none;fill-rule:evenodd;stroke:#000000;stroke-width:2.0px;stroke-linecap:butt;stroke-linejoin:miter;stroke-opacity:1"/>
<path class="bond-2 atom-1 atom-3" d="M 54.7,100.0 L 9.1,118.4" style="fill:none;fill-rule:evenodd;stroke:#000000;stroke-width:2.0px;stroke-linecap:butt;stroke-linejoin:miter;stroke-opacity:1"/>
<path class="bond-3 atom-1 atom-4" d="M 54.7,100.0 L 73.6,92.4" style="fill:none;fill-rule:evenodd;stroke:#000000;stroke-width:2.0px;stroke-linecap:butt;stroke-linejoin:miter;stroke-opacity:1"/>
<path class="bond-3 atom-1 atom-4" d="M 73.6,92.4 L 92.6,84.7" style="fill:none;fill-rule:evenodd;stroke:#FF0000;stroke-width:2.0px;stroke-linecap:butt;stroke-linejoin:miter;stroke-opacity:1"/>
<path class="bond-4 atom-4 atom-5" d="M 107.9,87.6 L 123.4,99.8" style="fill:none;fill-rule:evenodd;stroke:#FF0000;stroke-width:2.0px;stroke-linecap:butt;stroke-linejoin:miter;stroke-opacity:1"/>
<path class="bond-4 atom-4 atom-5" d="M 123.4,99.8 L 138.9,111.9" style="fill:none;fill-rule:evenodd;stroke:#000000;stroke-width:2.0px;stroke-linecap:butt;stroke-linejoin:miter;stroke-opacity:1"/>
<path class="bond-5 atom-5 atom-6" d="M 140.8,116.5 L 159.8,108.8" style="fill:none;fill-rule:evenodd;stroke:#000000;stroke-width:2.0px;stroke-linecap:butt;stroke-linejoin:miter;stroke-opacity:1"/>
<path class="bond-5 atom-5 atom-6" d="M 159.8,108.8 L 178.7,101.2" style="fill:none;fill-rule:evenodd;stroke:#FF0000;stroke-width:2.0px;stroke-linecap:butt;stroke-linejoin:miter;stroke-opacity:1"/>
<path class="bond-5 atom-5 atom-6" d="M 137.1,107.4 L 156.1,99.7" style="fill:none;fill-rule:evenodd;stroke:#000000;stroke-width:2.0px;stroke-linecap:butt;stroke-linejoin:miter;stroke-opacity:1"/>
<path class="bond-5 atom-5 atom-6" d="M 156.1,99.7 L 175.1,92.1" style="fill:none;fill-rule:evenodd;stroke:#FF0000;stroke-width:2.0px;stroke-linecap:butt;stroke-linejoin:miter;stroke-opacity:1"/>
<path class="atom-4" d="M 93.9 81.7 Q 93.9 78.3, 95.5 76.5 Q 97.2 74.6, 100.2 74.6 Q 103.3 74.6, 105.0 76.5 Q 106.6 78.3, 106.6 81.7 Q 106.6 85.1, 105.0 87.0 Q 103.3 88.9, 100.2 88.9 Q 97.2 88.9, 95.5 87.0 Q 93.9 85.1, 93.9 81.7 M 100.2 87.3 Q 102.4 87.3, 103.5 85.9 Q 104.7 84.5, 104.7 81.7 Q 104.7 78.9, 103.5 77.6 Q 102.4 76.2, 100.2 76.2 Q 98.1 76.2, 97.0 77.5 Q 95.8 78.9, 95.8 81.7 Q 95.8 84.5, 97.0 85.9 Q 98.1 87.3, 100.2 87.3 " fill="#FF0000"/>
<path class="atom-6" d="M 178.1 93.6 Q 178.1 90.3, 179.8 88.4 Q 181.4 86.5, 184.5 86.5 Q 187.6 86.5, 189.3 88.4 Q 190.9 90.3, 190.9 93.6 Q 190.9 97.0, 189.2 98.9 Q 187.6 100.8, 184.5 100.8 Q 181.5 100.8, 179.8 98.9 Q 178.1 97.0, 178.1 93.6 M 184.5 99.2 Q 186.6 99.2, 187.8 97.8 Q 188.9 96.4, 188.9 93.6 Q 188.9 90.9, 187.8 89.5 Q 186.6 88.1, 184.5 88.1 Q 182.4 88.1, 181.2 89.5 Q 180.1 90.8, 180.1 93.6 Q 180.1 96.4, 181.2 97.8 Q 182.4 99.2, 184.5 99.2 " fill="#FF0000"/>
</svg>