<svg baseProfile="full" height="200px" version="1.1" viewBox="0 0 200 200" width="200px" xml:space="preserve" xmlns="http://www.w3.org/2000/svg" xmlns:rdkit="http://www.rdkit.org/xml" xmlns:xlink="http://www.w3.org/1999/xlink">
<!-- END OF HEADER -->
<rect height="200.0" style="opacity:1.0;fill:#FFFFFF;stroke:none" width="200.0" x="0.0" y="0.0"> </rect>
<rect height="200.0" style="opacity:1.0;fill:#FFFFFF;stroke:none" width="200.0" x="0.0" y="0.0"> </rect>
<path class="bond-0 atom-0 atom-1" d="M 158.0,100.0 L 135.4,100.0" style="fill:none;fill-rule:evenodd;stroke:#0000FF;stroke-width:2.0px;stroke-linecap:butt;stroke-linejoin:miter;stroke-opacity:1"/>
<path class="bond-0 atom-0 atom-1" d="M 135.4,100.0 L 112.9,100.0" style="fill:none;fill-rule:evenodd;stroke:#000000;stroke-width:2.0px;stroke-linecap:butt;stroke-linejoin:miter;stroke-opacity:1"/>
<path class="bond-1 atom-1 atom-2" d="M 112.9,100.0 L 87.0,145.0" style="fill:none;fill-rule:evenodd;stroke:#000000;stroke-width:2.0px;stroke-linecap:butt;stroke-linejoin:miter;stroke-opacity:1"/>
<path class="bond-1 atom-1 atom-2" d="M 100.0,101.6 L 81.9,133.0" style="fill:none;fill-rule:evenodd;stroke:#000000;stroke-width:2.0px;stroke-linecap:butt;stroke-linejoin:miter;stroke-opacity:1"/>
<path class="bond-6 atom-6 atom-1" d="M 87.0,55.0 L 112.9,100.0" style="fill:none;fill-rule:evenodd;stroke:#000000;stroke-width:2.0px;stroke-linecap:butt;stroke-linejoin:miter;stroke-opacity:1"/>
<path class="bond-2 atom-2 atom-3" d="M 87.0,145.0 L 35.0,145.0" style="fill:none;fill-rule:evenodd;stroke:#000000;stroke-width:2.0px;stroke-linecap:butt;stroke-linejoin:miter;stroke-opacity:1"/>
<path class="bond-3 atom-3 atom-4" d="M 35.0,145.0 L 9.1,100.0" style="fill:none;fill-rule:evenodd;stroke:#000000;stroke-width:2.0px;stroke-linecap:butt;stroke-linejoin:miter;stroke-opacity:1"/>
<path class="bond-3 atom-3 atom-4" d="M 40.1,133.0 L 22.0,101.6" style="fill:none;fill-rule:evenodd;stroke:#000000;stroke-width:2.0px;stroke-linecap:butt;stroke-linejoin:miter;stroke-opacity:1"/>
<path class="bond-4 atom-4 atom-5" d="M 9.1,100.0 L 35.0,55.0" style="fill:none;fill-rule:evenodd;stroke:#000000;stroke-width:2.0px;stroke-linecap:butt;stroke-linejoin:miter;stroke-opacity:1"/>
<path class="bond-5 atom-5 atom-6" d="M 35.0,55.0 L 87.0,55.0" style="fill:none;fill-rule:evenodd;stroke:#000000;stroke-width:2.0px;stroke-linecap:butt;stroke-linejoin:miter;stroke-opacity:1"/>
<path class="bond-5 atom-5 atom-6" d="M 42.8,65.4 L 79.2,65.4" style="fill:none;fill-rule:evenodd;stroke:#000000;stroke-width:2.0px;stroke-linecap:butt;stroke-linejoin:miter;stroke-opacity:1"/>
<path class="atom-0" d="M 161.6 92.6 L 166.4 100.4 Q 166.9 101.2, 167.7 102.6 Q 168.4 104.0, 168.5 104.1 L 168.5 92.6 L 170.4 92.6 L 170.4 107.4 L 168.4 107.4 L 163.2 98.8 Q 162.6 97.8, 162.0 96.7 Q 161.4 95.6, 161.2 95.2 L 161.2 107.4 L 159.3 107.4 L 159.3 92.6 L 161.6 92.6 " fill="#0000FF"/>
<path class="atom-0" d="M 172.2 92.6 L 174.2 92.6 L 174.2 98.9 L 181.7 98.9 L 181.7 92.6 L 183.7 92.6 L 183.7 107.4 L 181.7 107.4 L 181.7 100.6 L 174.2 100.6 L 174.2 107.4 L 172.2 107.4 L 172.2 92.6 " fill="#0000FF"/>
<path class="atom-0" d="M 184.4 106.8 Q 184.8 105.9, 185.6 105.4 Q 186.5 104.9, 187.6 104.9 Q 189.1 104.9, 189.9 105.7 Q 190.7 106.5, 190.7 107.9 Q 190.7 109.3, 189.7 110.7 Q 188.6 112.0, 186.4 113.6 L 190.9 113.6 L 190.9 114.7 L 184.4 114.7 L 184.4 113.8 Q 186.2 112.5, 187.2 111.5 Q 188.3 110.6, 188.9 109.7 Q 189.4 108.9, 189.4 108.0 Q 189.4 107.0, 188.9 106.5 Q 188.4 106.0, 187.6 106.0 Q 186.9 106.0, 186.3 106.3 Q 185.8 106.6, 185.4 107.3 L 184.4 106.8 " fill="#0000FF"/>
</svg>