<svg xmlns="http://www.w3.org/2000/svg" xmlns:rdkit="http://www.rdkit.org/xml" xmlns:xlink="http://www.w3.org/1999/xlink" version="1.1" baseProfile="full" xml:space="preserve" width="900px" height="160px" viewBox="0 0 900 160">
<!-- END OF HEADER -->
<rect style="opacity:1.0;fill:#FFFFFF;stroke:none" width="900.0" height="160.0" x="0.0" y="0.0"> </rect>
<path class="bond-0 atom-0 atom-1" d="M 109.9,119.9 L 111.3,113.5" style="fill:none;fill-rule:evenodd;stroke:#000000;stroke-width:2.0px;stroke-linecap:butt;stroke-linejoin:miter;stroke-opacity:1"/>
<path class="bond-0 atom-0 atom-1" d="M 111.3,113.5 L 112.6,107.1" style="fill:none;fill-rule:evenodd;stroke:#FF0000;stroke-width:2.0px;stroke-linecap:butt;stroke-linejoin:miter;stroke-opacity:1"/>
<path class="bond-1 atom-1 atom-2" d="M 110.6,101.9 L 105.9,97.7" style="fill:none;fill-rule:evenodd;stroke:#FF0000;stroke-width:2.0px;stroke-linecap:butt;stroke-linejoin:miter;stroke-opacity:1"/>
<path class="bond-1 atom-1 atom-2" d="M 105.9,97.7 L 101.3,93.6" style="fill:none;fill-rule:evenodd;stroke:#000000;stroke-width:2.0px;stroke-linecap:butt;stroke-linejoin:miter;stroke-opacity:1"/>
<path class="bond-2 atom-2 atom-3" d="M 101.3,93.6 L 94.8,95.7" style="fill:none;fill-rule:evenodd;stroke:#000000;stroke-width:2.0px;stroke-linecap:butt;stroke-linejoin:miter;stroke-opacity:1"/>
<path class="bond-2 atom-2 atom-3" d="M 94.8,95.7 L 88.4,97.8" style="fill:none;fill-rule:evenodd;stroke:#0000FF;stroke-width:2.0px;stroke-linecap:butt;stroke-linejoin:miter;stroke-opacity:1"/>
<path class="bond-2 atom-2 atom-3" d="M 99.2,91.7 L 93.4,93.6" style="fill:none;fill-rule:evenodd;stroke:#000000;stroke-width:2.0px;stroke-linecap:butt;stroke-linejoin:miter;stroke-opacity:1"/>
<path class="bond-2 atom-2 atom-3" d="M 93.4,93.6 L 87.6,95.5" style="fill:none;fill-rule:evenodd;stroke:#0000FF;stroke-width:2.0px;stroke-linecap:butt;stroke-linejoin:miter;stroke-opacity:1"/>
<path class="bond-3 atom-3 atom-4" d="M 83.9,96.5 L 79.0,92.2" style="fill:none;fill-rule:evenodd;stroke:#0000FF;stroke-width:2.0px;stroke-linecap:butt;stroke-linejoin:miter;stroke-opacity:1"/>
<path class="bond-3 atom-3 atom-4" d="M 79.0,92.2 L 74.2,87.9" style="fill:none;fill-rule:evenodd;stroke:#000000;stroke-width:2.0px;stroke-linecap:butt;stroke-linejoin:miter;stroke-opacity:1"/>
<path class="bond-4 atom-4 atom-5" d="M 74.2,87.9 L 77.5,72.3" style="fill:none;fill-rule:evenodd;stroke:#000000;stroke-width:2.0px;stroke-linecap:butt;stroke-linejoin:miter;stroke-opacity:1"/>
<path class="bond-4 atom-4 atom-5" d="M 76.8,87.0 L 79.5,74.1" style="fill:none;fill-rule:evenodd;stroke:#000000;stroke-width:2.0px;stroke-linecap:butt;stroke-linejoin:miter;stroke-opacity:1"/>
<path class="bond-5 atom-5 atom-6" d="M 77.5,72.3 L 92.6,67.3" style="fill:none;fill-rule:evenodd;stroke:#000000;stroke-width:2.0px;stroke-linecap:butt;stroke-linejoin:miter;stroke-opacity:1"/>
<path class="bond-6 atom-6 atom-7" d="M 92.6,67.3 L 104.6,77.9" style="fill:none;fill-rule:evenodd;stroke:#000000;stroke-width:2.0px;stroke-linecap:butt;stroke-linejoin:miter;stroke-opacity:1"/>
<path class="bond-6 atom-6 atom-7" d="M 92.1,70.0 L 101.9,78.8" style="fill:none;fill-rule:evenodd;stroke:#000000;stroke-width:2.0px;stroke-linecap:butt;stroke-linejoin:miter;stroke-opacity:1"/>
<path class="bond-7 atom-7 atom-8" d="M 104.6,77.9 L 119.7,72.9" style="fill:none;fill-rule:evenodd;stroke:#000000;stroke-width:2.0px;stroke-linecap:butt;stroke-linejoin:miter;stroke-opacity:1"/>
<path class="bond-8 atom-8 atom-9" d="M 119.7,72.9 L 131.7,83.6" style="fill:none;fill-rule:evenodd;stroke:#000000;stroke-width:2.0px;stroke-linecap:butt;stroke-linejoin:miter;stroke-opacity:1"/>
<path class="bond-9 atom-9 atom-10" d="M 131.7,83.6 L 139.2,97.7" style="fill:none;fill-rule:evenodd;stroke:#000000;stroke-width:2.0px;stroke-linecap:butt;stroke-linejoin:miter;stroke-opacity:1"/>
<path class="bond-10 atom-9 atom-11" d="M 131.7,83.6 L 119.1,93.5" style="fill:none;fill-rule:evenodd;stroke:#000000;stroke-width:2.0px;stroke-linecap:butt;stroke-linejoin:miter;stroke-opacity:1"/>
<path class="bond-11 atom-9 atom-12" d="M 131.7,83.6 L 137.9,81.5" style="fill:none;fill-rule:evenodd;stroke:#000000;stroke-width:2.0px;stroke-linecap:butt;stroke-linejoin:miter;stroke-opacity:1"/>
<path class="bond-11 atom-9 atom-12" d="M 137.9,81.5 L 144.2,79.4" style="fill:none;fill-rule:evenodd;stroke:#FF0000;stroke-width:2.0px;stroke-linecap:butt;stroke-linejoin:miter;stroke-opacity:1"/>
<path class="bond-12 atom-12 atom-13" d="M 147.4,75.8 L 148.8,69.4" style="fill:none;fill-rule:evenodd;stroke:#FF0000;stroke-width:2.0px;stroke-linecap:butt;stroke-linejoin:miter;stroke-opacity:1"/>
<path class="bond-12 atom-12 atom-13" d="M 148.8,69.4 L 150.1,62.9" style="fill:none;fill-rule:evenodd;stroke:#000000;stroke-width:2.0px;stroke-linecap:butt;stroke-linejoin:miter;stroke-opacity:1"/>
<path class="bond-13 atom-13 atom-14" d="M 150.1,62.9 L 156.6,60.8" style="fill:none;fill-rule:evenodd;stroke:#000000;stroke-width:2.0px;stroke-linecap:butt;stroke-linejoin:miter;stroke-opacity:1"/>
<path class="bond-13 atom-13 atom-14" d="M 156.6,60.8 L 163.0,58.7" style="fill:none;fill-rule:evenodd;stroke:#0000FF;stroke-width:2.0px;stroke-linecap:butt;stroke-linejoin:miter;stroke-opacity:1"/>
<path class="bond-14 atom-14 atom-15" d="M 167.5,60.0 L 172.4,64.3" style="fill:none;fill-rule:evenodd;stroke:#0000FF;stroke-width:2.0px;stroke-linecap:butt;stroke-linejoin:miter;stroke-opacity:1"/>
<path class="bond-14 atom-14 atom-15" d="M 172.4,64.3 L 177.2,68.6" style="fill:none;fill-rule:evenodd;stroke:#000000;stroke-width:2.0px;stroke-linecap:butt;stroke-linejoin:miter;stroke-opacity:1"/>
<path class="bond-15 atom-15 atom-16" d="M 177.2,68.6 L 192.4,63.6" style="fill:none;fill-rule:evenodd;stroke:#000000;stroke-width:2.0px;stroke-linecap:butt;stroke-linejoin:miter;stroke-opacity:1"/>
<path class="bond-16 atom-16 atom-17" d="M 192.4,63.6 L 204.3,74.3" style="fill:none;fill-rule:evenodd;stroke:#000000;stroke-width:2.0px;stroke-linecap:butt;stroke-linejoin:miter;stroke-opacity:1"/>
<path class="bond-17 atom-17 atom-18" d="M 204.3,74.3 L 210.6,72.2" style="fill:none;fill-rule:evenodd;stroke:#000000;stroke-width:2.0px;stroke-linecap:butt;stroke-linejoin:miter;stroke-opacity:1"/>
<path class="bond-17 atom-17 atom-18" d="M 210.6,72.2 L 216.9,70.1" style="fill:none;fill-rule:evenodd;stroke:#FF0000;stroke-width:2.0px;stroke-linecap:butt;stroke-linejoin:miter;stroke-opacity:1"/>
<path class="bond-18 atom-15 atom-19" d="M 177.2,68.6 L 173.9,84.3" style="fill:none;fill-rule:evenodd;stroke:#000000;stroke-width:2.0px;stroke-linecap:butt;stroke-linejoin:miter;stroke-opacity:1"/>
<path class="bond-19 atom-19 atom-20" d="M 173.9,84.3 L 158.8,89.2" style="fill:none;fill-rule:evenodd;stroke:#000000;stroke-width:2.0px;stroke-linecap:butt;stroke-linejoin:miter;stroke-opacity:1"/>
<path class="bond-19 atom-19 atom-20" d="M 173.4,87.0 L 160.8,91.1" style="fill:none;fill-rule:evenodd;stroke:#000000;stroke-width:2.0px;stroke-linecap:butt;stroke-linejoin:miter;stroke-opacity:1"/>
<path class="bond-20 atom-20 atom-21" d="M 158.8,89.2 L 155.5,104.9" style="fill:none;fill-rule:evenodd;stroke:#000000;stroke-width:2.0px;stroke-linecap:butt;stroke-linejoin:miter;stroke-opacity:1"/>
<path class="bond-21 atom-21 atom-22" d="M 155.5,104.9 L 167.4,115.5" style="fill:none;fill-rule:evenodd;stroke:#000000;stroke-width:2.0px;stroke-linecap:butt;stroke-linejoin:miter;stroke-opacity:1"/>
<path class="bond-21 atom-21 atom-22" d="M 158.1,104.0 L 168.0,112.8" style="fill:none;fill-rule:evenodd;stroke:#000000;stroke-width:2.0px;stroke-linecap:butt;stroke-linejoin:miter;stroke-opacity:1"/>
<path class="bond-22 atom-22 atom-23" d="M 167.4,115.5 L 182.6,110.5" style="fill:none;fill-rule:evenodd;stroke:#000000;stroke-width:2.0px;stroke-linecap:butt;stroke-linejoin:miter;stroke-opacity:1"/>
<path class="bond-23 atom-23 atom-24" d="M 182.6,110.5 L 185.8,94.9" style="fill:none;fill-rule:evenodd;stroke:#000000;stroke-width:2.0px;stroke-linecap:butt;stroke-linejoin:miter;stroke-opacity:1"/>
<path class="bond-23 atom-23 atom-24" d="M 180.5,108.7 L 183.2,95.8" style="fill:none;fill-rule:evenodd;stroke:#000000;stroke-width:2.0px;stroke-linecap:butt;stroke-linejoin:miter;stroke-opacity:1"/>
<path class="bond-24 atom-24 atom-25" d="M 185.8,94.9 L 192.5,92.7" style="fill:none;fill-rule:evenodd;stroke:#000000;stroke-width:2.0px;stroke-linecap:butt;stroke-linejoin:miter;stroke-opacity:1"/>
<path class="bond-24 atom-24 atom-25" d="M 192.5,92.7 L 199.2,90.5" style="fill:none;fill-rule:evenodd;stroke:#33CCCC;stroke-width:2.0px;stroke-linecap:butt;stroke-linejoin:miter;stroke-opacity:1"/>
<path class="bond-25 atom-13 atom-26" d="M 150.1,62.9 L 145.3,58.6" style="fill:none;fill-rule:evenodd;stroke:#000000;stroke-width:2.0px;stroke-linecap:butt;stroke-linejoin:miter;stroke-opacity:1"/>
<path class="bond-25 atom-13 atom-26" d="M 145.3,58.6 L 140.4,54.3" style="fill:none;fill-rule:evenodd;stroke:#0000FF;stroke-width:2.0px;stroke-linecap:butt;stroke-linejoin:miter;stroke-opacity:1"/>
<path class="bond-25 atom-13 atom-26" d="M 147.5,63.8 L 143.2,60.0" style="fill:none;fill-rule:evenodd;stroke:#000000;stroke-width:2.0px;stroke-linecap:butt;stroke-linejoin:miter;stroke-opacity:1"/>
<path class="bond-25 atom-13 atom-26" d="M 143.2,60.0 L 138.8,56.1" style="fill:none;fill-rule:evenodd;stroke:#0000FF;stroke-width:2.0px;stroke-linecap:butt;stroke-linejoin:miter;stroke-opacity:1"/>
<path class="bond-26 atom-26 atom-27" d="M 135.9,53.0 L 130.5,54.8" style="fill:none;fill-rule:evenodd;stroke:#0000FF;stroke-width:2.0px;stroke-linecap:butt;stroke-linejoin:miter;stroke-opacity:1"/>
<path class="bond-26 atom-26 atom-27" d="M 130.5,54.8 L 125.0,56.6" style="fill:none;fill-rule:evenodd;stroke:#CCCC00;stroke-width:2.0px;stroke-linecap:butt;stroke-linejoin:miter;stroke-opacity:1"/>
<path class="bond-27 atom-27 atom-28" d="M 121.1,56.0 L 115.4,55.8" style="fill:none;fill-rule:evenodd;stroke:#CCCC00;stroke-width:2.0px;stroke-linecap:butt;stroke-linejoin:miter;stroke-opacity:1"/>
<path class="bond-27 atom-27 atom-28" d="M 115.4,55.8 L 109.7,55.7" style="fill:none;fill-rule:evenodd;stroke:#FF0000;stroke-width:2.0px;stroke-linecap:butt;stroke-linejoin:miter;stroke-opacity:1"/>
<path class="bond-27 atom-27 atom-28" d="M 121.0,58.4 L 115.3,58.2" style="fill:none;fill-rule:evenodd;stroke:#CCCC00;stroke-width:2.0px;stroke-linecap:butt;stroke-linejoin:miter;stroke-opacity:1"/>
<path class="bond-27 atom-27 atom-28" d="M 115.3,58.2 L 109.6,58.1" style="fill:none;fill-rule:evenodd;stroke:#FF0000;stroke-width:2.0px;stroke-linecap:butt;stroke-linejoin:miter;stroke-opacity:1"/>
<path class="bond-28 atom-27 atom-29" d="M 123.8,54.3 L 123.1,49.3" style="fill:none;fill-rule:evenodd;stroke:#CCCC00;stroke-width:2.0px;stroke-linecap:butt;stroke-linejoin:miter;stroke-opacity:1"/>
<path class="bond-28 atom-27 atom-29" d="M 123.1,49.3 L 122.3,44.2" style="fill:none;fill-rule:evenodd;stroke:#FF0000;stroke-width:2.0px;stroke-linecap:butt;stroke-linejoin:miter;stroke-opacity:1"/>
<path class="bond-28 atom-27 atom-29" d="M 121.4,54.7 L 120.7,49.6" style="fill:none;fill-rule:evenodd;stroke:#CCCC00;stroke-width:2.0px;stroke-linecap:butt;stroke-linejoin:miter;stroke-opacity:1"/>
<path class="bond-28 atom-27 atom-29" d="M 120.7,49.6 L 120.0,44.5" style="fill:none;fill-rule:evenodd;stroke:#FF0000;stroke-width:2.0px;stroke-linecap:butt;stroke-linejoin:miter;stroke-opacity:1"/>
<path class="bond-29 atom-7 atom-2" d="M 104.6,77.9 L 101.3,93.6" style="fill:none;fill-rule:evenodd;stroke:#000000;stroke-width:2.0px;stroke-linecap:butt;stroke-linejoin:miter;stroke-opacity:1"/>
<path class="bond-30 atom-27 atom-8" d="M 122.4,60.2 L 121.1,66.6" style="fill:none;fill-rule:evenodd;stroke:#CCCC00;stroke-width:2.0px;stroke-linecap:butt;stroke-linejoin:miter;stroke-opacity:1"/>
<path class="bond-30 atom-27 atom-8" d="M 121.1,66.6 L 119.7,72.9" style="fill:none;fill-rule:evenodd;stroke:#000000;stroke-width:2.0px;stroke-linecap:butt;stroke-linejoin:miter;stroke-opacity:1"/>
<path class="bond-31 atom-24 atom-19" d="M 185.8,94.9 L 173.9,84.3" style="fill:none;fill-rule:evenodd;stroke:#000000;stroke-width:2.0px;stroke-linecap:butt;stroke-linejoin:miter;stroke-opacity:1"/>
<path d="M 74.4,88.1 L 74.2,87.9 L 74.4,87.1" style="fill:none;stroke:#000000;stroke-width:2.0px;stroke-linecap:butt;stroke-linejoin:miter;stroke-opacity:1;"/>
<path d="M 77.3,73.0 L 77.5,72.3 L 78.2,72.0" style="fill:none;stroke:#000000;stroke-width:2.0px;stroke-linecap:butt;stroke-linejoin:miter;stroke-opacity:1;"/>
<path d="M 91.9,67.5 L 92.6,67.3 L 93.2,67.8" style="fill:none;stroke:#000000;stroke-width:2.0px;stroke-linecap:butt;stroke-linejoin:miter;stroke-opacity:1;"/>
<path d="M 191.6,63.9 L 192.4,63.6 L 193.0,64.2" style="fill:none;stroke:#000000;stroke-width:2.0px;stroke-linecap:butt;stroke-linejoin:miter;stroke-opacity:1;"/>
<path d="M 203.7,73.7 L 204.3,74.3 L 204.6,74.2" style="fill:none;stroke:#000000;stroke-width:2.0px;stroke-linecap:butt;stroke-linejoin:miter;stroke-opacity:1;"/>
<path d="M 159.5,89.0 L 158.8,89.2 L 158.6,90.0" style="fill:none;stroke:#000000;stroke-width:2.0px;stroke-linecap:butt;stroke-linejoin:miter;stroke-opacity:1;"/>
<path d="M 155.6,104.1 L 155.5,104.9 L 156.1,105.4" style="fill:none;stroke:#000000;stroke-width:2.0px;stroke-linecap:butt;stroke-linejoin:miter;stroke-opacity:1;"/>
<path d="M 166.8,115.0 L 167.4,115.5 L 168.2,115.3" style="fill:none;stroke:#000000;stroke-width:2.0px;stroke-linecap:butt;stroke-linejoin:miter;stroke-opacity:1;"/>
<path d="M 181.8,110.8 L 182.6,110.5 L 182.7,109.8" style="fill:none;stroke:#000000;stroke-width:2.0px;stroke-linecap:butt;stroke-linejoin:miter;stroke-opacity:1;"/>
<path class="atom-1" d="M 111.1 104.2 Q 111.1 103.1, 111.7 102.5 Q 112.2 101.9, 113.2 101.9 Q 114.2 101.9, 114.7 102.5 Q 115.3 103.1, 115.3 104.2 Q 115.3 105.3, 114.7 106.0 Q 114.2 106.6, 113.2 106.6 Q 112.2 106.6, 111.7 106.0 Q 111.1 105.3, 111.1 104.2 M 113.2 106.1 Q 113.9 106.1, 114.3 105.6 Q 114.6 105.1, 114.6 104.2 Q 114.6 103.3, 114.3 102.9 Q 113.9 102.4, 113.2 102.4 Q 112.5 102.4, 112.1 102.9 Q 111.8 103.3, 111.8 104.2 Q 111.8 105.1, 112.1 105.6 Q 112.5 106.1, 113.2 106.1 " fill="#FF0000"/>
<path class="atom-3" d="M 85.1 96.3 L 86.6 98.7 Q 86.7 98.9, 87.0 99.4 Q 87.2 99.8, 87.2 99.8 L 87.2 96.3 L 87.8 96.3 L 87.8 100.8 L 87.2 100.8 L 85.6 98.2 Q 85.4 97.9, 85.2 97.5 Q 85.0 97.2, 85.0 97.1 L 85.0 100.8 L 84.4 100.8 L 84.4 96.3 L 85.1 96.3 " fill="#0000FF"/>
<path class="atom-12" d="M 144.8 78.6 Q 144.8 77.5, 145.3 76.9 Q 145.8 76.3, 146.8 76.3 Q 147.8 76.3, 148.4 76.9 Q 148.9 77.5, 148.9 78.6 Q 148.9 79.7, 148.4 80.3 Q 147.8 81.0, 146.8 81.0 Q 145.8 81.0, 145.3 80.3 Q 144.8 79.7, 144.8 78.6 M 146.8 80.4 Q 147.5 80.4, 147.9 80.0 Q 148.3 79.5, 148.3 78.6 Q 148.3 77.7, 147.9 77.3 Q 147.5 76.8, 146.8 76.8 Q 146.1 76.8, 145.8 77.3 Q 145.4 77.7, 145.4 78.6 Q 145.4 79.5, 145.8 80.0 Q 146.1 80.4, 146.8 80.4 " fill="#FF0000"/>
<path class="atom-14" d="M 164.3 55.7 L 165.8 58.1 Q 165.9 58.3, 166.2 58.8 Q 166.4 59.2, 166.4 59.2 L 166.4 55.7 L 167.0 55.7 L 167.0 60.2 L 166.4 60.2 L 164.8 57.6 Q 164.6 57.3, 164.4 56.9 Q 164.2 56.6, 164.2 56.5 L 164.2 60.2 L 163.6 60.2 L 163.6 55.7 L 164.3 55.7 " fill="#0000FF"/>
<path class="atom-14" d="M 163.5 50.7 L 164.1 50.7 L 164.1 52.6 L 166.4 52.6 L 166.4 50.7 L 167.1 50.7 L 167.1 55.2 L 166.4 55.2 L 166.4 53.2 L 164.1 53.2 L 164.1 55.2 L 163.5 55.2 L 163.5 50.7 " fill="#0000FF"/>
<path class="atom-18" d="M 217.4 69.3 Q 217.4 68.2, 217.9 67.6 Q 218.5 67.0, 219.5 67.0 Q 220.5 67.0, 221.0 67.6 Q 221.6 68.2, 221.6 69.3 Q 221.6 70.4, 221.0 71.0 Q 220.5 71.6, 219.5 71.6 Q 218.5 71.6, 217.9 71.0 Q 217.4 70.4, 217.4 69.3 M 219.5 71.1 Q 220.2 71.1, 220.5 70.7 Q 220.9 70.2, 220.9 69.3 Q 220.9 68.4, 220.5 68.0 Q 220.2 67.5, 219.5 67.5 Q 218.8 67.5, 218.4 68.0 Q 218.0 68.4, 218.0 69.3 Q 218.0 70.2, 218.4 70.7 Q 218.8 71.1, 219.5 71.1 " fill="#FF0000"/>
<path class="atom-18" d="M 222.3 67.0 L 222.9 67.0 L 222.9 69.0 L 225.2 69.0 L 225.2 67.0 L 225.8 67.0 L 225.8 71.6 L 225.2 71.6 L 225.2 69.5 L 222.9 69.5 L 222.9 71.6 L 222.3 71.6 L 222.3 67.0 " fill="#FF0000"/>
<path class="atom-25" d="M 199.7 87.7 L 202.4 87.7 L 202.4 88.2 L 200.3 88.2 L 200.3 89.5 L 202.1 89.5 L 202.1 90.1 L 200.3 90.1 L 200.3 92.2 L 199.7 92.2 L 199.7 87.7 " fill="#33CCCC"/>
<path class="atom-26" d="M 137.2 50.0 L 138.7 52.4 Q 138.8 52.7, 139.1 53.1 Q 139.3 53.5, 139.3 53.5 L 139.3 50.0 L 139.9 50.0 L 139.9 54.6 L 139.3 54.6 L 137.7 51.9 Q 137.5 51.6, 137.3 51.3 Q 137.1 50.9, 137.1 50.8 L 137.1 54.6 L 136.5 54.6 L 136.5 50.0 L 137.2 50.0 " fill="#0000FF"/>
<path class="atom-27" d="M 121.7 58.8 Q 121.8 58.9, 122.0 58.9 Q 122.2 59.0, 122.4 59.1 Q 122.7 59.1, 122.9 59.1 Q 123.3 59.1, 123.6 58.9 Q 123.8 58.7, 123.8 58.4 Q 123.8 58.1, 123.7 58.0 Q 123.6 57.8, 123.4 57.7 Q 123.2 57.6, 122.9 57.5 Q 122.5 57.4, 122.2 57.3 Q 122.0 57.2, 121.8 57.0 Q 121.7 56.7, 121.7 56.3 Q 121.7 55.7, 122.0 55.4 Q 122.4 55.0, 123.2 55.0 Q 123.7 55.0, 124.3 55.3 L 124.2 55.8 Q 123.6 55.5, 123.2 55.5 Q 122.8 55.5, 122.5 55.7 Q 122.3 55.9, 122.3 56.2 Q 122.3 56.5, 122.4 56.6 Q 122.5 56.8, 122.7 56.8 Q 122.9 56.9, 123.2 57.0 Q 123.6 57.2, 123.9 57.3 Q 124.1 57.4, 124.3 57.7 Q 124.5 57.9, 124.5 58.4 Q 124.5 59.0, 124.0 59.3 Q 123.6 59.7, 122.9 59.7 Q 122.5 59.7, 122.2 59.6 Q 121.9 59.5, 121.6 59.3 L 121.7 58.8 " fill="#CCCC00"/>
<path class="atom-28" d="M 105.0 56.8 Q 105.0 55.7, 105.5 55.1 Q 106.0 54.5, 107.0 54.5 Q 108.0 54.5, 108.6 55.1 Q 109.1 55.7, 109.1 56.8 Q 109.1 57.9, 108.6 58.5 Q 108.0 59.1, 107.0 59.1 Q 106.0 59.1, 105.5 58.5 Q 105.0 57.9, 105.0 56.8 M 107.0 58.6 Q 107.7 58.6, 108.1 58.2 Q 108.5 57.7, 108.5 56.8 Q 108.5 55.9, 108.1 55.5 Q 107.7 55.0, 107.0 55.0 Q 106.3 55.0, 106.0 55.5 Q 105.6 55.9, 105.6 56.8 Q 105.6 57.7, 106.0 58.2 Q 106.3 58.6, 107.0 58.6 " fill="#FF0000"/>
<path class="atom-29" d="M 118.7 41.5 Q 118.7 40.4, 119.2 39.8 Q 119.7 39.2, 120.7 39.2 Q 121.7 39.2, 122.3 39.8 Q 122.8 40.4, 122.8 41.5 Q 122.8 42.6, 122.3 43.2 Q 121.7 43.8, 120.7 43.8 Q 119.7 43.8, 119.2 43.2 Q 118.7 42.6, 118.7 41.5 M 120.7 43.3 Q 121.4 43.3, 121.8 42.9 Q 122.2 42.4, 122.2 41.5 Q 122.2 40.6, 121.8 40.1 Q 121.4 39.7, 120.7 39.7 Q 120.0 39.7, 119.7 40.1 Q 119.3 40.6, 119.3 41.5 Q 119.3 42.4, 119.7 42.9 Q 120.0 43.3, 120.7 43.3 " fill="#FF0000"/>
<path class="atom-0" d="M 112.2,120.5 L 112.2,120.5 L 112.2,120.6 L 112.2,120.6 L 112.2,120.6 L 112.1,120.6 L 112.1,120.7 L 112.1,120.7 L 112.1,120.7 L 112.1,120.7 L 112.1,120.7 L 112.0,120.8 L 112.0,120.8 L 112.0,120.8 L 112.0,120.8 L 111.9,120.8 L 111.9,120.8 L 111.9,120.8 L 111.9,120.8 L 111.8,120.8 L 111.8,120.8 L 111.8,120.8 L 111.8,120.8 L 111.7,120.8 L 111.7,120.8 L 111.7,120.8 L 111.7,120.8 L 111.6,120.7 L 111.6,120.7 L 111.6,120.7 L 111.6,120.7 L 111.6,120.6 L 111.6,120.6 L 111.6,120.6 L 111.5,120.6 L 111.5,120.5 L 111.5,120.5 L 111.5,120.5 L 111.5,120.5 L 111.5,120.4 L 111.6,120.4 L 111.6,120.4 L 111.6,120.4 L 111.6,120.3 L 111.6,120.3 L 111.6,120.3 L 111.6,120.3 L 111.7,120.2 L 111.7,120.2 L 111.7,120.2 L 111.7,120.2 L 111.8,120.2 L 111.8,120.2 L 111.8,120.2 L 111.8,120.2 L 111.9,120.2 L 111.9,120.2 L 111.9,120.2 L 111.9,120.2 L 112.0,120.2 L 112.0,120.2 L 112.0,120.2 L 112.0,120.2 L 112.1,120.3 L 112.1,120.3 L 112.1,120.3 L 112.1,120.3 L 112.1,120.3 L 112.1,120.4 L 112.2,120.4 L 112.2,120.4 L 112.2,120.4 L 112.2,120.5 L 112.2,120.5 L 111.9,120.5 Z" style="fill:#000000;fill-rule:evenodd;fill-opacity:1;stroke:#000000;stroke-width:0.0px;stroke-linecap:butt;stroke-linejoin:miter;stroke-opacity:1;"/>
<path class="atom-0" d="M 112.2,119.2 L 112.2,119.2 L 112.2,119.3 L 112.2,119.3 L 112.2,119.3 L 112.1,119.4 L 112.1,119.4 L 112.1,119.4 L 112.1,119.4 L 112.1,119.4 L 112.1,119.5 L 112.0,119.5 L 112.0,119.5 L 112.0,119.5 L 112.0,119.5 L 111.9,119.5 L 111.9,119.5 L 111.9,119.5 L 111.9,119.5 L 111.8,119.5 L 111.8,119.5 L 111.8,119.5 L 111.8,119.5 L 111.7,119.5 L 111.7,119.5 L 111.7,119.5 L 111.7,119.5 L 111.6,119.5 L 111.6,119.4 L 111.6,119.4 L 111.6,119.4 L 111.6,119.4 L 111.6,119.3 L 111.6,119.3 L 111.5,119.3 L 111.5,119.3 L 111.5,119.2 L 111.5,119.2 L 111.5,119.2 L 111.5,119.2 L 111.6,119.1 L 111.6,119.1 L 111.6,119.1 L 111.6,119.1 L 111.6,119.0 L 111.6,119.0 L 111.6,119.0 L 111.7,119.0 L 111.7,119.0 L 111.7,118.9 L 111.7,118.9 L 111.8,118.9 L 111.8,118.9 L 111.8,118.9 L 111.8,118.9 L 111.9,118.9 L 111.9,118.9 L 111.9,118.9 L 111.9,118.9 L 112.0,118.9 L 112.0,118.9 L 112.0,118.9 L 112.0,119.0 L 112.1,119.0 L 112.1,119.0 L 112.1,119.0 L 112.1,119.0 L 112.1,119.1 L 112.1,119.1 L 112.2,119.1 L 112.2,119.1 L 112.2,119.2 L 112.2,119.2 L 112.2,119.2 L 111.9,119.2 Z" style="fill:#000000;fill-rule:evenodd;fill-opacity:1;stroke:#000000;stroke-width:0.0px;stroke-linecap:butt;stroke-linejoin:miter;stroke-opacity:1;"/>
<path class="bond-0 atom-0 atom-1" d="M 391.1,144.5 L 392.0,138.1" style="fill:none;fill-rule:evenodd;stroke:#000000;stroke-width:2.0px;stroke-linecap:butt;stroke-linejoin:miter;stroke-opacity:1"/>
<path class="bond-0 atom-0 atom-1" d="M 392.0,138.1 L 392.8,131.6" style="fill:none;fill-rule:evenodd;stroke:#FF0000;stroke-width:2.0px;stroke-linecap:butt;stroke-linejoin:miter;stroke-opacity:1"/>
<path class="bond-1 atom-1 atom-2" d="M 390.6,126.7 L 385.5,122.8" style="fill:none;fill-rule:evenodd;stroke:#FF0000;stroke-width:2.0px;stroke-linecap:butt;stroke-linejoin:miter;stroke-opacity:1"/>
<path class="bond-1 atom-1 atom-2" d="M 385.5,122.8 L 380.5,119.0" style="fill:none;fill-rule:evenodd;stroke:#000000;stroke-width:2.0px;stroke-linecap:butt;stroke-linejoin:miter;stroke-opacity:1"/>
<path class="bond-2 atom-2 atom-3" d="M 380.5,119.0 L 374.2,121.6" style="fill:none;fill-rule:evenodd;stroke:#000000;stroke-width:2.0px;stroke-linecap:butt;stroke-linejoin:miter;stroke-opacity:1"/>
<path class="bond-2 atom-2 atom-3" d="M 374.2,121.6 L 368.0,124.2" style="fill:none;fill-rule:evenodd;stroke:#0000FF;stroke-width:2.0px;stroke-linecap:butt;stroke-linejoin:miter;stroke-opacity:1"/>
<path class="bond-2 atom-2 atom-3" d="M 378.3,117.3 L 372.7,119.7" style="fill:none;fill-rule:evenodd;stroke:#000000;stroke-width:2.0px;stroke-linecap:butt;stroke-linejoin:miter;stroke-opacity:1"/>
<path class="bond-2 atom-2 atom-3" d="M 372.7,119.7 L 367.1,122.0" style="fill:none;fill-rule:evenodd;stroke:#0000FF;stroke-width:2.0px;stroke-linecap:butt;stroke-linejoin:miter;stroke-opacity:1"/>
<path class="bond-3 atom-3 atom-4" d="M 363.5,123.4 L 358.3,119.5" style="fill:none;fill-rule:evenodd;stroke:#0000FF;stroke-width:2.0px;stroke-linecap:butt;stroke-linejoin:miter;stroke-opacity:1"/>
<path class="bond-3 atom-3 atom-4" d="M 358.3,119.5 L 353.0,115.5" style="fill:none;fill-rule:evenodd;stroke:#000000;stroke-width:2.0px;stroke-linecap:butt;stroke-linejoin:miter;stroke-opacity:1"/>
<path class="bond-4 atom-4 atom-5" d="M 353.0,115.5 L 355.1,99.6" style="fill:none;fill-rule:evenodd;stroke:#000000;stroke-width:2.0px;stroke-linecap:butt;stroke-linejoin:miter;stroke-opacity:1"/>
<path class="bond-4 atom-4 atom-5" d="M 355.6,114.4 L 357.3,101.3" style="fill:none;fill-rule:evenodd;stroke:#000000;stroke-width:2.0px;stroke-linecap:butt;stroke-linejoin:miter;stroke-opacity:1"/>
<path class="bond-5 atom-5 atom-6" d="M 355.1,99.6 L 369.8,93.5" style="fill:none;fill-rule:evenodd;stroke:#000000;stroke-width:2.0px;stroke-linecap:butt;stroke-linejoin:miter;stroke-opacity:1"/>
<path class="bond-6 atom-6 atom-7" d="M 369.8,93.5 L 382.5,103.1" style="fill:none;fill-rule:evenodd;stroke:#000000;stroke-width:2.0px;stroke-linecap:butt;stroke-linejoin:miter;stroke-opacity:1"/>
<path class="bond-6 atom-6 atom-7" d="M 369.5,96.2 L 380.0,104.2" style="fill:none;fill-rule:evenodd;stroke:#000000;stroke-width:2.0px;stroke-linecap:butt;stroke-linejoin:miter;stroke-opacity:1"/>
<path class="bond-7 atom-7 atom-8" d="M 382.5,103.1 L 397.3,97.0" style="fill:none;fill-rule:evenodd;stroke:#000000;stroke-width:2.0px;stroke-linecap:butt;stroke-linejoin:miter;stroke-opacity:1"/>
<path class="bond-8 atom-8 atom-9" d="M 397.3,97.0 L 410.0,106.7" style="fill:none;fill-rule:evenodd;stroke:#000000;stroke-width:2.0px;stroke-linecap:butt;stroke-linejoin:miter;stroke-opacity:1"/>
<path class="bond-8 atom-8 atom-9" d="M 399.8,95.9 L 410.3,103.9" style="fill:none;fill-rule:evenodd;stroke:#000000;stroke-width:2.0px;stroke-linecap:butt;stroke-linejoin:miter;stroke-opacity:1"/>
<path class="bond-9 atom-9 atom-10" d="M 410.0,106.7 L 424.7,100.5" style="fill:none;fill-rule:evenodd;stroke:#000000;stroke-width:2.0px;stroke-linecap:butt;stroke-linejoin:miter;stroke-opacity:1"/>
<path class="bond-10 atom-10 atom-11" d="M 424.7,100.5 L 426.8,84.7" style="fill:none;fill-rule:evenodd;stroke:#000000;stroke-width:2.0px;stroke-linecap:butt;stroke-linejoin:miter;stroke-opacity:1"/>
<path class="bond-10 atom-10 atom-11" d="M 422.5,98.8 L 424.2,85.7" style="fill:none;fill-rule:evenodd;stroke:#000000;stroke-width:2.0px;stroke-linecap:butt;stroke-linejoin:miter;stroke-opacity:1"/>
<path class="bond-11 atom-11 atom-12" d="M 426.8,84.7 L 441.5,78.5" style="fill:none;fill-rule:evenodd;stroke:#000000;stroke-width:2.0px;stroke-linecap:butt;stroke-linejoin:miter;stroke-opacity:1"/>
<path class="bond-12 atom-12 atom-13" d="M 441.5,78.5 L 454.2,88.2" style="fill:none;fill-rule:evenodd;stroke:#000000;stroke-width:2.0px;stroke-linecap:butt;stroke-linejoin:miter;stroke-opacity:1"/>
<path class="bond-13 atom-13 atom-14" d="M 454.2,88.2 L 462.8,101.7" style="fill:none;fill-rule:evenodd;stroke:#000000;stroke-width:2.0px;stroke-linecap:butt;stroke-linejoin:miter;stroke-opacity:1"/>
<path class="bond-14 atom-13 atom-15" d="M 454.2,88.2 L 442.5,99.0" style="fill:none;fill-rule:evenodd;stroke:#000000;stroke-width:2.0px;stroke-linecap:butt;stroke-linejoin:miter;stroke-opacity:1"/>
<path class="bond-15 atom-13 atom-16" d="M 454.2,88.2 L 460.3,85.7" style="fill:none;fill-rule:evenodd;stroke:#000000;stroke-width:2.0px;stroke-linecap:butt;stroke-linejoin:miter;stroke-opacity:1"/>
<path class="bond-15 atom-13 atom-16" d="M 460.3,85.7 L 466.4,83.1" style="fill:none;fill-rule:evenodd;stroke:#FF0000;stroke-width:2.0px;stroke-linecap:butt;stroke-linejoin:miter;stroke-opacity:1"/>
<path class="bond-16 atom-16 atom-17" d="M 469.3,79.2 L 470.2,72.7" style="fill:none;fill-rule:evenodd;stroke:#FF0000;stroke-width:2.0px;stroke-linecap:butt;stroke-linejoin:miter;stroke-opacity:1"/>
<path class="bond-16 atom-16 atom-17" d="M 470.2,72.7 L 471.0,66.2" style="fill:none;fill-rule:evenodd;stroke:#000000;stroke-width:2.0px;stroke-linecap:butt;stroke-linejoin:miter;stroke-opacity:1"/>
<path class="bond-17 atom-17 atom-18" d="M 471.0,66.2 L 477.2,63.6" style="fill:none;fill-rule:evenodd;stroke:#000000;stroke-width:2.0px;stroke-linecap:butt;stroke-linejoin:miter;stroke-opacity:1"/>
<path class="bond-17 atom-17 atom-18" d="M 477.2,63.6 L 483.5,61.0" style="fill:none;fill-rule:evenodd;stroke:#0000FF;stroke-width:2.0px;stroke-linecap:butt;stroke-linejoin:miter;stroke-opacity:1"/>
<path class="bond-18 atom-18 atom-19" d="M 488.0,61.7 L 493.2,65.7" style="fill:none;fill-rule:evenodd;stroke:#0000FF;stroke-width:2.0px;stroke-linecap:butt;stroke-linejoin:miter;stroke-opacity:1"/>
<path class="bond-18 atom-18 atom-19" d="M 493.2,65.7 L 498.5,69.7" style="fill:none;fill-rule:evenodd;stroke:#000000;stroke-width:2.0px;stroke-linecap:butt;stroke-linejoin:miter;stroke-opacity:1"/>
<path class="bond-19 atom-19 atom-20" d="M 498.5,69.7 L 513.2,63.6" style="fill:none;fill-rule:evenodd;stroke:#000000;stroke-width:2.0px;stroke-linecap:butt;stroke-linejoin:miter;stroke-opacity:1"/>
<path class="bond-20 atom-20 atom-21" d="M 513.2,63.6 L 525.9,73.3" style="fill:none;fill-rule:evenodd;stroke:#000000;stroke-width:2.0px;stroke-linecap:butt;stroke-linejoin:miter;stroke-opacity:1"/>
<path class="bond-21 atom-21 atom-22" d="M 525.9,73.3 L 532.0,70.7" style="fill:none;fill-rule:evenodd;stroke:#000000;stroke-width:2.0px;stroke-linecap:butt;stroke-linejoin:miter;stroke-opacity:1"/>
<path class="bond-21 atom-21 atom-22" d="M 532.0,70.7 L 538.0,68.2" style="fill:none;fill-rule:evenodd;stroke:#FF0000;stroke-width:2.0px;stroke-linecap:butt;stroke-linejoin:miter;stroke-opacity:1"/>
<path class="bond-22 atom-19 atom-23" d="M 498.5,69.7 L 496.4,85.6" style="fill:none;fill-rule:evenodd;stroke:#000000;stroke-width:2.0px;stroke-linecap:butt;stroke-linejoin:miter;stroke-opacity:1"/>
<path class="bond-23 atom-23 atom-24" d="M 496.4,85.6 L 481.7,91.7" style="fill:none;fill-rule:evenodd;stroke:#000000;stroke-width:2.0px;stroke-linecap:butt;stroke-linejoin:miter;stroke-opacity:1"/>
<path class="bond-23 atom-23 atom-24" d="M 496.1,88.3 L 483.9,93.4" style="fill:none;fill-rule:evenodd;stroke:#000000;stroke-width:2.0px;stroke-linecap:butt;stroke-linejoin:miter;stroke-opacity:1"/>
<path class="bond-24 atom-24 atom-25" d="M 481.7,91.7 L 479.6,107.6" style="fill:none;fill-rule:evenodd;stroke:#000000;stroke-width:2.0px;stroke-linecap:butt;stroke-linejoin:miter;stroke-opacity:1"/>
<path class="bond-25 atom-25 atom-26" d="M 479.6,107.6 L 492.3,117.3" style="fill:none;fill-rule:evenodd;stroke:#000000;stroke-width:2.0px;stroke-linecap:butt;stroke-linejoin:miter;stroke-opacity:1"/>
<path class="bond-25 atom-25 atom-26" d="M 482.2,106.5 L 492.7,114.5" style="fill:none;fill-rule:evenodd;stroke:#000000;stroke-width:2.0px;stroke-linecap:butt;stroke-linejoin:miter;stroke-opacity:1"/>
<path class="bond-26 atom-26 atom-27" d="M 492.3,117.3 L 507.1,111.1" style="fill:none;fill-rule:evenodd;stroke:#000000;stroke-width:2.0px;stroke-linecap:butt;stroke-linejoin:miter;stroke-opacity:1"/>
<path class="bond-27 atom-27 atom-28" d="M 507.1,111.1 L 509.1,95.3" style="fill:none;fill-rule:evenodd;stroke:#000000;stroke-width:2.0px;stroke-linecap:butt;stroke-linejoin:miter;stroke-opacity:1"/>
<path class="bond-27 atom-27 atom-28" d="M 504.9,109.4 L 506.6,96.3" style="fill:none;fill-rule:evenodd;stroke:#000000;stroke-width:2.0px;stroke-linecap:butt;stroke-linejoin:miter;stroke-opacity:1"/>
<path class="bond-28 atom-28 atom-29" d="M 509.1,95.3 L 515.6,92.6" style="fill:none;fill-rule:evenodd;stroke:#000000;stroke-width:2.0px;stroke-linecap:butt;stroke-linejoin:miter;stroke-opacity:1"/>
<path class="bond-28 atom-28 atom-29" d="M 515.6,92.6 L 522.0,89.9" style="fill:none;fill-rule:evenodd;stroke:#33CCCC;stroke-width:2.0px;stroke-linecap:butt;stroke-linejoin:miter;stroke-opacity:1"/>
<path class="bond-29 atom-17 atom-30" d="M 471.0,66.2 L 465.8,62.2" style="fill:none;fill-rule:evenodd;stroke:#000000;stroke-width:2.0px;stroke-linecap:butt;stroke-linejoin:miter;stroke-opacity:1"/>
<path class="bond-29 atom-17 atom-30" d="M 465.8,62.2 L 460.5,58.2" style="fill:none;fill-rule:evenodd;stroke:#0000FF;stroke-width:2.0px;stroke-linecap:butt;stroke-linejoin:miter;stroke-opacity:1"/>
<path class="bond-29 atom-17 atom-30" d="M 468.4,67.3 L 463.8,63.7" style="fill:none;fill-rule:evenodd;stroke:#000000;stroke-width:2.0px;stroke-linecap:butt;stroke-linejoin:miter;stroke-opacity:1"/>
<path class="bond-29 atom-17 atom-30" d="M 463.8,63.7 L 459.1,60.1" style="fill:none;fill-rule:evenodd;stroke:#0000FF;stroke-width:2.0px;stroke-linecap:butt;stroke-linejoin:miter;stroke-opacity:1"/>
<path class="bond-30 atom-30 atom-31" d="M 456.0,57.4 L 450.8,59.6" style="fill:none;fill-rule:evenodd;stroke:#0000FF;stroke-width:2.0px;stroke-linecap:butt;stroke-linejoin:miter;stroke-opacity:1"/>
<path class="bond-30 atom-30 atom-31" d="M 450.8,59.6 L 445.5,61.8" style="fill:none;fill-rule:evenodd;stroke:#CCCC00;stroke-width:2.0px;stroke-linecap:butt;stroke-linejoin:miter;stroke-opacity:1"/>
<path class="bond-31 atom-31 atom-32" d="M 441.5,61.6 L 435.8,61.8" style="fill:none;fill-rule:evenodd;stroke:#CCCC00;stroke-width:2.0px;stroke-linecap:butt;stroke-linejoin:miter;stroke-opacity:1"/>
<path class="bond-31 atom-31 atom-32" d="M 435.8,61.8 L 430.1,62.1" style="fill:none;fill-rule:evenodd;stroke:#FF0000;stroke-width:2.0px;stroke-linecap:butt;stroke-linejoin:miter;stroke-opacity:1"/>
<path class="bond-31 atom-31 atom-32" d="M 441.6,63.9 L 435.9,64.2" style="fill:none;fill-rule:evenodd;stroke:#CCCC00;stroke-width:2.0px;stroke-linecap:butt;stroke-linejoin:miter;stroke-opacity:1"/>
<path class="bond-31 atom-31 atom-32" d="M 435.9,64.2 L 430.2,64.5" style="fill:none;fill-rule:evenodd;stroke:#FF0000;stroke-width:2.0px;stroke-linecap:butt;stroke-linejoin:miter;stroke-opacity:1"/>
<path class="bond-32 atom-31 atom-33" d="M 444.1,59.6 L 443.0,54.6" style="fill:none;fill-rule:evenodd;stroke:#CCCC00;stroke-width:2.0px;stroke-linecap:butt;stroke-linejoin:miter;stroke-opacity:1"/>
<path class="bond-32 atom-31 atom-33" d="M 443.0,54.6 L 441.9,49.7" style="fill:none;fill-rule:evenodd;stroke:#FF0000;stroke-width:2.0px;stroke-linecap:butt;stroke-linejoin:miter;stroke-opacity:1"/>
<path class="bond-32 atom-31 atom-33" d="M 441.7,60.1 L 440.6,55.2" style="fill:none;fill-rule:evenodd;stroke:#CCCC00;stroke-width:2.0px;stroke-linecap:butt;stroke-linejoin:miter;stroke-opacity:1"/>
<path class="bond-32 atom-31 atom-33" d="M 440.6,55.2 L 439.5,50.2" style="fill:none;fill-rule:evenodd;stroke:#FF0000;stroke-width:2.0px;stroke-linecap:butt;stroke-linejoin:miter;stroke-opacity:1"/>
<path class="bond-33 atom-11 atom-34" d="M 426.8,84.7 L 414.1,75.0" style="fill:none;fill-rule:evenodd;stroke:#000000;stroke-width:2.0px;stroke-linecap:butt;stroke-linejoin:miter;stroke-opacity:1"/>
<path class="bond-34 atom-34 atom-35" d="M 414.1,75.0 L 414.9,68.5" style="fill:none;fill-rule:evenodd;stroke:#000000;stroke-width:2.0px;stroke-linecap:butt;stroke-linejoin:miter;stroke-opacity:1"/>
<path class="bond-34 atom-34 atom-35" d="M 414.9,68.5 L 415.7,62.0" style="fill:none;fill-rule:evenodd;stroke:#FF0000;stroke-width:2.0px;stroke-linecap:butt;stroke-linejoin:miter;stroke-opacity:1"/>
<path class="bond-35 atom-35 atom-36" d="M 413.5,57.1 L 409.4,54.0" style="fill:none;fill-rule:evenodd;stroke:#FF0000;stroke-width:2.0px;stroke-linecap:butt;stroke-linejoin:miter;stroke-opacity:1"/>
<path class="bond-35 atom-35 atom-36" d="M 409.4,54.0 L 405.4,50.9" style="fill:none;fill-rule:evenodd;stroke:#CCCC00;stroke-width:2.0px;stroke-linecap:butt;stroke-linejoin:miter;stroke-opacity:1"/>
<path class="bond-36 atom-36 atom-37" d="M 403.7,46.7 L 405.0,36.5" style="fill:none;fill-rule:evenodd;stroke:#CCCC00;stroke-width:2.0px;stroke-linecap:butt;stroke-linejoin:miter;stroke-opacity:1"/>
<path class="bond-37 atom-37 atom-38" d="M 407.4,33.8 L 419.3,35.4" style="fill:none;fill-rule:evenodd;stroke:#CCCC00;stroke-width:2.0px;stroke-linecap:butt;stroke-linejoin:miter;stroke-opacity:1"/>
<path class="bond-38 atom-37 atom-39" d="M 406.4,25.7 L 406.8,23.1" style="fill:none;fill-rule:evenodd;stroke:#CCCC00;stroke-width:2.0px;stroke-linecap:butt;stroke-linejoin:miter;stroke-opacity:1"/>
<path class="bond-38 atom-37 atom-39" d="M 406.8,23.1 L 407.1,20.5" style="fill:none;fill-rule:evenodd;stroke:#7F4C19;stroke-width:2.0px;stroke-linecap:butt;stroke-linejoin:miter;stroke-opacity:1"/>
<path class="bond-39 atom-37 atom-40" d="M 403.4,33.3 L 391.6,31.8" style="fill:none;fill-rule:evenodd;stroke:#CCCC00;stroke-width:2.0px;stroke-linecap:butt;stroke-linejoin:miter;stroke-opacity:1"/>
<path class="bond-40 atom-40 atom-41" d="M 388.4,28.8 L 386.5,24.2" style="fill:none;fill-rule:evenodd;stroke:#CCCC00;stroke-width:2.0px;stroke-linecap:butt;stroke-linejoin:miter;stroke-opacity:1"/>
<path class="bond-40 atom-40 atom-41" d="M 386.5,24.2 L 384.6,19.7" style="fill:none;fill-rule:evenodd;stroke:#FF0000;stroke-width:2.0px;stroke-linecap:butt;stroke-linejoin:miter;stroke-opacity:1"/>
<path class="bond-41 atom-41 atom-42" d="M 380.8,16.5 L 374.2,15.6" style="fill:none;fill-rule:evenodd;stroke:#FF0000;stroke-width:2.0px;stroke-linecap:butt;stroke-linejoin:miter;stroke-opacity:1"/>
<path class="bond-41 atom-41 atom-42" d="M 374.2,15.6 L 367.6,14.8" style="fill:none;fill-rule:evenodd;stroke:#000000;stroke-width:2.0px;stroke-linecap:butt;stroke-linejoin:miter;stroke-opacity:1"/>
<path class="bond-42 atom-34 atom-43" d="M 414.1,75.0 L 399.3,81.1" style="fill:none;fill-rule:evenodd;stroke:#000000;stroke-width:2.0px;stroke-linecap:butt;stroke-linejoin:miter;stroke-opacity:1"/>
<path class="bond-42 atom-34 atom-43" d="M 413.7,77.7 L 401.5,82.8" style="fill:none;fill-rule:evenodd;stroke:#000000;stroke-width:2.0px;stroke-linecap:butt;stroke-linejoin:miter;stroke-opacity:1"/>
<path class="bond-43 atom-7 atom-2" d="M 382.5,103.1 L 380.5,119.0" style="fill:none;fill-rule:evenodd;stroke:#000000;stroke-width:2.0px;stroke-linecap:butt;stroke-linejoin:miter;stroke-opacity:1"/>
<path class="bond-44 atom-43 atom-8" d="M 399.3,81.1 L 397.3,97.0" style="fill:none;fill-rule:evenodd;stroke:#000000;stroke-width:2.0px;stroke-linecap:butt;stroke-linejoin:miter;stroke-opacity:1"/>
<path class="bond-45 atom-31 atom-12" d="M 443.2,65.6 L 442.3,72.0" style="fill:none;fill-rule:evenodd;stroke:#CCCC00;stroke-width:2.0px;stroke-linecap:butt;stroke-linejoin:miter;stroke-opacity:1"/>
<path class="bond-45 atom-31 atom-12" d="M 442.3,72.0 L 441.5,78.5" style="fill:none;fill-rule:evenodd;stroke:#000000;stroke-width:2.0px;stroke-linecap:butt;stroke-linejoin:miter;stroke-opacity:1"/>
<path class="bond-46 atom-28 atom-23" d="M 509.1,95.3 L 496.4,85.6" style="fill:none;fill-rule:evenodd;stroke:#000000;stroke-width:2.0px;stroke-linecap:butt;stroke-linejoin:miter;stroke-opacity:1"/>
<path d="M 353.3,115.7 L 353.0,115.5 L 353.1,114.7" style="fill:none;stroke:#000000;stroke-width:2.0px;stroke-linecap:butt;stroke-linejoin:miter;stroke-opacity:1;"/>
<path d="M 355.0,100.4 L 355.1,99.6 L 355.8,99.3" style="fill:none;stroke:#000000;stroke-width:2.0px;stroke-linecap:butt;stroke-linejoin:miter;stroke-opacity:1;"/>
<path d="M 369.1,93.8 L 369.8,93.5 L 370.4,93.9" style="fill:none;stroke:#000000;stroke-width:2.0px;stroke-linecap:butt;stroke-linejoin:miter;stroke-opacity:1;"/>
<path d="M 409.3,106.2 L 410.0,106.7 L 410.7,106.4" style="fill:none;stroke:#000000;stroke-width:2.0px;stroke-linecap:butt;stroke-linejoin:miter;stroke-opacity:1;"/>
<path d="M 424.0,100.8 L 424.7,100.5 L 424.8,99.7" style="fill:none;stroke:#000000;stroke-width:2.0px;stroke-linecap:butt;stroke-linejoin:miter;stroke-opacity:1;"/>
<path d="M 512.5,63.9 L 513.2,63.6 L 513.8,64.0" style="fill:none;stroke:#000000;stroke-width:2.0px;stroke-linecap:butt;stroke-linejoin:miter;stroke-opacity:1;"/>
<path d="M 525.3,72.8 L 525.9,73.3 L 526.2,73.1" style="fill:none;stroke:#000000;stroke-width:2.0px;stroke-linecap:butt;stroke-linejoin:miter;stroke-opacity:1;"/>
<path d="M 482.4,91.4 L 481.7,91.7 L 481.6,92.5" style="fill:none;stroke:#000000;stroke-width:2.0px;stroke-linecap:butt;stroke-linejoin:miter;stroke-opacity:1;"/>
<path d="M 479.7,106.8 L 479.6,107.6 L 480.3,108.1" style="fill:none;stroke:#000000;stroke-width:2.0px;stroke-linecap:butt;stroke-linejoin:miter;stroke-opacity:1;"/>
<path d="M 491.7,116.8 L 492.3,117.3 L 493.1,117.0" style="fill:none;stroke:#000000;stroke-width:2.0px;stroke-linecap:butt;stroke-linejoin:miter;stroke-opacity:1;"/>
<path d="M 506.3,111.4 L 507.1,111.1 L 507.2,110.3" style="fill:none;stroke:#000000;stroke-width:2.0px;stroke-linecap:butt;stroke-linejoin:miter;stroke-opacity:1;"/>
<path d="M 400.0,80.8 L 399.3,81.1 L 399.2,81.9" style="fill:none;stroke:#000000;stroke-width:2.0px;stroke-linecap:butt;stroke-linejoin:miter;stroke-opacity:1;"/>
<path class="atom-1" d="M 391.1 128.7 Q 391.1 127.6, 391.6 127.0 Q 392.2 126.4, 393.2 126.4 Q 394.2 126.4, 394.7 127.0 Q 395.3 127.6, 395.3 128.7 Q 395.3 129.8, 394.7 130.4 Q 394.2 131.0, 393.2 131.0 Q 392.2 131.0, 391.6 130.4 Q 391.1 129.8, 391.1 128.7 M 393.2 130.5 Q 393.9 130.5, 394.2 130.1 Q 394.6 129.6, 394.6 128.7 Q 394.6 127.8, 394.2 127.4 Q 393.9 126.9, 393.2 126.9 Q 392.5 126.9, 392.1 127.4 Q 391.7 127.8, 391.7 128.7 Q 391.7 129.6, 392.1 130.1 Q 392.5 130.5, 393.2 130.5 " fill="#FF0000"/>
<path class="atom-3" d="M 364.7 122.9 L 366.2 125.3 Q 366.4 125.5, 366.6 126.0 Q 366.8 126.4, 366.8 126.4 L 366.8 122.9 L 367.4 122.9 L 367.4 127.4 L 366.8 127.4 L 365.2 124.8 Q 365.1 124.5, 364.9 124.1 Q 364.7 123.8, 364.6 123.7 L 364.6 127.4 L 364.0 127.4 L 364.0 122.9 L 364.7 122.9 " fill="#0000FF"/>
<path class="atom-16" d="M 466.9 82.1 Q 466.9 81.0, 467.4 80.4 Q 468.0 79.7, 469.0 79.7 Q 470.0 79.7, 470.5 80.4 Q 471.0 81.0, 471.0 82.1 Q 471.0 83.2, 470.5 83.8 Q 469.9 84.4, 469.0 84.4 Q 468.0 84.4, 467.4 83.8 Q 466.9 83.2, 466.9 82.1 M 469.0 83.9 Q 469.6 83.9, 470.0 83.4 Q 470.4 83.0, 470.4 82.1 Q 470.4 81.2, 470.0 80.7 Q 469.6 80.3, 469.0 80.3 Q 468.3 80.3, 467.9 80.7 Q 467.5 81.2, 467.5 82.1 Q 467.5 83.0, 467.9 83.4 Q 468.3 83.9, 469.0 83.9 " fill="#FF0000"/>
<path class="atom-18" d="M 484.7 57.8 L 486.2 60.2 Q 486.4 60.4, 486.6 60.8 Q 486.8 61.3, 486.9 61.3 L 486.9 57.8 L 487.5 57.8 L 487.5 62.3 L 486.8 62.3 L 485.2 59.7 Q 485.1 59.4, 484.9 59.0 Q 484.7 58.7, 484.6 58.6 L 484.6 62.3 L 484.0 62.3 L 484.0 57.8 L 484.7 57.8 " fill="#0000FF"/>
<path class="atom-18" d="M 484.0 52.8 L 484.6 52.8 L 484.6 54.7 L 486.9 54.7 L 486.9 52.8 L 487.5 52.8 L 487.5 57.3 L 486.9 57.3 L 486.9 55.2 L 484.6 55.2 L 484.6 57.3 L 484.0 57.3 L 484.0 52.8 " fill="#0000FF"/>
<path class="atom-22" d="M 538.6 67.1 Q 538.6 66.0, 539.1 65.4 Q 539.6 64.8, 540.7 64.8 Q 541.7 64.8, 542.2 65.4 Q 542.7 66.0, 542.7 67.1 Q 542.7 68.2, 542.2 68.8 Q 541.6 69.5, 540.7 69.5 Q 539.7 69.5, 539.1 68.8 Q 538.6 68.2, 538.6 67.1 M 540.7 68.9 Q 541.3 68.9, 541.7 68.5 Q 542.1 68.0, 542.1 67.1 Q 542.1 66.2, 541.7 65.8 Q 541.3 65.3, 540.7 65.3 Q 540.0 65.3, 539.6 65.8 Q 539.2 66.2, 539.2 67.1 Q 539.2 68.0, 539.6 68.5 Q 540.0 68.9, 540.7 68.9 " fill="#FF0000"/>
<path class="atom-22" d="M 543.4 64.9 L 544.0 64.9 L 544.0 66.8 L 546.4 66.8 L 546.4 64.9 L 547.0 64.9 L 547.0 69.4 L 546.4 69.4 L 546.4 67.3 L 544.0 67.3 L 544.0 69.4 L 543.4 69.4 L 543.4 64.9 " fill="#FF0000"/>
<path class="atom-29" d="M 522.5 86.8 L 525.2 86.8 L 525.2 87.4 L 523.1 87.4 L 523.1 88.7 L 525.0 88.7 L 525.0 89.3 L 523.1 89.3 L 523.1 91.4 L 522.5 91.4 L 522.5 86.8 " fill="#33CCCC"/>
<path class="atom-30" d="M 457.3 54.2 L 458.8 56.6 Q 458.9 56.9, 459.2 57.3 Q 459.4 57.7, 459.4 57.7 L 459.4 54.2 L 460.0 54.2 L 460.0 58.8 L 459.4 58.8 L 457.8 56.1 Q 457.6 55.8, 457.4 55.5 Q 457.2 55.1, 457.2 55.0 L 457.2 58.8 L 456.6 58.8 L 456.6 54.2 L 457.3 54.2 " fill="#0000FF"/>
<path class="atom-31" d="M 442.3 64.2 Q 442.3 64.2, 442.5 64.3 Q 442.7 64.4, 443.0 64.5 Q 443.2 64.5, 443.4 64.5 Q 443.9 64.5, 444.1 64.3 Q 444.4 64.1, 444.4 63.7 Q 444.4 63.5, 444.2 63.3 Q 444.1 63.2, 443.9 63.1 Q 443.7 63.0, 443.4 62.9 Q 443.0 62.8, 442.8 62.7 Q 442.5 62.6, 442.4 62.3 Q 442.2 62.1, 442.2 61.7 Q 442.2 61.1, 442.6 60.8 Q 443.0 60.4, 443.7 60.4 Q 444.3 60.4, 444.8 60.6 L 444.7 61.1 Q 444.2 60.9, 443.7 60.9 Q 443.3 60.9, 443.1 61.1 Q 442.8 61.3, 442.8 61.6 Q 442.8 61.8, 442.9 62.0 Q 443.1 62.1, 443.3 62.2 Q 443.4 62.3, 443.7 62.4 Q 444.2 62.5, 444.4 62.6 Q 444.6 62.8, 444.8 63.0 Q 445.0 63.3, 445.0 63.7 Q 445.0 64.4, 444.6 64.7 Q 444.2 65.0, 443.5 65.0 Q 443.1 65.0, 442.8 64.9 Q 442.5 64.9, 442.1 64.7 L 442.3 64.2 " fill="#CCCC00"/>
<path class="atom-32" d="M 425.5 63.4 Q 425.5 62.3, 426.0 61.7 Q 426.6 61.1, 427.6 61.1 Q 428.6 61.1, 429.1 61.7 Q 429.7 62.3, 429.7 63.4 Q 429.7 64.5, 429.1 65.1 Q 428.6 65.8, 427.6 65.8 Q 426.6 65.8, 426.0 65.1 Q 425.5 64.5, 425.5 63.4 M 427.6 65.2 Q 428.3 65.2, 428.6 64.8 Q 429.0 64.3, 429.0 63.4 Q 429.0 62.5, 428.6 62.1 Q 428.3 61.6, 427.6 61.6 Q 426.9 61.6, 426.5 62.1 Q 426.1 62.5, 426.1 63.4 Q 426.1 64.3, 426.5 64.8 Q 426.9 65.2, 427.6 65.2 " fill="#FF0000"/>
<path class="atom-33" d="M 438.0 47.1 Q 438.0 46.0, 438.5 45.4 Q 439.0 44.8, 440.0 44.8 Q 441.0 44.8, 441.6 45.4 Q 442.1 46.0, 442.1 47.1 Q 442.1 48.2, 441.6 48.8 Q 441.0 49.4, 440.0 49.4 Q 439.0 49.4, 438.5 48.8 Q 438.0 48.2, 438.0 47.1 M 440.0 48.9 Q 440.7 48.9, 441.1 48.5 Q 441.5 48.0, 441.5 47.1 Q 441.5 46.2, 441.1 45.7 Q 440.7 45.3, 440.0 45.3 Q 439.3 45.3, 439.0 45.7 Q 438.6 46.2, 438.6 47.1 Q 438.6 48.0, 439.0 48.5 Q 439.3 48.9, 440.0 48.9 " fill="#FF0000"/>
<path class="atom-35" d="M 414.0 59.1 Q 414.0 58.0, 414.5 57.4 Q 415.1 56.8, 416.1 56.8 Q 417.1 56.8, 417.6 57.4 Q 418.2 58.0, 418.2 59.1 Q 418.2 60.2, 417.6 60.9 Q 417.1 61.5, 416.1 61.5 Q 415.1 61.5, 414.5 60.9 Q 414.0 60.2, 414.0 59.1 M 416.1 61.0 Q 416.8 61.0, 417.2 60.5 Q 417.5 60.0, 417.5 59.1 Q 417.5 58.2, 417.2 57.8 Q 416.8 57.3, 416.1 57.3 Q 415.4 57.3, 415.0 57.8 Q 414.7 58.2, 414.7 59.1 Q 414.7 60.0, 415.0 60.5 Q 415.4 61.0, 416.1 61.0 " fill="#FF0000"/>
<path class="atom-36" d="M 397.5 47.2 L 398.1 47.2 L 398.1 49.1 L 400.5 49.1 L 400.5 47.2 L 401.1 47.2 L 401.1 51.7 L 400.5 51.7 L 400.5 49.6 L 398.1 49.6 L 398.1 51.7 L 397.5 51.7 L 397.5 47.2 " fill="#CCCC00"/>
<path class="atom-36" d="M 402.1 51.0 Q 402.2 51.0, 402.4 51.1 Q 402.6 51.2, 402.8 51.2 Q 403.0 51.3, 403.3 51.3 Q 403.7 51.3, 404.0 51.1 Q 404.2 50.9, 404.2 50.5 Q 404.2 50.3, 404.1 50.1 Q 404.0 50.0, 403.8 49.9 Q 403.6 49.8, 403.2 49.7 Q 402.8 49.6, 402.6 49.5 Q 402.4 49.3, 402.2 49.1 Q 402.0 48.9, 402.0 48.5 Q 402.0 47.9, 402.4 47.5 Q 402.8 47.2, 403.6 47.2 Q 404.1 47.2, 404.7 47.4 L 404.5 47.9 Q 404.0 47.7, 403.6 47.7 Q 403.1 47.7, 402.9 47.9 Q 402.7 48.1, 402.7 48.4 Q 402.7 48.6, 402.8 48.8 Q 402.9 48.9, 403.1 49.0 Q 403.3 49.1, 403.6 49.2 Q 404.0 49.3, 404.2 49.4 Q 404.5 49.6, 404.7 49.8 Q 404.8 50.1, 404.8 50.5 Q 404.8 51.1, 404.4 51.5 Q 404.0 51.8, 403.3 51.8 Q 402.9 51.8, 402.6 51.7 Q 402.3 51.6, 401.9 51.5 L 402.1 51.0 " fill="#CCCC00"/>
<path class="atom-37" d="M 404.1 35.1 Q 404.2 35.2, 404.4 35.2 Q 404.6 35.3, 404.8 35.4 Q 405.1 35.4, 405.3 35.4 Q 405.7 35.4, 406.0 35.2 Q 406.2 35.0, 406.2 34.7 Q 406.2 34.4, 406.1 34.3 Q 406.0 34.1, 405.8 34.0 Q 405.6 33.9, 405.3 33.8 Q 404.9 33.7, 404.6 33.6 Q 404.4 33.5, 404.2 33.2 Q 404.1 33.0, 404.1 32.6 Q 404.1 32.0, 404.5 31.7 Q 404.8 31.3, 405.6 31.3 Q 406.1 31.3, 406.7 31.6 L 406.6 32.1 Q 406.0 31.8, 405.6 31.8 Q 405.2 31.8, 404.9 32.0 Q 404.7 32.2, 404.7 32.5 Q 404.7 32.8, 404.8 32.9 Q 405.0 33.1, 405.1 33.1 Q 405.3 33.2, 405.6 33.3 Q 406.0 33.4, 406.3 33.6 Q 406.5 33.7, 406.7 34.0 Q 406.9 34.2, 406.9 34.7 Q 406.9 35.3, 406.5 35.6 Q 406.0 36.0, 405.3 36.0 Q 404.9 36.0, 404.6 35.9 Q 404.3 35.8, 404.0 35.6 L 404.1 35.1 " fill="#CCCC00"/>
<path class="atom-37" d="M 403.7 26.2 L 404.3 26.2 L 404.3 28.1 L 406.6 28.1 L 406.6 26.2 L 407.2 26.2 L 407.2 30.7 L 406.6 30.7 L 406.6 28.7 L 404.3 28.7 L 404.3 30.7 L 403.7 30.7 L 403.7 26.2 " fill="#CCCC00"/>
<path class="atom-38" d="M 420.0 37.2 Q 420.0 37.2, 420.3 37.3 Q 420.5 37.4, 420.7 37.4 Q 420.9 37.5, 421.2 37.5 Q 421.6 37.5, 421.8 37.3 Q 422.1 37.1, 422.1 36.7 Q 422.1 36.5, 422.0 36.3 Q 421.8 36.1, 421.6 36.1 Q 421.5 36.0, 421.1 35.9 Q 420.7 35.8, 420.5 35.6 Q 420.3 35.5, 420.1 35.3 Q 419.9 35.0, 419.9 34.6 Q 419.9 34.1, 420.3 33.7 Q 420.7 33.4, 421.5 33.4 Q 422.0 33.4, 422.6 33.6 L 422.4 34.1 Q 421.9 33.9, 421.5 33.9 Q 421.0 33.9, 420.8 34.1 Q 420.6 34.2, 420.6 34.6 Q 420.6 34.8, 420.7 34.9 Q 420.8 35.1, 421.0 35.2 Q 421.2 35.3, 421.5 35.4 Q 421.9 35.5, 422.1 35.6 Q 422.4 35.7, 422.5 36.0 Q 422.7 36.3, 422.7 36.7 Q 422.7 37.3, 422.3 37.7 Q 421.9 38.0, 421.2 38.0 Q 420.8 38.0, 420.5 37.9 Q 420.2 37.8, 419.8 37.7 L 420.0 37.2 " fill="#CCCC00"/>
<path class="atom-38" d="M 423.3 34.0 L 424.8 34.0 L 424.8 34.4 L 423.3 34.4 L 423.3 34.0 " fill="#CCCC00"/>
<path class="atom-39" d="M 408.1 17.6 Q 408.6 17.7, 408.8 18.0 Q 409.0 18.3, 409.0 18.7 Q 409.0 19.3, 408.6 19.6 Q 408.2 20.0, 407.4 20.0 L 405.9 20.0 L 405.9 15.5 L 407.3 15.5 Q 408.0 15.5, 408.4 15.8 Q 408.8 16.1, 408.8 16.7 Q 408.8 17.4, 408.1 17.6 M 406.5 16.0 L 406.5 17.4 L 407.3 17.4 Q 407.7 17.4, 407.9 17.2 Q 408.2 17.0, 408.2 16.7 Q 408.2 16.0, 407.3 16.0 L 406.5 16.0 M 407.4 19.5 Q 407.9 19.5, 408.1 19.3 Q 408.4 19.1, 408.4 18.7 Q 408.4 18.3, 408.1 18.1 Q 407.8 17.9, 407.3 17.9 L 406.5 17.9 L 406.5 19.5 L 407.4 19.5 " fill="#7F4C19"/>
<path class="atom-39" d="M 410.0 16.7 L 410.1 17.2 Q 410.4 16.7, 411.0 16.7 Q 411.2 16.7, 411.4 16.7 L 411.3 17.3 Q 411.1 17.2, 410.9 17.2 Q 410.6 17.2, 410.5 17.3 Q 410.3 17.4, 410.1 17.6 L 410.1 20.0 L 409.5 20.0 L 409.5 16.7 L 410.0 16.7 " fill="#7F4C19"/>
<path class="atom-40" d="M 388.3 33.1 Q 388.3 33.1, 388.6 33.2 Q 388.8 33.3, 389.0 33.4 Q 389.2 33.4, 389.5 33.4 Q 389.9 33.4, 390.1 33.2 Q 390.4 33.0, 390.4 32.6 Q 390.4 32.4, 390.3 32.2 Q 390.1 32.1, 389.9 32.0 Q 389.8 31.9, 389.4 31.8 Q 389.0 31.7, 388.8 31.6 Q 388.6 31.5, 388.4 31.2 Q 388.2 31.0, 388.2 30.6 Q 388.2 30.0, 388.6 29.6 Q 389.0 29.3, 389.8 29.3 Q 390.3 29.3, 390.9 29.5 L 390.7 30.0 Q 390.2 29.8, 389.8 29.8 Q 389.3 29.8, 389.1 30.0 Q 388.8 30.2, 388.9 30.5 Q 388.9 30.7, 389.0 30.9 Q 389.1 31.0, 389.3 31.1 Q 389.5 31.2, 389.8 31.3 Q 390.2 31.4, 390.4 31.5 Q 390.7 31.7, 390.8 31.9 Q 391.0 32.2, 391.0 32.6 Q 391.0 33.2, 390.6 33.6 Q 390.2 33.9, 389.5 33.9 Q 389.1 33.9, 388.8 33.8 Q 388.5 33.7, 388.1 33.6 L 388.3 33.1 " fill="#CCCC00"/>
<path class="atom-41" d="M 381.3 16.8 Q 381.3 15.7, 381.9 15.1 Q 382.4 14.5, 383.4 14.5 Q 384.4 14.5, 385.0 15.1 Q 385.5 15.7, 385.5 16.8 Q 385.5 17.9, 384.9 18.5 Q 384.4 19.2, 383.4 19.2 Q 382.4 19.2, 381.9 18.5 Q 381.3 17.9, 381.3 16.8 M 383.4 18.6 Q 384.1 18.6, 384.5 18.2 Q 384.9 17.7, 384.9 16.8 Q 384.9 15.9, 384.5 15.5 Q 384.1 15.0, 383.4 15.0 Q 382.7 15.0, 382.3 15.5 Q 382.0 15.9, 382.0 16.8 Q 382.0 17.7, 382.3 18.2 Q 382.7 18.6, 383.4 18.6 " fill="#FF0000"/>
<path class="atom-0" d="M 393.4,145.2 L 393.4,145.2 L 393.4,145.2 L 393.4,145.3 L 393.4,145.3 L 393.4,145.3 L 393.3,145.3 L 393.3,145.4 L 393.3,145.4 L 393.3,145.4 L 393.3,145.4 L 393.3,145.4 L 393.2,145.4 L 393.2,145.5 L 393.2,145.5 L 393.2,145.5 L 393.1,145.5 L 393.1,145.5 L 393.1,145.5 L 393.0,145.5 L 393.0,145.5 L 393.0,145.5 L 393.0,145.5 L 392.9,145.5 L 392.9,145.5 L 392.9,145.4 L 392.9,145.4 L 392.8,145.4 L 392.8,145.4 L 392.8,145.4 L 392.8,145.3 L 392.8,145.3 L 392.8,145.3 L 392.8,145.3 L 392.8,145.2 L 392.7,145.2 L 392.7,145.2 L 392.7,145.2 L 392.7,145.1 L 392.8,145.1 L 392.8,145.1 L 392.8,145.1 L 392.8,145.0 L 392.8,145.0 L 392.8,145.0 L 392.8,145.0 L 392.8,144.9 L 392.9,144.9 L 392.9,144.9 L 392.9,144.9 L 392.9,144.9 L 393.0,144.9 L 393.0,144.9 L 393.0,144.9 L 393.0,144.9 L 393.1,144.9 L 393.1,144.9 L 393.1,144.9 L 393.2,144.9 L 393.2,144.9 L 393.2,144.9 L 393.2,144.9 L 393.3,144.9 L 393.3,144.9 L 393.3,145.0 L 393.3,145.0 L 393.3,145.0 L 393.3,145.0 L 393.4,145.0 L 393.4,145.1 L 393.4,145.1 L 393.4,145.1 L 393.4,145.1 L 393.4,145.2 L 393.1,145.2 Z" style="fill:#000000;fill-rule:evenodd;fill-opacity:1;stroke:#000000;stroke-width:0.0px;stroke-linecap:butt;stroke-linejoin:miter;stroke-opacity:1;"/>
<path class="atom-0" d="M 393.4,143.9 L 393.4,143.9 L 393.4,143.9 L 393.4,144.0 L 393.4,144.0 L 393.4,144.0 L 393.3,144.1 L 393.3,144.1 L 393.3,144.1 L 393.3,144.1 L 393.3,144.1 L 393.3,144.2 L 393.2,144.2 L 393.2,144.2 L 393.2,144.2 L 393.2,144.2 L 393.1,144.2 L 393.1,144.2 L 393.1,144.2 L 393.0,144.2 L 393.0,144.2 L 393.0,144.2 L 393.0,144.2 L 392.9,144.2 L 392.9,144.2 L 392.9,144.2 L 392.9,144.1 L 392.8,144.1 L 392.8,144.1 L 392.8,144.1 L 392.8,144.1 L 392.8,144.0 L 392.8,144.0 L 392.8,144.0 L 392.8,144.0 L 392.7,143.9 L 392.7,143.9 L 392.7,143.9 L 392.7,143.9 L 392.8,143.8 L 392.8,143.8 L 392.8,143.8 L 392.8,143.7 L 392.8,143.7 L 392.8,143.7 L 392.8,143.7 L 392.8,143.7 L 392.9,143.6 L 392.9,143.6 L 392.9,143.6 L 392.9,143.6 L 393.0,143.6 L 393.0,143.6 L 393.0,143.6 L 393.0,143.6 L 393.1,143.6 L 393.1,143.6 L 393.1,143.6 L 393.2,143.6 L 393.2,143.6 L 393.2,143.6 L 393.2,143.6 L 393.3,143.6 L 393.3,143.7 L 393.3,143.7 L 393.3,143.7 L 393.3,143.7 L 393.3,143.7 L 393.4,143.8 L 393.4,143.8 L 393.4,143.8 L 393.4,143.8 L 393.4,143.9 L 393.4,143.9 L 393.1,143.9 Z" style="fill:#000000;fill-rule:evenodd;fill-opacity:1;stroke:#000000;stroke-width:0.0px;stroke-linecap:butt;stroke-linejoin:miter;stroke-opacity:1;"/>
<path class="atom-36" d="M 396.9,49.4 L 396.9,49.5 L 396.9,49.5 L 396.9,49.5 L 396.9,49.5 L 396.9,49.6 L 396.8,49.6 L 396.8,49.6 L 396.8,49.6 L 396.8,49.7 L 396.8,49.7 L 396.8,49.7 L 396.7,49.7 L 396.7,49.7 L 396.7,49.7 L 396.7,49.7 L 396.6,49.7 L 396.6,49.7 L 396.6,49.8 L 396.5,49.8 L 396.5,49.7 L 396.5,49.7 L 396.5,49.7 L 396.4,49.7 L 396.4,49.7 L 396.4,49.7 L 396.4,49.7 L 396.3,49.7 L 396.3,49.6 L 396.3,49.6 L 396.3,49.6 L 396.3,49.6 L 396.3,49.6 L 396.3,49.5 L 396.3,49.5 L 396.2,49.5 L 396.2,49.4 L 396.2,49.4 L 396.2,49.4 L 396.3,49.4 L 396.3,49.3 L 396.3,49.3 L 396.3,49.3 L 396.3,49.3 L 396.3,49.2 L 396.3,49.2 L 396.3,49.2 L 396.4,49.2 L 396.4,49.2 L 396.4,49.2 L 396.4,49.1 L 396.5,49.1 L 396.5,49.1 L 396.5,49.1 L 396.5,49.1 L 396.6,49.1 L 396.6,49.1 L 396.6,49.1 L 396.7,49.1 L 396.7,49.1 L 396.7,49.1 L 396.7,49.2 L 396.8,49.2 L 396.8,49.2 L 396.8,49.2 L 396.8,49.2 L 396.8,49.3 L 396.8,49.3 L 396.9,49.3 L 396.9,49.3 L 396.9,49.4 L 396.9,49.4 L 396.9,49.4 L 396.9,49.4 L 396.6,49.4 Z" style="fill:#000000;fill-rule:evenodd;fill-opacity:1;stroke:#000000;stroke-width:0.0px;stroke-linecap:butt;stroke-linejoin:miter;stroke-opacity:1;"/>
<path class="atom-37" d="M 408.5,33.6 L 408.5,33.6 L 408.5,33.6 L 408.5,33.7 L 408.5,33.7 L 408.4,33.7 L 408.4,33.7 L 408.4,33.8 L 408.4,33.8 L 408.4,33.8 L 408.4,33.8 L 408.3,33.8 L 408.3,33.9 L 408.3,33.9 L 408.3,33.9 L 408.2,33.9 L 408.2,33.9 L 408.2,33.9 L 408.2,33.9 L 408.1,33.9 L 408.1,33.9 L 408.1,33.9 L 408.1,33.9 L 408.0,33.9 L 408.0,33.9 L 408.0,33.8 L 408.0,33.8 L 407.9,33.8 L 407.9,33.8 L 407.9,33.8 L 407.9,33.8 L 407.9,33.7 L 407.9,33.7 L 407.8,33.7 L 407.8,33.6 L 407.8,33.6 L 407.8,33.6 L 407.8,33.6 L 407.8,33.5 L 407.8,33.5 L 407.8,33.5 L 407.9,33.5 L 407.9,33.4 L 407.9,33.4 L 407.9,33.4 L 407.9,33.4 L 407.9,33.3 L 408.0,33.3 L 408.0,33.3 L 408.0,33.3 L 408.0,33.3 L 408.1,33.3 L 408.1,33.3 L 408.1,33.3 L 408.1,33.3 L 408.2,33.3 L 408.2,33.3 L 408.2,33.3 L 408.2,33.3 L 408.3,33.3 L 408.3,33.3 L 408.3,33.3 L 408.3,33.3 L 408.4,33.3 L 408.4,33.4 L 408.4,33.4 L 408.4,33.4 L 408.4,33.4 L 408.4,33.4 L 408.5,33.5 L 408.5,33.5 L 408.5,33.5 L 408.5,33.6 L 408.5,33.6 L 408.2,33.6 Z" style="fill:#000000;fill-rule:evenodd;fill-opacity:1;stroke:#000000;stroke-width:0.0px;stroke-linecap:butt;stroke-linejoin:miter;stroke-opacity:1;"/>
<path class="bond-0 atom-0 atom-1" d="M 689.6,151.8 L 690.7,145.3" style="fill:none;fill-rule:evenodd;stroke:#000000;stroke-width:2.0px;stroke-linecap:butt;stroke-linejoin:miter;stroke-opacity:1"/>
<path class="bond-0 atom-0 atom-1" d="M 690.7,145.3 L 691.7,138.9" style="fill:none;fill-rule:evenodd;stroke:#FF0000;stroke-width:2.0px;stroke-linecap:butt;stroke-linejoin:miter;stroke-opacity:1"/>
<path class="bond-1 atom-1 atom-2" d="M 689.5,133.9 L 684.6,129.9" style="fill:none;fill-rule:evenodd;stroke:#FF0000;stroke-width:2.0px;stroke-linecap:butt;stroke-linejoin:miter;stroke-opacity:1"/>
<path class="bond-1 atom-1 atom-2" d="M 684.6,129.9 L 679.7,125.9" style="fill:none;fill-rule:evenodd;stroke:#000000;stroke-width:2.0px;stroke-linecap:butt;stroke-linejoin:miter;stroke-opacity:1"/>
<path class="bond-2 atom-2 atom-3" d="M 679.7,125.9 L 673.4,128.4" style="fill:none;fill-rule:evenodd;stroke:#000000;stroke-width:2.0px;stroke-linecap:butt;stroke-linejoin:miter;stroke-opacity:1"/>
<path class="bond-2 atom-2 atom-3" d="M 673.4,128.4 L 667.0,130.8" style="fill:none;fill-rule:evenodd;stroke:#0000FF;stroke-width:2.0px;stroke-linecap:butt;stroke-linejoin:miter;stroke-opacity:1"/>
<path class="bond-2 atom-2 atom-3" d="M 677.6,124.2 L 671.9,126.4" style="fill:none;fill-rule:evenodd;stroke:#000000;stroke-width:2.0px;stroke-linecap:butt;stroke-linejoin:miter;stroke-opacity:1"/>
<path class="bond-2 atom-2 atom-3" d="M 671.9,126.4 L 666.2,128.6" style="fill:none;fill-rule:evenodd;stroke:#0000FF;stroke-width:2.0px;stroke-linecap:butt;stroke-linejoin:miter;stroke-opacity:1"/>
<path class="bond-3 atom-3 atom-4" d="M 662.6,129.9 L 657.5,125.7" style="fill:none;fill-rule:evenodd;stroke:#0000FF;stroke-width:2.0px;stroke-linecap:butt;stroke-linejoin:miter;stroke-opacity:1"/>
<path class="bond-3 atom-3 atom-4" d="M 657.5,125.7 L 652.4,121.6" style="fill:none;fill-rule:evenodd;stroke:#000000;stroke-width:2.0px;stroke-linecap:butt;stroke-linejoin:miter;stroke-opacity:1"/>
<path class="bond-4 atom-4 atom-5" d="M 652.4,121.6 L 654.9,105.8" style="fill:none;fill-rule:evenodd;stroke:#000000;stroke-width:2.0px;stroke-linecap:butt;stroke-linejoin:miter;stroke-opacity:1"/>
<path class="bond-4 atom-4 atom-5" d="M 655.0,120.6 L 657.0,107.6" style="fill:none;fill-rule:evenodd;stroke:#000000;stroke-width:2.0px;stroke-linecap:butt;stroke-linejoin:miter;stroke-opacity:1"/>
<path class="bond-5 atom-5 atom-6" d="M 654.9,105.8 L 669.8,100.1" style="fill:none;fill-rule:evenodd;stroke:#000000;stroke-width:2.0px;stroke-linecap:butt;stroke-linejoin:miter;stroke-opacity:1"/>
<path class="bond-6 atom-6 atom-7" d="M 669.8,100.1 L 682.2,110.1" style="fill:none;fill-rule:evenodd;stroke:#000000;stroke-width:2.0px;stroke-linecap:butt;stroke-linejoin:miter;stroke-opacity:1"/>
<path class="bond-6 atom-6 atom-7" d="M 669.3,102.8 L 679.6,111.1" style="fill:none;fill-rule:evenodd;stroke:#000000;stroke-width:2.0px;stroke-linecap:butt;stroke-linejoin:miter;stroke-opacity:1"/>
<path class="bond-7 atom-7 atom-8" d="M 682.2,110.1 L 697.1,104.4" style="fill:none;fill-rule:evenodd;stroke:#000000;stroke-width:2.0px;stroke-linecap:butt;stroke-linejoin:miter;stroke-opacity:1"/>
<path class="bond-8 atom-8 atom-9" d="M 697.1,104.4 L 709.5,114.5" style="fill:none;fill-rule:evenodd;stroke:#000000;stroke-width:2.0px;stroke-linecap:butt;stroke-linejoin:miter;stroke-opacity:1"/>
<path class="bond-8 atom-8 atom-9" d="M 699.7,103.4 L 710.0,111.7" style="fill:none;fill-rule:evenodd;stroke:#000000;stroke-width:2.0px;stroke-linecap:butt;stroke-linejoin:miter;stroke-opacity:1"/>
<path class="bond-9 atom-9 atom-10" d="M 709.5,114.5 L 724.5,108.7" style="fill:none;fill-rule:evenodd;stroke:#000000;stroke-width:2.0px;stroke-linecap:butt;stroke-linejoin:miter;stroke-opacity:1"/>
<path class="bond-10 atom-10 atom-11" d="M 724.5,108.7 L 727.0,92.9" style="fill:none;fill-rule:evenodd;stroke:#000000;stroke-width:2.0px;stroke-linecap:butt;stroke-linejoin:miter;stroke-opacity:1"/>
<path class="bond-10 atom-10 atom-11" d="M 722.3,107.0 L 724.4,93.9" style="fill:none;fill-rule:evenodd;stroke:#000000;stroke-width:2.0px;stroke-linecap:butt;stroke-linejoin:miter;stroke-opacity:1"/>
<path class="bond-11 atom-11 atom-12" d="M 727.0,92.9 L 741.9,87.2" style="fill:none;fill-rule:evenodd;stroke:#000000;stroke-width:2.0px;stroke-linecap:butt;stroke-linejoin:miter;stroke-opacity:1"/>
<path class="bond-12 atom-12 atom-13" d="M 741.9,87.2 L 754.3,97.3" style="fill:none;fill-rule:evenodd;stroke:#000000;stroke-width:2.0px;stroke-linecap:butt;stroke-linejoin:miter;stroke-opacity:1"/>
<path class="bond-13 atom-13 atom-14" d="M 754.3,97.3 L 762.5,111.0" style="fill:none;fill-rule:evenodd;stroke:#000000;stroke-width:2.0px;stroke-linecap:butt;stroke-linejoin:miter;stroke-opacity:1"/>
<path class="bond-14 atom-13 atom-15" d="M 754.3,97.3 L 742.2,107.8" style="fill:none;fill-rule:evenodd;stroke:#000000;stroke-width:2.0px;stroke-linecap:butt;stroke-linejoin:miter;stroke-opacity:1"/>
<path class="bond-15 atom-13 atom-16" d="M 754.3,97.3 L 760.5,94.9" style="fill:none;fill-rule:evenodd;stroke:#000000;stroke-width:2.0px;stroke-linecap:butt;stroke-linejoin:miter;stroke-opacity:1"/>
<path class="bond-15 atom-13 atom-16" d="M 760.5,94.9 L 766.6,92.5" style="fill:none;fill-rule:evenodd;stroke:#FF0000;stroke-width:2.0px;stroke-linecap:butt;stroke-linejoin:miter;stroke-opacity:1"/>
<path class="bond-16 atom-16 atom-17" d="M 769.7,88.7 L 770.7,82.2" style="fill:none;fill-rule:evenodd;stroke:#FF0000;stroke-width:2.0px;stroke-linecap:butt;stroke-linejoin:miter;stroke-opacity:1"/>
<path class="bond-16 atom-16 atom-17" d="M 770.7,82.2 L 771.7,75.7" style="fill:none;fill-rule:evenodd;stroke:#000000;stroke-width:2.0px;stroke-linecap:butt;stroke-linejoin:miter;stroke-opacity:1"/>
<path class="bond-17 atom-17 atom-18" d="M 771.7,75.7 L 778.0,73.3" style="fill:none;fill-rule:evenodd;stroke:#000000;stroke-width:2.0px;stroke-linecap:butt;stroke-linejoin:miter;stroke-opacity:1"/>
<path class="bond-17 atom-17 atom-18" d="M 778.0,73.3 L 784.4,70.9" style="fill:none;fill-rule:evenodd;stroke:#0000FF;stroke-width:2.0px;stroke-linecap:butt;stroke-linejoin:miter;stroke-opacity:1"/>
<path class="bond-18 atom-18 atom-19" d="M 788.9,71.8 L 794.0,75.9" style="fill:none;fill-rule:evenodd;stroke:#0000FF;stroke-width:2.0px;stroke-linecap:butt;stroke-linejoin:miter;stroke-opacity:1"/>
<path class="bond-18 atom-18 atom-19" d="M 794.0,75.9 L 799.0,80.1" style="fill:none;fill-rule:evenodd;stroke:#000000;stroke-width:2.0px;stroke-linecap:butt;stroke-linejoin:miter;stroke-opacity:1"/>
<path class="bond-19 atom-19 atom-20" d="M 799.0,80.1 L 814.0,74.3" style="fill:none;fill-rule:evenodd;stroke:#000000;stroke-width:2.0px;stroke-linecap:butt;stroke-linejoin:miter;stroke-opacity:1"/>
<path class="bond-20 atom-20 atom-21" d="M 814.0,74.3 L 826.4,84.4" style="fill:none;fill-rule:evenodd;stroke:#000000;stroke-width:2.0px;stroke-linecap:butt;stroke-linejoin:miter;stroke-opacity:1"/>
<path class="bond-21 atom-21 atom-22" d="M 826.4,84.4 L 832.5,82.0" style="fill:none;fill-rule:evenodd;stroke:#000000;stroke-width:2.0px;stroke-linecap:butt;stroke-linejoin:miter;stroke-opacity:1"/>
<path class="bond-21 atom-21 atom-22" d="M 832.5,82.0 L 838.7,79.6" style="fill:none;fill-rule:evenodd;stroke:#FF0000;stroke-width:2.0px;stroke-linecap:butt;stroke-linejoin:miter;stroke-opacity:1"/>
<path class="bond-22 atom-19 atom-23" d="M 799.0,80.1 L 796.6,95.8" style="fill:none;fill-rule:evenodd;stroke:#000000;stroke-width:2.0px;stroke-linecap:butt;stroke-linejoin:miter;stroke-opacity:1"/>
<path class="bond-23 atom-23 atom-24" d="M 796.6,95.8 L 781.6,101.6" style="fill:none;fill-rule:evenodd;stroke:#000000;stroke-width:2.0px;stroke-linecap:butt;stroke-linejoin:miter;stroke-opacity:1"/>
<path class="bond-23 atom-23 atom-24" d="M 796.1,98.6 L 783.8,103.3" style="fill:none;fill-rule:evenodd;stroke:#000000;stroke-width:2.0px;stroke-linecap:butt;stroke-linejoin:miter;stroke-opacity:1"/>
<path class="bond-24 atom-24 atom-25" d="M 781.6,101.6 L 779.1,117.4" style="fill:none;fill-rule:evenodd;stroke:#000000;stroke-width:2.0px;stroke-linecap:butt;stroke-linejoin:miter;stroke-opacity:1"/>
<path class="bond-25 atom-25 atom-26" d="M 779.1,117.4 L 791.6,127.4" style="fill:none;fill-rule:evenodd;stroke:#000000;stroke-width:2.0px;stroke-linecap:butt;stroke-linejoin:miter;stroke-opacity:1"/>
<path class="bond-25 atom-25 atom-26" d="M 781.7,116.4 L 792.0,124.7" style="fill:none;fill-rule:evenodd;stroke:#000000;stroke-width:2.0px;stroke-linecap:butt;stroke-linejoin:miter;stroke-opacity:1"/>
<path class="bond-26 atom-26 atom-27" d="M 791.6,127.4 L 806.5,121.7" style="fill:none;fill-rule:evenodd;stroke:#000000;stroke-width:2.0px;stroke-linecap:butt;stroke-linejoin:miter;stroke-opacity:1"/>
<path class="bond-27 atom-27 atom-28" d="M 806.5,121.7 L 809.0,105.9" style="fill:none;fill-rule:evenodd;stroke:#000000;stroke-width:2.0px;stroke-linecap:butt;stroke-linejoin:miter;stroke-opacity:1"/>
<path class="bond-27 atom-27 atom-28" d="M 804.3,119.9 L 806.4,106.9" style="fill:none;fill-rule:evenodd;stroke:#000000;stroke-width:2.0px;stroke-linecap:butt;stroke-linejoin:miter;stroke-opacity:1"/>
<path class="bond-28 atom-28 atom-29" d="M 809.0,105.9 L 815.5,103.4" style="fill:none;fill-rule:evenodd;stroke:#000000;stroke-width:2.0px;stroke-linecap:butt;stroke-linejoin:miter;stroke-opacity:1"/>
<path class="bond-28 atom-28 atom-29" d="M 815.5,103.4 L 822.0,100.9" style="fill:none;fill-rule:evenodd;stroke:#33CCCC;stroke-width:2.0px;stroke-linecap:butt;stroke-linejoin:miter;stroke-opacity:1"/>
<path class="bond-29 atom-17 atom-30" d="M 771.7,75.7 L 766.6,71.6" style="fill:none;fill-rule:evenodd;stroke:#000000;stroke-width:2.0px;stroke-linecap:butt;stroke-linejoin:miter;stroke-opacity:1"/>
<path class="bond-29 atom-17 atom-30" d="M 766.6,71.6 L 761.5,67.5" style="fill:none;fill-rule:evenodd;stroke:#0000FF;stroke-width:2.0px;stroke-linecap:butt;stroke-linejoin:miter;stroke-opacity:1"/>
<path class="bond-29 atom-17 atom-30" d="M 769.1,76.7 L 764.6,73.1" style="fill:none;fill-rule:evenodd;stroke:#000000;stroke-width:2.0px;stroke-linecap:butt;stroke-linejoin:miter;stroke-opacity:1"/>
<path class="bond-29 atom-17 atom-30" d="M 764.6,73.1 L 760.0,69.4" style="fill:none;fill-rule:evenodd;stroke:#0000FF;stroke-width:2.0px;stroke-linecap:butt;stroke-linejoin:miter;stroke-opacity:1"/>
<path class="bond-30 atom-30 atom-31" d="M 757.0,66.6 L 751.7,68.6" style="fill:none;fill-rule:evenodd;stroke:#0000FF;stroke-width:2.0px;stroke-linecap:butt;stroke-linejoin:miter;stroke-opacity:1"/>
<path class="bond-30 atom-30 atom-31" d="M 751.7,68.6 L 746.3,70.7" style="fill:none;fill-rule:evenodd;stroke:#CCCC00;stroke-width:2.0px;stroke-linecap:butt;stroke-linejoin:miter;stroke-opacity:1"/>
<path class="bond-31 atom-31 atom-32" d="M 742.4,70.3 L 736.7,70.4" style="fill:none;fill-rule:evenodd;stroke:#CCCC00;stroke-width:2.0px;stroke-linecap:butt;stroke-linejoin:miter;stroke-opacity:1"/>
<path class="bond-31 atom-31 atom-32" d="M 736.7,70.4 L 731.0,70.5" style="fill:none;fill-rule:evenodd;stroke:#FF0000;stroke-width:2.0px;stroke-linecap:butt;stroke-linejoin:miter;stroke-opacity:1"/>
<path class="bond-31 atom-31 atom-32" d="M 742.4,72.7 L 736.7,72.8" style="fill:none;fill-rule:evenodd;stroke:#CCCC00;stroke-width:2.0px;stroke-linecap:butt;stroke-linejoin:miter;stroke-opacity:1"/>
<path class="bond-31 atom-31 atom-32" d="M 736.7,72.8 L 731.0,72.9" style="fill:none;fill-rule:evenodd;stroke:#FF0000;stroke-width:2.0px;stroke-linecap:butt;stroke-linejoin:miter;stroke-opacity:1"/>
<path class="bond-32 atom-31 atom-33" d="M 745.0,68.4 L 744.0,63.4" style="fill:none;fill-rule:evenodd;stroke:#CCCC00;stroke-width:2.0px;stroke-linecap:butt;stroke-linejoin:miter;stroke-opacity:1"/>
<path class="bond-32 atom-31 atom-33" d="M 744.0,63.4 L 743.0,58.4" style="fill:none;fill-rule:evenodd;stroke:#FF0000;stroke-width:2.0px;stroke-linecap:butt;stroke-linejoin:miter;stroke-opacity:1"/>
<path class="bond-32 atom-31 atom-33" d="M 742.6,68.9 L 741.7,63.9" style="fill:none;fill-rule:evenodd;stroke:#CCCC00;stroke-width:2.0px;stroke-linecap:butt;stroke-linejoin:miter;stroke-opacity:1"/>
<path class="bond-32 atom-31 atom-33" d="M 741.7,63.9 L 740.7,58.9" style="fill:none;fill-rule:evenodd;stroke:#FF0000;stroke-width:2.0px;stroke-linecap:butt;stroke-linejoin:miter;stroke-opacity:1"/>
<path class="bond-33 atom-11 atom-34" d="M 727.0,92.9 L 714.5,82.9" style="fill:none;fill-rule:evenodd;stroke:#000000;stroke-width:2.0px;stroke-linecap:butt;stroke-linejoin:miter;stroke-opacity:1"/>
<path class="bond-34 atom-34 atom-35" d="M 714.5,82.9 L 715.5,76.4" style="fill:none;fill-rule:evenodd;stroke:#000000;stroke-width:2.0px;stroke-linecap:butt;stroke-linejoin:miter;stroke-opacity:1"/>
<path class="bond-34 atom-34 atom-35" d="M 715.5,76.4 L 716.6,70.0" style="fill:none;fill-rule:evenodd;stroke:#FF0000;stroke-width:2.0px;stroke-linecap:butt;stroke-linejoin:miter;stroke-opacity:1"/>
<path class="bond-35 atom-35 atom-36" d="M 714.4,65.0 L 710.5,61.8" style="fill:none;fill-rule:evenodd;stroke:#FF0000;stroke-width:2.0px;stroke-linecap:butt;stroke-linejoin:miter;stroke-opacity:1"/>
<path class="bond-35 atom-35 atom-36" d="M 710.5,61.8 L 706.6,58.7" style="fill:none;fill-rule:evenodd;stroke:#CCCC00;stroke-width:2.0px;stroke-linecap:butt;stroke-linejoin:miter;stroke-opacity:1"/>
<path class="bond-36 atom-36 atom-37" d="M 705.0,54.3 L 706.6,44.2" style="fill:none;fill-rule:evenodd;stroke:#CCCC00;stroke-width:2.0px;stroke-linecap:butt;stroke-linejoin:miter;stroke-opacity:1"/>
<path class="bond-37 atom-37 atom-38" d="M 709.1,41.6 L 714.7,42.5" style="fill:none;fill-rule:evenodd;stroke:#CCCC00;stroke-width:2.0px;stroke-linecap:butt;stroke-linejoin:miter;stroke-opacity:1"/>
<path class="bond-37 atom-37 atom-38" d="M 714.7,42.5 L 720.3,43.4" style="fill:none;fill-rule:evenodd;stroke:#FF0000;stroke-width:2.0px;stroke-linecap:butt;stroke-linejoin:miter;stroke-opacity:1"/>
<path class="bond-38 atom-37 atom-39" d="M 705.1,41.0 L 693.3,39.1" style="fill:none;fill-rule:evenodd;stroke:#CCCC00;stroke-width:2.0px;stroke-linecap:butt;stroke-linejoin:miter;stroke-opacity:1"/>
<path class="bond-39 atom-37 atom-40" d="M 708.3,33.4 L 709.1,28.4" style="fill:none;fill-rule:evenodd;stroke:#CCCC00;stroke-width:2.0px;stroke-linecap:butt;stroke-linejoin:miter;stroke-opacity:1"/>
<path class="bond-40 atom-40 atom-41" d="M 707.6,25.2 L 702.0,24.3" style="fill:none;fill-rule:evenodd;stroke:#CCCC00;stroke-width:2.0px;stroke-linecap:butt;stroke-linejoin:miter;stroke-opacity:1"/>
<path class="bond-40 atom-40 atom-41" d="M 702.0,24.3 L 696.4,23.4" style="fill:none;fill-rule:evenodd;stroke:#FF0000;stroke-width:2.0px;stroke-linecap:butt;stroke-linejoin:miter;stroke-opacity:1"/>
<path class="bond-41 atom-40 atom-42" d="M 710.0,22.7 L 710.8,17.7" style="fill:none;fill-rule:evenodd;stroke:#CCCC00;stroke-width:2.0px;stroke-linecap:butt;stroke-linejoin:miter;stroke-opacity:1"/>
<path class="bond-41 atom-40 atom-42" d="M 710.8,17.7 L 711.6,12.7" style="fill:none;fill-rule:evenodd;stroke:#00CC00;stroke-width:2.0px;stroke-linecap:butt;stroke-linejoin:miter;stroke-opacity:1"/>
<path class="bond-42 atom-40 atom-43" d="M 711.6,25.8 L 717.2,26.7" style="fill:none;fill-rule:evenodd;stroke:#CCCC00;stroke-width:2.0px;stroke-linecap:butt;stroke-linejoin:miter;stroke-opacity:1"/>
<path class="bond-42 atom-40 atom-43" d="M 717.2,26.7 L 722.8,27.6" style="fill:none;fill-rule:evenodd;stroke:#FF0000;stroke-width:2.0px;stroke-linecap:butt;stroke-linejoin:miter;stroke-opacity:1"/>
<path class="bond-43 atom-43 atom-44" d="M 727.6,25.2 L 733.1,18.4" style="fill:none;fill-rule:evenodd;stroke:#FF0000;stroke-width:2.0px;stroke-linecap:butt;stroke-linejoin:miter;stroke-opacity:1"/>
<path class="bond-44 atom-34 atom-45" d="M 714.5,82.9 L 699.6,88.6" style="fill:none;fill-rule:evenodd;stroke:#000000;stroke-width:2.0px;stroke-linecap:butt;stroke-linejoin:miter;stroke-opacity:1"/>
<path class="bond-44 atom-34 atom-45" d="M 714.1,85.6 L 701.8,90.4" style="fill:none;fill-rule:evenodd;stroke:#000000;stroke-width:2.0px;stroke-linecap:butt;stroke-linejoin:miter;stroke-opacity:1"/>
<path class="bond-45 atom-7 atom-2" d="M 682.2,110.1 L 679.7,125.9" style="fill:none;fill-rule:evenodd;stroke:#000000;stroke-width:2.0px;stroke-linecap:butt;stroke-linejoin:miter;stroke-opacity:1"/>
<path class="bond-46 atom-45 atom-8" d="M 699.6,88.6 L 697.1,104.4" style="fill:none;fill-rule:evenodd;stroke:#000000;stroke-width:2.0px;stroke-linecap:butt;stroke-linejoin:miter;stroke-opacity:1"/>
<path class="bond-47 atom-31 atom-12" d="M 743.9,74.3 L 742.9,80.8" style="fill:none;fill-rule:evenodd;stroke:#CCCC00;stroke-width:2.0px;stroke-linecap:butt;stroke-linejoin:miter;stroke-opacity:1"/>
<path class="bond-47 atom-31 atom-12" d="M 742.9,80.8 L 741.9,87.2" style="fill:none;fill-rule:evenodd;stroke:#000000;stroke-width:2.0px;stroke-linecap:butt;stroke-linejoin:miter;stroke-opacity:1"/>
<path class="bond-48 atom-28 atom-23" d="M 809.0,105.9 L 796.6,95.8" style="fill:none;fill-rule:evenodd;stroke:#000000;stroke-width:2.0px;stroke-linecap:butt;stroke-linejoin:miter;stroke-opacity:1"/>
<path d="M 652.6,121.8 L 652.4,121.6 L 652.5,120.8" style="fill:none;stroke:#000000;stroke-width:2.0px;stroke-linecap:butt;stroke-linejoin:miter;stroke-opacity:1;"/>
<path d="M 654.7,106.6 L 654.9,105.8 L 655.6,105.5" style="fill:none;stroke:#000000;stroke-width:2.0px;stroke-linecap:butt;stroke-linejoin:miter;stroke-opacity:1;"/>
<path d="M 669.0,100.4 L 669.8,100.1 L 670.4,100.6" style="fill:none;stroke:#000000;stroke-width:2.0px;stroke-linecap:butt;stroke-linejoin:miter;stroke-opacity:1;"/>
<path d="M 708.9,114.0 L 709.5,114.5 L 710.3,114.2" style="fill:none;stroke:#000000;stroke-width:2.0px;stroke-linecap:butt;stroke-linejoin:miter;stroke-opacity:1;"/>
<path d="M 723.7,109.0 L 724.5,108.7 L 724.6,107.9" style="fill:none;stroke:#000000;stroke-width:2.0px;stroke-linecap:butt;stroke-linejoin:miter;stroke-opacity:1;"/>
<path d="M 813.2,74.6 L 814.0,74.3 L 814.6,74.8" style="fill:none;stroke:#000000;stroke-width:2.0px;stroke-linecap:butt;stroke-linejoin:miter;stroke-opacity:1;"/>
<path d="M 825.8,83.9 L 826.4,84.4 L 826.7,84.3" style="fill:none;stroke:#000000;stroke-width:2.0px;stroke-linecap:butt;stroke-linejoin:miter;stroke-opacity:1;"/>
<path d="M 782.4,101.3 L 781.6,101.6 L 781.5,102.4" style="fill:none;stroke:#000000;stroke-width:2.0px;stroke-linecap:butt;stroke-linejoin:miter;stroke-opacity:1;"/>
<path d="M 779.3,116.6 L 779.1,117.4 L 779.8,117.9" style="fill:none;stroke:#000000;stroke-width:2.0px;stroke-linecap:butt;stroke-linejoin:miter;stroke-opacity:1;"/>
<path d="M 790.9,126.9 L 791.6,127.4 L 792.3,127.1" style="fill:none;stroke:#000000;stroke-width:2.0px;stroke-linecap:butt;stroke-linejoin:miter;stroke-opacity:1;"/>
<path d="M 805.7,122.0 L 806.5,121.7 L 806.6,120.9" style="fill:none;stroke:#000000;stroke-width:2.0px;stroke-linecap:butt;stroke-linejoin:miter;stroke-opacity:1;"/>
<path d="M 700.4,88.3 L 699.6,88.6 L 699.5,89.4" style="fill:none;stroke:#000000;stroke-width:2.0px;stroke-linecap:butt;stroke-linejoin:miter;stroke-opacity:1;"/>
<path class="atom-1" d="M 690.1 136.0 Q 690.1 134.9, 690.6 134.3 Q 691.1 133.7, 692.1 133.7 Q 693.1 133.7, 693.7 134.3 Q 694.2 134.9, 694.2 136.0 Q 694.2 137.1, 693.7 137.7 Q 693.1 138.3, 692.1 138.3 Q 691.1 138.3, 690.6 137.7 Q 690.1 137.1, 690.1 136.0 M 692.1 137.8 Q 692.8 137.8, 693.2 137.4 Q 693.6 136.9, 693.6 136.0 Q 693.6 135.1, 693.2 134.7 Q 692.8 134.2, 692.1 134.2 Q 691.4 134.2, 691.1 134.7 Q 690.7 135.1, 690.7 136.0 Q 690.7 136.9, 691.1 137.4 Q 691.4 137.8, 692.1 137.8 " fill="#FF0000"/>
<path class="atom-3" d="M 663.8 129.4 L 665.3 131.8 Q 665.4 132.0, 665.7 132.5 Q 665.9 132.9, 665.9 132.9 L 665.9 129.4 L 666.5 129.4 L 666.5 133.9 L 665.9 133.9 L 664.3 131.3 Q 664.1 131.0, 663.9 130.6 Q 663.7 130.3, 663.7 130.2 L 663.7 133.9 L 663.1 133.9 L 663.1 129.4 L 663.8 129.4 " fill="#0000FF"/>
<path class="atom-16" d="M 767.1 91.5 Q 767.1 90.5, 767.7 89.8 Q 768.2 89.2, 769.2 89.2 Q 770.2 89.2, 770.8 89.8 Q 771.3 90.5, 771.3 91.5 Q 771.3 92.6, 770.7 93.3 Q 770.2 93.9, 769.2 93.9 Q 768.2 93.9, 767.7 93.3 Q 767.1 92.6, 767.1 91.5 M 769.2 93.4 Q 769.9 93.4, 770.3 92.9 Q 770.7 92.4, 770.7 91.5 Q 770.7 90.7, 770.3 90.2 Q 769.9 89.8, 769.2 89.8 Q 768.5 89.8, 768.1 90.2 Q 767.8 90.6, 767.8 91.5 Q 767.8 92.5, 768.1 92.9 Q 768.5 93.4, 769.2 93.4 " fill="#FF0000"/>
<path class="atom-18" d="M 785.6 67.7 L 787.1 70.1 Q 787.3 70.4, 787.5 70.8 Q 787.7 71.2, 787.7 71.3 L 787.7 67.7 L 788.3 67.7 L 788.3 72.3 L 787.7 72.3 L 786.1 69.6 Q 785.9 69.3, 785.7 69.0 Q 785.6 68.6, 785.5 68.5 L 785.5 72.3 L 784.9 72.3 L 784.9 67.7 L 785.6 67.7 " fill="#0000FF"/>
<path class="atom-18" d="M 784.9 62.8 L 785.5 62.8 L 785.5 64.7 L 787.8 64.7 L 787.8 62.8 L 788.4 62.8 L 788.4 67.3 L 787.8 67.3 L 787.8 65.2 L 785.5 65.2 L 785.5 67.3 L 784.9 67.3 L 784.9 62.8 " fill="#0000FF"/>
<path class="atom-22" d="M 839.2 78.7 Q 839.2 77.6, 839.8 77.0 Q 840.3 76.4, 841.3 76.4 Q 842.3 76.4, 842.8 77.0 Q 843.4 77.6, 843.4 78.7 Q 843.4 79.8, 842.8 80.4 Q 842.3 81.0, 841.3 81.0 Q 840.3 81.0, 839.8 80.4 Q 839.2 79.8, 839.2 78.7 M 841.3 80.5 Q 842.0 80.5, 842.4 80.0 Q 842.7 79.6, 842.7 78.7 Q 842.7 77.8, 842.4 77.3 Q 842.0 76.9, 841.3 76.9 Q 840.6 76.9, 840.2 77.3 Q 839.9 77.8, 839.9 78.7 Q 839.9 79.6, 840.2 80.0 Q 840.6 80.5, 841.3 80.5 " fill="#FF0000"/>
<path class="atom-22" d="M 844.1 76.4 L 844.7 76.4 L 844.7 78.3 L 847.0 78.3 L 847.0 76.4 L 847.6 76.4 L 847.6 80.9 L 847.0 80.9 L 847.0 78.8 L 844.7 78.8 L 844.7 80.9 L 844.1 80.9 L 844.1 76.4 " fill="#FF0000"/>
<path class="atom-29" d="M 822.6 97.9 L 825.2 97.9 L 825.2 98.4 L 823.2 98.4 L 823.2 99.8 L 825.0 99.8 L 825.0 100.3 L 823.2 100.3 L 823.2 102.4 L 822.6 102.4 L 822.6 97.9 " fill="#33CCCC"/>
<path class="atom-30" d="M 758.3 63.4 L 759.8 65.8 Q 759.9 66.1, 760.1 66.5 Q 760.4 66.9, 760.4 66.9 L 760.4 63.4 L 761.0 63.4 L 761.0 68.0 L 760.4 68.0 L 758.8 65.3 Q 758.6 65.0, 758.4 64.7 Q 758.2 64.3, 758.2 64.2 L 758.2 68.0 L 757.6 68.0 L 757.6 63.4 L 758.3 63.4 " fill="#0000FF"/>
<path class="atom-31" d="M 743.1 73.0 Q 743.1 73.0, 743.3 73.1 Q 743.6 73.2, 743.8 73.2 Q 744.0 73.3, 744.3 73.3 Q 744.7 73.3, 744.9 73.1 Q 745.2 72.9, 745.2 72.5 Q 745.2 72.3, 745.1 72.1 Q 744.9 71.9, 744.7 71.9 Q 744.6 71.8, 744.2 71.7 Q 743.8 71.6, 743.6 71.4 Q 743.3 71.3, 743.2 71.1 Q 743.0 70.8, 743.0 70.4 Q 743.0 69.9, 743.4 69.5 Q 743.8 69.2, 744.6 69.2 Q 745.1 69.2, 745.7 69.4 L 745.5 69.9 Q 745.0 69.7, 744.6 69.7 Q 744.1 69.7, 743.9 69.9 Q 743.6 70.0, 743.6 70.4 Q 743.6 70.6, 743.8 70.8 Q 743.9 70.9, 744.1 71.0 Q 744.3 71.1, 744.6 71.2 Q 745.0 71.3, 745.2 71.4 Q 745.5 71.5, 745.6 71.8 Q 745.8 72.1, 745.8 72.5 Q 745.8 73.1, 745.4 73.5 Q 745.0 73.8, 744.3 73.8 Q 743.9 73.8, 743.6 73.7 Q 743.3 73.6, 742.9 73.5 L 743.1 73.0 " fill="#CCCC00"/>
<path class="atom-32" d="M 726.3 71.7 Q 726.3 70.6, 726.8 70.0 Q 727.4 69.4, 728.4 69.4 Q 729.4 69.4, 729.9 70.0 Q 730.5 70.6, 730.5 71.7 Q 730.5 72.8, 729.9 73.4 Q 729.4 74.1, 728.4 74.1 Q 727.4 74.1, 726.8 73.4 Q 726.3 72.8, 726.3 71.7 M 728.4 73.6 Q 729.1 73.6, 729.4 73.1 Q 729.8 72.6, 729.8 71.7 Q 729.8 70.8, 729.4 70.4 Q 729.1 69.9, 728.4 69.9 Q 727.7 69.9, 727.3 70.4 Q 726.9 70.8, 726.9 71.7 Q 726.9 72.6, 727.3 73.1 Q 727.7 73.6, 728.4 73.6 " fill="#FF0000"/>
<path class="atom-33" d="M 739.2 55.8 Q 739.2 54.7, 739.8 54.1 Q 740.3 53.4, 741.3 53.4 Q 742.3 53.4, 742.8 54.1 Q 743.4 54.7, 743.4 55.8 Q 743.4 56.9, 742.8 57.5 Q 742.3 58.1, 741.3 58.1 Q 740.3 58.1, 739.8 57.5 Q 739.2 56.9, 739.2 55.8 M 741.3 57.6 Q 742.0 57.6, 742.4 57.1 Q 742.7 56.7, 742.7 55.8 Q 742.7 54.9, 742.4 54.4 Q 742.0 54.0, 741.3 54.0 Q 740.6 54.0, 740.2 54.4 Q 739.9 54.9, 739.9 55.8 Q 739.9 56.7, 740.2 57.1 Q 740.6 57.6, 741.3 57.6 " fill="#FF0000"/>
<path class="atom-35" d="M 714.9 67.1 Q 714.9 66.0, 715.5 65.4 Q 716.0 64.8, 717.0 64.8 Q 718.0 64.8, 718.6 65.4 Q 719.1 66.0, 719.1 67.1 Q 719.1 68.2, 718.6 68.8 Q 718.0 69.5, 717.0 69.5 Q 716.0 69.5, 715.5 68.8 Q 714.9 68.2, 714.9 67.1 M 717.0 69.0 Q 717.7 69.0, 718.1 68.5 Q 718.5 68.0, 718.5 67.1 Q 718.5 66.2, 718.1 65.8 Q 717.7 65.3, 717.0 65.3 Q 716.3 65.3, 716.0 65.8 Q 715.6 66.2, 715.6 67.1 Q 715.6 68.0, 716.0 68.5 Q 716.3 69.0, 717.0 69.0 " fill="#FF0000"/>
<path class="atom-36" d="M 698.7 54.8 L 699.4 54.8 L 699.4 56.7 L 701.7 56.7 L 701.7 54.8 L 702.3 54.8 L 702.3 59.3 L 701.7 59.3 L 701.7 57.2 L 699.4 57.2 L 699.4 59.3 L 698.7 59.3 L 698.7 54.8 " fill="#CCCC00"/>
<path class="atom-36" d="M 703.3 58.6 Q 703.4 58.6, 703.6 58.7 Q 703.8 58.8, 704.0 58.9 Q 704.3 58.9, 704.5 58.9 Q 704.9 58.9, 705.2 58.7 Q 705.4 58.5, 705.4 58.1 Q 705.4 57.9, 705.3 57.7 Q 705.2 57.6, 705.0 57.5 Q 704.8 57.4, 704.5 57.3 Q 704.1 57.2, 703.8 57.1 Q 703.6 57.0, 703.4 56.7 Q 703.2 56.5, 703.2 56.1 Q 703.2 55.5, 703.6 55.2 Q 704.0 54.8, 704.8 54.8 Q 705.3 54.8, 705.9 55.1 L 705.8 55.5 Q 705.2 55.3, 704.8 55.3 Q 704.4 55.3, 704.1 55.5 Q 703.9 55.7, 703.9 56.0 Q 703.9 56.2, 704.0 56.4 Q 704.1 56.5, 704.3 56.6 Q 704.5 56.7, 704.8 56.8 Q 705.2 56.9, 705.5 57.1 Q 705.7 57.2, 705.9 57.4 Q 706.1 57.7, 706.1 58.1 Q 706.1 58.8, 705.6 59.1 Q 705.2 59.4, 704.5 59.4 Q 704.1 59.4, 703.8 59.4 Q 703.5 59.3, 703.1 59.1 L 703.3 58.6 " fill="#CCCC00"/>
<path class="atom-37" d="M 705.8 42.8 Q 705.9 42.8, 706.1 42.9 Q 706.3 43.0, 706.5 43.1 Q 706.8 43.1, 707.0 43.1 Q 707.4 43.1, 707.7 42.9 Q 707.9 42.7, 707.9 42.4 Q 707.9 42.1, 707.8 41.9 Q 707.7 41.8, 707.5 41.7 Q 707.3 41.6, 707.0 41.5 Q 706.6 41.4, 706.3 41.3 Q 706.1 41.2, 705.9 40.9 Q 705.7 40.7, 705.7 40.3 Q 705.7 39.7, 706.1 39.4 Q 706.5 39.0, 707.3 39.0 Q 707.8 39.0, 708.4 39.3 L 708.2 39.8 Q 707.7 39.5, 707.3 39.5 Q 706.9 39.5, 706.6 39.7 Q 706.4 39.9, 706.4 40.2 Q 706.4 40.5, 706.5 40.6 Q 706.6 40.7, 706.8 40.8 Q 707.0 40.9, 707.3 41.0 Q 707.7 41.1, 707.9 41.3 Q 708.2 41.4, 708.4 41.7 Q 708.5 41.9, 708.5 42.4 Q 708.5 43.0, 708.1 43.3 Q 707.7 43.6, 707.0 43.6 Q 706.6 43.6, 706.3 43.6 Q 706.0 43.5, 705.6 43.3 L 705.8 42.8 " fill="#CCCC00"/>
<path class="atom-37" d="M 705.3 33.9 L 705.9 33.9 L 705.9 35.8 L 708.2 35.8 L 708.2 33.9 L 708.9 33.9 L 708.9 38.4 L 708.2 38.4 L 708.2 36.3 L 705.9 36.3 L 705.9 38.4 L 705.3 38.4 L 705.3 33.9 " fill="#CCCC00"/>
<path class="atom-38" d="M 720.8 43.8 Q 720.8 42.7, 721.3 42.1 Q 721.9 41.5, 722.9 41.5 Q 723.9 41.5, 724.4 42.1 Q 725.0 42.7, 725.0 43.8 Q 725.0 44.9, 724.4 45.5 Q 723.9 46.1, 722.9 46.1 Q 721.9 46.1, 721.3 45.5 Q 720.8 44.9, 720.8 43.8 M 722.9 45.6 Q 723.6 45.6, 723.9 45.1 Q 724.3 44.7, 724.3 43.8 Q 724.3 42.9, 723.9 42.4 Q 723.6 42.0, 722.9 42.0 Q 722.2 42.0, 721.8 42.4 Q 721.4 42.9, 721.4 43.8 Q 721.4 44.7, 721.8 45.1 Q 722.2 45.6, 722.9 45.6 " fill="#FF0000"/>
<path class="atom-38" d="M 725.6 42.2 L 727.1 42.2 L 727.1 42.6 L 725.6 42.6 L 725.6 42.2 " fill="#FF0000"/>
<path class="atom-39" d="M 690.0 40.3 Q 690.1 40.3, 690.3 40.4 Q 690.5 40.5, 690.7 40.6 Q 691.0 40.6, 691.2 40.6 Q 691.6 40.6, 691.9 40.4 Q 692.1 40.2, 692.1 39.9 Q 692.1 39.6, 692.0 39.5 Q 691.9 39.3, 691.7 39.2 Q 691.5 39.1, 691.2 39.0 Q 690.8 38.9, 690.5 38.8 Q 690.3 38.7, 690.1 38.4 Q 690.0 38.2, 690.0 37.8 Q 690.0 37.2, 690.3 36.9 Q 690.7 36.5, 691.5 36.5 Q 692.0 36.5, 692.6 36.8 L 692.5 37.3 Q 691.9 37.0, 691.5 37.0 Q 691.1 37.0, 690.8 37.2 Q 690.6 37.4, 690.6 37.7 Q 690.6 38.0, 690.7 38.1 Q 690.8 38.3, 691.0 38.3 Q 691.2 38.4, 691.5 38.5 Q 691.9 38.6, 692.2 38.8 Q 692.4 38.9, 692.6 39.2 Q 692.8 39.4, 692.8 39.9 Q 692.8 40.5, 692.3 40.8 Q 691.9 41.2, 691.2 41.2 Q 690.8 41.2, 690.5 41.1 Q 690.2 41.0, 689.9 40.8 L 690.0 40.3 " fill="#CCCC00"/>
<path class="atom-39" d="M 693.3 37.2 L 694.9 37.2 L 694.9 37.5 L 693.3 37.5 L 693.3 37.2 " fill="#CCCC00"/>
<path class="atom-40" d="M 708.3 27.0 Q 708.4 27.1, 708.6 27.1 Q 708.8 27.2, 709.0 27.3 Q 709.2 27.3, 709.5 27.3 Q 709.9 27.3, 710.2 27.1 Q 710.4 26.9, 710.4 26.6 Q 710.4 26.3, 710.3 26.2 Q 710.2 26.0, 710.0 25.9 Q 709.8 25.8, 709.5 25.7 Q 709.0 25.6, 708.8 25.5 Q 708.6 25.4, 708.4 25.2 Q 708.2 24.9, 708.2 24.5 Q 708.2 23.9, 708.6 23.6 Q 709.0 23.2, 709.8 23.2 Q 710.3 23.2, 710.9 23.5 L 710.7 24.0 Q 710.2 23.7, 709.8 23.7 Q 709.3 23.7, 709.1 23.9 Q 708.9 24.1, 708.9 24.4 Q 708.9 24.7, 709.0 24.8 Q 709.1 25.0, 709.3 25.0 Q 709.5 25.1, 709.8 25.2 Q 710.2 25.3, 710.4 25.5 Q 710.7 25.6, 710.9 25.9 Q 711.0 26.1, 711.0 26.6 Q 711.0 27.2, 710.6 27.5 Q 710.2 27.9, 709.5 27.9 Q 709.1 27.9, 708.8 27.8 Q 708.5 27.7, 708.1 27.5 L 708.3 27.0 " fill="#CCCC00"/>
<path class="atom-41" d="M 687.3 20.8 L 687.9 20.8 L 687.9 22.7 L 690.2 22.7 L 690.2 20.8 L 690.8 20.8 L 690.8 25.3 L 690.2 25.3 L 690.2 23.2 L 687.9 23.2 L 687.9 25.3 L 687.3 25.3 L 687.3 20.8 " fill="#FF0000"/>
<path class="atom-41" d="M 691.7 23.0 Q 691.7 21.9, 692.3 21.3 Q 692.8 20.7, 693.8 20.7 Q 694.8 20.7, 695.3 21.3 Q 695.9 21.9, 695.9 23.0 Q 695.9 24.1, 695.3 24.7 Q 694.8 25.4, 693.8 25.4 Q 692.8 25.4, 692.3 24.7 Q 691.7 24.1, 691.7 23.0 M 693.8 24.8 Q 694.5 24.8, 694.9 24.4 Q 695.2 23.9, 695.2 23.0 Q 695.2 22.1, 694.9 21.7 Q 694.5 21.2, 693.8 21.2 Q 693.1 21.2, 692.7 21.7 Q 692.4 22.1, 692.4 23.0 Q 692.4 23.9, 692.7 24.4 Q 693.1 24.8, 693.8 24.8 " fill="#FF0000"/>
<path class="atom-42" d="M 710.3 9.9 Q 710.3 8.7, 710.9 8.1 Q 711.4 7.5, 712.4 7.5 Q 713.3 7.5, 713.8 8.2 L 713.4 8.6 Q 713.0 8.1, 712.4 8.1 Q 711.7 8.1, 711.3 8.5 Q 711.0 9.0, 711.0 9.9 Q 711.0 10.8, 711.4 11.2 Q 711.7 11.7, 712.5 11.7 Q 713.0 11.7, 713.5 11.4 L 713.7 11.8 Q 713.5 12.0, 713.1 12.1 Q 712.8 12.2, 712.4 12.2 Q 711.4 12.2, 710.9 11.6 Q 710.3 11.0, 710.3 9.9 " fill="#00CC00"/>
<path class="atom-42" d="M 714.3 7.3 L 714.9 7.3 L 714.9 12.1 L 714.3 12.1 L 714.3 7.3 " fill="#00CC00"/>
<path class="atom-43" d="M 723.3 28.0 Q 723.3 26.9, 723.8 26.3 Q 724.4 25.7, 725.4 25.7 Q 726.4 25.7, 726.9 26.3 Q 727.4 26.9, 727.4 28.0 Q 727.4 29.1, 726.9 29.7 Q 726.4 30.3, 725.4 30.3 Q 724.4 30.3, 723.8 29.7 Q 723.3 29.1, 723.3 28.0 M 725.4 29.8 Q 726.1 29.8, 726.4 29.4 Q 726.8 28.9, 726.8 28.0 Q 726.8 27.1, 726.4 26.7 Q 726.1 26.2, 725.4 26.2 Q 724.7 26.2, 724.3 26.6 Q 723.9 27.1, 723.9 28.0 Q 723.9 28.9, 724.3 29.4 Q 724.7 29.8, 725.4 29.8 " fill="#FF0000"/>
<path class="atom-44" d="M 733.3 15.6 Q 733.3 14.5, 733.9 13.9 Q 734.4 13.3, 735.4 13.3 Q 736.4 13.3, 737.0 13.9 Q 737.5 14.5, 737.5 15.6 Q 737.5 16.7, 737.0 17.3 Q 736.4 17.9, 735.4 17.9 Q 734.4 17.9, 733.9 17.3 Q 733.3 16.7, 733.3 15.6 M 735.4 17.4 Q 736.1 17.4, 736.5 16.9 Q 736.9 16.5, 736.9 15.6 Q 736.9 14.7, 736.5 14.2 Q 736.1 13.8, 735.4 13.8 Q 734.7 13.8, 734.4 14.2 Q 734.0 14.7, 734.0 15.6 Q 734.0 16.5, 734.4 16.9 Q 734.7 17.4, 735.4 17.4 " fill="#FF0000"/>
<path class="atom-44" d="M 738.2 13.3 L 738.8 13.3 L 738.8 15.2 L 741.1 15.2 L 741.1 13.3 L 741.7 13.3 L 741.7 17.8 L 741.1 17.8 L 741.1 15.8 L 738.8 15.8 L 738.8 17.8 L 738.2 17.8 L 738.2 13.3 " fill="#FF0000"/>
<path class="atom-0" d="M 691.9,152.4 L 691.9,152.4 L 691.9,152.5 L 691.9,152.5 L 691.9,152.5 L 691.9,152.5 L 691.8,152.6 L 691.8,152.6 L 691.8,152.6 L 691.8,152.6 L 691.8,152.7 L 691.7,152.7 L 691.7,152.7 L 691.7,152.7 L 691.7,152.7 L 691.6,152.7 L 691.6,152.7 L 691.6,152.7 L 691.6,152.7 L 691.5,152.7 L 691.5,152.7 L 691.5,152.7 L 691.5,152.7 L 691.4,152.7 L 691.4,152.7 L 691.4,152.7 L 691.4,152.7 L 691.3,152.6 L 691.3,152.6 L 691.3,152.6 L 691.3,152.6 L 691.3,152.6 L 691.3,152.5 L 691.3,152.5 L 691.2,152.5 L 691.2,152.4 L 691.2,152.4 L 691.2,152.4 L 691.2,152.4 L 691.2,152.3 L 691.3,152.3 L 691.3,152.3 L 691.3,152.3 L 691.3,152.2 L 691.3,152.2 L 691.3,152.2 L 691.3,152.2 L 691.4,152.2 L 691.4,152.1 L 691.4,152.1 L 691.4,152.1 L 691.5,152.1 L 691.5,152.1 L 691.5,152.1 L 691.5,152.1 L 691.6,152.1 L 691.6,152.1 L 691.6,152.1 L 691.6,152.1 L 691.7,152.1 L 691.7,152.1 L 691.7,152.1 L 691.7,152.1 L 691.8,152.2 L 691.8,152.2 L 691.8,152.2 L 691.8,152.2 L 691.8,152.2 L 691.9,152.3 L 691.9,152.3 L 691.9,152.3 L 691.9,152.4 L 691.9,152.4 L 691.9,152.4 L 691.6,152.4 Z" style="fill:#000000;fill-rule:evenodd;fill-opacity:1;stroke:#000000;stroke-width:0.0px;stroke-linecap:butt;stroke-linejoin:miter;stroke-opacity:1;"/>
<path class="atom-0" d="M 691.9,151.1 L 691.9,151.2 L 691.9,151.2 L 691.9,151.2 L 691.9,151.2 L 691.9,151.3 L 691.8,151.3 L 691.8,151.3 L 691.8,151.3 L 691.8,151.4 L 691.8,151.4 L 691.7,151.4 L 691.7,151.4 L 691.7,151.4 L 691.7,151.4 L 691.6,151.4 L 691.6,151.4 L 691.6,151.4 L 691.6,151.4 L 691.5,151.4 L 691.5,151.4 L 691.5,151.4 L 691.5,151.4 L 691.4,151.4 L 691.4,151.4 L 691.4,151.4 L 691.4,151.4 L 691.3,151.4 L 691.3,151.3 L 691.3,151.3 L 691.3,151.3 L 691.3,151.3 L 691.3,151.2 L 691.3,151.2 L 691.2,151.2 L 691.2,151.2 L 691.2,151.1 L 691.2,151.1 L 691.2,151.1 L 691.2,151.1 L 691.3,151.0 L 691.3,151.0 L 691.3,151.0 L 691.3,151.0 L 691.3,150.9 L 691.3,150.9 L 691.3,150.9 L 691.4,150.9 L 691.4,150.9 L 691.4,150.8 L 691.4,150.8 L 691.5,150.8 L 691.5,150.8 L 691.5,150.8 L 691.5,150.8 L 691.6,150.8 L 691.6,150.8 L 691.6,150.8 L 691.6,150.8 L 691.7,150.8 L 691.7,150.8 L 691.7,150.9 L 691.7,150.9 L 691.8,150.9 L 691.8,150.9 L 691.8,150.9 L 691.8,150.9 L 691.8,151.0 L 691.9,151.0 L 691.9,151.0 L 691.9,151.0 L 691.9,151.1 L 691.9,151.1 L 691.9,151.1 L 691.6,151.1 Z" style="fill:#000000;fill-rule:evenodd;fill-opacity:1;stroke:#000000;stroke-width:0.0px;stroke-linecap:butt;stroke-linejoin:miter;stroke-opacity:1;"/>
<path class="atom-36" d="M 698.1,57.1 L 698.1,57.1 L 698.1,57.1 L 698.1,57.1 L 698.1,57.2 L 698.1,57.2 L 698.1,57.2 L 698.0,57.2 L 698.0,57.3 L 698.0,57.3 L 698.0,57.3 L 698.0,57.3 L 697.9,57.3 L 697.9,57.3 L 697.9,57.4 L 697.9,57.4 L 697.8,57.4 L 697.8,57.4 L 697.8,57.4 L 697.8,57.4 L 697.7,57.4 L 697.7,57.4 L 697.7,57.4 L 697.7,57.3 L 697.6,57.3 L 697.6,57.3 L 697.6,57.3 L 697.6,57.3 L 697.5,57.3 L 697.5,57.2 L 697.5,57.2 L 697.5,57.2 L 697.5,57.2 L 697.5,57.2 L 697.5,57.1 L 697.5,57.1 L 697.5,57.1 L 697.5,57.0 L 697.5,57.0 L 697.5,57.0 L 697.5,57.0 L 697.5,56.9 L 697.5,56.9 L 697.5,56.9 L 697.5,56.9 L 697.5,56.8 L 697.6,56.8 L 697.6,56.8 L 697.6,56.8 L 697.6,56.8 L 697.7,56.8 L 697.7,56.8 L 697.7,56.7 L 697.7,56.7 L 697.8,56.7 L 697.8,56.7 L 697.8,56.7 L 697.8,56.7 L 697.9,56.7 L 697.9,56.8 L 697.9,56.8 L 697.9,56.8 L 698.0,56.8 L 698.0,56.8 L 698.0,56.8 L 698.0,56.9 L 698.0,56.9 L 698.1,56.9 L 698.1,56.9 L 698.1,56.9 L 698.1,57.0 L 698.1,57.0 L 698.1,57.0 L 698.1,57.1 L 697.8,57.1 Z" style="fill:#000000;fill-rule:evenodd;fill-opacity:1;stroke:#000000;stroke-width:0.0px;stroke-linecap:butt;stroke-linejoin:miter;stroke-opacity:1;"/>
<path class="atom-37" d="M 710.1,41.3 L 710.1,41.3 L 710.1,41.3 L 710.1,41.4 L 710.1,41.4 L 710.1,41.4 L 710.1,41.4 L 710.1,41.5 L 710.1,41.5 L 710.1,41.5 L 710.0,41.5 L 710.0,41.5 L 710.0,41.5 L 710.0,41.6 L 709.9,41.6 L 709.9,41.6 L 709.9,41.6 L 709.9,41.6 L 709.8,41.6 L 709.8,41.6 L 709.8,41.6 L 709.7,41.6 L 709.7,41.6 L 709.7,41.6 L 709.7,41.6 L 709.6,41.5 L 709.6,41.5 L 709.6,41.5 L 709.6,41.5 L 709.6,41.5 L 709.6,41.4 L 709.5,41.4 L 709.5,41.4 L 709.5,41.4 L 709.5,41.3 L 709.5,41.3 L 709.5,41.3 L 709.5,41.3 L 709.5,41.2 L 709.5,41.2 L 709.5,41.2 L 709.5,41.1 L 709.5,41.1 L 709.6,41.1 L 709.6,41.1 L 709.6,41.1 L 709.6,41.0 L 709.6,41.0 L 709.6,41.0 L 709.7,41.0 L 709.7,41.0 L 709.7,41.0 L 709.7,41.0 L 709.8,41.0 L 709.8,41.0 L 709.8,41.0 L 709.9,41.0 L 709.9,41.0 L 709.9,41.0 L 709.9,41.0 L 710.0,41.0 L 710.0,41.0 L 710.0,41.0 L 710.0,41.0 L 710.1,41.0 L 710.1,41.1 L 710.1,41.1 L 710.1,41.1 L 710.1,41.1 L 710.1,41.2 L 710.1,41.2 L 710.1,41.2 L 710.1,41.2 L 710.1,41.3 L 709.8,41.3 Z" style="fill:#000000;fill-rule:evenodd;fill-opacity:1;stroke:#000000;stroke-width:0.0px;stroke-linecap:butt;stroke-linejoin:miter;stroke-opacity:1;"/>
</svg>