<svg xmlns="http://www.w3.org/2000/svg" xmlns:rdkit="http://www.rdkit.org/xml" xmlns:xlink="http://www.w3.org/1999/xlink" version="1.1" baseProfile="full" xml:space="preserve" width="900px" height="160px" viewBox="0 0 900 160">
<!-- END OF HEADER -->
<rect style="opacity:1.0;fill:#FFFFFF;stroke:none" width="900.0" height="160.0" x="0.0" y="0.0"> </rect>
<path class="bond-0 atom-0 atom-1" d="M 237.9,40.7 L 235.1,43.9" style="fill:none;fill-rule:evenodd;stroke:#FF0000;stroke-width:2.0px;stroke-linecap:butt;stroke-linejoin:miter;stroke-opacity:1"/>
<path class="bond-0 atom-0 atom-1" d="M 235.1,43.9 L 232.4,47.2" style="fill:none;fill-rule:evenodd;stroke:#000000;stroke-width:2.0px;stroke-linecap:butt;stroke-linejoin:miter;stroke-opacity:1"/>
<path class="bond-1 atom-1 atom-2" d="M 228.1,49.8 L 214.3,48.8" style="fill:none;fill-rule:evenodd;stroke:#000000;stroke-width:2.0px;stroke-linecap:butt;stroke-linejoin:miter;stroke-opacity:1"/>
<path class="bond-2 atom-2 atom-3" d="M 214.3,48.8 L 211.8,54.8" style="fill:none;fill-rule:evenodd;stroke:#000000;stroke-width:2.0px;stroke-linecap:butt;stroke-linejoin:miter;stroke-opacity:1"/>
<path class="bond-2 atom-2 atom-3" d="M 211.8,54.8 L 209.4,60.7" style="fill:none;fill-rule:evenodd;stroke:#0000FF;stroke-width:2.0px;stroke-linecap:butt;stroke-linejoin:miter;stroke-opacity:1"/>
<path class="bond-3 atom-3 atom-4" d="M 206.0,64.0 L 199.5,65.7" style="fill:none;fill-rule:evenodd;stroke:#0000FF;stroke-width:2.0px;stroke-linecap:butt;stroke-linejoin:miter;stroke-opacity:1"/>
<path class="bond-3 atom-3 atom-4" d="M 199.5,65.7 L 192.9,67.3" style="fill:none;fill-rule:evenodd;stroke:#000000;stroke-width:2.0px;stroke-linecap:butt;stroke-linejoin:miter;stroke-opacity:1"/>
<path class="bond-4 atom-4 atom-5" d="M 192.9,67.3 L 181.9,55.9" style="fill:none;fill-rule:evenodd;stroke:#000000;stroke-width:2.0px;stroke-linecap:butt;stroke-linejoin:miter;stroke-opacity:1"/>
<path class="bond-4 atom-4 atom-5" d="M 190.2,68.0 L 181.1,58.6" style="fill:none;fill-rule:evenodd;stroke:#000000;stroke-width:2.0px;stroke-linecap:butt;stroke-linejoin:miter;stroke-opacity:1"/>
<path class="bond-5 atom-5 atom-6" d="M 181.9,55.9 L 166.5,59.7" style="fill:none;fill-rule:evenodd;stroke:#000000;stroke-width:2.0px;stroke-linecap:butt;stroke-linejoin:miter;stroke-opacity:1"/>
<path class="bond-6 atom-6 atom-7" d="M 166.5,59.7 L 162.1,74.9" style="fill:none;fill-rule:evenodd;stroke:#000000;stroke-width:2.0px;stroke-linecap:butt;stroke-linejoin:miter;stroke-opacity:1"/>
<path class="bond-6 atom-6 atom-7" d="M 168.5,61.7 L 164.8,74.2" style="fill:none;fill-rule:evenodd;stroke:#000000;stroke-width:2.0px;stroke-linecap:butt;stroke-linejoin:miter;stroke-opacity:1"/>
<path class="bond-7 atom-7 atom-8" d="M 162.1,74.9 L 155.5,76.5" style="fill:none;fill-rule:evenodd;stroke:#000000;stroke-width:2.0px;stroke-linecap:butt;stroke-linejoin:miter;stroke-opacity:1"/>
<path class="bond-7 atom-7 atom-8" d="M 155.5,76.5 L 148.9,78.1" style="fill:none;fill-rule:evenodd;stroke:#0000FF;stroke-width:2.0px;stroke-linecap:butt;stroke-linejoin:miter;stroke-opacity:1"/>
<path class="bond-8 atom-8 atom-9" d="M 144.5,76.3 L 140.1,71.8" style="fill:none;fill-rule:evenodd;stroke:#0000FF;stroke-width:2.0px;stroke-linecap:butt;stroke-linejoin:miter;stroke-opacity:1"/>
<path class="bond-8 atom-8 atom-9" d="M 140.1,71.8 L 135.7,67.2" style="fill:none;fill-rule:evenodd;stroke:#000000;stroke-width:2.0px;stroke-linecap:butt;stroke-linejoin:miter;stroke-opacity:1"/>
<path class="bond-9 atom-9 atom-10" d="M 135.7,67.2 L 120.3,71.0" style="fill:none;fill-rule:evenodd;stroke:#000000;stroke-width:2.0px;stroke-linecap:butt;stroke-linejoin:miter;stroke-opacity:1"/>
<path class="bond-10 atom-10 atom-11" d="M 120.3,71.0 L 118.5,77.3" style="fill:none;fill-rule:evenodd;stroke:#000000;stroke-width:2.0px;stroke-linecap:butt;stroke-linejoin:miter;stroke-opacity:1"/>
<path class="bond-10 atom-10 atom-11" d="M 118.5,77.3 L 116.7,83.5" style="fill:none;fill-rule:evenodd;stroke:#0000FF;stroke-width:2.0px;stroke-linecap:butt;stroke-linejoin:miter;stroke-opacity:1"/>
<path class="bond-11 atom-11 atom-12" d="M 113.7,86.8 L 107.1,88.4" style="fill:none;fill-rule:evenodd;stroke:#0000FF;stroke-width:2.0px;stroke-linecap:butt;stroke-linejoin:miter;stroke-opacity:1"/>
<path class="bond-11 atom-11 atom-12" d="M 107.1,88.4 L 100.5,90.1" style="fill:none;fill-rule:evenodd;stroke:#000000;stroke-width:2.0px;stroke-linecap:butt;stroke-linejoin:miter;stroke-opacity:1"/>
<path class="bond-12 atom-12 atom-13" d="M 99.6,89.1 L 97.7,95.6" style="fill:none;fill-rule:evenodd;stroke:#000000;stroke-width:2.0px;stroke-linecap:butt;stroke-linejoin:miter;stroke-opacity:1"/>
<path class="bond-12 atom-12 atom-13" d="M 97.7,95.6 L 95.8,102.1" style="fill:none;fill-rule:evenodd;stroke:#FF0000;stroke-width:2.0px;stroke-linecap:butt;stroke-linejoin:miter;stroke-opacity:1"/>
<path class="bond-12 atom-12 atom-13" d="M 101.9,89.7 L 100.0,96.3" style="fill:none;fill-rule:evenodd;stroke:#000000;stroke-width:2.0px;stroke-linecap:butt;stroke-linejoin:miter;stroke-opacity:1"/>
<path class="bond-12 atom-12 atom-13" d="M 100.0,96.3 L 98.1,102.8" style="fill:none;fill-rule:evenodd;stroke:#FF0000;stroke-width:2.0px;stroke-linecap:butt;stroke-linejoin:miter;stroke-opacity:1"/>
<path class="bond-13 atom-12 atom-14" d="M 100.5,90.1 L 96.2,85.5" style="fill:none;fill-rule:evenodd;stroke:#000000;stroke-width:2.0px;stroke-linecap:butt;stroke-linejoin:miter;stroke-opacity:1"/>
<path class="bond-13 atom-12 atom-14" d="M 96.2,85.5 L 91.8,81.0" style="fill:none;fill-rule:evenodd;stroke:#0000FF;stroke-width:2.0px;stroke-linecap:butt;stroke-linejoin:miter;stroke-opacity:1"/>
<path class="bond-14 atom-14 atom-15" d="M 87.3,79.2 L 80.7,80.8" style="fill:none;fill-rule:evenodd;stroke:#0000FF;stroke-width:2.0px;stroke-linecap:butt;stroke-linejoin:miter;stroke-opacity:1"/>
<path class="bond-14 atom-14 atom-15" d="M 80.7,80.8 L 74.2,82.4" style="fill:none;fill-rule:evenodd;stroke:#000000;stroke-width:2.0px;stroke-linecap:butt;stroke-linejoin:miter;stroke-opacity:1"/>
<path class="bond-15 atom-15 atom-16" d="M 74.2,82.4 L 63.2,71.0" style="fill:none;fill-rule:evenodd;stroke:#000000;stroke-width:2.0px;stroke-linecap:butt;stroke-linejoin:miter;stroke-opacity:1"/>
<path class="bond-16 atom-16 atom-17" d="M 63.2,71.0 L 58.8,86.2" style="fill:none;fill-rule:evenodd;stroke:#000000;stroke-width:2.0px;stroke-linecap:butt;stroke-linejoin:miter;stroke-opacity:1"/>
<path class="bond-17 atom-17 atom-18" d="M 58.8,86.2 L 43.4,90.0" style="fill:none;fill-rule:evenodd;stroke:#000000;stroke-width:2.0px;stroke-linecap:butt;stroke-linejoin:miter;stroke-opacity:1"/>
<path class="bond-18 atom-18 atom-19" d="M 43.4,90.0 L 54.3,101.5" style="fill:none;fill-rule:evenodd;stroke:#000000;stroke-width:2.0px;stroke-linecap:butt;stroke-linejoin:miter;stroke-opacity:1"/>
<path class="bond-19 atom-19 atom-20" d="M 54.3,101.5 L 69.7,97.7" style="fill:none;fill-rule:evenodd;stroke:#000000;stroke-width:2.0px;stroke-linecap:butt;stroke-linejoin:miter;stroke-opacity:1"/>
<path class="bond-20 atom-20 atom-21" d="M 69.7,97.7 L 40.6,78.8" style="fill:none;fill-rule:evenodd;stroke:#000000;stroke-width:2.0px;stroke-linecap:butt;stroke-linejoin:miter;stroke-opacity:1"/>
<path class="bond-21 atom-21 atom-22" d="M 40.6,78.8 L 36.8,63.4" style="fill:none;fill-rule:evenodd;stroke:#000000;stroke-width:2.0px;stroke-linecap:butt;stroke-linejoin:miter;stroke-opacity:1"/>
<path class="bond-22 atom-22 atom-23" d="M 36.8,63.4 L 32.6,59.0" style="fill:none;fill-rule:evenodd;stroke:#000000;stroke-width:2.0px;stroke-linecap:butt;stroke-linejoin:miter;stroke-opacity:1"/>
<path class="bond-22 atom-22 atom-23" d="M 32.6,59.0 L 28.4,54.6" style="fill:none;fill-rule:evenodd;stroke:#FF0000;stroke-width:2.0px;stroke-linecap:butt;stroke-linejoin:miter;stroke-opacity:1"/>
<path class="bond-23 atom-22 atom-24" d="M 36.8,63.4 L 32.4,78.6" style="fill:none;fill-rule:evenodd;stroke:#000000;stroke-width:2.0px;stroke-linecap:butt;stroke-linejoin:miter;stroke-opacity:1"/>
<path class="bond-24 atom-22 atom-25" d="M 36.8,63.4 L 52.2,59.6" style="fill:none;fill-rule:evenodd;stroke:#000000;stroke-width:2.0px;stroke-linecap:butt;stroke-linejoin:miter;stroke-opacity:1"/>
<path class="bond-25 atom-11 atom-26" d="M 118.2,88.6 L 122.5,93.1" style="fill:none;fill-rule:evenodd;stroke:#0000FF;stroke-width:2.0px;stroke-linecap:butt;stroke-linejoin:miter;stroke-opacity:1"/>
<path class="bond-25 atom-11 atom-26" d="M 122.5,93.1 L 126.9,97.7" style="fill:none;fill-rule:evenodd;stroke:#000000;stroke-width:2.0px;stroke-linecap:butt;stroke-linejoin:miter;stroke-opacity:1"/>
<path class="bond-26 atom-26 atom-27" d="M 126.9,97.7 L 122.5,112.9" style="fill:none;fill-rule:evenodd;stroke:#000000;stroke-width:2.0px;stroke-linecap:butt;stroke-linejoin:miter;stroke-opacity:1"/>
<path class="bond-26 atom-26 atom-27" d="M 128.9,99.7 L 125.2,112.3" style="fill:none;fill-rule:evenodd;stroke:#000000;stroke-width:2.0px;stroke-linecap:butt;stroke-linejoin:miter;stroke-opacity:1"/>
<path class="bond-27 atom-27 atom-28" d="M 122.5,112.9 L 133.5,124.4" style="fill:none;fill-rule:evenodd;stroke:#000000;stroke-width:2.0px;stroke-linecap:butt;stroke-linejoin:miter;stroke-opacity:1"/>
<path class="bond-28 atom-28 atom-29" d="M 133.5,124.4 L 148.9,120.6" style="fill:none;fill-rule:evenodd;stroke:#000000;stroke-width:2.0px;stroke-linecap:butt;stroke-linejoin:miter;stroke-opacity:1"/>
<path class="bond-28 atom-28 atom-29" d="M 134.3,121.7 L 146.9,118.5" style="fill:none;fill-rule:evenodd;stroke:#000000;stroke-width:2.0px;stroke-linecap:butt;stroke-linejoin:miter;stroke-opacity:1"/>
<path class="bond-29 atom-29 atom-30" d="M 148.9,120.6 L 153.3,105.3" style="fill:none;fill-rule:evenodd;stroke:#000000;stroke-width:2.0px;stroke-linecap:butt;stroke-linejoin:miter;stroke-opacity:1"/>
<path class="bond-30 atom-30 atom-31" d="M 153.3,105.3 L 142.3,93.9" style="fill:none;fill-rule:evenodd;stroke:#000000;stroke-width:2.0px;stroke-linecap:butt;stroke-linejoin:miter;stroke-opacity:1"/>
<path class="bond-30 atom-30 atom-31" d="M 150.6,106.0 L 141.5,96.6" style="fill:none;fill-rule:evenodd;stroke:#000000;stroke-width:2.0px;stroke-linecap:butt;stroke-linejoin:miter;stroke-opacity:1"/>
<path class="bond-31 atom-7 atom-32" d="M 162.1,74.9 L 166.5,79.4" style="fill:none;fill-rule:evenodd;stroke:#000000;stroke-width:2.0px;stroke-linecap:butt;stroke-linejoin:miter;stroke-opacity:1"/>
<path class="bond-31 atom-7 atom-32" d="M 166.5,79.4 L 170.8,84.0" style="fill:none;fill-rule:evenodd;stroke:#0000FF;stroke-width:2.0px;stroke-linecap:butt;stroke-linejoin:miter;stroke-opacity:1"/>
<path class="bond-32 atom-32 atom-33" d="M 175.3,85.8 L 181.9,84.1" style="fill:none;fill-rule:evenodd;stroke:#0000FF;stroke-width:2.0px;stroke-linecap:butt;stroke-linejoin:miter;stroke-opacity:1"/>
<path class="bond-32 atom-32 atom-33" d="M 181.9,84.1 L 188.5,82.5" style="fill:none;fill-rule:evenodd;stroke:#000000;stroke-width:2.0px;stroke-linecap:butt;stroke-linejoin:miter;stroke-opacity:1"/>
<path class="bond-32 atom-32 atom-33" d="M 174.7,83.4 L 180.6,81.9" style="fill:none;fill-rule:evenodd;stroke:#0000FF;stroke-width:2.0px;stroke-linecap:butt;stroke-linejoin:miter;stroke-opacity:1"/>
<path class="bond-32 atom-32 atom-33" d="M 180.6,81.9 L 186.5,80.5" style="fill:none;fill-rule:evenodd;stroke:#000000;stroke-width:2.0px;stroke-linecap:butt;stroke-linejoin:miter;stroke-opacity:1"/>
<path class="bond-33 atom-3 atom-34" d="M 210.5,65.4 L 215.5,69.5" style="fill:none;fill-rule:evenodd;stroke:#0000FF;stroke-width:2.0px;stroke-linecap:butt;stroke-linejoin:miter;stroke-opacity:1"/>
<path class="bond-33 atom-3 atom-34" d="M 215.5,69.5 L 220.4,73.7" style="fill:none;fill-rule:evenodd;stroke:#000000;stroke-width:2.0px;stroke-linecap:butt;stroke-linejoin:miter;stroke-opacity:1"/>
<path class="bond-34 atom-34 atom-35" d="M 220.4,73.7 L 231.9,66.6" style="fill:none;fill-rule:evenodd;stroke:#000000;stroke-width:2.0px;stroke-linecap:butt;stroke-linejoin:miter;stroke-opacity:1"/>
<path class="bond-35 atom-35 atom-36" d="M 236.9,66.6 L 241.7,68.5" style="fill:none;fill-rule:evenodd;stroke:#000000;stroke-width:2.0px;stroke-linecap:butt;stroke-linejoin:miter;stroke-opacity:1"/>
<path class="bond-35 atom-35 atom-36" d="M 241.7,68.5 L 246.6,70.5" style="fill:none;fill-rule:evenodd;stroke:#CCCC00;stroke-width:2.0px;stroke-linecap:butt;stroke-linejoin:miter;stroke-opacity:1"/>
<path class="bond-36 atom-36 atom-37" d="M 248.9,74.2 L 249.6,79.2" style="fill:none;fill-rule:evenodd;stroke:#CCCC00;stroke-width:2.0px;stroke-linecap:butt;stroke-linejoin:miter;stroke-opacity:1"/>
<path class="bond-36 atom-36 atom-37" d="M 249.6,79.2 L 250.3,84.3" style="fill:none;fill-rule:evenodd;stroke:#000000;stroke-width:2.0px;stroke-linecap:butt;stroke-linejoin:miter;stroke-opacity:1"/>
<path class="bond-37 atom-37 atom-38" d="M 248.2,89.0 L 244.2,92.1" style="fill:none;fill-rule:evenodd;stroke:#000000;stroke-width:2.0px;stroke-linecap:butt;stroke-linejoin:miter;stroke-opacity:1"/>
<path class="bond-37 atom-37 atom-38" d="M 244.2,92.1 L 240.2,95.2" style="fill:none;fill-rule:evenodd;stroke:#CCCC00;stroke-width:2.0px;stroke-linecap:butt;stroke-linejoin:miter;stroke-opacity:1"/>
<path class="bond-38 atom-38 atom-39" d="M 238.6,99.7 L 239.5,106.1" style="fill:none;fill-rule:evenodd;stroke:#CCCC00;stroke-width:2.0px;stroke-linecap:butt;stroke-linejoin:miter;stroke-opacity:1"/>
<path class="bond-38 atom-38 atom-39" d="M 239.5,106.1 L 240.4,112.5" style="fill:none;fill-rule:evenodd;stroke:#000000;stroke-width:2.0px;stroke-linecap:butt;stroke-linejoin:miter;stroke-opacity:1"/>
<path class="bond-39 atom-39 atom-40" d="M 240.4,112.5 L 235.0,116.6" style="fill:none;fill-rule:evenodd;stroke:#000000;stroke-width:2.0px;stroke-linecap:butt;stroke-linejoin:miter;stroke-opacity:1"/>
<path class="bond-39 atom-39 atom-40" d="M 235.0,116.6 L 229.7,120.7" style="fill:none;fill-rule:evenodd;stroke:#33CCCC;stroke-width:2.0px;stroke-linecap:butt;stroke-linejoin:miter;stroke-opacity:1"/>
<path class="bond-40 atom-37 atom-41" d="M 253.2,88.0 L 265.4,93.0" style="fill:none;fill-rule:evenodd;stroke:#000000;stroke-width:2.0px;stroke-linecap:butt;stroke-linejoin:miter;stroke-opacity:1"/>
<path class="bond-41 atom-41 atom-42" d="M 265.4,93.0 L 266.3,99.5" style="fill:none;fill-rule:evenodd;stroke:#000000;stroke-width:2.0px;stroke-linecap:butt;stroke-linejoin:miter;stroke-opacity:1"/>
<path class="bond-41 atom-41 atom-42" d="M 266.3,99.5 L 267.2,106.0" style="fill:none;fill-rule:evenodd;stroke:#00CC00;stroke-width:2.0px;stroke-linecap:butt;stroke-linejoin:miter;stroke-opacity:1"/>
<path class="bond-42 atom-41 atom-43" d="M 265.4,93.0 L 270.5,89.0" style="fill:none;fill-rule:evenodd;stroke:#000000;stroke-width:2.0px;stroke-linecap:butt;stroke-linejoin:miter;stroke-opacity:1"/>
<path class="bond-42 atom-41 atom-43" d="M 270.5,89.0 L 275.7,85.0" style="fill:none;fill-rule:evenodd;stroke:#00CC00;stroke-width:2.0px;stroke-linecap:butt;stroke-linejoin:miter;stroke-opacity:1"/>
<path class="bond-43 atom-35 atom-1" d="M 233.2,62.6 L 230.8,52.9" style="fill:none;fill-rule:evenodd;stroke:#000000;stroke-width:2.0px;stroke-linecap:butt;stroke-linejoin:miter;stroke-opacity:1"/>
<path class="bond-44 atom-33 atom-4" d="M 188.5,82.5 L 192.9,67.3" style="fill:none;fill-rule:evenodd;stroke:#000000;stroke-width:2.0px;stroke-linecap:butt;stroke-linejoin:miter;stroke-opacity:1"/>
<path class="bond-45 atom-31 atom-8" d="M 142.3,93.9 L 144.1,87.7" style="fill:none;fill-rule:evenodd;stroke:#000000;stroke-width:2.0px;stroke-linecap:butt;stroke-linejoin:miter;stroke-opacity:1"/>
<path class="bond-45 atom-31 atom-8" d="M 144.1,87.7 L 145.9,81.5" style="fill:none;fill-rule:evenodd;stroke:#0000FF;stroke-width:2.0px;stroke-linecap:butt;stroke-linejoin:miter;stroke-opacity:1"/>
<path class="bond-46 atom-20 atom-15" d="M 69.7,97.7 L 74.2,82.4" style="fill:none;fill-rule:evenodd;stroke:#000000;stroke-width:2.0px;stroke-linecap:butt;stroke-linejoin:miter;stroke-opacity:1"/>
<path class="bond-47 atom-31 atom-26" d="M 142.3,93.9 L 126.9,97.7" style="fill:none;fill-rule:evenodd;stroke:#000000;stroke-width:2.0px;stroke-linecap:butt;stroke-linejoin:miter;stroke-opacity:1"/>
<path class="bond-48 atom-25 atom-16" d="M 52.2,59.6 L 63.2,71.0" style="fill:none;fill-rule:evenodd;stroke:#000000;stroke-width:2.0px;stroke-linecap:butt;stroke-linejoin:miter;stroke-opacity:1"/>
<path class="bond-49 atom-24 atom-18" d="M 32.4,78.6 L 43.4,90.0" style="fill:none;fill-rule:evenodd;stroke:#000000;stroke-width:2.0px;stroke-linecap:butt;stroke-linejoin:miter;stroke-opacity:1"/>
<path d="M 214.9,48.9 L 214.3,48.8 L 214.1,49.1" style="fill:none;stroke:#000000;stroke-width:2.0px;stroke-linecap:butt;stroke-linejoin:miter;stroke-opacity:1;"/>
<path d="M 182.5,56.4 L 181.9,55.9 L 181.1,56.0" style="fill:none;stroke:#000000;stroke-width:2.0px;stroke-linecap:butt;stroke-linejoin:miter;stroke-opacity:1;"/>
<path d="M 167.3,59.5 L 166.5,59.7 L 166.3,60.4" style="fill:none;stroke:#000000;stroke-width:2.0px;stroke-linecap:butt;stroke-linejoin:miter;stroke-opacity:1;"/>
<path d="M 135.9,67.5 L 135.7,67.2 L 135.0,67.4" style="fill:none;stroke:#000000;stroke-width:2.0px;stroke-linecap:butt;stroke-linejoin:miter;stroke-opacity:1;"/>
<path d="M 121.1,70.8 L 120.3,71.0 L 120.2,71.4" style="fill:none;stroke:#000000;stroke-width:2.0px;stroke-linecap:butt;stroke-linejoin:miter;stroke-opacity:1;"/>
<path d="M 100.9,90.0 L 100.5,90.1 L 100.3,89.8" style="fill:none;stroke:#000000;stroke-width:2.0px;stroke-linecap:butt;stroke-linejoin:miter;stroke-opacity:1;"/>
<path d="M 59.0,85.5 L 58.8,86.2 L 58.0,86.4" style="fill:none;stroke:#000000;stroke-width:2.0px;stroke-linecap:butt;stroke-linejoin:miter;stroke-opacity:1;"/>
<path d="M 53.8,100.9 L 54.3,101.5 L 55.1,101.3" style="fill:none;stroke:#000000;stroke-width:2.0px;stroke-linecap:butt;stroke-linejoin:miter;stroke-opacity:1;"/>
<path d="M 42.0,79.7 L 40.6,78.8 L 40.4,78.0" style="fill:none;stroke:#000000;stroke-width:2.0px;stroke-linecap:butt;stroke-linejoin:miter;stroke-opacity:1;"/>
<path d="M 32.6,77.8 L 32.4,78.6 L 32.9,79.2" style="fill:none;stroke:#000000;stroke-width:2.0px;stroke-linecap:butt;stroke-linejoin:miter;stroke-opacity:1;"/>
<path d="M 51.4,59.8 L 52.2,59.6 L 52.7,60.1" style="fill:none;stroke:#000000;stroke-width:2.0px;stroke-linecap:butt;stroke-linejoin:miter;stroke-opacity:1;"/>
<path d="M 122.7,112.2 L 122.5,112.9 L 123.0,113.5" style="fill:none;stroke:#000000;stroke-width:2.0px;stroke-linecap:butt;stroke-linejoin:miter;stroke-opacity:1;"/>
<path d="M 132.9,123.8 L 133.5,124.4 L 134.2,124.2" style="fill:none;stroke:#000000;stroke-width:2.0px;stroke-linecap:butt;stroke-linejoin:miter;stroke-opacity:1;"/>
<path d="M 148.1,120.8 L 148.9,120.6 L 149.1,119.8" style="fill:none;stroke:#000000;stroke-width:2.0px;stroke-linecap:butt;stroke-linejoin:miter;stroke-opacity:1;"/>
<path d="M 153.1,106.1 L 153.3,105.3 L 152.7,104.8" style="fill:none;stroke:#000000;stroke-width:2.0px;stroke-linecap:butt;stroke-linejoin:miter;stroke-opacity:1;"/>
<path d="M 188.1,82.6 L 188.5,82.5 L 188.7,81.8" style="fill:none;stroke:#000000;stroke-width:2.0px;stroke-linecap:butt;stroke-linejoin:miter;stroke-opacity:1;"/>
<path d="M 220.2,73.5 L 220.4,73.7 L 221.0,73.4" style="fill:none;stroke:#000000;stroke-width:2.0px;stroke-linecap:butt;stroke-linejoin:miter;stroke-opacity:1;"/>
<path d="M 240.3,112.1 L 240.4,112.5 L 240.1,112.7" style="fill:none;stroke:#000000;stroke-width:2.0px;stroke-linecap:butt;stroke-linejoin:miter;stroke-opacity:1;"/>
<path class="atom-0" d="M 238.2 37.8 Q 238.2 36.8, 238.8 36.2 Q 239.3 35.6, 240.3 35.6 Q 241.3 35.6, 241.8 36.2 Q 242.4 36.8, 242.4 37.8 Q 242.4 38.9, 241.8 39.6 Q 241.3 40.2, 240.3 40.2 Q 239.3 40.2, 238.8 39.6 Q 238.2 38.9, 238.2 37.8 M 240.3 39.7 Q 241.0 39.7, 241.3 39.2 Q 241.7 38.7, 241.7 37.8 Q 241.7 37.0, 241.3 36.5 Q 241.0 36.1, 240.3 36.1 Q 239.6 36.1, 239.2 36.5 Q 238.9 37.0, 238.9 37.8 Q 238.9 38.8, 239.2 39.2 Q 239.6 39.7, 240.3 39.7 " fill="#FF0000"/>
<path class="atom-1" d="M 228.8 51.5 Q 228.9 51.5, 229.1 51.6 Q 229.3 51.7, 229.5 51.8 Q 229.7 51.8, 230.0 51.8 Q 230.4 51.8, 230.6 51.6 Q 230.9 51.4, 230.9 51.0 Q 230.9 50.8, 230.8 50.6 Q 230.6 50.5, 230.4 50.4 Q 230.3 50.3, 229.9 50.2 Q 229.5 50.1, 229.3 50.0 Q 229.1 49.9, 228.9 49.6 Q 228.7 49.4, 228.7 49.0 Q 228.7 48.4, 229.1 48.1 Q 229.5 47.7, 230.3 47.7 Q 230.8 47.7, 231.4 48.0 L 231.2 48.5 Q 230.7 48.2, 230.3 48.2 Q 229.8 48.2, 229.6 48.4 Q 229.4 48.6, 229.4 48.9 Q 229.4 49.1, 229.5 49.3 Q 229.6 49.4, 229.8 49.5 Q 230.0 49.6, 230.3 49.7 Q 230.7 49.8, 230.9 50.0 Q 231.2 50.1, 231.3 50.3 Q 231.5 50.6, 231.5 51.0 Q 231.5 51.7, 231.1 52.0 Q 230.7 52.3, 230.0 52.3 Q 229.6 52.3, 229.3 52.2 Q 229.0 52.1, 228.6 52.0 L 228.8 51.5 " fill="#000000"/>
<path class="atom-1" d="M 232.0 47.7 L 232.6 47.7 L 232.6 48.3 L 232.0 48.3 L 232.0 47.7 M 232.0 48.9 L 232.6 48.9 L 232.6 52.2 L 232.0 52.2 L 232.0 48.9 " fill="#000000"/>
<path class="atom-3" d="M 207.3 61.2 L 208.8 63.6 Q 208.9 63.9, 209.1 64.3 Q 209.4 64.7, 209.4 64.7 L 209.4 61.2 L 210.0 61.2 L 210.0 65.7 L 209.4 65.7 L 207.8 63.1 Q 207.6 62.8, 207.4 62.5 Q 207.2 62.1, 207.2 62.0 L 207.2 65.7 L 206.6 65.7 L 206.6 61.2 L 207.3 61.2 " fill="#0000FF"/>
<path class="atom-8" d="M 145.7 76.4 L 147.2 78.8 Q 147.3 79.0, 147.6 79.5 Q 147.8 79.9, 147.8 79.9 L 147.8 76.4 L 148.4 76.4 L 148.4 80.9 L 147.8 80.9 L 146.2 78.3 Q 146.0 78.0, 145.8 77.7 Q 145.6 77.3, 145.6 77.2 L 145.6 80.9 L 145.0 80.9 L 145.0 76.4 L 145.7 76.4 " fill="#0000FF"/>
<path class="atom-11" d="M 114.9 84.0 L 116.4 86.4 Q 116.5 86.6, 116.8 87.1 Q 117.0 87.5, 117.0 87.5 L 117.0 84.0 L 117.6 84.0 L 117.6 88.5 L 117.0 88.5 L 115.4 85.9 Q 115.2 85.6, 115.0 85.3 Q 114.9 84.9, 114.8 84.8 L 114.8 88.5 L 114.2 88.5 L 114.2 84.0 L 114.9 84.0 " fill="#0000FF"/>
<path class="atom-13" d="M 94.1 105.3 Q 94.1 104.2, 94.6 103.6 Q 95.1 103.0, 96.1 103.0 Q 97.1 103.0, 97.6 103.6 Q 98.2 104.2, 98.2 105.3 Q 98.2 106.4, 97.6 107.0 Q 97.1 107.6, 96.1 107.6 Q 95.1 107.6, 94.6 107.0 Q 94.1 106.4, 94.1 105.3 M 96.1 107.1 Q 96.8 107.1, 97.2 106.7 Q 97.5 106.2, 97.5 105.3 Q 97.5 104.4, 97.2 104.0 Q 96.8 103.5, 96.1 103.5 Q 95.4 103.5, 95.1 104.0 Q 94.7 104.4, 94.7 105.3 Q 94.7 106.2, 95.1 106.7 Q 95.4 107.1, 96.1 107.1 " fill="#FF0000"/>
<path class="atom-14" d="M 88.6 76.4 L 90.0 78.8 Q 90.2 79.0, 90.4 79.4 Q 90.6 79.8, 90.7 79.9 L 90.7 76.4 L 91.2 76.4 L 91.2 80.9 L 90.6 80.9 L 89.1 78.3 Q 88.9 78.0, 88.7 77.6 Q 88.5 77.3, 88.4 77.2 L 88.4 80.9 L 87.8 80.9 L 87.8 76.4 L 88.6 76.4 " fill="#0000FF"/>
<path class="atom-14" d="M 87.8 71.4 L 88.4 71.4 L 88.4 73.4 L 90.7 73.4 L 90.7 71.4 L 91.3 71.4 L 91.3 75.9 L 90.7 75.9 L 90.7 73.9 L 88.4 73.9 L 88.4 75.9 L 87.8 75.9 L 87.8 71.4 " fill="#0000FF"/>
<path class="atom-23" d="M 19.3 49.7 L 19.9 49.7 L 19.9 51.6 L 22.2 51.6 L 22.2 49.7 L 22.8 49.7 L 22.8 54.2 L 22.2 54.2 L 22.2 52.1 L 19.9 52.1 L 19.9 54.2 L 19.3 54.2 L 19.3 49.7 " fill="#FF0000"/>
<path class="atom-23" d="M 23.7 51.9 Q 23.7 50.9, 24.3 50.3 Q 24.8 49.7, 25.8 49.7 Q 26.8 49.7, 27.3 50.3 Q 27.9 50.9, 27.9 51.9 Q 27.9 53.0, 27.3 53.7 Q 26.8 54.3, 25.8 54.3 Q 24.8 54.3, 24.3 53.7 Q 23.7 53.0, 23.7 51.9 M 25.8 53.8 Q 26.5 53.8, 26.9 53.3 Q 27.2 52.8, 27.2 51.9 Q 27.2 51.1, 26.9 50.6 Q 26.5 50.2, 25.8 50.2 Q 25.1 50.2, 24.7 50.6 Q 24.4 51.0, 24.4 51.9 Q 24.4 52.8, 24.7 53.3 Q 25.1 53.8, 25.8 53.8 " fill="#FF0000"/>
<path class="atom-32" d="M 172.1 84.1 L 173.6 86.4 Q 173.7 86.7, 173.9 87.1 Q 174.2 87.5, 174.2 87.6 L 174.2 84.1 L 174.8 84.1 L 174.8 88.6 L 174.2 88.6 L 172.6 86.0 Q 172.4 85.7, 172.2 85.3 Q 172.0 85.0, 172.0 84.8 L 172.0 88.6 L 171.4 88.6 L 171.4 84.1 L 172.1 84.1 " fill="#0000FF"/>
<path class="atom-35" d="M 232.6 66.9 Q 232.6 66.9, 232.9 67.0 Q 233.1 67.1, 233.3 67.1 Q 233.5 67.2, 233.8 67.2 Q 234.2 67.2, 234.4 67.0 Q 234.7 66.8, 234.7 66.4 Q 234.7 66.2, 234.5 66.0 Q 234.4 65.9, 234.2 65.8 Q 234.0 65.7, 233.7 65.6 Q 233.3 65.5, 233.1 65.4 Q 232.9 65.3, 232.7 65.0 Q 232.5 64.8, 232.5 64.4 Q 232.5 63.8, 232.9 63.5 Q 233.3 63.1, 234.0 63.1 Q 234.6 63.1, 235.2 63.4 L 235.0 63.8 Q 234.5 63.6, 234.1 63.6 Q 233.6 63.6, 233.4 63.8 Q 233.1 64.0, 233.2 64.3 Q 233.2 64.5, 233.3 64.7 Q 233.4 64.8, 233.6 64.9 Q 233.8 65.0, 234.1 65.1 Q 234.5 65.2, 234.7 65.3 Q 235.0 65.5, 235.1 65.7 Q 235.3 66.0, 235.3 66.4 Q 235.3 67.0, 234.9 67.4 Q 234.5 67.7, 233.8 67.7 Q 233.4 67.7, 233.1 67.6 Q 232.8 67.5, 232.4 67.4 L 232.6 66.9 " fill="#000000"/>
<path class="atom-35" d="M 235.8 63.1 L 236.4 63.1 L 236.4 63.7 L 235.8 63.7 L 235.8 63.1 M 235.8 64.3 L 236.4 64.3 L 236.4 67.6 L 235.8 67.6 L 235.8 64.3 " fill="#000000"/>
<path class="atom-36" d="M 247.3 72.9 Q 247.3 72.9, 247.5 73.0 Q 247.8 73.1, 248.0 73.1 Q 248.2 73.2, 248.4 73.2 Q 248.9 73.2, 249.1 73.0 Q 249.4 72.8, 249.4 72.4 Q 249.4 72.1, 249.2 72.0 Q 249.1 71.8, 248.9 71.8 Q 248.7 71.7, 248.4 71.6 Q 248.0 71.5, 247.8 71.3 Q 247.5 71.2, 247.4 71.0 Q 247.2 70.8, 247.2 70.3 Q 247.2 69.8, 247.6 69.4 Q 248.0 69.1, 248.7 69.1 Q 249.3 69.1, 249.8 69.3 L 249.7 69.8 Q 249.2 69.6, 248.8 69.6 Q 248.3 69.6, 248.1 69.8 Q 247.8 70.0, 247.8 70.3 Q 247.8 70.5, 248.0 70.7 Q 248.1 70.8, 248.3 70.9 Q 248.4 71.0, 248.8 71.1 Q 249.2 71.2, 249.4 71.3 Q 249.6 71.4, 249.8 71.7 Q 250.0 72.0, 250.0 72.4 Q 250.0 73.0, 249.6 73.4 Q 249.2 73.7, 248.5 73.7 Q 248.1 73.7, 247.8 73.6 Q 247.5 73.5, 247.1 73.4 L 247.3 72.9 " fill="#CCCC00"/>
<path class="atom-37" d="M 248.9 88.6 Q 249.0 88.6, 249.2 88.7 Q 249.4 88.8, 249.6 88.8 Q 249.9 88.9, 250.1 88.9 Q 250.5 88.9, 250.8 88.7 Q 251.0 88.5, 251.0 88.1 Q 251.0 87.9, 250.9 87.7 Q 250.8 87.6, 250.6 87.5 Q 250.4 87.4, 250.1 87.3 Q 249.7 87.2, 249.4 87.1 Q 249.2 86.9, 249.0 86.7 Q 248.8 86.5, 248.8 86.1 Q 248.8 85.5, 249.2 85.1 Q 249.6 84.8, 250.4 84.8 Q 250.9 84.8, 251.5 85.0 L 251.3 85.5 Q 250.8 85.3, 250.4 85.3 Q 250.0 85.3, 249.7 85.5 Q 249.5 85.7, 249.5 86.0 Q 249.5 86.2, 249.6 86.4 Q 249.7 86.5, 249.9 86.6 Q 250.1 86.7, 250.4 86.8 Q 250.8 86.9, 251.0 87.0 Q 251.3 87.2, 251.5 87.4 Q 251.6 87.7, 251.6 88.1 Q 251.6 88.7, 251.2 89.1 Q 250.8 89.4, 250.1 89.4 Q 249.7 89.4, 249.4 89.3 Q 249.1 89.2, 248.7 89.1 L 248.9 88.6 " fill="#000000"/>
<path class="atom-37" d="M 252.1 84.8 L 252.7 84.8 L 252.7 85.3 L 252.1 85.3 L 252.1 84.8 M 252.1 86.0 L 252.7 86.0 L 252.7 89.3 L 252.1 89.3 L 252.1 86.0 " fill="#000000"/>
<path class="atom-38" d="M 236.9 98.3 Q 237.0 98.3, 237.2 98.4 Q 237.4 98.5, 237.6 98.6 Q 237.9 98.6, 238.1 98.6 Q 238.5 98.6, 238.8 98.4 Q 239.0 98.2, 239.0 97.8 Q 239.0 97.6, 238.9 97.4 Q 238.8 97.3, 238.6 97.2 Q 238.4 97.1, 238.1 97.0 Q 237.7 96.9, 237.4 96.8 Q 237.2 96.7, 237.0 96.4 Q 236.9 96.2, 236.9 95.8 Q 236.9 95.2, 237.2 94.9 Q 237.6 94.5, 238.4 94.5 Q 238.9 94.5, 239.5 94.8 L 239.3 95.3 Q 238.8 95.0, 238.4 95.0 Q 238.0 95.0, 237.7 95.2 Q 237.5 95.4, 237.5 95.7 Q 237.5 95.9, 237.6 96.1 Q 237.7 96.2, 237.9 96.3 Q 238.1 96.4, 238.4 96.5 Q 238.8 96.6, 239.0 96.8 Q 239.3 96.9, 239.5 97.1 Q 239.6 97.4, 239.6 97.8 Q 239.6 98.5, 239.2 98.8 Q 238.8 99.1, 238.1 99.1 Q 237.7 99.1, 237.4 99.0 Q 237.1 98.9, 236.8 98.8 L 236.9 98.3 " fill="#CCCC00"/>
<path class="atom-40" d="M 226.5 119.9 L 229.2 119.9 L 229.2 120.5 L 227.1 120.5 L 227.1 121.8 L 229.0 121.8 L 229.0 122.3 L 227.1 122.3 L 227.1 124.4 L 226.5 124.4 L 226.5 119.9 " fill="#33CCCC"/>
<path class="atom-42" d="M 265.8 108.9 Q 265.8 107.7, 266.4 107.2 Q 266.9 106.6, 267.9 106.6 Q 268.8 106.6, 269.3 107.2 L 268.9 107.6 Q 268.5 107.1, 267.9 107.1 Q 267.2 107.1, 266.8 107.6 Q 266.5 108.0, 266.5 108.9 Q 266.5 109.8, 266.8 110.2 Q 267.2 110.7, 267.9 110.7 Q 268.4 110.7, 269.0 110.4 L 269.2 110.8 Q 269.0 111.0, 268.6 111.1 Q 268.3 111.2, 267.9 111.2 Q 266.9 111.2, 266.4 110.6 Q 265.8 110.0, 265.8 108.9 " fill="#00CC00"/>
<path class="atom-42" d="M 269.8 106.3 L 270.3 106.3 L 270.3 111.1 L 269.8 111.1 L 269.8 106.3 " fill="#00CC00"/>
<path class="atom-43" d="M 276.2 83.4 Q 276.2 82.3, 276.7 81.7 Q 277.2 81.1, 278.2 81.1 Q 279.2 81.1, 279.6 81.8 L 279.2 82.1 Q 278.9 81.7, 278.2 81.7 Q 277.6 81.7, 277.2 82.1 Q 276.8 82.6, 276.8 83.4 Q 276.8 84.3, 277.2 84.8 Q 277.6 85.2, 278.3 85.2 Q 278.8 85.2, 279.4 84.9 L 279.5 85.4 Q 279.3 85.6, 279.0 85.7 Q 278.6 85.7, 278.2 85.7 Q 277.2 85.7, 276.7 85.1 Q 276.2 84.5, 276.2 83.4 " fill="#00CC00"/>
<path class="atom-43" d="M 280.1 80.9 L 280.7 80.9 L 280.7 85.7 L 280.1 85.7 L 280.1 80.9 " fill="#00CC00"/>
<path class="atom-0" d="M 243.6,37.8 L 243.6,37.9 L 243.6,37.9 L 243.6,37.9 L 243.6,37.9 L 243.6,38.0 L 243.6,38.0 L 243.6,38.0 L 243.5,38.0 L 243.5,38.1 L 243.5,38.1 L 243.5,38.1 L 243.5,38.1 L 243.4,38.1 L 243.4,38.1 L 243.4,38.1 L 243.4,38.1 L 243.3,38.1 L 243.3,38.2 L 243.3,38.2 L 243.3,38.1 L 243.2,38.1 L 243.2,38.1 L 243.2,38.1 L 243.2,38.1 L 243.1,38.1 L 243.1,38.1 L 243.1,38.1 L 243.1,38.0 L 243.0,38.0 L 243.0,38.0 L 243.0,38.0 L 243.0,38.0 L 243.0,37.9 L 243.0,37.9 L 243.0,37.9 L 243.0,37.8 L 243.0,37.8 L 243.0,37.8 L 243.0,37.8 L 243.0,37.7 L 243.0,37.7 L 243.0,37.7 L 243.0,37.7 L 243.0,37.6 L 243.1,37.6 L 243.1,37.6 L 243.1,37.6 L 243.1,37.6 L 243.2,37.6 L 243.2,37.5 L 243.2,37.5 L 243.2,37.5 L 243.3,37.5 L 243.3,37.5 L 243.3,37.5 L 243.3,37.5 L 243.4,37.5 L 243.4,37.5 L 243.4,37.5 L 243.4,37.5 L 243.5,37.6 L 243.5,37.6 L 243.5,37.6 L 243.5,37.6 L 243.5,37.6 L 243.6,37.7 L 243.6,37.7 L 243.6,37.7 L 243.6,37.7 L 243.6,37.8 L 243.6,37.8 L 243.6,37.8 L 243.6,37.8 L 243.3,37.8 Z" style="fill:#000000;fill-rule:evenodd;fill-opacity:1;stroke:#000000;stroke-width:0.0px;stroke-linecap:butt;stroke-linejoin:miter;stroke-opacity:1;"/>
<path class="atom-1" d="M 233.8,50.0 L 233.8,50.0 L 233.8,50.0 L 233.8,50.0 L 233.8,50.1 L 233.8,50.1 L 233.8,50.1 L 233.8,50.1 L 233.8,50.2 L 233.7,50.2 L 233.7,50.2 L 233.7,50.2 L 233.7,50.2 L 233.7,50.2 L 233.6,50.2 L 233.6,50.3 L 233.6,50.3 L 233.5,50.3 L 233.5,50.3 L 233.5,50.3 L 233.5,50.3 L 233.4,50.3 L 233.4,50.3 L 233.4,50.2 L 233.4,50.2 L 233.3,50.2 L 233.3,50.2 L 233.3,50.2 L 233.3,50.2 L 233.3,50.1 L 233.2,50.1 L 233.2,50.1 L 233.2,50.1 L 233.2,50.0 L 233.2,50.0 L 233.2,50.0 L 233.2,50.0 L 233.2,49.9 L 233.2,49.9 L 233.2,49.9 L 233.2,49.9 L 233.2,49.8 L 233.2,49.8 L 233.2,49.8 L 233.3,49.8 L 233.3,49.7 L 233.3,49.7 L 233.3,49.7 L 233.3,49.7 L 233.4,49.7 L 233.4,49.7 L 233.4,49.7 L 233.4,49.6 L 233.5,49.6 L 233.5,49.6 L 233.5,49.6 L 233.5,49.6 L 233.6,49.6 L 233.6,49.6 L 233.6,49.7 L 233.7,49.7 L 233.7,49.7 L 233.7,49.7 L 233.7,49.7 L 233.7,49.7 L 233.8,49.8 L 233.8,49.8 L 233.8,49.8 L 233.8,49.8 L 233.8,49.8 L 233.8,49.9 L 233.8,49.9 L 233.8,49.9 L 233.8,50.0 L 233.5,50.0 Z" style="fill:#000000;fill-rule:evenodd;fill-opacity:1;stroke:#000000;stroke-width:0.0px;stroke-linecap:butt;stroke-linejoin:miter;stroke-opacity:1;"/>
<path class="atom-35" d="M 237.6,65.3 L 237.6,65.4 L 237.6,65.4 L 237.6,65.4 L 237.6,65.5 L 237.6,65.5 L 237.6,65.5 L 237.6,65.5 L 237.6,65.5 L 237.5,65.6 L 237.5,65.6 L 237.5,65.6 L 237.5,65.6 L 237.4,65.6 L 237.4,65.6 L 237.4,65.7 L 237.4,65.7 L 237.3,65.7 L 237.3,65.7 L 237.3,65.7 L 237.3,65.7 L 237.2,65.7 L 237.2,65.6 L 237.2,65.6 L 237.2,65.6 L 237.1,65.6 L 237.1,65.6 L 237.1,65.6 L 237.1,65.6 L 237.1,65.5 L 237.0,65.5 L 237.0,65.5 L 237.0,65.5 L 237.0,65.4 L 237.0,65.4 L 237.0,65.4 L 237.0,65.4 L 237.0,65.3 L 237.0,65.3 L 237.0,65.3 L 237.0,65.3 L 237.0,65.2 L 237.0,65.2 L 237.0,65.2 L 237.1,65.2 L 237.1,65.1 L 237.1,65.1 L 237.1,65.1 L 237.1,65.1 L 237.2,65.1 L 237.2,65.1 L 237.2,65.0 L 237.2,65.0 L 237.3,65.0 L 237.3,65.0 L 237.3,65.0 L 237.3,65.0 L 237.4,65.0 L 237.4,65.0 L 237.4,65.0 L 237.4,65.1 L 237.5,65.1 L 237.5,65.1 L 237.5,65.1 L 237.5,65.1 L 237.6,65.1 L 237.6,65.2 L 237.6,65.2 L 237.6,65.2 L 237.6,65.2 L 237.6,65.3 L 237.6,65.3 L 237.6,65.3 L 237.6,65.3 L 237.3,65.3 Z" style="fill:#000000;fill-rule:evenodd;fill-opacity:1;stroke:#000000;stroke-width:0.0px;stroke-linecap:butt;stroke-linejoin:miter;stroke-opacity:1;"/>
<path class="atom-37" d="M 254.0,87.0 L 253.9,87.1 L 253.9,87.1 L 253.9,87.1 L 253.9,87.1 L 253.9,87.2 L 253.9,87.2 L 253.9,87.2 L 253.9,87.2 L 253.9,87.2 L 253.8,87.3 L 253.8,87.3 L 253.8,87.3 L 253.8,87.3 L 253.7,87.3 L 253.7,87.3 L 253.7,87.3 L 253.7,87.3 L 253.6,87.3 L 253.6,87.3 L 253.6,87.3 L 253.6,87.3 L 253.5,87.3 L 253.5,87.3 L 253.5,87.3 L 253.5,87.3 L 253.4,87.3 L 253.4,87.3 L 253.4,87.2 L 253.4,87.2 L 253.4,87.2 L 253.4,87.2 L 253.3,87.1 L 253.3,87.1 L 253.3,87.1 L 253.3,87.1 L 253.3,87.0 L 253.3,87.0 L 253.3,87.0 L 253.3,87.0 L 253.3,86.9 L 253.3,86.9 L 253.4,86.9 L 253.4,86.9 L 253.4,86.8 L 253.4,86.8 L 253.4,86.8 L 253.4,86.8 L 253.5,86.8 L 253.5,86.7 L 253.5,86.7 L 253.5,86.7 L 253.6,86.7 L 253.6,86.7 L 253.6,86.7 L 253.6,86.7 L 253.7,86.7 L 253.7,86.7 L 253.7,86.7 L 253.7,86.7 L 253.8,86.7 L 253.8,86.8 L 253.8,86.8 L 253.8,86.8 L 253.9,86.8 L 253.9,86.8 L 253.9,86.8 L 253.9,86.9 L 253.9,86.9 L 253.9,86.9 L 253.9,86.9 L 253.9,87.0 L 253.9,87.0 L 254.0,87.0 L 253.6,87.0 Z" style="fill:#000000;fill-rule:evenodd;fill-opacity:1;stroke:#000000;stroke-width:0.0px;stroke-linecap:butt;stroke-linejoin:miter;stroke-opacity:1;"/>
<path class="bond-0 atom-0 atom-1" d="M 532.3,42.1 L 529.6,45.2" style="fill:none;fill-rule:evenodd;stroke:#FF0000;stroke-width:2.0px;stroke-linecap:butt;stroke-linejoin:miter;stroke-opacity:1"/>
<path class="bond-0 atom-0 atom-1" d="M 529.6,45.2 L 526.8,48.3" style="fill:none;fill-rule:evenodd;stroke:#000000;stroke-width:2.0px;stroke-linecap:butt;stroke-linejoin:miter;stroke-opacity:1"/>
<path class="bond-1 atom-1 atom-2" d="M 522.4,50.9 L 508.6,49.5" style="fill:none;fill-rule:evenodd;stroke:#000000;stroke-width:2.0px;stroke-linecap:butt;stroke-linejoin:miter;stroke-opacity:1"/>
<path class="bond-2 atom-2 atom-3" d="M 508.6,49.5 L 506.0,55.4" style="fill:none;fill-rule:evenodd;stroke:#000000;stroke-width:2.0px;stroke-linecap:butt;stroke-linejoin:miter;stroke-opacity:1"/>
<path class="bond-2 atom-2 atom-3" d="M 506.0,55.4 L 503.5,61.3" style="fill:none;fill-rule:evenodd;stroke:#0000FF;stroke-width:2.0px;stroke-linecap:butt;stroke-linejoin:miter;stroke-opacity:1"/>
<path class="bond-3 atom-3 atom-4" d="M 500.0,64.6 L 493.4,66.0" style="fill:none;fill-rule:evenodd;stroke:#0000FF;stroke-width:2.0px;stroke-linecap:butt;stroke-linejoin:miter;stroke-opacity:1"/>
<path class="bond-3 atom-3 atom-4" d="M 493.4,66.0 L 486.8,67.5" style="fill:none;fill-rule:evenodd;stroke:#000000;stroke-width:2.0px;stroke-linecap:butt;stroke-linejoin:miter;stroke-opacity:1"/>
<path class="bond-4 atom-4 atom-5" d="M 486.8,67.5 L 476.1,55.8" style="fill:none;fill-rule:evenodd;stroke:#000000;stroke-width:2.0px;stroke-linecap:butt;stroke-linejoin:miter;stroke-opacity:1"/>
<path class="bond-4 atom-4 atom-5" d="M 484.0,68.1 L 475.2,58.5" style="fill:none;fill-rule:evenodd;stroke:#000000;stroke-width:2.0px;stroke-linecap:butt;stroke-linejoin:miter;stroke-opacity:1"/>
<path class="bond-5 atom-5 atom-6" d="M 476.1,55.8 L 460.6,59.2" style="fill:none;fill-rule:evenodd;stroke:#000000;stroke-width:2.0px;stroke-linecap:butt;stroke-linejoin:miter;stroke-opacity:1"/>
<path class="bond-6 atom-6 atom-7" d="M 460.6,59.2 L 455.8,74.3" style="fill:none;fill-rule:evenodd;stroke:#000000;stroke-width:2.0px;stroke-linecap:butt;stroke-linejoin:miter;stroke-opacity:1"/>
<path class="bond-6 atom-6 atom-7" d="M 462.5,61.3 L 458.6,73.7" style="fill:none;fill-rule:evenodd;stroke:#000000;stroke-width:2.0px;stroke-linecap:butt;stroke-linejoin:miter;stroke-opacity:1"/>
<path class="bond-7 atom-7 atom-8" d="M 455.8,74.3 L 449.2,75.8" style="fill:none;fill-rule:evenodd;stroke:#000000;stroke-width:2.0px;stroke-linecap:butt;stroke-linejoin:miter;stroke-opacity:1"/>
<path class="bond-7 atom-7 atom-8" d="M 449.2,75.8 L 442.6,77.2" style="fill:none;fill-rule:evenodd;stroke:#0000FF;stroke-width:2.0px;stroke-linecap:butt;stroke-linejoin:miter;stroke-opacity:1"/>
<path class="bond-8 atom-8 atom-9" d="M 438.1,75.3 L 433.9,70.6" style="fill:none;fill-rule:evenodd;stroke:#0000FF;stroke-width:2.0px;stroke-linecap:butt;stroke-linejoin:miter;stroke-opacity:1"/>
<path class="bond-8 atom-8 atom-9" d="M 433.9,70.6 L 429.6,66.0" style="fill:none;fill-rule:evenodd;stroke:#000000;stroke-width:2.0px;stroke-linecap:butt;stroke-linejoin:miter;stroke-opacity:1"/>
<path class="bond-9 atom-9 atom-10" d="M 429.6,66.0 L 414.2,69.4" style="fill:none;fill-rule:evenodd;stroke:#000000;stroke-width:2.0px;stroke-linecap:butt;stroke-linejoin:miter;stroke-opacity:1"/>
<path class="bond-10 atom-10 atom-11" d="M 414.2,69.4 L 412.2,75.6" style="fill:none;fill-rule:evenodd;stroke:#000000;stroke-width:2.0px;stroke-linecap:butt;stroke-linejoin:miter;stroke-opacity:1"/>
<path class="bond-10 atom-10 atom-11" d="M 412.2,75.6 L 410.2,81.8" style="fill:none;fill-rule:evenodd;stroke:#0000FF;stroke-width:2.0px;stroke-linecap:butt;stroke-linejoin:miter;stroke-opacity:1"/>
<path class="bond-11 atom-11 atom-12" d="M 407.1,85.0 L 400.5,86.5" style="fill:none;fill-rule:evenodd;stroke:#0000FF;stroke-width:2.0px;stroke-linecap:butt;stroke-linejoin:miter;stroke-opacity:1"/>
<path class="bond-11 atom-11 atom-12" d="M 400.5,86.5 L 393.9,88.0" style="fill:none;fill-rule:evenodd;stroke:#000000;stroke-width:2.0px;stroke-linecap:butt;stroke-linejoin:miter;stroke-opacity:1"/>
<path class="bond-12 atom-12 atom-13" d="M 392.9,86.9 L 390.9,93.4" style="fill:none;fill-rule:evenodd;stroke:#000000;stroke-width:2.0px;stroke-linecap:butt;stroke-linejoin:miter;stroke-opacity:1"/>
<path class="bond-12 atom-12 atom-13" d="M 390.9,93.4 L 388.8,99.9" style="fill:none;fill-rule:evenodd;stroke:#FF0000;stroke-width:2.0px;stroke-linecap:butt;stroke-linejoin:miter;stroke-opacity:1"/>
<path class="bond-12 atom-12 atom-13" d="M 395.3,87.7 L 393.2,94.1" style="fill:none;fill-rule:evenodd;stroke:#000000;stroke-width:2.0px;stroke-linecap:butt;stroke-linejoin:miter;stroke-opacity:1"/>
<path class="bond-12 atom-12 atom-13" d="M 393.2,94.1 L 391.2,100.6" style="fill:none;fill-rule:evenodd;stroke:#FF0000;stroke-width:2.0px;stroke-linecap:butt;stroke-linejoin:miter;stroke-opacity:1"/>
<path class="bond-13 atom-12 atom-14" d="M 393.9,88.0 L 389.7,83.3" style="fill:none;fill-rule:evenodd;stroke:#000000;stroke-width:2.0px;stroke-linecap:butt;stroke-linejoin:miter;stroke-opacity:1"/>
<path class="bond-13 atom-12 atom-14" d="M 389.7,83.3 L 385.4,78.7" style="fill:none;fill-rule:evenodd;stroke:#0000FF;stroke-width:2.0px;stroke-linecap:butt;stroke-linejoin:miter;stroke-opacity:1"/>
<path class="bond-14 atom-14 atom-15" d="M 381.0,76.8 L 374.3,78.2" style="fill:none;fill-rule:evenodd;stroke:#0000FF;stroke-width:2.0px;stroke-linecap:butt;stroke-linejoin:miter;stroke-opacity:1"/>
<path class="bond-14 atom-14 atom-15" d="M 374.3,78.2 L 367.7,79.7" style="fill:none;fill-rule:evenodd;stroke:#000000;stroke-width:2.0px;stroke-linecap:butt;stroke-linejoin:miter;stroke-opacity:1"/>
<path class="bond-15 atom-15 atom-16" d="M 367.7,79.7 L 357.0,68.0" style="fill:none;fill-rule:evenodd;stroke:#000000;stroke-width:2.0px;stroke-linecap:butt;stroke-linejoin:miter;stroke-opacity:1"/>
<path class="bond-16 atom-16 atom-17" d="M 357.0,68.0 L 352.2,83.1" style="fill:none;fill-rule:evenodd;stroke:#000000;stroke-width:2.0px;stroke-linecap:butt;stroke-linejoin:miter;stroke-opacity:1"/>
<path class="bond-17 atom-17 atom-18" d="M 352.2,83.1 L 336.7,86.5" style="fill:none;fill-rule:evenodd;stroke:#000000;stroke-width:2.0px;stroke-linecap:butt;stroke-linejoin:miter;stroke-opacity:1"/>
<path class="bond-18 atom-18 atom-19" d="M 336.7,86.5 L 347.4,98.2" style="fill:none;fill-rule:evenodd;stroke:#000000;stroke-width:2.0px;stroke-linecap:butt;stroke-linejoin:miter;stroke-opacity:1"/>
<path class="bond-19 atom-19 atom-20" d="M 347.4,98.2 L 362.9,94.8" style="fill:none;fill-rule:evenodd;stroke:#000000;stroke-width:2.0px;stroke-linecap:butt;stroke-linejoin:miter;stroke-opacity:1"/>
<path class="bond-20 atom-20 atom-21" d="M 362.9,94.8 L 334.2,75.2" style="fill:none;fill-rule:evenodd;stroke:#000000;stroke-width:2.0px;stroke-linecap:butt;stroke-linejoin:miter;stroke-opacity:1"/>
<path class="bond-21 atom-21 atom-22" d="M 334.2,75.2 L 330.8,59.7" style="fill:none;fill-rule:evenodd;stroke:#000000;stroke-width:2.0px;stroke-linecap:butt;stroke-linejoin:miter;stroke-opacity:1"/>
<path class="bond-22 atom-22 atom-23" d="M 330.8,59.7 L 326.8,55.3" style="fill:none;fill-rule:evenodd;stroke:#000000;stroke-width:2.0px;stroke-linecap:butt;stroke-linejoin:miter;stroke-opacity:1"/>
<path class="bond-22 atom-22 atom-23" d="M 326.8,55.3 L 322.7,50.8" style="fill:none;fill-rule:evenodd;stroke:#FF0000;stroke-width:2.0px;stroke-linecap:butt;stroke-linejoin:miter;stroke-opacity:1"/>
<path class="bond-23 atom-22 atom-24" d="M 330.8,59.7 L 326.0,74.8" style="fill:none;fill-rule:evenodd;stroke:#000000;stroke-width:2.0px;stroke-linecap:butt;stroke-linejoin:miter;stroke-opacity:1"/>
<path class="bond-24 atom-22 atom-25" d="M 330.8,59.7 L 346.3,56.3" style="fill:none;fill-rule:evenodd;stroke:#000000;stroke-width:2.0px;stroke-linecap:butt;stroke-linejoin:miter;stroke-opacity:1"/>
<path class="bond-25 atom-11 atom-26" d="M 411.6,87.0 L 415.8,91.6" style="fill:none;fill-rule:evenodd;stroke:#0000FF;stroke-width:2.0px;stroke-linecap:butt;stroke-linejoin:miter;stroke-opacity:1"/>
<path class="bond-25 atom-11 atom-26" d="M 415.8,91.6 L 420.1,96.2" style="fill:none;fill-rule:evenodd;stroke:#000000;stroke-width:2.0px;stroke-linecap:butt;stroke-linejoin:miter;stroke-opacity:1"/>
<path class="bond-26 atom-26 atom-27" d="M 420.1,96.2 L 415.3,111.4" style="fill:none;fill-rule:evenodd;stroke:#000000;stroke-width:2.0px;stroke-linecap:butt;stroke-linejoin:miter;stroke-opacity:1"/>
<path class="bond-26 atom-26 atom-27" d="M 422.0,98.3 L 418.0,110.8" style="fill:none;fill-rule:evenodd;stroke:#000000;stroke-width:2.0px;stroke-linecap:butt;stroke-linejoin:miter;stroke-opacity:1"/>
<path class="bond-27 atom-27 atom-28" d="M 415.3,111.4 L 426.0,123.1" style="fill:none;fill-rule:evenodd;stroke:#000000;stroke-width:2.0px;stroke-linecap:butt;stroke-linejoin:miter;stroke-opacity:1"/>
<path class="bond-28 atom-28 atom-29" d="M 426.0,123.1 L 441.5,119.7" style="fill:none;fill-rule:evenodd;stroke:#000000;stroke-width:2.0px;stroke-linecap:butt;stroke-linejoin:miter;stroke-opacity:1"/>
<path class="bond-28 atom-28 atom-29" d="M 426.8,120.4 L 439.6,117.6" style="fill:none;fill-rule:evenodd;stroke:#000000;stroke-width:2.0px;stroke-linecap:butt;stroke-linejoin:miter;stroke-opacity:1"/>
<path class="bond-29 atom-29 atom-30" d="M 441.5,119.7 L 446.2,104.5" style="fill:none;fill-rule:evenodd;stroke:#000000;stroke-width:2.0px;stroke-linecap:butt;stroke-linejoin:miter;stroke-opacity:1"/>
<path class="bond-30 atom-30 atom-31" d="M 446.2,104.5 L 435.5,92.8" style="fill:none;fill-rule:evenodd;stroke:#000000;stroke-width:2.0px;stroke-linecap:butt;stroke-linejoin:miter;stroke-opacity:1"/>
<path class="bond-30 atom-30 atom-31" d="M 443.5,105.1 L 434.7,95.5" style="fill:none;fill-rule:evenodd;stroke:#000000;stroke-width:2.0px;stroke-linecap:butt;stroke-linejoin:miter;stroke-opacity:1"/>
<path class="bond-31 atom-7 atom-32" d="M 455.8,74.3 L 460.0,78.9" style="fill:none;fill-rule:evenodd;stroke:#000000;stroke-width:2.0px;stroke-linecap:butt;stroke-linejoin:miter;stroke-opacity:1"/>
<path class="bond-31 atom-7 atom-32" d="M 460.0,78.9 L 464.3,83.6" style="fill:none;fill-rule:evenodd;stroke:#0000FF;stroke-width:2.0px;stroke-linecap:butt;stroke-linejoin:miter;stroke-opacity:1"/>
<path class="bond-32 atom-32 atom-33" d="M 468.8,85.5 L 475.4,84.1" style="fill:none;fill-rule:evenodd;stroke:#0000FF;stroke-width:2.0px;stroke-linecap:butt;stroke-linejoin:miter;stroke-opacity:1"/>
<path class="bond-32 atom-32 atom-33" d="M 475.4,84.1 L 482.0,82.6" style="fill:none;fill-rule:evenodd;stroke:#000000;stroke-width:2.0px;stroke-linecap:butt;stroke-linejoin:miter;stroke-opacity:1"/>
<path class="bond-32 atom-32 atom-33" d="M 468.2,83.1 L 474.2,81.8" style="fill:none;fill-rule:evenodd;stroke:#0000FF;stroke-width:2.0px;stroke-linecap:butt;stroke-linejoin:miter;stroke-opacity:1"/>
<path class="bond-32 atom-32 atom-33" d="M 474.2,81.8 L 480.1,80.5" style="fill:none;fill-rule:evenodd;stroke:#000000;stroke-width:2.0px;stroke-linecap:butt;stroke-linejoin:miter;stroke-opacity:1"/>
<path class="bond-33 atom-3 atom-34" d="M 504.5,66.0 L 509.3,70.3" style="fill:none;fill-rule:evenodd;stroke:#0000FF;stroke-width:2.0px;stroke-linecap:butt;stroke-linejoin:miter;stroke-opacity:1"/>
<path class="bond-33 atom-3 atom-34" d="M 509.3,70.3 L 514.1,74.6" style="fill:none;fill-rule:evenodd;stroke:#000000;stroke-width:2.0px;stroke-linecap:butt;stroke-linejoin:miter;stroke-opacity:1"/>
<path class="bond-34 atom-34 atom-35" d="M 514.1,74.6 L 525.8,67.7" style="fill:none;fill-rule:evenodd;stroke:#000000;stroke-width:2.0px;stroke-linecap:butt;stroke-linejoin:miter;stroke-opacity:1"/>
<path class="bond-35 atom-35 atom-36" d="M 530.8,67.9 L 535.6,69.9" style="fill:none;fill-rule:evenodd;stroke:#000000;stroke-width:2.0px;stroke-linecap:butt;stroke-linejoin:miter;stroke-opacity:1"/>
<path class="bond-35 atom-35 atom-36" d="M 535.6,69.9 L 540.4,72.0" style="fill:none;fill-rule:evenodd;stroke:#CCCC00;stroke-width:2.0px;stroke-linecap:butt;stroke-linejoin:miter;stroke-opacity:1"/>
<path class="bond-36 atom-36 atom-37" d="M 542.7,75.8 L 543.2,80.8" style="fill:none;fill-rule:evenodd;stroke:#CCCC00;stroke-width:2.0px;stroke-linecap:butt;stroke-linejoin:miter;stroke-opacity:1"/>
<path class="bond-36 atom-36 atom-37" d="M 543.2,80.8 L 543.8,85.9" style="fill:none;fill-rule:evenodd;stroke:#000000;stroke-width:2.0px;stroke-linecap:butt;stroke-linejoin:miter;stroke-opacity:1"/>
<path class="bond-37 atom-37 atom-38" d="M 541.6,88.9 L 535.9,89.6" style="fill:none;fill-rule:evenodd;stroke:#000000;stroke-width:2.0px;stroke-linecap:butt;stroke-linejoin:miter;stroke-opacity:1"/>
<path class="bond-37 atom-37 atom-38" d="M 535.9,89.6 L 530.2,90.2" style="fill:none;fill-rule:evenodd;stroke:#33CCCC;stroke-width:2.0px;stroke-linecap:butt;stroke-linejoin:miter;stroke-opacity:1"/>
<path class="bond-38 atom-37 atom-39" d="M 544.4,91.5 L 545.0,96.6" style="fill:none;fill-rule:evenodd;stroke:#000000;stroke-width:2.0px;stroke-linecap:butt;stroke-linejoin:miter;stroke-opacity:1"/>
<path class="bond-38 atom-37 atom-39" d="M 545.0,96.6 L 545.6,101.6" style="fill:none;fill-rule:evenodd;stroke:#33CCCC;stroke-width:2.0px;stroke-linecap:butt;stroke-linejoin:miter;stroke-opacity:1"/>
<path class="bond-39 atom-37 atom-40" d="M 546.6,88.4 L 559.9,86.9" style="fill:none;fill-rule:evenodd;stroke:#000000;stroke-width:2.0px;stroke-linecap:butt;stroke-linejoin:miter;stroke-opacity:1"/>
<path class="bond-40 atom-40 atom-41" d="M 559.9,86.9 L 562.4,81.0" style="fill:none;fill-rule:evenodd;stroke:#000000;stroke-width:2.0px;stroke-linecap:butt;stroke-linejoin:miter;stroke-opacity:1"/>
<path class="bond-40 atom-40 atom-41" d="M 562.4,81.0 L 564.9,75.2" style="fill:none;fill-rule:evenodd;stroke:#CCCC00;stroke-width:2.0px;stroke-linecap:butt;stroke-linejoin:miter;stroke-opacity:1"/>
<path class="bond-41 atom-40 atom-42" d="M 559.9,86.9 L 569.3,99.6" style="fill:none;fill-rule:evenodd;stroke:#000000;stroke-width:2.0px;stroke-linecap:butt;stroke-linejoin:miter;stroke-opacity:1"/>
<path class="bond-42 atom-42 atom-43" d="M 569.3,99.6 L 576.2,98.8" style="fill:none;fill-rule:evenodd;stroke:#000000;stroke-width:2.0px;stroke-linecap:butt;stroke-linejoin:miter;stroke-opacity:1"/>
<path class="bond-42 atom-42 atom-43" d="M 576.2,98.8 L 583.2,98.1" style="fill:none;fill-rule:evenodd;stroke:#33CCCC;stroke-width:2.0px;stroke-linecap:butt;stroke-linejoin:miter;stroke-opacity:1"/>
<path class="bond-43 atom-35 atom-1" d="M 527.2,63.8 L 525.0,54.0" style="fill:none;fill-rule:evenodd;stroke:#000000;stroke-width:2.0px;stroke-linecap:butt;stroke-linejoin:miter;stroke-opacity:1"/>
<path class="bond-44 atom-33 atom-4" d="M 482.0,82.6 L 486.8,67.5" style="fill:none;fill-rule:evenodd;stroke:#000000;stroke-width:2.0px;stroke-linecap:butt;stroke-linejoin:miter;stroke-opacity:1"/>
<path class="bond-45 atom-31 atom-8" d="M 435.5,92.8 L 437.5,86.7" style="fill:none;fill-rule:evenodd;stroke:#000000;stroke-width:2.0px;stroke-linecap:butt;stroke-linejoin:miter;stroke-opacity:1"/>
<path class="bond-45 atom-31 atom-8" d="M 437.5,86.7 L 439.5,80.5" style="fill:none;fill-rule:evenodd;stroke:#0000FF;stroke-width:2.0px;stroke-linecap:butt;stroke-linejoin:miter;stroke-opacity:1"/>
<path class="bond-46 atom-20 atom-15" d="M 362.9,94.8 L 367.7,79.7" style="fill:none;fill-rule:evenodd;stroke:#000000;stroke-width:2.0px;stroke-linecap:butt;stroke-linejoin:miter;stroke-opacity:1"/>
<path class="bond-47 atom-31 atom-26" d="M 435.5,92.8 L 420.1,96.2" style="fill:none;fill-rule:evenodd;stroke:#000000;stroke-width:2.0px;stroke-linecap:butt;stroke-linejoin:miter;stroke-opacity:1"/>
<path class="bond-48 atom-25 atom-16" d="M 346.3,56.3 L 357.0,68.0" style="fill:none;fill-rule:evenodd;stroke:#000000;stroke-width:2.0px;stroke-linecap:butt;stroke-linejoin:miter;stroke-opacity:1"/>
<path class="bond-49 atom-24 atom-18" d="M 326.0,74.8 L 336.7,86.5" style="fill:none;fill-rule:evenodd;stroke:#000000;stroke-width:2.0px;stroke-linecap:butt;stroke-linejoin:miter;stroke-opacity:1"/>
<path d="M 509.3,49.6 L 508.6,49.5 L 508.5,49.8" style="fill:none;stroke:#000000;stroke-width:2.0px;stroke-linecap:butt;stroke-linejoin:miter;stroke-opacity:1;"/>
<path d="M 476.6,56.4 L 476.1,55.8 L 475.3,55.9" style="fill:none;stroke:#000000;stroke-width:2.0px;stroke-linecap:butt;stroke-linejoin:miter;stroke-opacity:1;"/>
<path d="M 461.4,59.0 L 460.6,59.2 L 460.4,59.9" style="fill:none;stroke:#000000;stroke-width:2.0px;stroke-linecap:butt;stroke-linejoin:miter;stroke-opacity:1;"/>
<path d="M 429.8,66.3 L 429.6,66.0 L 428.9,66.2" style="fill:none;stroke:#000000;stroke-width:2.0px;stroke-linecap:butt;stroke-linejoin:miter;stroke-opacity:1;"/>
<path d="M 414.9,69.3 L 414.2,69.4 L 414.1,69.7" style="fill:none;stroke:#000000;stroke-width:2.0px;stroke-linecap:butt;stroke-linejoin:miter;stroke-opacity:1;"/>
<path d="M 394.2,87.9 L 393.9,88.0 L 393.7,87.7" style="fill:none;stroke:#000000;stroke-width:2.0px;stroke-linecap:butt;stroke-linejoin:miter;stroke-opacity:1;"/>
<path d="M 352.5,82.3 L 352.2,83.1 L 351.5,83.3" style="fill:none;stroke:#000000;stroke-width:2.0px;stroke-linecap:butt;stroke-linejoin:miter;stroke-opacity:1;"/>
<path d="M 346.9,97.6 L 347.4,98.2 L 348.2,98.0" style="fill:none;stroke:#000000;stroke-width:2.0px;stroke-linecap:butt;stroke-linejoin:miter;stroke-opacity:1;"/>
<path d="M 335.7,76.2 L 334.2,75.2 L 334.1,74.4" style="fill:none;stroke:#000000;stroke-width:2.0px;stroke-linecap:butt;stroke-linejoin:miter;stroke-opacity:1;"/>
<path d="M 326.3,74.0 L 326.0,74.8 L 326.6,75.4" style="fill:none;stroke:#000000;stroke-width:2.0px;stroke-linecap:butt;stroke-linejoin:miter;stroke-opacity:1;"/>
<path d="M 345.5,56.4 L 346.3,56.3 L 346.8,56.9" style="fill:none;stroke:#000000;stroke-width:2.0px;stroke-linecap:butt;stroke-linejoin:miter;stroke-opacity:1;"/>
<path d="M 415.5,110.6 L 415.3,111.4 L 415.8,111.9" style="fill:none;stroke:#000000;stroke-width:2.0px;stroke-linecap:butt;stroke-linejoin:miter;stroke-opacity:1;"/>
<path d="M 425.4,122.5 L 426.0,123.1 L 426.8,122.9" style="fill:none;stroke:#000000;stroke-width:2.0px;stroke-linecap:butt;stroke-linejoin:miter;stroke-opacity:1;"/>
<path d="M 440.7,119.8 L 441.5,119.7 L 441.7,118.9" style="fill:none;stroke:#000000;stroke-width:2.0px;stroke-linecap:butt;stroke-linejoin:miter;stroke-opacity:1;"/>
<path d="M 446.0,105.3 L 446.2,104.5 L 445.7,104.0" style="fill:none;stroke:#000000;stroke-width:2.0px;stroke-linecap:butt;stroke-linejoin:miter;stroke-opacity:1;"/>
<path d="M 481.7,82.7 L 482.0,82.6 L 482.2,81.8" style="fill:none;stroke:#000000;stroke-width:2.0px;stroke-linecap:butt;stroke-linejoin:miter;stroke-opacity:1;"/>
<path d="M 513.9,74.4 L 514.1,74.6 L 514.7,74.2" style="fill:none;stroke:#000000;stroke-width:2.0px;stroke-linecap:butt;stroke-linejoin:miter;stroke-opacity:1;"/>
<path d="M 568.8,99.0 L 569.3,99.6 L 569.6,99.6" style="fill:none;stroke:#000000;stroke-width:2.0px;stroke-linecap:butt;stroke-linejoin:miter;stroke-opacity:1;"/>
<path class="atom-0" d="M 532.8 39.2 Q 532.8 38.1, 533.4 37.5 Q 533.9 36.9, 534.9 36.9 Q 535.9 36.9, 536.4 37.5 Q 537.0 38.1, 537.0 39.2 Q 537.0 40.3, 536.4 40.9 Q 535.9 41.5, 534.9 41.5 Q 533.9 41.5, 533.4 40.9 Q 532.8 40.3, 532.8 39.2 M 534.9 41.0 Q 535.6 41.0, 536.0 40.6 Q 536.3 40.1, 536.3 39.2 Q 536.3 38.3, 536.0 37.9 Q 535.6 37.4, 534.9 37.4 Q 534.2 37.4, 533.8 37.9 Q 533.5 38.3, 533.5 39.2 Q 533.5 40.1, 533.8 40.6 Q 534.2 41.0, 534.9 41.0 " fill="#FF0000"/>
<path class="atom-1" d="M 523.1 52.6 Q 523.2 52.6, 523.4 52.7 Q 523.6 52.8, 523.8 52.9 Q 524.0 52.9, 524.3 52.9 Q 524.7 52.9, 524.9 52.7 Q 525.2 52.5, 525.2 52.1 Q 525.2 51.9, 525.1 51.7 Q 524.9 51.6, 524.8 51.5 Q 524.6 51.4, 524.2 51.3 Q 523.8 51.2, 523.6 51.1 Q 523.4 51.0, 523.2 50.7 Q 523.0 50.5, 523.0 50.1 Q 523.0 49.5, 523.4 49.2 Q 523.8 48.8, 524.6 48.8 Q 525.1 48.8, 525.7 49.1 L 525.5 49.6 Q 525.0 49.3, 524.6 49.3 Q 524.1 49.3, 523.9 49.5 Q 523.7 49.7, 523.7 50.0 Q 523.7 50.3, 523.8 50.4 Q 523.9 50.6, 524.1 50.6 Q 524.3 50.7, 524.6 50.8 Q 525.0 50.9, 525.2 51.1 Q 525.5 51.2, 525.6 51.5 Q 525.8 51.7, 525.8 52.1 Q 525.8 52.8, 525.4 53.1 Q 525.0 53.4, 524.3 53.4 Q 523.9 53.4, 523.6 53.3 Q 523.3 53.3, 522.9 53.1 L 523.1 52.6 " fill="#000000"/>
<path class="atom-1" d="M 526.3 48.8 L 526.9 48.8 L 526.9 49.4 L 526.3 49.4 L 526.3 48.8 M 526.3 50.1 L 526.9 50.1 L 526.9 53.3 L 526.3 53.3 L 526.3 50.1 " fill="#000000"/>
<path class="atom-3" d="M 501.3 61.8 L 502.7 64.2 Q 502.9 64.4, 503.1 64.9 Q 503.4 65.3, 503.4 65.3 L 503.4 61.8 L 504.0 61.8 L 504.0 66.3 L 503.4 66.3 L 501.8 63.7 Q 501.6 63.4, 501.4 63.1 Q 501.2 62.7, 501.1 62.6 L 501.1 66.3 L 500.6 66.3 L 500.6 61.8 L 501.3 61.8 " fill="#0000FF"/>
<path class="atom-8" d="M 439.3 75.5 L 440.8 77.9 Q 441.0 78.1, 441.2 78.5 Q 441.4 78.9, 441.4 79.0 L 441.4 75.5 L 442.0 75.5 L 442.0 80.0 L 441.4 80.0 L 439.8 77.4 Q 439.7 77.1, 439.5 76.7 Q 439.3 76.4, 439.2 76.3 L 439.2 80.0 L 438.6 80.0 L 438.6 75.5 L 439.3 75.5 " fill="#0000FF"/>
<path class="atom-11" d="M 408.4 82.3 L 409.8 84.7 Q 410.0 84.9, 410.2 85.3 Q 410.5 85.8, 410.5 85.8 L 410.5 82.3 L 411.1 82.3 L 411.1 86.8 L 410.5 86.8 L 408.9 84.2 Q 408.7 83.9, 408.5 83.5 Q 408.3 83.2, 408.3 83.1 L 408.3 86.8 L 407.7 86.8 L 407.7 82.3 L 408.4 82.3 " fill="#0000FF"/>
<path class="atom-13" d="M 387.0 103.1 Q 387.0 102.0, 387.6 101.4 Q 388.1 100.8, 389.1 100.8 Q 390.1 100.8, 390.6 101.4 Q 391.2 102.0, 391.2 103.1 Q 391.2 104.2, 390.6 104.8 Q 390.1 105.4, 389.1 105.4 Q 388.1 105.4, 387.6 104.8 Q 387.0 104.2, 387.0 103.1 M 389.1 104.9 Q 389.8 104.9, 390.2 104.5 Q 390.5 104.0, 390.5 103.1 Q 390.5 102.2, 390.2 101.8 Q 389.8 101.3, 389.1 101.3 Q 388.4 101.3, 388.0 101.8 Q 387.7 102.2, 387.7 103.1 Q 387.7 104.0, 388.0 104.5 Q 388.4 104.9, 389.1 104.9 " fill="#FF0000"/>
<path class="atom-14" d="M 382.2 74.0 L 383.7 76.4 Q 383.8 76.6, 384.0 77.1 Q 384.3 77.5, 384.3 77.5 L 384.3 74.0 L 384.9 74.0 L 384.9 78.5 L 384.3 78.5 L 382.7 75.9 Q 382.5 75.6, 382.3 75.3 Q 382.1 74.9, 382.1 74.8 L 382.1 78.5 L 381.5 78.5 L 381.5 74.0 L 382.2 74.0 " fill="#0000FF"/>
<path class="atom-14" d="M 381.4 69.1 L 382.0 69.1 L 382.0 71.0 L 384.3 71.0 L 384.3 69.1 L 384.9 69.1 L 384.9 73.6 L 384.3 73.6 L 384.3 71.5 L 382.0 71.5 L 382.0 73.6 L 381.4 73.6 L 381.4 69.1 " fill="#0000FF"/>
<path class="atom-23" d="M 313.6 45.8 L 314.2 45.8 L 314.2 47.7 L 316.5 47.7 L 316.5 45.8 L 317.1 45.8 L 317.1 50.3 L 316.5 50.3 L 316.5 48.2 L 314.2 48.2 L 314.2 50.3 L 313.6 50.3 L 313.6 45.8 " fill="#FF0000"/>
<path class="atom-23" d="M 318.1 48.0 Q 318.1 46.9, 318.6 46.3 Q 319.1 45.7, 320.1 45.7 Q 321.1 45.7, 321.7 46.3 Q 322.2 46.9, 322.2 48.0 Q 322.2 49.1, 321.7 49.7 Q 321.1 50.3, 320.1 50.3 Q 319.1 50.3, 318.6 49.7 Q 318.1 49.1, 318.1 48.0 M 320.1 49.8 Q 320.8 49.8, 321.2 49.4 Q 321.6 48.9, 321.6 48.0 Q 321.6 47.1, 321.2 46.7 Q 320.8 46.2, 320.1 46.2 Q 319.4 46.2, 319.1 46.7 Q 318.7 47.1, 318.7 48.0 Q 318.7 48.9, 319.1 49.4 Q 319.4 49.8, 320.1 49.8 " fill="#FF0000"/>
<path class="atom-32" d="M 465.5 83.8 L 467.0 86.1 Q 467.1 86.4, 467.4 86.8 Q 467.6 87.2, 467.6 87.2 L 467.6 83.8 L 468.2 83.8 L 468.2 88.3 L 467.6 88.3 L 466.0 85.7 Q 465.8 85.3, 465.6 85.0 Q 465.5 84.6, 465.4 84.5 L 465.4 88.3 L 464.8 88.3 L 464.8 83.8 L 465.5 83.8 " fill="#0000FF"/>
<path class="atom-35" d="M 526.5 68.1 Q 526.6 68.1, 526.8 68.2 Q 527.0 68.3, 527.2 68.4 Q 527.5 68.4, 527.7 68.4 Q 528.1 68.4, 528.4 68.2 Q 528.6 68.0, 528.6 67.6 Q 528.6 67.4, 528.5 67.2 Q 528.4 67.1, 528.2 67.0 Q 528.0 66.9, 527.7 66.8 Q 527.3 66.7, 527.0 66.6 Q 526.8 66.5, 526.6 66.2 Q 526.5 66.0, 526.5 65.6 Q 526.5 65.0, 526.8 64.7 Q 527.2 64.3, 528.0 64.3 Q 528.5 64.3, 529.1 64.6 L 528.9 65.1 Q 528.4 64.8, 528.0 64.8 Q 527.6 64.8, 527.3 65.0 Q 527.1 65.2, 527.1 65.5 Q 527.1 65.7, 527.2 65.9 Q 527.3 66.0, 527.5 66.1 Q 527.7 66.2, 528.0 66.3 Q 528.4 66.4, 528.6 66.6 Q 528.9 66.7, 529.1 66.9 Q 529.2 67.2, 529.2 67.6 Q 529.2 68.2, 528.8 68.6 Q 528.4 68.9, 527.7 68.9 Q 527.3 68.9, 527.0 68.8 Q 526.7 68.7, 526.4 68.6 L 526.5 68.1 " fill="#000000"/>
<path class="atom-35" d="M 529.7 64.3 L 530.3 64.3 L 530.3 64.9 L 529.7 64.9 L 529.7 64.3 M 529.7 65.5 L 530.3 65.5 L 530.3 68.8 L 529.7 68.8 L 529.7 65.5 " fill="#000000"/>
<path class="atom-36" d="M 541.1 74.4 Q 541.1 74.4, 541.3 74.5 Q 541.5 74.6, 541.8 74.7 Q 542.0 74.7, 542.2 74.7 Q 542.6 74.7, 542.9 74.5 Q 543.1 74.3, 543.1 74.0 Q 543.1 73.7, 543.0 73.6 Q 542.9 73.4, 542.7 73.3 Q 542.5 73.2, 542.2 73.1 Q 541.8 73.0, 541.6 72.9 Q 541.3 72.8, 541.1 72.6 Q 541.0 72.3, 541.0 71.9 Q 541.0 71.3, 541.4 71.0 Q 541.7 70.6, 542.5 70.6 Q 543.0 70.6, 543.6 70.9 L 543.5 71.4 Q 542.9 71.2, 542.5 71.2 Q 542.1 71.2, 541.9 71.3 Q 541.6 71.5, 541.6 71.8 Q 541.6 72.1, 541.7 72.2 Q 541.9 72.4, 542.0 72.5 Q 542.2 72.5, 542.5 72.6 Q 542.9 72.8, 543.2 72.9 Q 543.4 73.0, 543.6 73.3 Q 543.8 73.5, 543.8 74.0 Q 543.8 74.6, 543.3 74.9 Q 542.9 75.2, 542.2 75.2 Q 541.8 75.2, 541.5 75.2 Q 541.2 75.1, 540.9 74.9 L 541.1 74.4 " fill="#CCCC00"/>
<path class="atom-37" d="M 542.3 90.2 Q 542.4 90.2, 542.6 90.3 Q 542.8 90.4, 543.0 90.4 Q 543.2 90.5, 543.5 90.5 Q 543.9 90.5, 544.1 90.3 Q 544.4 90.1, 544.4 89.7 Q 544.4 89.5, 544.3 89.3 Q 544.1 89.2, 544.0 89.1 Q 543.8 89.0, 543.4 88.9 Q 543.0 88.8, 542.8 88.7 Q 542.6 88.6, 542.4 88.3 Q 542.2 88.1, 542.2 87.7 Q 542.2 87.1, 542.6 86.8 Q 543.0 86.4, 543.8 86.4 Q 544.3 86.4, 544.9 86.7 L 544.7 87.1 Q 544.2 86.9, 543.8 86.9 Q 543.3 86.9, 543.1 87.1 Q 542.9 87.3, 542.9 87.6 Q 542.9 87.8, 543.0 88.0 Q 543.1 88.1, 543.3 88.2 Q 543.5 88.3, 543.8 88.4 Q 544.2 88.5, 544.4 88.6 Q 544.7 88.8, 544.8 89.0 Q 545.0 89.3, 545.0 89.7 Q 545.0 90.3, 544.6 90.7 Q 544.2 91.0, 543.5 91.0 Q 543.1 91.0, 542.8 90.9 Q 542.5 90.8, 542.1 90.7 L 542.3 90.2 " fill="#000000"/>
<path class="atom-37" d="M 545.5 86.4 L 546.1 86.4 L 546.1 86.9 L 545.5 86.9 L 545.5 86.4 M 545.5 87.6 L 546.1 87.6 L 546.1 90.9 L 545.5 90.9 L 545.5 87.6 " fill="#000000"/>
<path class="atom-38" d="M 527.0 88.2 L 529.7 88.2 L 529.7 88.7 L 527.6 88.7 L 527.6 90.1 L 529.5 90.1 L 529.5 90.6 L 527.6 90.6 L 527.6 92.7 L 527.0 92.7 L 527.0 88.2 " fill="#33CCCC"/>
<path class="atom-39" d="M 544.5 102.2 L 547.2 102.2 L 547.2 102.7 L 545.1 102.7 L 545.1 104.0 L 547.0 104.0 L 547.0 104.5 L 545.1 104.5 L 545.1 106.6 L 544.5 106.6 L 544.5 102.2 " fill="#33CCCC"/>
<path class="atom-41" d="M 564.9 73.9 Q 565.0 73.9, 565.2 74.0 Q 565.4 74.1, 565.6 74.1 Q 565.9 74.2, 566.1 74.2 Q 566.5 74.2, 566.8 74.0 Q 567.0 73.8, 567.0 73.4 Q 567.0 73.2, 566.9 73.0 Q 566.8 72.9, 566.6 72.8 Q 566.4 72.7, 566.1 72.6 Q 565.7 72.5, 565.4 72.4 Q 565.2 72.3, 565.0 72.0 Q 564.9 71.8, 564.9 71.4 Q 564.9 70.8, 565.2 70.4 Q 565.6 70.1, 566.4 70.1 Q 566.9 70.1, 567.5 70.3 L 567.3 70.8 Q 566.8 70.6, 566.4 70.6 Q 566.0 70.6, 565.7 70.8 Q 565.5 71.0, 565.5 71.3 Q 565.5 71.5, 565.6 71.7 Q 565.7 71.8, 565.9 71.9 Q 566.1 72.0, 566.4 72.1 Q 566.8 72.2, 567.0 72.3 Q 567.3 72.5, 567.5 72.7 Q 567.6 73.0, 567.6 73.4 Q 567.6 74.0, 567.2 74.4 Q 566.8 74.7, 566.1 74.7 Q 565.7 74.7, 565.4 74.6 Q 565.1 74.5, 564.8 74.4 L 564.9 73.9 " fill="#CCCC00"/>
<path class="atom-41" d="M 568.3 70.1 L 568.9 70.1 L 568.9 72.0 L 571.2 72.0 L 571.2 70.1 L 571.8 70.1 L 571.8 74.6 L 571.2 74.6 L 571.2 72.5 L 568.9 72.5 L 568.9 74.6 L 568.3 74.6 L 568.3 70.1 " fill="#CCCC00"/>
<path class="atom-43" d="M 583.7 95.6 L 586.4 95.6 L 586.4 96.1 L 584.3 96.1 L 584.3 97.5 L 586.1 97.5 L 586.1 98.0 L 584.3 98.0 L 584.3 100.1 L 583.7 100.1 L 583.7 95.6 " fill="#33CCCC"/>
<path class="atom-0" d="M 538.2,39.2 L 538.2,39.2 L 538.2,39.3 L 538.2,39.3 L 538.2,39.3 L 538.2,39.3 L 538.2,39.4 L 538.2,39.4 L 538.2,39.4 L 538.1,39.4 L 538.1,39.4 L 538.1,39.5 L 538.1,39.5 L 538.0,39.5 L 538.0,39.5 L 538.0,39.5 L 538.0,39.5 L 537.9,39.5 L 537.9,39.5 L 537.9,39.5 L 537.9,39.5 L 537.8,39.5 L 537.8,39.5 L 537.8,39.5 L 537.8,39.5 L 537.7,39.5 L 537.7,39.5 L 537.7,39.4 L 537.7,39.4 L 537.7,39.4 L 537.6,39.4 L 537.6,39.4 L 537.6,39.3 L 537.6,39.3 L 537.6,39.3 L 537.6,39.2 L 537.6,39.2 L 537.6,39.2 L 537.6,39.2 L 537.6,39.1 L 537.6,39.1 L 537.6,39.1 L 537.6,39.1 L 537.6,39.0 L 537.7,39.0 L 537.7,39.0 L 537.7,39.0 L 537.7,39.0 L 537.7,38.9 L 537.8,38.9 L 537.8,38.9 L 537.8,38.9 L 537.8,38.9 L 537.9,38.9 L 537.9,38.9 L 537.9,38.9 L 537.9,38.9 L 538.0,38.9 L 538.0,38.9 L 538.0,38.9 L 538.0,38.9 L 538.1,38.9 L 538.1,38.9 L 538.1,39.0 L 538.1,39.0 L 538.2,39.0 L 538.2,39.0 L 538.2,39.0 L 538.2,39.1 L 538.2,39.1 L 538.2,39.1 L 538.2,39.2 L 538.2,39.2 L 538.2,39.2 L 537.9,39.2 Z" style="fill:#000000;fill-rule:evenodd;fill-opacity:1;stroke:#000000;stroke-width:0.0px;stroke-linecap:butt;stroke-linejoin:miter;stroke-opacity:1;"/>
<path class="atom-1" d="M 528.1,51.1 L 528.1,51.1 L 528.1,51.1 L 528.1,51.1 L 528.1,51.2 L 528.1,51.2 L 528.1,51.2 L 528.1,51.2 L 528.1,51.3 L 528.1,51.3 L 528.0,51.3 L 528.0,51.3 L 528.0,51.3 L 528.0,51.4 L 527.9,51.4 L 527.9,51.4 L 527.9,51.4 L 527.9,51.4 L 527.8,51.4 L 527.8,51.4 L 527.8,51.4 L 527.8,51.4 L 527.7,51.4 L 527.7,51.4 L 527.7,51.3 L 527.7,51.3 L 527.6,51.3 L 527.6,51.3 L 527.6,51.3 L 527.6,51.3 L 527.6,51.2 L 527.5,51.2 L 527.5,51.2 L 527.5,51.2 L 527.5,51.1 L 527.5,51.1 L 527.5,51.1 L 527.5,51.1 L 527.5,51.0 L 527.5,51.0 L 527.5,51.0 L 527.5,50.9 L 527.5,50.9 L 527.6,50.9 L 527.6,50.9 L 527.6,50.9 L 527.6,50.8 L 527.6,50.8 L 527.7,50.8 L 527.7,50.8 L 527.7,50.8 L 527.7,50.8 L 527.8,50.8 L 527.8,50.8 L 527.8,50.8 L 527.8,50.8 L 527.9,50.8 L 527.9,50.8 L 527.9,50.8 L 527.9,50.8 L 528.0,50.8 L 528.0,50.8 L 528.0,50.8 L 528.0,50.8 L 528.1,50.8 L 528.1,50.9 L 528.1,50.9 L 528.1,50.9 L 528.1,50.9 L 528.1,51.0 L 528.1,51.0 L 528.1,51.0 L 528.1,51.0 L 528.1,51.1 L 527.8,51.1 Z" style="fill:#000000;fill-rule:evenodd;fill-opacity:1;stroke:#000000;stroke-width:0.0px;stroke-linecap:butt;stroke-linejoin:miter;stroke-opacity:1;"/>
<path class="atom-35" d="M 531.6,66.6 L 531.6,66.6 L 531.6,66.6 L 531.5,66.6 L 531.5,66.7 L 531.5,66.7 L 531.5,66.7 L 531.5,66.7 L 531.5,66.8 L 531.5,66.8 L 531.4,66.8 L 531.4,66.8 L 531.4,66.8 L 531.4,66.8 L 531.4,66.8 L 531.3,66.9 L 531.3,66.9 L 531.3,66.9 L 531.2,66.9 L 531.2,66.9 L 531.2,66.9 L 531.2,66.9 L 531.1,66.9 L 531.1,66.8 L 531.1,66.8 L 531.1,66.8 L 531.0,66.8 L 531.0,66.8 L 531.0,66.8 L 531.0,66.7 L 531.0,66.7 L 531.0,66.7 L 530.9,66.7 L 530.9,66.6 L 530.9,66.6 L 530.9,66.6 L 530.9,66.6 L 530.9,66.5 L 530.9,66.5 L 530.9,66.5 L 530.9,66.5 L 530.9,66.4 L 531.0,66.4 L 531.0,66.4 L 531.0,66.4 L 531.0,66.3 L 531.0,66.3 L 531.0,66.3 L 531.1,66.3 L 531.1,66.3 L 531.1,66.3 L 531.1,66.2 L 531.2,66.2 L 531.2,66.2 L 531.2,66.2 L 531.2,66.2 L 531.3,66.2 L 531.3,66.2 L 531.3,66.2 L 531.4,66.3 L 531.4,66.3 L 531.4,66.3 L 531.4,66.3 L 531.4,66.3 L 531.5,66.3 L 531.5,66.3 L 531.5,66.4 L 531.5,66.4 L 531.5,66.4 L 531.5,66.4 L 531.5,66.5 L 531.6,66.5 L 531.6,66.5 L 531.6,66.6 L 531.2,66.6 Z" style="fill:#000000;fill-rule:evenodd;fill-opacity:1;stroke:#000000;stroke-width:0.0px;stroke-linecap:butt;stroke-linejoin:miter;stroke-opacity:1;"/>
<path class="bond-0 atom-0 atom-1" d="M 833.3,40.9 L 830.5,44.1" style="fill:none;fill-rule:evenodd;stroke:#FF0000;stroke-width:2.0px;stroke-linecap:butt;stroke-linejoin:miter;stroke-opacity:1"/>
<path class="bond-0 atom-0 atom-1" d="M 830.5,44.1 L 827.8,47.3" style="fill:none;fill-rule:evenodd;stroke:#000000;stroke-width:2.0px;stroke-linecap:butt;stroke-linejoin:miter;stroke-opacity:1"/>
<path class="bond-1 atom-1 atom-2" d="M 823.5,50.0 L 809.7,48.9" style="fill:none;fill-rule:evenodd;stroke:#000000;stroke-width:2.0px;stroke-linecap:butt;stroke-linejoin:miter;stroke-opacity:1"/>
<path class="bond-2 atom-2 atom-3" d="M 809.7,48.9 L 807.2,54.9" style="fill:none;fill-rule:evenodd;stroke:#000000;stroke-width:2.0px;stroke-linecap:butt;stroke-linejoin:miter;stroke-opacity:1"/>
<path class="bond-2 atom-2 atom-3" d="M 807.2,54.9 L 804.8,60.8" style="fill:none;fill-rule:evenodd;stroke:#0000FF;stroke-width:2.0px;stroke-linecap:butt;stroke-linejoin:miter;stroke-opacity:1"/>
<path class="bond-3 atom-3 atom-4" d="M 801.4,64.1 L 794.8,65.7" style="fill:none;fill-rule:evenodd;stroke:#0000FF;stroke-width:2.0px;stroke-linecap:butt;stroke-linejoin:miter;stroke-opacity:1"/>
<path class="bond-3 atom-3 atom-4" d="M 794.8,65.7 L 788.2,67.3" style="fill:none;fill-rule:evenodd;stroke:#000000;stroke-width:2.0px;stroke-linecap:butt;stroke-linejoin:miter;stroke-opacity:1"/>
<path class="bond-4 atom-4 atom-5" d="M 788.2,67.3 L 777.3,55.9" style="fill:none;fill-rule:evenodd;stroke:#000000;stroke-width:2.0px;stroke-linecap:butt;stroke-linejoin:miter;stroke-opacity:1"/>
<path class="bond-4 atom-4 atom-5" d="M 785.5,68.0 L 776.5,58.6" style="fill:none;fill-rule:evenodd;stroke:#000000;stroke-width:2.0px;stroke-linecap:butt;stroke-linejoin:miter;stroke-opacity:1"/>
<path class="bond-5 atom-5 atom-6" d="M 777.3,55.9 L 761.9,59.6" style="fill:none;fill-rule:evenodd;stroke:#000000;stroke-width:2.0px;stroke-linecap:butt;stroke-linejoin:miter;stroke-opacity:1"/>
<path class="bond-6 atom-6 atom-7" d="M 761.9,59.6 L 757.4,74.9" style="fill:none;fill-rule:evenodd;stroke:#000000;stroke-width:2.0px;stroke-linecap:butt;stroke-linejoin:miter;stroke-opacity:1"/>
<path class="bond-6 atom-6 atom-7" d="M 763.8,61.7 L 760.2,74.2" style="fill:none;fill-rule:evenodd;stroke:#000000;stroke-width:2.0px;stroke-linecap:butt;stroke-linejoin:miter;stroke-opacity:1"/>
<path class="bond-7 atom-7 atom-8" d="M 757.4,74.9 L 750.8,76.5" style="fill:none;fill-rule:evenodd;stroke:#000000;stroke-width:2.0px;stroke-linecap:butt;stroke-linejoin:miter;stroke-opacity:1"/>
<path class="bond-7 atom-7 atom-8" d="M 750.8,76.5 L 744.3,78.1" style="fill:none;fill-rule:evenodd;stroke:#0000FF;stroke-width:2.0px;stroke-linecap:butt;stroke-linejoin:miter;stroke-opacity:1"/>
<path class="bond-8 atom-8 atom-9" d="M 739.8,76.3 L 735.4,71.7" style="fill:none;fill-rule:evenodd;stroke:#0000FF;stroke-width:2.0px;stroke-linecap:butt;stroke-linejoin:miter;stroke-opacity:1"/>
<path class="bond-8 atom-8 atom-9" d="M 735.4,71.7 L 731.1,67.1" style="fill:none;fill-rule:evenodd;stroke:#000000;stroke-width:2.0px;stroke-linecap:butt;stroke-linejoin:miter;stroke-opacity:1"/>
<path class="bond-9 atom-9 atom-10" d="M 731.1,67.1 L 715.7,70.9" style="fill:none;fill-rule:evenodd;stroke:#000000;stroke-width:2.0px;stroke-linecap:butt;stroke-linejoin:miter;stroke-opacity:1"/>
<path class="bond-10 atom-10 atom-11" d="M 715.7,70.9 L 713.9,77.1" style="fill:none;fill-rule:evenodd;stroke:#000000;stroke-width:2.0px;stroke-linecap:butt;stroke-linejoin:miter;stroke-opacity:1"/>
<path class="bond-10 atom-10 atom-11" d="M 713.9,77.1 L 712.0,83.3" style="fill:none;fill-rule:evenodd;stroke:#0000FF;stroke-width:2.0px;stroke-linecap:butt;stroke-linejoin:miter;stroke-opacity:1"/>
<path class="bond-11 atom-11 atom-12" d="M 709.0,86.7 L 702.4,88.3" style="fill:none;fill-rule:evenodd;stroke:#0000FF;stroke-width:2.0px;stroke-linecap:butt;stroke-linejoin:miter;stroke-opacity:1"/>
<path class="bond-11 atom-11 atom-12" d="M 702.4,88.3 L 695.8,89.9" style="fill:none;fill-rule:evenodd;stroke:#000000;stroke-width:2.0px;stroke-linecap:butt;stroke-linejoin:miter;stroke-opacity:1"/>
<path class="bond-12 atom-12 atom-13" d="M 694.8,88.9 L 692.9,95.4" style="fill:none;fill-rule:evenodd;stroke:#000000;stroke-width:2.0px;stroke-linecap:butt;stroke-linejoin:miter;stroke-opacity:1"/>
<path class="bond-12 atom-12 atom-13" d="M 692.9,95.4 L 691.0,102.0" style="fill:none;fill-rule:evenodd;stroke:#FF0000;stroke-width:2.0px;stroke-linecap:butt;stroke-linejoin:miter;stroke-opacity:1"/>
<path class="bond-12 atom-12 atom-13" d="M 697.2,89.5 L 695.3,96.1" style="fill:none;fill-rule:evenodd;stroke:#000000;stroke-width:2.0px;stroke-linecap:butt;stroke-linejoin:miter;stroke-opacity:1"/>
<path class="bond-12 atom-12 atom-13" d="M 695.3,96.1 L 693.4,102.6" style="fill:none;fill-rule:evenodd;stroke:#FF0000;stroke-width:2.0px;stroke-linecap:butt;stroke-linejoin:miter;stroke-opacity:1"/>
<path class="bond-13 atom-12 atom-14" d="M 695.8,89.9 L 691.5,85.3" style="fill:none;fill-rule:evenodd;stroke:#000000;stroke-width:2.0px;stroke-linecap:butt;stroke-linejoin:miter;stroke-opacity:1"/>
<path class="bond-13 atom-12 atom-14" d="M 691.5,85.3 L 687.1,80.8" style="fill:none;fill-rule:evenodd;stroke:#0000FF;stroke-width:2.0px;stroke-linecap:butt;stroke-linejoin:miter;stroke-opacity:1"/>
<path class="bond-14 atom-14 atom-15" d="M 682.6,79.0 L 676.0,80.6" style="fill:none;fill-rule:evenodd;stroke:#0000FF;stroke-width:2.0px;stroke-linecap:butt;stroke-linejoin:miter;stroke-opacity:1"/>
<path class="bond-14 atom-14 atom-15" d="M 676.0,80.6 L 669.5,82.2" style="fill:none;fill-rule:evenodd;stroke:#000000;stroke-width:2.0px;stroke-linecap:butt;stroke-linejoin:miter;stroke-opacity:1"/>
<path class="bond-15 atom-15 atom-16" d="M 669.5,82.2 L 658.5,70.7" style="fill:none;fill-rule:evenodd;stroke:#000000;stroke-width:2.0px;stroke-linecap:butt;stroke-linejoin:miter;stroke-opacity:1"/>
<path class="bond-16 atom-16 atom-17" d="M 658.5,70.7 L 654.1,85.9" style="fill:none;fill-rule:evenodd;stroke:#000000;stroke-width:2.0px;stroke-linecap:butt;stroke-linejoin:miter;stroke-opacity:1"/>
<path class="bond-17 atom-17 atom-18" d="M 654.1,85.9 L 638.7,89.7" style="fill:none;fill-rule:evenodd;stroke:#000000;stroke-width:2.0px;stroke-linecap:butt;stroke-linejoin:miter;stroke-opacity:1"/>
<path class="bond-18 atom-18 atom-19" d="M 638.7,89.7 L 649.6,101.2" style="fill:none;fill-rule:evenodd;stroke:#000000;stroke-width:2.0px;stroke-linecap:butt;stroke-linejoin:miter;stroke-opacity:1"/>
<path class="bond-19 atom-19 atom-20" d="M 649.6,101.2 L 665.0,97.4" style="fill:none;fill-rule:evenodd;stroke:#000000;stroke-width:2.0px;stroke-linecap:butt;stroke-linejoin:miter;stroke-opacity:1"/>
<path class="bond-20 atom-20 atom-21" d="M 665.0,97.4 L 635.9,78.4" style="fill:none;fill-rule:evenodd;stroke:#000000;stroke-width:2.0px;stroke-linecap:butt;stroke-linejoin:miter;stroke-opacity:1"/>
<path class="bond-21 atom-21 atom-22" d="M 635.9,78.4 L 632.1,63.0" style="fill:none;fill-rule:evenodd;stroke:#000000;stroke-width:2.0px;stroke-linecap:butt;stroke-linejoin:miter;stroke-opacity:1"/>
<path class="bond-22 atom-22 atom-23" d="M 632.1,63.0 L 628.0,58.6" style="fill:none;fill-rule:evenodd;stroke:#000000;stroke-width:2.0px;stroke-linecap:butt;stroke-linejoin:miter;stroke-opacity:1"/>
<path class="bond-22 atom-22 atom-23" d="M 628.0,58.6 L 623.8,54.3" style="fill:none;fill-rule:evenodd;stroke:#FF0000;stroke-width:2.0px;stroke-linecap:butt;stroke-linejoin:miter;stroke-opacity:1"/>
<path class="bond-23 atom-22 atom-24" d="M 632.1,63.0 L 627.7,78.2" style="fill:none;fill-rule:evenodd;stroke:#000000;stroke-width:2.0px;stroke-linecap:butt;stroke-linejoin:miter;stroke-opacity:1"/>
<path class="bond-24 atom-22 atom-25" d="M 632.1,63.0 L 647.6,59.3" style="fill:none;fill-rule:evenodd;stroke:#000000;stroke-width:2.0px;stroke-linecap:butt;stroke-linejoin:miter;stroke-opacity:1"/>
<path class="bond-25 atom-11 atom-26" d="M 713.5,88.5 L 717.8,93.0" style="fill:none;fill-rule:evenodd;stroke:#0000FF;stroke-width:2.0px;stroke-linecap:butt;stroke-linejoin:miter;stroke-opacity:1"/>
<path class="bond-25 atom-11 atom-26" d="M 717.8,93.0 L 722.2,97.6" style="fill:none;fill-rule:evenodd;stroke:#000000;stroke-width:2.0px;stroke-linecap:butt;stroke-linejoin:miter;stroke-opacity:1"/>
<path class="bond-26 atom-26 atom-27" d="M 722.2,97.6 L 717.7,112.8" style="fill:none;fill-rule:evenodd;stroke:#000000;stroke-width:2.0px;stroke-linecap:butt;stroke-linejoin:miter;stroke-opacity:1"/>
<path class="bond-26 atom-26 atom-27" d="M 724.1,99.6 L 720.5,112.1" style="fill:none;fill-rule:evenodd;stroke:#000000;stroke-width:2.0px;stroke-linecap:butt;stroke-linejoin:miter;stroke-opacity:1"/>
<path class="bond-27 atom-27 atom-28" d="M 717.7,112.8 L 728.7,124.3" style="fill:none;fill-rule:evenodd;stroke:#000000;stroke-width:2.0px;stroke-linecap:butt;stroke-linejoin:miter;stroke-opacity:1"/>
<path class="bond-28 atom-28 atom-29" d="M 728.7,124.3 L 744.1,120.5" style="fill:none;fill-rule:evenodd;stroke:#000000;stroke-width:2.0px;stroke-linecap:butt;stroke-linejoin:miter;stroke-opacity:1"/>
<path class="bond-28 atom-28 atom-29" d="M 729.5,121.6 L 742.1,118.5" style="fill:none;fill-rule:evenodd;stroke:#000000;stroke-width:2.0px;stroke-linecap:butt;stroke-linejoin:miter;stroke-opacity:1"/>
<path class="bond-29 atom-29 atom-30" d="M 744.1,120.5 L 748.5,105.3" style="fill:none;fill-rule:evenodd;stroke:#000000;stroke-width:2.0px;stroke-linecap:butt;stroke-linejoin:miter;stroke-opacity:1"/>
<path class="bond-30 atom-30 atom-31" d="M 748.5,105.3 L 737.6,93.8" style="fill:none;fill-rule:evenodd;stroke:#000000;stroke-width:2.0px;stroke-linecap:butt;stroke-linejoin:miter;stroke-opacity:1"/>
<path class="bond-30 atom-30 atom-31" d="M 745.8,106.0 L 736.8,96.5" style="fill:none;fill-rule:evenodd;stroke:#000000;stroke-width:2.0px;stroke-linecap:butt;stroke-linejoin:miter;stroke-opacity:1"/>
<path class="bond-31 atom-7 atom-32" d="M 757.4,74.9 L 761.8,79.4" style="fill:none;fill-rule:evenodd;stroke:#000000;stroke-width:2.0px;stroke-linecap:butt;stroke-linejoin:miter;stroke-opacity:1"/>
<path class="bond-31 atom-7 atom-32" d="M 761.8,79.4 L 766.1,84.0" style="fill:none;fill-rule:evenodd;stroke:#0000FF;stroke-width:2.0px;stroke-linecap:butt;stroke-linejoin:miter;stroke-opacity:1"/>
<path class="bond-32 atom-32 atom-33" d="M 770.6,85.8 L 777.2,84.2" style="fill:none;fill-rule:evenodd;stroke:#0000FF;stroke-width:2.0px;stroke-linecap:butt;stroke-linejoin:miter;stroke-opacity:1"/>
<path class="bond-32 atom-32 atom-33" d="M 777.2,84.2 L 783.8,82.6" style="fill:none;fill-rule:evenodd;stroke:#000000;stroke-width:2.0px;stroke-linecap:butt;stroke-linejoin:miter;stroke-opacity:1"/>
<path class="bond-32 atom-32 atom-33" d="M 770.0,83.4 L 775.9,82.0" style="fill:none;fill-rule:evenodd;stroke:#0000FF;stroke-width:2.0px;stroke-linecap:butt;stroke-linejoin:miter;stroke-opacity:1"/>
<path class="bond-32 atom-32 atom-33" d="M 775.9,82.0 L 781.8,80.5" style="fill:none;fill-rule:evenodd;stroke:#000000;stroke-width:2.0px;stroke-linecap:butt;stroke-linejoin:miter;stroke-opacity:1"/>
<path class="bond-33 atom-3 atom-34" d="M 805.9,65.5 L 810.8,69.7" style="fill:none;fill-rule:evenodd;stroke:#0000FF;stroke-width:2.0px;stroke-linecap:butt;stroke-linejoin:miter;stroke-opacity:1"/>
<path class="bond-33 atom-3 atom-34" d="M 810.8,69.7 L 815.7,73.8" style="fill:none;fill-rule:evenodd;stroke:#000000;stroke-width:2.0px;stroke-linecap:butt;stroke-linejoin:miter;stroke-opacity:1"/>
<path class="bond-34 atom-34 atom-35" d="M 815.7,73.8 L 827.2,66.7" style="fill:none;fill-rule:evenodd;stroke:#000000;stroke-width:2.0px;stroke-linecap:butt;stroke-linejoin:miter;stroke-opacity:1"/>
<path class="bond-35 atom-35 atom-36" d="M 832.2,66.7 L 837.1,68.7" style="fill:none;fill-rule:evenodd;stroke:#000000;stroke-width:2.0px;stroke-linecap:butt;stroke-linejoin:miter;stroke-opacity:1"/>
<path class="bond-35 atom-35 atom-36" d="M 837.1,68.7 L 841.9,70.7" style="fill:none;fill-rule:evenodd;stroke:#CCCC00;stroke-width:2.0px;stroke-linecap:butt;stroke-linejoin:miter;stroke-opacity:1"/>
<path class="bond-36 atom-36 atom-37" d="M 844.3,74.4 L 845.0,79.4" style="fill:none;fill-rule:evenodd;stroke:#CCCC00;stroke-width:2.0px;stroke-linecap:butt;stroke-linejoin:miter;stroke-opacity:1"/>
<path class="bond-36 atom-36 atom-37" d="M 845.0,79.4 L 845.6,84.5" style="fill:none;fill-rule:evenodd;stroke:#000000;stroke-width:2.0px;stroke-linecap:butt;stroke-linejoin:miter;stroke-opacity:1"/>
<path class="bond-37 atom-37 atom-38" d="M 843.5,87.6 L 837.8,88.3" style="fill:none;fill-rule:evenodd;stroke:#000000;stroke-width:2.0px;stroke-linecap:butt;stroke-linejoin:miter;stroke-opacity:1"/>
<path class="bond-37 atom-37 atom-38" d="M 837.8,88.3 L 832.2,89.1" style="fill:none;fill-rule:evenodd;stroke:#33CCCC;stroke-width:2.0px;stroke-linecap:butt;stroke-linejoin:miter;stroke-opacity:1"/>
<path class="bond-38 atom-37 atom-39" d="M 846.4,90.1 L 847.1,95.2" style="fill:none;fill-rule:evenodd;stroke:#000000;stroke-width:2.0px;stroke-linecap:butt;stroke-linejoin:miter;stroke-opacity:1"/>
<path class="bond-38 atom-37 atom-39" d="M 847.1,95.2 L 847.8,100.3" style="fill:none;fill-rule:evenodd;stroke:#00CC00;stroke-width:2.0px;stroke-linecap:butt;stroke-linejoin:miter;stroke-opacity:1"/>
<path class="bond-39 atom-37 atom-40" d="M 848.5,86.9 L 861.7,85.1" style="fill:none;fill-rule:evenodd;stroke:#000000;stroke-width:2.0px;stroke-linecap:butt;stroke-linejoin:miter;stroke-opacity:1"/>
<path class="bond-40 atom-40 atom-41" d="M 861.7,85.1 L 864.2,79.2" style="fill:none;fill-rule:evenodd;stroke:#000000;stroke-width:2.0px;stroke-linecap:butt;stroke-linejoin:miter;stroke-opacity:1"/>
<path class="bond-40 atom-40 atom-41" d="M 864.2,79.2 L 866.6,73.2" style="fill:none;fill-rule:evenodd;stroke:#33CCCC;stroke-width:2.0px;stroke-linecap:butt;stroke-linejoin:miter;stroke-opacity:1"/>
<path class="bond-41 atom-40 atom-42" d="M 861.7,85.1 L 871.4,97.6" style="fill:none;fill-rule:evenodd;stroke:#000000;stroke-width:2.0px;stroke-linecap:butt;stroke-linejoin:miter;stroke-opacity:1"/>
<path class="bond-42 atom-42 atom-43" d="M 871.4,97.6 L 875.3,102.7" style="fill:none;fill-rule:evenodd;stroke:#000000;stroke-width:2.0px;stroke-linecap:butt;stroke-linejoin:miter;stroke-opacity:1"/>
<path class="bond-42 atom-42 atom-43" d="M 875.3,102.7 L 879.2,107.8" style="fill:none;fill-rule:evenodd;stroke:#33CCCC;stroke-width:2.0px;stroke-linecap:butt;stroke-linejoin:miter;stroke-opacity:1"/>
<path class="bond-43 atom-42 atom-44" d="M 871.4,97.6 L 876.8,93.5" style="fill:none;fill-rule:evenodd;stroke:#000000;stroke-width:2.0px;stroke-linecap:butt;stroke-linejoin:miter;stroke-opacity:1"/>
<path class="bond-43 atom-42 atom-44" d="M 876.8,93.5 L 882.1,89.4" style="fill:none;fill-rule:evenodd;stroke:#33CCCC;stroke-width:2.0px;stroke-linecap:butt;stroke-linejoin:miter;stroke-opacity:1"/>
<path class="bond-44 atom-42 atom-45" d="M 871.4,97.6 L 866.1,101.8" style="fill:none;fill-rule:evenodd;stroke:#000000;stroke-width:2.0px;stroke-linecap:butt;stroke-linejoin:miter;stroke-opacity:1"/>
<path class="bond-44 atom-42 atom-45" d="M 866.1,101.8 L 860.7,105.9" style="fill:none;fill-rule:evenodd;stroke:#33CCCC;stroke-width:2.0px;stroke-linecap:butt;stroke-linejoin:miter;stroke-opacity:1"/>
<path class="bond-45 atom-35 atom-1" d="M 828.5,62.7 L 826.2,53.0" style="fill:none;fill-rule:evenodd;stroke:#000000;stroke-width:2.0px;stroke-linecap:butt;stroke-linejoin:miter;stroke-opacity:1"/>
<path class="bond-46 atom-33 atom-4" d="M 783.8,82.6 L 788.2,67.3" style="fill:none;fill-rule:evenodd;stroke:#000000;stroke-width:2.0px;stroke-linecap:butt;stroke-linejoin:miter;stroke-opacity:1"/>
<path class="bond-47 atom-31 atom-8" d="M 737.6,93.8 L 739.4,87.6" style="fill:none;fill-rule:evenodd;stroke:#000000;stroke-width:2.0px;stroke-linecap:butt;stroke-linejoin:miter;stroke-opacity:1"/>
<path class="bond-47 atom-31 atom-8" d="M 739.4,87.6 L 741.2,81.4" style="fill:none;fill-rule:evenodd;stroke:#0000FF;stroke-width:2.0px;stroke-linecap:butt;stroke-linejoin:miter;stroke-opacity:1"/>
<path class="bond-48 atom-20 atom-15" d="M 665.0,97.4 L 669.5,82.2" style="fill:none;fill-rule:evenodd;stroke:#000000;stroke-width:2.0px;stroke-linecap:butt;stroke-linejoin:miter;stroke-opacity:1"/>
<path class="bond-49 atom-31 atom-26" d="M 737.6,93.8 L 722.2,97.6" style="fill:none;fill-rule:evenodd;stroke:#000000;stroke-width:2.0px;stroke-linecap:butt;stroke-linejoin:miter;stroke-opacity:1"/>
<path class="bond-50 atom-25 atom-16" d="M 647.6,59.3 L 658.5,70.7" style="fill:none;fill-rule:evenodd;stroke:#000000;stroke-width:2.0px;stroke-linecap:butt;stroke-linejoin:miter;stroke-opacity:1"/>
<path class="bond-51 atom-24 atom-18" d="M 627.7,78.2 L 638.7,89.7" style="fill:none;fill-rule:evenodd;stroke:#000000;stroke-width:2.0px;stroke-linecap:butt;stroke-linejoin:miter;stroke-opacity:1"/>
<path d="M 810.3,49.0 L 809.7,48.9 L 809.5,49.2" style="fill:none;stroke:#000000;stroke-width:2.0px;stroke-linecap:butt;stroke-linejoin:miter;stroke-opacity:1;"/>
<path d="M 777.8,56.5 L 777.3,55.9 L 776.5,56.1" style="fill:none;stroke:#000000;stroke-width:2.0px;stroke-linecap:butt;stroke-linejoin:miter;stroke-opacity:1;"/>
<path d="M 762.6,59.4 L 761.9,59.6 L 761.7,60.4" style="fill:none;stroke:#000000;stroke-width:2.0px;stroke-linecap:butt;stroke-linejoin:miter;stroke-opacity:1;"/>
<path d="M 731.3,67.4 L 731.1,67.1 L 730.3,67.3" style="fill:none;stroke:#000000;stroke-width:2.0px;stroke-linecap:butt;stroke-linejoin:miter;stroke-opacity:1;"/>
<path d="M 716.4,70.7 L 715.7,70.9 L 715.6,71.2" style="fill:none;stroke:#000000;stroke-width:2.0px;stroke-linecap:butt;stroke-linejoin:miter;stroke-opacity:1;"/>
<path d="M 696.1,89.8 L 695.8,89.9 L 695.6,89.7" style="fill:none;stroke:#000000;stroke-width:2.0px;stroke-linecap:butt;stroke-linejoin:miter;stroke-opacity:1;"/>
<path d="M 654.3,85.2 L 654.1,85.9 L 653.3,86.1" style="fill:none;stroke:#000000;stroke-width:2.0px;stroke-linecap:butt;stroke-linejoin:miter;stroke-opacity:1;"/>
<path d="M 649.1,100.6 L 649.6,101.2 L 650.4,101.0" style="fill:none;stroke:#000000;stroke-width:2.0px;stroke-linecap:butt;stroke-linejoin:miter;stroke-opacity:1;"/>
<path d="M 637.4,79.4 L 635.9,78.4 L 635.7,77.6" style="fill:none;stroke:#000000;stroke-width:2.0px;stroke-linecap:butt;stroke-linejoin:miter;stroke-opacity:1;"/>
<path d="M 627.9,77.5 L 627.7,78.2 L 628.2,78.8" style="fill:none;stroke:#000000;stroke-width:2.0px;stroke-linecap:butt;stroke-linejoin:miter;stroke-opacity:1;"/>
<path d="M 646.8,59.4 L 647.6,59.3 L 648.1,59.8" style="fill:none;stroke:#000000;stroke-width:2.0px;stroke-linecap:butt;stroke-linejoin:miter;stroke-opacity:1;"/>
<path d="M 718.0,112.0 L 717.7,112.8 L 718.3,113.4" style="fill:none;stroke:#000000;stroke-width:2.0px;stroke-linecap:butt;stroke-linejoin:miter;stroke-opacity:1;"/>
<path d="M 728.1,123.7 L 728.7,124.3 L 729.5,124.1" style="fill:none;stroke:#000000;stroke-width:2.0px;stroke-linecap:butt;stroke-linejoin:miter;stroke-opacity:1;"/>
<path d="M 743.3,120.7 L 744.1,120.5 L 744.3,119.7" style="fill:none;stroke:#000000;stroke-width:2.0px;stroke-linecap:butt;stroke-linejoin:miter;stroke-opacity:1;"/>
<path d="M 748.3,106.0 L 748.5,105.3 L 748.0,104.7" style="fill:none;stroke:#000000;stroke-width:2.0px;stroke-linecap:butt;stroke-linejoin:miter;stroke-opacity:1;"/>
<path d="M 783.5,82.6 L 783.8,82.6 L 784.0,81.8" style="fill:none;stroke:#000000;stroke-width:2.0px;stroke-linecap:butt;stroke-linejoin:miter;stroke-opacity:1;"/>
<path d="M 815.5,73.6 L 815.7,73.8 L 816.3,73.5" style="fill:none;stroke:#000000;stroke-width:2.0px;stroke-linecap:butt;stroke-linejoin:miter;stroke-opacity:1;"/>
<path class="atom-0" d="M 833.7 38.0 Q 833.7 36.9, 834.2 36.3 Q 834.7 35.7, 835.7 35.7 Q 836.7 35.7, 837.2 36.3 Q 837.8 36.9, 837.8 38.0 Q 837.8 39.1, 837.2 39.7 Q 836.7 40.3, 835.7 40.3 Q 834.7 40.3, 834.2 39.7 Q 833.7 39.1, 833.7 38.0 M 835.7 39.8 Q 836.4 39.8, 836.8 39.4 Q 837.1 38.9, 837.1 38.0 Q 837.1 37.1, 836.8 36.7 Q 836.4 36.2, 835.7 36.2 Q 835.0 36.2, 834.7 36.7 Q 834.3 37.1, 834.3 38.0 Q 834.3 38.9, 834.7 39.4 Q 835.0 39.8, 835.7 39.8 " fill="#FF0000"/>
<path class="atom-1" d="M 824.2 51.6 Q 824.2 51.7, 824.5 51.8 Q 824.7 51.8, 824.9 51.9 Q 825.1 52.0, 825.4 52.0 Q 825.8 52.0, 826.0 51.7 Q 826.3 51.5, 826.3 51.2 Q 826.3 50.9, 826.1 50.8 Q 826.0 50.6, 825.8 50.5 Q 825.6 50.5, 825.3 50.4 Q 824.9 50.2, 824.7 50.1 Q 824.5 50.0, 824.3 49.8 Q 824.1 49.5, 824.1 49.1 Q 824.1 48.6, 824.5 48.2 Q 824.9 47.9, 825.6 47.9 Q 826.2 47.9, 826.8 48.1 L 826.6 48.6 Q 826.1 48.4, 825.7 48.4 Q 825.2 48.4, 825.0 48.6 Q 824.7 48.7, 824.8 49.1 Q 824.8 49.3, 824.9 49.4 Q 825.0 49.6, 825.2 49.7 Q 825.4 49.8, 825.7 49.8 Q 826.1 50.0, 826.3 50.1 Q 826.6 50.2, 826.7 50.5 Q 826.9 50.7, 826.9 51.2 Q 826.9 51.8, 826.5 52.1 Q 826.1 52.5, 825.4 52.5 Q 825.0 52.5, 824.7 52.4 Q 824.4 52.3, 824.0 52.1 L 824.2 51.6 " fill="#000000"/>
<path class="atom-1" d="M 827.4 47.9 L 828.0 47.9 L 828.0 48.4 L 827.4 48.4 L 827.4 47.9 M 827.4 49.1 L 828.0 49.1 L 828.0 52.3 L 827.4 52.3 L 827.4 49.1 " fill="#000000"/>
<path class="atom-3" d="M 802.6 61.3 L 804.1 63.7 Q 804.3 64.0, 804.5 64.4 Q 804.7 64.8, 804.7 64.8 L 804.7 61.3 L 805.3 61.3 L 805.3 65.8 L 804.7 65.8 L 803.1 63.2 Q 803.0 62.9, 802.8 62.6 Q 802.6 62.2, 802.5 62.1 L 802.5 65.8 L 801.9 65.8 L 801.9 61.3 L 802.6 61.3 " fill="#0000FF"/>
<path class="atom-8" d="M 741.0 76.4 L 742.5 78.7 Q 742.7 79.0, 742.9 79.4 Q 743.1 79.8, 743.1 79.9 L 743.1 76.4 L 743.7 76.4 L 743.7 80.9 L 743.1 80.9 L 741.5 78.3 Q 741.4 78.0, 741.2 77.6 Q 741.0 77.3, 740.9 77.1 L 740.9 80.9 L 740.3 80.9 L 740.3 76.4 L 741.0 76.4 " fill="#0000FF"/>
<path class="atom-11" d="M 710.2 83.9 L 711.7 86.3 Q 711.8 86.5, 712.1 86.9 Q 712.3 87.3, 712.3 87.4 L 712.3 83.9 L 712.9 83.9 L 712.9 88.4 L 712.3 88.4 L 710.7 85.8 Q 710.5 85.5, 710.4 85.1 Q 710.2 84.8, 710.1 84.7 L 710.1 88.4 L 709.5 88.4 L 709.5 83.9 L 710.2 83.9 " fill="#0000FF"/>
<path class="atom-13" d="M 689.3 105.1 Q 689.3 104.0, 689.8 103.4 Q 690.4 102.8, 691.4 102.8 Q 692.4 102.8, 692.9 103.4 Q 693.4 104.0, 693.4 105.1 Q 693.4 106.2, 692.9 106.8 Q 692.4 107.4, 691.4 107.4 Q 690.4 107.4, 689.8 106.8 Q 689.3 106.2, 689.3 105.1 M 691.4 106.9 Q 692.1 106.9, 692.4 106.5 Q 692.8 106.0, 692.8 105.1 Q 692.8 104.2, 692.4 103.8 Q 692.1 103.3, 691.4 103.3 Q 690.7 103.3, 690.3 103.8 Q 689.9 104.2, 689.9 105.1 Q 689.9 106.0, 690.3 106.5 Q 690.7 106.9, 691.4 106.9 " fill="#FF0000"/>
<path class="atom-14" d="M 683.9 76.2 L 685.3 78.6 Q 685.5 78.8, 685.7 79.2 Q 686.0 79.6, 686.0 79.7 L 686.0 76.2 L 686.6 76.2 L 686.6 80.7 L 686.0 80.7 L 684.4 78.1 Q 684.2 77.8, 684.0 77.4 Q 683.8 77.1, 683.7 77.0 L 683.7 80.7 L 683.2 80.7 L 683.2 76.2 L 683.9 76.2 " fill="#0000FF"/>
<path class="atom-14" d="M 683.1 71.2 L 683.7 71.2 L 683.7 73.1 L 686.0 73.1 L 686.0 71.2 L 686.6 71.2 L 686.6 75.7 L 686.0 75.7 L 686.0 73.7 L 683.7 73.7 L 683.7 75.7 L 683.1 75.7 L 683.1 71.2 " fill="#0000FF"/>
<path class="atom-23" d="M 614.7 49.3 L 615.3 49.3 L 615.3 51.2 L 617.6 51.2 L 617.6 49.3 L 618.2 49.3 L 618.2 53.8 L 617.6 53.8 L 617.6 51.7 L 615.3 51.7 L 615.3 53.8 L 614.7 53.8 L 614.7 49.3 " fill="#FF0000"/>
<path class="atom-23" d="M 619.1 51.6 Q 619.1 50.5, 619.7 49.9 Q 620.2 49.3, 621.2 49.3 Q 622.2 49.3, 622.7 49.9 Q 623.3 50.5, 623.3 51.6 Q 623.3 52.7, 622.7 53.3 Q 622.2 53.9, 621.2 53.9 Q 620.2 53.9, 619.7 53.3 Q 619.1 52.7, 619.1 51.6 M 621.2 53.4 Q 621.9 53.4, 622.2 52.9 Q 622.6 52.5, 622.6 51.6 Q 622.6 50.7, 622.2 50.2 Q 621.9 49.8, 621.2 49.8 Q 620.5 49.8, 620.1 50.2 Q 619.8 50.7, 619.8 51.6 Q 619.8 52.5, 620.1 52.9 Q 620.5 53.4, 621.2 53.4 " fill="#FF0000"/>
<path class="atom-32" d="M 767.4 84.1 L 768.9 86.4 Q 769.0 86.7, 769.2 87.1 Q 769.5 87.5, 769.5 87.6 L 769.5 84.1 L 770.1 84.1 L 770.1 88.6 L 769.5 88.6 L 767.9 86.0 Q 767.7 85.7, 767.5 85.3 Q 767.3 85.0, 767.3 84.8 L 767.3 88.6 L 766.7 88.6 L 766.7 84.1 L 767.4 84.1 " fill="#0000FF"/>
<path class="atom-35" d="M 828.0 67.1 Q 828.0 67.1, 828.2 67.2 Q 828.4 67.2, 828.6 67.3 Q 828.9 67.4, 829.1 67.4 Q 829.5 67.4, 829.8 67.2 Q 830.0 66.9, 830.0 66.6 Q 830.0 66.3, 829.9 66.2 Q 829.8 66.0, 829.6 65.9 Q 829.4 65.9, 829.1 65.8 Q 828.7 65.6, 828.4 65.5 Q 828.2 65.4, 828.0 65.2 Q 827.9 64.9, 827.9 64.5 Q 827.9 64.0, 828.3 63.6 Q 828.6 63.3, 829.4 63.3 Q 829.9 63.3, 830.5 63.5 L 830.4 64.0 Q 829.8 63.8, 829.4 63.8 Q 829.0 63.8, 828.7 64.0 Q 828.5 64.1, 828.5 64.5 Q 828.5 64.7, 828.6 64.8 Q 828.8 65.0, 828.9 65.1 Q 829.1 65.2, 829.4 65.2 Q 829.8 65.4, 830.1 65.5 Q 830.3 65.6, 830.5 65.9 Q 830.7 66.1, 830.7 66.6 Q 830.7 67.2, 830.2 67.5 Q 829.8 67.9, 829.1 67.9 Q 828.7 67.9, 828.4 67.8 Q 828.1 67.7, 827.8 67.6 L 828.0 67.1 " fill="#000000"/>
<path class="atom-35" d="M 831.1 63.3 L 831.7 63.3 L 831.7 63.8 L 831.1 63.8 L 831.1 63.3 M 831.1 64.5 L 831.7 64.5 L 831.7 67.7 L 831.1 67.7 L 831.1 64.5 " fill="#000000"/>
<path class="atom-36" d="M 842.6 73.1 Q 842.7 73.1, 842.9 73.2 Q 843.1 73.3, 843.3 73.3 Q 843.6 73.4, 843.8 73.4 Q 844.2 73.4, 844.5 73.2 Q 844.7 73.0, 844.7 72.6 Q 844.7 72.3, 844.6 72.2 Q 844.5 72.0, 844.3 72.0 Q 844.1 71.9, 843.8 71.8 Q 843.4 71.7, 843.1 71.5 Q 842.9 71.4, 842.7 71.2 Q 842.5 70.9, 842.5 70.5 Q 842.5 70.0, 842.9 69.6 Q 843.3 69.3, 844.1 69.3 Q 844.6 69.3, 845.2 69.5 L 845.0 70.0 Q 844.5 69.8, 844.1 69.8 Q 843.7 69.8, 843.4 70.0 Q 843.2 70.2, 843.2 70.5 Q 843.2 70.7, 843.3 70.9 Q 843.4 71.0, 843.6 71.1 Q 843.8 71.2, 844.1 71.3 Q 844.5 71.4, 844.7 71.5 Q 845.0 71.6, 845.2 71.9 Q 845.3 72.2, 845.3 72.6 Q 845.3 73.2, 844.9 73.5 Q 844.5 73.9, 843.8 73.9 Q 843.4 73.9, 843.1 73.8 Q 842.8 73.7, 842.4 73.6 L 842.6 73.1 " fill="#CCCC00"/>
<path class="atom-37" d="M 844.2 88.8 Q 844.3 88.8, 844.5 88.9 Q 844.7 89.0, 844.9 89.0 Q 845.2 89.1, 845.4 89.1 Q 845.8 89.1, 846.1 88.9 Q 846.3 88.7, 846.3 88.3 Q 846.3 88.1, 846.2 87.9 Q 846.1 87.8, 845.9 87.7 Q 845.7 87.6, 845.4 87.5 Q 845.0 87.4, 844.7 87.3 Q 844.5 87.1, 844.3 86.9 Q 844.1 86.7, 844.1 86.3 Q 844.1 85.7, 844.5 85.3 Q 844.9 85.0, 845.7 85.0 Q 846.2 85.0, 846.8 85.2 L 846.6 85.7 Q 846.1 85.5, 845.7 85.5 Q 845.3 85.5, 845.0 85.7 Q 844.8 85.9, 844.8 86.2 Q 844.8 86.4, 844.9 86.6 Q 845.0 86.7, 845.2 86.8 Q 845.4 86.9, 845.7 87.0 Q 846.1 87.1, 846.3 87.2 Q 846.6 87.4, 846.7 87.6 Q 846.9 87.9, 846.9 88.3 Q 846.9 88.9, 846.5 89.3 Q 846.1 89.6, 845.4 89.6 Q 845.0 89.6, 844.7 89.5 Q 844.4 89.4, 844.0 89.3 L 844.2 88.8 " fill="#000000"/>
<path class="atom-37" d="M 847.4 85.0 L 848.0 85.0 L 848.0 85.5 L 847.4 85.5 L 847.4 85.0 M 847.4 86.2 L 848.0 86.2 L 848.0 89.5 L 847.4 89.5 L 847.4 86.2 " fill="#000000"/>
<path class="atom-38" d="M 829.0 87.1 L 831.6 87.1 L 831.6 87.6 L 829.6 87.6 L 829.6 89.0 L 831.4 89.0 L 831.4 89.5 L 829.6 89.5 L 829.6 91.6 L 829.0 91.6 L 829.0 87.1 " fill="#33CCCC"/>
<path class="atom-39" d="M 846.4 103.1 Q 846.4 102.0, 846.9 101.4 Q 847.5 100.8, 848.5 100.8 Q 849.4 100.8, 849.9 101.5 L 849.5 101.8 Q 849.1 101.3, 848.5 101.3 Q 847.8 101.3, 847.4 101.8 Q 847.1 102.2, 847.1 103.1 Q 847.1 104.0, 847.4 104.4 Q 847.8 104.9, 848.5 104.9 Q 849.0 104.9, 849.6 104.6 L 849.8 105.1 Q 849.5 105.2, 849.2 105.3 Q 848.8 105.4, 848.4 105.4 Q 847.5 105.4, 846.9 104.8 Q 846.4 104.2, 846.4 103.1 " fill="#00CC00"/>
<path class="atom-39" d="M 850.3 100.5 L 850.9 100.5 L 850.9 105.3 L 850.3 105.3 L 850.3 100.5 " fill="#00CC00"/>
<path class="atom-41" d="M 866.4 68.2 L 869.1 68.2 L 869.1 68.7 L 867.0 68.7 L 867.0 70.1 L 868.8 70.1 L 868.8 70.6 L 867.0 70.6 L 867.0 72.7 L 866.4 72.7 L 866.4 68.2 " fill="#33CCCC"/>
<path class="atom-43" d="M 879.8 107.9 L 882.5 107.9 L 882.5 108.5 L 880.4 108.5 L 880.4 109.8 L 882.2 109.8 L 882.2 110.3 L 880.4 110.3 L 880.4 112.4 L 879.8 112.4 L 879.8 107.9 " fill="#33CCCC"/>
<path class="atom-44" d="M 882.6 85.7 L 885.3 85.7 L 885.3 86.2 L 883.2 86.2 L 883.2 87.6 L 885.1 87.6 L 885.1 88.1 L 883.2 88.1 L 883.2 90.2 L 882.6 90.2 L 882.6 85.7 " fill="#33CCCC"/>
<path class="atom-45" d="M 857.5 105.1 L 860.2 105.1 L 860.2 105.6 L 858.1 105.6 L 858.1 107.0 L 860.0 107.0 L 860.0 107.5 L 858.1 107.5 L 858.1 109.6 L 857.5 109.6 L 857.5 105.1 " fill="#33CCCC"/>
<path class="atom-0" d="M 839.0,38.0 L 839.0,38.0 L 839.0,38.1 L 839.0,38.1 L 839.0,38.1 L 839.0,38.1 L 839.0,38.2 L 839.0,38.2 L 839.0,38.2 L 839.0,38.2 L 838.9,38.2 L 838.9,38.3 L 838.9,38.3 L 838.9,38.3 L 838.8,38.3 L 838.8,38.3 L 838.8,38.3 L 838.8,38.3 L 838.7,38.3 L 838.7,38.3 L 838.7,38.3 L 838.7,38.3 L 838.6,38.3 L 838.6,38.3 L 838.6,38.3 L 838.6,38.3 L 838.5,38.3 L 838.5,38.2 L 838.5,38.2 L 838.5,38.2 L 838.5,38.2 L 838.4,38.2 L 838.4,38.1 L 838.4,38.1 L 838.4,38.1 L 838.4,38.0 L 838.4,38.0 L 838.4,38.0 L 838.4,38.0 L 838.4,37.9 L 838.4,37.9 L 838.4,37.9 L 838.4,37.9 L 838.5,37.8 L 838.5,37.8 L 838.5,37.8 L 838.5,37.8 L 838.5,37.8 L 838.6,37.7 L 838.6,37.7 L 838.6,37.7 L 838.6,37.7 L 838.7,37.7 L 838.7,37.7 L 838.7,37.7 L 838.7,37.7 L 838.8,37.7 L 838.8,37.7 L 838.8,37.7 L 838.8,37.7 L 838.9,37.7 L 838.9,37.7 L 838.9,37.8 L 838.9,37.8 L 839.0,37.8 L 839.0,37.8 L 839.0,37.8 L 839.0,37.9 L 839.0,37.9 L 839.0,37.9 L 839.0,37.9 L 839.0,38.0 L 839.0,38.0 L 839.0,38.0 L 838.7,38.0 Z" style="fill:#000000;fill-rule:evenodd;fill-opacity:1;stroke:#000000;stroke-width:0.0px;stroke-linecap:butt;stroke-linejoin:miter;stroke-opacity:1;"/>
<path class="atom-1" d="M 829.2,50.1 L 829.2,50.1 L 829.2,50.2 L 829.2,50.2 L 829.2,50.2 L 829.2,50.2 L 829.2,50.3 L 829.2,50.3 L 829.2,50.3 L 829.1,50.3 L 829.1,50.3 L 829.1,50.4 L 829.1,50.4 L 829.0,50.4 L 829.0,50.4 L 829.0,50.4 L 829.0,50.4 L 828.9,50.4 L 828.9,50.4 L 828.9,50.4 L 828.9,50.4 L 828.8,50.4 L 828.8,50.4 L 828.8,50.4 L 828.8,50.4 L 828.7,50.4 L 828.7,50.3 L 828.7,50.3 L 828.7,50.3 L 828.7,50.3 L 828.6,50.3 L 828.6,50.2 L 828.6,50.2 L 828.6,50.2 L 828.6,50.2 L 828.6,50.1 L 828.6,50.1 L 828.6,50.1 L 828.6,50.1 L 828.6,50.0 L 828.6,50.0 L 828.6,50.0 L 828.6,50.0 L 828.6,49.9 L 828.7,49.9 L 828.7,49.9 L 828.7,49.9 L 828.7,49.9 L 828.7,49.8 L 828.8,49.8 L 828.8,49.8 L 828.8,49.8 L 828.8,49.8 L 828.9,49.8 L 828.9,49.8 L 828.9,49.8 L 828.9,49.8 L 829.0,49.8 L 829.0,49.8 L 829.0,49.8 L 829.0,49.8 L 829.1,49.8 L 829.1,49.8 L 829.1,49.9 L 829.1,49.9 L 829.2,49.9 L 829.2,49.9 L 829.2,49.9 L 829.2,50.0 L 829.2,50.0 L 829.2,50.0 L 829.2,50.0 L 829.2,50.1 L 829.2,50.1 L 828.9,50.1 Z" style="fill:#000000;fill-rule:evenodd;fill-opacity:1;stroke:#000000;stroke-width:0.0px;stroke-linecap:butt;stroke-linejoin:miter;stroke-opacity:1;"/>
<path class="atom-35" d="M 833.0,65.5 L 833.0,65.5 L 833.0,65.6 L 833.0,65.6 L 833.0,65.6 L 833.0,65.6 L 832.9,65.7 L 832.9,65.7 L 832.9,65.7 L 832.9,65.7 L 832.9,65.7 L 832.8,65.8 L 832.8,65.8 L 832.8,65.8 L 832.8,65.8 L 832.8,65.8 L 832.7,65.8 L 832.7,65.8 L 832.7,65.8 L 832.6,65.8 L 832.6,65.8 L 832.6,65.8 L 832.6,65.8 L 832.5,65.8 L 832.5,65.8 L 832.5,65.8 L 832.5,65.8 L 832.4,65.7 L 832.4,65.7 L 832.4,65.7 L 832.4,65.7 L 832.4,65.6 L 832.4,65.6 L 832.4,65.6 L 832.4,65.6 L 832.3,65.5 L 832.3,65.5 L 832.3,65.5 L 832.3,65.5 L 832.4,65.4 L 832.4,65.4 L 832.4,65.4 L 832.4,65.4 L 832.4,65.3 L 832.4,65.3 L 832.4,65.3 L 832.4,65.3 L 832.5,65.3 L 832.5,65.2 L 832.5,65.2 L 832.5,65.2 L 832.6,65.2 L 832.6,65.2 L 832.6,65.2 L 832.6,65.2 L 832.7,65.2 L 832.7,65.2 L 832.7,65.2 L 832.8,65.2 L 832.8,65.2 L 832.8,65.2 L 832.8,65.2 L 832.8,65.2 L 832.9,65.3 L 832.9,65.3 L 832.9,65.3 L 832.9,65.3 L 832.9,65.3 L 833.0,65.4 L 833.0,65.4 L 833.0,65.4 L 833.0,65.4 L 833.0,65.5 L 833.0,65.5 L 832.7,65.5 Z" style="fill:#000000;fill-rule:evenodd;fill-opacity:1;stroke:#000000;stroke-width:0.0px;stroke-linecap:butt;stroke-linejoin:miter;stroke-opacity:1;"/>
</svg>