<svg xmlns="http://www.w3.org/2000/svg" xmlns:rdkit="http://www.rdkit.org/xml" xmlns:xlink="http://www.w3.org/1999/xlink" version="1.1" baseProfile="full" xml:space="preserve" width="600px" height="160px" viewBox="0 0 600 160">
<!-- END OF HEADER -->
<rect style="opacity:1.0;fill:#FFFFFF;stroke:none" width="600.0" height="160.0" x="0.0" y="0.0"> </rect>
<path class="bond-0 atom-0 atom-1" d="M 139.0,35.6 L 157.0,41.1" style="fill:none;fill-rule:evenodd;stroke:#000000;stroke-width:2.0px;stroke-linecap:butt;stroke-linejoin:miter;stroke-opacity:1"/>
<path class="bond-1 atom-1 atom-2" d="M 157.0,41.1 L 170.8,28.3" style="fill:none;fill-rule:evenodd;stroke:#000000;stroke-width:2.0px;stroke-linecap:butt;stroke-linejoin:miter;stroke-opacity:1"/>
<path class="bond-1 atom-1 atom-2" d="M 160.1,42.1 L 171.5,31.5" style="fill:none;fill-rule:evenodd;stroke:#000000;stroke-width:2.0px;stroke-linecap:butt;stroke-linejoin:miter;stroke-opacity:1"/>
<path class="bond-2 atom-2 atom-3" d="M 170.8,28.3 L 169.1,20.8" style="fill:none;fill-rule:evenodd;stroke:#000000;stroke-width:2.0px;stroke-linecap:butt;stroke-linejoin:miter;stroke-opacity:1"/>
<path class="bond-2 atom-2 atom-3" d="M 169.1,20.8 L 167.3,13.2" style="fill:none;fill-rule:evenodd;stroke:#33CCCC;stroke-width:2.0px;stroke-linecap:butt;stroke-linejoin:miter;stroke-opacity:1"/>
<path class="bond-3 atom-2 atom-4" d="M 170.8,28.3 L 188.8,33.8" style="fill:none;fill-rule:evenodd;stroke:#000000;stroke-width:2.0px;stroke-linecap:butt;stroke-linejoin:miter;stroke-opacity:1"/>
<path class="bond-4 atom-4 atom-5" d="M 188.8,33.8 L 193.0,52.1" style="fill:none;fill-rule:evenodd;stroke:#000000;stroke-width:2.0px;stroke-linecap:butt;stroke-linejoin:miter;stroke-opacity:1"/>
<path class="bond-4 atom-4 atom-5" d="M 186.4,36.0 L 189.9,51.2" style="fill:none;fill-rule:evenodd;stroke:#000000;stroke-width:2.0px;stroke-linecap:butt;stroke-linejoin:miter;stroke-opacity:1"/>
<path class="bond-5 atom-5 atom-6" d="M 193.0,52.1 L 179.2,65.0" style="fill:none;fill-rule:evenodd;stroke:#000000;stroke-width:2.0px;stroke-linecap:butt;stroke-linejoin:miter;stroke-opacity:1"/>
<path class="bond-6 atom-6 atom-7" d="M 179.2,65.0 L 161.2,59.4" style="fill:none;fill-rule:evenodd;stroke:#000000;stroke-width:2.0px;stroke-linecap:butt;stroke-linejoin:miter;stroke-opacity:1"/>
<path class="bond-6 atom-6 atom-7" d="M 178.5,61.8 L 163.6,57.2" style="fill:none;fill-rule:evenodd;stroke:#000000;stroke-width:2.0px;stroke-linecap:butt;stroke-linejoin:miter;stroke-opacity:1"/>
<path class="bond-7 atom-7 atom-8" d="M 161.2,59.4 L 147.5,72.3" style="fill:none;fill-rule:evenodd;stroke:#000000;stroke-width:2.0px;stroke-linecap:butt;stroke-linejoin:miter;stroke-opacity:1"/>
<path class="bond-8 atom-8 atom-9" d="M 147.5,72.3 L 151.7,90.6" style="fill:none;fill-rule:evenodd;stroke:#000000;stroke-width:2.0px;stroke-linecap:butt;stroke-linejoin:miter;stroke-opacity:1"/>
<path class="bond-9 atom-9 atom-10" d="M 151.7,90.6 L 139.3,104.8" style="fill:none;fill-rule:evenodd;stroke:#000000;stroke-width:2.0px;stroke-linecap:butt;stroke-linejoin:miter;stroke-opacity:1"/>
<path class="bond-9 atom-9 atom-10" d="M 152.5,94.0 L 142.8,105.1" style="fill:none;fill-rule:evenodd;stroke:#000000;stroke-width:2.0px;stroke-linecap:butt;stroke-linejoin:miter;stroke-opacity:1"/>
<path class="bond-10 atom-10 atom-11" d="M 139.3,104.8 L 120.6,103.1" style="fill:none;fill-rule:evenodd;stroke:#000000;stroke-width:2.0px;stroke-linecap:butt;stroke-linejoin:miter;stroke-opacity:1"/>
<path class="bond-11 atom-11 atom-12" d="M 119.9,101.7 L 115.4,108.0" style="fill:none;fill-rule:evenodd;stroke:#000000;stroke-width:2.0px;stroke-linecap:butt;stroke-linejoin:miter;stroke-opacity:1"/>
<path class="bond-11 atom-11 atom-12" d="M 115.4,108.0 L 110.9,114.4" style="fill:none;fill-rule:evenodd;stroke:#FF0000;stroke-width:2.0px;stroke-linecap:butt;stroke-linejoin:miter;stroke-opacity:1"/>
<path class="bond-11 atom-11 atom-12" d="M 122.2,103.3 L 117.7,109.7" style="fill:none;fill-rule:evenodd;stroke:#000000;stroke-width:2.0px;stroke-linecap:butt;stroke-linejoin:miter;stroke-opacity:1"/>
<path class="bond-11 atom-11 atom-12" d="M 117.7,109.7 L 113.2,116.1" style="fill:none;fill-rule:evenodd;stroke:#FF0000;stroke-width:2.0px;stroke-linecap:butt;stroke-linejoin:miter;stroke-opacity:1"/>
<path class="bond-12 atom-11 atom-13" d="M 120.6,103.1 L 117.4,96.3" style="fill:none;fill-rule:evenodd;stroke:#000000;stroke-width:2.0px;stroke-linecap:butt;stroke-linejoin:miter;stroke-opacity:1"/>
<path class="bond-12 atom-11 atom-13" d="M 117.4,96.3 L 114.2,89.4" style="fill:none;fill-rule:evenodd;stroke:#0000FF;stroke-width:2.0px;stroke-linecap:butt;stroke-linejoin:miter;stroke-opacity:1"/>
<path class="bond-13 atom-13 atom-14" d="M 110.0,86.0 L 101.9,85.9" style="fill:none;fill-rule:evenodd;stroke:#0000FF;stroke-width:2.0px;stroke-linecap:butt;stroke-linejoin:miter;stroke-opacity:1"/>
<path class="bond-13 atom-13 atom-14" d="M 101.9,85.9 L 93.8,85.8" style="fill:none;fill-rule:evenodd;stroke:#000000;stroke-width:2.0px;stroke-linecap:butt;stroke-linejoin:miter;stroke-opacity:1"/>
<path class="bond-14 atom-14 atom-15" d="M 93.8,85.8 L 82.3,71.0" style="fill:none;fill-rule:evenodd;stroke:#000000;stroke-width:2.0px;stroke-linecap:butt;stroke-linejoin:miter;stroke-opacity:1"/>
<path class="bond-15 atom-15 atom-16" d="M 82.3,71.0 L 86.7,52.7" style="fill:none;fill-rule:evenodd;stroke:#000000;stroke-width:2.0px;stroke-linecap:butt;stroke-linejoin:miter;stroke-opacity:1"/>
<path class="bond-16 atom-16 atom-17" d="M 86.7,52.7 L 93.9,49.3" style="fill:none;fill-rule:evenodd;stroke:#000000;stroke-width:2.0px;stroke-linecap:butt;stroke-linejoin:miter;stroke-opacity:1"/>
<path class="bond-16 atom-16 atom-17" d="M 93.9,49.3 L 101.1,46.0" style="fill:none;fill-rule:evenodd;stroke:#0000FF;stroke-width:2.0px;stroke-linecap:butt;stroke-linejoin:miter;stroke-opacity:1"/>
<path class="bond-17 atom-17 atom-18" d="M 106.4,46.0 L 113.5,49.6" style="fill:none;fill-rule:evenodd;stroke:#0000FF;stroke-width:2.0px;stroke-linecap:butt;stroke-linejoin:miter;stroke-opacity:1"/>
<path class="bond-17 atom-17 atom-18" d="M 113.5,49.6 L 120.6,53.1" style="fill:none;fill-rule:evenodd;stroke:#000000;stroke-width:2.0px;stroke-linecap:butt;stroke-linejoin:miter;stroke-opacity:1"/>
<path class="bond-18 atom-18 atom-19" d="M 120.6,53.1 L 124.6,71.5" style="fill:none;fill-rule:evenodd;stroke:#000000;stroke-width:2.0px;stroke-linecap:butt;stroke-linejoin:miter;stroke-opacity:1"/>
<path class="bond-19 atom-10 atom-20" d="M 139.3,104.8 L 149.0,121.0" style="fill:none;fill-rule:evenodd;stroke:#000000;stroke-width:2.0px;stroke-linecap:butt;stroke-linejoin:miter;stroke-opacity:1"/>
<path class="bond-20 atom-20 atom-21" d="M 149.0,121.0 L 143.5,138.9" style="fill:none;fill-rule:evenodd;stroke:#000000;stroke-width:2.0px;stroke-linecap:butt;stroke-linejoin:miter;stroke-opacity:1"/>
<path class="bond-20 atom-20 atom-21" d="M 151.2,123.3 L 146.6,138.2" style="fill:none;fill-rule:evenodd;stroke:#000000;stroke-width:2.0px;stroke-linecap:butt;stroke-linejoin:miter;stroke-opacity:1"/>
<path class="bond-21 atom-21 atom-22" d="M 143.5,138.9 L 156.3,152.7" style="fill:none;fill-rule:evenodd;stroke:#000000;stroke-width:2.0px;stroke-linecap:butt;stroke-linejoin:miter;stroke-opacity:1"/>
<path class="bond-22 atom-22 atom-23" d="M 156.3,152.7 L 164.1,150.9" style="fill:none;fill-rule:evenodd;stroke:#000000;stroke-width:2.0px;stroke-linecap:butt;stroke-linejoin:miter;stroke-opacity:1"/>
<path class="bond-22 atom-22 atom-23" d="M 164.1,150.9 L 172.0,149.1" style="fill:none;fill-rule:evenodd;stroke:#0000FF;stroke-width:2.0px;stroke-linecap:butt;stroke-linejoin:miter;stroke-opacity:1"/>
<path class="bond-22 atom-22 atom-23" d="M 157.2,149.6 L 164.3,148.0" style="fill:none;fill-rule:evenodd;stroke:#000000;stroke-width:2.0px;stroke-linecap:butt;stroke-linejoin:miter;stroke-opacity:1"/>
<path class="bond-22 atom-22 atom-23" d="M 164.3,148.0 L 171.4,146.4" style="fill:none;fill-rule:evenodd;stroke:#0000FF;stroke-width:2.0px;stroke-linecap:butt;stroke-linejoin:miter;stroke-opacity:1"/>
<path class="bond-23 atom-23 atom-24" d="M 175.6,145.2 L 177.9,137.9" style="fill:none;fill-rule:evenodd;stroke:#0000FF;stroke-width:2.0px;stroke-linecap:butt;stroke-linejoin:miter;stroke-opacity:1"/>
<path class="bond-23 atom-23 atom-24" d="M 177.9,137.9 L 180.2,130.5" style="fill:none;fill-rule:evenodd;stroke:#000000;stroke-width:2.0px;stroke-linecap:butt;stroke-linejoin:miter;stroke-opacity:1"/>
<path class="bond-24 atom-24 atom-25" d="M 180.2,130.5 L 167.3,116.7" style="fill:none;fill-rule:evenodd;stroke:#000000;stroke-width:2.0px;stroke-linecap:butt;stroke-linejoin:miter;stroke-opacity:1"/>
<path class="bond-24 atom-24 atom-25" d="M 177.0,131.2 L 166.4,119.9" style="fill:none;fill-rule:evenodd;stroke:#000000;stroke-width:2.0px;stroke-linecap:butt;stroke-linejoin:miter;stroke-opacity:1"/>
<path class="bond-25 atom-25 atom-26" d="M 167.3,116.7 L 168.0,109.0" style="fill:none;fill-rule:evenodd;stroke:#000000;stroke-width:2.0px;stroke-linecap:butt;stroke-linejoin:miter;stroke-opacity:1"/>
<path class="bond-25 atom-25 atom-26" d="M 168.0,109.0 L 168.7,101.3" style="fill:none;fill-rule:evenodd;stroke:#0000FF;stroke-width:2.0px;stroke-linecap:butt;stroke-linejoin:miter;stroke-opacity:1"/>
<path class="bond-26 atom-26 atom-27" d="M 171.6,96.4 L 178.4,92.4" style="fill:none;fill-rule:evenodd;stroke:#0000FF;stroke-width:2.0px;stroke-linecap:butt;stroke-linejoin:miter;stroke-opacity:1"/>
<path class="bond-26 atom-26 atom-27" d="M 178.4,92.4 L 185.1,88.3" style="fill:none;fill-rule:evenodd;stroke:#000000;stroke-width:2.0px;stroke-linecap:butt;stroke-linejoin:miter;stroke-opacity:1"/>
<path class="bond-27 atom-27 atom-28" d="M 185.1,88.3 L 201.6,97.5" style="fill:none;fill-rule:evenodd;stroke:#000000;stroke-width:2.0px;stroke-linecap:butt;stroke-linejoin:miter;stroke-opacity:1"/>
<path class="bond-27 atom-27 atom-28" d="M 187.9,86.6 L 201.5,94.2" style="fill:none;fill-rule:evenodd;stroke:#000000;stroke-width:2.0px;stroke-linecap:butt;stroke-linejoin:miter;stroke-opacity:1"/>
<path class="bond-28 atom-28 atom-29" d="M 201.6,97.5 L 217.7,87.8" style="fill:none;fill-rule:evenodd;stroke:#000000;stroke-width:2.0px;stroke-linecap:butt;stroke-linejoin:miter;stroke-opacity:1"/>
<path class="bond-29 atom-29 atom-30" d="M 217.7,87.8 L 217.4,69.0" style="fill:none;fill-rule:evenodd;stroke:#000000;stroke-width:2.0px;stroke-linecap:butt;stroke-linejoin:miter;stroke-opacity:1"/>
<path class="bond-29 atom-29 atom-30" d="M 214.9,86.2 L 214.6,70.6" style="fill:none;fill-rule:evenodd;stroke:#000000;stroke-width:2.0px;stroke-linecap:butt;stroke-linejoin:miter;stroke-opacity:1"/>
<path class="bond-30 atom-30 atom-31" d="M 217.4,69.0 L 201.0,59.8" style="fill:none;fill-rule:evenodd;stroke:#000000;stroke-width:2.0px;stroke-linecap:butt;stroke-linejoin:miter;stroke-opacity:1"/>
<path class="bond-31 atom-31 atom-32" d="M 201.0,59.8 L 184.8,69.5" style="fill:none;fill-rule:evenodd;stroke:#000000;stroke-width:2.0px;stroke-linecap:butt;stroke-linejoin:miter;stroke-opacity:1"/>
<path class="bond-31 atom-31 atom-32" d="M 201.0,63.1 L 187.7,71.1" style="fill:none;fill-rule:evenodd;stroke:#000000;stroke-width:2.0px;stroke-linecap:butt;stroke-linejoin:miter;stroke-opacity:1"/>
<path class="bond-32 atom-7 atom-1" d="M 161.2,59.4 L 157.0,41.1" style="fill:none;fill-rule:evenodd;stroke:#000000;stroke-width:2.0px;stroke-linecap:butt;stroke-linejoin:miter;stroke-opacity:1"/>
<path class="bond-33 atom-26 atom-9" d="M 166.3,96.9 L 159.0,93.7" style="fill:none;fill-rule:evenodd;stroke:#0000FF;stroke-width:2.0px;stroke-linecap:butt;stroke-linejoin:miter;stroke-opacity:1"/>
<path class="bond-33 atom-26 atom-9" d="M 159.0,93.7 L 151.7,90.6" style="fill:none;fill-rule:evenodd;stroke:#000000;stroke-width:2.0px;stroke-linecap:butt;stroke-linejoin:miter;stroke-opacity:1"/>
<path class="bond-34 atom-32 atom-27" d="M 184.8,69.5 L 185.1,88.3" style="fill:none;fill-rule:evenodd;stroke:#000000;stroke-width:2.0px;stroke-linecap:butt;stroke-linejoin:miter;stroke-opacity:1"/>
<path class="bond-35 atom-19 atom-13" d="M 124.6,71.5 L 119.9,77.2" style="fill:none;fill-rule:evenodd;stroke:#000000;stroke-width:2.0px;stroke-linecap:butt;stroke-linejoin:miter;stroke-opacity:1"/>
<path class="bond-35 atom-19 atom-13" d="M 119.9,77.2 L 115.3,82.9" style="fill:none;fill-rule:evenodd;stroke:#0000FF;stroke-width:2.0px;stroke-linecap:butt;stroke-linejoin:miter;stroke-opacity:1"/>
<path class="bond-36 atom-25 atom-20" d="M 167.3,116.7 L 149.0,121.0" style="fill:none;fill-rule:evenodd;stroke:#000000;stroke-width:2.0px;stroke-linecap:butt;stroke-linejoin:miter;stroke-opacity:1"/>
<path d="M 187.9,33.5 L 188.8,33.8 L 189.0,34.7" style="fill:none;stroke:#000000;stroke-width:2.0px;stroke-linecap:butt;stroke-linejoin:miter;stroke-opacity:1;"/>
<path d="M 192.8,51.2 L 193.0,52.1 L 192.3,52.8" style="fill:none;stroke:#000000;stroke-width:2.0px;stroke-linecap:butt;stroke-linejoin:miter;stroke-opacity:1;"/>
<path d="M 179.9,64.3 L 179.2,65.0 L 178.3,64.7" style="fill:none;stroke:#000000;stroke-width:2.0px;stroke-linecap:butt;stroke-linejoin:miter;stroke-opacity:1;"/>
<path d="M 148.1,71.6 L 147.5,72.3 L 147.7,73.2" style="fill:none;stroke:#000000;stroke-width:2.0px;stroke-linecap:butt;stroke-linejoin:miter;stroke-opacity:1;"/>
<path d="M 121.5,103.2 L 120.6,103.1 L 120.4,102.8" style="fill:none;stroke:#000000;stroke-width:2.0px;stroke-linecap:butt;stroke-linejoin:miter;stroke-opacity:1;"/>
<path d="M 94.2,85.8 L 93.8,85.8 L 93.2,85.1" style="fill:none;stroke:#000000;stroke-width:2.0px;stroke-linecap:butt;stroke-linejoin:miter;stroke-opacity:1;"/>
<path d="M 82.8,71.7 L 82.3,71.0 L 82.5,70.0" style="fill:none;stroke:#000000;stroke-width:2.0px;stroke-linecap:butt;stroke-linejoin:miter;stroke-opacity:1;"/>
<path d="M 86.5,53.6 L 86.7,52.7 L 87.1,52.5" style="fill:none;stroke:#000000;stroke-width:2.0px;stroke-linecap:butt;stroke-linejoin:miter;stroke-opacity:1;"/>
<path d="M 120.3,52.9 L 120.6,53.1 L 120.8,54.0" style="fill:none;stroke:#000000;stroke-width:2.0px;stroke-linecap:butt;stroke-linejoin:miter;stroke-opacity:1;"/>
<path d="M 124.4,70.6 L 124.6,71.5 L 124.3,71.8" style="fill:none;stroke:#000000;stroke-width:2.0px;stroke-linecap:butt;stroke-linejoin:miter;stroke-opacity:1;"/>
<path d="M 143.7,138.0 L 143.5,138.9 L 144.1,139.6" style="fill:none;stroke:#000000;stroke-width:2.0px;stroke-linecap:butt;stroke-linejoin:miter;stroke-opacity:1;"/>
<path d="M 155.6,152.0 L 156.3,152.7 L 156.7,152.6" style="fill:none;stroke:#000000;stroke-width:2.0px;stroke-linecap:butt;stroke-linejoin:miter;stroke-opacity:1;"/>
<path d="M 180.0,130.9 L 180.2,130.5 L 179.5,129.8" style="fill:none;stroke:#000000;stroke-width:2.0px;stroke-linecap:butt;stroke-linejoin:miter;stroke-opacity:1;"/>
<path d="M 200.8,97.0 L 201.6,97.5 L 202.4,97.0" style="fill:none;stroke:#000000;stroke-width:2.0px;stroke-linecap:butt;stroke-linejoin:miter;stroke-opacity:1;"/>
<path d="M 216.9,88.3 L 217.7,87.8 L 217.7,86.8" style="fill:none;stroke:#000000;stroke-width:2.0px;stroke-linecap:butt;stroke-linejoin:miter;stroke-opacity:1;"/>
<path d="M 217.4,69.9 L 217.4,69.0 L 216.6,68.5" style="fill:none;stroke:#000000;stroke-width:2.0px;stroke-linecap:butt;stroke-linejoin:miter;stroke-opacity:1;"/>
<path d="M 201.8,60.3 L 201.0,59.8 L 200.2,60.3" style="fill:none;stroke:#000000;stroke-width:2.0px;stroke-linecap:butt;stroke-linejoin:miter;stroke-opacity:1;"/>
<path d="M 185.6,69.0 L 184.8,69.5 L 184.8,70.4" style="fill:none;stroke:#000000;stroke-width:2.0px;stroke-linecap:butt;stroke-linejoin:miter;stroke-opacity:1;"/>
<path class="atom-3" d="M 165.0 7.3 L 168.2 7.3 L 168.2 7.9 L 165.7 7.9 L 165.7 9.5 L 167.9 9.5 L 167.9 10.1 L 165.7 10.1 L 165.7 12.6 L 165.0 12.6 L 165.0 7.3 " fill="#33CCCC"/>
<path class="atom-12" d="M 107.3 118.6 Q 107.3 117.3, 107.9 116.6 Q 108.6 115.9, 109.7 115.9 Q 110.9 115.9, 111.6 116.6 Q 112.2 117.3, 112.2 118.6 Q 112.2 119.9, 111.6 120.6 Q 110.9 121.3, 109.7 121.3 Q 108.6 121.3, 107.9 120.6 Q 107.3 119.9, 107.3 118.6 M 109.7 120.7 Q 110.6 120.7, 111.0 120.2 Q 111.4 119.6, 111.4 118.6 Q 111.4 117.5, 111.0 117.0 Q 110.6 116.5, 109.7 116.5 Q 108.9 116.5, 108.5 117.0 Q 108.1 117.5, 108.1 118.6 Q 108.1 119.6, 108.5 120.2 Q 108.9 120.7, 109.7 120.7 " fill="#FF0000"/>
<path class="atom-13" d="M 111.4 83.4 L 113.2 86.2 Q 113.4 86.5, 113.6 87.0 Q 113.9 87.5, 113.9 87.6 L 113.9 83.4 L 114.6 83.4 L 114.6 88.7 L 113.9 88.7 L 112.0 85.7 Q 111.8 85.3, 111.6 84.9 Q 111.4 84.5, 111.3 84.3 L 111.3 88.7 L 110.6 88.7 L 110.6 83.4 L 111.4 83.4 " fill="#0000FF"/>
<path class="atom-17" d="M 102.6 42.1 L 104.3 44.9 Q 104.5 45.2, 104.8 45.7 Q 105.1 46.2, 105.1 46.2 L 105.1 42.1 L 105.8 42.1 L 105.8 47.4 L 105.1 47.4 L 103.2 44.3 Q 103.0 43.9, 102.7 43.5 Q 102.5 43.1, 102.4 43.0 L 102.4 47.4 L 101.7 47.4 L 101.7 42.1 L 102.6 42.1 " fill="#0000FF"/>
<path class="atom-17" d="M 101.7 36.2 L 102.4 36.2 L 102.4 38.5 L 105.1 38.5 L 105.1 36.2 L 105.9 36.2 L 105.9 41.5 L 105.1 41.5 L 105.1 39.1 L 102.4 39.1 L 102.4 41.5 L 101.7 41.5 L 101.7 36.2 " fill="#0000FF"/>
<path class="atom-23" d="M 173.5 145.8 L 175.2 148.7 Q 175.4 148.9, 175.7 149.5 Q 175.9 150.0, 175.9 150.0 L 175.9 145.8 L 176.7 145.8 L 176.7 151.2 L 175.9 151.2 L 174.0 148.1 Q 173.8 147.7, 173.6 147.3 Q 173.4 146.9, 173.3 146.8 L 173.3 151.2 L 172.6 151.2 L 172.6 145.8 L 173.5 145.8 " fill="#0000FF"/>
<path class="atom-26" d="M 167.8 95.3 L 169.6 98.1 Q 169.7 98.4, 170.0 98.9 Q 170.3 99.4, 170.3 99.5 L 170.3 95.3 L 171.0 95.3 L 171.0 100.7 L 170.3 100.7 L 168.4 97.6 Q 168.2 97.2, 168.0 96.8 Q 167.7 96.4, 167.7 96.3 L 167.7 100.7 L 167.0 100.7 L 167.0 95.3 L 167.8 95.3 " fill="#0000FF"/>
<path class="bond-0 atom-0 atom-1" d="M 419.9,42.4 L 438.2,38.2" style="fill:none;fill-rule:evenodd;stroke:#000000;stroke-width:2.0px;stroke-linecap:butt;stroke-linejoin:miter;stroke-opacity:1"/>
<path class="bond-1 atom-1 atom-2" d="M 438.2,38.2 L 443.8,20.2" style="fill:none;fill-rule:evenodd;stroke:#000000;stroke-width:2.0px;stroke-linecap:butt;stroke-linejoin:miter;stroke-opacity:1"/>
<path class="bond-1 atom-1 atom-2" d="M 441.4,37.5 L 446.0,22.6" style="fill:none;fill-rule:evenodd;stroke:#000000;stroke-width:2.0px;stroke-linecap:butt;stroke-linejoin:miter;stroke-opacity:1"/>
<path class="bond-2 atom-2 atom-3" d="M 443.8,20.2 L 462.2,16.1" style="fill:none;fill-rule:evenodd;stroke:#000000;stroke-width:2.0px;stroke-linecap:butt;stroke-linejoin:miter;stroke-opacity:1"/>
<path class="bond-3 atom-3 atom-4" d="M 462.2,16.1 L 474.9,29.9" style="fill:none;fill-rule:evenodd;stroke:#000000;stroke-width:2.0px;stroke-linecap:butt;stroke-linejoin:miter;stroke-opacity:1"/>
<path class="bond-3 atom-3 atom-4" d="M 461.2,19.2 L 471.8,30.6" style="fill:none;fill-rule:evenodd;stroke:#000000;stroke-width:2.0px;stroke-linecap:butt;stroke-linejoin:miter;stroke-opacity:1"/>
<path class="bond-4 atom-4 atom-5" d="M 474.9,29.9 L 483.0,28.1" style="fill:none;fill-rule:evenodd;stroke:#000000;stroke-width:2.0px;stroke-linecap:butt;stroke-linejoin:miter;stroke-opacity:1"/>
<path class="bond-4 atom-4 atom-5" d="M 483.0,28.1 L 491.1,26.2" style="fill:none;fill-rule:evenodd;stroke:#33CCCC;stroke-width:2.0px;stroke-linecap:butt;stroke-linejoin:miter;stroke-opacity:1"/>
<path class="bond-5 atom-4 atom-6" d="M 474.9,29.9 L 469.4,47.9" style="fill:none;fill-rule:evenodd;stroke:#000000;stroke-width:2.0px;stroke-linecap:butt;stroke-linejoin:miter;stroke-opacity:1"/>
<path class="bond-6 atom-6 atom-7" d="M 469.4,47.9 L 451.0,52.0" style="fill:none;fill-rule:evenodd;stroke:#000000;stroke-width:2.0px;stroke-linecap:butt;stroke-linejoin:miter;stroke-opacity:1"/>
<path class="bond-6 atom-6 atom-7" d="M 467.2,45.5 L 452.0,48.9" style="fill:none;fill-rule:evenodd;stroke:#000000;stroke-width:2.0px;stroke-linecap:butt;stroke-linejoin:miter;stroke-opacity:1"/>
<path class="bond-7 atom-7 atom-8" d="M 451.0,52.0 L 448.8,59.4" style="fill:none;fill-rule:evenodd;stroke:#000000;stroke-width:2.0px;stroke-linecap:butt;stroke-linejoin:miter;stroke-opacity:1"/>
<path class="bond-7 atom-7 atom-8" d="M 448.8,59.4 L 446.5,66.7" style="fill:none;fill-rule:evenodd;stroke:#FF0000;stroke-width:2.0px;stroke-linecap:butt;stroke-linejoin:miter;stroke-opacity:1"/>
<path class="bond-8 atom-8 atom-9" d="M 448.5,73.3 L 453.4,78.6" style="fill:none;fill-rule:evenodd;stroke:#FF0000;stroke-width:2.0px;stroke-linecap:butt;stroke-linejoin:miter;stroke-opacity:1"/>
<path class="bond-8 atom-8 atom-9" d="M 453.4,78.6 L 458.3,83.8" style="fill:none;fill-rule:evenodd;stroke:#000000;stroke-width:2.0px;stroke-linecap:butt;stroke-linejoin:miter;stroke-opacity:1"/>
<path class="bond-9 atom-9 atom-10" d="M 458.3,83.8 L 454.6,102.3" style="fill:none;fill-rule:evenodd;stroke:#000000;stroke-width:2.0px;stroke-linecap:butt;stroke-linejoin:miter;stroke-opacity:1"/>
<path class="bond-9 atom-9 atom-10" d="M 460.6,86.4 L 457.8,100.8" style="fill:none;fill-rule:evenodd;stroke:#000000;stroke-width:2.0px;stroke-linecap:butt;stroke-linejoin:miter;stroke-opacity:1"/>
<path class="bond-10 atom-10 atom-11" d="M 454.6,102.3 L 437.5,110.2" style="fill:none;fill-rule:evenodd;stroke:#000000;stroke-width:2.0px;stroke-linecap:butt;stroke-linejoin:miter;stroke-opacity:1"/>
<path class="bond-11 atom-11 atom-12" d="M 436.2,109.3 L 435.4,117.4" style="fill:none;fill-rule:evenodd;stroke:#000000;stroke-width:2.0px;stroke-linecap:butt;stroke-linejoin:miter;stroke-opacity:1"/>
<path class="bond-11 atom-11 atom-12" d="M 435.4,117.4 L 434.7,125.5" style="fill:none;fill-rule:evenodd;stroke:#FF0000;stroke-width:2.0px;stroke-linecap:butt;stroke-linejoin:miter;stroke-opacity:1"/>
<path class="bond-11 atom-11 atom-12" d="M 439.0,109.5 L 438.3,117.6" style="fill:none;fill-rule:evenodd;stroke:#000000;stroke-width:2.0px;stroke-linecap:butt;stroke-linejoin:miter;stroke-opacity:1"/>
<path class="bond-11 atom-11 atom-12" d="M 438.3,117.6 L 437.5,125.7" style="fill:none;fill-rule:evenodd;stroke:#FF0000;stroke-width:2.0px;stroke-linecap:butt;stroke-linejoin:miter;stroke-opacity:1"/>
<path class="bond-12 atom-11 atom-13" d="M 437.5,110.2 L 431.1,105.7" style="fill:none;fill-rule:evenodd;stroke:#000000;stroke-width:2.0px;stroke-linecap:butt;stroke-linejoin:miter;stroke-opacity:1"/>
<path class="bond-12 atom-11 atom-13" d="M 431.1,105.7 L 424.8,101.2" style="fill:none;fill-rule:evenodd;stroke:#0000FF;stroke-width:2.0px;stroke-linecap:butt;stroke-linejoin:miter;stroke-opacity:1"/>
<path class="bond-13 atom-13 atom-14" d="M 422.4,96.1 L 423.1,88.3" style="fill:none;fill-rule:evenodd;stroke:#0000FF;stroke-width:2.0px;stroke-linecap:butt;stroke-linejoin:miter;stroke-opacity:1"/>
<path class="bond-13 atom-13 atom-14" d="M 423.1,88.3 L 423.8,80.6" style="fill:none;fill-rule:evenodd;stroke:#000000;stroke-width:2.0px;stroke-linecap:butt;stroke-linejoin:miter;stroke-opacity:1"/>
<path class="bond-14 atom-14 atom-15" d="M 423.8,80.6 L 408.5,69.7" style="fill:none;fill-rule:evenodd;stroke:#000000;stroke-width:2.0px;stroke-linecap:butt;stroke-linejoin:miter;stroke-opacity:1"/>
<path class="bond-15 atom-15 atom-16" d="M 408.5,69.7 L 401.2,73.1" style="fill:none;fill-rule:evenodd;stroke:#000000;stroke-width:2.0px;stroke-linecap:butt;stroke-linejoin:miter;stroke-opacity:1"/>
<path class="bond-15 atom-15 atom-16" d="M 401.2,73.1 L 394.0,76.4" style="fill:none;fill-rule:evenodd;stroke:#0000FF;stroke-width:2.0px;stroke-linecap:butt;stroke-linejoin:miter;stroke-opacity:1"/>
<path class="bond-16 atom-16 atom-17" d="M 391.1,80.9 L 390.4,88.7" style="fill:none;fill-rule:evenodd;stroke:#0000FF;stroke-width:2.0px;stroke-linecap:butt;stroke-linejoin:miter;stroke-opacity:1"/>
<path class="bond-16 atom-16 atom-17" d="M 390.4,88.7 L 389.7,96.4" style="fill:none;fill-rule:evenodd;stroke:#000000;stroke-width:2.0px;stroke-linecap:butt;stroke-linejoin:miter;stroke-opacity:1"/>
<path class="bond-17 atom-17 atom-18" d="M 389.7,96.4 L 372.6,104.3" style="fill:none;fill-rule:evenodd;stroke:#000000;stroke-width:2.0px;stroke-linecap:butt;stroke-linejoin:miter;stroke-opacity:1"/>
<path class="bond-18 atom-17 atom-19" d="M 389.7,96.4 L 405.0,107.2" style="fill:none;fill-rule:evenodd;stroke:#000000;stroke-width:2.0px;stroke-linecap:butt;stroke-linejoin:miter;stroke-opacity:1"/>
<path class="bond-19 atom-10 atom-20" d="M 454.6,102.3 L 471.0,111.5" style="fill:none;fill-rule:evenodd;stroke:#000000;stroke-width:2.0px;stroke-linecap:butt;stroke-linejoin:miter;stroke-opacity:1"/>
<path class="bond-20 atom-20 atom-21" d="M 471.0,111.5 L 475.2,129.8" style="fill:none;fill-rule:evenodd;stroke:#000000;stroke-width:2.0px;stroke-linecap:butt;stroke-linejoin:miter;stroke-opacity:1"/>
<path class="bond-20 atom-20 atom-21" d="M 474.1,112.4 L 477.6,127.6" style="fill:none;fill-rule:evenodd;stroke:#000000;stroke-width:2.0px;stroke-linecap:butt;stroke-linejoin:miter;stroke-opacity:1"/>
<path class="bond-21 atom-21 atom-22" d="M 475.2,129.8 L 482.9,132.2" style="fill:none;fill-rule:evenodd;stroke:#000000;stroke-width:2.0px;stroke-linecap:butt;stroke-linejoin:miter;stroke-opacity:1"/>
<path class="bond-21 atom-21 atom-22" d="M 482.9,132.2 L 490.5,134.6" style="fill:none;fill-rule:evenodd;stroke:#0000FF;stroke-width:2.0px;stroke-linecap:butt;stroke-linejoin:miter;stroke-opacity:1"/>
<path class="bond-22 atom-22 atom-23" d="M 495.8,132.9 L 501.4,127.8" style="fill:none;fill-rule:evenodd;stroke:#0000FF;stroke-width:2.0px;stroke-linecap:butt;stroke-linejoin:miter;stroke-opacity:1"/>
<path class="bond-22 atom-22 atom-23" d="M 501.4,127.8 L 507.0,122.6" style="fill:none;fill-rule:evenodd;stroke:#000000;stroke-width:2.0px;stroke-linecap:butt;stroke-linejoin:miter;stroke-opacity:1"/>
<path class="bond-23 atom-23 atom-24" d="M 505.8,123.7 L 513.6,126.1" style="fill:none;fill-rule:evenodd;stroke:#000000;stroke-width:2.0px;stroke-linecap:butt;stroke-linejoin:miter;stroke-opacity:1"/>
<path class="bond-23 atom-23 atom-24" d="M 513.6,126.1 L 521.5,128.6" style="fill:none;fill-rule:evenodd;stroke:#FF0000;stroke-width:2.0px;stroke-linecap:butt;stroke-linejoin:miter;stroke-opacity:1"/>
<path class="bond-23 atom-23 atom-24" d="M 506.6,121.0 L 514.5,123.4" style="fill:none;fill-rule:evenodd;stroke:#000000;stroke-width:2.0px;stroke-linecap:butt;stroke-linejoin:miter;stroke-opacity:1"/>
<path class="bond-23 atom-23 atom-24" d="M 514.5,123.4 L 522.3,125.9" style="fill:none;fill-rule:evenodd;stroke:#FF0000;stroke-width:2.0px;stroke-linecap:butt;stroke-linejoin:miter;stroke-opacity:1"/>
<path class="bond-24 atom-23 atom-25" d="M 507.0,122.6 L 502.8,104.3" style="fill:none;fill-rule:evenodd;stroke:#000000;stroke-width:2.0px;stroke-linecap:butt;stroke-linejoin:miter;stroke-opacity:1"/>
<path class="bond-25 atom-25 atom-26" d="M 502.8,104.3 L 484.8,98.7" style="fill:none;fill-rule:evenodd;stroke:#000000;stroke-width:2.0px;stroke-linecap:butt;stroke-linejoin:miter;stroke-opacity:1"/>
<path class="bond-25 atom-25 atom-26" d="M 500.4,106.5 L 485.6,101.9" style="fill:none;fill-rule:evenodd;stroke:#000000;stroke-width:2.0px;stroke-linecap:butt;stroke-linejoin:miter;stroke-opacity:1"/>
<path class="bond-26 atom-26 atom-27" d="M 484.8,98.7 L 481.7,91.8" style="fill:none;fill-rule:evenodd;stroke:#000000;stroke-width:2.0px;stroke-linecap:butt;stroke-linejoin:miter;stroke-opacity:1"/>
<path class="bond-26 atom-26 atom-27" d="M 481.7,91.8 L 478.5,84.9" style="fill:none;fill-rule:evenodd;stroke:#0000FF;stroke-width:2.0px;stroke-linecap:butt;stroke-linejoin:miter;stroke-opacity:1"/>
<path class="bond-27 atom-27 atom-28" d="M 478.8,78.3 L 482.5,71.7" style="fill:none;fill-rule:evenodd;stroke:#0000FF;stroke-width:2.0px;stroke-linecap:butt;stroke-linejoin:miter;stroke-opacity:1"/>
<path class="bond-27 atom-27 atom-28" d="M 482.5,71.7 L 486.1,65.2" style="fill:none;fill-rule:evenodd;stroke:#000000;stroke-width:2.0px;stroke-linecap:butt;stroke-linejoin:miter;stroke-opacity:1"/>
<path class="bond-28 atom-28 atom-29" d="M 486.1,65.2 L 504.2,60.0" style="fill:none;fill-rule:evenodd;stroke:#000000;stroke-width:2.0px;stroke-linecap:butt;stroke-linejoin:miter;stroke-opacity:1"/>
<path class="bond-29 atom-29 atom-30" d="M 504.2,60.0 L 499.1,41.9" style="fill:none;fill-rule:evenodd;stroke:#000000;stroke-width:2.0px;stroke-linecap:butt;stroke-linejoin:miter;stroke-opacity:1"/>
<path class="bond-30 atom-30 atom-31" d="M 499.1,41.9 L 481.0,47.1" style="fill:none;fill-rule:evenodd;stroke:#000000;stroke-width:2.0px;stroke-linecap:butt;stroke-linejoin:miter;stroke-opacity:1"/>
<path class="bond-31 atom-7 atom-1" d="M 451.0,52.0 L 438.2,38.2" style="fill:none;fill-rule:evenodd;stroke:#000000;stroke-width:2.0px;stroke-linecap:butt;stroke-linejoin:miter;stroke-opacity:1"/>
<path class="bond-32 atom-27 atom-9" d="M 474.3,81.9 L 466.3,82.9" style="fill:none;fill-rule:evenodd;stroke:#0000FF;stroke-width:2.0px;stroke-linecap:butt;stroke-linejoin:miter;stroke-opacity:1"/>
<path class="bond-32 atom-27 atom-9" d="M 466.3,82.9 L 458.3,83.8" style="fill:none;fill-rule:evenodd;stroke:#000000;stroke-width:2.0px;stroke-linecap:butt;stroke-linejoin:miter;stroke-opacity:1"/>
<path class="bond-33 atom-31 atom-28" d="M 481.0,47.1 L 486.1,65.2" style="fill:none;fill-rule:evenodd;stroke:#000000;stroke-width:2.0px;stroke-linecap:butt;stroke-linejoin:miter;stroke-opacity:1"/>
<path class="bond-34 atom-19 atom-13" d="M 405.0,107.2 L 412.3,103.9" style="fill:none;fill-rule:evenodd;stroke:#000000;stroke-width:2.0px;stroke-linecap:butt;stroke-linejoin:miter;stroke-opacity:1"/>
<path class="bond-34 atom-19 atom-13" d="M 412.3,103.9 L 419.5,100.6" style="fill:none;fill-rule:evenodd;stroke:#0000FF;stroke-width:2.0px;stroke-linecap:butt;stroke-linejoin:miter;stroke-opacity:1"/>
<path class="bond-35 atom-26 atom-20" d="M 484.8,98.7 L 471.0,111.5" style="fill:none;fill-rule:evenodd;stroke:#000000;stroke-width:2.0px;stroke-linecap:butt;stroke-linejoin:miter;stroke-opacity:1"/>
<path d="M 443.5,21.1 L 443.8,20.2 L 444.7,20.0" style="fill:none;stroke:#000000;stroke-width:2.0px;stroke-linecap:butt;stroke-linejoin:miter;stroke-opacity:1;"/>
<path d="M 461.2,16.3 L 462.2,16.1 L 462.8,16.8" style="fill:none;stroke:#000000;stroke-width:2.0px;stroke-linecap:butt;stroke-linejoin:miter;stroke-opacity:1;"/>
<path d="M 469.7,47.0 L 469.4,47.9 L 468.5,48.1" style="fill:none;stroke:#000000;stroke-width:2.0px;stroke-linecap:butt;stroke-linejoin:miter;stroke-opacity:1;"/>
<path d="M 438.4,109.8 L 437.5,110.2 L 437.2,110.0" style="fill:none;stroke:#000000;stroke-width:2.0px;stroke-linecap:butt;stroke-linejoin:miter;stroke-opacity:1;"/>
<path d="M 423.8,81.0 L 423.8,80.6 L 423.1,80.1" style="fill:none;stroke:#000000;stroke-width:2.0px;stroke-linecap:butt;stroke-linejoin:miter;stroke-opacity:1;"/>
<path d="M 409.2,70.3 L 408.5,69.7 L 408.1,69.9" style="fill:none;stroke:#000000;stroke-width:2.0px;stroke-linecap:butt;stroke-linejoin:miter;stroke-opacity:1;"/>
<path d="M 404.3,106.7 L 405.0,107.2 L 405.4,107.1" style="fill:none;stroke:#000000;stroke-width:2.0px;stroke-linecap:butt;stroke-linejoin:miter;stroke-opacity:1;"/>
<path d="M 475.0,128.9 L 475.2,129.8 L 475.6,129.9" style="fill:none;stroke:#000000;stroke-width:2.0px;stroke-linecap:butt;stroke-linejoin:miter;stroke-opacity:1;"/>
<path d="M 506.7,122.9 L 507.0,122.6 L 506.8,121.7" style="fill:none;stroke:#000000;stroke-width:2.0px;stroke-linecap:butt;stroke-linejoin:miter;stroke-opacity:1;"/>
<path d="M 503.0,105.2 L 502.8,104.3 L 501.9,104.0" style="fill:none;stroke:#000000;stroke-width:2.0px;stroke-linecap:butt;stroke-linejoin:miter;stroke-opacity:1;"/>
<path d="M 503.3,60.3 L 504.2,60.0 L 504.0,59.1" style="fill:none;stroke:#000000;stroke-width:2.0px;stroke-linecap:butt;stroke-linejoin:miter;stroke-opacity:1;"/>
<path d="M 499.4,42.8 L 499.1,41.9 L 498.2,42.2" style="fill:none;stroke:#000000;stroke-width:2.0px;stroke-linecap:butt;stroke-linejoin:miter;stroke-opacity:1;"/>
<path d="M 481.9,46.8 L 481.0,47.1 L 481.3,48.0" style="fill:none;stroke:#000000;stroke-width:2.0px;stroke-linecap:butt;stroke-linejoin:miter;stroke-opacity:1;"/>
<path class="atom-5" d="M 491.7 23.0 L 494.9 23.0 L 494.9 23.7 L 492.4 23.7 L 492.4 25.3 L 494.6 25.3 L 494.6 25.9 L 492.4 25.9 L 492.4 28.4 L 491.7 28.4 L 491.7 23.0 " fill="#33CCCC"/>
<path class="atom-8" d="M 443.0 70.0 Q 443.0 68.8, 443.7 68.0 Q 444.3 67.3, 445.5 67.3 Q 446.6 67.3, 447.3 68.0 Q 447.9 68.8, 447.9 70.0 Q 447.9 71.3, 447.3 72.1 Q 446.6 72.8, 445.5 72.8 Q 444.3 72.8, 443.7 72.1 Q 443.0 71.3, 443.0 70.0 M 445.5 72.2 Q 446.3 72.2, 446.7 71.7 Q 447.2 71.1, 447.2 70.0 Q 447.2 69.0, 446.7 68.5 Q 446.3 67.9, 445.5 67.9 Q 444.7 67.9, 444.2 68.5 Q 443.8 69.0, 443.8 70.0 Q 443.8 71.1, 444.2 71.7 Q 444.7 72.2, 445.5 72.2 " fill="#FF0000"/>
<path class="atom-12" d="M 433.4 129.0 Q 433.4 127.7, 434.0 127.0 Q 434.6 126.2, 435.8 126.2 Q 437.0 126.2, 437.6 127.0 Q 438.3 127.7, 438.3 129.0 Q 438.3 130.2, 437.6 131.0 Q 437.0 131.7, 435.8 131.7 Q 434.6 131.7, 434.0 131.0 Q 433.4 130.3, 433.4 129.0 M 435.8 131.1 Q 436.6 131.1, 437.1 130.6 Q 437.5 130.0, 437.5 129.0 Q 437.5 127.9, 437.1 127.4 Q 436.6 126.8, 435.8 126.8 Q 435.0 126.8, 434.6 127.4 Q 434.1 127.9, 434.1 129.0 Q 434.1 130.0, 434.6 130.6 Q 435.0 131.1, 435.8 131.1 " fill="#FF0000"/>
<path class="atom-13" d="M 421.0 96.7 L 422.7 99.5 Q 422.9 99.8, 423.2 100.3 Q 423.4 100.8, 423.4 100.8 L 423.4 96.7 L 424.2 96.7 L 424.2 102.0 L 423.4 102.0 L 421.5 98.9 Q 421.3 98.6, 421.1 98.1 Q 420.9 97.7, 420.8 97.6 L 420.8 102.0 L 420.1 102.0 L 420.1 96.7 L 421.0 96.7 " fill="#0000FF"/>
<path class="atom-16" d="M 384.1 75.0 L 384.8 75.0 L 384.8 77.2 L 387.6 77.2 L 387.6 75.0 L 388.3 75.0 L 388.3 80.3 L 387.6 80.3 L 387.6 77.8 L 384.8 77.8 L 384.8 80.3 L 384.1 80.3 L 384.1 75.0 " fill="#0000FF"/>
<path class="atom-16" d="M 390.2 75.0 L 391.9 77.8 Q 392.1 78.1, 392.4 78.6 Q 392.7 79.1, 392.7 79.1 L 392.7 75.0 L 393.4 75.0 L 393.4 80.3 L 392.7 80.3 L 390.8 77.2 Q 390.6 76.9, 390.3 76.4 Q 390.1 76.0, 390.0 75.9 L 390.0 80.3 L 389.3 80.3 L 389.3 75.0 L 390.2 75.0 " fill="#0000FF"/>
<path class="atom-22" d="M 492.0 132.7 L 493.8 135.6 Q 493.9 135.8, 494.2 136.3 Q 494.5 136.8, 494.5 136.9 L 494.5 132.7 L 495.2 132.7 L 495.2 138.1 L 494.5 138.1 L 492.6 135.0 Q 492.4 134.6, 492.1 134.2 Q 491.9 133.8, 491.9 133.7 L 491.9 138.1 L 491.2 138.1 L 491.2 132.7 L 492.0 132.7 " fill="#0000FF"/>
<path class="atom-22" d="M 491.1 138.6 L 491.8 138.6 L 491.8 140.9 L 494.5 140.9 L 494.5 138.6 L 495.3 138.6 L 495.3 143.9 L 494.5 143.9 L 494.5 141.5 L 491.8 141.5 L 491.8 143.9 L 491.1 143.9 L 491.1 138.6 " fill="#0000FF"/>
<path class="atom-24" d="M 522.5 128.2 Q 522.5 126.9, 523.2 126.2 Q 523.8 125.5, 525.0 125.5 Q 526.2 125.5, 526.8 126.2 Q 527.4 126.9, 527.4 128.2 Q 527.4 129.5, 526.8 130.2 Q 526.1 130.9, 525.0 130.9 Q 523.8 130.9, 523.2 130.2 Q 522.5 129.5, 522.5 128.2 M 525.0 130.3 Q 525.8 130.3, 526.2 129.8 Q 526.7 129.3, 526.7 128.2 Q 526.7 127.1, 526.2 126.6 Q 525.8 126.1, 525.0 126.1 Q 524.2 126.1, 523.7 126.6 Q 523.3 127.1, 523.3 128.2 Q 523.3 129.3, 523.7 129.8 Q 524.2 130.3, 525.0 130.3 " fill="#FF0000"/>
<path class="atom-27" d="M 475.8 78.9 L 477.5 81.8 Q 477.7 82.0, 478.0 82.5 Q 478.2 83.0, 478.3 83.1 L 478.3 78.9 L 479.0 78.9 L 479.0 84.3 L 478.2 84.3 L 476.4 81.2 Q 476.1 80.8, 475.9 80.4 Q 475.7 80.0, 475.6 79.9 L 475.6 84.3 L 474.9 84.3 L 474.9 78.9 L 475.8 78.9 " fill="#0000FF"/>
</svg>