<svg xmlns="http://www.w3.org/2000/svg" xmlns:rdkit="http://www.rdkit.org/xml" xmlns:xlink="http://www.w3.org/1999/xlink" version="1.1" baseProfile="full" xml:space="preserve" width="900px" height="160px" viewBox="0 0 900 160">
<!-- END OF HEADER -->
<rect style="opacity:1.0;fill:#FFFFFF;stroke:none" width="900.0" height="160.0" x="0.0" y="0.0"> </rect>
<path class="bond-0 atom-0 atom-1" d="M 30.1,69.9 L 46.4,54.4" style="fill:none;fill-rule:evenodd;stroke:#000000;stroke-width:2.0px;stroke-linecap:butt;stroke-linejoin:miter;stroke-opacity:1"/>
<path class="bond-1 atom-1 atom-2" d="M 46.4,54.4 L 41.1,32.6" style="fill:none;fill-rule:evenodd;stroke:#000000;stroke-width:2.0px;stroke-linecap:butt;stroke-linejoin:miter;stroke-opacity:1"/>
<path class="bond-1 atom-1 atom-2" d="M 49.2,51.8 L 44.8,33.7" style="fill:none;fill-rule:evenodd;stroke:#000000;stroke-width:2.0px;stroke-linecap:butt;stroke-linejoin:miter;stroke-opacity:1"/>
<path class="bond-2 atom-2 atom-3" d="M 41.1,32.6 L 31.6,29.9" style="fill:none;fill-rule:evenodd;stroke:#000000;stroke-width:2.0px;stroke-linecap:butt;stroke-linejoin:miter;stroke-opacity:1"/>
<path class="bond-2 atom-2 atom-3" d="M 31.6,29.9 L 22.2,27.1" style="fill:none;fill-rule:evenodd;stroke:#33CCCC;stroke-width:2.0px;stroke-linecap:butt;stroke-linejoin:miter;stroke-opacity:1"/>
<path class="bond-3 atom-2 atom-4" d="M 41.1,32.6 L 57.3,17.2" style="fill:none;fill-rule:evenodd;stroke:#000000;stroke-width:2.0px;stroke-linecap:butt;stroke-linejoin:miter;stroke-opacity:1"/>
<path class="bond-4 atom-4 atom-5" d="M 57.3,17.2 L 78.9,23.5" style="fill:none;fill-rule:evenodd;stroke:#000000;stroke-width:2.0px;stroke-linecap:butt;stroke-linejoin:miter;stroke-opacity:1"/>
<path class="bond-4 atom-4 atom-5" d="M 58.2,20.9 L 76.0,26.2" style="fill:none;fill-rule:evenodd;stroke:#000000;stroke-width:2.0px;stroke-linecap:butt;stroke-linejoin:miter;stroke-opacity:1"/>
<path class="bond-5 atom-5 atom-6" d="M 78.9,23.5 L 84.1,45.3" style="fill:none;fill-rule:evenodd;stroke:#000000;stroke-width:2.0px;stroke-linecap:butt;stroke-linejoin:miter;stroke-opacity:1"/>
<path class="bond-6 atom-6 atom-7" d="M 84.1,45.3 L 67.9,60.8" style="fill:none;fill-rule:evenodd;stroke:#000000;stroke-width:2.0px;stroke-linecap:butt;stroke-linejoin:miter;stroke-opacity:1"/>
<path class="bond-6 atom-6 atom-7" d="M 80.4,44.2 L 67.0,57.0" style="fill:none;fill-rule:evenodd;stroke:#000000;stroke-width:2.0px;stroke-linecap:butt;stroke-linejoin:miter;stroke-opacity:1"/>
<path class="bond-7 atom-7 atom-8" d="M 67.9,60.8 L 73.2,82.6" style="fill:none;fill-rule:evenodd;stroke:#000000;stroke-width:2.0px;stroke-linecap:butt;stroke-linejoin:miter;stroke-opacity:1"/>
<path class="bond-8 atom-8 atom-9" d="M 73.2,82.6 L 94.7,88.9" style="fill:none;fill-rule:evenodd;stroke:#000000;stroke-width:2.0px;stroke-linecap:butt;stroke-linejoin:miter;stroke-opacity:1"/>
<path class="bond-9 atom-9 atom-10" d="M 94.7,88.9 L 102.2,110.0" style="fill:none;fill-rule:evenodd;stroke:#000000;stroke-width:2.0px;stroke-linecap:butt;stroke-linejoin:miter;stroke-opacity:1"/>
<path class="bond-9 atom-9 atom-10" d="M 98.7,90.1 L 104.6,106.6" style="fill:none;fill-rule:evenodd;stroke:#000000;stroke-width:2.0px;stroke-linecap:butt;stroke-linejoin:miter;stroke-opacity:1"/>
<path class="bond-10 atom-10 atom-11" d="M 102.2,110.0 L 89.6,128.5" style="fill:none;fill-rule:evenodd;stroke:#000000;stroke-width:2.0px;stroke-linecap:butt;stroke-linejoin:miter;stroke-opacity:1"/>
<path class="bond-11 atom-11 atom-12" d="M 87.6,128.4 L 91.8,137.0" style="fill:none;fill-rule:evenodd;stroke:#000000;stroke-width:2.0px;stroke-linecap:butt;stroke-linejoin:miter;stroke-opacity:1"/>
<path class="bond-11 atom-11 atom-12" d="M 91.8,137.0 L 95.9,145.5" style="fill:none;fill-rule:evenodd;stroke:#FF0000;stroke-width:2.0px;stroke-linecap:butt;stroke-linejoin:miter;stroke-opacity:1"/>
<path class="bond-11 atom-11 atom-12" d="M 90.7,126.9 L 94.8,135.5" style="fill:none;fill-rule:evenodd;stroke:#000000;stroke-width:2.0px;stroke-linecap:butt;stroke-linejoin:miter;stroke-opacity:1"/>
<path class="bond-11 atom-11 atom-12" d="M 94.8,135.5 L 98.9,144.1" style="fill:none;fill-rule:evenodd;stroke:#FF0000;stroke-width:2.0px;stroke-linecap:butt;stroke-linejoin:miter;stroke-opacity:1"/>
<path class="bond-12 atom-11 atom-13" d="M 89.6,128.5 L 80.0,127.8" style="fill:none;fill-rule:evenodd;stroke:#000000;stroke-width:2.0px;stroke-linecap:butt;stroke-linejoin:miter;stroke-opacity:1"/>
<path class="bond-12 atom-11 atom-13" d="M 80.0,127.8 L 70.4,127.1" style="fill:none;fill-rule:evenodd;stroke:#0000FF;stroke-width:2.0px;stroke-linecap:butt;stroke-linejoin:miter;stroke-opacity:1"/>
<path class="bond-13 atom-13 atom-14" d="M 65.3,122.9 L 61.4,114.8" style="fill:none;fill-rule:evenodd;stroke:#0000FF;stroke-width:2.0px;stroke-linecap:butt;stroke-linejoin:miter;stroke-opacity:1"/>
<path class="bond-13 atom-13 atom-14" d="M 61.4,114.8 L 57.5,106.6" style="fill:none;fill-rule:evenodd;stroke:#000000;stroke-width:2.0px;stroke-linecap:butt;stroke-linejoin:miter;stroke-opacity:1"/>
<path class="bond-14 atom-14 atom-15" d="M 57.5,106.6 L 35.1,104.9" style="fill:none;fill-rule:evenodd;stroke:#000000;stroke-width:2.0px;stroke-linecap:butt;stroke-linejoin:miter;stroke-opacity:1"/>
<path class="bond-15 atom-15 atom-16" d="M 35.1,104.9 L 30.1,112.2" style="fill:none;fill-rule:evenodd;stroke:#000000;stroke-width:2.0px;stroke-linecap:butt;stroke-linejoin:miter;stroke-opacity:1"/>
<path class="bond-15 atom-15 atom-16" d="M 30.1,112.2 L 25.1,119.5" style="fill:none;fill-rule:evenodd;stroke:#0000FF;stroke-width:2.0px;stroke-linecap:butt;stroke-linejoin:miter;stroke-opacity:1"/>
<path class="bond-16 atom-16 atom-17" d="M 24.3,127.3 L 28.3,135.5" style="fill:none;fill-rule:evenodd;stroke:#0000FF;stroke-width:2.0px;stroke-linecap:butt;stroke-linejoin:miter;stroke-opacity:1"/>
<path class="bond-16 atom-16 atom-17" d="M 28.3,135.5 L 32.2,143.6" style="fill:none;fill-rule:evenodd;stroke:#000000;stroke-width:2.0px;stroke-linecap:butt;stroke-linejoin:miter;stroke-opacity:1"/>
<path class="bond-17 atom-17 atom-18" d="M 32.2,143.6 L 54.5,145.3" style="fill:none;fill-rule:evenodd;stroke:#000000;stroke-width:2.0px;stroke-linecap:butt;stroke-linejoin:miter;stroke-opacity:1"/>
<path class="bond-18 atom-10 atom-19" d="M 102.2,110.0 L 124.7,109.4" style="fill:none;fill-rule:evenodd;stroke:#000000;stroke-width:2.0px;stroke-linecap:butt;stroke-linejoin:miter;stroke-opacity:1"/>
<path class="bond-19 atom-19 atom-20" d="M 124.7,109.4 L 140.1,125.6" style="fill:none;fill-rule:evenodd;stroke:#000000;stroke-width:2.0px;stroke-linecap:butt;stroke-linejoin:miter;stroke-opacity:1"/>
<path class="bond-19 atom-19 atom-20" d="M 128.4,108.5 L 141.2,121.9" style="fill:none;fill-rule:evenodd;stroke:#000000;stroke-width:2.0px;stroke-linecap:butt;stroke-linejoin:miter;stroke-opacity:1"/>
<path class="bond-20 atom-20 atom-21" d="M 140.1,125.6 L 161.9,120.3" style="fill:none;fill-rule:evenodd;stroke:#000000;stroke-width:2.0px;stroke-linecap:butt;stroke-linejoin:miter;stroke-opacity:1"/>
<path class="bond-21 atom-21 atom-22" d="M 161.9,120.3 L 168.3,98.8" style="fill:none;fill-rule:evenodd;stroke:#000000;stroke-width:2.0px;stroke-linecap:butt;stroke-linejoin:miter;stroke-opacity:1"/>
<path class="bond-21 atom-21 atom-22" d="M 159.3,117.5 L 164.5,99.7" style="fill:none;fill-rule:evenodd;stroke:#000000;stroke-width:2.0px;stroke-linecap:butt;stroke-linejoin:miter;stroke-opacity:1"/>
<path class="bond-22 atom-22 atom-23" d="M 168.3,98.8 L 184.8,94.8" style="fill:none;fill-rule:evenodd;stroke:#000000;stroke-width:2.0px;stroke-linecap:butt;stroke-linejoin:miter;stroke-opacity:1"/>
<path class="bond-23 atom-23 atom-24" d="M 191.0,97.5 L 194.4,111.4" style="fill:none;fill-rule:evenodd;stroke:#000000;stroke-width:2.0px;stroke-linecap:butt;stroke-linejoin:miter;stroke-opacity:1"/>
<path class="bond-24 atom-23 atom-25" d="M 187.4,82.5 L 185.8,75.8" style="fill:none;fill-rule:evenodd;stroke:#000000;stroke-width:2.0px;stroke-linecap:butt;stroke-linejoin:miter;stroke-opacity:1"/>
<path class="bond-25 atom-23 atom-26" d="M 195.3,92.3 L 211.9,88.2" style="fill:none;fill-rule:evenodd;stroke:#000000;stroke-width:2.0px;stroke-linecap:butt;stroke-linejoin:miter;stroke-opacity:1"/>
<path class="bond-26 atom-26 atom-27" d="M 211.9,88.2 L 227.4,104.5" style="fill:none;fill-rule:evenodd;stroke:#000000;stroke-width:2.0px;stroke-linecap:butt;stroke-linejoin:miter;stroke-opacity:1"/>
<path class="bond-26 atom-26 atom-27" d="M 215.7,87.3 L 228.5,100.8" style="fill:none;fill-rule:evenodd;stroke:#000000;stroke-width:2.0px;stroke-linecap:butt;stroke-linejoin:miter;stroke-opacity:1"/>
<path class="bond-27 atom-27 atom-28" d="M 227.4,104.5 L 249.2,99.2" style="fill:none;fill-rule:evenodd;stroke:#000000;stroke-width:2.0px;stroke-linecap:butt;stroke-linejoin:miter;stroke-opacity:1"/>
<path class="bond-28 atom-28 atom-29" d="M 249.2,99.2 L 255.5,77.7" style="fill:none;fill-rule:evenodd;stroke:#000000;stroke-width:2.0px;stroke-linecap:butt;stroke-linejoin:miter;stroke-opacity:1"/>
<path class="bond-28 atom-28 atom-29" d="M 246.5,96.4 L 251.7,78.6" style="fill:none;fill-rule:evenodd;stroke:#000000;stroke-width:2.0px;stroke-linecap:butt;stroke-linejoin:miter;stroke-opacity:1"/>
<path class="bond-29 atom-29 atom-30" d="M 255.5,77.7 L 264.6,75.5" style="fill:none;fill-rule:evenodd;stroke:#000000;stroke-width:2.0px;stroke-linecap:butt;stroke-linejoin:miter;stroke-opacity:1"/>
<path class="bond-29 atom-29 atom-30" d="M 264.6,75.5 L 273.6,73.3" style="fill:none;fill-rule:evenodd;stroke:#FF0000;stroke-width:2.0px;stroke-linecap:butt;stroke-linejoin:miter;stroke-opacity:1"/>
<path class="bond-30 atom-29 atom-31" d="M 255.5,77.7 L 240.0,61.4" style="fill:none;fill-rule:evenodd;stroke:#000000;stroke-width:2.0px;stroke-linecap:butt;stroke-linejoin:miter;stroke-opacity:1"/>
<path class="bond-31 atom-31 atom-32" d="M 240.0,61.4 L 218.2,66.7" style="fill:none;fill-rule:evenodd;stroke:#000000;stroke-width:2.0px;stroke-linecap:butt;stroke-linejoin:miter;stroke-opacity:1"/>
<path class="bond-31 atom-31 atom-32" d="M 238.9,65.2 L 220.9,69.5" style="fill:none;fill-rule:evenodd;stroke:#000000;stroke-width:2.0px;stroke-linecap:butt;stroke-linejoin:miter;stroke-opacity:1"/>
<path class="bond-32 atom-32 atom-33" d="M 218.2,66.7 L 212.0,60.3" style="fill:none;fill-rule:evenodd;stroke:#000000;stroke-width:2.0px;stroke-linecap:butt;stroke-linejoin:miter;stroke-opacity:1"/>
<path class="bond-32 atom-32 atom-33" d="M 212.0,60.3 L 205.9,53.8" style="fill:none;fill-rule:evenodd;stroke:#0000FF;stroke-width:2.0px;stroke-linecap:butt;stroke-linejoin:miter;stroke-opacity:1"/>
<path class="bond-33 atom-33 atom-34" d="M 203.9,46.6 L 207.9,32.9" style="fill:none;fill-rule:evenodd;stroke:#0000FF;stroke-width:2.0px;stroke-linecap:butt;stroke-linejoin:miter;stroke-opacity:1"/>
<path class="bond-34 atom-22 atom-35" d="M 168.3,98.8 L 152.8,82.6" style="fill:none;fill-rule:evenodd;stroke:#000000;stroke-width:2.0px;stroke-linecap:butt;stroke-linejoin:miter;stroke-opacity:1"/>
<path class="bond-35 atom-35 atom-36" d="M 152.8,82.6 L 131.0,87.9" style="fill:none;fill-rule:evenodd;stroke:#000000;stroke-width:2.0px;stroke-linecap:butt;stroke-linejoin:miter;stroke-opacity:1"/>
<path class="bond-35 atom-35 atom-36" d="M 151.7,86.3 L 133.7,90.7" style="fill:none;fill-rule:evenodd;stroke:#000000;stroke-width:2.0px;stroke-linecap:butt;stroke-linejoin:miter;stroke-opacity:1"/>
<path class="bond-36 atom-36 atom-37" d="M 131.0,87.9 L 123.3,82.6" style="fill:none;fill-rule:evenodd;stroke:#000000;stroke-width:2.0px;stroke-linecap:butt;stroke-linejoin:miter;stroke-opacity:1"/>
<path class="bond-36 atom-36 atom-37" d="M 123.3,82.6 L 115.6,77.4" style="fill:none;fill-rule:evenodd;stroke:#0000FF;stroke-width:2.0px;stroke-linecap:butt;stroke-linejoin:miter;stroke-opacity:1"/>
<path class="bond-37 atom-37 atom-38" d="M 112.4,71.3 L 112.1,62.0" style="fill:none;fill-rule:evenodd;stroke:#0000FF;stroke-width:2.0px;stroke-linecap:butt;stroke-linejoin:miter;stroke-opacity:1"/>
<path class="bond-37 atom-37 atom-38" d="M 112.1,62.0 L 111.8,52.8" style="fill:none;fill-rule:evenodd;stroke:#000000;stroke-width:2.0px;stroke-linecap:butt;stroke-linejoin:miter;stroke-opacity:1"/>
<path class="bond-38 atom-38 atom-39" d="M 111.8,52.8 L 130.9,41.0" style="fill:none;fill-rule:evenodd;stroke:#000000;stroke-width:2.0px;stroke-linecap:butt;stroke-linejoin:miter;stroke-opacity:1"/>
<path class="bond-38 atom-38 atom-39" d="M 111.7,48.9 L 127.5,39.2" style="fill:none;fill-rule:evenodd;stroke:#000000;stroke-width:2.0px;stroke-linecap:butt;stroke-linejoin:miter;stroke-opacity:1"/>
<path class="bond-39 atom-39 atom-40" d="M 130.9,41.0 L 130.3,18.6" style="fill:none;fill-rule:evenodd;stroke:#000000;stroke-width:2.0px;stroke-linecap:butt;stroke-linejoin:miter;stroke-opacity:1"/>
<path class="bond-40 atom-40 atom-41" d="M 130.3,18.6 L 110.6,7.9" style="fill:none;fill-rule:evenodd;stroke:#000000;stroke-width:2.0px;stroke-linecap:butt;stroke-linejoin:miter;stroke-opacity:1"/>
<path class="bond-40 atom-40 atom-41" d="M 127.0,20.6 L 110.7,11.8" style="fill:none;fill-rule:evenodd;stroke:#000000;stroke-width:2.0px;stroke-linecap:butt;stroke-linejoin:miter;stroke-opacity:1"/>
<path class="bond-41 atom-41 atom-42" d="M 110.6,7.9 L 91.5,19.7" style="fill:none;fill-rule:evenodd;stroke:#000000;stroke-width:2.0px;stroke-linecap:butt;stroke-linejoin:miter;stroke-opacity:1"/>
<path class="bond-42 atom-42 atom-43" d="M 91.5,19.7 L 92.1,42.1" style="fill:none;fill-rule:evenodd;stroke:#000000;stroke-width:2.0px;stroke-linecap:butt;stroke-linejoin:miter;stroke-opacity:1"/>
<path class="bond-42 atom-42 atom-43" d="M 94.9,21.5 L 95.4,40.1" style="fill:none;fill-rule:evenodd;stroke:#000000;stroke-width:2.0px;stroke-linecap:butt;stroke-linejoin:miter;stroke-opacity:1"/>
<path class="bond-43 atom-7 atom-1" d="M 67.9,60.8 L 46.4,54.4" style="fill:none;fill-rule:evenodd;stroke:#000000;stroke-width:2.0px;stroke-linecap:butt;stroke-linejoin:miter;stroke-opacity:1"/>
<path class="bond-44 atom-37 atom-9" d="M 109.3,77.6 L 102.0,83.3" style="fill:none;fill-rule:evenodd;stroke:#0000FF;stroke-width:2.0px;stroke-linecap:butt;stroke-linejoin:miter;stroke-opacity:1"/>
<path class="bond-44 atom-37 atom-9" d="M 102.0,83.3 L 94.7,88.9" style="fill:none;fill-rule:evenodd;stroke:#000000;stroke-width:2.0px;stroke-linecap:butt;stroke-linejoin:miter;stroke-opacity:1"/>
<path class="bond-45 atom-43 atom-38" d="M 92.1,42.1 L 111.8,52.8" style="fill:none;fill-rule:evenodd;stroke:#000000;stroke-width:2.0px;stroke-linecap:butt;stroke-linejoin:miter;stroke-opacity:1"/>
<path class="bond-46 atom-18 atom-13" d="M 54.5,145.3 L 59.5,138.0" style="fill:none;fill-rule:evenodd;stroke:#000000;stroke-width:2.0px;stroke-linecap:butt;stroke-linejoin:miter;stroke-opacity:1"/>
<path class="bond-46 atom-18 atom-13" d="M 59.5,138.0 L 64.5,130.7" style="fill:none;fill-rule:evenodd;stroke:#0000FF;stroke-width:2.0px;stroke-linecap:butt;stroke-linejoin:miter;stroke-opacity:1"/>
<path class="bond-47 atom-36 atom-19" d="M 131.0,87.9 L 124.7,109.4" style="fill:none;fill-rule:evenodd;stroke:#000000;stroke-width:2.0px;stroke-linecap:butt;stroke-linejoin:miter;stroke-opacity:1"/>
<path class="bond-48 atom-32 atom-26" d="M 218.2,66.7 L 211.9,88.2" style="fill:none;fill-rule:evenodd;stroke:#000000;stroke-width:2.0px;stroke-linecap:butt;stroke-linejoin:miter;stroke-opacity:1"/>
<path d="M 56.5,17.9 L 57.3,17.2 L 58.4,17.5" style="fill:none;stroke:#000000;stroke-width:2.0px;stroke-linecap:butt;stroke-linejoin:miter;stroke-opacity:1;"/>
<path d="M 77.8,23.2 L 78.9,23.5 L 79.1,24.6" style="fill:none;stroke:#000000;stroke-width:2.0px;stroke-linecap:butt;stroke-linejoin:miter;stroke-opacity:1;"/>
<path d="M 83.9,44.2 L 84.1,45.3 L 83.3,46.1" style="fill:none;stroke:#000000;stroke-width:2.0px;stroke-linecap:butt;stroke-linejoin:miter;stroke-opacity:1;"/>
<path d="M 72.9,81.5 L 73.2,82.6 L 74.3,82.9" style="fill:none;stroke:#000000;stroke-width:2.0px;stroke-linecap:butt;stroke-linejoin:miter;stroke-opacity:1;"/>
<path d="M 90.2,127.6 L 89.6,128.5 L 89.1,128.5" style="fill:none;stroke:#000000;stroke-width:2.0px;stroke-linecap:butt;stroke-linejoin:miter;stroke-opacity:1;"/>
<path d="M 57.7,107.0 L 57.5,106.6 L 56.4,106.5" style="fill:none;stroke:#000000;stroke-width:2.0px;stroke-linecap:butt;stroke-linejoin:miter;stroke-opacity:1;"/>
<path d="M 36.3,105.0 L 35.1,104.9 L 34.9,105.3" style="fill:none;stroke:#000000;stroke-width:2.0px;stroke-linecap:butt;stroke-linejoin:miter;stroke-opacity:1;"/>
<path d="M 32.0,143.2 L 32.2,143.6 L 33.3,143.7" style="fill:none;stroke:#000000;stroke-width:2.0px;stroke-linecap:butt;stroke-linejoin:miter;stroke-opacity:1;"/>
<path d="M 53.4,145.3 L 54.5,145.3 L 54.8,145.0" style="fill:none;stroke:#000000;stroke-width:2.0px;stroke-linecap:butt;stroke-linejoin:miter;stroke-opacity:1;"/>
<path d="M 139.4,124.8 L 140.1,125.6 L 141.2,125.4" style="fill:none;stroke:#000000;stroke-width:2.0px;stroke-linecap:butt;stroke-linejoin:miter;stroke-opacity:1;"/>
<path d="M 160.9,120.6 L 161.9,120.3 L 162.3,119.3" style="fill:none;stroke:#000000;stroke-width:2.0px;stroke-linecap:butt;stroke-linejoin:miter;stroke-opacity:1;"/>
<path d="M 226.6,103.7 L 227.4,104.5 L 228.4,104.2" style="fill:none;stroke:#000000;stroke-width:2.0px;stroke-linecap:butt;stroke-linejoin:miter;stroke-opacity:1;"/>
<path d="M 248.1,99.5 L 249.2,99.2 L 249.5,98.1" style="fill:none;stroke:#000000;stroke-width:2.0px;stroke-linecap:butt;stroke-linejoin:miter;stroke-opacity:1;"/>
<path d="M 240.8,62.3 L 240.0,61.4 L 238.9,61.7" style="fill:none;stroke:#000000;stroke-width:2.0px;stroke-linecap:butt;stroke-linejoin:miter;stroke-opacity:1;"/>
<path d="M 153.6,83.4 L 152.8,82.6 L 151.7,82.8" style="fill:none;stroke:#000000;stroke-width:2.0px;stroke-linecap:butt;stroke-linejoin:miter;stroke-opacity:1;"/>
<path d="M 130.0,41.6 L 130.9,41.0 L 130.9,39.9" style="fill:none;stroke:#000000;stroke-width:2.0px;stroke-linecap:butt;stroke-linejoin:miter;stroke-opacity:1;"/>
<path d="M 130.3,19.7 L 130.3,18.6 L 129.3,18.0" style="fill:none;stroke:#000000;stroke-width:2.0px;stroke-linecap:butt;stroke-linejoin:miter;stroke-opacity:1;"/>
<path d="M 111.6,8.5 L 110.6,7.9 L 109.6,8.5" style="fill:none;stroke:#000000;stroke-width:2.0px;stroke-linecap:butt;stroke-linejoin:miter;stroke-opacity:1;"/>
<path d="M 92.4,19.1 L 91.5,19.7 L 91.5,20.8" style="fill:none;stroke:#000000;stroke-width:2.0px;stroke-linecap:butt;stroke-linejoin:miter;stroke-opacity:1;"/>
<path d="M 92.1,41.0 L 92.1,42.1 L 93.1,42.6" style="fill:none;stroke:#000000;stroke-width:2.0px;stroke-linecap:butt;stroke-linejoin:miter;stroke-opacity:1;"/>
<path class="atom-3" d="M 17.7 23.1 L 21.5 23.1 L 21.5 23.9 L 18.5 23.9 L 18.5 25.8 L 21.1 25.8 L 21.1 26.5 L 18.5 26.5 L 18.5 29.5 L 17.7 29.5 L 17.7 23.1 " fill="#33CCCC"/>
<path class="atom-12" d="M 96.4 148.8 Q 96.4 147.3, 97.1 146.4 Q 97.9 145.6, 99.3 145.6 Q 100.7 145.6, 101.4 146.4 Q 102.2 147.3, 102.2 148.8 Q 102.2 150.3, 101.4 151.2 Q 100.7 152.1, 99.3 152.1 Q 97.9 152.1, 97.1 151.2 Q 96.4 150.3, 96.4 148.8 M 99.3 151.4 Q 100.2 151.4, 100.8 150.7 Q 101.3 150.1, 101.3 148.8 Q 101.3 147.5, 100.8 146.9 Q 100.2 146.3, 99.3 146.3 Q 98.3 146.3, 97.8 146.9 Q 97.3 147.5, 97.3 148.8 Q 97.3 150.1, 97.8 150.7 Q 98.3 151.4, 99.3 151.4 " fill="#FF0000"/>
<path class="atom-13" d="M 65.8 123.7 L 67.9 127.0 Q 68.1 127.3, 68.4 128.0 Q 68.8 128.6, 68.8 128.6 L 68.8 123.7 L 69.6 123.7 L 69.6 130.0 L 68.7 130.0 L 66.5 126.3 Q 66.3 125.9, 66.0 125.4 Q 65.7 124.9, 65.6 124.8 L 65.6 130.0 L 64.8 130.0 L 64.8 123.7 L 65.8 123.7 " fill="#0000FF"/>
<path class="atom-16" d="M 13.8 120.2 L 14.7 120.2 L 14.7 122.9 L 17.9 122.9 L 17.9 120.2 L 18.8 120.2 L 18.8 126.6 L 17.9 126.6 L 17.9 123.6 L 14.7 123.6 L 14.7 126.6 L 13.8 126.6 L 13.8 120.2 " fill="#0000FF"/>
<path class="atom-16" d="M 21.1 120.2 L 23.1 123.6 Q 23.4 123.9, 23.7 124.5 Q 24.0 125.1, 24.0 125.2 L 24.0 120.2 L 24.9 120.2 L 24.9 126.6 L 24.0 126.6 L 21.8 122.9 Q 21.5 122.5, 21.2 122.0 Q 21.0 121.5, 20.9 121.3 L 20.9 126.6 L 20.1 126.6 L 20.1 120.2 L 21.1 120.2 " fill="#0000FF"/>
<path class="atom-23" d="M 185.8 95.7 Q 185.9 95.7, 186.2 95.9 Q 186.5 96.0, 186.8 96.1 Q 187.1 96.1, 187.5 96.1 Q 188.1 96.1, 188.4 95.9 Q 188.8 95.6, 188.8 95.0 Q 188.8 94.7, 188.6 94.5 Q 188.4 94.3, 188.1 94.2 Q 187.9 94.0, 187.4 93.9 Q 186.9 93.7, 186.5 93.6 Q 186.2 93.4, 186.0 93.1 Q 185.7 92.7, 185.7 92.2 Q 185.7 91.4, 186.3 90.9 Q 186.8 90.4, 187.9 90.4 Q 188.6 90.4, 189.5 90.7 L 189.2 91.4 Q 188.5 91.1, 187.9 91.1 Q 187.3 91.1, 186.9 91.4 Q 186.6 91.6, 186.6 92.0 Q 186.6 92.4, 186.8 92.6 Q 187.0 92.8, 187.2 92.9 Q 187.5 93.0, 187.9 93.2 Q 188.5 93.3, 188.8 93.5 Q 189.2 93.7, 189.4 94.1 Q 189.7 94.4, 189.7 95.0 Q 189.7 95.9, 189.1 96.4 Q 188.5 96.9, 187.5 96.9 Q 186.9 96.9, 186.5 96.7 Q 186.1 96.6, 185.6 96.4 L 185.8 95.7 " fill="#000000"/>
<path class="atom-23" d="M 190.5 94.4 Q 190.5 93.3, 191.1 92.6 Q 191.6 92.0, 192.6 92.0 Q 193.7 92.0, 194.1 92.6 Q 194.6 93.2, 194.6 94.4 L 194.6 94.5 L 191.3 94.5 Q 191.4 95.3, 191.7 95.7 Q 192.1 96.1, 192.7 96.1 Q 193.1 96.1, 193.4 96.0 Q 193.7 95.9, 194.1 95.8 L 194.4 96.3 Q 193.9 96.6, 193.5 96.7 Q 193.1 96.8, 192.7 96.8 Q 191.6 96.8, 191.1 96.1 Q 190.5 95.5, 190.5 94.4 M 192.6 92.7 Q 192.1 92.7, 191.8 93.0 Q 191.5 93.3, 191.4 93.9 L 193.7 93.9 Q 193.6 93.3, 193.4 93.0 Q 193.1 92.7, 192.6 92.7 " fill="#000000"/>
<path class="atom-23" d="M 187.6 83.2 L 188.5 83.2 L 188.5 85.9 L 191.7 85.9 L 191.7 83.2 L 192.6 83.2 L 192.6 89.6 L 191.7 89.6 L 191.7 86.6 L 188.5 86.6 L 188.5 89.6 L 187.6 89.6 L 187.6 83.2 " fill="#000000"/>
<path class="atom-24" d="M 193.6 117.5 Q 193.6 117.6, 193.9 117.7 Q 194.2 117.8, 194.6 117.9 Q 194.9 118.0, 195.2 118.0 Q 195.8 118.0, 196.2 117.7 Q 196.5 117.4, 196.5 116.9 Q 196.5 116.5, 196.3 116.3 Q 196.2 116.1, 195.9 116.0 Q 195.6 115.8, 195.2 115.7 Q 194.6 115.5, 194.3 115.4 Q 193.9 115.2, 193.7 114.9 Q 193.5 114.5, 193.5 114.0 Q 193.5 113.2, 194.0 112.7 Q 194.5 112.2, 195.6 112.2 Q 196.4 112.2, 197.2 112.5 L 197.0 113.2 Q 196.2 112.9, 195.6 112.9 Q 195.0 112.9, 194.7 113.2 Q 194.3 113.4, 194.4 113.9 Q 194.4 114.2, 194.5 114.4 Q 194.7 114.6, 195.0 114.7 Q 195.2 114.8, 195.6 115.0 Q 196.2 115.2, 196.6 115.3 Q 196.9 115.5, 197.1 115.9 Q 197.4 116.2, 197.4 116.9 Q 197.4 117.7, 196.8 118.2 Q 196.2 118.7, 195.2 118.7 Q 194.7 118.7, 194.2 118.6 Q 193.8 118.4, 193.3 118.2 L 193.6 117.5 " fill="#000000"/>
<path class="atom-24" d="M 198.3 116.2 Q 198.3 115.1, 198.8 114.4 Q 199.4 113.8, 200.4 113.8 Q 201.4 113.8, 201.9 114.4 Q 202.3 115.0, 202.3 116.2 L 202.3 116.3 L 199.1 116.3 Q 199.1 117.1, 199.5 117.5 Q 199.8 117.9, 200.5 117.9 Q 200.9 117.9, 201.2 117.8 Q 201.5 117.7, 201.9 117.6 L 202.2 118.1 Q 201.7 118.4, 201.3 118.5 Q 200.9 118.6, 200.4 118.6 Q 199.4 118.6, 198.8 118.0 Q 198.3 117.3, 198.3 116.2 M 200.4 114.5 Q 199.9 114.5, 199.6 114.8 Q 199.3 115.1, 199.2 115.7 L 201.5 115.7 Q 201.4 115.1, 201.1 114.8 Q 200.9 114.5, 200.4 114.5 " fill="#000000"/>
<path class="atom-24" d="M 203.1 112.2 L 204.0 112.2 L 204.0 114.9 L 207.2 114.9 L 207.2 112.2 L 208.1 112.2 L 208.1 118.5 L 207.2 118.5 L 207.2 115.6 L 204.0 115.6 L 204.0 118.5 L 203.1 118.5 L 203.1 112.2 " fill="#000000"/>
<path class="atom-25" d="M 183.0 73.9 Q 183.1 73.9, 183.4 74.1 Q 183.7 74.2, 184.0 74.3 Q 184.3 74.4, 184.6 74.4 Q 185.2 74.4, 185.6 74.1 Q 185.9 73.8, 185.9 73.3 Q 185.9 72.9, 185.8 72.7 Q 185.6 72.5, 185.3 72.4 Q 185.1 72.2, 184.6 72.1 Q 184.0 71.9, 183.7 71.8 Q 183.4 71.6, 183.1 71.3 Q 182.9 70.9, 182.9 70.4 Q 182.9 69.6, 183.4 69.1 Q 184.0 68.6, 185.1 68.6 Q 185.8 68.6, 186.6 68.9 L 186.4 69.6 Q 185.7 69.3, 185.1 69.3 Q 184.5 69.3, 184.1 69.6 Q 183.8 69.8, 183.8 70.2 Q 183.8 70.6, 184.0 70.8 Q 184.1 71.0, 184.4 71.1 Q 184.6 71.2, 185.1 71.4 Q 185.7 71.6, 186.0 71.7 Q 186.3 71.9, 186.6 72.3 Q 186.8 72.6, 186.8 73.3 Q 186.8 74.1, 186.2 74.6 Q 185.7 75.1, 184.7 75.1 Q 184.1 75.1, 183.7 75.0 Q 183.3 74.8, 182.8 74.6 L 183.0 73.9 " fill="#000000"/>
<path class="atom-25" d="M 187.7 72.6 Q 187.7 71.5, 188.3 70.8 Q 188.8 70.2, 189.9 70.2 Q 190.9 70.2, 191.3 70.8 Q 191.8 71.4, 191.8 72.6 L 191.8 72.7 L 188.5 72.7 Q 188.6 73.5, 188.9 73.9 Q 189.3 74.3, 189.9 74.3 Q 190.3 74.3, 190.6 74.2 Q 190.9 74.1, 191.3 74.0 L 191.6 74.5 Q 191.1 74.8, 190.7 74.9 Q 190.3 75.0, 189.9 75.0 Q 188.8 75.0, 188.3 74.4 Q 187.7 73.7, 187.7 72.6 M 189.9 70.9 Q 189.3 70.9, 189.0 71.2 Q 188.7 71.5, 188.6 72.1 L 190.9 72.1 Q 190.8 71.5, 190.6 71.2 Q 190.3 70.9, 189.9 70.9 " fill="#000000"/>
<path class="atom-25" d="M 192.5 68.6 L 193.4 68.6 L 193.4 71.3 L 196.7 71.3 L 196.7 68.6 L 197.5 68.6 L 197.5 74.9 L 196.7 74.9 L 196.7 72.0 L 193.4 72.0 L 193.4 74.9 L 192.5 74.9 L 192.5 68.6 " fill="#000000"/>
<path class="atom-30" d="M 274.4 72.4 Q 274.4 70.9, 275.1 70.0 Q 275.9 69.2, 277.3 69.2 Q 278.7 69.2, 279.5 70.0 Q 280.2 70.9, 280.2 72.4 Q 280.2 74.0, 279.4 74.8 Q 278.7 75.7, 277.3 75.7 Q 275.9 75.7, 275.1 74.8 Q 274.4 74.0, 274.4 72.4 M 277.3 75.0 Q 278.3 75.0, 278.8 74.3 Q 279.3 73.7, 279.3 72.4 Q 279.3 71.2, 278.8 70.5 Q 278.3 69.9, 277.3 69.9 Q 276.3 69.9, 275.8 70.5 Q 275.3 71.2, 275.3 72.4 Q 275.3 73.7, 275.8 74.3 Q 276.3 75.0, 277.3 75.0 " fill="#FF0000"/>
<path class="atom-30" d="M 281.2 69.3 L 282.1 69.3 L 282.1 72.0 L 285.3 72.0 L 285.3 69.3 L 286.2 69.3 L 286.2 75.6 L 285.3 75.6 L 285.3 72.7 L 282.1 72.7 L 282.1 75.6 L 281.2 75.6 L 281.2 69.3 " fill="#FF0000"/>
<path class="atom-33" d="M 194.1 47.3 L 195.0 47.3 L 195.0 50.0 L 198.2 50.0 L 198.2 47.3 L 199.1 47.3 L 199.1 53.7 L 198.2 53.7 L 198.2 50.7 L 195.0 50.7 L 195.0 53.7 L 194.1 53.7 L 194.1 47.3 " fill="#0000FF"/>
<path class="atom-33" d="M 201.3 47.3 L 203.4 50.7 Q 203.6 51.0, 203.9 51.6 Q 204.3 52.2, 204.3 52.2 L 204.3 47.3 L 205.1 47.3 L 205.1 53.7 L 204.3 53.7 L 202.0 50.0 Q 201.8 49.6, 201.5 49.1 Q 201.2 48.6, 201.1 48.4 L 201.1 53.7 L 200.3 53.7 L 200.3 47.3 L 201.3 47.3 " fill="#0000FF"/>
<path class="atom-34" d="M 207.6 25.8 L 209.7 29.1 Q 209.9 29.5, 210.3 30.1 Q 210.6 30.7, 210.6 30.7 L 210.6 25.8 L 211.5 25.8 L 211.5 32.1 L 210.6 32.1 L 208.4 28.5 Q 208.1 28.0, 207.8 27.5 Q 207.5 27.0, 207.5 26.9 L 207.5 32.1 L 206.6 32.1 L 206.6 25.8 L 207.6 25.8 " fill="#0000FF"/>
<path class="atom-34" d="M 212.7 25.8 L 213.5 25.8 L 213.5 28.5 L 216.8 28.5 L 216.8 25.8 L 217.6 25.8 L 217.6 32.1 L 216.8 32.1 L 216.8 29.2 L 213.5 29.2 L 213.5 32.1 L 212.7 32.1 L 212.7 25.8 " fill="#0000FF"/>
<path class="atom-34" d="M 218.9 31.9 Q 219.0 31.5, 219.4 31.3 Q 219.8 31.1, 220.3 31.1 Q 220.9 31.1, 221.3 31.4 Q 221.6 31.8, 221.6 32.4 Q 221.6 33.0, 221.2 33.6 Q 220.7 34.2, 219.8 34.8 L 221.7 34.8 L 221.7 35.3 L 218.9 35.3 L 218.9 34.9 Q 219.7 34.4, 220.1 33.9 Q 220.6 33.5, 220.8 33.2 Q 221.0 32.8, 221.0 32.4 Q 221.0 32.0, 220.8 31.8 Q 220.6 31.5, 220.3 31.5 Q 219.9 31.5, 219.7 31.7 Q 219.5 31.8, 219.3 32.1 L 218.9 31.9 " fill="#0000FF"/>
<path class="atom-37" d="M 111.1 72.0 L 113.2 75.4 Q 113.4 75.7, 113.7 76.3 Q 114.0 76.9, 114.0 77.0 L 114.0 72.0 L 114.9 72.0 L 114.9 78.4 L 114.0 78.4 L 111.8 74.7 Q 111.5 74.3, 111.2 73.8 Q 111.0 73.3, 110.9 73.1 L 110.9 78.4 L 110.1 78.4 L 110.1 72.0 L 111.1 72.0 " fill="#0000FF"/>
<path class="atom-23" d="M 196.4,93.5 L 196.4,93.6 L 196.4,93.6 L 196.3,93.6 L 196.3,93.7 L 196.3,93.7 L 196.3,93.8 L 196.3,93.8 L 196.3,93.8 L 196.2,93.8 L 196.2,93.9 L 196.2,93.9 L 196.1,93.9 L 196.1,93.9 L 196.1,94.0 L 196.0,94.0 L 196.0,94.0 L 196.0,94.0 L 195.9,94.0 L 195.9,94.0 L 195.8,94.0 L 195.8,94.0 L 195.8,94.0 L 195.7,93.9 L 195.7,93.9 L 195.7,93.9 L 195.6,93.9 L 195.6,93.9 L 195.6,93.8 L 195.6,93.8 L 195.5,93.8 L 195.5,93.7 L 195.5,93.7 L 195.5,93.7 L 195.5,93.6 L 195.5,93.6 L 195.5,93.6 L 195.5,93.5 L 195.5,93.5 L 195.5,93.4 L 195.5,93.4 L 195.5,93.4 L 195.5,93.3 L 195.5,93.3 L 195.6,93.3 L 195.6,93.2 L 195.6,93.2 L 195.6,93.2 L 195.7,93.2 L 195.7,93.1 L 195.7,93.1 L 195.8,93.1 L 195.8,93.1 L 195.8,93.1 L 195.9,93.1 L 195.9,93.1 L 196.0,93.1 L 196.0,93.1 L 196.0,93.1 L 196.1,93.1 L 196.1,93.1 L 196.1,93.1 L 196.2,93.2 L 196.2,93.2 L 196.2,93.2 L 196.3,93.2 L 196.3,93.3 L 196.3,93.3 L 196.3,93.3 L 196.3,93.4 L 196.3,93.4 L 196.4,93.5 L 196.4,93.5 L 196.4,93.5 L 195.9,93.5 Z" style="fill:#000000;fill-rule:evenodd;fill-opacity:1;stroke:#000000;stroke-width:0.0px;stroke-linecap:butt;stroke-linejoin:miter;stroke-opacity:1;"/>
<path class="bond-0 atom-0 atom-1" d="M 330.4,69.3 L 346.7,54.0" style="fill:none;fill-rule:evenodd;stroke:#000000;stroke-width:2.0px;stroke-linecap:butt;stroke-linejoin:miter;stroke-opacity:1"/>
<path class="bond-1 atom-1 atom-2" d="M 346.7,54.0 L 341.6,32.1" style="fill:none;fill-rule:evenodd;stroke:#000000;stroke-width:2.0px;stroke-linecap:butt;stroke-linejoin:miter;stroke-opacity:1"/>
<path class="bond-1 atom-1 atom-2" d="M 349.6,51.3 L 345.3,33.3" style="fill:none;fill-rule:evenodd;stroke:#000000;stroke-width:2.0px;stroke-linecap:butt;stroke-linejoin:miter;stroke-opacity:1"/>
<path class="bond-2 atom-2 atom-3" d="M 341.6,32.1 L 332.2,29.3" style="fill:none;fill-rule:evenodd;stroke:#000000;stroke-width:2.0px;stroke-linecap:butt;stroke-linejoin:miter;stroke-opacity:1"/>
<path class="bond-2 atom-2 atom-3" d="M 332.2,29.3 L 322.8,26.4" style="fill:none;fill-rule:evenodd;stroke:#33CCCC;stroke-width:2.0px;stroke-linecap:butt;stroke-linejoin:miter;stroke-opacity:1"/>
<path class="bond-3 atom-2 atom-4" d="M 341.6,32.1 L 358.0,16.8" style="fill:none;fill-rule:evenodd;stroke:#000000;stroke-width:2.0px;stroke-linecap:butt;stroke-linejoin:miter;stroke-opacity:1"/>
<path class="bond-4 atom-4 atom-5" d="M 358.0,16.8 L 379.4,23.3" style="fill:none;fill-rule:evenodd;stroke:#000000;stroke-width:2.0px;stroke-linecap:butt;stroke-linejoin:miter;stroke-opacity:1"/>
<path class="bond-4 atom-4 atom-5" d="M 358.9,20.6 L 376.6,25.9" style="fill:none;fill-rule:evenodd;stroke:#000000;stroke-width:2.0px;stroke-linecap:butt;stroke-linejoin:miter;stroke-opacity:1"/>
<path class="bond-5 atom-5 atom-6" d="M 379.4,23.3 L 384.6,45.1" style="fill:none;fill-rule:evenodd;stroke:#000000;stroke-width:2.0px;stroke-linecap:butt;stroke-linejoin:miter;stroke-opacity:1"/>
<path class="bond-6 atom-6 atom-7" d="M 384.6,45.1 L 368.2,60.5" style="fill:none;fill-rule:evenodd;stroke:#000000;stroke-width:2.0px;stroke-linecap:butt;stroke-linejoin:miter;stroke-opacity:1"/>
<path class="bond-6 atom-6 atom-7" d="M 380.8,44.0 L 367.3,56.7" style="fill:none;fill-rule:evenodd;stroke:#000000;stroke-width:2.0px;stroke-linecap:butt;stroke-linejoin:miter;stroke-opacity:1"/>
<path class="bond-7 atom-7 atom-8" d="M 368.2,60.5 L 373.3,82.3" style="fill:none;fill-rule:evenodd;stroke:#000000;stroke-width:2.0px;stroke-linecap:butt;stroke-linejoin:miter;stroke-opacity:1"/>
<path class="bond-8 atom-8 atom-9" d="M 373.3,82.3 L 394.8,88.8" style="fill:none;fill-rule:evenodd;stroke:#000000;stroke-width:2.0px;stroke-linecap:butt;stroke-linejoin:miter;stroke-opacity:1"/>
<path class="bond-9 atom-9 atom-10" d="M 394.8,88.8 L 402.1,110.0" style="fill:none;fill-rule:evenodd;stroke:#000000;stroke-width:2.0px;stroke-linecap:butt;stroke-linejoin:miter;stroke-opacity:1"/>
<path class="bond-9 atom-9 atom-10" d="M 398.8,90.0 L 404.5,106.6" style="fill:none;fill-rule:evenodd;stroke:#000000;stroke-width:2.0px;stroke-linecap:butt;stroke-linejoin:miter;stroke-opacity:1"/>
<path class="bond-10 atom-10 atom-11" d="M 402.1,110.0 L 389.3,128.4" style="fill:none;fill-rule:evenodd;stroke:#000000;stroke-width:2.0px;stroke-linecap:butt;stroke-linejoin:miter;stroke-opacity:1"/>
<path class="bond-11 atom-11 atom-12" d="M 387.4,128.3 L 391.4,136.9" style="fill:none;fill-rule:evenodd;stroke:#000000;stroke-width:2.0px;stroke-linecap:butt;stroke-linejoin:miter;stroke-opacity:1"/>
<path class="bond-11 atom-11 atom-12" d="M 391.4,136.9 L 395.5,145.5" style="fill:none;fill-rule:evenodd;stroke:#FF0000;stroke-width:2.0px;stroke-linecap:butt;stroke-linejoin:miter;stroke-opacity:1"/>
<path class="bond-11 atom-11 atom-12" d="M 390.4,126.8 L 394.5,135.4" style="fill:none;fill-rule:evenodd;stroke:#000000;stroke-width:2.0px;stroke-linecap:butt;stroke-linejoin:miter;stroke-opacity:1"/>
<path class="bond-11 atom-11 atom-12" d="M 394.5,135.4 L 398.5,144.1" style="fill:none;fill-rule:evenodd;stroke:#FF0000;stroke-width:2.0px;stroke-linecap:butt;stroke-linejoin:miter;stroke-opacity:1"/>
<path class="bond-12 atom-11 atom-13" d="M 389.3,128.4 L 379.7,127.6" style="fill:none;fill-rule:evenodd;stroke:#000000;stroke-width:2.0px;stroke-linecap:butt;stroke-linejoin:miter;stroke-opacity:1"/>
<path class="bond-12 atom-11 atom-13" d="M 379.7,127.6 L 370.1,126.8" style="fill:none;fill-rule:evenodd;stroke:#0000FF;stroke-width:2.0px;stroke-linecap:butt;stroke-linejoin:miter;stroke-opacity:1"/>
<path class="bond-13 atom-13 atom-14" d="M 365.1,122.6 L 361.3,114.4" style="fill:none;fill-rule:evenodd;stroke:#0000FF;stroke-width:2.0px;stroke-linecap:butt;stroke-linejoin:miter;stroke-opacity:1"/>
<path class="bond-13 atom-13 atom-14" d="M 361.3,114.4 L 357.4,106.2" style="fill:none;fill-rule:evenodd;stroke:#000000;stroke-width:2.0px;stroke-linecap:butt;stroke-linejoin:miter;stroke-opacity:1"/>
<path class="bond-14 atom-14 atom-15" d="M 357.4,106.2 L 335.1,104.3" style="fill:none;fill-rule:evenodd;stroke:#000000;stroke-width:2.0px;stroke-linecap:butt;stroke-linejoin:miter;stroke-opacity:1"/>
<path class="bond-15 atom-15 atom-16" d="M 335.1,104.3 L 330.0,111.6" style="fill:none;fill-rule:evenodd;stroke:#000000;stroke-width:2.0px;stroke-linecap:butt;stroke-linejoin:miter;stroke-opacity:1"/>
<path class="bond-15 atom-15 atom-16" d="M 330.0,111.6 L 325.0,118.8" style="fill:none;fill-rule:evenodd;stroke:#0000FF;stroke-width:2.0px;stroke-linecap:butt;stroke-linejoin:miter;stroke-opacity:1"/>
<path class="bond-16 atom-16 atom-17" d="M 324.1,126.7 L 328.0,134.9" style="fill:none;fill-rule:evenodd;stroke:#0000FF;stroke-width:2.0px;stroke-linecap:butt;stroke-linejoin:miter;stroke-opacity:1"/>
<path class="bond-16 atom-16 atom-17" d="M 328.0,134.9 L 331.8,143.1" style="fill:none;fill-rule:evenodd;stroke:#000000;stroke-width:2.0px;stroke-linecap:butt;stroke-linejoin:miter;stroke-opacity:1"/>
<path class="bond-17 atom-17 atom-18" d="M 331.8,143.1 L 354.2,144.9" style="fill:none;fill-rule:evenodd;stroke:#000000;stroke-width:2.0px;stroke-linecap:butt;stroke-linejoin:miter;stroke-opacity:1"/>
<path class="bond-18 atom-10 atom-19" d="M 402.1,110.0 L 424.6,109.5" style="fill:none;fill-rule:evenodd;stroke:#000000;stroke-width:2.0px;stroke-linecap:butt;stroke-linejoin:miter;stroke-opacity:1"/>
<path class="bond-19 atom-19 atom-20" d="M 424.6,109.5 L 439.9,125.9" style="fill:none;fill-rule:evenodd;stroke:#000000;stroke-width:2.0px;stroke-linecap:butt;stroke-linejoin:miter;stroke-opacity:1"/>
<path class="bond-19 atom-19 atom-20" d="M 428.4,108.7 L 441.1,122.2" style="fill:none;fill-rule:evenodd;stroke:#000000;stroke-width:2.0px;stroke-linecap:butt;stroke-linejoin:miter;stroke-opacity:1"/>
<path class="bond-20 atom-20 atom-21" d="M 439.9,125.9 L 461.8,120.8" style="fill:none;fill-rule:evenodd;stroke:#000000;stroke-width:2.0px;stroke-linecap:butt;stroke-linejoin:miter;stroke-opacity:1"/>
<path class="bond-21 atom-21 atom-22" d="M 461.8,120.8 L 468.3,99.3" style="fill:none;fill-rule:evenodd;stroke:#000000;stroke-width:2.0px;stroke-linecap:butt;stroke-linejoin:miter;stroke-opacity:1"/>
<path class="bond-21 atom-21 atom-22" d="M 459.1,118.0 L 464.5,100.2" style="fill:none;fill-rule:evenodd;stroke:#000000;stroke-width:2.0px;stroke-linecap:butt;stroke-linejoin:miter;stroke-opacity:1"/>
<path class="bond-22 atom-22 atom-23" d="M 468.3,99.3 L 484.9,95.4" style="fill:none;fill-rule:evenodd;stroke:#000000;stroke-width:2.0px;stroke-linecap:butt;stroke-linejoin:miter;stroke-opacity:1"/>
<path class="bond-23 atom-23 atom-24" d="M 491.0,98.2 L 494.3,112.2" style="fill:none;fill-rule:evenodd;stroke:#000000;stroke-width:2.0px;stroke-linecap:butt;stroke-linejoin:miter;stroke-opacity:1"/>
<path class="bond-24 atom-23 atom-25" d="M 487.5,83.1 L 486.0,76.5" style="fill:none;fill-rule:evenodd;stroke:#000000;stroke-width:2.0px;stroke-linecap:butt;stroke-linejoin:miter;stroke-opacity:1"/>
<path class="bond-25 atom-23 atom-26" d="M 495.3,93.0 L 512.0,89.1" style="fill:none;fill-rule:evenodd;stroke:#000000;stroke-width:2.0px;stroke-linecap:butt;stroke-linejoin:miter;stroke-opacity:1"/>
<path class="bond-26 atom-26 atom-27" d="M 512.0,89.1 L 527.3,105.5" style="fill:none;fill-rule:evenodd;stroke:#000000;stroke-width:2.0px;stroke-linecap:butt;stroke-linejoin:miter;stroke-opacity:1"/>
<path class="bond-26 atom-26 atom-27" d="M 515.7,88.2 L 528.4,101.7" style="fill:none;fill-rule:evenodd;stroke:#000000;stroke-width:2.0px;stroke-linecap:butt;stroke-linejoin:miter;stroke-opacity:1"/>
<path class="bond-27 atom-27 atom-28" d="M 527.3,105.5 L 549.1,100.3" style="fill:none;fill-rule:evenodd;stroke:#000000;stroke-width:2.0px;stroke-linecap:butt;stroke-linejoin:miter;stroke-opacity:1"/>
<path class="bond-28 atom-28 atom-29" d="M 549.1,100.3 L 555.6,78.9" style="fill:none;fill-rule:evenodd;stroke:#000000;stroke-width:2.0px;stroke-linecap:butt;stroke-linejoin:miter;stroke-opacity:1"/>
<path class="bond-28 atom-28 atom-29" d="M 546.5,97.5 L 551.9,79.8" style="fill:none;fill-rule:evenodd;stroke:#000000;stroke-width:2.0px;stroke-linecap:butt;stroke-linejoin:miter;stroke-opacity:1"/>
<path class="bond-29 atom-29 atom-30" d="M 555.6,78.9 L 564.7,76.7" style="fill:none;fill-rule:evenodd;stroke:#000000;stroke-width:2.0px;stroke-linecap:butt;stroke-linejoin:miter;stroke-opacity:1"/>
<path class="bond-29 atom-29 atom-30" d="M 564.7,76.7 L 573.8,74.6" style="fill:none;fill-rule:evenodd;stroke:#FF0000;stroke-width:2.0px;stroke-linecap:butt;stroke-linejoin:miter;stroke-opacity:1"/>
<path class="bond-30 atom-29 atom-31" d="M 555.6,78.9 L 540.3,62.5" style="fill:none;fill-rule:evenodd;stroke:#000000;stroke-width:2.0px;stroke-linecap:butt;stroke-linejoin:miter;stroke-opacity:1"/>
<path class="bond-31 atom-31 atom-32" d="M 540.3,62.5 L 518.4,67.6" style="fill:none;fill-rule:evenodd;stroke:#000000;stroke-width:2.0px;stroke-linecap:butt;stroke-linejoin:miter;stroke-opacity:1"/>
<path class="bond-31 atom-31 atom-32" d="M 539.2,66.2 L 521.1,70.5" style="fill:none;fill-rule:evenodd;stroke:#000000;stroke-width:2.0px;stroke-linecap:butt;stroke-linejoin:miter;stroke-opacity:1"/>
<path class="bond-32 atom-32 atom-33" d="M 518.4,67.6 L 512.3,61.1" style="fill:none;fill-rule:evenodd;stroke:#000000;stroke-width:2.0px;stroke-linecap:butt;stroke-linejoin:miter;stroke-opacity:1"/>
<path class="bond-32 atom-32 atom-33" d="M 512.3,61.1 L 506.2,54.6" style="fill:none;fill-rule:evenodd;stroke:#0000FF;stroke-width:2.0px;stroke-linecap:butt;stroke-linejoin:miter;stroke-opacity:1"/>
<path class="bond-33 atom-33 atom-34" d="M 504.3,47.3 L 506.3,40.5" style="fill:none;fill-rule:evenodd;stroke:#0000FF;stroke-width:2.0px;stroke-linecap:butt;stroke-linejoin:miter;stroke-opacity:1"/>
<path class="bond-33 atom-33 atom-34" d="M 506.3,40.5 L 508.4,33.7" style="fill:none;fill-rule:evenodd;stroke:#FF7F00;stroke-width:2.0px;stroke-linecap:butt;stroke-linejoin:miter;stroke-opacity:1"/>
<path class="bond-34 atom-33 atom-35" d="M 500.0,52.0 L 495.6,53.0" style="fill:none;fill-rule:evenodd;stroke:#0000FF;stroke-width:2.0px;stroke-linecap:butt;stroke-linejoin:miter;stroke-opacity:1"/>
<path class="bond-34 atom-33 atom-35" d="M 495.6,53.0 L 491.2,54.0" style="fill:none;fill-rule:evenodd;stroke:#FF7F00;stroke-width:2.0px;stroke-linecap:butt;stroke-linejoin:miter;stroke-opacity:1"/>
<path class="bond-35 atom-22 atom-36" d="M 468.3,99.3 L 452.9,83.0" style="fill:none;fill-rule:evenodd;stroke:#000000;stroke-width:2.0px;stroke-linecap:butt;stroke-linejoin:miter;stroke-opacity:1"/>
<path class="bond-36 atom-36 atom-37" d="M 452.9,83.0 L 431.1,88.1" style="fill:none;fill-rule:evenodd;stroke:#000000;stroke-width:2.0px;stroke-linecap:butt;stroke-linejoin:miter;stroke-opacity:1"/>
<path class="bond-36 atom-36 atom-37" d="M 451.8,86.7 L 433.7,90.9" style="fill:none;fill-rule:evenodd;stroke:#000000;stroke-width:2.0px;stroke-linecap:butt;stroke-linejoin:miter;stroke-opacity:1"/>
<path class="bond-37 atom-37 atom-38" d="M 431.1,88.1 L 423.4,82.8" style="fill:none;fill-rule:evenodd;stroke:#000000;stroke-width:2.0px;stroke-linecap:butt;stroke-linejoin:miter;stroke-opacity:1"/>
<path class="bond-37 atom-37 atom-38" d="M 423.4,82.8 L 415.8,77.4" style="fill:none;fill-rule:evenodd;stroke:#0000FF;stroke-width:2.0px;stroke-linecap:butt;stroke-linejoin:miter;stroke-opacity:1"/>
<path class="bond-38 atom-38 atom-39" d="M 412.6,71.3 L 412.4,62.1" style="fill:none;fill-rule:evenodd;stroke:#0000FF;stroke-width:2.0px;stroke-linecap:butt;stroke-linejoin:miter;stroke-opacity:1"/>
<path class="bond-38 atom-38 atom-39" d="M 412.4,62.1 L 412.2,52.8" style="fill:none;fill-rule:evenodd;stroke:#000000;stroke-width:2.0px;stroke-linecap:butt;stroke-linejoin:miter;stroke-opacity:1"/>
<path class="bond-39 atom-39 atom-40" d="M 412.2,52.8 L 431.4,41.2" style="fill:none;fill-rule:evenodd;stroke:#000000;stroke-width:2.0px;stroke-linecap:butt;stroke-linejoin:miter;stroke-opacity:1"/>
<path class="bond-39 atom-39 atom-40" d="M 412.1,48.9 L 428.0,39.3" style="fill:none;fill-rule:evenodd;stroke:#000000;stroke-width:2.0px;stroke-linecap:butt;stroke-linejoin:miter;stroke-opacity:1"/>
<path class="bond-40 atom-40 atom-41" d="M 431.4,41.2 L 430.9,18.8" style="fill:none;fill-rule:evenodd;stroke:#000000;stroke-width:2.0px;stroke-linecap:butt;stroke-linejoin:miter;stroke-opacity:1"/>
<path class="bond-41 atom-41 atom-42" d="M 430.9,18.8 L 411.3,8.0" style="fill:none;fill-rule:evenodd;stroke:#000000;stroke-width:2.0px;stroke-linecap:butt;stroke-linejoin:miter;stroke-opacity:1"/>
<path class="bond-41 atom-41 atom-42" d="M 427.6,20.8 L 411.4,11.9" style="fill:none;fill-rule:evenodd;stroke:#000000;stroke-width:2.0px;stroke-linecap:butt;stroke-linejoin:miter;stroke-opacity:1"/>
<path class="bond-42 atom-42 atom-43" d="M 411.3,8.0 L 392.1,19.6" style="fill:none;fill-rule:evenodd;stroke:#000000;stroke-width:2.0px;stroke-linecap:butt;stroke-linejoin:miter;stroke-opacity:1"/>
<path class="bond-43 atom-43 atom-44" d="M 392.1,19.6 L 392.5,42.0" style="fill:none;fill-rule:evenodd;stroke:#000000;stroke-width:2.0px;stroke-linecap:butt;stroke-linejoin:miter;stroke-opacity:1"/>
<path class="bond-43 atom-43 atom-44" d="M 395.5,21.5 L 395.9,40.0" style="fill:none;fill-rule:evenodd;stroke:#000000;stroke-width:2.0px;stroke-linecap:butt;stroke-linejoin:miter;stroke-opacity:1"/>
<path class="bond-44 atom-7 atom-1" d="M 368.2,60.5 L 346.7,54.0" style="fill:none;fill-rule:evenodd;stroke:#000000;stroke-width:2.0px;stroke-linecap:butt;stroke-linejoin:miter;stroke-opacity:1"/>
<path class="bond-45 atom-38 atom-9" d="M 409.5,77.6 L 402.1,83.2" style="fill:none;fill-rule:evenodd;stroke:#0000FF;stroke-width:2.0px;stroke-linecap:butt;stroke-linejoin:miter;stroke-opacity:1"/>
<path class="bond-45 atom-38 atom-9" d="M 402.1,83.2 L 394.8,88.8" style="fill:none;fill-rule:evenodd;stroke:#000000;stroke-width:2.0px;stroke-linecap:butt;stroke-linejoin:miter;stroke-opacity:1"/>
<path class="bond-46 atom-44 atom-39" d="M 392.5,42.0 L 412.2,52.8" style="fill:none;fill-rule:evenodd;stroke:#000000;stroke-width:2.0px;stroke-linecap:butt;stroke-linejoin:miter;stroke-opacity:1"/>
<path class="bond-47 atom-18 atom-13" d="M 354.2,144.9 L 359.2,137.7" style="fill:none;fill-rule:evenodd;stroke:#000000;stroke-width:2.0px;stroke-linecap:butt;stroke-linejoin:miter;stroke-opacity:1"/>
<path class="bond-47 atom-18 atom-13" d="M 359.2,137.7 L 364.3,130.4" style="fill:none;fill-rule:evenodd;stroke:#0000FF;stroke-width:2.0px;stroke-linecap:butt;stroke-linejoin:miter;stroke-opacity:1"/>
<path class="bond-48 atom-37 atom-19" d="M 431.1,88.1 L 424.6,109.5" style="fill:none;fill-rule:evenodd;stroke:#000000;stroke-width:2.0px;stroke-linecap:butt;stroke-linejoin:miter;stroke-opacity:1"/>
<path class="bond-49 atom-32 atom-26" d="M 518.4,67.6 L 512.0,89.1" style="fill:none;fill-rule:evenodd;stroke:#000000;stroke-width:2.0px;stroke-linecap:butt;stroke-linejoin:miter;stroke-opacity:1"/>
<path d="M 357.2,17.6 L 358.0,16.8 L 359.0,17.1" style="fill:none;stroke:#000000;stroke-width:2.0px;stroke-linecap:butt;stroke-linejoin:miter;stroke-opacity:1;"/>
<path d="M 378.4,23.0 L 379.4,23.3 L 379.7,24.4" style="fill:none;stroke:#000000;stroke-width:2.0px;stroke-linecap:butt;stroke-linejoin:miter;stroke-opacity:1;"/>
<path d="M 384.3,44.0 L 384.6,45.1 L 383.7,45.9" style="fill:none;stroke:#000000;stroke-width:2.0px;stroke-linecap:butt;stroke-linejoin:miter;stroke-opacity:1;"/>
<path d="M 373.1,81.2 L 373.3,82.3 L 374.4,82.6" style="fill:none;stroke:#000000;stroke-width:2.0px;stroke-linecap:butt;stroke-linejoin:miter;stroke-opacity:1;"/>
<path d="M 390.0,127.5 L 389.3,128.4 L 388.9,128.4" style="fill:none;stroke:#000000;stroke-width:2.0px;stroke-linecap:butt;stroke-linejoin:miter;stroke-opacity:1;"/>
<path d="M 357.6,106.6 L 357.4,106.2 L 356.3,106.1" style="fill:none;stroke:#000000;stroke-width:2.0px;stroke-linecap:butt;stroke-linejoin:miter;stroke-opacity:1;"/>
<path d="M 336.2,104.4 L 335.1,104.3 L 334.8,104.7" style="fill:none;stroke:#000000;stroke-width:2.0px;stroke-linecap:butt;stroke-linejoin:miter;stroke-opacity:1;"/>
<path d="M 331.6,142.6 L 331.8,143.1 L 332.9,143.1" style="fill:none;stroke:#000000;stroke-width:2.0px;stroke-linecap:butt;stroke-linejoin:miter;stroke-opacity:1;"/>
<path d="M 353.0,144.8 L 354.2,144.9 L 354.4,144.6" style="fill:none;stroke:#000000;stroke-width:2.0px;stroke-linecap:butt;stroke-linejoin:miter;stroke-opacity:1;"/>
<path d="M 439.2,125.1 L 439.9,125.9 L 441.0,125.6" style="fill:none;stroke:#000000;stroke-width:2.0px;stroke-linecap:butt;stroke-linejoin:miter;stroke-opacity:1;"/>
<path d="M 460.7,121.0 L 461.8,120.8 L 462.1,119.7" style="fill:none;stroke:#000000;stroke-width:2.0px;stroke-linecap:butt;stroke-linejoin:miter;stroke-opacity:1;"/>
<path d="M 526.5,104.6 L 527.3,105.5 L 528.4,105.2" style="fill:none;stroke:#000000;stroke-width:2.0px;stroke-linecap:butt;stroke-linejoin:miter;stroke-opacity:1;"/>
<path d="M 548.1,100.6 L 549.1,100.3 L 549.5,99.3" style="fill:none;stroke:#000000;stroke-width:2.0px;stroke-linecap:butt;stroke-linejoin:miter;stroke-opacity:1;"/>
<path d="M 541.1,63.3 L 540.3,62.5 L 539.2,62.8" style="fill:none;stroke:#000000;stroke-width:2.0px;stroke-linecap:butt;stroke-linejoin:miter;stroke-opacity:1;"/>
<path d="M 453.7,83.8 L 452.9,83.0 L 451.8,83.2" style="fill:none;stroke:#000000;stroke-width:2.0px;stroke-linecap:butt;stroke-linejoin:miter;stroke-opacity:1;"/>
<path d="M 430.4,41.8 L 431.4,41.2 L 431.4,40.1" style="fill:none;stroke:#000000;stroke-width:2.0px;stroke-linecap:butt;stroke-linejoin:miter;stroke-opacity:1;"/>
<path d="M 431.0,19.9 L 430.9,18.8 L 430.0,18.2" style="fill:none;stroke:#000000;stroke-width:2.0px;stroke-linecap:butt;stroke-linejoin:miter;stroke-opacity:1;"/>
<path d="M 412.3,8.5 L 411.3,8.0 L 410.3,8.5" style="fill:none;stroke:#000000;stroke-width:2.0px;stroke-linecap:butt;stroke-linejoin:miter;stroke-opacity:1;"/>
<path d="M 393.0,19.0 L 392.1,19.6 L 392.1,20.7" style="fill:none;stroke:#000000;stroke-width:2.0px;stroke-linecap:butt;stroke-linejoin:miter;stroke-opacity:1;"/>
<path d="M 392.5,40.9 L 392.5,42.0 L 393.5,42.5" style="fill:none;stroke:#000000;stroke-width:2.0px;stroke-linecap:butt;stroke-linejoin:miter;stroke-opacity:1;"/>
<path class="atom-3" d="M 318.2 22.5 L 322.0 22.5 L 322.0 23.2 L 319.1 23.2 L 319.1 25.1 L 321.7 25.1 L 321.7 25.9 L 319.1 25.9 L 319.1 28.8 L 318.2 28.8 L 318.2 22.5 " fill="#33CCCC"/>
<path class="atom-12" d="M 396.0 148.7 Q 396.0 147.2, 396.7 146.4 Q 397.5 145.5, 398.9 145.5 Q 400.3 145.5, 401.0 146.4 Q 401.8 147.2, 401.8 148.7 Q 401.8 150.3, 401.0 151.2 Q 400.3 152.0, 398.9 152.0 Q 397.5 152.0, 396.7 151.2 Q 396.0 150.3, 396.0 148.7 M 398.9 151.3 Q 399.8 151.3, 400.4 150.7 Q 400.9 150.0, 400.9 148.7 Q 400.9 147.5, 400.4 146.9 Q 399.8 146.2, 398.9 146.2 Q 397.9 146.2, 397.4 146.9 Q 396.9 147.5, 396.9 148.7 Q 396.9 150.0, 397.4 150.7 Q 397.9 151.3, 398.9 151.3 " fill="#FF0000"/>
<path class="atom-13" d="M 365.6 123.4 L 367.7 126.7 Q 367.9 127.0, 368.2 127.7 Q 368.5 128.3, 368.5 128.3 L 368.5 123.4 L 369.4 123.4 L 369.4 129.7 L 368.5 129.7 L 366.3 126.0 Q 366.0 125.6, 365.7 125.1 Q 365.5 124.6, 365.4 124.5 L 365.4 129.7 L 364.6 129.7 L 364.6 123.4 L 365.6 123.4 " fill="#0000FF"/>
<path class="atom-16" d="M 313.6 119.6 L 314.5 119.6 L 314.5 122.3 L 317.7 122.3 L 317.7 119.6 L 318.6 119.6 L 318.6 125.9 L 317.7 125.9 L 317.7 123.0 L 314.5 123.0 L 314.5 125.9 L 313.6 125.9 L 313.6 119.6 " fill="#0000FF"/>
<path class="atom-16" d="M 320.9 119.6 L 322.9 122.9 Q 323.2 123.3, 323.5 123.9 Q 323.8 124.5, 323.8 124.5 L 323.8 119.6 L 324.7 119.6 L 324.7 125.9 L 323.8 125.9 L 321.6 122.2 Q 321.3 121.8, 321.0 121.3 Q 320.8 120.8, 320.7 120.7 L 320.7 125.9 L 319.9 125.9 L 319.9 119.6 L 320.9 119.6 " fill="#0000FF"/>
<path class="atom-23" d="M 485.9 96.4 Q 485.9 96.4, 486.2 96.5 Q 486.5 96.7, 486.8 96.7 Q 487.2 96.8, 487.5 96.8 Q 488.1 96.8, 488.5 96.5 Q 488.8 96.2, 488.8 95.7 Q 488.8 95.4, 488.6 95.2 Q 488.5 94.9, 488.2 94.8 Q 487.9 94.7, 487.5 94.6 Q 486.9 94.4, 486.6 94.2 Q 486.2 94.1, 486.0 93.7 Q 485.8 93.4, 485.8 92.8 Q 485.8 92.0, 486.3 91.5 Q 486.8 91.0, 487.9 91.0 Q 488.6 91.0, 489.5 91.4 L 489.3 92.1 Q 488.5 91.8, 487.9 91.8 Q 487.3 91.8, 487.0 92.0 Q 486.6 92.3, 486.6 92.7 Q 486.6 93.1, 486.8 93.3 Q 487.0 93.5, 487.2 93.6 Q 487.5 93.7, 487.9 93.8 Q 488.5 94.0, 488.9 94.2 Q 489.2 94.4, 489.4 94.7 Q 489.7 95.1, 489.7 95.7 Q 489.7 96.6, 489.1 97.1 Q 488.5 97.5, 487.5 97.5 Q 487.0 97.5, 486.5 97.4 Q 486.1 97.3, 485.6 97.1 L 485.9 96.4 " fill="#000000"/>
<path class="atom-23" d="M 490.5 95.1 Q 490.5 93.9, 491.1 93.3 Q 491.7 92.7, 492.7 92.7 Q 493.7 92.7, 494.1 93.3 Q 494.6 93.9, 494.6 95.0 L 494.6 95.2 L 491.4 95.2 Q 491.4 96.0, 491.7 96.4 Q 492.1 96.8, 492.8 96.8 Q 493.1 96.8, 493.4 96.7 Q 493.8 96.6, 494.2 96.4 L 494.4 97.0 Q 494.0 97.2, 493.6 97.3 Q 493.1 97.4, 492.7 97.4 Q 491.7 97.4, 491.1 96.8 Q 490.5 96.2, 490.5 95.1 M 492.7 93.3 Q 492.2 93.3, 491.8 93.7 Q 491.5 94.0, 491.4 94.5 L 493.7 94.5 Q 493.7 93.9, 493.4 93.6 Q 493.1 93.3, 492.7 93.3 " fill="#000000"/>
<path class="atom-23" d="M 487.6 83.9 L 488.5 83.9 L 488.5 86.6 L 491.7 86.6 L 491.7 83.9 L 492.6 83.9 L 492.6 90.2 L 491.7 90.2 L 491.7 87.3 L 488.5 87.3 L 488.5 90.2 L 487.6 90.2 L 487.6 83.9 " fill="#000000"/>
<path class="atom-24" d="M 493.4 118.2 Q 493.5 118.3, 493.8 118.4 Q 494.1 118.5, 494.4 118.6 Q 494.7 118.7, 495.1 118.7 Q 495.7 118.7, 496.0 118.4 Q 496.4 118.1, 496.4 117.6 Q 496.4 117.2, 496.2 117.0 Q 496.0 116.8, 495.8 116.7 Q 495.5 116.6, 495.0 116.4 Q 494.5 116.3, 494.1 116.1 Q 493.8 115.9, 493.6 115.6 Q 493.3 115.3, 493.3 114.7 Q 493.3 113.9, 493.9 113.4 Q 494.4 112.9, 495.5 112.9 Q 496.2 112.9, 497.1 113.2 L 496.8 113.9 Q 496.1 113.6, 495.5 113.6 Q 494.9 113.6, 494.5 113.9 Q 494.2 114.1, 494.2 114.6 Q 494.2 114.9, 494.4 115.1 Q 494.6 115.3, 494.8 115.4 Q 495.1 115.6, 495.5 115.7 Q 496.1 115.9, 496.4 116.1 Q 496.8 116.2, 497.0 116.6 Q 497.3 117.0, 497.3 117.6 Q 497.3 118.5, 496.7 118.9 Q 496.1 119.4, 495.1 119.4 Q 494.5 119.4, 494.1 119.3 Q 493.7 119.2, 493.2 119.0 L 493.4 118.2 " fill="#000000"/>
<path class="atom-24" d="M 498.1 116.9 Q 498.1 115.8, 498.7 115.2 Q 499.2 114.5, 500.3 114.5 Q 501.3 114.5, 501.7 115.1 Q 502.2 115.7, 502.2 116.9 L 502.2 117.0 L 499.0 117.0 Q 499.0 117.8, 499.3 118.2 Q 499.7 118.6, 500.4 118.6 Q 500.7 118.6, 501.0 118.6 Q 501.4 118.5, 501.8 118.3 L 502.0 118.9 Q 501.6 119.1, 501.2 119.2 Q 500.7 119.3, 500.3 119.3 Q 499.3 119.3, 498.7 118.7 Q 498.1 118.0, 498.1 116.9 M 500.3 115.2 Q 499.8 115.2, 499.4 115.5 Q 499.1 115.8, 499.0 116.4 L 501.3 116.4 Q 501.2 115.8, 501.0 115.5 Q 500.7 115.2, 500.3 115.2 " fill="#000000"/>
<path class="atom-24" d="M 503.0 112.9 L 503.8 112.9 L 503.8 115.6 L 507.1 115.6 L 507.1 112.9 L 508.0 112.9 L 508.0 119.2 L 507.1 119.2 L 507.1 116.3 L 503.8 116.3 L 503.8 119.2 L 503.0 119.2 L 503.0 112.9 " fill="#000000"/>
<path class="atom-25" d="M 483.2 74.6 Q 483.3 74.6, 483.6 74.7 Q 483.9 74.8, 484.2 74.9 Q 484.5 75.0, 484.8 75.0 Q 485.4 75.0, 485.8 74.7 Q 486.1 74.4, 486.1 73.9 Q 486.1 73.5, 486.0 73.3 Q 485.8 73.1, 485.5 73.0 Q 485.3 72.9, 484.8 72.7 Q 484.2 72.6, 483.9 72.4 Q 483.6 72.2, 483.3 71.9 Q 483.1 71.6, 483.1 71.0 Q 483.1 70.2, 483.6 69.7 Q 484.2 69.2, 485.3 69.2 Q 486.0 69.2, 486.8 69.6 L 486.6 70.2 Q 485.9 69.9, 485.3 69.9 Q 484.7 69.9, 484.3 70.2 Q 484.0 70.4, 484.0 70.9 Q 484.0 71.2, 484.2 71.4 Q 484.3 71.6, 484.6 71.8 Q 484.9 71.9, 485.3 72.0 Q 485.9 72.2, 486.2 72.4 Q 486.5 72.5, 486.8 72.9 Q 487.0 73.3, 487.0 73.9 Q 487.0 74.8, 486.4 75.2 Q 485.9 75.7, 484.9 75.7 Q 484.3 75.7, 483.9 75.6 Q 483.5 75.5, 483.0 75.3 L 483.2 74.6 " fill="#000000"/>
<path class="atom-25" d="M 487.9 73.2 Q 487.9 72.1, 488.5 71.5 Q 489.0 70.8, 490.1 70.8 Q 491.1 70.8, 491.5 71.5 Q 492.0 72.1, 492.0 73.2 L 492.0 73.3 L 488.8 73.3 Q 488.8 74.1, 489.1 74.5 Q 489.5 74.9, 490.1 74.9 Q 490.5 74.9, 490.8 74.9 Q 491.2 74.8, 491.6 74.6 L 491.8 75.2 Q 491.3 75.4, 490.9 75.5 Q 490.5 75.6, 490.1 75.6 Q 489.0 75.6, 488.5 75.0 Q 487.9 74.4, 487.9 73.2 M 490.1 71.5 Q 489.5 71.5, 489.2 71.8 Q 488.9 72.1, 488.8 72.7 L 491.1 72.7 Q 491.0 72.1, 490.8 71.8 Q 490.5 71.5, 490.1 71.5 " fill="#000000"/>
<path class="atom-25" d="M 492.8 69.2 L 493.6 69.2 L 493.6 71.9 L 496.9 71.9 L 496.9 69.2 L 497.7 69.2 L 497.7 75.5 L 496.9 75.5 L 496.9 72.6 L 493.6 72.6 L 493.6 75.5 L 492.8 75.5 L 492.8 69.2 " fill="#000000"/>
<path class="atom-30" d="M 574.6 73.8 Q 574.6 72.3, 575.3 71.4 Q 576.1 70.5, 577.5 70.5 Q 578.9 70.5, 579.6 71.4 Q 580.4 72.3, 580.4 73.8 Q 580.4 75.3, 579.6 76.2 Q 578.9 77.1, 577.5 77.1 Q 576.1 77.1, 575.3 76.2 Q 574.6 75.3, 574.6 73.8 M 577.5 76.4 Q 578.5 76.4, 579.0 75.7 Q 579.5 75.1, 579.5 73.8 Q 579.5 72.5, 579.0 71.9 Q 578.5 71.3, 577.5 71.3 Q 576.5 71.3, 576.0 71.9 Q 575.5 72.5, 575.5 73.8 Q 575.5 75.1, 576.0 75.7 Q 576.5 76.4, 577.5 76.4 " fill="#FF0000"/>
<path class="atom-30" d="M 581.4 70.6 L 582.3 70.6 L 582.3 73.3 L 585.5 73.3 L 585.5 70.6 L 586.4 70.6 L 586.4 77.0 L 585.5 77.0 L 585.5 74.0 L 582.3 74.0 L 582.3 77.0 L 581.4 77.0 L 581.4 70.6 " fill="#FF0000"/>
<path class="atom-33" d="M 501.7 48.1 L 503.8 51.4 Q 504.0 51.8, 504.3 52.4 Q 504.6 53.0, 504.7 53.0 L 504.7 48.1 L 505.5 48.1 L 505.5 54.4 L 504.6 54.4 L 502.4 50.8 Q 502.1 50.3, 501.9 49.8 Q 501.6 49.3, 501.5 49.2 L 501.5 54.4 L 500.7 54.4 L 500.7 48.1 L 501.7 48.1 " fill="#0000FF"/>
<path class="atom-34" d="M 509.4 26.6 Q 510.5 26.6, 511.1 27.1 Q 511.6 27.6, 511.6 28.5 Q 511.6 29.4, 511.1 29.9 Q 510.5 30.4, 509.4 30.4 L 508.4 30.4 L 508.4 33.0 L 507.6 33.0 L 507.6 26.6 L 509.4 26.6 M 509.4 29.6 Q 510.1 29.6, 510.4 29.3 Q 510.7 29.0, 510.7 28.5 Q 510.7 27.9, 510.4 27.6 Q 510.1 27.3, 509.4 27.3 L 508.4 27.3 L 508.4 29.6 L 509.4 29.6 " fill="#FF7F00"/>
<path class="atom-35" d="M 481.1 53.2 Q 482.2 53.2, 482.7 53.7 Q 483.3 54.2, 483.3 55.1 Q 483.3 55.9, 482.7 56.4 Q 482.2 56.9, 481.1 56.9 L 480.1 56.9 L 480.1 59.5 L 479.2 59.5 L 479.2 53.2 L 481.1 53.2 M 481.1 56.2 Q 481.7 56.2, 482.1 55.9 Q 482.4 55.6, 482.4 55.1 Q 482.4 54.5, 482.1 54.2 Q 481.7 53.9, 481.1 53.9 L 480.1 53.9 L 480.1 56.2 L 481.1 56.2 " fill="#FF7F00"/>
<path class="atom-35" d="M 484.1 53.0 Q 484.3 52.6, 484.7 52.4 Q 485.0 52.1, 485.5 52.1 Q 486.2 52.1, 486.5 52.5 Q 486.9 52.8, 486.9 53.4 Q 486.9 54.1, 486.4 54.6 Q 486.0 55.2, 485.0 55.9 L 486.9 55.9 L 486.9 56.4 L 484.1 56.4 L 484.1 56.0 Q 484.9 55.4, 485.4 55.0 Q 485.8 54.6, 486.1 54.2 Q 486.3 53.8, 486.3 53.5 Q 486.3 53.1, 486.1 52.8 Q 485.9 52.6, 485.5 52.6 Q 485.2 52.6, 485.0 52.7 Q 484.7 52.9, 484.6 53.2 L 484.1 53.0 " fill="#FF7F00"/>
<path class="atom-35" d="M 487.7 54.3 L 488.8 54.3 L 488.8 53.2 L 489.3 53.2 L 489.3 54.3 L 490.5 54.3 L 490.5 54.8 L 489.3 54.8 L 489.3 56.0 L 488.8 56.0 L 488.8 54.8 L 487.7 54.8 L 487.7 54.3 " fill="#FF7F00"/>
<path class="atom-38" d="M 411.3 72.1 L 413.3 75.4 Q 413.5 75.8, 413.9 76.4 Q 414.2 77.0, 414.2 77.0 L 414.2 72.1 L 415.1 72.1 L 415.1 78.4 L 414.2 78.4 L 412.0 74.8 Q 411.7 74.3, 411.4 73.8 Q 411.2 73.3, 411.1 73.2 L 411.1 78.4 L 410.2 78.4 L 410.2 72.1 L 411.3 72.1 " fill="#0000FF"/>
<path class="atom-23" d="M 496.4,94.2 L 496.4,94.2 L 496.4,94.3 L 496.4,94.3 L 496.4,94.4 L 496.4,94.4 L 496.3,94.4 L 496.3,94.5 L 496.3,94.5 L 496.3,94.5 L 496.2,94.5 L 496.2,94.6 L 496.2,94.6 L 496.1,94.6 L 496.1,94.6 L 496.1,94.6 L 496.0,94.6 L 496.0,94.7 L 496.0,94.7 L 495.9,94.7 L 495.9,94.7 L 495.8,94.6 L 495.8,94.6 L 495.8,94.6 L 495.7,94.6 L 495.7,94.6 L 495.7,94.6 L 495.6,94.5 L 495.6,94.5 L 495.6,94.5 L 495.6,94.4 L 495.5,94.4 L 495.5,94.4 L 495.5,94.3 L 495.5,94.3 L 495.5,94.3 L 495.5,94.2 L 495.5,94.2 L 495.5,94.2 L 495.5,94.1 L 495.5,94.1 L 495.5,94.0 L 495.5,94.0 L 495.6,94.0 L 495.6,93.9 L 495.6,93.9 L 495.6,93.9 L 495.7,93.9 L 495.7,93.8 L 495.7,93.8 L 495.8,93.8 L 495.8,93.8 L 495.8,93.8 L 495.9,93.8 L 495.9,93.8 L 496.0,93.8 L 496.0,93.8 L 496.0,93.8 L 496.1,93.8 L 496.1,93.8 L 496.1,93.8 L 496.2,93.8 L 496.2,93.8 L 496.2,93.9 L 496.3,93.9 L 496.3,93.9 L 496.3,94.0 L 496.3,94.0 L 496.4,94.0 L 496.4,94.1 L 496.4,94.1 L 496.4,94.1 L 496.4,94.2 L 496.4,94.2 L 495.9,94.2 Z" style="fill:#000000;fill-rule:evenodd;fill-opacity:1;stroke:#000000;stroke-width:0.0px;stroke-linecap:butt;stroke-linejoin:miter;stroke-opacity:1;"/>
<path class="atom-34" d="M 513.4,30.7 L 513.4,30.7 L 513.4,30.8 L 513.4,30.8 L 513.4,30.8 L 513.4,30.9 L 513.4,30.9 L 513.3,30.9 L 513.3,31.0 L 513.3,31.0 L 513.3,31.0 L 513.2,31.0 L 513.2,31.1 L 513.2,31.1 L 513.1,31.1 L 513.1,31.1 L 513.1,31.1 L 513.0,31.1 L 513.0,31.1 L 512.9,31.1 L 512.9,31.1 L 512.9,31.1 L 512.8,31.1 L 512.8,31.1 L 512.8,31.1 L 512.7,31.1 L 512.7,31.0 L 512.7,31.0 L 512.6,31.0 L 512.6,31.0 L 512.6,30.9 L 512.6,30.9 L 512.6,30.9 L 512.5,30.8 L 512.5,30.8 L 512.5,30.7 L 512.5,30.7 L 512.5,30.7 L 512.5,30.6 L 512.5,30.6 L 512.5,30.6 L 512.6,30.5 L 512.6,30.5 L 512.6,30.4 L 512.6,30.4 L 512.6,30.4 L 512.7,30.4 L 512.7,30.3 L 512.7,30.3 L 512.8,30.3 L 512.8,30.3 L 512.8,30.3 L 512.9,30.2 L 512.9,30.2 L 512.9,30.2 L 513.0,30.2 L 513.0,30.2 L 513.1,30.2 L 513.1,30.3 L 513.1,30.3 L 513.2,30.3 L 513.2,30.3 L 513.2,30.3 L 513.3,30.3 L 513.3,30.4 L 513.3,30.4 L 513.3,30.4 L 513.4,30.5 L 513.4,30.5 L 513.4,30.5 L 513.4,30.6 L 513.4,30.6 L 513.4,30.6 L 513.4,30.7 L 513.0,30.7 Z" style="fill:#000000;fill-rule:evenodd;fill-opacity:1;stroke:#000000;stroke-width:0.0px;stroke-linecap:butt;stroke-linejoin:miter;stroke-opacity:1;"/>
<path class="atom-34" d="M 513.4,28.9 L 513.4,28.9 L 513.4,29.0 L 513.4,29.0 L 513.4,29.0 L 513.4,29.1 L 513.4,29.1 L 513.3,29.1 L 513.3,29.2 L 513.3,29.2 L 513.3,29.2 L 513.2,29.3 L 513.2,29.3 L 513.2,29.3 L 513.1,29.3 L 513.1,29.3 L 513.1,29.3 L 513.0,29.3 L 513.0,29.3 L 512.9,29.3 L 512.9,29.3 L 512.9,29.3 L 512.8,29.3 L 512.8,29.3 L 512.8,29.3 L 512.7,29.3 L 512.7,29.2 L 512.7,29.2 L 512.6,29.2 L 512.6,29.2 L 512.6,29.1 L 512.6,29.1 L 512.6,29.1 L 512.5,29.0 L 512.5,29.0 L 512.5,28.9 L 512.5,28.9 L 512.5,28.9 L 512.5,28.8 L 512.5,28.8 L 512.5,28.8 L 512.6,28.7 L 512.6,28.7 L 512.6,28.7 L 512.6,28.6 L 512.6,28.6 L 512.7,28.6 L 512.7,28.5 L 512.7,28.5 L 512.8,28.5 L 512.8,28.5 L 512.8,28.5 L 512.9,28.5 L 512.9,28.4 L 512.9,28.4 L 513.0,28.4 L 513.0,28.4 L 513.1,28.4 L 513.1,28.5 L 513.1,28.5 L 513.2,28.5 L 513.2,28.5 L 513.2,28.5 L 513.3,28.5 L 513.3,28.6 L 513.3,28.6 L 513.3,28.6 L 513.4,28.7 L 513.4,28.7 L 513.4,28.7 L 513.4,28.8 L 513.4,28.8 L 513.4,28.9 L 513.4,28.9 L 513.0,28.9 Z" style="fill:#000000;fill-rule:evenodd;fill-opacity:1;stroke:#000000;stroke-width:0.0px;stroke-linecap:butt;stroke-linejoin:miter;stroke-opacity:1;"/>
<path class="atom-35" d="M 478.3,57.3 L 478.3,57.3 L 478.3,57.3 L 478.3,57.4 L 478.3,57.4 L 478.3,57.5 L 478.3,57.5 L 478.3,57.5 L 478.2,57.6 L 478.2,57.6 L 478.2,57.6 L 478.1,57.6 L 478.1,57.7 L 478.1,57.7 L 478.0,57.7 L 478.0,57.7 L 478.0,57.7 L 477.9,57.7 L 477.9,57.7 L 477.9,57.7 L 477.8,57.7 L 477.8,57.7 L 477.7,57.7 L 477.7,57.7 L 477.7,57.7 L 477.6,57.6 L 477.6,57.6 L 477.6,57.6 L 477.5,57.6 L 477.5,57.5 L 477.5,57.5 L 477.5,57.5 L 477.5,57.4 L 477.5,57.4 L 477.4,57.4 L 477.4,57.3 L 477.4,57.3 L 477.4,57.3 L 477.4,57.2 L 477.4,57.2 L 477.5,57.1 L 477.5,57.1 L 477.5,57.1 L 477.5,57.0 L 477.5,57.0 L 477.5,57.0 L 477.6,56.9 L 477.6,56.9 L 477.6,56.9 L 477.7,56.9 L 477.7,56.9 L 477.7,56.8 L 477.8,56.8 L 477.8,56.8 L 477.9,56.8 L 477.9,56.8 L 477.9,56.8 L 478.0,56.8 L 478.0,56.8 L 478.0,56.9 L 478.1,56.9 L 478.1,56.9 L 478.1,56.9 L 478.2,56.9 L 478.2,57.0 L 478.2,57.0 L 478.3,57.0 L 478.3,57.0 L 478.3,57.1 L 478.3,57.1 L 478.3,57.2 L 478.3,57.2 L 478.3,57.2 L 478.3,57.3 L 477.9,57.3 Z" style="fill:#000000;fill-rule:evenodd;fill-opacity:1;stroke:#000000;stroke-width:0.0px;stroke-linecap:butt;stroke-linejoin:miter;stroke-opacity:1;"/>
<path class="atom-35" d="M 478.3,55.5 L 478.3,55.5 L 478.3,55.6 L 478.3,55.6 L 478.3,55.6 L 478.3,55.7 L 478.3,55.7 L 478.3,55.7 L 478.2,55.8 L 478.2,55.8 L 478.2,55.8 L 478.1,55.8 L 478.1,55.9 L 478.1,55.9 L 478.0,55.9 L 478.0,55.9 L 478.0,55.9 L 477.9,55.9 L 477.9,55.9 L 477.9,55.9 L 477.8,55.9 L 477.8,55.9 L 477.7,55.9 L 477.7,55.9 L 477.7,55.9 L 477.6,55.9 L 477.6,55.8 L 477.6,55.8 L 477.5,55.8 L 477.5,55.7 L 477.5,55.7 L 477.5,55.7 L 477.5,55.6 L 477.5,55.6 L 477.4,55.6 L 477.4,55.5 L 477.4,55.5 L 477.4,55.5 L 477.4,55.4 L 477.4,55.4 L 477.5,55.3 L 477.5,55.3 L 477.5,55.3 L 477.5,55.2 L 477.5,55.2 L 477.5,55.2 L 477.6,55.1 L 477.6,55.1 L 477.6,55.1 L 477.7,55.1 L 477.7,55.1 L 477.7,55.0 L 477.8,55.0 L 477.8,55.0 L 477.9,55.0 L 477.9,55.0 L 477.9,55.0 L 478.0,55.0 L 478.0,55.0 L 478.0,55.1 L 478.1,55.1 L 478.1,55.1 L 478.1,55.1 L 478.2,55.1 L 478.2,55.2 L 478.2,55.2 L 478.3,55.2 L 478.3,55.3 L 478.3,55.3 L 478.3,55.3 L 478.3,55.4 L 478.3,55.4 L 478.3,55.4 L 478.3,55.5 L 477.9,55.5 Z" style="fill:#000000;fill-rule:evenodd;fill-opacity:1;stroke:#000000;stroke-width:0.0px;stroke-linecap:butt;stroke-linejoin:miter;stroke-opacity:1;"/>
<path class="bond-0 atom-0 atom-1" d="M 630.4,69.3 L 646.7,54.0" style="fill:none;fill-rule:evenodd;stroke:#000000;stroke-width:2.0px;stroke-linecap:butt;stroke-linejoin:miter;stroke-opacity:1"/>
<path class="bond-1 atom-1 atom-2" d="M 646.7,54.0 L 641.6,32.1" style="fill:none;fill-rule:evenodd;stroke:#000000;stroke-width:2.0px;stroke-linecap:butt;stroke-linejoin:miter;stroke-opacity:1"/>
<path class="bond-1 atom-1 atom-2" d="M 649.6,51.3 L 645.3,33.3" style="fill:none;fill-rule:evenodd;stroke:#000000;stroke-width:2.0px;stroke-linecap:butt;stroke-linejoin:miter;stroke-opacity:1"/>
<path class="bond-2 atom-2 atom-3" d="M 641.6,32.1 L 632.2,29.3" style="fill:none;fill-rule:evenodd;stroke:#000000;stroke-width:2.0px;stroke-linecap:butt;stroke-linejoin:miter;stroke-opacity:1"/>
<path class="bond-2 atom-2 atom-3" d="M 632.2,29.3 L 622.8,26.4" style="fill:none;fill-rule:evenodd;stroke:#33CCCC;stroke-width:2.0px;stroke-linecap:butt;stroke-linejoin:miter;stroke-opacity:1"/>
<path class="bond-3 atom-2 atom-4" d="M 641.6,32.1 L 658.0,16.8" style="fill:none;fill-rule:evenodd;stroke:#000000;stroke-width:2.0px;stroke-linecap:butt;stroke-linejoin:miter;stroke-opacity:1"/>
<path class="bond-4 atom-4 atom-5" d="M 658.0,16.8 L 679.4,23.3" style="fill:none;fill-rule:evenodd;stroke:#000000;stroke-width:2.0px;stroke-linecap:butt;stroke-linejoin:miter;stroke-opacity:1"/>
<path class="bond-4 atom-4 atom-5" d="M 658.9,20.6 L 676.6,25.9" style="fill:none;fill-rule:evenodd;stroke:#000000;stroke-width:2.0px;stroke-linecap:butt;stroke-linejoin:miter;stroke-opacity:1"/>
<path class="bond-5 atom-5 atom-6" d="M 679.4,23.3 L 684.6,45.1" style="fill:none;fill-rule:evenodd;stroke:#000000;stroke-width:2.0px;stroke-linecap:butt;stroke-linejoin:miter;stroke-opacity:1"/>
<path class="bond-6 atom-6 atom-7" d="M 684.6,45.1 L 668.2,60.5" style="fill:none;fill-rule:evenodd;stroke:#000000;stroke-width:2.0px;stroke-linecap:butt;stroke-linejoin:miter;stroke-opacity:1"/>
<path class="bond-6 atom-6 atom-7" d="M 680.8,44.0 L 667.3,56.7" style="fill:none;fill-rule:evenodd;stroke:#000000;stroke-width:2.0px;stroke-linecap:butt;stroke-linejoin:miter;stroke-opacity:1"/>
<path class="bond-7 atom-7 atom-8" d="M 668.2,60.5 L 673.3,82.3" style="fill:none;fill-rule:evenodd;stroke:#000000;stroke-width:2.0px;stroke-linecap:butt;stroke-linejoin:miter;stroke-opacity:1"/>
<path class="bond-8 atom-8 atom-9" d="M 673.3,82.3 L 694.8,88.8" style="fill:none;fill-rule:evenodd;stroke:#000000;stroke-width:2.0px;stroke-linecap:butt;stroke-linejoin:miter;stroke-opacity:1"/>
<path class="bond-9 atom-9 atom-10" d="M 694.8,88.8 L 702.1,110.0" style="fill:none;fill-rule:evenodd;stroke:#000000;stroke-width:2.0px;stroke-linecap:butt;stroke-linejoin:miter;stroke-opacity:1"/>
<path class="bond-9 atom-9 atom-10" d="M 698.8,90.0 L 704.5,106.6" style="fill:none;fill-rule:evenodd;stroke:#000000;stroke-width:2.0px;stroke-linecap:butt;stroke-linejoin:miter;stroke-opacity:1"/>
<path class="bond-10 atom-10 atom-11" d="M 702.1,110.0 L 689.3,128.4" style="fill:none;fill-rule:evenodd;stroke:#000000;stroke-width:2.0px;stroke-linecap:butt;stroke-linejoin:miter;stroke-opacity:1"/>
<path class="bond-11 atom-11 atom-12" d="M 687.4,128.3 L 691.4,136.9" style="fill:none;fill-rule:evenodd;stroke:#000000;stroke-width:2.0px;stroke-linecap:butt;stroke-linejoin:miter;stroke-opacity:1"/>
<path class="bond-11 atom-11 atom-12" d="M 691.4,136.9 L 695.5,145.5" style="fill:none;fill-rule:evenodd;stroke:#FF0000;stroke-width:2.0px;stroke-linecap:butt;stroke-linejoin:miter;stroke-opacity:1"/>
<path class="bond-11 atom-11 atom-12" d="M 690.4,126.8 L 694.5,135.4" style="fill:none;fill-rule:evenodd;stroke:#000000;stroke-width:2.0px;stroke-linecap:butt;stroke-linejoin:miter;stroke-opacity:1"/>
<path class="bond-11 atom-11 atom-12" d="M 694.5,135.4 L 698.5,144.1" style="fill:none;fill-rule:evenodd;stroke:#FF0000;stroke-width:2.0px;stroke-linecap:butt;stroke-linejoin:miter;stroke-opacity:1"/>
<path class="bond-12 atom-11 atom-13" d="M 689.3,128.4 L 679.7,127.6" style="fill:none;fill-rule:evenodd;stroke:#000000;stroke-width:2.0px;stroke-linecap:butt;stroke-linejoin:miter;stroke-opacity:1"/>
<path class="bond-12 atom-11 atom-13" d="M 679.7,127.6 L 670.1,126.8" style="fill:none;fill-rule:evenodd;stroke:#0000FF;stroke-width:2.0px;stroke-linecap:butt;stroke-linejoin:miter;stroke-opacity:1"/>
<path class="bond-13 atom-13 atom-14" d="M 665.1,122.6 L 661.3,114.4" style="fill:none;fill-rule:evenodd;stroke:#0000FF;stroke-width:2.0px;stroke-linecap:butt;stroke-linejoin:miter;stroke-opacity:1"/>
<path class="bond-13 atom-13 atom-14" d="M 661.3,114.4 L 657.4,106.2" style="fill:none;fill-rule:evenodd;stroke:#000000;stroke-width:2.0px;stroke-linecap:butt;stroke-linejoin:miter;stroke-opacity:1"/>
<path class="bond-14 atom-14 atom-15" d="M 657.4,106.2 L 635.1,104.3" style="fill:none;fill-rule:evenodd;stroke:#000000;stroke-width:2.0px;stroke-linecap:butt;stroke-linejoin:miter;stroke-opacity:1"/>
<path class="bond-15 atom-15 atom-16" d="M 635.1,104.3 L 630.0,111.6" style="fill:none;fill-rule:evenodd;stroke:#000000;stroke-width:2.0px;stroke-linecap:butt;stroke-linejoin:miter;stroke-opacity:1"/>
<path class="bond-15 atom-15 atom-16" d="M 630.0,111.6 L 625.0,118.8" style="fill:none;fill-rule:evenodd;stroke:#0000FF;stroke-width:2.0px;stroke-linecap:butt;stroke-linejoin:miter;stroke-opacity:1"/>
<path class="bond-16 atom-16 atom-17" d="M 624.1,126.7 L 628.0,134.9" style="fill:none;fill-rule:evenodd;stroke:#0000FF;stroke-width:2.0px;stroke-linecap:butt;stroke-linejoin:miter;stroke-opacity:1"/>
<path class="bond-16 atom-16 atom-17" d="M 628.0,134.9 L 631.8,143.1" style="fill:none;fill-rule:evenodd;stroke:#000000;stroke-width:2.0px;stroke-linecap:butt;stroke-linejoin:miter;stroke-opacity:1"/>
<path class="bond-17 atom-17 atom-18" d="M 631.8,143.1 L 654.2,144.9" style="fill:none;fill-rule:evenodd;stroke:#000000;stroke-width:2.0px;stroke-linecap:butt;stroke-linejoin:miter;stroke-opacity:1"/>
<path class="bond-18 atom-10 atom-19" d="M 702.1,110.0 L 724.6,109.5" style="fill:none;fill-rule:evenodd;stroke:#000000;stroke-width:2.0px;stroke-linecap:butt;stroke-linejoin:miter;stroke-opacity:1"/>
<path class="bond-19 atom-19 atom-20" d="M 724.6,109.5 L 739.9,125.9" style="fill:none;fill-rule:evenodd;stroke:#000000;stroke-width:2.0px;stroke-linecap:butt;stroke-linejoin:miter;stroke-opacity:1"/>
<path class="bond-19 atom-19 atom-20" d="M 728.4,108.7 L 741.1,122.2" style="fill:none;fill-rule:evenodd;stroke:#000000;stroke-width:2.0px;stroke-linecap:butt;stroke-linejoin:miter;stroke-opacity:1"/>
<path class="bond-20 atom-20 atom-21" d="M 739.9,125.9 L 761.8,120.8" style="fill:none;fill-rule:evenodd;stroke:#000000;stroke-width:2.0px;stroke-linecap:butt;stroke-linejoin:miter;stroke-opacity:1"/>
<path class="bond-21 atom-21 atom-22" d="M 761.8,120.8 L 768.3,99.3" style="fill:none;fill-rule:evenodd;stroke:#000000;stroke-width:2.0px;stroke-linecap:butt;stroke-linejoin:miter;stroke-opacity:1"/>
<path class="bond-21 atom-21 atom-22" d="M 759.1,118.0 L 764.5,100.2" style="fill:none;fill-rule:evenodd;stroke:#000000;stroke-width:2.0px;stroke-linecap:butt;stroke-linejoin:miter;stroke-opacity:1"/>
<path class="bond-22 atom-22 atom-23" d="M 768.3,99.3 L 784.9,95.4" style="fill:none;fill-rule:evenodd;stroke:#000000;stroke-width:2.0px;stroke-linecap:butt;stroke-linejoin:miter;stroke-opacity:1"/>
<path class="bond-23 atom-23 atom-24" d="M 791.0,98.2 L 794.3,112.2" style="fill:none;fill-rule:evenodd;stroke:#000000;stroke-width:2.0px;stroke-linecap:butt;stroke-linejoin:miter;stroke-opacity:1"/>
<path class="bond-24 atom-23 atom-25" d="M 787.5,83.1 L 786.0,76.5" style="fill:none;fill-rule:evenodd;stroke:#000000;stroke-width:2.0px;stroke-linecap:butt;stroke-linejoin:miter;stroke-opacity:1"/>
<path class="bond-25 atom-23 atom-26" d="M 795.3,93.0 L 812.0,89.1" style="fill:none;fill-rule:evenodd;stroke:#000000;stroke-width:2.0px;stroke-linecap:butt;stroke-linejoin:miter;stroke-opacity:1"/>
<path class="bond-26 atom-26 atom-27" d="M 812.0,89.1 L 827.3,105.5" style="fill:none;fill-rule:evenodd;stroke:#000000;stroke-width:2.0px;stroke-linecap:butt;stroke-linejoin:miter;stroke-opacity:1"/>
<path class="bond-26 atom-26 atom-27" d="M 815.7,88.2 L 828.4,101.7" style="fill:none;fill-rule:evenodd;stroke:#000000;stroke-width:2.0px;stroke-linecap:butt;stroke-linejoin:miter;stroke-opacity:1"/>
<path class="bond-27 atom-27 atom-28" d="M 827.3,105.5 L 849.1,100.3" style="fill:none;fill-rule:evenodd;stroke:#000000;stroke-width:2.0px;stroke-linecap:butt;stroke-linejoin:miter;stroke-opacity:1"/>
<path class="bond-28 atom-28 atom-29" d="M 849.1,100.3 L 855.6,78.9" style="fill:none;fill-rule:evenodd;stroke:#000000;stroke-width:2.0px;stroke-linecap:butt;stroke-linejoin:miter;stroke-opacity:1"/>
<path class="bond-28 atom-28 atom-29" d="M 846.5,97.5 L 851.9,79.8" style="fill:none;fill-rule:evenodd;stroke:#000000;stroke-width:2.0px;stroke-linecap:butt;stroke-linejoin:miter;stroke-opacity:1"/>
<path class="bond-29 atom-29 atom-30" d="M 855.6,78.9 L 864.7,76.7" style="fill:none;fill-rule:evenodd;stroke:#000000;stroke-width:2.0px;stroke-linecap:butt;stroke-linejoin:miter;stroke-opacity:1"/>
<path class="bond-29 atom-29 atom-30" d="M 864.7,76.7 L 873.8,74.6" style="fill:none;fill-rule:evenodd;stroke:#FF0000;stroke-width:2.0px;stroke-linecap:butt;stroke-linejoin:miter;stroke-opacity:1"/>
<path class="bond-30 atom-29 atom-31" d="M 855.6,78.9 L 840.3,62.5" style="fill:none;fill-rule:evenodd;stroke:#000000;stroke-width:2.0px;stroke-linecap:butt;stroke-linejoin:miter;stroke-opacity:1"/>
<path class="bond-31 atom-31 atom-32" d="M 840.3,62.5 L 818.4,67.6" style="fill:none;fill-rule:evenodd;stroke:#000000;stroke-width:2.0px;stroke-linecap:butt;stroke-linejoin:miter;stroke-opacity:1"/>
<path class="bond-31 atom-31 atom-32" d="M 839.2,66.2 L 821.1,70.5" style="fill:none;fill-rule:evenodd;stroke:#000000;stroke-width:2.0px;stroke-linecap:butt;stroke-linejoin:miter;stroke-opacity:1"/>
<path class="bond-32 atom-32 atom-33" d="M 818.4,67.6 L 812.3,61.1" style="fill:none;fill-rule:evenodd;stroke:#000000;stroke-width:2.0px;stroke-linecap:butt;stroke-linejoin:miter;stroke-opacity:1"/>
<path class="bond-32 atom-32 atom-33" d="M 812.3,61.1 L 806.2,54.6" style="fill:none;fill-rule:evenodd;stroke:#0000FF;stroke-width:2.0px;stroke-linecap:butt;stroke-linejoin:miter;stroke-opacity:1"/>
<path class="bond-33 atom-33 atom-34" d="M 804.3,47.3 L 806.3,40.5" style="fill:none;fill-rule:evenodd;stroke:#0000FF;stroke-width:2.0px;stroke-linecap:butt;stroke-linejoin:miter;stroke-opacity:1"/>
<path class="bond-33 atom-33 atom-34" d="M 806.3,40.5 L 808.4,33.7" style="fill:none;fill-rule:evenodd;stroke:#FF7F00;stroke-width:2.0px;stroke-linecap:butt;stroke-linejoin:miter;stroke-opacity:1"/>
<path class="bond-34 atom-33 atom-35" d="M 800.0,52.0 L 797.3,52.6" style="fill:none;fill-rule:evenodd;stroke:#0000FF;stroke-width:2.0px;stroke-linecap:butt;stroke-linejoin:miter;stroke-opacity:1"/>
<path class="bond-34 atom-33 atom-35" d="M 797.3,52.6 L 794.7,53.2" style="fill:none;fill-rule:evenodd;stroke:#000000;stroke-width:2.0px;stroke-linecap:butt;stroke-linejoin:miter;stroke-opacity:1"/>
<path class="bond-35 atom-22 atom-36" d="M 768.3,99.3 L 752.9,83.0" style="fill:none;fill-rule:evenodd;stroke:#000000;stroke-width:2.0px;stroke-linecap:butt;stroke-linejoin:miter;stroke-opacity:1"/>
<path class="bond-36 atom-36 atom-37" d="M 752.9,83.0 L 731.1,88.1" style="fill:none;fill-rule:evenodd;stroke:#000000;stroke-width:2.0px;stroke-linecap:butt;stroke-linejoin:miter;stroke-opacity:1"/>
<path class="bond-36 atom-36 atom-37" d="M 751.8,86.7 L 733.7,90.9" style="fill:none;fill-rule:evenodd;stroke:#000000;stroke-width:2.0px;stroke-linecap:butt;stroke-linejoin:miter;stroke-opacity:1"/>
<path class="bond-37 atom-37 atom-38" d="M 731.1,88.1 L 723.4,82.8" style="fill:none;fill-rule:evenodd;stroke:#000000;stroke-width:2.0px;stroke-linecap:butt;stroke-linejoin:miter;stroke-opacity:1"/>
<path class="bond-37 atom-37 atom-38" d="M 723.4,82.8 L 715.8,77.4" style="fill:none;fill-rule:evenodd;stroke:#0000FF;stroke-width:2.0px;stroke-linecap:butt;stroke-linejoin:miter;stroke-opacity:1"/>
<path class="bond-38 atom-38 atom-39" d="M 712.6,71.3 L 712.4,62.1" style="fill:none;fill-rule:evenodd;stroke:#0000FF;stroke-width:2.0px;stroke-linecap:butt;stroke-linejoin:miter;stroke-opacity:1"/>
<path class="bond-38 atom-38 atom-39" d="M 712.4,62.1 L 712.2,52.8" style="fill:none;fill-rule:evenodd;stroke:#000000;stroke-width:2.0px;stroke-linecap:butt;stroke-linejoin:miter;stroke-opacity:1"/>
<path class="bond-39 atom-39 atom-40" d="M 712.2,52.8 L 731.4,41.2" style="fill:none;fill-rule:evenodd;stroke:#000000;stroke-width:2.0px;stroke-linecap:butt;stroke-linejoin:miter;stroke-opacity:1"/>
<path class="bond-39 atom-39 atom-40" d="M 712.1,48.9 L 728.0,39.3" style="fill:none;fill-rule:evenodd;stroke:#000000;stroke-width:2.0px;stroke-linecap:butt;stroke-linejoin:miter;stroke-opacity:1"/>
<path class="bond-40 atom-40 atom-41" d="M 731.4,41.2 L 730.9,18.8" style="fill:none;fill-rule:evenodd;stroke:#000000;stroke-width:2.0px;stroke-linecap:butt;stroke-linejoin:miter;stroke-opacity:1"/>
<path class="bond-41 atom-41 atom-42" d="M 730.9,18.8 L 711.3,8.0" style="fill:none;fill-rule:evenodd;stroke:#000000;stroke-width:2.0px;stroke-linecap:butt;stroke-linejoin:miter;stroke-opacity:1"/>
<path class="bond-41 atom-41 atom-42" d="M 727.6,20.8 L 711.4,11.9" style="fill:none;fill-rule:evenodd;stroke:#000000;stroke-width:2.0px;stroke-linecap:butt;stroke-linejoin:miter;stroke-opacity:1"/>
<path class="bond-42 atom-42 atom-43" d="M 711.3,8.0 L 692.1,19.6" style="fill:none;fill-rule:evenodd;stroke:#000000;stroke-width:2.0px;stroke-linecap:butt;stroke-linejoin:miter;stroke-opacity:1"/>
<path class="bond-43 atom-43 atom-44" d="M 692.1,19.6 L 692.5,42.0" style="fill:none;fill-rule:evenodd;stroke:#000000;stroke-width:2.0px;stroke-linecap:butt;stroke-linejoin:miter;stroke-opacity:1"/>
<path class="bond-43 atom-43 atom-44" d="M 695.5,21.5 L 695.9,40.0" style="fill:none;fill-rule:evenodd;stroke:#000000;stroke-width:2.0px;stroke-linecap:butt;stroke-linejoin:miter;stroke-opacity:1"/>
<path class="bond-44 atom-7 atom-1" d="M 668.2,60.5 L 646.7,54.0" style="fill:none;fill-rule:evenodd;stroke:#000000;stroke-width:2.0px;stroke-linecap:butt;stroke-linejoin:miter;stroke-opacity:1"/>
<path class="bond-45 atom-38 atom-9" d="M 709.5,77.6 L 702.1,83.2" style="fill:none;fill-rule:evenodd;stroke:#0000FF;stroke-width:2.0px;stroke-linecap:butt;stroke-linejoin:miter;stroke-opacity:1"/>
<path class="bond-45 atom-38 atom-9" d="M 702.1,83.2 L 694.8,88.8" style="fill:none;fill-rule:evenodd;stroke:#000000;stroke-width:2.0px;stroke-linecap:butt;stroke-linejoin:miter;stroke-opacity:1"/>
<path class="bond-46 atom-44 atom-39" d="M 692.5,42.0 L 712.2,52.8" style="fill:none;fill-rule:evenodd;stroke:#000000;stroke-width:2.0px;stroke-linecap:butt;stroke-linejoin:miter;stroke-opacity:1"/>
<path class="bond-47 atom-18 atom-13" d="M 654.2,144.9 L 659.2,137.7" style="fill:none;fill-rule:evenodd;stroke:#000000;stroke-width:2.0px;stroke-linecap:butt;stroke-linejoin:miter;stroke-opacity:1"/>
<path class="bond-47 atom-18 atom-13" d="M 659.2,137.7 L 664.3,130.4" style="fill:none;fill-rule:evenodd;stroke:#0000FF;stroke-width:2.0px;stroke-linecap:butt;stroke-linejoin:miter;stroke-opacity:1"/>
<path class="bond-48 atom-37 atom-19" d="M 731.1,88.1 L 724.6,109.5" style="fill:none;fill-rule:evenodd;stroke:#000000;stroke-width:2.0px;stroke-linecap:butt;stroke-linejoin:miter;stroke-opacity:1"/>
<path class="bond-49 atom-32 atom-26" d="M 818.4,67.6 L 812.0,89.1" style="fill:none;fill-rule:evenodd;stroke:#000000;stroke-width:2.0px;stroke-linecap:butt;stroke-linejoin:miter;stroke-opacity:1"/>
<path d="M 657.2,17.6 L 658.0,16.8 L 659.0,17.1" style="fill:none;stroke:#000000;stroke-width:2.0px;stroke-linecap:butt;stroke-linejoin:miter;stroke-opacity:1;"/>
<path d="M 678.4,23.0 L 679.4,23.3 L 679.7,24.4" style="fill:none;stroke:#000000;stroke-width:2.0px;stroke-linecap:butt;stroke-linejoin:miter;stroke-opacity:1;"/>
<path d="M 684.3,44.0 L 684.6,45.1 L 683.7,45.9" style="fill:none;stroke:#000000;stroke-width:2.0px;stroke-linecap:butt;stroke-linejoin:miter;stroke-opacity:1;"/>
<path d="M 673.1,81.2 L 673.3,82.3 L 674.4,82.6" style="fill:none;stroke:#000000;stroke-width:2.0px;stroke-linecap:butt;stroke-linejoin:miter;stroke-opacity:1;"/>
<path d="M 690.0,127.5 L 689.3,128.4 L 688.9,128.4" style="fill:none;stroke:#000000;stroke-width:2.0px;stroke-linecap:butt;stroke-linejoin:miter;stroke-opacity:1;"/>
<path d="M 657.6,106.6 L 657.4,106.2 L 656.3,106.1" style="fill:none;stroke:#000000;stroke-width:2.0px;stroke-linecap:butt;stroke-linejoin:miter;stroke-opacity:1;"/>
<path d="M 636.2,104.4 L 635.1,104.3 L 634.8,104.7" style="fill:none;stroke:#000000;stroke-width:2.0px;stroke-linecap:butt;stroke-linejoin:miter;stroke-opacity:1;"/>
<path d="M 631.6,142.6 L 631.8,143.1 L 632.9,143.1" style="fill:none;stroke:#000000;stroke-width:2.0px;stroke-linecap:butt;stroke-linejoin:miter;stroke-opacity:1;"/>
<path d="M 653.0,144.8 L 654.2,144.9 L 654.4,144.6" style="fill:none;stroke:#000000;stroke-width:2.0px;stroke-linecap:butt;stroke-linejoin:miter;stroke-opacity:1;"/>
<path d="M 739.2,125.1 L 739.9,125.9 L 741.0,125.6" style="fill:none;stroke:#000000;stroke-width:2.0px;stroke-linecap:butt;stroke-linejoin:miter;stroke-opacity:1;"/>
<path d="M 760.7,121.0 L 761.8,120.8 L 762.1,119.7" style="fill:none;stroke:#000000;stroke-width:2.0px;stroke-linecap:butt;stroke-linejoin:miter;stroke-opacity:1;"/>
<path d="M 826.5,104.6 L 827.3,105.5 L 828.4,105.2" style="fill:none;stroke:#000000;stroke-width:2.0px;stroke-linecap:butt;stroke-linejoin:miter;stroke-opacity:1;"/>
<path d="M 848.1,100.6 L 849.1,100.3 L 849.5,99.3" style="fill:none;stroke:#000000;stroke-width:2.0px;stroke-linecap:butt;stroke-linejoin:miter;stroke-opacity:1;"/>
<path d="M 841.1,63.3 L 840.3,62.5 L 839.2,62.8" style="fill:none;stroke:#000000;stroke-width:2.0px;stroke-linecap:butt;stroke-linejoin:miter;stroke-opacity:1;"/>
<path d="M 753.7,83.8 L 752.9,83.0 L 751.8,83.2" style="fill:none;stroke:#000000;stroke-width:2.0px;stroke-linecap:butt;stroke-linejoin:miter;stroke-opacity:1;"/>
<path d="M 730.4,41.8 L 731.4,41.2 L 731.4,40.1" style="fill:none;stroke:#000000;stroke-width:2.0px;stroke-linecap:butt;stroke-linejoin:miter;stroke-opacity:1;"/>
<path d="M 731.0,19.9 L 730.9,18.8 L 730.0,18.2" style="fill:none;stroke:#000000;stroke-width:2.0px;stroke-linecap:butt;stroke-linejoin:miter;stroke-opacity:1;"/>
<path d="M 712.3,8.5 L 711.3,8.0 L 710.3,8.5" style="fill:none;stroke:#000000;stroke-width:2.0px;stroke-linecap:butt;stroke-linejoin:miter;stroke-opacity:1;"/>
<path d="M 693.0,19.0 L 692.1,19.6 L 692.1,20.7" style="fill:none;stroke:#000000;stroke-width:2.0px;stroke-linecap:butt;stroke-linejoin:miter;stroke-opacity:1;"/>
<path d="M 692.5,40.9 L 692.5,42.0 L 693.5,42.5" style="fill:none;stroke:#000000;stroke-width:2.0px;stroke-linecap:butt;stroke-linejoin:miter;stroke-opacity:1;"/>
<path class="atom-3" d="M 618.2 22.5 L 622.0 22.5 L 622.0 23.2 L 619.1 23.2 L 619.1 25.1 L 621.7 25.1 L 621.7 25.9 L 619.1 25.9 L 619.1 28.8 L 618.2 28.8 L 618.2 22.5 " fill="#33CCCC"/>
<path class="atom-12" d="M 696.0 148.7 Q 696.0 147.2, 696.7 146.4 Q 697.5 145.5, 698.9 145.5 Q 700.3 145.5, 701.0 146.4 Q 701.8 147.2, 701.8 148.7 Q 701.8 150.3, 701.0 151.2 Q 700.3 152.0, 698.9 152.0 Q 697.5 152.0, 696.7 151.2 Q 696.0 150.3, 696.0 148.7 M 698.9 151.3 Q 699.8 151.3, 700.4 150.7 Q 700.9 150.0, 700.9 148.7 Q 700.9 147.5, 700.4 146.9 Q 699.8 146.2, 698.9 146.2 Q 697.9 146.2, 697.4 146.9 Q 696.9 147.5, 696.9 148.7 Q 696.9 150.0, 697.4 150.7 Q 697.9 151.3, 698.9 151.3 " fill="#FF0000"/>
<path class="atom-13" d="M 665.6 123.4 L 667.7 126.7 Q 667.9 127.0, 668.2 127.7 Q 668.5 128.3, 668.5 128.3 L 668.5 123.4 L 669.4 123.4 L 669.4 129.7 L 668.5 129.7 L 666.3 126.0 Q 666.0 125.6, 665.7 125.1 Q 665.5 124.6, 665.4 124.5 L 665.4 129.7 L 664.6 129.7 L 664.6 123.4 L 665.6 123.4 " fill="#0000FF"/>
<path class="atom-16" d="M 613.6 119.6 L 614.5 119.6 L 614.5 122.3 L 617.7 122.3 L 617.7 119.6 L 618.6 119.6 L 618.6 125.9 L 617.7 125.9 L 617.7 123.0 L 614.5 123.0 L 614.5 125.9 L 613.6 125.9 L 613.6 119.6 " fill="#0000FF"/>
<path class="atom-16" d="M 620.9 119.6 L 622.9 122.9 Q 623.2 123.3, 623.5 123.9 Q 623.8 124.5, 623.8 124.5 L 623.8 119.6 L 624.7 119.6 L 624.7 125.9 L 623.8 125.9 L 621.6 122.2 Q 621.3 121.8, 621.0 121.3 Q 620.8 120.8, 620.7 120.7 L 620.7 125.9 L 619.9 125.9 L 619.9 119.6 L 620.9 119.6 " fill="#0000FF"/>
<path class="atom-23" d="M 785.9 96.4 Q 785.9 96.4, 786.2 96.5 Q 786.5 96.7, 786.8 96.7 Q 787.2 96.8, 787.5 96.8 Q 788.1 96.8, 788.5 96.5 Q 788.8 96.2, 788.8 95.7 Q 788.8 95.4, 788.6 95.2 Q 788.5 94.9, 788.2 94.8 Q 787.9 94.7, 787.5 94.6 Q 786.9 94.4, 786.6 94.2 Q 786.2 94.1, 786.0 93.7 Q 785.8 93.4, 785.8 92.8 Q 785.8 92.0, 786.3 91.5 Q 786.8 91.0, 787.9 91.0 Q 788.6 91.0, 789.5 91.4 L 789.3 92.1 Q 788.5 91.8, 787.9 91.8 Q 787.3 91.8, 787.0 92.0 Q 786.6 92.3, 786.6 92.7 Q 786.6 93.1, 786.8 93.3 Q 787.0 93.5, 787.2 93.6 Q 787.5 93.7, 787.9 93.8 Q 788.5 94.0, 788.9 94.2 Q 789.2 94.4, 789.4 94.7 Q 789.7 95.1, 789.7 95.7 Q 789.7 96.6, 789.1 97.1 Q 788.5 97.5, 787.5 97.5 Q 787.0 97.5, 786.5 97.4 Q 786.1 97.3, 785.6 97.1 L 785.9 96.4 " fill="#000000"/>
<path class="atom-23" d="M 790.5 95.1 Q 790.5 93.9, 791.1 93.3 Q 791.7 92.7, 792.7 92.7 Q 793.7 92.7, 794.1 93.3 Q 794.6 93.9, 794.6 95.0 L 794.6 95.2 L 791.4 95.2 Q 791.4 96.0, 791.7 96.4 Q 792.1 96.8, 792.8 96.8 Q 793.1 96.8, 793.4 96.7 Q 793.8 96.6, 794.2 96.4 L 794.4 97.0 Q 794.0 97.2, 793.6 97.3 Q 793.1 97.4, 792.7 97.4 Q 791.7 97.4, 791.1 96.8 Q 790.5 96.2, 790.5 95.1 M 792.7 93.3 Q 792.2 93.3, 791.8 93.7 Q 791.5 94.0, 791.4 94.5 L 793.7 94.5 Q 793.7 93.9, 793.4 93.6 Q 793.1 93.3, 792.7 93.3 " fill="#000000"/>
<path class="atom-23" d="M 787.6 83.9 L 788.5 83.9 L 788.5 86.6 L 791.7 86.6 L 791.7 83.9 L 792.6 83.9 L 792.6 90.2 L 791.7 90.2 L 791.7 87.3 L 788.5 87.3 L 788.5 90.2 L 787.6 90.2 L 787.6 83.9 " fill="#000000"/>
<path class="atom-24" d="M 793.4 118.2 Q 793.5 118.3, 793.8 118.4 Q 794.1 118.5, 794.4 118.6 Q 794.7 118.7, 795.1 118.7 Q 795.7 118.7, 796.0 118.4 Q 796.4 118.1, 796.4 117.6 Q 796.4 117.2, 796.2 117.0 Q 796.0 116.8, 795.8 116.7 Q 795.5 116.6, 795.0 116.4 Q 794.5 116.3, 794.1 116.1 Q 793.8 115.9, 793.6 115.6 Q 793.3 115.3, 793.3 114.7 Q 793.3 113.9, 793.9 113.4 Q 794.4 112.9, 795.5 112.9 Q 796.2 112.9, 797.1 113.2 L 796.8 113.9 Q 796.1 113.6, 795.5 113.6 Q 794.9 113.6, 794.5 113.9 Q 794.2 114.1, 794.2 114.6 Q 794.2 114.9, 794.4 115.1 Q 794.6 115.3, 794.8 115.4 Q 795.1 115.6, 795.5 115.7 Q 796.1 115.9, 796.4 116.1 Q 796.8 116.2, 797.0 116.6 Q 797.3 117.0, 797.3 117.6 Q 797.3 118.5, 796.7 118.9 Q 796.1 119.4, 795.1 119.4 Q 794.5 119.4, 794.1 119.3 Q 793.7 119.2, 793.2 119.0 L 793.4 118.2 " fill="#000000"/>
<path class="atom-24" d="M 798.1 116.9 Q 798.1 115.8, 798.7 115.2 Q 799.2 114.5, 800.3 114.5 Q 801.3 114.5, 801.7 115.1 Q 802.2 115.7, 802.2 116.9 L 802.2 117.0 L 799.0 117.0 Q 799.0 117.8, 799.3 118.2 Q 799.7 118.6, 800.4 118.6 Q 800.7 118.6, 801.0 118.6 Q 801.4 118.5, 801.8 118.3 L 802.0 118.9 Q 801.6 119.1, 801.2 119.2 Q 800.7 119.3, 800.3 119.3 Q 799.3 119.3, 798.7 118.7 Q 798.1 118.0, 798.1 116.9 M 800.3 115.2 Q 799.8 115.2, 799.4 115.5 Q 799.1 115.8, 799.0 116.4 L 801.3 116.4 Q 801.2 115.8, 801.0 115.5 Q 800.7 115.2, 800.3 115.2 " fill="#000000"/>
<path class="atom-24" d="M 803.0 112.9 L 803.8 112.9 L 803.8 115.6 L 807.1 115.6 L 807.1 112.9 L 808.0 112.9 L 808.0 119.2 L 807.1 119.2 L 807.1 116.3 L 803.8 116.3 L 803.8 119.2 L 803.0 119.2 L 803.0 112.9 " fill="#000000"/>
<path class="atom-25" d="M 783.2 74.6 Q 783.3 74.6, 783.6 74.7 Q 783.9 74.8, 784.2 74.9 Q 784.5 75.0, 784.8 75.0 Q 785.4 75.0, 785.8 74.7 Q 786.1 74.4, 786.1 73.9 Q 786.1 73.5, 786.0 73.3 Q 785.8 73.1, 785.5 73.0 Q 785.3 72.9, 784.8 72.7 Q 784.2 72.6, 783.9 72.4 Q 783.6 72.2, 783.3 71.9 Q 783.1 71.6, 783.1 71.0 Q 783.1 70.2, 783.6 69.7 Q 784.2 69.2, 785.3 69.2 Q 786.0 69.2, 786.8 69.6 L 786.6 70.2 Q 785.9 69.9, 785.3 69.9 Q 784.7 69.9, 784.3 70.2 Q 784.0 70.4, 784.0 70.9 Q 784.0 71.2, 784.2 71.4 Q 784.3 71.6, 784.6 71.8 Q 784.9 71.9, 785.3 72.0 Q 785.9 72.2, 786.2 72.4 Q 786.5 72.5, 786.8 72.9 Q 787.0 73.3, 787.0 73.9 Q 787.0 74.8, 786.4 75.2 Q 785.9 75.7, 784.9 75.7 Q 784.3 75.7, 783.9 75.6 Q 783.5 75.5, 783.0 75.3 L 783.2 74.6 " fill="#000000"/>
<path class="atom-25" d="M 787.9 73.2 Q 787.9 72.1, 788.5 71.5 Q 789.0 70.8, 790.1 70.8 Q 791.1 70.8, 791.5 71.5 Q 792.0 72.1, 792.0 73.2 L 792.0 73.3 L 788.8 73.3 Q 788.8 74.1, 789.1 74.5 Q 789.5 74.9, 790.1 74.9 Q 790.5 74.9, 790.8 74.9 Q 791.2 74.8, 791.6 74.6 L 791.8 75.2 Q 791.3 75.4, 790.9 75.5 Q 790.5 75.6, 790.1 75.6 Q 789.0 75.6, 788.5 75.0 Q 787.9 74.4, 787.9 73.2 M 790.1 71.5 Q 789.5 71.5, 789.2 71.8 Q 788.9 72.1, 788.8 72.7 L 791.1 72.7 Q 791.0 72.1, 790.8 71.8 Q 790.5 71.5, 790.1 71.5 " fill="#000000"/>
<path class="atom-25" d="M 792.8 69.2 L 793.6 69.2 L 793.6 71.9 L 796.9 71.9 L 796.9 69.2 L 797.7 69.2 L 797.7 75.5 L 796.9 75.5 L 796.9 72.6 L 793.6 72.6 L 793.6 75.5 L 792.8 75.5 L 792.8 69.2 " fill="#000000"/>
<path class="atom-30" d="M 874.6 73.8 Q 874.6 72.3, 875.3 71.4 Q 876.1 70.5, 877.5 70.5 Q 878.9 70.5, 879.6 71.4 Q 880.4 72.3, 880.4 73.8 Q 880.4 75.3, 879.6 76.2 Q 878.9 77.1, 877.5 77.1 Q 876.1 77.1, 875.3 76.2 Q 874.6 75.3, 874.6 73.8 M 877.5 76.4 Q 878.5 76.4, 879.0 75.7 Q 879.5 75.1, 879.5 73.8 Q 879.5 72.5, 879.0 71.9 Q 878.5 71.3, 877.5 71.3 Q 876.5 71.3, 876.0 71.9 Q 875.5 72.5, 875.5 73.8 Q 875.5 75.1, 876.0 75.7 Q 876.5 76.4, 877.5 76.4 " fill="#FF0000"/>
<path class="atom-30" d="M 881.4 70.6 L 882.3 70.6 L 882.3 73.3 L 885.5 73.3 L 885.5 70.6 L 886.4 70.6 L 886.4 77.0 L 885.5 77.0 L 885.5 74.0 L 882.3 74.0 L 882.3 77.0 L 881.4 77.0 L 881.4 70.6 " fill="#FF0000"/>
<path class="atom-33" d="M 801.7 48.1 L 803.8 51.4 Q 804.0 51.8, 804.3 52.4 Q 804.6 53.0, 804.7 53.0 L 804.7 48.1 L 805.5 48.1 L 805.5 54.4 L 804.6 54.4 L 802.4 50.8 Q 802.1 50.3, 801.9 49.8 Q 801.6 49.3, 801.5 49.2 L 801.5 54.4 L 800.7 54.4 L 800.7 48.1 L 801.7 48.1 " fill="#0000FF"/>
<path class="atom-34" d="M 809.4 26.6 Q 810.5 26.6, 811.1 27.1 Q 811.6 27.6, 811.6 28.5 Q 811.6 29.4, 811.1 29.9 Q 810.5 30.4, 809.4 30.4 L 808.4 30.4 L 808.4 33.0 L 807.6 33.0 L 807.6 26.6 L 809.4 26.6 M 809.4 29.6 Q 810.1 29.6, 810.4 29.3 Q 810.7 29.0, 810.7 28.5 Q 810.7 27.9, 810.4 27.6 Q 810.1 27.3, 809.4 27.3 L 808.4 27.3 L 808.4 29.6 L 809.4 29.6 " fill="#FF7F00"/>
<path class="atom-34" d="M 812.5 26.4 Q 812.6 26.0, 813.0 25.8 Q 813.4 25.5, 813.9 25.5 Q 814.5 25.5, 814.9 25.9 Q 815.2 26.2, 815.2 26.8 Q 815.2 27.5, 814.8 28.0 Q 814.3 28.6, 813.4 29.3 L 815.3 29.3 L 815.3 29.8 L 812.5 29.8 L 812.5 29.4 Q 813.2 28.8, 813.7 28.4 Q 814.2 28.0, 814.4 27.6 Q 814.6 27.3, 814.6 26.9 Q 814.6 26.5, 814.4 26.2 Q 814.2 26.0, 813.9 26.0 Q 813.5 26.0, 813.3 26.2 Q 813.1 26.3, 812.9 26.6 L 812.5 26.4 " fill="#FF7F00"/>
<path class="atom-34" d="M 816.1 27.8 L 817.2 27.8 L 817.2 26.6 L 817.7 26.6 L 817.7 27.8 L 818.8 27.8 L 818.8 28.2 L 817.7 28.2 L 817.7 29.4 L 817.2 29.4 L 817.2 28.2 L 816.1 28.2 L 816.1 27.8 " fill="#FF7F00"/>
<path class="atom-35" d="M 760.6 53.2 L 761.5 53.2 L 761.5 55.9 L 764.7 55.9 L 764.7 53.2 L 765.6 53.2 L 765.6 59.5 L 764.7 59.5 L 764.7 56.6 L 761.5 56.6 L 761.5 59.5 L 760.6 59.5 L 760.6 53.2 " fill="#000000"/>
<path class="atom-35" d="M 768.2 58.5 Q 768.9 58.5, 769.3 59.0 Q 769.7 59.5, 769.7 60.5 Q 769.7 61.6, 769.2 62.2 Q 768.8 62.8, 767.9 62.8 Q 767.6 62.8, 767.4 62.7 Q 767.2 62.7, 767.0 62.5 L 767.2 62.1 Q 767.5 62.3, 767.9 62.3 Q 768.5 62.3, 768.8 61.9 Q 769.1 61.5, 769.1 60.7 Q 768.9 60.9, 768.6 61.0 Q 768.4 61.2, 768.1 61.2 Q 767.7 61.2, 767.4 61.0 Q 767.1 60.8, 767.0 60.5 Q 766.8 60.3, 766.8 59.9 Q 766.8 59.5, 767.0 59.2 Q 767.2 58.8, 767.5 58.7 Q 767.8 58.5, 768.2 58.5 M 767.4 59.9 Q 767.4 60.3, 767.6 60.5 Q 767.8 60.7, 768.2 60.7 Q 768.4 60.7, 768.7 60.6 Q 768.9 60.5, 769.1 60.3 Q 769.1 59.6, 768.9 59.3 Q 768.6 59.0, 768.2 59.0 Q 768.0 59.0, 767.8 59.1 Q 767.6 59.2, 767.5 59.4 Q 767.4 59.6, 767.4 59.9 " fill="#000000"/>
<path class="atom-35" d="M 771.9 58.5 Q 772.7 58.5, 773.1 59.0 Q 773.4 59.5, 773.4 60.5 Q 773.4 61.6, 773.0 62.2 Q 772.5 62.8, 771.6 62.8 Q 771.4 62.8, 771.1 62.7 Q 770.9 62.7, 770.7 62.5 L 770.9 62.1 Q 771.2 62.3, 771.6 62.3 Q 772.2 62.3, 772.5 61.9 Q 772.8 61.5, 772.8 60.7 Q 772.6 60.9, 772.4 61.0 Q 772.1 61.2, 771.8 61.2 Q 771.4 61.2, 771.1 61.0 Q 770.9 60.8, 770.7 60.5 Q 770.5 60.3, 770.5 59.9 Q 770.5 59.5, 770.7 59.2 Q 770.9 58.8, 771.2 58.7 Q 771.5 58.5, 771.9 58.5 M 771.1 59.9 Q 771.1 60.3, 771.3 60.5 Q 771.5 60.7, 771.9 60.7 Q 772.2 60.7, 772.4 60.6 Q 772.7 60.5, 772.8 60.3 Q 772.8 59.6, 772.6 59.3 Q 772.4 59.0, 771.9 59.0 Q 771.7 59.0, 771.5 59.1 Q 771.3 59.2, 771.2 59.4 Q 771.1 59.6, 771.1 59.9 " fill="#000000"/>
<path class="atom-35" d="M 774.5 58.6 Q 774.6 58.6, 774.9 58.7 Q 775.2 58.8, 775.5 58.9 Q 775.8 59.0, 776.2 59.0 Q 776.8 59.0, 777.1 58.7 Q 777.5 58.4, 777.5 57.9 Q 777.5 57.5, 777.3 57.3 Q 777.1 57.1, 776.9 57.0 Q 776.6 56.9, 776.1 56.7 Q 775.6 56.6, 775.2 56.4 Q 774.9 56.3, 774.7 55.9 Q 774.4 55.6, 774.4 55.0 Q 774.4 54.2, 775.0 53.7 Q 775.5 53.2, 776.6 53.2 Q 777.3 53.2, 778.2 53.6 L 777.9 54.3 Q 777.2 53.9, 776.6 53.9 Q 776.0 53.9, 775.6 54.2 Q 775.3 54.5, 775.3 54.9 Q 775.3 55.2, 775.5 55.4 Q 775.7 55.6, 775.9 55.8 Q 776.2 55.9, 776.6 56.0 Q 777.2 56.2, 777.5 56.4 Q 777.9 56.6, 778.1 56.9 Q 778.4 57.3, 778.4 57.9 Q 778.4 58.8, 777.8 59.3 Q 777.2 59.7, 776.2 59.7 Q 775.6 59.7, 775.2 59.6 Q 774.8 59.5, 774.3 59.3 L 774.5 58.6 " fill="#000000"/>
<path class="atom-35" d="M 779.2 57.2 Q 779.2 56.1, 779.8 55.5 Q 780.3 54.9, 781.4 54.9 Q 782.4 54.9, 782.8 55.5 Q 783.3 56.1, 783.3 57.2 L 783.3 57.4 L 780.1 57.4 Q 780.1 58.1, 780.4 58.5 Q 780.8 59.0, 781.4 59.0 Q 781.8 59.0, 782.1 58.9 Q 782.5 58.8, 782.9 58.6 L 783.1 59.2 Q 782.7 59.4, 782.2 59.5 Q 781.8 59.6, 781.4 59.6 Q 780.4 59.6, 779.8 59.0 Q 779.2 58.4, 779.2 57.2 M 781.4 55.5 Q 780.8 55.5, 780.5 55.8 Q 780.2 56.1, 780.1 56.7 L 782.4 56.7 Q 782.3 56.1, 782.1 55.8 Q 781.8 55.5, 781.4 55.5 " fill="#000000"/>
<path class="atom-35" d="M 785.5 52.9 Q 786.2 52.9, 786.6 53.4 Q 787.0 53.9, 787.0 54.9 Q 787.0 56.1, 786.5 56.6 Q 786.1 57.2, 785.2 57.2 Q 784.9 57.2, 784.7 57.2 Q 784.5 57.1, 784.2 57.0 L 784.5 56.6 Q 784.8 56.7, 785.2 56.7 Q 785.7 56.7, 786.0 56.4 Q 786.3 56.0, 786.4 55.2 Q 786.2 55.4, 785.9 55.5 Q 785.6 55.6, 785.3 55.6 Q 785.0 55.6, 784.7 55.4 Q 784.4 55.3, 784.2 55.0 Q 784.1 54.7, 784.1 54.3 Q 784.1 53.9, 784.3 53.6 Q 784.4 53.3, 784.8 53.1 Q 785.1 52.9, 785.5 52.9 M 784.7 54.3 Q 784.7 54.7, 784.9 54.9 Q 785.1 55.1, 785.4 55.1 Q 785.7 55.1, 786.0 55.0 Q 786.2 54.9, 786.4 54.7 Q 786.4 54.0, 786.1 53.7 Q 785.9 53.4, 785.5 53.4 Q 785.3 53.4, 785.1 53.5 Q 784.9 53.6, 784.8 53.9 Q 784.7 54.1, 784.7 54.3 " fill="#000000"/>
<path class="atom-35" d="M 790.0 53.4 L 787.8 53.4 L 787.8 53.0 L 790.6 53.0 L 790.6 53.4 L 788.9 57.2 L 788.3 57.2 L 790.0 53.4 " fill="#000000"/>
<path class="atom-35" d="M 791.2 55.1 L 792.3 55.1 L 792.3 54.0 L 792.8 54.0 L 792.8 55.1 L 794.0 55.1 L 794.0 55.6 L 792.8 55.6 L 792.8 56.7 L 792.3 56.7 L 792.3 55.6 L 791.2 55.6 L 791.2 55.1 " fill="#000000"/>
<path class="atom-38" d="M 711.3 72.1 L 713.3 75.4 Q 713.5 75.8, 713.9 76.4 Q 714.2 77.0, 714.2 77.0 L 714.2 72.1 L 715.1 72.1 L 715.1 78.4 L 714.2 78.4 L 712.0 74.8 Q 711.7 74.3, 711.4 73.8 Q 711.2 73.3, 711.1 73.2 L 711.1 78.4 L 710.2 78.4 L 710.2 72.1 L 711.3 72.1 " fill="#0000FF"/>
<path class="atom-23" d="M 796.4,94.2 L 796.4,94.2 L 796.4,94.3 L 796.4,94.3 L 796.4,94.4 L 796.4,94.4 L 796.3,94.4 L 796.3,94.5 L 796.3,94.5 L 796.3,94.5 L 796.2,94.5 L 796.2,94.6 L 796.2,94.6 L 796.1,94.6 L 796.1,94.6 L 796.1,94.6 L 796.0,94.6 L 796.0,94.7 L 796.0,94.7 L 795.9,94.7 L 795.9,94.7 L 795.8,94.6 L 795.8,94.6 L 795.8,94.6 L 795.7,94.6 L 795.7,94.6 L 795.7,94.6 L 795.6,94.5 L 795.6,94.5 L 795.6,94.5 L 795.6,94.4 L 795.5,94.4 L 795.5,94.4 L 795.5,94.3 L 795.5,94.3 L 795.5,94.3 L 795.5,94.2 L 795.5,94.2 L 795.5,94.2 L 795.5,94.1 L 795.5,94.1 L 795.5,94.0 L 795.5,94.0 L 795.6,94.0 L 795.6,93.9 L 795.6,93.9 L 795.6,93.9 L 795.7,93.9 L 795.7,93.8 L 795.7,93.8 L 795.8,93.8 L 795.8,93.8 L 795.8,93.8 L 795.9,93.8 L 795.9,93.8 L 796.0,93.8 L 796.0,93.8 L 796.0,93.8 L 796.1,93.8 L 796.1,93.8 L 796.1,93.8 L 796.2,93.8 L 796.2,93.8 L 796.2,93.9 L 796.3,93.9 L 796.3,93.9 L 796.3,94.0 L 796.3,94.0 L 796.4,94.0 L 796.4,94.1 L 796.4,94.1 L 796.4,94.1 L 796.4,94.2 L 796.4,94.2 L 795.9,94.2 Z" style="fill:#000000;fill-rule:evenodd;fill-opacity:1;stroke:#000000;stroke-width:0.0px;stroke-linecap:butt;stroke-linejoin:miter;stroke-opacity:1;"/>
<path class="atom-34" d="M 820.6,30.7 L 820.6,30.7 L 820.6,30.8 L 820.6,30.8 L 820.6,30.8 L 820.6,30.9 L 820.6,30.9 L 820.5,30.9 L 820.5,31.0 L 820.5,31.0 L 820.5,31.0 L 820.4,31.0 L 820.4,31.1 L 820.4,31.1 L 820.3,31.1 L 820.3,31.1 L 820.3,31.1 L 820.2,31.1 L 820.2,31.1 L 820.1,31.1 L 820.1,31.1 L 820.1,31.1 L 820.0,31.1 L 820.0,31.1 L 820.0,31.1 L 819.9,31.1 L 819.9,31.0 L 819.9,31.0 L 819.8,31.0 L 819.8,31.0 L 819.8,30.9 L 819.8,30.9 L 819.8,30.9 L 819.7,30.8 L 819.7,30.8 L 819.7,30.7 L 819.7,30.7 L 819.7,30.7 L 819.7,30.6 L 819.7,30.6 L 819.7,30.6 L 819.8,30.5 L 819.8,30.5 L 819.8,30.4 L 819.8,30.4 L 819.8,30.4 L 819.9,30.4 L 819.9,30.3 L 819.9,30.3 L 820.0,30.3 L 820.0,30.3 L 820.0,30.3 L 820.1,30.2 L 820.1,30.2 L 820.1,30.2 L 820.2,30.2 L 820.2,30.2 L 820.3,30.2 L 820.3,30.3 L 820.3,30.3 L 820.4,30.3 L 820.4,30.3 L 820.4,30.3 L 820.5,30.3 L 820.5,30.4 L 820.5,30.4 L 820.5,30.4 L 820.6,30.5 L 820.6,30.5 L 820.6,30.5 L 820.6,30.6 L 820.6,30.6 L 820.6,30.6 L 820.6,30.7 L 820.2,30.7 Z" style="fill:#000000;fill-rule:evenodd;fill-opacity:1;stroke:#000000;stroke-width:0.0px;stroke-linecap:butt;stroke-linejoin:miter;stroke-opacity:1;"/>
<path class="atom-34" d="M 820.6,28.9 L 820.6,28.9 L 820.6,29.0 L 820.6,29.0 L 820.6,29.0 L 820.6,29.1 L 820.6,29.1 L 820.5,29.1 L 820.5,29.2 L 820.5,29.2 L 820.5,29.2 L 820.4,29.3 L 820.4,29.3 L 820.4,29.3 L 820.3,29.3 L 820.3,29.3 L 820.3,29.3 L 820.2,29.3 L 820.2,29.3 L 820.1,29.3 L 820.1,29.3 L 820.1,29.3 L 820.0,29.3 L 820.0,29.3 L 820.0,29.3 L 819.9,29.3 L 819.9,29.2 L 819.9,29.2 L 819.8,29.2 L 819.8,29.2 L 819.8,29.1 L 819.8,29.1 L 819.8,29.1 L 819.7,29.0 L 819.7,29.0 L 819.7,28.9 L 819.7,28.9 L 819.7,28.9 L 819.7,28.8 L 819.7,28.8 L 819.7,28.8 L 819.8,28.7 L 819.8,28.7 L 819.8,28.7 L 819.8,28.6 L 819.8,28.6 L 819.9,28.6 L 819.9,28.5 L 819.9,28.5 L 820.0,28.5 L 820.0,28.5 L 820.0,28.5 L 820.1,28.5 L 820.1,28.4 L 820.1,28.4 L 820.2,28.4 L 820.2,28.4 L 820.3,28.4 L 820.3,28.5 L 820.3,28.5 L 820.4,28.5 L 820.4,28.5 L 820.4,28.5 L 820.5,28.5 L 820.5,28.6 L 820.5,28.6 L 820.5,28.6 L 820.6,28.7 L 820.6,28.7 L 820.6,28.7 L 820.6,28.8 L 820.6,28.8 L 820.6,28.9 L 820.6,28.9 L 820.2,28.9 Z" style="fill:#000000;fill-rule:evenodd;fill-opacity:1;stroke:#000000;stroke-width:0.0px;stroke-linecap:butt;stroke-linejoin:miter;stroke-opacity:1;"/>
<path class="atom-35" d="M 759.7,56.4 L 759.7,56.4 L 759.7,56.4 L 759.7,56.5 L 759.7,56.5 L 759.7,56.6 L 759.7,56.6 L 759.6,56.6 L 759.6,56.7 L 759.6,56.7 L 759.6,56.7 L 759.5,56.7 L 759.5,56.8 L 759.5,56.8 L 759.4,56.8 L 759.4,56.8 L 759.4,56.8 L 759.3,56.8 L 759.3,56.8 L 759.2,56.8 L 759.2,56.8 L 759.2,56.8 L 759.1,56.8 L 759.1,56.8 L 759.1,56.8 L 759.0,56.7 L 759.0,56.7 L 759.0,56.7 L 758.9,56.7 L 758.9,56.6 L 758.9,56.6 L 758.9,56.6 L 758.9,56.5 L 758.9,56.5 L 758.8,56.5 L 758.8,56.4 L 758.8,56.4 L 758.8,56.4 L 758.8,56.3 L 758.8,56.3 L 758.9,56.2 L 758.9,56.2 L 758.9,56.2 L 758.9,56.1 L 758.9,56.1 L 758.9,56.1 L 759.0,56.0 L 759.0,56.0 L 759.0,56.0 L 759.1,56.0 L 759.1,56.0 L 759.1,55.9 L 759.2,55.9 L 759.2,55.9 L 759.2,55.9 L 759.3,55.9 L 759.3,55.9 L 759.4,55.9 L 759.4,55.9 L 759.4,56.0 L 759.5,56.0 L 759.5,56.0 L 759.5,56.0 L 759.6,56.0 L 759.6,56.1 L 759.6,56.1 L 759.6,56.1 L 759.7,56.2 L 759.7,56.2 L 759.7,56.2 L 759.7,56.3 L 759.7,56.3 L 759.7,56.3 L 759.7,56.4 L 759.3,56.4 Z" style="fill:#000000;fill-rule:evenodd;fill-opacity:1;stroke:#000000;stroke-width:0.0px;stroke-linecap:butt;stroke-linejoin:miter;stroke-opacity:1;"/>
</svg>