<svg xmlns="http://www.w3.org/2000/svg" xmlns:rdkit="http://www.rdkit.org/xml" xmlns:xlink="http://www.w3.org/1999/xlink" version="1.1" baseProfile="full" xml:space="preserve" width="900px" height="160px" viewBox="0 0 900 160">
<!-- END OF HEADER -->
<rect style="opacity:1.0;fill:#FFFFFF;stroke:none" width="900.0" height="160.0" x="0.0" y="0.0"> </rect>
<path class="bond-0 atom-0 atom-1" d="M 209.1,132.0 L 202.6,128.1" style="fill:none;fill-rule:evenodd;stroke:#000000;stroke-width:2.0px;stroke-linecap:butt;stroke-linejoin:miter;stroke-opacity:1"/>
<path class="bond-0 atom-0 atom-1" d="M 202.6,128.1 L 196.1,124.2" style="fill:none;fill-rule:evenodd;stroke:#FF0000;stroke-width:2.0px;stroke-linecap:butt;stroke-linejoin:miter;stroke-opacity:1"/>
<path class="bond-1 atom-1 atom-2" d="M 193.1,119.2 L 193.2,113.1" style="fill:none;fill-rule:evenodd;stroke:#FF0000;stroke-width:2.0px;stroke-linecap:butt;stroke-linejoin:miter;stroke-opacity:1"/>
<path class="bond-1 atom-1 atom-2" d="M 193.2,113.1 L 193.2,107.0" style="fill:none;fill-rule:evenodd;stroke:#0000FF;stroke-width:2.0px;stroke-linecap:butt;stroke-linejoin:miter;stroke-opacity:1"/>
<path class="bond-2 atom-2 atom-3" d="M 195.9,102.8 L 208.3,98.5" style="fill:none;fill-rule:evenodd;stroke:#0000FF;stroke-width:2.0px;stroke-linecap:butt;stroke-linejoin:miter;stroke-opacity:1"/>
<path class="bond-3 atom-3 atom-4" d="M 212.8,94.3 L 218.5,84.7" style="fill:none;fill-rule:evenodd;stroke:#0000FF;stroke-width:2.0px;stroke-linecap:butt;stroke-linejoin:miter;stroke-opacity:1"/>
<path class="bond-4 atom-4 atom-5" d="M 219.9,78.2 L 218.6,70.6" style="fill:none;fill-rule:evenodd;stroke:#0000FF;stroke-width:2.0px;stroke-linecap:butt;stroke-linejoin:miter;stroke-opacity:1"/>
<path class="bond-4 atom-4 atom-5" d="M 218.6,70.6 L 217.3,63.0" style="fill:none;fill-rule:evenodd;stroke:#000000;stroke-width:2.0px;stroke-linecap:butt;stroke-linejoin:miter;stroke-opacity:1"/>
<path class="bond-5 atom-5 atom-6" d="M 217.3,63.0 L 203.2,50.9" style="fill:none;fill-rule:evenodd;stroke:#000000;stroke-width:2.0px;stroke-linecap:butt;stroke-linejoin:miter;stroke-opacity:1"/>
<path class="bond-6 atom-6 atom-7" d="M 203.2,50.9 L 195.1,50.8" style="fill:none;fill-rule:evenodd;stroke:#000000;stroke-width:2.0px;stroke-linecap:butt;stroke-linejoin:miter;stroke-opacity:1"/>
<path class="bond-6 atom-6 atom-7" d="M 195.1,50.8 L 187.1,50.7" style="fill:none;fill-rule:evenodd;stroke:#0000FF;stroke-width:2.0px;stroke-linecap:butt;stroke-linejoin:miter;stroke-opacity:1"/>
<path class="bond-7 atom-7 atom-8" d="M 181.9,52.8 L 175.9,57.7" style="fill:none;fill-rule:evenodd;stroke:#0000FF;stroke-width:2.0px;stroke-linecap:butt;stroke-linejoin:miter;stroke-opacity:1"/>
<path class="bond-7 atom-7 atom-8" d="M 175.9,57.7 L 170.0,62.5" style="fill:none;fill-rule:evenodd;stroke:#000000;stroke-width:2.0px;stroke-linecap:butt;stroke-linejoin:miter;stroke-opacity:1"/>
<path class="bond-8 atom-8 atom-9" d="M 170.0,62.5 L 166.6,80.9" style="fill:none;fill-rule:evenodd;stroke:#000000;stroke-width:2.0px;stroke-linecap:butt;stroke-linejoin:miter;stroke-opacity:1"/>
<path class="bond-9 atom-9 atom-10" d="M 166.6,80.9 L 170.3,87.4" style="fill:none;fill-rule:evenodd;stroke:#000000;stroke-width:2.0px;stroke-linecap:butt;stroke-linejoin:miter;stroke-opacity:1"/>
<path class="bond-9 atom-9 atom-10" d="M 170.3,87.4 L 173.9,93.9" style="fill:none;fill-rule:evenodd;stroke:#0000FF;stroke-width:2.0px;stroke-linecap:butt;stroke-linejoin:miter;stroke-opacity:1"/>
<path class="bond-10 atom-10 atom-11" d="M 173.1,100.2 L 168.4,105.8" style="fill:none;fill-rule:evenodd;stroke:#0000FF;stroke-width:2.0px;stroke-linecap:butt;stroke-linejoin:miter;stroke-opacity:1"/>
<path class="bond-10 atom-10 atom-11" d="M 168.4,105.8 L 163.6,111.4" style="fill:none;fill-rule:evenodd;stroke:#000000;stroke-width:2.0px;stroke-linecap:butt;stroke-linejoin:miter;stroke-opacity:1"/>
<path class="bond-11 atom-11 atom-12" d="M 162.0,111.1 L 164.7,118.6" style="fill:none;fill-rule:evenodd;stroke:#000000;stroke-width:2.0px;stroke-linecap:butt;stroke-linejoin:miter;stroke-opacity:1"/>
<path class="bond-11 atom-11 atom-12" d="M 164.7,118.6 L 167.3,126.2" style="fill:none;fill-rule:evenodd;stroke:#FF0000;stroke-width:2.0px;stroke-linecap:butt;stroke-linejoin:miter;stroke-opacity:1"/>
<path class="bond-11 atom-11 atom-12" d="M 164.7,110.1 L 167.3,117.7" style="fill:none;fill-rule:evenodd;stroke:#000000;stroke-width:2.0px;stroke-linecap:butt;stroke-linejoin:miter;stroke-opacity:1"/>
<path class="bond-11 atom-11 atom-12" d="M 167.3,117.7 L 170.0,125.2" style="fill:none;fill-rule:evenodd;stroke:#FF0000;stroke-width:2.0px;stroke-linecap:butt;stroke-linejoin:miter;stroke-opacity:1"/>
<path class="bond-12 atom-11 atom-13" d="M 163.6,111.4 L 145.2,107.9" style="fill:none;fill-rule:evenodd;stroke:#000000;stroke-width:2.0px;stroke-linecap:butt;stroke-linejoin:miter;stroke-opacity:1"/>
<path class="bond-13 atom-13 atom-14" d="M 145.2,107.9 L 137.2,91.0" style="fill:none;fill-rule:evenodd;stroke:#000000;stroke-width:2.0px;stroke-linecap:butt;stroke-linejoin:miter;stroke-opacity:1"/>
<path class="bond-13 atom-13 atom-14" d="M 141.8,107.3 L 135.6,94.1" style="fill:none;fill-rule:evenodd;stroke:#000000;stroke-width:2.0px;stroke-linecap:butt;stroke-linejoin:miter;stroke-opacity:1"/>
<path class="bond-14 atom-14 atom-15" d="M 137.2,91.0 L 146.2,74.6" style="fill:none;fill-rule:evenodd;stroke:#000000;stroke-width:2.0px;stroke-linecap:butt;stroke-linejoin:miter;stroke-opacity:1"/>
<path class="bond-15 atom-15 atom-16" d="M 146.2,74.6 L 136.4,58.7" style="fill:none;fill-rule:evenodd;stroke:#000000;stroke-width:2.0px;stroke-linecap:butt;stroke-linejoin:miter;stroke-opacity:1"/>
<path class="bond-16 atom-16 atom-17" d="M 136.4,58.7 L 117.7,59.1" style="fill:none;fill-rule:evenodd;stroke:#000000;stroke-width:2.0px;stroke-linecap:butt;stroke-linejoin:miter;stroke-opacity:1"/>
<path class="bond-16 atom-16 atom-17" d="M 134.7,55.9 L 119.3,56.3" style="fill:none;fill-rule:evenodd;stroke:#000000;stroke-width:2.0px;stroke-linecap:butt;stroke-linejoin:miter;stroke-opacity:1"/>
<path class="bond-17 atom-17 atom-18" d="M 117.7,59.1 L 108.0,43.2" style="fill:none;fill-rule:evenodd;stroke:#000000;stroke-width:2.0px;stroke-linecap:butt;stroke-linejoin:miter;stroke-opacity:1"/>
<path class="bond-18 atom-18 atom-19" d="M 108.0,43.2 L 117.0,26.8" style="fill:none;fill-rule:evenodd;stroke:#000000;stroke-width:2.0px;stroke-linecap:butt;stroke-linejoin:miter;stroke-opacity:1"/>
<path class="bond-18 atom-18 atom-19" d="M 111.2,43.1 L 118.6,29.5" style="fill:none;fill-rule:evenodd;stroke:#000000;stroke-width:2.0px;stroke-linecap:butt;stroke-linejoin:miter;stroke-opacity:1"/>
<path class="bond-19 atom-19 atom-20" d="M 117.0,26.8 L 135.6,26.3" style="fill:none;fill-rule:evenodd;stroke:#000000;stroke-width:2.0px;stroke-linecap:butt;stroke-linejoin:miter;stroke-opacity:1"/>
<path class="bond-20 atom-20 atom-21" d="M 135.6,26.3 L 139.2,19.8" style="fill:none;fill-rule:evenodd;stroke:#000000;stroke-width:2.0px;stroke-linecap:butt;stroke-linejoin:miter;stroke-opacity:1"/>
<path class="bond-20 atom-20 atom-21" d="M 139.2,19.8 L 142.8,13.2" style="fill:none;fill-rule:evenodd;stroke:#33CCCC;stroke-width:2.0px;stroke-linecap:butt;stroke-linejoin:miter;stroke-opacity:1"/>
<path class="bond-21 atom-20 atom-22" d="M 135.6,26.3 L 145.4,42.3" style="fill:none;fill-rule:evenodd;stroke:#000000;stroke-width:2.0px;stroke-linecap:butt;stroke-linejoin:miter;stroke-opacity:1"/>
<path class="bond-21 atom-20 atom-22" d="M 134.1,29.2 L 142.1,42.4" style="fill:none;fill-rule:evenodd;stroke:#000000;stroke-width:2.0px;stroke-linecap:butt;stroke-linejoin:miter;stroke-opacity:1"/>
<path class="bond-22 atom-22 atom-23" d="M 145.4,42.3 L 164.1,41.8" style="fill:none;fill-rule:evenodd;stroke:#000000;stroke-width:2.0px;stroke-linecap:butt;stroke-linejoin:miter;stroke-opacity:1"/>
<path class="bond-23 atom-14 atom-24" d="M 137.2,91.0 L 129.3,92.1" style="fill:none;fill-rule:evenodd;stroke:#000000;stroke-width:2.0px;stroke-linecap:butt;stroke-linejoin:miter;stroke-opacity:1"/>
<path class="bond-23 atom-14 atom-24" d="M 129.3,92.1 L 121.3,93.1" style="fill:none;fill-rule:evenodd;stroke:#0000FF;stroke-width:2.0px;stroke-linecap:butt;stroke-linejoin:miter;stroke-opacity:1"/>
<path class="bond-24 atom-24 atom-25" d="M 116.1,90.7 L 111.0,85.3" style="fill:none;fill-rule:evenodd;stroke:#0000FF;stroke-width:2.0px;stroke-linecap:butt;stroke-linejoin:miter;stroke-opacity:1"/>
<path class="bond-24 atom-24 atom-25" d="M 111.0,85.3 L 105.8,79.9" style="fill:none;fill-rule:evenodd;stroke:#000000;stroke-width:2.0px;stroke-linecap:butt;stroke-linejoin:miter;stroke-opacity:1"/>
<path class="bond-25 atom-25 atom-26" d="M 105.8,79.9 L 111.2,62.0" style="fill:none;fill-rule:evenodd;stroke:#000000;stroke-width:2.0px;stroke-linecap:butt;stroke-linejoin:miter;stroke-opacity:1"/>
<path class="bond-25 atom-25 atom-26" d="M 103.6,77.5 L 108.0,62.7" style="fill:none;fill-rule:evenodd;stroke:#000000;stroke-width:2.0px;stroke-linecap:butt;stroke-linejoin:miter;stroke-opacity:1"/>
<path class="bond-26 atom-26 atom-27" d="M 111.2,62.0 L 98.3,48.4" style="fill:none;fill-rule:evenodd;stroke:#000000;stroke-width:2.0px;stroke-linecap:butt;stroke-linejoin:miter;stroke-opacity:1"/>
<path class="bond-27 atom-27 atom-28" d="M 98.3,48.4 L 80.2,52.7" style="fill:none;fill-rule:evenodd;stroke:#000000;stroke-width:2.0px;stroke-linecap:butt;stroke-linejoin:miter;stroke-opacity:1"/>
<path class="bond-27 atom-27 atom-28" d="M 97.4,51.5 L 82.4,55.1" style="fill:none;fill-rule:evenodd;stroke:#000000;stroke-width:2.0px;stroke-linecap:butt;stroke-linejoin:miter;stroke-opacity:1"/>
<path class="bond-28 atom-28 atom-29" d="M 80.2,52.7 L 74.8,70.6" style="fill:none;fill-rule:evenodd;stroke:#000000;stroke-width:2.0px;stroke-linecap:butt;stroke-linejoin:miter;stroke-opacity:1"/>
<path class="bond-29 atom-29 atom-30" d="M 74.8,70.6 L 87.7,84.2" style="fill:none;fill-rule:evenodd;stroke:#000000;stroke-width:2.0px;stroke-linecap:butt;stroke-linejoin:miter;stroke-opacity:1"/>
<path class="bond-29 atom-29 atom-30" d="M 78.0,69.9 L 88.6,81.1" style="fill:none;fill-rule:evenodd;stroke:#000000;stroke-width:2.0px;stroke-linecap:butt;stroke-linejoin:miter;stroke-opacity:1"/>
<path class="bond-30 atom-24 atom-31" d="M 118.1,96.7 L 116.7,104.3" style="fill:none;fill-rule:evenodd;stroke:#0000FF;stroke-width:2.0px;stroke-linecap:butt;stroke-linejoin:miter;stroke-opacity:1"/>
<path class="bond-30 atom-24 atom-31" d="M 116.7,104.3 L 115.2,111.8" style="fill:none;fill-rule:evenodd;stroke:#000000;stroke-width:2.0px;stroke-linecap:butt;stroke-linejoin:miter;stroke-opacity:1"/>
<path class="bond-31 atom-31 atom-32" d="M 115.2,111.8 L 99.3,121.6" style="fill:none;fill-rule:evenodd;stroke:#000000;stroke-width:2.0px;stroke-linecap:butt;stroke-linejoin:miter;stroke-opacity:1"/>
<path class="bond-31 atom-31 atom-32" d="M 115.3,115.1 L 102.1,123.1" style="fill:none;fill-rule:evenodd;stroke:#000000;stroke-width:2.0px;stroke-linecap:butt;stroke-linejoin:miter;stroke-opacity:1"/>
<path class="bond-32 atom-32 atom-33" d="M 99.3,121.6 L 99.7,140.2" style="fill:none;fill-rule:evenodd;stroke:#000000;stroke-width:2.0px;stroke-linecap:butt;stroke-linejoin:miter;stroke-opacity:1"/>
<path class="bond-33 atom-33 atom-34" d="M 99.7,140.2 L 93.3,144.2" style="fill:none;fill-rule:evenodd;stroke:#000000;stroke-width:2.0px;stroke-linecap:butt;stroke-linejoin:miter;stroke-opacity:1"/>
<path class="bond-33 atom-33 atom-34" d="M 93.3,144.2 L 86.8,148.1" style="fill:none;fill-rule:evenodd;stroke:#FF0000;stroke-width:2.0px;stroke-linecap:butt;stroke-linejoin:miter;stroke-opacity:1"/>
<path class="bond-34 atom-33 atom-35" d="M 99.7,140.2 L 116.1,149.2" style="fill:none;fill-rule:evenodd;stroke:#000000;stroke-width:2.0px;stroke-linecap:butt;stroke-linejoin:miter;stroke-opacity:1"/>
<path class="bond-34 atom-33 atom-35" d="M 102.5,138.5 L 116.1,145.9" style="fill:none;fill-rule:evenodd;stroke:#000000;stroke-width:2.0px;stroke-linecap:butt;stroke-linejoin:miter;stroke-opacity:1"/>
<path class="bond-35 atom-35 atom-36" d="M 116.1,149.2 L 132.1,139.4" style="fill:none;fill-rule:evenodd;stroke:#000000;stroke-width:2.0px;stroke-linecap:butt;stroke-linejoin:miter;stroke-opacity:1"/>
<path class="bond-36 atom-36 atom-37" d="M 132.1,139.4 L 131.6,120.8" style="fill:none;fill-rule:evenodd;stroke:#000000;stroke-width:2.0px;stroke-linecap:butt;stroke-linejoin:miter;stroke-opacity:1"/>
<path class="bond-36 atom-36 atom-37" d="M 129.3,137.9 L 128.9,122.5" style="fill:none;fill-rule:evenodd;stroke:#000000;stroke-width:2.0px;stroke-linecap:butt;stroke-linejoin:miter;stroke-opacity:1"/>
<path class="bond-37 atom-10 atom-2" d="M 178.4,98.2 L 190.6,102.8" style="fill:none;fill-rule:evenodd;stroke:#0000FF;stroke-width:2.0px;stroke-linecap:butt;stroke-linejoin:miter;stroke-opacity:1"/>
<path class="bond-38 atom-37 atom-13" d="M 131.6,120.8 L 145.2,107.9" style="fill:none;fill-rule:evenodd;stroke:#000000;stroke-width:2.0px;stroke-linecap:butt;stroke-linejoin:miter;stroke-opacity:1"/>
<path class="bond-39 atom-22 atom-16" d="M 145.4,42.3 L 136.4,58.7" style="fill:none;fill-rule:evenodd;stroke:#000000;stroke-width:2.0px;stroke-linecap:butt;stroke-linejoin:miter;stroke-opacity:1"/>
<path class="bond-40 atom-30 atom-25" d="M 87.7,84.2 L 105.8,79.9" style="fill:none;fill-rule:evenodd;stroke:#000000;stroke-width:2.0px;stroke-linecap:butt;stroke-linejoin:miter;stroke-opacity:1"/>
<path class="bond-41 atom-37 atom-31" d="M 131.6,120.8 L 115.2,111.8" style="fill:none;fill-rule:evenodd;stroke:#000000;stroke-width:2.0px;stroke-linecap:butt;stroke-linejoin:miter;stroke-opacity:1"/>
<path d="M 217.4,63.4 L 217.3,63.0 L 216.6,62.4" style="fill:none;stroke:#000000;stroke-width:2.0px;stroke-linecap:butt;stroke-linejoin:miter;stroke-opacity:1;"/>
<path d="M 203.9,51.5 L 203.2,50.9 L 202.8,50.9" style="fill:none;stroke:#000000;stroke-width:2.0px;stroke-linecap:butt;stroke-linejoin:miter;stroke-opacity:1;"/>
<path d="M 170.3,62.3 L 170.0,62.5 L 169.9,63.4" style="fill:none;stroke:#000000;stroke-width:2.0px;stroke-linecap:butt;stroke-linejoin:miter;stroke-opacity:1;"/>
<path d="M 166.8,80.0 L 166.6,80.9 L 166.8,81.2" style="fill:none;stroke:#000000;stroke-width:2.0px;stroke-linecap:butt;stroke-linejoin:miter;stroke-opacity:1;"/>
<path d="M 163.8,111.1 L 163.6,111.4 L 162.7,111.2" style="fill:none;stroke:#000000;stroke-width:2.0px;stroke-linecap:butt;stroke-linejoin:miter;stroke-opacity:1;"/>
<path d="M 145.7,75.5 L 146.2,74.6 L 145.7,73.8" style="fill:none;stroke:#000000;stroke-width:2.0px;stroke-linecap:butt;stroke-linejoin:miter;stroke-opacity:1;"/>
<path d="M 118.7,59.1 L 117.7,59.1 L 117.3,58.3" style="fill:none;stroke:#000000;stroke-width:2.0px;stroke-linecap:butt;stroke-linejoin:miter;stroke-opacity:1;"/>
<path d="M 108.5,44.0 L 108.0,43.2 L 108.5,42.4" style="fill:none;stroke:#000000;stroke-width:2.0px;stroke-linecap:butt;stroke-linejoin:miter;stroke-opacity:1;"/>
<path d="M 116.5,27.6 L 117.0,26.8 L 117.9,26.8" style="fill:none;stroke:#000000;stroke-width:2.0px;stroke-linecap:butt;stroke-linejoin:miter;stroke-opacity:1;"/>
<path d="M 110.9,62.9 L 111.2,62.0 L 110.5,61.3" style="fill:none;stroke:#000000;stroke-width:2.0px;stroke-linecap:butt;stroke-linejoin:miter;stroke-opacity:1;"/>
<path d="M 99.0,49.1 L 98.3,48.4 L 97.4,48.6" style="fill:none;stroke:#000000;stroke-width:2.0px;stroke-linecap:butt;stroke-linejoin:miter;stroke-opacity:1;"/>
<path d="M 81.1,52.5 L 80.2,52.7 L 79.9,53.6" style="fill:none;stroke:#000000;stroke-width:2.0px;stroke-linecap:butt;stroke-linejoin:miter;stroke-opacity:1;"/>
<path d="M 75.1,69.7 L 74.8,70.6 L 75.5,71.3" style="fill:none;stroke:#000000;stroke-width:2.0px;stroke-linecap:butt;stroke-linejoin:miter;stroke-opacity:1;"/>
<path d="M 87.0,83.5 L 87.7,84.2 L 88.6,84.0" style="fill:none;stroke:#000000;stroke-width:2.0px;stroke-linecap:butt;stroke-linejoin:miter;stroke-opacity:1;"/>
<path d="M 100.1,121.1 L 99.3,121.6 L 99.3,122.5" style="fill:none;stroke:#000000;stroke-width:2.0px;stroke-linecap:butt;stroke-linejoin:miter;stroke-opacity:1;"/>
<path d="M 115.3,148.7 L 116.1,149.2 L 116.9,148.7" style="fill:none;stroke:#000000;stroke-width:2.0px;stroke-linecap:butt;stroke-linejoin:miter;stroke-opacity:1;"/>
<path d="M 131.3,139.9 L 132.1,139.4 L 132.1,138.5" style="fill:none;stroke:#000000;stroke-width:2.0px;stroke-linecap:butt;stroke-linejoin:miter;stroke-opacity:1;"/>
<path class="atom-1" d="M 190.6 122.5 Q 190.6 121.2, 191.3 120.5 Q 191.9 119.8, 193.1 119.8 Q 194.2 119.8, 194.9 120.5 Q 195.5 121.2, 195.5 122.5 Q 195.5 123.7, 194.8 124.5 Q 194.2 125.2, 193.1 125.2 Q 191.9 125.2, 191.3 124.5 Q 190.6 123.8, 190.6 122.5 M 193.1 124.6 Q 193.9 124.6, 194.3 124.1 Q 194.7 123.5, 194.7 122.5 Q 194.7 121.4, 194.3 120.9 Q 193.9 120.4, 193.1 120.4 Q 192.2 120.4, 191.8 120.9 Q 191.4 121.4, 191.4 122.5 Q 191.4 123.5, 191.8 124.1 Q 192.2 124.6, 193.1 124.6 " fill="#FF0000"/>
<path class="atom-2" d="M 192.1 101.1 L 193.8 103.9 Q 194.0 104.2, 194.3 104.7 Q 194.5 105.2, 194.6 105.2 L 194.6 101.1 L 195.3 101.1 L 195.3 106.4 L 194.5 106.4 L 192.7 103.3 Q 192.5 103.0, 192.2 102.6 Q 192.0 102.2, 191.9 102.0 L 191.9 106.4 L 191.2 106.4 L 191.2 101.1 L 192.1 101.1 " fill="#0000FF"/>
<path class="atom-3" d="M 209.7 94.9 L 211.4 97.7 Q 211.6 98.0, 211.9 98.5 Q 212.2 99.0, 212.2 99.0 L 212.2 94.9 L 212.9 94.9 L 212.9 100.2 L 212.2 100.2 L 210.3 97.1 Q 210.1 96.8, 209.9 96.4 Q 209.6 96.0, 209.6 95.8 L 209.6 100.2 L 208.9 100.2 L 208.9 94.9 L 209.7 94.9 " fill="#0000FF"/>
<path class="atom-3" d="M 213.9 95.9 L 214.8 95.9 L 214.8 94.9 L 215.2 94.9 L 215.2 95.9 L 216.2 95.9 L 216.2 96.2 L 215.2 96.2 L 215.2 97.2 L 214.8 97.2 L 214.8 96.2 L 213.9 96.2 L 213.9 95.9 " fill="#0000FF"/>
<path class="atom-4" d="M 219.2 78.8 L 221.0 81.6 Q 221.1 81.9, 221.4 82.4 Q 221.7 82.9, 221.7 82.9 L 221.7 78.8 L 222.4 78.8 L 222.4 84.1 L 221.7 84.1 L 219.8 81.1 Q 219.6 80.7, 219.4 80.3 Q 219.1 79.9, 219.1 79.7 L 219.1 84.1 L 218.4 84.1 L 218.4 78.8 L 219.2 78.8 " fill="#0000FF"/>
<path class="atom-4" d="M 223.4 79.7 L 225.2 79.7 L 225.2 80.1 L 223.4 80.1 L 223.4 79.7 " fill="#0000FF"/>
<path class="atom-7" d="M 183.3 48.0 L 185.0 50.8 Q 185.2 51.1, 185.5 51.6 Q 185.8 52.1, 185.8 52.1 L 185.8 48.0 L 186.5 48.0 L 186.5 53.3 L 185.8 53.3 L 183.9 50.3 Q 183.7 49.9, 183.4 49.5 Q 183.2 49.1, 183.2 48.9 L 183.2 53.3 L 182.5 53.3 L 182.5 48.0 L 183.3 48.0 " fill="#0000FF"/>
<path class="atom-7" d="M 182.4 42.2 L 183.1 42.2 L 183.1 44.5 L 185.8 44.5 L 185.8 42.2 L 186.5 42.2 L 186.5 47.5 L 185.8 47.5 L 185.8 45.0 L 183.1 45.0 L 183.1 47.5 L 182.4 47.5 L 182.4 42.2 " fill="#0000FF"/>
<path class="atom-10" d="M 174.6 94.5 L 176.3 97.3 Q 176.5 97.6, 176.8 98.1 Q 177.1 98.6, 177.1 98.6 L 177.1 94.5 L 177.8 94.5 L 177.8 99.8 L 177.0 99.8 L 175.2 96.8 Q 175.0 96.4, 174.7 96.0 Q 174.5 95.6, 174.4 95.5 L 174.4 99.8 L 173.8 99.8 L 173.8 94.5 L 174.6 94.5 " fill="#0000FF"/>
<path class="atom-12" d="M 167.4 129.0 Q 167.4 127.7, 168.0 127.0 Q 168.6 126.3, 169.8 126.3 Q 171.0 126.3, 171.6 127.0 Q 172.2 127.7, 172.2 129.0 Q 172.2 130.3, 171.6 131.0 Q 171.0 131.8, 169.8 131.8 Q 168.6 131.8, 168.0 131.0 Q 167.4 130.3, 167.4 129.0 M 169.8 131.2 Q 170.6 131.2, 171.0 130.6 Q 171.5 130.1, 171.5 129.0 Q 171.5 128.0, 171.0 127.4 Q 170.6 126.9, 169.8 126.9 Q 169.0 126.9, 168.6 127.4 Q 168.1 128.0, 168.1 129.0 Q 168.1 130.1, 168.6 130.6 Q 169.0 131.2, 169.8 131.2 " fill="#FF0000"/>
<path class="atom-21" d="M 143.0 7.3 L 146.2 7.3 L 146.2 7.9 L 143.7 7.9 L 143.7 9.5 L 145.9 9.5 L 145.9 10.1 L 143.7 10.1 L 143.7 12.6 L 143.0 12.6 L 143.0 7.3 " fill="#33CCCC"/>
<path class="atom-24" d="M 117.5 90.8 L 119.2 93.6 Q 119.4 93.9, 119.7 94.4 Q 120.0 94.9, 120.0 94.9 L 120.0 90.8 L 120.7 90.8 L 120.7 96.1 L 120.0 96.1 L 118.1 93.0 Q 117.9 92.7, 117.7 92.3 Q 117.4 91.8, 117.4 91.7 L 117.4 96.1 L 116.7 96.1 L 116.7 90.8 L 117.5 90.8 " fill="#0000FF"/>
<path class="atom-34" d="M 76.1 147.4 L 76.9 147.4 L 76.9 149.6 L 79.6 149.6 L 79.6 147.4 L 80.3 147.4 L 80.3 152.6 L 79.6 152.6 L 79.6 150.2 L 76.9 150.2 L 76.9 152.6 L 76.1 152.6 L 76.1 147.4 " fill="#FF0000"/>
<path class="atom-34" d="M 81.4 150.0 Q 81.4 148.7, 82.0 148.0 Q 82.6 147.3, 83.8 147.3 Q 85.0 147.3, 85.6 148.0 Q 86.2 148.7, 86.2 150.0 Q 86.2 151.3, 85.6 152.0 Q 84.9 152.7, 83.8 152.7 Q 82.6 152.7, 82.0 152.0 Q 81.4 151.3, 81.4 150.0 M 83.8 152.1 Q 84.6 152.1, 85.0 151.6 Q 85.5 151.0, 85.5 150.0 Q 85.5 148.9, 85.0 148.4 Q 84.6 147.9, 83.8 147.9 Q 83.0 147.9, 82.5 148.4 Q 82.1 148.9, 82.1 150.0 Q 82.1 151.1, 82.5 151.6 Q 83.0 152.1, 83.8 152.1 " fill="#FF0000"/>
<path class="atom-0" d="M 211.8,130.1 L 211.8,130.1 L 211.8,130.2 L 211.7,130.2 L 211.7,130.2 L 211.7,130.2 L 211.7,130.3 L 211.7,130.3 L 211.7,130.3 L 211.6,130.4 L 211.6,130.4 L 211.6,130.4 L 211.6,130.4 L 211.5,130.4 L 211.5,130.4 L 211.5,130.5 L 211.5,130.5 L 211.4,130.5 L 211.4,130.5 L 211.4,130.5 L 211.3,130.5 L 211.3,130.5 L 211.3,130.4 L 211.2,130.4 L 211.2,130.4 L 211.2,130.4 L 211.2,130.4 L 211.1,130.4 L 211.1,130.3 L 211.1,130.3 L 211.1,130.3 L 211.0,130.3 L 211.0,130.2 L 211.0,130.2 L 211.0,130.2 L 211.0,130.1 L 211.0,130.1 L 211.0,130.1 L 211.0,130.0 L 211.0,130.0 L 211.0,130.0 L 211.0,130.0 L 211.0,129.9 L 211.1,129.9 L 211.1,129.9 L 211.1,129.8 L 211.1,129.8 L 211.2,129.8 L 211.2,129.8 L 211.2,129.8 L 211.2,129.8 L 211.3,129.7 L 211.3,129.7 L 211.3,129.7 L 211.4,129.7 L 211.4,129.7 L 211.4,129.7 L 211.5,129.7 L 211.5,129.7 L 211.5,129.7 L 211.5,129.8 L 211.6,129.8 L 211.6,129.8 L 211.6,129.8 L 211.6,129.8 L 211.7,129.9 L 211.7,129.9 L 211.7,129.9 L 211.7,129.9 L 211.7,130.0 L 211.7,130.0 L 211.8,130.0 L 211.8,130.1 L 211.8,130.1 L 211.4,130.1 Z" style="fill:#000000;fill-rule:evenodd;fill-opacity:1;stroke:#000000;stroke-width:0.0px;stroke-linecap:butt;stroke-linejoin:miter;stroke-opacity:1;"/>
<path class="atom-0" d="M 211.8,133.8 L 211.8,133.9 L 211.8,133.9 L 211.7,133.9 L 211.7,134.0 L 211.7,134.0 L 211.7,134.0 L 211.7,134.0 L 211.7,134.1 L 211.6,134.1 L 211.6,134.1 L 211.6,134.1 L 211.6,134.2 L 211.5,134.2 L 211.5,134.2 L 211.5,134.2 L 211.5,134.2 L 211.4,134.2 L 211.4,134.2 L 211.4,134.2 L 211.3,134.2 L 211.3,134.2 L 211.3,134.2 L 211.2,134.2 L 211.2,134.2 L 211.2,134.1 L 211.2,134.1 L 211.1,134.1 L 211.1,134.1 L 211.1,134.1 L 211.1,134.0 L 211.0,134.0 L 211.0,134.0 L 211.0,133.9 L 211.0,133.9 L 211.0,133.9 L 211.0,133.8 L 211.0,133.8 L 211.0,133.8 L 211.0,133.8 L 211.0,133.7 L 211.0,133.7 L 211.0,133.7 L 211.1,133.6 L 211.1,133.6 L 211.1,133.6 L 211.1,133.6 L 211.2,133.5 L 211.2,133.5 L 211.2,133.5 L 211.2,133.5 L 211.3,133.5 L 211.3,133.5 L 211.3,133.5 L 211.4,133.5 L 211.4,133.5 L 211.4,133.5 L 211.5,133.5 L 211.5,133.5 L 211.5,133.5 L 211.5,133.5 L 211.6,133.5 L 211.6,133.5 L 211.6,133.5 L 211.6,133.6 L 211.7,133.6 L 211.7,133.6 L 211.7,133.6 L 211.7,133.7 L 211.7,133.7 L 211.7,133.7 L 211.8,133.8 L 211.8,133.8 L 211.8,133.8 L 211.4,133.8 Z" style="fill:#000000;fill-rule:evenodd;fill-opacity:1;stroke:#000000;stroke-width:0.0px;stroke-linecap:butt;stroke-linejoin:miter;stroke-opacity:1;"/>
<path class="atom-0" d="M 211.8,132.0 L 211.8,132.0 L 211.8,132.0 L 211.7,132.1 L 211.7,132.1 L 211.7,132.1 L 211.7,132.1 L 211.7,132.2 L 211.7,132.2 L 211.6,132.2 L 211.6,132.2 L 211.6,132.3 L 211.6,132.3 L 211.5,132.3 L 211.5,132.3 L 211.5,132.3 L 211.5,132.3 L 211.4,132.3 L 211.4,132.3 L 211.4,132.3 L 211.3,132.3 L 211.3,132.3 L 211.3,132.3 L 211.2,132.3 L 211.2,132.3 L 211.2,132.3 L 211.2,132.3 L 211.1,132.2 L 211.1,132.2 L 211.1,132.2 L 211.1,132.2 L 211.0,132.1 L 211.0,132.1 L 211.0,132.1 L 211.0,132.0 L 211.0,132.0 L 211.0,132.0 L 211.0,131.9 L 211.0,131.9 L 211.0,131.9 L 211.0,131.9 L 211.0,131.8 L 211.0,131.8 L 211.1,131.8 L 211.1,131.7 L 211.1,131.7 L 211.1,131.7 L 211.2,131.7 L 211.2,131.6 L 211.2,131.6 L 211.2,131.6 L 211.3,131.6 L 211.3,131.6 L 211.3,131.6 L 211.4,131.6 L 211.4,131.6 L 211.4,131.6 L 211.5,131.6 L 211.5,131.6 L 211.5,131.6 L 211.5,131.6 L 211.6,131.6 L 211.6,131.7 L 211.6,131.7 L 211.6,131.7 L 211.7,131.7 L 211.7,131.8 L 211.7,131.8 L 211.7,131.8 L 211.7,131.8 L 211.7,131.9 L 211.8,131.9 L 211.8,131.9 L 211.8,132.0 L 211.4,132.0 Z" style="fill:#000000;fill-rule:evenodd;fill-opacity:1;stroke:#000000;stroke-width:0.0px;stroke-linecap:butt;stroke-linejoin:miter;stroke-opacity:1;"/>
<path class="atom-3" d="M 217.7,98.3 L 217.7,98.3 L 217.7,98.4 L 217.7,98.4 L 217.7,98.4 L 217.7,98.5 L 217.6,98.5 L 217.6,98.5 L 217.6,98.5 L 217.6,98.6 L 217.6,98.6 L 217.5,98.6 L 217.5,98.6 L 217.5,98.6 L 217.4,98.7 L 217.4,98.7 L 217.4,98.7 L 217.4,98.7 L 217.3,98.7 L 217.3,98.7 L 217.3,98.7 L 217.2,98.7 L 217.2,98.7 L 217.2,98.6 L 217.1,98.6 L 217.1,98.6 L 217.1,98.6 L 217.1,98.6 L 217.0,98.6 L 217.0,98.5 L 217.0,98.5 L 217.0,98.5 L 217.0,98.4 L 217.0,98.4 L 216.9,98.4 L 216.9,98.4 L 216.9,98.3 L 216.9,98.3 L 216.9,98.3 L 216.9,98.2 L 217.0,98.2 L 217.0,98.2 L 217.0,98.1 L 217.0,98.1 L 217.0,98.1 L 217.0,98.1 L 217.1,98.0 L 217.1,98.0 L 217.1,98.0 L 217.1,98.0 L 217.2,98.0 L 217.2,97.9 L 217.2,97.9 L 217.3,97.9 L 217.3,97.9 L 217.3,97.9 L 217.4,97.9 L 217.4,97.9 L 217.4,97.9 L 217.4,98.0 L 217.5,98.0 L 217.5,98.0 L 217.5,98.0 L 217.6,98.0 L 217.6,98.0 L 217.6,98.1 L 217.6,98.1 L 217.6,98.1 L 217.7,98.1 L 217.7,98.2 L 217.7,98.2 L 217.7,98.2 L 217.7,98.3 L 217.7,98.3 L 217.3,98.3 Z" style="fill:#000000;fill-rule:evenodd;fill-opacity:1;stroke:#000000;stroke-width:0.0px;stroke-linecap:butt;stroke-linejoin:miter;stroke-opacity:1;"/>
<path class="atom-3" d="M 217.7,96.8 L 217.7,96.8 L 217.7,96.9 L 217.7,96.9 L 217.7,96.9 L 217.7,97.0 L 217.6,97.0 L 217.6,97.0 L 217.6,97.0 L 217.6,97.1 L 217.6,97.1 L 217.5,97.1 L 217.5,97.1 L 217.5,97.1 L 217.4,97.2 L 217.4,97.2 L 217.4,97.2 L 217.4,97.2 L 217.3,97.2 L 217.3,97.2 L 217.3,97.2 L 217.2,97.2 L 217.2,97.2 L 217.2,97.1 L 217.1,97.1 L 217.1,97.1 L 217.1,97.1 L 217.1,97.1 L 217.0,97.1 L 217.0,97.0 L 217.0,97.0 L 217.0,97.0 L 217.0,96.9 L 217.0,96.9 L 216.9,96.9 L 216.9,96.9 L 216.9,96.8 L 216.9,96.8 L 216.9,96.8 L 216.9,96.7 L 217.0,96.7 L 217.0,96.7 L 217.0,96.6 L 217.0,96.6 L 217.0,96.6 L 217.0,96.6 L 217.1,96.5 L 217.1,96.5 L 217.1,96.5 L 217.1,96.5 L 217.2,96.5 L 217.2,96.5 L 217.2,96.4 L 217.3,96.4 L 217.3,96.4 L 217.3,96.4 L 217.4,96.4 L 217.4,96.4 L 217.4,96.4 L 217.4,96.5 L 217.5,96.5 L 217.5,96.5 L 217.5,96.5 L 217.6,96.5 L 217.6,96.5 L 217.6,96.6 L 217.6,96.6 L 217.6,96.6 L 217.7,96.7 L 217.7,96.7 L 217.7,96.7 L 217.7,96.7 L 217.7,96.8 L 217.7,96.8 L 217.3,96.8 Z" style="fill:#000000;fill-rule:evenodd;fill-opacity:1;stroke:#000000;stroke-width:0.0px;stroke-linecap:butt;stroke-linejoin:miter;stroke-opacity:1;"/>
<path class="bond-0 atom-0 atom-1" d="M 478.0,141.4 L 481.3,134.6" style="fill:none;fill-rule:evenodd;stroke:#000000;stroke-width:2.0px;stroke-linecap:butt;stroke-linejoin:miter;stroke-opacity:1"/>
<path class="bond-0 atom-0 atom-1" d="M 481.3,134.6 L 484.6,127.9" style="fill:none;fill-rule:evenodd;stroke:#0000FF;stroke-width:2.0px;stroke-linecap:butt;stroke-linejoin:miter;stroke-opacity:1"/>
<path class="bond-1 atom-1 atom-2" d="M 488.8,125.1 L 502.0,127.3" style="fill:none;fill-rule:evenodd;stroke:#0000FF;stroke-width:2.0px;stroke-linecap:butt;stroke-linejoin:miter;stroke-opacity:1"/>
<path class="bond-2 atom-2 atom-3" d="M 510.6,125.3 L 519.2,121.6" style="fill:none;fill-rule:evenodd;stroke:#0000FF;stroke-width:2.0px;stroke-linecap:butt;stroke-linejoin:miter;stroke-opacity:1"/>
<path class="bond-3 atom-3 atom-4" d="M 524.1,117.2 L 530.1,108.3" style="fill:none;fill-rule:evenodd;stroke:#0000FF;stroke-width:2.0px;stroke-linecap:butt;stroke-linejoin:miter;stroke-opacity:1"/>
<path class="bond-3 atom-3 atom-4" d="M 521.8,115.6 L 527.8,106.7" style="fill:none;fill-rule:evenodd;stroke:#0000FF;stroke-width:2.0px;stroke-linecap:butt;stroke-linejoin:miter;stroke-opacity:1"/>
<path class="bond-4 atom-4 atom-5" d="M 532.5,101.8 L 532.8,89.6" style="fill:none;fill-rule:evenodd;stroke:#0000FF;stroke-width:2.0px;stroke-linecap:butt;stroke-linejoin:miter;stroke-opacity:1"/>
<path class="bond-5 atom-5 atom-6" d="M 530.9,83.1 L 527.1,76.7" style="fill:none;fill-rule:evenodd;stroke:#0000FF;stroke-width:2.0px;stroke-linecap:butt;stroke-linejoin:miter;stroke-opacity:1"/>
<path class="bond-5 atom-5 atom-6" d="M 527.1,76.7 L 523.2,70.4" style="fill:none;fill-rule:evenodd;stroke:#000000;stroke-width:2.0px;stroke-linecap:butt;stroke-linejoin:miter;stroke-opacity:1"/>
<path class="bond-6 atom-6 atom-7" d="M 523.2,70.4 L 506.4,62.1" style="fill:none;fill-rule:evenodd;stroke:#000000;stroke-width:2.0px;stroke-linecap:butt;stroke-linejoin:miter;stroke-opacity:1"/>
<path class="bond-7 atom-7 atom-8" d="M 506.4,62.1 L 498.5,63.1" style="fill:none;fill-rule:evenodd;stroke:#000000;stroke-width:2.0px;stroke-linecap:butt;stroke-linejoin:miter;stroke-opacity:1"/>
<path class="bond-7 atom-7 atom-8" d="M 498.5,63.1 L 490.5,64.0" style="fill:none;fill-rule:evenodd;stroke:#0000FF;stroke-width:2.0px;stroke-linecap:butt;stroke-linejoin:miter;stroke-opacity:1"/>
<path class="bond-8 atom-8 atom-9" d="M 483.9,67.6 L 478.6,71.9" style="fill:none;fill-rule:evenodd;stroke:#0000FF;stroke-width:2.0px;stroke-linecap:butt;stroke-linejoin:miter;stroke-opacity:1"/>
<path class="bond-8 atom-8 atom-9" d="M 478.6,71.9 L 473.4,76.2" style="fill:none;fill-rule:evenodd;stroke:#000000;stroke-width:2.0px;stroke-linecap:butt;stroke-linejoin:miter;stroke-opacity:1"/>
<path class="bond-9 atom-9 atom-10" d="M 473.4,76.2 L 467.7,93.9" style="fill:none;fill-rule:evenodd;stroke:#000000;stroke-width:2.0px;stroke-linecap:butt;stroke-linejoin:miter;stroke-opacity:1"/>
<path class="bond-10 atom-10 atom-11" d="M 467.7,93.9 L 469.6,101.3" style="fill:none;fill-rule:evenodd;stroke:#000000;stroke-width:2.0px;stroke-linecap:butt;stroke-linejoin:miter;stroke-opacity:1"/>
<path class="bond-10 atom-10 atom-11" d="M 469.6,101.3 L 471.6,108.7" style="fill:none;fill-rule:evenodd;stroke:#0000FF;stroke-width:2.0px;stroke-linecap:butt;stroke-linejoin:miter;stroke-opacity:1"/>
<path class="bond-11 atom-11 atom-12" d="M 469.8,113.6 L 463.1,117.6" style="fill:none;fill-rule:evenodd;stroke:#0000FF;stroke-width:2.0px;stroke-linecap:butt;stroke-linejoin:miter;stroke-opacity:1"/>
<path class="bond-11 atom-11 atom-12" d="M 463.1,117.6 L 456.4,121.7" style="fill:none;fill-rule:evenodd;stroke:#000000;stroke-width:2.0px;stroke-linecap:butt;stroke-linejoin:miter;stroke-opacity:1"/>
<path class="bond-12 atom-12 atom-13" d="M 455.0,120.9 L 455.2,129.0" style="fill:none;fill-rule:evenodd;stroke:#000000;stroke-width:2.0px;stroke-linecap:butt;stroke-linejoin:miter;stroke-opacity:1"/>
<path class="bond-12 atom-12 atom-13" d="M 455.2,129.0 L 455.4,137.1" style="fill:none;fill-rule:evenodd;stroke:#FF0000;stroke-width:2.0px;stroke-linecap:butt;stroke-linejoin:miter;stroke-opacity:1"/>
<path class="bond-12 atom-12 atom-13" d="M 457.8,120.8 L 458.0,128.9" style="fill:none;fill-rule:evenodd;stroke:#000000;stroke-width:2.0px;stroke-linecap:butt;stroke-linejoin:miter;stroke-opacity:1"/>
<path class="bond-12 atom-12 atom-13" d="M 458.0,128.9 L 458.2,137.0" style="fill:none;fill-rule:evenodd;stroke:#FF0000;stroke-width:2.0px;stroke-linecap:butt;stroke-linejoin:miter;stroke-opacity:1"/>
<path class="bond-13 atom-12 atom-14" d="M 456.4,121.7 L 440.1,112.7" style="fill:none;fill-rule:evenodd;stroke:#000000;stroke-width:2.0px;stroke-linecap:butt;stroke-linejoin:miter;stroke-opacity:1"/>
<path class="bond-14 atom-14 atom-15" d="M 440.1,112.7 L 437.7,94.1" style="fill:none;fill-rule:evenodd;stroke:#000000;stroke-width:2.0px;stroke-linecap:butt;stroke-linejoin:miter;stroke-opacity:1"/>
<path class="bond-14 atom-14 atom-15" d="M 437.0,111.0 L 435.2,96.5" style="fill:none;fill-rule:evenodd;stroke:#000000;stroke-width:2.0px;stroke-linecap:butt;stroke-linejoin:miter;stroke-opacity:1"/>
<path class="bond-15 atom-15 atom-16" d="M 437.7,94.1 L 451.4,81.3" style="fill:none;fill-rule:evenodd;stroke:#000000;stroke-width:2.0px;stroke-linecap:butt;stroke-linejoin:miter;stroke-opacity:1"/>
<path class="bond-16 atom-16 atom-17" d="M 451.4,81.3 L 447.1,63.1" style="fill:none;fill-rule:evenodd;stroke:#000000;stroke-width:2.0px;stroke-linecap:butt;stroke-linejoin:miter;stroke-opacity:1"/>
<path class="bond-17 atom-17 atom-18" d="M 447.1,63.1 L 429.2,57.7" style="fill:none;fill-rule:evenodd;stroke:#000000;stroke-width:2.0px;stroke-linecap:butt;stroke-linejoin:miter;stroke-opacity:1"/>
<path class="bond-17 atom-17 atom-18" d="M 446.4,60.0 L 431.6,55.5" style="fill:none;fill-rule:evenodd;stroke:#000000;stroke-width:2.0px;stroke-linecap:butt;stroke-linejoin:miter;stroke-opacity:1"/>
<path class="bond-18 atom-18 atom-19" d="M 429.2,57.7 L 425.0,39.5" style="fill:none;fill-rule:evenodd;stroke:#000000;stroke-width:2.0px;stroke-linecap:butt;stroke-linejoin:miter;stroke-opacity:1"/>
<path class="bond-19 atom-19 atom-20" d="M 425.0,39.5 L 438.6,26.8" style="fill:none;fill-rule:evenodd;stroke:#000000;stroke-width:2.0px;stroke-linecap:butt;stroke-linejoin:miter;stroke-opacity:1"/>
<path class="bond-19 atom-19 atom-20" d="M 428.1,40.5 L 439.3,29.9" style="fill:none;fill-rule:evenodd;stroke:#000000;stroke-width:2.0px;stroke-linecap:butt;stroke-linejoin:miter;stroke-opacity:1"/>
<path class="bond-20 atom-20 atom-21" d="M 438.6,26.8 L 456.5,32.2" style="fill:none;fill-rule:evenodd;stroke:#000000;stroke-width:2.0px;stroke-linecap:butt;stroke-linejoin:miter;stroke-opacity:1"/>
<path class="bond-21 atom-21 atom-22" d="M 456.5,32.2 L 462.2,26.8" style="fill:none;fill-rule:evenodd;stroke:#000000;stroke-width:2.0px;stroke-linecap:butt;stroke-linejoin:miter;stroke-opacity:1"/>
<path class="bond-21 atom-21 atom-22" d="M 462.2,26.8 L 467.9,21.4" style="fill:none;fill-rule:evenodd;stroke:#33CCCC;stroke-width:2.0px;stroke-linecap:butt;stroke-linejoin:miter;stroke-opacity:1"/>
<path class="bond-22 atom-21 atom-23" d="M 456.5,32.2 L 460.7,50.4" style="fill:none;fill-rule:evenodd;stroke:#000000;stroke-width:2.0px;stroke-linecap:butt;stroke-linejoin:miter;stroke-opacity:1"/>
<path class="bond-22 atom-21 atom-23" d="M 454.1,34.4 L 457.6,49.4" style="fill:none;fill-rule:evenodd;stroke:#000000;stroke-width:2.0px;stroke-linecap:butt;stroke-linejoin:miter;stroke-opacity:1"/>
<path class="bond-23 atom-23 atom-24" d="M 460.7,50.4 L 478.6,55.8" style="fill:none;fill-rule:evenodd;stroke:#000000;stroke-width:2.0px;stroke-linecap:butt;stroke-linejoin:miter;stroke-opacity:1"/>
<path class="bond-24 atom-15 atom-25" d="M 437.7,94.1 L 429.9,92.6" style="fill:none;fill-rule:evenodd;stroke:#000000;stroke-width:2.0px;stroke-linecap:butt;stroke-linejoin:miter;stroke-opacity:1"/>
<path class="bond-24 atom-15 atom-25" d="M 429.9,92.6 L 422.0,91.1" style="fill:none;fill-rule:evenodd;stroke:#0000FF;stroke-width:2.0px;stroke-linecap:butt;stroke-linejoin:miter;stroke-opacity:1"/>
<path class="bond-25 atom-25 atom-26" d="M 417.9,87.4 L 414.6,80.5" style="fill:none;fill-rule:evenodd;stroke:#0000FF;stroke-width:2.0px;stroke-linecap:butt;stroke-linejoin:miter;stroke-opacity:1"/>
<path class="bond-25 atom-25 atom-26" d="M 414.6,80.5 L 411.4,73.7" style="fill:none;fill-rule:evenodd;stroke:#000000;stroke-width:2.0px;stroke-linecap:butt;stroke-linejoin:miter;stroke-opacity:1"/>
<path class="bond-26 atom-26 atom-27" d="M 411.4,73.7 L 392.8,72.1" style="fill:none;fill-rule:evenodd;stroke:#000000;stroke-width:2.0px;stroke-linecap:butt;stroke-linejoin:miter;stroke-opacity:1"/>
<path class="bond-26 atom-26 atom-27" d="M 410.1,70.8 L 394.7,69.5" style="fill:none;fill-rule:evenodd;stroke:#000000;stroke-width:2.0px;stroke-linecap:butt;stroke-linejoin:miter;stroke-opacity:1"/>
<path class="bond-27 atom-27 atom-28" d="M 392.8,72.1 L 384.9,55.2" style="fill:none;fill-rule:evenodd;stroke:#000000;stroke-width:2.0px;stroke-linecap:butt;stroke-linejoin:miter;stroke-opacity:1"/>
<path class="bond-28 atom-28 atom-29" d="M 384.9,55.2 L 395.5,39.9" style="fill:none;fill-rule:evenodd;stroke:#000000;stroke-width:2.0px;stroke-linecap:butt;stroke-linejoin:miter;stroke-opacity:1"/>
<path class="bond-28 atom-28 atom-29" d="M 388.1,55.5 L 396.9,42.8" style="fill:none;fill-rule:evenodd;stroke:#000000;stroke-width:2.0px;stroke-linecap:butt;stroke-linejoin:miter;stroke-opacity:1"/>
<path class="bond-29 atom-29 atom-30" d="M 395.5,39.9 L 414.2,41.5" style="fill:none;fill-rule:evenodd;stroke:#000000;stroke-width:2.0px;stroke-linecap:butt;stroke-linejoin:miter;stroke-opacity:1"/>
<path class="bond-30 atom-30 atom-31" d="M 414.2,41.5 L 422.1,58.4" style="fill:none;fill-rule:evenodd;stroke:#000000;stroke-width:2.0px;stroke-linecap:butt;stroke-linejoin:miter;stroke-opacity:1"/>
<path class="bond-30 atom-30 atom-31" d="M 412.3,44.1 L 418.9,58.1" style="fill:none;fill-rule:evenodd;stroke:#000000;stroke-width:2.0px;stroke-linecap:butt;stroke-linejoin:miter;stroke-opacity:1"/>
<path class="bond-31 atom-25 atom-32" d="M 417.6,93.9 L 414.0,100.4" style="fill:none;fill-rule:evenodd;stroke:#0000FF;stroke-width:2.0px;stroke-linecap:butt;stroke-linejoin:miter;stroke-opacity:1"/>
<path class="bond-31 atom-25 atom-32" d="M 414.0,100.4 L 410.4,107.0" style="fill:none;fill-rule:evenodd;stroke:#000000;stroke-width:2.0px;stroke-linecap:butt;stroke-linejoin:miter;stroke-opacity:1"/>
<path class="bond-32 atom-32 atom-33" d="M 410.4,107.0 L 392.2,111.3" style="fill:none;fill-rule:evenodd;stroke:#000000;stroke-width:2.0px;stroke-linecap:butt;stroke-linejoin:miter;stroke-opacity:1"/>
<path class="bond-32 atom-32 atom-33" d="M 409.4,110.1 L 394.4,113.6" style="fill:none;fill-rule:evenodd;stroke:#000000;stroke-width:2.0px;stroke-linecap:butt;stroke-linejoin:miter;stroke-opacity:1"/>
<path class="bond-33 atom-33 atom-34" d="M 392.2,111.3 L 386.8,129.1" style="fill:none;fill-rule:evenodd;stroke:#000000;stroke-width:2.0px;stroke-linecap:butt;stroke-linejoin:miter;stroke-opacity:1"/>
<path class="bond-34 atom-34 atom-35" d="M 386.8,129.1 L 379.2,130.9" style="fill:none;fill-rule:evenodd;stroke:#000000;stroke-width:2.0px;stroke-linecap:butt;stroke-linejoin:miter;stroke-opacity:1"/>
<path class="bond-34 atom-34 atom-35" d="M 379.2,130.9 L 371.6,132.7" style="fill:none;fill-rule:evenodd;stroke:#FF0000;stroke-width:2.0px;stroke-linecap:butt;stroke-linejoin:miter;stroke-opacity:1"/>
<path class="bond-35 atom-34 atom-36" d="M 386.8,129.1 L 399.6,142.8" style="fill:none;fill-rule:evenodd;stroke:#000000;stroke-width:2.0px;stroke-linecap:butt;stroke-linejoin:miter;stroke-opacity:1"/>
<path class="bond-35 atom-34 atom-36" d="M 389.9,128.4 L 400.5,139.7" style="fill:none;fill-rule:evenodd;stroke:#000000;stroke-width:2.0px;stroke-linecap:butt;stroke-linejoin:miter;stroke-opacity:1"/>
<path class="bond-36 atom-36 atom-37" d="M 399.6,142.8 L 417.8,138.5" style="fill:none;fill-rule:evenodd;stroke:#000000;stroke-width:2.0px;stroke-linecap:butt;stroke-linejoin:miter;stroke-opacity:1"/>
<path class="bond-37 atom-37 atom-38" d="M 417.8,138.5 L 423.2,120.6" style="fill:none;fill-rule:evenodd;stroke:#000000;stroke-width:2.0px;stroke-linecap:butt;stroke-linejoin:miter;stroke-opacity:1"/>
<path class="bond-37 atom-37 atom-38" d="M 415.5,136.1 L 420.0,121.4" style="fill:none;fill-rule:evenodd;stroke:#000000;stroke-width:2.0px;stroke-linecap:butt;stroke-linejoin:miter;stroke-opacity:1"/>
<path class="bond-38 atom-11 atom-1" d="M 475.1,114.4 L 483.6,122.2" style="fill:none;fill-rule:evenodd;stroke:#0000FF;stroke-width:2.0px;stroke-linecap:butt;stroke-linejoin:miter;stroke-opacity:1"/>
<path class="bond-39 atom-38 atom-14" d="M 423.2,120.6 L 440.1,112.7" style="fill:none;fill-rule:evenodd;stroke:#000000;stroke-width:2.0px;stroke-linecap:butt;stroke-linejoin:miter;stroke-opacity:1"/>
<path class="bond-40 atom-23 atom-17" d="M 460.7,50.4 L 447.1,63.1" style="fill:none;fill-rule:evenodd;stroke:#000000;stroke-width:2.0px;stroke-linecap:butt;stroke-linejoin:miter;stroke-opacity:1"/>
<path class="bond-41 atom-31 atom-26" d="M 422.1,58.4 L 411.4,73.7" style="fill:none;fill-rule:evenodd;stroke:#000000;stroke-width:2.0px;stroke-linecap:butt;stroke-linejoin:miter;stroke-opacity:1"/>
<path class="bond-42 atom-38 atom-32" d="M 423.2,120.6 L 410.4,107.0" style="fill:none;fill-rule:evenodd;stroke:#000000;stroke-width:2.0px;stroke-linecap:butt;stroke-linejoin:miter;stroke-opacity:1"/>
<path d="M 523.4,70.7 L 523.2,70.4 L 522.4,70.0" style="fill:none;stroke:#000000;stroke-width:2.0px;stroke-linecap:butt;stroke-linejoin:miter;stroke-opacity:1;"/>
<path d="M 507.3,62.6 L 506.4,62.1 L 506.0,62.2" style="fill:none;stroke:#000000;stroke-width:2.0px;stroke-linecap:butt;stroke-linejoin:miter;stroke-opacity:1;"/>
<path d="M 473.7,75.9 L 473.4,76.2 L 473.1,77.0" style="fill:none;stroke:#000000;stroke-width:2.0px;stroke-linecap:butt;stroke-linejoin:miter;stroke-opacity:1;"/>
<path d="M 467.9,93.0 L 467.7,93.9 L 467.8,94.3" style="fill:none;stroke:#000000;stroke-width:2.0px;stroke-linecap:butt;stroke-linejoin:miter;stroke-opacity:1;"/>
<path d="M 456.8,121.5 L 456.4,121.7 L 455.6,121.2" style="fill:none;stroke:#000000;stroke-width:2.0px;stroke-linecap:butt;stroke-linejoin:miter;stroke-opacity:1;"/>
<path d="M 450.7,82.0 L 451.4,81.3 L 451.2,80.4" style="fill:none;stroke:#000000;stroke-width:2.0px;stroke-linecap:butt;stroke-linejoin:miter;stroke-opacity:1;"/>
<path d="M 430.1,58.0 L 429.2,57.7 L 429.0,56.8" style="fill:none;stroke:#000000;stroke-width:2.0px;stroke-linecap:butt;stroke-linejoin:miter;stroke-opacity:1;"/>
<path d="M 425.2,40.4 L 425.0,39.5 L 425.6,38.9" style="fill:none;stroke:#000000;stroke-width:2.0px;stroke-linecap:butt;stroke-linejoin:miter;stroke-opacity:1;"/>
<path d="M 437.9,27.4 L 438.6,26.8 L 439.5,27.0" style="fill:none;stroke:#000000;stroke-width:2.0px;stroke-linecap:butt;stroke-linejoin:miter;stroke-opacity:1;"/>
<path d="M 393.7,72.2 L 392.8,72.1 L 392.4,71.3" style="fill:none;stroke:#000000;stroke-width:2.0px;stroke-linecap:butt;stroke-linejoin:miter;stroke-opacity:1;"/>
<path d="M 385.3,56.1 L 384.9,55.2 L 385.4,54.5" style="fill:none;stroke:#000000;stroke-width:2.0px;stroke-linecap:butt;stroke-linejoin:miter;stroke-opacity:1;"/>
<path d="M 395.0,40.6 L 395.5,39.9 L 396.5,40.0" style="fill:none;stroke:#000000;stroke-width:2.0px;stroke-linecap:butt;stroke-linejoin:miter;stroke-opacity:1;"/>
<path d="M 413.2,41.4 L 414.2,41.5 L 414.6,42.3" style="fill:none;stroke:#000000;stroke-width:2.0px;stroke-linecap:butt;stroke-linejoin:miter;stroke-opacity:1;"/>
<path d="M 421.7,57.5 L 422.1,58.4 L 421.6,59.1" style="fill:none;stroke:#000000;stroke-width:2.0px;stroke-linecap:butt;stroke-linejoin:miter;stroke-opacity:1;"/>
<path d="M 393.1,111.0 L 392.2,111.3 L 391.9,112.1" style="fill:none;stroke:#000000;stroke-width:2.0px;stroke-linecap:butt;stroke-linejoin:miter;stroke-opacity:1;"/>
<path d="M 398.9,142.1 L 399.6,142.8 L 400.5,142.6" style="fill:none;stroke:#000000;stroke-width:2.0px;stroke-linecap:butt;stroke-linejoin:miter;stroke-opacity:1;"/>
<path d="M 416.8,138.7 L 417.8,138.5 L 418.0,137.6" style="fill:none;stroke:#000000;stroke-width:2.0px;stroke-linecap:butt;stroke-linejoin:miter;stroke-opacity:1;"/>
<path class="atom-1" d="M 485.1 122.0 L 486.8 124.8 Q 487.0 125.1, 487.2 125.6 Q 487.5 126.1, 487.5 126.1 L 487.5 122.0 L 488.2 122.0 L 488.2 127.3 L 487.5 127.3 L 485.6 124.2 Q 485.4 123.8, 485.2 123.4 Q 485.0 123.0, 484.9 122.9 L 484.9 127.3 L 484.2 127.3 L 484.2 122.0 L 485.1 122.0 " fill="#0000FF"/>
<path class="atom-2" d="M 503.5 125.1 L 505.2 127.9 Q 505.4 128.2, 505.7 128.7 Q 505.9 129.2, 505.9 129.2 L 505.9 125.1 L 506.7 125.1 L 506.7 130.4 L 505.9 130.4 L 504.1 127.4 Q 503.8 127.0, 503.6 126.6 Q 503.4 126.2, 503.3 126.1 L 503.3 130.4 L 502.6 130.4 L 502.6 125.1 L 503.5 125.1 " fill="#0000FF"/>
<path class="atom-2" d="M 507.6 126.1 L 508.6 126.1 L 508.6 125.1 L 509.0 125.1 L 509.0 126.1 L 510.0 126.1 L 510.0 126.4 L 509.0 126.4 L 509.0 127.4 L 508.6 127.4 L 508.6 126.4 L 507.6 126.4 L 507.6 126.1 " fill="#0000FF"/>
<path class="atom-3" d="M 520.7 117.8 L 522.4 120.6 Q 522.6 120.9, 522.9 121.4 Q 523.1 121.9, 523.2 121.9 L 523.2 117.8 L 523.9 117.8 L 523.9 123.1 L 523.1 123.1 L 521.3 120.1 Q 521.1 119.7, 520.8 119.3 Q 520.6 118.9, 520.5 118.8 L 520.5 123.1 L 519.8 123.1 L 519.8 117.8 L 520.7 117.8 " fill="#0000FF"/>
<path class="atom-3" d="M 524.9 118.8 L 525.8 118.8 L 525.8 117.8 L 526.2 117.8 L 526.2 118.8 L 527.2 118.8 L 527.2 119.1 L 526.2 119.1 L 526.2 120.1 L 525.8 120.1 L 525.8 119.1 L 524.9 119.1 L 524.9 118.8 " fill="#0000FF"/>
<path class="atom-4" d="M 531.2 102.4 L 532.9 105.2 Q 533.1 105.5, 533.4 106.0 Q 533.7 106.5, 533.7 106.5 L 533.7 102.4 L 534.4 102.4 L 534.4 107.7 L 533.7 107.7 L 531.8 104.6 Q 531.6 104.3, 531.3 103.8 Q 531.1 103.4, 531.1 103.3 L 531.1 107.7 L 530.4 107.7 L 530.4 102.4 L 531.2 102.4 " fill="#0000FF"/>
<path class="atom-4" d="M 535.4 103.3 L 536.3 103.3 L 536.3 102.4 L 536.7 102.4 L 536.7 103.3 L 537.7 103.3 L 537.7 103.7 L 536.7 103.7 L 536.7 104.7 L 536.3 104.7 L 536.3 103.7 L 535.4 103.7 L 535.4 103.3 " fill="#0000FF"/>
<path class="atom-5" d="M 531.7 83.7 L 533.4 86.5 Q 533.6 86.8, 533.9 87.3 Q 534.2 87.8, 534.2 87.8 L 534.2 83.7 L 534.9 83.7 L 534.9 89.0 L 534.2 89.0 L 532.3 85.9 Q 532.1 85.6, 531.9 85.2 Q 531.6 84.8, 531.6 84.6 L 531.6 89.0 L 530.9 89.0 L 530.9 83.7 L 531.7 83.7 " fill="#0000FF"/>
<path class="atom-5" d="M 535.8 84.6 L 537.7 84.6 L 537.7 85.0 L 535.8 85.0 L 535.8 84.6 " fill="#0000FF"/>
<path class="atom-8" d="M 480.7 61.7 L 481.4 61.7 L 481.4 63.9 L 484.1 63.9 L 484.1 61.7 L 484.8 61.7 L 484.8 67.0 L 484.1 67.0 L 484.1 64.5 L 481.4 64.5 L 481.4 67.0 L 480.7 67.0 L 480.7 61.7 " fill="#0000FF"/>
<path class="atom-8" d="M 486.7 61.7 L 488.4 64.5 Q 488.6 64.7, 488.9 65.2 Q 489.1 65.7, 489.2 65.8 L 489.2 61.7 L 489.9 61.7 L 489.9 67.0 L 489.1 67.0 L 487.3 63.9 Q 487.1 63.5, 486.8 63.1 Q 486.6 62.7, 486.5 62.6 L 486.5 67.0 L 485.9 67.0 L 485.9 61.7 L 486.7 61.7 " fill="#0000FF"/>
<path class="atom-11" d="M 471.3 109.4 L 473.0 112.2 Q 473.2 112.4, 473.5 112.9 Q 473.7 113.4, 473.7 113.5 L 473.7 109.4 L 474.4 109.4 L 474.4 114.7 L 473.7 114.7 L 471.9 111.6 Q 471.6 111.2, 471.4 110.8 Q 471.2 110.4, 471.1 110.3 L 471.1 114.7 L 470.4 114.7 L 470.4 109.4 L 471.3 109.4 " fill="#0000FF"/>
<path class="atom-13" d="M 454.4 140.4 Q 454.4 139.1, 455.0 138.4 Q 455.7 137.7, 456.8 137.7 Q 458.0 137.7, 458.6 138.4 Q 459.3 139.1, 459.3 140.4 Q 459.3 141.7, 458.6 142.4 Q 458.0 143.1, 456.8 143.1 Q 455.7 143.1, 455.0 142.4 Q 454.4 141.7, 454.4 140.4 M 456.8 142.5 Q 457.6 142.5, 458.1 142.0 Q 458.5 141.4, 458.5 140.4 Q 458.5 139.3, 458.1 138.8 Q 457.6 138.3, 456.8 138.3 Q 456.0 138.3, 455.6 138.8 Q 455.2 139.3, 455.2 140.4 Q 455.2 141.4, 455.6 142.0 Q 456.0 142.5, 456.8 142.5 " fill="#FF0000"/>
<path class="atom-22" d="M 468.5 16.7 L 471.7 16.7 L 471.7 17.3 L 469.2 17.3 L 469.2 18.9 L 471.4 18.9 L 471.4 19.6 L 469.2 19.6 L 469.2 22.0 L 468.5 22.0 L 468.5 16.7 " fill="#33CCCC"/>
<path class="atom-25" d="M 418.2 88.0 L 420.0 90.8 Q 420.1 91.1, 420.4 91.6 Q 420.7 92.1, 420.7 92.1 L 420.7 88.0 L 421.4 88.0 L 421.4 93.3 L 420.7 93.3 L 418.8 90.2 Q 418.6 89.8, 418.4 89.4 Q 418.1 89.0, 418.1 88.9 L 418.1 93.3 L 417.4 93.3 L 417.4 88.0 L 418.2 88.0 " fill="#0000FF"/>
<path class="atom-35" d="M 360.9 130.8 L 361.6 130.8 L 361.6 133.0 L 364.3 133.0 L 364.3 130.8 L 365.1 130.8 L 365.1 136.1 L 364.3 136.1 L 364.3 133.6 L 361.6 133.6 L 361.6 136.1 L 360.9 136.1 L 360.9 130.8 " fill="#FF0000"/>
<path class="atom-35" d="M 366.1 133.4 Q 366.1 132.1, 366.8 131.4 Q 367.4 130.7, 368.6 130.7 Q 369.7 130.7, 370.4 131.4 Q 371.0 132.1, 371.0 133.4 Q 371.0 134.7, 370.4 135.4 Q 369.7 136.2, 368.6 136.2 Q 367.4 136.2, 366.8 135.4 Q 366.1 134.7, 366.1 133.4 M 368.6 135.6 Q 369.4 135.6, 369.8 135.0 Q 370.3 134.5, 370.3 133.4 Q 370.3 132.4, 369.8 131.9 Q 369.4 131.3, 368.6 131.3 Q 367.8 131.3, 367.3 131.8 Q 366.9 132.4, 366.9 133.4 Q 366.9 134.5, 367.3 135.0 Q 367.8 135.6, 368.6 135.6 " fill="#FF0000"/>
<path class="atom-0" d="M 476.1,139.5 L 476.1,139.6 L 476.1,139.6 L 476.1,139.6 L 476.1,139.7 L 476.1,139.7 L 476.1,139.7 L 476.1,139.7 L 476.1,139.8 L 476.0,139.8 L 476.0,139.8 L 476.0,139.8 L 476.0,139.9 L 475.9,139.9 L 475.9,139.9 L 475.9,139.9 L 475.8,139.9 L 475.8,139.9 L 475.8,139.9 L 475.7,139.9 L 475.7,139.9 L 475.7,139.9 L 475.6,139.9 L 475.6,139.9 L 475.6,139.9 L 475.6,139.8 L 475.5,139.8 L 475.5,139.8 L 475.5,139.8 L 475.5,139.8 L 475.4,139.7 L 475.4,139.7 L 475.4,139.7 L 475.4,139.6 L 475.4,139.6 L 475.4,139.6 L 475.4,139.6 L 475.4,139.5 L 475.4,139.5 L 475.4,139.5 L 475.4,139.4 L 475.4,139.4 L 475.4,139.4 L 475.4,139.3 L 475.5,139.3 L 475.5,139.3 L 475.5,139.3 L 475.5,139.2 L 475.6,139.2 L 475.6,139.2 L 475.6,139.2 L 475.6,139.2 L 475.7,139.2 L 475.7,139.2 L 475.7,139.2 L 475.8,139.2 L 475.8,139.2 L 475.8,139.2 L 475.9,139.2 L 475.9,139.2 L 475.9,139.2 L 476.0,139.2 L 476.0,139.2 L 476.0,139.3 L 476.0,139.3 L 476.1,139.3 L 476.1,139.3 L 476.1,139.4 L 476.1,139.4 L 476.1,139.4 L 476.1,139.4 L 476.1,139.5 L 476.1,139.5 L 476.1,139.5 L 475.8,139.5 Z" style="fill:#000000;fill-rule:evenodd;fill-opacity:1;stroke:#000000;stroke-width:0.0px;stroke-linecap:butt;stroke-linejoin:miter;stroke-opacity:1;"/>
<path class="atom-0" d="M 476.1,143.3 L 476.1,143.3 L 476.1,143.3 L 476.1,143.4 L 476.1,143.4 L 476.1,143.4 L 476.1,143.5 L 476.1,143.5 L 476.1,143.5 L 476.0,143.5 L 476.0,143.6 L 476.0,143.6 L 476.0,143.6 L 475.9,143.6 L 475.9,143.6 L 475.9,143.6 L 475.8,143.6 L 475.8,143.6 L 475.8,143.6 L 475.7,143.6 L 475.7,143.6 L 475.7,143.6 L 475.6,143.6 L 475.6,143.6 L 475.6,143.6 L 475.6,143.6 L 475.5,143.6 L 475.5,143.5 L 475.5,143.5 L 475.5,143.5 L 475.4,143.5 L 475.4,143.4 L 475.4,143.4 L 475.4,143.4 L 475.4,143.4 L 475.4,143.3 L 475.4,143.3 L 475.4,143.3 L 475.4,143.2 L 475.4,143.2 L 475.4,143.2 L 475.4,143.1 L 475.4,143.1 L 475.4,143.1 L 475.5,143.0 L 475.5,143.0 L 475.5,143.0 L 475.5,143.0 L 475.6,143.0 L 475.6,142.9 L 475.6,142.9 L 475.6,142.9 L 475.7,142.9 L 475.7,142.9 L 475.7,142.9 L 475.8,142.9 L 475.8,142.9 L 475.8,142.9 L 475.9,142.9 L 475.9,142.9 L 475.9,142.9 L 476.0,143.0 L 476.0,143.0 L 476.0,143.0 L 476.0,143.0 L 476.1,143.0 L 476.1,143.1 L 476.1,143.1 L 476.1,143.1 L 476.1,143.1 L 476.1,143.2 L 476.1,143.2 L 476.1,143.2 L 476.1,143.3 L 475.8,143.3 Z" style="fill:#000000;fill-rule:evenodd;fill-opacity:1;stroke:#000000;stroke-width:0.0px;stroke-linecap:butt;stroke-linejoin:miter;stroke-opacity:1;"/>
<path class="atom-0" d="M 476.1,141.4 L 476.1,141.4 L 476.1,141.5 L 476.1,141.5 L 476.1,141.5 L 476.1,141.6 L 476.1,141.6 L 476.1,141.6 L 476.1,141.6 L 476.0,141.7 L 476.0,141.7 L 476.0,141.7 L 476.0,141.7 L 475.9,141.7 L 475.9,141.8 L 475.9,141.8 L 475.8,141.8 L 475.8,141.8 L 475.8,141.8 L 475.7,141.8 L 475.7,141.8 L 475.7,141.8 L 475.6,141.8 L 475.6,141.7 L 475.6,141.7 L 475.6,141.7 L 475.5,141.7 L 475.5,141.7 L 475.5,141.7 L 475.5,141.6 L 475.4,141.6 L 475.4,141.6 L 475.4,141.5 L 475.4,141.5 L 475.4,141.5 L 475.4,141.5 L 475.4,141.4 L 475.4,141.4 L 475.4,141.4 L 475.4,141.3 L 475.4,141.3 L 475.4,141.3 L 475.4,141.2 L 475.4,141.2 L 475.5,141.2 L 475.5,141.2 L 475.5,141.1 L 475.5,141.1 L 475.6,141.1 L 475.6,141.1 L 475.6,141.1 L 475.6,141.0 L 475.7,141.0 L 475.7,141.0 L 475.7,141.0 L 475.8,141.0 L 475.8,141.0 L 475.8,141.0 L 475.9,141.0 L 475.9,141.1 L 475.9,141.1 L 476.0,141.1 L 476.0,141.1 L 476.0,141.1 L 476.0,141.1 L 476.1,141.2 L 476.1,141.2 L 476.1,141.2 L 476.1,141.2 L 476.1,141.3 L 476.1,141.3 L 476.1,141.3 L 476.1,141.4 L 476.1,141.4 L 475.8,141.4 Z" style="fill:#000000;fill-rule:evenodd;fill-opacity:1;stroke:#000000;stroke-width:0.0px;stroke-linecap:butt;stroke-linejoin:miter;stroke-opacity:1;"/>
<path class="atom-2" d="M 511.4,128.5 L 511.4,128.6 L 511.4,128.6 L 511.4,128.6 L 511.4,128.7 L 511.4,128.7 L 511.4,128.7 L 511.4,128.7 L 511.4,128.8 L 511.3,128.8 L 511.3,128.8 L 511.3,128.8 L 511.3,128.8 L 511.2,128.9 L 511.2,128.9 L 511.2,128.9 L 511.1,128.9 L 511.1,128.9 L 511.1,128.9 L 511.0,128.9 L 511.0,128.9 L 511.0,128.9 L 511.0,128.9 L 510.9,128.9 L 510.9,128.9 L 510.9,128.8 L 510.8,128.8 L 510.8,128.8 L 510.8,128.8 L 510.8,128.8 L 510.8,128.7 L 510.7,128.7 L 510.7,128.7 L 510.7,128.6 L 510.7,128.6 L 510.7,128.6 L 510.7,128.5 L 510.7,128.5 L 510.7,128.5 L 510.7,128.4 L 510.7,128.4 L 510.7,128.4 L 510.7,128.4 L 510.8,128.3 L 510.8,128.3 L 510.8,128.3 L 510.8,128.3 L 510.8,128.2 L 510.9,128.2 L 510.9,128.2 L 510.9,128.2 L 511.0,128.2 L 511.0,128.2 L 511.0,128.2 L 511.0,128.2 L 511.1,128.2 L 511.1,128.2 L 511.1,128.2 L 511.2,128.2 L 511.2,128.2 L 511.2,128.2 L 511.3,128.2 L 511.3,128.2 L 511.3,128.2 L 511.3,128.3 L 511.4,128.3 L 511.4,128.3 L 511.4,128.3 L 511.4,128.4 L 511.4,128.4 L 511.4,128.4 L 511.4,128.5 L 511.4,128.5 L 511.4,128.5 L 511.1,128.5 Z" style="fill:#000000;fill-rule:evenodd;fill-opacity:1;stroke:#000000;stroke-width:0.0px;stroke-linecap:butt;stroke-linejoin:miter;stroke-opacity:1;"/>
<path class="atom-2" d="M 511.4,127.0 L 511.4,127.1 L 511.4,127.1 L 511.4,127.1 L 511.4,127.2 L 511.4,127.2 L 511.4,127.2 L 511.4,127.2 L 511.4,127.3 L 511.3,127.3 L 511.3,127.3 L 511.3,127.3 L 511.3,127.4 L 511.2,127.4 L 511.2,127.4 L 511.2,127.4 L 511.1,127.4 L 511.1,127.4 L 511.1,127.4 L 511.0,127.4 L 511.0,127.4 L 511.0,127.4 L 511.0,127.4 L 510.9,127.4 L 510.9,127.4 L 510.9,127.3 L 510.8,127.3 L 510.8,127.3 L 510.8,127.3 L 510.8,127.3 L 510.8,127.2 L 510.7,127.2 L 510.7,127.2 L 510.7,127.1 L 510.7,127.1 L 510.7,127.1 L 510.7,127.0 L 510.7,127.0 L 510.7,127.0 L 510.7,127.0 L 510.7,126.9 L 510.7,126.9 L 510.7,126.9 L 510.8,126.8 L 510.8,126.8 L 510.8,126.8 L 510.8,126.8 L 510.8,126.7 L 510.9,126.7 L 510.9,126.7 L 510.9,126.7 L 511.0,126.7 L 511.0,126.7 L 511.0,126.7 L 511.0,126.7 L 511.1,126.7 L 511.1,126.7 L 511.1,126.7 L 511.2,126.7 L 511.2,126.7 L 511.2,126.7 L 511.3,126.7 L 511.3,126.7 L 511.3,126.7 L 511.3,126.8 L 511.4,126.8 L 511.4,126.8 L 511.4,126.8 L 511.4,126.9 L 511.4,126.9 L 511.4,126.9 L 511.4,127.0 L 511.4,127.0 L 511.4,127.0 L 511.1,127.0 Z" style="fill:#000000;fill-rule:evenodd;fill-opacity:1;stroke:#000000;stroke-width:0.0px;stroke-linecap:butt;stroke-linejoin:miter;stroke-opacity:1;"/>
<path class="atom-3" d="M 528.7,120.5 L 528.6,120.5 L 528.6,120.5 L 528.6,120.6 L 528.6,120.6 L 528.6,120.6 L 528.6,120.7 L 528.6,120.7 L 528.6,120.7 L 528.5,120.7 L 528.5,120.8 L 528.5,120.8 L 528.5,120.8 L 528.4,120.8 L 528.4,120.8 L 528.4,120.8 L 528.3,120.8 L 528.3,120.9 L 528.3,120.9 L 528.3,120.9 L 528.2,120.9 L 528.2,120.8 L 528.2,120.8 L 528.1,120.8 L 528.1,120.8 L 528.1,120.8 L 528.0,120.8 L 528.0,120.8 L 528.0,120.7 L 528.0,120.7 L 528.0,120.7 L 527.9,120.7 L 527.9,120.6 L 527.9,120.6 L 527.9,120.6 L 527.9,120.5 L 527.9,120.5 L 527.9,120.5 L 527.9,120.4 L 527.9,120.4 L 527.9,120.4 L 527.9,120.3 L 527.9,120.3 L 528.0,120.3 L 528.0,120.3 L 528.0,120.2 L 528.0,120.2 L 528.0,120.2 L 528.1,120.2 L 528.1,120.2 L 528.1,120.1 L 528.2,120.1 L 528.2,120.1 L 528.2,120.1 L 528.3,120.1 L 528.3,120.1 L 528.3,120.1 L 528.3,120.1 L 528.4,120.1 L 528.4,120.1 L 528.4,120.1 L 528.5,120.2 L 528.5,120.2 L 528.5,120.2 L 528.5,120.2 L 528.6,120.2 L 528.6,120.3 L 528.6,120.3 L 528.6,120.3 L 528.6,120.4 L 528.6,120.4 L 528.6,120.4 L 528.6,120.4 L 528.7,120.5 L 528.3,120.5 Z" style="fill:#000000;fill-rule:evenodd;fill-opacity:1;stroke:#000000;stroke-width:0.0px;stroke-linecap:butt;stroke-linejoin:miter;stroke-opacity:1;"/>
<path class="atom-4" d="M 539.2,105.0 L 539.2,105.1 L 539.2,105.1 L 539.2,105.1 L 539.2,105.2 L 539.1,105.2 L 539.1,105.2 L 539.1,105.3 L 539.1,105.3 L 539.1,105.3 L 539.0,105.3 L 539.0,105.3 L 539.0,105.4 L 539.0,105.4 L 538.9,105.4 L 538.9,105.4 L 538.9,105.4 L 538.8,105.4 L 538.8,105.4 L 538.8,105.4 L 538.7,105.4 L 538.7,105.4 L 538.7,105.4 L 538.7,105.4 L 538.6,105.4 L 538.6,105.4 L 538.6,105.3 L 538.5,105.3 L 538.5,105.3 L 538.5,105.3 L 538.5,105.2 L 538.5,105.2 L 538.5,105.2 L 538.4,105.1 L 538.4,105.1 L 538.4,105.1 L 538.4,105.1 L 538.4,105.0 L 538.4,105.0 L 538.4,105.0 L 538.4,104.9 L 538.5,104.9 L 538.5,104.9 L 538.5,104.8 L 538.5,104.8 L 538.5,104.8 L 538.5,104.8 L 538.6,104.7 L 538.6,104.7 L 538.6,104.7 L 538.7,104.7 L 538.7,104.7 L 538.7,104.7 L 538.7,104.7 L 538.8,104.7 L 538.8,104.7 L 538.8,104.7 L 538.9,104.7 L 538.9,104.7 L 538.9,104.7 L 539.0,104.7 L 539.0,104.7 L 539.0,104.7 L 539.0,104.8 L 539.1,104.8 L 539.1,104.8 L 539.1,104.8 L 539.1,104.9 L 539.1,104.9 L 539.2,104.9 L 539.2,104.9 L 539.2,105.0 L 539.2,105.0 L 539.2,105.0 L 538.8,105.0 Z" style="fill:#000000;fill-rule:evenodd;fill-opacity:1;stroke:#000000;stroke-width:0.0px;stroke-linecap:butt;stroke-linejoin:miter;stroke-opacity:1;"/>
<path class="bond-0 atom-0 atom-1" d="M 772.1,141.5 L 776.0,135.1" style="fill:none;fill-rule:evenodd;stroke:#000000;stroke-width:2.0px;stroke-linecap:butt;stroke-linejoin:miter;stroke-opacity:1"/>
<path class="bond-0 atom-0 atom-1" d="M 776.0,135.1 L 779.8,128.8" style="fill:none;fill-rule:evenodd;stroke:#0000FF;stroke-width:2.0px;stroke-linecap:butt;stroke-linejoin:miter;stroke-opacity:1"/>
<path class="bond-1 atom-1 atom-2" d="M 784.4,126.2 L 792.1,128.2" style="fill:none;fill-rule:evenodd;stroke:#0000FF;stroke-width:2.0px;stroke-linecap:butt;stroke-linejoin:miter;stroke-opacity:1"/>
<path class="bond-1 atom-1 atom-2" d="M 792.1,128.2 L 799.8,130.3" style="fill:none;fill-rule:evenodd;stroke:#000000;stroke-width:2.0px;stroke-linecap:butt;stroke-linejoin:miter;stroke-opacity:1"/>
<path class="bond-2 atom-2 atom-3" d="M 799.8,130.3 L 807.4,127.8" style="fill:none;fill-rule:evenodd;stroke:#000000;stroke-width:2.0px;stroke-linecap:butt;stroke-linejoin:miter;stroke-opacity:1"/>
<path class="bond-2 atom-2 atom-3" d="M 807.4,127.8 L 815.0,125.4" style="fill:none;fill-rule:evenodd;stroke:#0000FF;stroke-width:2.0px;stroke-linecap:butt;stroke-linejoin:miter;stroke-opacity:1"/>
<path class="bond-3 atom-3 atom-4" d="M 820.2,121.3 L 826.8,113.3" style="fill:none;fill-rule:evenodd;stroke:#0000FF;stroke-width:2.0px;stroke-linecap:butt;stroke-linejoin:miter;stroke-opacity:1"/>
<path class="bond-4 atom-4 atom-5" d="M 829.8,106.8 L 830.7,99.1" style="fill:none;fill-rule:evenodd;stroke:#0000FF;stroke-width:2.0px;stroke-linecap:butt;stroke-linejoin:miter;stroke-opacity:1"/>
<path class="bond-4 atom-4 atom-5" d="M 830.7,99.1 L 831.6,91.5" style="fill:none;fill-rule:evenodd;stroke:#000000;stroke-width:2.0px;stroke-linecap:butt;stroke-linejoin:miter;stroke-opacity:1"/>
<path class="bond-5 atom-5 atom-6" d="M 831.6,91.5 L 828.3,84.7" style="fill:none;fill-rule:evenodd;stroke:#000000;stroke-width:2.0px;stroke-linecap:butt;stroke-linejoin:miter;stroke-opacity:1"/>
<path class="bond-5 atom-5 atom-6" d="M 828.3,84.7 L 825.0,78.0" style="fill:none;fill-rule:evenodd;stroke:#0000FF;stroke-width:2.0px;stroke-linecap:butt;stroke-linejoin:miter;stroke-opacity:1"/>
<path class="bond-6 atom-6 atom-7" d="M 826.0,72.3 L 834.5,64.5" style="fill:none;fill-rule:evenodd;stroke:#0000FF;stroke-width:2.0px;stroke-linecap:butt;stroke-linejoin:miter;stroke-opacity:1"/>
<path class="bond-7 atom-6 atom-8" d="M 820.7,73.1 L 814.1,69.1" style="fill:none;fill-rule:evenodd;stroke:#0000FF;stroke-width:2.0px;stroke-linecap:butt;stroke-linejoin:miter;stroke-opacity:1"/>
<path class="bond-7 atom-6 atom-8" d="M 814.1,69.1 L 807.4,65.1" style="fill:none;fill-rule:evenodd;stroke:#000000;stroke-width:2.0px;stroke-linecap:butt;stroke-linejoin:miter;stroke-opacity:1"/>
<path class="bond-8 atom-8 atom-9" d="M 807.4,65.1 L 799.3,65.3" style="fill:none;fill-rule:evenodd;stroke:#000000;stroke-width:2.0px;stroke-linecap:butt;stroke-linejoin:miter;stroke-opacity:1"/>
<path class="bond-8 atom-8 atom-9" d="M 799.3,65.3 L 791.3,65.5" style="fill:none;fill-rule:evenodd;stroke:#0000FF;stroke-width:2.0px;stroke-linecap:butt;stroke-linejoin:miter;stroke-opacity:1"/>
<path class="bond-9 atom-9 atom-10" d="M 786.1,67.4 L 779.7,71.7" style="fill:none;fill-rule:evenodd;stroke:#0000FF;stroke-width:2.0px;stroke-linecap:butt;stroke-linejoin:miter;stroke-opacity:1"/>
<path class="bond-9 atom-9 atom-10" d="M 779.7,71.7 L 773.3,76.1" style="fill:none;fill-rule:evenodd;stroke:#000000;stroke-width:2.0px;stroke-linecap:butt;stroke-linejoin:miter;stroke-opacity:1"/>
<path class="bond-10 atom-10 atom-11" d="M 773.3,76.1 L 766.0,93.3" style="fill:none;fill-rule:evenodd;stroke:#000000;stroke-width:2.0px;stroke-linecap:butt;stroke-linejoin:miter;stroke-opacity:1"/>
<path class="bond-11 atom-11 atom-12" d="M 766.0,93.3 L 767.3,100.9" style="fill:none;fill-rule:evenodd;stroke:#000000;stroke-width:2.0px;stroke-linecap:butt;stroke-linejoin:miter;stroke-opacity:1"/>
<path class="bond-11 atom-11 atom-12" d="M 767.3,100.9 L 768.6,108.5" style="fill:none;fill-rule:evenodd;stroke:#0000FF;stroke-width:2.0px;stroke-linecap:butt;stroke-linejoin:miter;stroke-opacity:1"/>
<path class="bond-12 atom-12 atom-13" d="M 766.5,113.0 L 759.4,116.5" style="fill:none;fill-rule:evenodd;stroke:#0000FF;stroke-width:2.0px;stroke-linecap:butt;stroke-linejoin:miter;stroke-opacity:1"/>
<path class="bond-12 atom-12 atom-13" d="M 759.4,116.5 L 752.4,120.0" style="fill:none;fill-rule:evenodd;stroke:#000000;stroke-width:2.0px;stroke-linecap:butt;stroke-linejoin:miter;stroke-opacity:1"/>
<path class="bond-13 atom-13 atom-14" d="M 751.0,119.1 L 750.5,127.2" style="fill:none;fill-rule:evenodd;stroke:#000000;stroke-width:2.0px;stroke-linecap:butt;stroke-linejoin:miter;stroke-opacity:1"/>
<path class="bond-13 atom-13 atom-14" d="M 750.5,127.2 L 749.9,135.2" style="fill:none;fill-rule:evenodd;stroke:#FF0000;stroke-width:2.0px;stroke-linecap:butt;stroke-linejoin:miter;stroke-opacity:1"/>
<path class="bond-13 atom-13 atom-14" d="M 753.8,119.3 L 753.3,127.3" style="fill:none;fill-rule:evenodd;stroke:#000000;stroke-width:2.0px;stroke-linecap:butt;stroke-linejoin:miter;stroke-opacity:1"/>
<path class="bond-13 atom-13 atom-14" d="M 753.3,127.3 L 752.7,135.4" style="fill:none;fill-rule:evenodd;stroke:#FF0000;stroke-width:2.0px;stroke-linecap:butt;stroke-linejoin:miter;stroke-opacity:1"/>
<path class="bond-14 atom-13 atom-15" d="M 752.4,120.0 L 736.9,109.6" style="fill:none;fill-rule:evenodd;stroke:#000000;stroke-width:2.0px;stroke-linecap:butt;stroke-linejoin:miter;stroke-opacity:1"/>
<path class="bond-15 atom-15 atom-16" d="M 736.9,109.6 L 736.1,90.9" style="fill:none;fill-rule:evenodd;stroke:#000000;stroke-width:2.0px;stroke-linecap:butt;stroke-linejoin:miter;stroke-opacity:1"/>
<path class="bond-15 atom-15 atom-16" d="M 734.0,107.6 L 733.4,93.0" style="fill:none;fill-rule:evenodd;stroke:#000000;stroke-width:2.0px;stroke-linecap:butt;stroke-linejoin:miter;stroke-opacity:1"/>
<path class="bond-16 atom-16 atom-17" d="M 736.1,90.9 L 750.8,79.3" style="fill:none;fill-rule:evenodd;stroke:#000000;stroke-width:2.0px;stroke-linecap:butt;stroke-linejoin:miter;stroke-opacity:1"/>
<path class="bond-17 atom-17 atom-18" d="M 750.8,79.3 L 748.2,60.9" style="fill:none;fill-rule:evenodd;stroke:#000000;stroke-width:2.0px;stroke-linecap:butt;stroke-linejoin:miter;stroke-opacity:1"/>
<path class="bond-18 atom-18 atom-19" d="M 748.2,60.9 L 730.8,53.9" style="fill:none;fill-rule:evenodd;stroke:#000000;stroke-width:2.0px;stroke-linecap:butt;stroke-linejoin:miter;stroke-opacity:1"/>
<path class="bond-18 atom-18 atom-19" d="M 747.7,57.6 L 733.4,51.9" style="fill:none;fill-rule:evenodd;stroke:#000000;stroke-width:2.0px;stroke-linecap:butt;stroke-linejoin:miter;stroke-opacity:1"/>
<path class="bond-19 atom-19 atom-20" d="M 730.8,53.9 L 728.2,35.4" style="fill:none;fill-rule:evenodd;stroke:#000000;stroke-width:2.0px;stroke-linecap:butt;stroke-linejoin:miter;stroke-opacity:1"/>
<path class="bond-20 atom-20 atom-21" d="M 728.2,35.4 L 742.9,23.9" style="fill:none;fill-rule:evenodd;stroke:#000000;stroke-width:2.0px;stroke-linecap:butt;stroke-linejoin:miter;stroke-opacity:1"/>
<path class="bond-20 atom-20 atom-21" d="M 731.2,36.6 L 743.4,27.1" style="fill:none;fill-rule:evenodd;stroke:#000000;stroke-width:2.0px;stroke-linecap:butt;stroke-linejoin:miter;stroke-opacity:1"/>
<path class="bond-21 atom-21 atom-22" d="M 742.9,23.9 L 760.2,30.8" style="fill:none;fill-rule:evenodd;stroke:#000000;stroke-width:2.0px;stroke-linecap:butt;stroke-linejoin:miter;stroke-opacity:1"/>
<path class="bond-22 atom-22 atom-23" d="M 760.2,30.8 L 766.5,25.9" style="fill:none;fill-rule:evenodd;stroke:#000000;stroke-width:2.0px;stroke-linecap:butt;stroke-linejoin:miter;stroke-opacity:1"/>
<path class="bond-22 atom-22 atom-23" d="M 766.5,25.9 L 772.7,21.0" style="fill:none;fill-rule:evenodd;stroke:#33CCCC;stroke-width:2.0px;stroke-linecap:butt;stroke-linejoin:miter;stroke-opacity:1"/>
<path class="bond-23 atom-22 atom-24" d="M 760.2,30.8 L 762.9,49.3" style="fill:none;fill-rule:evenodd;stroke:#000000;stroke-width:2.0px;stroke-linecap:butt;stroke-linejoin:miter;stroke-opacity:1"/>
<path class="bond-23 atom-22 atom-24" d="M 757.7,32.8 L 759.9,48.1" style="fill:none;fill-rule:evenodd;stroke:#000000;stroke-width:2.0px;stroke-linecap:butt;stroke-linejoin:miter;stroke-opacity:1"/>
<path class="bond-24 atom-24 atom-25" d="M 762.9,49.3 L 780.2,56.3" style="fill:none;fill-rule:evenodd;stroke:#000000;stroke-width:2.0px;stroke-linecap:butt;stroke-linejoin:miter;stroke-opacity:1"/>
<path class="bond-25 atom-16 atom-26" d="M 736.1,90.9 L 728.5,88.7" style="fill:none;fill-rule:evenodd;stroke:#000000;stroke-width:2.0px;stroke-linecap:butt;stroke-linejoin:miter;stroke-opacity:1"/>
<path class="bond-25 atom-16 atom-26" d="M 728.5,88.7 L 720.8,86.5" style="fill:none;fill-rule:evenodd;stroke:#0000FF;stroke-width:2.0px;stroke-linecap:butt;stroke-linejoin:miter;stroke-opacity:1"/>
<path class="bond-26 atom-26 atom-27" d="M 717.0,82.5 L 714.4,75.4" style="fill:none;fill-rule:evenodd;stroke:#0000FF;stroke-width:2.0px;stroke-linecap:butt;stroke-linejoin:miter;stroke-opacity:1"/>
<path class="bond-26 atom-26 atom-27" d="M 714.4,75.4 L 711.7,68.2" style="fill:none;fill-rule:evenodd;stroke:#000000;stroke-width:2.0px;stroke-linecap:butt;stroke-linejoin:miter;stroke-opacity:1"/>
<path class="bond-27 atom-27 atom-28" d="M 711.7,68.2 L 693.3,65.0" style="fill:none;fill-rule:evenodd;stroke:#000000;stroke-width:2.0px;stroke-linecap:butt;stroke-linejoin:miter;stroke-opacity:1"/>
<path class="bond-27 atom-27 atom-28" d="M 710.6,65.2 L 695.4,62.6" style="fill:none;fill-rule:evenodd;stroke:#000000;stroke-width:2.0px;stroke-linecap:butt;stroke-linejoin:miter;stroke-opacity:1"/>
<path class="bond-28 atom-28 atom-29" d="M 693.3,65.0 L 686.9,47.5" style="fill:none;fill-rule:evenodd;stroke:#000000;stroke-width:2.0px;stroke-linecap:butt;stroke-linejoin:miter;stroke-opacity:1"/>
<path class="bond-29 atom-29 atom-30" d="M 686.9,47.5 L 698.9,33.2" style="fill:none;fill-rule:evenodd;stroke:#000000;stroke-width:2.0px;stroke-linecap:butt;stroke-linejoin:miter;stroke-opacity:1"/>
<path class="bond-29 atom-29 atom-30" d="M 690.1,48.1 L 700.0,36.2" style="fill:none;fill-rule:evenodd;stroke:#000000;stroke-width:2.0px;stroke-linecap:butt;stroke-linejoin:miter;stroke-opacity:1"/>
<path class="bond-30 atom-30 atom-31" d="M 698.9,33.2 L 717.3,36.4" style="fill:none;fill-rule:evenodd;stroke:#000000;stroke-width:2.0px;stroke-linecap:butt;stroke-linejoin:miter;stroke-opacity:1"/>
<path class="bond-31 atom-31 atom-32" d="M 717.3,36.4 L 723.7,53.9" style="fill:none;fill-rule:evenodd;stroke:#000000;stroke-width:2.0px;stroke-linecap:butt;stroke-linejoin:miter;stroke-opacity:1"/>
<path class="bond-31 atom-31 atom-32" d="M 715.2,38.8 L 720.5,53.3" style="fill:none;fill-rule:evenodd;stroke:#000000;stroke-width:2.0px;stroke-linecap:butt;stroke-linejoin:miter;stroke-opacity:1"/>
<path class="bond-32 atom-26 atom-33" d="M 716.0,89.1 L 711.9,95.2" style="fill:none;fill-rule:evenodd;stroke:#0000FF;stroke-width:2.0px;stroke-linecap:butt;stroke-linejoin:miter;stroke-opacity:1"/>
<path class="bond-32 atom-26 atom-33" d="M 711.9,95.2 L 707.8,101.3" style="fill:none;fill-rule:evenodd;stroke:#000000;stroke-width:2.0px;stroke-linecap:butt;stroke-linejoin:miter;stroke-opacity:1"/>
<path class="bond-33 atom-33 atom-34" d="M 707.8,101.3 L 689.3,104.0" style="fill:none;fill-rule:evenodd;stroke:#000000;stroke-width:2.0px;stroke-linecap:butt;stroke-linejoin:miter;stroke-opacity:1"/>
<path class="bond-33 atom-33 atom-34" d="M 706.6,104.3 L 691.3,106.5" style="fill:none;fill-rule:evenodd;stroke:#000000;stroke-width:2.0px;stroke-linecap:butt;stroke-linejoin:miter;stroke-opacity:1"/>
<path class="bond-34 atom-34 atom-35" d="M 689.3,104.0 L 682.3,121.3" style="fill:none;fill-rule:evenodd;stroke:#000000;stroke-width:2.0px;stroke-linecap:butt;stroke-linejoin:miter;stroke-opacity:1"/>
<path class="bond-35 atom-35 atom-36" d="M 682.3,121.3 L 674.6,122.4" style="fill:none;fill-rule:evenodd;stroke:#000000;stroke-width:2.0px;stroke-linecap:butt;stroke-linejoin:miter;stroke-opacity:1"/>
<path class="bond-35 atom-35 atom-36" d="M 674.6,122.4 L 666.9,123.5" style="fill:none;fill-rule:evenodd;stroke:#FF0000;stroke-width:2.0px;stroke-linecap:butt;stroke-linejoin:miter;stroke-opacity:1"/>
<path class="bond-36 atom-35 atom-37" d="M 682.3,121.3 L 693.9,136.0" style="fill:none;fill-rule:evenodd;stroke:#000000;stroke-width:2.0px;stroke-linecap:butt;stroke-linejoin:miter;stroke-opacity:1"/>
<path class="bond-36 atom-35 atom-37" d="M 685.5,120.8 L 695.1,133.0" style="fill:none;fill-rule:evenodd;stroke:#000000;stroke-width:2.0px;stroke-linecap:butt;stroke-linejoin:miter;stroke-opacity:1"/>
<path class="bond-37 atom-37 atom-38" d="M 693.9,136.0 L 712.4,133.4" style="fill:none;fill-rule:evenodd;stroke:#000000;stroke-width:2.0px;stroke-linecap:butt;stroke-linejoin:miter;stroke-opacity:1"/>
<path class="bond-38 atom-38 atom-39" d="M 712.4,133.4 L 719.3,116.0" style="fill:none;fill-rule:evenodd;stroke:#000000;stroke-width:2.0px;stroke-linecap:butt;stroke-linejoin:miter;stroke-opacity:1"/>
<path class="bond-38 atom-38 atom-39" d="M 710.4,130.8 L 716.1,116.5" style="fill:none;fill-rule:evenodd;stroke:#000000;stroke-width:2.0px;stroke-linecap:butt;stroke-linejoin:miter;stroke-opacity:1"/>
<path class="bond-39 atom-12 atom-1" d="M 771.8,114.6 L 779.2,122.7" style="fill:none;fill-rule:evenodd;stroke:#0000FF;stroke-width:2.0px;stroke-linecap:butt;stroke-linejoin:miter;stroke-opacity:1"/>
<path class="bond-40 atom-39 atom-15" d="M 719.3,116.0 L 736.9,109.6" style="fill:none;fill-rule:evenodd;stroke:#000000;stroke-width:2.0px;stroke-linecap:butt;stroke-linejoin:miter;stroke-opacity:1"/>
<path class="bond-41 atom-24 atom-18" d="M 762.9,49.3 L 748.2,60.9" style="fill:none;fill-rule:evenodd;stroke:#000000;stroke-width:2.0px;stroke-linecap:butt;stroke-linejoin:miter;stroke-opacity:1"/>
<path class="bond-42 atom-32 atom-27" d="M 723.7,53.9 L 711.7,68.2" style="fill:none;fill-rule:evenodd;stroke:#000000;stroke-width:2.0px;stroke-linecap:butt;stroke-linejoin:miter;stroke-opacity:1"/>
<path class="bond-43 atom-39 atom-33" d="M 719.3,116.0 L 707.8,101.3" style="fill:none;fill-rule:evenodd;stroke:#000000;stroke-width:2.0px;stroke-linecap:butt;stroke-linejoin:miter;stroke-opacity:1"/>
<path d="M 799.5,130.2 L 799.8,130.3 L 800.2,130.2" style="fill:none;stroke:#000000;stroke-width:2.0px;stroke-linecap:butt;stroke-linejoin:miter;stroke-opacity:1;"/>
<path d="M 831.6,91.9 L 831.6,91.5 L 831.4,91.1" style="fill:none;stroke:#000000;stroke-width:2.0px;stroke-linecap:butt;stroke-linejoin:miter;stroke-opacity:1;"/>
<path d="M 807.7,65.3 L 807.4,65.1 L 807.0,65.1" style="fill:none;stroke:#000000;stroke-width:2.0px;stroke-linecap:butt;stroke-linejoin:miter;stroke-opacity:1;"/>
<path d="M 773.6,75.9 L 773.3,76.1 L 772.9,77.0" style="fill:none;stroke:#000000;stroke-width:2.0px;stroke-linecap:butt;stroke-linejoin:miter;stroke-opacity:1;"/>
<path d="M 766.3,92.5 L 766.0,93.3 L 766.0,93.7" style="fill:none;stroke:#000000;stroke-width:2.0px;stroke-linecap:butt;stroke-linejoin:miter;stroke-opacity:1;"/>
<path d="M 752.7,119.8 L 752.4,120.0 L 751.6,119.5" style="fill:none;stroke:#000000;stroke-width:2.0px;stroke-linecap:butt;stroke-linejoin:miter;stroke-opacity:1;"/>
<path d="M 750.1,79.9 L 750.8,79.3 L 750.7,78.4" style="fill:none;stroke:#000000;stroke-width:2.0px;stroke-linecap:butt;stroke-linejoin:miter;stroke-opacity:1;"/>
<path d="M 731.7,54.2 L 730.8,53.9 L 730.7,53.0" style="fill:none;stroke:#000000;stroke-width:2.0px;stroke-linecap:butt;stroke-linejoin:miter;stroke-opacity:1;"/>
<path d="M 728.3,36.3 L 728.2,35.4 L 728.9,34.8" style="fill:none;stroke:#000000;stroke-width:2.0px;stroke-linecap:butt;stroke-linejoin:miter;stroke-opacity:1;"/>
<path d="M 742.2,24.4 L 742.9,23.9 L 743.8,24.2" style="fill:none;stroke:#000000;stroke-width:2.0px;stroke-linecap:butt;stroke-linejoin:miter;stroke-opacity:1;"/>
<path d="M 694.2,65.2 L 693.3,65.0 L 693.0,64.2" style="fill:none;stroke:#000000;stroke-width:2.0px;stroke-linecap:butt;stroke-linejoin:miter;stroke-opacity:1;"/>
<path d="M 687.2,48.4 L 686.9,47.5 L 687.5,46.8" style="fill:none;stroke:#000000;stroke-width:2.0px;stroke-linecap:butt;stroke-linejoin:miter;stroke-opacity:1;"/>
<path d="M 698.3,33.9 L 698.9,33.2 L 699.8,33.3" style="fill:none;stroke:#000000;stroke-width:2.0px;stroke-linecap:butt;stroke-linejoin:miter;stroke-opacity:1;"/>
<path d="M 716.3,36.2 L 717.3,36.4 L 717.6,37.2" style="fill:none;stroke:#000000;stroke-width:2.0px;stroke-linecap:butt;stroke-linejoin:miter;stroke-opacity:1;"/>
<path d="M 723.4,53.0 L 723.7,53.9 L 723.1,54.6" style="fill:none;stroke:#000000;stroke-width:2.0px;stroke-linecap:butt;stroke-linejoin:miter;stroke-opacity:1;"/>
<path d="M 690.2,103.8 L 689.3,104.0 L 688.9,104.8" style="fill:none;stroke:#000000;stroke-width:2.0px;stroke-linecap:butt;stroke-linejoin:miter;stroke-opacity:1;"/>
<path d="M 693.3,135.3 L 693.9,136.0 L 694.8,135.9" style="fill:none;stroke:#000000;stroke-width:2.0px;stroke-linecap:butt;stroke-linejoin:miter;stroke-opacity:1;"/>
<path d="M 711.4,133.5 L 712.4,133.4 L 712.7,132.5" style="fill:none;stroke:#000000;stroke-width:2.0px;stroke-linecap:butt;stroke-linejoin:miter;stroke-opacity:1;"/>
<path class="atom-1" d="M 780.6 122.9 L 782.3 125.7 Q 782.5 126.0, 782.8 126.5 Q 783.1 127.0, 783.1 127.0 L 783.1 122.9 L 783.8 122.9 L 783.8 128.2 L 783.1 128.2 L 781.2 125.1 Q 781.0 124.7, 780.7 124.3 Q 780.5 123.9, 780.5 123.8 L 780.5 128.2 L 779.8 128.2 L 779.8 122.9 L 780.6 122.9 " fill="#0000FF"/>
<path class="atom-3" d="M 816.5 121.9 L 818.2 124.7 Q 818.4 124.9, 818.6 125.4 Q 818.9 125.9, 818.9 126.0 L 818.9 121.9 L 819.6 121.9 L 819.6 127.2 L 818.9 127.2 L 817.0 124.1 Q 816.8 123.7, 816.6 123.3 Q 816.4 122.9, 816.3 122.8 L 816.3 127.2 L 815.6 127.2 L 815.6 121.9 L 816.5 121.9 " fill="#0000FF"/>
<path class="atom-3" d="M 820.6 122.7 L 822.4 122.7 L 822.4 123.1 L 820.6 123.1 L 820.6 122.7 " fill="#0000FF"/>
<path class="atom-4" d="M 828.3 107.4 L 830.0 110.2 Q 830.2 110.5, 830.5 111.0 Q 830.8 111.5, 830.8 111.5 L 830.8 107.4 L 831.5 107.4 L 831.5 112.7 L 830.7 112.7 L 828.9 109.6 Q 828.7 109.3, 828.4 108.9 Q 828.2 108.5, 828.1 108.3 L 828.1 112.7 L 827.5 112.7 L 827.5 107.4 L 828.3 107.4 " fill="#0000FF"/>
<path class="atom-4" d="M 832.5 108.4 L 833.4 108.4 L 833.4 107.4 L 833.8 107.4 L 833.8 108.4 L 834.8 108.4 L 834.8 108.7 L 833.8 108.7 L 833.8 109.7 L 833.4 109.7 L 833.4 108.7 L 832.5 108.7 L 832.5 108.4 " fill="#0000FF"/>
<path class="atom-6" d="M 822.2 72.1 L 823.9 74.9 Q 824.1 75.1, 824.4 75.6 Q 824.7 76.1, 824.7 76.2 L 824.7 72.1 L 825.4 72.1 L 825.4 77.4 L 824.6 77.4 L 822.8 74.3 Q 822.6 73.9, 822.3 73.5 Q 822.1 73.1, 822.0 73.0 L 822.0 77.4 L 821.4 77.4 L 821.4 72.1 L 822.2 72.1 " fill="#0000FF"/>
<path class="atom-7" d="M 836.0 59.4 L 837.7 62.2 Q 837.9 62.5, 838.2 63.0 Q 838.4 63.5, 838.4 63.5 L 838.4 59.4 L 839.1 59.4 L 839.1 64.7 L 838.4 64.7 L 836.6 61.7 Q 836.3 61.3, 836.1 60.9 Q 835.9 60.5, 835.8 60.4 L 835.8 64.7 L 835.1 64.7 L 835.1 59.4 L 836.0 59.4 " fill="#0000FF"/>
<path class="atom-7" d="M 840.1 60.4 L 841.1 60.4 L 841.1 59.4 L 841.5 59.4 L 841.5 60.4 L 842.4 60.4 L 842.4 60.7 L 841.5 60.7 L 841.5 61.7 L 841.1 61.7 L 841.1 60.7 L 840.1 60.7 L 840.1 60.4 " fill="#0000FF"/>
<path class="atom-9" d="M 787.5 62.9 L 789.2 65.7 Q 789.4 66.0, 789.7 66.5 Q 790.0 67.0, 790.0 67.0 L 790.0 62.9 L 790.7 62.9 L 790.7 68.2 L 790.0 68.2 L 788.1 65.2 Q 787.9 64.8, 787.7 64.4 Q 787.4 64.0, 787.4 63.8 L 787.4 68.2 L 786.7 68.2 L 786.7 62.9 L 787.5 62.9 " fill="#0000FF"/>
<path class="atom-9" d="M 786.6 57.1 L 787.3 57.1 L 787.3 59.4 L 790.0 59.4 L 790.0 57.1 L 790.8 57.1 L 790.8 62.4 L 790.0 62.4 L 790.0 60.0 L 787.3 60.0 L 787.3 62.4 L 786.6 62.4 L 786.6 57.1 " fill="#0000FF"/>
<path class="atom-12" d="M 768.0 109.1 L 769.7 111.9 Q 769.9 112.2, 770.2 112.7 Q 770.4 113.2, 770.5 113.2 L 770.5 109.1 L 771.2 109.1 L 771.2 114.4 L 770.4 114.4 L 768.6 111.3 Q 768.4 111.0, 768.1 110.6 Q 767.9 110.1, 767.8 110.0 L 767.8 114.4 L 767.1 114.4 L 767.1 109.1 L 768.0 109.1 " fill="#0000FF"/>
<path class="atom-14" d="M 748.7 138.6 Q 748.7 137.4, 749.3 136.7 Q 749.9 135.9, 751.1 135.9 Q 752.3 135.9, 752.9 136.7 Q 753.5 137.4, 753.5 138.6 Q 753.5 139.9, 752.9 140.7 Q 752.3 141.4, 751.1 141.4 Q 750.0 141.4, 749.3 140.7 Q 748.7 139.9, 748.7 138.6 M 751.1 140.8 Q 751.9 140.8, 752.4 140.2 Q 752.8 139.7, 752.8 138.6 Q 752.8 137.6, 752.4 137.1 Q 751.9 136.5, 751.1 136.5 Q 750.3 136.5, 749.9 137.1 Q 749.4 137.6, 749.4 138.6 Q 749.4 139.7, 749.9 140.2 Q 750.3 140.8, 751.1 140.8 " fill="#FF0000"/>
<path class="atom-23" d="M 773.4 16.6 L 776.5 16.6 L 776.5 17.2 L 774.1 17.2 L 774.1 18.8 L 776.2 18.8 L 776.2 19.4 L 774.1 19.4 L 774.1 21.9 L 773.4 21.9 L 773.4 16.6 " fill="#33CCCC"/>
<path class="atom-26" d="M 717.0 83.1 L 718.7 85.9 Q 718.9 86.2, 719.2 86.7 Q 719.5 87.2, 719.5 87.3 L 719.5 83.1 L 720.2 83.1 L 720.2 88.4 L 719.5 88.4 L 717.6 85.4 Q 717.4 85.0, 717.1 84.6 Q 716.9 84.2, 716.9 84.1 L 716.9 88.4 L 716.2 88.4 L 716.2 83.1 L 717.0 83.1 " fill="#0000FF"/>
<path class="atom-36" d="M 656.2 121.3 L 656.9 121.3 L 656.9 123.6 L 659.6 123.6 L 659.6 121.3 L 660.3 121.3 L 660.3 126.6 L 659.6 126.6 L 659.6 124.2 L 656.9 124.2 L 656.9 126.6 L 656.2 126.6 L 656.2 121.3 " fill="#FF0000"/>
<path class="atom-36" d="M 661.4 124.0 Q 661.4 122.7, 662.0 122.0 Q 662.6 121.3, 663.8 121.3 Q 665.0 121.3, 665.6 122.0 Q 666.2 122.7, 666.2 124.0 Q 666.2 125.3, 665.6 126.0 Q 665.0 126.7, 663.8 126.7 Q 662.6 126.7, 662.0 126.0 Q 661.4 125.3, 661.4 124.0 M 663.8 126.1 Q 664.6 126.1, 665.0 125.6 Q 665.5 125.0, 665.5 124.0 Q 665.5 122.9, 665.0 122.4 Q 664.6 121.9, 663.8 121.9 Q 663.0 121.9, 662.6 122.4 Q 662.1 122.9, 662.1 124.0 Q 662.1 125.0, 662.6 125.6 Q 663.0 126.1, 663.8 126.1 " fill="#FF0000"/>
<path class="atom-0" d="M 770.2,139.6 L 770.2,139.7 L 770.2,139.7 L 770.2,139.7 L 770.2,139.8 L 770.2,139.8 L 770.2,139.8 L 770.2,139.9 L 770.2,139.9 L 770.1,139.9 L 770.1,139.9 L 770.1,140.0 L 770.1,140.0 L 770.0,140.0 L 770.0,140.0 L 770.0,140.0 L 769.9,140.0 L 769.9,140.0 L 769.9,140.0 L 769.8,140.0 L 769.8,140.0 L 769.8,140.0 L 769.8,140.0 L 769.7,140.0 L 769.7,140.0 L 769.7,140.0 L 769.6,139.9 L 769.6,139.9 L 769.6,139.9 L 769.6,139.9 L 769.6,139.8 L 769.5,139.8 L 769.5,139.8 L 769.5,139.8 L 769.5,139.7 L 769.5,139.7 L 769.5,139.7 L 769.5,139.6 L 769.5,139.6 L 769.5,139.6 L 769.5,139.5 L 769.5,139.5 L 769.5,139.5 L 769.6,139.4 L 769.6,139.4 L 769.6,139.4 L 769.6,139.4 L 769.6,139.4 L 769.7,139.3 L 769.7,139.3 L 769.7,139.3 L 769.8,139.3 L 769.8,139.3 L 769.8,139.3 L 769.8,139.3 L 769.9,139.3 L 769.9,139.3 L 769.9,139.3 L 770.0,139.3 L 770.0,139.3 L 770.0,139.3 L 770.1,139.3 L 770.1,139.3 L 770.1,139.4 L 770.1,139.4 L 770.2,139.4 L 770.2,139.4 L 770.2,139.5 L 770.2,139.5 L 770.2,139.5 L 770.2,139.6 L 770.2,139.6 L 770.2,139.6 L 770.2,139.6 L 769.9,139.6 Z" style="fill:#000000;fill-rule:evenodd;fill-opacity:1;stroke:#000000;stroke-width:0.0px;stroke-linecap:butt;stroke-linejoin:miter;stroke-opacity:1;"/>
<path class="atom-0" d="M 770.2,143.4 L 770.2,143.4 L 770.2,143.4 L 770.2,143.5 L 770.2,143.5 L 770.2,143.5 L 770.2,143.6 L 770.2,143.6 L 770.2,143.6 L 770.1,143.6 L 770.1,143.7 L 770.1,143.7 L 770.1,143.7 L 770.0,143.7 L 770.0,143.7 L 770.0,143.7 L 769.9,143.8 L 769.9,143.8 L 769.9,143.8 L 769.8,143.8 L 769.8,143.8 L 769.8,143.7 L 769.8,143.7 L 769.7,143.7 L 769.7,143.7 L 769.7,143.7 L 769.6,143.7 L 769.6,143.7 L 769.6,143.6 L 769.6,143.6 L 769.6,143.6 L 769.5,143.6 L 769.5,143.5 L 769.5,143.5 L 769.5,143.5 L 769.5,143.4 L 769.5,143.4 L 769.5,143.4 L 769.5,143.3 L 769.5,143.3 L 769.5,143.3 L 769.5,143.2 L 769.5,143.2 L 769.6,143.2 L 769.6,143.2 L 769.6,143.1 L 769.6,143.1 L 769.6,143.1 L 769.7,143.1 L 769.7,143.1 L 769.7,143.0 L 769.8,143.0 L 769.8,143.0 L 769.8,143.0 L 769.8,143.0 L 769.9,143.0 L 769.9,143.0 L 769.9,143.0 L 770.0,143.0 L 770.0,143.0 L 770.0,143.0 L 770.1,143.1 L 770.1,143.1 L 770.1,143.1 L 770.1,143.1 L 770.2,143.1 L 770.2,143.2 L 770.2,143.2 L 770.2,143.2 L 770.2,143.3 L 770.2,143.3 L 770.2,143.3 L 770.2,143.4 L 770.2,143.4 L 769.9,143.4 Z" style="fill:#000000;fill-rule:evenodd;fill-opacity:1;stroke:#000000;stroke-width:0.0px;stroke-linecap:butt;stroke-linejoin:miter;stroke-opacity:1;"/>
<path class="atom-0" d="M 770.2,141.5 L 770.2,141.5 L 770.2,141.6 L 770.2,141.6 L 770.2,141.6 L 770.2,141.7 L 770.2,141.7 L 770.2,141.7 L 770.2,141.8 L 770.1,141.8 L 770.1,141.8 L 770.1,141.8 L 770.1,141.8 L 770.0,141.9 L 770.0,141.9 L 770.0,141.9 L 769.9,141.9 L 769.9,141.9 L 769.9,141.9 L 769.8,141.9 L 769.8,141.9 L 769.8,141.9 L 769.8,141.9 L 769.7,141.9 L 769.7,141.8 L 769.7,141.8 L 769.6,141.8 L 769.6,141.8 L 769.6,141.8 L 769.6,141.7 L 769.6,141.7 L 769.5,141.7 L 769.5,141.7 L 769.5,141.6 L 769.5,141.6 L 769.5,141.6 L 769.5,141.5 L 769.5,141.5 L 769.5,141.5 L 769.5,141.4 L 769.5,141.4 L 769.5,141.4 L 769.5,141.3 L 769.6,141.3 L 769.6,141.3 L 769.6,141.3 L 769.6,141.2 L 769.6,141.2 L 769.7,141.2 L 769.7,141.2 L 769.7,141.2 L 769.8,141.2 L 769.8,141.2 L 769.8,141.1 L 769.8,141.1 L 769.9,141.1 L 769.9,141.1 L 769.9,141.1 L 770.0,141.2 L 770.0,141.2 L 770.0,141.2 L 770.1,141.2 L 770.1,141.2 L 770.1,141.2 L 770.1,141.3 L 770.2,141.3 L 770.2,141.3 L 770.2,141.3 L 770.2,141.4 L 770.2,141.4 L 770.2,141.4 L 770.2,141.5 L 770.2,141.5 L 770.2,141.5 L 769.9,141.5 Z" style="fill:#000000;fill-rule:evenodd;fill-opacity:1;stroke:#000000;stroke-width:0.0px;stroke-linecap:butt;stroke-linejoin:miter;stroke-opacity:1;"/>
<path class="atom-4" d="M 836.3,110.8 L 836.3,110.8 L 836.3,110.9 L 836.3,110.9 L 836.2,110.9 L 836.2,111.0 L 836.2,111.0 L 836.2,111.0 L 836.2,111.0 L 836.2,111.1 L 836.1,111.1 L 836.1,111.1 L 836.1,111.1 L 836.1,111.1 L 836.0,111.1 L 836.0,111.2 L 836.0,111.2 L 835.9,111.2 L 835.9,111.2 L 835.9,111.2 L 835.8,111.2 L 835.8,111.2 L 835.8,111.2 L 835.7,111.1 L 835.7,111.1 L 835.7,111.1 L 835.7,111.1 L 835.6,111.1 L 835.6,111.0 L 835.6,111.0 L 835.6,111.0 L 835.6,111.0 L 835.5,110.9 L 835.5,110.9 L 835.5,110.9 L 835.5,110.8 L 835.5,110.8 L 835.5,110.8 L 835.5,110.8 L 835.5,110.7 L 835.5,110.7 L 835.5,110.7 L 835.6,110.6 L 835.6,110.6 L 835.6,110.6 L 835.6,110.5 L 835.6,110.5 L 835.7,110.5 L 835.7,110.5 L 835.7,110.5 L 835.7,110.5 L 835.8,110.4 L 835.8,110.4 L 835.8,110.4 L 835.9,110.4 L 835.9,110.4 L 835.9,110.4 L 836.0,110.4 L 836.0,110.4 L 836.0,110.4 L 836.1,110.5 L 836.1,110.5 L 836.1,110.5 L 836.1,110.5 L 836.2,110.5 L 836.2,110.6 L 836.2,110.6 L 836.2,110.6 L 836.2,110.6 L 836.2,110.7 L 836.3,110.7 L 836.3,110.7 L 836.3,110.8 L 836.3,110.8 L 835.9,110.8 Z" style="fill:#000000;fill-rule:evenodd;fill-opacity:1;stroke:#000000;stroke-width:0.0px;stroke-linecap:butt;stroke-linejoin:miter;stroke-opacity:1;"/>
<path class="atom-4" d="M 836.3,109.3 L 836.3,109.3 L 836.3,109.4 L 836.3,109.4 L 836.2,109.4 L 836.2,109.5 L 836.2,109.5 L 836.2,109.5 L 836.2,109.5 L 836.2,109.6 L 836.1,109.6 L 836.1,109.6 L 836.1,109.6 L 836.1,109.6 L 836.0,109.7 L 836.0,109.7 L 836.0,109.7 L 835.9,109.7 L 835.9,109.7 L 835.9,109.7 L 835.8,109.7 L 835.8,109.7 L 835.8,109.7 L 835.7,109.6 L 835.7,109.6 L 835.7,109.6 L 835.7,109.6 L 835.6,109.6 L 835.6,109.6 L 835.6,109.5 L 835.6,109.5 L 835.6,109.5 L 835.5,109.4 L 835.5,109.4 L 835.5,109.4 L 835.5,109.4 L 835.5,109.3 L 835.5,109.3 L 835.5,109.3 L 835.5,109.2 L 835.5,109.2 L 835.5,109.2 L 835.6,109.1 L 835.6,109.1 L 835.6,109.1 L 835.6,109.1 L 835.6,109.0 L 835.7,109.0 L 835.7,109.0 L 835.7,109.0 L 835.7,109.0 L 835.8,108.9 L 835.8,108.9 L 835.8,108.9 L 835.9,108.9 L 835.9,108.9 L 835.9,108.9 L 836.0,108.9 L 836.0,108.9 L 836.0,109.0 L 836.1,109.0 L 836.1,109.0 L 836.1,109.0 L 836.1,109.0 L 836.2,109.0 L 836.2,109.1 L 836.2,109.1 L 836.2,109.1 L 836.2,109.1 L 836.2,109.2 L 836.3,109.2 L 836.3,109.2 L 836.3,109.3 L 836.3,109.3 L 835.9,109.3 Z" style="fill:#000000;fill-rule:evenodd;fill-opacity:1;stroke:#000000;stroke-width:0.0px;stroke-linecap:butt;stroke-linejoin:miter;stroke-opacity:1;"/>
<path class="atom-7" d="M 843.9,60.2 L 843.9,60.2 L 843.9,60.3 L 843.9,60.3 L 843.9,60.3 L 843.9,60.4 L 843.9,60.4 L 843.9,60.4 L 843.9,60.4 L 843.8,60.5 L 843.8,60.5 L 843.8,60.5 L 843.8,60.5 L 843.7,60.5 L 843.7,60.6 L 843.7,60.6 L 843.6,60.6 L 843.6,60.6 L 843.6,60.6 L 843.5,60.6 L 843.5,60.6 L 843.5,60.6 L 843.4,60.6 L 843.4,60.6 L 843.4,60.5 L 843.4,60.5 L 843.3,60.5 L 843.3,60.5 L 843.3,60.5 L 843.3,60.4 L 843.3,60.4 L 843.2,60.4 L 843.2,60.4 L 843.2,60.3 L 843.2,60.3 L 843.2,60.3 L 843.2,60.2 L 843.2,60.2 L 843.2,60.2 L 843.2,60.1 L 843.2,60.1 L 843.2,60.1 L 843.2,60.0 L 843.3,60.0 L 843.3,60.0 L 843.3,60.0 L 843.3,59.9 L 843.3,59.9 L 843.4,59.9 L 843.4,59.9 L 843.4,59.9 L 843.4,59.9 L 843.5,59.8 L 843.5,59.8 L 843.5,59.8 L 843.6,59.8 L 843.6,59.8 L 843.6,59.8 L 843.7,59.9 L 843.7,59.9 L 843.7,59.9 L 843.8,59.9 L 843.8,59.9 L 843.8,59.9 L 843.8,60.0 L 843.9,60.0 L 843.9,60.0 L 843.9,60.0 L 843.9,60.1 L 843.9,60.1 L 843.9,60.1 L 843.9,60.1 L 843.9,60.2 L 843.9,60.2 L 843.6,60.2 Z" style="fill:#000000;fill-rule:evenodd;fill-opacity:1;stroke:#000000;stroke-width:0.0px;stroke-linecap:butt;stroke-linejoin:miter;stroke-opacity:1;"/>
<path class="atom-7" d="M 843.9,63.9 L 843.9,64.0 L 843.9,64.0 L 843.9,64.0 L 843.9,64.1 L 843.9,64.1 L 843.9,64.1 L 843.9,64.2 L 843.9,64.2 L 843.8,64.2 L 843.8,64.2 L 843.8,64.3 L 843.8,64.3 L 843.7,64.3 L 843.7,64.3 L 843.7,64.3 L 843.6,64.3 L 843.6,64.3 L 843.6,64.3 L 843.5,64.3 L 843.5,64.3 L 843.5,64.3 L 843.4,64.3 L 843.4,64.3 L 843.4,64.3 L 843.4,64.3 L 843.3,64.2 L 843.3,64.2 L 843.3,64.2 L 843.3,64.2 L 843.3,64.1 L 843.2,64.1 L 843.2,64.1 L 843.2,64.1 L 843.2,64.0 L 843.2,64.0 L 843.2,64.0 L 843.2,63.9 L 843.2,63.9 L 843.2,63.9 L 843.2,63.8 L 843.2,63.8 L 843.2,63.8 L 843.3,63.8 L 843.3,63.7 L 843.3,63.7 L 843.3,63.7 L 843.3,63.7 L 843.4,63.6 L 843.4,63.6 L 843.4,63.6 L 843.4,63.6 L 843.5,63.6 L 843.5,63.6 L 843.5,63.6 L 843.6,63.6 L 843.6,63.6 L 843.6,63.6 L 843.7,63.6 L 843.7,63.6 L 843.7,63.6 L 843.8,63.6 L 843.8,63.6 L 843.8,63.7 L 843.8,63.7 L 843.9,63.7 L 843.9,63.7 L 843.9,63.8 L 843.9,63.8 L 843.9,63.8 L 843.9,63.9 L 843.9,63.9 L 843.9,63.9 L 843.9,63.9 L 843.6,63.9 Z" style="fill:#000000;fill-rule:evenodd;fill-opacity:1;stroke:#000000;stroke-width:0.0px;stroke-linecap:butt;stroke-linejoin:miter;stroke-opacity:1;"/>
<path class="atom-7" d="M 843.9,62.1 L 843.9,62.1 L 843.9,62.1 L 843.9,62.2 L 843.9,62.2 L 843.9,62.2 L 843.9,62.3 L 843.9,62.3 L 843.9,62.3 L 843.8,62.3 L 843.8,62.4 L 843.8,62.4 L 843.8,62.4 L 843.7,62.4 L 843.7,62.4 L 843.7,62.4 L 843.6,62.4 L 843.6,62.5 L 843.6,62.5 L 843.5,62.5 L 843.5,62.5 L 843.5,62.4 L 843.4,62.4 L 843.4,62.4 L 843.4,62.4 L 843.4,62.4 L 843.3,62.4 L 843.3,62.4 L 843.3,62.3 L 843.3,62.3 L 843.3,62.3 L 843.2,62.3 L 843.2,62.2 L 843.2,62.2 L 843.2,62.2 L 843.2,62.1 L 843.2,62.1 L 843.2,62.1 L 843.2,62.0 L 843.2,62.0 L 843.2,62.0 L 843.2,61.9 L 843.2,61.9 L 843.3,61.9 L 843.3,61.9 L 843.3,61.8 L 843.3,61.8 L 843.3,61.8 L 843.4,61.8 L 843.4,61.8 L 843.4,61.7 L 843.4,61.7 L 843.5,61.7 L 843.5,61.7 L 843.5,61.7 L 843.6,61.7 L 843.6,61.7 L 843.6,61.7 L 843.7,61.7 L 843.7,61.7 L 843.7,61.7 L 843.8,61.8 L 843.8,61.8 L 843.8,61.8 L 843.8,61.8 L 843.9,61.8 L 843.9,61.9 L 843.9,61.9 L 843.9,61.9 L 843.9,62.0 L 843.9,62.0 L 843.9,62.0 L 843.9,62.0 L 843.9,62.1 L 843.6,62.1 Z" style="fill:#000000;fill-rule:evenodd;fill-opacity:1;stroke:#000000;stroke-width:0.0px;stroke-linecap:butt;stroke-linejoin:miter;stroke-opacity:1;"/>
</svg>