<svg baseProfile="full" height="160px" version="1.1" viewBox="0 0 1500 160" width="1500px" xml:space="preserve" xmlns="http://www.w3.org/2000/svg" xmlns:rdkit="http://www.rdkit.org/xml" xmlns:xlink="http://www.w3.org/1999/xlink">
<!-- END OF HEADER -->
<rect height="160.0" style="opacity:1.0;fill:#FFFFFF;stroke:none" width="1500.0" x="0.0" y="0.0"> </rect>
<rect height="160.0" style="opacity:1.0;fill:#FFFFFF;stroke:none" width="1500.0" x="0.0" y="0.0"> </rect>
<rect height="160.0" style="opacity:1.0;fill:#FFFFFF;stroke:none" width="1500.0" x="0.0" y="0.0"> </rect>
<path class="bond-0 atom-0 atom-1" d="M 148.1,36.7 L 165.3,41.9" style="fill:none;fill-rule:evenodd;stroke:#000000;stroke-width:2.0px;stroke-linecap:butt;stroke-linejoin:miter;stroke-opacity:1"/>
<path class="bond-1 atom-1 atom-2" d="M 165.3,41.9 L 178.4,29.7" style="fill:none;fill-rule:evenodd;stroke:#000000;stroke-width:2.0px;stroke-linecap:butt;stroke-linejoin:miter;stroke-opacity:1"/>
<path class="bond-1 atom-1 atom-2" d="M 169.7,42.7 L 178.9,34.2" style="fill:none;fill-rule:evenodd;stroke:#000000;stroke-width:2.0px;stroke-linecap:butt;stroke-linejoin:miter;stroke-opacity:1"/>
<path class="bond-32 atom-7 atom-1" d="M 169.3,59.4 L 165.3,41.9" style="fill:none;fill-rule:evenodd;stroke:#000000;stroke-width:2.0px;stroke-linecap:butt;stroke-linejoin:miter;stroke-opacity:1"/>
<path class="bond-2 atom-2 atom-3" d="M 178.4,29.7 L 176.7,22.5" style="fill:none;fill-rule:evenodd;stroke:#000000;stroke-width:2.0px;stroke-linecap:butt;stroke-linejoin:miter;stroke-opacity:1"/>
<path class="bond-2 atom-2 atom-3" d="M 176.7,22.5 L 175.1,15.2" style="fill:none;fill-rule:evenodd;stroke:#33CCCC;stroke-width:2.0px;stroke-linecap:butt;stroke-linejoin:miter;stroke-opacity:1"/>
<path class="bond-3 atom-2 atom-4" d="M 178.4,29.7 L 195.6,35.0" style="fill:none;fill-rule:evenodd;stroke:#000000;stroke-width:2.0px;stroke-linecap:butt;stroke-linejoin:miter;stroke-opacity:1"/>
<path class="bond-4 atom-4 atom-5" d="M 195.6,35.0 L 199.6,52.4" style="fill:none;fill-rule:evenodd;stroke:#000000;stroke-width:2.0px;stroke-linecap:butt;stroke-linejoin:miter;stroke-opacity:1"/>
<path class="bond-4 atom-4 atom-5" d="M 192.7,38.4 L 195.5,50.6" style="fill:none;fill-rule:evenodd;stroke:#000000;stroke-width:2.0px;stroke-linecap:butt;stroke-linejoin:miter;stroke-opacity:1"/>
<path class="bond-5 atom-5 atom-6" d="M 199.6,52.4 L 186.4,64.7" style="fill:none;fill-rule:evenodd;stroke:#000000;stroke-width:2.0px;stroke-linecap:butt;stroke-linejoin:miter;stroke-opacity:1"/>
<path class="bond-6 atom-6 atom-7" d="M 186.4,64.7 L 169.3,59.4" style="fill:none;fill-rule:evenodd;stroke:#000000;stroke-width:2.0px;stroke-linecap:butt;stroke-linejoin:miter;stroke-opacity:1"/>
<path class="bond-6 atom-6 atom-7" d="M 184.9,60.4 L 172.9,56.8" style="fill:none;fill-rule:evenodd;stroke:#000000;stroke-width:2.0px;stroke-linecap:butt;stroke-linejoin:miter;stroke-opacity:1"/>
<path class="bond-7 atom-7 atom-8" d="M 169.3,59.4 L 156.2,71.6" style="fill:none;fill-rule:evenodd;stroke:#000000;stroke-width:2.0px;stroke-linecap:butt;stroke-linejoin:miter;stroke-opacity:1"/>
<path class="bond-8 atom-8 atom-9" d="M 156.2,71.6 L 160.2,89.1" style="fill:none;fill-rule:evenodd;stroke:#000000;stroke-width:2.0px;stroke-linecap:butt;stroke-linejoin:miter;stroke-opacity:1"/>
<path class="bond-9 atom-9 atom-10" d="M 160.2,89.1 L 148.4,102.6" style="fill:none;fill-rule:evenodd;stroke:#000000;stroke-width:2.0px;stroke-linecap:butt;stroke-linejoin:miter;stroke-opacity:1"/>
<path class="bond-9 atom-9 atom-10" d="M 161.1,93.5 L 152.9,103.0" style="fill:none;fill-rule:evenodd;stroke:#000000;stroke-width:2.0px;stroke-linecap:butt;stroke-linejoin:miter;stroke-opacity:1"/>
<path class="bond-33 atom-26 atom-9" d="M 174.3,95.1 L 167.2,92.1" style="fill:none;fill-rule:evenodd;stroke:#0000FF;stroke-width:2.0px;stroke-linecap:butt;stroke-linejoin:miter;stroke-opacity:1"/>
<path class="bond-33 atom-26 atom-9" d="M 167.2,92.1 L 160.2,89.1" style="fill:none;fill-rule:evenodd;stroke:#000000;stroke-width:2.0px;stroke-linecap:butt;stroke-linejoin:miter;stroke-opacity:1"/>
<path class="bond-10 atom-10 atom-11" d="M 148.4,102.6 L 130.5,101.0" style="fill:none;fill-rule:evenodd;stroke:#000000;stroke-width:2.0px;stroke-linecap:butt;stroke-linejoin:miter;stroke-opacity:1"/>
<path class="bond-19 atom-10 atom-20" d="M 148.4,102.6 L 157.6,118.0" style="fill:none;fill-rule:evenodd;stroke:#000000;stroke-width:2.0px;stroke-linecap:butt;stroke-linejoin:miter;stroke-opacity:1"/>
<path class="bond-11 atom-11 atom-12" d="M 129.1,100.0 L 125.0,105.8" style="fill:none;fill-rule:evenodd;stroke:#000000;stroke-width:2.0px;stroke-linecap:butt;stroke-linejoin:miter;stroke-opacity:1"/>
<path class="bond-11 atom-11 atom-12" d="M 125.0,105.8 L 120.9,111.7" style="fill:none;fill-rule:evenodd;stroke:#FF0000;stroke-width:2.0px;stroke-linecap:butt;stroke-linejoin:miter;stroke-opacity:1"/>
<path class="bond-11 atom-11 atom-12" d="M 132.0,102.1 L 127.9,107.9" style="fill:none;fill-rule:evenodd;stroke:#000000;stroke-width:2.0px;stroke-linecap:butt;stroke-linejoin:miter;stroke-opacity:1"/>
<path class="bond-11 atom-11 atom-12" d="M 127.9,107.9 L 123.8,113.7" style="fill:none;fill-rule:evenodd;stroke:#FF0000;stroke-width:2.0px;stroke-linecap:butt;stroke-linejoin:miter;stroke-opacity:1"/>
<path class="bond-12 atom-11 atom-13" d="M 130.5,101.0 L 127.4,94.4" style="fill:none;fill-rule:evenodd;stroke:#000000;stroke-width:2.0px;stroke-linecap:butt;stroke-linejoin:miter;stroke-opacity:1"/>
<path class="bond-12 atom-11 atom-13" d="M 127.4,94.4 L 124.4,87.8" style="fill:none;fill-rule:evenodd;stroke:#0000FF;stroke-width:2.0px;stroke-linecap:butt;stroke-linejoin:miter;stroke-opacity:1"/>
<path class="bond-13 atom-13 atom-14" d="M 120.6,84.8 L 112.8,84.6" style="fill:none;fill-rule:evenodd;stroke:#0000FF;stroke-width:2.0px;stroke-linecap:butt;stroke-linejoin:miter;stroke-opacity:1"/>
<path class="bond-13 atom-13 atom-14" d="M 112.8,84.6 L 105.0,84.5" style="fill:none;fill-rule:evenodd;stroke:#000000;stroke-width:2.0px;stroke-linecap:butt;stroke-linejoin:miter;stroke-opacity:1"/>
<path class="bond-35 atom-19 atom-13" d="M 134.3,70.9 L 129.8,76.4" style="fill:none;fill-rule:evenodd;stroke:#000000;stroke-width:2.0px;stroke-linecap:butt;stroke-linejoin:miter;stroke-opacity:1"/>
<path class="bond-35 atom-19 atom-13" d="M 129.8,76.4 L 125.3,81.9" style="fill:none;fill-rule:evenodd;stroke:#0000FF;stroke-width:2.0px;stroke-linecap:butt;stroke-linejoin:miter;stroke-opacity:1"/>
<path class="bond-14 atom-14 atom-15" d="M 105.0,84.5 L 94.0,70.4" style="fill:none;fill-rule:evenodd;stroke:#000000;stroke-width:2.0px;stroke-linecap:butt;stroke-linejoin:miter;stroke-opacity:1"/>
<path class="bond-15 atom-15 atom-16" d="M 94.0,70.4 L 98.3,52.9" style="fill:none;fill-rule:evenodd;stroke:#000000;stroke-width:2.0px;stroke-linecap:butt;stroke-linejoin:miter;stroke-opacity:1"/>
<path class="bond-16 atom-16 atom-17" d="M 98.3,52.9 L 105.2,49.7" style="fill:none;fill-rule:evenodd;stroke:#000000;stroke-width:2.0px;stroke-linecap:butt;stroke-linejoin:miter;stroke-opacity:1"/>
<path class="bond-16 atom-16 atom-17" d="M 105.2,49.7 L 112.2,46.5" style="fill:none;fill-rule:evenodd;stroke:#0000FF;stroke-width:2.0px;stroke-linecap:butt;stroke-linejoin:miter;stroke-opacity:1"/>
<path class="bond-17 atom-17 atom-18" d="M 116.9,46.6 L 123.7,50.0" style="fill:none;fill-rule:evenodd;stroke:#0000FF;stroke-width:2.0px;stroke-linecap:butt;stroke-linejoin:miter;stroke-opacity:1"/>
<path class="bond-17 atom-17 atom-18" d="M 123.7,50.0 L 130.6,53.4" style="fill:none;fill-rule:evenodd;stroke:#000000;stroke-width:2.0px;stroke-linecap:butt;stroke-linejoin:miter;stroke-opacity:1"/>
<path class="bond-18 atom-18 atom-19" d="M 130.6,53.4 L 134.3,70.9" style="fill:none;fill-rule:evenodd;stroke:#000000;stroke-width:2.0px;stroke-linecap:butt;stroke-linejoin:miter;stroke-opacity:1"/>
<path class="bond-20 atom-20 atom-21" d="M 157.6,118.0 L 152.4,135.2" style="fill:none;fill-rule:evenodd;stroke:#000000;stroke-width:2.0px;stroke-linecap:butt;stroke-linejoin:miter;stroke-opacity:1"/>
<path class="bond-20 atom-20 atom-21" d="M 160.3,121.6 L 156.6,133.6" style="fill:none;fill-rule:evenodd;stroke:#000000;stroke-width:2.0px;stroke-linecap:butt;stroke-linejoin:miter;stroke-opacity:1"/>
<path class="bond-36 atom-25 atom-20" d="M 175.1,114.0 L 157.6,118.0" style="fill:none;fill-rule:evenodd;stroke:#000000;stroke-width:2.0px;stroke-linecap:butt;stroke-linejoin:miter;stroke-opacity:1"/>
<path class="bond-21 atom-21 atom-22" d="M 152.4,135.2 L 164.6,148.3" style="fill:none;fill-rule:evenodd;stroke:#000000;stroke-width:2.0px;stroke-linecap:butt;stroke-linejoin:miter;stroke-opacity:1"/>
<path class="bond-22 atom-22 atom-23" d="M 164.6,148.3 L 172.1,146.6" style="fill:none;fill-rule:evenodd;stroke:#000000;stroke-width:2.0px;stroke-linecap:butt;stroke-linejoin:miter;stroke-opacity:1"/>
<path class="bond-22 atom-22 atom-23" d="M 172.1,146.6 L 179.7,144.8" style="fill:none;fill-rule:evenodd;stroke:#0000FF;stroke-width:2.0px;stroke-linecap:butt;stroke-linejoin:miter;stroke-opacity:1"/>
<path class="bond-22 atom-22 atom-23" d="M 166.0,144.3 L 171.3,143.1" style="fill:none;fill-rule:evenodd;stroke:#000000;stroke-width:2.0px;stroke-linecap:butt;stroke-linejoin:miter;stroke-opacity:1"/>
<path class="bond-22 atom-22 atom-23" d="M 171.3,143.1 L 176.6,141.8" style="fill:none;fill-rule:evenodd;stroke:#0000FF;stroke-width:2.0px;stroke-linecap:butt;stroke-linejoin:miter;stroke-opacity:1"/>
<path class="bond-23 atom-23 atom-24" d="M 183.0,141.3 L 185.1,134.2" style="fill:none;fill-rule:evenodd;stroke:#0000FF;stroke-width:2.0px;stroke-linecap:butt;stroke-linejoin:miter;stroke-opacity:1"/>
<path class="bond-23 atom-23 atom-24" d="M 185.1,134.2 L 187.3,127.1" style="fill:none;fill-rule:evenodd;stroke:#000000;stroke-width:2.0px;stroke-linecap:butt;stroke-linejoin:miter;stroke-opacity:1"/>
<path class="bond-24 atom-24 atom-25" d="M 187.3,127.1 L 175.1,114.0" style="fill:none;fill-rule:evenodd;stroke:#000000;stroke-width:2.0px;stroke-linecap:butt;stroke-linejoin:miter;stroke-opacity:1"/>
<path class="bond-24 atom-24 atom-25" d="M 182.9,127.6 L 174.3,118.4" style="fill:none;fill-rule:evenodd;stroke:#000000;stroke-width:2.0px;stroke-linecap:butt;stroke-linejoin:miter;stroke-opacity:1"/>
<path class="bond-25 atom-25 atom-26" d="M 175.1,114.0 L 175.8,106.6" style="fill:none;fill-rule:evenodd;stroke:#000000;stroke-width:2.0px;stroke-linecap:butt;stroke-linejoin:miter;stroke-opacity:1"/>
<path class="bond-25 atom-25 atom-26" d="M 175.8,106.6 L 176.4,99.1" style="fill:none;fill-rule:evenodd;stroke:#0000FF;stroke-width:2.0px;stroke-linecap:butt;stroke-linejoin:miter;stroke-opacity:1"/>
<path class="bond-26 atom-26 atom-27" d="M 179.1,94.7 L 185.6,90.8" style="fill:none;fill-rule:evenodd;stroke:#0000FF;stroke-width:2.0px;stroke-linecap:butt;stroke-linejoin:miter;stroke-opacity:1"/>
<path class="bond-26 atom-26 atom-27" d="M 185.6,90.8 L 192.1,86.9" style="fill:none;fill-rule:evenodd;stroke:#000000;stroke-width:2.0px;stroke-linecap:butt;stroke-linejoin:miter;stroke-opacity:1"/>
<path class="bond-27 atom-27 atom-28" d="M 192.1,86.9 L 207.7,95.6" style="fill:none;fill-rule:evenodd;stroke:#000000;stroke-width:2.0px;stroke-linecap:butt;stroke-linejoin:miter;stroke-opacity:1"/>
<path class="bond-27 atom-27 atom-28" d="M 196.2,85.1 L 207.1,91.2" style="fill:none;fill-rule:evenodd;stroke:#000000;stroke-width:2.0px;stroke-linecap:butt;stroke-linejoin:miter;stroke-opacity:1"/>
<path class="bond-34 atom-32 atom-27" d="M 191.8,69.0 L 192.1,86.9" style="fill:none;fill-rule:evenodd;stroke:#000000;stroke-width:2.0px;stroke-linecap:butt;stroke-linejoin:miter;stroke-opacity:1"/>
<path class="bond-28 atom-28 atom-29" d="M 207.7,95.6 L 223.1,86.4" style="fill:none;fill-rule:evenodd;stroke:#000000;stroke-width:2.0px;stroke-linecap:butt;stroke-linejoin:miter;stroke-opacity:1"/>
<path class="bond-29 atom-29 atom-30" d="M 223.1,86.4 L 222.8,68.5" style="fill:none;fill-rule:evenodd;stroke:#000000;stroke-width:2.0px;stroke-linecap:butt;stroke-linejoin:miter;stroke-opacity:1"/>
<path class="bond-29 atom-29 atom-30" d="M 219.5,83.8 L 219.3,71.2" style="fill:none;fill-rule:evenodd;stroke:#000000;stroke-width:2.0px;stroke-linecap:butt;stroke-linejoin:miter;stroke-opacity:1"/>
<path class="bond-30 atom-30 atom-31" d="M 222.8,68.5 L 207.2,59.8" style="fill:none;fill-rule:evenodd;stroke:#000000;stroke-width:2.0px;stroke-linecap:butt;stroke-linejoin:miter;stroke-opacity:1"/>
<path class="bond-31 atom-31 atom-32" d="M 207.2,59.8 L 191.8,69.0" style="fill:none;fill-rule:evenodd;stroke:#000000;stroke-width:2.0px;stroke-linecap:butt;stroke-linejoin:miter;stroke-opacity:1"/>
<path class="bond-31 atom-31 atom-32" d="M 206.7,64.2 L 195.9,70.7" style="fill:none;fill-rule:evenodd;stroke:#000000;stroke-width:2.0px;stroke-linecap:butt;stroke-linejoin:miter;stroke-opacity:1"/>
<path class="atom-3" d="M 172.9 9.7 L 175.9 9.7 L 175.9 10.3 L 173.6 10.3 L 173.6 11.8 L 175.6 11.8 L 175.6 12.4 L 173.6 12.4 L 173.6 14.8 L 172.9 14.8 L 172.9 9.7 " fill="#33CCCC"/>
<path class="atom-12" d="M 117.9 115.7 Q 117.9 114.5, 118.5 113.8 Q 119.1 113.2, 120.2 113.2 Q 121.4 113.2, 122.0 113.8 Q 122.6 114.5, 122.6 115.7 Q 122.6 117.0, 122.0 117.7 Q 121.3 118.4, 120.2 118.4 Q 119.1 118.4, 118.5 117.7 Q 117.9 117.0, 117.9 115.7 M 120.2 117.8 Q 121.0 117.8, 121.4 117.3 Q 121.8 116.8, 121.8 115.7 Q 121.8 114.7, 121.4 114.2 Q 121.0 113.7, 120.2 113.7 Q 119.5 113.7, 119.0 114.2 Q 118.6 114.7, 118.6 115.7 Q 118.6 116.8, 119.0 117.3 Q 119.5 117.8, 120.2 117.8 " fill="#FF0000"/>
<path class="atom-13" d="M 121.8 82.2 L 123.5 84.9 Q 123.7 85.2, 123.9 85.7 Q 124.2 86.2, 124.2 86.2 L 124.2 82.2 L 124.9 82.2 L 124.9 87.3 L 124.2 87.3 L 122.4 84.4 Q 122.2 84.0, 122.0 83.6 Q 121.8 83.2, 121.7 83.1 L 121.7 87.3 L 121.0 87.3 L 121.0 82.2 L 121.8 82.2 " fill="#0000FF"/>
<path class="atom-17" d="M 113.4 42.8 L 115.1 45.5 Q 115.2 45.8, 115.5 46.3 Q 115.8 46.8, 115.8 46.8 L 115.8 42.8 L 116.5 42.8 L 116.5 47.9 L 115.8 47.9 L 114.0 45.0 Q 113.8 44.6, 113.5 44.2 Q 113.3 43.8, 113.3 43.7 L 113.3 47.9 L 112.6 47.9 L 112.6 42.8 L 113.4 42.8 " fill="#0000FF"/>
<path class="atom-17" d="M 112.5 37.2 L 113.2 37.2 L 113.2 39.4 L 115.8 39.4 L 115.8 37.2 L 116.5 37.2 L 116.5 42.3 L 115.8 42.3 L 115.8 40.0 L 113.2 40.0 L 113.2 42.3 L 112.5 42.3 L 112.5 37.2 " fill="#0000FF"/>
<path class="atom-23" d="M 180.9 141.7 L 182.6 144.4 Q 182.8 144.7, 183.0 145.2 Q 183.3 145.7, 183.3 145.7 L 183.3 141.7 L 184.0 141.7 L 184.0 146.8 L 183.3 146.8 L 181.5 143.9 Q 181.3 143.5, 181.1 143.1 Q 180.9 142.7, 180.8 142.6 L 180.8 146.8 L 180.1 146.8 L 180.1 141.7 L 180.9 141.7 " fill="#0000FF"/>
<path class="atom-26" d="M 175.6 93.6 L 177.2 96.3 Q 177.4 96.5, 177.7 97.0 Q 177.9 97.5, 177.9 97.5 L 177.9 93.6 L 178.6 93.6 L 178.6 98.7 L 177.9 98.7 L 176.1 95.7 Q 175.9 95.4, 175.7 95.0 Q 175.5 94.6, 175.4 94.5 L 175.4 98.7 L 174.8 98.7 L 174.8 93.6 L 175.6 93.6 " fill="#0000FF"/>
<path class="bond-0 atom-0 atom-1" d="M 488.8,69.3 L 479.4,58.2" style="fill:none;fill-rule:evenodd;stroke:#000000;stroke-width:2.0px;stroke-linecap:butt;stroke-linejoin:miter;stroke-opacity:1"/>
<path class="bond-1 atom-1 atom-2" d="M 479.4,58.2 L 489.5,43.3" style="fill:none;fill-rule:evenodd;stroke:#000000;stroke-width:2.0px;stroke-linecap:butt;stroke-linejoin:miter;stroke-opacity:1"/>
<path class="bond-1 atom-1 atom-2" d="M 478.0,54.0 L 485.0,43.6" style="fill:none;fill-rule:evenodd;stroke:#000000;stroke-width:2.0px;stroke-linecap:butt;stroke-linejoin:miter;stroke-opacity:1"/>
<path class="bond-35 atom-8 atom-1" d="M 461.5,56.9 L 479.4,58.2" style="fill:none;fill-rule:evenodd;stroke:#000000;stroke-width:2.0px;stroke-linecap:butt;stroke-linejoin:miter;stroke-opacity:1"/>
<path class="bond-2 atom-2 atom-3" d="M 489.5,43.3 L 481.6,27.2" style="fill:none;fill-rule:evenodd;stroke:#000000;stroke-width:2.0px;stroke-linecap:butt;stroke-linejoin:miter;stroke-opacity:1"/>
<path class="bond-3 atom-3 atom-4" d="M 481.6,27.2 L 463.8,25.9" style="fill:none;fill-rule:evenodd;stroke:#000000;stroke-width:2.0px;stroke-linecap:butt;stroke-linejoin:miter;stroke-opacity:1"/>
<path class="bond-3 atom-3 atom-4" d="M 478.7,30.6 L 466.2,29.7" style="fill:none;fill-rule:evenodd;stroke:#000000;stroke-width:2.0px;stroke-linecap:butt;stroke-linejoin:miter;stroke-opacity:1"/>
<path class="bond-4 atom-4 atom-5" d="M 463.8,25.9 L 460.6,19.4" style="fill:none;fill-rule:evenodd;stroke:#000000;stroke-width:2.0px;stroke-linecap:butt;stroke-linejoin:miter;stroke-opacity:1"/>
<path class="bond-4 atom-4 atom-5" d="M 460.6,19.4 L 457.4,12.8" style="fill:none;fill-rule:evenodd;stroke:#33CCCC;stroke-width:2.0px;stroke-linecap:butt;stroke-linejoin:miter;stroke-opacity:1"/>
<path class="bond-5 atom-4 atom-6" d="M 463.8,25.9 L 453.7,40.8" style="fill:none;fill-rule:evenodd;stroke:#000000;stroke-width:2.0px;stroke-linecap:butt;stroke-linejoin:miter;stroke-opacity:1"/>
<path class="bond-6 atom-6 atom-7" d="M 453.7,40.8 L 435.8,39.5" style="fill:none;fill-rule:evenodd;stroke:#000000;stroke-width:2.0px;stroke-linecap:butt;stroke-linejoin:miter;stroke-opacity:1"/>
<path class="bond-7 atom-6 atom-8" d="M 453.7,40.8 L 461.5,56.9" style="fill:none;fill-rule:evenodd;stroke:#000000;stroke-width:2.0px;stroke-linecap:butt;stroke-linejoin:miter;stroke-opacity:1"/>
<path class="bond-7 atom-6 atom-8" d="M 458.1,41.7 L 463.6,52.9" style="fill:none;fill-rule:evenodd;stroke:#000000;stroke-width:2.0px;stroke-linecap:butt;stroke-linejoin:miter;stroke-opacity:1"/>
<path class="bond-8 atom-8 atom-9" d="M 461.5,56.9 L 457.5,62.9" style="fill:none;fill-rule:evenodd;stroke:#000000;stroke-width:2.0px;stroke-linecap:butt;stroke-linejoin:miter;stroke-opacity:1"/>
<path class="bond-8 atom-8 atom-9" d="M 457.5,62.9 L 453.5,68.8" style="fill:none;fill-rule:evenodd;stroke:#FF0000;stroke-width:2.0px;stroke-linecap:butt;stroke-linejoin:miter;stroke-opacity:1"/>
<path class="bond-9 atom-9 atom-10" d="M 453.0,74.9 L 456.2,81.4" style="fill:none;fill-rule:evenodd;stroke:#FF0000;stroke-width:2.0px;stroke-linecap:butt;stroke-linejoin:miter;stroke-opacity:1"/>
<path class="bond-9 atom-9 atom-10" d="M 456.2,81.4 L 459.3,87.9" style="fill:none;fill-rule:evenodd;stroke:#000000;stroke-width:2.0px;stroke-linecap:butt;stroke-linejoin:miter;stroke-opacity:1"/>
<path class="bond-10 atom-10 atom-11" d="M 459.3,87.9 L 450.9,103.7" style="fill:none;fill-rule:evenodd;stroke:#000000;stroke-width:2.0px;stroke-linecap:butt;stroke-linejoin:miter;stroke-opacity:1"/>
<path class="bond-10 atom-10 atom-11" d="M 461.2,92.0 L 455.3,103.1" style="fill:none;fill-rule:evenodd;stroke:#000000;stroke-width:2.0px;stroke-linecap:butt;stroke-linejoin:miter;stroke-opacity:1"/>
<path class="bond-36 atom-28 atom-10" d="M 474.6,90.6 L 467.0,89.3" style="fill:none;fill-rule:evenodd;stroke:#0000FF;stroke-width:2.0px;stroke-linecap:butt;stroke-linejoin:miter;stroke-opacity:1"/>
<path class="bond-36 atom-28 atom-10" d="M 467.0,89.3 L 459.3,87.9" style="fill:none;fill-rule:evenodd;stroke:#000000;stroke-width:2.0px;stroke-linecap:butt;stroke-linejoin:miter;stroke-opacity:1"/>
<path class="bond-11 atom-11 atom-12" d="M 450.9,103.7 L 433.1,106.2" style="fill:none;fill-rule:evenodd;stroke:#000000;stroke-width:2.0px;stroke-linecap:butt;stroke-linejoin:miter;stroke-opacity:1"/>
<path class="bond-20 atom-11 atom-21" d="M 450.9,103.7 L 463.3,116.7" style="fill:none;fill-rule:evenodd;stroke:#000000;stroke-width:2.0px;stroke-linecap:butt;stroke-linejoin:miter;stroke-opacity:1"/>
<path class="bond-12 atom-12 atom-13" d="M 431.5,105.5 L 428.7,112.3" style="fill:none;fill-rule:evenodd;stroke:#000000;stroke-width:2.0px;stroke-linecap:butt;stroke-linejoin:miter;stroke-opacity:1"/>
<path class="bond-12 atom-12 atom-13" d="M 428.7,112.3 L 426.0,119.2" style="fill:none;fill-rule:evenodd;stroke:#FF0000;stroke-width:2.0px;stroke-linecap:butt;stroke-linejoin:miter;stroke-opacity:1"/>
<path class="bond-12 atom-12 atom-13" d="M 434.8,106.9 L 432.0,113.7" style="fill:none;fill-rule:evenodd;stroke:#000000;stroke-width:2.0px;stroke-linecap:butt;stroke-linejoin:miter;stroke-opacity:1"/>
<path class="bond-12 atom-12 atom-13" d="M 432.0,113.7 L 429.3,120.5" style="fill:none;fill-rule:evenodd;stroke:#FF0000;stroke-width:2.0px;stroke-linecap:butt;stroke-linejoin:miter;stroke-opacity:1"/>
<path class="bond-13 atom-12 atom-14" d="M 433.1,106.2 L 428.8,100.6" style="fill:none;fill-rule:evenodd;stroke:#000000;stroke-width:2.0px;stroke-linecap:butt;stroke-linejoin:miter;stroke-opacity:1"/>
<path class="bond-13 atom-12 atom-14" d="M 428.8,100.6 L 424.4,95.1" style="fill:none;fill-rule:evenodd;stroke:#0000FF;stroke-width:2.0px;stroke-linecap:butt;stroke-linejoin:miter;stroke-opacity:1"/>
<path class="bond-14 atom-14 atom-15" d="M 423.3,89.1 L 426.1,82.3" style="fill:none;fill-rule:evenodd;stroke:#0000FF;stroke-width:2.0px;stroke-linecap:butt;stroke-linejoin:miter;stroke-opacity:1"/>
<path class="bond-14 atom-14 atom-15" d="M 426.1,82.3 L 428.9,75.5" style="fill:none;fill-rule:evenodd;stroke:#000000;stroke-width:2.0px;stroke-linecap:butt;stroke-linejoin:miter;stroke-opacity:1"/>
<path class="bond-38 atom-20 atom-14" d="M 404.4,94.5 L 412.0,93.5" style="fill:none;fill-rule:evenodd;stroke:#000000;stroke-width:2.0px;stroke-linecap:butt;stroke-linejoin:miter;stroke-opacity:1"/>
<path class="bond-38 atom-20 atom-14" d="M 412.0,93.5 L 419.7,92.4" style="fill:none;fill-rule:evenodd;stroke:#0000FF;stroke-width:2.0px;stroke-linecap:butt;stroke-linejoin:miter;stroke-opacity:1"/>
<path class="bond-15 atom-15 atom-16" d="M 428.9,75.5 L 417.8,61.3" style="fill:none;fill-rule:evenodd;stroke:#000000;stroke-width:2.0px;stroke-linecap:butt;stroke-linejoin:miter;stroke-opacity:1"/>
<path class="bond-16 atom-16 atom-17" d="M 417.8,61.3 L 410.1,62.4" style="fill:none;fill-rule:evenodd;stroke:#000000;stroke-width:2.0px;stroke-linecap:butt;stroke-linejoin:miter;stroke-opacity:1"/>
<path class="bond-16 atom-16 atom-17" d="M 410.1,62.4 L 402.4,63.4" style="fill:none;fill-rule:evenodd;stroke:#0000FF;stroke-width:2.0px;stroke-linecap:butt;stroke-linejoin:miter;stroke-opacity:1"/>
<path class="bond-17 atom-17 atom-18" d="M 398.9,66.8 L 396.1,73.6" style="fill:none;fill-rule:evenodd;stroke:#0000FF;stroke-width:2.0px;stroke-linecap:butt;stroke-linejoin:miter;stroke-opacity:1"/>
<path class="bond-17 atom-17 atom-18" d="M 396.1,73.6 L 393.3,80.4" style="fill:none;fill-rule:evenodd;stroke:#000000;stroke-width:2.0px;stroke-linecap:butt;stroke-linejoin:miter;stroke-opacity:1"/>
<path class="bond-18 atom-18 atom-19" d="M 393.3,80.4 L 375.6,82.9" style="fill:none;fill-rule:evenodd;stroke:#000000;stroke-width:2.0px;stroke-linecap:butt;stroke-linejoin:miter;stroke-opacity:1"/>
<path class="bond-19 atom-18 atom-20" d="M 393.3,80.4 L 404.4,94.5" style="fill:none;fill-rule:evenodd;stroke:#000000;stroke-width:2.0px;stroke-linecap:butt;stroke-linejoin:miter;stroke-opacity:1"/>
<path class="bond-21 atom-21 atom-22" d="M 463.3,116.7 L 462.1,134.6" style="fill:none;fill-rule:evenodd;stroke:#000000;stroke-width:2.0px;stroke-linecap:butt;stroke-linejoin:miter;stroke-opacity:1"/>
<path class="bond-21 atom-21 atom-22" d="M 466.7,119.6 L 465.8,132.1" style="fill:none;fill-rule:evenodd;stroke:#000000;stroke-width:2.0px;stroke-linecap:butt;stroke-linejoin:miter;stroke-opacity:1"/>
<path class="bond-39 atom-27 atom-21" d="M 479.5,108.8 L 463.3,116.7" style="fill:none;fill-rule:evenodd;stroke:#000000;stroke-width:2.0px;stroke-linecap:butt;stroke-linejoin:miter;stroke-opacity:1"/>
<path class="bond-22 atom-22 atom-23" d="M 462.1,134.6 L 468.3,138.8" style="fill:none;fill-rule:evenodd;stroke:#000000;stroke-width:2.0px;stroke-linecap:butt;stroke-linejoin:miter;stroke-opacity:1"/>
<path class="bond-22 atom-22 atom-23" d="M 468.3,138.8 L 474.6,143.0" style="fill:none;fill-rule:evenodd;stroke:#0000FF;stroke-width:2.0px;stroke-linecap:butt;stroke-linejoin:miter;stroke-opacity:1"/>
<path class="bond-23 atom-23 atom-24" d="M 479.3,143.4 L 486.2,140.1" style="fill:none;fill-rule:evenodd;stroke:#0000FF;stroke-width:2.0px;stroke-linecap:butt;stroke-linejoin:miter;stroke-opacity:1"/>
<path class="bond-23 atom-23 atom-24" d="M 486.2,140.1 L 493.1,136.8" style="fill:none;fill-rule:evenodd;stroke:#000000;stroke-width:2.0px;stroke-linecap:butt;stroke-linejoin:miter;stroke-opacity:1"/>
<path class="bond-24 atom-24 atom-25" d="M 492.1,138.2 L 498.1,142.3" style="fill:none;fill-rule:evenodd;stroke:#000000;stroke-width:2.0px;stroke-linecap:butt;stroke-linejoin:miter;stroke-opacity:1"/>
<path class="bond-24 atom-24 atom-25" d="M 498.1,142.3 L 504.1,146.4" style="fill:none;fill-rule:evenodd;stroke:#FF0000;stroke-width:2.0px;stroke-linecap:butt;stroke-linejoin:miter;stroke-opacity:1"/>
<path class="bond-24 atom-24 atom-25" d="M 494.1,135.3 L 500.1,139.4" style="fill:none;fill-rule:evenodd;stroke:#000000;stroke-width:2.0px;stroke-linecap:butt;stroke-linejoin:miter;stroke-opacity:1"/>
<path class="bond-24 atom-24 atom-25" d="M 500.1,139.4 L 506.1,143.4" style="fill:none;fill-rule:evenodd;stroke:#FF0000;stroke-width:2.0px;stroke-linecap:butt;stroke-linejoin:miter;stroke-opacity:1"/>
<path class="bond-25 atom-24 atom-26" d="M 493.1,136.8 L 494.3,118.9" style="fill:none;fill-rule:evenodd;stroke:#000000;stroke-width:2.0px;stroke-linecap:butt;stroke-linejoin:miter;stroke-opacity:1"/>
<path class="bond-26 atom-26 atom-27" d="M 494.3,118.9 L 479.5,108.8" style="fill:none;fill-rule:evenodd;stroke:#000000;stroke-width:2.0px;stroke-linecap:butt;stroke-linejoin:miter;stroke-opacity:1"/>
<path class="bond-26 atom-26 atom-27" d="M 490.1,120.3 L 479.7,113.3" style="fill:none;fill-rule:evenodd;stroke:#000000;stroke-width:2.0px;stroke-linecap:butt;stroke-linejoin:miter;stroke-opacity:1"/>
<path class="bond-27 atom-27 atom-28" d="M 479.5,108.8 L 478.5,101.4" style="fill:none;fill-rule:evenodd;stroke:#000000;stroke-width:2.0px;stroke-linecap:butt;stroke-linejoin:miter;stroke-opacity:1"/>
<path class="bond-27 atom-27 atom-28" d="M 478.5,101.4 L 477.4,94.0" style="fill:none;fill-rule:evenodd;stroke:#0000FF;stroke-width:2.0px;stroke-linecap:butt;stroke-linejoin:miter;stroke-opacity:1"/>
<path class="bond-28 atom-28 atom-29" d="M 479.4,88.8 L 484.7,83.7" style="fill:none;fill-rule:evenodd;stroke:#0000FF;stroke-width:2.0px;stroke-linecap:butt;stroke-linejoin:miter;stroke-opacity:1"/>
<path class="bond-28 atom-28 atom-29" d="M 484.7,83.7 L 489.9,78.6" style="fill:none;fill-rule:evenodd;stroke:#000000;stroke-width:2.0px;stroke-linecap:butt;stroke-linejoin:miter;stroke-opacity:1"/>
<path class="bond-29 atom-29 atom-30" d="M 489.9,78.6 L 484.3,61.6" style="fill:none;fill-rule:evenodd;stroke:#000000;stroke-width:2.0px;stroke-linecap:butt;stroke-linejoin:miter;stroke-opacity:1"/>
<path class="bond-37 atom-35 atom-29" d="M 506.7,84.8 L 489.9,78.6" style="fill:none;fill-rule:evenodd;stroke:#000000;stroke-width:2.0px;stroke-linecap:butt;stroke-linejoin:miter;stroke-opacity:1"/>
<path class="bond-30 atom-30 atom-31" d="M 484.3,61.6 L 494.1,46.6" style="fill:none;fill-rule:evenodd;stroke:#000000;stroke-width:2.0px;stroke-linecap:butt;stroke-linejoin:miter;stroke-opacity:1"/>
<path class="bond-31 atom-31 atom-32" d="M 494.1,46.6 L 512.0,44.9" style="fill:none;fill-rule:evenodd;stroke:#000000;stroke-width:2.0px;stroke-linecap:butt;stroke-linejoin:miter;stroke-opacity:1"/>
<path class="bond-32 atom-32 atom-33" d="M 512.0,44.9 L 524.4,57.8" style="fill:none;fill-rule:evenodd;stroke:#000000;stroke-width:2.0px;stroke-linecap:butt;stroke-linejoin:miter;stroke-opacity:1"/>
<path class="bond-33 atom-33 atom-34" d="M 524.4,57.8 L 522.1,75.6" style="fill:none;fill-rule:evenodd;stroke:#000000;stroke-width:2.0px;stroke-linecap:butt;stroke-linejoin:miter;stroke-opacity:1"/>
<path class="bond-34 atom-34 atom-35" d="M 522.1,75.6 L 506.7,84.8" style="fill:none;fill-rule:evenodd;stroke:#000000;stroke-width:2.0px;stroke-linecap:butt;stroke-linejoin:miter;stroke-opacity:1"/>
<path class="atom-5" d="M 454.4 7.3 L 457.4 7.3 L 457.4 7.9 L 455.1 7.9 L 455.1 9.4 L 457.2 9.4 L 457.2 10.0 L 455.1 10.0 L 455.1 12.4 L 454.4 12.4 L 454.4 7.3 " fill="#33CCCC"/>
<path class="atom-9" d="M 449.2 71.8 Q 449.2 70.6, 449.8 69.9 Q 450.4 69.2, 451.5 69.2 Q 452.6 69.2, 453.2 69.9 Q 453.8 70.6, 453.8 71.8 Q 453.8 73.0, 453.2 73.7 Q 452.6 74.4, 451.5 74.4 Q 450.4 74.4, 449.8 73.7 Q 449.2 73.0, 449.2 71.8 M 451.5 73.9 Q 452.3 73.9, 452.7 73.3 Q 453.1 72.8, 453.1 71.8 Q 453.1 70.8, 452.7 70.3 Q 452.3 69.8, 451.5 69.8 Q 450.7 69.8, 450.3 70.3 Q 449.9 70.8, 449.9 71.8 Q 449.9 72.8, 450.3 73.3 Q 450.7 73.9, 451.5 73.9 " fill="#FF0000"/>
<path class="atom-13" d="M 424.1 122.9 Q 424.1 121.6, 424.7 121.0 Q 425.3 120.3, 426.4 120.3 Q 427.5 120.3, 428.1 121.0 Q 428.7 121.6, 428.7 122.9 Q 428.7 124.1, 428.1 124.8 Q 427.5 125.5, 426.4 125.5 Q 425.3 125.5, 424.7 124.8 Q 424.1 124.1, 424.1 122.9 M 426.4 124.9 Q 427.2 124.9, 427.6 124.4 Q 428.0 123.9, 428.0 122.9 Q 428.0 121.9, 427.6 121.4 Q 427.2 120.8, 426.4 120.8 Q 425.6 120.8, 425.2 121.3 Q 424.8 121.9, 424.8 122.9 Q 424.8 123.9, 425.2 124.4 Q 425.6 124.9, 426.4 124.9 " fill="#FF0000"/>
<path class="atom-14" d="M 421.0 89.5 L 422.7 92.2 Q 422.8 92.5, 423.1 93.0 Q 423.4 93.5, 423.4 93.5 L 423.4 89.5 L 424.0 89.5 L 424.0 94.6 L 423.3 94.6 L 421.6 91.7 Q 421.4 91.3, 421.1 90.9 Q 420.9 90.5, 420.8 90.4 L 420.8 94.6 L 420.2 94.6 L 420.2 89.5 L 421.0 89.5 " fill="#0000FF"/>
<path class="atom-17" d="M 393.6 61.2 L 394.3 61.2 L 394.3 63.4 L 396.9 63.4 L 396.9 61.2 L 397.5 61.2 L 397.5 66.3 L 396.9 66.3 L 396.9 64.0 L 394.3 64.0 L 394.3 66.3 L 393.6 66.3 L 393.6 61.2 " fill="#0000FF"/>
<path class="atom-17" d="M 398.9 61.2 L 400.6 63.9 Q 400.8 64.2, 401.0 64.7 Q 401.3 65.2, 401.3 65.2 L 401.3 61.2 L 402.0 61.2 L 402.0 66.3 L 401.3 66.3 L 399.5 63.4 Q 399.3 63.0, 399.1 62.6 Q 398.9 62.2, 398.8 62.1 L 398.8 66.3 L 398.1 66.3 L 398.1 61.2 L 398.9 61.2 " fill="#0000FF"/>
<path class="atom-23" d="M 475.8 142.1 L 477.5 144.8 Q 477.6 145.0, 477.9 145.5 Q 478.2 146.0, 478.2 146.0 L 478.2 142.1 L 478.9 142.1 L 478.9 147.1 L 478.2 147.1 L 476.4 144.2 Q 476.2 143.9, 475.9 143.5 Q 475.7 143.1, 475.7 142.9 L 475.7 147.1 L 475.0 147.1 L 475.0 142.1 L 475.8 142.1 " fill="#0000FF"/>
<path class="atom-23" d="M 474.9 147.6 L 475.6 147.6 L 475.6 149.8 L 478.2 149.8 L 478.2 147.6 L 478.9 147.6 L 478.9 152.7 L 478.2 152.7 L 478.2 150.4 L 475.6 150.4 L 475.6 152.7 L 474.9 152.7 L 474.9 147.6 " fill="#0000FF"/>
<path class="atom-25" d="M 505.6 146.8 Q 505.6 145.6, 506.2 144.9 Q 506.8 144.2, 507.9 144.2 Q 509.0 144.2, 509.7 144.9 Q 510.3 145.6, 510.3 146.8 Q 510.3 148.1, 509.6 148.8 Q 509.0 149.5, 507.9 149.5 Q 506.8 149.5, 506.2 148.8 Q 505.6 148.1, 505.6 146.8 M 507.9 148.9 Q 508.7 148.9, 509.1 148.4 Q 509.5 147.8, 509.5 146.8 Q 509.5 145.8, 509.1 145.3 Q 508.7 144.8, 507.9 144.8 Q 507.1 144.8, 506.7 145.3 Q 506.3 145.8, 506.3 146.8 Q 506.3 147.8, 506.7 148.4 Q 507.1 148.9, 507.9 148.9 " fill="#FF0000"/>
<path class="atom-28" d="M 475.9 88.5 L 477.5 91.2 Q 477.7 91.5, 478.0 92.0 Q 478.2 92.4, 478.3 92.5 L 478.3 88.5 L 478.9 88.5 L 478.9 93.6 L 478.2 93.6 L 476.4 90.7 Q 476.2 90.3, 476.0 89.9 Q 475.8 89.5, 475.7 89.4 L 475.7 93.6 L 475.1 93.6 L 475.1 88.5 L 475.9 88.5 " fill="#0000FF"/>
</svg>