<svg baseProfile="full" height="160px" version="1.1" viewBox="0 0 1500 160" width="1500px" xml:space="preserve" xmlns="http://www.w3.org/2000/svg" xmlns:rdkit="http://www.rdkit.org/xml" xmlns:xlink="http://www.w3.org/1999/xlink">
<!-- END OF HEADER -->
<rect height="160.0" style="opacity:1.0;fill:#FFFFFF;stroke:none" width="1500.0" x="0.0" y="0.0"> </rect>
<rect height="160.0" style="opacity:1.0;fill:#FFFFFF;stroke:none" width="1500.0" x="0.0" y="0.0"> </rect>
<rect height="160.0" style="opacity:1.0;fill:#FFFFFF;stroke:none" width="1500.0" x="0.0" y="0.0"> </rect>
<rect height="160.0" style="opacity:1.0;fill:#FFFFFF;stroke:none" width="1500.0" x="0.0" y="0.0"> </rect>
<path class="bond-0 atom-0 atom-1" d="M 250.3,117.8 L 248.4,109.9" style="fill:none;fill-rule:evenodd;stroke:#000000;stroke-width:2.0px;stroke-linecap:butt;stroke-linejoin:miter;stroke-opacity:1"/>
<path class="bond-0 atom-0 atom-1" d="M 248.4,109.9 L 246.5,102.0" style="fill:none;fill-rule:evenodd;stroke:#0000FF;stroke-width:2.0px;stroke-linecap:butt;stroke-linejoin:miter;stroke-opacity:1"/>
<path class="bond-1 atom-1 atom-2" d="M 243.2,97.9 L 229.5,93.9" style="fill:none;fill-rule:evenodd;stroke:#0000FF;stroke-width:2.0px;stroke-linecap:butt;stroke-linejoin:miter;stroke-opacity:1"/>
<path class="bond-2 atom-2 atom-3" d="M 226.7,89.8 L 226.2,81.7" style="fill:none;fill-rule:evenodd;stroke:#0000FF;stroke-width:2.0px;stroke-linecap:butt;stroke-linejoin:miter;stroke-opacity:1"/>
<path class="bond-2 atom-2 atom-3" d="M 226.2,81.7 L 225.8,73.5" style="fill:none;fill-rule:evenodd;stroke:#000000;stroke-width:2.0px;stroke-linecap:butt;stroke-linejoin:miter;stroke-opacity:1"/>
<path class="bond-37 atom-37 atom-2" d="M 215.2,108.9 L 219.9,102.6" style="fill:none;fill-rule:evenodd;stroke:#000000;stroke-width:2.0px;stroke-linecap:butt;stroke-linejoin:miter;stroke-opacity:1"/>
<path class="bond-37 atom-37 atom-2" d="M 219.9,102.6 L 224.5,96.4" style="fill:none;fill-rule:evenodd;stroke:#0000FF;stroke-width:2.0px;stroke-linecap:butt;stroke-linejoin:miter;stroke-opacity:1"/>
<path class="bond-3 atom-3 atom-4" d="M 225.8,73.5 L 212.2,59.2" style="fill:none;fill-rule:evenodd;stroke:#000000;stroke-width:2.0px;stroke-linecap:butt;stroke-linejoin:miter;stroke-opacity:1"/>
<path class="bond-4 atom-4 atom-5" d="M 212.2,59.2 L 203.8,58.3" style="fill:none;fill-rule:evenodd;stroke:#000000;stroke-width:2.0px;stroke-linecap:butt;stroke-linejoin:miter;stroke-opacity:1"/>
<path class="bond-4 atom-4 atom-5" d="M 203.8,58.3 L 195.3,57.3" style="fill:none;fill-rule:evenodd;stroke:#0000FF;stroke-width:2.0px;stroke-linecap:butt;stroke-linejoin:miter;stroke-opacity:1"/>
<path class="bond-5 atom-5 atom-6" d="M 190.1,58.7 L 183.2,63.3" style="fill:none;fill-rule:evenodd;stroke:#0000FF;stroke-width:2.0px;stroke-linecap:butt;stroke-linejoin:miter;stroke-opacity:1"/>
<path class="bond-5 atom-5 atom-6" d="M 183.2,63.3 L 176.3,67.8" style="fill:none;fill-rule:evenodd;stroke:#000000;stroke-width:2.0px;stroke-linecap:butt;stroke-linejoin:miter;stroke-opacity:1"/>
<path class="bond-6 atom-6 atom-7" d="M 176.3,67.8 L 170.7,86.7" style="fill:none;fill-rule:evenodd;stroke:#000000;stroke-width:2.0px;stroke-linecap:butt;stroke-linejoin:miter;stroke-opacity:1"/>
<path class="bond-7 atom-7 atom-8" d="M 170.7,86.7 L 173.9,94.0" style="fill:none;fill-rule:evenodd;stroke:#000000;stroke-width:2.0px;stroke-linecap:butt;stroke-linejoin:miter;stroke-opacity:1"/>
<path class="bond-7 atom-7 atom-8" d="M 173.9,94.0 L 177.1,101.4" style="fill:none;fill-rule:evenodd;stroke:#0000FF;stroke-width:2.0px;stroke-linecap:butt;stroke-linejoin:miter;stroke-opacity:1"/>
<path class="bond-8 atom-8 atom-9" d="M 176.0,107.1 L 170.1,112.7" style="fill:none;fill-rule:evenodd;stroke:#0000FF;stroke-width:2.0px;stroke-linecap:butt;stroke-linejoin:miter;stroke-opacity:1"/>
<path class="bond-8 atom-8 atom-9" d="M 170.1,112.7 L 164.3,118.2" style="fill:none;fill-rule:evenodd;stroke:#000000;stroke-width:2.0px;stroke-linecap:butt;stroke-linejoin:miter;stroke-opacity:1"/>
<path class="bond-35 atom-8 atom-36" d="M 181.2,106.0 L 188.6,109.7" style="fill:none;fill-rule:evenodd;stroke:#0000FF;stroke-width:2.0px;stroke-linecap:butt;stroke-linejoin:miter;stroke-opacity:1"/>
<path class="bond-35 atom-8 atom-36" d="M 188.6,109.7 L 196.1,113.5" style="fill:none;fill-rule:evenodd;stroke:#000000;stroke-width:2.0px;stroke-linecap:butt;stroke-linejoin:miter;stroke-opacity:1"/>
<path class="bond-9 atom-9 atom-10" d="M 162.4,118.6 L 164.3,126.5" style="fill:none;fill-rule:evenodd;stroke:#000000;stroke-width:2.0px;stroke-linecap:butt;stroke-linejoin:miter;stroke-opacity:1"/>
<path class="bond-9 atom-9 atom-10" d="M 164.3,126.5 L 166.2,134.4" style="fill:none;fill-rule:evenodd;stroke:#FF0000;stroke-width:2.0px;stroke-linecap:butt;stroke-linejoin:miter;stroke-opacity:1"/>
<path class="bond-9 atom-9 atom-10" d="M 166.2,117.7 L 168.1,125.6" style="fill:none;fill-rule:evenodd;stroke:#000000;stroke-width:2.0px;stroke-linecap:butt;stroke-linejoin:miter;stroke-opacity:1"/>
<path class="bond-9 atom-9 atom-10" d="M 168.1,125.6 L 170.0,133.5" style="fill:none;fill-rule:evenodd;stroke:#FF0000;stroke-width:2.0px;stroke-linecap:butt;stroke-linejoin:miter;stroke-opacity:1"/>
<path class="bond-10 atom-9 atom-11" d="M 164.3,118.2 L 145.5,112.6" style="fill:none;fill-rule:evenodd;stroke:#000000;stroke-width:2.0px;stroke-linecap:butt;stroke-linejoin:miter;stroke-opacity:1"/>
<path class="bond-11 atom-11 atom-12" d="M 145.5,112.6 L 138.9,94.1" style="fill:none;fill-rule:evenodd;stroke:#000000;stroke-width:2.0px;stroke-linecap:butt;stroke-linejoin:miter;stroke-opacity:1"/>
<path class="bond-11 atom-11 atom-12" d="M 140.8,111.1 L 136.2,98.1" style="fill:none;fill-rule:evenodd;stroke:#000000;stroke-width:2.0px;stroke-linecap:butt;stroke-linejoin:miter;stroke-opacity:1"/>
<path class="bond-38 atom-35 atom-11" d="M 129.9,124.5 L 145.5,112.6" style="fill:none;fill-rule:evenodd;stroke:#000000;stroke-width:2.0px;stroke-linecap:butt;stroke-linejoin:miter;stroke-opacity:1"/>
<path class="bond-12 atom-12 atom-13" d="M 138.9,94.1 L 150.1,77.9" style="fill:none;fill-rule:evenodd;stroke:#000000;stroke-width:2.0px;stroke-linecap:butt;stroke-linejoin:miter;stroke-opacity:1"/>
<path class="bond-21 atom-12 atom-22" d="M 138.9,94.1 L 130.4,94.3" style="fill:none;fill-rule:evenodd;stroke:#000000;stroke-width:2.0px;stroke-linecap:butt;stroke-linejoin:miter;stroke-opacity:1"/>
<path class="bond-21 atom-12 atom-22" d="M 130.4,94.3 L 121.9,94.5" style="fill:none;fill-rule:evenodd;stroke:#0000FF;stroke-width:2.0px;stroke-linecap:butt;stroke-linejoin:miter;stroke-opacity:1"/>
<path class="bond-13 atom-13 atom-14" d="M 150.1,77.9 L 141.6,60.1" style="fill:none;fill-rule:evenodd;stroke:#000000;stroke-width:2.0px;stroke-linecap:butt;stroke-linejoin:miter;stroke-opacity:1"/>
<path class="bond-14 atom-14 atom-15" d="M 141.6,60.1 L 122.1,58.6" style="fill:none;fill-rule:evenodd;stroke:#000000;stroke-width:2.0px;stroke-linecap:butt;stroke-linejoin:miter;stroke-opacity:1"/>
<path class="bond-14 atom-14 atom-15" d="M 139.0,56.0 L 125.3,54.9" style="fill:none;fill-rule:evenodd;stroke:#000000;stroke-width:2.0px;stroke-linecap:butt;stroke-linejoin:miter;stroke-opacity:1"/>
<path class="bond-39 atom-20 atom-14" d="M 152.8,44.0 L 141.6,60.1" style="fill:none;fill-rule:evenodd;stroke:#000000;stroke-width:2.0px;stroke-linecap:butt;stroke-linejoin:miter;stroke-opacity:1"/>
<path class="bond-15 atom-15 atom-16" d="M 122.1,58.6 L 113.6,40.8" style="fill:none;fill-rule:evenodd;stroke:#000000;stroke-width:2.0px;stroke-linecap:butt;stroke-linejoin:miter;stroke-opacity:1"/>
<path class="bond-16 atom-16 atom-17" d="M 113.6,40.8 L 124.8,24.7" style="fill:none;fill-rule:evenodd;stroke:#000000;stroke-width:2.0px;stroke-linecap:butt;stroke-linejoin:miter;stroke-opacity:1"/>
<path class="bond-16 atom-16 atom-17" d="M 118.5,40.6 L 126.3,29.3" style="fill:none;fill-rule:evenodd;stroke:#000000;stroke-width:2.0px;stroke-linecap:butt;stroke-linejoin:miter;stroke-opacity:1"/>
<path class="bond-17 atom-17 atom-18" d="M 124.8,24.7 L 144.3,26.2" style="fill:none;fill-rule:evenodd;stroke:#000000;stroke-width:2.0px;stroke-linecap:butt;stroke-linejoin:miter;stroke-opacity:1"/>
<path class="bond-18 atom-18 atom-19" d="M 144.3,26.2 L 148.8,19.7" style="fill:none;fill-rule:evenodd;stroke:#000000;stroke-width:2.0px;stroke-linecap:butt;stroke-linejoin:miter;stroke-opacity:1"/>
<path class="bond-18 atom-18 atom-19" d="M 148.8,19.7 L 153.3,13.2" style="fill:none;fill-rule:evenodd;stroke:#33CCCC;stroke-width:2.0px;stroke-linecap:butt;stroke-linejoin:miter;stroke-opacity:1"/>
<path class="bond-19 atom-18 atom-20" d="M 144.3,26.2 L 152.8,44.0" style="fill:none;fill-rule:evenodd;stroke:#000000;stroke-width:2.0px;stroke-linecap:butt;stroke-linejoin:miter;stroke-opacity:1"/>
<path class="bond-19 atom-18 atom-20" d="M 142.1,30.6 L 148.0,43.0" style="fill:none;fill-rule:evenodd;stroke:#000000;stroke-width:2.0px;stroke-linecap:butt;stroke-linejoin:miter;stroke-opacity:1"/>
<path class="bond-20 atom-20 atom-21" d="M 152.8,44.0 L 172.4,45.5" style="fill:none;fill-rule:evenodd;stroke:#000000;stroke-width:2.0px;stroke-linecap:butt;stroke-linejoin:miter;stroke-opacity:1"/>
<path class="bond-22 atom-22 atom-23" d="M 116.8,91.3 L 112.1,85.1" style="fill:none;fill-rule:evenodd;stroke:#0000FF;stroke-width:2.0px;stroke-linecap:butt;stroke-linejoin:miter;stroke-opacity:1"/>
<path class="bond-22 atom-22 atom-23" d="M 112.1,85.1 L 107.4,79.0" style="fill:none;fill-rule:evenodd;stroke:#000000;stroke-width:2.0px;stroke-linecap:butt;stroke-linejoin:miter;stroke-opacity:1"/>
<path class="bond-28 atom-22 atom-29" d="M 118.3,97.8 L 116.0,105.6" style="fill:none;fill-rule:evenodd;stroke:#0000FF;stroke-width:2.0px;stroke-linecap:butt;stroke-linejoin:miter;stroke-opacity:1"/>
<path class="bond-28 atom-22 atom-29" d="M 116.0,105.6 L 113.7,113.4" style="fill:none;fill-rule:evenodd;stroke:#000000;stroke-width:2.0px;stroke-linecap:butt;stroke-linejoin:miter;stroke-opacity:1"/>
<path class="bond-23 atom-23 atom-24" d="M 107.4,79.0 L 114.9,60.8" style="fill:none;fill-rule:evenodd;stroke:#000000;stroke-width:2.0px;stroke-linecap:butt;stroke-linejoin:miter;stroke-opacity:1"/>
<path class="bond-23 atom-23 atom-24" d="M 104.9,74.7 L 110.1,62.0" style="fill:none;fill-rule:evenodd;stroke:#000000;stroke-width:2.0px;stroke-linecap:butt;stroke-linejoin:miter;stroke-opacity:1"/>
<path class="bond-40 atom-28 atom-23" d="M 87.9,81.5 L 107.4,79.0" style="fill:none;fill-rule:evenodd;stroke:#000000;stroke-width:2.0px;stroke-linecap:butt;stroke-linejoin:miter;stroke-opacity:1"/>
<path class="bond-24 atom-24 atom-25" d="M 114.9,60.8 L 103.0,45.2" style="fill:none;fill-rule:evenodd;stroke:#000000;stroke-width:2.0px;stroke-linecap:butt;stroke-linejoin:miter;stroke-opacity:1"/>
<path class="bond-25 atom-25 atom-26" d="M 103.0,45.2 L 83.5,47.8" style="fill:none;fill-rule:evenodd;stroke:#000000;stroke-width:2.0px;stroke-linecap:butt;stroke-linejoin:miter;stroke-opacity:1"/>
<path class="bond-25 atom-25 atom-26" d="M 100.5,49.5 L 86.9,51.3" style="fill:none;fill-rule:evenodd;stroke:#000000;stroke-width:2.0px;stroke-linecap:butt;stroke-linejoin:miter;stroke-opacity:1"/>
<path class="bond-26 atom-26 atom-27" d="M 83.5,47.8 L 75.9,65.9" style="fill:none;fill-rule:evenodd;stroke:#000000;stroke-width:2.0px;stroke-linecap:butt;stroke-linejoin:miter;stroke-opacity:1"/>
<path class="bond-27 atom-27 atom-28" d="M 75.9,65.9 L 87.9,81.5" style="fill:none;fill-rule:evenodd;stroke:#000000;stroke-width:2.0px;stroke-linecap:butt;stroke-linejoin:miter;stroke-opacity:1"/>
<path class="bond-27 atom-27 atom-28" d="M 80.8,65.8 L 89.2,76.8" style="fill:none;fill-rule:evenodd;stroke:#000000;stroke-width:2.0px;stroke-linecap:butt;stroke-linejoin:miter;stroke-opacity:1"/>
<path class="bond-29 atom-29 atom-30" d="M 113.7,113.4 L 96.0,121.8" style="fill:none;fill-rule:evenodd;stroke:#000000;stroke-width:2.0px;stroke-linecap:butt;stroke-linejoin:miter;stroke-opacity:1"/>
<path class="bond-29 atom-29 atom-30" d="M 112.7,118.2 L 100.3,124.1" style="fill:none;fill-rule:evenodd;stroke:#000000;stroke-width:2.0px;stroke-linecap:butt;stroke-linejoin:miter;stroke-opacity:1"/>
<path class="bond-41 atom-35 atom-29" d="M 129.9,124.5 L 113.7,113.4" style="fill:none;fill-rule:evenodd;stroke:#000000;stroke-width:2.0px;stroke-linecap:butt;stroke-linejoin:miter;stroke-opacity:1"/>
<path class="bond-30 atom-30 atom-31" d="M 96.0,121.8 L 94.4,141.4" style="fill:none;fill-rule:evenodd;stroke:#000000;stroke-width:2.0px;stroke-linecap:butt;stroke-linejoin:miter;stroke-opacity:1"/>
<path class="bond-31 atom-31 atom-32" d="M 94.4,141.4 L 87.0,144.9" style="fill:none;fill-rule:evenodd;stroke:#000000;stroke-width:2.0px;stroke-linecap:butt;stroke-linejoin:miter;stroke-opacity:1"/>
<path class="bond-31 atom-31 atom-32" d="M 87.0,144.9 L 79.7,148.4" style="fill:none;fill-rule:evenodd;stroke:#FF0000;stroke-width:2.0px;stroke-linecap:butt;stroke-linejoin:miter;stroke-opacity:1"/>
<path class="bond-32 atom-31 atom-33" d="M 94.4,141.4 L 110.6,152.5" style="fill:none;fill-rule:evenodd;stroke:#000000;stroke-width:2.0px;stroke-linecap:butt;stroke-linejoin:miter;stroke-opacity:1"/>
<path class="bond-32 atom-31 atom-33" d="M 99.0,139.8 L 110.4,147.6" style="fill:none;fill-rule:evenodd;stroke:#000000;stroke-width:2.0px;stroke-linecap:butt;stroke-linejoin:miter;stroke-opacity:1"/>
<path class="bond-33 atom-33 atom-34" d="M 110.6,152.5 L 128.3,144.1" style="fill:none;fill-rule:evenodd;stroke:#000000;stroke-width:2.0px;stroke-linecap:butt;stroke-linejoin:miter;stroke-opacity:1"/>
<path class="bond-34 atom-34 atom-35" d="M 128.3,144.1 L 129.9,124.5" style="fill:none;fill-rule:evenodd;stroke:#000000;stroke-width:2.0px;stroke-linecap:butt;stroke-linejoin:miter;stroke-opacity:1"/>
<path class="bond-34 atom-34 atom-35" d="M 124.6,140.9 L 125.7,127.1" style="fill:none;fill-rule:evenodd;stroke:#000000;stroke-width:2.0px;stroke-linecap:butt;stroke-linejoin:miter;stroke-opacity:1"/>
<path class="bond-36 atom-36 atom-37" d="M 196.1,113.5 L 215.2,108.9" style="fill:none;fill-rule:evenodd;stroke:#000000;stroke-width:2.0px;stroke-linecap:butt;stroke-linejoin:miter;stroke-opacity:1"/>
<path class="atom-1" d="M 244.5 95.9 L 246.4 98.9 Q 246.5 99.2, 246.8 99.7 Q 247.1 100.2, 247.1 100.3 L 247.1 95.9 L 247.9 95.9 L 247.9 101.5 L 247.1 101.5 L 245.1 98.3 Q 244.9 97.9, 244.7 97.5 Q 244.4 97.0, 244.4 96.9 L 244.4 101.5 L 243.6 101.5 L 243.6 95.9 L 244.5 95.9 " fill="#0000FF"/>
<path class="atom-2" d="M 225.7 90.3 L 227.5 93.3 Q 227.7 93.6, 228.0 94.1 Q 228.3 94.6, 228.3 94.7 L 228.3 90.3 L 229.0 90.3 L 229.0 95.9 L 228.3 95.9 L 226.3 92.7 Q 226.1 92.3, 225.9 91.9 Q 225.6 91.4, 225.5 91.3 L 225.5 95.9 L 224.8 95.9 L 224.8 90.3 L 225.7 90.3 " fill="#0000FF"/>
<path class="atom-5" d="M 191.5 54.2 L 193.3 57.2 Q 193.5 57.5, 193.8 58.0 Q 194.1 58.5, 194.1 58.5 L 194.1 54.2 L 194.8 54.2 L 194.8 59.8 L 194.1 59.8 L 192.1 56.6 Q 191.9 56.2, 191.7 55.8 Q 191.4 55.3, 191.3 55.2 L 191.3 59.8 L 190.6 59.8 L 190.6 54.2 L 191.5 54.2 " fill="#0000FF"/>
<path class="atom-5" d="M 190.6 48.1 L 191.3 48.1 L 191.3 50.5 L 194.2 50.5 L 194.2 48.1 L 194.9 48.1 L 194.9 53.7 L 194.2 53.7 L 194.2 51.1 L 191.3 51.1 L 191.3 53.7 L 190.6 53.7 L 190.6 48.1 " fill="#0000FF"/>
<path class="atom-8" d="M 177.3 101.9 L 179.1 104.8 Q 179.3 105.1, 179.6 105.7 Q 179.9 106.2, 179.9 106.2 L 179.9 101.9 L 180.7 101.9 L 180.7 107.5 L 179.9 107.5 L 177.9 104.2 Q 177.7 103.9, 177.5 103.4 Q 177.2 103.0, 177.2 102.9 L 177.2 107.5 L 176.4 107.5 L 176.4 101.9 L 177.3 101.9 " fill="#0000FF"/>
<path class="atom-10" d="M 166.3 137.3 Q 166.3 136.0, 167.0 135.2 Q 167.6 134.5, 168.9 134.5 Q 170.1 134.5, 170.7 135.2 Q 171.4 136.0, 171.4 137.3 Q 171.4 138.7, 170.7 139.4 Q 170.1 140.2, 168.9 140.2 Q 167.6 140.2, 167.0 139.4 Q 166.3 138.7, 166.3 137.3 M 168.9 139.6 Q 169.7 139.6, 170.2 139.0 Q 170.6 138.4, 170.6 137.3 Q 170.6 136.2, 170.2 135.7 Q 169.7 135.1, 168.9 135.1 Q 168.0 135.1, 167.5 135.7 Q 167.1 136.2, 167.1 137.3 Q 167.1 138.4, 167.5 139.0 Q 168.0 139.6, 168.9 139.6 " fill="#FF0000"/>
<path class="atom-19" d="M 153.8 7.3 L 157.1 7.3 L 157.1 7.9 L 154.6 7.9 L 154.6 9.6 L 156.9 9.6 L 156.9 10.2 L 154.6 10.2 L 154.6 12.8 L 153.8 12.8 L 153.8 7.3 " fill="#33CCCC"/>
<path class="atom-22" d="M 118.1 91.8 L 119.9 94.7 Q 120.1 95.0, 120.4 95.5 Q 120.6 96.1, 120.7 96.1 L 120.7 91.8 L 121.4 91.8 L 121.4 97.3 L 120.6 97.3 L 118.7 94.1 Q 118.5 93.7, 118.2 93.3 Q 118.0 92.9, 117.9 92.7 L 117.9 97.3 L 117.2 97.3 L 117.2 91.8 L 118.1 91.8 " fill="#0000FF"/>
<path class="atom-32" d="M 69.4 147.1 L 70.1 147.1 L 70.1 149.4 L 73.0 149.4 L 73.0 147.1 L 73.7 147.1 L 73.7 152.6 L 73.0 152.6 L 73.0 150.1 L 70.1 150.1 L 70.1 152.6 L 69.4 152.6 L 69.4 147.1 " fill="#FF0000"/>
<path class="atom-32" d="M 74.1 149.8 Q 74.1 148.5, 74.8 147.8 Q 75.4 147.0, 76.7 147.0 Q 77.9 147.0, 78.5 147.8 Q 79.2 148.5, 79.2 149.8 Q 79.2 151.2, 78.5 152.0 Q 77.9 152.7, 76.7 152.7 Q 75.4 152.7, 74.8 152.0 Q 74.1 151.2, 74.1 149.8 M 76.7 152.1 Q 77.5 152.1, 78.0 151.5 Q 78.4 151.0, 78.4 149.8 Q 78.4 148.8, 78.0 148.2 Q 77.5 147.6, 76.7 147.6 Q 75.8 147.6, 75.3 148.2 Q 74.9 148.7, 74.9 149.8 Q 74.9 151.0, 75.3 151.5 Q 75.8 152.1, 76.7 152.1 " fill="#FF0000"/>
<path d="M 253.1,117.8 L 253.1,117.8 L 253.1,117.8 L 253.1,117.7 L 253.0,117.7 L 253.0,117.7 L 253.0,117.6 L 253.0,117.6 L 253.0,117.6 L 253.0,117.6 L 252.9,117.5 L 252.9,117.5 L 252.9,117.5 L 252.9,117.5 L 252.8,117.5 L 252.8,117.4 L 252.8,117.4 L 252.7,117.4 L 252.7,117.4 L 252.7,117.4 L 252.6,117.4 L 252.6,117.4 L 252.6,117.5 L 252.5,117.5 L 252.5,117.5 L 252.5,117.5 L 252.4,117.5 L 252.4,117.5 L 252.4,117.6 L 252.4,117.6 L 252.3,117.6 L 252.3,117.6 L 252.3,117.7 L 252.3,117.7 L 252.3,117.7 L 252.3,117.8 L 252.3,117.8 L 252.3,117.8 L 252.3,117.9 L 252.3,117.9 L 252.3,117.9 L 252.3,118.0 L 252.3,118.0 L 252.3,118.0 L 252.4,118.1 L 252.4,118.1 L 252.4,118.1 L 252.4,118.1 L 252.5,118.2 L 252.5,118.2 L 252.5,118.2 L 252.6,118.2 L 252.6,118.2 L 252.6,118.2 L 252.7,118.2 L 252.7,118.2 L 252.7,118.2 L 252.8,118.2 L 252.8,118.2 L 252.8,118.2 L 252.9,118.2 L 252.9,118.2 L 252.9,118.1 L 252.9,118.1 L 253.0,118.1 L 253.0,118.1 L 253.0,118.0 L 253.0,118.0 L 253.0,118.0 L 253.0,118.0 L 253.1,117.9 L 253.1,117.9 L 253.1,117.9 L 253.1,117.8 L 252.7,117.8 Z" style="fill:#000000;fill-rule:evenodd;fill-opacity:1;stroke:#000000;stroke-width:0.0px;stroke-linecap:butt;stroke-linejoin:miter;stroke-opacity:1;"/>
<path d="M 253.1,119.4 L 253.1,119.4 L 253.1,119.3 L 253.1,119.3 L 253.0,119.3 L 253.0,119.2 L 253.0,119.2 L 253.0,119.2 L 253.0,119.1 L 253.0,119.1 L 252.9,119.1 L 252.9,119.1 L 252.9,119.1 L 252.9,119.0 L 252.8,119.0 L 252.8,119.0 L 252.8,119.0 L 252.7,119.0 L 252.7,119.0 L 252.7,119.0 L 252.6,119.0 L 252.6,119.0 L 252.6,119.0 L 252.5,119.0 L 252.5,119.1 L 252.5,119.1 L 252.4,119.1 L 252.4,119.1 L 252.4,119.1 L 252.4,119.2 L 252.3,119.2 L 252.3,119.2 L 252.3,119.2 L 252.3,119.3 L 252.3,119.3 L 252.3,119.3 L 252.3,119.4 L 252.3,119.4 L 252.3,119.4 L 252.3,119.5 L 252.3,119.5 L 252.3,119.5 L 252.3,119.6 L 252.3,119.6 L 252.4,119.6 L 252.4,119.7 L 252.4,119.7 L 252.4,119.7 L 252.5,119.7 L 252.5,119.7 L 252.5,119.8 L 252.6,119.8 L 252.6,119.8 L 252.6,119.8 L 252.7,119.8 L 252.7,119.8 L 252.7,119.8 L 252.8,119.8 L 252.8,119.8 L 252.8,119.8 L 252.9,119.8 L 252.9,119.7 L 252.9,119.7 L 252.9,119.7 L 253.0,119.7 L 253.0,119.6 L 253.0,119.6 L 253.0,119.6 L 253.0,119.6 L 253.0,119.5 L 253.1,119.5 L 253.1,119.5 L 253.1,119.4 L 253.1,119.4 L 252.7,119.4 Z" style="fill:#000000;fill-rule:evenodd;fill-opacity:1;stroke:#000000;stroke-width:0.0px;stroke-linecap:butt;stroke-linejoin:miter;stroke-opacity:1;"/>
<path d="M 253.1,116.3 L 253.1,116.2 L 253.1,116.2 L 253.1,116.2 L 253.0,116.1 L 253.0,116.1 L 253.0,116.1 L 253.0,116.0 L 253.0,116.0 L 253.0,116.0 L 252.9,116.0 L 252.9,115.9 L 252.9,115.9 L 252.9,115.9 L 252.8,115.9 L 252.8,115.9 L 252.8,115.9 L 252.7,115.9 L 252.7,115.9 L 252.7,115.9 L 252.6,115.9 L 252.6,115.9 L 252.6,115.9 L 252.5,115.9 L 252.5,115.9 L 252.5,115.9 L 252.4,115.9 L 252.4,116.0 L 252.4,116.0 L 252.4,116.0 L 252.3,116.0 L 252.3,116.1 L 252.3,116.1 L 252.3,116.1 L 252.3,116.2 L 252.3,116.2 L 252.3,116.2 L 252.3,116.3 L 252.3,116.3 L 252.3,116.3 L 252.3,116.4 L 252.3,116.4 L 252.3,116.4 L 252.3,116.5 L 252.4,116.5 L 252.4,116.5 L 252.4,116.5 L 252.4,116.6 L 252.5,116.6 L 252.5,116.6 L 252.5,116.6 L 252.6,116.6 L 252.6,116.6 L 252.6,116.6 L 252.7,116.6 L 252.7,116.6 L 252.7,116.6 L 252.8,116.6 L 252.8,116.6 L 252.8,116.6 L 252.9,116.6 L 252.9,116.6 L 252.9,116.6 L 252.9,116.6 L 253.0,116.5 L 253.0,116.5 L 253.0,116.5 L 253.0,116.4 L 253.0,116.4 L 253.0,116.4 L 253.1,116.4 L 253.1,116.3 L 253.1,116.3 L 253.1,116.3 L 252.7,116.3 Z" style="fill:#000000;fill-rule:evenodd;fill-opacity:1;stroke:#000000;stroke-width:0.0px;stroke-linecap:butt;stroke-linejoin:miter;stroke-opacity:1;"/>
<path d="M 253.1,117.8 L 253.1,117.8 L 253.1,117.8 L 253.1,117.7 L 253.0,117.7 L 253.0,117.7 L 253.0,117.6 L 253.0,117.6 L 253.0,117.6 L 253.0,117.6 L 252.9,117.5 L 252.9,117.5 L 252.9,117.5 L 252.9,117.5 L 252.8,117.5 L 252.8,117.4 L 252.8,117.4 L 252.7,117.4 L 252.7,117.4 L 252.7,117.4 L 252.6,117.4 L 252.6,117.4 L 252.6,117.5 L 252.5,117.5 L 252.5,117.5 L 252.5,117.5 L 252.4,117.5 L 252.4,117.5 L 252.4,117.6 L 252.4,117.6 L 252.3,117.6 L 252.3,117.6 L 252.3,117.7 L 252.3,117.7 L 252.3,117.7 L 252.3,117.8 L 252.3,117.8 L 252.3,117.8 L 252.3,117.9 L 252.3,117.9 L 252.3,117.9 L 252.3,118.0 L 252.3,118.0 L 252.3,118.0 L 252.4,118.1 L 252.4,118.1 L 252.4,118.1 L 252.4,118.1 L 252.5,118.2 L 252.5,118.2 L 252.5,118.2 L 252.6,118.2 L 252.6,118.2 L 252.6,118.2 L 252.7,118.2 L 252.7,118.2 L 252.7,118.2 L 252.8,118.2 L 252.8,118.2 L 252.8,118.2 L 252.9,118.2 L 252.9,118.2 L 252.9,118.1 L 252.9,118.1 L 253.0,118.1 L 253.0,118.1 L 253.0,118.0 L 253.0,118.0 L 253.0,118.0 L 253.0,118.0 L 253.1,117.9 L 253.1,117.9 L 253.1,117.9 L 253.1,117.8 L 252.7,117.8 Z" style="fill:#000000;fill-rule:evenodd;fill-opacity:1;stroke:#000000;stroke-width:0.0px;stroke-linecap:butt;stroke-linejoin:miter;stroke-opacity:1;"/>
<path d="M 249.4,98.7 L 249.4,98.7 L 249.4,98.7 L 249.4,98.6 L 249.4,98.6 L 249.4,98.6 L 249.4,98.5 L 249.4,98.5 L 249.3,98.5 L 249.3,98.4 L 249.3,98.4 L 249.3,98.4 L 249.2,98.4 L 249.2,98.4 L 249.2,98.4 L 249.2,98.3 L 249.1,98.3 L 249.1,98.3 L 249.1,98.3 L 249.0,98.3 L 249.0,98.3 L 249.0,98.3 L 248.9,98.3 L 248.9,98.4 L 248.9,98.4 L 248.8,98.4 L 248.8,98.4 L 248.8,98.4 L 248.8,98.5 L 248.7,98.5 L 248.7,98.5 L 248.7,98.5 L 248.7,98.6 L 248.7,98.6 L 248.7,98.6 L 248.7,98.7 L 248.7,98.7 L 248.7,98.7 L 248.7,98.8 L 248.7,98.8 L 248.7,98.8 L 248.7,98.9 L 248.7,98.9 L 248.7,98.9 L 248.7,99.0 L 248.8,99.0 L 248.8,99.0 L 248.8,99.0 L 248.8,99.0 L 248.9,99.1 L 248.9,99.1 L 248.9,99.1 L 249.0,99.1 L 249.0,99.1 L 249.0,99.1 L 249.1,99.1 L 249.1,99.1 L 249.1,99.1 L 249.2,99.1 L 249.2,99.1 L 249.2,99.1 L 249.2,99.1 L 249.3,99.0 L 249.3,99.0 L 249.3,99.0 L 249.3,99.0 L 249.4,98.9 L 249.4,98.9 L 249.4,98.9 L 249.4,98.9 L 249.4,98.8 L 249.4,98.8 L 249.4,98.8 L 249.4,98.7 L 249.0,98.7 Z" style="fill:#000000;fill-rule:evenodd;fill-opacity:1;stroke:#000000;stroke-width:0.0px;stroke-linecap:butt;stroke-linejoin:miter;stroke-opacity:1;"/>
<path class="bond-0 atom-0 atom-1" d="M 414.1,109.2 L 431.5,118.3" style="fill:none;fill-rule:evenodd;stroke:#000000;stroke-width:2.0px;stroke-linecap:butt;stroke-linejoin:miter;stroke-opacity:1"/>
<path class="bond-1 atom-1 atom-2" d="M 431.5,118.3 L 432.4,137.9" style="fill:none;fill-rule:evenodd;stroke:#000000;stroke-width:2.0px;stroke-linecap:butt;stroke-linejoin:miter;stroke-opacity:1"/>
<path class="bond-1 atom-1 atom-2" d="M 435.6,121.0 L 436.2,134.8" style="fill:none;fill-rule:evenodd;stroke:#000000;stroke-width:2.0px;stroke-linecap:butt;stroke-linejoin:miter;stroke-opacity:1"/>
<path class="bond-39 atom-7 atom-1" d="M 448.1,107.7 L 431.5,118.3" style="fill:none;fill-rule:evenodd;stroke:#000000;stroke-width:2.0px;stroke-linecap:butt;stroke-linejoin:miter;stroke-opacity:1"/>
<path class="bond-2 atom-2 atom-3" d="M 432.4,137.9 L 425.2,142.5" style="fill:none;fill-rule:evenodd;stroke:#000000;stroke-width:2.0px;stroke-linecap:butt;stroke-linejoin:miter;stroke-opacity:1"/>
<path class="bond-2 atom-2 atom-3" d="M 425.2,142.5 L 417.9,147.1" style="fill:none;fill-rule:evenodd;stroke:#33CCCC;stroke-width:2.0px;stroke-linecap:butt;stroke-linejoin:miter;stroke-opacity:1"/>
<path class="bond-3 atom-2 atom-4" d="M 432.4,137.9 L 449.8,147.0" style="fill:none;fill-rule:evenodd;stroke:#000000;stroke-width:2.0px;stroke-linecap:butt;stroke-linejoin:miter;stroke-opacity:1"/>
<path class="bond-4 atom-4 atom-5" d="M 449.8,147.0 L 466.4,136.4" style="fill:none;fill-rule:evenodd;stroke:#000000;stroke-width:2.0px;stroke-linecap:butt;stroke-linejoin:miter;stroke-opacity:1"/>
<path class="bond-4 atom-4 atom-5" d="M 450.2,142.1 L 461.8,134.7" style="fill:none;fill-rule:evenodd;stroke:#000000;stroke-width:2.0px;stroke-linecap:butt;stroke-linejoin:miter;stroke-opacity:1"/>
<path class="bond-5 atom-5 atom-6" d="M 466.4,136.4 L 465.5,116.8" style="fill:none;fill-rule:evenodd;stroke:#000000;stroke-width:2.0px;stroke-linecap:butt;stroke-linejoin:miter;stroke-opacity:1"/>
<path class="bond-6 atom-6 atom-7" d="M 465.5,116.8 L 448.1,107.7" style="fill:none;fill-rule:evenodd;stroke:#000000;stroke-width:2.0px;stroke-linecap:butt;stroke-linejoin:miter;stroke-opacity:1"/>
<path class="bond-6 atom-6 atom-7" d="M 461.1,118.9 L 448.9,112.6" style="fill:none;fill-rule:evenodd;stroke:#000000;stroke-width:2.0px;stroke-linecap:butt;stroke-linejoin:miter;stroke-opacity:1"/>
<path class="bond-7 atom-7 atom-8" d="M 448.1,107.7 L 447.2,88.1" style="fill:none;fill-rule:evenodd;stroke:#000000;stroke-width:2.0px;stroke-linecap:butt;stroke-linejoin:miter;stroke-opacity:1"/>
<path class="bond-8 atom-8 atom-9" d="M 447.2,88.1 L 463.8,77.6" style="fill:none;fill-rule:evenodd;stroke:#000000;stroke-width:2.0px;stroke-linecap:butt;stroke-linejoin:miter;stroke-opacity:1"/>
<path class="bond-9 atom-9 atom-10" d="M 463.8,77.6 L 465.0,57.9" style="fill:none;fill-rule:evenodd;stroke:#000000;stroke-width:2.0px;stroke-linecap:butt;stroke-linejoin:miter;stroke-opacity:1"/>
<path class="bond-9 atom-9 atom-10" d="M 467.9,74.9 L 468.8,61.1" style="fill:none;fill-rule:evenodd;stroke:#000000;stroke-width:2.0px;stroke-linecap:butt;stroke-linejoin:miter;stroke-opacity:1"/>
<path class="bond-40 atom-33 atom-9" d="M 479.5,83.7 L 471.6,80.6" style="fill:none;fill-rule:evenodd;stroke:#0000FF;stroke-width:2.0px;stroke-linecap:butt;stroke-linejoin:miter;stroke-opacity:1"/>
<path class="bond-40 atom-33 atom-9" d="M 471.6,80.6 L 463.8,77.6" style="fill:none;fill-rule:evenodd;stroke:#000000;stroke-width:2.0px;stroke-linecap:butt;stroke-linejoin:miter;stroke-opacity:1"/>
<path class="bond-10 atom-10 atom-11" d="M 465.0,57.9 L 449.9,45.4" style="fill:none;fill-rule:evenodd;stroke:#000000;stroke-width:2.0px;stroke-linecap:butt;stroke-linejoin:miter;stroke-opacity:1"/>
<path class="bond-25 atom-10 atom-26" d="M 465.0,57.9 L 484.0,53.0" style="fill:none;fill-rule:evenodd;stroke:#000000;stroke-width:2.0px;stroke-linecap:butt;stroke-linejoin:miter;stroke-opacity:1"/>
<path class="bond-11 atom-11 atom-12" d="M 451.8,45.8 L 453.1,37.8" style="fill:none;fill-rule:evenodd;stroke:#000000;stroke-width:2.0px;stroke-linecap:butt;stroke-linejoin:miter;stroke-opacity:1"/>
<path class="bond-11 atom-11 atom-12" d="M 453.1,37.8 L 454.5,29.8" style="fill:none;fill-rule:evenodd;stroke:#FF0000;stroke-width:2.0px;stroke-linecap:butt;stroke-linejoin:miter;stroke-opacity:1"/>
<path class="bond-11 atom-11 atom-12" d="M 447.9,45.1 L 449.3,37.1" style="fill:none;fill-rule:evenodd;stroke:#000000;stroke-width:2.0px;stroke-linecap:butt;stroke-linejoin:miter;stroke-opacity:1"/>
<path class="bond-11 atom-11 atom-12" d="M 449.3,37.1 L 450.6,29.1" style="fill:none;fill-rule:evenodd;stroke:#FF0000;stroke-width:2.0px;stroke-linecap:butt;stroke-linejoin:miter;stroke-opacity:1"/>
<path class="bond-12 atom-11 atom-13" d="M 449.9,45.4 L 442.0,48.4" style="fill:none;fill-rule:evenodd;stroke:#000000;stroke-width:2.0px;stroke-linecap:butt;stroke-linejoin:miter;stroke-opacity:1"/>
<path class="bond-12 atom-11 atom-13" d="M 442.0,48.4 L 434.1,51.3" style="fill:none;fill-rule:evenodd;stroke:#0000FF;stroke-width:2.0px;stroke-linecap:butt;stroke-linejoin:miter;stroke-opacity:1"/>
<path class="bond-13 atom-13 atom-14" d="M 431.7,55.6 L 432.3,63.7" style="fill:none;fill-rule:evenodd;stroke:#0000FF;stroke-width:2.0px;stroke-linecap:butt;stroke-linejoin:miter;stroke-opacity:1"/>
<path class="bond-13 atom-13 atom-14" d="M 432.3,63.7 L 432.9,71.9" style="fill:none;fill-rule:evenodd;stroke:#000000;stroke-width:2.0px;stroke-linecap:butt;stroke-linejoin:miter;stroke-opacity:1"/>
<path class="bond-42 atom-25 atom-13" d="M 419.7,36.6 L 424.3,42.8" style="fill:none;fill-rule:evenodd;stroke:#000000;stroke-width:2.0px;stroke-linecap:butt;stroke-linejoin:miter;stroke-opacity:1"/>
<path class="bond-42 atom-25 atom-13" d="M 424.3,42.8 L 429.0,49.0" style="fill:none;fill-rule:evenodd;stroke:#0000FF;stroke-width:2.0px;stroke-linecap:butt;stroke-linejoin:miter;stroke-opacity:1"/>
<path class="bond-14 atom-14 atom-15" d="M 432.9,71.9 L 423.5,89.2" style="fill:none;fill-rule:evenodd;stroke:#000000;stroke-width:2.0px;stroke-linecap:butt;stroke-linejoin:miter;stroke-opacity:1"/>
<path class="bond-15 atom-15 atom-16" d="M 423.5,89.2 L 406.2,98.6" style="fill:none;fill-rule:evenodd;stroke:#000000;stroke-width:2.0px;stroke-linecap:butt;stroke-linejoin:miter;stroke-opacity:1"/>
<path class="bond-16 atom-16 atom-17" d="M 406.2,98.6 L 397.7,98.0" style="fill:none;fill-rule:evenodd;stroke:#000000;stroke-width:2.0px;stroke-linecap:butt;stroke-linejoin:miter;stroke-opacity:1"/>
<path class="bond-16 atom-16 atom-17" d="M 397.7,98.0 L 389.2,97.4" style="fill:none;fill-rule:evenodd;stroke:#0000FF;stroke-width:2.0px;stroke-linecap:butt;stroke-linejoin:miter;stroke-opacity:1"/>
<path class="bond-17 atom-17 atom-18" d="M 385.4,100.5 L 381.0,112.4" style="fill:none;fill-rule:evenodd;stroke:#0000FF;stroke-width:2.0px;stroke-linecap:butt;stroke-linejoin:miter;stroke-opacity:1"/>
<path class="bond-18 atom-17 atom-19" d="M 384.0,95.2 L 373.4,87.3" style="fill:none;fill-rule:evenodd;stroke:#0000FF;stroke-width:2.0px;stroke-linecap:butt;stroke-linejoin:miter;stroke-opacity:1"/>
<path class="bond-19 atom-19 atom-20" d="M 368.3,87.4 L 359.5,94.0" style="fill:none;fill-rule:evenodd;stroke:#0000FF;stroke-width:2.0px;stroke-linecap:butt;stroke-linejoin:miter;stroke-opacity:1"/>
<path class="bond-20 atom-19 atom-21" d="M 369.7,82.1 L 366.9,74.6" style="fill:none;fill-rule:evenodd;stroke:#0000FF;stroke-width:2.0px;stroke-linecap:butt;stroke-linejoin:miter;stroke-opacity:1"/>
<path class="bond-20 atom-19 atom-21" d="M 366.9,74.6 L 364.0,67.0" style="fill:none;fill-rule:evenodd;stroke:#000000;stroke-width:2.0px;stroke-linecap:butt;stroke-linejoin:miter;stroke-opacity:1"/>
<path class="bond-21 atom-21 atom-22" d="M 364.0,67.0 L 368.2,47.8" style="fill:none;fill-rule:evenodd;stroke:#000000;stroke-width:2.0px;stroke-linecap:butt;stroke-linejoin:miter;stroke-opacity:1"/>
<path class="bond-22 atom-22 atom-23" d="M 368.2,47.8 L 373.5,42.5" style="fill:none;fill-rule:evenodd;stroke:#000000;stroke-width:2.0px;stroke-linecap:butt;stroke-linejoin:miter;stroke-opacity:1"/>
<path class="bond-22 atom-22 atom-23" d="M 373.5,42.5 L 378.8,37.2" style="fill:none;fill-rule:evenodd;stroke:#0000FF;stroke-width:2.0px;stroke-linecap:butt;stroke-linejoin:miter;stroke-opacity:1"/>
<path class="bond-23 atom-23 atom-24" d="M 384.7,33.4 L 393.0,31.5" style="fill:none;fill-rule:evenodd;stroke:#0000FF;stroke-width:2.0px;stroke-linecap:butt;stroke-linejoin:miter;stroke-opacity:1"/>
<path class="bond-23 atom-23 atom-24" d="M 393.0,31.5 L 401.3,29.7" style="fill:none;fill-rule:evenodd;stroke:#000000;stroke-width:2.0px;stroke-linecap:butt;stroke-linejoin:miter;stroke-opacity:1"/>
<path class="bond-24 atom-24 atom-25" d="M 401.3,29.7 L 419.7,36.6" style="fill:none;fill-rule:evenodd;stroke:#000000;stroke-width:2.0px;stroke-linecap:butt;stroke-linejoin:miter;stroke-opacity:1"/>
<path class="bond-26 atom-26 atom-27" d="M 484.0,53.0 L 493.1,35.6" style="fill:none;fill-rule:evenodd;stroke:#000000;stroke-width:2.0px;stroke-linecap:butt;stroke-linejoin:miter;stroke-opacity:1"/>
<path class="bond-26 atom-26 atom-27" d="M 488.9,52.2 L 495.2,40.0" style="fill:none;fill-rule:evenodd;stroke:#000000;stroke-width:2.0px;stroke-linecap:butt;stroke-linejoin:miter;stroke-opacity:1"/>
<path class="bond-43 atom-32 atom-26" d="M 494.6,69.6 L 484.0,53.0" style="fill:none;fill-rule:evenodd;stroke:#000000;stroke-width:2.0px;stroke-linecap:butt;stroke-linejoin:miter;stroke-opacity:1"/>
<path class="bond-27 atom-27 atom-28" d="M 493.1,35.6 L 512.7,34.8" style="fill:none;fill-rule:evenodd;stroke:#000000;stroke-width:2.0px;stroke-linecap:butt;stroke-linejoin:miter;stroke-opacity:1"/>
<path class="bond-28 atom-28 atom-29" d="M 512.7,34.8 L 523.3,51.3" style="fill:none;fill-rule:evenodd;stroke:#000000;stroke-width:2.0px;stroke-linecap:butt;stroke-linejoin:miter;stroke-opacity:1"/>
<path class="bond-28 atom-28 atom-29" d="M 511.0,39.4 L 518.4,51.0" style="fill:none;fill-rule:evenodd;stroke:#000000;stroke-width:2.0px;stroke-linecap:butt;stroke-linejoin:miter;stroke-opacity:1"/>
<path class="bond-29 atom-29 atom-30" d="M 523.3,51.3 L 531.6,51.0" style="fill:none;fill-rule:evenodd;stroke:#000000;stroke-width:2.0px;stroke-linecap:butt;stroke-linejoin:miter;stroke-opacity:1"/>
<path class="bond-29 atom-29 atom-30" d="M 531.6,51.0 L 539.9,50.6" style="fill:none;fill-rule:evenodd;stroke:#FF0000;stroke-width:2.0px;stroke-linecap:butt;stroke-linejoin:miter;stroke-opacity:1"/>
<path class="bond-30 atom-29 atom-31" d="M 523.3,51.3 L 514.2,68.8" style="fill:none;fill-rule:evenodd;stroke:#000000;stroke-width:2.0px;stroke-linecap:butt;stroke-linejoin:miter;stroke-opacity:1"/>
<path class="bond-31 atom-31 atom-32" d="M 514.2,68.8 L 494.6,69.6" style="fill:none;fill-rule:evenodd;stroke:#000000;stroke-width:2.0px;stroke-linecap:butt;stroke-linejoin:miter;stroke-opacity:1"/>
<path class="bond-31 atom-31 atom-32" d="M 511.1,65.0 L 497.4,65.6" style="fill:none;fill-rule:evenodd;stroke:#000000;stroke-width:2.0px;stroke-linecap:butt;stroke-linejoin:miter;stroke-opacity:1"/>
<path class="bond-32 atom-32 atom-33" d="M 494.6,69.6 L 489.6,75.6" style="fill:none;fill-rule:evenodd;stroke:#000000;stroke-width:2.0px;stroke-linecap:butt;stroke-linejoin:miter;stroke-opacity:1"/>
<path class="bond-32 atom-32 atom-33" d="M 489.6,75.6 L 484.7,81.6" style="fill:none;fill-rule:evenodd;stroke:#0000FF;stroke-width:2.0px;stroke-linecap:butt;stroke-linejoin:miter;stroke-opacity:1"/>
<path class="bond-33 atom-33 atom-34" d="M 482.9,88.0 L 485.0,95.9" style="fill:none;fill-rule:evenodd;stroke:#0000FF;stroke-width:2.0px;stroke-linecap:butt;stroke-linejoin:miter;stroke-opacity:1"/>
<path class="bond-33 atom-33 atom-34" d="M 485.0,95.9 L 487.0,103.8" style="fill:none;fill-rule:evenodd;stroke:#000000;stroke-width:2.0px;stroke-linecap:butt;stroke-linejoin:miter;stroke-opacity:1"/>
<path class="bond-34 atom-34 atom-35" d="M 487.0,103.8 L 473.0,117.5" style="fill:none;fill-rule:evenodd;stroke:#000000;stroke-width:2.0px;stroke-linecap:butt;stroke-linejoin:miter;stroke-opacity:1"/>
<path class="bond-34 atom-34 atom-35" d="M 487.6,108.6 L 477.8,118.3" style="fill:none;fill-rule:evenodd;stroke:#000000;stroke-width:2.0px;stroke-linecap:butt;stroke-linejoin:miter;stroke-opacity:1"/>
<path class="bond-41 atom-39 atom-34" d="M 505.9,109.0 L 487.0,103.8" style="fill:none;fill-rule:evenodd;stroke:#000000;stroke-width:2.0px;stroke-linecap:butt;stroke-linejoin:miter;stroke-opacity:1"/>
<path class="bond-35 atom-35 atom-36" d="M 473.0,117.5 L 477.9,136.6" style="fill:none;fill-rule:evenodd;stroke:#000000;stroke-width:2.0px;stroke-linecap:butt;stroke-linejoin:miter;stroke-opacity:1"/>
<path class="bond-36 atom-36 atom-37" d="M 477.9,136.6 L 496.8,141.8" style="fill:none;fill-rule:evenodd;stroke:#000000;stroke-width:2.0px;stroke-linecap:butt;stroke-linejoin:miter;stroke-opacity:1"/>
<path class="bond-36 atom-36 atom-37" d="M 481.8,133.6 L 495.0,137.2" style="fill:none;fill-rule:evenodd;stroke:#000000;stroke-width:2.0px;stroke-linecap:butt;stroke-linejoin:miter;stroke-opacity:1"/>
<path class="bond-37 atom-37 atom-38" d="M 496.8,141.8 L 510.8,128.1" style="fill:none;fill-rule:evenodd;stroke:#000000;stroke-width:2.0px;stroke-linecap:butt;stroke-linejoin:miter;stroke-opacity:1"/>
<path class="bond-38 atom-38 atom-39" d="M 510.8,128.1 L 505.9,109.0" style="fill:none;fill-rule:evenodd;stroke:#000000;stroke-width:2.0px;stroke-linecap:butt;stroke-linejoin:miter;stroke-opacity:1"/>
<path class="bond-38 atom-38 atom-39" d="M 506.3,126.2 L 502.9,112.9" style="fill:none;fill-rule:evenodd;stroke:#000000;stroke-width:2.0px;stroke-linecap:butt;stroke-linejoin:miter;stroke-opacity:1"/>
<path class="atom-3" d="M 414.1 145.7 L 417.4 145.7 L 417.4 146.3 L 414.9 146.3 L 414.9 148.0 L 417.2 148.0 L 417.2 148.6 L 414.9 148.6 L 414.9 151.2 L 414.1 151.2 L 414.1 145.7 " fill="#33CCCC"/>
<path class="atom-12" d="M 450.6 26.1 Q 450.6 24.8, 451.2 24.0 Q 451.9 23.3, 453.1 23.3 Q 454.3 23.3, 455.0 24.0 Q 455.7 24.8, 455.7 26.1 Q 455.7 27.4, 455.0 28.2 Q 454.3 29.0, 453.1 29.0 Q 451.9 29.0, 451.2 28.2 Q 450.6 27.4, 450.6 26.1 M 453.1 28.3 Q 454.0 28.3, 454.4 27.8 Q 454.9 27.2, 454.9 26.1 Q 454.9 25.0, 454.4 24.4 Q 454.0 23.9, 453.1 23.9 Q 452.3 23.9, 451.8 24.4 Q 451.3 25.0, 451.3 26.1 Q 451.3 27.2, 451.8 27.8 Q 452.3 28.3, 453.1 28.3 " fill="#FF0000"/>
<path class="atom-13" d="M 430.2 49.5 L 432.1 52.5 Q 432.2 52.8, 432.5 53.3 Q 432.8 53.8, 432.8 53.9 L 432.8 49.5 L 433.6 49.5 L 433.6 55.1 L 432.8 55.1 L 430.9 51.9 Q 430.6 51.5, 430.4 51.1 Q 430.1 50.6, 430.1 50.5 L 430.1 55.1 L 429.4 55.1 L 429.4 49.5 L 430.2 49.5 " fill="#0000FF"/>
<path class="atom-17" d="M 385.4 94.4 L 387.2 97.3 Q 387.4 97.6, 387.7 98.2 Q 388.0 98.7, 388.0 98.7 L 388.0 94.4 L 388.7 94.4 L 388.7 100.0 L 388.0 100.0 L 386.0 96.7 Q 385.8 96.4, 385.6 95.9 Q 385.3 95.5, 385.2 95.4 L 385.2 100.0 L 384.5 100.0 L 384.5 94.4 L 385.4 94.4 " fill="#0000FF"/>
<path class="atom-18" d="M 378.5 112.8 L 380.4 115.8 Q 380.6 116.0, 380.8 116.6 Q 381.1 117.1, 381.1 117.1 L 381.1 112.8 L 381.9 112.8 L 381.9 118.4 L 381.1 118.4 L 379.2 115.1 Q 378.9 114.8, 378.7 114.3 Q 378.5 113.9, 378.4 113.8 L 378.4 118.4 L 377.7 118.4 L 377.7 112.8 L 378.5 112.8 " fill="#0000FF"/>
<path class="atom-19" d="M 369.7 82.6 L 371.5 85.6 Q 371.7 85.9, 372.0 86.4 Q 372.3 86.9, 372.3 87.0 L 372.3 82.6 L 373.0 82.6 L 373.0 88.2 L 372.3 88.2 L 370.3 85.0 Q 370.1 84.6, 369.8 84.2 Q 369.6 83.7, 369.5 83.6 L 369.5 88.2 L 368.8 88.2 L 368.8 82.6 L 369.7 82.6 " fill="#0000FF"/>
<path class="atom-20" d="M 354.0 94.4 L 355.8 97.4 Q 356.0 97.6, 356.3 98.2 Q 356.5 98.7, 356.6 98.7 L 356.6 94.4 L 357.3 94.4 L 357.3 100.0 L 356.5 100.0 L 354.6 96.8 Q 354.3 96.4, 354.1 95.9 Q 353.9 95.5, 353.8 95.4 L 353.8 100.0 L 353.1 100.0 L 353.1 94.4 L 354.0 94.4 " fill="#0000FF"/>
<path class="atom-20" d="M 357.8 95.4 L 358.7 95.4 L 358.7 94.4 L 359.2 94.4 L 359.2 95.4 L 360.2 95.4 L 360.2 95.8 L 359.2 95.8 L 359.2 96.8 L 358.7 96.8 L 358.7 95.8 L 357.8 95.8 L 357.8 95.4 " fill="#0000FF"/>
<path class="atom-23" d="M 375.0 31.1 L 375.7 31.1 L 375.7 33.5 L 378.6 33.5 L 378.6 31.1 L 379.3 31.1 L 379.3 36.7 L 378.6 36.7 L 378.6 34.1 L 375.7 34.1 L 375.7 36.7 L 375.0 36.7 L 375.0 31.1 " fill="#0000FF"/>
<path class="atom-23" d="M 380.9 31.1 L 382.7 34.1 Q 382.9 34.4, 383.2 34.9 Q 383.4 35.4, 383.5 35.5 L 383.5 31.1 L 384.2 31.1 L 384.2 36.7 L 383.4 36.7 L 381.5 33.5 Q 381.3 33.1, 381.0 32.7 Q 380.8 32.2, 380.7 32.1 L 380.7 36.7 L 380.0 36.7 L 380.0 31.1 L 380.9 31.1 " fill="#0000FF"/>
<path class="atom-30" d="M 540.4 50.5 Q 540.4 49.2, 541.0 48.4 Q 541.7 47.7, 542.9 47.7 Q 544.1 47.7, 544.8 48.4 Q 545.5 49.2, 545.5 50.5 Q 545.5 51.9, 544.8 52.6 Q 544.1 53.4, 542.9 53.4 Q 541.7 53.4, 541.0 52.6 Q 540.4 51.9, 540.4 50.5 M 542.9 52.8 Q 543.8 52.8, 544.2 52.2 Q 544.7 51.6, 544.7 50.5 Q 544.7 49.4, 544.2 48.9 Q 543.8 48.3, 542.9 48.3 Q 542.1 48.3, 541.6 48.9 Q 541.1 49.4, 541.1 50.5 Q 541.1 51.6, 541.6 52.2 Q 542.1 52.8, 542.9 52.8 " fill="#FF0000"/>
<path class="atom-30" d="M 546.1 47.7 L 546.9 47.7 L 546.9 50.1 L 549.7 50.1 L 549.7 47.7 L 550.5 47.7 L 550.5 53.3 L 549.7 53.3 L 549.7 50.7 L 546.9 50.7 L 546.9 53.3 L 546.1 53.3 L 546.1 47.7 " fill="#FF0000"/>
<path class="atom-33" d="M 480.9 82.0 L 482.7 84.9 Q 482.9 85.2, 483.1 85.7 Q 483.4 86.3, 483.5 86.3 L 483.5 82.0 L 484.2 82.0 L 484.2 87.5 L 483.4 87.5 L 481.5 84.3 Q 481.2 83.9, 481.0 83.5 Q 480.8 83.1, 480.7 82.9 L 480.7 87.5 L 480.0 87.5 L 480.0 82.0 L 480.9 82.0 " fill="#0000FF"/>
<path d="M 406.6,100.3 L 406.6,100.3 L 406.6,100.3 L 406.6,100.2 L 406.6,100.2 L 406.6,100.2 L 406.6,100.1 L 406.6,100.1 L 406.5,100.1 L 406.5,100.1 L 406.5,100.0 L 406.5,100.0 L 406.4,100.0 L 406.4,100.0 L 406.4,100.0 L 406.3,100.0 L 406.3,100.0 L 406.3,100.0 L 406.2,99.9 L 406.2,99.9 L 406.2,100.0 L 406.1,100.0 L 406.1,100.0 L 406.1,100.0 L 406.0,100.0 L 406.0,100.0 L 406.0,100.0 L 406.0,100.1 L 405.9,100.1 L 405.9,100.1 L 405.9,100.1 L 405.9,100.2 L 405.9,100.2 L 405.9,100.2 L 405.8,100.3 L 405.8,100.3 L 405.8,100.3 L 405.8,100.4 L 405.8,100.4 L 405.8,100.4 L 405.9,100.5 L 405.9,100.5 L 405.9,100.5 L 405.9,100.5 L 405.9,100.6 L 405.9,100.6 L 406.0,100.6 L 406.0,100.6 L 406.0,100.7 L 406.0,100.7 L 406.1,100.7 L 406.1,100.7 L 406.1,100.7 L 406.2,100.7 L 406.2,100.7 L 406.2,100.7 L 406.3,100.7 L 406.3,100.7 L 406.3,100.7 L 406.4,100.7 L 406.4,100.7 L 406.4,100.7 L 406.5,100.7 L 406.5,100.6 L 406.5,100.6 L 406.5,100.6 L 406.6,100.6 L 406.6,100.5 L 406.6,100.5 L 406.6,100.5 L 406.6,100.4 L 406.6,100.4 L 406.6,100.4 L 406.6,100.3 L 406.2,100.3 Z" style="fill:#000000;fill-rule:evenodd;fill-opacity:1;stroke:#000000;stroke-width:0.0px;stroke-linecap:butt;stroke-linejoin:miter;stroke-opacity:1;"/>
<path d="M 376.9,114.8 L 376.9,114.8 L 376.9,114.7 L 376.9,114.7 L 376.9,114.7 L 376.8,114.6 L 376.8,114.6 L 376.8,114.6 L 376.8,114.6 L 376.8,114.5 L 376.7,114.5 L 376.7,114.5 L 376.7,114.5 L 376.7,114.4 L 376.6,114.4 L 376.6,114.4 L 376.6,114.4 L 376.5,114.4 L 376.5,114.4 L 376.5,114.4 L 376.4,114.4 L 376.4,114.4 L 376.4,114.4 L 376.3,114.4 L 376.3,114.5 L 376.3,114.5 L 376.2,114.5 L 376.2,114.5 L 376.2,114.5 L 376.2,114.6 L 376.2,114.6 L 376.1,114.6 L 376.1,114.7 L 376.1,114.7 L 376.1,114.7 L 376.1,114.8 L 376.1,114.8 L 376.1,114.8 L 376.1,114.9 L 376.1,114.9 L 376.1,114.9 L 376.1,114.9 L 376.1,115.0 L 376.2,115.0 L 376.2,115.0 L 376.2,115.1 L 376.2,115.1 L 376.2,115.1 L 376.3,115.1 L 376.3,115.1 L 376.3,115.2 L 376.4,115.2 L 376.4,115.2 L 376.4,115.2 L 376.5,115.2 L 376.5,115.2 L 376.5,115.2 L 376.6,115.2 L 376.6,115.2 L 376.6,115.2 L 376.7,115.2 L 376.7,115.1 L 376.7,115.1 L 376.7,115.1 L 376.8,115.1 L 376.8,115.1 L 376.8,115.0 L 376.8,115.0 L 376.8,115.0 L 376.9,114.9 L 376.9,114.9 L 376.9,114.9 L 376.9,114.8 L 376.9,114.8 L 376.5,114.8 Z" style="fill:#000000;fill-rule:evenodd;fill-opacity:1;stroke:#000000;stroke-width:0.0px;stroke-linecap:butt;stroke-linejoin:miter;stroke-opacity:1;"/>
<path d="M 376.9,116.4 L 376.9,116.3 L 376.9,116.3 L 376.9,116.3 L 376.9,116.2 L 376.8,116.2 L 376.8,116.2 L 376.8,116.1 L 376.8,116.1 L 376.8,116.1 L 376.7,116.1 L 376.7,116.1 L 376.7,116.0 L 376.7,116.0 L 376.6,116.0 L 376.6,116.0 L 376.6,116.0 L 376.5,116.0 L 376.5,116.0 L 376.5,116.0 L 376.4,116.0 L 376.4,116.0 L 376.4,116.0 L 376.3,116.0 L 376.3,116.0 L 376.3,116.0 L 376.2,116.1 L 376.2,116.1 L 376.2,116.1 L 376.2,116.1 L 376.2,116.2 L 376.1,116.2 L 376.1,116.2 L 376.1,116.3 L 376.1,116.3 L 376.1,116.3 L 376.1,116.4 L 376.1,116.4 L 376.1,116.4 L 376.1,116.5 L 376.1,116.5 L 376.1,116.5 L 376.1,116.6 L 376.2,116.6 L 376.2,116.6 L 376.2,116.6 L 376.2,116.7 L 376.2,116.7 L 376.3,116.7 L 376.3,116.7 L 376.3,116.7 L 376.4,116.7 L 376.4,116.8 L 376.4,116.8 L 376.5,116.8 L 376.5,116.8 L 376.5,116.8 L 376.6,116.8 L 376.6,116.7 L 376.6,116.7 L 376.7,116.7 L 376.7,116.7 L 376.7,116.7 L 376.7,116.7 L 376.8,116.6 L 376.8,116.6 L 376.8,116.6 L 376.8,116.6 L 376.8,116.5 L 376.9,116.5 L 376.9,116.5 L 376.9,116.4 L 376.9,116.4 L 376.9,116.4 L 376.5,116.4 Z" style="fill:#000000;fill-rule:evenodd;fill-opacity:1;stroke:#000000;stroke-width:0.0px;stroke-linecap:butt;stroke-linejoin:miter;stroke-opacity:1;"/>
<path d="M 352.3,97.2 L 352.3,97.2 L 352.3,97.1 L 352.3,97.1 L 352.3,97.1 L 352.3,97.0 L 352.2,97.0 L 352.2,97.0 L 352.2,96.9 L 352.2,96.9 L 352.2,96.9 L 352.1,96.9 L 352.1,96.9 L 352.1,96.8 L 352.0,96.8 L 352.0,96.8 L 352.0,96.8 L 351.9,96.8 L 351.9,96.8 L 351.9,96.8 L 351.8,96.8 L 351.8,96.8 L 351.8,96.8 L 351.7,96.8 L 351.7,96.8 L 351.7,96.9 L 351.7,96.9 L 351.6,96.9 L 351.6,96.9 L 351.6,97.0 L 351.6,97.0 L 351.5,97.0 L 351.5,97.0 L 351.5,97.1 L 351.5,97.1 L 351.5,97.1 L 351.5,97.2 L 351.5,97.2 L 351.5,97.2 L 351.5,97.3 L 351.5,97.3 L 351.5,97.3 L 351.5,97.4 L 351.6,97.4 L 351.6,97.4 L 351.6,97.5 L 351.6,97.5 L 351.7,97.5 L 351.7,97.5 L 351.7,97.5 L 351.7,97.6 L 351.8,97.6 L 351.8,97.6 L 351.8,97.6 L 351.9,97.6 L 351.9,97.6 L 351.9,97.6 L 352.0,97.6 L 352.0,97.6 L 352.0,97.6 L 352.1,97.5 L 352.1,97.5 L 352.1,97.5 L 352.2,97.5 L 352.2,97.5 L 352.2,97.4 L 352.2,97.4 L 352.2,97.4 L 352.3,97.4 L 352.3,97.3 L 352.3,97.3 L 352.3,97.3 L 352.3,97.2 L 352.3,97.2 L 351.9,97.2 Z" style="fill:#000000;fill-rule:evenodd;fill-opacity:1;stroke:#000000;stroke-width:0.0px;stroke-linecap:butt;stroke-linejoin:miter;stroke-opacity:1;"/>
<path d="M 352.3,98.8 L 352.3,98.7 L 352.3,98.7 L 352.3,98.7 L 352.3,98.6 L 352.3,98.6 L 352.2,98.6 L 352.2,98.5 L 352.2,98.5 L 352.2,98.5 L 352.2,98.5 L 352.1,98.4 L 352.1,98.4 L 352.1,98.4 L 352.0,98.4 L 352.0,98.4 L 352.0,98.4 L 351.9,98.4 L 351.9,98.4 L 351.9,98.4 L 351.8,98.4 L 351.8,98.4 L 351.8,98.4 L 351.7,98.4 L 351.7,98.4 L 351.7,98.4 L 351.7,98.5 L 351.6,98.5 L 351.6,98.5 L 351.6,98.5 L 351.6,98.6 L 351.5,98.6 L 351.5,98.6 L 351.5,98.6 L 351.5,98.7 L 351.5,98.7 L 351.5,98.7 L 351.5,98.8 L 351.5,98.8 L 351.5,98.8 L 351.5,98.9 L 351.5,98.9 L 351.5,98.9 L 351.6,99.0 L 351.6,99.0 L 351.6,99.0 L 351.6,99.1 L 351.7,99.1 L 351.7,99.1 L 351.7,99.1 L 351.7,99.1 L 351.8,99.1 L 351.8,99.1 L 351.8,99.2 L 351.9,99.2 L 351.9,99.2 L 351.9,99.2 L 352.0,99.1 L 352.0,99.1 L 352.0,99.1 L 352.1,99.1 L 352.1,99.1 L 352.1,99.1 L 352.2,99.1 L 352.2,99.0 L 352.2,99.0 L 352.2,99.0 L 352.2,99.0 L 352.3,98.9 L 352.3,98.9 L 352.3,98.9 L 352.3,98.8 L 352.3,98.8 L 352.3,98.8 L 351.9,98.8 Z" style="fill:#000000;fill-rule:evenodd;fill-opacity:1;stroke:#000000;stroke-width:0.0px;stroke-linecap:butt;stroke-linejoin:miter;stroke-opacity:1;"/>
<path d="M 352.3,95.6 L 352.3,95.6 L 352.3,95.6 L 352.3,95.5 L 352.3,95.5 L 352.3,95.5 L 352.2,95.4 L 352.2,95.4 L 352.2,95.4 L 352.2,95.3 L 352.2,95.3 L 352.1,95.3 L 352.1,95.3 L 352.1,95.3 L 352.0,95.3 L 352.0,95.2 L 352.0,95.2 L 351.9,95.2 L 351.9,95.2 L 351.9,95.2 L 351.8,95.2 L 351.8,95.2 L 351.8,95.2 L 351.7,95.3 L 351.7,95.3 L 351.7,95.3 L 351.7,95.3 L 351.6,95.3 L 351.6,95.4 L 351.6,95.4 L 351.6,95.4 L 351.5,95.4 L 351.5,95.5 L 351.5,95.5 L 351.5,95.5 L 351.5,95.6 L 351.5,95.6 L 351.5,95.6 L 351.5,95.7 L 351.5,95.7 L 351.5,95.7 L 351.5,95.8 L 351.5,95.8 L 351.6,95.8 L 351.6,95.9 L 351.6,95.9 L 351.6,95.9 L 351.7,95.9 L 351.7,95.9 L 351.7,96.0 L 351.7,96.0 L 351.8,96.0 L 351.8,96.0 L 351.8,96.0 L 351.9,96.0 L 351.9,96.0 L 351.9,96.0 L 352.0,96.0 L 352.0,96.0 L 352.0,96.0 L 352.1,96.0 L 352.1,96.0 L 352.1,95.9 L 352.2,95.9 L 352.2,95.9 L 352.2,95.9 L 352.2,95.8 L 352.2,95.8 L 352.3,95.8 L 352.3,95.8 L 352.3,95.7 L 352.3,95.7 L 352.3,95.7 L 352.3,95.6 L 351.9,95.6 Z" style="fill:#000000;fill-rule:evenodd;fill-opacity:1;stroke:#000000;stroke-width:0.0px;stroke-linecap:butt;stroke-linejoin:miter;stroke-opacity:1;"/>
<path d="M 352.3,97.2 L 352.3,97.2 L 352.3,97.1 L 352.3,97.1 L 352.3,97.1 L 352.3,97.0 L 352.2,97.0 L 352.2,97.0 L 352.2,96.9 L 352.2,96.9 L 352.2,96.9 L 352.1,96.9 L 352.1,96.9 L 352.1,96.8 L 352.0,96.8 L 352.0,96.8 L 352.0,96.8 L 351.9,96.8 L 351.9,96.8 L 351.9,96.8 L 351.8,96.8 L 351.8,96.8 L 351.8,96.8 L 351.7,96.8 L 351.7,96.8 L 351.7,96.9 L 351.7,96.9 L 351.6,96.9 L 351.6,96.9 L 351.6,97.0 L 351.6,97.0 L 351.5,97.0 L 351.5,97.0 L 351.5,97.1 L 351.5,97.1 L 351.5,97.1 L 351.5,97.2 L 351.5,97.2 L 351.5,97.2 L 351.5,97.3 L 351.5,97.3 L 351.5,97.3 L 351.5,97.4 L 351.6,97.4 L 351.6,97.4 L 351.6,97.5 L 351.6,97.5 L 351.7,97.5 L 351.7,97.5 L 351.7,97.5 L 351.7,97.6 L 351.8,97.6 L 351.8,97.6 L 351.8,97.6 L 351.9,97.6 L 351.9,97.6 L 351.9,97.6 L 352.0,97.6 L 352.0,97.6 L 352.0,97.6 L 352.1,97.5 L 352.1,97.5 L 352.1,97.5 L 352.2,97.5 L 352.2,97.5 L 352.2,97.4 L 352.2,97.4 L 352.2,97.4 L 352.3,97.4 L 352.3,97.3 L 352.3,97.3 L 352.3,97.3 L 352.3,97.2 L 352.3,97.2 L 351.9,97.2 Z" style="fill:#000000;fill-rule:evenodd;fill-opacity:1;stroke:#000000;stroke-width:0.0px;stroke-linecap:butt;stroke-linejoin:miter;stroke-opacity:1;"/>
<path class="bond-0 atom-0 atom-1" d="M 785.9,63.7 L 768.7,54.1" style="fill:none;fill-rule:evenodd;stroke:#000000;stroke-width:2.0px;stroke-linecap:butt;stroke-linejoin:miter;stroke-opacity:1"/>
<path class="bond-1 atom-1 atom-2" d="M 768.7,54.1 L 768.5,34.4" style="fill:none;fill-rule:evenodd;stroke:#000000;stroke-width:2.0px;stroke-linecap:butt;stroke-linejoin:miter;stroke-opacity:1"/>
<path class="bond-1 atom-1 atom-2" d="M 764.8,51.2 L 764.6,37.4" style="fill:none;fill-rule:evenodd;stroke:#000000;stroke-width:2.0px;stroke-linecap:butt;stroke-linejoin:miter;stroke-opacity:1"/>
<path class="bond-38 atom-7 atom-1" d="M 751.8,64.1 L 768.7,54.1" style="fill:none;fill-rule:evenodd;stroke:#000000;stroke-width:2.0px;stroke-linecap:butt;stroke-linejoin:miter;stroke-opacity:1"/>
<path class="bond-2 atom-2 atom-3" d="M 768.5,34.4 L 775.9,30.1" style="fill:none;fill-rule:evenodd;stroke:#000000;stroke-width:2.0px;stroke-linecap:butt;stroke-linejoin:miter;stroke-opacity:1"/>
<path class="bond-2 atom-2 atom-3" d="M 775.9,30.1 L 783.3,25.7" style="fill:none;fill-rule:evenodd;stroke:#33CCCC;stroke-width:2.0px;stroke-linecap:butt;stroke-linejoin:miter;stroke-opacity:1"/>
<path class="bond-3 atom-2 atom-4" d="M 768.5,34.4 L 751.4,24.8" style="fill:none;fill-rule:evenodd;stroke:#000000;stroke-width:2.0px;stroke-linecap:butt;stroke-linejoin:miter;stroke-opacity:1"/>
<path class="bond-4 atom-4 atom-5" d="M 751.4,24.8 L 734.5,34.8" style="fill:none;fill-rule:evenodd;stroke:#000000;stroke-width:2.0px;stroke-linecap:butt;stroke-linejoin:miter;stroke-opacity:1"/>
<path class="bond-4 atom-4 atom-5" d="M 750.9,29.7 L 739.0,36.7" style="fill:none;fill-rule:evenodd;stroke:#000000;stroke-width:2.0px;stroke-linecap:butt;stroke-linejoin:miter;stroke-opacity:1"/>
<path class="bond-5 atom-5 atom-6" d="M 734.5,34.8 L 734.7,54.4" style="fill:none;fill-rule:evenodd;stroke:#000000;stroke-width:2.0px;stroke-linecap:butt;stroke-linejoin:miter;stroke-opacity:1"/>
<path class="bond-6 atom-6 atom-7" d="M 734.7,54.4 L 751.8,64.1" style="fill:none;fill-rule:evenodd;stroke:#000000;stroke-width:2.0px;stroke-linecap:butt;stroke-linejoin:miter;stroke-opacity:1"/>
<path class="bond-6 atom-6 atom-7" d="M 739.2,52.5 L 751.2,59.2" style="fill:none;fill-rule:evenodd;stroke:#000000;stroke-width:2.0px;stroke-linecap:butt;stroke-linejoin:miter;stroke-opacity:1"/>
<path class="bond-7 atom-7 atom-8" d="M 751.8,64.1 L 752.0,83.7" style="fill:none;fill-rule:evenodd;stroke:#000000;stroke-width:2.0px;stroke-linecap:butt;stroke-linejoin:miter;stroke-opacity:1"/>
<path class="bond-8 atom-8 atom-9" d="M 752.0,83.7 L 735.1,93.7" style="fill:none;fill-rule:evenodd;stroke:#000000;stroke-width:2.0px;stroke-linecap:butt;stroke-linejoin:miter;stroke-opacity:1"/>
<path class="bond-9 atom-9 atom-10" d="M 735.1,93.7 L 733.3,113.3" style="fill:none;fill-rule:evenodd;stroke:#000000;stroke-width:2.0px;stroke-linecap:butt;stroke-linejoin:miter;stroke-opacity:1"/>
<path class="bond-9 atom-9 atom-10" d="M 731.0,96.3 L 729.7,110.0" style="fill:none;fill-rule:evenodd;stroke:#000000;stroke-width:2.0px;stroke-linecap:butt;stroke-linejoin:miter;stroke-opacity:1"/>
<path class="bond-39 atom-32 atom-9" d="M 719.7,87.1 L 727.4,90.4" style="fill:none;fill-rule:evenodd;stroke:#0000FF;stroke-width:2.0px;stroke-linecap:butt;stroke-linejoin:miter;stroke-opacity:1"/>
<path class="bond-39 atom-32 atom-9" d="M 727.4,90.4 L 735.1,93.7" style="fill:none;fill-rule:evenodd;stroke:#000000;stroke-width:2.0px;stroke-linecap:butt;stroke-linejoin:miter;stroke-opacity:1"/>
<path class="bond-10 atom-10 atom-11" d="M 733.3,113.3 L 748.0,126.3" style="fill:none;fill-rule:evenodd;stroke:#000000;stroke-width:2.0px;stroke-linecap:butt;stroke-linejoin:miter;stroke-opacity:1"/>
<path class="bond-24 atom-10 atom-25" d="M 733.3,113.3 L 714.1,117.6" style="fill:none;fill-rule:evenodd;stroke:#000000;stroke-width:2.0px;stroke-linecap:butt;stroke-linejoin:miter;stroke-opacity:1"/>
<path class="bond-11 atom-11 atom-12" d="M 746.1,125.9 L 744.5,133.9" style="fill:none;fill-rule:evenodd;stroke:#000000;stroke-width:2.0px;stroke-linecap:butt;stroke-linejoin:miter;stroke-opacity:1"/>
<path class="bond-11 atom-11 atom-12" d="M 744.5,133.9 L 742.9,141.8" style="fill:none;fill-rule:evenodd;stroke:#FF0000;stroke-width:2.0px;stroke-linecap:butt;stroke-linejoin:miter;stroke-opacity:1"/>
<path class="bond-11 atom-11 atom-12" d="M 750.0,126.7 L 748.4,134.6" style="fill:none;fill-rule:evenodd;stroke:#000000;stroke-width:2.0px;stroke-linecap:butt;stroke-linejoin:miter;stroke-opacity:1"/>
<path class="bond-11 atom-11 atom-12" d="M 748.4,134.6 L 746.8,142.6" style="fill:none;fill-rule:evenodd;stroke:#FF0000;stroke-width:2.0px;stroke-linecap:butt;stroke-linejoin:miter;stroke-opacity:1"/>
<path class="bond-12 atom-11 atom-13" d="M 748.0,126.3 L 756.0,123.6" style="fill:none;fill-rule:evenodd;stroke:#000000;stroke-width:2.0px;stroke-linecap:butt;stroke-linejoin:miter;stroke-opacity:1"/>
<path class="bond-12 atom-11 atom-13" d="M 756.0,123.6 L 764.1,120.9" style="fill:none;fill-rule:evenodd;stroke:#0000FF;stroke-width:2.0px;stroke-linecap:butt;stroke-linejoin:miter;stroke-opacity:1"/>
<path class="bond-13 atom-13 atom-14" d="M 769.1,123.3 L 773.7,129.5" style="fill:none;fill-rule:evenodd;stroke:#0000FF;stroke-width:2.0px;stroke-linecap:butt;stroke-linejoin:miter;stroke-opacity:1"/>
<path class="bond-13 atom-13 atom-14" d="M 773.7,129.5 L 778.4,135.8" style="fill:none;fill-rule:evenodd;stroke:#000000;stroke-width:2.0px;stroke-linecap:butt;stroke-linejoin:miter;stroke-opacity:1"/>
<path class="bond-41 atom-24 atom-13" d="M 766.4,100.4 L 766.5,108.5" style="fill:none;fill-rule:evenodd;stroke:#000000;stroke-width:2.0px;stroke-linecap:butt;stroke-linejoin:miter;stroke-opacity:1"/>
<path class="bond-41 atom-24 atom-13" d="M 766.5,108.5 L 766.6,116.7" style="fill:none;fill-rule:evenodd;stroke:#0000FF;stroke-width:2.0px;stroke-linecap:butt;stroke-linejoin:miter;stroke-opacity:1"/>
<path class="bond-14 atom-14 atom-15" d="M 778.4,135.8 L 797.1,141.6" style="fill:none;fill-rule:evenodd;stroke:#000000;stroke-width:2.0px;stroke-linecap:butt;stroke-linejoin:miter;stroke-opacity:1"/>
<path class="bond-15 atom-15 atom-16" d="M 797.1,141.6 L 805.1,138.9" style="fill:none;fill-rule:evenodd;stroke:#000000;stroke-width:2.0px;stroke-linecap:butt;stroke-linejoin:miter;stroke-opacity:1"/>
<path class="bond-15 atom-15 atom-16" d="M 805.1,138.9 L 813.1,136.2" style="fill:none;fill-rule:evenodd;stroke:#0000FF;stroke-width:2.0px;stroke-linecap:butt;stroke-linejoin:miter;stroke-opacity:1"/>
<path class="bond-16 atom-16 atom-17" d="M 818.1,132.1 L 822.6,125.7" style="fill:none;fill-rule:evenodd;stroke:#0000FF;stroke-width:2.0px;stroke-linecap:butt;stroke-linejoin:miter;stroke-opacity:1"/>
<path class="bond-16 atom-16 atom-17" d="M 822.6,125.7 L 827.1,119.4" style="fill:none;fill-rule:evenodd;stroke:#000000;stroke-width:2.0px;stroke-linecap:butt;stroke-linejoin:miter;stroke-opacity:1"/>
<path class="bond-17 atom-17 atom-18" d="M 827.1,119.4 L 826.9,99.7" style="fill:none;fill-rule:evenodd;stroke:#000000;stroke-width:2.0px;stroke-linecap:butt;stroke-linejoin:miter;stroke-opacity:1"/>
<path class="bond-18 atom-18 atom-19" d="M 826.9,99.7 L 822.2,93.5" style="fill:none;fill-rule:evenodd;stroke:#000000;stroke-width:2.0px;stroke-linecap:butt;stroke-linejoin:miter;stroke-opacity:1"/>
<path class="bond-18 atom-18 atom-19" d="M 822.2,93.5 L 817.6,87.2" style="fill:none;fill-rule:evenodd;stroke:#0000FF;stroke-width:2.0px;stroke-linecap:butt;stroke-linejoin:miter;stroke-opacity:1"/>
<path class="bond-19 atom-19 atom-20" d="M 817.5,80.7 L 824.3,71.1" style="fill:none;fill-rule:evenodd;stroke:#0000FF;stroke-width:2.0px;stroke-linecap:butt;stroke-linejoin:miter;stroke-opacity:1"/>
<path class="bond-20 atom-19 atom-21" d="M 812.6,83.1 L 799.0,78.9" style="fill:none;fill-rule:evenodd;stroke:#0000FF;stroke-width:2.0px;stroke-linecap:butt;stroke-linejoin:miter;stroke-opacity:1"/>
<path class="bond-21 atom-21 atom-22" d="M 796.4,74.8 L 796.3,61.6" style="fill:none;fill-rule:evenodd;stroke:#0000FF;stroke-width:2.0px;stroke-linecap:butt;stroke-linejoin:miter;stroke-opacity:1"/>
<path class="bond-22 atom-21 atom-23" d="M 793.8,79.0 L 785.8,81.7" style="fill:none;fill-rule:evenodd;stroke:#0000FF;stroke-width:2.0px;stroke-linecap:butt;stroke-linejoin:miter;stroke-opacity:1"/>
<path class="bond-22 atom-21 atom-23" d="M 785.8,81.7 L 777.8,84.3" style="fill:none;fill-rule:evenodd;stroke:#000000;stroke-width:2.0px;stroke-linecap:butt;stroke-linejoin:miter;stroke-opacity:1"/>
<path class="bond-23 atom-23 atom-24" d="M 777.8,84.3 L 766.4,100.4" style="fill:none;fill-rule:evenodd;stroke:#000000;stroke-width:2.0px;stroke-linecap:butt;stroke-linejoin:miter;stroke-opacity:1"/>
<path class="bond-25 atom-25 atom-26" d="M 714.1,117.6 L 704.5,134.7" style="fill:none;fill-rule:evenodd;stroke:#000000;stroke-width:2.0px;stroke-linecap:butt;stroke-linejoin:miter;stroke-opacity:1"/>
<path class="bond-25 atom-25 atom-26" d="M 709.3,118.2 L 702.5,130.2" style="fill:none;fill-rule:evenodd;stroke:#000000;stroke-width:2.0px;stroke-linecap:butt;stroke-linejoin:miter;stroke-opacity:1"/>
<path class="bond-42 atom-31 atom-25" d="M 704.1,100.7 L 714.1,117.6" style="fill:none;fill-rule:evenodd;stroke:#000000;stroke-width:2.0px;stroke-linecap:butt;stroke-linejoin:miter;stroke-opacity:1"/>
<path class="bond-26 atom-26 atom-27" d="M 704.5,134.7 L 684.9,134.9" style="fill:none;fill-rule:evenodd;stroke:#000000;stroke-width:2.0px;stroke-linecap:butt;stroke-linejoin:miter;stroke-opacity:1"/>
<path class="bond-27 atom-27 atom-28" d="M 684.9,134.9 L 674.8,118.0" style="fill:none;fill-rule:evenodd;stroke:#000000;stroke-width:2.0px;stroke-linecap:butt;stroke-linejoin:miter;stroke-opacity:1"/>
<path class="bond-27 atom-27 atom-28" d="M 686.7,130.4 L 679.7,118.5" style="fill:none;fill-rule:evenodd;stroke:#000000;stroke-width:2.0px;stroke-linecap:butt;stroke-linejoin:miter;stroke-opacity:1"/>
<path class="bond-28 atom-28 atom-29" d="M 674.8,118.0 L 666.6,118.1" style="fill:none;fill-rule:evenodd;stroke:#000000;stroke-width:2.0px;stroke-linecap:butt;stroke-linejoin:miter;stroke-opacity:1"/>
<path class="bond-28 atom-28 atom-29" d="M 666.6,118.1 L 658.3,118.2" style="fill:none;fill-rule:evenodd;stroke:#FF0000;stroke-width:2.0px;stroke-linecap:butt;stroke-linejoin:miter;stroke-opacity:1"/>
<path class="bond-29 atom-28 atom-30" d="M 674.8,118.0 L 684.5,100.9" style="fill:none;fill-rule:evenodd;stroke:#000000;stroke-width:2.0px;stroke-linecap:butt;stroke-linejoin:miter;stroke-opacity:1"/>
<path class="bond-30 atom-30 atom-31" d="M 684.5,100.9 L 704.1,100.7" style="fill:none;fill-rule:evenodd;stroke:#000000;stroke-width:2.0px;stroke-linecap:butt;stroke-linejoin:miter;stroke-opacity:1"/>
<path class="bond-30 atom-30 atom-31" d="M 687.5,104.8 L 701.2,104.6" style="fill:none;fill-rule:evenodd;stroke:#000000;stroke-width:2.0px;stroke-linecap:butt;stroke-linejoin:miter;stroke-opacity:1"/>
<path class="bond-31 atom-31 atom-32" d="M 704.1,100.7 L 709.3,94.8" style="fill:none;fill-rule:evenodd;stroke:#000000;stroke-width:2.0px;stroke-linecap:butt;stroke-linejoin:miter;stroke-opacity:1"/>
<path class="bond-31 atom-31 atom-32" d="M 709.3,94.8 L 714.5,88.9" style="fill:none;fill-rule:evenodd;stroke:#0000FF;stroke-width:2.0px;stroke-linecap:butt;stroke-linejoin:miter;stroke-opacity:1"/>
<path class="bond-32 atom-32 atom-33" d="M 716.4,82.7 L 714.6,74.7" style="fill:none;fill-rule:evenodd;stroke:#0000FF;stroke-width:2.0px;stroke-linecap:butt;stroke-linejoin:miter;stroke-opacity:1"/>
<path class="bond-32 atom-32 atom-33" d="M 714.6,74.7 L 712.8,66.8" style="fill:none;fill-rule:evenodd;stroke:#000000;stroke-width:2.0px;stroke-linecap:butt;stroke-linejoin:miter;stroke-opacity:1"/>
<path class="bond-33 atom-33 atom-34" d="M 712.8,66.8 L 694.1,60.9" style="fill:none;fill-rule:evenodd;stroke:#000000;stroke-width:2.0px;stroke-linecap:butt;stroke-linejoin:miter;stroke-opacity:1"/>
<path class="bond-33 atom-33 atom-34" d="M 711.2,62.1 L 698.1,58.0" style="fill:none;fill-rule:evenodd;stroke:#000000;stroke-width:2.0px;stroke-linecap:butt;stroke-linejoin:miter;stroke-opacity:1"/>
<path class="bond-40 atom-38 atom-33" d="M 727.3,53.5 L 712.8,66.8" style="fill:none;fill-rule:evenodd;stroke:#000000;stroke-width:2.0px;stroke-linecap:butt;stroke-linejoin:miter;stroke-opacity:1"/>
<path class="bond-34 atom-34 atom-35" d="M 694.1,60.9 L 689.8,41.7" style="fill:none;fill-rule:evenodd;stroke:#000000;stroke-width:2.0px;stroke-linecap:butt;stroke-linejoin:miter;stroke-opacity:1"/>
<path class="bond-35 atom-35 atom-36" d="M 689.8,41.7 L 704.2,28.4" style="fill:none;fill-rule:evenodd;stroke:#000000;stroke-width:2.0px;stroke-linecap:butt;stroke-linejoin:miter;stroke-opacity:1"/>
<path class="bond-35 atom-35 atom-36" d="M 694.6,42.6 L 704.7,33.3" style="fill:none;fill-rule:evenodd;stroke:#000000;stroke-width:2.0px;stroke-linecap:butt;stroke-linejoin:miter;stroke-opacity:1"/>
<path class="bond-36 atom-36 atom-37" d="M 704.2,28.4 L 723.0,34.3" style="fill:none;fill-rule:evenodd;stroke:#000000;stroke-width:2.0px;stroke-linecap:butt;stroke-linejoin:miter;stroke-opacity:1"/>
<path class="bond-37 atom-37 atom-38" d="M 723.0,34.3 L 727.3,53.5" style="fill:none;fill-rule:evenodd;stroke:#000000;stroke-width:2.0px;stroke-linecap:butt;stroke-linejoin:miter;stroke-opacity:1"/>
<path class="bond-37 atom-37 atom-38" d="M 719.8,38.0 L 722.8,51.5" style="fill:none;fill-rule:evenodd;stroke:#000000;stroke-width:2.0px;stroke-linecap:butt;stroke-linejoin:miter;stroke-opacity:1"/>
<path class="atom-3" d="M 783.8 21.7 L 787.1 21.7 L 787.1 22.3 L 784.5 22.3 L 784.5 24.0 L 786.8 24.0 L 786.8 24.6 L 784.5 24.6 L 784.5 27.2 L 783.8 27.2 L 783.8 21.7 " fill="#33CCCC"/>
<path class="atom-12" d="M 741.6 145.5 Q 741.6 144.2, 742.3 143.5 Q 742.9 142.7, 744.2 142.7 Q 745.4 142.7, 746.1 143.5 Q 746.7 144.2, 746.7 145.5 Q 746.7 146.9, 746.0 147.7 Q 745.4 148.4, 744.2 148.4 Q 742.9 148.4, 742.3 147.7 Q 741.6 146.9, 741.6 145.5 M 744.2 147.8 Q 745.0 147.8, 745.5 147.2 Q 745.9 146.7, 745.9 145.5 Q 745.9 144.5, 745.5 143.9 Q 745.0 143.3, 744.2 143.3 Q 743.3 143.3, 742.8 143.9 Q 742.4 144.4, 742.4 145.5 Q 742.4 146.7, 742.8 147.2 Q 743.3 147.8, 744.2 147.8 " fill="#FF0000"/>
<path class="atom-13" d="M 765.4 117.2 L 767.2 120.2 Q 767.4 120.5, 767.7 121.0 Q 768.0 121.5, 768.0 121.5 L 768.0 117.2 L 768.8 117.2 L 768.8 122.8 L 768.0 122.8 L 766.0 119.6 Q 765.8 119.2, 765.6 118.8 Q 765.3 118.3, 765.3 118.2 L 765.3 122.8 L 764.5 122.8 L 764.5 117.2 L 765.4 117.2 " fill="#0000FF"/>
<path class="atom-16" d="M 814.5 132.6 L 816.3 135.5 Q 816.5 135.8, 816.8 136.3 Q 817.1 136.9, 817.1 136.9 L 817.1 132.6 L 817.8 132.6 L 817.8 138.1 L 817.1 138.1 L 815.1 134.9 Q 814.9 134.6, 814.6 134.1 Q 814.4 133.7, 814.3 133.6 L 814.3 138.1 L 813.6 138.1 L 813.6 132.6 L 814.5 132.6 " fill="#0000FF"/>
<path class="atom-16" d="M 818.5 132.6 L 819.3 132.6 L 819.3 135.0 L 822.1 135.0 L 822.1 132.6 L 822.9 132.6 L 822.9 138.1 L 822.1 138.1 L 822.1 135.6 L 819.3 135.6 L 819.3 138.1 L 818.5 138.1 L 818.5 132.6 " fill="#0000FF"/>
<path class="atom-19" d="M 813.9 81.2 L 815.8 84.1 Q 815.9 84.4, 816.2 84.9 Q 816.5 85.5, 816.5 85.5 L 816.5 81.2 L 817.3 81.2 L 817.3 86.7 L 816.5 86.7 L 814.6 83.5 Q 814.3 83.1, 814.1 82.7 Q 813.9 82.3, 813.8 82.1 L 813.8 86.7 L 813.1 86.7 L 813.1 81.2 L 813.9 81.2 " fill="#0000FF"/>
<path class="atom-20" d="M 825.3 65.1 L 827.1 68.1 Q 827.3 68.4, 827.6 68.9 Q 827.9 69.4, 827.9 69.5 L 827.9 65.1 L 828.7 65.1 L 828.7 70.7 L 827.9 70.7 L 825.9 67.5 Q 825.7 67.1, 825.5 66.7 Q 825.2 66.2, 825.2 66.1 L 825.2 70.7 L 824.4 70.7 L 824.4 65.1 L 825.3 65.1 " fill="#0000FF"/>
<path class="atom-21" d="M 795.2 75.3 L 797.0 78.2 Q 797.2 78.5, 797.5 79.1 Q 797.8 79.6, 797.8 79.6 L 797.8 75.3 L 798.5 75.3 L 798.5 80.9 L 797.8 80.9 L 795.8 77.6 Q 795.6 77.3, 795.3 76.8 Q 795.1 76.4, 795.0 76.3 L 795.0 80.9 L 794.3 80.9 L 794.3 75.3 L 795.2 75.3 " fill="#0000FF"/>
<path class="atom-22" d="M 795.0 55.7 L 796.8 58.6 Q 797.0 58.9, 797.3 59.4 Q 797.6 59.9, 797.6 60.0 L 797.6 55.7 L 798.3 55.7 L 798.3 61.2 L 797.6 61.2 L 795.6 58.0 Q 795.4 57.6, 795.1 57.2 Q 794.9 56.8, 794.8 56.6 L 794.8 61.2 L 794.1 61.2 L 794.1 55.7 L 795.0 55.7 " fill="#0000FF"/>
<path class="atom-22" d="M 798.6 56.6 L 800.5 56.6 L 800.5 57.0 L 798.6 57.0 L 798.6 56.6 " fill="#0000FF"/>
<path class="atom-29" d="M 647.9 115.5 L 648.7 115.5 L 648.7 117.8 L 651.5 117.8 L 651.5 115.5 L 652.3 115.5 L 652.3 121.0 L 651.5 121.0 L 651.5 118.5 L 648.7 118.5 L 648.7 121.0 L 647.9 121.0 L 647.9 115.5 " fill="#FF0000"/>
<path class="atom-29" d="M 652.7 118.2 Q 652.7 116.9, 653.3 116.1 Q 654.0 115.4, 655.2 115.4 Q 656.4 115.4, 657.1 116.1 Q 657.8 116.9, 657.8 118.2 Q 657.8 119.6, 657.1 120.3 Q 656.4 121.1, 655.2 121.1 Q 654.0 121.1, 653.3 120.3 Q 652.7 119.6, 652.7 118.2 M 655.2 120.5 Q 656.1 120.5, 656.5 119.9 Q 657.0 119.3, 657.0 118.2 Q 657.0 117.1, 656.5 116.6 Q 656.1 116.0, 655.2 116.0 Q 654.4 116.0, 653.9 116.6 Q 653.4 117.1, 653.4 118.2 Q 653.4 119.4, 653.9 119.9 Q 654.4 120.5, 655.2 120.5 " fill="#FF0000"/>
<path class="atom-32" d="M 715.9 83.2 L 717.7 86.1 Q 717.9 86.4, 718.2 86.9 Q 718.5 87.4, 718.5 87.5 L 718.5 83.2 L 719.2 83.2 L 719.2 88.7 L 718.5 88.7 L 716.5 85.5 Q 716.3 85.1, 716.0 84.7 Q 715.8 84.3, 715.7 84.1 L 715.7 88.7 L 715.0 88.7 L 715.0 83.2 L 715.9 83.2 " fill="#0000FF"/>
<path d="M 830.2,67.1 L 830.2,67.1 L 830.2,67.1 L 830.2,67.0 L 830.2,67.0 L 830.2,67.0 L 830.2,67.0 L 830.2,66.9 L 830.1,66.9 L 830.1,66.9 L 830.1,66.8 L 830.1,66.8 L 830.0,66.8 L 830.0,66.8 L 830.0,66.8 L 829.9,66.8 L 829.9,66.8 L 829.9,66.8 L 829.8,66.8 L 829.8,66.8 L 829.8,66.8 L 829.7,66.8 L 829.7,66.8 L 829.7,66.8 L 829.7,66.8 L 829.6,66.8 L 829.6,66.8 L 829.6,66.9 L 829.5,66.9 L 829.5,66.9 L 829.5,66.9 L 829.5,67.0 L 829.5,67.0 L 829.5,67.0 L 829.5,67.1 L 829.4,67.1 L 829.4,67.1 L 829.4,67.2 L 829.4,67.2 L 829.5,67.2 L 829.5,67.3 L 829.5,67.3 L 829.5,67.3 L 829.5,67.4 L 829.5,67.4 L 829.5,67.4 L 829.6,67.4 L 829.6,67.5 L 829.6,67.5 L 829.7,67.5 L 829.7,67.5 L 829.7,67.5 L 829.7,67.5 L 829.8,67.5 L 829.8,67.5 L 829.8,67.5 L 829.9,67.5 L 829.9,67.5 L 829.9,67.5 L 830.0,67.5 L 830.0,67.5 L 830.0,67.5 L 830.1,67.5 L 830.1,67.4 L 830.1,67.4 L 830.1,67.4 L 830.2,67.4 L 830.2,67.3 L 830.2,67.3 L 830.2,67.3 L 830.2,67.2 L 830.2,67.2 L 830.2,67.2 L 830.2,67.1 L 829.8,67.1 Z" style="fill:#000000;fill-rule:evenodd;fill-opacity:1;stroke:#000000;stroke-width:0.0px;stroke-linecap:butt;stroke-linejoin:miter;stroke-opacity:1;"/>
<path d="M 830.2,68.7 L 830.2,68.7 L 830.2,68.6 L 830.2,68.6 L 830.2,68.6 L 830.2,68.6 L 830.2,68.5 L 830.2,68.5 L 830.1,68.5 L 830.1,68.4 L 830.1,68.4 L 830.1,68.4 L 830.0,68.4 L 830.0,68.4 L 830.0,68.4 L 829.9,68.3 L 829.9,68.3 L 829.9,68.3 L 829.8,68.3 L 829.8,68.3 L 829.8,68.3 L 829.7,68.3 L 829.7,68.3 L 829.7,68.4 L 829.7,68.4 L 829.6,68.4 L 829.6,68.4 L 829.6,68.4 L 829.5,68.5 L 829.5,68.5 L 829.5,68.5 L 829.5,68.5 L 829.5,68.6 L 829.5,68.6 L 829.5,68.6 L 829.4,68.7 L 829.4,68.7 L 829.4,68.7 L 829.4,68.8 L 829.5,68.8 L 829.5,68.8 L 829.5,68.9 L 829.5,68.9 L 829.5,68.9 L 829.5,69.0 L 829.5,69.0 L 829.6,69.0 L 829.6,69.0 L 829.6,69.0 L 829.7,69.1 L 829.7,69.1 L 829.7,69.1 L 829.7,69.1 L 829.8,69.1 L 829.8,69.1 L 829.8,69.1 L 829.9,69.1 L 829.9,69.1 L 829.9,69.1 L 830.0,69.1 L 830.0,69.1 L 830.0,69.1 L 830.1,69.0 L 830.1,69.0 L 830.1,69.0 L 830.1,69.0 L 830.2,68.9 L 830.2,68.9 L 830.2,68.9 L 830.2,68.8 L 830.2,68.8 L 830.2,68.8 L 830.2,68.8 L 830.2,68.7 L 829.8,68.7 Z" style="fill:#000000;fill-rule:evenodd;fill-opacity:1;stroke:#000000;stroke-width:0.0px;stroke-linecap:butt;stroke-linejoin:miter;stroke-opacity:1;"/>
<path d="M 802.1,58.4 L 802.1,58.4 L 802.1,58.4 L 802.0,58.3 L 802.0,58.3 L 802.0,58.3 L 802.0,58.2 L 802.0,58.2 L 802.0,58.2 L 802.0,58.2 L 801.9,58.1 L 801.9,58.1 L 801.9,58.1 L 801.8,58.1 L 801.8,58.1 L 801.8,58.1 L 801.7,58.0 L 801.7,58.0 L 801.7,58.0 L 801.6,58.0 L 801.6,58.0 L 801.6,58.1 L 801.5,58.1 L 801.5,58.1 L 801.5,58.1 L 801.5,58.1 L 801.4,58.1 L 801.4,58.1 L 801.4,58.2 L 801.4,58.2 L 801.3,58.2 L 801.3,58.3 L 801.3,58.3 L 801.3,58.3 L 801.3,58.4 L 801.3,58.4 L 801.3,58.4 L 801.3,58.5 L 801.3,58.5 L 801.3,58.5 L 801.3,58.6 L 801.3,58.6 L 801.3,58.6 L 801.3,58.6 L 801.4,58.7 L 801.4,58.7 L 801.4,58.7 L 801.4,58.7 L 801.5,58.8 L 801.5,58.8 L 801.5,58.8 L 801.5,58.8 L 801.6,58.8 L 801.6,58.8 L 801.6,58.8 L 801.7,58.8 L 801.7,58.8 L 801.7,58.8 L 801.8,58.8 L 801.8,58.8 L 801.8,58.8 L 801.9,58.8 L 801.9,58.8 L 801.9,58.7 L 802.0,58.7 L 802.0,58.7 L 802.0,58.7 L 802.0,58.6 L 802.0,58.6 L 802.0,58.6 L 802.0,58.5 L 802.1,58.5 L 802.1,58.5 L 802.1,58.4 L 801.7,58.4 Z" style="fill:#000000;fill-rule:evenodd;fill-opacity:1;stroke:#000000;stroke-width:0.0px;stroke-linecap:butt;stroke-linejoin:miter;stroke-opacity:1;"/>
</svg>