<svg baseProfile="full" height="160px" version="1.1" viewBox="0 0 1500 160" width="1500px" xml:space="preserve" xmlns="http://www.w3.org/2000/svg" xmlns:rdkit="http://www.rdkit.org/xml" xmlns:xlink="http://www.w3.org/1999/xlink">
<!-- END OF HEADER -->
<rect height="160.0" style="opacity:1.0;fill:#FFFFFF;stroke:none" width="1500.0" x="0.0" y="0.0"> </rect>
<rect height="160.0" style="opacity:1.0;fill:#FFFFFF;stroke:none" width="1500.0" x="0.0" y="0.0"> </rect>
<rect height="160.0" style="opacity:1.0;fill:#FFFFFF;stroke:none" width="1500.0" x="0.0" y="0.0"> </rect>
<path class="bond-0 atom-0 atom-1" d="M 141.0,35.6 L 159.0,41.1" style="fill:none;fill-rule:evenodd;stroke:#000000;stroke-width:2.0px;stroke-linecap:butt;stroke-linejoin:miter;stroke-opacity:1"/>
<path class="bond-1 atom-1 atom-2" d="M 159.0,41.1 L 172.7,28.3" style="fill:none;fill-rule:evenodd;stroke:#000000;stroke-width:2.0px;stroke-linecap:butt;stroke-linejoin:miter;stroke-opacity:1"/>
<path class="bond-1 atom-1 atom-2" d="M 163.6,41.9 L 173.2,33.0" style="fill:none;fill-rule:evenodd;stroke:#000000;stroke-width:2.0px;stroke-linecap:butt;stroke-linejoin:miter;stroke-opacity:1"/>
<path class="bond-32 atom-7 atom-1" d="M 163.2,59.4 L 159.0,41.1" style="fill:none;fill-rule:evenodd;stroke:#000000;stroke-width:2.0px;stroke-linecap:butt;stroke-linejoin:miter;stroke-opacity:1"/>
<path class="bond-2 atom-2 atom-3" d="M 172.7,28.3 L 171.0,20.7" style="fill:none;fill-rule:evenodd;stroke:#000000;stroke-width:2.0px;stroke-linecap:butt;stroke-linejoin:miter;stroke-opacity:1"/>
<path class="bond-2 atom-2 atom-3" d="M 171.0,20.7 L 169.2,13.1" style="fill:none;fill-rule:evenodd;stroke:#33CCCC;stroke-width:2.0px;stroke-linecap:butt;stroke-linejoin:miter;stroke-opacity:1"/>
<path class="bond-3 atom-2 atom-4" d="M 172.7,28.3 L 190.7,33.8" style="fill:none;fill-rule:evenodd;stroke:#000000;stroke-width:2.0px;stroke-linecap:butt;stroke-linejoin:miter;stroke-opacity:1"/>
<path class="bond-4 atom-4 atom-5" d="M 190.7,33.8 L 195.0,52.1" style="fill:none;fill-rule:evenodd;stroke:#000000;stroke-width:2.0px;stroke-linecap:butt;stroke-linejoin:miter;stroke-opacity:1"/>
<path class="bond-4 atom-4 atom-5" d="M 187.7,37.4 L 190.6,50.2" style="fill:none;fill-rule:evenodd;stroke:#000000;stroke-width:2.0px;stroke-linecap:butt;stroke-linejoin:miter;stroke-opacity:1"/>
<path class="bond-5 atom-5 atom-6" d="M 195.0,52.1 L 181.2,65.0" style="fill:none;fill-rule:evenodd;stroke:#000000;stroke-width:2.0px;stroke-linecap:butt;stroke-linejoin:miter;stroke-opacity:1"/>
<path class="bond-6 atom-6 atom-7" d="M 181.2,65.0 L 163.2,59.4" style="fill:none;fill-rule:evenodd;stroke:#000000;stroke-width:2.0px;stroke-linecap:butt;stroke-linejoin:miter;stroke-opacity:1"/>
<path class="bond-6 atom-6 atom-7" d="M 179.6,60.5 L 167.0,56.7" style="fill:none;fill-rule:evenodd;stroke:#000000;stroke-width:2.0px;stroke-linecap:butt;stroke-linejoin:miter;stroke-opacity:1"/>
<path class="bond-7 atom-7 atom-8" d="M 163.2,59.4 L 149.4,72.3" style="fill:none;fill-rule:evenodd;stroke:#000000;stroke-width:2.0px;stroke-linecap:butt;stroke-linejoin:miter;stroke-opacity:1"/>
<path class="bond-8 atom-8 atom-9" d="M 149.4,72.3 L 153.6,90.6" style="fill:none;fill-rule:evenodd;stroke:#000000;stroke-width:2.0px;stroke-linecap:butt;stroke-linejoin:miter;stroke-opacity:1"/>
<path class="bond-9 atom-9 atom-10" d="M 153.6,90.6 L 141.2,104.8" style="fill:none;fill-rule:evenodd;stroke:#000000;stroke-width:2.0px;stroke-linecap:butt;stroke-linejoin:miter;stroke-opacity:1"/>
<path class="bond-9 atom-9 atom-10" d="M 154.6,95.2 L 145.9,105.2" style="fill:none;fill-rule:evenodd;stroke:#000000;stroke-width:2.0px;stroke-linecap:butt;stroke-linejoin:miter;stroke-opacity:1"/>
<path class="bond-33 atom-26 atom-9" d="M 168.4,96.9 L 161.0,93.8" style="fill:none;fill-rule:evenodd;stroke:#0000FF;stroke-width:2.0px;stroke-linecap:butt;stroke-linejoin:miter;stroke-opacity:1"/>
<path class="bond-33 atom-26 atom-9" d="M 161.0,93.8 L 153.6,90.6" style="fill:none;fill-rule:evenodd;stroke:#000000;stroke-width:2.0px;stroke-linecap:butt;stroke-linejoin:miter;stroke-opacity:1"/>
<path class="bond-10 atom-10 atom-11" d="M 141.2,104.8 L 122.5,103.1" style="fill:none;fill-rule:evenodd;stroke:#000000;stroke-width:2.0px;stroke-linecap:butt;stroke-linejoin:miter;stroke-opacity:1"/>
<path class="bond-19 atom-10 atom-20" d="M 141.2,104.8 L 150.9,121.0" style="fill:none;fill-rule:evenodd;stroke:#000000;stroke-width:2.0px;stroke-linecap:butt;stroke-linejoin:miter;stroke-opacity:1"/>
<path class="bond-11 atom-11 atom-12" d="M 121.0,102.1 L 116.7,108.2" style="fill:none;fill-rule:evenodd;stroke:#000000;stroke-width:2.0px;stroke-linecap:butt;stroke-linejoin:miter;stroke-opacity:1"/>
<path class="bond-11 atom-11 atom-12" d="M 116.7,108.2 L 112.4,114.3" style="fill:none;fill-rule:evenodd;stroke:#FF0000;stroke-width:2.0px;stroke-linecap:butt;stroke-linejoin:miter;stroke-opacity:1"/>
<path class="bond-11 atom-11 atom-12" d="M 124.0,104.2 L 119.7,110.4" style="fill:none;fill-rule:evenodd;stroke:#000000;stroke-width:2.0px;stroke-linecap:butt;stroke-linejoin:miter;stroke-opacity:1"/>
<path class="bond-11 atom-11 atom-12" d="M 119.7,110.4 L 115.4,116.5" style="fill:none;fill-rule:evenodd;stroke:#FF0000;stroke-width:2.0px;stroke-linecap:butt;stroke-linejoin:miter;stroke-opacity:1"/>
<path class="bond-12 atom-11 atom-13" d="M 122.5,103.1 L 119.3,96.2" style="fill:none;fill-rule:evenodd;stroke:#000000;stroke-width:2.0px;stroke-linecap:butt;stroke-linejoin:miter;stroke-opacity:1"/>
<path class="bond-12 atom-11 atom-13" d="M 119.3,96.2 L 116.0,89.2" style="fill:none;fill-rule:evenodd;stroke:#0000FF;stroke-width:2.0px;stroke-linecap:butt;stroke-linejoin:miter;stroke-opacity:1"/>
<path class="bond-13 atom-13 atom-14" d="M 112.1,86.0 L 103.9,85.9" style="fill:none;fill-rule:evenodd;stroke:#0000FF;stroke-width:2.0px;stroke-linecap:butt;stroke-linejoin:miter;stroke-opacity:1"/>
<path class="bond-13 atom-13 atom-14" d="M 103.9,85.9 L 95.7,85.8" style="fill:none;fill-rule:evenodd;stroke:#000000;stroke-width:2.0px;stroke-linecap:butt;stroke-linejoin:miter;stroke-opacity:1"/>
<path class="bond-35 atom-19 atom-13" d="M 126.5,71.5 L 121.8,77.3" style="fill:none;fill-rule:evenodd;stroke:#000000;stroke-width:2.0px;stroke-linecap:butt;stroke-linejoin:miter;stroke-opacity:1"/>
<path class="bond-35 atom-19 atom-13" d="M 121.8,77.3 L 117.1,83.0" style="fill:none;fill-rule:evenodd;stroke:#0000FF;stroke-width:2.0px;stroke-linecap:butt;stroke-linejoin:miter;stroke-opacity:1"/>
<path class="bond-14 atom-14 atom-15" d="M 95.7,85.8 L 84.2,71.0" style="fill:none;fill-rule:evenodd;stroke:#000000;stroke-width:2.0px;stroke-linecap:butt;stroke-linejoin:miter;stroke-opacity:1"/>
<path class="bond-15 atom-15 atom-16" d="M 84.2,71.0 L 88.6,52.7" style="fill:none;fill-rule:evenodd;stroke:#000000;stroke-width:2.0px;stroke-linecap:butt;stroke-linejoin:miter;stroke-opacity:1"/>
<path class="bond-16 atom-16 atom-17" d="M 88.6,52.7 L 95.9,49.3" style="fill:none;fill-rule:evenodd;stroke:#000000;stroke-width:2.0px;stroke-linecap:butt;stroke-linejoin:miter;stroke-opacity:1"/>
<path class="bond-16 atom-16 atom-17" d="M 95.9,49.3 L 103.2,45.9" style="fill:none;fill-rule:evenodd;stroke:#0000FF;stroke-width:2.0px;stroke-linecap:butt;stroke-linejoin:miter;stroke-opacity:1"/>
<path class="bond-17 atom-17 atom-18" d="M 108.2,46.0 L 115.4,49.5" style="fill:none;fill-rule:evenodd;stroke:#0000FF;stroke-width:2.0px;stroke-linecap:butt;stroke-linejoin:miter;stroke-opacity:1"/>
<path class="bond-17 atom-17 atom-18" d="M 115.4,49.5 L 122.6,53.1" style="fill:none;fill-rule:evenodd;stroke:#000000;stroke-width:2.0px;stroke-linecap:butt;stroke-linejoin:miter;stroke-opacity:1"/>
<path class="bond-18 atom-18 atom-19" d="M 122.6,53.1 L 126.5,71.5" style="fill:none;fill-rule:evenodd;stroke:#000000;stroke-width:2.0px;stroke-linecap:butt;stroke-linejoin:miter;stroke-opacity:1"/>
<path class="bond-20 atom-20 atom-21" d="M 150.9,121.0 L 145.4,138.9" style="fill:none;fill-rule:evenodd;stroke:#000000;stroke-width:2.0px;stroke-linecap:butt;stroke-linejoin:miter;stroke-opacity:1"/>
<path class="bond-20 atom-20 atom-21" d="M 153.7,124.8 L 149.8,137.4" style="fill:none;fill-rule:evenodd;stroke:#000000;stroke-width:2.0px;stroke-linecap:butt;stroke-linejoin:miter;stroke-opacity:1"/>
<path class="bond-36 atom-25 atom-20" d="M 169.3,116.7 L 150.9,121.0" style="fill:none;fill-rule:evenodd;stroke:#000000;stroke-width:2.0px;stroke-linecap:butt;stroke-linejoin:miter;stroke-opacity:1"/>
<path class="bond-21 atom-21 atom-22" d="M 145.4,138.9 L 158.2,152.7" style="fill:none;fill-rule:evenodd;stroke:#000000;stroke-width:2.0px;stroke-linecap:butt;stroke-linejoin:miter;stroke-opacity:1"/>
<path class="bond-22 atom-22 atom-23" d="M 158.2,152.7 L 166.2,150.9" style="fill:none;fill-rule:evenodd;stroke:#000000;stroke-width:2.0px;stroke-linecap:butt;stroke-linejoin:miter;stroke-opacity:1"/>
<path class="bond-22 atom-22 atom-23" d="M 166.2,150.9 L 174.1,149.1" style="fill:none;fill-rule:evenodd;stroke:#0000FF;stroke-width:2.0px;stroke-linecap:butt;stroke-linejoin:miter;stroke-opacity:1"/>
<path class="bond-22 atom-22 atom-23" d="M 159.8,148.5 L 165.3,147.2" style="fill:none;fill-rule:evenodd;stroke:#000000;stroke-width:2.0px;stroke-linecap:butt;stroke-linejoin:miter;stroke-opacity:1"/>
<path class="bond-22 atom-22 atom-23" d="M 165.3,147.2 L 170.9,146.0" style="fill:none;fill-rule:evenodd;stroke:#0000FF;stroke-width:2.0px;stroke-linecap:butt;stroke-linejoin:miter;stroke-opacity:1"/>
<path class="bond-23 atom-23 atom-24" d="M 177.5,145.4 L 179.8,137.9" style="fill:none;fill-rule:evenodd;stroke:#0000FF;stroke-width:2.0px;stroke-linecap:butt;stroke-linejoin:miter;stroke-opacity:1"/>
<path class="bond-23 atom-23 atom-24" d="M 179.8,137.9 L 182.1,130.5" style="fill:none;fill-rule:evenodd;stroke:#000000;stroke-width:2.0px;stroke-linecap:butt;stroke-linejoin:miter;stroke-opacity:1"/>
<path class="bond-24 atom-24 atom-25" d="M 182.1,130.5 L 169.3,116.7" style="fill:none;fill-rule:evenodd;stroke:#000000;stroke-width:2.0px;stroke-linecap:butt;stroke-linejoin:miter;stroke-opacity:1"/>
<path class="bond-24 atom-24 atom-25" d="M 177.4,131.0 L 168.4,121.4" style="fill:none;fill-rule:evenodd;stroke:#000000;stroke-width:2.0px;stroke-linecap:butt;stroke-linejoin:miter;stroke-opacity:1"/>
<path class="bond-25 atom-25 atom-26" d="M 169.3,116.7 L 170.0,108.9" style="fill:none;fill-rule:evenodd;stroke:#000000;stroke-width:2.0px;stroke-linecap:butt;stroke-linejoin:miter;stroke-opacity:1"/>
<path class="bond-25 atom-25 atom-26" d="M 170.0,108.9 L 170.7,101.1" style="fill:none;fill-rule:evenodd;stroke:#0000FF;stroke-width:2.0px;stroke-linecap:butt;stroke-linejoin:miter;stroke-opacity:1"/>
<path class="bond-26 atom-26 atom-27" d="M 173.4,96.5 L 180.2,92.4" style="fill:none;fill-rule:evenodd;stroke:#0000FF;stroke-width:2.0px;stroke-linecap:butt;stroke-linejoin:miter;stroke-opacity:1"/>
<path class="bond-26 atom-26 atom-27" d="M 180.2,92.4 L 187.1,88.3" style="fill:none;fill-rule:evenodd;stroke:#000000;stroke-width:2.0px;stroke-linecap:butt;stroke-linejoin:miter;stroke-opacity:1"/>
<path class="bond-27 atom-27 atom-28" d="M 187.1,88.3 L 203.5,97.5" style="fill:none;fill-rule:evenodd;stroke:#000000;stroke-width:2.0px;stroke-linecap:butt;stroke-linejoin:miter;stroke-opacity:1"/>
<path class="bond-27 atom-27 atom-28" d="M 191.4,86.4 L 202.9,92.8" style="fill:none;fill-rule:evenodd;stroke:#000000;stroke-width:2.0px;stroke-linecap:butt;stroke-linejoin:miter;stroke-opacity:1"/>
<path class="bond-34 atom-32 atom-27" d="M 186.8,69.5 L 187.1,88.3" style="fill:none;fill-rule:evenodd;stroke:#000000;stroke-width:2.0px;stroke-linecap:butt;stroke-linejoin:miter;stroke-opacity:1"/>
<path class="bond-28 atom-28 atom-29" d="M 203.5,97.5 L 219.7,87.8" style="fill:none;fill-rule:evenodd;stroke:#000000;stroke-width:2.0px;stroke-linecap:butt;stroke-linejoin:miter;stroke-opacity:1"/>
<path class="bond-29 atom-29 atom-30" d="M 219.7,87.8 L 219.4,69.0" style="fill:none;fill-rule:evenodd;stroke:#000000;stroke-width:2.0px;stroke-linecap:butt;stroke-linejoin:miter;stroke-opacity:1"/>
<path class="bond-29 atom-29 atom-30" d="M 215.9,85.0 L 215.6,71.8" style="fill:none;fill-rule:evenodd;stroke:#000000;stroke-width:2.0px;stroke-linecap:butt;stroke-linejoin:miter;stroke-opacity:1"/>
<path class="bond-30 atom-30 atom-31" d="M 219.4,69.0 L 202.9,59.8" style="fill:none;fill-rule:evenodd;stroke:#000000;stroke-width:2.0px;stroke-linecap:butt;stroke-linejoin:miter;stroke-opacity:1"/>
<path class="bond-31 atom-31 atom-32" d="M 202.9,59.8 L 186.8,69.5" style="fill:none;fill-rule:evenodd;stroke:#000000;stroke-width:2.0px;stroke-linecap:butt;stroke-linejoin:miter;stroke-opacity:1"/>
<path class="bond-31 atom-31 atom-32" d="M 202.4,64.5 L 191.1,71.3" style="fill:none;fill-rule:evenodd;stroke:#000000;stroke-width:2.0px;stroke-linecap:butt;stroke-linejoin:miter;stroke-opacity:1"/>
<path class="atom-3" d="M 166.9 7.3 L 170.1 7.3 L 170.1 7.9 L 167.7 7.9 L 167.7 9.5 L 169.8 9.5 L 169.8 10.1 L 167.7 10.1 L 167.7 12.6 L 166.9 12.6 L 166.9 7.3 " fill="#33CCCC"/>
<path class="atom-12" d="M 109.2 118.6 Q 109.2 117.3, 109.9 116.6 Q 110.5 115.9, 111.7 115.9 Q 112.9 115.9, 113.5 116.6 Q 114.1 117.3, 114.1 118.6 Q 114.1 119.9, 113.5 120.6 Q 112.9 121.3, 111.7 121.3 Q 110.5 121.3, 109.9 120.6 Q 109.2 119.9, 109.2 118.6 M 111.7 120.7 Q 112.5 120.7, 112.9 120.2 Q 113.4 119.6, 113.4 118.6 Q 113.4 117.5, 112.9 117.0 Q 112.5 116.5, 111.7 116.5 Q 110.9 116.5, 110.4 117.0 Q 110.0 117.5, 110.0 118.6 Q 110.0 119.6, 110.4 120.2 Q 110.9 120.7, 111.7 120.7 " fill="#FF0000"/>
<path class="atom-13" d="M 113.4 83.4 L 115.1 86.2 Q 115.3 86.5, 115.6 87.0 Q 115.9 87.5, 115.9 87.6 L 115.9 83.4 L 116.6 83.4 L 116.6 88.7 L 115.9 88.7 L 114.0 85.7 Q 113.8 85.3, 113.5 84.9 Q 113.3 84.5, 113.2 84.3 L 113.2 88.7 L 112.5 88.7 L 112.5 83.4 L 113.4 83.4 " fill="#0000FF"/>
<path class="atom-17" d="M 104.5 42.1 L 106.3 44.9 Q 106.5 45.2, 106.7 45.7 Q 107.0 46.2, 107.0 46.2 L 107.0 42.1 L 107.7 42.1 L 107.7 47.4 L 107.0 47.4 L 105.1 44.3 Q 104.9 43.9, 104.7 43.5 Q 104.4 43.1, 104.4 43.0 L 104.4 47.4 L 103.7 47.4 L 103.7 42.1 L 104.5 42.1 " fill="#0000FF"/>
<path class="atom-17" d="M 103.6 36.2 L 104.3 36.2 L 104.3 38.5 L 107.1 38.5 L 107.1 36.2 L 107.8 36.2 L 107.8 41.5 L 107.1 41.5 L 107.1 39.1 L 104.3 39.1 L 104.3 41.5 L 103.6 41.5 L 103.6 36.2 " fill="#0000FF"/>
<path class="atom-23" d="M 175.4 145.8 L 177.1 148.7 Q 177.3 148.9, 177.6 149.5 Q 177.9 150.0, 177.9 150.0 L 177.9 145.8 L 178.6 145.8 L 178.6 151.2 L 177.9 151.2 L 176.0 148.1 Q 175.8 147.7, 175.5 147.3 Q 175.3 146.9, 175.2 146.8 L 175.2 151.2 L 174.5 151.2 L 174.5 145.8 L 175.4 145.8 " fill="#0000FF"/>
<path class="atom-26" d="M 169.8 95.3 L 171.5 98.1 Q 171.7 98.4, 172.0 98.9 Q 172.2 99.4, 172.2 99.5 L 172.2 95.3 L 173.0 95.3 L 173.0 100.7 L 172.2 100.7 L 170.3 97.6 Q 170.1 97.2, 169.9 96.8 Q 169.7 96.4, 169.6 96.3 L 169.6 100.7 L 168.9 100.7 L 168.9 95.3 L 169.8 95.3 " fill="#0000FF"/>
<path class="bond-0 atom-0 atom-1" d="M 419.9,43.9 L 438.2,39.7" style="fill:none;fill-rule:evenodd;stroke:#000000;stroke-width:2.0px;stroke-linecap:butt;stroke-linejoin:miter;stroke-opacity:1"/>
<path class="bond-1 atom-1 atom-2" d="M 438.2,39.7 L 443.8,21.7" style="fill:none;fill-rule:evenodd;stroke:#000000;stroke-width:2.0px;stroke-linecap:butt;stroke-linejoin:miter;stroke-opacity:1"/>
<path class="bond-1 atom-1 atom-2" d="M 442.7,38.1 L 446.6,25.6" style="fill:none;fill-rule:evenodd;stroke:#000000;stroke-width:2.0px;stroke-linecap:butt;stroke-linejoin:miter;stroke-opacity:1"/>
<path class="bond-31 atom-7 atom-1" d="M 451.0,53.5 L 438.2,39.7" style="fill:none;fill-rule:evenodd;stroke:#000000;stroke-width:2.0px;stroke-linecap:butt;stroke-linejoin:miter;stroke-opacity:1"/>
<path class="bond-2 atom-2 atom-3" d="M 443.8,21.7 L 462.2,17.6" style="fill:none;fill-rule:evenodd;stroke:#000000;stroke-width:2.0px;stroke-linecap:butt;stroke-linejoin:miter;stroke-opacity:1"/>
<path class="bond-3 atom-3 atom-4" d="M 462.2,17.6 L 474.9,31.4" style="fill:none;fill-rule:evenodd;stroke:#000000;stroke-width:2.0px;stroke-linecap:butt;stroke-linejoin:miter;stroke-opacity:1"/>
<path class="bond-3 atom-3 atom-4" d="M 461.3,22.2 L 470.3,31.9" style="fill:none;fill-rule:evenodd;stroke:#000000;stroke-width:2.0px;stroke-linecap:butt;stroke-linejoin:miter;stroke-opacity:1"/>
<path class="bond-4 atom-4 atom-5" d="M 474.9,31.4 L 483.1,29.5" style="fill:none;fill-rule:evenodd;stroke:#000000;stroke-width:2.0px;stroke-linecap:butt;stroke-linejoin:miter;stroke-opacity:1"/>
<path class="bond-4 atom-4 atom-5" d="M 483.1,29.5 L 491.2,27.7" style="fill:none;fill-rule:evenodd;stroke:#33CCCC;stroke-width:2.0px;stroke-linecap:butt;stroke-linejoin:miter;stroke-opacity:1"/>
<path class="bond-5 atom-4 atom-6" d="M 474.9,31.4 L 469.4,49.4" style="fill:none;fill-rule:evenodd;stroke:#000000;stroke-width:2.0px;stroke-linecap:butt;stroke-linejoin:miter;stroke-opacity:1"/>
<path class="bond-6 atom-6 atom-7" d="M 469.4,49.4 L 451.0,53.5" style="fill:none;fill-rule:evenodd;stroke:#000000;stroke-width:2.0px;stroke-linecap:butt;stroke-linejoin:miter;stroke-opacity:1"/>
<path class="bond-6 atom-6 atom-7" d="M 465.8,46.3 L 452.9,49.2" style="fill:none;fill-rule:evenodd;stroke:#000000;stroke-width:2.0px;stroke-linecap:butt;stroke-linejoin:miter;stroke-opacity:1"/>
<path class="bond-7 atom-7 atom-8" d="M 451.0,53.5 L 448.7,60.9" style="fill:none;fill-rule:evenodd;stroke:#000000;stroke-width:2.0px;stroke-linecap:butt;stroke-linejoin:miter;stroke-opacity:1"/>
<path class="bond-7 atom-7 atom-8" d="M 448.7,60.9 L 446.4,68.4" style="fill:none;fill-rule:evenodd;stroke:#FF0000;stroke-width:2.0px;stroke-linecap:butt;stroke-linejoin:miter;stroke-opacity:1"/>
<path class="bond-8 atom-8 atom-9" d="M 448.4,74.7 L 453.3,80.0" style="fill:none;fill-rule:evenodd;stroke:#FF0000;stroke-width:2.0px;stroke-linecap:butt;stroke-linejoin:miter;stroke-opacity:1"/>
<path class="bond-8 atom-8 atom-9" d="M 453.3,80.0 L 458.3,85.3" style="fill:none;fill-rule:evenodd;stroke:#000000;stroke-width:2.0px;stroke-linecap:butt;stroke-linejoin:miter;stroke-opacity:1"/>
<path class="bond-9 atom-9 atom-10" d="M 458.3,85.3 L 454.6,103.8" style="fill:none;fill-rule:evenodd;stroke:#000000;stroke-width:2.0px;stroke-linecap:butt;stroke-linejoin:miter;stroke-opacity:1"/>
<path class="bond-9 atom-9 atom-10" d="M 461.4,88.8 L 458.8,101.8" style="fill:none;fill-rule:evenodd;stroke:#000000;stroke-width:2.0px;stroke-linecap:butt;stroke-linejoin:miter;stroke-opacity:1"/>
<path class="bond-32 atom-27 atom-9" d="M 474.5,83.4 L 466.4,84.4" style="fill:none;fill-rule:evenodd;stroke:#0000FF;stroke-width:2.0px;stroke-linecap:butt;stroke-linejoin:miter;stroke-opacity:1"/>
<path class="bond-32 atom-27 atom-9" d="M 466.4,84.4 L 458.3,85.3" style="fill:none;fill-rule:evenodd;stroke:#000000;stroke-width:2.0px;stroke-linecap:butt;stroke-linejoin:miter;stroke-opacity:1"/>
<path class="bond-10 atom-10 atom-11" d="M 454.6,103.8 L 437.5,111.7" style="fill:none;fill-rule:evenodd;stroke:#000000;stroke-width:2.0px;stroke-linecap:butt;stroke-linejoin:miter;stroke-opacity:1"/>
<path class="bond-19 atom-10 atom-20" d="M 454.6,103.8 L 471.0,113.0" style="fill:none;fill-rule:evenodd;stroke:#000000;stroke-width:2.0px;stroke-linecap:butt;stroke-linejoin:miter;stroke-opacity:1"/>
<path class="bond-11 atom-11 atom-12" d="M 435.6,111.5 L 434.9,119.3" style="fill:none;fill-rule:evenodd;stroke:#000000;stroke-width:2.0px;stroke-linecap:butt;stroke-linejoin:miter;stroke-opacity:1"/>
<path class="bond-11 atom-11 atom-12" d="M 434.9,119.3 L 434.2,127.1" style="fill:none;fill-rule:evenodd;stroke:#FF0000;stroke-width:2.0px;stroke-linecap:butt;stroke-linejoin:miter;stroke-opacity:1"/>
<path class="bond-11 atom-11 atom-12" d="M 439.4,111.9 L 438.7,119.7" style="fill:none;fill-rule:evenodd;stroke:#000000;stroke-width:2.0px;stroke-linecap:butt;stroke-linejoin:miter;stroke-opacity:1"/>
<path class="bond-11 atom-11 atom-12" d="M 438.7,119.7 L 438.0,127.4" style="fill:none;fill-rule:evenodd;stroke:#FF0000;stroke-width:2.0px;stroke-linecap:butt;stroke-linejoin:miter;stroke-opacity:1"/>
<path class="bond-12 atom-11 atom-13" d="M 437.5,111.7 L 431.1,107.1" style="fill:none;fill-rule:evenodd;stroke:#000000;stroke-width:2.0px;stroke-linecap:butt;stroke-linejoin:miter;stroke-opacity:1"/>
<path class="bond-12 atom-11 atom-13" d="M 431.1,107.1 L 424.6,102.6" style="fill:none;fill-rule:evenodd;stroke:#0000FF;stroke-width:2.0px;stroke-linecap:butt;stroke-linejoin:miter;stroke-opacity:1"/>
<path class="bond-13 atom-13 atom-14" d="M 422.4,97.7 L 423.1,89.9" style="fill:none;fill-rule:evenodd;stroke:#0000FF;stroke-width:2.0px;stroke-linecap:butt;stroke-linejoin:miter;stroke-opacity:1"/>
<path class="bond-13 atom-13 atom-14" d="M 423.1,89.9 L 423.8,82.1" style="fill:none;fill-rule:evenodd;stroke:#000000;stroke-width:2.0px;stroke-linecap:butt;stroke-linejoin:miter;stroke-opacity:1"/>
<path class="bond-34 atom-19 atom-13" d="M 405.0,108.7 L 412.3,105.4" style="fill:none;fill-rule:evenodd;stroke:#000000;stroke-width:2.0px;stroke-linecap:butt;stroke-linejoin:miter;stroke-opacity:1"/>
<path class="bond-34 atom-19 atom-13" d="M 412.3,105.4 L 419.6,102.0" style="fill:none;fill-rule:evenodd;stroke:#0000FF;stroke-width:2.0px;stroke-linecap:butt;stroke-linejoin:miter;stroke-opacity:1"/>
<path class="bond-14 atom-14 atom-15" d="M 423.8,82.1 L 408.5,71.2" style="fill:none;fill-rule:evenodd;stroke:#000000;stroke-width:2.0px;stroke-linecap:butt;stroke-linejoin:miter;stroke-opacity:1"/>
<path class="bond-15 atom-15 atom-16" d="M 408.5,71.2 L 401.2,74.6" style="fill:none;fill-rule:evenodd;stroke:#000000;stroke-width:2.0px;stroke-linecap:butt;stroke-linejoin:miter;stroke-opacity:1"/>
<path class="bond-15 atom-15 atom-16" d="M 401.2,74.6 L 393.9,78.0" style="fill:none;fill-rule:evenodd;stroke:#0000FF;stroke-width:2.0px;stroke-linecap:butt;stroke-linejoin:miter;stroke-opacity:1"/>
<path class="bond-16 atom-16 atom-17" d="M 391.1,82.3 L 390.4,90.1" style="fill:none;fill-rule:evenodd;stroke:#0000FF;stroke-width:2.0px;stroke-linecap:butt;stroke-linejoin:miter;stroke-opacity:1"/>
<path class="bond-16 atom-16 atom-17" d="M 390.4,90.1 L 389.7,97.9" style="fill:none;fill-rule:evenodd;stroke:#000000;stroke-width:2.0px;stroke-linecap:butt;stroke-linejoin:miter;stroke-opacity:1"/>
<path class="bond-17 atom-17 atom-18" d="M 389.7,97.9 L 372.6,105.8" style="fill:none;fill-rule:evenodd;stroke:#000000;stroke-width:2.0px;stroke-linecap:butt;stroke-linejoin:miter;stroke-opacity:1"/>
<path class="bond-18 atom-17 atom-19" d="M 389.7,97.9 L 405.0,108.7" style="fill:none;fill-rule:evenodd;stroke:#000000;stroke-width:2.0px;stroke-linecap:butt;stroke-linejoin:miter;stroke-opacity:1"/>
<path class="bond-20 atom-20 atom-21" d="M 471.0,113.0 L 475.2,131.3" style="fill:none;fill-rule:evenodd;stroke:#000000;stroke-width:2.0px;stroke-linecap:butt;stroke-linejoin:miter;stroke-opacity:1"/>
<path class="bond-20 atom-20 atom-21" d="M 475.3,114.9 L 478.2,127.7" style="fill:none;fill-rule:evenodd;stroke:#000000;stroke-width:2.0px;stroke-linecap:butt;stroke-linejoin:miter;stroke-opacity:1"/>
<path class="bond-35 atom-26 atom-20" d="M 484.8,100.2 L 471.0,113.0" style="fill:none;fill-rule:evenodd;stroke:#000000;stroke-width:2.0px;stroke-linecap:butt;stroke-linejoin:miter;stroke-opacity:1"/>
<path class="bond-21 atom-21 atom-22" d="M 475.2,131.3 L 482.9,133.7" style="fill:none;fill-rule:evenodd;stroke:#000000;stroke-width:2.0px;stroke-linecap:butt;stroke-linejoin:miter;stroke-opacity:1"/>
<path class="bond-21 atom-21 atom-22" d="M 482.9,133.7 L 490.7,136.1" style="fill:none;fill-rule:evenodd;stroke:#0000FF;stroke-width:2.0px;stroke-linecap:butt;stroke-linejoin:miter;stroke-opacity:1"/>
<path class="bond-22 atom-22 atom-23" d="M 495.7,134.6 L 501.3,129.3" style="fill:none;fill-rule:evenodd;stroke:#0000FF;stroke-width:2.0px;stroke-linecap:butt;stroke-linejoin:miter;stroke-opacity:1"/>
<path class="bond-22 atom-22 atom-23" d="M 501.3,129.3 L 507.0,124.1" style="fill:none;fill-rule:evenodd;stroke:#000000;stroke-width:2.0px;stroke-linecap:butt;stroke-linejoin:miter;stroke-opacity:1"/>
<path class="bond-23 atom-23 atom-24" d="M 506.4,125.9 L 514.0,128.2" style="fill:none;fill-rule:evenodd;stroke:#000000;stroke-width:2.0px;stroke-linecap:butt;stroke-linejoin:miter;stroke-opacity:1"/>
<path class="bond-23 atom-23 atom-24" d="M 514.0,128.2 L 521.5,130.6" style="fill:none;fill-rule:evenodd;stroke:#FF0000;stroke-width:2.0px;stroke-linecap:butt;stroke-linejoin:miter;stroke-opacity:1"/>
<path class="bond-23 atom-23 atom-24" d="M 507.5,122.3 L 515.1,124.6" style="fill:none;fill-rule:evenodd;stroke:#000000;stroke-width:2.0px;stroke-linecap:butt;stroke-linejoin:miter;stroke-opacity:1"/>
<path class="bond-23 atom-23 atom-24" d="M 515.1,124.6 L 522.6,127.0" style="fill:none;fill-rule:evenodd;stroke:#FF0000;stroke-width:2.0px;stroke-linecap:butt;stroke-linejoin:miter;stroke-opacity:1"/>
<path class="bond-24 atom-23 atom-25" d="M 507.0,124.1 L 502.8,105.8" style="fill:none;fill-rule:evenodd;stroke:#000000;stroke-width:2.0px;stroke-linecap:butt;stroke-linejoin:miter;stroke-opacity:1"/>
<path class="bond-25 atom-25 atom-26" d="M 502.8,105.8 L 484.8,100.2" style="fill:none;fill-rule:evenodd;stroke:#000000;stroke-width:2.0px;stroke-linecap:butt;stroke-linejoin:miter;stroke-opacity:1"/>
<path class="bond-25 atom-25 atom-26" d="M 499.0,108.5 L 486.4,104.6" style="fill:none;fill-rule:evenodd;stroke:#000000;stroke-width:2.0px;stroke-linecap:butt;stroke-linejoin:miter;stroke-opacity:1"/>
<path class="bond-26 atom-26 atom-27" d="M 484.8,100.2 L 481.6,93.2" style="fill:none;fill-rule:evenodd;stroke:#000000;stroke-width:2.0px;stroke-linecap:butt;stroke-linejoin:miter;stroke-opacity:1"/>
<path class="bond-26 atom-26 atom-27" d="M 481.6,93.2 L 478.4,86.2" style="fill:none;fill-rule:evenodd;stroke:#0000FF;stroke-width:2.0px;stroke-linecap:butt;stroke-linejoin:miter;stroke-opacity:1"/>
<path class="bond-27 atom-27 atom-28" d="M 478.7,80.0 L 482.4,73.3" style="fill:none;fill-rule:evenodd;stroke:#0000FF;stroke-width:2.0px;stroke-linecap:butt;stroke-linejoin:miter;stroke-opacity:1"/>
<path class="bond-27 atom-27 atom-28" d="M 482.4,73.3 L 486.1,66.7" style="fill:none;fill-rule:evenodd;stroke:#000000;stroke-width:2.0px;stroke-linecap:butt;stroke-linejoin:miter;stroke-opacity:1"/>
<path class="bond-28 atom-28 atom-29" d="M 486.1,66.7 L 504.2,61.5" style="fill:none;fill-rule:evenodd;stroke:#000000;stroke-width:2.0px;stroke-linecap:butt;stroke-linejoin:miter;stroke-opacity:1"/>
<path class="bond-33 atom-31 atom-28" d="M 481.0,48.6 L 486.1,66.7" style="fill:none;fill-rule:evenodd;stroke:#000000;stroke-width:2.0px;stroke-linecap:butt;stroke-linejoin:miter;stroke-opacity:1"/>
<path class="bond-29 atom-29 atom-30" d="M 504.2,61.5 L 499.1,43.4" style="fill:none;fill-rule:evenodd;stroke:#000000;stroke-width:2.0px;stroke-linecap:butt;stroke-linejoin:miter;stroke-opacity:1"/>
<path class="bond-30 atom-30 atom-31" d="M 499.1,43.4 L 481.0,48.6" style="fill:none;fill-rule:evenodd;stroke:#000000;stroke-width:2.0px;stroke-linecap:butt;stroke-linejoin:miter;stroke-opacity:1"/>
<path class="atom-5" d="M 491.7 24.6 L 494.9 24.6 L 494.9 25.2 L 492.4 25.2 L 492.4 26.8 L 494.6 26.8 L 494.6 27.4 L 492.4 27.4 L 492.4 29.9 L 491.7 29.9 L 491.7 24.6 " fill="#33CCCC"/>
<path class="atom-8" d="M 443.0 71.5 Q 443.0 70.3, 443.7 69.5 Q 444.3 68.8, 445.5 68.8 Q 446.6 68.8, 447.3 69.5 Q 447.9 70.3, 447.9 71.5 Q 447.9 72.8, 447.3 73.6 Q 446.6 74.3, 445.5 74.3 Q 444.3 74.3, 443.7 73.6 Q 443.0 72.8, 443.0 71.5 M 445.5 73.7 Q 446.3 73.7, 446.7 73.2 Q 447.2 72.6, 447.2 71.5 Q 447.2 70.5, 446.7 70.0 Q 446.3 69.4, 445.5 69.4 Q 444.7 69.4, 444.2 70.0 Q 443.8 70.5, 443.8 71.5 Q 443.8 72.6, 444.2 73.2 Q 444.7 73.7, 445.5 73.7 " fill="#FF0000"/>
<path class="atom-12" d="M 433.4 130.5 Q 433.4 129.2, 434.0 128.5 Q 434.6 127.7, 435.8 127.7 Q 437.0 127.7, 437.6 128.5 Q 438.3 129.2, 438.3 130.5 Q 438.3 131.7, 437.6 132.5 Q 437.0 133.2, 435.8 133.2 Q 434.6 133.2, 434.0 132.5 Q 433.4 131.8, 433.4 130.5 M 435.8 132.6 Q 436.6 132.6, 437.1 132.1 Q 437.5 131.5, 437.5 130.5 Q 437.5 129.4, 437.1 128.9 Q 436.6 128.3, 435.8 128.3 Q 435.0 128.3, 434.6 128.9 Q 434.1 129.4, 434.1 130.5 Q 434.1 131.5, 434.6 132.1 Q 435.0 132.6, 435.8 132.6 " fill="#FF0000"/>
<path class="atom-13" d="M 421.0 98.2 L 422.7 101.0 Q 422.9 101.3, 423.2 101.8 Q 423.4 102.3, 423.4 102.3 L 423.4 98.2 L 424.2 98.2 L 424.2 103.5 L 423.4 103.5 L 421.5 100.4 Q 421.3 100.1, 421.1 99.6 Q 420.9 99.2, 420.8 99.1 L 420.8 103.5 L 420.1 103.5 L 420.1 98.2 L 421.0 98.2 " fill="#0000FF"/>
<path class="atom-16" d="M 384.6 76.5 L 385.3 76.5 L 385.3 78.7 L 388.0 78.7 L 388.0 76.5 L 388.7 76.5 L 388.7 81.8 L 388.0 81.8 L 388.0 79.3 L 385.3 79.3 L 385.3 81.8 L 384.6 81.8 L 384.6 76.5 " fill="#0000FF"/>
<path class="atom-16" d="M 390.2 76.5 L 391.9 79.3 Q 392.1 79.6, 392.4 80.1 Q 392.7 80.6, 392.7 80.6 L 392.7 76.5 L 393.4 76.5 L 393.4 81.8 L 392.7 81.8 L 390.8 78.7 Q 390.6 78.4, 390.3 77.9 Q 390.1 77.5, 390.0 77.4 L 390.0 81.8 L 389.3 81.8 L 389.3 76.5 L 390.2 76.5 " fill="#0000FF"/>
<path class="atom-22" d="M 492.0 134.2 L 493.8 137.1 Q 493.9 137.3, 494.2 137.8 Q 494.5 138.3, 494.5 138.4 L 494.5 134.2 L 495.2 134.2 L 495.2 139.6 L 494.5 139.6 L 492.6 136.5 Q 492.4 136.1, 492.1 135.7 Q 491.9 135.3, 491.9 135.2 L 491.9 139.6 L 491.2 139.6 L 491.2 134.2 L 492.0 134.2 " fill="#0000FF"/>
<path class="atom-22" d="M 491.1 140.1 L 491.8 140.1 L 491.8 142.4 L 494.5 142.4 L 494.5 140.1 L 495.3 140.1 L 495.3 145.4 L 494.5 145.4 L 494.5 143.0 L 491.8 143.0 L 491.8 145.4 L 491.1 145.4 L 491.1 140.1 " fill="#0000FF"/>
<path class="atom-24" d="M 522.5 129.7 Q 522.5 128.4, 523.2 127.7 Q 523.8 127.0, 525.0 127.0 Q 526.2 127.0, 526.8 127.7 Q 527.4 128.4, 527.4 129.7 Q 527.4 131.0, 526.8 131.7 Q 526.1 132.5, 525.0 132.5 Q 523.8 132.5, 523.2 131.7 Q 522.5 131.0, 522.5 129.7 M 525.0 131.8 Q 525.8 131.8, 526.2 131.3 Q 526.7 130.8, 526.7 129.7 Q 526.7 128.6, 526.2 128.1 Q 525.8 127.6, 525.0 127.6 Q 524.2 127.6, 523.7 128.1 Q 523.3 128.6, 523.3 129.7 Q 523.3 130.8, 523.7 131.3 Q 524.2 131.8, 525.0 131.8 " fill="#FF0000"/>
<path class="atom-27" d="M 475.8 80.4 L 477.5 83.3 Q 477.7 83.5, 478.0 84.0 Q 478.2 84.5, 478.3 84.6 L 478.3 80.4 L 479.0 80.4 L 479.0 85.8 L 478.2 85.8 L 476.4 82.7 Q 476.1 82.3, 475.9 81.9 Q 475.7 81.5, 475.6 81.4 L 475.6 85.8 L 474.9 85.8 L 474.9 80.4 L 475.8 80.4 " fill="#0000FF"/>
</svg>