<svg baseProfile="full" height="160px" version="1.1" viewBox="0 0 1500 160" width="1500px" xml:space="preserve" xmlns="http://www.w3.org/2000/svg" xmlns:rdkit="http://www.rdkit.org/xml" xmlns:xlink="http://www.w3.org/1999/xlink">
<!-- END OF HEADER -->
<rect height="160.0" style="opacity:1.0;fill:#FFFFFF;stroke:none" width="1500.0" x="0.0" y="0.0"> </rect>
<rect height="160.0" style="opacity:1.0;fill:#FFFFFF;stroke:none" width="1500.0" x="0.0" y="0.0"> </rect>
<rect height="160.0" style="opacity:1.0;fill:#FFFFFF;stroke:none" width="1500.0" x="0.0" y="0.0"> </rect>
<rect height="160.0" style="opacity:1.0;fill:#FFFFFF;stroke:none" width="1500.0" x="0.0" y="0.0"> </rect>
<path class="bond-0 atom-0 atom-1" d="M 74.0,89.3 L 82.7,70.2" style="fill:none;fill-rule:evenodd;stroke:#000000;stroke-width:2.0px;stroke-linecap:butt;stroke-linejoin:miter;stroke-opacity:1"/>
<path class="bond-1 atom-1 atom-2" d="M 82.7,70.2 L 70.5,53.1" style="fill:none;fill-rule:evenodd;stroke:#000000;stroke-width:2.0px;stroke-linecap:butt;stroke-linejoin:miter;stroke-opacity:1"/>
<path class="bond-1 atom-1 atom-2" d="M 84.3,65.2 L 75.8,53.2" style="fill:none;fill-rule:evenodd;stroke:#000000;stroke-width:2.0px;stroke-linecap:butt;stroke-linejoin:miter;stroke-opacity:1"/>
<path class="bond-32 atom-7 atom-1" d="M 103.6,68.2 L 82.7,70.2" style="fill:none;fill-rule:evenodd;stroke:#000000;stroke-width:2.0px;stroke-linecap:butt;stroke-linejoin:miter;stroke-opacity:1"/>
<path class="bond-2 atom-2 atom-3" d="M 70.5,53.1 L 61.2,54.0" style="fill:none;fill-rule:evenodd;stroke:#000000;stroke-width:2.0px;stroke-linecap:butt;stroke-linejoin:miter;stroke-opacity:1"/>
<path class="bond-2 atom-2 atom-3" d="M 61.2,54.0 L 51.9,54.9" style="fill:none;fill-rule:evenodd;stroke:#33CCCC;stroke-width:2.0px;stroke-linecap:butt;stroke-linejoin:miter;stroke-opacity:1"/>
<path class="bond-3 atom-2 atom-4" d="M 70.5,53.1 L 79.3,34.0" style="fill:none;fill-rule:evenodd;stroke:#000000;stroke-width:2.0px;stroke-linecap:butt;stroke-linejoin:miter;stroke-opacity:1"/>
<path class="bond-4 atom-4 atom-5" d="M 79.3,34.0 L 100.2,32.0" style="fill:none;fill-rule:evenodd;stroke:#000000;stroke-width:2.0px;stroke-linecap:butt;stroke-linejoin:miter;stroke-opacity:1"/>
<path class="bond-4 atom-4 atom-5" d="M 82.8,37.9 L 97.4,36.5" style="fill:none;fill-rule:evenodd;stroke:#000000;stroke-width:2.0px;stroke-linecap:butt;stroke-linejoin:miter;stroke-opacity:1"/>
<path class="bond-5 atom-5 atom-6" d="M 100.2,32.0 L 112.4,49.1" style="fill:none;fill-rule:evenodd;stroke:#000000;stroke-width:2.0px;stroke-linecap:butt;stroke-linejoin:miter;stroke-opacity:1"/>
<path class="bond-6 atom-6 atom-7" d="M 112.4,49.1 L 103.6,68.2" style="fill:none;fill-rule:evenodd;stroke:#000000;stroke-width:2.0px;stroke-linecap:butt;stroke-linejoin:miter;stroke-opacity:1"/>
<path class="bond-6 atom-6 atom-7" d="M 107.2,50.2 L 101.1,63.6" style="fill:none;fill-rule:evenodd;stroke:#000000;stroke-width:2.0px;stroke-linecap:butt;stroke-linejoin:miter;stroke-opacity:1"/>
<path class="bond-7 atom-7 atom-8" d="M 103.6,68.2 L 115.8,85.3" style="fill:none;fill-rule:evenodd;stroke:#000000;stroke-width:2.0px;stroke-linecap:butt;stroke-linejoin:miter;stroke-opacity:1"/>
<path class="bond-8 atom-8 atom-9" d="M 115.8,85.3 L 136.7,83.3" style="fill:none;fill-rule:evenodd;stroke:#000000;stroke-width:2.0px;stroke-linecap:butt;stroke-linejoin:miter;stroke-opacity:1"/>
<path class="bond-9 atom-9 atom-10" d="M 136.7,83.3 L 150.7,99.1" style="fill:none;fill-rule:evenodd;stroke:#000000;stroke-width:2.0px;stroke-linecap:butt;stroke-linejoin:miter;stroke-opacity:1"/>
<path class="bond-9 atom-9 atom-10" d="M 142.0,82.9 L 151.7,94.0" style="fill:none;fill-rule:evenodd;stroke:#000000;stroke-width:2.0px;stroke-linecap:butt;stroke-linejoin:miter;stroke-opacity:1"/>
<path class="bond-33 atom-26 atom-9" d="M 145.4,68.7 L 141.1,76.0" style="fill:none;fill-rule:evenodd;stroke:#0000FF;stroke-width:2.0px;stroke-linecap:butt;stroke-linejoin:miter;stroke-opacity:1"/>
<path class="bond-33 atom-26 atom-9" d="M 141.1,76.0 L 136.7,83.3" style="fill:none;fill-rule:evenodd;stroke:#000000;stroke-width:2.0px;stroke-linecap:butt;stroke-linejoin:miter;stroke-opacity:1"/>
<path class="bond-10 atom-10 atom-11" d="M 150.7,99.1 L 146.1,119.6" style="fill:none;fill-rule:evenodd;stroke:#000000;stroke-width:2.0px;stroke-linecap:butt;stroke-linejoin:miter;stroke-opacity:1"/>
<path class="bond-18 atom-10 atom-19" d="M 150.7,99.1 L 169.9,90.7" style="fill:none;fill-rule:evenodd;stroke:#000000;stroke-width:2.0px;stroke-linecap:butt;stroke-linejoin:miter;stroke-opacity:1"/>
<path class="bond-11 atom-11 atom-12" d="M 144.7,121.2 L 150.8,126.8" style="fill:none;fill-rule:evenodd;stroke:#000000;stroke-width:2.0px;stroke-linecap:butt;stroke-linejoin:miter;stroke-opacity:1"/>
<path class="bond-11 atom-11 atom-12" d="M 150.8,126.8 L 156.9,132.4" style="fill:none;fill-rule:evenodd;stroke:#FF0000;stroke-width:2.0px;stroke-linecap:butt;stroke-linejoin:miter;stroke-opacity:1"/>
<path class="bond-11 atom-11 atom-12" d="M 147.5,118.1 L 153.6,123.7" style="fill:none;fill-rule:evenodd;stroke:#000000;stroke-width:2.0px;stroke-linecap:butt;stroke-linejoin:miter;stroke-opacity:1"/>
<path class="bond-11 atom-11 atom-12" d="M 153.6,123.7 L 159.7,129.3" style="fill:none;fill-rule:evenodd;stroke:#FF0000;stroke-width:2.0px;stroke-linecap:butt;stroke-linejoin:miter;stroke-opacity:1"/>
<path class="bond-12 atom-11 atom-13" d="M 146.1,119.6 L 137.5,122.3" style="fill:none;fill-rule:evenodd;stroke:#000000;stroke-width:2.0px;stroke-linecap:butt;stroke-linejoin:miter;stroke-opacity:1"/>
<path class="bond-12 atom-11 atom-13" d="M 137.5,122.3 L 128.8,125.0" style="fill:none;fill-rule:evenodd;stroke:#0000FF;stroke-width:2.0px;stroke-linecap:butt;stroke-linejoin:miter;stroke-opacity:1"/>
<path class="bond-13 atom-13 atom-14" d="M 123.3,123.4 L 116.9,117.5" style="fill:none;fill-rule:evenodd;stroke:#0000FF;stroke-width:2.0px;stroke-linecap:butt;stroke-linejoin:miter;stroke-opacity:1"/>
<path class="bond-13 atom-13 atom-14" d="M 116.9,117.5 L 110.6,111.7" style="fill:none;fill-rule:evenodd;stroke:#000000;stroke-width:2.0px;stroke-linecap:butt;stroke-linejoin:miter;stroke-opacity:1"/>
<path class="bond-35 atom-18 atom-13" d="M 121.5,146.4 L 123.4,137.9" style="fill:none;fill-rule:evenodd;stroke:#000000;stroke-width:2.0px;stroke-linecap:butt;stroke-linejoin:miter;stroke-opacity:1"/>
<path class="bond-35 atom-18 atom-13" d="M 123.4,137.9 L 125.3,129.4" style="fill:none;fill-rule:evenodd;stroke:#0000FF;stroke-width:2.0px;stroke-linecap:butt;stroke-linejoin:miter;stroke-opacity:1"/>
<path class="bond-14 atom-14 atom-15" d="M 110.6,111.7 L 90.5,118.0" style="fill:none;fill-rule:evenodd;stroke:#000000;stroke-width:2.0px;stroke-linecap:butt;stroke-linejoin:miter;stroke-opacity:1"/>
<path class="bond-15 atom-15 atom-16" d="M 90.5,118.0 L 88.6,126.5" style="fill:none;fill-rule:evenodd;stroke:#000000;stroke-width:2.0px;stroke-linecap:butt;stroke-linejoin:miter;stroke-opacity:1"/>
<path class="bond-15 atom-15 atom-16" d="M 88.6,126.5 L 86.7,135.0" style="fill:none;fill-rule:evenodd;stroke:#0000FF;stroke-width:2.0px;stroke-linecap:butt;stroke-linejoin:miter;stroke-opacity:1"/>
<path class="bond-16 atom-16 atom-17" d="M 88.7,141.1 L 95.1,146.9" style="fill:none;fill-rule:evenodd;stroke:#0000FF;stroke-width:2.0px;stroke-linecap:butt;stroke-linejoin:miter;stroke-opacity:1"/>
<path class="bond-16 atom-16 atom-17" d="M 95.1,146.9 L 101.4,152.7" style="fill:none;fill-rule:evenodd;stroke:#000000;stroke-width:2.0px;stroke-linecap:butt;stroke-linejoin:miter;stroke-opacity:1"/>
<path class="bond-17 atom-17 atom-18" d="M 101.4,152.7 L 121.5,146.4" style="fill:none;fill-rule:evenodd;stroke:#000000;stroke-width:2.0px;stroke-linecap:butt;stroke-linejoin:miter;stroke-opacity:1"/>
<path class="bond-19 atom-19 atom-20" d="M 169.9,90.7 L 189.1,99.5" style="fill:none;fill-rule:evenodd;stroke:#000000;stroke-width:2.0px;stroke-linecap:butt;stroke-linejoin:miter;stroke-opacity:1"/>
<path class="bond-19 atom-19 atom-20" d="M 174.6,88.2 L 187.9,94.3" style="fill:none;fill-rule:evenodd;stroke:#000000;stroke-width:2.0px;stroke-linecap:butt;stroke-linejoin:miter;stroke-opacity:1"/>
<path class="bond-36 atom-25 atom-19" d="M 167.9,69.8 L 169.9,90.7" style="fill:none;fill-rule:evenodd;stroke:#000000;stroke-width:2.0px;stroke-linecap:butt;stroke-linejoin:miter;stroke-opacity:1"/>
<path class="bond-20 atom-20 atom-21" d="M 189.1,99.5 L 206.2,87.3" style="fill:none;fill-rule:evenodd;stroke:#000000;stroke-width:2.0px;stroke-linecap:butt;stroke-linejoin:miter;stroke-opacity:1"/>
<path class="bond-21 atom-21 atom-22" d="M 206.2,87.3 L 204.2,66.4" style="fill:none;fill-rule:evenodd;stroke:#000000;stroke-width:2.0px;stroke-linecap:butt;stroke-linejoin:miter;stroke-opacity:1"/>
<path class="bond-21 atom-21 atom-22" d="M 201.7,84.5 L 200.3,69.9" style="fill:none;fill-rule:evenodd;stroke:#000000;stroke-width:2.0px;stroke-linecap:butt;stroke-linejoin:miter;stroke-opacity:1"/>
<path class="bond-22 atom-22 atom-23" d="M 204.2,66.4 L 211.1,61.4" style="fill:none;fill-rule:evenodd;stroke:#000000;stroke-width:2.0px;stroke-linecap:butt;stroke-linejoin:miter;stroke-opacity:1"/>
<path class="bond-22 atom-22 atom-23" d="M 211.1,61.4 L 218.0,56.5" style="fill:none;fill-rule:evenodd;stroke:#FF0000;stroke-width:2.0px;stroke-linecap:butt;stroke-linejoin:miter;stroke-opacity:1"/>
<path class="bond-23 atom-22 atom-24" d="M 204.2,66.4 L 185.1,57.6" style="fill:none;fill-rule:evenodd;stroke:#000000;stroke-width:2.0px;stroke-linecap:butt;stroke-linejoin:miter;stroke-opacity:1"/>
<path class="bond-24 atom-24 atom-25" d="M 185.1,57.6 L 167.9,69.8" style="fill:none;fill-rule:evenodd;stroke:#000000;stroke-width:2.0px;stroke-linecap:butt;stroke-linejoin:miter;stroke-opacity:1"/>
<path class="bond-24 atom-24 atom-25" d="M 184.9,62.9 L 173.0,71.4" style="fill:none;fill-rule:evenodd;stroke:#000000;stroke-width:2.0px;stroke-linecap:butt;stroke-linejoin:miter;stroke-opacity:1"/>
<path class="bond-25 atom-25 atom-26" d="M 167.9,69.8 L 159.1,67.8" style="fill:none;fill-rule:evenodd;stroke:#000000;stroke-width:2.0px;stroke-linecap:butt;stroke-linejoin:miter;stroke-opacity:1"/>
<path class="bond-25 atom-25 atom-26" d="M 159.1,67.8 L 150.2,65.9" style="fill:none;fill-rule:evenodd;stroke:#0000FF;stroke-width:2.0px;stroke-linecap:butt;stroke-linejoin:miter;stroke-opacity:1"/>
<path class="bond-26 atom-26 atom-27" d="M 145.9,61.7 L 142.5,53.9" style="fill:none;fill-rule:evenodd;stroke:#0000FF;stroke-width:2.0px;stroke-linecap:butt;stroke-linejoin:miter;stroke-opacity:1"/>
<path class="bond-26 atom-26 atom-27" d="M 142.5,53.9 L 139.1,46.0" style="fill:none;fill-rule:evenodd;stroke:#000000;stroke-width:2.0px;stroke-linecap:butt;stroke-linejoin:miter;stroke-opacity:1"/>
<path class="bond-27 atom-27 atom-28" d="M 139.1,46.0 L 151.6,29.1" style="fill:none;fill-rule:evenodd;stroke:#000000;stroke-width:2.0px;stroke-linecap:butt;stroke-linejoin:miter;stroke-opacity:1"/>
<path class="bond-27 atom-27 atom-28" d="M 137.6,40.9 L 146.3,29.1" style="fill:none;fill-rule:evenodd;stroke:#000000;stroke-width:2.0px;stroke-linecap:butt;stroke-linejoin:miter;stroke-opacity:1"/>
<path class="bond-34 atom-32 atom-27" d="M 118.2,43.6 L 139.1,46.0" style="fill:none;fill-rule:evenodd;stroke:#000000;stroke-width:2.0px;stroke-linecap:butt;stroke-linejoin:miter;stroke-opacity:1"/>
<path class="bond-28 atom-28 atom-29" d="M 151.6,29.1 L 143.2,9.8" style="fill:none;fill-rule:evenodd;stroke:#000000;stroke-width:2.0px;stroke-linecap:butt;stroke-linejoin:miter;stroke-opacity:1"/>
<path class="bond-29 atom-29 atom-30" d="M 143.2,9.8 L 122.3,7.4" style="fill:none;fill-rule:evenodd;stroke:#000000;stroke-width:2.0px;stroke-linecap:butt;stroke-linejoin:miter;stroke-opacity:1"/>
<path class="bond-29 atom-29 atom-30" d="M 139.6,13.6 L 125.0,11.9" style="fill:none;fill-rule:evenodd;stroke:#000000;stroke-width:2.0px;stroke-linecap:butt;stroke-linejoin:miter;stroke-opacity:1"/>
<path class="bond-30 atom-30 atom-31" d="M 122.3,7.4 L 109.8,24.3" style="fill:none;fill-rule:evenodd;stroke:#000000;stroke-width:2.0px;stroke-linecap:butt;stroke-linejoin:miter;stroke-opacity:1"/>
<path class="bond-31 atom-31 atom-32" d="M 109.8,24.3 L 118.2,43.6" style="fill:none;fill-rule:evenodd;stroke:#000000;stroke-width:2.0px;stroke-linecap:butt;stroke-linejoin:miter;stroke-opacity:1"/>
<path class="bond-31 atom-31 atom-32" d="M 114.9,25.5 L 120.8,39.0" style="fill:none;fill-rule:evenodd;stroke:#000000;stroke-width:2.0px;stroke-linecap:butt;stroke-linejoin:miter;stroke-opacity:1"/>
<path class="atom-3" d="M 47.8 52.1 L 51.4 52.1 L 51.4 52.8 L 48.6 52.8 L 48.6 54.6 L 51.1 54.6 L 51.1 55.3 L 48.6 55.3 L 48.6 58.1 L 47.8 58.1 L 47.8 52.1 " fill="#33CCCC"/>
<path class="atom-12" d="M 158.8 133.8 Q 158.8 132.4, 159.6 131.6 Q 160.3 130.8, 161.6 130.8 Q 162.9 130.8, 163.6 131.6 Q 164.3 132.4, 164.3 133.8 Q 164.3 135.3, 163.6 136.1 Q 162.9 136.9, 161.6 136.9 Q 160.3 136.9, 159.6 136.1 Q 158.8 135.3, 158.8 133.8 M 161.6 136.3 Q 162.5 136.3, 163.0 135.7 Q 163.5 135.0, 163.5 133.8 Q 163.5 132.7, 163.0 132.1 Q 162.5 131.5, 161.6 131.5 Q 160.7 131.5, 160.2 132.1 Q 159.7 132.7, 159.7 133.8 Q 159.7 135.0, 160.2 135.7 Q 160.7 136.3, 161.6 136.3 " fill="#FF0000"/>
<path class="atom-13" d="M 124.7 122.9 L 126.7 126.1 Q 126.9 126.4, 127.2 127.0 Q 127.5 127.5, 127.5 127.6 L 127.5 122.9 L 128.3 122.9 L 128.3 128.9 L 127.5 128.9 L 125.4 125.4 Q 125.1 125.0, 124.9 124.6 Q 124.6 124.1, 124.6 124.0 L 124.6 128.9 L 123.8 128.9 L 123.8 122.9 L 124.7 122.9 " fill="#0000FF"/>
<path class="atom-16" d="M 78.3 135.5 L 79.1 135.5 L 79.1 138.1 L 82.2 138.1 L 82.2 135.5 L 83.0 135.5 L 83.0 141.5 L 82.2 141.5 L 82.2 138.7 L 79.1 138.7 L 79.1 141.5 L 78.3 141.5 L 78.3 135.5 " fill="#0000FF"/>
<path class="atom-16" d="M 84.6 135.5 L 86.6 138.7 Q 86.8 139.0, 87.1 139.6 Q 87.4 140.1, 87.4 140.2 L 87.4 135.5 L 88.2 135.5 L 88.2 141.5 L 87.4 141.5 L 85.3 138.1 Q 85.0 137.6, 84.8 137.2 Q 84.5 136.7, 84.5 136.6 L 84.5 141.5 L 83.7 141.5 L 83.7 135.5 L 84.6 135.5 " fill="#0000FF"/>
<path class="atom-23" d="M 218.6 54.2 Q 218.6 52.8, 219.3 52.0 Q 220.0 51.2, 221.3 51.2 Q 222.6 51.2, 223.3 52.0 Q 224.0 52.8, 224.0 54.2 Q 224.0 55.6, 223.3 56.5 Q 222.6 57.3, 221.3 57.3 Q 220.0 57.3, 219.3 56.5 Q 218.6 55.6, 218.6 54.2 M 221.3 56.6 Q 222.2 56.6, 222.7 56.0 Q 223.2 55.4, 223.2 54.2 Q 223.2 53.0, 222.7 52.4 Q 222.2 51.8, 221.3 51.8 Q 220.4 51.8, 219.9 52.4 Q 219.4 53.0, 219.4 54.2 Q 219.4 55.4, 219.9 56.0 Q 220.4 56.6, 221.3 56.6 " fill="#FF0000"/>
<path class="atom-23" d="M 224.8 51.2 L 225.6 51.2 L 225.6 53.8 L 228.6 53.8 L 228.6 51.2 L 229.4 51.2 L 229.4 57.2 L 228.6 57.2 L 228.6 54.4 L 225.6 54.4 L 225.6 57.2 L 224.8 57.2 L 224.8 51.2 " fill="#FF0000"/>
<path class="atom-26" d="M 146.1 62.3 L 148.1 65.4 Q 148.3 65.7, 148.6 66.3 Q 148.9 66.9, 148.9 66.9 L 148.9 62.3 L 149.7 62.3 L 149.7 68.2 L 148.9 68.2 L 146.8 64.8 Q 146.5 64.4, 146.3 63.9 Q 146.0 63.4, 145.9 63.3 L 145.9 68.2 L 145.2 68.2 L 145.2 62.3 L 146.1 62.3 " fill="#0000FF"/>
<path class="bond-0 atom-0 atom-1" d="M 365.9,82.2 L 377.0,64.4" style="fill:none;fill-rule:evenodd;stroke:#000000;stroke-width:2.0px;stroke-linecap:butt;stroke-linejoin:miter;stroke-opacity:1"/>
<path class="bond-1 atom-1 atom-2" d="M 377.0,64.4 L 367.1,45.8" style="fill:none;fill-rule:evenodd;stroke:#000000;stroke-width:2.0px;stroke-linecap:butt;stroke-linejoin:miter;stroke-opacity:1"/>
<path class="bond-1 atom-1 atom-2" d="M 379.2,59.6 L 372.3,46.6" style="fill:none;fill-rule:evenodd;stroke:#000000;stroke-width:2.0px;stroke-linecap:butt;stroke-linejoin:miter;stroke-opacity:1"/>
<path class="bond-34 atom-7 atom-1" d="M 398.0,65.1 L 377.0,64.4" style="fill:none;fill-rule:evenodd;stroke:#000000;stroke-width:2.0px;stroke-linecap:butt;stroke-linejoin:miter;stroke-opacity:1"/>
<path class="bond-2 atom-2 atom-3" d="M 367.1,45.8 L 357.8,45.5" style="fill:none;fill-rule:evenodd;stroke:#000000;stroke-width:2.0px;stroke-linecap:butt;stroke-linejoin:miter;stroke-opacity:1"/>
<path class="bond-2 atom-2 atom-3" d="M 357.8,45.5 L 348.4,45.2" style="fill:none;fill-rule:evenodd;stroke:#33CCCC;stroke-width:2.0px;stroke-linecap:butt;stroke-linejoin:miter;stroke-opacity:1"/>
<path class="bond-3 atom-2 atom-4" d="M 367.1,45.8 L 378.3,28.0" style="fill:none;fill-rule:evenodd;stroke:#000000;stroke-width:2.0px;stroke-linecap:butt;stroke-linejoin:miter;stroke-opacity:1"/>
<path class="bond-4 atom-4 atom-5" d="M 378.3,28.0 L 399.3,28.7" style="fill:none;fill-rule:evenodd;stroke:#000000;stroke-width:2.0px;stroke-linecap:butt;stroke-linejoin:miter;stroke-opacity:1"/>
<path class="bond-4 atom-4 atom-5" d="M 381.3,32.3 L 396.0,32.8" style="fill:none;fill-rule:evenodd;stroke:#000000;stroke-width:2.0px;stroke-linecap:butt;stroke-linejoin:miter;stroke-opacity:1"/>
<path class="bond-5 atom-5 atom-6" d="M 399.3,28.7 L 409.2,47.3" style="fill:none;fill-rule:evenodd;stroke:#000000;stroke-width:2.0px;stroke-linecap:butt;stroke-linejoin:miter;stroke-opacity:1"/>
<path class="bond-6 atom-6 atom-7" d="M 409.2,47.3 L 398.0,65.1" style="fill:none;fill-rule:evenodd;stroke:#000000;stroke-width:2.0px;stroke-linecap:butt;stroke-linejoin:miter;stroke-opacity:1"/>
<path class="bond-6 atom-6 atom-7" d="M 403.9,47.7 L 396.1,60.2" style="fill:none;fill-rule:evenodd;stroke:#000000;stroke-width:2.0px;stroke-linecap:butt;stroke-linejoin:miter;stroke-opacity:1"/>
<path class="bond-7 atom-7 atom-8" d="M 398.0,65.1 L 407.9,83.6" style="fill:none;fill-rule:evenodd;stroke:#000000;stroke-width:2.0px;stroke-linecap:butt;stroke-linejoin:miter;stroke-opacity:1"/>
<path class="bond-8 atom-8 atom-9" d="M 407.9,83.6 L 428.9,84.4" style="fill:none;fill-rule:evenodd;stroke:#000000;stroke-width:2.0px;stroke-linecap:butt;stroke-linejoin:miter;stroke-opacity:1"/>
<path class="bond-9 atom-9 atom-10" d="M 428.9,84.4 L 440.7,101.8" style="fill:none;fill-rule:evenodd;stroke:#000000;stroke-width:2.0px;stroke-linecap:butt;stroke-linejoin:miter;stroke-opacity:1"/>
<path class="bond-9 atom-9 atom-10" d="M 434.1,84.6 L 442.4,96.8" style="fill:none;fill-rule:evenodd;stroke:#000000;stroke-width:2.0px;stroke-linecap:butt;stroke-linejoin:miter;stroke-opacity:1"/>
<path class="bond-35 atom-28 atom-9" d="M 439.1,71.3 L 434.0,77.8" style="fill:none;fill-rule:evenodd;stroke:#0000FF;stroke-width:2.0px;stroke-linecap:butt;stroke-linejoin:miter;stroke-opacity:1"/>
<path class="bond-35 atom-28 atom-9" d="M 434.0,77.8 L 428.9,84.4" style="fill:none;fill-rule:evenodd;stroke:#000000;stroke-width:2.0px;stroke-linecap:butt;stroke-linejoin:miter;stroke-opacity:1"/>
<path class="bond-10 atom-10 atom-11" d="M 440.7,101.8 L 433.5,121.5" style="fill:none;fill-rule:evenodd;stroke:#000000;stroke-width:2.0px;stroke-linecap:butt;stroke-linejoin:miter;stroke-opacity:1"/>
<path class="bond-18 atom-10 atom-19" d="M 440.7,101.8 L 460.9,96.0" style="fill:none;fill-rule:evenodd;stroke:#000000;stroke-width:2.0px;stroke-linecap:butt;stroke-linejoin:miter;stroke-opacity:1"/>
<path class="bond-11 atom-11 atom-12" d="M 431.9,122.9 L 437.1,129.2" style="fill:none;fill-rule:evenodd;stroke:#000000;stroke-width:2.0px;stroke-linecap:butt;stroke-linejoin:miter;stroke-opacity:1"/>
<path class="bond-11 atom-11 atom-12" d="M 437.1,129.2 L 442.4,135.4" style="fill:none;fill-rule:evenodd;stroke:#FF0000;stroke-width:2.0px;stroke-linecap:butt;stroke-linejoin:miter;stroke-opacity:1"/>
<path class="bond-11 atom-11 atom-12" d="M 435.1,120.2 L 440.4,126.5" style="fill:none;fill-rule:evenodd;stroke:#000000;stroke-width:2.0px;stroke-linecap:butt;stroke-linejoin:miter;stroke-opacity:1"/>
<path class="bond-11 atom-11 atom-12" d="M 440.4,126.5 L 445.6,132.7" style="fill:none;fill-rule:evenodd;stroke:#FF0000;stroke-width:2.0px;stroke-linecap:butt;stroke-linejoin:miter;stroke-opacity:1"/>
<path class="bond-12 atom-11 atom-13" d="M 433.5,121.5 L 424.5,123.1" style="fill:none;fill-rule:evenodd;stroke:#000000;stroke-width:2.0px;stroke-linecap:butt;stroke-linejoin:miter;stroke-opacity:1"/>
<path class="bond-12 atom-11 atom-13" d="M 424.5,123.1 L 415.6,124.7" style="fill:none;fill-rule:evenodd;stroke:#0000FF;stroke-width:2.0px;stroke-linecap:butt;stroke-linejoin:miter;stroke-opacity:1"/>
<path class="bond-13 atom-13 atom-14" d="M 410.0,121.9 L 404.6,115.5" style="fill:none;fill-rule:evenodd;stroke:#0000FF;stroke-width:2.0px;stroke-linecap:butt;stroke-linejoin:miter;stroke-opacity:1"/>
<path class="bond-13 atom-13 atom-14" d="M 404.6,115.5 L 399.3,109.1" style="fill:none;fill-rule:evenodd;stroke:#000000;stroke-width:2.0px;stroke-linecap:butt;stroke-linejoin:miter;stroke-opacity:1"/>
<path class="bond-37 atom-18 atom-13" d="M 405.6,144.9 L 408.6,136.8" style="fill:none;fill-rule:evenodd;stroke:#000000;stroke-width:2.0px;stroke-linecap:butt;stroke-linejoin:miter;stroke-opacity:1"/>
<path class="bond-37 atom-18 atom-13" d="M 408.6,136.8 L 411.5,128.7" style="fill:none;fill-rule:evenodd;stroke:#0000FF;stroke-width:2.0px;stroke-linecap:butt;stroke-linejoin:miter;stroke-opacity:1"/>
<path class="bond-14 atom-14 atom-15" d="M 399.3,109.1 L 378.6,112.8" style="fill:none;fill-rule:evenodd;stroke:#000000;stroke-width:2.0px;stroke-linecap:butt;stroke-linejoin:miter;stroke-opacity:1"/>
<path class="bond-15 atom-15 atom-16" d="M 378.6,112.8 L 375.6,120.9" style="fill:none;fill-rule:evenodd;stroke:#000000;stroke-width:2.0px;stroke-linecap:butt;stroke-linejoin:miter;stroke-opacity:1"/>
<path class="bond-15 atom-15 atom-16" d="M 375.6,120.9 L 372.7,129.0" style="fill:none;fill-rule:evenodd;stroke:#0000FF;stroke-width:2.0px;stroke-linecap:butt;stroke-linejoin:miter;stroke-opacity:1"/>
<path class="bond-16 atom-16 atom-17" d="M 374.2,135.8 L 379.5,142.2" style="fill:none;fill-rule:evenodd;stroke:#0000FF;stroke-width:2.0px;stroke-linecap:butt;stroke-linejoin:miter;stroke-opacity:1"/>
<path class="bond-16 atom-16 atom-17" d="M 379.5,142.2 L 384.9,148.6" style="fill:none;fill-rule:evenodd;stroke:#000000;stroke-width:2.0px;stroke-linecap:butt;stroke-linejoin:miter;stroke-opacity:1"/>
<path class="bond-17 atom-17 atom-18" d="M 384.9,148.6 L 405.6,144.9" style="fill:none;fill-rule:evenodd;stroke:#000000;stroke-width:2.0px;stroke-linecap:butt;stroke-linejoin:miter;stroke-opacity:1"/>
<path class="bond-19 atom-19 atom-20" d="M 460.9,96.0 L 478.7,107.1" style="fill:none;fill-rule:evenodd;stroke:#000000;stroke-width:2.0px;stroke-linecap:butt;stroke-linejoin:miter;stroke-opacity:1"/>
<path class="bond-19 atom-19 atom-20" d="M 465.8,94.1 L 478.2,101.9" style="fill:none;fill-rule:evenodd;stroke:#000000;stroke-width:2.0px;stroke-linecap:butt;stroke-linejoin:miter;stroke-opacity:1"/>
<path class="bond-38 atom-27 atom-19" d="M 461.6,75.0 L 460.9,96.0" style="fill:none;fill-rule:evenodd;stroke:#000000;stroke-width:2.0px;stroke-linecap:butt;stroke-linejoin:miter;stroke-opacity:1"/>
<path class="bond-20 atom-20 atom-21" d="M 478.7,107.1 L 497.2,97.2" style="fill:none;fill-rule:evenodd;stroke:#000000;stroke-width:2.0px;stroke-linecap:butt;stroke-linejoin:miter;stroke-opacity:1"/>
<path class="bond-21 atom-21 atom-22" d="M 497.2,97.2 L 498.0,76.2" style="fill:none;fill-rule:evenodd;stroke:#000000;stroke-width:2.0px;stroke-linecap:butt;stroke-linejoin:miter;stroke-opacity:1"/>
<path class="bond-21 atom-21 atom-22" d="M 493.1,93.9 L 493.7,79.2" style="fill:none;fill-rule:evenodd;stroke:#000000;stroke-width:2.0px;stroke-linecap:butt;stroke-linejoin:miter;stroke-opacity:1"/>
<path class="bond-22 atom-22 atom-23" d="M 498.0,76.2 L 505.6,72.2" style="fill:none;fill-rule:evenodd;stroke:#000000;stroke-width:2.0px;stroke-linecap:butt;stroke-linejoin:miter;stroke-opacity:1"/>
<path class="bond-22 atom-22 atom-23" d="M 505.6,72.2 L 513.3,68.1" style="fill:none;fill-rule:evenodd;stroke:#FF0000;stroke-width:2.0px;stroke-linecap:butt;stroke-linejoin:miter;stroke-opacity:1"/>
<path class="bond-25 atom-22 atom-26" d="M 498.0,76.2 L 480.1,65.1" style="fill:none;fill-rule:evenodd;stroke:#000000;stroke-width:2.0px;stroke-linecap:butt;stroke-linejoin:miter;stroke-opacity:1"/>
<path class="bond-23 atom-23 atom-24" d="M 519.8,68.4 L 525.7,72.1" style="fill:none;fill-rule:evenodd;stroke:#FF0000;stroke-width:2.0px;stroke-linecap:butt;stroke-linejoin:miter;stroke-opacity:1"/>
<path class="bond-23 atom-23 atom-24" d="M 525.7,72.1 L 531.7,75.8" style="fill:none;fill-rule:evenodd;stroke:#0000FF;stroke-width:2.0px;stroke-linecap:butt;stroke-linejoin:miter;stroke-opacity:1"/>
<path class="bond-24 atom-24 atom-25" d="M 538.1,77.9 L 544.4,74.5" style="fill:none;fill-rule:evenodd;stroke:#0000FF;stroke-width:2.0px;stroke-linecap:butt;stroke-linejoin:miter;stroke-opacity:1"/>
<path class="bond-24 atom-24 atom-25" d="M 544.4,74.5 L 550.7,71.2" style="fill:none;fill-rule:evenodd;stroke:#FF0000;stroke-width:2.0px;stroke-linecap:butt;stroke-linejoin:miter;stroke-opacity:1"/>
<path class="bond-24 atom-24 atom-25" d="M 536.1,74.2 L 542.4,70.8" style="fill:none;fill-rule:evenodd;stroke:#0000FF;stroke-width:2.0px;stroke-linecap:butt;stroke-linejoin:miter;stroke-opacity:1"/>
<path class="bond-24 atom-24 atom-25" d="M 542.4,70.8 L 548.7,67.5" style="fill:none;fill-rule:evenodd;stroke:#FF0000;stroke-width:2.0px;stroke-linecap:butt;stroke-linejoin:miter;stroke-opacity:1"/>
<path class="bond-26 atom-26 atom-27" d="M 480.1,65.1 L 461.6,75.0" style="fill:none;fill-rule:evenodd;stroke:#000000;stroke-width:2.0px;stroke-linecap:butt;stroke-linejoin:miter;stroke-opacity:1"/>
<path class="bond-26 atom-26 atom-27" d="M 479.3,70.3 L 466.3,77.2" style="fill:none;fill-rule:evenodd;stroke:#000000;stroke-width:2.0px;stroke-linecap:butt;stroke-linejoin:miter;stroke-opacity:1"/>
<path class="bond-27 atom-27 atom-28" d="M 461.6,75.0 L 453.1,71.9" style="fill:none;fill-rule:evenodd;stroke:#000000;stroke-width:2.0px;stroke-linecap:butt;stroke-linejoin:miter;stroke-opacity:1"/>
<path class="bond-27 atom-27 atom-28" d="M 453.1,71.9 L 444.6,68.8" style="fill:none;fill-rule:evenodd;stroke:#0000FF;stroke-width:2.0px;stroke-linecap:butt;stroke-linejoin:miter;stroke-opacity:1"/>
<path class="bond-28 atom-28 atom-29" d="M 440.8,64.3 L 438.4,55.9" style="fill:none;fill-rule:evenodd;stroke:#0000FF;stroke-width:2.0px;stroke-linecap:butt;stroke-linejoin:miter;stroke-opacity:1"/>
<path class="bond-28 atom-28 atom-29" d="M 438.4,55.9 L 436.0,47.6" style="fill:none;fill-rule:evenodd;stroke:#000000;stroke-width:2.0px;stroke-linecap:butt;stroke-linejoin:miter;stroke-opacity:1"/>
<path class="bond-29 atom-29 atom-30" d="M 436.0,47.6 L 450.6,32.5" style="fill:none;fill-rule:evenodd;stroke:#000000;stroke-width:2.0px;stroke-linecap:butt;stroke-linejoin:miter;stroke-opacity:1"/>
<path class="bond-29 atom-29 atom-30" d="M 435.2,42.4 L 445.4,31.8" style="fill:none;fill-rule:evenodd;stroke:#000000;stroke-width:2.0px;stroke-linecap:butt;stroke-linejoin:miter;stroke-opacity:1"/>
<path class="bond-36 atom-34 atom-29" d="M 415.6,42.5 L 436.0,47.6" style="fill:none;fill-rule:evenodd;stroke:#000000;stroke-width:2.0px;stroke-linecap:butt;stroke-linejoin:miter;stroke-opacity:1"/>
<path class="bond-30 atom-30 atom-31" d="M 450.6,32.5 L 444.8,12.3" style="fill:none;fill-rule:evenodd;stroke:#000000;stroke-width:2.0px;stroke-linecap:butt;stroke-linejoin:miter;stroke-opacity:1"/>
<path class="bond-31 atom-31 atom-32" d="M 444.8,12.3 L 424.4,7.2" style="fill:none;fill-rule:evenodd;stroke:#000000;stroke-width:2.0px;stroke-linecap:butt;stroke-linejoin:miter;stroke-opacity:1"/>
<path class="bond-31 atom-31 atom-32" d="M 440.8,15.6 L 426.5,12.0" style="fill:none;fill-rule:evenodd;stroke:#000000;stroke-width:2.0px;stroke-linecap:butt;stroke-linejoin:miter;stroke-opacity:1"/>
<path class="bond-32 atom-32 atom-33" d="M 424.4,7.2 L 409.8,22.3" style="fill:none;fill-rule:evenodd;stroke:#000000;stroke-width:2.0px;stroke-linecap:butt;stroke-linejoin:miter;stroke-opacity:1"/>
<path class="bond-33 atom-33 atom-34" d="M 409.8,22.3 L 415.6,42.5" style="fill:none;fill-rule:evenodd;stroke:#000000;stroke-width:2.0px;stroke-linecap:butt;stroke-linejoin:miter;stroke-opacity:1"/>
<path class="bond-33 atom-33 atom-34" d="M 414.7,24.2 L 418.8,38.3" style="fill:none;fill-rule:evenodd;stroke:#000000;stroke-width:2.0px;stroke-linecap:butt;stroke-linejoin:miter;stroke-opacity:1"/>
<path class="atom-3" d="M 344.4 42.1 L 347.9 42.1 L 347.9 42.8 L 345.2 42.8 L 345.2 44.6 L 347.6 44.6 L 347.6 45.3 L 345.2 45.3 L 345.2 48.1 L 344.4 48.1 L 344.4 42.1 " fill="#33CCCC"/>
<path class="atom-12" d="M 444.3 137.7 Q 444.3 136.2, 445.0 135.4 Q 445.7 134.6, 447.0 134.6 Q 448.3 134.6, 449.0 135.4 Q 449.7 136.2, 449.7 137.7 Q 449.7 139.1, 449.0 139.9 Q 448.3 140.7, 447.0 140.7 Q 445.7 140.7, 445.0 139.9 Q 444.3 139.1, 444.3 137.7 M 447.0 140.1 Q 447.9 140.1, 448.4 139.5 Q 448.9 138.8, 448.9 137.7 Q 448.9 136.5, 448.4 135.9 Q 447.9 135.3, 447.0 135.3 Q 446.1 135.3, 445.6 135.9 Q 445.1 136.5, 445.1 137.7 Q 445.1 138.9, 445.6 139.5 Q 446.1 140.1, 447.0 140.1 " fill="#FF0000"/>
<path class="atom-13" d="M 411.5 122.2 L 413.4 125.4 Q 413.6 125.7, 413.9 126.2 Q 414.2 126.8, 414.2 126.8 L 414.2 122.2 L 415.0 122.2 L 415.0 128.2 L 414.2 128.2 L 412.1 124.7 Q 411.9 124.3, 411.6 123.9 Q 411.4 123.4, 411.3 123.3 L 411.3 128.2 L 410.5 128.2 L 410.5 122.2 L 411.5 122.2 " fill="#0000FF"/>
<path class="atom-16" d="M 363.8 129.5 L 364.6 129.5 L 364.6 132.1 L 367.6 132.1 L 367.6 129.5 L 368.4 129.5 L 368.4 135.5 L 367.6 135.5 L 367.6 132.7 L 364.6 132.7 L 364.6 135.5 L 363.8 135.5 L 363.8 129.5 " fill="#0000FF"/>
<path class="atom-16" d="M 370.1 129.5 L 372.0 132.7 Q 372.2 133.0, 372.5 133.6 Q 372.8 134.1, 372.9 134.2 L 372.9 129.5 L 373.6 129.5 L 373.6 135.5 L 372.8 135.5 L 370.7 132.0 Q 370.5 131.6, 370.2 131.2 Q 370.0 130.7, 369.9 130.6 L 369.9 135.5 L 369.1 135.5 L 369.1 129.5 L 370.1 129.5 " fill="#0000FF"/>
<path class="atom-23" d="M 513.8 66.4 Q 513.8 65.0, 514.5 64.2 Q 515.2 63.4, 516.5 63.4 Q 517.8 63.4, 518.5 64.2 Q 519.3 65.0, 519.3 66.4 Q 519.3 67.8, 518.5 68.7 Q 517.8 69.5, 516.5 69.5 Q 515.2 69.5, 514.5 68.7 Q 513.8 67.8, 513.8 66.4 M 516.5 68.8 Q 517.4 68.8, 517.9 68.2 Q 518.4 67.6, 518.4 66.4 Q 518.4 65.2, 517.9 64.6 Q 517.4 64.0, 516.5 64.0 Q 515.6 64.0, 515.1 64.6 Q 514.6 65.2, 514.6 66.4 Q 514.6 67.6, 515.1 68.2 Q 515.6 68.8, 516.5 68.8 " fill="#FF0000"/>
<path class="atom-24" d="M 533.0 74.5 L 535.0 77.7 Q 535.2 78.0, 535.5 78.5 Q 535.8 79.1, 535.8 79.1 L 535.8 74.5 L 536.6 74.5 L 536.6 80.5 L 535.8 80.5 L 533.7 77.0 Q 533.4 76.6, 533.2 76.2 Q 532.9 75.7, 532.9 75.6 L 532.9 80.5 L 532.1 80.5 L 532.1 74.5 L 533.0 74.5 " fill="#0000FF"/>
<path class="atom-25" d="M 550.2 67.6 Q 550.2 66.2, 550.9 65.4 Q 551.6 64.6, 552.9 64.6 Q 554.2 64.6, 554.9 65.4 Q 555.6 66.2, 555.6 67.6 Q 555.6 69.1, 554.9 69.9 Q 554.2 70.7, 552.9 70.7 Q 551.6 70.7, 550.9 69.9 Q 550.2 69.1, 550.2 67.6 M 552.9 70.1 Q 553.8 70.1, 554.3 69.4 Q 554.8 68.8, 554.8 67.6 Q 554.8 66.5, 554.3 65.9 Q 553.8 65.3, 552.9 65.3 Q 552.0 65.3, 551.5 65.9 Q 551.0 66.5, 551.0 67.6 Q 551.0 68.8, 551.5 69.4 Q 552.0 70.1, 552.9 70.1 " fill="#FF0000"/>
<path class="atom-28" d="M 440.5 64.8 L 442.5 68.0 Q 442.7 68.3, 443.0 68.9 Q 443.3 69.4, 443.3 69.4 L 443.3 64.8 L 444.1 64.8 L 444.1 70.8 L 443.3 70.8 L 441.2 67.3 Q 440.9 66.9, 440.7 66.5 Q 440.4 66.0, 440.3 65.9 L 440.3 70.8 L 439.6 70.8 L 439.6 64.8 L 440.5 64.8 " fill="#0000FF"/>
<path class="bond-0 atom-0 atom-1" d="M 669.9,85.3 L 680.0,66.9" style="fill:none;fill-rule:evenodd;stroke:#000000;stroke-width:2.0px;stroke-linecap:butt;stroke-linejoin:miter;stroke-opacity:1"/>
<path class="bond-1 atom-1 atom-2" d="M 680.0,66.9 L 669.1,48.9" style="fill:none;fill-rule:evenodd;stroke:#000000;stroke-width:2.0px;stroke-linecap:butt;stroke-linejoin:miter;stroke-opacity:1"/>
<path class="bond-1 atom-1 atom-2" d="M 682.0,62.0 L 674.4,49.4" style="fill:none;fill-rule:evenodd;stroke:#000000;stroke-width:2.0px;stroke-linecap:butt;stroke-linejoin:miter;stroke-opacity:1"/>
<path class="bond-33 atom-7 atom-1" d="M 701.0,66.4 L 680.0,66.9" style="fill:none;fill-rule:evenodd;stroke:#000000;stroke-width:2.0px;stroke-linecap:butt;stroke-linejoin:miter;stroke-opacity:1"/>
<path class="bond-2 atom-2 atom-3" d="M 669.1,48.9 L 659.8,49.1" style="fill:none;fill-rule:evenodd;stroke:#000000;stroke-width:2.0px;stroke-linecap:butt;stroke-linejoin:miter;stroke-opacity:1"/>
<path class="bond-2 atom-2 atom-3" d="M 659.8,49.1 L 650.4,49.3" style="fill:none;fill-rule:evenodd;stroke:#33CCCC;stroke-width:2.0px;stroke-linecap:butt;stroke-linejoin:miter;stroke-opacity:1"/>
<path class="bond-3 atom-2 atom-4" d="M 669.1,48.9 L 679.2,30.5" style="fill:none;fill-rule:evenodd;stroke:#000000;stroke-width:2.0px;stroke-linecap:butt;stroke-linejoin:miter;stroke-opacity:1"/>
<path class="bond-4 atom-4 atom-5" d="M 679.2,30.5 L 700.3,30.1" style="fill:none;fill-rule:evenodd;stroke:#000000;stroke-width:2.0px;stroke-linecap:butt;stroke-linejoin:miter;stroke-opacity:1"/>
<path class="bond-4 atom-4 atom-5" d="M 682.5,34.6 L 697.2,34.3" style="fill:none;fill-rule:evenodd;stroke:#000000;stroke-width:2.0px;stroke-linecap:butt;stroke-linejoin:miter;stroke-opacity:1"/>
<path class="bond-5 atom-5 atom-6" d="M 700.3,30.1 L 711.2,48.0" style="fill:none;fill-rule:evenodd;stroke:#000000;stroke-width:2.0px;stroke-linecap:butt;stroke-linejoin:miter;stroke-opacity:1"/>
<path class="bond-6 atom-6 atom-7" d="M 711.2,48.0 L 701.0,66.4" style="fill:none;fill-rule:evenodd;stroke:#000000;stroke-width:2.0px;stroke-linecap:butt;stroke-linejoin:miter;stroke-opacity:1"/>
<path class="bond-6 atom-6 atom-7" d="M 705.9,48.8 L 698.9,61.7" style="fill:none;fill-rule:evenodd;stroke:#000000;stroke-width:2.0px;stroke-linecap:butt;stroke-linejoin:miter;stroke-opacity:1"/>
<path class="bond-7 atom-7 atom-8" d="M 701.0,66.4 L 711.9,84.4" style="fill:none;fill-rule:evenodd;stroke:#000000;stroke-width:2.0px;stroke-linecap:butt;stroke-linejoin:miter;stroke-opacity:1"/>
<path class="bond-8 atom-8 atom-9" d="M 711.9,84.4 L 732.9,84.0" style="fill:none;fill-rule:evenodd;stroke:#000000;stroke-width:2.0px;stroke-linecap:butt;stroke-linejoin:miter;stroke-opacity:1"/>
<path class="bond-9 atom-9 atom-10" d="M 732.9,84.0 L 745.7,100.7" style="fill:none;fill-rule:evenodd;stroke:#000000;stroke-width:2.0px;stroke-linecap:butt;stroke-linejoin:miter;stroke-opacity:1"/>
<path class="bond-9 atom-9 atom-10" d="M 738.2,83.9 L 747.1,95.6" style="fill:none;fill-rule:evenodd;stroke:#000000;stroke-width:2.0px;stroke-linecap:butt;stroke-linejoin:miter;stroke-opacity:1"/>
<path class="bond-34 atom-27 atom-9" d="M 742.5,70.2 L 737.7,77.1" style="fill:none;fill-rule:evenodd;stroke:#0000FF;stroke-width:2.0px;stroke-linecap:butt;stroke-linejoin:miter;stroke-opacity:1"/>
<path class="bond-34 atom-27 atom-9" d="M 737.7,77.1 L 732.9,84.0" style="fill:none;fill-rule:evenodd;stroke:#000000;stroke-width:2.0px;stroke-linecap:butt;stroke-linejoin:miter;stroke-opacity:1"/>
<path class="bond-10 atom-10 atom-11" d="M 745.7,100.7 L 739.6,120.8" style="fill:none;fill-rule:evenodd;stroke:#000000;stroke-width:2.0px;stroke-linecap:butt;stroke-linejoin:miter;stroke-opacity:1"/>
<path class="bond-18 atom-10 atom-19" d="M 745.7,100.7 L 765.5,93.8" style="fill:none;fill-rule:evenodd;stroke:#000000;stroke-width:2.0px;stroke-linecap:butt;stroke-linejoin:miter;stroke-opacity:1"/>
<path class="bond-11 atom-11 atom-12" d="M 738.1,122.3 L 743.6,128.2" style="fill:none;fill-rule:evenodd;stroke:#000000;stroke-width:2.0px;stroke-linecap:butt;stroke-linejoin:miter;stroke-opacity:1"/>
<path class="bond-11 atom-11 atom-12" d="M 743.6,128.2 L 749.2,134.1" style="fill:none;fill-rule:evenodd;stroke:#FF0000;stroke-width:2.0px;stroke-linecap:butt;stroke-linejoin:miter;stroke-opacity:1"/>
<path class="bond-11 atom-11 atom-12" d="M 741.1,119.4 L 746.7,125.3" style="fill:none;fill-rule:evenodd;stroke:#000000;stroke-width:2.0px;stroke-linecap:butt;stroke-linejoin:miter;stroke-opacity:1"/>
<path class="bond-11 atom-11 atom-12" d="M 746.7,125.3 L 752.3,131.2" style="fill:none;fill-rule:evenodd;stroke:#FF0000;stroke-width:2.0px;stroke-linecap:butt;stroke-linejoin:miter;stroke-opacity:1"/>
<path class="bond-12 atom-11 atom-13" d="M 739.6,120.8 L 730.8,122.9" style="fill:none;fill-rule:evenodd;stroke:#000000;stroke-width:2.0px;stroke-linecap:butt;stroke-linejoin:miter;stroke-opacity:1"/>
<path class="bond-12 atom-11 atom-13" d="M 730.8,122.9 L 721.9,125.0" style="fill:none;fill-rule:evenodd;stroke:#0000FF;stroke-width:2.0px;stroke-linecap:butt;stroke-linejoin:miter;stroke-opacity:1"/>
<path class="bond-13 atom-13 atom-14" d="M 716.4,122.7 L 710.5,116.5" style="fill:none;fill-rule:evenodd;stroke:#0000FF;stroke-width:2.0px;stroke-linecap:butt;stroke-linejoin:miter;stroke-opacity:1"/>
<path class="bond-13 atom-13 atom-14" d="M 710.5,116.5 L 704.7,110.3" style="fill:none;fill-rule:evenodd;stroke:#000000;stroke-width:2.0px;stroke-linecap:butt;stroke-linejoin:miter;stroke-opacity:1"/>
<path class="bond-36 atom-18 atom-13" d="M 713.1,145.8 L 715.6,137.4" style="fill:none;fill-rule:evenodd;stroke:#000000;stroke-width:2.0px;stroke-linecap:butt;stroke-linejoin:miter;stroke-opacity:1"/>
<path class="bond-36 atom-18 atom-13" d="M 715.6,137.4 L 718.1,129.1" style="fill:none;fill-rule:evenodd;stroke:#0000FF;stroke-width:2.0px;stroke-linecap:butt;stroke-linejoin:miter;stroke-opacity:1"/>
<path class="bond-14 atom-14 atom-15" d="M 704.7,110.3 L 684.3,115.1" style="fill:none;fill-rule:evenodd;stroke:#000000;stroke-width:2.0px;stroke-linecap:butt;stroke-linejoin:miter;stroke-opacity:1"/>
<path class="bond-15 atom-15 atom-16" d="M 684.3,115.1 L 681.8,123.4" style="fill:none;fill-rule:evenodd;stroke:#000000;stroke-width:2.0px;stroke-linecap:butt;stroke-linejoin:miter;stroke-opacity:1"/>
<path class="bond-15 atom-15 atom-16" d="M 681.8,123.4 L 679.3,131.8" style="fill:none;fill-rule:evenodd;stroke:#0000FF;stroke-width:2.0px;stroke-linecap:butt;stroke-linejoin:miter;stroke-opacity:1"/>
<path class="bond-16 atom-16 atom-17" d="M 681.0,138.2 L 686.8,144.4" style="fill:none;fill-rule:evenodd;stroke:#0000FF;stroke-width:2.0px;stroke-linecap:butt;stroke-linejoin:miter;stroke-opacity:1"/>
<path class="bond-16 atom-16 atom-17" d="M 686.8,144.4 L 692.6,150.6" style="fill:none;fill-rule:evenodd;stroke:#000000;stroke-width:2.0px;stroke-linecap:butt;stroke-linejoin:miter;stroke-opacity:1"/>
<path class="bond-17 atom-17 atom-18" d="M 692.6,150.6 L 713.1,145.8" style="fill:none;fill-rule:evenodd;stroke:#000000;stroke-width:2.0px;stroke-linecap:butt;stroke-linejoin:miter;stroke-opacity:1"/>
<path class="bond-19 atom-19 atom-20" d="M 765.5,93.8 L 783.9,103.9" style="fill:none;fill-rule:evenodd;stroke:#000000;stroke-width:2.0px;stroke-linecap:butt;stroke-linejoin:miter;stroke-opacity:1"/>
<path class="bond-19 atom-19 atom-20" d="M 770.3,91.6 L 783.2,98.7" style="fill:none;fill-rule:evenodd;stroke:#000000;stroke-width:2.0px;stroke-linecap:butt;stroke-linejoin:miter;stroke-opacity:1"/>
<path class="bond-37 atom-26 atom-19" d="M 765.1,72.8 L 765.5,93.8" style="fill:none;fill-rule:evenodd;stroke:#000000;stroke-width:2.0px;stroke-linecap:butt;stroke-linejoin:miter;stroke-opacity:1"/>
<path class="bond-20 atom-20 atom-21" d="M 783.9,103.9 L 801.9,93.0" style="fill:none;fill-rule:evenodd;stroke:#000000;stroke-width:2.0px;stroke-linecap:butt;stroke-linejoin:miter;stroke-opacity:1"/>
<path class="bond-21 atom-21 atom-22" d="M 801.9,93.0 L 801.4,72.0" style="fill:none;fill-rule:evenodd;stroke:#000000;stroke-width:2.0px;stroke-linecap:butt;stroke-linejoin:miter;stroke-opacity:1"/>
<path class="bond-21 atom-21 atom-22" d="M 797.6,89.9 L 797.3,75.2" style="fill:none;fill-rule:evenodd;stroke:#000000;stroke-width:2.0px;stroke-linecap:butt;stroke-linejoin:miter;stroke-opacity:1"/>
<path class="bond-22 atom-22 atom-23" d="M 801.4,72.0 L 808.8,67.5" style="fill:none;fill-rule:evenodd;stroke:#000000;stroke-width:2.0px;stroke-linecap:butt;stroke-linejoin:miter;stroke-opacity:1"/>
<path class="bond-22 atom-22 atom-23" d="M 808.8,67.5 L 816.2,63.1" style="fill:none;fill-rule:evenodd;stroke:#FF0000;stroke-width:2.0px;stroke-linecap:butt;stroke-linejoin:miter;stroke-opacity:1"/>
<path class="bond-24 atom-22 atom-25" d="M 801.4,72.0 L 783.0,61.9" style="fill:none;fill-rule:evenodd;stroke:#000000;stroke-width:2.0px;stroke-linecap:butt;stroke-linejoin:miter;stroke-opacity:1"/>
<path class="bond-23 atom-23 atom-24" d="M 822.7,62.9 L 828.9,66.3" style="fill:none;fill-rule:evenodd;stroke:#FF0000;stroke-width:2.0px;stroke-linecap:butt;stroke-linejoin:miter;stroke-opacity:1"/>
<path class="bond-23 atom-23 atom-24" d="M 828.9,66.3 L 835.1,69.7" style="fill:none;fill-rule:evenodd;stroke:#00CC00;stroke-width:2.0px;stroke-linecap:butt;stroke-linejoin:miter;stroke-opacity:1"/>
<path class="bond-25 atom-25 atom-26" d="M 783.0,61.9 L 765.1,72.8" style="fill:none;fill-rule:evenodd;stroke:#000000;stroke-width:2.0px;stroke-linecap:butt;stroke-linejoin:miter;stroke-opacity:1"/>
<path class="bond-25 atom-25 atom-26" d="M 782.5,67.1 L 769.9,74.7" style="fill:none;fill-rule:evenodd;stroke:#000000;stroke-width:2.0px;stroke-linecap:butt;stroke-linejoin:miter;stroke-opacity:1"/>
<path class="bond-26 atom-26 atom-27" d="M 765.1,72.8 L 756.4,70.2" style="fill:none;fill-rule:evenodd;stroke:#000000;stroke-width:2.0px;stroke-linecap:butt;stroke-linejoin:miter;stroke-opacity:1"/>
<path class="bond-26 atom-26 atom-27" d="M 756.4,70.2 L 747.7,67.5" style="fill:none;fill-rule:evenodd;stroke:#0000FF;stroke-width:2.0px;stroke-linecap:butt;stroke-linejoin:miter;stroke-opacity:1"/>
<path class="bond-27 atom-27 atom-28" d="M 743.7,63.2 L 740.9,55.0" style="fill:none;fill-rule:evenodd;stroke:#0000FF;stroke-width:2.0px;stroke-linecap:butt;stroke-linejoin:miter;stroke-opacity:1"/>
<path class="bond-27 atom-27 atom-28" d="M 740.9,55.0 L 738.0,46.9" style="fill:none;fill-rule:evenodd;stroke:#000000;stroke-width:2.0px;stroke-linecap:butt;stroke-linejoin:miter;stroke-opacity:1"/>
<path class="bond-28 atom-28 atom-29" d="M 738.0,46.9 L 751.7,30.9" style="fill:none;fill-rule:evenodd;stroke:#000000;stroke-width:2.0px;stroke-linecap:butt;stroke-linejoin:miter;stroke-opacity:1"/>
<path class="bond-28 atom-28 atom-29" d="M 736.9,41.7 L 746.5,30.6" style="fill:none;fill-rule:evenodd;stroke:#000000;stroke-width:2.0px;stroke-linecap:butt;stroke-linejoin:miter;stroke-opacity:1"/>
<path class="bond-35 atom-33 atom-28" d="M 717.4,42.9 L 738.0,46.9" style="fill:none;fill-rule:evenodd;stroke:#000000;stroke-width:2.0px;stroke-linecap:butt;stroke-linejoin:miter;stroke-opacity:1"/>
<path class="bond-29 atom-29 atom-30" d="M 751.7,30.9 L 744.8,11.1" style="fill:none;fill-rule:evenodd;stroke:#000000;stroke-width:2.0px;stroke-linecap:butt;stroke-linejoin:miter;stroke-opacity:1"/>
<path class="bond-30 atom-30 atom-31" d="M 744.8,11.1 L 724.2,7.2" style="fill:none;fill-rule:evenodd;stroke:#000000;stroke-width:2.0px;stroke-linecap:butt;stroke-linejoin:miter;stroke-opacity:1"/>
<path class="bond-30 atom-30 atom-31" d="M 740.9,14.6 L 726.5,11.9" style="fill:none;fill-rule:evenodd;stroke:#000000;stroke-width:2.0px;stroke-linecap:butt;stroke-linejoin:miter;stroke-opacity:1"/>
<path class="bond-31 atom-31 atom-32" d="M 724.2,7.2 L 710.4,23.1" style="fill:none;fill-rule:evenodd;stroke:#000000;stroke-width:2.0px;stroke-linecap:butt;stroke-linejoin:miter;stroke-opacity:1"/>
<path class="bond-32 atom-32 atom-33" d="M 710.4,23.1 L 717.4,42.9" style="fill:none;fill-rule:evenodd;stroke:#000000;stroke-width:2.0px;stroke-linecap:butt;stroke-linejoin:miter;stroke-opacity:1"/>
<path class="bond-32 atom-32 atom-33" d="M 715.4,24.7 L 720.3,38.6" style="fill:none;fill-rule:evenodd;stroke:#000000;stroke-width:2.0px;stroke-linecap:butt;stroke-linejoin:miter;stroke-opacity:1"/>
<path class="atom-3" d="M 646.3 46.4 L 649.9 46.4 L 649.9 47.1 L 647.1 47.1 L 647.1 48.9 L 649.6 48.9 L 649.6 49.6 L 647.1 49.6 L 647.1 52.4 L 646.3 52.4 L 646.3 46.4 " fill="#33CCCC"/>
<path class="atom-12" d="M 751.3 136.2 Q 751.3 134.7, 752.0 133.9 Q 752.7 133.1, 754.0 133.1 Q 755.3 133.1, 756.0 133.9 Q 756.7 134.7, 756.7 136.2 Q 756.7 137.6, 756.0 138.4 Q 755.3 139.2, 754.0 139.2 Q 752.7 139.2, 752.0 138.4 Q 751.3 137.6, 751.3 136.2 M 754.0 138.6 Q 754.9 138.6, 755.4 138.0 Q 755.9 137.3, 755.9 136.2 Q 755.9 135.0, 755.4 134.4 Q 754.9 133.8, 754.0 133.8 Q 753.1 133.8, 752.6 134.4 Q 752.1 135.0, 752.1 136.2 Q 752.1 137.4, 752.6 138.0 Q 753.1 138.6, 754.0 138.6 " fill="#FF0000"/>
<path class="atom-13" d="M 717.8 122.7 L 719.8 125.8 Q 720.0 126.1, 720.3 126.7 Q 720.6 127.2, 720.6 127.3 L 720.6 122.7 L 721.4 122.7 L 721.4 128.6 L 720.6 128.6 L 718.5 125.2 Q 718.2 124.8, 718.0 124.3 Q 717.7 123.8, 717.7 123.7 L 717.7 128.6 L 716.9 128.6 L 716.9 122.7 L 717.8 122.7 " fill="#0000FF"/>
<path class="atom-16" d="M 670.6 132.3 L 671.4 132.3 L 671.4 134.8 L 674.5 134.8 L 674.5 132.3 L 675.3 132.3 L 675.3 138.2 L 674.5 138.2 L 674.5 135.5 L 671.4 135.5 L 671.4 138.2 L 670.6 138.2 L 670.6 132.3 " fill="#0000FF"/>
<path class="atom-16" d="M 676.9 132.3 L 678.9 135.4 Q 679.0 135.7, 679.4 136.3 Q 679.7 136.9, 679.7 136.9 L 679.7 132.3 L 680.5 132.3 L 680.5 138.2 L 679.7 138.2 L 677.6 134.8 Q 677.3 134.4, 677.1 133.9 Q 676.8 133.5, 676.7 133.3 L 676.7 138.2 L 676.0 138.2 L 676.0 132.3 L 676.9 132.3 " fill="#0000FF"/>
<path class="atom-23" d="M 816.7 61.1 Q 816.7 59.7, 817.4 58.9 Q 818.1 58.1, 819.4 58.1 Q 820.7 58.1, 821.4 58.9 Q 822.2 59.7, 822.2 61.1 Q 822.2 62.5, 821.4 63.4 Q 820.7 64.2, 819.4 64.2 Q 818.1 64.2, 817.4 63.4 Q 816.7 62.6, 816.7 61.1 M 819.4 63.5 Q 820.3 63.5, 820.8 62.9 Q 821.3 62.3, 821.3 61.1 Q 821.3 59.9, 820.8 59.3 Q 820.3 58.7, 819.4 58.7 Q 818.5 58.7, 818.0 59.3 Q 817.5 59.9, 817.5 61.1 Q 817.5 62.3, 818.0 62.9 Q 818.5 63.5, 819.4 63.5 " fill="#FF0000"/>
<path class="atom-24" d="M 835.5 71.4 Q 835.5 69.9, 836.2 69.2 Q 836.9 68.4, 838.3 68.4 Q 839.5 68.4, 840.1 69.2 L 839.6 69.7 Q 839.1 69.1, 838.3 69.1 Q 837.4 69.1, 836.9 69.7 Q 836.4 70.3, 836.4 71.4 Q 836.4 72.6, 836.9 73.2 Q 837.4 73.8, 838.3 73.8 Q 839.0 73.8, 839.8 73.4 L 840.0 74.0 Q 839.7 74.2, 839.2 74.3 Q 838.7 74.5, 838.2 74.5 Q 836.9 74.5, 836.2 73.7 Q 835.5 72.9, 835.5 71.4 " fill="#00CC00"/>
<path class="atom-24" d="M 840.9 68.0 L 841.6 68.0 L 841.6 74.4 L 840.9 74.4 L 840.9 68.0 " fill="#00CC00"/>
<path class="atom-27" d="M 743.6 63.7 L 745.6 66.9 Q 745.8 67.2, 746.1 67.8 Q 746.4 68.3, 746.4 68.3 L 746.4 63.7 L 747.2 63.7 L 747.2 69.7 L 746.4 69.7 L 744.3 66.2 Q 744.0 65.8, 743.8 65.4 Q 743.5 64.9, 743.4 64.8 L 743.4 69.7 L 742.7 69.7 L 742.7 63.7 L 743.6 63.7 " fill="#0000FF"/>
</svg>