<svg baseProfile="full" height="160px" version="1.1" viewBox="0 0 1500 160" width="1500px" xml:space="preserve" xmlns="http://www.w3.org/2000/svg" xmlns:rdkit="http://www.rdkit.org/xml" xmlns:xlink="http://www.w3.org/1999/xlink">
<!-- END OF HEADER -->
<rect height="160.0" style="opacity:1.0;fill:#FFFFFF;stroke:none" width="1500.0" x="0.0" y="0.0"> </rect>
<rect height="160.0" style="opacity:1.0;fill:#FFFFFF;stroke:none" width="1500.0" x="0.0" y="0.0"> </rect>
<rect height="160.0" style="opacity:1.0;fill:#FFFFFF;stroke:none" width="1500.0" x="0.0" y="0.0"> </rect>
<rect height="160.0" style="opacity:1.0;fill:#FFFFFF;stroke:none" width="1500.0" x="0.0" y="0.0"> </rect>
<path class="bond-0 atom-0 atom-1" d="M 136.2,70.9 L 142.5,58.6" style="fill:none;fill-rule:evenodd;stroke:#000000;stroke-width:2.0px;stroke-linecap:butt;stroke-linejoin:miter;stroke-opacity:1"/>
<path class="bond-1 atom-1 atom-2" d="M 142.5,58.6 L 135.0,47.0" style="fill:none;fill-rule:evenodd;stroke:#000000;stroke-width:2.0px;stroke-linecap:butt;stroke-linejoin:miter;stroke-opacity:1"/>
<path class="bond-1 atom-1 atom-2" d="M 143.7,55.4 L 138.5,47.2" style="fill:none;fill-rule:evenodd;stroke:#000000;stroke-width:2.0px;stroke-linecap:butt;stroke-linejoin:miter;stroke-opacity:1"/>
<path class="bond-43 atom-7 atom-1" d="M 156.3,57.9 L 142.5,58.6" style="fill:none;fill-rule:evenodd;stroke:#000000;stroke-width:2.0px;stroke-linecap:butt;stroke-linejoin:miter;stroke-opacity:1"/>
<path class="bond-2 atom-2 atom-3" d="M 135.0,47.0 L 141.3,34.7" style="fill:none;fill-rule:evenodd;stroke:#000000;stroke-width:2.0px;stroke-linecap:butt;stroke-linejoin:miter;stroke-opacity:1"/>
<path class="bond-3 atom-3 atom-4" d="M 141.3,34.7 L 155.1,34.0" style="fill:none;fill-rule:evenodd;stroke:#000000;stroke-width:2.0px;stroke-linecap:butt;stroke-linejoin:miter;stroke-opacity:1"/>
<path class="bond-3 atom-3 atom-4" d="M 143.5,37.4 L 153.2,36.9" style="fill:none;fill-rule:evenodd;stroke:#000000;stroke-width:2.0px;stroke-linecap:butt;stroke-linejoin:miter;stroke-opacity:1"/>
<path class="bond-4 atom-4 atom-5" d="M 155.1,34.0 L 157.6,29.1" style="fill:none;fill-rule:evenodd;stroke:#000000;stroke-width:2.0px;stroke-linecap:butt;stroke-linejoin:miter;stroke-opacity:1"/>
<path class="bond-4 atom-4 atom-5" d="M 157.6,29.1 L 160.1,24.3" style="fill:none;fill-rule:evenodd;stroke:#FF0000;stroke-width:2.0px;stroke-linecap:butt;stroke-linejoin:miter;stroke-opacity:1"/>
<path class="bond-5 atom-4 atom-6" d="M 155.1,34.0 L 162.6,45.6" style="fill:none;fill-rule:evenodd;stroke:#000000;stroke-width:2.0px;stroke-linecap:butt;stroke-linejoin:miter;stroke-opacity:1"/>
<path class="bond-6 atom-6 atom-7" d="M 162.6,45.6 L 156.3,57.9" style="fill:none;fill-rule:evenodd;stroke:#000000;stroke-width:2.0px;stroke-linecap:butt;stroke-linejoin:miter;stroke-opacity:1"/>
<path class="bond-6 atom-6 atom-7" d="M 159.2,46.2 L 154.8,54.8" style="fill:none;fill-rule:evenodd;stroke:#000000;stroke-width:2.0px;stroke-linecap:butt;stroke-linejoin:miter;stroke-opacity:1"/>
<path class="bond-7 atom-7 atom-8" d="M 156.3,57.9 L 159.3,62.5" style="fill:none;fill-rule:evenodd;stroke:#000000;stroke-width:2.0px;stroke-linecap:butt;stroke-linejoin:miter;stroke-opacity:1"/>
<path class="bond-7 atom-7 atom-8" d="M 159.3,62.5 L 162.2,67.0" style="fill:none;fill-rule:evenodd;stroke:#CCCC00;stroke-width:2.0px;stroke-linecap:butt;stroke-linejoin:miter;stroke-opacity:1"/>
<path class="bond-8 atom-8 atom-9" d="M 166.3,69.5 L 170.1,67.1" style="fill:none;fill-rule:evenodd;stroke:#CCCC00;stroke-width:2.0px;stroke-linecap:butt;stroke-linejoin:miter;stroke-opacity:1"/>
<path class="bond-8 atom-8 atom-9" d="M 170.1,67.1 L 173.9,64.6" style="fill:none;fill-rule:evenodd;stroke:#FF0000;stroke-width:2.0px;stroke-linecap:butt;stroke-linejoin:miter;stroke-opacity:1"/>
<path class="bond-8 atom-8 atom-9" d="M 164.8,67.2 L 168.6,64.8" style="fill:none;fill-rule:evenodd;stroke:#CCCC00;stroke-width:2.0px;stroke-linecap:butt;stroke-linejoin:miter;stroke-opacity:1"/>
<path class="bond-8 atom-8 atom-9" d="M 168.6,64.8 L 172.4,62.3" style="fill:none;fill-rule:evenodd;stroke:#FF0000;stroke-width:2.0px;stroke-linecap:butt;stroke-linejoin:miter;stroke-opacity:1"/>
<path class="bond-9 atom-8 atom-10" d="M 161.4,69.4 L 157.6,71.9" style="fill:none;fill-rule:evenodd;stroke:#CCCC00;stroke-width:2.0px;stroke-linecap:butt;stroke-linejoin:miter;stroke-opacity:1"/>
<path class="bond-9 atom-8 atom-10" d="M 157.6,71.9 L 153.7,74.4" style="fill:none;fill-rule:evenodd;stroke:#FF0000;stroke-width:2.0px;stroke-linecap:butt;stroke-linejoin:miter;stroke-opacity:1"/>
<path class="bond-9 atom-8 atom-10" d="M 162.9,71.8 L 159.1,74.2" style="fill:none;fill-rule:evenodd;stroke:#CCCC00;stroke-width:2.0px;stroke-linecap:butt;stroke-linejoin:miter;stroke-opacity:1"/>
<path class="bond-9 atom-8 atom-10" d="M 159.1,74.2 L 155.2,76.7" style="fill:none;fill-rule:evenodd;stroke:#FF0000;stroke-width:2.0px;stroke-linecap:butt;stroke-linejoin:miter;stroke-opacity:1"/>
<path class="bond-10 atom-8 atom-11" d="M 165.5,72.1 L 167.6,75.4" style="fill:none;fill-rule:evenodd;stroke:#CCCC00;stroke-width:2.0px;stroke-linecap:butt;stroke-linejoin:miter;stroke-opacity:1"/>
<path class="bond-10 atom-8 atom-11" d="M 167.6,75.4 L 169.8,78.7" style="fill:none;fill-rule:evenodd;stroke:#FF0000;stroke-width:2.0px;stroke-linecap:butt;stroke-linejoin:miter;stroke-opacity:1"/>
<path class="bond-11 atom-11 atom-12" d="M 173.6,81.0 L 179.4,80.7" style="fill:none;fill-rule:evenodd;stroke:#FF0000;stroke-width:2.0px;stroke-linecap:butt;stroke-linejoin:miter;stroke-opacity:1"/>
<path class="bond-11 atom-11 atom-12" d="M 179.4,80.7 L 185.1,80.4" style="fill:none;fill-rule:evenodd;stroke:#000000;stroke-width:2.0px;stroke-linecap:butt;stroke-linejoin:miter;stroke-opacity:1"/>
<path class="bond-12 atom-12 atom-13" d="M 185.1,80.4 L 192.6,92.0" style="fill:none;fill-rule:evenodd;stroke:#000000;stroke-width:2.0px;stroke-linecap:butt;stroke-linejoin:miter;stroke-opacity:1"/>
<path class="bond-12 atom-12 atom-13" d="M 188.6,80.6 L 193.8,88.7" style="fill:none;fill-rule:evenodd;stroke:#000000;stroke-width:2.0px;stroke-linecap:butt;stroke-linejoin:miter;stroke-opacity:1"/>
<path class="bond-44 atom-43 atom-12" d="M 191.4,68.1 L 185.1,80.4" style="fill:none;fill-rule:evenodd;stroke:#000000;stroke-width:2.0px;stroke-linecap:butt;stroke-linejoin:miter;stroke-opacity:1"/>
<path class="bond-13 atom-13 atom-14" d="M 192.6,92.0 L 206.4,91.3" style="fill:none;fill-rule:evenodd;stroke:#000000;stroke-width:2.0px;stroke-linecap:butt;stroke-linejoin:miter;stroke-opacity:1"/>
<path class="bond-14 atom-14 atom-15" d="M 206.4,91.3 L 212.7,79.0" style="fill:none;fill-rule:evenodd;stroke:#000000;stroke-width:2.0px;stroke-linecap:butt;stroke-linejoin:miter;stroke-opacity:1"/>
<path class="bond-14 atom-14 atom-15" d="M 204.9,88.2 L 209.3,79.6" style="fill:none;fill-rule:evenodd;stroke:#000000;stroke-width:2.0px;stroke-linecap:butt;stroke-linejoin:miter;stroke-opacity:1"/>
<path class="bond-15 atom-15 atom-16" d="M 212.7,79.0 L 226.1,75.4" style="fill:none;fill-rule:evenodd;stroke:#000000;stroke-width:2.0px;stroke-linecap:butt;stroke-linejoin:miter;stroke-opacity:1"/>
<path class="bond-45 atom-42 atom-15" d="M 205.2,67.4 L 212.7,79.0" style="fill:none;fill-rule:evenodd;stroke:#000000;stroke-width:2.0px;stroke-linecap:butt;stroke-linejoin:miter;stroke-opacity:1"/>
<path class="bond-16 atom-16 atom-17" d="M 226.1,75.4 L 236.8,84.2" style="fill:none;fill-rule:evenodd;stroke:#000000;stroke-width:2.0px;stroke-linecap:butt;stroke-linejoin:miter;stroke-opacity:1"/>
<path class="bond-24 atom-16 atom-25" d="M 226.1,75.4 L 226.8,61.7" style="fill:none;fill-rule:evenodd;stroke:#000000;stroke-width:2.0px;stroke-linecap:butt;stroke-linejoin:miter;stroke-opacity:1"/>
<path class="bond-24 atom-16 atom-25" d="M 223.4,73.2 L 223.9,63.6" style="fill:none;fill-rule:evenodd;stroke:#000000;stroke-width:2.0px;stroke-linecap:butt;stroke-linejoin:miter;stroke-opacity:1"/>
<path class="bond-17 atom-17 atom-18" d="M 235.4,83.9 L 234.5,89.5" style="fill:none;fill-rule:evenodd;stroke:#000000;stroke-width:2.0px;stroke-linecap:butt;stroke-linejoin:miter;stroke-opacity:1"/>
<path class="bond-17 atom-17 atom-18" d="M 234.5,89.5 L 233.6,95.1" style="fill:none;fill-rule:evenodd;stroke:#FF0000;stroke-width:2.0px;stroke-linecap:butt;stroke-linejoin:miter;stroke-opacity:1"/>
<path class="bond-17 atom-17 atom-18" d="M 238.1,84.4 L 237.3,89.9" style="fill:none;fill-rule:evenodd;stroke:#000000;stroke-width:2.0px;stroke-linecap:butt;stroke-linejoin:miter;stroke-opacity:1"/>
<path class="bond-17 atom-17 atom-18" d="M 237.3,89.9 L 236.4,95.5" style="fill:none;fill-rule:evenodd;stroke:#FF0000;stroke-width:2.0px;stroke-linecap:butt;stroke-linejoin:miter;stroke-opacity:1"/>
<path class="bond-18 atom-17 atom-19" d="M 236.8,84.2 L 242.3,82.1" style="fill:none;fill-rule:evenodd;stroke:#000000;stroke-width:2.0px;stroke-linecap:butt;stroke-linejoin:miter;stroke-opacity:1"/>
<path class="bond-18 atom-17 atom-19" d="M 242.3,82.1 L 247.7,80.0" style="fill:none;fill-rule:evenodd;stroke:#0000FF;stroke-width:2.0px;stroke-linecap:butt;stroke-linejoin:miter;stroke-opacity:1"/>
<path class="bond-19 atom-19 atom-20" d="M 251.6,80.8 L 256.0,84.4" style="fill:none;fill-rule:evenodd;stroke:#0000FF;stroke-width:2.0px;stroke-linecap:butt;stroke-linejoin:miter;stroke-opacity:1"/>
<path class="bond-19 atom-19 atom-20" d="M 256.0,84.4 L 260.4,87.9" style="fill:none;fill-rule:evenodd;stroke:#000000;stroke-width:2.0px;stroke-linecap:butt;stroke-linejoin:miter;stroke-opacity:1"/>
<path class="bond-46 atom-24 atom-19" d="M 251.9,65.6 L 251.0,71.2" style="fill:none;fill-rule:evenodd;stroke:#000000;stroke-width:2.0px;stroke-linecap:butt;stroke-linejoin:miter;stroke-opacity:1"/>
<path class="bond-46 atom-24 atom-19" d="M 251.0,71.2 L 250.1,76.8" style="fill:none;fill-rule:evenodd;stroke:#0000FF;stroke-width:2.0px;stroke-linecap:butt;stroke-linejoin:miter;stroke-opacity:1"/>
<path class="bond-20 atom-20 atom-21" d="M 260.4,87.9 L 273.3,83.0" style="fill:none;fill-rule:evenodd;stroke:#000000;stroke-width:2.0px;stroke-linecap:butt;stroke-linejoin:miter;stroke-opacity:1"/>
<path class="bond-21 atom-21 atom-22" d="M 273.3,83.0 L 274.2,77.4" style="fill:none;fill-rule:evenodd;stroke:#000000;stroke-width:2.0px;stroke-linecap:butt;stroke-linejoin:miter;stroke-opacity:1"/>
<path class="bond-21 atom-21 atom-22" d="M 274.2,77.4 L 275.1,71.8" style="fill:none;fill-rule:evenodd;stroke:#0000FF;stroke-width:2.0px;stroke-linecap:butt;stroke-linejoin:miter;stroke-opacity:1"/>
<path class="bond-22 atom-22 atom-23" d="M 273.5,67.8 L 269.2,64.2" style="fill:none;fill-rule:evenodd;stroke:#0000FF;stroke-width:2.0px;stroke-linecap:butt;stroke-linejoin:miter;stroke-opacity:1"/>
<path class="bond-22 atom-22 atom-23" d="M 269.2,64.2 L 264.8,60.7" style="fill:none;fill-rule:evenodd;stroke:#000000;stroke-width:2.0px;stroke-linecap:butt;stroke-linejoin:miter;stroke-opacity:1"/>
<path class="bond-23 atom-23 atom-24" d="M 264.8,60.7 L 251.9,65.6" style="fill:none;fill-rule:evenodd;stroke:#000000;stroke-width:2.0px;stroke-linecap:butt;stroke-linejoin:miter;stroke-opacity:1"/>
<path class="bond-25 atom-25 atom-26" d="M 226.8,61.7 L 238.4,54.1" style="fill:none;fill-rule:evenodd;stroke:#000000;stroke-width:2.0px;stroke-linecap:butt;stroke-linejoin:miter;stroke-opacity:1"/>
<path class="bond-34 atom-25 atom-35" d="M 226.8,61.7 L 221.3,59.5" style="fill:none;fill-rule:evenodd;stroke:#000000;stroke-width:2.0px;stroke-linecap:butt;stroke-linejoin:miter;stroke-opacity:1"/>
<path class="bond-34 atom-25 atom-35" d="M 221.3,59.5 L 215.9,57.4" style="fill:none;fill-rule:evenodd;stroke:#0000FF;stroke-width:2.0px;stroke-linecap:butt;stroke-linejoin:miter;stroke-opacity:1"/>
<path class="bond-26 atom-26 atom-27" d="M 238.4,54.1 L 237.7,40.4" style="fill:none;fill-rule:evenodd;stroke:#000000;stroke-width:2.0px;stroke-linecap:butt;stroke-linejoin:miter;stroke-opacity:1"/>
<path class="bond-27 atom-27 atom-28" d="M 237.7,40.4 L 225.4,34.1" style="fill:none;fill-rule:evenodd;stroke:#000000;stroke-width:2.0px;stroke-linecap:butt;stroke-linejoin:miter;stroke-opacity:1"/>
<path class="bond-27 atom-27 atom-28" d="M 237.1,37.0 L 228.5,32.5" style="fill:none;fill-rule:evenodd;stroke:#000000;stroke-width:2.0px;stroke-linecap:butt;stroke-linejoin:miter;stroke-opacity:1"/>
<path class="bond-47 atom-33 atom-27" d="M 249.3,32.9 L 237.7,40.4" style="fill:none;fill-rule:evenodd;stroke:#000000;stroke-width:2.0px;stroke-linecap:butt;stroke-linejoin:miter;stroke-opacity:1"/>
<path class="bond-28 atom-28 atom-29" d="M 225.4,34.1 L 224.7,20.3" style="fill:none;fill-rule:evenodd;stroke:#000000;stroke-width:2.0px;stroke-linecap:butt;stroke-linejoin:miter;stroke-opacity:1"/>
<path class="bond-29 atom-29 atom-30" d="M 224.7,20.3 L 236.3,12.8" style="fill:none;fill-rule:evenodd;stroke:#000000;stroke-width:2.0px;stroke-linecap:butt;stroke-linejoin:miter;stroke-opacity:1"/>
<path class="bond-29 atom-29 atom-30" d="M 228.0,21.5 L 236.1,16.2" style="fill:none;fill-rule:evenodd;stroke:#000000;stroke-width:2.0px;stroke-linecap:butt;stroke-linejoin:miter;stroke-opacity:1"/>
<path class="bond-30 atom-30 atom-31" d="M 236.3,12.8 L 248.6,19.1" style="fill:none;fill-rule:evenodd;stroke:#000000;stroke-width:2.0px;stroke-linecap:butt;stroke-linejoin:miter;stroke-opacity:1"/>
<path class="bond-31 atom-31 atom-32" d="M 248.6,19.1 L 253.6,15.8" style="fill:none;fill-rule:evenodd;stroke:#000000;stroke-width:2.0px;stroke-linecap:butt;stroke-linejoin:miter;stroke-opacity:1"/>
<path class="bond-31 atom-31 atom-32" d="M 253.6,15.8 L 258.6,12.6" style="fill:none;fill-rule:evenodd;stroke:#33CCCC;stroke-width:2.0px;stroke-linecap:butt;stroke-linejoin:miter;stroke-opacity:1"/>
<path class="bond-32 atom-31 atom-33" d="M 248.6,19.1 L 249.3,32.9" style="fill:none;fill-rule:evenodd;stroke:#000000;stroke-width:2.0px;stroke-linecap:butt;stroke-linejoin:miter;stroke-opacity:1"/>
<path class="bond-32 atom-31 atom-33" d="M 246.0,21.3 L 246.4,30.9" style="fill:none;fill-rule:evenodd;stroke:#000000;stroke-width:2.0px;stroke-linecap:butt;stroke-linejoin:miter;stroke-opacity:1"/>
<path class="bond-33 atom-33 atom-34" d="M 249.3,32.9 L 261.6,39.1" style="fill:none;fill-rule:evenodd;stroke:#000000;stroke-width:2.0px;stroke-linecap:butt;stroke-linejoin:miter;stroke-opacity:1"/>
<path class="bond-35 atom-35 atom-36" d="M 213.3,54.2 L 211.8,48.8" style="fill:none;fill-rule:evenodd;stroke:#0000FF;stroke-width:2.0px;stroke-linecap:butt;stroke-linejoin:miter;stroke-opacity:1"/>
<path class="bond-35 atom-35 atom-36" d="M 211.8,48.8 L 210.4,43.3" style="fill:none;fill-rule:evenodd;stroke:#000000;stroke-width:2.0px;stroke-linecap:butt;stroke-linejoin:miter;stroke-opacity:1"/>
<path class="bond-41 atom-35 atom-42" d="M 212.0,59.1 L 208.6,63.2" style="fill:none;fill-rule:evenodd;stroke:#0000FF;stroke-width:2.0px;stroke-linecap:butt;stroke-linejoin:miter;stroke-opacity:1"/>
<path class="bond-41 atom-35 atom-42" d="M 208.6,63.2 L 205.2,67.4" style="fill:none;fill-rule:evenodd;stroke:#000000;stroke-width:2.0px;stroke-linecap:butt;stroke-linejoin:miter;stroke-opacity:1"/>
<path class="bond-36 atom-36 atom-37" d="M 210.4,43.3 L 220.2,33.6" style="fill:none;fill-rule:evenodd;stroke:#000000;stroke-width:2.0px;stroke-linecap:butt;stroke-linejoin:miter;stroke-opacity:1"/>
<path class="bond-36 atom-36 atom-37" d="M 209.9,39.9 L 216.7,33.1" style="fill:none;fill-rule:evenodd;stroke:#000000;stroke-width:2.0px;stroke-linecap:butt;stroke-linejoin:miter;stroke-opacity:1"/>
<path class="bond-48 atom-41 atom-36" d="M 197.0,39.7 L 210.4,43.3" style="fill:none;fill-rule:evenodd;stroke:#000000;stroke-width:2.0px;stroke-linecap:butt;stroke-linejoin:miter;stroke-opacity:1"/>
<path class="bond-37 atom-37 atom-38" d="M 220.2,33.6 L 216.6,20.2" style="fill:none;fill-rule:evenodd;stroke:#000000;stroke-width:2.0px;stroke-linecap:butt;stroke-linejoin:miter;stroke-opacity:1"/>
<path class="bond-38 atom-38 atom-39" d="M 216.6,20.2 L 203.3,16.6" style="fill:none;fill-rule:evenodd;stroke:#000000;stroke-width:2.0px;stroke-linecap:butt;stroke-linejoin:miter;stroke-opacity:1"/>
<path class="bond-38 atom-38 atom-39" d="M 213.9,22.4 L 204.6,19.8" style="fill:none;fill-rule:evenodd;stroke:#000000;stroke-width:2.0px;stroke-linecap:butt;stroke-linejoin:miter;stroke-opacity:1"/>
<path class="bond-39 atom-39 atom-40" d="M 203.3,16.6 L 193.5,26.4" style="fill:none;fill-rule:evenodd;stroke:#000000;stroke-width:2.0px;stroke-linecap:butt;stroke-linejoin:miter;stroke-opacity:1"/>
<path class="bond-40 atom-40 atom-41" d="M 193.5,26.4 L 197.0,39.7" style="fill:none;fill-rule:evenodd;stroke:#000000;stroke-width:2.0px;stroke-linecap:butt;stroke-linejoin:miter;stroke-opacity:1"/>
<path class="bond-40 atom-40 atom-41" d="M 196.7,27.7 L 199.2,37.0" style="fill:none;fill-rule:evenodd;stroke:#000000;stroke-width:2.0px;stroke-linecap:butt;stroke-linejoin:miter;stroke-opacity:1"/>
<path class="bond-42 atom-42 atom-43" d="M 205.2,67.4 L 191.4,68.1" style="fill:none;fill-rule:evenodd;stroke:#000000;stroke-width:2.0px;stroke-linecap:butt;stroke-linejoin:miter;stroke-opacity:1"/>
<path class="bond-42 atom-42 atom-43" d="M 203.3,70.3 L 193.6,70.7" style="fill:none;fill-rule:evenodd;stroke:#000000;stroke-width:2.0px;stroke-linecap:butt;stroke-linejoin:miter;stroke-opacity:1"/>
<path class="atom-5" d="M 159.5 21.7 Q 159.5 20.7, 160.0 20.1 Q 160.5 19.6, 161.4 19.6 Q 162.4 19.6, 162.9 20.1 Q 163.4 20.7, 163.4 21.7 Q 163.4 22.8, 162.9 23.3 Q 162.3 23.9, 161.4 23.9 Q 160.5 23.9, 160.0 23.3 Q 159.5 22.8, 159.5 21.7 M 161.4 23.4 Q 162.1 23.4, 162.4 23.0 Q 162.8 22.6, 162.8 21.7 Q 162.8 20.9, 162.4 20.5 Q 162.1 20.0, 161.4 20.0 Q 160.8 20.0, 160.4 20.5 Q 160.1 20.9, 160.1 21.7 Q 160.1 22.6, 160.4 23.0 Q 160.8 23.4, 161.4 23.4 " fill="#FF0000"/>
<path class="atom-5" d="M 163.9 19.6 L 164.4 19.6 L 164.4 21.4 L 166.6 21.4 L 166.6 19.6 L 167.2 19.6 L 167.2 23.9 L 166.6 23.9 L 166.6 21.9 L 164.4 21.9 L 164.4 23.9 L 163.9 23.9 L 163.9 19.6 " fill="#FF0000"/>
<path class="atom-8" d="M 162.6 71.0 Q 162.7 71.0, 162.9 71.1 Q 163.1 71.1, 163.3 71.2 Q 163.5 71.2, 163.7 71.2 Q 164.1 71.2, 164.4 71.0 Q 164.6 70.8, 164.6 70.5 Q 164.6 70.3, 164.5 70.1 Q 164.4 70.0, 164.2 69.9 Q 164.0 69.8, 163.7 69.7 Q 163.3 69.6, 163.1 69.5 Q 162.9 69.4, 162.7 69.2 Q 162.6 69.0, 162.6 68.6 Q 162.6 68.0, 162.9 67.7 Q 163.3 67.4, 164.0 67.4 Q 164.5 67.4, 165.1 67.6 L 164.9 68.1 Q 164.4 67.9, 164.0 67.9 Q 163.6 67.9, 163.4 68.0 Q 163.2 68.2, 163.2 68.5 Q 163.2 68.7, 163.3 68.9 Q 163.4 69.0, 163.6 69.1 Q 163.7 69.2, 164.0 69.2 Q 164.4 69.4, 164.6 69.5 Q 164.9 69.6, 165.0 69.9 Q 165.2 70.1, 165.2 70.5 Q 165.2 71.1, 164.8 71.4 Q 164.4 71.7, 163.8 71.7 Q 163.4 71.7, 163.1 71.6 Q 162.8 71.6, 162.5 71.4 L 162.6 71.0 " fill="#CCCC00"/>
<path class="atom-9" d="M 173.5 62.0 Q 173.5 61.0, 174.0 60.4 Q 174.5 59.8, 175.4 59.8 Q 176.4 59.8, 176.9 60.4 Q 177.4 61.0, 177.4 62.0 Q 177.4 63.0, 176.9 63.6 Q 176.4 64.2, 175.4 64.2 Q 174.5 64.2, 174.0 63.6 Q 173.5 63.0, 173.5 62.0 M 175.4 63.7 Q 176.1 63.7, 176.4 63.3 Q 176.8 62.9, 176.8 62.0 Q 176.8 61.2, 176.4 60.7 Q 176.1 60.3, 175.4 60.3 Q 174.8 60.3, 174.4 60.7 Q 174.1 61.2, 174.1 62.0 Q 174.1 62.9, 174.4 63.3 Q 174.8 63.7, 175.4 63.7 " fill="#FF0000"/>
<path class="atom-10" d="M 150.3 77.0 Q 150.3 76.0, 150.8 75.4 Q 151.3 74.8, 152.2 74.8 Q 153.2 74.8, 153.7 75.4 Q 154.2 76.0, 154.2 77.0 Q 154.2 78.0, 153.7 78.6 Q 153.2 79.2, 152.2 79.2 Q 151.3 79.2, 150.8 78.6 Q 150.3 78.0, 150.3 77.0 M 152.2 78.7 Q 152.9 78.7, 153.2 78.3 Q 153.6 77.9, 153.6 77.0 Q 153.6 76.2, 153.2 75.8 Q 152.9 75.3, 152.2 75.3 Q 151.6 75.3, 151.2 75.7 Q 150.9 76.2, 150.9 77.0 Q 150.9 77.9, 151.2 78.3 Q 151.6 78.7, 152.2 78.7 " fill="#FF0000"/>
<path class="atom-11" d="M 169.4 81.1 Q 169.4 80.1, 169.9 79.5 Q 170.4 78.9, 171.3 78.9 Q 172.3 78.9, 172.8 79.5 Q 173.3 80.1, 173.3 81.1 Q 173.3 82.1, 172.8 82.7 Q 172.3 83.3, 171.3 83.3 Q 170.4 83.3, 169.9 82.7 Q 169.4 82.1, 169.4 81.1 M 171.3 82.8 Q 172.0 82.8, 172.3 82.4 Q 172.7 82.0, 172.7 81.1 Q 172.7 80.3, 172.3 79.8 Q 172.0 79.4, 171.3 79.4 Q 170.7 79.4, 170.3 79.8 Q 170.0 80.3, 170.0 81.1 Q 170.0 82.0, 170.3 82.4 Q 170.7 82.8, 171.3 82.8 " fill="#FF0000"/>
<path class="atom-18" d="M 232.6 97.8 Q 232.6 96.8, 233.2 96.2 Q 233.7 95.6, 234.6 95.6 Q 235.5 95.6, 236.0 96.2 Q 236.5 96.8, 236.5 97.8 Q 236.5 98.8, 236.0 99.4 Q 235.5 100.0, 234.6 100.0 Q 233.7 100.0, 233.2 99.4 Q 232.6 98.8, 232.6 97.8 M 234.6 99.5 Q 235.2 99.5, 235.6 99.1 Q 235.9 98.7, 235.9 97.8 Q 235.9 97.0, 235.6 96.5 Q 235.2 96.1, 234.6 96.1 Q 234.0 96.1, 233.6 96.5 Q 233.2 97.0, 233.2 97.8 Q 233.2 98.7, 233.6 99.1 Q 234.0 99.5, 234.6 99.5 " fill="#FF0000"/>
<path class="atom-19" d="M 248.7 77.1 L 250.1 79.4 Q 250.3 79.6, 250.5 80.0 Q 250.7 80.4, 250.7 80.4 L 250.7 77.1 L 251.3 77.1 L 251.3 81.3 L 250.7 81.3 L 249.2 78.9 Q 249.0 78.6, 248.9 78.3 Q 248.7 77.9, 248.6 77.8 L 248.6 81.3 L 248.1 81.3 L 248.1 77.1 L 248.7 77.1 " fill="#0000FF"/>
<path class="atom-22" d="M 274.6 67.2 L 275.9 69.5 Q 276.1 69.7, 276.3 70.1 Q 276.5 70.5, 276.5 70.5 L 276.5 67.2 L 277.1 67.2 L 277.1 71.5 L 276.5 71.5 L 275.0 69.0 Q 274.9 68.7, 274.7 68.4 Q 274.5 68.1, 274.4 68.0 L 274.4 71.5 L 273.9 71.5 L 273.9 67.2 L 274.6 67.2 " fill="#0000FF"/>
<path class="atom-22" d="M 277.6 67.2 L 278.2 67.2 L 278.2 69.1 L 280.4 69.1 L 280.4 67.2 L 280.9 67.2 L 280.9 71.5 L 280.4 71.5 L 280.4 69.5 L 278.2 69.5 L 278.2 71.5 L 277.6 71.5 L 277.6 67.2 " fill="#0000FF"/>
<path class="atom-32" d="M 258.9 9.4 L 261.5 9.4 L 261.5 9.9 L 259.5 9.9 L 259.5 11.2 L 261.2 11.2 L 261.2 11.7 L 259.5 11.7 L 259.5 13.7 L 258.9 13.7 L 258.9 9.4 " fill="#33CCCC"/>
<path class="atom-35" d="M 213.0 54.6 L 214.4 56.8 Q 214.5 57.0, 214.7 57.4 Q 215.0 57.8, 215.0 57.9 L 215.0 54.6 L 215.5 54.6 L 215.5 58.8 L 215.0 58.8 L 213.5 56.3 Q 213.3 56.1, 213.1 55.7 Q 212.9 55.4, 212.9 55.3 L 212.9 58.8 L 212.3 58.8 L 212.3 54.6 L 213.0 54.6 " fill="#0000FF"/>
<path d="M 134.7,70.9 L 134.7,70.9 L 134.7,70.8 L 134.7,70.8 L 134.7,70.8 L 134.7,70.8 L 134.7,70.7 L 134.7,70.7 L 134.7,70.7 L 134.7,70.7 L 134.6,70.7 L 134.6,70.6 L 134.6,70.6 L 134.6,70.6 L 134.6,70.6 L 134.5,70.6 L 134.5,70.6 L 134.5,70.6 L 134.5,70.6 L 134.4,70.6 L 134.4,70.6 L 134.4,70.6 L 134.4,70.6 L 134.3,70.6 L 134.3,70.6 L 134.3,70.6 L 134.3,70.7 L 134.2,70.7 L 134.2,70.7 L 134.2,70.7 L 134.2,70.7 L 134.2,70.8 L 134.2,70.8 L 134.2,70.8 L 134.2,70.8 L 134.2,70.9 L 134.1,70.9 L 134.1,70.9 L 134.2,70.9 L 134.2,71.0 L 134.2,71.0 L 134.2,71.0 L 134.2,71.0 L 134.2,71.1 L 134.2,71.1 L 134.2,71.1 L 134.2,71.1 L 134.3,71.1 L 134.3,71.1 L 134.3,71.2 L 134.3,71.2 L 134.4,71.2 L 134.4,71.2 L 134.4,71.2 L 134.4,71.2 L 134.5,71.2 L 134.5,71.2 L 134.5,71.2 L 134.5,71.2 L 134.6,71.2 L 134.6,71.2 L 134.6,71.1 L 134.6,71.1 L 134.6,71.1 L 134.7,71.1 L 134.7,71.1 L 134.7,71.1 L 134.7,71.0 L 134.7,71.0 L 134.7,71.0 L 134.7,71.0 L 134.7,70.9 L 134.7,70.9 L 134.7,70.9 L 134.4,70.9 Z" style="fill:#000000;fill-rule:evenodd;fill-opacity:1;stroke:#000000;stroke-width:0.0px;stroke-linecap:butt;stroke-linejoin:miter;stroke-opacity:1;"/>
<path class="bond-0 atom-0 atom-1" d="M 489.1,111.7 L 479.1,105.5" style="fill:none;fill-rule:evenodd;stroke:#000000;stroke-width:2.0px;stroke-linecap:butt;stroke-linejoin:miter;stroke-opacity:1"/>
<path class="bond-1 atom-1 atom-2" d="M 477.4,103.1 L 477.7,93.2" style="fill:none;fill-rule:evenodd;stroke:#000000;stroke-width:2.0px;stroke-linecap:butt;stroke-linejoin:miter;stroke-opacity:1"/>
<path class="bond-2 atom-2 atom-3" d="M 476.1,89.6 L 467.8,84.4" style="fill:none;fill-rule:evenodd;stroke:#000000;stroke-width:2.0px;stroke-linecap:butt;stroke-linejoin:miter;stroke-opacity:1"/>
<path class="bond-3 atom-3 atom-4" d="M 466.1,82.0 L 466.5,72.1" style="fill:none;fill-rule:evenodd;stroke:#000000;stroke-width:2.0px;stroke-linecap:butt;stroke-linejoin:miter;stroke-opacity:1"/>
<path class="bond-4 atom-4 atom-5" d="M 464.8,68.5 L 460.6,65.9" style="fill:none;fill-rule:evenodd;stroke:#000000;stroke-width:2.0px;stroke-linecap:butt;stroke-linejoin:miter;stroke-opacity:1"/>
<path class="bond-4 atom-4 atom-5" d="M 460.6,65.9 L 456.5,63.3" style="fill:none;fill-rule:evenodd;stroke:#CCCC00;stroke-width:2.0px;stroke-linecap:butt;stroke-linejoin:miter;stroke-opacity:1"/>
<path class="bond-5 atom-5 atom-6" d="M 453.1,63.2 L 450.3,64.7" style="fill:none;fill-rule:evenodd;stroke:#CCCC00;stroke-width:2.0px;stroke-linecap:butt;stroke-linejoin:miter;stroke-opacity:1"/>
<path class="bond-5 atom-5 atom-6" d="M 450.3,64.7 L 447.5,66.2" style="fill:none;fill-rule:evenodd;stroke:#000000;stroke-width:2.0px;stroke-linecap:butt;stroke-linejoin:miter;stroke-opacity:1"/>
<path class="bond-6 atom-5 atom-7" d="M 454.9,59.8 L 455.1,54.1" style="fill:none;fill-rule:evenodd;stroke:#CCCC00;stroke-width:2.0px;stroke-linecap:butt;stroke-linejoin:miter;stroke-opacity:1"/>
<path class="bond-6 atom-5 atom-7" d="M 455.1,54.1 L 455.2,48.4" style="fill:none;fill-rule:evenodd;stroke:#000000;stroke-width:2.0px;stroke-linecap:butt;stroke-linejoin:miter;stroke-opacity:1"/>
<path class="bond-7 atom-7 atom-8" d="M 455.2,48.4 L 443.5,41.2" style="fill:none;fill-rule:evenodd;stroke:#000000;stroke-width:2.0px;stroke-linecap:butt;stroke-linejoin:miter;stroke-opacity:1"/>
<path class="bond-7 atom-7 atom-8" d="M 454.9,45.0 L 446.7,39.9" style="fill:none;fill-rule:evenodd;stroke:#000000;stroke-width:2.0px;stroke-linecap:butt;stroke-linejoin:miter;stroke-opacity:1"/>
<path class="bond-45 atom-13 atom-7" d="M 467.4,41.9 L 455.2,48.4" style="fill:none;fill-rule:evenodd;stroke:#000000;stroke-width:2.0px;stroke-linecap:butt;stroke-linejoin:miter;stroke-opacity:1"/>
<path class="bond-8 atom-8 atom-9" d="M 443.5,41.2 L 443.9,27.4" style="fill:none;fill-rule:evenodd;stroke:#000000;stroke-width:2.0px;stroke-linecap:butt;stroke-linejoin:miter;stroke-opacity:1"/>
<path class="bond-9 atom-9 atom-10" d="M 443.9,27.4 L 439.2,24.4" style="fill:none;fill-rule:evenodd;stroke:#000000;stroke-width:2.0px;stroke-linecap:butt;stroke-linejoin:miter;stroke-opacity:1"/>
<path class="bond-9 atom-9 atom-10" d="M 439.2,24.4 L 434.5,21.5" style="fill:none;fill-rule:evenodd;stroke:#FF0000;stroke-width:2.0px;stroke-linecap:butt;stroke-linejoin:miter;stroke-opacity:1"/>
<path class="bond-10 atom-9 atom-11" d="M 443.9,27.4 L 456.1,20.8" style="fill:none;fill-rule:evenodd;stroke:#000000;stroke-width:2.0px;stroke-linecap:butt;stroke-linejoin:miter;stroke-opacity:1"/>
<path class="bond-10 atom-9 atom-11" d="M 447.1,28.8 L 455.6,24.2" style="fill:none;fill-rule:evenodd;stroke:#000000;stroke-width:2.0px;stroke-linecap:butt;stroke-linejoin:miter;stroke-opacity:1"/>
<path class="bond-11 atom-11 atom-12" d="M 456.1,20.8 L 467.9,28.1" style="fill:none;fill-rule:evenodd;stroke:#000000;stroke-width:2.0px;stroke-linecap:butt;stroke-linejoin:miter;stroke-opacity:1"/>
<path class="bond-12 atom-12 atom-13" d="M 467.9,28.1 L 467.4,41.9" style="fill:none;fill-rule:evenodd;stroke:#000000;stroke-width:2.0px;stroke-linecap:butt;stroke-linejoin:miter;stroke-opacity:1"/>
<path class="bond-12 atom-12 atom-13" d="M 465.0,30.1 L 464.7,39.8" style="fill:none;fill-rule:evenodd;stroke:#000000;stroke-width:2.0px;stroke-linecap:butt;stroke-linejoin:miter;stroke-opacity:1"/>
<path class="bond-13 atom-13 atom-14" d="M 467.4,41.9 L 479.2,49.2" style="fill:none;fill-rule:evenodd;stroke:#000000;stroke-width:2.0px;stroke-linecap:butt;stroke-linejoin:miter;stroke-opacity:1"/>
<path class="bond-14 atom-14 atom-15" d="M 479.2,49.2 L 478.7,63.0" style="fill:none;fill-rule:evenodd;stroke:#000000;stroke-width:2.0px;stroke-linecap:butt;stroke-linejoin:miter;stroke-opacity:1"/>
<path class="bond-14 atom-14 atom-15" d="M 481.8,51.4 L 481.5,61.0" style="fill:none;fill-rule:evenodd;stroke:#000000;stroke-width:2.0px;stroke-linecap:butt;stroke-linejoin:miter;stroke-opacity:1"/>
<path class="bond-46 atom-45 atom-14" d="M 491.3,42.7 L 479.2,49.2" style="fill:none;fill-rule:evenodd;stroke:#000000;stroke-width:2.0px;stroke-linecap:butt;stroke-linejoin:miter;stroke-opacity:1"/>
<path class="bond-15 atom-15 atom-16" d="M 478.7,63.0 L 490.4,70.3" style="fill:none;fill-rule:evenodd;stroke:#000000;stroke-width:2.0px;stroke-linecap:butt;stroke-linejoin:miter;stroke-opacity:1"/>
<path class="bond-16 atom-16 atom-17" d="M 490.4,70.3 L 502.6,63.8" style="fill:none;fill-rule:evenodd;stroke:#000000;stroke-width:2.0px;stroke-linecap:butt;stroke-linejoin:miter;stroke-opacity:1"/>
<path class="bond-16 atom-16 atom-17" d="M 491.0,66.9 L 499.5,62.3" style="fill:none;fill-rule:evenodd;stroke:#000000;stroke-width:2.0px;stroke-linecap:butt;stroke-linejoin:miter;stroke-opacity:1"/>
<path class="bond-17 atom-17 atom-18" d="M 502.6,63.8 L 515.6,68.5" style="fill:none;fill-rule:evenodd;stroke:#000000;stroke-width:2.0px;stroke-linecap:butt;stroke-linejoin:miter;stroke-opacity:1"/>
<path class="bond-47 atom-44 atom-17" d="M 503.1,50.0 L 502.6,63.8" style="fill:none;fill-rule:evenodd;stroke:#000000;stroke-width:2.0px;stroke-linecap:butt;stroke-linejoin:miter;stroke-opacity:1"/>
<path class="bond-18 atom-18 atom-19" d="M 515.6,68.5 L 519.5,81.7" style="fill:none;fill-rule:evenodd;stroke:#000000;stroke-width:2.0px;stroke-linecap:butt;stroke-linejoin:miter;stroke-opacity:1"/>
<path class="bond-26 atom-18 atom-27" d="M 515.6,68.5 L 524.1,57.5" style="fill:none;fill-rule:evenodd;stroke:#000000;stroke-width:2.0px;stroke-linecap:butt;stroke-linejoin:miter;stroke-opacity:1"/>
<path class="bond-26 atom-18 atom-27" d="M 514.7,65.1 L 520.6,57.5" style="fill:none;fill-rule:evenodd;stroke:#000000;stroke-width:2.0px;stroke-linecap:butt;stroke-linejoin:miter;stroke-opacity:1"/>
<path class="bond-19 atom-19 atom-20" d="M 518.5,80.8 L 514.8,84.5" style="fill:none;fill-rule:evenodd;stroke:#000000;stroke-width:2.0px;stroke-linecap:butt;stroke-linejoin:miter;stroke-opacity:1"/>
<path class="bond-19 atom-19 atom-20" d="M 514.8,84.5 L 511.2,88.3" style="fill:none;fill-rule:evenodd;stroke:#FF0000;stroke-width:2.0px;stroke-linecap:butt;stroke-linejoin:miter;stroke-opacity:1"/>
<path class="bond-19 atom-19 atom-20" d="M 520.5,82.7 L 516.8,86.5" style="fill:none;fill-rule:evenodd;stroke:#000000;stroke-width:2.0px;stroke-linecap:butt;stroke-linejoin:miter;stroke-opacity:1"/>
<path class="bond-19 atom-19 atom-20" d="M 516.8,86.5 L 513.2,90.2" style="fill:none;fill-rule:evenodd;stroke:#FF0000;stroke-width:2.0px;stroke-linecap:butt;stroke-linejoin:miter;stroke-opacity:1"/>
<path class="bond-20 atom-19 atom-21" d="M 519.5,81.7 L 525.2,83.1" style="fill:none;fill-rule:evenodd;stroke:#000000;stroke-width:2.0px;stroke-linecap:butt;stroke-linejoin:miter;stroke-opacity:1"/>
<path class="bond-20 atom-19 atom-21" d="M 525.2,83.1 L 530.9,84.5" style="fill:none;fill-rule:evenodd;stroke:#0000FF;stroke-width:2.0px;stroke-linecap:butt;stroke-linejoin:miter;stroke-opacity:1"/>
<path class="bond-21 atom-21 atom-22" d="M 533.6,87.5 L 535.2,92.9" style="fill:none;fill-rule:evenodd;stroke:#0000FF;stroke-width:2.0px;stroke-linecap:butt;stroke-linejoin:miter;stroke-opacity:1"/>
<path class="bond-21 atom-21 atom-22" d="M 535.2,92.9 L 536.7,98.3" style="fill:none;fill-rule:evenodd;stroke:#000000;stroke-width:2.0px;stroke-linecap:butt;stroke-linejoin:miter;stroke-opacity:1"/>
<path class="bond-48 atom-26 atom-21" d="M 542.4,75.1 L 538.6,79.0" style="fill:none;fill-rule:evenodd;stroke:#000000;stroke-width:2.0px;stroke-linecap:butt;stroke-linejoin:miter;stroke-opacity:1"/>
<path class="bond-48 atom-26 atom-21" d="M 538.6,79.0 L 534.8,83.0" style="fill:none;fill-rule:evenodd;stroke:#0000FF;stroke-width:2.0px;stroke-linecap:butt;stroke-linejoin:miter;stroke-opacity:1"/>
<path class="bond-22 atom-22 atom-23" d="M 536.7,98.3 L 550.1,101.6" style="fill:none;fill-rule:evenodd;stroke:#000000;stroke-width:2.0px;stroke-linecap:butt;stroke-linejoin:miter;stroke-opacity:1"/>
<path class="bond-23 atom-23 atom-24" d="M 550.1,101.6 L 553.9,97.6" style="fill:none;fill-rule:evenodd;stroke:#000000;stroke-width:2.0px;stroke-linecap:butt;stroke-linejoin:miter;stroke-opacity:1"/>
<path class="bond-23 atom-23 atom-24" d="M 553.9,97.6 L 557.7,93.7" style="fill:none;fill-rule:evenodd;stroke:#0000FF;stroke-width:2.0px;stroke-linecap:butt;stroke-linejoin:miter;stroke-opacity:1"/>
<path class="bond-24 atom-24 atom-25" d="M 559.0,89.2 L 557.4,83.8" style="fill:none;fill-rule:evenodd;stroke:#0000FF;stroke-width:2.0px;stroke-linecap:butt;stroke-linejoin:miter;stroke-opacity:1"/>
<path class="bond-24 atom-24 atom-25" d="M 557.4,83.8 L 555.8,78.4" style="fill:none;fill-rule:evenodd;stroke:#000000;stroke-width:2.0px;stroke-linecap:butt;stroke-linejoin:miter;stroke-opacity:1"/>
<path class="bond-25 atom-25 atom-26" d="M 555.8,78.4 L 542.4,75.1" style="fill:none;fill-rule:evenodd;stroke:#000000;stroke-width:2.0px;stroke-linecap:butt;stroke-linejoin:miter;stroke-opacity:1"/>
<path class="bond-27 atom-27 atom-28" d="M 524.1,57.5 L 537.9,58.0" style="fill:none;fill-rule:evenodd;stroke:#000000;stroke-width:2.0px;stroke-linecap:butt;stroke-linejoin:miter;stroke-opacity:1"/>
<path class="bond-36 atom-27 atom-37" d="M 524.1,57.5 L 521.0,53.1" style="fill:none;fill-rule:evenodd;stroke:#000000;stroke-width:2.0px;stroke-linecap:butt;stroke-linejoin:miter;stroke-opacity:1"/>
<path class="bond-36 atom-27 atom-37" d="M 521.0,53.1 L 518.0,48.6" style="fill:none;fill-rule:evenodd;stroke:#0000FF;stroke-width:2.0px;stroke-linecap:butt;stroke-linejoin:miter;stroke-opacity:1"/>
<path class="bond-28 atom-28 atom-29" d="M 537.9,58.0 L 545.2,46.3" style="fill:none;fill-rule:evenodd;stroke:#000000;stroke-width:2.0px;stroke-linecap:butt;stroke-linejoin:miter;stroke-opacity:1"/>
<path class="bond-29 atom-29 atom-30" d="M 545.2,46.3 L 538.7,34.1" style="fill:none;fill-rule:evenodd;stroke:#000000;stroke-width:2.0px;stroke-linecap:butt;stroke-linejoin:miter;stroke-opacity:1"/>
<path class="bond-29 atom-29 atom-30" d="M 546.6,43.1 L 542.1,34.6" style="fill:none;fill-rule:evenodd;stroke:#000000;stroke-width:2.0px;stroke-linecap:butt;stroke-linejoin:miter;stroke-opacity:1"/>
<path class="bond-49 atom-35 atom-29" d="M 559.0,46.7 L 545.2,46.3" style="fill:none;fill-rule:evenodd;stroke:#000000;stroke-width:2.0px;stroke-linecap:butt;stroke-linejoin:miter;stroke-opacity:1"/>
<path class="bond-30 atom-30 atom-31" d="M 538.7,34.1 L 545.9,22.3" style="fill:none;fill-rule:evenodd;stroke:#000000;stroke-width:2.0px;stroke-linecap:butt;stroke-linejoin:miter;stroke-opacity:1"/>
<path class="bond-31 atom-31 atom-32" d="M 545.9,22.3 L 559.7,22.8" style="fill:none;fill-rule:evenodd;stroke:#000000;stroke-width:2.0px;stroke-linecap:butt;stroke-linejoin:miter;stroke-opacity:1"/>
<path class="bond-31 atom-31 atom-32" d="M 547.9,25.2 L 557.6,25.5" style="fill:none;fill-rule:evenodd;stroke:#000000;stroke-width:2.0px;stroke-linecap:butt;stroke-linejoin:miter;stroke-opacity:1"/>
<path class="bond-32 atom-32 atom-33" d="M 559.7,22.8 L 566.3,35.0" style="fill:none;fill-rule:evenodd;stroke:#000000;stroke-width:2.0px;stroke-linecap:butt;stroke-linejoin:miter;stroke-opacity:1"/>
<path class="bond-33 atom-33 atom-34" d="M 566.3,35.0 L 572.4,35.2" style="fill:none;fill-rule:evenodd;stroke:#000000;stroke-width:2.0px;stroke-linecap:butt;stroke-linejoin:miter;stroke-opacity:1"/>
<path class="bond-33 atom-33 atom-34" d="M 572.4,35.2 L 578.5,35.3" style="fill:none;fill-rule:evenodd;stroke:#33CCCC;stroke-width:2.0px;stroke-linecap:butt;stroke-linejoin:miter;stroke-opacity:1"/>
<path class="bond-34 atom-33 atom-35" d="M 566.3,35.0 L 559.0,46.7" style="fill:none;fill-rule:evenodd;stroke:#000000;stroke-width:2.0px;stroke-linecap:butt;stroke-linejoin:miter;stroke-opacity:1"/>
<path class="bond-34 atom-33 atom-35" d="M 562.8,35.3 L 557.7,43.5" style="fill:none;fill-rule:evenodd;stroke:#000000;stroke-width:2.0px;stroke-linecap:butt;stroke-linejoin:miter;stroke-opacity:1"/>
<path class="bond-35 atom-35 atom-36" d="M 559.0,46.7 L 565.5,58.9" style="fill:none;fill-rule:evenodd;stroke:#000000;stroke-width:2.0px;stroke-linecap:butt;stroke-linejoin:miter;stroke-opacity:1"/>
<path class="bond-37 atom-37 atom-38" d="M 517.2,43.6 L 519.1,38.4" style="fill:none;fill-rule:evenodd;stroke:#0000FF;stroke-width:2.0px;stroke-linecap:butt;stroke-linejoin:miter;stroke-opacity:1"/>
<path class="bond-37 atom-37 atom-38" d="M 519.1,38.4 L 521.0,33.1" style="fill:none;fill-rule:evenodd;stroke:#000000;stroke-width:2.0px;stroke-linecap:butt;stroke-linejoin:miter;stroke-opacity:1"/>
<path class="bond-43 atom-37 atom-44" d="M 514.4,46.7 L 508.7,48.3" style="fill:none;fill-rule:evenodd;stroke:#0000FF;stroke-width:2.0px;stroke-linecap:butt;stroke-linejoin:miter;stroke-opacity:1"/>
<path class="bond-43 atom-37 atom-44" d="M 508.7,48.3 L 503.1,50.0" style="fill:none;fill-rule:evenodd;stroke:#000000;stroke-width:2.0px;stroke-linecap:butt;stroke-linejoin:miter;stroke-opacity:1"/>
<path class="bond-38 atom-38 atom-39" d="M 521.0,33.1 L 512.1,22.6" style="fill:none;fill-rule:evenodd;stroke:#000000;stroke-width:2.0px;stroke-linecap:butt;stroke-linejoin:miter;stroke-opacity:1"/>
<path class="bond-38 atom-38 atom-39" d="M 521.8,29.8 L 515.5,22.4" style="fill:none;fill-rule:evenodd;stroke:#000000;stroke-width:2.0px;stroke-linecap:butt;stroke-linejoin:miter;stroke-opacity:1"/>
<path class="bond-50 atom-43 atom-38" d="M 534.6,30.7 L 521.0,33.1" style="fill:none;fill-rule:evenodd;stroke:#000000;stroke-width:2.0px;stroke-linecap:butt;stroke-linejoin:miter;stroke-opacity:1"/>
<path class="bond-39 atom-39 atom-40" d="M 512.1,22.6 L 516.8,9.6" style="fill:none;fill-rule:evenodd;stroke:#000000;stroke-width:2.0px;stroke-linecap:butt;stroke-linejoin:miter;stroke-opacity:1"/>
<path class="bond-40 atom-40 atom-41" d="M 516.8,9.6 L 530.4,7.1" style="fill:none;fill-rule:evenodd;stroke:#000000;stroke-width:2.0px;stroke-linecap:butt;stroke-linejoin:miter;stroke-opacity:1"/>
<path class="bond-40 atom-40 atom-41" d="M 519.3,11.9 L 528.8,10.2" style="fill:none;fill-rule:evenodd;stroke:#000000;stroke-width:2.0px;stroke-linecap:butt;stroke-linejoin:miter;stroke-opacity:1"/>
<path class="bond-41 atom-41 atom-42" d="M 530.4,7.1 L 539.3,17.7" style="fill:none;fill-rule:evenodd;stroke:#000000;stroke-width:2.0px;stroke-linecap:butt;stroke-linejoin:miter;stroke-opacity:1"/>
<path class="bond-42 atom-42 atom-43" d="M 539.3,17.7 L 534.6,30.7" style="fill:none;fill-rule:evenodd;stroke:#000000;stroke-width:2.0px;stroke-linecap:butt;stroke-linejoin:miter;stroke-opacity:1"/>
<path class="bond-42 atom-42 atom-43" d="M 536.0,18.7 L 532.7,27.8" style="fill:none;fill-rule:evenodd;stroke:#000000;stroke-width:2.0px;stroke-linecap:butt;stroke-linejoin:miter;stroke-opacity:1"/>
<path class="bond-44 atom-44 atom-45" d="M 503.1,50.0 L 491.3,42.7" style="fill:none;fill-rule:evenodd;stroke:#000000;stroke-width:2.0px;stroke-linecap:butt;stroke-linejoin:miter;stroke-opacity:1"/>
<path class="bond-44 atom-44 atom-45" d="M 499.8,51.2 L 491.6,46.1" style="fill:none;fill-rule:evenodd;stroke:#000000;stroke-width:2.0px;stroke-linecap:butt;stroke-linejoin:miter;stroke-opacity:1"/>
<path class="atom-1" d="M 473.2 105.9 Q 473.2 105.9, 473.4 106.0 Q 473.6 106.1, 473.8 106.1 Q 474.1 106.2, 474.3 106.2 Q 474.7 106.2, 474.9 106.0 Q 475.2 105.8, 475.2 105.4 Q 475.2 105.2, 475.0 105.1 Q 474.9 104.9, 474.7 104.8 Q 474.6 104.8, 474.3 104.7 Q 473.9 104.6, 473.7 104.4 Q 473.4 104.3, 473.3 104.1 Q 473.1 103.9, 473.1 103.5 Q 473.1 103.0, 473.5 102.6 Q 473.8 102.3, 474.6 102.3 Q 475.1 102.3, 475.6 102.5 L 475.5 103.0 Q 475.0 102.8, 474.6 102.8 Q 474.2 102.8, 473.9 103.0 Q 473.7 103.1, 473.7 103.4 Q 473.7 103.7, 473.8 103.8 Q 473.9 103.9, 474.1 104.0 Q 474.3 104.1, 474.6 104.2 Q 475.0 104.3, 475.2 104.4 Q 475.4 104.5, 475.6 104.8 Q 475.7 105.0, 475.7 105.4 Q 475.7 106.0, 475.4 106.3 Q 475.0 106.7, 474.3 106.7 Q 473.9 106.7, 473.6 106.6 Q 473.4 106.5, 473.0 106.4 L 473.2 105.9 " fill="#000000"/>
<path class="atom-1" d="M 476.0 105.0 Q 476.0 104.2, 476.4 103.8 Q 476.8 103.4, 477.5 103.4 Q 478.1 103.4, 478.4 103.8 Q 478.8 104.2, 478.8 105.0 L 478.8 105.1 L 476.6 105.1 Q 476.6 105.6, 476.8 105.9 Q 477.1 106.1, 477.5 106.1 Q 477.8 106.1, 478.0 106.1 Q 478.2 106.0, 478.5 105.9 L 478.6 106.3 Q 478.3 106.4, 478.1 106.5 Q 477.8 106.6, 477.5 106.6 Q 476.8 106.6, 476.4 106.2 Q 476.0 105.7, 476.0 105.0 M 477.5 103.8 Q 477.1 103.8, 476.9 104.0 Q 476.7 104.3, 476.6 104.6 L 478.2 104.6 Q 478.1 104.2, 477.9 104.0 Q 477.8 103.8, 477.5 103.8 " fill="#000000"/>
<path class="atom-2" d="M 476.6 92.1 Q 476.7 92.1, 476.9 92.2 Q 477.1 92.3, 477.3 92.3 Q 477.5 92.4, 477.7 92.4 Q 478.1 92.4, 478.4 92.2 Q 478.6 92.0, 478.6 91.6 Q 478.6 91.4, 478.5 91.3 Q 478.4 91.1, 478.2 91.0 Q 478.0 91.0, 477.7 90.9 Q 477.3 90.7, 477.1 90.6 Q 476.9 90.5, 476.7 90.3 Q 476.6 90.1, 476.6 89.7 Q 476.6 89.2, 476.9 88.8 Q 477.3 88.5, 478.0 88.5 Q 478.5 88.5, 479.1 88.7 L 478.9 89.2 Q 478.4 89.0, 478.0 89.0 Q 477.6 89.0, 477.4 89.2 Q 477.2 89.3, 477.2 89.6 Q 477.2 89.8, 477.3 90.0 Q 477.4 90.1, 477.6 90.2 Q 477.7 90.3, 478.0 90.4 Q 478.4 90.5, 478.6 90.6 Q 478.9 90.7, 479.0 91.0 Q 479.2 91.2, 479.2 91.6 Q 479.2 92.2, 478.8 92.5 Q 478.4 92.8, 477.8 92.8 Q 477.4 92.8, 477.1 92.8 Q 476.8 92.7, 476.5 92.5 L 476.6 92.1 " fill="#000000"/>
<path class="atom-2" d="M 479.5 91.2 Q 479.5 90.4, 479.8 90.0 Q 480.2 89.6, 480.9 89.6 Q 481.6 89.6, 481.9 90.0 Q 482.2 90.4, 482.2 91.2 L 482.2 91.3 L 480.0 91.3 Q 480.1 91.8, 480.3 92.1 Q 480.5 92.3, 481.0 92.3 Q 481.2 92.3, 481.4 92.3 Q 481.6 92.2, 481.9 92.1 L 482.1 92.5 Q 481.8 92.6, 481.5 92.7 Q 481.2 92.8, 480.9 92.8 Q 480.2 92.8, 479.9 92.4 Q 479.5 91.9, 479.5 91.2 M 480.9 90.0 Q 480.6 90.0, 480.3 90.2 Q 480.1 90.4, 480.1 90.8 L 481.6 90.8 Q 481.6 90.4, 481.4 90.2 Q 481.2 90.0, 480.9 90.0 " fill="#000000"/>
<path class="atom-3" d="M 461.9 84.8 Q 461.9 84.8, 462.1 84.9 Q 462.3 85.0, 462.6 85.0 Q 462.8 85.1, 463.0 85.1 Q 463.4 85.1, 463.6 84.9 Q 463.9 84.7, 463.9 84.3 Q 463.9 84.1, 463.7 84.0 Q 463.6 83.8, 463.4 83.7 Q 463.3 83.7, 463.0 83.6 Q 462.6 83.5, 462.4 83.4 Q 462.1 83.2, 462.0 83.0 Q 461.8 82.8, 461.8 82.4 Q 461.8 81.9, 462.2 81.5 Q 462.5 81.2, 463.3 81.2 Q 463.8 81.2, 464.3 81.4 L 464.2 81.9 Q 463.7 81.7, 463.3 81.7 Q 462.9 81.7, 462.6 81.9 Q 462.4 82.0, 462.4 82.3 Q 462.4 82.6, 462.5 82.7 Q 462.7 82.8, 462.8 82.9 Q 463.0 83.0, 463.3 83.1 Q 463.7 83.2, 463.9 83.3 Q 464.1 83.4, 464.3 83.7 Q 464.5 83.9, 464.5 84.3 Q 464.5 84.9, 464.1 85.3 Q 463.7 85.6, 463.0 85.6 Q 462.6 85.6, 462.3 85.5 Q 462.1 85.4, 461.7 85.3 L 461.9 84.8 " fill="#000000"/>
<path class="atom-3" d="M 464.7 83.9 Q 464.7 83.1, 465.1 82.7 Q 465.5 82.3, 466.2 82.3 Q 466.9 82.3, 467.2 82.7 Q 467.5 83.1, 467.5 83.9 L 467.5 84.0 L 465.3 84.0 Q 465.3 84.5, 465.6 84.8 Q 465.8 85.1, 466.2 85.1 Q 466.5 85.1, 466.7 85.0 Q 466.9 84.9, 467.2 84.8 L 467.3 85.2 Q 467.0 85.4, 466.8 85.4 Q 466.5 85.5, 466.2 85.5 Q 465.5 85.5, 465.1 85.1 Q 464.7 84.7, 464.7 83.9 M 466.2 82.8 Q 465.8 82.8, 465.6 83.0 Q 465.4 83.2, 465.3 83.6 L 466.9 83.6 Q 466.8 83.1, 466.7 83.0 Q 466.5 82.8, 466.2 82.8 " fill="#000000"/>
<path class="atom-4" d="M 465.3 71.0 Q 465.4 71.0, 465.6 71.1 Q 465.8 71.2, 466.0 71.2 Q 466.2 71.3, 466.4 71.3 Q 466.8 71.3, 467.1 71.1 Q 467.3 70.9, 467.3 70.5 Q 467.3 70.3, 467.2 70.2 Q 467.1 70.0, 466.9 69.9 Q 466.7 69.9, 466.4 69.8 Q 466.0 69.7, 465.8 69.6 Q 465.6 69.4, 465.4 69.2 Q 465.3 69.0, 465.3 68.6 Q 465.3 68.1, 465.6 67.7 Q 466.0 67.4, 466.7 67.4 Q 467.2 67.4, 467.8 67.6 L 467.6 68.1 Q 467.1 67.9, 466.7 67.9 Q 466.3 67.9, 466.1 68.1 Q 465.9 68.2, 465.9 68.5 Q 465.9 68.8, 466.0 68.9 Q 466.1 69.0, 466.3 69.1 Q 466.4 69.2, 466.7 69.3 Q 467.1 69.4, 467.3 69.5 Q 467.6 69.6, 467.7 69.9 Q 467.9 70.1, 467.9 70.5 Q 467.9 71.1, 467.5 71.4 Q 467.1 71.8, 466.5 71.8 Q 466.1 71.8, 465.8 71.7 Q 465.5 71.6, 465.2 71.5 L 465.3 71.0 " fill="#000000"/>
<path class="atom-4" d="M 468.2 70.1 Q 468.2 69.3, 468.6 68.9 Q 468.9 68.5, 469.6 68.5 Q 470.3 68.5, 470.6 68.9 Q 470.9 69.3, 470.9 70.1 L 470.9 70.2 L 468.7 70.2 Q 468.8 70.7, 469.0 71.0 Q 469.2 71.2, 469.7 71.2 Q 469.9 71.2, 470.1 71.2 Q 470.4 71.1, 470.6 71.0 L 470.8 71.4 Q 470.5 71.6, 470.2 71.6 Q 469.9 71.7, 469.6 71.7 Q 468.9 71.7, 468.6 71.3 Q 468.2 70.9, 468.2 70.1 M 469.6 69.0 Q 469.3 69.0, 469.0 69.2 Q 468.8 69.4, 468.8 69.8 L 470.3 69.8 Q 470.3 69.3, 470.1 69.1 Q 469.9 69.0, 469.6 69.0 " fill="#000000"/>
<path class="atom-4" d="M 471.3 68.7 L 472.0 68.7 L 472.0 67.9 L 472.3 67.9 L 472.3 68.7 L 473.1 68.7 L 473.1 69.0 L 472.3 69.0 L 472.3 69.8 L 472.0 69.8 L 472.0 69.0 L 471.3 69.0 L 471.3 68.7 " fill="#000000"/>
<path class="atom-5" d="M 453.6 63.7 Q 453.6 63.7, 453.8 63.8 Q 454.0 63.9, 454.3 63.9 Q 454.5 64.0, 454.7 64.0 Q 455.1 64.0, 455.3 63.8 Q 455.6 63.6, 455.6 63.3 Q 455.6 63.0, 455.4 62.9 Q 455.3 62.7, 455.2 62.7 Q 455.0 62.6, 454.7 62.5 Q 454.3 62.4, 454.1 62.3 Q 453.8 62.2, 453.7 61.9 Q 453.5 61.7, 453.5 61.3 Q 453.5 60.8, 453.9 60.5 Q 454.3 60.1, 455.0 60.1 Q 455.5 60.1, 456.0 60.4 L 455.9 60.8 Q 455.4 60.6, 455.0 60.6 Q 454.6 60.6, 454.4 60.8 Q 454.1 61.0, 454.1 61.2 Q 454.1 61.5, 454.2 61.6 Q 454.4 61.8, 454.5 61.8 Q 454.7 61.9, 455.0 62.0 Q 455.4 62.1, 455.6 62.2 Q 455.8 62.4, 456.0 62.6 Q 456.2 62.8, 456.2 63.3 Q 456.2 63.8, 455.8 64.2 Q 455.4 64.5, 454.7 64.5 Q 454.3 64.5, 454.1 64.4 Q 453.8 64.3, 453.4 64.2 L 453.6 63.7 " fill="#CCCC00"/>
<path class="atom-5" d="M 453.1 64.9 L 453.7 64.9 L 453.7 66.7 L 455.9 66.7 L 455.9 64.9 L 456.5 64.9 L 456.5 69.2 L 455.9 69.2 L 455.9 67.2 L 453.7 67.2 L 453.7 69.2 L 453.1 69.2 L 453.1 64.9 " fill="#CCCC00"/>
<path class="atom-5" d="M 456.7 69.0 Q 456.8 68.7, 457.0 68.6 Q 457.3 68.4, 457.6 68.4 Q 458.0 68.4, 458.3 68.7 Q 458.5 68.9, 458.5 69.3 Q 458.5 69.7, 458.2 70.1 Q 457.9 70.5, 457.3 71.0 L 458.5 71.0 L 458.5 71.3 L 456.7 71.3 L 456.7 71.0 Q 457.2 70.6, 457.5 70.4 Q 457.8 70.1, 458.0 69.8 Q 458.1 69.6, 458.1 69.3 Q 458.1 69.1, 458.0 68.9 Q 457.8 68.8, 457.6 68.8 Q 457.4 68.8, 457.2 68.8 Q 457.1 68.9, 457.0 69.1 L 456.7 69.0 " fill="#CCCC00"/>
<path class="atom-6" d="M 432.7 66.6 L 433.3 66.6 L 433.3 68.4 L 435.5 68.4 L 435.5 66.6 L 436.0 66.6 L 436.0 70.9 L 435.5 70.9 L 435.5 68.9 L 433.3 68.9 L 433.3 70.9 L 432.7 70.9 L 432.7 66.6 " fill="#000000"/>
<path class="atom-6" d="M 437.6 70.5 L 436.1 70.5 L 436.1 70.2 L 438.0 70.2 L 438.0 70.5 L 436.8 73.0 L 436.5 73.0 L 437.6 70.5 " fill="#000000"/>
<path class="atom-6" d="M 438.4 70.2 Q 438.5 70.2, 438.7 70.3 Q 438.9 70.4, 439.1 70.5 Q 439.3 70.5, 439.5 70.5 Q 439.9 70.5, 440.2 70.3 Q 440.4 70.1, 440.4 69.8 Q 440.4 69.6, 440.3 69.4 Q 440.2 69.3, 440.0 69.2 Q 439.8 69.1, 439.5 69.0 Q 439.1 68.9, 438.9 68.8 Q 438.7 68.7, 438.5 68.5 Q 438.4 68.2, 438.4 67.8 Q 438.4 67.3, 438.7 67.0 Q 439.1 66.7, 439.8 66.7 Q 440.3 66.7, 440.8 66.9 L 440.7 67.3 Q 440.2 67.1, 439.8 67.1 Q 439.4 67.1, 439.2 67.3 Q 438.9 67.5, 439.0 67.8 Q 439.0 68.0, 439.1 68.1 Q 439.2 68.3, 439.4 68.4 Q 439.5 68.4, 439.8 68.5 Q 440.2 68.6, 440.4 68.8 Q 440.7 68.9, 440.8 69.1 Q 441.0 69.4, 441.0 69.8 Q 441.0 70.4, 440.6 70.7 Q 440.2 71.0, 439.5 71.0 Q 439.2 71.0, 438.9 70.9 Q 438.6 70.8, 438.3 70.7 L 438.4 70.2 " fill="#000000"/>
<path class="atom-6" d="M 441.3 69.3 Q 441.3 68.6, 441.6 68.2 Q 442.0 67.8, 442.7 67.8 Q 443.4 67.8, 443.7 68.2 Q 444.0 68.6, 444.0 69.3 L 444.0 69.4 L 441.8 69.4 Q 441.8 69.9, 442.1 70.2 Q 442.3 70.5, 442.8 70.5 Q 443.0 70.5, 443.2 70.4 Q 443.4 70.4, 443.7 70.3 L 443.9 70.6 Q 443.6 70.8, 443.3 70.9 Q 443.0 70.9, 442.7 70.9 Q 442.0 70.9, 441.6 70.5 Q 441.3 70.1, 441.3 69.3 M 442.7 68.2 Q 442.4 68.2, 442.1 68.4 Q 441.9 68.6, 441.9 69.0 L 443.4 69.0 Q 443.4 68.6, 443.2 68.4 Q 443.0 68.2, 442.7 68.2 " fill="#000000"/>
<path class="atom-6" d="M 445.5 66.8 L 444.1 66.8 L 444.1 66.5 L 445.9 66.5 L 445.9 66.8 L 444.8 69.3 L 444.4 69.3 L 445.5 66.8 " fill="#000000"/>
<path class="atom-6" d="M 447.2 69.3 Q 446.7 69.3, 446.4 68.9 Q 446.2 68.6, 446.2 67.9 Q 446.2 67.2, 446.4 66.8 Q 446.7 66.5, 447.2 66.5 Q 447.7 66.5, 448.0 66.8 Q 448.2 67.2, 448.2 67.9 Q 448.2 68.6, 448.0 68.9 Q 447.7 69.3, 447.2 69.3 M 447.2 69.0 Q 447.5 69.0, 447.7 68.7 Q 447.8 68.4, 447.8 67.9 Q 447.8 67.3, 447.7 67.1 Q 447.5 66.8, 447.2 66.8 Q 446.9 66.8, 446.7 67.1 Q 446.6 67.3, 446.6 67.9 Q 446.6 68.4, 446.7 68.7 Q 446.9 69.0, 447.2 69.0 " fill="#000000"/>
<path class="atom-6" d="M 448.6 67.9 L 449.3 67.9 L 449.3 67.1 L 449.7 67.1 L 449.7 67.9 L 450.4 67.9 L 450.4 68.2 L 449.7 68.2 L 449.7 69.0 L 449.3 69.0 L 449.3 68.2 L 448.6 68.2 L 448.6 67.9 " fill="#000000"/>
<path class="atom-10" d="M 426.6 18.0 L 427.2 18.0 L 427.2 19.8 L 429.4 19.8 L 429.4 18.0 L 430.0 18.0 L 430.0 22.2 L 429.4 22.2 L 429.4 20.3 L 427.2 20.3 L 427.2 22.2 L 426.6 22.2 L 426.6 18.0 " fill="#FF0000"/>
<path class="atom-10" d="M 430.3 20.1 Q 430.3 19.1, 430.8 18.5 Q 431.3 17.9, 432.2 17.9 Q 433.2 17.9, 433.7 18.5 Q 434.2 19.1, 434.2 20.1 Q 434.2 21.1, 433.7 21.7 Q 433.1 22.3, 432.2 22.3 Q 431.3 22.3, 430.8 21.7 Q 430.3 21.1, 430.3 20.1 M 432.2 21.8 Q 432.9 21.8, 433.2 21.4 Q 433.6 20.9, 433.6 20.1 Q 433.6 19.2, 433.2 18.8 Q 432.9 18.4, 432.2 18.4 Q 431.6 18.4, 431.2 18.8 Q 430.9 19.2, 430.9 20.1 Q 430.9 20.9, 431.2 21.4 Q 431.6 21.8, 432.2 21.8 " fill="#FF0000"/>
<path class="atom-20" d="M 507.9 91.7 Q 507.9 90.7, 508.4 90.1 Q 509.0 89.5, 509.9 89.5 Q 510.8 89.5, 511.3 90.1 Q 511.8 90.7, 511.8 91.7 Q 511.8 92.7, 511.3 93.3 Q 510.8 93.9, 509.9 93.9 Q 509.0 93.9, 508.4 93.3 Q 507.9 92.7, 507.9 91.7 M 509.9 93.4 Q 510.5 93.4, 510.9 93.0 Q 511.2 92.5, 511.2 91.7 Q 511.2 90.9, 510.9 90.4 Q 510.5 90.0, 509.9 90.0 Q 509.2 90.0, 508.9 90.4 Q 508.5 90.9, 508.5 91.7 Q 508.5 92.6, 508.9 93.0 Q 509.2 93.4, 509.9 93.4 " fill="#FF0000"/>
<path class="atom-21" d="M 531.9 82.9 L 533.3 85.1 Q 533.5 85.4, 533.7 85.8 Q 533.9 86.2, 533.9 86.2 L 533.9 82.9 L 534.5 82.9 L 534.5 87.1 L 533.9 87.1 L 532.4 84.7 Q 532.2 84.4, 532.0 84.1 Q 531.9 83.7, 531.8 83.6 L 531.8 87.1 L 531.3 87.1 L 531.3 82.9 L 531.9 82.9 " fill="#0000FF"/>
<path class="atom-24" d="M 558.8 89.5 L 560.1 91.7 Q 560.3 92.0, 560.5 92.4 Q 560.7 92.8, 560.7 92.8 L 560.7 89.5 L 561.3 89.5 L 561.3 93.7 L 560.7 93.7 L 559.2 91.3 Q 559.1 91.0, 558.9 90.7 Q 558.7 90.3, 558.6 90.2 L 558.6 93.7 L 558.1 93.7 L 558.1 89.5 L 558.8 89.5 " fill="#0000FF"/>
<path class="atom-24" d="M 561.8 89.5 L 562.4 89.5 L 562.4 91.3 L 564.6 91.3 L 564.6 89.5 L 565.1 89.5 L 565.1 93.7 L 564.6 93.7 L 564.6 91.8 L 562.4 91.8 L 562.4 93.7 L 561.8 93.7 L 561.8 89.5 " fill="#0000FF"/>
<path class="atom-34" d="M 578.8 33.3 L 581.3 33.3 L 581.3 33.8 L 579.4 33.8 L 579.4 35.1 L 581.1 35.1 L 581.1 35.5 L 579.4 35.5 L 579.4 37.5 L 578.8 37.5 L 578.8 33.3 " fill="#33CCCC"/>
<path class="atom-37" d="M 515.4 44.0 L 516.8 46.2 Q 516.9 46.5, 517.1 46.9 Q 517.4 47.3, 517.4 47.3 L 517.4 44.0 L 517.9 44.0 L 517.9 48.2 L 517.4 48.2 L 515.9 45.8 Q 515.7 45.5, 515.5 45.2 Q 515.3 44.8, 515.3 44.7 L 515.3 48.2 L 514.7 48.2 L 514.7 44.0 L 515.4 44.0 " fill="#0000FF"/>
<path d="M 491.2,111.7 L 491.2,111.7 L 491.2,111.7 L 491.2,111.6 L 491.2,111.6 L 491.2,111.6 L 491.2,111.6 L 491.2,111.5 L 491.2,111.5 L 491.1,111.5 L 491.1,111.5 L 491.1,111.5 L 491.1,111.4 L 491.1,111.4 L 491.0,111.4 L 491.0,111.4 L 491.0,111.4 L 491.0,111.4 L 490.9,111.4 L 490.9,111.4 L 490.9,111.4 L 490.9,111.4 L 490.8,111.4 L 490.8,111.4 L 490.8,111.4 L 490.8,111.5 L 490.7,111.5 L 490.7,111.5 L 490.7,111.5 L 490.7,111.5 L 490.7,111.5 L 490.7,111.6 L 490.6,111.6 L 490.6,111.6 L 490.6,111.6 L 490.6,111.7 L 490.6,111.7 L 490.6,111.7 L 490.6,111.7 L 490.6,111.8 L 490.6,111.8 L 490.6,111.8 L 490.7,111.8 L 490.7,111.9 L 490.7,111.9 L 490.7,111.9 L 490.7,111.9 L 490.7,111.9 L 490.8,112.0 L 490.8,112.0 L 490.8,112.0 L 490.8,112.0 L 490.9,112.0 L 490.9,112.0 L 490.9,112.0 L 490.9,112.0 L 491.0,112.0 L 491.0,112.0 L 491.0,112.0 L 491.0,112.0 L 491.1,112.0 L 491.1,112.0 L 491.1,111.9 L 491.1,111.9 L 491.1,111.9 L 491.2,111.9 L 491.2,111.9 L 491.2,111.9 L 491.2,111.8 L 491.2,111.8 L 491.2,111.8 L 491.2,111.8 L 491.2,111.7 L 491.2,111.7 L 490.9,111.7 Z" style="fill:#000000;fill-rule:evenodd;fill-opacity:1;stroke:#000000;stroke-width:0.0px;stroke-linecap:butt;stroke-linejoin:miter;stroke-opacity:1;"/>
<path d="M 474.3,69.5 L 474.3,69.5 L 474.3,69.5 L 474.3,69.5 L 474.3,69.4 L 474.3,69.4 L 474.3,69.4 L 474.3,69.4 L 474.2,69.3 L 474.2,69.3 L 474.2,69.3 L 474.2,69.3 L 474.2,69.3 L 474.1,69.3 L 474.1,69.2 L 474.1,69.2 L 474.1,69.2 L 474.0,69.2 L 474.0,69.2 L 474.0,69.2 L 474.0,69.2 L 473.9,69.2 L 473.9,69.2 L 473.9,69.3 L 473.9,69.3 L 473.8,69.3 L 473.8,69.3 L 473.8,69.3 L 473.8,69.3 L 473.8,69.3 L 473.8,69.4 L 473.7,69.4 L 473.7,69.4 L 473.7,69.4 L 473.7,69.5 L 473.7,69.5 L 473.7,69.5 L 473.7,69.5 L 473.7,69.6 L 473.7,69.6 L 473.7,69.6 L 473.7,69.6 L 473.7,69.7 L 473.8,69.7 L 473.8,69.7 L 473.8,69.7 L 473.8,69.7 L 473.8,69.8 L 473.8,69.8 L 473.9,69.8 L 473.9,69.8 L 473.9,69.8 L 473.9,69.8 L 474.0,69.8 L 474.0,69.8 L 474.0,69.8 L 474.0,69.8 L 474.1,69.8 L 474.1,69.8 L 474.1,69.8 L 474.1,69.8 L 474.2,69.8 L 474.2,69.8 L 474.2,69.8 L 474.2,69.7 L 474.2,69.7 L 474.3,69.7 L 474.3,69.7 L 474.3,69.7 L 474.3,69.6 L 474.3,69.6 L 474.3,69.6 L 474.3,69.6 L 474.3,69.5 L 474.0,69.5 Z" style="fill:#000000;fill-rule:evenodd;fill-opacity:1;stroke:#000000;stroke-width:0.0px;stroke-linecap:butt;stroke-linejoin:miter;stroke-opacity:1;"/>
<path d="M 455.1,71.7 L 455.1,71.7 L 455.1,71.7 L 455.1,71.7 L 455.1,71.6 L 455.1,71.6 L 455.1,71.6 L 455.0,71.6 L 455.0,71.5 L 455.0,71.5 L 455.0,71.5 L 455.0,71.5 L 455.0,71.5 L 454.9,71.5 L 454.9,71.4 L 454.9,71.4 L 454.9,71.4 L 454.8,71.4 L 454.8,71.4 L 454.8,71.4 L 454.8,71.4 L 454.7,71.4 L 454.7,71.4 L 454.7,71.5 L 454.7,71.5 L 454.6,71.5 L 454.6,71.5 L 454.6,71.5 L 454.6,71.5 L 454.6,71.5 L 454.5,71.6 L 454.5,71.6 L 454.5,71.6 L 454.5,71.6 L 454.5,71.7 L 454.5,71.7 L 454.5,71.7 L 454.5,71.7 L 454.5,71.8 L 454.5,71.8 L 454.5,71.8 L 454.5,71.8 L 454.5,71.9 L 454.5,71.9 L 454.6,71.9 L 454.6,71.9 L 454.6,71.9 L 454.6,72.0 L 454.6,72.0 L 454.7,72.0 L 454.7,72.0 L 454.7,72.0 L 454.7,72.0 L 454.8,72.0 L 454.8,72.0 L 454.8,72.0 L 454.8,72.0 L 454.9,72.0 L 454.9,72.0 L 454.9,72.0 L 454.9,72.0 L 455.0,72.0 L 455.0,72.0 L 455.0,72.0 L 455.0,71.9 L 455.0,71.9 L 455.0,71.9 L 455.1,71.9 L 455.1,71.9 L 455.1,71.8 L 455.1,71.8 L 455.1,71.8 L 455.1,71.8 L 455.1,71.7 L 454.8,71.7 Z" style="fill:#000000;fill-rule:evenodd;fill-opacity:1;stroke:#000000;stroke-width:0.0px;stroke-linecap:butt;stroke-linejoin:miter;stroke-opacity:1;"/>
<path class="bond-0 atom-0 atom-1" d="M 778.4,106.6 L 778.4,95.3" style="fill:none;fill-rule:evenodd;stroke:#000000;stroke-width:2.0px;stroke-linecap:butt;stroke-linejoin:miter;stroke-opacity:1"/>
<path class="bond-1 atom-1 atom-2" d="M 776.7,91.7 L 768.2,86.8" style="fill:none;fill-rule:evenodd;stroke:#000000;stroke-width:2.0px;stroke-linecap:butt;stroke-linejoin:miter;stroke-opacity:1"/>
<path class="bond-2 atom-2 atom-3" d="M 766.5,84.4 L 766.6,74.5" style="fill:none;fill-rule:evenodd;stroke:#000000;stroke-width:2.0px;stroke-linecap:butt;stroke-linejoin:miter;stroke-opacity:1"/>
<path class="bond-3 atom-3 atom-4" d="M 764.9,71.0 L 760.6,68.5" style="fill:none;fill-rule:evenodd;stroke:#000000;stroke-width:2.0px;stroke-linecap:butt;stroke-linejoin:miter;stroke-opacity:1"/>
<path class="bond-3 atom-3 atom-4" d="M 760.6,68.5 L 756.3,66.0" style="fill:none;fill-rule:evenodd;stroke:#CCCC00;stroke-width:2.0px;stroke-linecap:butt;stroke-linejoin:miter;stroke-opacity:1"/>
<path class="bond-4 atom-4 atom-5" d="M 752.9,66.0 L 750.1,67.6" style="fill:none;fill-rule:evenodd;stroke:#CCCC00;stroke-width:2.0px;stroke-linecap:butt;stroke-linejoin:miter;stroke-opacity:1"/>
<path class="bond-4 atom-4 atom-5" d="M 750.1,67.6 L 747.2,69.3" style="fill:none;fill-rule:evenodd;stroke:#000000;stroke-width:2.0px;stroke-linecap:butt;stroke-linejoin:miter;stroke-opacity:1"/>
<path class="bond-5 atom-4 atom-6" d="M 754.6,62.6 L 754.7,56.9" style="fill:none;fill-rule:evenodd;stroke:#CCCC00;stroke-width:2.0px;stroke-linecap:butt;stroke-linejoin:miter;stroke-opacity:1"/>
<path class="bond-5 atom-4 atom-6" d="M 754.7,56.9 L 754.7,51.2" style="fill:none;fill-rule:evenodd;stroke:#000000;stroke-width:2.0px;stroke-linecap:butt;stroke-linejoin:miter;stroke-opacity:1"/>
<path class="bond-6 atom-6 atom-7" d="M 754.7,51.2 L 742.8,44.3" style="fill:none;fill-rule:evenodd;stroke:#000000;stroke-width:2.0px;stroke-linecap:butt;stroke-linejoin:miter;stroke-opacity:1"/>
<path class="bond-6 atom-6 atom-7" d="M 754.3,47.8 L 745.9,42.9" style="fill:none;fill-rule:evenodd;stroke:#000000;stroke-width:2.0px;stroke-linecap:butt;stroke-linejoin:miter;stroke-opacity:1"/>
<path class="bond-44 atom-12 atom-6" d="M 766.7,44.4 L 754.7,51.2" style="fill:none;fill-rule:evenodd;stroke:#000000;stroke-width:2.0px;stroke-linecap:butt;stroke-linejoin:miter;stroke-opacity:1"/>
<path class="bond-7 atom-7 atom-8" d="M 742.8,44.3 L 742.8,30.4" style="fill:none;fill-rule:evenodd;stroke:#000000;stroke-width:2.0px;stroke-linecap:butt;stroke-linejoin:miter;stroke-opacity:1"/>
<path class="bond-8 atom-8 atom-9" d="M 742.8,30.4 L 738.0,27.6" style="fill:none;fill-rule:evenodd;stroke:#000000;stroke-width:2.0px;stroke-linecap:butt;stroke-linejoin:miter;stroke-opacity:1"/>
<path class="bond-8 atom-8 atom-9" d="M 738.0,27.6 L 733.2,24.8" style="fill:none;fill-rule:evenodd;stroke:#FF0000;stroke-width:2.0px;stroke-linecap:butt;stroke-linejoin:miter;stroke-opacity:1"/>
<path class="bond-9 atom-8 atom-10" d="M 742.8,30.4 L 754.8,23.6" style="fill:none;fill-rule:evenodd;stroke:#000000;stroke-width:2.0px;stroke-linecap:butt;stroke-linejoin:miter;stroke-opacity:1"/>
<path class="bond-9 atom-8 atom-10" d="M 746.0,31.8 L 754.4,27.0" style="fill:none;fill-rule:evenodd;stroke:#000000;stroke-width:2.0px;stroke-linecap:butt;stroke-linejoin:miter;stroke-opacity:1"/>
<path class="bond-10 atom-10 atom-11" d="M 754.8,23.6 L 766.7,30.5" style="fill:none;fill-rule:evenodd;stroke:#000000;stroke-width:2.0px;stroke-linecap:butt;stroke-linejoin:miter;stroke-opacity:1"/>
<path class="bond-11 atom-11 atom-12" d="M 766.7,30.5 L 766.7,44.4" style="fill:none;fill-rule:evenodd;stroke:#000000;stroke-width:2.0px;stroke-linecap:butt;stroke-linejoin:miter;stroke-opacity:1"/>
<path class="bond-11 atom-11 atom-12" d="M 764.0,32.6 L 763.9,42.3" style="fill:none;fill-rule:evenodd;stroke:#000000;stroke-width:2.0px;stroke-linecap:butt;stroke-linejoin:miter;stroke-opacity:1"/>
<path class="bond-12 atom-12 atom-13" d="M 766.7,44.4 L 778.6,51.3" style="fill:none;fill-rule:evenodd;stroke:#000000;stroke-width:2.0px;stroke-linecap:butt;stroke-linejoin:miter;stroke-opacity:1"/>
<path class="bond-13 atom-13 atom-14" d="M 778.6,51.3 L 778.6,65.1" style="fill:none;fill-rule:evenodd;stroke:#000000;stroke-width:2.0px;stroke-linecap:butt;stroke-linejoin:miter;stroke-opacity:1"/>
<path class="bond-13 atom-13 atom-14" d="M 781.4,53.4 L 781.3,63.1" style="fill:none;fill-rule:evenodd;stroke:#000000;stroke-width:2.0px;stroke-linecap:butt;stroke-linejoin:miter;stroke-opacity:1"/>
<path class="bond-45 atom-44 atom-13" d="M 790.6,44.5 L 778.6,51.3" style="fill:none;fill-rule:evenodd;stroke:#000000;stroke-width:2.0px;stroke-linecap:butt;stroke-linejoin:miter;stroke-opacity:1"/>
<path class="bond-14 atom-14 atom-15" d="M 778.6,65.1 L 790.5,72.1" style="fill:none;fill-rule:evenodd;stroke:#000000;stroke-width:2.0px;stroke-linecap:butt;stroke-linejoin:miter;stroke-opacity:1"/>
<path class="bond-15 atom-15 atom-16" d="M 790.5,72.1 L 802.5,65.2" style="fill:none;fill-rule:evenodd;stroke:#000000;stroke-width:2.0px;stroke-linecap:butt;stroke-linejoin:miter;stroke-opacity:1"/>
<path class="bond-15 atom-15 atom-16" d="M 790.9,68.6 L 799.3,63.8" style="fill:none;fill-rule:evenodd;stroke:#000000;stroke-width:2.0px;stroke-linecap:butt;stroke-linejoin:miter;stroke-opacity:1"/>
<path class="bond-16 atom-16 atom-17" d="M 802.5,65.2 L 815.6,69.5" style="fill:none;fill-rule:evenodd;stroke:#000000;stroke-width:2.0px;stroke-linecap:butt;stroke-linejoin:miter;stroke-opacity:1"/>
<path class="bond-46 atom-43 atom-16" d="M 802.5,51.4 L 802.5,65.2" style="fill:none;fill-rule:evenodd;stroke:#000000;stroke-width:2.0px;stroke-linecap:butt;stroke-linejoin:miter;stroke-opacity:1"/>
<path class="bond-17 atom-17 atom-18" d="M 815.6,69.5 L 819.8,82.7" style="fill:none;fill-rule:evenodd;stroke:#000000;stroke-width:2.0px;stroke-linecap:butt;stroke-linejoin:miter;stroke-opacity:1"/>
<path class="bond-25 atom-17 atom-26" d="M 815.6,69.5 L 823.8,58.4" style="fill:none;fill-rule:evenodd;stroke:#000000;stroke-width:2.0px;stroke-linecap:butt;stroke-linejoin:miter;stroke-opacity:1"/>
<path class="bond-25 atom-17 atom-26" d="M 814.6,66.2 L 820.3,58.4" style="fill:none;fill-rule:evenodd;stroke:#000000;stroke-width:2.0px;stroke-linecap:butt;stroke-linejoin:miter;stroke-opacity:1"/>
<path class="bond-18 atom-18 atom-19" d="M 818.8,81.8 L 815.3,85.6" style="fill:none;fill-rule:evenodd;stroke:#000000;stroke-width:2.0px;stroke-linecap:butt;stroke-linejoin:miter;stroke-opacity:1"/>
<path class="bond-18 atom-18 atom-19" d="M 815.3,85.6 L 811.8,89.5" style="fill:none;fill-rule:evenodd;stroke:#FF0000;stroke-width:2.0px;stroke-linecap:butt;stroke-linejoin:miter;stroke-opacity:1"/>
<path class="bond-18 atom-18 atom-19" d="M 820.8,83.6 L 817.3,87.5" style="fill:none;fill-rule:evenodd;stroke:#000000;stroke-width:2.0px;stroke-linecap:butt;stroke-linejoin:miter;stroke-opacity:1"/>
<path class="bond-18 atom-18 atom-19" d="M 817.3,87.5 L 813.8,91.4" style="fill:none;fill-rule:evenodd;stroke:#FF0000;stroke-width:2.0px;stroke-linecap:butt;stroke-linejoin:miter;stroke-opacity:1"/>
<path class="bond-19 atom-18 atom-20" d="M 819.8,82.7 L 825.6,83.9" style="fill:none;fill-rule:evenodd;stroke:#000000;stroke-width:2.0px;stroke-linecap:butt;stroke-linejoin:miter;stroke-opacity:1"/>
<path class="bond-19 atom-18 atom-20" d="M 825.6,83.9 L 831.4,85.2" style="fill:none;fill-rule:evenodd;stroke:#0000FF;stroke-width:2.0px;stroke-linecap:butt;stroke-linejoin:miter;stroke-opacity:1"/>
<path class="bond-20 atom-20 atom-21" d="M 834.1,88.1 L 835.8,93.4" style="fill:none;fill-rule:evenodd;stroke:#0000FF;stroke-width:2.0px;stroke-linecap:butt;stroke-linejoin:miter;stroke-opacity:1"/>
<path class="bond-20 atom-20 atom-21" d="M 835.8,93.4 L 837.5,98.8" style="fill:none;fill-rule:evenodd;stroke:#000000;stroke-width:2.0px;stroke-linecap:butt;stroke-linejoin:miter;stroke-opacity:1"/>
<path class="bond-47 atom-25 atom-20" d="M 842.6,75.4 L 838.9,79.4" style="fill:none;fill-rule:evenodd;stroke:#000000;stroke-width:2.0px;stroke-linecap:butt;stroke-linejoin:miter;stroke-opacity:1"/>
<path class="bond-47 atom-25 atom-20" d="M 838.9,79.4 L 835.3,83.5" style="fill:none;fill-rule:evenodd;stroke:#0000FF;stroke-width:2.0px;stroke-linecap:butt;stroke-linejoin:miter;stroke-opacity:1"/>
<path class="bond-21 atom-21 atom-22" d="M 837.5,98.8 L 851.0,101.7" style="fill:none;fill-rule:evenodd;stroke:#000000;stroke-width:2.0px;stroke-linecap:butt;stroke-linejoin:miter;stroke-opacity:1"/>
<path class="bond-22 atom-22 atom-23" d="M 851.0,101.7 L 854.7,97.7" style="fill:none;fill-rule:evenodd;stroke:#000000;stroke-width:2.0px;stroke-linecap:butt;stroke-linejoin:miter;stroke-opacity:1"/>
<path class="bond-22 atom-22 atom-23" d="M 854.7,97.7 L 858.3,93.6" style="fill:none;fill-rule:evenodd;stroke:#0000FF;stroke-width:2.0px;stroke-linecap:butt;stroke-linejoin:miter;stroke-opacity:1"/>
<path class="bond-23 atom-23 atom-24" d="M 859.5,89.0 L 857.8,83.7" style="fill:none;fill-rule:evenodd;stroke:#0000FF;stroke-width:2.0px;stroke-linecap:butt;stroke-linejoin:miter;stroke-opacity:1"/>
<path class="bond-23 atom-23 atom-24" d="M 857.8,83.7 L 856.1,78.3" style="fill:none;fill-rule:evenodd;stroke:#000000;stroke-width:2.0px;stroke-linecap:butt;stroke-linejoin:miter;stroke-opacity:1"/>
<path class="bond-24 atom-24 atom-25" d="M 856.1,78.3 L 842.6,75.4" style="fill:none;fill-rule:evenodd;stroke:#000000;stroke-width:2.0px;stroke-linecap:butt;stroke-linejoin:miter;stroke-opacity:1"/>
<path class="bond-26 atom-26 atom-27" d="M 823.8,58.4 L 837.6,58.5" style="fill:none;fill-rule:evenodd;stroke:#000000;stroke-width:2.0px;stroke-linecap:butt;stroke-linejoin:miter;stroke-opacity:1"/>
<path class="bond-35 atom-26 atom-36" d="M 823.8,58.4 L 820.6,54.0" style="fill:none;fill-rule:evenodd;stroke:#000000;stroke-width:2.0px;stroke-linecap:butt;stroke-linejoin:miter;stroke-opacity:1"/>
<path class="bond-35 atom-26 atom-36" d="M 820.6,54.0 L 817.5,49.7" style="fill:none;fill-rule:evenodd;stroke:#0000FF;stroke-width:2.0px;stroke-linecap:butt;stroke-linejoin:miter;stroke-opacity:1"/>
<path class="bond-27 atom-27 atom-28" d="M 837.6,58.5 L 844.5,46.5" style="fill:none;fill-rule:evenodd;stroke:#000000;stroke-width:2.0px;stroke-linecap:butt;stroke-linejoin:miter;stroke-opacity:1"/>
<path class="bond-28 atom-28 atom-29" d="M 844.5,46.5 L 837.7,34.5" style="fill:none;fill-rule:evenodd;stroke:#000000;stroke-width:2.0px;stroke-linecap:butt;stroke-linejoin:miter;stroke-opacity:1"/>
<path class="bond-28 atom-28 atom-29" d="M 845.9,43.3 L 841.1,35.0" style="fill:none;fill-rule:evenodd;stroke:#000000;stroke-width:2.0px;stroke-linecap:butt;stroke-linejoin:miter;stroke-opacity:1"/>
<path class="bond-48 atom-34 atom-28" d="M 858.3,46.6 L 844.5,46.5" style="fill:none;fill-rule:evenodd;stroke:#000000;stroke-width:2.0px;stroke-linecap:butt;stroke-linejoin:miter;stroke-opacity:1"/>
<path class="bond-29 atom-29 atom-30" d="M 837.7,34.5 L 844.6,22.6" style="fill:none;fill-rule:evenodd;stroke:#000000;stroke-width:2.0px;stroke-linecap:butt;stroke-linejoin:miter;stroke-opacity:1"/>
<path class="bond-30 atom-30 atom-31" d="M 844.6,22.6 L 858.4,22.7" style="fill:none;fill-rule:evenodd;stroke:#000000;stroke-width:2.0px;stroke-linecap:butt;stroke-linejoin:miter;stroke-opacity:1"/>
<path class="bond-30 atom-30 atom-31" d="M 846.7,25.4 L 856.3,25.4" style="fill:none;fill-rule:evenodd;stroke:#000000;stroke-width:2.0px;stroke-linecap:butt;stroke-linejoin:miter;stroke-opacity:1"/>
<path class="bond-31 atom-31 atom-32" d="M 858.4,22.7 L 865.3,34.6" style="fill:none;fill-rule:evenodd;stroke:#000000;stroke-width:2.0px;stroke-linecap:butt;stroke-linejoin:miter;stroke-opacity:1"/>
<path class="bond-32 atom-32 atom-33" d="M 865.3,34.6 L 871.4,34.7" style="fill:none;fill-rule:evenodd;stroke:#000000;stroke-width:2.0px;stroke-linecap:butt;stroke-linejoin:miter;stroke-opacity:1"/>
<path class="bond-32 atom-32 atom-33" d="M 871.4,34.7 L 877.5,34.7" style="fill:none;fill-rule:evenodd;stroke:#33CCCC;stroke-width:2.0px;stroke-linecap:butt;stroke-linejoin:miter;stroke-opacity:1"/>
<path class="bond-33 atom-32 atom-34" d="M 865.3,34.6 L 858.3,46.6" style="fill:none;fill-rule:evenodd;stroke:#000000;stroke-width:2.0px;stroke-linecap:butt;stroke-linejoin:miter;stroke-opacity:1"/>
<path class="bond-33 atom-32 atom-34" d="M 861.9,35.0 L 857.0,43.4" style="fill:none;fill-rule:evenodd;stroke:#000000;stroke-width:2.0px;stroke-linecap:butt;stroke-linejoin:miter;stroke-opacity:1"/>
<path class="bond-34 atom-34 atom-35" d="M 858.3,46.6 L 865.2,58.6" style="fill:none;fill-rule:evenodd;stroke:#000000;stroke-width:2.0px;stroke-linecap:butt;stroke-linejoin:miter;stroke-opacity:1"/>
<path class="bond-36 atom-36 atom-37" d="M 816.5,44.7 L 818.3,39.4" style="fill:none;fill-rule:evenodd;stroke:#0000FF;stroke-width:2.0px;stroke-linecap:butt;stroke-linejoin:miter;stroke-opacity:1"/>
<path class="bond-36 atom-36 atom-37" d="M 818.3,39.4 L 820.0,34.1" style="fill:none;fill-rule:evenodd;stroke:#000000;stroke-width:2.0px;stroke-linecap:butt;stroke-linejoin:miter;stroke-opacity:1"/>
<path class="bond-42 atom-36 atom-43" d="M 813.7,47.8 L 808.1,49.6" style="fill:none;fill-rule:evenodd;stroke:#0000FF;stroke-width:2.0px;stroke-linecap:butt;stroke-linejoin:miter;stroke-opacity:1"/>
<path class="bond-42 atom-36 atom-43" d="M 808.1,49.6 L 802.5,51.4" style="fill:none;fill-rule:evenodd;stroke:#000000;stroke-width:2.0px;stroke-linecap:butt;stroke-linejoin:miter;stroke-opacity:1"/>
<path class="bond-37 atom-37 atom-38" d="M 820.0,34.1 L 833.5,31.3" style="fill:none;fill-rule:evenodd;stroke:#000000;stroke-width:2.0px;stroke-linecap:butt;stroke-linejoin:miter;stroke-opacity:1"/>
<path class="bond-37 atom-37 atom-38" d="M 821.5,30.9 L 830.9,29.0" style="fill:none;fill-rule:evenodd;stroke:#000000;stroke-width:2.0px;stroke-linecap:butt;stroke-linejoin:miter;stroke-opacity:1"/>
<path class="bond-49 atom-42 atom-37" d="M 810.8,23.8 L 820.0,34.1" style="fill:none;fill-rule:evenodd;stroke:#000000;stroke-width:2.0px;stroke-linecap:butt;stroke-linejoin:miter;stroke-opacity:1"/>
<path class="bond-38 atom-38 atom-39" d="M 833.5,31.3 L 837.8,18.1" style="fill:none;fill-rule:evenodd;stroke:#000000;stroke-width:2.0px;stroke-linecap:butt;stroke-linejoin:miter;stroke-opacity:1"/>
<path class="bond-39 atom-39 atom-40" d="M 837.8,18.1 L 828.6,7.8" style="fill:none;fill-rule:evenodd;stroke:#000000;stroke-width:2.0px;stroke-linecap:butt;stroke-linejoin:miter;stroke-opacity:1"/>
<path class="bond-39 atom-39 atom-40" d="M 834.4,18.4 L 828.0,11.2" style="fill:none;fill-rule:evenodd;stroke:#000000;stroke-width:2.0px;stroke-linecap:butt;stroke-linejoin:miter;stroke-opacity:1"/>
<path class="bond-40 atom-40 atom-41" d="M 828.6,7.8 L 815.1,10.7" style="fill:none;fill-rule:evenodd;stroke:#000000;stroke-width:2.0px;stroke-linecap:butt;stroke-linejoin:miter;stroke-opacity:1"/>
<path class="bond-41 atom-41 atom-42" d="M 815.1,10.7 L 810.8,23.8" style="fill:none;fill-rule:evenodd;stroke:#000000;stroke-width:2.0px;stroke-linecap:butt;stroke-linejoin:miter;stroke-opacity:1"/>
<path class="bond-41 atom-41 atom-42" d="M 817.1,13.5 L 814.1,22.7" style="fill:none;fill-rule:evenodd;stroke:#000000;stroke-width:2.0px;stroke-linecap:butt;stroke-linejoin:miter;stroke-opacity:1"/>
<path class="bond-43 atom-43 atom-44" d="M 802.5,51.4 L 790.6,44.5" style="fill:none;fill-rule:evenodd;stroke:#000000;stroke-width:2.0px;stroke-linecap:butt;stroke-linejoin:miter;stroke-opacity:1"/>
<path class="bond-43 atom-43 atom-44" d="M 799.4,52.7 L 791.0,47.9" style="fill:none;fill-rule:evenodd;stroke:#000000;stroke-width:2.0px;stroke-linecap:butt;stroke-linejoin:miter;stroke-opacity:1"/>
<path class="atom-1" d="M 777.2 94.2 Q 777.3 94.2, 777.5 94.3 Q 777.7 94.4, 777.9 94.4 Q 778.1 94.5, 778.3 94.5 Q 778.7 94.5, 779.0 94.3 Q 779.2 94.1, 779.2 93.8 Q 779.2 93.5, 779.1 93.4 Q 779.0 93.2, 778.8 93.2 Q 778.6 93.1, 778.3 93.0 Q 777.9 92.9, 777.7 92.8 Q 777.5 92.7, 777.3 92.4 Q 777.2 92.2, 777.2 91.8 Q 777.2 91.3, 777.5 91.0 Q 777.9 90.6, 778.6 90.6 Q 779.1 90.6, 779.7 90.9 L 779.5 91.3 Q 779.0 91.1, 778.6 91.1 Q 778.2 91.1, 778.0 91.3 Q 777.8 91.5, 777.8 91.7 Q 777.8 92.0, 777.9 92.1 Q 778.0 92.3, 778.2 92.3 Q 778.3 92.4, 778.6 92.5 Q 779.0 92.6, 779.2 92.7 Q 779.5 92.9, 779.6 93.1 Q 779.8 93.3, 779.8 93.8 Q 779.8 94.3, 779.4 94.7 Q 779.0 95.0, 778.4 95.0 Q 778.0 95.0, 777.7 94.9 Q 777.4 94.8, 777.1 94.7 L 777.2 94.2 " fill="#000000"/>
<path class="atom-1" d="M 780.1 93.3 Q 780.1 92.6, 780.5 92.1 Q 780.8 91.7, 781.5 91.7 Q 782.2 91.7, 782.5 92.1 Q 782.8 92.5, 782.8 93.3 L 782.8 93.4 L 780.7 93.4 Q 780.7 93.9, 780.9 94.2 Q 781.1 94.5, 781.6 94.5 Q 781.8 94.5, 782.0 94.4 Q 782.3 94.4, 782.5 94.2 L 782.7 94.6 Q 782.4 94.8, 782.1 94.8 Q 781.8 94.9, 781.5 94.9 Q 780.9 94.9, 780.5 94.5 Q 780.1 94.1, 780.1 93.3 M 781.5 92.2 Q 781.2 92.2, 781.0 92.4 Q 780.7 92.6, 780.7 93.0 L 782.2 93.0 Q 782.2 92.6, 782.0 92.4 Q 781.8 92.2, 781.5 92.2 " fill="#000000"/>
<path class="atom-2" d="M 762.3 87.2 Q 762.4 87.3, 762.6 87.3 Q 762.8 87.4, 763.0 87.5 Q 763.2 87.5, 763.4 87.5 Q 763.8 87.5, 764.0 87.3 Q 764.3 87.1, 764.3 86.8 Q 764.3 86.6, 764.2 86.4 Q 764.0 86.3, 763.9 86.2 Q 763.7 86.1, 763.4 86.0 Q 763.0 85.9, 762.8 85.8 Q 762.6 85.7, 762.4 85.5 Q 762.2 85.2, 762.2 84.9 Q 762.2 84.3, 762.6 84.0 Q 763.0 83.7, 763.7 83.7 Q 764.2 83.7, 764.7 83.9 L 764.6 84.4 Q 764.1 84.2, 763.7 84.2 Q 763.3 84.2, 763.1 84.3 Q 762.8 84.5, 762.8 84.8 Q 762.8 85.0, 763.0 85.2 Q 763.1 85.3, 763.2 85.4 Q 763.4 85.5, 763.7 85.5 Q 764.1 85.7, 764.3 85.8 Q 764.5 85.9, 764.7 86.1 Q 764.9 86.4, 764.9 86.8 Q 764.9 87.4, 764.5 87.7 Q 764.1 88.0, 763.4 88.0 Q 763.1 88.0, 762.8 87.9 Q 762.5 87.9, 762.1 87.7 L 762.3 87.2 " fill="#000000"/>
<path class="atom-2" d="M 765.1 86.4 Q 765.1 85.6, 765.5 85.2 Q 765.9 84.8, 766.6 84.8 Q 767.3 84.8, 767.6 85.2 Q 767.9 85.6, 767.9 86.3 L 767.9 86.4 L 765.7 86.4 Q 765.7 87.0, 766.0 87.2 Q 766.2 87.5, 766.6 87.5 Q 766.9 87.5, 767.1 87.5 Q 767.3 87.4, 767.6 87.3 L 767.8 87.7 Q 767.5 87.8, 767.2 87.9 Q 766.9 88.0, 766.6 88.0 Q 765.9 88.0, 765.5 87.5 Q 765.1 87.1, 765.1 86.4 M 766.6 85.2 Q 766.2 85.2, 766.0 85.4 Q 765.8 85.6, 765.7 86.0 L 767.3 86.0 Q 767.2 85.6, 767.1 85.4 Q 766.9 85.2, 766.6 85.2 " fill="#000000"/>
<path class="atom-3" d="M 765.4 73.4 Q 765.4 73.5, 765.6 73.5 Q 765.8 73.6, 766.0 73.7 Q 766.2 73.7, 766.5 73.7 Q 766.9 73.7, 767.1 73.5 Q 767.3 73.3, 767.3 73.0 Q 767.3 72.8, 767.2 72.6 Q 767.1 72.5, 766.9 72.4 Q 766.7 72.3, 766.4 72.2 Q 766.1 72.1, 765.8 72.0 Q 765.6 71.9, 765.5 71.7 Q 765.3 71.4, 765.3 71.1 Q 765.3 70.5, 765.7 70.2 Q 766.0 69.9, 766.7 69.9 Q 767.2 69.9, 767.8 70.1 L 767.7 70.6 Q 767.1 70.3, 766.8 70.3 Q 766.3 70.3, 766.1 70.5 Q 765.9 70.7, 765.9 71.0 Q 765.9 71.2, 766.0 71.3 Q 766.1 71.5, 766.3 71.6 Q 766.5 71.6, 766.8 71.7 Q 767.1 71.9, 767.4 72.0 Q 767.6 72.1, 767.8 72.3 Q 767.9 72.6, 767.9 73.0 Q 767.9 73.6, 767.5 73.9 Q 767.1 74.2, 766.5 74.2 Q 766.1 74.2, 765.8 74.1 Q 765.5 74.0, 765.2 73.9 L 765.4 73.4 " fill="#000000"/>
<path class="atom-3" d="M 768.2 72.5 Q 768.2 71.8, 768.6 71.4 Q 769.0 71.0, 769.7 71.0 Q 770.3 71.0, 770.6 71.4 Q 770.9 71.8, 770.9 72.5 L 770.9 72.6 L 768.8 72.6 Q 768.8 73.1, 769.0 73.4 Q 769.3 73.7, 769.7 73.7 Q 769.9 73.7, 770.2 73.6 Q 770.4 73.6, 770.7 73.5 L 770.8 73.9 Q 770.5 74.0, 770.2 74.1 Q 770.0 74.1, 769.7 74.1 Q 769.0 74.1, 768.6 73.7 Q 768.2 73.3, 768.2 72.5 M 769.7 71.4 Q 769.3 71.4, 769.1 71.6 Q 768.9 71.8, 768.8 72.2 L 770.3 72.2 Q 770.3 71.8, 770.1 71.6 Q 770.0 71.4, 769.7 71.4 " fill="#000000"/>
<path class="atom-4" d="M 753.4 66.5 Q 753.5 66.5, 753.7 66.6 Q 753.9 66.7, 754.1 66.7 Q 754.3 66.8, 754.5 66.8 Q 754.9 66.8, 755.2 66.6 Q 755.4 66.4, 755.4 66.0 Q 755.4 65.8, 755.3 65.7 Q 755.2 65.5, 755.0 65.4 Q 754.8 65.4, 754.5 65.3 Q 754.1 65.2, 753.9 65.0 Q 753.7 64.9, 753.5 64.7 Q 753.4 64.5, 753.4 64.1 Q 753.4 63.6, 753.7 63.2 Q 754.1 62.9, 754.8 62.9 Q 755.3 62.9, 755.9 63.1 L 755.7 63.6 Q 755.2 63.4, 754.8 63.4 Q 754.4 63.4, 754.2 63.6 Q 754.0 63.7, 754.0 64.0 Q 754.0 64.3, 754.1 64.4 Q 754.2 64.5, 754.4 64.6 Q 754.5 64.7, 754.8 64.8 Q 755.2 64.9, 755.4 65.0 Q 755.7 65.1, 755.8 65.4 Q 756.0 65.6, 756.0 66.0 Q 756.0 66.6, 755.6 66.9 Q 755.2 67.3, 754.6 67.3 Q 754.2 67.3, 753.9 67.2 Q 753.6 67.1, 753.3 67.0 L 753.4 66.5 " fill="#CCCC00"/>
<path class="atom-4" d="M 753.0 67.7 L 753.5 67.7 L 753.5 69.5 L 755.7 69.5 L 755.7 67.7 L 756.3 67.7 L 756.3 71.9 L 755.7 71.9 L 755.7 70.0 L 753.5 70.0 L 753.5 71.9 L 753.0 71.9 L 753.0 67.7 " fill="#CCCC00"/>
<path class="atom-4" d="M 756.5 71.8 Q 756.6 71.5, 756.9 71.4 Q 757.1 71.2, 757.4 71.2 Q 757.9 71.2, 758.1 71.5 Q 758.3 71.7, 758.3 72.1 Q 758.3 72.5, 758.0 72.9 Q 757.7 73.3, 757.1 73.7 L 758.4 73.7 L 758.4 74.1 L 756.5 74.1 L 756.5 73.8 Q 757.0 73.4, 757.3 73.1 Q 757.6 72.9, 757.8 72.6 Q 757.9 72.4, 757.9 72.1 Q 757.9 71.8, 757.8 71.7 Q 757.7 71.5, 757.4 71.5 Q 757.2 71.5, 757.1 71.6 Q 756.9 71.7, 756.8 71.9 L 756.5 71.8 " fill="#CCCC00"/>
<path class="atom-5" d="M 730.2 69.8 L 730.8 69.8 L 730.8 71.6 L 733.0 71.6 L 733.0 69.8 L 733.5 69.8 L 733.5 74.0 L 733.0 74.0 L 733.0 72.0 L 730.8 72.0 L 730.8 74.0 L 730.2 74.0 L 730.2 69.8 " fill="#000000"/>
<path class="atom-5" d="M 734.7 73.3 Q 735.2 73.3, 735.5 73.6 Q 735.7 74.0, 735.7 74.6 Q 735.7 75.4, 735.4 75.8 Q 735.1 76.2, 734.5 76.2 Q 734.3 76.2, 734.2 76.1 Q 734.0 76.1, 733.9 76.0 L 734.0 75.7 Q 734.2 75.8, 734.5 75.8 Q 734.9 75.8, 735.1 75.6 Q 735.3 75.3, 735.3 74.8 Q 735.2 74.9, 735.0 75.0 Q 734.8 75.1, 734.6 75.1 Q 734.4 75.1, 734.2 75.0 Q 734.0 74.9, 733.9 74.7 Q 733.8 74.5, 733.8 74.2 Q 733.8 74.0, 733.9 73.7 Q 734.0 73.5, 734.2 73.4 Q 734.4 73.3, 734.7 73.3 M 734.2 74.2 Q 734.2 74.5, 734.3 74.6 Q 734.4 74.8, 734.7 74.8 Q 734.8 74.8, 735.0 74.7 Q 735.2 74.6, 735.3 74.5 Q 735.3 74.0, 735.1 73.8 Q 735.0 73.6, 734.7 73.6 Q 734.5 73.6, 734.4 73.7 Q 734.3 73.8, 734.2 73.9 Q 734.2 74.1, 734.2 74.2 " fill="#000000"/>
<path class="atom-5" d="M 737.0 76.2 Q 736.5 76.2, 736.2 75.8 Q 735.9 75.4, 735.9 74.7 Q 735.9 74.0, 736.2 73.7 Q 736.5 73.3, 737.0 73.3 Q 737.5 73.3, 737.7 73.7 Q 738.0 74.0, 738.0 74.7 Q 738.0 75.4, 737.7 75.8 Q 737.5 76.2, 737.0 76.2 M 737.0 75.8 Q 737.3 75.8, 737.4 75.6 Q 737.6 75.3, 737.6 74.7 Q 737.6 74.2, 737.4 73.9 Q 737.3 73.6, 737.0 73.6 Q 736.7 73.6, 736.5 73.9 Q 736.3 74.2, 736.3 74.7 Q 736.3 75.3, 736.5 75.6 Q 736.7 75.8, 737.0 75.8 " fill="#000000"/>
<path class="atom-5" d="M 738.4 73.3 Q 738.5 73.4, 738.7 73.4 Q 738.9 73.5, 739.1 73.6 Q 739.3 73.6, 739.5 73.6 Q 739.9 73.6, 740.2 73.4 Q 740.4 73.2, 740.4 72.9 Q 740.4 72.7, 740.3 72.5 Q 740.2 72.4, 740.0 72.3 Q 739.8 72.2, 739.5 72.1 Q 739.1 72.0, 738.9 71.9 Q 738.7 71.8, 738.5 71.6 Q 738.4 71.3, 738.4 71.0 Q 738.4 70.4, 738.7 70.1 Q 739.1 69.8, 739.8 69.8 Q 740.3 69.8, 740.9 70.0 L 740.7 70.5 Q 740.2 70.3, 739.8 70.3 Q 739.4 70.3, 739.2 70.4 Q 739.0 70.6, 739.0 70.9 Q 739.0 71.1, 739.1 71.3 Q 739.2 71.4, 739.4 71.5 Q 739.5 71.6, 739.8 71.6 Q 740.2 71.8, 740.4 71.9 Q 740.7 72.0, 740.8 72.2 Q 741.0 72.5, 741.0 72.9 Q 741.0 73.5, 740.6 73.8 Q 740.2 74.1, 739.6 74.1 Q 739.2 74.1, 738.9 74.0 Q 738.6 74.0, 738.3 73.8 L 738.4 73.3 " fill="#000000"/>
<path class="atom-5" d="M 741.3 72.5 Q 741.3 71.7, 741.7 71.3 Q 742.0 70.9, 742.7 70.9 Q 743.4 70.9, 743.7 71.3 Q 744.0 71.7, 744.0 72.4 L 744.0 72.5 L 741.9 72.5 Q 741.9 73.1, 742.1 73.3 Q 742.3 73.6, 742.8 73.6 Q 743.0 73.6, 743.2 73.6 Q 743.5 73.5, 743.7 73.4 L 743.9 73.8 Q 743.6 73.9, 743.3 74.0 Q 743.0 74.1, 742.7 74.1 Q 742.0 74.1, 741.7 73.6 Q 741.3 73.2, 741.3 72.5 M 742.7 71.3 Q 742.4 71.3, 742.2 71.5 Q 741.9 71.7, 741.9 72.1 L 743.4 72.1 Q 743.4 71.7, 743.2 71.5 Q 743.0 71.3, 742.7 71.3 " fill="#000000"/>
<path class="atom-5" d="M 745.2 69.6 Q 745.7 69.6, 745.9 69.9 Q 746.2 70.3, 746.2 70.9 Q 746.2 71.7, 745.9 72.1 Q 745.6 72.4, 745.0 72.4 Q 744.8 72.4, 744.6 72.4 Q 744.5 72.4, 744.3 72.3 L 744.5 72.0 Q 744.7 72.1, 744.9 72.1 Q 745.3 72.1, 745.5 71.9 Q 745.7 71.6, 745.8 71.1 Q 745.6 71.2, 745.4 71.3 Q 745.3 71.4, 745.1 71.4 Q 744.8 71.4, 744.6 71.3 Q 744.4 71.1, 744.3 71.0 Q 744.2 70.8, 744.2 70.5 Q 744.2 70.2, 744.3 70.0 Q 744.5 69.8, 744.7 69.7 Q 744.9 69.6, 745.2 69.6 M 744.6 70.5 Q 744.6 70.8, 744.8 70.9 Q 744.9 71.0, 745.1 71.0 Q 745.3 71.0, 745.5 71.0 Q 745.7 70.9, 745.8 70.8 Q 745.8 70.3, 745.6 70.1 Q 745.5 69.9, 745.2 69.9 Q 745.0 69.9, 744.9 70.0 Q 744.8 70.1, 744.7 70.2 Q 744.6 70.3, 744.6 70.5 " fill="#000000"/>
<path class="atom-5" d="M 747.3 69.6 Q 747.8 69.6, 748.1 69.9 Q 748.3 70.3, 748.3 70.9 Q 748.3 71.7, 748.0 72.1 Q 747.7 72.4, 747.1 72.4 Q 746.9 72.4, 746.8 72.4 Q 746.6 72.4, 746.5 72.3 L 746.7 72.0 Q 746.9 72.1, 747.1 72.1 Q 747.5 72.1, 747.7 71.9 Q 747.9 71.6, 747.9 71.1 Q 747.8 71.2, 747.6 71.3 Q 747.4 71.4, 747.2 71.4 Q 747.0 71.4, 746.8 71.3 Q 746.6 71.1, 746.5 71.0 Q 746.4 70.8, 746.4 70.5 Q 746.4 70.2, 746.5 70.0 Q 746.6 69.8, 746.8 69.7 Q 747.1 69.6, 747.3 69.6 M 746.8 70.5 Q 746.8 70.8, 746.9 70.9 Q 747.1 71.0, 747.3 71.0 Q 747.5 71.0, 747.6 71.0 Q 747.8 70.9, 747.9 70.8 Q 747.9 70.3, 747.8 70.1 Q 747.6 69.9, 747.3 69.9 Q 747.2 69.9, 747.1 70.0 Q 746.9 70.1, 746.9 70.2 Q 746.8 70.3, 746.8 70.5 " fill="#000000"/>
<path class="atom-5" d="M 748.7 71.1 L 749.4 71.1 L 749.4 70.3 L 749.8 70.3 L 749.8 71.1 L 750.5 71.1 L 750.5 71.3 L 749.8 71.3 L 749.8 72.1 L 749.4 72.1 L 749.4 71.3 L 748.7 71.3 L 748.7 71.1 " fill="#000000"/>
<path class="atom-9" d="M 725.3 21.4 L 725.9 21.4 L 725.9 23.2 L 728.1 23.2 L 728.1 21.4 L 728.6 21.4 L 728.6 25.6 L 728.1 25.6 L 728.1 23.7 L 725.9 23.7 L 725.9 25.6 L 725.3 25.6 L 725.3 21.4 " fill="#FF0000"/>
<path class="atom-9" d="M 728.9 23.5 Q 728.9 22.5, 729.4 21.9 Q 729.9 21.3, 730.9 21.3 Q 731.8 21.3, 732.3 21.9 Q 732.8 22.5, 732.8 23.5 Q 732.8 24.5, 732.3 25.1 Q 731.8 25.7, 730.9 25.7 Q 729.9 25.7, 729.4 25.1 Q 728.9 24.5, 728.9 23.5 M 730.9 25.2 Q 731.5 25.2, 731.9 24.8 Q 732.2 24.4, 732.2 23.5 Q 732.2 22.7, 731.9 22.3 Q 731.5 21.8, 730.9 21.8 Q 730.2 21.8, 729.9 22.2 Q 729.5 22.7, 729.5 23.5 Q 729.5 24.4, 729.9 24.8 Q 730.2 25.2, 730.9 25.2 " fill="#FF0000"/>
<path class="atom-19" d="M 808.6 92.9 Q 808.6 91.9, 809.1 91.3 Q 809.6 90.8, 810.5 90.8 Q 811.5 90.8, 812.0 91.3 Q 812.5 91.9, 812.5 92.9 Q 812.5 94.0, 812.0 94.5 Q 811.5 95.1, 810.5 95.1 Q 809.6 95.1, 809.1 94.5 Q 808.6 94.0, 808.6 92.9 M 810.5 94.7 Q 811.2 94.7, 811.5 94.2 Q 811.9 93.8, 811.9 92.9 Q 811.9 92.1, 811.5 91.7 Q 811.2 91.2, 810.5 91.2 Q 809.9 91.2, 809.5 91.7 Q 809.2 92.1, 809.2 92.9 Q 809.2 93.8, 809.5 94.2 Q 809.9 94.7, 810.5 94.7 " fill="#FF0000"/>
<path class="atom-20" d="M 832.4 83.5 L 833.8 85.7 Q 833.9 86.0, 834.1 86.4 Q 834.3 86.8, 834.4 86.8 L 834.4 83.5 L 834.9 83.5 L 834.9 87.7 L 834.3 87.7 L 832.8 85.3 Q 832.7 85.0, 832.5 84.7 Q 832.3 84.3, 832.2 84.2 L 832.2 87.7 L 831.7 87.7 L 831.7 83.5 L 832.4 83.5 " fill="#0000FF"/>
<path class="atom-23" d="M 859.4 89.3 L 860.8 91.6 Q 860.9 91.8, 861.1 92.2 Q 861.3 92.6, 861.4 92.6 L 861.4 89.3 L 861.9 89.3 L 861.9 93.6 L 861.3 93.6 L 859.8 91.1 Q 859.7 90.8, 859.5 90.5 Q 859.3 90.2, 859.2 90.1 L 859.2 93.6 L 858.7 93.6 L 858.7 89.3 L 859.4 89.3 " fill="#0000FF"/>
<path class="atom-23" d="M 862.4 89.3 L 863.0 89.3 L 863.0 91.1 L 865.2 91.1 L 865.2 89.3 L 865.7 89.3 L 865.7 93.6 L 865.2 93.6 L 865.2 91.6 L 863.0 91.6 L 863.0 93.6 L 862.4 93.6 L 862.4 89.3 " fill="#0000FF"/>
<path class="atom-33" d="M 877.8 32.6 L 880.4 32.6 L 880.4 33.1 L 878.4 33.1 L 878.4 34.3 L 880.1 34.3 L 880.1 34.8 L 878.4 34.8 L 878.4 36.8 L 877.8 36.8 L 877.8 32.6 " fill="#33CCCC"/>
<path class="atom-36" d="M 814.7 45.1 L 816.1 47.3 Q 816.3 47.5, 816.5 47.9 Q 816.7 48.3, 816.7 48.4 L 816.7 45.1 L 817.3 45.1 L 817.3 49.3 L 816.7 49.3 L 815.2 46.9 Q 815.0 46.6, 814.9 46.2 Q 814.7 45.9, 814.6 45.8 L 814.6 49.3 L 814.1 49.3 L 814.1 45.1 L 814.7 45.1 " fill="#0000FF"/>
<path d="M 780.5,106.6 L 780.5,106.5 L 780.5,106.5 L 780.5,106.5 L 780.5,106.5 L 780.5,106.4 L 780.5,106.4 L 780.4,106.4 L 780.4,106.4 L 780.4,106.3 L 780.4,106.3 L 780.4,106.3 L 780.3,106.3 L 780.3,106.3 L 780.3,106.3 L 780.3,106.3 L 780.2,106.3 L 780.2,106.3 L 780.2,106.3 L 780.2,106.3 L 780.1,106.3 L 780.1,106.3 L 780.1,106.3 L 780.1,106.3 L 780.0,106.3 L 780.0,106.3 L 780.0,106.3 L 780.0,106.3 L 780.0,106.4 L 779.9,106.4 L 779.9,106.4 L 779.9,106.4 L 779.9,106.4 L 779.9,106.5 L 779.9,106.5 L 779.9,106.5 L 779.9,106.5 L 779.9,106.6 L 779.9,106.6 L 779.9,106.6 L 779.9,106.6 L 779.9,106.7 L 779.9,106.7 L 779.9,106.7 L 779.9,106.7 L 780.0,106.8 L 780.0,106.8 L 780.0,106.8 L 780.0,106.8 L 780.0,106.8 L 780.1,106.8 L 780.1,106.8 L 780.1,106.8 L 780.1,106.9 L 780.2,106.9 L 780.2,106.9 L 780.2,106.9 L 780.2,106.8 L 780.3,106.8 L 780.3,106.8 L 780.3,106.8 L 780.3,106.8 L 780.4,106.8 L 780.4,106.8 L 780.4,106.8 L 780.4,106.7 L 780.4,106.7 L 780.5,106.7 L 780.5,106.7 L 780.5,106.7 L 780.5,106.6 L 780.5,106.6 L 780.5,106.6 L 780.5,106.6 L 780.2,106.6 Z" style="fill:#000000;fill-rule:evenodd;fill-opacity:1;stroke:#000000;stroke-width:0.0px;stroke-linecap:butt;stroke-linejoin:miter;stroke-opacity:1;"/>
<path d="M 754.9,74.5 L 754.9,74.5 L 754.9,74.5 L 754.9,74.4 L 754.9,74.4 L 754.9,74.4 L 754.9,74.4 L 754.9,74.3 L 754.9,74.3 L 754.8,74.3 L 754.8,74.3 L 754.8,74.3 L 754.8,74.3 L 754.8,74.2 L 754.7,74.2 L 754.7,74.2 L 754.7,74.2 L 754.7,74.2 L 754.6,74.2 L 754.6,74.2 L 754.6,74.2 L 754.6,74.2 L 754.5,74.2 L 754.5,74.2 L 754.5,74.2 L 754.5,74.3 L 754.4,74.3 L 754.4,74.3 L 754.4,74.3 L 754.4,74.3 L 754.4,74.3 L 754.4,74.4 L 754.4,74.4 L 754.3,74.4 L 754.3,74.4 L 754.3,74.5 L 754.3,74.5 L 754.3,74.5 L 754.3,74.5 L 754.3,74.6 L 754.3,74.6 L 754.4,74.6 L 754.4,74.6 L 754.4,74.7 L 754.4,74.7 L 754.4,74.7 L 754.4,74.7 L 754.4,74.7 L 754.5,74.8 L 754.5,74.8 L 754.5,74.8 L 754.5,74.8 L 754.6,74.8 L 754.6,74.8 L 754.6,74.8 L 754.6,74.8 L 754.7,74.8 L 754.7,74.8 L 754.7,74.8 L 754.7,74.8 L 754.8,74.8 L 754.8,74.8 L 754.8,74.8 L 754.8,74.7 L 754.8,74.7 L 754.9,74.7 L 754.9,74.7 L 754.9,74.7 L 754.9,74.6 L 754.9,74.6 L 754.9,74.6 L 754.9,74.6 L 754.9,74.5 L 754.9,74.5 L 754.6,74.5 Z" style="fill:#000000;fill-rule:evenodd;fill-opacity:1;stroke:#000000;stroke-width:0.0px;stroke-linecap:butt;stroke-linejoin:miter;stroke-opacity:1;"/>
</svg>