<svg baseProfile="full" height="160px" version="1.1" viewBox="0 0 1500 160" width="1500px" xml:space="preserve" xmlns="http://www.w3.org/2000/svg" xmlns:rdkit="http://www.rdkit.org/xml" xmlns:xlink="http://www.w3.org/1999/xlink">
<!-- END OF HEADER -->
<rect height="160.0" style="opacity:1.0;fill:#FFFFFF;stroke:none" width="1500.0" x="0.0" y="0.0"> </rect>
<rect height="160.0" style="opacity:1.0;fill:#FFFFFF;stroke:none" width="1500.0" x="0.0" y="0.0"> </rect>
<rect height="160.0" style="opacity:1.0;fill:#FFFFFF;stroke:none" width="1500.0" x="0.0" y="0.0"> </rect>
<rect height="160.0" style="opacity:1.0;fill:#FFFFFF;stroke:none" width="1500.0" x="0.0" y="0.0"> </rect>
<path class="bond-0 atom-0 atom-1" d="M 173.1,46.4 L 153.4,44.2" style="fill:none;fill-rule:evenodd;stroke:#000000;stroke-width:2.0px;stroke-linecap:butt;stroke-linejoin:miter;stroke-opacity:1"/>
<path class="bond-1 atom-1 atom-2" d="M 153.4,44.2 L 145.5,26.0" style="fill:none;fill-rule:evenodd;stroke:#000000;stroke-width:2.0px;stroke-linecap:butt;stroke-linejoin:miter;stroke-opacity:1"/>
<path class="bond-1 atom-1 atom-2" d="M 148.6,43.1 L 143.0,30.3" style="fill:none;fill-rule:evenodd;stroke:#000000;stroke-width:2.0px;stroke-linecap:butt;stroke-linejoin:miter;stroke-opacity:1"/>
<path class="bond-34 atom-7 atom-1" d="M 141.6,60.2 L 153.4,44.2" style="fill:none;fill-rule:evenodd;stroke:#000000;stroke-width:2.0px;stroke-linecap:butt;stroke-linejoin:miter;stroke-opacity:1"/>
<path class="bond-2 atom-2 atom-3" d="M 145.5,26.0 L 150.3,19.5" style="fill:none;fill-rule:evenodd;stroke:#000000;stroke-width:2.0px;stroke-linecap:butt;stroke-linejoin:miter;stroke-opacity:1"/>
<path class="bond-2 atom-2 atom-3" d="M 150.3,19.5 L 155.1,13.0" style="fill:none;fill-rule:evenodd;stroke:#33CCCC;stroke-width:2.0px;stroke-linecap:butt;stroke-linejoin:miter;stroke-opacity:1"/>
<path class="bond-3 atom-2 atom-4" d="M 145.5,26.0 L 125.8,23.8" style="fill:none;fill-rule:evenodd;stroke:#000000;stroke-width:2.0px;stroke-linecap:butt;stroke-linejoin:miter;stroke-opacity:1"/>
<path class="bond-4 atom-4 atom-5" d="M 125.8,23.8 L 114.0,39.8" style="fill:none;fill-rule:evenodd;stroke:#000000;stroke-width:2.0px;stroke-linecap:butt;stroke-linejoin:miter;stroke-opacity:1"/>
<path class="bond-4 atom-4 atom-5" d="M 127.2,28.6 L 118.9,39.7" style="fill:none;fill-rule:evenodd;stroke:#000000;stroke-width:2.0px;stroke-linecap:butt;stroke-linejoin:miter;stroke-opacity:1"/>
<path class="bond-5 atom-5 atom-6" d="M 114.0,39.8 L 121.9,58.0" style="fill:none;fill-rule:evenodd;stroke:#000000;stroke-width:2.0px;stroke-linecap:butt;stroke-linejoin:miter;stroke-opacity:1"/>
<path class="bond-6 atom-6 atom-7" d="M 121.9,58.0 L 141.6,60.2" style="fill:none;fill-rule:evenodd;stroke:#000000;stroke-width:2.0px;stroke-linecap:butt;stroke-linejoin:miter;stroke-opacity:1"/>
<path class="bond-6 atom-6 atom-7" d="M 125.3,54.4 L 139.1,55.9" style="fill:none;fill-rule:evenodd;stroke:#000000;stroke-width:2.0px;stroke-linecap:butt;stroke-linejoin:miter;stroke-opacity:1"/>
<path class="bond-7 atom-7 atom-8" d="M 141.6,60.2 L 149.6,78.4" style="fill:none;fill-rule:evenodd;stroke:#000000;stroke-width:2.0px;stroke-linecap:butt;stroke-linejoin:miter;stroke-opacity:1"/>
<path class="bond-8 atom-8 atom-9" d="M 149.6,78.4 L 137.8,94.3" style="fill:none;fill-rule:evenodd;stroke:#000000;stroke-width:2.0px;stroke-linecap:butt;stroke-linejoin:miter;stroke-opacity:1"/>
<path class="bond-9 atom-9 atom-10" d="M 137.8,94.3 L 143.8,113.3" style="fill:none;fill-rule:evenodd;stroke:#000000;stroke-width:2.0px;stroke-linecap:butt;stroke-linejoin:miter;stroke-opacity:1"/>
<path class="bond-9 atom-9 atom-10" d="M 134.9,98.4 L 139.1,111.6" style="fill:none;fill-rule:evenodd;stroke:#000000;stroke-width:2.0px;stroke-linecap:butt;stroke-linejoin:miter;stroke-opacity:1"/>
<path class="bond-35 atom-28 atom-9" d="M 120.6,94.2 L 129.2,94.3" style="fill:none;fill-rule:evenodd;stroke:#0000FF;stroke-width:2.0px;stroke-linecap:butt;stroke-linejoin:miter;stroke-opacity:1"/>
<path class="bond-35 atom-28 atom-9" d="M 129.2,94.3 L 137.8,94.3" style="fill:none;fill-rule:evenodd;stroke:#000000;stroke-width:2.0px;stroke-linecap:butt;stroke-linejoin:miter;stroke-opacity:1"/>
<path class="bond-10 atom-10 atom-11" d="M 143.8,113.3 L 162.6,119.5" style="fill:none;fill-rule:evenodd;stroke:#000000;stroke-width:2.0px;stroke-linecap:butt;stroke-linejoin:miter;stroke-opacity:1"/>
<path class="bond-21 atom-10 atom-22" d="M 143.8,113.3 L 127.6,124.8" style="fill:none;fill-rule:evenodd;stroke:#000000;stroke-width:2.0px;stroke-linecap:butt;stroke-linejoin:miter;stroke-opacity:1"/>
<path class="bond-11 atom-11 atom-12" d="M 160.6,119.9 L 162.3,128.0" style="fill:none;fill-rule:evenodd;stroke:#000000;stroke-width:2.0px;stroke-linecap:butt;stroke-linejoin:miter;stroke-opacity:1"/>
<path class="bond-11 atom-11 atom-12" d="M 162.3,128.0 L 163.9,136.0" style="fill:none;fill-rule:evenodd;stroke:#FF0000;stroke-width:2.0px;stroke-linecap:butt;stroke-linejoin:miter;stroke-opacity:1"/>
<path class="bond-11 atom-11 atom-12" d="M 164.5,119.1 L 166.2,127.2" style="fill:none;fill-rule:evenodd;stroke:#000000;stroke-width:2.0px;stroke-linecap:butt;stroke-linejoin:miter;stroke-opacity:1"/>
<path class="bond-11 atom-11 atom-12" d="M 166.2,127.2 L 167.8,135.2" style="fill:none;fill-rule:evenodd;stroke:#FF0000;stroke-width:2.0px;stroke-linecap:butt;stroke-linejoin:miter;stroke-opacity:1"/>
<path class="bond-12 atom-11 atom-13" d="M 162.6,119.5 L 168.7,114.1" style="fill:none;fill-rule:evenodd;stroke:#000000;stroke-width:2.0px;stroke-linecap:butt;stroke-linejoin:miter;stroke-opacity:1"/>
<path class="bond-12 atom-11 atom-13" d="M 168.7,114.1 L 174.8,108.7" style="fill:none;fill-rule:evenodd;stroke:#0000FF;stroke-width:2.0px;stroke-linecap:butt;stroke-linejoin:miter;stroke-opacity:1"/>
<path class="bond-13 atom-13 atom-14" d="M 176.1,103.1 L 173.1,95.5" style="fill:none;fill-rule:evenodd;stroke:#0000FF;stroke-width:2.0px;stroke-linecap:butt;stroke-linejoin:miter;stroke-opacity:1"/>
<path class="bond-13 atom-13 atom-14" d="M 173.1,95.5 L 170.1,87.9" style="fill:none;fill-rule:evenodd;stroke:#000000;stroke-width:2.0px;stroke-linecap:butt;stroke-linejoin:miter;stroke-opacity:1"/>
<path class="bond-37 atom-21 atom-13" d="M 194.9,115.8 L 187.5,111.8" style="fill:none;fill-rule:evenodd;stroke:#000000;stroke-width:2.0px;stroke-linecap:butt;stroke-linejoin:miter;stroke-opacity:1"/>
<path class="bond-37 atom-21 atom-13" d="M 187.5,111.8 L 180.1,107.8" style="fill:none;fill-rule:evenodd;stroke:#0000FF;stroke-width:2.0px;stroke-linecap:butt;stroke-linejoin:miter;stroke-opacity:1"/>
<path class="bond-14 atom-14 atom-15" d="M 170.1,87.9 L 176.4,69.1" style="fill:none;fill-rule:evenodd;stroke:#000000;stroke-width:2.0px;stroke-linecap:butt;stroke-linejoin:miter;stroke-opacity:1"/>
<path class="bond-15 atom-15 atom-16" d="M 176.4,69.1 L 193.3,58.7" style="fill:none;fill-rule:evenodd;stroke:#000000;stroke-width:2.0px;stroke-linecap:butt;stroke-linejoin:miter;stroke-opacity:1"/>
<path class="bond-16 atom-16 atom-17" d="M 193.3,58.7 L 212.9,61.6" style="fill:none;fill-rule:evenodd;stroke:#000000;stroke-width:2.0px;stroke-linecap:butt;stroke-linejoin:miter;stroke-opacity:1"/>
<path class="bond-17 atom-17 atom-18" d="M 212.9,61.6 L 226.1,76.5" style="fill:none;fill-rule:evenodd;stroke:#000000;stroke-width:2.0px;stroke-linecap:butt;stroke-linejoin:miter;stroke-opacity:1"/>
<path class="bond-18 atom-18 atom-19" d="M 226.1,76.5 L 226.3,84.7" style="fill:none;fill-rule:evenodd;stroke:#000000;stroke-width:2.0px;stroke-linecap:butt;stroke-linejoin:miter;stroke-opacity:1"/>
<path class="bond-18 atom-18 atom-19" d="M 226.3,84.7 L 226.6,93.0" style="fill:none;fill-rule:evenodd;stroke:#0000FF;stroke-width:2.0px;stroke-linecap:butt;stroke-linejoin:miter;stroke-opacity:1"/>
<path class="bond-19 atom-19 atom-20" d="M 224.0,99.6 L 219.2,105.7" style="fill:none;fill-rule:evenodd;stroke:#0000FF;stroke-width:2.0px;stroke-linecap:butt;stroke-linejoin:miter;stroke-opacity:1"/>
<path class="bond-19 atom-19 atom-20" d="M 219.2,105.7 L 214.3,111.8" style="fill:none;fill-rule:evenodd;stroke:#000000;stroke-width:2.0px;stroke-linecap:butt;stroke-linejoin:miter;stroke-opacity:1"/>
<path class="bond-20 atom-20 atom-21" d="M 214.3,111.8 L 194.9,115.8" style="fill:none;fill-rule:evenodd;stroke:#000000;stroke-width:2.0px;stroke-linecap:butt;stroke-linejoin:miter;stroke-opacity:1"/>
<path class="bond-22 atom-22 atom-23" d="M 127.6,124.8 L 125.4,144.5" style="fill:none;fill-rule:evenodd;stroke:#000000;stroke-width:2.0px;stroke-linecap:butt;stroke-linejoin:miter;stroke-opacity:1"/>
<path class="bond-22 atom-22 atom-23" d="M 123.3,127.3 L 121.8,141.1" style="fill:none;fill-rule:evenodd;stroke:#000000;stroke-width:2.0px;stroke-linecap:butt;stroke-linejoin:miter;stroke-opacity:1"/>
<path class="bond-38 atom-27 atom-22" d="M 111.6,113.0 L 127.6,124.8" style="fill:none;fill-rule:evenodd;stroke:#000000;stroke-width:2.0px;stroke-linecap:butt;stroke-linejoin:miter;stroke-opacity:1"/>
<path class="bond-23 atom-23 atom-24" d="M 125.4,144.5 L 107.2,152.4" style="fill:none;fill-rule:evenodd;stroke:#000000;stroke-width:2.0px;stroke-linecap:butt;stroke-linejoin:miter;stroke-opacity:1"/>
<path class="bond-24 atom-24 atom-25" d="M 107.2,152.4 L 100.5,147.5" style="fill:none;fill-rule:evenodd;stroke:#000000;stroke-width:2.0px;stroke-linecap:butt;stroke-linejoin:miter;stroke-opacity:1"/>
<path class="bond-24 atom-24 atom-25" d="M 100.5,147.5 L 93.9,142.6" style="fill:none;fill-rule:evenodd;stroke:#0000FF;stroke-width:2.0px;stroke-linecap:butt;stroke-linejoin:miter;stroke-opacity:1"/>
<path class="bond-24 atom-24 atom-25" d="M 107.6,147.8 L 102.9,144.3" style="fill:none;fill-rule:evenodd;stroke:#000000;stroke-width:2.0px;stroke-linecap:butt;stroke-linejoin:miter;stroke-opacity:1"/>
<path class="bond-24 atom-24 atom-25" d="M 102.9,144.3 L 98.2,140.9" style="fill:none;fill-rule:evenodd;stroke:#0000FF;stroke-width:2.0px;stroke-linecap:butt;stroke-linejoin:miter;stroke-opacity:1"/>
<path class="bond-25 atom-25 atom-26" d="M 91.6,137.4 L 92.5,129.1" style="fill:none;fill-rule:evenodd;stroke:#0000FF;stroke-width:2.0px;stroke-linecap:butt;stroke-linejoin:miter;stroke-opacity:1"/>
<path class="bond-25 atom-25 atom-26" d="M 92.5,129.1 L 93.5,120.9" style="fill:none;fill-rule:evenodd;stroke:#000000;stroke-width:2.0px;stroke-linecap:butt;stroke-linejoin:miter;stroke-opacity:1"/>
<path class="bond-26 atom-26 atom-27" d="M 93.5,120.9 L 111.6,113.0" style="fill:none;fill-rule:evenodd;stroke:#000000;stroke-width:2.0px;stroke-linecap:butt;stroke-linejoin:miter;stroke-opacity:1"/>
<path class="bond-26 atom-26 atom-27" d="M 97.8,123.4 L 110.5,117.8" style="fill:none;fill-rule:evenodd;stroke:#000000;stroke-width:2.0px;stroke-linecap:butt;stroke-linejoin:miter;stroke-opacity:1"/>
<path class="bond-27 atom-27 atom-28" d="M 111.6,113.0 L 114.2,105.3" style="fill:none;fill-rule:evenodd;stroke:#000000;stroke-width:2.0px;stroke-linecap:butt;stroke-linejoin:miter;stroke-opacity:1"/>
<path class="bond-27 atom-27 atom-28" d="M 114.2,105.3 L 116.8,97.5" style="fill:none;fill-rule:evenodd;stroke:#0000FF;stroke-width:2.0px;stroke-linecap:butt;stroke-linejoin:miter;stroke-opacity:1"/>
<path class="bond-28 atom-28 atom-29" d="M 115.6,90.9 L 111.0,84.5" style="fill:none;fill-rule:evenodd;stroke:#0000FF;stroke-width:2.0px;stroke-linecap:butt;stroke-linejoin:miter;stroke-opacity:1"/>
<path class="bond-28 atom-28 atom-29" d="M 111.0,84.5 L 106.4,78.0" style="fill:none;fill-rule:evenodd;stroke:#000000;stroke-width:2.0px;stroke-linecap:butt;stroke-linejoin:miter;stroke-opacity:1"/>
<path class="bond-29 atom-29 atom-30" d="M 106.4,78.0 L 86.6,80.0" style="fill:none;fill-rule:evenodd;stroke:#000000;stroke-width:2.0px;stroke-linecap:butt;stroke-linejoin:miter;stroke-opacity:1"/>
<path class="bond-29 atom-29 atom-30" d="M 103.0,74.4 L 89.2,75.7" style="fill:none;fill-rule:evenodd;stroke:#000000;stroke-width:2.0px;stroke-linecap:butt;stroke-linejoin:miter;stroke-opacity:1"/>
<path class="bond-36 atom-34 atom-29" d="M 114.6,60.0 L 106.4,78.0" style="fill:none;fill-rule:evenodd;stroke:#000000;stroke-width:2.0px;stroke-linecap:butt;stroke-linejoin:miter;stroke-opacity:1"/>
<path class="bond-30 atom-30 atom-31" d="M 86.6,80.0 L 75.1,63.8" style="fill:none;fill-rule:evenodd;stroke:#000000;stroke-width:2.0px;stroke-linecap:butt;stroke-linejoin:miter;stroke-opacity:1"/>
<path class="bond-31 atom-31 atom-32" d="M 75.1,63.8 L 83.3,45.8" style="fill:none;fill-rule:evenodd;stroke:#000000;stroke-width:2.0px;stroke-linecap:butt;stroke-linejoin:miter;stroke-opacity:1"/>
<path class="bond-31 atom-31 atom-32" d="M 79.9,62.8 L 85.7,50.1" style="fill:none;fill-rule:evenodd;stroke:#000000;stroke-width:2.0px;stroke-linecap:butt;stroke-linejoin:miter;stroke-opacity:1"/>
<path class="bond-32 atom-32 atom-33" d="M 83.3,45.8 L 103.1,43.8" style="fill:none;fill-rule:evenodd;stroke:#000000;stroke-width:2.0px;stroke-linecap:butt;stroke-linejoin:miter;stroke-opacity:1"/>
<path class="bond-33 atom-33 atom-34" d="M 103.1,43.8 L 114.6,60.0" style="fill:none;fill-rule:evenodd;stroke:#000000;stroke-width:2.0px;stroke-linecap:butt;stroke-linejoin:miter;stroke-opacity:1"/>
<path class="bond-33 atom-33 atom-34" d="M 101.6,48.6 L 109.6,59.9" style="fill:none;fill-rule:evenodd;stroke:#000000;stroke-width:2.0px;stroke-linecap:butt;stroke-linejoin:miter;stroke-opacity:1"/>
<path class="atom-3" d="M 155.6 7.3 L 158.9 7.3 L 158.9 7.9 L 156.3 7.9 L 156.3 9.6 L 158.6 9.6 L 158.6 10.3 L 156.3 10.3 L 156.3 12.9 L 155.6 12.9 L 155.6 7.3 " fill="#33CCCC"/>
<path class="atom-12" d="M 164.0 139.0 Q 164.0 137.6, 164.6 136.9 Q 165.3 136.1, 166.6 136.1 Q 167.8 136.1, 168.5 136.9 Q 169.1 137.6, 169.1 139.0 Q 169.1 140.4, 168.5 141.1 Q 167.8 141.9, 166.6 141.9 Q 165.3 141.9, 164.6 141.1 Q 164.0 140.4, 164.0 139.0 M 166.6 141.3 Q 167.4 141.3, 167.9 140.7 Q 168.3 140.1, 168.3 139.0 Q 168.3 137.9, 167.9 137.3 Q 167.4 136.8, 166.6 136.8 Q 165.7 136.8, 165.2 137.3 Q 164.8 137.9, 164.8 139.0 Q 164.8 140.1, 165.2 140.7 Q 165.7 141.3, 166.6 141.3 " fill="#FF0000"/>
<path class="atom-13" d="M 176.2 103.6 L 178.0 106.5 Q 178.2 106.8, 178.5 107.4 Q 178.8 107.9, 178.8 107.9 L 178.8 103.6 L 179.6 103.6 L 179.6 109.2 L 178.8 109.2 L 176.8 105.9 Q 176.6 105.5, 176.3 105.1 Q 176.1 104.7, 176.0 104.5 L 176.0 109.2 L 175.3 109.2 L 175.3 103.6 L 176.2 103.6 " fill="#0000FF"/>
<path class="atom-19" d="M 225.4 93.5 L 227.2 96.5 Q 227.4 96.8, 227.7 97.3 Q 228.0 97.8, 228.0 97.8 L 228.0 93.5 L 228.8 93.5 L 228.8 99.1 L 228.0 99.1 L 226.0 95.8 Q 225.8 95.5, 225.6 95.0 Q 225.3 94.6, 225.2 94.5 L 225.2 99.1 L 224.5 99.1 L 224.5 93.5 L 225.4 93.5 " fill="#0000FF"/>
<path class="atom-19" d="M 229.5 93.5 L 230.2 93.5 L 230.2 95.9 L 233.1 95.9 L 233.1 93.5 L 233.9 93.5 L 233.9 99.1 L 233.1 99.1 L 233.1 96.5 L 230.2 96.5 L 230.2 99.1 L 229.5 99.1 L 229.5 93.5 " fill="#0000FF"/>
<path class="atom-25" d="M 90.0 137.9 L 91.8 140.8 Q 92.0 141.1, 92.3 141.7 Q 92.6 142.2, 92.6 142.2 L 92.6 137.9 L 93.4 137.9 L 93.4 143.5 L 92.6 143.5 L 90.6 140.2 Q 90.4 139.8, 90.1 139.4 Q 89.9 139.0, 89.8 138.8 L 89.8 143.5 L 89.1 143.5 L 89.1 137.9 L 90.0 137.9 " fill="#0000FF"/>
<path class="atom-28" d="M 116.7 91.4 L 118.5 94.4 Q 118.7 94.6, 119.0 95.2 Q 119.3 95.7, 119.3 95.7 L 119.3 91.4 L 120.1 91.4 L 120.1 97.0 L 119.3 97.0 L 117.3 93.7 Q 117.1 93.4, 116.8 92.9 Q 116.6 92.5, 116.5 92.4 L 116.5 97.0 L 115.8 97.0 L 115.8 91.4 L 116.7 91.4 " fill="#0000FF"/>
<path class="bond-0 atom-0 atom-1" d="M 399.8,105.7 L 416.9,115.8" style="fill:none;fill-rule:evenodd;stroke:#000000;stroke-width:2.0px;stroke-linecap:butt;stroke-linejoin:miter;stroke-opacity:1"/>
<path class="bond-1 atom-1 atom-2" d="M 416.9,115.8 L 416.6,135.7" style="fill:none;fill-rule:evenodd;stroke:#000000;stroke-width:2.0px;stroke-linecap:butt;stroke-linejoin:miter;stroke-opacity:1"/>
<path class="bond-1 atom-1 atom-2" d="M 420.8,118.9 L 420.7,132.7" style="fill:none;fill-rule:evenodd;stroke:#000000;stroke-width:2.0px;stroke-linecap:butt;stroke-linejoin:miter;stroke-opacity:1"/>
<path class="bond-35 atom-7 atom-1" d="M 434.2,106.1 L 416.9,115.8" style="fill:none;fill-rule:evenodd;stroke:#000000;stroke-width:2.0px;stroke-linecap:butt;stroke-linejoin:miter;stroke-opacity:1"/>
<path class="bond-2 atom-2 atom-3" d="M 416.6,135.7 L 409.1,139.9" style="fill:none;fill-rule:evenodd;stroke:#000000;stroke-width:2.0px;stroke-linecap:butt;stroke-linejoin:miter;stroke-opacity:1"/>
<path class="bond-2 atom-2 atom-3" d="M 409.1,139.9 L 401.5,144.2" style="fill:none;fill-rule:evenodd;stroke:#33CCCC;stroke-width:2.0px;stroke-linecap:butt;stroke-linejoin:miter;stroke-opacity:1"/>
<path class="bond-3 atom-2 atom-4" d="M 416.6,135.7 L 433.7,145.8" style="fill:none;fill-rule:evenodd;stroke:#000000;stroke-width:2.0px;stroke-linecap:butt;stroke-linejoin:miter;stroke-opacity:1"/>
<path class="bond-4 atom-4 atom-5" d="M 433.7,145.8 L 451.0,136.1" style="fill:none;fill-rule:evenodd;stroke:#000000;stroke-width:2.0px;stroke-linecap:butt;stroke-linejoin:miter;stroke-opacity:1"/>
<path class="bond-4 atom-4 atom-5" d="M 434.4,140.9 L 446.5,134.1" style="fill:none;fill-rule:evenodd;stroke:#000000;stroke-width:2.0px;stroke-linecap:butt;stroke-linejoin:miter;stroke-opacity:1"/>
<path class="bond-5 atom-5 atom-6" d="M 451.0,136.1 L 451.3,116.3" style="fill:none;fill-rule:evenodd;stroke:#000000;stroke-width:2.0px;stroke-linecap:butt;stroke-linejoin:miter;stroke-opacity:1"/>
<path class="bond-6 atom-6 atom-7" d="M 451.3,116.3 L 434.2,106.1" style="fill:none;fill-rule:evenodd;stroke:#000000;stroke-width:2.0px;stroke-linecap:butt;stroke-linejoin:miter;stroke-opacity:1"/>
<path class="bond-6 atom-6 atom-7" d="M 446.7,118.2 L 434.7,111.1" style="fill:none;fill-rule:evenodd;stroke:#000000;stroke-width:2.0px;stroke-linecap:butt;stroke-linejoin:miter;stroke-opacity:1"/>
<path class="bond-7 atom-7 atom-8" d="M 434.2,106.1 L 434.5,86.3" style="fill:none;fill-rule:evenodd;stroke:#000000;stroke-width:2.0px;stroke-linecap:butt;stroke-linejoin:miter;stroke-opacity:1"/>
<path class="bond-8 atom-8 atom-9" d="M 434.5,86.3 L 451.8,76.6" style="fill:none;fill-rule:evenodd;stroke:#000000;stroke-width:2.0px;stroke-linecap:butt;stroke-linejoin:miter;stroke-opacity:1"/>
<path class="bond-9 atom-9 atom-10" d="M 451.8,76.6 L 454.1,56.9" style="fill:none;fill-rule:evenodd;stroke:#000000;stroke-width:2.0px;stroke-linecap:butt;stroke-linejoin:miter;stroke-opacity:1"/>
<path class="bond-9 atom-9 atom-10" d="M 456.1,74.1 L 457.7,60.3" style="fill:none;fill-rule:evenodd;stroke:#000000;stroke-width:2.0px;stroke-linecap:butt;stroke-linejoin:miter;stroke-opacity:1"/>
<path class="bond-36 atom-29 atom-9" d="M 467.2,83.7 L 459.5,80.1" style="fill:none;fill-rule:evenodd;stroke:#0000FF;stroke-width:2.0px;stroke-linecap:butt;stroke-linejoin:miter;stroke-opacity:1"/>
<path class="bond-36 atom-29 atom-9" d="M 459.5,80.1 L 451.8,76.6" style="fill:none;fill-rule:evenodd;stroke:#000000;stroke-width:2.0px;stroke-linecap:butt;stroke-linejoin:miter;stroke-opacity:1"/>
<path class="bond-10 atom-10 atom-11" d="M 454.1,56.9 L 439.5,43.4" style="fill:none;fill-rule:evenodd;stroke:#000000;stroke-width:2.0px;stroke-linecap:butt;stroke-linejoin:miter;stroke-opacity:1"/>
<path class="bond-21 atom-10 atom-22" d="M 454.1,56.9 L 473.6,53.0" style="fill:none;fill-rule:evenodd;stroke:#000000;stroke-width:2.0px;stroke-linecap:butt;stroke-linejoin:miter;stroke-opacity:1"/>
<path class="bond-11 atom-11 atom-12" d="M 441.5,43.9 L 443.3,35.9" style="fill:none;fill-rule:evenodd;stroke:#000000;stroke-width:2.0px;stroke-linecap:butt;stroke-linejoin:miter;stroke-opacity:1"/>
<path class="bond-11 atom-11 atom-12" d="M 443.3,35.9 L 445.1,27.9" style="fill:none;fill-rule:evenodd;stroke:#FF0000;stroke-width:2.0px;stroke-linecap:butt;stroke-linejoin:miter;stroke-opacity:1"/>
<path class="bond-11 atom-11 atom-12" d="M 437.6,43.0 L 439.4,35.0" style="fill:none;fill-rule:evenodd;stroke:#000000;stroke-width:2.0px;stroke-linecap:butt;stroke-linejoin:miter;stroke-opacity:1"/>
<path class="bond-11 atom-11 atom-12" d="M 439.4,35.0 L 441.2,27.0" style="fill:none;fill-rule:evenodd;stroke:#FF0000;stroke-width:2.0px;stroke-linecap:butt;stroke-linejoin:miter;stroke-opacity:1"/>
<path class="bond-12 atom-11 atom-13" d="M 439.5,43.4 L 431.4,46.0" style="fill:none;fill-rule:evenodd;stroke:#000000;stroke-width:2.0px;stroke-linecap:butt;stroke-linejoin:miter;stroke-opacity:1"/>
<path class="bond-12 atom-11 atom-13" d="M 431.4,46.0 L 423.2,48.5" style="fill:none;fill-rule:evenodd;stroke:#0000FF;stroke-width:2.0px;stroke-linecap:butt;stroke-linejoin:miter;stroke-opacity:1"/>
<path class="bond-13 atom-13 atom-14" d="M 420.4,52.6 L 420.0,60.9" style="fill:none;fill-rule:evenodd;stroke:#0000FF;stroke-width:2.0px;stroke-linecap:butt;stroke-linejoin:miter;stroke-opacity:1"/>
<path class="bond-13 atom-13 atom-14" d="M 420.0,60.9 L 419.6,69.1" style="fill:none;fill-rule:evenodd;stroke:#000000;stroke-width:2.0px;stroke-linecap:butt;stroke-linejoin:miter;stroke-opacity:1"/>
<path class="bond-38 atom-21 atom-13" d="M 408.6,33.5 L 413.3,39.8" style="fill:none;fill-rule:evenodd;stroke:#000000;stroke-width:2.0px;stroke-linecap:butt;stroke-linejoin:miter;stroke-opacity:1"/>
<path class="bond-38 atom-21 atom-13" d="M 413.3,39.8 L 418.1,46.0" style="fill:none;fill-rule:evenodd;stroke:#0000FF;stroke-width:2.0px;stroke-linecap:butt;stroke-linejoin:miter;stroke-opacity:1"/>
<path class="bond-14 atom-14 atom-15" d="M 419.6,69.1 L 406.2,83.7" style="fill:none;fill-rule:evenodd;stroke:#000000;stroke-width:2.0px;stroke-linecap:butt;stroke-linejoin:miter;stroke-opacity:1"/>
<path class="bond-15 atom-15 atom-16" d="M 406.2,83.7 L 386.5,86.2" style="fill:none;fill-rule:evenodd;stroke:#000000;stroke-width:2.0px;stroke-linecap:butt;stroke-linejoin:miter;stroke-opacity:1"/>
<path class="bond-16 atom-16 atom-17" d="M 386.5,86.2 L 369.8,75.5" style="fill:none;fill-rule:evenodd;stroke:#000000;stroke-width:2.0px;stroke-linecap:butt;stroke-linejoin:miter;stroke-opacity:1"/>
<path class="bond-17 atom-17 atom-18" d="M 369.8,75.5 L 363.9,56.5" style="fill:none;fill-rule:evenodd;stroke:#000000;stroke-width:2.0px;stroke-linecap:butt;stroke-linejoin:miter;stroke-opacity:1"/>
<path class="bond-18 atom-18 atom-19" d="M 363.9,56.5 L 367.1,49.0" style="fill:none;fill-rule:evenodd;stroke:#000000;stroke-width:2.0px;stroke-linecap:butt;stroke-linejoin:miter;stroke-opacity:1"/>
<path class="bond-18 atom-18 atom-19" d="M 367.1,49.0 L 370.2,41.5" style="fill:none;fill-rule:evenodd;stroke:#0000FF;stroke-width:2.0px;stroke-linecap:butt;stroke-linejoin:miter;stroke-opacity:1"/>
<path class="bond-19 atom-19 atom-20" d="M 374.2,36.9 L 381.7,33.0" style="fill:none;fill-rule:evenodd;stroke:#0000FF;stroke-width:2.0px;stroke-linecap:butt;stroke-linejoin:miter;stroke-opacity:1"/>
<path class="bond-19 atom-19 atom-20" d="M 381.7,33.0 L 389.2,29.1" style="fill:none;fill-rule:evenodd;stroke:#000000;stroke-width:2.0px;stroke-linecap:butt;stroke-linejoin:miter;stroke-opacity:1"/>
<path class="bond-20 atom-20 atom-21" d="M 389.2,29.1 L 408.6,33.5" style="fill:none;fill-rule:evenodd;stroke:#000000;stroke-width:2.0px;stroke-linecap:butt;stroke-linejoin:miter;stroke-opacity:1"/>
<path class="bond-22 atom-22 atom-23" d="M 473.6,53.0 L 483.7,36.0" style="fill:none;fill-rule:evenodd;stroke:#000000;stroke-width:2.0px;stroke-linecap:butt;stroke-linejoin:miter;stroke-opacity:1"/>
<path class="bond-22 atom-22 atom-23" d="M 478.5,52.5 L 485.6,40.5" style="fill:none;fill-rule:evenodd;stroke:#000000;stroke-width:2.0px;stroke-linecap:butt;stroke-linejoin:miter;stroke-opacity:1"/>
<path class="bond-39 atom-28 atom-22" d="M 483.3,70.3 L 473.6,53.0" style="fill:none;fill-rule:evenodd;stroke:#000000;stroke-width:2.0px;stroke-linecap:butt;stroke-linejoin:miter;stroke-opacity:1"/>
<path class="bond-23 atom-23 atom-24" d="M 483.7,36.0 L 503.6,36.2" style="fill:none;fill-rule:evenodd;stroke:#000000;stroke-width:2.0px;stroke-linecap:butt;stroke-linejoin:miter;stroke-opacity:1"/>
<path class="bond-24 atom-24 atom-25" d="M 503.6,36.2 L 507.6,29.4" style="fill:none;fill-rule:evenodd;stroke:#000000;stroke-width:2.0px;stroke-linecap:butt;stroke-linejoin:miter;stroke-opacity:1"/>
<path class="bond-24 atom-24 atom-25" d="M 507.6,29.4 L 511.7,22.6" style="fill:none;fill-rule:evenodd;stroke:#FF0000;stroke-width:2.0px;stroke-linecap:butt;stroke-linejoin:miter;stroke-opacity:1"/>
<path class="bond-25 atom-24 atom-26" d="M 503.6,36.2 L 513.3,53.5" style="fill:none;fill-rule:evenodd;stroke:#000000;stroke-width:2.0px;stroke-linecap:butt;stroke-linejoin:miter;stroke-opacity:1"/>
<path class="bond-25 atom-24 atom-26" d="M 501.5,40.7 L 508.3,52.9" style="fill:none;fill-rule:evenodd;stroke:#000000;stroke-width:2.0px;stroke-linecap:butt;stroke-linejoin:miter;stroke-opacity:1"/>
<path class="bond-26 atom-26 atom-27" d="M 513.3,53.5 L 509.2,60.4" style="fill:none;fill-rule:evenodd;stroke:#000000;stroke-width:2.0px;stroke-linecap:butt;stroke-linejoin:miter;stroke-opacity:1"/>
<path class="bond-26 atom-26 atom-27" d="M 509.2,60.4 L 505.1,67.3" style="fill:none;fill-rule:evenodd;stroke:#0000FF;stroke-width:2.0px;stroke-linecap:butt;stroke-linejoin:miter;stroke-opacity:1"/>
<path class="bond-27 atom-27 atom-28" d="M 500.5,70.5 L 491.9,70.4" style="fill:none;fill-rule:evenodd;stroke:#0000FF;stroke-width:2.0px;stroke-linecap:butt;stroke-linejoin:miter;stroke-opacity:1"/>
<path class="bond-27 atom-27 atom-28" d="M 491.9,70.4 L 483.3,70.3" style="fill:none;fill-rule:evenodd;stroke:#000000;stroke-width:2.0px;stroke-linecap:butt;stroke-linejoin:miter;stroke-opacity:1"/>
<path class="bond-27 atom-27 atom-28" d="M 498.0,66.5 L 491.9,66.5" style="fill:none;fill-rule:evenodd;stroke:#0000FF;stroke-width:2.0px;stroke-linecap:butt;stroke-linejoin:miter;stroke-opacity:1"/>
<path class="bond-27 atom-27 atom-28" d="M 491.9,66.5 L 485.9,66.4" style="fill:none;fill-rule:evenodd;stroke:#000000;stroke-width:2.0px;stroke-linecap:butt;stroke-linejoin:miter;stroke-opacity:1"/>
<path class="bond-28 atom-28 atom-29" d="M 483.3,70.3 L 477.9,76.2" style="fill:none;fill-rule:evenodd;stroke:#000000;stroke-width:2.0px;stroke-linecap:butt;stroke-linejoin:miter;stroke-opacity:1"/>
<path class="bond-28 atom-28 atom-29" d="M 477.9,76.2 L 472.4,82.1" style="fill:none;fill-rule:evenodd;stroke:#0000FF;stroke-width:2.0px;stroke-linecap:butt;stroke-linejoin:miter;stroke-opacity:1"/>
<path class="bond-29 atom-29 atom-30" d="M 470.5,88.2 L 472.1,96.3" style="fill:none;fill-rule:evenodd;stroke:#0000FF;stroke-width:2.0px;stroke-linecap:butt;stroke-linejoin:miter;stroke-opacity:1"/>
<path class="bond-29 atom-29 atom-30" d="M 472.1,96.3 L 473.7,104.4" style="fill:none;fill-rule:evenodd;stroke:#000000;stroke-width:2.0px;stroke-linecap:butt;stroke-linejoin:miter;stroke-opacity:1"/>
<path class="bond-30 atom-30 atom-31" d="M 473.7,104.4 L 492.5,110.7" style="fill:none;fill-rule:evenodd;stroke:#000000;stroke-width:2.0px;stroke-linecap:butt;stroke-linejoin:miter;stroke-opacity:1"/>
<path class="bond-30 atom-30 atom-31" d="M 475.2,109.1 L 488.4,113.5" style="fill:none;fill-rule:evenodd;stroke:#000000;stroke-width:2.0px;stroke-linecap:butt;stroke-linejoin:miter;stroke-opacity:1"/>
<path class="bond-37 atom-35 atom-30" d="M 458.8,117.4 L 473.7,104.4" style="fill:none;fill-rule:evenodd;stroke:#000000;stroke-width:2.0px;stroke-linecap:butt;stroke-linejoin:miter;stroke-opacity:1"/>
<path class="bond-31 atom-31 atom-32" d="M 492.5,110.7 L 496.3,130.2" style="fill:none;fill-rule:evenodd;stroke:#000000;stroke-width:2.0px;stroke-linecap:butt;stroke-linejoin:miter;stroke-opacity:1"/>
<path class="bond-32 atom-32 atom-33" d="M 496.3,130.2 L 481.4,143.3" style="fill:none;fill-rule:evenodd;stroke:#000000;stroke-width:2.0px;stroke-linecap:butt;stroke-linejoin:miter;stroke-opacity:1"/>
<path class="bond-32 atom-32 atom-33" d="M 491.5,129.2 L 481.0,138.3" style="fill:none;fill-rule:evenodd;stroke:#000000;stroke-width:2.0px;stroke-linecap:butt;stroke-linejoin:miter;stroke-opacity:1"/>
<path class="bond-33 atom-33 atom-34" d="M 481.4,143.3 L 462.6,136.9" style="fill:none;fill-rule:evenodd;stroke:#000000;stroke-width:2.0px;stroke-linecap:butt;stroke-linejoin:miter;stroke-opacity:1"/>
<path class="bond-34 atom-34 atom-35" d="M 462.6,136.9 L 458.8,117.4" style="fill:none;fill-rule:evenodd;stroke:#000000;stroke-width:2.0px;stroke-linecap:butt;stroke-linejoin:miter;stroke-opacity:1"/>
<path class="bond-34 atom-34 atom-35" d="M 465.9,133.2 L 463.2,119.6" style="fill:none;fill-rule:evenodd;stroke:#000000;stroke-width:2.0px;stroke-linecap:butt;stroke-linejoin:miter;stroke-opacity:1"/>
<path class="atom-3" d="M 397.7 142.6 L 401.0 142.6 L 401.0 143.2 L 398.4 143.2 L 398.4 144.9 L 400.7 144.9 L 400.7 145.6 L 398.4 145.6 L 398.4 148.2 L 397.7 148.2 L 397.7 142.6 " fill="#33CCCC"/>
<path class="atom-12" d="M 441.3 24.1 Q 441.3 22.7, 442.0 22.0 Q 442.7 21.2, 443.9 21.2 Q 445.2 21.2, 445.8 22.0 Q 446.5 22.7, 446.5 24.1 Q 446.5 25.4, 445.8 26.2 Q 445.1 27.0, 443.9 27.0 Q 442.7 27.0, 442.0 26.2 Q 441.3 25.5, 441.3 24.1 M 443.9 26.4 Q 444.8 26.4, 445.2 25.8 Q 445.7 25.2, 445.7 24.1 Q 445.7 23.0, 445.2 22.4 Q 444.8 21.9, 443.9 21.9 Q 443.1 21.9, 442.6 22.4 Q 442.1 23.0, 442.1 24.1 Q 442.1 25.2, 442.6 25.8 Q 443.1 26.4, 443.9 26.4 " fill="#FF0000"/>
<path class="atom-13" d="M 419.3 46.5 L 421.2 49.5 Q 421.4 49.8, 421.7 50.3 Q 422.0 50.8, 422.0 50.9 L 422.0 46.5 L 422.7 46.5 L 422.7 52.1 L 422.0 52.1 L 420.0 48.9 Q 419.7 48.5, 419.5 48.0 Q 419.3 47.6, 419.2 47.5 L 419.2 52.1 L 418.5 52.1 L 418.5 46.5 L 419.3 46.5 " fill="#0000FF"/>
<path class="atom-19" d="M 364.4 35.4 L 365.2 35.4 L 365.2 37.8 L 368.0 37.8 L 368.0 35.4 L 368.8 35.4 L 368.8 41.0 L 368.0 41.0 L 368.0 38.4 L 365.2 38.4 L 365.2 41.0 L 364.4 41.0 L 364.4 35.4 " fill="#0000FF"/>
<path class="atom-19" d="M 370.3 35.4 L 372.2 38.4 Q 372.4 38.7, 372.7 39.2 Q 373.0 39.7, 373.0 39.8 L 373.0 35.4 L 373.7 35.4 L 373.7 41.0 L 372.9 41.0 L 371.0 37.8 Q 370.7 37.4, 370.5 37.0 Q 370.3 36.5, 370.2 36.4 L 370.2 41.0 L 369.5 41.0 L 369.5 35.4 L 370.3 35.4 " fill="#0000FF"/>
<path class="atom-25" d="M 511.1 19.2 Q 511.1 17.8, 511.8 17.1 Q 512.5 16.3, 513.7 16.3 Q 514.9 16.3, 515.6 17.1 Q 516.3 17.8, 516.3 19.2 Q 516.3 20.5, 515.6 21.3 Q 514.9 22.1, 513.7 22.1 Q 512.5 22.1, 511.8 21.3 Q 511.1 20.5, 511.1 19.2 M 513.7 21.5 Q 514.6 21.5, 515.0 20.9 Q 515.5 20.3, 515.5 19.2 Q 515.5 18.1, 515.0 17.5 Q 514.6 17.0, 513.7 17.0 Q 512.8 17.0, 512.4 17.5 Q 511.9 18.1, 511.9 19.2 Q 511.9 20.3, 512.4 20.9 Q 512.8 21.5, 513.7 21.5 " fill="#FF0000"/>
<path class="atom-25" d="M 517.0 16.4 L 517.7 16.4 L 517.7 18.8 L 520.6 18.8 L 520.6 16.4 L 521.4 16.4 L 521.4 22.0 L 520.6 22.0 L 520.6 19.4 L 517.7 19.4 L 517.7 22.0 L 517.0 22.0 L 517.0 16.4 " fill="#FF0000"/>
<path class="atom-27" d="M 501.9 67.8 L 503.7 70.7 Q 503.9 71.0, 504.2 71.6 Q 504.5 72.1, 504.5 72.1 L 504.5 67.8 L 505.2 67.8 L 505.2 73.4 L 504.5 73.4 L 502.5 70.1 Q 502.3 69.8, 502.0 69.3 Q 501.8 68.9, 501.7 68.7 L 501.7 73.4 L 501.0 73.4 L 501.0 67.8 L 501.9 67.8 " fill="#0000FF"/>
<path class="atom-29" d="M 468.6 82.1 L 470.4 85.1 Q 470.6 85.4, 470.9 85.9 Q 471.2 86.4, 471.2 86.4 L 471.2 82.1 L 471.9 82.1 L 471.9 87.7 L 471.2 87.7 L 469.2 84.4 Q 469.0 84.1, 468.7 83.6 Q 468.5 83.2, 468.4 83.1 L 468.4 87.7 L 467.7 87.7 L 467.7 82.1 L 468.6 82.1 " fill="#0000FF"/>
<path class="bond-0 atom-0 atom-1" d="M 709.6,69.4 L 721.1,58.1" style="fill:none;fill-rule:evenodd;stroke:#000000;stroke-width:2.0px;stroke-linecap:butt;stroke-linejoin:miter;stroke-opacity:1"/>
<path class="bond-1 atom-1 atom-2" d="M 721.1,58.1 L 711.6,40.7" style="fill:none;fill-rule:evenodd;stroke:#000000;stroke-width:2.0px;stroke-linecap:butt;stroke-linejoin:miter;stroke-opacity:1"/>
<path class="bond-1 atom-1 atom-2" d="M 723.2,53.6 L 716.6,41.4" style="fill:none;fill-rule:evenodd;stroke:#000000;stroke-width:2.0px;stroke-linecap:butt;stroke-linejoin:miter;stroke-opacity:1"/>
<path class="bond-34 atom-7 atom-1" d="M 740.9,58.7 L 721.1,58.1" style="fill:none;fill-rule:evenodd;stroke:#000000;stroke-width:2.0px;stroke-linecap:butt;stroke-linejoin:miter;stroke-opacity:1"/>
<path class="bond-2 atom-2 atom-3" d="M 711.6,40.7 L 722.0,23.8" style="fill:none;fill-rule:evenodd;stroke:#000000;stroke-width:2.0px;stroke-linecap:butt;stroke-linejoin:miter;stroke-opacity:1"/>
<path class="bond-3 atom-3 atom-4" d="M 722.0,23.8 L 741.9,24.3" style="fill:none;fill-rule:evenodd;stroke:#000000;stroke-width:2.0px;stroke-linecap:butt;stroke-linejoin:miter;stroke-opacity:1"/>
<path class="bond-3 atom-3 atom-4" d="M 724.9,27.8 L 738.8,28.2" style="fill:none;fill-rule:evenodd;stroke:#000000;stroke-width:2.0px;stroke-linecap:butt;stroke-linejoin:miter;stroke-opacity:1"/>
<path class="bond-4 atom-4 atom-5" d="M 741.9,24.3 L 751.3,41.8" style="fill:none;fill-rule:evenodd;stroke:#000000;stroke-width:2.0px;stroke-linecap:butt;stroke-linejoin:miter;stroke-opacity:1"/>
<path class="bond-5 atom-5 atom-6" d="M 751.3,41.8 L 760.2,42.0" style="fill:none;fill-rule:evenodd;stroke:#000000;stroke-width:2.0px;stroke-linecap:butt;stroke-linejoin:miter;stroke-opacity:1"/>
<path class="bond-5 atom-5 atom-6" d="M 760.2,42.0 L 769.0,42.3" style="fill:none;fill-rule:evenodd;stroke:#33CCCC;stroke-width:2.0px;stroke-linecap:butt;stroke-linejoin:miter;stroke-opacity:1"/>
<path class="bond-6 atom-5 atom-7" d="M 751.3,41.8 L 740.9,58.7" style="fill:none;fill-rule:evenodd;stroke:#000000;stroke-width:2.0px;stroke-linecap:butt;stroke-linejoin:miter;stroke-opacity:1"/>
<path class="bond-6 atom-5 atom-7" d="M 746.4,42.2 L 739.1,54.1" style="fill:none;fill-rule:evenodd;stroke:#000000;stroke-width:2.0px;stroke-linecap:butt;stroke-linejoin:miter;stroke-opacity:1"/>
<path class="bond-7 atom-7 atom-8" d="M 740.9,58.7 L 744.7,65.7" style="fill:none;fill-rule:evenodd;stroke:#000000;stroke-width:2.0px;stroke-linecap:butt;stroke-linejoin:miter;stroke-opacity:1"/>
<path class="bond-7 atom-7 atom-8" d="M 744.7,65.7 L 748.6,72.8" style="fill:none;fill-rule:evenodd;stroke:#FF0000;stroke-width:2.0px;stroke-linecap:butt;stroke-linejoin:miter;stroke-opacity:1"/>
<path class="bond-8 atom-8 atom-9" d="M 748.3,79.5 L 744.1,86.3" style="fill:none;fill-rule:evenodd;stroke:#FF0000;stroke-width:2.0px;stroke-linecap:butt;stroke-linejoin:miter;stroke-opacity:1"/>
<path class="bond-8 atom-8 atom-9" d="M 744.1,86.3 L 740.0,93.0" style="fill:none;fill-rule:evenodd;stroke:#000000;stroke-width:2.0px;stroke-linecap:butt;stroke-linejoin:miter;stroke-opacity:1"/>
<path class="bond-9 atom-9 atom-10" d="M 740.0,93.0 L 747.5,111.4" style="fill:none;fill-rule:evenodd;stroke:#000000;stroke-width:2.0px;stroke-linecap:butt;stroke-linejoin:miter;stroke-opacity:1"/>
<path class="bond-9 atom-9 atom-10" d="M 737.4,97.3 L 742.7,110.1" style="fill:none;fill-rule:evenodd;stroke:#000000;stroke-width:2.0px;stroke-linecap:butt;stroke-linejoin:miter;stroke-opacity:1"/>
<path class="bond-35 atom-28 atom-9" d="M 722.8,94.4 L 731.4,93.7" style="fill:none;fill-rule:evenodd;stroke:#0000FF;stroke-width:2.0px;stroke-linecap:butt;stroke-linejoin:miter;stroke-opacity:1"/>
<path class="bond-35 atom-28 atom-9" d="M 731.4,93.7 L 740.0,93.0" style="fill:none;fill-rule:evenodd;stroke:#000000;stroke-width:2.0px;stroke-linecap:butt;stroke-linejoin:miter;stroke-opacity:1"/>
<path class="bond-10 atom-10 atom-11" d="M 747.5,111.4 L 766.8,116.0" style="fill:none;fill-rule:evenodd;stroke:#000000;stroke-width:2.0px;stroke-linecap:butt;stroke-linejoin:miter;stroke-opacity:1"/>
<path class="bond-21 atom-10 atom-22" d="M 747.5,111.4 L 732.4,124.2" style="fill:none;fill-rule:evenodd;stroke:#000000;stroke-width:2.0px;stroke-linecap:butt;stroke-linejoin:miter;stroke-opacity:1"/>
<path class="bond-11 atom-11 atom-12" d="M 764.9,116.6 L 767.2,124.4" style="fill:none;fill-rule:evenodd;stroke:#000000;stroke-width:2.0px;stroke-linecap:butt;stroke-linejoin:miter;stroke-opacity:1"/>
<path class="bond-11 atom-11 atom-12" d="M 767.2,124.4 L 769.6,132.3" style="fill:none;fill-rule:evenodd;stroke:#FF0000;stroke-width:2.0px;stroke-linecap:butt;stroke-linejoin:miter;stroke-opacity:1"/>
<path class="bond-11 atom-11 atom-12" d="M 768.7,115.5 L 771.1,123.3" style="fill:none;fill-rule:evenodd;stroke:#000000;stroke-width:2.0px;stroke-linecap:butt;stroke-linejoin:miter;stroke-opacity:1"/>
<path class="bond-11 atom-11 atom-12" d="M 771.1,123.3 L 773.4,131.2" style="fill:none;fill-rule:evenodd;stroke:#FF0000;stroke-width:2.0px;stroke-linecap:butt;stroke-linejoin:miter;stroke-opacity:1"/>
<path class="bond-12 atom-11 atom-13" d="M 766.8,116.0 L 772.4,110.2" style="fill:none;fill-rule:evenodd;stroke:#000000;stroke-width:2.0px;stroke-linecap:butt;stroke-linejoin:miter;stroke-opacity:1"/>
<path class="bond-12 atom-11 atom-13" d="M 772.4,110.2 L 777.9,104.4" style="fill:none;fill-rule:evenodd;stroke:#0000FF;stroke-width:2.0px;stroke-linecap:butt;stroke-linejoin:miter;stroke-opacity:1"/>
<path class="bond-13 atom-13 atom-14" d="M 778.9,98.3 L 775.3,91.1" style="fill:none;fill-rule:evenodd;stroke:#0000FF;stroke-width:2.0px;stroke-linecap:butt;stroke-linejoin:miter;stroke-opacity:1"/>
<path class="bond-13 atom-13 atom-14" d="M 775.3,91.1 L 771.7,83.9" style="fill:none;fill-rule:evenodd;stroke:#000000;stroke-width:2.0px;stroke-linecap:butt;stroke-linejoin:miter;stroke-opacity:1"/>
<path class="bond-37 atom-21 atom-13" d="M 798.7,109.6 L 790.9,106.2" style="fill:none;fill-rule:evenodd;stroke:#000000;stroke-width:2.0px;stroke-linecap:butt;stroke-linejoin:miter;stroke-opacity:1"/>
<path class="bond-37 atom-21 atom-13" d="M 790.9,106.2 L 783.1,102.8" style="fill:none;fill-rule:evenodd;stroke:#0000FF;stroke-width:2.0px;stroke-linecap:butt;stroke-linejoin:miter;stroke-opacity:1"/>
<path class="bond-14 atom-14 atom-15" d="M 771.7,83.9 L 776.3,64.6" style="fill:none;fill-rule:evenodd;stroke:#000000;stroke-width:2.0px;stroke-linecap:butt;stroke-linejoin:miter;stroke-opacity:1"/>
<path class="bond-15 atom-15 atom-16" d="M 776.3,64.6 L 792.3,52.8" style="fill:none;fill-rule:evenodd;stroke:#000000;stroke-width:2.0px;stroke-linecap:butt;stroke-linejoin:miter;stroke-opacity:1"/>
<path class="bond-16 atom-16 atom-17" d="M 792.3,52.8 L 812.1,54.1" style="fill:none;fill-rule:evenodd;stroke:#000000;stroke-width:2.0px;stroke-linecap:butt;stroke-linejoin:miter;stroke-opacity:1"/>
<path class="bond-17 atom-17 atom-18" d="M 812.1,54.1 L 826.5,67.7" style="fill:none;fill-rule:evenodd;stroke:#000000;stroke-width:2.0px;stroke-linecap:butt;stroke-linejoin:miter;stroke-opacity:1"/>
<path class="bond-18 atom-18 atom-19" d="M 826.5,67.7 L 827.4,75.9" style="fill:none;fill-rule:evenodd;stroke:#000000;stroke-width:2.0px;stroke-linecap:butt;stroke-linejoin:miter;stroke-opacity:1"/>
<path class="bond-18 atom-18 atom-19" d="M 827.4,75.9 L 828.3,84.1" style="fill:none;fill-rule:evenodd;stroke:#0000FF;stroke-width:2.0px;stroke-linecap:butt;stroke-linejoin:miter;stroke-opacity:1"/>
<path class="bond-19 atom-19 atom-20" d="M 826.5,90.8 L 822.1,97.4" style="fill:none;fill-rule:evenodd;stroke:#0000FF;stroke-width:2.0px;stroke-linecap:butt;stroke-linejoin:miter;stroke-opacity:1"/>
<path class="bond-19 atom-19 atom-20" d="M 822.1,97.4 L 817.7,104.0" style="fill:none;fill-rule:evenodd;stroke:#000000;stroke-width:2.0px;stroke-linecap:butt;stroke-linejoin:miter;stroke-opacity:1"/>
<path class="bond-20 atom-20 atom-21" d="M 817.7,104.0 L 798.7,109.6" style="fill:none;fill-rule:evenodd;stroke:#000000;stroke-width:2.0px;stroke-linecap:butt;stroke-linejoin:miter;stroke-opacity:1"/>
<path class="bond-22 atom-22 atom-23" d="M 732.4,124.2 L 731.9,144.1" style="fill:none;fill-rule:evenodd;stroke:#000000;stroke-width:2.0px;stroke-linecap:butt;stroke-linejoin:miter;stroke-opacity:1"/>
<path class="bond-22 atom-22 atom-23" d="M 728.4,127.1 L 728.0,141.0" style="fill:none;fill-rule:evenodd;stroke:#000000;stroke-width:2.0px;stroke-linecap:butt;stroke-linejoin:miter;stroke-opacity:1"/>
<path class="bond-38 atom-27 atom-22" d="M 715.5,113.8 L 732.4,124.2" style="fill:none;fill-rule:evenodd;stroke:#000000;stroke-width:2.0px;stroke-linecap:butt;stroke-linejoin:miter;stroke-opacity:1"/>
<path class="bond-23 atom-23 atom-24" d="M 731.9,144.1 L 714.4,153.5" style="fill:none;fill-rule:evenodd;stroke:#000000;stroke-width:2.0px;stroke-linecap:butt;stroke-linejoin:miter;stroke-opacity:1"/>
<path class="bond-24 atom-24 atom-25" d="M 714.4,153.5 L 697.5,143.1" style="fill:none;fill-rule:evenodd;stroke:#000000;stroke-width:2.0px;stroke-linecap:butt;stroke-linejoin:miter;stroke-opacity:1"/>
<path class="bond-24 atom-24 atom-25" d="M 714.0,148.6 L 702.2,141.3" style="fill:none;fill-rule:evenodd;stroke:#000000;stroke-width:2.0px;stroke-linecap:butt;stroke-linejoin:miter;stroke-opacity:1"/>
<path class="bond-25 atom-25 atom-26" d="M 697.5,143.1 L 698.1,123.3" style="fill:none;fill-rule:evenodd;stroke:#000000;stroke-width:2.0px;stroke-linecap:butt;stroke-linejoin:miter;stroke-opacity:1"/>
<path class="bond-26 atom-26 atom-27" d="M 698.1,123.3 L 715.5,113.8" style="fill:none;fill-rule:evenodd;stroke:#000000;stroke-width:2.0px;stroke-linecap:butt;stroke-linejoin:miter;stroke-opacity:1"/>
<path class="bond-26 atom-26 atom-27" d="M 702.6,125.4 L 714.8,118.7" style="fill:none;fill-rule:evenodd;stroke:#000000;stroke-width:2.0px;stroke-linecap:butt;stroke-linejoin:miter;stroke-opacity:1"/>
<path class="bond-27 atom-27 atom-28" d="M 715.5,113.8 L 717.5,105.9" style="fill:none;fill-rule:evenodd;stroke:#000000;stroke-width:2.0px;stroke-linecap:butt;stroke-linejoin:miter;stroke-opacity:1"/>
<path class="bond-27 atom-27 atom-28" d="M 717.5,105.9 L 719.4,97.9" style="fill:none;fill-rule:evenodd;stroke:#0000FF;stroke-width:2.0px;stroke-linecap:butt;stroke-linejoin:miter;stroke-opacity:1"/>
<path class="bond-28 atom-28 atom-29" d="M 717.6,91.5 L 712.4,85.5" style="fill:none;fill-rule:evenodd;stroke:#0000FF;stroke-width:2.0px;stroke-linecap:butt;stroke-linejoin:miter;stroke-opacity:1"/>
<path class="bond-28 atom-28 atom-29" d="M 712.4,85.5 L 707.3,79.4" style="fill:none;fill-rule:evenodd;stroke:#000000;stroke-width:2.0px;stroke-linecap:butt;stroke-linejoin:miter;stroke-opacity:1"/>
<path class="bond-29 atom-29 atom-30" d="M 707.3,79.4 L 714.0,60.8" style="fill:none;fill-rule:evenodd;stroke:#000000;stroke-width:2.0px;stroke-linecap:butt;stroke-linejoin:miter;stroke-opacity:1"/>
<path class="bond-29 atom-29 atom-30" d="M 704.6,75.3 L 709.2,62.2" style="fill:none;fill-rule:evenodd;stroke:#000000;stroke-width:2.0px;stroke-linecap:butt;stroke-linejoin:miter;stroke-opacity:1"/>
<path class="bond-36 atom-34 atom-29" d="M 687.8,83.0 L 707.3,79.4" style="fill:none;fill-rule:evenodd;stroke:#000000;stroke-width:2.0px;stroke-linecap:butt;stroke-linejoin:miter;stroke-opacity:1"/>
<path class="bond-30 atom-30 atom-31" d="M 714.0,60.8 L 701.1,45.6" style="fill:none;fill-rule:evenodd;stroke:#000000;stroke-width:2.0px;stroke-linecap:butt;stroke-linejoin:miter;stroke-opacity:1"/>
<path class="bond-31 atom-31 atom-32" d="M 701.1,45.6 L 681.6,49.2" style="fill:none;fill-rule:evenodd;stroke:#000000;stroke-width:2.0px;stroke-linecap:butt;stroke-linejoin:miter;stroke-opacity:1"/>
<path class="bond-31 atom-31 atom-32" d="M 698.9,50.1 L 685.2,52.6" style="fill:none;fill-rule:evenodd;stroke:#000000;stroke-width:2.0px;stroke-linecap:butt;stroke-linejoin:miter;stroke-opacity:1"/>
<path class="bond-32 atom-32 atom-33" d="M 681.6,49.2 L 674.9,67.9" style="fill:none;fill-rule:evenodd;stroke:#000000;stroke-width:2.0px;stroke-linecap:butt;stroke-linejoin:miter;stroke-opacity:1"/>
<path class="bond-33 atom-33 atom-34" d="M 674.9,67.9 L 687.8,83.0" style="fill:none;fill-rule:evenodd;stroke:#000000;stroke-width:2.0px;stroke-linecap:butt;stroke-linejoin:miter;stroke-opacity:1"/>
<path class="bond-33 atom-33 atom-34" d="M 679.9,67.6 L 688.9,78.2" style="fill:none;fill-rule:evenodd;stroke:#000000;stroke-width:2.0px;stroke-linecap:butt;stroke-linejoin:miter;stroke-opacity:1"/>
<path class="atom-6" d="M 769.5 39.5 L 772.8 39.5 L 772.8 40.1 L 770.2 40.1 L 770.2 41.9 L 772.5 41.9 L 772.5 42.5 L 770.2 42.5 L 770.2 45.1 L 769.5 45.1 L 769.5 39.5 " fill="#33CCCC"/>
<path class="atom-8" d="M 747.8 76.1 Q 747.8 74.8, 748.5 74.0 Q 749.1 73.3, 750.4 73.3 Q 751.6 73.3, 752.3 74.0 Q 753.0 74.8, 753.0 76.1 Q 753.0 77.5, 752.3 78.3 Q 751.6 79.0, 750.4 79.0 Q 749.1 79.0, 748.5 78.3 Q 747.8 77.5, 747.8 76.1 M 750.4 78.4 Q 751.2 78.4, 751.7 77.8 Q 752.2 77.3, 752.2 76.1 Q 752.2 75.0, 751.7 74.5 Q 751.2 73.9, 750.4 73.9 Q 749.5 73.9, 749.0 74.5 Q 748.6 75.0, 748.6 76.1 Q 748.6 77.3, 749.0 77.8 Q 749.5 78.4, 750.4 78.4 " fill="#FF0000"/>
<path class="atom-12" d="M 769.9 135.1 Q 769.9 133.7, 770.5 133.0 Q 771.2 132.2, 772.4 132.2 Q 773.7 132.2, 774.4 133.0 Q 775.0 133.7, 775.0 135.1 Q 775.0 136.4, 774.3 137.2 Q 773.7 138.0, 772.4 138.0 Q 771.2 138.0, 770.5 137.2 Q 769.9 136.4, 769.9 135.1 M 772.4 137.4 Q 773.3 137.4, 773.8 136.8 Q 774.2 136.2, 774.2 135.1 Q 774.2 134.0, 773.8 133.4 Q 773.3 132.9, 772.4 132.9 Q 771.6 132.9, 771.1 133.4 Q 770.7 134.0, 770.7 135.1 Q 770.7 136.2, 771.1 136.8 Q 771.6 137.4, 772.4 137.4 " fill="#FF0000"/>
<path class="atom-13" d="M 779.3 98.8 L 781.1 101.8 Q 781.3 102.1, 781.6 102.6 Q 781.9 103.2, 781.9 103.2 L 781.9 98.8 L 782.6 98.8 L 782.6 104.5 L 781.9 104.5 L 779.9 101.2 Q 779.7 100.8, 779.4 100.4 Q 779.2 100.0, 779.1 99.8 L 779.1 104.5 L 778.4 104.5 L 778.4 98.8 L 779.3 98.8 " fill="#0000FF"/>
<path class="atom-19" d="M 827.5 84.6 L 829.3 87.6 Q 829.5 87.9, 829.8 88.4 Q 830.1 89.0, 830.1 89.0 L 830.1 84.6 L 830.8 84.6 L 830.8 90.3 L 830.1 90.3 L 828.1 87.0 Q 827.9 86.6, 827.6 86.2 Q 827.4 85.8, 827.3 85.6 L 827.3 90.3 L 826.6 90.3 L 826.6 84.6 L 827.5 84.6 " fill="#0000FF"/>
<path class="atom-19" d="M 831.5 84.6 L 832.3 84.6 L 832.3 87.0 L 835.1 87.0 L 835.1 84.6 L 835.9 84.6 L 835.9 90.3 L 835.1 90.3 L 835.1 87.7 L 832.3 87.7 L 832.3 90.3 L 831.5 90.3 L 831.5 84.6 " fill="#0000FF"/>
<path class="atom-28" d="M 719.0 91.7 L 720.8 94.7 Q 721.0 95.0, 721.3 95.5 Q 721.6 96.1, 721.6 96.1 L 721.6 91.7 L 722.3 91.7 L 722.3 97.4 L 721.6 97.4 L 719.6 94.1 Q 719.4 93.7, 719.1 93.3 Q 718.9 92.9, 718.8 92.7 L 718.8 97.4 L 718.1 97.4 L 718.1 91.7 L 719.0 91.7 " fill="#0000FF"/>
</svg>