<svg baseProfile="full" height="160px" version="1.1" viewBox="0 0 1500 160" width="1500px" xml:space="preserve" xmlns="http://www.w3.org/2000/svg" xmlns:rdkit="http://www.rdkit.org/xml" xmlns:xlink="http://www.w3.org/1999/xlink">
<!-- END OF HEADER -->
<rect height="160.0" style="opacity:1.0;fill:#FFFFFF;stroke:none" width="1500.0" x="0.0" y="0.0"> </rect>
<rect height="160.0" style="opacity:1.0;fill:#FFFFFF;stroke:none" width="1500.0" x="0.0" y="0.0"> </rect>
<rect height="160.0" style="opacity:1.0;fill:#FFFFFF;stroke:none" width="1500.0" x="0.0" y="0.0"> </rect>
<rect height="160.0" style="opacity:1.0;fill:#FFFFFF;stroke:none" width="1500.0" x="0.0" y="0.0"> </rect>
<path class="bond-0 atom-0 atom-1" d="M 151.7,57.8 L 137.5,53.8" style="fill:none;fill-rule:evenodd;stroke:#000000;stroke-width:2.0px;stroke-linecap:butt;stroke-linejoin:miter;stroke-opacity:1"/>
<path class="bond-1 atom-1 atom-2" d="M 137.5,53.8 L 133.9,39.5" style="fill:none;fill-rule:evenodd;stroke:#000000;stroke-width:2.0px;stroke-linecap:butt;stroke-linejoin:miter;stroke-opacity:1"/>
<path class="bond-1 atom-1 atom-2" d="M 134.1,52.4 L 131.5,42.4" style="fill:none;fill-rule:evenodd;stroke:#000000;stroke-width:2.0px;stroke-linecap:butt;stroke-linejoin:miter;stroke-opacity:1"/>
<path class="bond-49 atom-7 atom-1" d="M 126.9,64.1 L 137.5,53.8" style="fill:none;fill-rule:evenodd;stroke:#000000;stroke-width:2.0px;stroke-linecap:butt;stroke-linejoin:miter;stroke-opacity:1"/>
<path class="bond-2 atom-2 atom-3" d="M 133.9,39.5 L 138.3,35.1" style="fill:none;fill-rule:evenodd;stroke:#000000;stroke-width:2.0px;stroke-linecap:butt;stroke-linejoin:miter;stroke-opacity:1"/>
<path class="bond-2 atom-2 atom-3" d="M 138.3,35.1 L 142.8,30.8" style="fill:none;fill-rule:evenodd;stroke:#33CCCC;stroke-width:2.0px;stroke-linecap:butt;stroke-linejoin:miter;stroke-opacity:1"/>
<path class="bond-3 atom-2 atom-4" d="M 133.9,39.5 L 119.6,35.5" style="fill:none;fill-rule:evenodd;stroke:#000000;stroke-width:2.0px;stroke-linecap:butt;stroke-linejoin:miter;stroke-opacity:1"/>
<path class="bond-4 atom-4 atom-5" d="M 119.6,35.5 L 109.1,45.8" style="fill:none;fill-rule:evenodd;stroke:#000000;stroke-width:2.0px;stroke-linecap:butt;stroke-linejoin:miter;stroke-opacity:1"/>
<path class="bond-4 atom-4 atom-5" d="M 120.1,39.1 L 112.7,46.4" style="fill:none;fill-rule:evenodd;stroke:#000000;stroke-width:2.0px;stroke-linecap:butt;stroke-linejoin:miter;stroke-opacity:1"/>
<path class="bond-5 atom-5 atom-6" d="M 109.1,45.8 L 112.7,60.1" style="fill:none;fill-rule:evenodd;stroke:#000000;stroke-width:2.0px;stroke-linecap:butt;stroke-linejoin:miter;stroke-opacity:1"/>
<path class="bond-6 atom-6 atom-7" d="M 112.7,60.1 L 126.9,64.1" style="fill:none;fill-rule:evenodd;stroke:#000000;stroke-width:2.0px;stroke-linecap:butt;stroke-linejoin:miter;stroke-opacity:1"/>
<path class="bond-6 atom-6 atom-7" d="M 115.6,57.9 L 125.6,60.7" style="fill:none;fill-rule:evenodd;stroke:#000000;stroke-width:2.0px;stroke-linecap:butt;stroke-linejoin:miter;stroke-opacity:1"/>
<path class="bond-7 atom-7 atom-8" d="M 126.9,64.1 L 130.6,78.4" style="fill:none;fill-rule:evenodd;stroke:#000000;stroke-width:2.0px;stroke-linecap:butt;stroke-linejoin:miter;stroke-opacity:1"/>
<path class="bond-8 atom-8 atom-9" d="M 130.6,78.4 L 120.0,88.7" style="fill:none;fill-rule:evenodd;stroke:#000000;stroke-width:2.0px;stroke-linecap:butt;stroke-linejoin:miter;stroke-opacity:1"/>
<path class="bond-9 atom-9 atom-10" d="M 120.0,88.7 L 122.1,103.3" style="fill:none;fill-rule:evenodd;stroke:#000000;stroke-width:2.0px;stroke-linecap:butt;stroke-linejoin:miter;stroke-opacity:1"/>
<path class="bond-9 atom-9 atom-10" d="M 117.4,91.3 L 118.9,101.6" style="fill:none;fill-rule:evenodd;stroke:#000000;stroke-width:2.0px;stroke-linecap:butt;stroke-linejoin:miter;stroke-opacity:1"/>
<path class="bond-50 atom-43 atom-9" d="M 107.4,86.6 L 113.7,87.6" style="fill:none;fill-rule:evenodd;stroke:#0000FF;stroke-width:2.0px;stroke-linecap:butt;stroke-linejoin:miter;stroke-opacity:1"/>
<path class="bond-50 atom-43 atom-9" d="M 113.7,87.6 L 120.0,88.7" style="fill:none;fill-rule:evenodd;stroke:#000000;stroke-width:2.0px;stroke-linecap:butt;stroke-linejoin:miter;stroke-opacity:1"/>
<path class="bond-10 atom-10 atom-11" d="M 122.1,103.3 L 135.2,110.2" style="fill:none;fill-rule:evenodd;stroke:#000000;stroke-width:2.0px;stroke-linecap:butt;stroke-linejoin:miter;stroke-opacity:1"/>
<path class="bond-35 atom-10 atom-36" d="M 122.1,103.3 L 108.9,109.9" style="fill:none;fill-rule:evenodd;stroke:#000000;stroke-width:2.0px;stroke-linecap:butt;stroke-linejoin:miter;stroke-opacity:1"/>
<path class="bond-11 atom-11 atom-12" d="M 133.7,110.3 L 133.9,116.4" style="fill:none;fill-rule:evenodd;stroke:#000000;stroke-width:2.0px;stroke-linecap:butt;stroke-linejoin:miter;stroke-opacity:1"/>
<path class="bond-11 atom-11 atom-12" d="M 133.9,116.4 L 134.2,122.5" style="fill:none;fill-rule:evenodd;stroke:#FF0000;stroke-width:2.0px;stroke-linecap:butt;stroke-linejoin:miter;stroke-opacity:1"/>
<path class="bond-11 atom-11 atom-12" d="M 136.7,110.2 L 136.9,116.3" style="fill:none;fill-rule:evenodd;stroke:#000000;stroke-width:2.0px;stroke-linecap:butt;stroke-linejoin:miter;stroke-opacity:1"/>
<path class="bond-11 atom-11 atom-12" d="M 136.9,116.3 L 137.1,122.4" style="fill:none;fill-rule:evenodd;stroke:#FF0000;stroke-width:2.0px;stroke-linecap:butt;stroke-linejoin:miter;stroke-opacity:1"/>
<path class="bond-12 atom-11 atom-13" d="M 135.2,110.2 L 140.4,106.9" style="fill:none;fill-rule:evenodd;stroke:#000000;stroke-width:2.0px;stroke-linecap:butt;stroke-linejoin:miter;stroke-opacity:1"/>
<path class="bond-12 atom-11 atom-13" d="M 140.4,106.9 L 145.7,103.6" style="fill:none;fill-rule:evenodd;stroke:#0000FF;stroke-width:2.0px;stroke-linecap:butt;stroke-linejoin:miter;stroke-opacity:1"/>
<path class="bond-13 atom-13 atom-14" d="M 146.6,99.8 L 144.8,95.5" style="fill:none;fill-rule:evenodd;stroke:#0000FF;stroke-width:2.0px;stroke-linecap:butt;stroke-linejoin:miter;stroke-opacity:1"/>
<path class="bond-13 atom-13 atom-14" d="M 144.8,95.5 L 142.9,91.3" style="fill:none;fill-rule:evenodd;stroke:#000000;stroke-width:2.0px;stroke-linecap:butt;stroke-linejoin:miter;stroke-opacity:1"/>
<path class="bond-52 atom-35 atom-13" d="M 155.4,111.1 L 152.5,107.8" style="fill:none;fill-rule:evenodd;stroke:#000000;stroke-width:2.0px;stroke-linecap:butt;stroke-linejoin:miter;stroke-opacity:1"/>
<path class="bond-52 atom-35 atom-13" d="M 152.5,107.8 L 149.6,104.5" style="fill:none;fill-rule:evenodd;stroke:#0000FF;stroke-width:2.0px;stroke-linecap:butt;stroke-linejoin:miter;stroke-opacity:1"/>
<path class="bond-14 atom-14 atom-15" d="M 141.6,86.2 L 140.7,76.6" style="fill:none;fill-rule:evenodd;stroke:#000000;stroke-width:2.0px;stroke-linecap:butt;stroke-linejoin:miter;stroke-opacity:1"/>
<path class="bond-15 atom-15 atom-16" d="M 141.0,71.5 L 142.1,66.9" style="fill:none;fill-rule:evenodd;stroke:#000000;stroke-width:2.0px;stroke-linecap:butt;stroke-linejoin:miter;stroke-opacity:1"/>
<path class="bond-15 atom-15 atom-16" d="M 142.1,66.9 L 143.2,62.2" style="fill:none;fill-rule:evenodd;stroke:#CCCC00;stroke-width:2.0px;stroke-linecap:butt;stroke-linejoin:miter;stroke-opacity:1"/>
<path class="bond-16 atom-16 atom-17" d="M 145.2,57.2 L 147.5,53.3" style="fill:none;fill-rule:evenodd;stroke:#CCCC00;stroke-width:2.0px;stroke-linecap:butt;stroke-linejoin:miter;stroke-opacity:1"/>
<path class="bond-16 atom-16 atom-17" d="M 147.5,53.3 L 149.8,49.5" style="fill:none;fill-rule:evenodd;stroke:#FF0000;stroke-width:2.0px;stroke-linecap:butt;stroke-linejoin:miter;stroke-opacity:1"/>
<path class="bond-17 atom-17 atom-18" d="M 153.6,44.9 L 157.2,41.8" style="fill:none;fill-rule:evenodd;stroke:#FF0000;stroke-width:2.0px;stroke-linecap:butt;stroke-linejoin:miter;stroke-opacity:1"/>
<path class="bond-17 atom-17 atom-18" d="M 157.2,41.8 L 160.7,38.7" style="fill:none;fill-rule:evenodd;stroke:#CCCC00;stroke-width:2.0px;stroke-linecap:butt;stroke-linejoin:miter;stroke-opacity:1"/>
<path class="bond-18 atom-18 atom-19" d="M 164.1,36.5 L 174.3,32.1" style="fill:none;fill-rule:evenodd;stroke:#CCCC00;stroke-width:2.0px;stroke-linecap:butt;stroke-linejoin:miter;stroke-opacity:1"/>
<path class="bond-19 atom-19 atom-20" d="M 177.7,31.2 L 189.0,30.2" style="fill:none;fill-rule:evenodd;stroke:#CCCC00;stroke-width:2.0px;stroke-linecap:butt;stroke-linejoin:miter;stroke-opacity:1"/>
<path class="bond-20 atom-20 atom-21" d="M 192.4,30.4 L 203.4,32.9" style="fill:none;fill-rule:evenodd;stroke:#CCCC00;stroke-width:2.0px;stroke-linecap:butt;stroke-linejoin:miter;stroke-opacity:1"/>
<path class="bond-21 atom-21 atom-22" d="M 206.8,34.3 L 211.3,37.0" style="fill:none;fill-rule:evenodd;stroke:#CCCC00;stroke-width:2.0px;stroke-linecap:butt;stroke-linejoin:miter;stroke-opacity:1"/>
<path class="bond-21 atom-21 atom-22" d="M 211.3,37.0 L 215.8,39.7" style="fill:none;fill-rule:evenodd;stroke:#000000;stroke-width:2.0px;stroke-linecap:butt;stroke-linejoin:miter;stroke-opacity:1"/>
<path class="bond-22 atom-22 atom-23" d="M 219.8,43.1 L 222.8,46.6" style="fill:none;fill-rule:evenodd;stroke:#000000;stroke-width:2.0px;stroke-linecap:butt;stroke-linejoin:miter;stroke-opacity:1"/>
<path class="bond-22 atom-22 atom-23" d="M 222.8,46.6 L 225.8,50.0" style="fill:none;fill-rule:evenodd;stroke:#CCCC00;stroke-width:2.0px;stroke-linecap:butt;stroke-linejoin:miter;stroke-opacity:1"/>
<path class="bond-23 atom-23 atom-24" d="M 228.6,54.5 L 230.5,58.8" style="fill:none;fill-rule:evenodd;stroke:#CCCC00;stroke-width:2.0px;stroke-linecap:butt;stroke-linejoin:miter;stroke-opacity:1"/>
<path class="bond-23 atom-23 atom-24" d="M 230.5,58.8 L 232.3,63.1" style="fill:none;fill-rule:evenodd;stroke:#0000FF;stroke-width:2.0px;stroke-linecap:butt;stroke-linejoin:miter;stroke-opacity:1"/>
<path class="bond-24 atom-24 atom-25" d="M 233.6,68.0 L 234.0,72.9" style="fill:none;fill-rule:evenodd;stroke:#0000FF;stroke-width:2.0px;stroke-linecap:butt;stroke-linejoin:miter;stroke-opacity:1"/>
<path class="bond-24 atom-24 atom-25" d="M 234.0,72.9 L 234.5,77.7" style="fill:none;fill-rule:evenodd;stroke:#000000;stroke-width:2.0px;stroke-linecap:butt;stroke-linejoin:miter;stroke-opacity:1"/>
<path class="bond-25 atom-25 atom-26" d="M 234.1,82.8 L 232.0,92.2" style="fill:none;fill-rule:evenodd;stroke:#000000;stroke-width:2.0px;stroke-linecap:butt;stroke-linejoin:miter;stroke-opacity:1"/>
<path class="bond-26 atom-26 atom-27" d="M 229.9,97.2 L 227.6,101.0" style="fill:none;fill-rule:evenodd;stroke:#000000;stroke-width:2.0px;stroke-linecap:butt;stroke-linejoin:miter;stroke-opacity:1"/>
<path class="bond-26 atom-26 atom-27" d="M 227.6,101.0 L 225.3,104.9" style="fill:none;fill-rule:evenodd;stroke:#0000FF;stroke-width:2.0px;stroke-linecap:butt;stroke-linejoin:miter;stroke-opacity:1"/>
<path class="bond-27 atom-27 atom-28" d="M 221.9,109.0 L 218.3,112.2" style="fill:none;fill-rule:evenodd;stroke:#0000FF;stroke-width:2.0px;stroke-linecap:butt;stroke-linejoin:miter;stroke-opacity:1"/>
<path class="bond-27 atom-27 atom-28" d="M 218.3,112.2 L 214.7,115.3" style="fill:none;fill-rule:evenodd;stroke:#000000;stroke-width:2.0px;stroke-linecap:butt;stroke-linejoin:miter;stroke-opacity:1"/>
<path class="bond-28 atom-28 atom-29" d="M 210.8,117.9 L 201.2,122.0" style="fill:none;fill-rule:evenodd;stroke:#000000;stroke-width:2.0px;stroke-linecap:butt;stroke-linejoin:miter;stroke-opacity:1"/>
<path class="bond-29 atom-29 atom-30" d="M 197.2,123.1 L 191.8,123.6" style="fill:none;fill-rule:evenodd;stroke:#000000;stroke-width:2.0px;stroke-linecap:butt;stroke-linejoin:miter;stroke-opacity:1"/>
<path class="bond-29 atom-29 atom-30" d="M 191.8,123.6 L 186.4,124.1" style="fill:none;fill-rule:evenodd;stroke:#0000FF;stroke-width:2.0px;stroke-linecap:butt;stroke-linejoin:miter;stroke-opacity:1"/>
<path class="bond-30 atom-30 atom-31" d="M 184.3,126.7 L 183.7,136.5" style="fill:none;fill-rule:evenodd;stroke:#0000FF;stroke-width:2.0px;stroke-linecap:butt;stroke-linejoin:miter;stroke-opacity:1"/>
<path class="bond-33 atom-30 atom-34" d="M 182.5,123.8 L 177.3,122.6" style="fill:none;fill-rule:evenodd;stroke:#0000FF;stroke-width:2.0px;stroke-linecap:butt;stroke-linejoin:miter;stroke-opacity:1"/>
<path class="bond-33 atom-30 atom-34" d="M 177.3,122.6 L 172.1,121.4" style="fill:none;fill-rule:evenodd;stroke:#000000;stroke-width:2.0px;stroke-linecap:butt;stroke-linejoin:miter;stroke-opacity:1"/>
<path class="bond-31 atom-31 atom-32" d="M 185.5,140.3 L 190.7,143.7" style="fill:none;fill-rule:evenodd;stroke:#0000FF;stroke-width:2.0px;stroke-linecap:butt;stroke-linejoin:miter;stroke-opacity:1"/>
<path class="bond-31 atom-31 atom-32" d="M 190.7,143.7 L 195.8,147.2" style="fill:none;fill-rule:evenodd;stroke:#000000;stroke-width:2.0px;stroke-linecap:butt;stroke-linejoin:miter;stroke-opacity:1"/>
<path class="bond-32 atom-31 atom-33" d="M 181.6,139.9 L 175.9,142.7" style="fill:none;fill-rule:evenodd;stroke:#0000FF;stroke-width:2.0px;stroke-linecap:butt;stroke-linejoin:miter;stroke-opacity:1"/>
<path class="bond-32 atom-31 atom-33" d="M 175.9,142.7 L 170.3,145.5" style="fill:none;fill-rule:evenodd;stroke:#000000;stroke-width:2.0px;stroke-linecap:butt;stroke-linejoin:miter;stroke-opacity:1"/>
<path class="bond-34 atom-34 atom-35" d="M 168.1,119.8 L 159.4,114.6" style="fill:none;fill-rule:evenodd;stroke:#000000;stroke-width:2.0px;stroke-linecap:butt;stroke-linejoin:miter;stroke-opacity:1"/>
<path class="bond-36 atom-36 atom-37" d="M 108.9,109.9 L 104.9,124.1" style="fill:none;fill-rule:evenodd;stroke:#000000;stroke-width:2.0px;stroke-linecap:butt;stroke-linejoin:miter;stroke-opacity:1"/>
<path class="bond-36 atom-36 atom-37" d="M 105.4,111.2 L 102.6,121.2" style="fill:none;fill-rule:evenodd;stroke:#000000;stroke-width:2.0px;stroke-linecap:butt;stroke-linejoin:miter;stroke-opacity:1"/>
<path class="bond-53 atom-42 atom-36" d="M 98.5,99.3 L 108.9,109.9" style="fill:none;fill-rule:evenodd;stroke:#000000;stroke-width:2.0px;stroke-linecap:butt;stroke-linejoin:miter;stroke-opacity:1"/>
<path class="bond-37 atom-37 atom-38" d="M 104.9,124.1 L 90.5,127.7" style="fill:none;fill-rule:evenodd;stroke:#000000;stroke-width:2.0px;stroke-linecap:butt;stroke-linejoin:miter;stroke-opacity:1"/>
<path class="bond-38 atom-38 atom-39" d="M 90.5,127.7 L 80.2,117.2" style="fill:none;fill-rule:evenodd;stroke:#000000;stroke-width:2.0px;stroke-linecap:butt;stroke-linejoin:miter;stroke-opacity:1"/>
<path class="bond-38 atom-38 atom-39" d="M 91.1,124.1 L 83.9,116.7" style="fill:none;fill-rule:evenodd;stroke:#000000;stroke-width:2.0px;stroke-linecap:butt;stroke-linejoin:miter;stroke-opacity:1"/>
<path class="bond-39 atom-39 atom-40" d="M 80.2,117.2 L 74.2,118.7" style="fill:none;fill-rule:evenodd;stroke:#000000;stroke-width:2.0px;stroke-linecap:butt;stroke-linejoin:miter;stroke-opacity:1"/>
<path class="bond-39 atom-39 atom-40" d="M 74.2,118.7 L 68.2,120.2" style="fill:none;fill-rule:evenodd;stroke:#FF0000;stroke-width:2.0px;stroke-linecap:butt;stroke-linejoin:miter;stroke-opacity:1"/>
<path class="bond-40 atom-39 atom-41" d="M 80.2,117.2 L 84.2,102.9" style="fill:none;fill-rule:evenodd;stroke:#000000;stroke-width:2.0px;stroke-linecap:butt;stroke-linejoin:miter;stroke-opacity:1"/>
<path class="bond-41 atom-41 atom-42" d="M 84.2,102.9 L 98.5,99.3" style="fill:none;fill-rule:evenodd;stroke:#000000;stroke-width:2.0px;stroke-linecap:butt;stroke-linejoin:miter;stroke-opacity:1"/>
<path class="bond-41 atom-41 atom-42" d="M 87.1,105.3 L 97.1,102.7" style="fill:none;fill-rule:evenodd;stroke:#000000;stroke-width:2.0px;stroke-linecap:butt;stroke-linejoin:miter;stroke-opacity:1"/>
<path class="bond-42 atom-42 atom-43" d="M 98.5,99.3 L 101.3,94.0" style="fill:none;fill-rule:evenodd;stroke:#000000;stroke-width:2.0px;stroke-linecap:butt;stroke-linejoin:miter;stroke-opacity:1"/>
<path class="bond-42 atom-42 atom-43" d="M 101.3,94.0 L 104.1,88.7" style="fill:none;fill-rule:evenodd;stroke:#0000FF;stroke-width:2.0px;stroke-linecap:butt;stroke-linejoin:miter;stroke-opacity:1"/>
<path class="bond-43 atom-43 atom-44" d="M 104.2,83.7 L 101.5,78.4" style="fill:none;fill-rule:evenodd;stroke:#0000FF;stroke-width:2.0px;stroke-linecap:butt;stroke-linejoin:miter;stroke-opacity:1"/>
<path class="bond-43 atom-43 atom-44" d="M 101.5,78.4 L 98.9,73.0" style="fill:none;fill-rule:evenodd;stroke:#000000;stroke-width:2.0px;stroke-linecap:butt;stroke-linejoin:miter;stroke-opacity:1"/>
<path class="bond-44 atom-44 atom-45" d="M 98.9,73.0 L 84.1,72.0" style="fill:none;fill-rule:evenodd;stroke:#000000;stroke-width:2.0px;stroke-linecap:butt;stroke-linejoin:miter;stroke-opacity:1"/>
<path class="bond-44 atom-44 atom-45" d="M 96.9,69.9 L 86.5,69.2" style="fill:none;fill-rule:evenodd;stroke:#000000;stroke-width:2.0px;stroke-linecap:butt;stroke-linejoin:miter;stroke-opacity:1"/>
<path class="bond-51 atom-49 atom-44" d="M 107.1,60.7 L 98.9,73.0" style="fill:none;fill-rule:evenodd;stroke:#000000;stroke-width:2.0px;stroke-linecap:butt;stroke-linejoin:miter;stroke-opacity:1"/>
<path class="bond-45 atom-45 atom-46" d="M 84.1,72.0 L 77.6,58.8" style="fill:none;fill-rule:evenodd;stroke:#000000;stroke-width:2.0px;stroke-linecap:butt;stroke-linejoin:miter;stroke-opacity:1"/>
<path class="bond-46 atom-46 atom-47" d="M 77.6,58.8 L 85.8,46.5" style="fill:none;fill-rule:evenodd;stroke:#000000;stroke-width:2.0px;stroke-linecap:butt;stroke-linejoin:miter;stroke-opacity:1"/>
<path class="bond-46 atom-46 atom-47" d="M 81.3,58.6 L 87.0,50.0" style="fill:none;fill-rule:evenodd;stroke:#000000;stroke-width:2.0px;stroke-linecap:butt;stroke-linejoin:miter;stroke-opacity:1"/>
<path class="bond-47 atom-47 atom-48" d="M 85.8,46.5 L 100.5,47.5" style="fill:none;fill-rule:evenodd;stroke:#000000;stroke-width:2.0px;stroke-linecap:butt;stroke-linejoin:miter;stroke-opacity:1"/>
<path class="bond-48 atom-48 atom-49" d="M 100.5,47.5 L 107.1,60.7" style="fill:none;fill-rule:evenodd;stroke:#000000;stroke-width:2.0px;stroke-linecap:butt;stroke-linejoin:miter;stroke-opacity:1"/>
<path class="bond-48 atom-48 atom-49" d="M 98.9,50.7 L 103.5,60.0" style="fill:none;fill-rule:evenodd;stroke:#000000;stroke-width:2.0px;stroke-linecap:butt;stroke-linejoin:miter;stroke-opacity:1"/>
<path class="atom-3" d="M 143.2 27.0 L 145.7 27.0 L 145.7 27.5 L 143.7 27.5 L 143.7 28.8 L 145.5 28.8 L 145.5 29.3 L 143.7 29.3 L 143.7 31.3 L 143.2 31.3 L 143.2 27.0 " fill="#33CCCC"/>
<path class="atom-12" d="M 133.8 125.0 Q 133.8 124.0, 134.3 123.4 Q 134.8 122.8, 135.8 122.8 Q 136.7 122.8, 137.2 123.4 Q 137.7 124.0, 137.7 125.0 Q 137.7 126.0, 137.2 126.6 Q 136.7 127.2, 135.8 127.2 Q 134.8 127.2, 134.3 126.6 Q 133.8 126.0, 133.8 125.0 M 135.8 126.7 Q 136.4 126.7, 136.8 126.3 Q 137.1 125.8, 137.1 125.0 Q 137.1 124.2, 136.8 123.7 Q 136.4 123.3, 135.8 123.3 Q 135.1 123.3, 134.8 123.7 Q 134.4 124.1, 134.4 125.0 Q 134.4 125.8, 134.8 126.3 Q 135.1 126.7, 135.8 126.7 " fill="#FF0000"/>
<path class="atom-13" d="M 146.7 100.2 L 148.1 102.5 Q 148.3 102.7, 148.5 103.1 Q 148.7 103.5, 148.7 103.5 L 148.7 100.2 L 149.3 100.2 L 149.3 104.5 L 148.7 104.5 L 147.2 102.0 Q 147.0 101.7, 146.8 101.4 Q 146.7 101.0, 146.6 100.9 L 146.6 104.5 L 146.1 104.5 L 146.1 100.2 L 146.7 100.2 " fill="#0000FF"/>
<path class="atom-14" d="M 140.2 88.8 Q 140.2 87.7, 140.7 87.2 Q 141.2 86.6, 142.1 86.6 Q 143.0 86.6, 143.5 87.2 L 143.1 87.6 Q 142.7 87.1, 142.1 87.1 Q 141.5 87.1, 141.1 87.5 Q 140.8 88.0, 140.8 88.8 Q 140.8 89.6, 141.2 90.0 Q 141.5 90.5, 142.2 90.5 Q 142.7 90.5, 143.2 90.2 L 143.4 90.6 Q 143.2 90.8, 142.8 90.9 Q 142.5 91.0, 142.1 91.0 Q 141.2 91.0, 140.7 90.4 Q 140.2 89.8, 140.2 88.8 " fill="#000000"/>
<path class="atom-15" d="M 138.8 74.1 Q 138.8 73.0, 139.3 72.5 Q 139.8 71.9, 140.8 71.9 Q 141.6 71.9, 142.1 72.5 L 141.7 72.8 Q 141.4 72.4, 140.8 72.4 Q 140.1 72.4, 139.8 72.8 Q 139.4 73.3, 139.4 74.1 Q 139.4 74.9, 139.8 75.3 Q 140.2 75.8, 140.8 75.8 Q 141.3 75.8, 141.8 75.5 L 142.0 75.9 Q 141.8 76.1, 141.5 76.2 Q 141.1 76.3, 140.8 76.3 Q 139.8 76.3, 139.3 75.7 Q 138.8 75.1, 138.8 74.1 " fill="#000000"/>
<path class="atom-16" d="M 142.5 61.1 Q 142.6 61.1, 142.8 61.2 Q 143.0 61.3, 143.2 61.3 Q 143.4 61.4, 143.6 61.4 Q 144.0 61.4, 144.3 61.2 Q 144.5 61.0, 144.5 60.7 Q 144.5 60.4, 144.4 60.3 Q 144.3 60.1, 144.1 60.1 Q 143.9 60.0, 143.6 59.9 Q 143.2 59.8, 143.0 59.7 Q 142.8 59.6, 142.6 59.3 Q 142.5 59.1, 142.5 58.7 Q 142.5 58.2, 142.8 57.9 Q 143.2 57.5, 143.9 57.5 Q 144.4 57.5, 145.0 57.8 L 144.8 58.2 Q 144.3 58.0, 143.9 58.0 Q 143.5 58.0, 143.3 58.2 Q 143.1 58.4, 143.1 58.6 Q 143.1 58.9, 143.2 59.0 Q 143.3 59.2, 143.5 59.2 Q 143.6 59.3, 143.9 59.4 Q 144.3 59.5, 144.5 59.6 Q 144.8 59.8, 144.9 60.0 Q 145.1 60.2, 145.1 60.7 Q 145.1 61.2, 144.7 61.6 Q 144.3 61.9, 143.7 61.9 Q 143.3 61.9, 143.0 61.8 Q 142.7 61.7, 142.4 61.6 L 142.5 61.1 " fill="#CCCC00"/>
<path class="atom-17" d="M 149.3 47.0 Q 149.3 45.9, 149.8 45.4 Q 150.3 44.8, 151.3 44.8 Q 152.2 44.8, 152.7 45.4 Q 153.2 45.9, 153.2 47.0 Q 153.2 48.0, 152.7 48.6 Q 152.2 49.2, 151.3 49.2 Q 150.3 49.2, 149.8 48.6 Q 149.3 48.0, 149.3 47.0 M 151.3 48.7 Q 151.9 48.7, 152.3 48.3 Q 152.6 47.8, 152.6 47.0 Q 152.6 46.1, 152.3 45.7 Q 151.9 45.3, 151.3 45.3 Q 150.6 45.3, 150.3 45.7 Q 149.9 46.1, 149.9 47.0 Q 149.9 47.8, 150.3 48.3 Q 150.6 48.7, 151.3 48.7 " fill="#FF0000"/>
<path class="atom-18" d="M 161.2 38.7 Q 161.2 38.7, 161.4 38.8 Q 161.6 38.9, 161.8 38.9 Q 162.1 39.0, 162.3 39.0 Q 162.7 39.0, 162.9 38.8 Q 163.1 38.6, 163.1 38.2 Q 163.1 38.0, 163.0 37.8 Q 162.9 37.7, 162.7 37.6 Q 162.6 37.5, 162.3 37.5 Q 161.9 37.3, 161.6 37.2 Q 161.4 37.1, 161.3 36.9 Q 161.1 36.7, 161.1 36.3 Q 161.1 35.7, 161.5 35.4 Q 161.8 35.1, 162.6 35.1 Q 163.0 35.1, 163.6 35.3 L 163.5 35.8 Q 163.0 35.6, 162.6 35.6 Q 162.2 35.6, 161.9 35.7 Q 161.7 35.9, 161.7 36.2 Q 161.7 36.4, 161.8 36.6 Q 161.9 36.7, 162.1 36.8 Q 162.3 36.9, 162.6 37.0 Q 163.0 37.1, 163.2 37.2 Q 163.4 37.3, 163.6 37.6 Q 163.7 37.8, 163.7 38.2 Q 163.7 38.8, 163.3 39.1 Q 163.0 39.4, 162.3 39.4 Q 161.9 39.4, 161.6 39.4 Q 161.4 39.3, 161.0 39.1 L 161.2 38.7 " fill="#CCCC00"/>
<path class="atom-19" d="M 174.7 32.8 Q 174.8 32.8, 175.0 32.9 Q 175.2 33.0, 175.4 33.1 Q 175.6 33.1, 175.8 33.1 Q 176.2 33.1, 176.5 32.9 Q 176.7 32.7, 176.7 32.4 Q 176.7 32.2, 176.6 32.0 Q 176.5 31.9, 176.3 31.8 Q 176.1 31.7, 175.8 31.6 Q 175.4 31.5, 175.2 31.4 Q 175.0 31.3, 174.8 31.1 Q 174.7 30.8, 174.7 30.4 Q 174.7 29.9, 175.0 29.6 Q 175.4 29.3, 176.1 29.3 Q 176.6 29.3, 177.2 29.5 L 177.0 29.9 Q 176.5 29.7, 176.1 29.7 Q 175.7 29.7, 175.5 29.9 Q 175.3 30.1, 175.3 30.4 Q 175.3 30.6, 175.4 30.7 Q 175.5 30.9, 175.7 31.0 Q 175.9 31.0, 176.1 31.1 Q 176.5 31.2, 176.8 31.4 Q 177.0 31.5, 177.1 31.7 Q 177.3 32.0, 177.3 32.4 Q 177.3 33.0, 176.9 33.3 Q 176.5 33.6, 175.9 33.6 Q 175.5 33.6, 175.2 33.5 Q 174.9 33.4, 174.6 33.3 L 174.7 32.8 " fill="#CCCC00"/>
<path class="atom-20" d="M 189.5 31.5 Q 189.5 31.5, 189.7 31.6 Q 189.9 31.7, 190.1 31.7 Q 190.3 31.8, 190.6 31.8 Q 191.0 31.8, 191.2 31.6 Q 191.4 31.4, 191.4 31.0 Q 191.4 30.8, 191.3 30.7 Q 191.2 30.5, 191.0 30.4 Q 190.8 30.4, 190.5 30.3 Q 190.2 30.1, 189.9 30.0 Q 189.7 29.9, 189.5 29.7 Q 189.4 29.5, 189.4 29.1 Q 189.4 28.6, 189.7 28.2 Q 190.1 27.9, 190.8 27.9 Q 191.3 27.9, 191.9 28.1 L 191.7 28.6 Q 191.2 28.4, 190.8 28.4 Q 190.4 28.4, 190.2 28.6 Q 190.0 28.7, 190.0 29.0 Q 190.0 29.2, 190.1 29.4 Q 190.2 29.5, 190.4 29.6 Q 190.6 29.7, 190.8 29.8 Q 191.2 29.9, 191.5 30.0 Q 191.7 30.1, 191.8 30.4 Q 192.0 30.6, 192.0 31.0 Q 192.0 31.6, 191.6 31.9 Q 191.2 32.2, 190.6 32.2 Q 190.2 32.2, 189.9 32.2 Q 189.6 32.1, 189.3 31.9 L 189.5 31.5 " fill="#CCCC00"/>
<path class="atom-21" d="M 203.9 34.7 Q 203.9 34.7, 204.1 34.8 Q 204.3 34.9, 204.5 35.0 Q 204.7 35.0, 205.0 35.0 Q 205.4 35.0, 205.6 34.8 Q 205.8 34.6, 205.8 34.3 Q 205.8 34.0, 205.7 33.9 Q 205.6 33.8, 205.4 33.7 Q 205.2 33.6, 204.9 33.5 Q 204.6 33.4, 204.3 33.3 Q 204.1 33.2, 203.9 33.0 Q 203.8 32.7, 203.8 32.3 Q 203.8 31.8, 204.1 31.5 Q 204.5 31.2, 205.2 31.2 Q 205.7 31.2, 206.3 31.4 L 206.1 31.8 Q 205.6 31.6, 205.3 31.6 Q 204.8 31.6, 204.6 31.8 Q 204.4 32.0, 204.4 32.3 Q 204.4 32.5, 204.5 32.6 Q 204.6 32.8, 204.8 32.9 Q 205.0 32.9, 205.3 33.0 Q 205.6 33.1, 205.9 33.3 Q 206.1 33.4, 206.3 33.6 Q 206.4 33.9, 206.4 34.3 Q 206.4 34.9, 206.0 35.2 Q 205.6 35.5, 205.0 35.5 Q 204.6 35.5, 204.3 35.4 Q 204.0 35.3, 203.7 35.2 L 203.9 34.7 " fill="#CCCC00"/>
<path class="atom-22" d="M 216.1 40.8 Q 216.1 39.8, 216.6 39.2 Q 217.1 38.7, 218.1 38.7 Q 218.9 38.7, 219.4 39.3 L 219.0 39.6 Q 218.7 39.2, 218.1 39.2 Q 217.4 39.2, 217.1 39.6 Q 216.7 40.0, 216.7 40.8 Q 216.7 41.7, 217.1 42.1 Q 217.4 42.5, 218.1 42.5 Q 218.6 42.5, 219.1 42.3 L 219.3 42.7 Q 219.1 42.9, 218.7 42.9 Q 218.4 43.0, 218.0 43.0 Q 217.1 43.0, 216.6 42.5 Q 216.1 41.9, 216.1 40.8 " fill="#000000"/>
<path class="atom-23" d="M 226.3 53.4 Q 226.3 53.4, 226.5 53.5 Q 226.7 53.6, 227.0 53.6 Q 227.2 53.7, 227.4 53.7 Q 227.8 53.7, 228.0 53.5 Q 228.3 53.3, 228.3 52.9 Q 228.3 52.7, 228.1 52.6 Q 228.0 52.4, 227.9 52.3 Q 227.7 52.3, 227.4 52.2 Q 227.0 52.1, 226.8 51.9 Q 226.5 51.8, 226.4 51.6 Q 226.2 51.4, 226.2 51.0 Q 226.2 50.5, 226.6 50.1 Q 227.0 49.8, 227.7 49.8 Q 228.2 49.8, 228.7 50.0 L 228.6 50.5 Q 228.1 50.3, 227.7 50.3 Q 227.3 50.3, 227.1 50.5 Q 226.8 50.6, 226.8 50.9 Q 226.8 51.2, 226.9 51.3 Q 227.1 51.4, 227.2 51.5 Q 227.4 51.6, 227.7 51.7 Q 228.1 51.8, 228.3 51.9 Q 228.5 52.0, 228.7 52.3 Q 228.9 52.5, 228.9 52.9 Q 228.9 53.5, 228.5 53.8 Q 228.1 54.2, 227.4 54.2 Q 227.0 54.2, 226.8 54.1 Q 226.5 54.0, 226.1 53.9 L 226.3 53.4 " fill="#CCCC00"/>
<path class="atom-24" d="M 232.4 63.4 L 233.8 65.6 Q 233.9 65.8, 234.1 66.2 Q 234.4 66.6, 234.4 66.7 L 234.4 63.4 L 234.9 63.4 L 234.9 67.6 L 234.4 67.6 L 232.9 65.2 Q 232.7 64.9, 232.5 64.5 Q 232.3 64.2, 232.3 64.1 L 232.3 67.6 L 231.7 67.6 L 231.7 63.4 L 232.4 63.4 " fill="#0000FF"/>
<path class="atom-24" d="M 235.5 63.4 L 236.0 63.4 L 236.0 65.2 L 238.2 65.2 L 238.2 63.4 L 238.8 63.4 L 238.8 67.6 L 238.2 67.6 L 238.2 65.6 L 236.0 65.6 L 236.0 67.6 L 235.5 67.6 L 235.5 63.4 " fill="#0000FF"/>
<path class="atom-25" d="M 233.1 80.2 Q 233.1 79.2, 233.5 78.6 Q 234.0 78.0, 235.0 78.0 Q 235.9 78.0, 236.3 78.7 L 235.9 79.0 Q 235.6 78.5, 235.0 78.5 Q 234.3 78.5, 234.0 79.0 Q 233.7 79.4, 233.7 80.2 Q 233.7 81.1, 234.0 81.5 Q 234.4 81.9, 235.1 81.9 Q 235.5 81.9, 236.1 81.6 L 236.2 82.1 Q 236.0 82.2, 235.7 82.3 Q 235.3 82.4, 235.0 82.4 Q 234.0 82.4, 233.5 81.8 Q 233.1 81.3, 233.1 80.2 " fill="#000000"/>
<path class="atom-26" d="M 229.8 94.6 Q 229.8 93.6, 230.3 93.0 Q 230.8 92.5, 231.7 92.5 Q 232.6 92.5, 233.1 93.1 L 232.7 93.4 Q 232.3 92.9, 231.7 92.9 Q 231.1 92.9, 230.7 93.4 Q 230.4 93.8, 230.4 94.6 Q 230.4 95.5, 230.8 95.9 Q 231.1 96.3, 231.8 96.3 Q 232.3 96.3, 232.8 96.0 L 233.0 96.5 Q 232.8 96.6, 232.4 96.7 Q 232.1 96.8, 231.7 96.8 Q 230.8 96.8, 230.3 96.2 Q 229.8 95.7, 229.8 94.6 " fill="#000000"/>
<path class="atom-27" d="M 223.0 105.2 L 224.3 107.4 Q 224.5 107.6, 224.7 108.0 Q 224.9 108.4, 224.9 108.5 L 224.9 105.2 L 225.5 105.2 L 225.5 109.4 L 224.9 109.4 L 223.4 107.0 Q 223.3 106.7, 223.1 106.3 Q 222.9 106.0, 222.8 105.9 L 222.8 109.4 L 222.3 109.4 L 222.3 105.2 L 223.0 105.2 " fill="#0000FF"/>
<path class="atom-27" d="M 226.0 105.2 L 226.6 105.2 L 226.6 107.0 L 228.8 107.0 L 228.8 105.2 L 229.3 105.2 L 229.3 109.4 L 228.8 109.4 L 228.8 107.5 L 226.6 107.5 L 226.6 109.4 L 226.0 109.4 L 226.0 105.2 " fill="#0000FF"/>
<path class="atom-28" d="M 211.2 117.1 Q 211.2 116.0, 211.6 115.5 Q 212.1 114.9, 213.1 114.9 Q 214.0 114.9, 214.4 115.5 L 214.0 115.8 Q 213.7 115.4, 213.1 115.4 Q 212.4 115.4, 212.1 115.8 Q 211.8 116.2, 211.8 117.1 Q 211.8 117.9, 212.1 118.3 Q 212.5 118.8, 213.1 118.8 Q 213.6 118.8, 214.2 118.5 L 214.3 118.9 Q 214.1 119.1, 213.8 119.2 Q 213.4 119.2, 213.1 119.2 Q 212.1 119.2, 211.6 118.7 Q 211.2 118.1, 211.2 117.1 " fill="#000000"/>
<path class="atom-29" d="M 197.6 122.9 Q 197.6 121.8, 198.1 121.3 Q 198.6 120.7, 199.5 120.7 Q 200.4 120.7, 200.9 121.3 L 200.5 121.7 Q 200.1 121.2, 199.5 121.2 Q 198.9 121.2, 198.5 121.7 Q 198.2 122.1, 198.2 122.9 Q 198.2 123.7, 198.5 124.2 Q 198.9 124.6, 199.6 124.6 Q 200.0 124.6, 200.6 124.3 L 200.8 124.8 Q 200.5 124.9, 200.2 125.0 Q 199.9 125.1, 199.5 125.1 Q 198.6 125.1, 198.1 124.5 Q 197.6 123.9, 197.6 122.9 " fill="#000000"/>
<path class="atom-30" d="M 183.6 122.1 L 185.0 124.4 Q 185.1 124.6, 185.3 125.0 Q 185.5 125.4, 185.6 125.4 L 185.6 122.1 L 186.1 122.1 L 186.1 126.4 L 185.5 126.4 L 184.0 123.9 Q 183.9 123.6, 183.7 123.3 Q 183.5 122.9, 183.5 122.8 L 183.5 126.4 L 182.9 126.4 L 182.9 122.1 L 183.6 122.1 " fill="#0000FF"/>
<path class="atom-31" d="M 182.6 136.8 L 184.0 139.1 Q 184.1 139.3, 184.4 139.7 Q 184.6 140.1, 184.6 140.1 L 184.6 136.8 L 185.2 136.8 L 185.2 141.1 L 184.6 141.1 L 183.1 138.6 Q 182.9 138.3, 182.7 138.0 Q 182.5 137.7, 182.5 137.6 L 182.5 141.1 L 181.9 141.1 L 181.9 136.8 L 182.6 136.8 " fill="#0000FF"/>
<path class="atom-34" d="M 168.5 121.0 Q 168.5 119.9, 169.0 119.4 Q 169.5 118.8, 170.4 118.8 Q 171.3 118.8, 171.7 119.4 L 171.3 119.8 Q 171.0 119.3, 170.4 119.3 Q 169.8 119.3, 169.4 119.8 Q 169.1 120.2, 169.1 121.0 Q 169.1 121.8, 169.4 122.3 Q 169.8 122.7, 170.5 122.7 Q 170.9 122.7, 171.5 122.4 L 171.6 122.9 Q 171.4 123.0, 171.1 123.1 Q 170.8 123.2, 170.4 123.2 Q 169.5 123.2, 169.0 122.6 Q 168.5 122.1, 168.5 121.0 " fill="#000000"/>
<path class="atom-35" d="M 155.8 113.4 Q 155.8 112.4, 156.3 111.8 Q 156.8 111.3, 157.7 111.3 Q 158.6 111.3, 159.0 111.9 L 158.7 112.2 Q 158.3 111.8, 157.7 111.8 Q 157.1 111.8, 156.7 112.2 Q 156.4 112.6, 156.4 113.4 Q 156.4 114.3, 156.7 114.7 Q 157.1 115.2, 157.8 115.2 Q 158.2 115.2, 158.8 114.9 L 159.0 115.3 Q 158.7 115.5, 158.4 115.5 Q 158.1 115.6, 157.7 115.6 Q 156.8 115.6, 156.3 115.1 Q 155.8 114.5, 155.8 113.4 " fill="#000000"/>
<path class="atom-40" d="M 60.3 118.7 L 60.9 118.7 L 60.9 120.5 L 63.1 120.5 L 63.1 118.7 L 63.7 118.7 L 63.7 122.9 L 63.1 122.9 L 63.1 121.0 L 60.9 121.0 L 60.9 122.9 L 60.3 122.9 L 60.3 118.7 " fill="#FF0000"/>
<path class="atom-40" d="M 64.0 120.8 Q 64.0 119.8, 64.5 119.2 Q 65.0 118.7, 65.9 118.7 Q 66.9 118.7, 67.4 119.2 Q 67.9 119.8, 67.9 120.8 Q 67.9 121.8, 67.4 122.4 Q 66.8 123.0, 65.9 123.0 Q 65.0 123.0, 64.5 122.4 Q 64.0 121.9, 64.0 120.8 M 65.9 122.5 Q 66.6 122.5, 66.9 122.1 Q 67.3 121.7, 67.3 120.8 Q 67.3 120.0, 66.9 119.6 Q 66.6 119.1, 65.9 119.1 Q 65.3 119.1, 64.9 119.6 Q 64.6 120.0, 64.6 120.8 Q 64.6 121.7, 64.9 122.1 Q 65.3 122.5, 65.9 122.5 " fill="#FF0000"/>
<path class="atom-43" d="M 104.5 84.1 L 105.9 86.4 Q 106.0 86.6, 106.2 87.0 Q 106.5 87.4, 106.5 87.4 L 106.5 84.1 L 107.0 84.1 L 107.0 88.4 L 106.5 88.4 L 105.0 85.9 Q 104.8 85.6, 104.6 85.3 Q 104.4 84.9, 104.4 84.8 L 104.4 88.4 L 103.8 88.4 L 103.8 84.1 L 104.5 84.1 " fill="#0000FF"/>
<path class="bond-0 atom-0 atom-1" d="M 410.1,136.8 L 422.6,129.0" style="fill:none;fill-rule:evenodd;stroke:#000000;stroke-width:2.0px;stroke-linecap:butt;stroke-linejoin:miter;stroke-opacity:1"/>
<path class="bond-1 atom-1 atom-2" d="M 422.6,129.0 L 435.7,135.9" style="fill:none;fill-rule:evenodd;stroke:#000000;stroke-width:2.0px;stroke-linecap:butt;stroke-linejoin:miter;stroke-opacity:1"/>
<path class="bond-1 atom-1 atom-2" d="M 426.0,127.4 L 435.1,132.2" style="fill:none;fill-rule:evenodd;stroke:#000000;stroke-width:2.0px;stroke-linecap:butt;stroke-linejoin:miter;stroke-opacity:1"/>
<path class="bond-51 atom-7 atom-1" d="M 422.1,114.2 L 422.6,129.0" style="fill:none;fill-rule:evenodd;stroke:#000000;stroke-width:2.0px;stroke-linecap:butt;stroke-linejoin:miter;stroke-opacity:1"/>
<path class="bond-2 atom-2 atom-3" d="M 435.7,135.9 L 435.9,142.0" style="fill:none;fill-rule:evenodd;stroke:#000000;stroke-width:2.0px;stroke-linecap:butt;stroke-linejoin:miter;stroke-opacity:1"/>
<path class="bond-2 atom-2 atom-3" d="M 435.9,142.0 L 436.1,148.1" style="fill:none;fill-rule:evenodd;stroke:#33CCCC;stroke-width:2.0px;stroke-linecap:butt;stroke-linejoin:miter;stroke-opacity:1"/>
<path class="bond-3 atom-2 atom-4" d="M 435.7,135.9 L 448.2,128.0" style="fill:none;fill-rule:evenodd;stroke:#000000;stroke-width:2.0px;stroke-linecap:butt;stroke-linejoin:miter;stroke-opacity:1"/>
<path class="bond-4 atom-4 atom-5" d="M 448.2,128.0 L 447.7,113.3" style="fill:none;fill-rule:evenodd;stroke:#000000;stroke-width:2.0px;stroke-linecap:butt;stroke-linejoin:miter;stroke-opacity:1"/>
<path class="bond-4 atom-4 atom-5" d="M 445.2,125.9 L 444.8,115.6" style="fill:none;fill-rule:evenodd;stroke:#000000;stroke-width:2.0px;stroke-linecap:butt;stroke-linejoin:miter;stroke-opacity:1"/>
<path class="bond-5 atom-5 atom-6" d="M 447.7,113.3 L 434.6,106.4" style="fill:none;fill-rule:evenodd;stroke:#000000;stroke-width:2.0px;stroke-linecap:butt;stroke-linejoin:miter;stroke-opacity:1"/>
<path class="bond-6 atom-6 atom-7" d="M 434.6,106.4 L 422.1,114.2" style="fill:none;fill-rule:evenodd;stroke:#000000;stroke-width:2.0px;stroke-linecap:butt;stroke-linejoin:miter;stroke-opacity:1"/>
<path class="bond-6 atom-6 atom-7" d="M 434.3,110.0 L 425.6,115.5" style="fill:none;fill-rule:evenodd;stroke:#000000;stroke-width:2.0px;stroke-linecap:butt;stroke-linejoin:miter;stroke-opacity:1"/>
<path class="bond-7 atom-7 atom-8" d="M 422.1,114.2 L 409.1,107.3" style="fill:none;fill-rule:evenodd;stroke:#000000;stroke-width:2.0px;stroke-linecap:butt;stroke-linejoin:miter;stroke-opacity:1"/>
<path class="bond-8 atom-8 atom-9" d="M 409.1,107.3 L 408.5,92.5" style="fill:none;fill-rule:evenodd;stroke:#000000;stroke-width:2.0px;stroke-linecap:butt;stroke-linejoin:miter;stroke-opacity:1"/>
<path class="bond-9 atom-9 atom-10" d="M 408.5,92.5 L 420.2,83.4" style="fill:none;fill-rule:evenodd;stroke:#000000;stroke-width:2.0px;stroke-linecap:butt;stroke-linejoin:miter;stroke-opacity:1"/>
<path class="bond-9 atom-9 atom-10" d="M 408.5,88.8 L 416.6,82.4" style="fill:none;fill-rule:evenodd;stroke:#000000;stroke-width:2.0px;stroke-linecap:butt;stroke-linejoin:miter;stroke-opacity:1"/>
<path class="bond-52 atom-45 atom-9" d="M 398.3,85.6 L 403.4,89.0" style="fill:none;fill-rule:evenodd;stroke:#0000FF;stroke-width:2.0px;stroke-linecap:butt;stroke-linejoin:miter;stroke-opacity:1"/>
<path class="bond-52 atom-45 atom-9" d="M 403.4,89.0 L 408.5,92.5" style="fill:none;fill-rule:evenodd;stroke:#000000;stroke-width:2.0px;stroke-linecap:butt;stroke-linejoin:miter;stroke-opacity:1"/>
<path class="bond-10 atom-10 atom-11" d="M 420.2,83.4 L 434.4,87.5" style="fill:none;fill-rule:evenodd;stroke:#000000;stroke-width:2.0px;stroke-linecap:butt;stroke-linejoin:miter;stroke-opacity:1"/>
<path class="bond-37 atom-10 atom-38" d="M 420.2,83.4 L 415.1,69.5" style="fill:none;fill-rule:evenodd;stroke:#000000;stroke-width:2.0px;stroke-linecap:butt;stroke-linejoin:miter;stroke-opacity:1"/>
<path class="bond-11 atom-11 atom-12" d="M 433.1,88.2 L 435.9,93.4" style="fill:none;fill-rule:evenodd;stroke:#000000;stroke-width:2.0px;stroke-linecap:butt;stroke-linejoin:miter;stroke-opacity:1"/>
<path class="bond-11 atom-11 atom-12" d="M 435.9,93.4 L 438.7,98.7" style="fill:none;fill-rule:evenodd;stroke:#FF0000;stroke-width:2.0px;stroke-linecap:butt;stroke-linejoin:miter;stroke-opacity:1"/>
<path class="bond-11 atom-11 atom-12" d="M 435.7,86.8 L 438.5,92.0" style="fill:none;fill-rule:evenodd;stroke:#000000;stroke-width:2.0px;stroke-linecap:butt;stroke-linejoin:miter;stroke-opacity:1"/>
<path class="bond-11 atom-11 atom-12" d="M 438.5,92.0 L 441.3,97.3" style="fill:none;fill-rule:evenodd;stroke:#FF0000;stroke-width:2.0px;stroke-linecap:butt;stroke-linejoin:miter;stroke-opacity:1"/>
<path class="bond-12 atom-11 atom-13" d="M 434.4,87.5 L 438.7,83.3" style="fill:none;fill-rule:evenodd;stroke:#000000;stroke-width:2.0px;stroke-linecap:butt;stroke-linejoin:miter;stroke-opacity:1"/>
<path class="bond-12 atom-11 atom-13" d="M 438.7,83.3 L 443.0,79.1" style="fill:none;fill-rule:evenodd;stroke:#0000FF;stroke-width:2.0px;stroke-linecap:butt;stroke-linejoin:miter;stroke-opacity:1"/>
<path class="bond-13 atom-13 atom-14" d="M 443.3,74.7 L 440.1,69.8" style="fill:none;fill-rule:evenodd;stroke:#0000FF;stroke-width:2.0px;stroke-linecap:butt;stroke-linejoin:miter;stroke-opacity:1"/>
<path class="bond-13 atom-13 atom-14" d="M 440.1,69.8 L 436.8,64.9" style="fill:none;fill-rule:evenodd;stroke:#000000;stroke-width:2.0px;stroke-linecap:butt;stroke-linejoin:miter;stroke-opacity:1"/>
<path class="bond-54 atom-37 atom-13" d="M 457.0,85.7 L 452.0,82.2" style="fill:none;fill-rule:evenodd;stroke:#000000;stroke-width:2.0px;stroke-linecap:butt;stroke-linejoin:miter;stroke-opacity:1"/>
<path class="bond-54 atom-37 atom-13" d="M 452.0,82.2 L 447.0,78.6" style="fill:none;fill-rule:evenodd;stroke:#0000FF;stroke-width:2.0px;stroke-linecap:butt;stroke-linejoin:miter;stroke-opacity:1"/>
<path class="bond-14 atom-14 atom-15" d="M 436.8,64.9 L 433.7,50.4" style="fill:none;fill-rule:evenodd;stroke:#000000;stroke-width:2.0px;stroke-linecap:butt;stroke-linejoin:miter;stroke-opacity:1"/>
<path class="bond-15 atom-15 atom-16" d="M 433.7,50.4 L 434.6,44.4" style="fill:none;fill-rule:evenodd;stroke:#000000;stroke-width:2.0px;stroke-linecap:butt;stroke-linejoin:miter;stroke-opacity:1"/>
<path class="bond-15 atom-15 atom-16" d="M 434.6,44.4 L 435.6,38.4" style="fill:none;fill-rule:evenodd;stroke:#CCCC00;stroke-width:2.0px;stroke-linecap:butt;stroke-linejoin:miter;stroke-opacity:1"/>
<path class="bond-16 atom-16 atom-17" d="M 437.4,33.4 L 439.7,29.5" style="fill:none;fill-rule:evenodd;stroke:#CCCC00;stroke-width:2.0px;stroke-linecap:butt;stroke-linejoin:miter;stroke-opacity:1"/>
<path class="bond-16 atom-16 atom-17" d="M 439.7,29.5 L 441.9,25.6" style="fill:none;fill-rule:evenodd;stroke:#FF0000;stroke-width:2.0px;stroke-linecap:butt;stroke-linejoin:miter;stroke-opacity:1"/>
<path class="bond-17 atom-17 atom-18" d="M 445.7,21.2 L 449.5,18.2" style="fill:none;fill-rule:evenodd;stroke:#FF0000;stroke-width:2.0px;stroke-linecap:butt;stroke-linejoin:miter;stroke-opacity:1"/>
<path class="bond-17 atom-17 atom-18" d="M 449.5,18.2 L 453.3,15.1" style="fill:none;fill-rule:evenodd;stroke:#CCCC00;stroke-width:2.0px;stroke-linecap:butt;stroke-linejoin:miter;stroke-opacity:1"/>
<path class="bond-18 atom-18 atom-19" d="M 456.6,13.3 L 467.3,9.9" style="fill:none;fill-rule:evenodd;stroke:#CCCC00;stroke-width:2.0px;stroke-linecap:butt;stroke-linejoin:miter;stroke-opacity:1"/>
<path class="bond-19 atom-19 atom-20" d="M 470.7,9.5 L 482.0,10.2" style="fill:none;fill-rule:evenodd;stroke:#CCCC00;stroke-width:2.0px;stroke-linecap:butt;stroke-linejoin:miter;stroke-opacity:1"/>
<path class="bond-20 atom-20 atom-21" d="M 485.5,11.1 L 490.3,13.3" style="fill:none;fill-rule:evenodd;stroke:#CCCC00;stroke-width:2.0px;stroke-linecap:butt;stroke-linejoin:miter;stroke-opacity:1"/>
<path class="bond-20 atom-20 atom-21" d="M 490.3,13.3 L 495.2,15.6" style="fill:none;fill-rule:evenodd;stroke:#0000FF;stroke-width:2.0px;stroke-linecap:butt;stroke-linejoin:miter;stroke-opacity:1"/>
<path class="bond-21 atom-21 atom-22" d="M 499.6,19.0 L 503.5,23.0" style="fill:none;fill-rule:evenodd;stroke:#0000FF;stroke-width:2.0px;stroke-linecap:butt;stroke-linejoin:miter;stroke-opacity:1"/>
<path class="bond-21 atom-21 atom-22" d="M 503.5,23.0 L 507.4,27.1" style="fill:none;fill-rule:evenodd;stroke:#000000;stroke-width:2.0px;stroke-linecap:butt;stroke-linejoin:miter;stroke-opacity:1"/>
<path class="bond-22 atom-22 atom-23" d="M 507.4,27.1 L 513.1,40.7" style="fill:none;fill-rule:evenodd;stroke:#000000;stroke-width:2.0px;stroke-linecap:butt;stroke-linejoin:miter;stroke-opacity:1"/>
<path class="bond-23 atom-23 atom-24" d="M 513.1,40.7 L 513.3,46.8" style="fill:none;fill-rule:evenodd;stroke:#000000;stroke-width:2.0px;stroke-linecap:butt;stroke-linejoin:miter;stroke-opacity:1"/>
<path class="bond-23 atom-23 atom-24" d="M 513.3,46.8 L 513.5,53.0" style="fill:none;fill-rule:evenodd;stroke:#0000FF;stroke-width:2.0px;stroke-linecap:butt;stroke-linejoin:miter;stroke-opacity:1"/>
<path class="bond-24 atom-24 atom-25" d="M 512.7,58.0 L 510.7,63.7" style="fill:none;fill-rule:evenodd;stroke:#0000FF;stroke-width:2.0px;stroke-linecap:butt;stroke-linejoin:miter;stroke-opacity:1"/>
<path class="bond-24 atom-24 atom-25" d="M 510.7,63.7 L 508.7,69.4" style="fill:none;fill-rule:evenodd;stroke:#000000;stroke-width:2.0px;stroke-linecap:butt;stroke-linejoin:miter;stroke-opacity:1"/>
<path class="bond-25 atom-25 atom-26" d="M 508.7,69.4 L 499.0,80.6" style="fill:none;fill-rule:evenodd;stroke:#000000;stroke-width:2.0px;stroke-linecap:butt;stroke-linejoin:miter;stroke-opacity:1"/>
<path class="bond-26 atom-26 atom-27" d="M 499.0,80.6 L 493.5,83.5" style="fill:none;fill-rule:evenodd;stroke:#000000;stroke-width:2.0px;stroke-linecap:butt;stroke-linejoin:miter;stroke-opacity:1"/>
<path class="bond-26 atom-26 atom-27" d="M 493.5,83.5 L 488.0,86.5" style="fill:none;fill-rule:evenodd;stroke:#0000FF;stroke-width:2.0px;stroke-linecap:butt;stroke-linejoin:miter;stroke-opacity:1"/>
<path class="bond-27 atom-27 atom-28" d="M 486.8,90.1 L 489.7,99.2" style="fill:none;fill-rule:evenodd;stroke:#0000FF;stroke-width:2.0px;stroke-linecap:butt;stroke-linejoin:miter;stroke-opacity:1"/>
<path class="bond-35 atom-27 atom-36" d="M 484.0,87.8 L 477.7,88.6" style="fill:none;fill-rule:evenodd;stroke:#0000FF;stroke-width:2.0px;stroke-linecap:butt;stroke-linejoin:miter;stroke-opacity:1"/>
<path class="bond-35 atom-27 atom-36" d="M 477.7,88.6 L 471.4,89.4" style="fill:none;fill-rule:evenodd;stroke:#000000;stroke-width:2.0px;stroke-linecap:butt;stroke-linejoin:miter;stroke-opacity:1"/>
<path class="bond-28 atom-28 atom-29" d="M 488.5,103.8 L 484.5,108.2" style="fill:none;fill-rule:evenodd;stroke:#0000FF;stroke-width:2.0px;stroke-linecap:butt;stroke-linejoin:miter;stroke-opacity:1"/>
<path class="bond-28 atom-28 atom-29" d="M 484.5,108.2 L 480.5,112.5" style="fill:none;fill-rule:evenodd;stroke:#000000;stroke-width:2.0px;stroke-linecap:butt;stroke-linejoin:miter;stroke-opacity:1"/>
<path class="bond-29 atom-28 atom-30" d="M 492.5,102.1 L 498.7,103.5" style="fill:none;fill-rule:evenodd;stroke:#0000FF;stroke-width:2.0px;stroke-linecap:butt;stroke-linejoin:miter;stroke-opacity:1"/>
<path class="bond-29 atom-28 atom-30" d="M 498.7,103.5 L 504.9,104.8" style="fill:none;fill-rule:evenodd;stroke:#000000;stroke-width:2.0px;stroke-linecap:butt;stroke-linejoin:miter;stroke-opacity:1"/>
<path class="bond-30 atom-30 atom-31" d="M 504.9,104.8 L 509.1,100.3" style="fill:none;fill-rule:evenodd;stroke:#000000;stroke-width:2.0px;stroke-linecap:butt;stroke-linejoin:miter;stroke-opacity:1"/>
<path class="bond-30 atom-30 atom-31" d="M 509.1,100.3 L 513.2,95.7" style="fill:none;fill-rule:evenodd;stroke:#33CCCC;stroke-width:2.0px;stroke-linecap:butt;stroke-linejoin:miter;stroke-opacity:1"/>
<path class="bond-31 atom-30 atom-32" d="M 504.9,104.8 L 506.7,110.6" style="fill:none;fill-rule:evenodd;stroke:#000000;stroke-width:2.0px;stroke-linecap:butt;stroke-linejoin:miter;stroke-opacity:1"/>
<path class="bond-31 atom-30 atom-32" d="M 506.7,110.6 L 508.6,116.4" style="fill:none;fill-rule:evenodd;stroke:#FF0000;stroke-width:2.0px;stroke-linecap:butt;stroke-linejoin:miter;stroke-opacity:1"/>
<path class="bond-32 atom-32 atom-33" d="M 511.7,119.4 L 521.5,121.6" style="fill:none;fill-rule:evenodd;stroke:#FF0000;stroke-width:2.0px;stroke-linecap:butt;stroke-linejoin:miter;stroke-opacity:1"/>
<path class="bond-33 atom-33 atom-34" d="M 524.6,124.7 L 526.4,130.4" style="fill:none;fill-rule:evenodd;stroke:#FF0000;stroke-width:2.0px;stroke-linecap:butt;stroke-linejoin:miter;stroke-opacity:1"/>
<path class="bond-33 atom-33 atom-34" d="M 526.4,130.4 L 528.2,136.2" style="fill:none;fill-rule:evenodd;stroke:#000000;stroke-width:2.0px;stroke-linecap:butt;stroke-linejoin:miter;stroke-opacity:1"/>
<path class="bond-34 atom-34 atom-35" d="M 528.2,136.2 L 534.5,137.5" style="fill:none;fill-rule:evenodd;stroke:#000000;stroke-width:2.0px;stroke-linecap:butt;stroke-linejoin:miter;stroke-opacity:1"/>
<path class="bond-34 atom-34 atom-35" d="M 534.5,137.5 L 540.7,138.9" style="fill:none;fill-rule:evenodd;stroke:#00CC00;stroke-width:2.0px;stroke-linecap:butt;stroke-linejoin:miter;stroke-opacity:1"/>
<path class="bond-36 atom-36 atom-37" d="M 471.4,89.4 L 457.0,85.7" style="fill:none;fill-rule:evenodd;stroke:#000000;stroke-width:2.0px;stroke-linecap:butt;stroke-linejoin:miter;stroke-opacity:1"/>
<path class="bond-38 atom-38 atom-39" d="M 415.1,69.5 L 422.0,56.5" style="fill:none;fill-rule:evenodd;stroke:#000000;stroke-width:2.0px;stroke-linecap:butt;stroke-linejoin:miter;stroke-opacity:1"/>
<path class="bond-38 atom-38 atom-39" d="M 413.5,66.2 L 418.4,57.1" style="fill:none;fill-rule:evenodd;stroke:#000000;stroke-width:2.0px;stroke-linecap:butt;stroke-linejoin:miter;stroke-opacity:1"/>
<path class="bond-55 atom-44 atom-38" d="M 400.3,70.1 L 415.1,69.5" style="fill:none;fill-rule:evenodd;stroke:#000000;stroke-width:2.0px;stroke-linecap:butt;stroke-linejoin:miter;stroke-opacity:1"/>
<path class="bond-39 atom-39 atom-40" d="M 422.0,56.5 L 414.2,44.0" style="fill:none;fill-rule:evenodd;stroke:#000000;stroke-width:2.0px;stroke-linecap:butt;stroke-linejoin:miter;stroke-opacity:1"/>
<path class="bond-40 atom-40 atom-41" d="M 414.2,44.0 L 399.4,44.5" style="fill:none;fill-rule:evenodd;stroke:#000000;stroke-width:2.0px;stroke-linecap:butt;stroke-linejoin:miter;stroke-opacity:1"/>
<path class="bond-40 atom-40 atom-41" d="M 412.1,47.0 L 401.8,47.4" style="fill:none;fill-rule:evenodd;stroke:#000000;stroke-width:2.0px;stroke-linecap:butt;stroke-linejoin:miter;stroke-opacity:1"/>
<path class="bond-41 atom-41 atom-42" d="M 399.4,44.5 L 396.3,39.5" style="fill:none;fill-rule:evenodd;stroke:#000000;stroke-width:2.0px;stroke-linecap:butt;stroke-linejoin:miter;stroke-opacity:1"/>
<path class="bond-41 atom-41 atom-42" d="M 396.3,39.5 L 393.2,34.6" style="fill:none;fill-rule:evenodd;stroke:#FF0000;stroke-width:2.0px;stroke-linecap:butt;stroke-linejoin:miter;stroke-opacity:1"/>
<path class="bond-42 atom-41 atom-43" d="M 399.4,44.5 L 392.5,57.5" style="fill:none;fill-rule:evenodd;stroke:#000000;stroke-width:2.0px;stroke-linecap:butt;stroke-linejoin:miter;stroke-opacity:1"/>
<path class="bond-43 atom-43 atom-44" d="M 392.5,57.5 L 400.3,70.1" style="fill:none;fill-rule:evenodd;stroke:#000000;stroke-width:2.0px;stroke-linecap:butt;stroke-linejoin:miter;stroke-opacity:1"/>
<path class="bond-43 atom-43 atom-44" d="M 396.2,57.8 L 401.7,66.6" style="fill:none;fill-rule:evenodd;stroke:#000000;stroke-width:2.0px;stroke-linecap:butt;stroke-linejoin:miter;stroke-opacity:1"/>
<path class="bond-44 atom-44 atom-45" d="M 400.3,70.1 L 398.7,75.9" style="fill:none;fill-rule:evenodd;stroke:#000000;stroke-width:2.0px;stroke-linecap:butt;stroke-linejoin:miter;stroke-opacity:1"/>
<path class="bond-44 atom-44 atom-45" d="M 398.7,75.9 L 397.0,81.8" style="fill:none;fill-rule:evenodd;stroke:#0000FF;stroke-width:2.0px;stroke-linecap:butt;stroke-linejoin:miter;stroke-opacity:1"/>
<path class="bond-45 atom-45 atom-46" d="M 394.3,85.0 L 388.4,87.2" style="fill:none;fill-rule:evenodd;stroke:#0000FF;stroke-width:2.0px;stroke-linecap:butt;stroke-linejoin:miter;stroke-opacity:1"/>
<path class="bond-45 atom-45 atom-46" d="M 388.4,87.2 L 382.4,89.3" style="fill:none;fill-rule:evenodd;stroke:#000000;stroke-width:2.0px;stroke-linecap:butt;stroke-linejoin:miter;stroke-opacity:1"/>
<path class="bond-46 atom-46 atom-47" d="M 382.4,89.3 L 379.9,103.9" style="fill:none;fill-rule:evenodd;stroke:#000000;stroke-width:2.0px;stroke-linecap:butt;stroke-linejoin:miter;stroke-opacity:1"/>
<path class="bond-46 atom-46 atom-47" d="M 379.1,91.0 L 377.3,101.2" style="fill:none;fill-rule:evenodd;stroke:#000000;stroke-width:2.0px;stroke-linecap:butt;stroke-linejoin:miter;stroke-opacity:1"/>
<path class="bond-53 atom-51 atom-46" d="M 371.1,79.8 L 382.4,89.3" style="fill:none;fill-rule:evenodd;stroke:#000000;stroke-width:2.0px;stroke-linecap:butt;stroke-linejoin:miter;stroke-opacity:1"/>
<path class="bond-47 atom-47 atom-48" d="M 379.9,103.9 L 366.0,108.9" style="fill:none;fill-rule:evenodd;stroke:#000000;stroke-width:2.0px;stroke-linecap:butt;stroke-linejoin:miter;stroke-opacity:1"/>
<path class="bond-48 atom-48 atom-49" d="M 366.0,108.9 L 354.7,99.4" style="fill:none;fill-rule:evenodd;stroke:#000000;stroke-width:2.0px;stroke-linecap:butt;stroke-linejoin:miter;stroke-opacity:1"/>
<path class="bond-48 atom-48 atom-49" d="M 366.2,105.2 L 358.3,98.6" style="fill:none;fill-rule:evenodd;stroke:#000000;stroke-width:2.0px;stroke-linecap:butt;stroke-linejoin:miter;stroke-opacity:1"/>
<path class="bond-49 atom-49 atom-50" d="M 354.7,99.4 L 357.2,84.9" style="fill:none;fill-rule:evenodd;stroke:#000000;stroke-width:2.0px;stroke-linecap:butt;stroke-linejoin:miter;stroke-opacity:1"/>
<path class="bond-50 atom-50 atom-51" d="M 357.2,84.9 L 371.1,79.8" style="fill:none;fill-rule:evenodd;stroke:#000000;stroke-width:2.0px;stroke-linecap:butt;stroke-linejoin:miter;stroke-opacity:1"/>
<path class="bond-50 atom-50 atom-51" d="M 360.3,86.9 L 370.0,83.4" style="fill:none;fill-rule:evenodd;stroke:#000000;stroke-width:2.0px;stroke-linecap:butt;stroke-linejoin:miter;stroke-opacity:1"/>
<path class="atom-3" d="M 435.0 148.5 L 437.5 148.5 L 437.5 149.0 L 435.5 149.0 L 435.5 150.3 L 437.3 150.3 L 437.3 150.8 L 435.5 150.8 L 435.5 152.8 L 435.0 152.8 L 435.0 148.5 " fill="#33CCCC"/>
<path class="atom-12" d="M 439.4 100.5 Q 439.4 99.5, 439.9 98.9 Q 440.4 98.4, 441.3 98.4 Q 442.3 98.4, 442.8 98.9 Q 443.3 99.5, 443.3 100.5 Q 443.3 101.5, 442.8 102.1 Q 442.3 102.7, 441.3 102.7 Q 440.4 102.7, 439.9 102.1 Q 439.4 101.5, 439.4 100.5 M 441.3 102.2 Q 442.0 102.2, 442.3 101.8 Q 442.7 101.4, 442.7 100.5 Q 442.7 99.7, 442.3 99.3 Q 442.0 98.8, 441.3 98.8 Q 440.7 98.8, 440.3 99.3 Q 440.0 99.7, 440.0 100.5 Q 440.0 101.4, 440.3 101.8 Q 440.7 102.2, 441.3 102.2 " fill="#FF0000"/>
<path class="atom-13" d="M 444.1 75.1 L 445.4 77.3 Q 445.6 77.5, 445.8 77.9 Q 446.0 78.3, 446.0 78.4 L 446.0 75.1 L 446.6 75.1 L 446.6 79.3 L 446.0 79.3 L 444.5 76.9 Q 444.4 76.6, 444.2 76.2 Q 444.0 75.9, 443.9 75.8 L 443.9 79.3 L 443.4 79.3 L 443.4 75.1 L 444.1 75.1 " fill="#0000FF"/>
<path class="atom-16" d="M 434.8 37.3 Q 434.8 37.3, 435.0 37.4 Q 435.2 37.5, 435.4 37.5 Q 435.7 37.6, 435.9 37.6 Q 436.3 37.6, 436.5 37.4 Q 436.8 37.2, 436.8 36.9 Q 436.8 36.6, 436.6 36.5 Q 436.5 36.3, 436.3 36.3 Q 436.2 36.2, 435.9 36.1 Q 435.5 36.0, 435.3 35.9 Q 435.0 35.8, 434.9 35.5 Q 434.7 35.3, 434.7 34.9 Q 434.7 34.4, 435.1 34.1 Q 435.4 33.7, 436.2 33.7 Q 436.7 33.7, 437.2 34.0 L 437.1 34.4 Q 436.6 34.2, 436.2 34.2 Q 435.8 34.2, 435.5 34.4 Q 435.3 34.6, 435.3 34.9 Q 435.3 35.1, 435.4 35.2 Q 435.6 35.4, 435.7 35.4 Q 435.9 35.5, 436.2 35.6 Q 436.6 35.7, 436.8 35.8 Q 437.0 36.0, 437.2 36.2 Q 437.4 36.4, 437.4 36.9 Q 437.4 37.4, 437.0 37.8 Q 436.6 38.1, 435.9 38.1 Q 435.5 38.1, 435.2 38.0 Q 435.0 37.9, 434.6 37.8 L 434.8 37.3 " fill="#CCCC00"/>
<path class="atom-17" d="M 441.4 23.1 Q 441.4 22.1, 441.9 21.5 Q 442.4 20.9, 443.4 20.9 Q 444.3 20.9, 444.8 21.5 Q 445.3 22.1, 445.3 23.1 Q 445.3 24.1, 444.8 24.7 Q 444.3 25.3, 443.4 25.3 Q 442.5 25.3, 441.9 24.7 Q 441.4 24.1, 441.4 23.1 M 443.4 24.8 Q 444.0 24.8, 444.4 24.4 Q 444.7 23.9, 444.7 23.1 Q 444.7 22.2, 444.4 21.8 Q 444.0 21.4, 443.4 21.4 Q 442.7 21.4, 442.4 21.8 Q 442.0 22.2, 442.0 23.1 Q 442.0 23.9, 442.4 24.4 Q 442.7 24.8, 443.4 24.8 " fill="#FF0000"/>
<path class="atom-18" d="M 453.7 15.3 Q 453.8 15.3, 454.0 15.4 Q 454.2 15.5, 454.4 15.5 Q 454.6 15.6, 454.8 15.6 Q 455.2 15.6, 455.4 15.4 Q 455.7 15.2, 455.7 14.8 Q 455.7 14.6, 455.6 14.5 Q 455.4 14.3, 455.3 14.2 Q 455.1 14.2, 454.8 14.1 Q 454.4 14.0, 454.2 13.8 Q 454.0 13.7, 453.8 13.5 Q 453.6 13.3, 453.6 12.9 Q 453.6 12.4, 454.0 12.0 Q 454.4 11.7, 455.1 11.7 Q 455.6 11.7, 456.1 11.9 L 456.0 12.4 Q 455.5 12.2, 455.1 12.2 Q 454.7 12.2, 454.5 12.4 Q 454.2 12.5, 454.2 12.8 Q 454.2 13.1, 454.3 13.2 Q 454.5 13.3, 454.6 13.4 Q 454.8 13.5, 455.1 13.6 Q 455.5 13.7, 455.7 13.8 Q 455.9 13.9, 456.1 14.2 Q 456.3 14.4, 456.3 14.8 Q 456.3 15.4, 455.9 15.7 Q 455.5 16.1, 454.8 16.1 Q 454.5 16.1, 454.2 16.0 Q 453.9 15.9, 453.5 15.8 L 453.7 15.3 " fill="#CCCC00"/>
<path class="atom-19" d="M 467.8 10.8 Q 467.8 10.8, 468.0 10.9 Q 468.2 11.0, 468.4 11.1 Q 468.7 11.1, 468.9 11.1 Q 469.3 11.1, 469.5 10.9 Q 469.8 10.7, 469.8 10.4 Q 469.8 10.1, 469.6 10.0 Q 469.5 9.9, 469.3 9.8 Q 469.2 9.7, 468.9 9.6 Q 468.5 9.5, 468.3 9.4 Q 468.0 9.3, 467.9 9.0 Q 467.7 8.8, 467.7 8.4 Q 467.7 7.9, 468.1 7.6 Q 468.4 7.2, 469.2 7.2 Q 469.7 7.2, 470.2 7.5 L 470.1 7.9 Q 469.6 7.7, 469.2 7.7 Q 468.8 7.7, 468.5 7.9 Q 468.3 8.1, 468.3 8.4 Q 468.3 8.6, 468.4 8.7 Q 468.5 8.9, 468.7 8.9 Q 468.9 9.0, 469.2 9.1 Q 469.6 9.2, 469.8 9.4 Q 470.0 9.5, 470.2 9.7 Q 470.3 10.0, 470.3 10.4 Q 470.3 11.0, 470.0 11.3 Q 469.6 11.6, 468.9 11.6 Q 468.5 11.6, 468.2 11.5 Q 468.0 11.4, 467.6 11.3 L 467.8 10.8 " fill="#CCCC00"/>
<path class="atom-20" d="M 482.5 11.7 Q 482.6 11.8, 482.8 11.8 Q 483.0 11.9, 483.2 12.0 Q 483.4 12.0, 483.6 12.0 Q 484.0 12.0, 484.3 11.8 Q 484.5 11.6, 484.5 11.3 Q 484.5 11.1, 484.4 10.9 Q 484.3 10.8, 484.1 10.7 Q 483.9 10.6, 483.6 10.5 Q 483.2 10.4, 483.0 10.3 Q 482.8 10.2, 482.6 10.0 Q 482.5 9.7, 482.5 9.4 Q 482.5 8.8, 482.8 8.5 Q 483.2 8.2, 483.9 8.2 Q 484.4 8.2, 485.0 8.4 L 484.8 8.9 Q 484.3 8.7, 483.9 8.7 Q 483.5 8.7, 483.3 8.8 Q 483.1 9.0, 483.1 9.3 Q 483.1 9.5, 483.2 9.7 Q 483.3 9.8, 483.5 9.9 Q 483.6 9.9, 483.9 10.0 Q 484.3 10.2, 484.5 10.3 Q 484.8 10.4, 484.9 10.6 Q 485.1 10.9, 485.1 11.3 Q 485.1 11.9, 484.7 12.2 Q 484.3 12.5, 483.7 12.5 Q 483.3 12.5, 483.0 12.4 Q 482.7 12.4, 482.4 12.2 L 482.5 11.7 " fill="#CCCC00"/>
<path class="atom-21" d="M 496.2 14.4 L 497.6 16.6 Q 497.7 16.8, 498.0 17.2 Q 498.2 17.6, 498.2 17.7 L 498.2 14.4 L 498.8 14.4 L 498.8 18.6 L 498.2 18.6 L 496.7 16.1 Q 496.5 15.9, 496.3 15.5 Q 496.1 15.2, 496.1 15.1 L 496.1 18.6 L 495.5 18.6 L 495.5 14.4 L 496.2 14.4 " fill="#0000FF"/>
<path class="atom-21" d="M 499.3 14.4 L 499.8 14.4 L 499.8 16.2 L 502.0 16.2 L 502.0 14.4 L 502.6 14.4 L 502.6 18.6 L 502.0 18.6 L 502.0 16.6 L 499.8 16.6 L 499.8 18.6 L 499.3 18.6 L 499.3 14.4 " fill="#0000FF"/>
<path class="atom-24" d="M 512.6 53.3 L 514.0 55.6 Q 514.2 55.8, 514.4 56.2 Q 514.6 56.6, 514.6 56.6 L 514.6 53.3 L 515.2 53.3 L 515.2 57.6 L 514.6 57.6 L 513.1 55.1 Q 512.9 54.8, 512.8 54.5 Q 512.6 54.2, 512.5 54.1 L 512.5 57.6 L 512.0 57.6 L 512.0 53.3 L 512.6 53.3 " fill="#0000FF"/>
<path class="atom-24" d="M 515.7 53.3 L 516.3 53.3 L 516.3 55.1 L 518.5 55.1 L 518.5 53.3 L 519.0 53.3 L 519.0 57.6 L 518.5 57.6 L 518.5 55.6 L 516.3 55.6 L 516.3 57.6 L 515.7 57.6 L 515.7 53.3 " fill="#0000FF"/>
<path class="atom-27" d="M 485.1 85.4 L 486.5 87.7 Q 486.6 87.9, 486.8 88.3 Q 487.1 88.7, 487.1 88.7 L 487.1 85.4 L 487.6 85.4 L 487.6 89.7 L 487.0 89.7 L 485.6 87.2 Q 485.4 86.9, 485.2 86.6 Q 485.0 86.3, 485.0 86.2 L 485.0 89.7 L 484.4 89.7 L 484.4 85.4 L 485.1 85.4 " fill="#0000FF"/>
<path class="atom-28" d="M 489.5 99.5 L 490.9 101.8 Q 491.1 102.0, 491.3 102.4 Q 491.5 102.8, 491.5 102.8 L 491.5 99.5 L 492.1 99.5 L 492.1 103.8 L 491.5 103.8 L 490.0 101.3 Q 489.8 101.0, 489.7 100.7 Q 489.5 100.4, 489.4 100.3 L 489.4 103.8 L 488.9 103.8 L 488.9 99.5 L 489.5 99.5 " fill="#0000FF"/>
<path class="atom-31" d="M 513.6 91.8 L 516.1 91.8 L 516.1 92.3 L 514.2 92.3 L 514.2 93.6 L 515.9 93.6 L 515.9 94.1 L 514.2 94.1 L 514.2 96.0 L 513.6 96.0 L 513.6 91.8 " fill="#33CCCC"/>
<path class="atom-32" d="M 507.4 118.9 Q 507.4 117.9, 507.9 117.3 Q 508.4 116.8, 509.4 116.8 Q 510.3 116.8, 510.8 117.3 Q 511.3 117.9, 511.3 118.9 Q 511.3 119.9, 510.8 120.5 Q 510.3 121.1, 509.4 121.1 Q 508.4 121.1, 507.9 120.5 Q 507.4 120.0, 507.4 118.9 M 509.4 120.6 Q 510.0 120.6, 510.4 120.2 Q 510.7 119.8, 510.7 118.9 Q 510.7 118.1, 510.4 117.7 Q 510.0 117.2, 509.4 117.2 Q 508.7 117.2, 508.4 117.7 Q 508.0 118.1, 508.0 118.9 Q 508.0 119.8, 508.4 120.2 Q 508.7 120.6, 509.4 120.6 " fill="#FF0000"/>
<path class="atom-33" d="M 521.8 122.1 Q 521.8 121.1, 522.3 120.5 Q 522.8 119.9, 523.8 119.9 Q 524.7 119.9, 525.2 120.5 Q 525.7 121.1, 525.7 122.1 Q 525.7 123.1, 525.2 123.7 Q 524.7 124.3, 523.8 124.3 Q 522.9 124.3, 522.3 123.7 Q 521.8 123.1, 521.8 122.1 M 523.8 123.8 Q 524.4 123.8, 524.8 123.4 Q 525.1 122.9, 525.1 122.1 Q 525.1 121.3, 524.8 120.8 Q 524.4 120.4, 523.8 120.4 Q 523.1 120.4, 522.8 120.8 Q 522.4 121.3, 522.4 122.1 Q 522.4 123.0, 522.8 123.4 Q 523.1 123.8, 523.8 123.8 " fill="#FF0000"/>
<path class="atom-35" d="M 541.0 139.5 Q 541.0 138.4, 541.5 137.9 Q 542.0 137.3, 543.0 137.3 Q 543.8 137.3, 544.3 137.9 L 543.9 138.3 Q 543.6 137.8, 543.0 137.8 Q 542.3 137.8, 542.0 138.2 Q 541.6 138.7, 541.6 139.5 Q 541.6 140.3, 542.0 140.8 Q 542.3 141.2, 543.0 141.2 Q 543.5 141.2, 544.0 140.9 L 544.2 141.4 Q 544.0 141.5, 543.7 141.6 Q 543.3 141.7, 542.9 141.7 Q 542.0 141.7, 541.5 141.1 Q 541.0 140.5, 541.0 139.5 " fill="#00CC00"/>
<path class="atom-35" d="M 544.8 137.1 L 545.4 137.1 L 545.4 141.6 L 544.8 141.6 L 544.8 137.1 " fill="#00CC00"/>
<path class="atom-42" d="M 386.0 29.9 L 386.6 29.9 L 386.6 31.7 L 388.8 31.7 L 388.8 29.9 L 389.3 29.9 L 389.3 34.1 L 388.8 34.1 L 388.8 32.2 L 386.6 32.2 L 386.6 34.1 L 386.0 34.1 L 386.0 29.9 " fill="#FF0000"/>
<path class="atom-42" d="M 389.6 32.0 Q 389.6 31.0, 390.2 30.4 Q 390.7 29.8, 391.6 29.8 Q 392.5 29.8, 393.0 30.4 Q 393.5 31.0, 393.5 32.0 Q 393.5 33.0, 393.0 33.6 Q 392.5 34.2, 391.6 34.2 Q 390.7 34.2, 390.2 33.6 Q 389.6 33.0, 389.6 32.0 M 391.6 33.7 Q 392.2 33.7, 392.6 33.3 Q 392.9 32.8, 392.9 32.0 Q 392.9 31.1, 392.6 30.7 Q 392.2 30.3, 391.6 30.3 Q 390.9 30.3, 390.6 30.7 Q 390.2 31.1, 390.2 32.0 Q 390.2 32.8, 390.6 33.3 Q 390.9 33.7, 391.6 33.7 " fill="#FF0000"/>
<path class="atom-45" d="M 395.4 82.1 L 396.7 84.4 Q 396.9 84.6, 397.1 85.0 Q 397.3 85.4, 397.3 85.4 L 397.3 82.1 L 397.9 82.1 L 397.9 86.4 L 397.3 86.4 L 395.8 83.9 Q 395.7 83.6, 395.5 83.3 Q 395.3 83.0, 395.2 82.9 L 395.2 86.4 L 394.7 86.4 L 394.7 82.1 L 395.4 82.1 " fill="#0000FF"/>
<path class="bond-0 atom-0 atom-1" d="M 695.3,41.4 L 710.0,42.9" style="fill:none;fill-rule:evenodd;stroke:#000000;stroke-width:2.0px;stroke-linecap:butt;stroke-linejoin:miter;stroke-opacity:1"/>
<path class="bond-1 atom-1 atom-2" d="M 710.0,42.9 L 718.7,30.9" style="fill:none;fill-rule:evenodd;stroke:#000000;stroke-width:2.0px;stroke-linecap:butt;stroke-linejoin:miter;stroke-opacity:1"/>
<path class="bond-1 atom-1 atom-2" d="M 713.7,42.8 L 719.8,34.5" style="fill:none;fill-rule:evenodd;stroke:#000000;stroke-width:2.0px;stroke-linecap:butt;stroke-linejoin:miter;stroke-opacity:1"/>
<path class="bond-46 atom-7 atom-1" d="M 716.0,56.4 L 710.0,42.9" style="fill:none;fill-rule:evenodd;stroke:#000000;stroke-width:2.0px;stroke-linecap:butt;stroke-linejoin:miter;stroke-opacity:1"/>
<path class="bond-2 atom-2 atom-3" d="M 718.7,30.9 L 716.2,25.4" style="fill:none;fill-rule:evenodd;stroke:#000000;stroke-width:2.0px;stroke-linecap:butt;stroke-linejoin:miter;stroke-opacity:1"/>
<path class="bond-2 atom-2 atom-3" d="M 716.2,25.4 L 713.8,19.9" style="fill:none;fill-rule:evenodd;stroke:#33CCCC;stroke-width:2.0px;stroke-linecap:butt;stroke-linejoin:miter;stroke-opacity:1"/>
<path class="bond-3 atom-2 atom-4" d="M 718.7,30.9 L 733.4,32.4" style="fill:none;fill-rule:evenodd;stroke:#000000;stroke-width:2.0px;stroke-linecap:butt;stroke-linejoin:miter;stroke-opacity:1"/>
<path class="bond-4 atom-4 atom-5" d="M 733.4,32.4 L 739.4,45.9" style="fill:none;fill-rule:evenodd;stroke:#000000;stroke-width:2.0px;stroke-linecap:butt;stroke-linejoin:miter;stroke-opacity:1"/>
<path class="bond-4 atom-4 atom-5" d="M 731.6,35.7 L 735.8,45.1" style="fill:none;fill-rule:evenodd;stroke:#000000;stroke-width:2.0px;stroke-linecap:butt;stroke-linejoin:miter;stroke-opacity:1"/>
<path class="bond-5 atom-5 atom-6" d="M 739.4,45.9 L 730.7,57.9" style="fill:none;fill-rule:evenodd;stroke:#000000;stroke-width:2.0px;stroke-linecap:butt;stroke-linejoin:miter;stroke-opacity:1"/>
<path class="bond-6 atom-6 atom-7" d="M 730.7,57.9 L 716.0,56.4" style="fill:none;fill-rule:evenodd;stroke:#000000;stroke-width:2.0px;stroke-linecap:butt;stroke-linejoin:miter;stroke-opacity:1"/>
<path class="bond-6 atom-6 atom-7" d="M 728.8,54.7 L 718.5,53.7" style="fill:none;fill-rule:evenodd;stroke:#000000;stroke-width:2.0px;stroke-linecap:butt;stroke-linejoin:miter;stroke-opacity:1"/>
<path class="bond-7 atom-7 atom-8" d="M 716.0,56.4 L 707.4,68.3" style="fill:none;fill-rule:evenodd;stroke:#000000;stroke-width:2.0px;stroke-linecap:butt;stroke-linejoin:miter;stroke-opacity:1"/>
<path class="bond-8 atom-8 atom-9" d="M 707.4,68.3 L 713.4,81.8" style="fill:none;fill-rule:evenodd;stroke:#000000;stroke-width:2.0px;stroke-linecap:butt;stroke-linejoin:miter;stroke-opacity:1"/>
<path class="bond-9 atom-9 atom-10" d="M 713.4,81.8 L 727.9,84.9" style="fill:none;fill-rule:evenodd;stroke:#000000;stroke-width:2.0px;stroke-linecap:butt;stroke-linejoin:miter;stroke-opacity:1"/>
<path class="bond-9 atom-9 atom-10" d="M 715.0,85.2 L 725.1,87.3" style="fill:none;fill-rule:evenodd;stroke:#000000;stroke-width:2.0px;stroke-linecap:butt;stroke-linejoin:miter;stroke-opacity:1"/>
<path class="bond-47 atom-40 atom-9" d="M 707.5,92.1 L 710.4,87.0" style="fill:none;fill-rule:evenodd;stroke:#0000FF;stroke-width:2.0px;stroke-linecap:butt;stroke-linejoin:miter;stroke-opacity:1"/>
<path class="bond-47 atom-40 atom-9" d="M 710.4,87.0 L 713.4,81.8" style="fill:none;fill-rule:evenodd;stroke:#000000;stroke-width:2.0px;stroke-linecap:butt;stroke-linejoin:miter;stroke-opacity:1"/>
<path class="bond-10 atom-10 atom-11" d="M 727.9,84.9 L 738.8,75.0" style="fill:none;fill-rule:evenodd;stroke:#000000;stroke-width:2.0px;stroke-linecap:butt;stroke-linejoin:miter;stroke-opacity:1"/>
<path class="bond-32 atom-10 atom-33" d="M 727.9,84.9 L 729.4,99.6" style="fill:none;fill-rule:evenodd;stroke:#000000;stroke-width:2.0px;stroke-linecap:butt;stroke-linejoin:miter;stroke-opacity:1"/>
<path class="bond-11 atom-11 atom-12" d="M 740.3,75.0 L 740.5,68.9" style="fill:none;fill-rule:evenodd;stroke:#000000;stroke-width:2.0px;stroke-linecap:butt;stroke-linejoin:miter;stroke-opacity:1"/>
<path class="bond-11 atom-11 atom-12" d="M 740.5,68.9 L 740.7,62.8" style="fill:none;fill-rule:evenodd;stroke:#FF0000;stroke-width:2.0px;stroke-linecap:butt;stroke-linejoin:miter;stroke-opacity:1"/>
<path class="bond-11 atom-11 atom-12" d="M 737.3,74.9 L 737.5,68.8" style="fill:none;fill-rule:evenodd;stroke:#000000;stroke-width:2.0px;stroke-linecap:butt;stroke-linejoin:miter;stroke-opacity:1"/>
<path class="bond-11 atom-11 atom-12" d="M 737.5,68.8 L 737.8,62.7" style="fill:none;fill-rule:evenodd;stroke:#FF0000;stroke-width:2.0px;stroke-linecap:butt;stroke-linejoin:miter;stroke-opacity:1"/>
<path class="bond-12 atom-11 atom-13" d="M 738.8,75.0 L 744.9,76.9" style="fill:none;fill-rule:evenodd;stroke:#000000;stroke-width:2.0px;stroke-linecap:butt;stroke-linejoin:miter;stroke-opacity:1"/>
<path class="bond-12 atom-11 atom-13" d="M 744.9,76.9 L 750.9,78.9" style="fill:none;fill-rule:evenodd;stroke:#0000FF;stroke-width:2.0px;stroke-linecap:butt;stroke-linejoin:miter;stroke-opacity:1"/>
<path class="bond-13 atom-13 atom-14" d="M 752.6,82.0 L 751.8,88.1" style="fill:none;fill-rule:evenodd;stroke:#0000FF;stroke-width:2.0px;stroke-linecap:butt;stroke-linejoin:miter;stroke-opacity:1"/>
<path class="bond-13 atom-13 atom-14" d="M 751.8,88.1 L 751.0,94.2" style="fill:none;fill-rule:evenodd;stroke:#000000;stroke-width:2.0px;stroke-linecap:butt;stroke-linejoin:miter;stroke-opacity:1"/>
<path class="bond-49 atom-32 atom-13" d="M 759.9,66.5 L 757.1,71.8" style="fill:none;fill-rule:evenodd;stroke:#000000;stroke-width:2.0px;stroke-linecap:butt;stroke-linejoin:miter;stroke-opacity:1"/>
<path class="bond-49 atom-32 atom-13" d="M 757.1,71.8 L 754.2,77.0" style="fill:none;fill-rule:evenodd;stroke:#0000FF;stroke-width:2.0px;stroke-linecap:butt;stroke-linejoin:miter;stroke-opacity:1"/>
<path class="bond-14 atom-14 atom-15" d="M 751.0,94.2 L 754.5,108.5" style="fill:none;fill-rule:evenodd;stroke:#000000;stroke-width:2.0px;stroke-linecap:butt;stroke-linejoin:miter;stroke-opacity:1"/>
<path class="bond-15 atom-15 atom-16" d="M 754.5,108.5 L 757.9,113.3" style="fill:none;fill-rule:evenodd;stroke:#000000;stroke-width:2.0px;stroke-linecap:butt;stroke-linejoin:miter;stroke-opacity:1"/>
<path class="bond-15 atom-15 atom-16" d="M 757.9,113.3 L 761.3,118.1" style="fill:none;fill-rule:evenodd;stroke:#CCCC00;stroke-width:2.0px;stroke-linecap:butt;stroke-linejoin:miter;stroke-opacity:1"/>
<path class="bond-16 atom-16 atom-17" d="M 764.7,121.7 L 768.9,124.5" style="fill:none;fill-rule:evenodd;stroke:#CCCC00;stroke-width:2.0px;stroke-linecap:butt;stroke-linejoin:miter;stroke-opacity:1"/>
<path class="bond-16 atom-16 atom-17" d="M 768.9,124.5 L 773.0,127.3" style="fill:none;fill-rule:evenodd;stroke:#FF0000;stroke-width:2.0px;stroke-linecap:butt;stroke-linejoin:miter;stroke-opacity:1"/>
<path class="bond-17 atom-17 atom-18" d="M 777.6,129.3 L 782.8,130.5" style="fill:none;fill-rule:evenodd;stroke:#FF0000;stroke-width:2.0px;stroke-linecap:butt;stroke-linejoin:miter;stroke-opacity:1"/>
<path class="bond-17 atom-17 atom-18" d="M 782.8,130.5 L 788.0,131.7" style="fill:none;fill-rule:evenodd;stroke:#CCCC00;stroke-width:2.0px;stroke-linecap:butt;stroke-linejoin:miter;stroke-opacity:1"/>
<path class="bond-18 atom-18 atom-19" d="M 791.4,131.8 L 802.6,130.1" style="fill:none;fill-rule:evenodd;stroke:#CCCC00;stroke-width:2.0px;stroke-linecap:butt;stroke-linejoin:miter;stroke-opacity:1"/>
<path class="bond-19 atom-19 atom-20" d="M 806.0,128.8 L 810.5,126.3" style="fill:none;fill-rule:evenodd;stroke:#CCCC00;stroke-width:2.0px;stroke-linecap:butt;stroke-linejoin:miter;stroke-opacity:1"/>
<path class="bond-19 atom-19 atom-20" d="M 810.5,126.3 L 814.9,123.8" style="fill:none;fill-rule:evenodd;stroke:#FF0000;stroke-width:2.0px;stroke-linecap:butt;stroke-linejoin:miter;stroke-opacity:1"/>
<path class="bond-20 atom-20 atom-21" d="M 819.2,120.0 L 824.4,113.5" style="fill:none;fill-rule:evenodd;stroke:#FF0000;stroke-width:2.0px;stroke-linecap:butt;stroke-linejoin:miter;stroke-opacity:1"/>
<path class="bond-21 atom-21 atom-22" d="M 827.3,108.5 L 828.7,104.0" style="fill:none;fill-rule:evenodd;stroke:#FF0000;stroke-width:2.0px;stroke-linecap:butt;stroke-linejoin:miter;stroke-opacity:1"/>
<path class="bond-21 atom-21 atom-22" d="M 828.7,104.0 L 830.2,99.5" style="fill:none;fill-rule:evenodd;stroke:#CCCC00;stroke-width:2.0px;stroke-linecap:butt;stroke-linejoin:miter;stroke-opacity:1"/>
<path class="bond-22 atom-22 atom-23" d="M 830.8,94.5 L 830.5,88.4" style="fill:none;fill-rule:evenodd;stroke:#CCCC00;stroke-width:2.0px;stroke-linecap:butt;stroke-linejoin:miter;stroke-opacity:1"/>
<path class="bond-22 atom-22 atom-23" d="M 830.5,88.4 L 830.1,82.2" style="fill:none;fill-rule:evenodd;stroke:#000000;stroke-width:2.0px;stroke-linecap:butt;stroke-linejoin:miter;stroke-opacity:1"/>
<path class="bond-23 atom-23 atom-24" d="M 830.1,82.2 L 827.7,76.8" style="fill:none;fill-rule:evenodd;stroke:#000000;stroke-width:2.0px;stroke-linecap:butt;stroke-linejoin:miter;stroke-opacity:1"/>
<path class="bond-23 atom-23 atom-24" d="M 827.7,76.8 L 825.2,71.3" style="fill:none;fill-rule:evenodd;stroke:#0000FF;stroke-width:2.0px;stroke-linecap:butt;stroke-linejoin:miter;stroke-opacity:1"/>
<path class="bond-24 atom-24 atom-25" d="M 822.0,66.9 L 817.8,62.7" style="fill:none;fill-rule:evenodd;stroke:#0000FF;stroke-width:2.0px;stroke-linecap:butt;stroke-linejoin:miter;stroke-opacity:1"/>
<path class="bond-24 atom-24 atom-25" d="M 817.8,62.7 L 813.5,58.5" style="fill:none;fill-rule:evenodd;stroke:#000000;stroke-width:2.0px;stroke-linecap:butt;stroke-linejoin:miter;stroke-opacity:1"/>
<path class="bond-25 atom-25 atom-26" d="M 813.5,58.5 L 799.9,52.6" style="fill:none;fill-rule:evenodd;stroke:#000000;stroke-width:2.0px;stroke-linecap:butt;stroke-linejoin:miter;stroke-opacity:1"/>
<path class="bond-26 atom-26 atom-27" d="M 799.9,52.6 L 793.5,52.4" style="fill:none;fill-rule:evenodd;stroke:#000000;stroke-width:2.0px;stroke-linecap:butt;stroke-linejoin:miter;stroke-opacity:1"/>
<path class="bond-26 atom-26 atom-27" d="M 793.5,52.4 L 787.1,52.2" style="fill:none;fill-rule:evenodd;stroke:#0000FF;stroke-width:2.0px;stroke-linecap:butt;stroke-linejoin:miter;stroke-opacity:1"/>
<path class="bond-27 atom-27 atom-28" d="M 784.8,49.6 L 783.3,39.9" style="fill:none;fill-rule:evenodd;stroke:#0000FF;stroke-width:2.0px;stroke-linecap:butt;stroke-linejoin:miter;stroke-opacity:1"/>
<path class="bond-30 atom-27 atom-31" d="M 783.2,52.8 L 777.2,54.9" style="fill:none;fill-rule:evenodd;stroke:#0000FF;stroke-width:2.0px;stroke-linecap:butt;stroke-linejoin:miter;stroke-opacity:1"/>
<path class="bond-30 atom-27 atom-31" d="M 777.2,54.9 L 771.2,57.0" style="fill:none;fill-rule:evenodd;stroke:#000000;stroke-width:2.0px;stroke-linecap:butt;stroke-linejoin:miter;stroke-opacity:1"/>
<path class="bond-28 atom-28 atom-29" d="M 781.0,36.7 L 775.1,34.4" style="fill:none;fill-rule:evenodd;stroke:#0000FF;stroke-width:2.0px;stroke-linecap:butt;stroke-linejoin:miter;stroke-opacity:1"/>
<path class="bond-28 atom-28 atom-29" d="M 775.1,34.4 L 769.2,32.1" style="fill:none;fill-rule:evenodd;stroke:#000000;stroke-width:2.0px;stroke-linecap:butt;stroke-linejoin:miter;stroke-opacity:1"/>
<path class="bond-29 atom-28 atom-30" d="M 784.9,35.9 L 792.6,29.8" style="fill:none;fill-rule:evenodd;stroke:#0000FF;stroke-width:2.0px;stroke-linecap:butt;stroke-linejoin:miter;stroke-opacity:1"/>
<path class="bond-31 atom-31 atom-32" d="M 771.2,57.0 L 759.9,66.5" style="fill:none;fill-rule:evenodd;stroke:#000000;stroke-width:2.0px;stroke-linecap:butt;stroke-linejoin:miter;stroke-opacity:1"/>
<path class="bond-33 atom-33 atom-34" d="M 729.4,99.6 L 741.4,108.2" style="fill:none;fill-rule:evenodd;stroke:#000000;stroke-width:2.0px;stroke-linecap:butt;stroke-linejoin:miter;stroke-opacity:1"/>
<path class="bond-33 atom-33 atom-34" d="M 729.5,103.2 L 737.9,109.3" style="fill:none;fill-rule:evenodd;stroke:#000000;stroke-width:2.0px;stroke-linecap:butt;stroke-linejoin:miter;stroke-opacity:1"/>
<path class="bond-50 atom-39 atom-33" d="M 715.9,105.6 L 729.4,99.6" style="fill:none;fill-rule:evenodd;stroke:#000000;stroke-width:2.0px;stroke-linecap:butt;stroke-linejoin:miter;stroke-opacity:1"/>
<path class="bond-34 atom-34 atom-35" d="M 741.4,108.2 L 739.9,122.9" style="fill:none;fill-rule:evenodd;stroke:#000000;stroke-width:2.0px;stroke-linecap:butt;stroke-linejoin:miter;stroke-opacity:1"/>
<path class="bond-35 atom-35 atom-36" d="M 739.9,122.9 L 726.4,128.9" style="fill:none;fill-rule:evenodd;stroke:#000000;stroke-width:2.0px;stroke-linecap:butt;stroke-linejoin:miter;stroke-opacity:1"/>
<path class="bond-35 atom-35 atom-36" d="M 736.6,121.1 L 727.2,125.3" style="fill:none;fill-rule:evenodd;stroke:#000000;stroke-width:2.0px;stroke-linecap:butt;stroke-linejoin:miter;stroke-opacity:1"/>
<path class="bond-36 atom-36 atom-37" d="M 726.4,128.9 L 725.8,135.0" style="fill:none;fill-rule:evenodd;stroke:#000000;stroke-width:2.0px;stroke-linecap:butt;stroke-linejoin:miter;stroke-opacity:1"/>
<path class="bond-36 atom-36 atom-37" d="M 725.8,135.0 L 725.1,141.1" style="fill:none;fill-rule:evenodd;stroke:#FF0000;stroke-width:2.0px;stroke-linecap:butt;stroke-linejoin:miter;stroke-opacity:1"/>
<path class="bond-37 atom-36 atom-38" d="M 726.4,128.9 L 714.4,120.3" style="fill:none;fill-rule:evenodd;stroke:#000000;stroke-width:2.0px;stroke-linecap:butt;stroke-linejoin:miter;stroke-opacity:1"/>
<path class="bond-38 atom-38 atom-39" d="M 714.4,120.3 L 715.9,105.6" style="fill:none;fill-rule:evenodd;stroke:#000000;stroke-width:2.0px;stroke-linecap:butt;stroke-linejoin:miter;stroke-opacity:1"/>
<path class="bond-38 atom-38 atom-39" d="M 717.6,118.4 L 718.7,108.1" style="fill:none;fill-rule:evenodd;stroke:#000000;stroke-width:2.0px;stroke-linecap:butt;stroke-linejoin:miter;stroke-opacity:1"/>
<path class="bond-39 atom-39 atom-40" d="M 715.9,105.6 L 712.0,101.2" style="fill:none;fill-rule:evenodd;stroke:#000000;stroke-width:2.0px;stroke-linecap:butt;stroke-linejoin:miter;stroke-opacity:1"/>
<path class="bond-39 atom-39 atom-40" d="M 712.0,101.2 L 708.0,96.8" style="fill:none;fill-rule:evenodd;stroke:#0000FF;stroke-width:2.0px;stroke-linecap:butt;stroke-linejoin:miter;stroke-opacity:1"/>
<path class="bond-40 atom-40 atom-41" d="M 704.1,94.8 L 697.7,95.5" style="fill:none;fill-rule:evenodd;stroke:#0000FF;stroke-width:2.0px;stroke-linecap:butt;stroke-linejoin:miter;stroke-opacity:1"/>
<path class="bond-40 atom-40 atom-41" d="M 697.7,95.5 L 691.4,96.2" style="fill:none;fill-rule:evenodd;stroke:#000000;stroke-width:2.0px;stroke-linecap:butt;stroke-linejoin:miter;stroke-opacity:1"/>
<path class="bond-41 atom-41 atom-42" d="M 691.4,96.2 L 685.4,109.7" style="fill:none;fill-rule:evenodd;stroke:#000000;stroke-width:2.0px;stroke-linecap:butt;stroke-linejoin:miter;stroke-opacity:1"/>
<path class="bond-41 atom-41 atom-42" d="M 687.8,97.0 L 683.6,106.5" style="fill:none;fill-rule:evenodd;stroke:#000000;stroke-width:2.0px;stroke-linecap:butt;stroke-linejoin:miter;stroke-opacity:1"/>
<path class="bond-48 atom-46 atom-41" d="M 682.7,84.3 L 691.4,96.2" style="fill:none;fill-rule:evenodd;stroke:#000000;stroke-width:2.0px;stroke-linecap:butt;stroke-linejoin:miter;stroke-opacity:1"/>
<path class="bond-42 atom-42 atom-43" d="M 685.4,109.7 L 670.7,111.3" style="fill:none;fill-rule:evenodd;stroke:#000000;stroke-width:2.0px;stroke-linecap:butt;stroke-linejoin:miter;stroke-opacity:1"/>
<path class="bond-43 atom-43 atom-44" d="M 670.7,111.3 L 662.0,99.3" style="fill:none;fill-rule:evenodd;stroke:#000000;stroke-width:2.0px;stroke-linecap:butt;stroke-linejoin:miter;stroke-opacity:1"/>
<path class="bond-43 atom-43 atom-44" d="M 671.8,107.7 L 665.7,99.4" style="fill:none;fill-rule:evenodd;stroke:#000000;stroke-width:2.0px;stroke-linecap:butt;stroke-linejoin:miter;stroke-opacity:1"/>
<path class="bond-44 atom-44 atom-45" d="M 662.0,99.3 L 668.0,85.8" style="fill:none;fill-rule:evenodd;stroke:#000000;stroke-width:2.0px;stroke-linecap:butt;stroke-linejoin:miter;stroke-opacity:1"/>
<path class="bond-45 atom-45 atom-46" d="M 668.0,85.8 L 682.7,84.3" style="fill:none;fill-rule:evenodd;stroke:#000000;stroke-width:2.0px;stroke-linecap:butt;stroke-linejoin:miter;stroke-opacity:1"/>
<path class="bond-45 atom-45 atom-46" d="M 670.5,88.5 L 680.8,87.4" style="fill:none;fill-rule:evenodd;stroke:#000000;stroke-width:2.0px;stroke-linecap:butt;stroke-linejoin:miter;stroke-opacity:1"/>
<path class="atom-3" d="M 711.4 15.3 L 713.9 15.3 L 713.9 15.8 L 711.9 15.8 L 711.9 17.1 L 713.7 17.1 L 713.7 17.6 L 711.9 17.6 L 711.9 19.6 L 711.4 19.6 L 711.4 15.3 " fill="#33CCCC"/>
<path class="atom-12" d="M 737.4 60.2 Q 737.4 59.2, 737.9 58.6 Q 738.4 58.1, 739.3 58.1 Q 740.3 58.1, 740.8 58.6 Q 741.3 59.2, 741.3 60.2 Q 741.3 61.2, 740.8 61.8 Q 740.2 62.4, 739.3 62.4 Q 738.4 62.4, 737.9 61.8 Q 737.4 61.3, 737.4 60.2 M 739.3 61.9 Q 740.0 61.9, 740.3 61.5 Q 740.7 61.1, 740.7 60.2 Q 740.7 59.4, 740.3 59.0 Q 740.0 58.5, 739.3 58.5 Q 738.7 58.5, 738.3 59.0 Q 738.0 59.4, 738.0 60.2 Q 738.0 61.1, 738.3 61.5 Q 738.7 61.9, 739.3 61.9 " fill="#FF0000"/>
<path class="atom-13" d="M 751.9 77.4 L 753.3 79.6 Q 753.5 79.9, 753.7 80.3 Q 753.9 80.7, 753.9 80.7 L 753.9 77.4 L 754.5 77.4 L 754.5 81.6 L 753.9 81.6 L 752.4 79.2 Q 752.2 78.9, 752.1 78.6 Q 751.9 78.2, 751.8 78.1 L 751.8 81.6 L 751.3 81.6 L 751.3 77.4 L 751.9 77.4 " fill="#0000FF"/>
<path class="atom-16" d="M 761.8 122.0 Q 761.9 122.1, 762.1 122.1 Q 762.3 122.2, 762.5 122.3 Q 762.7 122.3, 762.9 122.3 Q 763.3 122.3, 763.5 122.1 Q 763.8 121.9, 763.8 121.6 Q 763.8 121.4, 763.7 121.2 Q 763.5 121.1, 763.4 121.0 Q 763.2 120.9, 762.9 120.8 Q 762.5 120.7, 762.3 120.6 Q 762.1 120.5, 761.9 120.3 Q 761.7 120.0, 761.7 119.7 Q 761.7 119.1, 762.1 118.8 Q 762.5 118.5, 763.2 118.5 Q 763.7 118.5, 764.2 118.7 L 764.1 119.2 Q 763.6 119.0, 763.2 119.0 Q 762.8 119.0, 762.6 119.1 Q 762.3 119.3, 762.3 119.6 Q 762.3 119.8, 762.5 120.0 Q 762.6 120.1, 762.7 120.2 Q 762.9 120.3, 763.2 120.3 Q 763.6 120.5, 763.8 120.6 Q 764.0 120.7, 764.2 120.9 Q 764.4 121.2, 764.4 121.6 Q 764.4 122.2, 764.0 122.5 Q 763.6 122.8, 762.9 122.8 Q 762.6 122.8, 762.3 122.7 Q 762.0 122.7, 761.7 122.5 L 761.8 122.0 " fill="#CCCC00"/>
<path class="atom-17" d="M 773.3 128.8 Q 773.3 127.8, 773.8 127.2 Q 774.3 126.7, 775.3 126.7 Q 776.2 126.7, 776.7 127.2 Q 777.2 127.8, 777.2 128.8 Q 777.2 129.8, 776.7 130.4 Q 776.2 131.0, 775.3 131.0 Q 774.4 131.0, 773.8 130.4 Q 773.3 129.9, 773.3 128.8 M 775.3 130.5 Q 775.9 130.5, 776.3 130.1 Q 776.6 129.7, 776.6 128.8 Q 776.6 128.0, 776.3 127.6 Q 775.9 127.1, 775.3 127.1 Q 774.6 127.1, 774.3 127.6 Q 773.9 128.0, 773.9 128.8 Q 773.9 129.7, 774.3 130.1 Q 774.6 130.5, 775.3 130.5 " fill="#FF0000"/>
<path class="atom-18" d="M 788.5 133.5 Q 788.5 133.5, 788.7 133.6 Q 788.9 133.7, 789.2 133.7 Q 789.4 133.8, 789.6 133.8 Q 790.0 133.8, 790.2 133.6 Q 790.5 133.4, 790.5 133.0 Q 790.5 132.8, 790.3 132.7 Q 790.2 132.5, 790.1 132.4 Q 789.9 132.4, 789.6 132.3 Q 789.2 132.2, 789.0 132.1 Q 788.7 131.9, 788.6 131.7 Q 788.4 131.5, 788.4 131.1 Q 788.4 130.6, 788.8 130.2 Q 789.2 129.9, 789.9 129.9 Q 790.4 129.9, 790.9 130.1 L 790.8 130.6 Q 790.3 130.4, 789.9 130.4 Q 789.5 130.4, 789.3 130.6 Q 789.0 130.7, 789.0 131.0 Q 789.0 131.3, 789.1 131.4 Q 789.3 131.5, 789.4 131.6 Q 789.6 131.7, 789.9 131.8 Q 790.3 131.9, 790.5 132.0 Q 790.7 132.1, 790.9 132.4 Q 791.1 132.6, 791.1 133.0 Q 791.1 133.6, 790.7 133.9 Q 790.3 134.3, 789.6 134.3 Q 789.2 134.3, 789.0 134.2 Q 788.7 134.1, 788.3 134.0 L 788.5 133.5 " fill="#CCCC00"/>
<path class="atom-19" d="M 803.1 131.3 Q 803.2 131.3, 803.4 131.4 Q 803.6 131.5, 803.8 131.5 Q 804.0 131.6, 804.2 131.6 Q 804.6 131.6, 804.8 131.4 Q 805.1 131.2, 805.1 130.8 Q 805.1 130.6, 805.0 130.5 Q 804.8 130.3, 804.7 130.2 Q 804.5 130.2, 804.2 130.1 Q 803.8 130.0, 803.6 129.9 Q 803.4 129.7, 803.2 129.5 Q 803.0 129.3, 803.0 128.9 Q 803.0 128.4, 803.4 128.0 Q 803.8 127.7, 804.5 127.7 Q 805.0 127.7, 805.5 127.9 L 805.4 128.4 Q 804.9 128.2, 804.5 128.2 Q 804.1 128.2, 803.9 128.4 Q 803.6 128.5, 803.6 128.8 Q 803.6 129.1, 803.7 129.2 Q 803.9 129.3, 804.0 129.4 Q 804.2 129.5, 804.5 129.6 Q 804.9 129.7, 805.1 129.8 Q 805.3 129.9, 805.5 130.2 Q 805.7 130.4, 805.7 130.8 Q 805.7 131.4, 805.3 131.7 Q 804.9 132.1, 804.2 132.1 Q 803.9 132.1, 803.6 132.0 Q 803.3 131.9, 802.9 131.8 L 803.1 131.3 " fill="#CCCC00"/>
<path class="atom-20" d="M 815.2 122.5 Q 815.2 121.5, 815.7 120.9 Q 816.2 120.4, 817.1 120.4 Q 818.1 120.4, 818.6 120.9 Q 819.1 121.5, 819.1 122.5 Q 819.1 123.5, 818.6 124.1 Q 818.1 124.7, 817.1 124.7 Q 816.2 124.7, 815.7 124.1 Q 815.2 123.6, 815.2 122.5 M 817.1 124.2 Q 817.8 124.2, 818.1 123.8 Q 818.5 123.4, 818.5 122.5 Q 818.5 121.7, 818.1 121.3 Q 817.8 120.8, 817.1 120.8 Q 816.5 120.8, 816.1 121.3 Q 815.8 121.7, 815.8 122.5 Q 815.8 123.4, 816.1 123.8 Q 816.5 124.2, 817.1 124.2 " fill="#FF0000"/>
<path class="atom-21" d="M 824.5 111.0 Q 824.5 110.0, 825.0 109.5 Q 825.5 108.9, 826.4 108.9 Q 827.4 108.9, 827.9 109.5 Q 828.4 110.0, 828.4 111.0 Q 828.4 112.1, 827.9 112.7 Q 827.4 113.2, 826.4 113.2 Q 825.5 113.2, 825.0 112.7 Q 824.5 112.1, 824.5 111.0 M 826.4 112.8 Q 827.1 112.8, 827.4 112.3 Q 827.8 111.9, 827.8 111.0 Q 827.8 110.2, 827.4 109.8 Q 827.1 109.4, 826.4 109.4 Q 825.8 109.4, 825.4 109.8 Q 825.1 110.2, 825.1 111.0 Q 825.1 111.9, 825.4 112.3 Q 825.8 112.8, 826.4 112.8 " fill="#FF0000"/>
<path class="atom-22" d="M 829.8 98.4 Q 829.8 98.5, 830.0 98.5 Q 830.2 98.6, 830.4 98.7 Q 830.7 98.7, 830.9 98.7 Q 831.3 98.7, 831.5 98.5 Q 831.8 98.3, 831.8 98.0 Q 831.8 97.8, 831.6 97.6 Q 831.5 97.5, 831.3 97.4 Q 831.2 97.3, 830.9 97.2 Q 830.5 97.1, 830.3 97.0 Q 830.0 96.9, 829.9 96.7 Q 829.7 96.4, 829.7 96.1 Q 829.7 95.5, 830.1 95.2 Q 830.4 94.9, 831.2 94.9 Q 831.6 94.9, 832.2 95.1 L 832.1 95.6 Q 831.6 95.3, 831.2 95.3 Q 830.8 95.3, 830.5 95.5 Q 830.3 95.7, 830.3 96.0 Q 830.3 96.2, 830.4 96.4 Q 830.5 96.5, 830.7 96.6 Q 830.9 96.6, 831.2 96.7 Q 831.6 96.9, 831.8 97.0 Q 832.0 97.1, 832.2 97.3 Q 832.3 97.6, 832.3 98.0 Q 832.3 98.6, 831.9 98.9 Q 831.6 99.2, 830.9 99.2 Q 830.5 99.2, 830.2 99.1 Q 830.0 99.1, 829.6 98.9 L 829.8 98.4 " fill="#CCCC00"/>
<path class="atom-24" d="M 823.1 66.7 L 824.5 68.9 Q 824.6 69.1, 824.8 69.5 Q 825.1 69.9, 825.1 70.0 L 825.1 66.7 L 825.6 66.7 L 825.6 70.9 L 825.1 70.9 L 823.6 68.5 Q 823.4 68.2, 823.2 67.8 Q 823.0 67.5, 823.0 67.4 L 823.0 70.9 L 822.4 70.9 L 822.4 66.7 L 823.1 66.7 " fill="#0000FF"/>
<path class="atom-24" d="M 826.1 66.7 L 826.7 66.7 L 826.7 68.5 L 828.9 68.5 L 828.9 66.7 L 829.5 66.7 L 829.5 70.9 L 828.9 70.9 L 828.9 69.0 L 826.7 69.0 L 826.7 70.9 L 826.1 70.9 L 826.1 66.7 " fill="#0000FF"/>
<path class="atom-27" d="M 784.2 50.0 L 785.6 52.2 Q 785.7 52.5, 785.9 52.9 Q 786.2 53.3, 786.2 53.3 L 786.2 50.0 L 786.7 50.0 L 786.7 54.2 L 786.2 54.2 L 784.7 51.8 Q 784.5 51.5, 784.3 51.2 Q 784.1 50.8, 784.1 50.7 L 784.1 54.2 L 783.5 54.2 L 783.5 50.0 L 784.2 50.0 " fill="#0000FF"/>
<path class="atom-28" d="M 782.0 35.4 L 783.4 37.6 Q 783.5 37.9, 783.7 38.3 Q 784.0 38.7, 784.0 38.7 L 784.0 35.4 L 784.5 35.4 L 784.5 39.6 L 784.0 39.6 L 782.5 37.2 Q 782.3 36.9, 782.1 36.6 Q 781.9 36.2, 781.9 36.1 L 781.9 39.6 L 781.3 39.6 L 781.3 35.4 L 782.0 35.4 " fill="#0000FF"/>
<path class="atom-30" d="M 793.5 26.2 L 794.9 28.4 Q 795.1 28.7, 795.3 29.1 Q 795.5 29.5, 795.5 29.5 L 795.5 26.2 L 796.1 26.2 L 796.1 30.4 L 795.5 30.4 L 794.0 28.0 Q 793.8 27.7, 793.7 27.4 Q 793.5 27.0, 793.4 26.9 L 793.4 30.4 L 792.9 30.4 L 792.9 26.2 L 793.5 26.2 " fill="#0000FF"/>
<path class="atom-30" d="M 796.6 26.2 L 797.2 26.2 L 797.2 28.0 L 799.4 28.0 L 799.4 26.2 L 799.9 26.2 L 799.9 30.4 L 799.4 30.4 L 799.4 28.5 L 797.2 28.5 L 797.2 30.4 L 796.6 30.4 L 796.6 26.2 " fill="#0000FF"/>
<path class="atom-30" d="M 800.1 30.3 Q 800.2 30.0, 800.5 29.9 Q 800.7 29.7, 801.1 29.7 Q 801.5 29.7, 801.7 29.9 Q 802.0 30.2, 802.0 30.6 Q 802.0 31.0, 801.7 31.4 Q 801.4 31.8, 800.7 32.2 L 802.0 32.2 L 802.0 32.6 L 800.1 32.6 L 800.1 32.3 Q 800.6 31.9, 801.0 31.6 Q 801.3 31.4, 801.4 31.1 Q 801.6 30.9, 801.6 30.6 Q 801.6 30.3, 801.4 30.2 Q 801.3 30.0, 801.1 30.0 Q 800.8 30.0, 800.7 30.1 Q 800.5 30.2, 800.4 30.4 L 800.1 30.3 " fill="#0000FF"/>
<path class="atom-37" d="M 722.9 143.6 Q 722.9 142.6, 723.4 142.1 Q 723.9 141.5, 724.9 141.5 Q 725.8 141.5, 726.3 142.1 Q 726.8 142.6, 726.8 143.6 Q 726.8 144.7, 726.3 145.3 Q 725.8 145.8, 724.9 145.8 Q 723.9 145.8, 723.4 145.3 Q 722.9 144.7, 722.9 143.6 M 724.9 145.4 Q 725.5 145.4, 725.9 144.9 Q 726.2 144.5, 726.2 143.6 Q 726.2 142.8, 725.9 142.4 Q 725.5 142.0, 724.9 142.0 Q 724.2 142.0, 723.9 142.4 Q 723.5 142.8, 723.5 143.6 Q 723.5 144.5, 723.9 144.9 Q 724.2 145.4, 724.9 145.4 " fill="#FF0000"/>
<path class="atom-37" d="M 727.3 141.5 L 727.9 141.5 L 727.9 143.3 L 730.1 143.3 L 730.1 141.5 L 730.7 141.5 L 730.7 145.8 L 730.1 145.8 L 730.1 143.8 L 727.9 143.8 L 727.9 145.8 L 727.3 145.8 L 727.3 141.5 " fill="#FF0000"/>
<path class="atom-40" d="M 705.1 92.5 L 706.5 94.7 Q 706.6 95.0, 706.9 95.4 Q 707.1 95.8, 707.1 95.8 L 707.1 92.5 L 707.7 92.5 L 707.7 96.7 L 707.1 96.7 L 705.6 94.3 Q 705.4 94.0, 705.2 93.7 Q 705.0 93.3, 705.0 93.2 L 705.0 96.7 L 704.4 96.7 L 704.4 92.5 L 705.1 92.5 " fill="#0000FF"/>
</svg>