<svg baseProfile="full" height="160px" version="1.1" viewBox="0 0 1500 160" width="1500px" xml:space="preserve" xmlns="http://www.w3.org/2000/svg" xmlns:rdkit="http://www.rdkit.org/xml" xmlns:xlink="http://www.w3.org/1999/xlink">
<!-- END OF HEADER -->
<rect height="160.0" style="opacity:1.0;fill:#FFFFFF;stroke:none" width="1500.0" x="0.0" y="0.0"> </rect>
<rect height="160.0" style="opacity:1.0;fill:#FFFFFF;stroke:none" width="1500.0" x="0.0" y="0.0"> </rect>
<rect height="160.0" style="opacity:1.0;fill:#FFFFFF;stroke:none" width="1500.0" x="0.0" y="0.0"> </rect>
<rect height="160.0" style="opacity:1.0;fill:#FFFFFF;stroke:none" width="1500.0" x="0.0" y="0.0"> </rect>
<path class="bond-0 atom-0 atom-1" d="M 115.4,98.8 L 123.5,99.5" style="fill:none;fill-rule:evenodd;stroke:#000000;stroke-width:2.0px;stroke-linecap:butt;stroke-linejoin:miter;stroke-opacity:1"/>
<path class="bond-1 atom-1 atom-2" d="M 123.5,99.5 L 127.0,106.9" style="fill:none;fill-rule:evenodd;stroke:#000000;stroke-width:2.0px;stroke-linecap:butt;stroke-linejoin:miter;stroke-opacity:1"/>
<path class="bond-1 atom-1 atom-2" d="M 125.5,99.9 L 127.9,105.1" style="fill:none;fill-rule:evenodd;stroke:#000000;stroke-width:2.0px;stroke-linecap:butt;stroke-linejoin:miter;stroke-opacity:1"/>
<path class="bond-53 atom-7 atom-1" d="M 128.2,92.8 L 123.5,99.5" style="fill:none;fill-rule:evenodd;stroke:#000000;stroke-width:2.0px;stroke-linecap:butt;stroke-linejoin:miter;stroke-opacity:1"/>
<path class="bond-2 atom-2 atom-3" d="M 127.0,106.9 L 125.4,109.1" style="fill:none;fill-rule:evenodd;stroke:#000000;stroke-width:2.0px;stroke-linecap:butt;stroke-linejoin:miter;stroke-opacity:1"/>
<path class="bond-2 atom-2 atom-3" d="M 125.4,109.1 L 123.8,111.4" style="fill:none;fill-rule:evenodd;stroke:#33CCCC;stroke-width:2.0px;stroke-linecap:butt;stroke-linejoin:miter;stroke-opacity:1"/>
<path class="bond-3 atom-2 atom-4" d="M 127.0,106.9 L 135.1,107.5" style="fill:none;fill-rule:evenodd;stroke:#000000;stroke-width:2.0px;stroke-linecap:butt;stroke-linejoin:miter;stroke-opacity:1"/>
<path class="bond-4 atom-4 atom-5" d="M 135.1,107.5 L 139.7,100.9" style="fill:none;fill-rule:evenodd;stroke:#000000;stroke-width:2.0px;stroke-linecap:butt;stroke-linejoin:miter;stroke-opacity:1"/>
<path class="bond-4 atom-4 atom-5" d="M 134.4,105.6 L 137.7,101.0" style="fill:none;fill-rule:evenodd;stroke:#000000;stroke-width:2.0px;stroke-linecap:butt;stroke-linejoin:miter;stroke-opacity:1"/>
<path class="bond-5 atom-5 atom-6" d="M 139.7,100.9 L 136.3,93.5" style="fill:none;fill-rule:evenodd;stroke:#000000;stroke-width:2.0px;stroke-linecap:butt;stroke-linejoin:miter;stroke-opacity:1"/>
<path class="bond-6 atom-6 atom-7" d="M 136.3,93.5 L 128.2,92.8" style="fill:none;fill-rule:evenodd;stroke:#000000;stroke-width:2.0px;stroke-linecap:butt;stroke-linejoin:miter;stroke-opacity:1"/>
<path class="bond-6 atom-6 atom-7" d="M 134.9,95.0 L 129.3,94.6" style="fill:none;fill-rule:evenodd;stroke:#000000;stroke-width:2.0px;stroke-linecap:butt;stroke-linejoin:miter;stroke-opacity:1"/>
<path class="bond-7 atom-7 atom-8" d="M 128.2,92.8 L 124.7,85.5" style="fill:none;fill-rule:evenodd;stroke:#000000;stroke-width:2.0px;stroke-linecap:butt;stroke-linejoin:miter;stroke-opacity:1"/>
<path class="bond-8 atom-8 atom-9" d="M 124.7,85.5 L 129.4,78.8" style="fill:none;fill-rule:evenodd;stroke:#000000;stroke-width:2.0px;stroke-linecap:butt;stroke-linejoin:miter;stroke-opacity:1"/>
<path class="bond-9 atom-9 atom-10" d="M 129.4,78.8 L 137.5,78.7" style="fill:none;fill-rule:evenodd;stroke:#000000;stroke-width:2.0px;stroke-linecap:butt;stroke-linejoin:miter;stroke-opacity:1"/>
<path class="bond-9 atom-9 atom-10" d="M 130.6,77.2 L 136.3,77.1" style="fill:none;fill-rule:evenodd;stroke:#000000;stroke-width:2.0px;stroke-linecap:butt;stroke-linejoin:miter;stroke-opacity:1"/>
<path class="bond-54 atom-47 atom-9" d="M 127.5,73.5 L 128.5,76.1" style="fill:none;fill-rule:evenodd;stroke:#0000FF;stroke-width:2.0px;stroke-linecap:butt;stroke-linejoin:miter;stroke-opacity:1"/>
<path class="bond-54 atom-47 atom-9" d="M 128.5,76.1 L 129.4,78.8" style="fill:none;fill-rule:evenodd;stroke:#000000;stroke-width:2.0px;stroke-linecap:butt;stroke-linejoin:miter;stroke-opacity:1"/>
<path class="bond-10 atom-10 atom-11" d="M 137.5,78.7 L 142.4,85.1" style="fill:none;fill-rule:evenodd;stroke:#000000;stroke-width:2.0px;stroke-linecap:butt;stroke-linejoin:miter;stroke-opacity:1"/>
<path class="bond-40 atom-10 atom-41" d="M 137.5,78.7 L 139.9,70.9" style="fill:none;fill-rule:evenodd;stroke:#000000;stroke-width:2.0px;stroke-linecap:butt;stroke-linejoin:miter;stroke-opacity:1"/>
<path class="bond-11 atom-11 atom-12" d="M 141.6,85.0 L 141.2,87.8" style="fill:none;fill-rule:evenodd;stroke:#000000;stroke-width:2.0px;stroke-linecap:butt;stroke-linejoin:miter;stroke-opacity:1"/>
<path class="bond-11 atom-11 atom-12" d="M 141.2,87.8 L 140.7,90.7" style="fill:none;fill-rule:evenodd;stroke:#FF0000;stroke-width:2.0px;stroke-linecap:butt;stroke-linejoin:miter;stroke-opacity:1"/>
<path class="bond-11 atom-11 atom-12" d="M 143.2,85.3 L 142.8,88.1" style="fill:none;fill-rule:evenodd;stroke:#000000;stroke-width:2.0px;stroke-linecap:butt;stroke-linejoin:miter;stroke-opacity:1"/>
<path class="bond-11 atom-11 atom-12" d="M 142.8,88.1 L 142.3,90.9" style="fill:none;fill-rule:evenodd;stroke:#FF0000;stroke-width:2.0px;stroke-linecap:butt;stroke-linejoin:miter;stroke-opacity:1"/>
<path class="bond-12 atom-11 atom-13" d="M 142.4,85.1 L 145.5,84.7" style="fill:none;fill-rule:evenodd;stroke:#000000;stroke-width:2.0px;stroke-linecap:butt;stroke-linejoin:miter;stroke-opacity:1"/>
<path class="bond-12 atom-11 atom-13" d="M 145.5,84.7 L 148.7,84.4" style="fill:none;fill-rule:evenodd;stroke:#0000FF;stroke-width:2.0px;stroke-linecap:butt;stroke-linejoin:miter;stroke-opacity:1"/>
<path class="bond-13 atom-13 atom-14" d="M 151.0,86.5 L 151.4,88.1" style="fill:none;fill-rule:evenodd;stroke:#0000FF;stroke-width:2.0px;stroke-linecap:butt;stroke-linejoin:miter;stroke-opacity:1"/>
<path class="bond-13 atom-13 atom-14" d="M 151.4,88.1 L 151.8,89.7" style="fill:none;fill-rule:evenodd;stroke:#000000;stroke-width:2.0px;stroke-linecap:butt;stroke-linejoin:miter;stroke-opacity:1"/>
<path class="bond-56 atom-40 atom-13" d="M 150.4,78.4 L 150.4,80.1" style="fill:none;fill-rule:evenodd;stroke:#000000;stroke-width:2.0px;stroke-linecap:butt;stroke-linejoin:miter;stroke-opacity:1"/>
<path class="bond-56 atom-40 atom-13" d="M 150.4,80.1 L 150.4,81.9" style="fill:none;fill-rule:evenodd;stroke:#0000FF;stroke-width:2.0px;stroke-linecap:butt;stroke-linejoin:miter;stroke-opacity:1"/>
<path class="bond-14 atom-14 atom-15" d="M 153.6,94.4 L 154.8,97.0" style="fill:none;fill-rule:evenodd;stroke:#000000;stroke-width:2.0px;stroke-linecap:butt;stroke-linejoin:miter;stroke-opacity:1"/>
<path class="bond-15 atom-15 atom-16" d="M 157.8,101.6 L 159.3,103.4" style="fill:none;fill-rule:evenodd;stroke:#000000;stroke-width:2.0px;stroke-linecap:butt;stroke-linejoin:miter;stroke-opacity:1"/>
<path class="bond-16 atom-16 atom-17" d="M 163.0,107.0 L 165.7,109.2" style="fill:none;fill-rule:evenodd;stroke:#000000;stroke-width:2.0px;stroke-linecap:butt;stroke-linejoin:miter;stroke-opacity:1"/>
<path class="bond-17 atom-17 atom-18" d="M 169.4,111.4 L 171.2,112.3" style="fill:none;fill-rule:evenodd;stroke:#000000;stroke-width:2.0px;stroke-linecap:butt;stroke-linejoin:miter;stroke-opacity:1"/>
<path class="bond-17 atom-17 atom-18" d="M 171.2,112.3 L 173.1,113.2" style="fill:none;fill-rule:evenodd;stroke:#0000FF;stroke-width:2.0px;stroke-linecap:butt;stroke-linejoin:miter;stroke-opacity:1"/>
<path class="bond-18 atom-18 atom-19" d="M 176.7,114.4 L 178.9,114.9" style="fill:none;fill-rule:evenodd;stroke:#0000FF;stroke-width:2.0px;stroke-linecap:butt;stroke-linejoin:miter;stroke-opacity:1"/>
<path class="bond-18 atom-18 atom-19" d="M 178.9,114.9 L 181.0,115.3" style="fill:none;fill-rule:evenodd;stroke:#000000;stroke-width:2.0px;stroke-linecap:butt;stroke-linejoin:miter;stroke-opacity:1"/>
<path class="bond-19 atom-19 atom-20" d="M 184.7,115.7 L 189.2,115.7" style="fill:none;fill-rule:evenodd;stroke:#000000;stroke-width:2.0px;stroke-linecap:butt;stroke-linejoin:miter;stroke-opacity:1"/>
<path class="bond-20 atom-20 atom-21" d="M 192.8,115.2 L 197.1,114.2" style="fill:none;fill-rule:evenodd;stroke:#000000;stroke-width:2.0px;stroke-linecap:butt;stroke-linejoin:miter;stroke-opacity:1"/>
<path class="bond-21 atom-21 atom-22" d="M 200.7,112.8 L 204.3,111.0" style="fill:none;fill-rule:evenodd;stroke:#000000;stroke-width:2.0px;stroke-linecap:butt;stroke-linejoin:miter;stroke-opacity:1"/>
<path class="bond-22 atom-22 atom-23" d="M 208.0,108.6 L 209.3,107.5" style="fill:none;fill-rule:evenodd;stroke:#000000;stroke-width:2.0px;stroke-linecap:butt;stroke-linejoin:miter;stroke-opacity:1"/>
<path class="bond-22 atom-22 atom-23" d="M 209.3,107.5 L 210.7,106.4" style="fill:none;fill-rule:evenodd;stroke:#0000FF;stroke-width:2.0px;stroke-linecap:butt;stroke-linejoin:miter;stroke-opacity:1"/>
<path class="bond-23 atom-23 atom-24" d="M 214.2,102.7 L 214.9,101.8" style="fill:none;fill-rule:evenodd;stroke:#0000FF;stroke-width:2.0px;stroke-linecap:butt;stroke-linejoin:miter;stroke-opacity:1"/>
<path class="bond-23 atom-23 atom-24" d="M 214.9,101.8 L 215.6,100.8" style="fill:none;fill-rule:evenodd;stroke:#000000;stroke-width:2.0px;stroke-linecap:butt;stroke-linejoin:miter;stroke-opacity:1"/>
<path class="bond-24 atom-24 atom-25" d="M 218.5,96.2 L 219.8,93.6" style="fill:none;fill-rule:evenodd;stroke:#000000;stroke-width:2.0px;stroke-linecap:butt;stroke-linejoin:miter;stroke-opacity:1"/>
<path class="bond-25 atom-25 atom-26" d="M 221.4,88.9 L 222.1,85.6" style="fill:none;fill-rule:evenodd;stroke:#000000;stroke-width:2.0px;stroke-linecap:butt;stroke-linejoin:miter;stroke-opacity:1"/>
<path class="bond-26 atom-26 atom-27" d="M 222.5,80.9 L 222.5,77.5" style="fill:none;fill-rule:evenodd;stroke:#000000;stroke-width:2.0px;stroke-linecap:butt;stroke-linejoin:miter;stroke-opacity:1"/>
<path class="bond-27 atom-27 atom-28" d="M 221.9,72.8 L 221.5,71.2" style="fill:none;fill-rule:evenodd;stroke:#000000;stroke-width:2.0px;stroke-linecap:butt;stroke-linejoin:miter;stroke-opacity:1"/>
<path class="bond-27 atom-27 atom-28" d="M 221.5,71.2 L 221.1,69.5" style="fill:none;fill-rule:evenodd;stroke:#0000FF;stroke-width:2.0px;stroke-linecap:butt;stroke-linejoin:miter;stroke-opacity:1"/>
<path class="bond-28 atom-28 atom-29" d="M 219.4,64.9 L 218.8,63.6" style="fill:none;fill-rule:evenodd;stroke:#0000FF;stroke-width:2.0px;stroke-linecap:butt;stroke-linejoin:miter;stroke-opacity:1"/>
<path class="bond-28 atom-28 atom-29" d="M 218.8,63.6 L 218.1,62.3" style="fill:none;fill-rule:evenodd;stroke:#000000;stroke-width:2.0px;stroke-linecap:butt;stroke-linejoin:miter;stroke-opacity:1"/>
<path class="bond-29 atom-29 atom-30" d="M 215.1,57.7 L 213.6,55.8" style="fill:none;fill-rule:evenodd;stroke:#000000;stroke-width:2.0px;stroke-linecap:butt;stroke-linejoin:miter;stroke-opacity:1"/>
<path class="bond-30 atom-30 atom-31" d="M 210.0,52.3 L 207.2,50.1" style="fill:none;fill-rule:evenodd;stroke:#000000;stroke-width:2.0px;stroke-linecap:butt;stroke-linejoin:miter;stroke-opacity:1"/>
<path class="bond-31 atom-31 atom-32" d="M 203.6,47.8 L 199.8,46.1" style="fill:none;fill-rule:evenodd;stroke:#000000;stroke-width:2.0px;stroke-linecap:butt;stroke-linejoin:miter;stroke-opacity:1"/>
<path class="bond-32 atom-32 atom-33" d="M 196.2,44.9 L 194.0,44.4" style="fill:none;fill-rule:evenodd;stroke:#000000;stroke-width:2.0px;stroke-linecap:butt;stroke-linejoin:miter;stroke-opacity:1"/>
<path class="bond-32 atom-32 atom-33" d="M 194.0,44.4 L 191.9,43.9" style="fill:none;fill-rule:evenodd;stroke:#0000FF;stroke-width:2.0px;stroke-linecap:butt;stroke-linejoin:miter;stroke-opacity:1"/>
<path class="bond-33 atom-33 atom-34" d="M 188.3,43.6 L 186.0,43.6" style="fill:none;fill-rule:evenodd;stroke:#0000FF;stroke-width:2.0px;stroke-linecap:butt;stroke-linejoin:miter;stroke-opacity:1"/>
<path class="bond-33 atom-33 atom-34" d="M 186.0,43.6 L 183.8,43.6" style="fill:none;fill-rule:evenodd;stroke:#000000;stroke-width:2.0px;stroke-linecap:butt;stroke-linejoin:miter;stroke-opacity:1"/>
<path class="bond-34 atom-34 atom-35" d="M 180.1,44.1 L 175.9,45.1" style="fill:none;fill-rule:evenodd;stroke:#000000;stroke-width:2.0px;stroke-linecap:butt;stroke-linejoin:miter;stroke-opacity:1"/>
<path class="bond-35 atom-35 atom-36" d="M 172.2,46.5 L 168.6,48.3" style="fill:none;fill-rule:evenodd;stroke:#000000;stroke-width:2.0px;stroke-linecap:butt;stroke-linejoin:miter;stroke-opacity:1"/>
<path class="bond-36 atom-36 atom-37" d="M 165.0,50.7 L 162.3,52.8" style="fill:none;fill-rule:evenodd;stroke:#000000;stroke-width:2.0px;stroke-linecap:butt;stroke-linejoin:miter;stroke-opacity:1"/>
<path class="bond-37 atom-37 atom-38" d="M 158.7,56.7 L 158.0,57.6" style="fill:none;fill-rule:evenodd;stroke:#000000;stroke-width:2.0px;stroke-linecap:butt;stroke-linejoin:miter;stroke-opacity:1"/>
<path class="bond-37 atom-37 atom-38" d="M 158.0,57.6 L 157.3,58.5" style="fill:none;fill-rule:evenodd;stroke:#0000FF;stroke-width:2.0px;stroke-linecap:butt;stroke-linejoin:miter;stroke-opacity:1"/>
<path class="bond-38 atom-38 atom-39" d="M 154.4,63.0 L 153.8,64.4" style="fill:none;fill-rule:evenodd;stroke:#0000FF;stroke-width:2.0px;stroke-linecap:butt;stroke-linejoin:miter;stroke-opacity:1"/>
<path class="bond-38 atom-38 atom-39" d="M 153.8,64.4 L 153.2,65.8" style="fill:none;fill-rule:evenodd;stroke:#000000;stroke-width:2.0px;stroke-linecap:butt;stroke-linejoin:miter;stroke-opacity:1"/>
<path class="bond-39 atom-39 atom-40" d="M 151.6,70.5 L 150.9,73.7" style="fill:none;fill-rule:evenodd;stroke:#000000;stroke-width:2.0px;stroke-linecap:butt;stroke-linejoin:miter;stroke-opacity:1"/>
<path class="bond-41 atom-41 atom-42" d="M 139.9,70.9 L 147.2,67.4" style="fill:none;fill-rule:evenodd;stroke:#000000;stroke-width:2.0px;stroke-linecap:butt;stroke-linejoin:miter;stroke-opacity:1"/>
<path class="bond-41 atom-41 atom-42" d="M 140.3,68.9 L 145.4,66.5" style="fill:none;fill-rule:evenodd;stroke:#000000;stroke-width:2.0px;stroke-linecap:butt;stroke-linejoin:miter;stroke-opacity:1"/>
<path class="bond-57 atom-46 atom-41" d="M 133.2,66.2 L 139.9,70.9" style="fill:none;fill-rule:evenodd;stroke:#000000;stroke-width:2.0px;stroke-linecap:butt;stroke-linejoin:miter;stroke-opacity:1"/>
<path class="bond-42 atom-42 atom-43" d="M 147.2,67.4 L 147.9,59.3" style="fill:none;fill-rule:evenodd;stroke:#000000;stroke-width:2.0px;stroke-linecap:butt;stroke-linejoin:miter;stroke-opacity:1"/>
<path class="bond-43 atom-43 atom-44" d="M 147.9,59.3 L 145.5,57.7" style="fill:none;fill-rule:evenodd;stroke:#000000;stroke-width:2.0px;stroke-linecap:butt;stroke-linejoin:miter;stroke-opacity:1"/>
<path class="bond-43 atom-43 atom-44" d="M 145.5,57.7 L 143.1,56.0" style="fill:none;fill-rule:evenodd;stroke:#0000FF;stroke-width:2.0px;stroke-linecap:butt;stroke-linejoin:miter;stroke-opacity:1"/>
<path class="bond-43 atom-43 atom-44" d="M 146.3,60.2 L 144.6,59.0" style="fill:none;fill-rule:evenodd;stroke:#000000;stroke-width:2.0px;stroke-linecap:butt;stroke-linejoin:miter;stroke-opacity:1"/>
<path class="bond-43 atom-43 atom-44" d="M 144.6,59.0 L 142.9,57.8" style="fill:none;fill-rule:evenodd;stroke:#0000FF;stroke-width:2.0px;stroke-linecap:butt;stroke-linejoin:miter;stroke-opacity:1"/>
<path class="bond-44 atom-44 atom-45" d="M 139.4,55.5 L 136.7,56.8" style="fill:none;fill-rule:evenodd;stroke:#0000FF;stroke-width:2.0px;stroke-linecap:butt;stroke-linejoin:miter;stroke-opacity:1"/>
<path class="bond-44 atom-44 atom-45" d="M 136.7,56.8 L 133.9,58.1" style="fill:none;fill-rule:evenodd;stroke:#000000;stroke-width:2.0px;stroke-linecap:butt;stroke-linejoin:miter;stroke-opacity:1"/>
<path class="bond-45 atom-45 atom-46" d="M 133.9,58.1 L 133.2,66.2" style="fill:none;fill-rule:evenodd;stroke:#000000;stroke-width:2.0px;stroke-linecap:butt;stroke-linejoin:miter;stroke-opacity:1"/>
<path class="bond-45 atom-45 atom-46" d="M 135.4,59.5 L 134.9,65.2" style="fill:none;fill-rule:evenodd;stroke:#000000;stroke-width:2.0px;stroke-linecap:butt;stroke-linejoin:miter;stroke-opacity:1"/>
<path class="bond-46 atom-46 atom-47" d="M 133.2,66.2 L 130.9,68.0" style="fill:none;fill-rule:evenodd;stroke:#000000;stroke-width:2.0px;stroke-linecap:butt;stroke-linejoin:miter;stroke-opacity:1"/>
<path class="bond-46 atom-46 atom-47" d="M 130.9,68.0 L 128.5,69.8" style="fill:none;fill-rule:evenodd;stroke:#0000FF;stroke-width:2.0px;stroke-linecap:butt;stroke-linejoin:miter;stroke-opacity:1"/>
<path class="bond-47 atom-47 atom-48" d="M 124.9,70.6 L 121.9,69.7" style="fill:none;fill-rule:evenodd;stroke:#0000FF;stroke-width:2.0px;stroke-linecap:butt;stroke-linejoin:miter;stroke-opacity:1"/>
<path class="bond-47 atom-47 atom-48" d="M 121.9,69.7 L 118.9,68.8" style="fill:none;fill-rule:evenodd;stroke:#000000;stroke-width:2.0px;stroke-linecap:butt;stroke-linejoin:miter;stroke-opacity:1"/>
<path class="bond-48 atom-48 atom-49" d="M 118.9,68.8 L 113.0,74.3" style="fill:none;fill-rule:evenodd;stroke:#000000;stroke-width:2.0px;stroke-linecap:butt;stroke-linejoin:miter;stroke-opacity:1"/>
<path class="bond-48 atom-48 atom-49" d="M 116.9,68.4 L 112.8,72.3" style="fill:none;fill-rule:evenodd;stroke:#000000;stroke-width:2.0px;stroke-linecap:butt;stroke-linejoin:miter;stroke-opacity:1"/>
<path class="bond-55 atom-53 atom-48" d="M 117.1,60.9 L 118.9,68.8" style="fill:none;fill-rule:evenodd;stroke:#000000;stroke-width:2.0px;stroke-linecap:butt;stroke-linejoin:miter;stroke-opacity:1"/>
<path class="bond-49 atom-49 atom-50" d="M 113.0,74.3 L 105.2,72.0" style="fill:none;fill-rule:evenodd;stroke:#000000;stroke-width:2.0px;stroke-linecap:butt;stroke-linejoin:miter;stroke-opacity:1"/>
<path class="bond-50 atom-50 atom-51" d="M 105.2,72.0 L 103.4,64.1" style="fill:none;fill-rule:evenodd;stroke:#000000;stroke-width:2.0px;stroke-linecap:butt;stroke-linejoin:miter;stroke-opacity:1"/>
<path class="bond-50 atom-50 atom-51" d="M 106.6,70.4 L 105.3,64.9" style="fill:none;fill-rule:evenodd;stroke:#000000;stroke-width:2.0px;stroke-linecap:butt;stroke-linejoin:miter;stroke-opacity:1"/>
<path class="bond-51 atom-51 atom-52" d="M 103.4,64.1 L 109.3,58.5" style="fill:none;fill-rule:evenodd;stroke:#000000;stroke-width:2.0px;stroke-linecap:butt;stroke-linejoin:miter;stroke-opacity:1"/>
<path class="bond-52 atom-52 atom-53" d="M 109.3,58.5 L 117.1,60.9" style="fill:none;fill-rule:evenodd;stroke:#000000;stroke-width:2.0px;stroke-linecap:butt;stroke-linejoin:miter;stroke-opacity:1"/>
<path class="bond-52 atom-52 atom-53" d="M 110.0,60.4 L 115.5,62.1" style="fill:none;fill-rule:evenodd;stroke:#000000;stroke-width:2.0px;stroke-linecap:butt;stroke-linejoin:miter;stroke-opacity:1"/>
<path class="atom-3" d="M 121.1 111.4 L 123.6 111.4 L 123.6 111.9 L 121.6 111.9 L 121.6 113.2 L 123.4 113.2 L 123.4 113.7 L 121.6 113.7 L 121.6 115.6 L 121.1 115.6 L 121.1 111.4 " fill="#33CCCC"/>
<path class="atom-12" d="M 139.2 93.2 Q 139.2 92.2, 139.7 91.6 Q 140.2 91.0, 141.1 91.0 Q 142.1 91.0, 142.6 91.6 Q 143.1 92.2, 143.1 93.2 Q 143.1 94.2, 142.6 94.8 Q 142.1 95.4, 141.1 95.4 Q 140.2 95.4, 139.7 94.8 Q 139.2 94.2, 139.2 93.2 M 141.1 94.9 Q 141.8 94.9, 142.1 94.5 Q 142.5 94.0, 142.5 93.2 Q 142.5 92.3, 142.1 91.9 Q 141.8 91.5, 141.1 91.5 Q 140.5 91.5, 140.1 91.9 Q 139.8 92.3, 139.8 93.2 Q 139.8 94.0, 140.1 94.5 Q 140.5 94.9, 141.1 94.9 " fill="#FF0000"/>
<path class="atom-13" d="M 149.5 82.0 L 150.9 84.3 Q 151.1 84.5, 151.3 84.9 Q 151.5 85.3, 151.5 85.3 L 151.5 82.0 L 152.1 82.0 L 152.1 86.3 L 151.5 86.3 L 150.0 83.8 Q 149.8 83.5, 149.6 83.2 Q 149.5 82.8, 149.4 82.7 L 149.4 86.3 L 148.9 86.3 L 148.9 82.0 L 149.5 82.0 " fill="#0000FF"/>
<path class="atom-14" d="M 150.7 92.0 Q 150.7 91.0, 151.2 90.4 Q 151.7 89.9, 152.7 89.9 Q 153.5 89.9, 154.0 90.5 L 153.6 90.8 Q 153.3 90.4, 152.7 90.4 Q 152.0 90.4, 151.7 90.8 Q 151.3 91.2, 151.3 92.0 Q 151.3 92.9, 151.7 93.3 Q 152.0 93.7, 152.7 93.7 Q 153.2 93.7, 153.7 93.5 L 153.9 93.9 Q 153.7 94.1, 153.4 94.1 Q 153.0 94.2, 152.6 94.2 Q 151.7 94.2, 151.2 93.7 Q 150.7 93.1, 150.7 92.0 " fill="#000000"/>
<path class="atom-15" d="M 154.3 99.3 Q 154.3 98.3, 154.8 97.7 Q 155.3 97.2, 156.3 97.2 Q 157.1 97.2, 157.6 97.8 L 157.2 98.1 Q 156.9 97.6, 156.3 97.6 Q 155.6 97.6, 155.3 98.1 Q 155.0 98.5, 155.0 99.3 Q 155.0 100.2, 155.3 100.6 Q 155.7 101.0, 156.3 101.0 Q 156.8 101.0, 157.4 100.7 L 157.5 101.2 Q 157.3 101.3, 157.0 101.4 Q 156.6 101.5, 156.3 101.5 Q 155.3 101.5, 154.8 100.9 Q 154.3 100.4, 154.3 99.3 " fill="#000000"/>
<path class="atom-16" d="M 159.5 105.6 Q 159.5 104.6, 160.0 104.0 Q 160.5 103.4, 161.4 103.4 Q 162.3 103.4, 162.8 104.1 L 162.4 104.4 Q 162.0 103.9, 161.4 103.9 Q 160.8 103.9, 160.4 104.4 Q 160.1 104.8, 160.1 105.6 Q 160.1 106.5, 160.4 106.9 Q 160.8 107.3, 161.5 107.3 Q 161.9 107.3, 162.5 107.0 L 162.7 107.5 Q 162.4 107.6, 162.1 107.7 Q 161.8 107.8, 161.4 107.8 Q 160.5 107.8, 160.0 107.2 Q 159.5 106.7, 159.5 105.6 " fill="#000000"/>
<path class="atom-17" d="M 165.9 110.6 Q 165.9 109.5, 166.4 109.0 Q 166.9 108.4, 167.8 108.4 Q 168.7 108.4, 169.2 109.1 L 168.8 109.4 Q 168.4 108.9, 167.8 108.9 Q 167.2 108.9, 166.8 109.4 Q 166.5 109.8, 166.5 110.6 Q 166.5 111.4, 166.9 111.9 Q 167.2 112.3, 167.9 112.3 Q 168.4 112.3, 168.9 112.0 L 169.1 112.5 Q 168.8 112.6, 168.5 112.7 Q 168.2 112.8, 167.8 112.8 Q 166.9 112.8, 166.4 112.2 Q 165.9 111.7, 165.9 110.6 " fill="#000000"/>
<path class="atom-18" d="M 174.0 111.9 L 175.3 114.1 Q 175.5 114.4, 175.7 114.8 Q 175.9 115.2, 175.9 115.2 L 175.9 111.9 L 176.5 111.9 L 176.5 116.1 L 175.9 116.1 L 174.4 113.7 Q 174.3 113.4, 174.1 113.1 Q 173.9 112.7, 173.8 112.6 L 173.8 116.1 L 173.3 116.1 L 173.3 111.9 L 174.0 111.9 " fill="#0000FF"/>
<path class="atom-18" d="M 173.2 116.6 L 173.8 116.6 L 173.8 118.4 L 176.0 118.4 L 176.0 116.6 L 176.6 116.6 L 176.6 120.8 L 176.0 120.8 L 176.0 118.9 L 173.8 118.9 L 173.8 120.8 L 173.2 120.8 L 173.2 116.6 " fill="#0000FF"/>
<path class="atom-19" d="M 181.2 115.8 Q 181.2 114.7, 181.7 114.1 Q 182.2 113.6, 183.1 113.6 Q 184.0 113.6, 184.5 114.2 L 184.1 114.5 Q 183.7 114.1, 183.1 114.1 Q 182.5 114.1, 182.1 114.5 Q 181.8 114.9, 181.8 115.8 Q 181.8 116.6, 182.2 117.0 Q 182.5 117.5, 183.2 117.5 Q 183.7 117.5, 184.2 117.2 L 184.4 117.6 Q 184.2 117.8, 183.8 117.9 Q 183.5 117.9, 183.1 117.9 Q 182.2 117.9, 181.7 117.4 Q 181.2 116.8, 181.2 115.8 " fill="#000000"/>
<path class="atom-20" d="M 189.3 115.7 Q 189.3 114.6, 189.8 114.0 Q 190.3 113.5, 191.2 113.5 Q 192.1 113.5, 192.6 114.1 L 192.2 114.4 Q 191.9 114.0, 191.2 114.0 Q 190.6 114.0, 190.3 114.4 Q 189.9 114.8, 189.9 115.7 Q 189.9 116.5, 190.3 116.9 Q 190.6 117.4, 191.3 117.4 Q 191.8 117.4, 192.3 117.1 L 192.5 117.5 Q 192.3 117.7, 191.9 117.8 Q 191.6 117.8, 191.2 117.8 Q 190.3 117.8, 189.8 117.3 Q 189.3 116.7, 189.3 115.7 " fill="#000000"/>
<path class="atom-21" d="M 197.2 113.8 Q 197.2 112.7, 197.7 112.1 Q 198.2 111.6, 199.1 111.6 Q 200.0 111.6, 200.5 112.2 L 200.1 112.5 Q 199.8 112.1, 199.1 112.1 Q 198.5 112.1, 198.2 112.5 Q 197.8 112.9, 197.8 113.8 Q 197.8 114.6, 198.2 115.0 Q 198.5 115.5, 199.2 115.5 Q 199.7 115.5, 200.2 115.2 L 200.4 115.6 Q 200.2 115.8, 199.8 115.9 Q 199.5 115.9, 199.1 115.9 Q 198.2 115.9, 197.7 115.4 Q 197.2 114.8, 197.2 113.8 " fill="#000000"/>
<path class="atom-22" d="M 204.5 110.1 Q 204.5 109.1, 205.0 108.5 Q 205.5 108.0, 206.4 108.0 Q 207.3 108.0, 207.8 108.6 L 207.4 108.9 Q 207.0 108.5, 206.4 108.5 Q 205.8 108.5, 205.4 108.9 Q 205.1 109.3, 205.1 110.1 Q 205.1 111.0, 205.4 111.4 Q 205.8 111.8, 206.5 111.8 Q 207.0 111.8, 207.5 111.6 L 207.7 112.0 Q 207.4 112.2, 207.1 112.2 Q 206.8 112.3, 206.4 112.3 Q 205.5 112.3, 205.0 111.8 Q 204.5 111.2, 204.5 110.1 " fill="#000000"/>
<path class="atom-23" d="M 211.5 102.9 L 212.9 105.1 Q 213.0 105.3, 213.2 105.7 Q 213.5 106.1, 213.5 106.2 L 213.5 102.9 L 214.0 102.9 L 214.0 107.1 L 213.4 107.1 L 212.0 104.6 Q 211.8 104.4, 211.6 104.0 Q 211.4 103.7, 211.4 103.6 L 211.4 107.1 L 210.8 107.1 L 210.8 102.9 L 211.5 102.9 " fill="#0000FF"/>
<path class="atom-23" d="M 214.5 102.9 L 215.1 102.9 L 215.1 104.7 L 217.3 104.7 L 217.3 102.9 L 217.9 102.9 L 217.9 107.1 L 217.3 107.1 L 217.3 105.1 L 215.1 105.1 L 215.1 107.1 L 214.5 107.1 L 214.5 102.9 " fill="#0000FF"/>
<path class="atom-24" d="M 215.8 98.6 Q 215.8 97.5, 216.3 97.0 Q 216.8 96.4, 217.7 96.4 Q 218.6 96.4, 219.0 97.0 L 218.6 97.4 Q 218.3 96.9, 217.7 96.9 Q 217.1 96.9, 216.7 97.3 Q 216.4 97.8, 216.4 98.6 Q 216.4 99.4, 216.7 99.9 Q 217.1 100.3, 217.8 100.3 Q 218.2 100.3, 218.8 100.0 L 218.9 100.5 Q 218.7 100.6, 218.4 100.7 Q 218.1 100.8, 217.7 100.8 Q 216.8 100.8, 216.3 100.2 Q 215.8 99.6, 215.8 98.6 " fill="#000000"/>
<path class="atom-25" d="M 219.2 91.2 Q 219.2 90.2, 219.7 89.6 Q 220.2 89.1, 221.1 89.1 Q 222.0 89.1, 222.5 89.7 L 222.1 90.0 Q 221.7 89.6, 221.1 89.6 Q 220.5 89.6, 220.2 90.0 Q 219.8 90.4, 219.8 91.2 Q 219.8 92.1, 220.2 92.5 Q 220.5 92.9, 221.2 92.9 Q 221.7 92.9, 222.2 92.7 L 222.4 93.1 Q 222.2 93.2, 221.8 93.3 Q 221.5 93.4, 221.1 93.4 Q 220.2 93.4, 219.7 92.9 Q 219.2 92.3, 219.2 91.2 " fill="#000000"/>
<path class="atom-26" d="M 220.9 83.3 Q 220.9 82.2, 221.4 81.7 Q 221.9 81.1, 222.9 81.1 Q 223.7 81.1, 224.2 81.7 L 223.8 82.1 Q 223.5 81.6, 222.9 81.6 Q 222.2 81.6, 221.9 82.0 Q 221.5 82.5, 221.5 83.3 Q 221.5 84.1, 221.9 84.6 Q 222.2 85.0, 222.9 85.0 Q 223.4 85.0, 223.9 84.7 L 224.1 85.2 Q 223.9 85.3, 223.5 85.4 Q 223.2 85.5, 222.8 85.5 Q 221.9 85.5, 221.4 84.9 Q 220.9 84.3, 220.9 83.3 " fill="#000000"/>
<path class="atom-27" d="M 220.8 75.2 Q 220.8 74.1, 221.3 73.6 Q 221.8 73.0, 222.8 73.0 Q 223.6 73.0, 224.1 73.6 L 223.7 73.9 Q 223.4 73.5, 222.8 73.5 Q 222.1 73.5, 221.8 73.9 Q 221.4 74.4, 221.4 75.2 Q 221.4 76.0, 221.8 76.4 Q 222.1 76.9, 222.8 76.9 Q 223.3 76.9, 223.8 76.6 L 224.0 77.0 Q 223.8 77.2, 223.4 77.3 Q 223.1 77.4, 222.7 77.4 Q 221.8 77.4, 221.3 76.8 Q 220.8 76.2, 220.8 75.2 " fill="#000000"/>
<path class="atom-28" d="M 219.6 65.1 L 221.0 67.4 Q 221.2 67.6, 221.4 68.0 Q 221.6 68.4, 221.6 68.4 L 221.6 65.1 L 222.2 65.1 L 222.2 69.4 L 221.6 69.4 L 220.1 66.9 Q 219.9 66.6, 219.7 66.3 Q 219.6 66.0, 219.5 65.9 L 219.5 69.4 L 218.9 69.4 L 218.9 65.1 L 219.6 65.1 " fill="#0000FF"/>
<path class="atom-28" d="M 222.7 65.1 L 223.3 65.1 L 223.3 66.9 L 225.4 66.9 L 225.4 65.1 L 226.0 65.1 L 226.0 69.4 L 225.4 69.4 L 225.4 67.4 L 223.3 67.4 L 223.3 69.4 L 222.7 69.4 L 222.7 65.1 " fill="#0000FF"/>
<path class="atom-29" d="M 215.3 60.0 Q 215.3 58.9, 215.8 58.4 Q 216.3 57.8, 217.2 57.8 Q 218.1 57.8, 218.6 58.4 L 218.2 58.8 Q 217.8 58.3, 217.2 58.3 Q 216.6 58.3, 216.3 58.8 Q 215.9 59.2, 215.9 60.0 Q 215.9 60.8, 216.3 61.3 Q 216.6 61.7, 217.3 61.7 Q 217.8 61.7, 218.3 61.4 L 218.5 61.9 Q 218.3 62.0, 217.9 62.1 Q 217.6 62.2, 217.2 62.2 Q 216.3 62.2, 215.8 61.6 Q 215.3 61.0, 215.3 60.0 " fill="#000000"/>
<path class="atom-30" d="M 210.2 53.7 Q 210.2 52.6, 210.7 52.1 Q 211.2 51.5, 212.1 51.5 Q 213.0 51.5, 213.4 52.2 L 213.1 52.5 Q 212.7 52.0, 212.1 52.0 Q 211.5 52.0, 211.1 52.5 Q 210.8 52.9, 210.8 53.7 Q 210.8 54.5, 211.1 55.0 Q 211.5 55.4, 212.2 55.4 Q 212.6 55.4, 213.2 55.1 L 213.4 55.6 Q 213.1 55.7, 212.8 55.8 Q 212.5 55.9, 212.1 55.9 Q 211.2 55.9, 210.7 55.3 Q 210.2 54.8, 210.2 53.7 " fill="#000000"/>
<path class="atom-31" d="M 203.8 48.7 Q 203.8 47.7, 204.3 47.1 Q 204.8 46.5, 205.7 46.5 Q 206.6 46.5, 207.0 47.2 L 206.6 47.5 Q 206.3 47.0, 205.7 47.0 Q 205.1 47.0, 204.7 47.5 Q 204.4 47.9, 204.4 48.7 Q 204.4 49.6, 204.7 50.0 Q 205.1 50.4, 205.8 50.4 Q 206.2 50.4, 206.8 50.1 L 206.9 50.6 Q 206.7 50.7, 206.4 50.8 Q 206.0 50.9, 205.7 50.9 Q 204.8 50.9, 204.3 50.3 Q 203.8 49.8, 203.8 48.7 " fill="#000000"/>
<path class="atom-32" d="M 196.4 45.3 Q 196.4 44.2, 196.9 43.7 Q 197.4 43.1, 198.3 43.1 Q 199.2 43.1, 199.7 43.7 L 199.3 44.1 Q 198.9 43.6, 198.3 43.6 Q 197.7 43.6, 197.3 44.0 Q 197.0 44.5, 197.0 45.3 Q 197.0 46.1, 197.4 46.5 Q 197.7 47.0, 198.4 47.0 Q 198.9 47.0, 199.4 46.7 L 199.6 47.1 Q 199.4 47.3, 199.0 47.4 Q 198.7 47.5, 198.3 47.5 Q 197.4 47.5, 196.9 46.9 Q 196.4 46.3, 196.4 45.3 " fill="#000000"/>
<path class="atom-33" d="M 189.2 41.4 L 190.6 43.7 Q 190.7 43.9, 190.9 44.3 Q 191.1 44.7, 191.1 44.7 L 191.1 41.4 L 191.7 41.4 L 191.7 45.7 L 191.1 45.7 L 189.6 43.2 Q 189.5 42.9, 189.3 42.6 Q 189.1 42.3, 189.0 42.2 L 189.0 45.7 L 188.5 45.7 L 188.5 41.4 L 189.2 41.4 " fill="#0000FF"/>
<path class="atom-33" d="M 188.4 36.7 L 189.0 36.7 L 189.0 38.6 L 191.2 38.6 L 191.2 36.7 L 191.8 36.7 L 191.8 41.0 L 191.2 41.0 L 191.2 39.0 L 189.0 39.0 L 189.0 41.0 L 188.4 41.0 L 188.4 36.7 " fill="#0000FF"/>
<path class="atom-34" d="M 180.3 43.7 Q 180.3 42.6, 180.8 42.1 Q 181.3 41.5, 182.3 41.5 Q 183.1 41.5, 183.6 42.1 L 183.2 42.4 Q 182.9 42.0, 182.3 42.0 Q 181.6 42.0, 181.3 42.4 Q 180.9 42.8, 180.9 43.7 Q 180.9 44.5, 181.3 44.9 Q 181.7 45.4, 182.3 45.4 Q 182.8 45.4, 183.3 45.1 L 183.5 45.5 Q 183.3 45.7, 183.0 45.8 Q 182.6 45.8, 182.3 45.8 Q 181.3 45.8, 180.8 45.3 Q 180.3 44.7, 180.3 43.7 " fill="#000000"/>
<path class="atom-35" d="M 172.4 45.6 Q 172.4 44.5, 172.9 44.0 Q 173.4 43.4, 174.4 43.4 Q 175.2 43.4, 175.7 44.0 L 175.3 44.3 Q 175.0 43.9, 174.4 43.9 Q 173.7 43.9, 173.4 44.3 Q 173.1 44.7, 173.1 45.6 Q 173.1 46.4, 173.4 46.8 Q 173.8 47.3, 174.4 47.3 Q 174.9 47.3, 175.5 47.0 L 175.6 47.4 Q 175.4 47.6, 175.1 47.7 Q 174.7 47.7, 174.4 47.7 Q 173.4 47.7, 172.9 47.2 Q 172.4 46.6, 172.4 45.6 " fill="#000000"/>
<path class="atom-36" d="M 165.2 49.2 Q 165.2 48.1, 165.7 47.6 Q 166.2 47.0, 167.1 47.0 Q 168.0 47.0, 168.4 47.6 L 168.0 47.9 Q 167.7 47.5, 167.1 47.5 Q 166.5 47.5, 166.1 47.9 Q 165.8 48.4, 165.8 49.2 Q 165.8 50.0, 166.1 50.4 Q 166.5 50.9, 167.2 50.9 Q 167.6 50.9, 168.2 50.6 L 168.3 51.0 Q 168.1 51.2, 167.8 51.3 Q 167.4 51.4, 167.1 51.4 Q 166.2 51.4, 165.7 50.8 Q 165.2 50.2, 165.2 49.2 " fill="#000000"/>
<path class="atom-37" d="M 158.9 54.3 Q 158.9 53.3, 159.4 52.7 Q 159.9 52.1, 160.8 52.1 Q 161.7 52.1, 162.1 52.8 L 161.8 53.1 Q 161.4 52.6, 160.8 52.6 Q 160.2 52.6, 159.8 53.1 Q 159.5 53.5, 159.5 54.3 Q 159.5 55.2, 159.8 55.6 Q 160.2 56.0, 160.9 56.0 Q 161.3 56.0, 161.9 55.7 L 162.1 56.2 Q 161.8 56.3, 161.5 56.4 Q 161.2 56.5, 160.8 56.5 Q 159.9 56.5, 159.4 55.9 Q 158.9 55.4, 158.9 54.3 " fill="#000000"/>
<path class="atom-38" d="M 150.1 58.6 L 150.7 58.6 L 150.7 60.4 L 152.8 60.4 L 152.8 58.6 L 153.4 58.6 L 153.4 62.8 L 152.8 62.8 L 152.8 60.9 L 150.7 60.9 L 150.7 62.8 L 150.1 62.8 L 150.1 58.6 " fill="#0000FF"/>
<path class="atom-38" d="M 154.6 58.6 L 156.0 60.8 Q 156.1 61.1, 156.3 61.5 Q 156.6 61.9, 156.6 61.9 L 156.6 58.6 L 157.1 58.6 L 157.1 62.8 L 156.5 62.8 L 155.1 60.4 Q 154.9 60.1, 154.7 59.8 Q 154.5 59.4, 154.5 59.3 L 154.5 62.8 L 153.9 62.8 L 153.9 58.6 L 154.6 58.6 " fill="#0000FF"/>
<path class="atom-39" d="M 150.4 68.1 Q 150.4 67.0, 150.9 66.5 Q 151.4 65.9, 152.4 65.9 Q 153.3 65.9, 153.7 66.5 L 153.3 66.9 Q 153.0 66.4, 152.4 66.4 Q 151.7 66.4, 151.4 66.8 Q 151.1 67.3, 151.1 68.1 Q 151.1 68.9, 151.4 69.4 Q 151.8 69.8, 152.4 69.8 Q 152.9 69.8, 153.5 69.5 L 153.6 70.0 Q 153.4 70.1, 153.1 70.2 Q 152.7 70.3, 152.4 70.3 Q 151.4 70.3, 150.9 69.7 Q 150.4 69.1, 150.4 68.1 " fill="#000000"/>
<path class="atom-40" d="M 148.7 76.0 Q 148.7 75.0, 149.2 74.4 Q 149.7 73.9, 150.7 73.9 Q 151.5 73.9, 152.0 74.5 L 151.6 74.8 Q 151.3 74.3, 150.7 74.3 Q 150.0 74.3, 149.7 74.8 Q 149.3 75.2, 149.3 76.0 Q 149.3 76.9, 149.7 77.3 Q 150.0 77.7, 150.7 77.7 Q 151.2 77.7, 151.7 77.4 L 151.9 77.9 Q 151.7 78.0, 151.4 78.1 Q 151.0 78.2, 150.6 78.2 Q 149.7 78.2, 149.2 77.6 Q 148.7 77.1, 148.7 76.0 " fill="#000000"/>
<path class="atom-44" d="M 140.3 52.6 L 141.7 54.8 Q 141.8 55.0, 142.1 55.4 Q 142.3 55.8, 142.3 55.9 L 142.3 52.6 L 142.9 52.6 L 142.9 56.8 L 142.3 56.8 L 140.8 54.4 Q 140.6 54.1, 140.4 53.7 Q 140.2 53.4, 140.2 53.3 L 140.2 56.8 L 139.6 56.8 L 139.6 52.6 L 140.3 52.6 " fill="#0000FF"/>
<path class="atom-47" d="M 125.8 69.0 L 127.2 71.3 Q 127.3 71.5, 127.5 71.9 Q 127.8 72.3, 127.8 72.3 L 127.8 69.0 L 128.3 69.0 L 128.3 73.3 L 127.8 73.3 L 126.3 70.8 Q 126.1 70.5, 125.9 70.2 Q 125.7 69.9, 125.7 69.8 L 125.7 73.3 L 125.1 73.3 L 125.1 69.0 L 125.8 69.0 " fill="#0000FF"/>
<path class="bond-0 atom-0 atom-1" d="M 428.0,60.0 L 436.1,59.7" style="fill:none;fill-rule:evenodd;stroke:#000000;stroke-width:2.0px;stroke-linecap:butt;stroke-linejoin:miter;stroke-opacity:1"/>
<path class="bond-1 atom-1 atom-2" d="M 436.1,59.7 L 439.9,52.6" style="fill:none;fill-rule:evenodd;stroke:#000000;stroke-width:2.0px;stroke-linecap:butt;stroke-linejoin:miter;stroke-opacity:1"/>
<path class="bond-1 atom-1 atom-2" d="M 438.1,59.4 L 440.7,54.4" style="fill:none;fill-rule:evenodd;stroke:#000000;stroke-width:2.0px;stroke-linecap:butt;stroke-linejoin:miter;stroke-opacity:1"/>
<path class="bond-43 atom-7 atom-1" d="M 440.4,66.6 L 436.1,59.7" style="fill:none;fill-rule:evenodd;stroke:#000000;stroke-width:2.0px;stroke-linecap:butt;stroke-linejoin:miter;stroke-opacity:1"/>
<path class="bond-2 atom-2 atom-3" d="M 439.9,52.6 L 438.4,50.3" style="fill:none;fill-rule:evenodd;stroke:#000000;stroke-width:2.0px;stroke-linecap:butt;stroke-linejoin:miter;stroke-opacity:1"/>
<path class="bond-2 atom-2 atom-3" d="M 438.4,50.3 L 437.0,48.0" style="fill:none;fill-rule:evenodd;stroke:#33CCCC;stroke-width:2.0px;stroke-linecap:butt;stroke-linejoin:miter;stroke-opacity:1"/>
<path class="bond-3 atom-2 atom-4" d="M 439.9,52.6 L 448.0,52.3" style="fill:none;fill-rule:evenodd;stroke:#000000;stroke-width:2.0px;stroke-linecap:butt;stroke-linejoin:miter;stroke-opacity:1"/>
<path class="bond-4 atom-4 atom-5" d="M 448.0,52.3 L 452.3,59.1" style="fill:none;fill-rule:evenodd;stroke:#000000;stroke-width:2.0px;stroke-linecap:butt;stroke-linejoin:miter;stroke-opacity:1"/>
<path class="bond-4 atom-4 atom-5" d="M 447.3,54.2 L 450.3,59.0" style="fill:none;fill-rule:evenodd;stroke:#000000;stroke-width:2.0px;stroke-linecap:butt;stroke-linejoin:miter;stroke-opacity:1"/>
<path class="bond-5 atom-5 atom-6" d="M 452.3,59.1 L 448.5,66.3" style="fill:none;fill-rule:evenodd;stroke:#000000;stroke-width:2.0px;stroke-linecap:butt;stroke-linejoin:miter;stroke-opacity:1"/>
<path class="bond-6 atom-6 atom-7" d="M 448.5,66.3 L 440.4,66.6" style="fill:none;fill-rule:evenodd;stroke:#000000;stroke-width:2.0px;stroke-linecap:butt;stroke-linejoin:miter;stroke-opacity:1"/>
<path class="bond-6 atom-6 atom-7" d="M 447.2,64.7 L 441.5,65.0" style="fill:none;fill-rule:evenodd;stroke:#000000;stroke-width:2.0px;stroke-linecap:butt;stroke-linejoin:miter;stroke-opacity:1"/>
<path class="bond-7 atom-7 atom-8" d="M 440.4,66.6 L 436.6,73.8" style="fill:none;fill-rule:evenodd;stroke:#000000;stroke-width:2.0px;stroke-linecap:butt;stroke-linejoin:miter;stroke-opacity:1"/>
<path class="bond-8 atom-8 atom-9" d="M 436.6,73.8 L 440.9,80.7" style="fill:none;fill-rule:evenodd;stroke:#000000;stroke-width:2.0px;stroke-linecap:butt;stroke-linejoin:miter;stroke-opacity:1"/>
<path class="bond-9 atom-9 atom-10" d="M 440.9,80.7 L 449.0,81.2" style="fill:none;fill-rule:evenodd;stroke:#000000;stroke-width:2.0px;stroke-linecap:butt;stroke-linejoin:miter;stroke-opacity:1"/>
<path class="bond-9 atom-9 atom-10" d="M 442.0,82.4 L 447.7,82.8" style="fill:none;fill-rule:evenodd;stroke:#000000;stroke-width:2.0px;stroke-linecap:butt;stroke-linejoin:miter;stroke-opacity:1"/>
<path class="bond-44 atom-37 atom-9" d="M 438.8,85.9 L 439.8,83.3" style="fill:none;fill-rule:evenodd;stroke:#0000FF;stroke-width:2.0px;stroke-linecap:butt;stroke-linejoin:miter;stroke-opacity:1"/>
<path class="bond-44 atom-37 atom-9" d="M 439.8,83.3 L 440.9,80.7" style="fill:none;fill-rule:evenodd;stroke:#000000;stroke-width:2.0px;stroke-linecap:butt;stroke-linejoin:miter;stroke-opacity:1"/>
<path class="bond-10 atom-10 atom-11" d="M 449.0,81.2 L 454.2,75.0" style="fill:none;fill-rule:evenodd;stroke:#000000;stroke-width:2.0px;stroke-linecap:butt;stroke-linejoin:miter;stroke-opacity:1"/>
<path class="bond-30 atom-10 atom-31" d="M 449.0,81.2 L 451.0,89.1" style="fill:none;fill-rule:evenodd;stroke:#000000;stroke-width:2.0px;stroke-linecap:butt;stroke-linejoin:miter;stroke-opacity:1"/>
<path class="bond-11 atom-11 atom-12" d="M 455.0,74.9 L 454.7,72.1" style="fill:none;fill-rule:evenodd;stroke:#000000;stroke-width:2.0px;stroke-linecap:butt;stroke-linejoin:miter;stroke-opacity:1"/>
<path class="bond-11 atom-11 atom-12" d="M 454.7,72.1 L 454.4,69.3" style="fill:none;fill-rule:evenodd;stroke:#FF0000;stroke-width:2.0px;stroke-linecap:butt;stroke-linejoin:miter;stroke-opacity:1"/>
<path class="bond-11 atom-11 atom-12" d="M 453.4,75.1 L 453.1,72.3" style="fill:none;fill-rule:evenodd;stroke:#000000;stroke-width:2.0px;stroke-linecap:butt;stroke-linejoin:miter;stroke-opacity:1"/>
<path class="bond-11 atom-11 atom-12" d="M 453.1,72.3 L 452.8,69.4" style="fill:none;fill-rule:evenodd;stroke:#FF0000;stroke-width:2.0px;stroke-linecap:butt;stroke-linejoin:miter;stroke-opacity:1"/>
<path class="bond-12 atom-11 atom-13" d="M 454.2,75.0 L 457.3,75.5" style="fill:none;fill-rule:evenodd;stroke:#000000;stroke-width:2.0px;stroke-linecap:butt;stroke-linejoin:miter;stroke-opacity:1"/>
<path class="bond-12 atom-11 atom-13" d="M 457.3,75.5 L 460.4,76.1" style="fill:none;fill-rule:evenodd;stroke:#0000FF;stroke-width:2.0px;stroke-linecap:butt;stroke-linejoin:miter;stroke-opacity:1"/>
<path class="bond-13 atom-13 atom-14" d="M 463.1,74.1 L 464.0,71.4" style="fill:none;fill-rule:evenodd;stroke:#0000FF;stroke-width:2.0px;stroke-linecap:butt;stroke-linejoin:miter;stroke-opacity:1"/>
<path class="bond-13 atom-13 atom-14" d="M 464.0,71.4 L 465.0,68.8" style="fill:none;fill-rule:evenodd;stroke:#000000;stroke-width:2.0px;stroke-linecap:butt;stroke-linejoin:miter;stroke-opacity:1"/>
<path class="bond-46 atom-30 atom-13" d="M 462.2,84.5 L 462.2,81.6" style="fill:none;fill-rule:evenodd;stroke:#000000;stroke-width:2.0px;stroke-linecap:butt;stroke-linejoin:miter;stroke-opacity:1"/>
<path class="bond-46 atom-30 atom-13" d="M 462.2,81.6 L 462.2,78.7" style="fill:none;fill-rule:evenodd;stroke:#0000FF;stroke-width:2.0px;stroke-linecap:butt;stroke-linejoin:miter;stroke-opacity:1"/>
<path class="bond-14 atom-14 atom-15" d="M 465.0,68.8 L 470.2,62.5" style="fill:none;fill-rule:evenodd;stroke:#000000;stroke-width:2.0px;stroke-linecap:butt;stroke-linejoin:miter;stroke-opacity:1"/>
<path class="bond-15 atom-15 atom-16" d="M 470.2,62.5 L 477.2,58.5" style="fill:none;fill-rule:evenodd;stroke:#000000;stroke-width:2.0px;stroke-linecap:butt;stroke-linejoin:miter;stroke-opacity:1"/>
<path class="bond-16 atom-16 atom-17" d="M 477.2,58.5 L 485.2,57.0" style="fill:none;fill-rule:evenodd;stroke:#000000;stroke-width:2.0px;stroke-linecap:butt;stroke-linejoin:miter;stroke-opacity:1"/>
<path class="bond-17 atom-17 atom-18" d="M 485.2,57.0 L 488.3,57.6" style="fill:none;fill-rule:evenodd;stroke:#000000;stroke-width:2.0px;stroke-linecap:butt;stroke-linejoin:miter;stroke-opacity:1"/>
<path class="bond-17 atom-17 atom-18" d="M 488.3,57.6 L 491.4,58.1" style="fill:none;fill-rule:evenodd;stroke:#0000FF;stroke-width:2.0px;stroke-linecap:butt;stroke-linejoin:miter;stroke-opacity:1"/>
<path class="bond-18 atom-18 atom-19" d="M 495.0,59.5 L 497.7,61.0" style="fill:none;fill-rule:evenodd;stroke:#0000FF;stroke-width:2.0px;stroke-linecap:butt;stroke-linejoin:miter;stroke-opacity:1"/>
<path class="bond-18 atom-18 atom-19" d="M 497.7,61.0 L 500.3,62.5" style="fill:none;fill-rule:evenodd;stroke:#000000;stroke-width:2.0px;stroke-linecap:butt;stroke-linejoin:miter;stroke-opacity:1"/>
<path class="bond-19 atom-19 atom-20" d="M 500.3,62.5 L 505.5,68.7" style="fill:none;fill-rule:evenodd;stroke:#000000;stroke-width:2.0px;stroke-linecap:butt;stroke-linejoin:miter;stroke-opacity:1"/>
<path class="bond-20 atom-20 atom-21" d="M 505.5,68.7 L 508.3,76.3" style="fill:none;fill-rule:evenodd;stroke:#000000;stroke-width:2.0px;stroke-linecap:butt;stroke-linejoin:miter;stroke-opacity:1"/>
<path class="bond-21 atom-21 atom-22" d="M 508.3,76.3 L 508.3,84.5" style="fill:none;fill-rule:evenodd;stroke:#000000;stroke-width:2.0px;stroke-linecap:butt;stroke-linejoin:miter;stroke-opacity:1"/>
<path class="bond-22 atom-22 atom-23" d="M 508.3,84.5 L 507.3,87.1" style="fill:none;fill-rule:evenodd;stroke:#000000;stroke-width:2.0px;stroke-linecap:butt;stroke-linejoin:miter;stroke-opacity:1"/>
<path class="bond-22 atom-22 atom-23" d="M 507.3,87.1 L 506.4,89.8" style="fill:none;fill-rule:evenodd;stroke:#0000FF;stroke-width:2.0px;stroke-linecap:butt;stroke-linejoin:miter;stroke-opacity:1"/>
<path class="bond-23 atom-23 atom-24" d="M 503.7,94.3 L 502.0,96.3" style="fill:none;fill-rule:evenodd;stroke:#0000FF;stroke-width:2.0px;stroke-linecap:butt;stroke-linejoin:miter;stroke-opacity:1"/>
<path class="bond-23 atom-23 atom-24" d="M 502.0,96.3 L 500.3,98.3" style="fill:none;fill-rule:evenodd;stroke:#000000;stroke-width:2.0px;stroke-linecap:butt;stroke-linejoin:miter;stroke-opacity:1"/>
<path class="bond-24 atom-24 atom-25" d="M 500.3,98.3 L 493.3,102.4" style="fill:none;fill-rule:evenodd;stroke:#000000;stroke-width:2.0px;stroke-linecap:butt;stroke-linejoin:miter;stroke-opacity:1"/>
<path class="bond-25 atom-25 atom-26" d="M 493.3,102.4 L 485.3,103.8" style="fill:none;fill-rule:evenodd;stroke:#000000;stroke-width:2.0px;stroke-linecap:butt;stroke-linejoin:miter;stroke-opacity:1"/>
<path class="bond-26 atom-26 atom-27" d="M 485.3,103.8 L 477.3,102.4" style="fill:none;fill-rule:evenodd;stroke:#000000;stroke-width:2.0px;stroke-linecap:butt;stroke-linejoin:miter;stroke-opacity:1"/>
<path class="bond-27 atom-27 atom-28" d="M 477.3,102.4 L 474.7,100.9" style="fill:none;fill-rule:evenodd;stroke:#000000;stroke-width:2.0px;stroke-linecap:butt;stroke-linejoin:miter;stroke-opacity:1"/>
<path class="bond-27 atom-27 atom-28" d="M 474.7,100.9 L 472.1,99.4" style="fill:none;fill-rule:evenodd;stroke:#0000FF;stroke-width:2.0px;stroke-linecap:butt;stroke-linejoin:miter;stroke-opacity:1"/>
<path class="bond-28 atom-28 atom-29" d="M 468.3,96.1 L 466.7,94.1" style="fill:none;fill-rule:evenodd;stroke:#0000FF;stroke-width:2.0px;stroke-linecap:butt;stroke-linejoin:miter;stroke-opacity:1"/>
<path class="bond-28 atom-28 atom-29" d="M 466.7,94.1 L 465.0,92.2" style="fill:none;fill-rule:evenodd;stroke:#000000;stroke-width:2.0px;stroke-linecap:butt;stroke-linejoin:miter;stroke-opacity:1"/>
<path class="bond-29 atom-29 atom-30" d="M 465.0,92.2 L 462.2,84.5" style="fill:none;fill-rule:evenodd;stroke:#000000;stroke-width:2.0px;stroke-linecap:butt;stroke-linejoin:miter;stroke-opacity:1"/>
<path class="bond-31 atom-31 atom-32" d="M 451.0,89.1 L 458.2,92.9" style="fill:none;fill-rule:evenodd;stroke:#000000;stroke-width:2.0px;stroke-linecap:butt;stroke-linejoin:miter;stroke-opacity:1"/>
<path class="bond-31 atom-31 atom-32" d="M 451.3,91.1 L 456.3,93.8" style="fill:none;fill-rule:evenodd;stroke:#000000;stroke-width:2.0px;stroke-linecap:butt;stroke-linejoin:miter;stroke-opacity:1"/>
<path class="bond-47 atom-36 atom-31" d="M 444.1,93.4 L 451.0,89.1" style="fill:none;fill-rule:evenodd;stroke:#000000;stroke-width:2.0px;stroke-linecap:butt;stroke-linejoin:miter;stroke-opacity:1"/>
<path class="bond-32 atom-32 atom-33" d="M 458.2,92.9 L 458.4,101.0" style="fill:none;fill-rule:evenodd;stroke:#000000;stroke-width:2.0px;stroke-linecap:butt;stroke-linejoin:miter;stroke-opacity:1"/>
<path class="bond-33 atom-33 atom-34" d="M 458.4,101.0 L 455.9,102.6" style="fill:none;fill-rule:evenodd;stroke:#000000;stroke-width:2.0px;stroke-linecap:butt;stroke-linejoin:miter;stroke-opacity:1"/>
<path class="bond-33 atom-33 atom-34" d="M 455.9,102.6 L 453.4,104.2" style="fill:none;fill-rule:evenodd;stroke:#0000FF;stroke-width:2.0px;stroke-linecap:butt;stroke-linejoin:miter;stroke-opacity:1"/>
<path class="bond-33 atom-33 atom-34" d="M 456.8,100.1 L 455.1,101.3" style="fill:none;fill-rule:evenodd;stroke:#000000;stroke-width:2.0px;stroke-linecap:butt;stroke-linejoin:miter;stroke-opacity:1"/>
<path class="bond-33 atom-33 atom-34" d="M 455.1,101.3 L 453.3,102.4" style="fill:none;fill-rule:evenodd;stroke:#0000FF;stroke-width:2.0px;stroke-linecap:butt;stroke-linejoin:miter;stroke-opacity:1"/>
<path class="bond-34 atom-34 atom-35" d="M 449.8,104.4 L 447.1,103.0" style="fill:none;fill-rule:evenodd;stroke:#0000FF;stroke-width:2.0px;stroke-linecap:butt;stroke-linejoin:miter;stroke-opacity:1"/>
<path class="bond-34 atom-34 atom-35" d="M 447.1,103.0 L 444.4,101.6" style="fill:none;fill-rule:evenodd;stroke:#000000;stroke-width:2.0px;stroke-linecap:butt;stroke-linejoin:miter;stroke-opacity:1"/>
<path class="bond-35 atom-35 atom-36" d="M 444.4,101.6 L 444.1,93.4" style="fill:none;fill-rule:evenodd;stroke:#000000;stroke-width:2.0px;stroke-linecap:butt;stroke-linejoin:miter;stroke-opacity:1"/>
<path class="bond-35 atom-35 atom-36" d="M 446.0,100.3 L 445.8,94.6" style="fill:none;fill-rule:evenodd;stroke:#000000;stroke-width:2.0px;stroke-linecap:butt;stroke-linejoin:miter;stroke-opacity:1"/>
<path class="bond-36 atom-36 atom-37" d="M 444.1,93.4 L 441.9,91.6" style="fill:none;fill-rule:evenodd;stroke:#000000;stroke-width:2.0px;stroke-linecap:butt;stroke-linejoin:miter;stroke-opacity:1"/>
<path class="bond-36 atom-36 atom-37" d="M 441.9,91.6 L 439.7,89.7" style="fill:none;fill-rule:evenodd;stroke:#0000FF;stroke-width:2.0px;stroke-linecap:butt;stroke-linejoin:miter;stroke-opacity:1"/>
<path class="bond-37 atom-37 atom-38" d="M 436.0,88.7 L 433.0,89.4" style="fill:none;fill-rule:evenodd;stroke:#0000FF;stroke-width:2.0px;stroke-linecap:butt;stroke-linejoin:miter;stroke-opacity:1"/>
<path class="bond-37 atom-37 atom-38" d="M 433.0,89.4 L 430.0,90.2" style="fill:none;fill-rule:evenodd;stroke:#000000;stroke-width:2.0px;stroke-linecap:butt;stroke-linejoin:miter;stroke-opacity:1"/>
<path class="bond-38 atom-38 atom-39" d="M 430.0,90.2 L 427.8,98.0" style="fill:none;fill-rule:evenodd;stroke:#000000;stroke-width:2.0px;stroke-linecap:butt;stroke-linejoin:miter;stroke-opacity:1"/>
<path class="bond-38 atom-38 atom-39" d="M 428.1,90.9 L 426.5,96.4" style="fill:none;fill-rule:evenodd;stroke:#000000;stroke-width:2.0px;stroke-linecap:butt;stroke-linejoin:miter;stroke-opacity:1"/>
<path class="bond-45 atom-43 atom-38" d="M 424.3,84.4 L 430.0,90.2" style="fill:none;fill-rule:evenodd;stroke:#000000;stroke-width:2.0px;stroke-linecap:butt;stroke-linejoin:miter;stroke-opacity:1"/>
<path class="bond-39 atom-39 atom-40" d="M 427.8,98.0 L 419.9,100.0" style="fill:none;fill-rule:evenodd;stroke:#000000;stroke-width:2.0px;stroke-linecap:butt;stroke-linejoin:miter;stroke-opacity:1"/>
<path class="bond-40 atom-40 atom-41" d="M 419.9,100.0 L 414.2,94.1" style="fill:none;fill-rule:evenodd;stroke:#000000;stroke-width:2.0px;stroke-linecap:butt;stroke-linejoin:miter;stroke-opacity:1"/>
<path class="bond-40 atom-40 atom-41" d="M 420.2,98.0 L 416.2,93.9" style="fill:none;fill-rule:evenodd;stroke:#000000;stroke-width:2.0px;stroke-linecap:butt;stroke-linejoin:miter;stroke-opacity:1"/>
<path class="bond-41 atom-41 atom-42" d="M 414.2,94.1 L 416.5,86.3" style="fill:none;fill-rule:evenodd;stroke:#000000;stroke-width:2.0px;stroke-linecap:butt;stroke-linejoin:miter;stroke-opacity:1"/>
<path class="bond-42 atom-42 atom-43" d="M 416.5,86.3 L 424.3,84.4" style="fill:none;fill-rule:evenodd;stroke:#000000;stroke-width:2.0px;stroke-linecap:butt;stroke-linejoin:miter;stroke-opacity:1"/>
<path class="bond-42 atom-42 atom-43" d="M 418.0,87.6 L 423.5,86.2" style="fill:none;fill-rule:evenodd;stroke:#000000;stroke-width:2.0px;stroke-linecap:butt;stroke-linejoin:miter;stroke-opacity:1"/>
<path class="atom-3" d="M 434.3 43.6 L 436.8 43.6 L 436.8 44.0 L 434.9 44.0 L 434.9 45.3 L 436.6 45.3 L 436.6 45.8 L 434.9 45.8 L 434.9 47.8 L 434.3 47.8 L 434.3 43.6 " fill="#33CCCC"/>
<path class="atom-12" d="M 451.4 66.9 Q 451.4 65.9, 451.9 65.4 Q 452.4 64.8, 453.4 64.8 Q 454.3 64.8, 454.8 65.4 Q 455.3 65.9, 455.3 66.9 Q 455.3 68.0, 454.8 68.6 Q 454.3 69.1, 453.4 69.1 Q 452.4 69.1, 451.9 68.6 Q 451.4 68.0, 451.4 66.9 M 453.4 68.7 Q 454.0 68.7, 454.4 68.2 Q 454.7 67.8, 454.7 66.9 Q 454.7 66.1, 454.4 65.7 Q 454.0 65.3, 453.4 65.3 Q 452.7 65.3, 452.4 65.7 Q 452.0 66.1, 452.0 66.9 Q 452.0 67.8, 452.4 68.2 Q 452.7 68.7, 453.4 68.7 " fill="#FF0000"/>
<path class="atom-13" d="M 461.3 74.3 L 462.7 76.5 Q 462.8 76.8, 463.0 77.2 Q 463.3 77.6, 463.3 77.6 L 463.3 74.3 L 463.8 74.3 L 463.8 78.5 L 463.2 78.5 L 461.8 76.1 Q 461.6 75.8, 461.4 75.5 Q 461.2 75.1, 461.2 75.0 L 461.2 78.5 L 460.6 78.5 L 460.6 74.3 L 461.3 74.3 " fill="#0000FF"/>
<path class="atom-18" d="M 492.3 56.3 L 493.7 58.6 Q 493.8 58.8, 494.0 59.2 Q 494.3 59.6, 494.3 59.6 L 494.3 56.3 L 494.8 56.3 L 494.8 60.6 L 494.3 60.6 L 492.8 58.1 Q 492.6 57.8, 492.4 57.5 Q 492.2 57.2, 492.2 57.1 L 492.2 60.6 L 491.6 60.6 L 491.6 56.3 L 492.3 56.3 " fill="#0000FF"/>
<path class="atom-18" d="M 491.6 51.7 L 492.1 51.7 L 492.1 53.5 L 494.3 53.5 L 494.3 51.7 L 494.9 51.7 L 494.9 55.9 L 494.3 55.9 L 494.3 53.9 L 492.1 53.9 L 492.1 55.9 L 491.6 55.9 L 491.6 51.7 " fill="#0000FF"/>
<path class="atom-23" d="M 504.6 90.0 L 506.0 92.2 Q 506.1 92.5, 506.3 92.9 Q 506.6 93.3, 506.6 93.3 L 506.6 90.0 L 507.1 90.0 L 507.1 94.2 L 506.6 94.2 L 505.1 91.8 Q 504.9 91.5, 504.7 91.2 Q 504.5 90.8, 504.5 90.7 L 504.5 94.2 L 503.9 94.2 L 503.9 90.0 L 504.6 90.0 " fill="#0000FF"/>
<path class="atom-23" d="M 507.7 90.0 L 508.2 90.0 L 508.2 91.8 L 510.4 91.8 L 510.4 90.0 L 511.0 90.0 L 511.0 94.2 L 510.4 94.2 L 510.4 92.3 L 508.2 92.3 L 508.2 94.2 L 507.7 94.2 L 507.7 90.0 " fill="#0000FF"/>
<path class="atom-28" d="M 464.8 96.3 L 465.4 96.3 L 465.4 98.1 L 467.6 98.1 L 467.6 96.3 L 468.1 96.3 L 468.1 100.5 L 467.6 100.5 L 467.6 98.5 L 465.4 98.5 L 465.4 100.5 L 464.8 100.5 L 464.8 96.3 " fill="#0000FF"/>
<path class="atom-28" d="M 469.3 96.3 L 470.7 98.5 Q 470.8 98.7, 471.1 99.1 Q 471.3 99.5, 471.3 99.6 L 471.3 96.3 L 471.9 96.3 L 471.9 100.5 L 471.3 100.5 L 469.8 98.0 Q 469.6 97.8, 469.4 97.4 Q 469.2 97.1, 469.2 97.0 L 469.2 100.5 L 468.6 100.5 L 468.6 96.3 L 469.3 96.3 " fill="#0000FF"/>
<path class="atom-34" d="M 450.6 103.2 L 452.0 105.5 Q 452.2 105.7, 452.4 106.1 Q 452.6 106.5, 452.6 106.5 L 452.6 103.2 L 453.2 103.2 L 453.2 107.5 L 452.6 107.5 L 451.1 105.0 Q 450.9 104.7, 450.7 104.4 Q 450.6 104.1, 450.5 104.0 L 450.5 107.5 L 450.0 107.5 L 450.0 103.2 L 450.6 103.2 " fill="#0000FF"/>
<path class="atom-37" d="M 436.9 86.1 L 438.3 88.3 Q 438.5 88.6, 438.7 89.0 Q 438.9 89.4, 438.9 89.4 L 438.9 86.1 L 439.5 86.1 L 439.5 90.3 L 438.9 90.3 L 437.4 87.9 Q 437.2 87.6, 437.0 87.3 Q 436.9 86.9, 436.8 86.8 L 436.8 90.3 L 436.3 90.3 L 436.3 86.1 L 436.9 86.1 " fill="#0000FF"/>
<path class="bond-0 atom-0 atom-1" d="M 828.1,76.0 L 830.9,83.6" style="fill:none;fill-rule:evenodd;stroke:#000000;stroke-width:2.0px;stroke-linecap:butt;stroke-linejoin:miter;stroke-opacity:1"/>
<path class="bond-1 atom-1 atom-2" d="M 830.9,83.6 L 839.0,83.1" style="fill:none;fill-rule:evenodd;stroke:#000000;stroke-width:2.0px;stroke-linecap:butt;stroke-linejoin:miter;stroke-opacity:1"/>
<path class="bond-1 atom-1 atom-2" d="M 832.2,85.1 L 837.9,84.8" style="fill:none;fill-rule:evenodd;stroke:#000000;stroke-width:2.0px;stroke-linecap:butt;stroke-linejoin:miter;stroke-opacity:1"/>
<path class="bond-77 atom-7 atom-1" d="M 827.3,90.9 L 830.9,83.6" style="fill:none;fill-rule:evenodd;stroke:#000000;stroke-width:2.0px;stroke-linecap:butt;stroke-linejoin:miter;stroke-opacity:1"/>
<path class="bond-2 atom-2 atom-3" d="M 839.0,83.1 L 840.2,80.6" style="fill:none;fill-rule:evenodd;stroke:#000000;stroke-width:2.0px;stroke-linecap:butt;stroke-linejoin:miter;stroke-opacity:1"/>
<path class="bond-2 atom-2 atom-3" d="M 840.2,80.6 L 841.4,78.1" style="fill:none;fill-rule:evenodd;stroke:#33CCCC;stroke-width:2.0px;stroke-linecap:butt;stroke-linejoin:miter;stroke-opacity:1"/>
<path class="bond-3 atom-2 atom-4" d="M 839.0,83.1 L 843.5,89.8" style="fill:none;fill-rule:evenodd;stroke:#000000;stroke-width:2.0px;stroke-linecap:butt;stroke-linejoin:miter;stroke-opacity:1"/>
<path class="bond-4 atom-4 atom-5" d="M 843.5,89.8 L 839.9,97.1" style="fill:none;fill-rule:evenodd;stroke:#000000;stroke-width:2.0px;stroke-linecap:butt;stroke-linejoin:miter;stroke-opacity:1"/>
<path class="bond-4 atom-4 atom-5" d="M 841.5,90.2 L 839.0,95.3" style="fill:none;fill-rule:evenodd;stroke:#000000;stroke-width:2.0px;stroke-linecap:butt;stroke-linejoin:miter;stroke-opacity:1"/>
<path class="bond-5 atom-5 atom-6" d="M 839.9,97.1 L 831.8,97.6" style="fill:none;fill-rule:evenodd;stroke:#000000;stroke-width:2.0px;stroke-linecap:butt;stroke-linejoin:miter;stroke-opacity:1"/>
<path class="bond-6 atom-6 atom-7" d="M 831.8,97.6 L 827.3,90.9" style="fill:none;fill-rule:evenodd;stroke:#000000;stroke-width:2.0px;stroke-linecap:butt;stroke-linejoin:miter;stroke-opacity:1"/>
<path class="bond-6 atom-6 atom-7" d="M 832.5,95.7 L 829.3,91.0" style="fill:none;fill-rule:evenodd;stroke:#000000;stroke-width:2.0px;stroke-linecap:butt;stroke-linejoin:miter;stroke-opacity:1"/>
<path class="bond-7 atom-7 atom-8" d="M 827.3,90.9 L 819.2,91.4" style="fill:none;fill-rule:evenodd;stroke:#000000;stroke-width:2.0px;stroke-linecap:butt;stroke-linejoin:miter;stroke-opacity:1"/>
<path class="bond-8 atom-8 atom-9" d="M 819.2,91.4 L 814.6,84.7" style="fill:none;fill-rule:evenodd;stroke:#000000;stroke-width:2.0px;stroke-linecap:butt;stroke-linejoin:miter;stroke-opacity:1"/>
<path class="bond-9 atom-9 atom-10" d="M 814.6,84.7 L 806.5,84.4" style="fill:none;fill-rule:evenodd;stroke:#000000;stroke-width:2.0px;stroke-linecap:butt;stroke-linejoin:miter;stroke-opacity:1"/>
<path class="bond-9 atom-9 atom-10" d="M 813.5,83.0 L 807.8,82.8" style="fill:none;fill-rule:evenodd;stroke:#000000;stroke-width:2.0px;stroke-linecap:butt;stroke-linejoin:miter;stroke-opacity:1"/>
<path class="bond-78 atom-71 atom-9" d="M 816.6,79.4 L 815.6,82.0" style="fill:none;fill-rule:evenodd;stroke:#0000FF;stroke-width:2.0px;stroke-linecap:butt;stroke-linejoin:miter;stroke-opacity:1"/>
<path class="bond-78 atom-71 atom-9" d="M 815.6,82.0 L 814.6,84.7" style="fill:none;fill-rule:evenodd;stroke:#000000;stroke-width:2.0px;stroke-linecap:butt;stroke-linejoin:miter;stroke-opacity:1"/>
<path class="bond-10 atom-10 atom-11" d="M 806.5,84.4 L 801.5,90.8" style="fill:none;fill-rule:evenodd;stroke:#000000;stroke-width:2.0px;stroke-linecap:butt;stroke-linejoin:miter;stroke-opacity:1"/>
<path class="bond-64 atom-10 atom-65" d="M 806.5,84.4 L 804.3,76.6" style="fill:none;fill-rule:evenodd;stroke:#000000;stroke-width:2.0px;stroke-linecap:butt;stroke-linejoin:miter;stroke-opacity:1"/>
<path class="bond-11 atom-11 atom-12" d="M 800.8,91.1 L 801.8,93.6" style="fill:none;fill-rule:evenodd;stroke:#000000;stroke-width:2.0px;stroke-linecap:butt;stroke-linejoin:miter;stroke-opacity:1"/>
<path class="bond-11 atom-11 atom-12" d="M 801.8,93.6 L 802.8,96.2" style="fill:none;fill-rule:evenodd;stroke:#FF0000;stroke-width:2.0px;stroke-linecap:butt;stroke-linejoin:miter;stroke-opacity:1"/>
<path class="bond-11 atom-11 atom-12" d="M 802.3,90.5 L 803.3,93.0" style="fill:none;fill-rule:evenodd;stroke:#000000;stroke-width:2.0px;stroke-linecap:butt;stroke-linejoin:miter;stroke-opacity:1"/>
<path class="bond-11 atom-11 atom-12" d="M 803.3,93.0 L 804.3,95.6" style="fill:none;fill-rule:evenodd;stroke:#FF0000;stroke-width:2.0px;stroke-linecap:butt;stroke-linejoin:miter;stroke-opacity:1"/>
<path class="bond-12 atom-11 atom-13" d="M 801.5,90.8 L 798.4,90.3" style="fill:none;fill-rule:evenodd;stroke:#000000;stroke-width:2.0px;stroke-linecap:butt;stroke-linejoin:miter;stroke-opacity:1"/>
<path class="bond-12 atom-11 atom-13" d="M 798.4,90.3 L 795.3,89.9" style="fill:none;fill-rule:evenodd;stroke:#0000FF;stroke-width:2.0px;stroke-linecap:butt;stroke-linejoin:miter;stroke-opacity:1"/>
<path class="bond-13 atom-13 atom-14" d="M 793.7,87.3 L 793.8,85.6" style="fill:none;fill-rule:evenodd;stroke:#0000FF;stroke-width:2.0px;stroke-linecap:butt;stroke-linejoin:miter;stroke-opacity:1"/>
<path class="bond-13 atom-13 atom-14" d="M 793.8,85.6 L 793.9,83.8" style="fill:none;fill-rule:evenodd;stroke:#000000;stroke-width:2.0px;stroke-linecap:butt;stroke-linejoin:miter;stroke-opacity:1"/>
<path class="bond-80 atom-64 atom-13" d="M 792.3,95.2 L 792.7,93.5" style="fill:none;fill-rule:evenodd;stroke:#000000;stroke-width:2.0px;stroke-linecap:butt;stroke-linejoin:miter;stroke-opacity:1"/>
<path class="bond-80 atom-64 atom-13" d="M 792.7,93.5 L 793.0,91.9" style="fill:none;fill-rule:evenodd;stroke:#0000FF;stroke-width:2.0px;stroke-linecap:butt;stroke-linejoin:miter;stroke-opacity:1"/>
<path class="bond-14 atom-14 atom-15" d="M 794.0,79.1 L 793.9,75.7" style="fill:none;fill-rule:evenodd;stroke:#000000;stroke-width:2.0px;stroke-linecap:butt;stroke-linejoin:miter;stroke-opacity:1"/>
<path class="bond-15 atom-15 atom-16" d="M 793.4,71.0 L 793.2,69.3" style="fill:none;fill-rule:evenodd;stroke:#000000;stroke-width:2.0px;stroke-linecap:butt;stroke-linejoin:miter;stroke-opacity:1"/>
<path class="bond-15 atom-15 atom-16" d="M 793.2,69.3 L 792.9,67.6" style="fill:none;fill-rule:evenodd;stroke:#0000FF;stroke-width:2.0px;stroke-linecap:butt;stroke-linejoin:miter;stroke-opacity:1"/>
<path class="bond-16 atom-16 atom-17" d="M 791.9,63.0 L 791.4,61.5" style="fill:none;fill-rule:evenodd;stroke:#0000FF;stroke-width:2.0px;stroke-linecap:butt;stroke-linejoin:miter;stroke-opacity:1"/>
<path class="bond-16 atom-16 atom-17" d="M 791.4,61.5 L 791.0,59.9" style="fill:none;fill-rule:evenodd;stroke:#000000;stroke-width:2.0px;stroke-linecap:butt;stroke-linejoin:miter;stroke-opacity:1"/>
<path class="bond-17 atom-17 atom-18" d="M 789.3,55.2 L 788.1,52.4" style="fill:none;fill-rule:evenodd;stroke:#000000;stroke-width:2.0px;stroke-linecap:butt;stroke-linejoin:miter;stroke-opacity:1"/>
<path class="bond-18 atom-18 atom-19" d="M 785.8,47.7 L 784.4,45.4" style="fill:none;fill-rule:evenodd;stroke:#000000;stroke-width:2.0px;stroke-linecap:butt;stroke-linejoin:miter;stroke-opacity:1"/>
<path class="bond-19 atom-19 atom-20" d="M 781.3,40.7 L 780.0,38.9" style="fill:none;fill-rule:evenodd;stroke:#000000;stroke-width:2.0px;stroke-linecap:butt;stroke-linejoin:miter;stroke-opacity:1"/>
<path class="bond-20 atom-20 atom-21" d="M 776.4,34.6 L 775.6,33.8" style="fill:none;fill-rule:evenodd;stroke:#000000;stroke-width:2.0px;stroke-linecap:butt;stroke-linejoin:miter;stroke-opacity:1"/>
<path class="bond-20 atom-20 atom-21" d="M 775.6,33.8 L 774.8,32.9" style="fill:none;fill-rule:evenodd;stroke:#0000FF;stroke-width:2.0px;stroke-linecap:butt;stroke-linejoin:miter;stroke-opacity:1"/>
<path class="bond-21 atom-21 atom-22" d="M 770.8,29.2 L 769.4,28.1" style="fill:none;fill-rule:evenodd;stroke:#0000FF;stroke-width:2.0px;stroke-linecap:butt;stroke-linejoin:miter;stroke-opacity:1"/>
<path class="bond-21 atom-21 atom-22" d="M 769.4,28.1 L 768.1,27.0" style="fill:none;fill-rule:evenodd;stroke:#000000;stroke-width:2.0px;stroke-linecap:butt;stroke-linejoin:miter;stroke-opacity:1"/>
<path class="bond-22 atom-22 atom-23" d="M 764.5,24.3 L 761.2,22.3" style="fill:none;fill-rule:evenodd;stroke:#000000;stroke-width:2.0px;stroke-linecap:butt;stroke-linejoin:miter;stroke-opacity:1"/>
<path class="bond-23 atom-23 atom-24" d="M 757.6,20.3 L 753.9,18.5" style="fill:none;fill-rule:evenodd;stroke:#000000;stroke-width:2.0px;stroke-linecap:butt;stroke-linejoin:miter;stroke-opacity:1"/>
<path class="bond-24 atom-24 atom-25" d="M 750.3,17.0 L 746.2,15.7" style="fill:none;fill-rule:evenodd;stroke:#000000;stroke-width:2.0px;stroke-linecap:butt;stroke-linejoin:miter;stroke-opacity:1"/>
<path class="bond-25 atom-25 atom-26" d="M 742.6,14.7 L 740.4,14.2" style="fill:none;fill-rule:evenodd;stroke:#000000;stroke-width:2.0px;stroke-linecap:butt;stroke-linejoin:miter;stroke-opacity:1"/>
<path class="bond-25 atom-25 atom-26" d="M 740.4,14.2 L 738.2,13.8" style="fill:none;fill-rule:evenodd;stroke:#0000FF;stroke-width:2.0px;stroke-linecap:butt;stroke-linejoin:miter;stroke-opacity:1"/>
<path class="bond-26 atom-26 atom-27" d="M 734.7,13.3 L 732.4,13.1" style="fill:none;fill-rule:evenodd;stroke:#0000FF;stroke-width:2.0px;stroke-linecap:butt;stroke-linejoin:miter;stroke-opacity:1"/>
<path class="bond-26 atom-26 atom-27" d="M 732.4,13.1 L 730.2,12.9" style="fill:none;fill-rule:evenodd;stroke:#000000;stroke-width:2.0px;stroke-linecap:butt;stroke-linejoin:miter;stroke-opacity:1"/>
<path class="bond-27 atom-27 atom-28" d="M 726.5,12.8 L 722.1,13.0" style="fill:none;fill-rule:evenodd;stroke:#000000;stroke-width:2.0px;stroke-linecap:butt;stroke-linejoin:miter;stroke-opacity:1"/>
<path class="bond-28 atom-28 atom-29" d="M 718.4,13.3 L 714.0,14.1" style="fill:none;fill-rule:evenodd;stroke:#000000;stroke-width:2.0px;stroke-linecap:butt;stroke-linejoin:miter;stroke-opacity:1"/>
<path class="bond-29 atom-29 atom-30" d="M 710.4,14.9 L 706.2,16.1" style="fill:none;fill-rule:evenodd;stroke:#000000;stroke-width:2.0px;stroke-linecap:butt;stroke-linejoin:miter;stroke-opacity:1"/>
<path class="bond-30 atom-30 atom-31" d="M 702.6,17.4 L 700.7,18.2" style="fill:none;fill-rule:evenodd;stroke:#000000;stroke-width:2.0px;stroke-linecap:butt;stroke-linejoin:miter;stroke-opacity:1"/>
<path class="bond-30 atom-30 atom-31" d="M 700.7,18.2 L 698.7,19.0" style="fill:none;fill-rule:evenodd;stroke:#0000FF;stroke-width:2.0px;stroke-linecap:butt;stroke-linejoin:miter;stroke-opacity:1"/>
<path class="bond-31 atom-31 atom-32" d="M 692.9,22.1 L 692.3,22.4" style="fill:none;fill-rule:evenodd;stroke:#0000FF;stroke-width:2.0px;stroke-linecap:butt;stroke-linejoin:miter;stroke-opacity:1"/>
<path class="bond-31 atom-31 atom-32" d="M 692.3,22.4 L 691.6,22.8" style="fill:none;fill-rule:evenodd;stroke:#000000;stroke-width:2.0px;stroke-linecap:butt;stroke-linejoin:miter;stroke-opacity:1"/>
<path class="bond-32 atom-32 atom-33" d="M 688.1,25.2 L 685.2,27.3" style="fill:none;fill-rule:evenodd;stroke:#000000;stroke-width:2.0px;stroke-linecap:butt;stroke-linejoin:miter;stroke-opacity:1"/>
<path class="bond-33 atom-33 atom-34" d="M 681.6,30.4 L 679.3,32.6" style="fill:none;fill-rule:evenodd;stroke:#000000;stroke-width:2.0px;stroke-linecap:butt;stroke-linejoin:miter;stroke-opacity:1"/>
<path class="bond-34 atom-34 atom-35" d="M 675.7,36.5 L 674.1,38.4" style="fill:none;fill-rule:evenodd;stroke:#000000;stroke-width:2.0px;stroke-linecap:butt;stroke-linejoin:miter;stroke-opacity:1"/>
<path class="bond-35 atom-35 atom-36" d="M 670.9,43.0 L 670.2,44.1" style="fill:none;fill-rule:evenodd;stroke:#000000;stroke-width:2.0px;stroke-linecap:butt;stroke-linejoin:miter;stroke-opacity:1"/>
<path class="bond-35 atom-35 atom-36" d="M 670.2,44.1 L 669.5,45.2" style="fill:none;fill-rule:evenodd;stroke:#0000FF;stroke-width:2.0px;stroke-linecap:butt;stroke-linejoin:miter;stroke-opacity:1"/>
<path class="bond-36 atom-36 atom-37" d="M 666.9,49.7 L 666.3,51.1" style="fill:none;fill-rule:evenodd;stroke:#0000FF;stroke-width:2.0px;stroke-linecap:butt;stroke-linejoin:miter;stroke-opacity:1"/>
<path class="bond-36 atom-36 atom-37" d="M 666.3,51.1 L 665.6,52.5" style="fill:none;fill-rule:evenodd;stroke:#000000;stroke-width:2.0px;stroke-linecap:butt;stroke-linejoin:miter;stroke-opacity:1"/>
<path class="bond-37 atom-37 atom-38" d="M 663.7,57.2 L 662.7,60.2" style="fill:none;fill-rule:evenodd;stroke:#000000;stroke-width:2.0px;stroke-linecap:butt;stroke-linejoin:miter;stroke-opacity:1"/>
<path class="bond-38 atom-38 atom-39" d="M 661.4,64.9 L 660.8,68.1" style="fill:none;fill-rule:evenodd;stroke:#000000;stroke-width:2.0px;stroke-linecap:butt;stroke-linejoin:miter;stroke-opacity:1"/>
<path class="bond-39 atom-39 atom-40" d="M 660.1,72.8 L 659.8,76.2" style="fill:none;fill-rule:evenodd;stroke:#000000;stroke-width:2.0px;stroke-linecap:butt;stroke-linejoin:miter;stroke-opacity:1"/>
<path class="bond-40 atom-40 atom-41" d="M 659.7,80.9 L 659.8,84.3" style="fill:none;fill-rule:evenodd;stroke:#000000;stroke-width:2.0px;stroke-linecap:butt;stroke-linejoin:miter;stroke-opacity:1"/>
<path class="bond-41 atom-41 atom-42" d="M 660.3,89.0 L 660.6,90.7" style="fill:none;fill-rule:evenodd;stroke:#000000;stroke-width:2.0px;stroke-linecap:butt;stroke-linejoin:miter;stroke-opacity:1"/>
<path class="bond-41 atom-41 atom-42" d="M 660.6,90.7 L 660.9,92.4" style="fill:none;fill-rule:evenodd;stroke:#0000FF;stroke-width:2.0px;stroke-linecap:butt;stroke-linejoin:miter;stroke-opacity:1"/>
<path class="bond-42 atom-42 atom-43" d="M 661.9,97.0 L 662.3,98.6" style="fill:none;fill-rule:evenodd;stroke:#0000FF;stroke-width:2.0px;stroke-linecap:butt;stroke-linejoin:miter;stroke-opacity:1"/>
<path class="bond-42 atom-42 atom-43" d="M 662.3,98.6 L 662.8,100.2" style="fill:none;fill-rule:evenodd;stroke:#000000;stroke-width:2.0px;stroke-linecap:butt;stroke-linejoin:miter;stroke-opacity:1"/>
<path class="bond-43 atom-43 atom-44" d="M 664.5,104.9 L 665.7,107.6" style="fill:none;fill-rule:evenodd;stroke:#000000;stroke-width:2.0px;stroke-linecap:butt;stroke-linejoin:miter;stroke-opacity:1"/>
<path class="bond-44 atom-44 atom-45" d="M 668.0,112.3 L 669.4,114.7" style="fill:none;fill-rule:evenodd;stroke:#000000;stroke-width:2.0px;stroke-linecap:butt;stroke-linejoin:miter;stroke-opacity:1"/>
<path class="bond-45 atom-45 atom-46" d="M 672.5,119.4 L 673.8,121.2" style="fill:none;fill-rule:evenodd;stroke:#000000;stroke-width:2.0px;stroke-linecap:butt;stroke-linejoin:miter;stroke-opacity:1"/>
<path class="bond-46 atom-46 atom-47" d="M 677.4,125.4 L 678.2,126.2" style="fill:none;fill-rule:evenodd;stroke:#000000;stroke-width:2.0px;stroke-linecap:butt;stroke-linejoin:miter;stroke-opacity:1"/>
<path class="bond-46 atom-46 atom-47" d="M 678.2,126.2 L 679.0,127.1" style="fill:none;fill-rule:evenodd;stroke:#0000FF;stroke-width:2.0px;stroke-linecap:butt;stroke-linejoin:miter;stroke-opacity:1"/>
<path class="bond-47 atom-47 atom-48" d="M 683.0,130.8 L 684.3,131.9" style="fill:none;fill-rule:evenodd;stroke:#0000FF;stroke-width:2.0px;stroke-linecap:butt;stroke-linejoin:miter;stroke-opacity:1"/>
<path class="bond-47 atom-47 atom-48" d="M 684.3,131.9 L 685.7,133.0" style="fill:none;fill-rule:evenodd;stroke:#000000;stroke-width:2.0px;stroke-linecap:butt;stroke-linejoin:miter;stroke-opacity:1"/>
<path class="bond-48 atom-48 atom-49" d="M 689.3,135.7 L 692.5,137.7" style="fill:none;fill-rule:evenodd;stroke:#000000;stroke-width:2.0px;stroke-linecap:butt;stroke-linejoin:miter;stroke-opacity:1"/>
<path class="bond-49 atom-49 atom-50" d="M 696.1,139.7 L 699.8,141.5" style="fill:none;fill-rule:evenodd;stroke:#000000;stroke-width:2.0px;stroke-linecap:butt;stroke-linejoin:miter;stroke-opacity:1"/>
<path class="bond-50 atom-50 atom-51" d="M 703.5,143.0 L 707.5,144.3" style="fill:none;fill-rule:evenodd;stroke:#000000;stroke-width:2.0px;stroke-linecap:butt;stroke-linejoin:miter;stroke-opacity:1"/>
<path class="bond-51 atom-51 atom-52" d="M 711.2,145.3 L 713.3,145.8" style="fill:none;fill-rule:evenodd;stroke:#000000;stroke-width:2.0px;stroke-linecap:butt;stroke-linejoin:miter;stroke-opacity:1"/>
<path class="bond-51 atom-51 atom-52" d="M 713.3,145.8 L 715.5,146.2" style="fill:none;fill-rule:evenodd;stroke:#0000FF;stroke-width:2.0px;stroke-linecap:butt;stroke-linejoin:miter;stroke-opacity:1"/>
<path class="bond-52 atom-52 atom-53" d="M 719.1,146.7 L 721.3,146.9" style="fill:none;fill-rule:evenodd;stroke:#0000FF;stroke-width:2.0px;stroke-linecap:butt;stroke-linejoin:miter;stroke-opacity:1"/>
<path class="bond-52 atom-52 atom-53" d="M 721.3,146.9 L 723.6,147.1" style="fill:none;fill-rule:evenodd;stroke:#000000;stroke-width:2.0px;stroke-linecap:butt;stroke-linejoin:miter;stroke-opacity:1"/>
<path class="bond-53 atom-53 atom-54" d="M 727.2,147.2 L 731.7,147.0" style="fill:none;fill-rule:evenodd;stroke:#000000;stroke-width:2.0px;stroke-linecap:butt;stroke-linejoin:miter;stroke-opacity:1"/>
<path class="bond-54 atom-54 atom-55" d="M 735.3,146.7 L 739.7,145.9" style="fill:none;fill-rule:evenodd;stroke:#000000;stroke-width:2.0px;stroke-linecap:butt;stroke-linejoin:miter;stroke-opacity:1"/>
<path class="bond-55 atom-55 atom-56" d="M 743.4,145.1 L 747.5,143.9" style="fill:none;fill-rule:evenodd;stroke:#000000;stroke-width:2.0px;stroke-linecap:butt;stroke-linejoin:miter;stroke-opacity:1"/>
<path class="bond-56 atom-56 atom-57" d="M 751.2,142.6 L 753.1,141.8" style="fill:none;fill-rule:evenodd;stroke:#000000;stroke-width:2.0px;stroke-linecap:butt;stroke-linejoin:miter;stroke-opacity:1"/>
<path class="bond-56 atom-56 atom-57" d="M 753.1,141.8 L 755.0,141.0" style="fill:none;fill-rule:evenodd;stroke:#0000FF;stroke-width:2.0px;stroke-linecap:butt;stroke-linejoin:miter;stroke-opacity:1"/>
<path class="bond-57 atom-57 atom-58" d="M 760.9,137.9 L 761.5,137.6" style="fill:none;fill-rule:evenodd;stroke:#0000FF;stroke-width:2.0px;stroke-linecap:butt;stroke-linejoin:miter;stroke-opacity:1"/>
<path class="bond-57 atom-57 atom-58" d="M 761.5,137.6 L 762.1,137.2" style="fill:none;fill-rule:evenodd;stroke:#000000;stroke-width:2.0px;stroke-linecap:butt;stroke-linejoin:miter;stroke-opacity:1"/>
<path class="bond-58 atom-58 atom-59" d="M 765.7,134.8 L 768.6,132.7" style="fill:none;fill-rule:evenodd;stroke:#000000;stroke-width:2.0px;stroke-linecap:butt;stroke-linejoin:miter;stroke-opacity:1"/>
<path class="bond-59 atom-59 atom-60" d="M 772.2,129.6 L 774.5,127.4" style="fill:none;fill-rule:evenodd;stroke:#000000;stroke-width:2.0px;stroke-linecap:butt;stroke-linejoin:miter;stroke-opacity:1"/>
<path class="bond-60 atom-60 atom-61" d="M 778.1,123.5 L 779.6,121.6" style="fill:none;fill-rule:evenodd;stroke:#000000;stroke-width:2.0px;stroke-linecap:butt;stroke-linejoin:miter;stroke-opacity:1"/>
<path class="bond-61 atom-61 atom-62" d="M 782.9,117.1 L 783.6,116.0" style="fill:none;fill-rule:evenodd;stroke:#000000;stroke-width:2.0px;stroke-linecap:butt;stroke-linejoin:miter;stroke-opacity:1"/>
<path class="bond-61 atom-61 atom-62" d="M 783.6,116.0 L 784.3,114.8" style="fill:none;fill-rule:evenodd;stroke:#0000FF;stroke-width:2.0px;stroke-linecap:butt;stroke-linejoin:miter;stroke-opacity:1"/>
<path class="bond-62 atom-62 atom-63" d="M 786.8,110.3 L 787.5,108.9" style="fill:none;fill-rule:evenodd;stroke:#0000FF;stroke-width:2.0px;stroke-linecap:butt;stroke-linejoin:miter;stroke-opacity:1"/>
<path class="bond-62 atom-62 atom-63" d="M 787.5,108.9 L 788.1,107.6" style="fill:none;fill-rule:evenodd;stroke:#000000;stroke-width:2.0px;stroke-linecap:butt;stroke-linejoin:miter;stroke-opacity:1"/>
<path class="bond-63 atom-63 atom-64" d="M 790.0,102.9 L 791.0,99.9" style="fill:none;fill-rule:evenodd;stroke:#000000;stroke-width:2.0px;stroke-linecap:butt;stroke-linejoin:miter;stroke-opacity:1"/>
<path class="bond-65 atom-65 atom-66" d="M 804.3,76.6 L 797.0,73.0" style="fill:none;fill-rule:evenodd;stroke:#000000;stroke-width:2.0px;stroke-linecap:butt;stroke-linejoin:miter;stroke-opacity:1"/>
<path class="bond-65 atom-65 atom-66" d="M 803.9,74.6 L 798.8,72.0" style="fill:none;fill-rule:evenodd;stroke:#000000;stroke-width:2.0px;stroke-linecap:butt;stroke-linejoin:miter;stroke-opacity:1"/>
<path class="bond-81 atom-70 atom-65" d="M 811.1,72.0 L 804.3,76.6" style="fill:none;fill-rule:evenodd;stroke:#000000;stroke-width:2.0px;stroke-linecap:butt;stroke-linejoin:miter;stroke-opacity:1"/>
<path class="bond-66 atom-66 atom-67" d="M 797.0,73.0 L 796.5,64.9" style="fill:none;fill-rule:evenodd;stroke:#000000;stroke-width:2.0px;stroke-linecap:butt;stroke-linejoin:miter;stroke-opacity:1"/>
<path class="bond-67 atom-67 atom-68" d="M 796.5,64.9 L 799.0,63.2" style="fill:none;fill-rule:evenodd;stroke:#000000;stroke-width:2.0px;stroke-linecap:butt;stroke-linejoin:miter;stroke-opacity:1"/>
<path class="bond-67 atom-67 atom-68" d="M 799.0,63.2 L 801.4,61.6" style="fill:none;fill-rule:evenodd;stroke:#0000FF;stroke-width:2.0px;stroke-linecap:butt;stroke-linejoin:miter;stroke-opacity:1"/>
<path class="bond-67 atom-67 atom-68" d="M 798.1,65.7 L 799.9,64.6" style="fill:none;fill-rule:evenodd;stroke:#000000;stroke-width:2.0px;stroke-linecap:butt;stroke-linejoin:miter;stroke-opacity:1"/>
<path class="bond-67 atom-67 atom-68" d="M 799.9,64.6 L 801.6,63.4" style="fill:none;fill-rule:evenodd;stroke:#0000FF;stroke-width:2.0px;stroke-linecap:butt;stroke-linejoin:miter;stroke-opacity:1"/>
<path class="bond-68 atom-68 atom-69" d="M 805.1,61.2 L 807.8,62.6" style="fill:none;fill-rule:evenodd;stroke:#0000FF;stroke-width:2.0px;stroke-linecap:butt;stroke-linejoin:miter;stroke-opacity:1"/>
<path class="bond-68 atom-68 atom-69" d="M 807.8,62.6 L 810.5,63.9" style="fill:none;fill-rule:evenodd;stroke:#000000;stroke-width:2.0px;stroke-linecap:butt;stroke-linejoin:miter;stroke-opacity:1"/>
<path class="bond-69 atom-69 atom-70" d="M 810.5,63.9 L 811.1,72.0" style="fill:none;fill-rule:evenodd;stroke:#000000;stroke-width:2.0px;stroke-linecap:butt;stroke-linejoin:miter;stroke-opacity:1"/>
<path class="bond-69 atom-69 atom-70" d="M 809.0,65.2 L 809.4,70.9" style="fill:none;fill-rule:evenodd;stroke:#000000;stroke-width:2.0px;stroke-linecap:butt;stroke-linejoin:miter;stroke-opacity:1"/>
<path class="bond-70 atom-70 atom-71" d="M 811.1,72.0 L 813.4,73.8" style="fill:none;fill-rule:evenodd;stroke:#000000;stroke-width:2.0px;stroke-linecap:butt;stroke-linejoin:miter;stroke-opacity:1"/>
<path class="bond-70 atom-70 atom-71" d="M 813.4,73.8 L 815.6,75.6" style="fill:none;fill-rule:evenodd;stroke:#0000FF;stroke-width:2.0px;stroke-linecap:butt;stroke-linejoin:miter;stroke-opacity:1"/>
<path class="bond-71 atom-71 atom-72" d="M 819.3,76.5 L 822.3,75.7" style="fill:none;fill-rule:evenodd;stroke:#0000FF;stroke-width:2.0px;stroke-linecap:butt;stroke-linejoin:miter;stroke-opacity:1"/>
<path class="bond-71 atom-71 atom-72" d="M 822.3,75.7 L 825.3,74.8" style="fill:none;fill-rule:evenodd;stroke:#000000;stroke-width:2.0px;stroke-linecap:butt;stroke-linejoin:miter;stroke-opacity:1"/>
<path class="bond-72 atom-72 atom-73" d="M 825.3,74.8 L 831.1,80.5" style="fill:none;fill-rule:evenodd;stroke:#000000;stroke-width:2.0px;stroke-linecap:butt;stroke-linejoin:miter;stroke-opacity:1"/>
<path class="bond-72 atom-72 atom-73" d="M 827.3,74.5 L 831.4,78.5" style="fill:none;fill-rule:evenodd;stroke:#000000;stroke-width:2.0px;stroke-linecap:butt;stroke-linejoin:miter;stroke-opacity:1"/>
<path class="bond-79 atom-77 atom-72" d="M 827.3,67.0 L 825.3,74.8" style="fill:none;fill-rule:evenodd;stroke:#000000;stroke-width:2.0px;stroke-linecap:butt;stroke-linejoin:miter;stroke-opacity:1"/>
<path class="bond-73 atom-73 atom-74" d="M 831.1,80.5 L 838.9,78.3" style="fill:none;fill-rule:evenodd;stroke:#000000;stroke-width:2.0px;stroke-linecap:butt;stroke-linejoin:miter;stroke-opacity:1"/>
<path class="bond-74 atom-74 atom-75" d="M 838.9,78.3 L 840.9,70.4" style="fill:none;fill-rule:evenodd;stroke:#000000;stroke-width:2.0px;stroke-linecap:butt;stroke-linejoin:miter;stroke-opacity:1"/>
<path class="bond-74 atom-74 atom-75" d="M 837.6,76.7 L 839.0,71.2" style="fill:none;fill-rule:evenodd;stroke:#000000;stroke-width:2.0px;stroke-linecap:butt;stroke-linejoin:miter;stroke-opacity:1"/>
<path class="bond-75 atom-75 atom-76" d="M 840.9,70.4 L 835.1,64.8" style="fill:none;fill-rule:evenodd;stroke:#000000;stroke-width:2.0px;stroke-linecap:butt;stroke-linejoin:miter;stroke-opacity:1"/>
<path class="bond-76 atom-76 atom-77" d="M 835.1,64.8 L 827.3,67.0" style="fill:none;fill-rule:evenodd;stroke:#000000;stroke-width:2.0px;stroke-linecap:butt;stroke-linejoin:miter;stroke-opacity:1"/>
<path class="bond-76 atom-76 atom-77" d="M 834.3,66.7 L 828.9,68.2" style="fill:none;fill-rule:evenodd;stroke:#000000;stroke-width:2.0px;stroke-linecap:butt;stroke-linejoin:miter;stroke-opacity:1"/>
<path class="atom-3" d="M 841.3 73.7 L 843.8 73.7 L 843.8 74.1 L 841.9 74.1 L 841.9 75.4 L 843.6 75.4 L 843.6 75.9 L 841.9 75.9 L 841.9 77.9 L 841.3 77.9 L 841.3 73.7 " fill="#33CCCC"/>
<path class="atom-12" d="M 802.6 98.3 Q 802.6 97.3, 803.1 96.7 Q 803.6 96.1, 804.5 96.1 Q 805.5 96.1, 806.0 96.7 Q 806.5 97.3, 806.5 98.3 Q 806.5 99.3, 806.0 99.9 Q 805.5 100.5, 804.5 100.5 Q 803.6 100.5, 803.1 99.9 Q 802.6 99.3, 802.6 98.3 M 804.5 100.0 Q 805.2 100.0, 805.5 99.6 Q 805.9 99.2, 805.9 98.3 Q 805.9 97.5, 805.5 97.1 Q 805.2 96.6, 804.5 96.6 Q 803.9 96.6, 803.5 97.0 Q 803.2 97.5, 803.2 98.3 Q 803.2 99.2, 803.5 99.6 Q 803.9 100.0, 804.5 100.0 " fill="#FF0000"/>
<path class="atom-13" d="M 792.5 87.5 L 793.9 89.7 Q 794.1 89.9, 794.3 90.3 Q 794.5 90.7, 794.5 90.8 L 794.5 87.5 L 795.1 87.5 L 795.1 91.7 L 794.5 91.7 L 793.0 89.3 Q 792.8 89.0, 792.6 88.6 Q 792.5 88.3, 792.4 88.2 L 792.4 91.7 L 791.9 91.7 L 791.9 87.5 L 792.5 87.5 " fill="#0000FF"/>
<path class="atom-14" d="M 792.5 81.5 Q 792.5 80.5, 793.0 79.9 Q 793.5 79.3, 794.4 79.3 Q 795.3 79.3, 795.8 80.0 L 795.4 80.3 Q 795.0 79.8, 794.4 79.8 Q 793.8 79.8, 793.4 80.3 Q 793.1 80.7, 793.1 81.5 Q 793.1 82.4, 793.5 82.8 Q 793.8 83.2, 794.5 83.2 Q 795.0 83.2, 795.5 82.9 L 795.7 83.4 Q 795.5 83.5, 795.1 83.6 Q 794.8 83.7, 794.4 83.7 Q 793.5 83.7, 793.0 83.1 Q 792.5 82.6, 792.5 81.5 " fill="#000000"/>
<path class="atom-15" d="M 792.2 73.4 Q 792.2 72.3, 792.7 71.8 Q 793.2 71.2, 794.1 71.2 Q 795.0 71.2, 795.5 71.9 L 795.1 72.2 Q 794.7 71.7, 794.1 71.7 Q 793.5 71.7, 793.1 72.2 Q 792.8 72.6, 792.8 73.4 Q 792.8 74.2, 793.1 74.7 Q 793.5 75.1, 794.2 75.1 Q 794.7 75.1, 795.2 74.8 L 795.4 75.3 Q 795.1 75.4, 794.8 75.5 Q 794.5 75.6, 794.1 75.6 Q 793.2 75.6, 792.7 75.0 Q 792.2 74.5, 792.2 73.4 " fill="#000000"/>
<path class="atom-16" d="M 791.6 63.2 L 793.0 65.5 Q 793.1 65.7, 793.4 66.1 Q 793.6 66.5, 793.6 66.5 L 793.6 63.2 L 794.1 63.2 L 794.1 67.5 L 793.6 67.5 L 792.1 65.0 Q 791.9 64.7, 791.7 64.4 Q 791.5 64.1, 791.5 64.0 L 791.5 67.5 L 790.9 67.5 L 790.9 63.2 L 791.6 63.2 " fill="#0000FF"/>
<path class="atom-16" d="M 794.7 63.2 L 795.2 63.2 L 795.2 65.0 L 797.4 65.0 L 797.4 63.2 L 798.0 63.2 L 798.0 67.5 L 797.4 67.5 L 797.4 65.5 L 795.2 65.5 L 795.2 67.5 L 794.7 67.5 L 794.7 63.2 " fill="#0000FF"/>
<path class="atom-17" d="M 788.7 57.6 Q 788.7 56.5, 789.1 56.0 Q 789.6 55.4, 790.6 55.4 Q 791.5 55.4, 791.9 56.0 L 791.5 56.3 Q 791.2 55.9, 790.6 55.9 Q 789.9 55.9, 789.6 56.3 Q 789.3 56.8, 789.3 57.6 Q 789.3 58.4, 789.6 58.8 Q 790.0 59.3, 790.7 59.3 Q 791.1 59.3, 791.7 59.0 L 791.8 59.4 Q 791.6 59.6, 791.3 59.7 Q 790.9 59.8, 790.6 59.8 Q 789.6 59.8, 789.1 59.2 Q 788.7 58.6, 788.7 57.6 " fill="#000000"/>
<path class="atom-18" d="M 785.5 50.1 Q 785.5 49.0, 786.0 48.5 Q 786.5 47.9, 787.4 47.9 Q 788.3 47.9, 788.8 48.5 L 788.4 48.9 Q 788.0 48.4, 787.4 48.4 Q 786.8 48.4, 786.4 48.8 Q 786.1 49.3, 786.1 50.1 Q 786.1 50.9, 786.4 51.4 Q 786.8 51.8, 787.5 51.8 Q 788.0 51.8, 788.5 51.5 L 788.7 52.0 Q 788.4 52.1, 788.1 52.2 Q 787.8 52.3, 787.4 52.3 Q 786.5 52.3, 786.0 51.7 Q 785.5 51.1, 785.5 50.1 " fill="#000000"/>
<path class="atom-19" d="M 781.4 43.0 Q 781.4 42.0, 781.9 41.4 Q 782.4 40.9, 783.4 40.9 Q 784.3 40.9, 784.7 41.5 L 784.3 41.8 Q 784.0 41.4, 783.4 41.4 Q 782.7 41.4, 782.4 41.8 Q 782.1 42.2, 782.1 43.0 Q 782.1 43.9, 782.4 44.3 Q 782.8 44.7, 783.4 44.7 Q 783.9 44.7, 784.5 44.5 L 784.6 44.9 Q 784.4 45.1, 784.1 45.1 Q 783.7 45.2, 783.4 45.2 Q 782.4 45.2, 781.9 44.7 Q 781.4 44.1, 781.4 43.0 " fill="#000000"/>
<path class="atom-20" d="M 776.6 36.5 Q 776.6 35.5, 777.1 34.9 Q 777.6 34.4, 778.5 34.4 Q 779.4 34.4, 779.9 35.0 L 779.5 35.3 Q 779.1 34.9, 778.5 34.9 Q 777.9 34.9, 777.5 35.3 Q 777.2 35.7, 777.2 36.5 Q 777.2 37.4, 777.5 37.8 Q 777.9 38.2, 778.6 38.2 Q 779.0 38.2, 779.6 38.0 L 779.8 38.4 Q 779.5 38.6, 779.2 38.6 Q 778.9 38.7, 778.5 38.7 Q 777.6 38.7, 777.1 38.2 Q 776.6 37.6, 776.6 36.5 " fill="#000000"/>
<path class="atom-21" d="M 771.7 28.5 L 773.1 30.8 Q 773.2 31.0, 773.4 31.4 Q 773.6 31.8, 773.6 31.8 L 773.6 28.5 L 774.2 28.5 L 774.2 32.8 L 773.6 32.8 L 772.1 30.3 Q 772.0 30.0, 771.8 29.7 Q 771.6 29.4, 771.5 29.3 L 771.5 32.8 L 771.0 32.8 L 771.0 28.5 L 771.7 28.5 " fill="#0000FF"/>
<path class="atom-21" d="M 774.7 28.5 L 775.3 28.5 L 775.3 30.3 L 777.5 30.3 L 777.5 28.5 L 778.0 28.5 L 778.0 32.8 L 777.5 32.8 L 777.5 30.8 L 775.3 30.8 L 775.3 32.8 L 774.7 32.8 L 774.7 28.5 " fill="#0000FF"/>
<path class="atom-22" d="M 764.7 25.5 Q 764.7 24.5, 765.2 23.9 Q 765.7 23.4, 766.6 23.4 Q 767.5 23.4, 768.0 24.0 L 767.6 24.3 Q 767.2 23.8, 766.6 23.8 Q 766.0 23.8, 765.6 24.3 Q 765.3 24.7, 765.3 25.5 Q 765.3 26.4, 765.6 26.8 Q 766.0 27.2, 766.7 27.2 Q 767.1 27.2, 767.7 26.9 L 767.9 27.4 Q 767.6 27.5, 767.3 27.6 Q 767.0 27.7, 766.6 27.7 Q 765.7 27.7, 765.2 27.1 Q 764.7 26.6, 764.7 25.5 " fill="#000000"/>
<path class="atom-23" d="M 757.8 21.2 Q 757.8 20.1, 758.3 19.6 Q 758.8 19.0, 759.8 19.0 Q 760.6 19.0, 761.1 19.6 L 760.7 19.9 Q 760.4 19.5, 759.8 19.5 Q 759.1 19.5, 758.8 19.9 Q 758.4 20.3, 758.4 21.2 Q 758.4 22.0, 758.8 22.4 Q 759.1 22.9, 759.8 22.9 Q 760.3 22.9, 760.8 22.6 L 761.0 23.0 Q 760.8 23.2, 760.4 23.3 Q 760.1 23.3, 759.7 23.3 Q 758.8 23.3, 758.3 22.8 Q 757.8 22.2, 757.8 21.2 " fill="#000000"/>
<path class="atom-24" d="M 750.5 17.7 Q 750.5 16.6, 751.0 16.1 Q 751.5 15.5, 752.4 15.5 Q 753.3 15.5, 753.8 16.1 L 753.4 16.4 Q 753.0 16.0, 752.4 16.0 Q 751.8 16.0, 751.4 16.4 Q 751.1 16.8, 751.1 17.7 Q 751.1 18.5, 751.5 18.9 Q 751.8 19.4, 752.5 19.4 Q 753.0 19.4, 753.5 19.1 L 753.7 19.5 Q 753.4 19.7, 753.1 19.8 Q 752.8 19.8, 752.4 19.8 Q 751.5 19.8, 751.0 19.3 Q 750.5 18.7, 750.5 17.7 " fill="#000000"/>
<path class="atom-25" d="M 742.8 15.1 Q 742.8 14.0, 743.3 13.5 Q 743.8 12.9, 744.7 12.9 Q 745.6 12.9, 746.1 13.5 L 745.7 13.9 Q 745.3 13.4, 744.7 13.4 Q 744.1 13.4, 743.7 13.8 Q 743.4 14.3, 743.4 15.1 Q 743.4 15.9, 743.8 16.3 Q 744.1 16.8, 744.8 16.8 Q 745.3 16.8, 745.8 16.5 L 746.0 16.9 Q 745.7 17.1, 745.4 17.2 Q 745.1 17.3, 744.7 17.3 Q 743.8 17.3, 743.3 16.7 Q 742.8 16.1, 742.8 15.1 " fill="#000000"/>
<path class="atom-26" d="M 735.5 11.3 L 736.9 13.5 Q 737.1 13.8, 737.3 14.2 Q 737.5 14.6, 737.5 14.6 L 737.5 11.3 L 738.1 11.3 L 738.1 15.5 L 737.5 15.5 L 736.0 13.1 Q 735.8 12.8, 735.6 12.5 Q 735.5 12.1, 735.4 12.0 L 735.4 15.5 L 734.9 15.5 L 734.9 11.3 L 735.5 11.3 " fill="#0000FF"/>
<path class="atom-26" d="M 734.8 6.6 L 735.4 6.6 L 735.4 8.4 L 737.6 8.4 L 737.6 6.6 L 738.1 6.6 L 738.1 10.9 L 737.6 10.9 L 737.6 8.9 L 735.4 8.9 L 735.4 10.9 L 734.8 10.9 L 734.8 6.6 " fill="#0000FF"/>
<path class="atom-27" d="M 726.7 12.8 Q 726.7 11.7, 727.2 11.2 Q 727.7 10.6, 728.7 10.6 Q 729.5 10.6, 730.0 11.2 L 729.6 11.5 Q 729.3 11.1, 728.7 11.1 Q 728.0 11.1, 727.7 11.5 Q 727.4 11.9, 727.4 12.8 Q 727.4 13.6, 727.7 14.0 Q 728.1 14.5, 728.7 14.5 Q 729.2 14.5, 729.8 14.2 L 729.9 14.6 Q 729.7 14.8, 729.4 14.9 Q 729.0 14.9, 728.7 14.9 Q 727.7 14.9, 727.2 14.4 Q 726.7 13.8, 726.7 12.8 " fill="#000000"/>
<path class="atom-28" d="M 718.6 13.1 Q 718.6 12.0, 719.1 11.5 Q 719.6 10.9, 720.6 10.9 Q 721.4 10.9, 721.9 11.5 L 721.5 11.8 Q 721.2 11.4, 720.6 11.4 Q 719.9 11.4, 719.6 11.8 Q 719.2 12.3, 719.2 13.1 Q 719.2 13.9, 719.6 14.3 Q 719.9 14.8, 720.6 14.8 Q 721.1 14.8, 721.6 14.5 L 721.8 14.9 Q 721.6 15.1, 721.2 15.2 Q 720.9 15.3, 720.5 15.3 Q 719.6 15.3, 719.1 14.7 Q 718.6 14.1, 718.6 13.1 " fill="#000000"/>
<path class="atom-29" d="M 710.6 14.4 Q 710.6 13.3, 711.1 12.8 Q 711.6 12.2, 712.5 12.2 Q 713.4 12.2, 713.9 12.8 L 713.5 13.1 Q 713.1 12.7, 712.5 12.7 Q 711.9 12.7, 711.5 13.1 Q 711.2 13.5, 711.2 14.4 Q 711.2 15.2, 711.6 15.6 Q 711.9 16.1, 712.6 16.1 Q 713.1 16.1, 713.6 15.8 L 713.8 16.2 Q 713.6 16.4, 713.2 16.5 Q 712.9 16.5, 712.5 16.5 Q 711.6 16.5, 711.1 16.0 Q 710.6 15.4, 710.6 14.4 " fill="#000000"/>
<path class="atom-30" d="M 702.8 16.6 Q 702.8 15.5, 703.3 15.0 Q 703.8 14.4, 704.7 14.4 Q 705.6 14.4, 706.1 15.1 L 705.7 15.4 Q 705.3 14.9, 704.7 14.9 Q 704.1 14.9, 703.7 15.4 Q 703.4 15.8, 703.4 16.6 Q 703.4 17.4, 703.8 17.9 Q 704.1 18.3, 704.8 18.3 Q 705.3 18.3, 705.8 18.0 L 706.0 18.5 Q 705.8 18.6, 705.4 18.7 Q 705.1 18.8, 704.7 18.8 Q 703.8 18.8, 703.3 18.2 Q 702.8 17.7, 702.8 16.6 " fill="#000000"/>
<path class="atom-31" d="M 691.5 17.6 L 692.1 17.6 L 692.1 19.4 L 694.3 19.4 L 694.3 17.6 L 694.8 17.6 L 694.8 21.9 L 694.3 21.9 L 694.3 19.9 L 692.1 19.9 L 692.1 21.9 L 691.5 21.9 L 691.5 17.6 " fill="#0000FF"/>
<path class="atom-31" d="M 696.0 17.6 L 697.4 19.9 Q 697.5 20.1, 697.8 20.5 Q 698.0 20.9, 698.0 20.9 L 698.0 17.6 L 698.6 17.6 L 698.6 21.9 L 698.0 21.9 L 696.5 19.4 Q 696.3 19.1, 696.1 18.8 Q 695.9 18.5, 695.9 18.4 L 695.9 21.9 L 695.3 21.9 L 695.3 17.6 L 696.0 17.6 " fill="#0000FF"/>
<path class="atom-32" d="M 688.3 23.8 Q 688.3 22.8, 688.8 22.2 Q 689.3 21.7, 690.2 21.7 Q 691.1 21.7, 691.5 22.3 L 691.1 22.6 Q 690.8 22.1, 690.2 22.1 Q 689.6 22.1, 689.2 22.6 Q 688.9 23.0, 688.9 23.8 Q 688.9 24.7, 689.2 25.1 Q 689.6 25.5, 690.3 25.5 Q 690.7 25.5, 691.3 25.2 L 691.4 25.7 Q 691.2 25.8, 690.9 25.9 Q 690.6 26.0, 690.2 26.0 Q 689.3 26.0, 688.8 25.4 Q 688.3 24.9, 688.3 23.8 " fill="#000000"/>
<path class="atom-33" d="M 681.8 28.7 Q 681.8 27.6, 682.3 27.1 Q 682.8 26.5, 683.7 26.5 Q 684.6 26.5, 685.0 27.1 L 684.6 27.5 Q 684.3 27.0, 683.7 27.0 Q 683.1 27.0, 682.7 27.4 Q 682.4 27.9, 682.4 28.7 Q 682.4 29.5, 682.7 30.0 Q 683.1 30.4, 683.8 30.4 Q 684.2 30.4, 684.8 30.1 L 684.9 30.6 Q 684.7 30.7, 684.4 30.8 Q 684.0 30.9, 683.7 30.9 Q 682.8 30.9, 682.3 30.3 Q 681.8 29.7, 681.8 28.7 " fill="#000000"/>
<path class="atom-34" d="M 675.9 34.3 Q 675.9 33.2, 676.4 32.7 Q 676.9 32.1, 677.8 32.1 Q 678.7 32.1, 679.2 32.8 L 678.8 33.1 Q 678.4 32.6, 677.8 32.6 Q 677.2 32.6, 676.8 33.1 Q 676.5 33.5, 676.5 34.3 Q 676.5 35.1, 676.9 35.6 Q 677.2 36.0, 677.9 36.0 Q 678.4 36.0, 678.9 35.7 L 679.1 36.2 Q 678.9 36.3, 678.5 36.4 Q 678.2 36.5, 677.8 36.5 Q 676.9 36.5, 676.4 35.9 Q 675.9 35.4, 675.9 34.3 " fill="#000000"/>
<path class="atom-35" d="M 670.7 40.6 Q 670.7 39.5, 671.2 39.0 Q 671.7 38.4, 672.7 38.4 Q 673.5 38.4, 674.0 39.0 L 673.6 39.4 Q 673.3 38.9, 672.7 38.9 Q 672.0 38.9, 671.7 39.3 Q 671.4 39.8, 671.4 40.6 Q 671.4 41.4, 671.7 41.9 Q 672.1 42.3, 672.7 42.3 Q 673.2 42.3, 673.8 42.0 L 673.9 42.5 Q 673.7 42.6, 673.4 42.7 Q 673.0 42.8, 672.7 42.8 Q 671.7 42.8, 671.2 42.2 Q 670.7 41.6, 670.7 40.6 " fill="#000000"/>
<path class="atom-36" d="M 662.6 45.3 L 663.2 45.3 L 663.2 47.1 L 665.3 47.1 L 665.3 45.3 L 665.9 45.3 L 665.9 49.5 L 665.3 49.5 L 665.3 47.6 L 663.2 47.6 L 663.2 49.5 L 662.6 49.5 L 662.6 45.3 " fill="#0000FF"/>
<path class="atom-36" d="M 667.1 45.3 L 668.5 47.5 Q 668.6 47.8, 668.8 48.2 Q 669.1 48.6, 669.1 48.6 L 669.1 45.3 L 669.6 45.3 L 669.6 49.5 L 669.1 49.5 L 667.6 47.1 Q 667.4 46.8, 667.2 46.5 Q 667.0 46.1, 667.0 46.0 L 667.0 49.5 L 666.4 49.5 L 666.4 45.3 L 667.1 45.3 " fill="#0000FF"/>
<path class="atom-37" d="M 662.9 54.8 Q 662.9 53.7, 663.4 53.2 Q 663.9 52.6, 664.8 52.6 Q 665.7 52.6, 666.2 53.2 L 665.8 53.5 Q 665.4 53.1, 664.8 53.1 Q 664.2 53.1, 663.8 53.5 Q 663.5 54.0, 663.5 54.8 Q 663.5 55.6, 663.8 56.0 Q 664.2 56.5, 664.9 56.5 Q 665.4 56.5, 665.9 56.2 L 666.1 56.6 Q 665.8 56.8, 665.5 56.9 Q 665.2 57.0, 664.8 57.0 Q 663.9 57.0, 663.4 56.4 Q 662.9 55.8, 662.9 54.8 " fill="#000000"/>
<path class="atom-38" d="M 660.3 62.5 Q 660.3 61.4, 660.8 60.9 Q 661.3 60.3, 662.2 60.3 Q 663.1 60.3, 663.6 60.9 L 663.2 61.2 Q 662.8 60.8, 662.2 60.8 Q 661.6 60.8, 661.2 61.2 Q 660.9 61.7, 660.9 62.5 Q 660.9 63.3, 661.3 63.7 Q 661.6 64.2, 662.3 64.2 Q 662.8 64.2, 663.3 63.9 L 663.5 64.3 Q 663.3 64.5, 662.9 64.6 Q 662.6 64.7, 662.2 64.7 Q 661.3 64.7, 660.8 64.1 Q 660.3 63.5, 660.3 62.5 " fill="#000000"/>
<path class="atom-39" d="M 658.7 70.4 Q 658.7 69.4, 659.1 68.8 Q 659.6 68.3, 660.6 68.3 Q 661.5 68.3, 661.9 68.9 L 661.5 69.2 Q 661.2 68.8, 660.6 68.8 Q 659.9 68.8, 659.6 69.2 Q 659.3 69.6, 659.3 70.4 Q 659.3 71.3, 659.6 71.7 Q 660.0 72.1, 660.7 72.1 Q 661.1 72.1, 661.7 71.8 L 661.8 72.3 Q 661.6 72.4, 661.3 72.5 Q 660.9 72.6, 660.6 72.6 Q 659.6 72.6, 659.1 72.0 Q 658.7 71.5, 658.7 70.4 " fill="#000000"/>
<path class="atom-40" d="M 658.0 78.5 Q 658.0 77.5, 658.5 76.9 Q 659.0 76.4, 659.9 76.4 Q 660.8 76.4, 661.3 77.0 L 660.9 77.3 Q 660.5 76.8, 659.9 76.8 Q 659.3 76.8, 658.9 77.3 Q 658.6 77.7, 658.6 78.5 Q 658.6 79.4, 658.9 79.8 Q 659.3 80.2, 660.0 80.2 Q 660.5 80.2, 661.0 79.9 L 661.2 80.4 Q 660.9 80.5, 660.6 80.6 Q 660.3 80.7, 659.9 80.7 Q 659.0 80.7, 658.5 80.1 Q 658.0 79.6, 658.0 78.5 " fill="#000000"/>
<path class="atom-41" d="M 658.3 86.6 Q 658.3 85.6, 658.8 85.0 Q 659.3 84.5, 660.2 84.5 Q 661.1 84.5, 661.6 85.1 L 661.2 85.4 Q 660.8 85.0, 660.2 85.0 Q 659.6 85.0, 659.2 85.4 Q 658.9 85.8, 658.9 86.6 Q 658.9 87.5, 659.3 87.9 Q 659.6 88.3, 660.3 88.3 Q 660.8 88.3, 661.3 88.1 L 661.5 88.5 Q 661.3 88.7, 660.9 88.7 Q 660.6 88.8, 660.2 88.8 Q 659.3 88.8, 658.8 88.3 Q 658.3 87.7, 658.3 86.6 " fill="#000000"/>
<path class="atom-42" d="M 655.8 92.5 L 656.4 92.5 L 656.4 94.3 L 658.5 94.3 L 658.5 92.5 L 659.1 92.5 L 659.1 96.8 L 658.5 96.8 L 658.5 94.8 L 656.4 94.8 L 656.4 96.8 L 655.8 96.8 L 655.8 92.5 " fill="#0000FF"/>
<path class="atom-42" d="M 660.3 92.5 L 661.7 94.8 Q 661.8 95.0, 662.0 95.4 Q 662.3 95.8, 662.3 95.8 L 662.3 92.5 L 662.8 92.5 L 662.8 96.8 L 662.2 96.8 L 660.8 94.3 Q 660.6 94.0, 660.4 93.7 Q 660.2 93.4, 660.2 93.3 L 660.2 96.8 L 659.6 96.8 L 659.6 92.5 L 660.3 92.5 " fill="#0000FF"/>
<path class="atom-43" d="M 661.8 102.5 Q 661.8 101.4, 662.3 100.9 Q 662.8 100.3, 663.8 100.3 Q 664.6 100.3, 665.1 100.9 L 664.7 101.2 Q 664.4 100.8, 663.8 100.8 Q 663.1 100.8, 662.8 101.2 Q 662.4 101.7, 662.4 102.5 Q 662.4 103.3, 662.8 103.7 Q 663.1 104.2, 663.8 104.2 Q 664.3 104.2, 664.8 103.9 L 665.0 104.3 Q 664.8 104.5, 664.4 104.6 Q 664.1 104.7, 663.7 104.7 Q 662.8 104.7, 662.3 104.1 Q 661.8 103.5, 661.8 102.5 " fill="#000000"/>
<path class="atom-44" d="M 665.0 109.9 Q 665.0 108.9, 665.5 108.3 Q 666.0 107.8, 666.9 107.8 Q 667.8 107.8, 668.3 108.4 L 667.9 108.7 Q 667.5 108.3, 666.9 108.3 Q 666.3 108.3, 665.9 108.7 Q 665.6 109.1, 665.6 109.9 Q 665.6 110.8, 666.0 111.2 Q 666.3 111.7, 667.0 111.7 Q 667.5 111.7, 668.0 111.4 L 668.2 111.8 Q 668.0 112.0, 667.6 112.0 Q 667.3 112.1, 666.9 112.1 Q 666.0 112.1, 665.5 111.6 Q 665.0 111.0, 665.0 109.9 " fill="#000000"/>
<path class="atom-45" d="M 669.0 117.0 Q 669.0 115.9, 669.5 115.4 Q 670.0 114.8, 671.0 114.8 Q 671.8 114.8, 672.3 115.4 L 671.9 115.8 Q 671.6 115.3, 671.0 115.3 Q 670.3 115.3, 670.0 115.7 Q 669.7 116.2, 669.7 117.0 Q 669.7 117.8, 670.0 118.3 Q 670.4 118.7, 671.0 118.7 Q 671.5 118.7, 672.1 118.4 L 672.2 118.9 Q 672.0 119.0, 671.7 119.1 Q 671.3 119.2, 671.0 119.2 Q 670.0 119.2, 669.5 118.6 Q 669.0 118.0, 669.0 117.0 " fill="#000000"/>
<path class="atom-46" d="M 673.9 123.5 Q 673.9 122.4, 674.4 121.9 Q 674.9 121.3, 675.8 121.3 Q 676.7 121.3, 677.2 121.9 L 676.8 122.3 Q 676.4 121.8, 675.8 121.8 Q 675.2 121.8, 674.9 122.3 Q 674.5 122.7, 674.5 123.5 Q 674.5 124.3, 674.9 124.8 Q 675.2 125.2, 675.9 125.2 Q 676.4 125.2, 676.9 124.9 L 677.1 125.4 Q 676.9 125.5, 676.5 125.6 Q 676.2 125.7, 675.8 125.7 Q 674.9 125.7, 674.4 125.1 Q 673.9 124.6, 673.9 123.5 " fill="#000000"/>
<path class="atom-47" d="M 675.7 127.2 L 676.3 127.2 L 676.3 129.0 L 678.5 129.0 L 678.5 127.2 L 679.1 127.2 L 679.1 131.5 L 678.5 131.5 L 678.5 129.5 L 676.3 129.5 L 676.3 131.5 L 675.7 131.5 L 675.7 127.2 " fill="#0000FF"/>
<path class="atom-47" d="M 680.2 127.2 L 681.6 129.5 Q 681.8 129.7, 682.0 130.1 Q 682.2 130.5, 682.2 130.5 L 682.2 127.2 L 682.8 127.2 L 682.8 131.5 L 682.2 131.5 L 680.7 129.0 Q 680.5 128.7, 680.3 128.4 Q 680.2 128.1, 680.1 128.0 L 680.1 131.5 L 679.5 131.5 L 679.5 127.2 L 680.2 127.2 " fill="#0000FF"/>
<path class="atom-48" d="M 685.8 134.5 Q 685.8 133.5, 686.3 132.9 Q 686.8 132.4, 687.7 132.4 Q 688.6 132.4, 689.1 133.0 L 688.7 133.3 Q 688.3 132.8, 687.7 132.8 Q 687.1 132.8, 686.8 133.3 Q 686.4 133.7, 686.4 134.5 Q 686.4 135.4, 686.8 135.8 Q 687.1 136.2, 687.8 136.2 Q 688.3 136.2, 688.8 135.9 L 689.0 136.4 Q 688.8 136.5, 688.4 136.6 Q 688.1 136.7, 687.7 136.7 Q 686.8 136.7, 686.3 136.1 Q 685.8 135.6, 685.8 134.5 " fill="#000000"/>
<path class="atom-49" d="M 692.7 138.9 Q 692.7 137.8, 693.2 137.3 Q 693.6 136.7, 694.6 136.7 Q 695.5 136.7, 695.9 137.3 L 695.5 137.6 Q 695.2 137.2, 694.6 137.2 Q 693.9 137.2, 693.6 137.6 Q 693.3 138.1, 693.3 138.9 Q 693.3 139.7, 693.6 140.1 Q 694.0 140.6, 694.7 140.6 Q 695.1 140.6, 695.7 140.3 L 695.8 140.7 Q 695.6 140.9, 695.3 141.0 Q 694.9 141.1, 694.6 141.1 Q 693.6 141.1, 693.2 140.5 Q 692.7 139.9, 692.7 138.9 " fill="#000000"/>
<path class="atom-50" d="M 700.0 142.4 Q 700.0 141.3, 700.5 140.8 Q 701.0 140.2, 701.9 140.2 Q 702.8 140.2, 703.3 140.8 L 702.9 141.1 Q 702.5 140.7, 701.9 140.7 Q 701.3 140.7, 700.9 141.1 Q 700.6 141.6, 700.6 142.4 Q 700.6 143.2, 701.0 143.6 Q 701.3 144.1, 702.0 144.1 Q 702.5 144.1, 703.0 143.8 L 703.2 144.2 Q 702.9 144.4, 702.6 144.5 Q 702.3 144.6, 701.9 144.6 Q 701.0 144.6, 700.5 144.0 Q 700.0 143.4, 700.0 142.4 " fill="#000000"/>
<path class="atom-51" d="M 707.7 145.0 Q 707.7 143.9, 708.2 143.4 Q 708.7 142.8, 709.6 142.8 Q 710.5 142.8, 711.0 143.4 L 710.6 143.7 Q 710.2 143.3, 709.6 143.3 Q 709.0 143.3, 708.6 143.7 Q 708.3 144.1, 708.3 145.0 Q 708.3 145.8, 708.7 146.2 Q 709.0 146.7, 709.7 146.7 Q 710.2 146.7, 710.7 146.4 L 710.9 146.8 Q 710.6 147.0, 710.3 147.1 Q 710.0 147.1, 709.6 147.1 Q 708.7 147.1, 708.2 146.6 Q 707.7 146.0, 707.7 145.0 " fill="#000000"/>
<path class="atom-52" d="M 716.3 144.5 L 717.7 146.7 Q 717.9 146.9, 718.1 147.3 Q 718.3 147.7, 718.3 147.8 L 718.3 144.5 L 718.9 144.5 L 718.9 148.7 L 718.3 148.7 L 716.8 146.2 Q 716.6 146.0, 716.5 145.6 Q 716.3 145.3, 716.2 145.2 L 716.2 148.7 L 715.7 148.7 L 715.7 144.5 L 716.3 144.5 " fill="#0000FF"/>
<path class="atom-52" d="M 715.6 149.1 L 716.2 149.1 L 716.2 150.9 L 718.4 150.9 L 718.4 149.1 L 718.9 149.1 L 718.9 153.4 L 718.4 153.4 L 718.4 151.4 L 716.2 151.4 L 716.2 153.4 L 715.6 153.4 L 715.6 149.1 " fill="#0000FF"/>
<path class="atom-53" d="M 723.7 147.3 Q 723.7 146.2, 724.2 145.7 Q 724.7 145.1, 725.7 145.1 Q 726.6 145.1, 727.0 145.7 L 726.6 146.0 Q 726.3 145.6, 725.7 145.6 Q 725.0 145.6, 724.7 146.0 Q 724.4 146.5, 724.4 147.3 Q 724.4 148.1, 724.7 148.5 Q 725.1 149.0, 725.7 149.0 Q 726.2 149.0, 726.8 148.7 L 726.9 149.1 Q 726.7 149.3, 726.4 149.4 Q 726.0 149.5, 725.7 149.5 Q 724.7 149.5, 724.2 148.9 Q 723.7 148.3, 723.7 147.3 " fill="#000000"/>
<path class="atom-54" d="M 731.9 147.0 Q 731.9 145.9, 732.4 145.4 Q 732.9 144.8, 733.8 144.8 Q 734.7 144.8, 735.1 145.4 L 734.7 145.7 Q 734.4 145.3, 733.8 145.3 Q 733.2 145.3, 732.8 145.7 Q 732.5 146.1, 732.5 147.0 Q 732.5 147.8, 732.8 148.2 Q 733.2 148.7, 733.9 148.7 Q 734.3 148.7, 734.9 148.4 L 735.0 148.8 Q 734.8 149.0, 734.5 149.1 Q 734.1 149.1, 733.8 149.1 Q 732.9 149.1, 732.4 148.6 Q 731.9 148.0, 731.9 147.0 " fill="#000000"/>
<path class="atom-55" d="M 739.9 145.7 Q 739.9 144.6, 740.4 144.1 Q 740.9 143.5, 741.8 143.5 Q 742.7 143.5, 743.2 144.1 L 742.8 144.5 Q 742.4 144.0, 741.8 144.0 Q 741.2 144.0, 740.8 144.4 Q 740.5 144.9, 740.5 145.7 Q 740.5 146.5, 740.8 146.9 Q 741.2 147.4, 741.9 147.4 Q 742.3 147.4, 742.9 147.1 L 743.1 147.5 Q 742.8 147.7, 742.5 147.8 Q 742.2 147.9, 741.8 147.9 Q 740.9 147.9, 740.4 147.3 Q 739.9 146.7, 739.9 145.7 " fill="#000000"/>
<path class="atom-56" d="M 747.7 143.4 Q 747.7 142.4, 748.2 141.8 Q 748.7 141.3, 749.6 141.3 Q 750.5 141.3, 751.0 141.9 L 750.6 142.2 Q 750.2 141.8, 749.6 141.8 Q 749.0 141.8, 748.6 142.2 Q 748.3 142.6, 748.3 143.4 Q 748.3 144.3, 748.6 144.7 Q 749.0 145.1, 749.7 145.1 Q 750.2 145.1, 750.7 144.9 L 750.9 145.3 Q 750.6 145.5, 750.3 145.5 Q 750.0 145.6, 749.6 145.6 Q 748.7 145.6, 748.2 145.1 Q 747.7 144.5, 747.7 143.4 " fill="#000000"/>
<path class="atom-57" d="M 755.9 138.1 L 757.3 140.4 Q 757.4 140.6, 757.6 141.0 Q 757.8 141.4, 757.9 141.4 L 757.9 138.1 L 758.4 138.1 L 758.4 142.4 L 757.8 142.4 L 756.3 139.9 Q 756.2 139.6, 756.0 139.3 Q 755.8 139.0, 755.7 138.9 L 755.7 142.4 L 755.2 142.4 L 755.2 138.1 L 755.9 138.1 " fill="#0000FF"/>
<path class="atom-57" d="M 758.9 138.1 L 759.5 138.1 L 759.5 139.9 L 761.7 139.9 L 761.7 138.1 L 762.3 138.1 L 762.3 142.4 L 761.7 142.4 L 761.7 140.4 L 759.5 140.4 L 759.5 142.4 L 758.9 142.4 L 758.9 138.1 " fill="#0000FF"/>
<path class="atom-58" d="M 762.2 136.2 Q 762.2 135.2, 762.7 134.6 Q 763.2 134.1, 764.1 134.1 Q 765.0 134.1, 765.5 134.7 L 765.1 135.0 Q 764.8 134.5, 764.1 134.5 Q 763.5 134.5, 763.2 135.0 Q 762.8 135.4, 762.8 136.2 Q 762.8 137.1, 763.2 137.5 Q 763.5 137.9, 764.2 137.9 Q 764.7 137.9, 765.2 137.6 L 765.4 138.1 Q 765.2 138.2, 764.8 138.3 Q 764.5 138.4, 764.1 138.4 Q 763.2 138.4, 762.7 137.8 Q 762.2 137.3, 762.2 136.2 " fill="#000000"/>
<path class="atom-59" d="M 768.7 131.4 Q 768.7 130.3, 769.2 129.7 Q 769.7 129.2, 770.7 129.2 Q 771.5 129.2, 772.0 129.8 L 771.6 130.1 Q 771.3 129.7, 770.7 129.7 Q 770.0 129.7, 769.7 130.1 Q 769.3 130.5, 769.3 131.4 Q 769.3 132.2, 769.7 132.6 Q 770.0 133.1, 770.7 133.1 Q 771.2 133.1, 771.7 132.8 L 771.9 133.2 Q 771.7 133.4, 771.3 133.5 Q 771.0 133.5, 770.6 133.5 Q 769.7 133.5, 769.2 133.0 Q 768.7 132.4, 768.7 131.4 " fill="#000000"/>
<path class="atom-60" d="M 774.6 125.7 Q 774.6 124.7, 775.1 124.1 Q 775.6 123.6, 776.5 123.6 Q 777.4 123.6, 777.9 124.2 L 777.5 124.5 Q 777.1 124.1, 776.5 124.1 Q 775.9 124.1, 775.5 124.5 Q 775.2 124.9, 775.2 125.7 Q 775.2 126.6, 775.5 127.0 Q 775.9 127.4, 776.6 127.4 Q 777.1 127.4, 777.6 127.2 L 777.8 127.6 Q 777.5 127.8, 777.2 127.8 Q 776.9 127.9, 776.5 127.9 Q 775.6 127.9, 775.1 127.4 Q 774.6 126.8, 774.6 125.7 " fill="#000000"/>
<path class="atom-61" d="M 779.7 119.5 Q 779.7 118.4, 780.2 117.8 Q 780.7 117.3, 781.7 117.3 Q 782.5 117.3, 783.0 117.9 L 782.6 118.2 Q 782.3 117.8, 781.7 117.8 Q 781.0 117.8, 780.7 118.2 Q 780.4 118.6, 780.4 119.5 Q 780.4 120.3, 780.7 120.7 Q 781.1 121.2, 781.7 121.2 Q 782.2 121.2, 782.8 120.9 L 782.9 121.3 Q 782.7 121.5, 782.4 121.6 Q 782.0 121.6, 781.7 121.6 Q 780.7 121.6, 780.2 121.1 Q 779.7 120.5, 779.7 119.5 " fill="#000000"/>
<path class="atom-62" d="M 784.8 110.5 L 786.2 112.7 Q 786.3 112.9, 786.5 113.3 Q 786.8 113.7, 786.8 113.8 L 786.8 110.5 L 787.3 110.5 L 787.3 114.7 L 786.8 114.7 L 785.3 112.2 Q 785.1 112.0, 784.9 111.6 Q 784.7 111.3, 784.7 111.2 L 784.7 114.7 L 784.1 114.7 L 784.1 110.5 L 784.8 110.5 " fill="#0000FF"/>
<path class="atom-62" d="M 787.9 110.5 L 788.4 110.5 L 788.4 112.3 L 790.6 112.3 L 790.6 110.5 L 791.2 110.5 L 791.2 114.7 L 790.6 114.7 L 790.6 112.7 L 788.4 112.7 L 788.4 114.7 L 787.9 114.7 L 787.9 110.5 " fill="#0000FF"/>
<path class="atom-63" d="M 787.6 105.3 Q 787.6 104.2, 788.1 103.7 Q 788.6 103.1, 789.5 103.1 Q 790.4 103.1, 790.9 103.7 L 790.5 104.0 Q 790.1 103.6, 789.5 103.6 Q 788.9 103.6, 788.5 104.0 Q 788.2 104.5, 788.2 105.3 Q 788.2 106.1, 788.6 106.5 Q 788.9 107.0, 789.6 107.0 Q 790.1 107.0, 790.6 106.7 L 790.8 107.1 Q 790.6 107.3, 790.2 107.4 Q 789.9 107.5, 789.5 107.5 Q 788.6 107.5, 788.1 106.9 Q 787.6 106.3, 787.6 105.3 " fill="#000000"/>
<path class="atom-64" d="M 790.2 97.6 Q 790.2 96.5, 790.7 96.0 Q 791.2 95.4, 792.1 95.4 Q 793.0 95.4, 793.5 96.0 L 793.1 96.3 Q 792.7 95.9, 792.1 95.9 Q 791.5 95.9, 791.1 96.3 Q 790.8 96.8, 790.8 97.6 Q 790.8 98.4, 791.1 98.8 Q 791.5 99.3, 792.2 99.3 Q 792.6 99.3, 793.2 99.0 L 793.4 99.4 Q 793.1 99.6, 792.8 99.7 Q 792.5 99.8, 792.1 99.8 Q 791.2 99.8, 790.7 99.2 Q 790.2 98.6, 790.2 97.6 " fill="#000000"/>
<path class="atom-68" d="M 802.3 58.2 L 803.7 60.5 Q 803.8 60.7, 804.1 61.1 Q 804.3 61.5, 804.3 61.5 L 804.3 58.2 L 804.8 58.2 L 804.8 62.5 L 804.3 62.5 L 802.8 60.0 Q 802.6 59.7, 802.4 59.4 Q 802.2 59.1, 802.2 59.0 L 802.2 62.5 L 801.6 62.5 L 801.6 58.2 L 802.3 58.2 " fill="#0000FF"/>
<path class="atom-71" d="M 816.5 74.9 L 817.9 77.2 Q 818.0 77.4, 818.3 77.8 Q 818.5 78.2, 818.5 78.2 L 818.5 74.9 L 819.1 74.9 L 819.1 79.2 L 818.5 79.2 L 817.0 76.7 Q 816.8 76.4, 816.6 76.1 Q 816.4 75.8, 816.4 75.7 L 816.4 79.2 L 815.8 79.2 L 815.8 74.9 L 816.5 74.9 " fill="#0000FF"/>
</svg>