<svg xmlns="http://www.w3.org/2000/svg" xmlns:rdkit="http://www.rdkit.org/xml" xmlns:xlink="http://www.w3.org/1999/xlink" version="1.1" baseProfile="full" xml:space="preserve" width="900px" height="160px" viewBox="0 0 900 160">
<!-- END OF HEADER -->
<rect style="opacity:1.0;fill:#FFFFFF;stroke:none" width="900.0" height="160.0" x="0.0" y="0.0"> </rect>
<path class="bond-0 atom-0 atom-1" d="M 283.8,104.8 L 276.5,101.4" style="fill:none;fill-rule:evenodd;stroke:#000000;stroke-width:2.0px;stroke-linecap:butt;stroke-linejoin:miter;stroke-opacity:1"/>
<path class="bond-0 atom-0 atom-1" d="M 276.5,101.4 L 269.2,97.9" style="fill:none;fill-rule:evenodd;stroke:#0000FF;stroke-width:2.0px;stroke-linecap:butt;stroke-linejoin:miter;stroke-opacity:1"/>
<path class="bond-1 atom-1 atom-2" d="M 265.9,93.3 L 264.7,87.4" style="fill:none;fill-rule:evenodd;stroke:#0000FF;stroke-width:2.0px;stroke-linecap:butt;stroke-linejoin:miter;stroke-opacity:1"/>
<path class="bond-1 atom-1 atom-2" d="M 264.7,87.4 L 263.6,81.4" style="fill:none;fill-rule:evenodd;stroke:#CCCC00;stroke-width:2.0px;stroke-linecap:butt;stroke-linejoin:miter;stroke-opacity:1"/>
<path class="bond-2 atom-2 atom-3" d="M 260.6,77.6 L 253.6,76.8" style="fill:none;fill-rule:evenodd;stroke:#CCCC00;stroke-width:2.0px;stroke-linecap:butt;stroke-linejoin:miter;stroke-opacity:1"/>
<path class="bond-2 atom-2 atom-3" d="M 253.6,76.8 L 246.7,75.9" style="fill:none;fill-rule:evenodd;stroke:#0000FF;stroke-width:2.0px;stroke-linecap:butt;stroke-linejoin:miter;stroke-opacity:1"/>
<path class="bond-3 atom-3 atom-4" d="M 242.4,78.9 L 239.1,85.8" style="fill:none;fill-rule:evenodd;stroke:#0000FF;stroke-width:2.0px;stroke-linecap:butt;stroke-linejoin:miter;stroke-opacity:1"/>
<path class="bond-3 atom-3 atom-4" d="M 239.1,85.8 L 235.9,92.8" style="fill:none;fill-rule:evenodd;stroke:#000000;stroke-width:2.0px;stroke-linecap:butt;stroke-linejoin:miter;stroke-opacity:1"/>
<path class="bond-3 atom-3 atom-4" d="M 245.0,80.1 L 242.2,86.1" style="fill:none;fill-rule:evenodd;stroke:#0000FF;stroke-width:2.0px;stroke-linecap:butt;stroke-linejoin:miter;stroke-opacity:1"/>
<path class="bond-3 atom-3 atom-4" d="M 242.2,86.1 L 239.3,92.2" style="fill:none;fill-rule:evenodd;stroke:#000000;stroke-width:2.0px;stroke-linecap:butt;stroke-linejoin:miter;stroke-opacity:1"/>
<path class="bond-4 atom-4 atom-5" d="M 235.9,92.8 L 219.1,102.0" style="fill:none;fill-rule:evenodd;stroke:#000000;stroke-width:2.0px;stroke-linecap:butt;stroke-linejoin:miter;stroke-opacity:1"/>
<path class="bond-5 atom-5 atom-6" d="M 219.1,102.0 L 202.8,94.4" style="fill:none;fill-rule:evenodd;stroke:#000000;stroke-width:2.0px;stroke-linecap:butt;stroke-linejoin:miter;stroke-opacity:1"/>
<path class="bond-6 atom-6 atom-7" d="M 201.6,90.6 L 200.3,74.9" style="fill:none;fill-rule:evenodd;stroke:#000000;stroke-width:2.0px;stroke-linecap:butt;stroke-linejoin:miter;stroke-opacity:1"/>
<path class="bond-7 atom-7 atom-8" d="M 200.3,74.9 L 215.9,64.0" style="fill:none;fill-rule:evenodd;stroke:#000000;stroke-width:2.0px;stroke-linecap:butt;stroke-linejoin:miter;stroke-opacity:1"/>
<path class="bond-7 atom-7 atom-8" d="M 200.0,71.6 L 212.9,62.6" style="fill:none;fill-rule:evenodd;stroke:#000000;stroke-width:2.0px;stroke-linecap:butt;stroke-linejoin:miter;stroke-opacity:1"/>
<path class="bond-8 atom-8 atom-9" d="M 215.9,64.0 L 214.3,45.0" style="fill:none;fill-rule:evenodd;stroke:#000000;stroke-width:2.0px;stroke-linecap:butt;stroke-linejoin:miter;stroke-opacity:1"/>
<path class="bond-9 atom-9 atom-10" d="M 214.3,45.0 L 197.0,36.8" style="fill:none;fill-rule:evenodd;stroke:#000000;stroke-width:2.0px;stroke-linecap:butt;stroke-linejoin:miter;stroke-opacity:1"/>
<path class="bond-9 atom-9 atom-10" d="M 211.6,46.8 L 197.3,40.1" style="fill:none;fill-rule:evenodd;stroke:#000000;stroke-width:2.0px;stroke-linecap:butt;stroke-linejoin:miter;stroke-opacity:1"/>
<path class="bond-10 atom-10 atom-11" d="M 197.0,36.8 L 181.4,47.7" style="fill:none;fill-rule:evenodd;stroke:#000000;stroke-width:2.0px;stroke-linecap:butt;stroke-linejoin:miter;stroke-opacity:1"/>
<path class="bond-11 atom-11 atom-12" d="M 181.4,47.7 L 183.0,66.8" style="fill:none;fill-rule:evenodd;stroke:#000000;stroke-width:2.0px;stroke-linecap:butt;stroke-linejoin:miter;stroke-opacity:1"/>
<path class="bond-11 atom-11 atom-12" d="M 184.4,49.1 L 185.7,64.9" style="fill:none;fill-rule:evenodd;stroke:#000000;stroke-width:2.0px;stroke-linecap:butt;stroke-linejoin:miter;stroke-opacity:1"/>
<path class="bond-12 atom-12 atom-13" d="M 183.0,66.8 L 167.3,77.7" style="fill:none;fill-rule:evenodd;stroke:#000000;stroke-width:2.0px;stroke-linecap:butt;stroke-linejoin:miter;stroke-opacity:1"/>
<path class="bond-13 atom-13 atom-14" d="M 167.3,77.7 L 150.0,69.5" style="fill:none;fill-rule:evenodd;stroke:#000000;stroke-width:2.0px;stroke-linecap:butt;stroke-linejoin:miter;stroke-opacity:1"/>
<path class="bond-14 atom-14 atom-15" d="M 150.0,69.5 L 134.4,80.4" style="fill:none;fill-rule:evenodd;stroke:#000000;stroke-width:2.0px;stroke-linecap:butt;stroke-linejoin:miter;stroke-opacity:1"/>
<path class="bond-15 atom-15 atom-16" d="M 134.4,80.4 L 117.1,72.3" style="fill:none;fill-rule:evenodd;stroke:#000000;stroke-width:2.0px;stroke-linecap:butt;stroke-linejoin:miter;stroke-opacity:1"/>
<path class="bond-16 atom-16 atom-17" d="M 117.1,72.3 L 103.6,58.8" style="fill:none;fill-rule:evenodd;stroke:#000000;stroke-width:2.0px;stroke-linecap:butt;stroke-linejoin:miter;stroke-opacity:1"/>
<path class="bond-17 atom-16 atom-18" d="M 117.1,72.3 L 128.1,56.7" style="fill:none;fill-rule:evenodd;stroke:#000000;stroke-width:2.0px;stroke-linecap:butt;stroke-linejoin:miter;stroke-opacity:1"/>
<path class="bond-18 atom-16 atom-19" d="M 117.1,72.3 L 110.8,76.7" style="fill:none;fill-rule:evenodd;stroke:#000000;stroke-width:2.0px;stroke-linecap:butt;stroke-linejoin:miter;stroke-opacity:1"/>
<path class="bond-18 atom-16 atom-19" d="M 110.8,76.7 L 104.5,81.1" style="fill:none;fill-rule:evenodd;stroke:#FF0000;stroke-width:2.0px;stroke-linecap:butt;stroke-linejoin:miter;stroke-opacity:1"/>
<path class="bond-19 atom-19 atom-20" d="M 101.7,86.7 L 102.4,94.5" style="fill:none;fill-rule:evenodd;stroke:#FF0000;stroke-width:2.0px;stroke-linecap:butt;stroke-linejoin:miter;stroke-opacity:1"/>
<path class="bond-19 atom-19 atom-20" d="M 102.4,94.5 L 103.0,102.3" style="fill:none;fill-rule:evenodd;stroke:#000000;stroke-width:2.0px;stroke-linecap:butt;stroke-linejoin:miter;stroke-opacity:1"/>
<path class="bond-20 atom-20 atom-21" d="M 103.0,102.3 L 96.5,106.8" style="fill:none;fill-rule:evenodd;stroke:#000000;stroke-width:2.0px;stroke-linecap:butt;stroke-linejoin:miter;stroke-opacity:1"/>
<path class="bond-20 atom-20 atom-21" d="M 96.5,106.8 L 90.0,111.3" style="fill:none;fill-rule:evenodd;stroke:#0000FF;stroke-width:2.0px;stroke-linecap:butt;stroke-linejoin:miter;stroke-opacity:1"/>
<path class="bond-21 atom-21 atom-22" d="M 84.7,111.9 L 77.4,108.5" style="fill:none;fill-rule:evenodd;stroke:#0000FF;stroke-width:2.0px;stroke-linecap:butt;stroke-linejoin:miter;stroke-opacity:1"/>
<path class="bond-21 atom-21 atom-22" d="M 77.4,108.5 L 70.1,105.0" style="fill:none;fill-rule:evenodd;stroke:#000000;stroke-width:2.0px;stroke-linecap:butt;stroke-linejoin:miter;stroke-opacity:1"/>
<path class="bond-22 atom-22 atom-23" d="M 70.1,105.0 L 54.4,115.9" style="fill:none;fill-rule:evenodd;stroke:#000000;stroke-width:2.0px;stroke-linecap:butt;stroke-linejoin:miter;stroke-opacity:1"/>
<path class="bond-23 atom-23 atom-24" d="M 54.4,115.9 L 37.1,107.8" style="fill:none;fill-rule:evenodd;stroke:#000000;stroke-width:2.0px;stroke-linecap:butt;stroke-linejoin:miter;stroke-opacity:1"/>
<path class="bond-24 atom-24 atom-25" d="M 37.1,107.8 L 30.8,112.2" style="fill:none;fill-rule:evenodd;stroke:#000000;stroke-width:2.0px;stroke-linecap:butt;stroke-linejoin:miter;stroke-opacity:1"/>
<path class="bond-24 atom-24 atom-25" d="M 30.8,112.2 L 24.6,116.6" style="fill:none;fill-rule:evenodd;stroke:#FF0000;stroke-width:2.0px;stroke-linecap:butt;stroke-linejoin:miter;stroke-opacity:1"/>
<path class="bond-25 atom-22 atom-26" d="M 70.1,105.0 L 68.5,86.0" style="fill:none;fill-rule:evenodd;stroke:#000000;stroke-width:2.0px;stroke-linecap:butt;stroke-linejoin:miter;stroke-opacity:1"/>
<path class="bond-26 atom-26 atom-27" d="M 68.5,86.0 L 84.1,75.1" style="fill:none;fill-rule:evenodd;stroke:#000000;stroke-width:2.0px;stroke-linecap:butt;stroke-linejoin:miter;stroke-opacity:1"/>
<path class="bond-26 atom-26 atom-27" d="M 68.2,82.7 L 81.1,73.7" style="fill:none;fill-rule:evenodd;stroke:#000000;stroke-width:2.0px;stroke-linecap:butt;stroke-linejoin:miter;stroke-opacity:1"/>
<path class="bond-27 atom-27 atom-28" d="M 84.1,75.1 L 82.5,56.1" style="fill:none;fill-rule:evenodd;stroke:#000000;stroke-width:2.0px;stroke-linecap:butt;stroke-linejoin:miter;stroke-opacity:1"/>
<path class="bond-28 atom-28 atom-29" d="M 82.5,56.1 L 65.3,48.0" style="fill:none;fill-rule:evenodd;stroke:#000000;stroke-width:2.0px;stroke-linecap:butt;stroke-linejoin:miter;stroke-opacity:1"/>
<path class="bond-28 atom-28 atom-29" d="M 79.8,58.0 L 65.5,51.3" style="fill:none;fill-rule:evenodd;stroke:#000000;stroke-width:2.0px;stroke-linecap:butt;stroke-linejoin:miter;stroke-opacity:1"/>
<path class="bond-29 atom-29 atom-30" d="M 65.3,48.0 L 49.6,58.9" style="fill:none;fill-rule:evenodd;stroke:#000000;stroke-width:2.0px;stroke-linecap:butt;stroke-linejoin:miter;stroke-opacity:1"/>
<path class="bond-30 atom-30 atom-31" d="M 49.6,58.9 L 51.2,77.9" style="fill:none;fill-rule:evenodd;stroke:#000000;stroke-width:2.0px;stroke-linecap:butt;stroke-linejoin:miter;stroke-opacity:1"/>
<path class="bond-30 atom-30 atom-31" d="M 52.6,60.3 L 53.9,76.0" style="fill:none;fill-rule:evenodd;stroke:#000000;stroke-width:2.0px;stroke-linecap:butt;stroke-linejoin:miter;stroke-opacity:1"/>
<path class="bond-31 atom-31 atom-32" d="M 51.2,77.9 L 44.5,82.6" style="fill:none;fill-rule:evenodd;stroke:#000000;stroke-width:2.0px;stroke-linecap:butt;stroke-linejoin:miter;stroke-opacity:1"/>
<path class="bond-31 atom-31 atom-32" d="M 44.5,82.6 L 37.8,87.2" style="fill:none;fill-rule:evenodd;stroke:#33CCCC;stroke-width:2.0px;stroke-linecap:butt;stroke-linejoin:miter;stroke-opacity:1"/>
<path class="bond-32 atom-20 atom-33" d="M 103.0,102.3 L 110.3,105.7" style="fill:none;fill-rule:evenodd;stroke:#000000;stroke-width:2.0px;stroke-linecap:butt;stroke-linejoin:miter;stroke-opacity:1"/>
<path class="bond-32 atom-20 atom-33" d="M 110.3,105.7 L 117.6,109.1" style="fill:none;fill-rule:evenodd;stroke:#0000FF;stroke-width:2.0px;stroke-linecap:butt;stroke-linejoin:miter;stroke-opacity:1"/>
<path class="bond-32 atom-20 atom-33" d="M 105.7,100.4 L 112.3,103.4" style="fill:none;fill-rule:evenodd;stroke:#000000;stroke-width:2.0px;stroke-linecap:butt;stroke-linejoin:miter;stroke-opacity:1"/>
<path class="bond-32 atom-20 atom-33" d="M 112.3,103.4 L 118.8,106.5" style="fill:none;fill-rule:evenodd;stroke:#0000FF;stroke-width:2.0px;stroke-linecap:butt;stroke-linejoin:miter;stroke-opacity:1"/>
<path class="bond-33 atom-33 atom-34" d="M 123.0,108.5 L 128.3,104.8" style="fill:none;fill-rule:evenodd;stroke:#0000FF;stroke-width:2.0px;stroke-linecap:butt;stroke-linejoin:miter;stroke-opacity:1"/>
<path class="bond-33 atom-33 atom-34" d="M 128.3,104.8 L 133.6,101.1" style="fill:none;fill-rule:evenodd;stroke:#CCCC00;stroke-width:2.0px;stroke-linecap:butt;stroke-linejoin:miter;stroke-opacity:1"/>
<path class="bond-34 atom-34 atom-35" d="M 138.7,100.2 L 145.2,98.5" style="fill:none;fill-rule:evenodd;stroke:#CCCC00;stroke-width:2.0px;stroke-linecap:butt;stroke-linejoin:miter;stroke-opacity:1"/>
<path class="bond-34 atom-34 atom-35" d="M 145.2,98.5 L 151.7,96.8" style="fill:none;fill-rule:evenodd;stroke:#FF0000;stroke-width:2.0px;stroke-linecap:butt;stroke-linejoin:miter;stroke-opacity:1"/>
<path class="bond-34 atom-34 atom-35" d="M 138.0,97.5 L 144.5,95.7" style="fill:none;fill-rule:evenodd;stroke:#CCCC00;stroke-width:2.0px;stroke-linecap:butt;stroke-linejoin:miter;stroke-opacity:1"/>
<path class="bond-34 atom-34 atom-35" d="M 144.5,95.7 L 150.9,94.0" style="fill:none;fill-rule:evenodd;stroke:#FF0000;stroke-width:2.0px;stroke-linecap:butt;stroke-linejoin:miter;stroke-opacity:1"/>
<path class="bond-35 atom-34 atom-36" d="M 136.3,103.5 L 138.7,108.8" style="fill:none;fill-rule:evenodd;stroke:#CCCC00;stroke-width:2.0px;stroke-linecap:butt;stroke-linejoin:miter;stroke-opacity:1"/>
<path class="bond-35 atom-34 atom-36" d="M 138.7,108.8 L 141.1,114.0" style="fill:none;fill-rule:evenodd;stroke:#FF0000;stroke-width:2.0px;stroke-linecap:butt;stroke-linejoin:miter;stroke-opacity:1"/>
<path class="bond-35 atom-34 atom-36" d="M 138.9,102.3 L 141.3,107.6" style="fill:none;fill-rule:evenodd;stroke:#CCCC00;stroke-width:2.0px;stroke-linecap:butt;stroke-linejoin:miter;stroke-opacity:1"/>
<path class="bond-35 atom-34 atom-36" d="M 141.3,107.6 L 143.7,112.8" style="fill:none;fill-rule:evenodd;stroke:#FF0000;stroke-width:2.0px;stroke-linecap:butt;stroke-linejoin:miter;stroke-opacity:1"/>
<path class="bond-36 atom-5 atom-37" d="M 219.1,102.0 L 222.7,120.8" style="fill:none;fill-rule:evenodd;stroke:#000000;stroke-width:2.0px;stroke-linecap:butt;stroke-linejoin:miter;stroke-opacity:1"/>
<path class="bond-36 atom-5 atom-37" d="M 222.3,103.5 L 225.1,118.2" style="fill:none;fill-rule:evenodd;stroke:#000000;stroke-width:2.0px;stroke-linecap:butt;stroke-linejoin:miter;stroke-opacity:1"/>
<path class="bond-37 atom-37 atom-38" d="M 222.7,120.8 L 241.7,123.2" style="fill:none;fill-rule:evenodd;stroke:#000000;stroke-width:2.0px;stroke-linecap:butt;stroke-linejoin:miter;stroke-opacity:1"/>
<path class="bond-38 atom-38 atom-39" d="M 241.7,123.2 L 249.8,105.9" style="fill:none;fill-rule:evenodd;stroke:#000000;stroke-width:2.0px;stroke-linecap:butt;stroke-linejoin:miter;stroke-opacity:1"/>
<path class="bond-38 atom-38 atom-39" d="M 240.0,120.1 L 246.3,106.5" style="fill:none;fill-rule:evenodd;stroke:#000000;stroke-width:2.0px;stroke-linecap:butt;stroke-linejoin:miter;stroke-opacity:1"/>
<path class="bond-39 atom-39 atom-1" d="M 249.8,105.9 L 256.8,102.0" style="fill:none;fill-rule:evenodd;stroke:#000000;stroke-width:2.0px;stroke-linecap:butt;stroke-linejoin:miter;stroke-opacity:1"/>
<path class="bond-39 atom-39 atom-1" d="M 256.8,102.0 L 263.8,98.2" style="fill:none;fill-rule:evenodd;stroke:#0000FF;stroke-width:2.0px;stroke-linecap:butt;stroke-linejoin:miter;stroke-opacity:1"/>
<path class="bond-40 atom-39 atom-4" d="M 249.8,105.9 L 235.9,92.8" style="fill:none;fill-rule:evenodd;stroke:#000000;stroke-width:2.0px;stroke-linecap:butt;stroke-linejoin:miter;stroke-opacity:1"/>
<path class="bond-41 atom-12 atom-7" d="M 183.0,66.8 L 200.3,74.9" style="fill:none;fill-rule:evenodd;stroke:#000000;stroke-width:2.0px;stroke-linecap:butt;stroke-linejoin:miter;stroke-opacity:1"/>
<path class="bond-42 atom-34 atom-15" d="M 135.7,96.1 L 135.0,88.3" style="fill:none;fill-rule:evenodd;stroke:#CCCC00;stroke-width:2.0px;stroke-linecap:butt;stroke-linejoin:miter;stroke-opacity:1"/>
<path class="bond-42 atom-34 atom-15" d="M 135.0,88.3 L 134.4,80.4" style="fill:none;fill-rule:evenodd;stroke:#000000;stroke-width:2.0px;stroke-linecap:butt;stroke-linejoin:miter;stroke-opacity:1"/>
<path class="bond-43 atom-31 atom-26" d="M 51.2,77.9 L 68.5,86.0" style="fill:none;fill-rule:evenodd;stroke:#000000;stroke-width:2.0px;stroke-linecap:butt;stroke-linejoin:miter;stroke-opacity:1"/>
<path d="M 215.1,64.5 L 215.9,64.0 L 215.8,63.0" style="fill:none;stroke:#000000;stroke-width:2.0px;stroke-linecap:butt;stroke-linejoin:miter;stroke-opacity:1;"/>
<path d="M 214.4,45.9 L 214.3,45.0 L 213.5,44.6" style="fill:none;stroke:#000000;stroke-width:2.0px;stroke-linecap:butt;stroke-linejoin:miter;stroke-opacity:1;"/>
<path d="M 197.9,37.2 L 197.0,36.8 L 196.3,37.4" style="fill:none;stroke:#000000;stroke-width:2.0px;stroke-linecap:butt;stroke-linejoin:miter;stroke-opacity:1;"/>
<path d="M 182.2,47.2 L 181.4,47.7 L 181.5,48.7" style="fill:none;stroke:#000000;stroke-width:2.0px;stroke-linecap:butt;stroke-linejoin:miter;stroke-opacity:1;"/>
<path d="M 168.1,77.1 L 167.3,77.7 L 166.4,77.3" style="fill:none;stroke:#000000;stroke-width:2.0px;stroke-linecap:butt;stroke-linejoin:miter;stroke-opacity:1;"/>
<path d="M 150.9,70.0 L 150.0,69.5 L 149.2,70.1" style="fill:none;stroke:#000000;stroke-width:2.0px;stroke-linecap:butt;stroke-linejoin:miter;stroke-opacity:1;"/>
<path d="M 55.2,115.4 L 54.4,115.9 L 53.5,115.5" style="fill:none;stroke:#000000;stroke-width:2.0px;stroke-linecap:butt;stroke-linejoin:miter;stroke-opacity:1;"/>
<path d="M 38.0,108.2 L 37.1,107.8 L 36.8,108.0" style="fill:none;stroke:#000000;stroke-width:2.0px;stroke-linecap:butt;stroke-linejoin:miter;stroke-opacity:1;"/>
<path d="M 83.4,75.7 L 84.1,75.1 L 84.1,74.2" style="fill:none;stroke:#000000;stroke-width:2.0px;stroke-linecap:butt;stroke-linejoin:miter;stroke-opacity:1;"/>
<path d="M 82.6,57.0 L 82.5,56.1 L 81.7,55.7" style="fill:none;stroke:#000000;stroke-width:2.0px;stroke-linecap:butt;stroke-linejoin:miter;stroke-opacity:1;"/>
<path d="M 66.1,48.4 L 65.3,48.0 L 64.5,48.5" style="fill:none;stroke:#000000;stroke-width:2.0px;stroke-linecap:butt;stroke-linejoin:miter;stroke-opacity:1;"/>
<path d="M 50.4,58.3 L 49.6,58.9 L 49.7,59.8" style="fill:none;stroke:#000000;stroke-width:2.0px;stroke-linecap:butt;stroke-linejoin:miter;stroke-opacity:1;"/>
<path d="M 222.5,119.8 L 222.7,120.8 L 223.7,120.9" style="fill:none;stroke:#000000;stroke-width:2.0px;stroke-linecap:butt;stroke-linejoin:miter;stroke-opacity:1;"/>
<path d="M 240.7,123.0 L 241.7,123.2 L 242.1,122.3" style="fill:none;stroke:#000000;stroke-width:2.0px;stroke-linecap:butt;stroke-linejoin:miter;stroke-opacity:1;"/>
<path class="atom-1" d="M 265.3 94.0 L 267.1 96.8 Q 267.3 97.1, 267.5 97.6 Q 267.8 98.1, 267.8 98.2 L 267.8 94.0 L 268.6 94.0 L 268.6 99.4 L 267.8 99.4 L 265.9 96.3 Q 265.7 95.9, 265.5 95.5 Q 265.2 95.0, 265.2 94.9 L 265.2 99.4 L 264.5 99.4 L 264.5 94.0 L 265.3 94.0 " fill="#0000FF"/>
<path class="atom-2" d="M 261.4 79.8 Q 261.5 79.8, 261.7 79.9 Q 262.0 80.0, 262.2 80.1 Q 262.5 80.2, 262.8 80.2 Q 263.3 80.2, 263.6 79.9 Q 263.9 79.7, 263.9 79.2 Q 263.9 78.9, 263.7 78.7 Q 263.6 78.6, 263.4 78.5 Q 263.1 78.4, 262.8 78.2 Q 262.3 78.1, 262.0 78.0 Q 261.7 77.8, 261.5 77.5 Q 261.3 77.2, 261.3 76.8 Q 261.3 76.1, 261.8 75.7 Q 262.2 75.2, 263.1 75.2 Q 263.8 75.2, 264.5 75.5 L 264.3 76.1 Q 263.7 75.9, 263.2 75.9 Q 262.6 75.9, 262.4 76.1 Q 262.1 76.3, 262.1 76.7 Q 262.1 77.0, 262.2 77.1 Q 262.4 77.3, 262.6 77.4 Q 262.8 77.5, 263.2 77.6 Q 263.7 77.8, 263.9 77.9 Q 264.2 78.1, 264.4 78.4 Q 264.7 78.7, 264.7 79.2 Q 264.7 80.0, 264.2 80.4 Q 263.7 80.8, 262.8 80.8 Q 262.3 80.8, 262.0 80.7 Q 261.6 80.6, 261.2 80.4 L 261.4 79.8 " fill="#CCCC00"/>
<path class="atom-3" d="M 242.8 72.8 L 244.6 75.7 Q 244.7 76.0, 245.0 76.5 Q 245.3 77.0, 245.3 77.0 L 245.3 72.8 L 246.0 72.8 L 246.0 78.2 L 245.3 78.2 L 243.4 75.1 Q 243.2 74.8, 242.9 74.3 Q 242.7 73.9, 242.6 73.8 L 242.6 78.2 L 241.9 78.2 L 241.9 72.8 L 242.8 72.8 " fill="#0000FF"/>
<path class="atom-6" d="M 197.7 95.8 Q 197.7 95.8, 198.0 95.9 Q 198.2 96.0, 198.5 96.1 Q 198.8 96.1, 199.1 96.1 Q 199.6 96.1, 199.9 95.9 Q 200.2 95.6, 200.2 95.2 Q 200.2 94.9, 200.0 94.7 Q 199.9 94.5, 199.7 94.4 Q 199.4 94.3, 199.1 94.2 Q 198.6 94.1, 198.3 93.9 Q 198.0 93.8, 197.8 93.5 Q 197.6 93.2, 197.6 92.7 Q 197.6 92.1, 198.1 91.6 Q 198.5 91.2, 199.4 91.2 Q 200.1 91.2, 200.8 91.5 L 200.6 92.1 Q 199.9 91.8, 199.5 91.8 Q 198.9 91.8, 198.6 92.1 Q 198.3 92.3, 198.4 92.6 Q 198.4 92.9, 198.5 93.1 Q 198.7 93.3, 198.9 93.4 Q 199.1 93.5, 199.5 93.6 Q 199.9 93.8, 200.2 93.9 Q 200.5 94.1, 200.7 94.4 Q 200.9 94.7, 200.9 95.2 Q 200.9 96.0, 200.4 96.4 Q 199.9 96.8, 199.1 96.8 Q 198.6 96.8, 198.3 96.6 Q 197.9 96.5, 197.5 96.4 L 197.7 95.8 " fill="#000000"/>
<path class="atom-6" d="M 201.5 91.2 L 202.2 91.2 L 202.2 91.9 L 201.5 91.9 L 201.5 91.2 M 201.5 92.7 L 202.2 92.7 L 202.2 96.6 L 201.5 96.6 L 201.5 92.7 " fill="#000000"/>
<path class="atom-19" d="M 98.9 83.2 Q 98.9 81.9, 99.6 81.2 Q 100.2 80.5, 101.4 80.5 Q 102.6 80.5, 103.3 81.2 Q 103.9 81.9, 103.9 83.2 Q 103.9 84.6, 103.2 85.3 Q 102.6 86.0, 101.4 86.0 Q 100.2 86.0, 99.6 85.3 Q 98.9 84.6, 98.9 83.2 M 101.4 85.4 Q 102.2 85.4, 102.7 84.9 Q 103.1 84.3, 103.1 83.2 Q 103.1 82.2, 102.7 81.7 Q 102.2 81.1, 101.4 81.1 Q 100.6 81.1, 100.1 81.6 Q 99.7 82.2, 99.7 83.2 Q 99.7 84.3, 100.1 84.9 Q 100.6 85.4, 101.4 85.4 " fill="#FF0000"/>
<path class="atom-21" d="M 86.2 110.5 L 87.9 113.3 Q 88.1 113.6, 88.4 114.1 Q 88.7 114.6, 88.7 114.7 L 88.7 110.5 L 89.4 110.5 L 89.4 115.9 L 88.7 115.9 L 86.8 112.7 Q 86.5 112.4, 86.3 111.9 Q 86.1 111.5, 86.0 111.4 L 86.0 115.9 L 85.3 115.9 L 85.3 110.5 L 86.2 110.5 " fill="#0000FF"/>
<path class="atom-21" d="M 85.2 116.4 L 86.0 116.4 L 86.0 118.7 L 88.7 118.7 L 88.7 116.4 L 89.5 116.4 L 89.5 121.8 L 88.7 121.8 L 88.7 119.3 L 86.0 119.3 L 86.0 121.8 L 85.2 121.8 L 85.2 116.4 " fill="#0000FF"/>
<path class="atom-25" d="M 13.6 116.0 L 14.4 116.0 L 14.4 118.3 L 17.1 118.3 L 17.1 116.0 L 17.9 116.0 L 17.9 121.5 L 17.1 121.5 L 17.1 119.0 L 14.4 119.0 L 14.4 121.5 L 13.6 121.5 L 13.6 116.0 " fill="#FF0000"/>
<path class="atom-25" d="M 19.0 118.7 Q 19.0 117.4, 19.6 116.7 Q 20.3 116.0, 21.5 116.0 Q 22.7 116.0, 23.3 116.7 Q 23.9 117.4, 23.9 118.7 Q 23.9 120.0, 23.3 120.8 Q 22.6 121.5, 21.5 121.5 Q 20.3 121.5, 19.6 120.8 Q 19.0 120.1, 19.0 118.7 M 21.5 120.9 Q 22.3 120.9, 22.7 120.4 Q 23.2 119.8, 23.2 118.7 Q 23.2 117.7, 22.7 117.1 Q 22.3 116.6, 21.5 116.6 Q 20.6 116.6, 20.2 117.1 Q 19.7 117.7, 19.7 118.7 Q 19.7 119.8, 20.2 120.4 Q 20.6 120.9, 21.5 120.9 " fill="#FF0000"/>
<path class="atom-32" d="M 33.9 86.1 L 37.1 86.1 L 37.1 86.7 L 34.6 86.7 L 34.6 88.4 L 36.9 88.4 L 36.9 89.0 L 34.6 89.0 L 34.6 91.5 L 33.9 91.5 L 33.9 86.1 " fill="#33CCCC"/>
<path class="atom-33" d="M 119.1 107.7 L 120.9 110.5 Q 121.1 110.8, 121.3 111.3 Q 121.6 111.8, 121.6 111.9 L 121.6 107.7 L 122.3 107.7 L 122.3 113.1 L 121.6 113.1 L 119.7 109.9 Q 119.5 109.6, 119.2 109.2 Q 119.0 108.7, 119.0 108.6 L 119.0 113.1 L 118.2 113.1 L 118.2 107.7 L 119.1 107.7 " fill="#0000FF"/>
<path class="atom-34" d="M 134.4 101.3 Q 134.5 101.3, 134.8 101.5 Q 135.0 101.6, 135.3 101.6 Q 135.6 101.7, 135.8 101.7 Q 136.4 101.7, 136.6 101.4 Q 136.9 101.2, 136.9 100.8 Q 136.9 100.5, 136.8 100.3 Q 136.6 100.1, 136.4 100.0 Q 136.2 99.9, 135.8 99.8 Q 135.3 99.6, 135.0 99.5 Q 134.8 99.4, 134.5 99.1 Q 134.3 98.8, 134.3 98.3 Q 134.3 97.6, 134.8 97.2 Q 135.3 96.8, 136.2 96.8 Q 136.8 96.8, 137.5 97.1 L 137.4 97.7 Q 136.7 97.4, 136.2 97.4 Q 135.7 97.4, 135.4 97.6 Q 135.1 97.8, 135.1 98.2 Q 135.1 98.5, 135.3 98.7 Q 135.4 98.8, 135.6 98.9 Q 135.8 99.0, 136.2 99.2 Q 136.7 99.3, 137.0 99.5 Q 137.3 99.6, 137.5 99.9 Q 137.7 100.2, 137.7 100.8 Q 137.7 101.5, 137.2 101.9 Q 136.7 102.3, 135.9 102.3 Q 135.4 102.3, 135.0 102.2 Q 134.7 102.1, 134.2 101.9 L 134.4 101.3 " fill="#CCCC00"/>
<path class="atom-35" d="M 151.9 94.6 Q 151.9 93.3, 152.6 92.6 Q 153.2 91.9, 154.4 91.9 Q 155.6 91.9, 156.3 92.6 Q 156.9 93.3, 156.9 94.6 Q 156.9 95.9, 156.3 96.7 Q 155.6 97.4, 154.4 97.4 Q 153.2 97.4, 152.6 96.7 Q 151.9 95.9, 151.9 94.6 M 154.4 96.8 Q 155.2 96.8, 155.7 96.2 Q 156.1 95.7, 156.1 94.6 Q 156.1 93.5, 155.7 93.0 Q 155.2 92.5, 154.4 92.5 Q 153.6 92.5, 153.1 93.0 Q 152.7 93.5, 152.7 94.6 Q 152.7 95.7, 153.1 96.2 Q 153.6 96.8, 154.4 96.8 " fill="#FF0000"/>
<path class="atom-36" d="M 141.5 116.8 Q 141.5 115.5, 142.1 114.8 Q 142.8 114.1, 144.0 114.1 Q 145.2 114.1, 145.8 114.8 Q 146.5 115.5, 146.5 116.8 Q 146.5 118.1, 145.8 118.9 Q 145.2 119.6, 144.0 119.6 Q 142.8 119.6, 142.1 118.9 Q 141.5 118.1, 141.5 116.8 M 144.0 119.0 Q 144.8 119.0, 145.3 118.5 Q 145.7 117.9, 145.7 116.8 Q 145.7 115.8, 145.3 115.2 Q 144.8 114.7, 144.0 114.7 Q 143.2 114.7, 142.7 115.2 Q 142.3 115.7, 142.3 116.8 Q 142.3 117.9, 142.7 118.5 Q 143.2 119.0, 144.0 119.0 " fill="#FF0000"/>
<path class="atom-0" d="M 286.5,102.9 L 286.5,102.9 L 286.5,103.0 L 286.4,103.0 L 286.4,103.0 L 286.4,103.0 L 286.4,103.1 L 286.4,103.1 L 286.4,103.1 L 286.4,103.2 L 286.3,103.2 L 286.3,103.2 L 286.3,103.2 L 286.2,103.2 L 286.2,103.2 L 286.2,103.3 L 286.2,103.3 L 286.1,103.3 L 286.1,103.3 L 286.1,103.3 L 286.0,103.3 L 286.0,103.3 L 286.0,103.3 L 285.9,103.2 L 285.9,103.2 L 285.9,103.2 L 285.8,103.2 L 285.8,103.2 L 285.8,103.1 L 285.8,103.1 L 285.8,103.1 L 285.7,103.1 L 285.7,103.0 L 285.7,103.0 L 285.7,103.0 L 285.7,102.9 L 285.7,102.9 L 285.7,102.9 L 285.7,102.8 L 285.7,102.8 L 285.7,102.8 L 285.7,102.7 L 285.7,102.7 L 285.8,102.7 L 285.8,102.7 L 285.8,102.6 L 285.8,102.6 L 285.8,102.6 L 285.9,102.6 L 285.9,102.6 L 285.9,102.5 L 286.0,102.5 L 286.0,102.5 L 286.0,102.5 L 286.1,102.5 L 286.1,102.5 L 286.1,102.5 L 286.2,102.5 L 286.2,102.5 L 286.2,102.5 L 286.2,102.5 L 286.3,102.6 L 286.3,102.6 L 286.3,102.6 L 286.4,102.6 L 286.4,102.6 L 286.4,102.7 L 286.4,102.7 L 286.4,102.7 L 286.4,102.8 L 286.4,102.8 L 286.5,102.8 L 286.5,102.9 L 286.5,102.9 L 286.1,102.9 Z" style="fill:#000000;fill-rule:evenodd;fill-opacity:1;stroke:#000000;stroke-width:0.0px;stroke-linecap:butt;stroke-linejoin:miter;stroke-opacity:1;"/>
<path class="atom-0" d="M 286.5,106.7 L 286.5,106.7 L 286.5,106.8 L 286.4,106.8 L 286.4,106.8 L 286.4,106.9 L 286.4,106.9 L 286.4,106.9 L 286.4,107.0 L 286.4,107.0 L 286.3,107.0 L 286.3,107.0 L 286.3,107.0 L 286.2,107.1 L 286.2,107.1 L 286.2,107.1 L 286.2,107.1 L 286.1,107.1 L 286.1,107.1 L 286.1,107.1 L 286.0,107.1 L 286.0,107.1 L 286.0,107.1 L 285.9,107.1 L 285.9,107.0 L 285.9,107.0 L 285.8,107.0 L 285.8,107.0 L 285.8,107.0 L 285.8,106.9 L 285.8,106.9 L 285.7,106.9 L 285.7,106.9 L 285.7,106.8 L 285.7,106.8 L 285.7,106.8 L 285.7,106.7 L 285.7,106.7 L 285.7,106.7 L 285.7,106.6 L 285.7,106.6 L 285.7,106.6 L 285.7,106.5 L 285.8,106.5 L 285.8,106.5 L 285.8,106.5 L 285.8,106.4 L 285.8,106.4 L 285.9,106.4 L 285.9,106.4 L 285.9,106.4 L 286.0,106.3 L 286.0,106.3 L 286.0,106.3 L 286.1,106.3 L 286.1,106.3 L 286.1,106.3 L 286.2,106.3 L 286.2,106.3 L 286.2,106.4 L 286.2,106.4 L 286.3,106.4 L 286.3,106.4 L 286.3,106.4 L 286.4,106.4 L 286.4,106.5 L 286.4,106.5 L 286.4,106.5 L 286.4,106.5 L 286.4,106.6 L 286.4,106.6 L 286.5,106.6 L 286.5,106.7 L 286.5,106.7 L 286.1,106.7 Z" style="fill:#000000;fill-rule:evenodd;fill-opacity:1;stroke:#000000;stroke-width:0.0px;stroke-linecap:butt;stroke-linejoin:miter;stroke-opacity:1;"/>
<path class="atom-0" d="M 286.5,104.8 L 286.5,104.8 L 286.5,104.9 L 286.4,104.9 L 286.4,104.9 L 286.4,105.0 L 286.4,105.0 L 286.4,105.0 L 286.4,105.0 L 286.4,105.1 L 286.3,105.1 L 286.3,105.1 L 286.3,105.1 L 286.2,105.1 L 286.2,105.2 L 286.2,105.2 L 286.2,105.2 L 286.1,105.2 L 286.1,105.2 L 286.1,105.2 L 286.0,105.2 L 286.0,105.2 L 286.0,105.2 L 285.9,105.1 L 285.9,105.1 L 285.9,105.1 L 285.8,105.1 L 285.8,105.1 L 285.8,105.1 L 285.8,105.0 L 285.8,105.0 L 285.7,105.0 L 285.7,104.9 L 285.7,104.9 L 285.7,104.9 L 285.7,104.8 L 285.7,104.8 L 285.7,104.8 L 285.7,104.7 L 285.7,104.7 L 285.7,104.7 L 285.7,104.7 L 285.7,104.6 L 285.8,104.6 L 285.8,104.6 L 285.8,104.5 L 285.8,104.5 L 285.8,104.5 L 285.9,104.5 L 285.9,104.5 L 285.9,104.4 L 286.0,104.4 L 286.0,104.4 L 286.0,104.4 L 286.1,104.4 L 286.1,104.4 L 286.1,104.4 L 286.2,104.4 L 286.2,104.4 L 286.2,104.4 L 286.2,104.5 L 286.3,104.5 L 286.3,104.5 L 286.3,104.5 L 286.4,104.5 L 286.4,104.6 L 286.4,104.6 L 286.4,104.6 L 286.4,104.6 L 286.4,104.7 L 286.4,104.7 L 286.5,104.7 L 286.5,104.8 L 286.5,104.8 L 286.1,104.8 Z" style="fill:#000000;fill-rule:evenodd;fill-opacity:1;stroke:#000000;stroke-width:0.0px;stroke-linecap:butt;stroke-linejoin:miter;stroke-opacity:1;"/>
<path class="atom-6" d="M 196.7,94.7 L 196.7,94.7 L 196.7,94.7 L 196.7,94.8 L 196.7,94.8 L 196.7,94.8 L 196.7,94.9 L 196.6,94.9 L 196.6,94.9 L 196.6,94.9 L 196.6,95.0 L 196.6,95.0 L 196.5,95.0 L 196.5,95.0 L 196.5,95.0 L 196.4,95.0 L 196.4,95.0 L 196.4,95.0 L 196.3,95.1 L 196.3,95.1 L 196.3,95.0 L 196.2,95.0 L 196.2,95.0 L 196.2,95.0 L 196.2,95.0 L 196.1,95.0 L 196.1,95.0 L 196.1,94.9 L 196.0,94.9 L 196.0,94.9 L 196.0,94.9 L 196.0,94.8 L 196.0,94.8 L 196.0,94.8 L 196.0,94.8 L 196.0,94.7 L 196.0,94.7 L 196.0,94.7 L 196.0,94.6 L 196.0,94.6 L 196.0,94.6 L 196.0,94.5 L 196.0,94.5 L 196.0,94.5 L 196.0,94.4 L 196.0,94.4 L 196.1,94.4 L 196.1,94.4 L 196.1,94.4 L 196.2,94.3 L 196.2,94.3 L 196.2,94.3 L 196.2,94.3 L 196.3,94.3 L 196.3,94.3 L 196.3,94.3 L 196.4,94.3 L 196.4,94.3 L 196.4,94.3 L 196.5,94.3 L 196.5,94.3 L 196.5,94.3 L 196.6,94.4 L 196.6,94.4 L 196.6,94.4 L 196.6,94.4 L 196.6,94.5 L 196.7,94.5 L 196.7,94.5 L 196.7,94.5 L 196.7,94.6 L 196.7,94.6 L 196.7,94.6 L 196.7,94.7 L 196.3,94.7 Z" style="fill:#000000;fill-rule:evenodd;fill-opacity:1;stroke:#000000;stroke-width:0.0px;stroke-linecap:butt;stroke-linejoin:miter;stroke-opacity:1;"/>
<path class="atom-6" d="M 196.7,93.1 L 196.7,93.2 L 196.7,93.2 L 196.7,93.2 L 196.7,93.3 L 196.7,93.3 L 196.7,93.3 L 196.6,93.4 L 196.6,93.4 L 196.6,93.4 L 196.6,93.4 L 196.6,93.5 L 196.5,93.5 L 196.5,93.5 L 196.5,93.5 L 196.4,93.5 L 196.4,93.5 L 196.4,93.5 L 196.3,93.5 L 196.3,93.5 L 196.3,93.5 L 196.2,93.5 L 196.2,93.5 L 196.2,93.5 L 196.2,93.5 L 196.1,93.5 L 196.1,93.4 L 196.1,93.4 L 196.0,93.4 L 196.0,93.4 L 196.0,93.3 L 196.0,93.3 L 196.0,93.3 L 196.0,93.3 L 196.0,93.2 L 196.0,93.2 L 196.0,93.2 L 196.0,93.1 L 196.0,93.1 L 196.0,93.1 L 196.0,93.0 L 196.0,93.0 L 196.0,93.0 L 196.0,92.9 L 196.0,92.9 L 196.0,92.9 L 196.1,92.9 L 196.1,92.8 L 196.1,92.8 L 196.2,92.8 L 196.2,92.8 L 196.2,92.8 L 196.2,92.8 L 196.3,92.8 L 196.3,92.8 L 196.3,92.8 L 196.4,92.8 L 196.4,92.8 L 196.4,92.8 L 196.5,92.8 L 196.5,92.8 L 196.5,92.8 L 196.6,92.8 L 196.6,92.9 L 196.6,92.9 L 196.6,92.9 L 196.6,92.9 L 196.7,93.0 L 196.7,93.0 L 196.7,93.0 L 196.7,93.0 L 196.7,93.1 L 196.7,93.1 L 196.7,93.1 L 196.3,93.1 Z" style="fill:#000000;fill-rule:evenodd;fill-opacity:1;stroke:#000000;stroke-width:0.0px;stroke-linecap:butt;stroke-linejoin:miter;stroke-opacity:1;"/>
<path class="atom-13" d="M 168.5,79.4 L 168.5,79.4 L 168.4,79.4 L 168.4,79.5 L 168.4,79.5 L 168.4,79.5 L 168.4,79.6 L 168.4,79.6 L 168.4,79.6 L 168.3,79.7 L 168.3,79.7 L 168.3,79.7 L 168.3,79.7 L 168.2,79.7 L 168.2,79.7 L 168.2,79.8 L 168.1,79.8 L 168.1,79.8 L 168.1,79.8 L 168.0,79.8 L 168.0,79.8 L 168.0,79.8 L 168.0,79.7 L 167.9,79.7 L 167.9,79.7 L 167.9,79.7 L 167.8,79.7 L 167.8,79.7 L 167.8,79.6 L 167.8,79.6 L 167.7,79.6 L 167.7,79.6 L 167.7,79.5 L 167.7,79.5 L 167.7,79.5 L 167.7,79.4 L 167.7,79.4 L 167.7,79.4 L 167.7,79.3 L 167.7,79.3 L 167.7,79.3 L 167.7,79.2 L 167.7,79.2 L 167.7,79.2 L 167.8,79.2 L 167.8,79.1 L 167.8,79.1 L 167.8,79.1 L 167.9,79.1 L 167.9,79.0 L 167.9,79.0 L 168.0,79.0 L 168.0,79.0 L 168.0,79.0 L 168.0,79.0 L 168.1,79.0 L 168.1,79.0 L 168.1,79.0 L 168.2,79.0 L 168.2,79.0 L 168.2,79.0 L 168.3,79.1 L 168.3,79.1 L 168.3,79.1 L 168.3,79.1 L 168.4,79.1 L 168.4,79.2 L 168.4,79.2 L 168.4,79.2 L 168.4,79.3 L 168.4,79.3 L 168.4,79.3 L 168.5,79.4 L 168.5,79.4 L 168.1,79.4 Z" style="fill:#000000;fill-rule:evenodd;fill-opacity:1;stroke:#000000;stroke-width:0.0px;stroke-linecap:butt;stroke-linejoin:miter;stroke-opacity:1;"/>
<path class="atom-13" d="M 166.9,79.4 L 166.9,79.4 L 166.9,79.4 L 166.9,79.5 L 166.9,79.5 L 166.9,79.5 L 166.9,79.6 L 166.9,79.6 L 166.8,79.6 L 166.8,79.7 L 166.8,79.7 L 166.8,79.7 L 166.7,79.7 L 166.7,79.7 L 166.7,79.7 L 166.7,79.8 L 166.6,79.8 L 166.6,79.8 L 166.6,79.8 L 166.5,79.8 L 166.5,79.8 L 166.5,79.8 L 166.4,79.7 L 166.4,79.7 L 166.4,79.7 L 166.3,79.7 L 166.3,79.7 L 166.3,79.7 L 166.3,79.6 L 166.2,79.6 L 166.2,79.6 L 166.2,79.6 L 166.2,79.5 L 166.2,79.5 L 166.2,79.5 L 166.2,79.4 L 166.2,79.4 L 166.2,79.4 L 166.2,79.3 L 166.2,79.3 L 166.2,79.3 L 166.2,79.2 L 166.2,79.2 L 166.2,79.2 L 166.2,79.2 L 166.3,79.1 L 166.3,79.1 L 166.3,79.1 L 166.3,79.1 L 166.4,79.0 L 166.4,79.0 L 166.4,79.0 L 166.5,79.0 L 166.5,79.0 L 166.5,79.0 L 166.6,79.0 L 166.6,79.0 L 166.6,79.0 L 166.7,79.0 L 166.7,79.0 L 166.7,79.0 L 166.7,79.1 L 166.8,79.1 L 166.8,79.1 L 166.8,79.1 L 166.8,79.1 L 166.9,79.2 L 166.9,79.2 L 166.9,79.2 L 166.9,79.3 L 166.9,79.3 L 166.9,79.3 L 166.9,79.4 L 166.9,79.4 L 166.5,79.4 Z" style="fill:#000000;fill-rule:evenodd;fill-opacity:1;stroke:#000000;stroke-width:0.0px;stroke-linecap:butt;stroke-linejoin:miter;stroke-opacity:1;"/>
<path class="atom-14" d="M 151.2,67.8 L 151.2,67.9 L 151.2,67.9 L 151.2,67.9 L 151.2,68.0 L 151.1,68.0 L 151.1,68.0 L 151.1,68.0 L 151.1,68.1 L 151.1,68.1 L 151.0,68.1 L 151.0,68.1 L 151.0,68.2 L 151.0,68.2 L 150.9,68.2 L 150.9,68.2 L 150.9,68.2 L 150.8,68.2 L 150.8,68.2 L 150.8,68.2 L 150.7,68.2 L 150.7,68.2 L 150.7,68.2 L 150.6,68.2 L 150.6,68.2 L 150.6,68.1 L 150.6,68.1 L 150.5,68.1 L 150.5,68.1 L 150.5,68.1 L 150.5,68.0 L 150.5,68.0 L 150.4,68.0 L 150.4,67.9 L 150.4,67.9 L 150.4,67.9 L 150.4,67.8 L 150.4,67.8 L 150.4,67.8 L 150.4,67.7 L 150.4,67.7 L 150.4,67.7 L 150.5,67.7 L 150.5,67.6 L 150.5,67.6 L 150.5,67.6 L 150.5,67.5 L 150.6,67.5 L 150.6,67.5 L 150.6,67.5 L 150.6,67.5 L 150.7,67.5 L 150.7,67.5 L 150.7,67.5 L 150.8,67.4 L 150.8,67.4 L 150.8,67.4 L 150.9,67.5 L 150.9,67.5 L 150.9,67.5 L 151.0,67.5 L 151.0,67.5 L 151.0,67.5 L 151.0,67.5 L 151.1,67.6 L 151.1,67.6 L 151.1,67.6 L 151.1,67.6 L 151.1,67.7 L 151.2,67.7 L 151.2,67.7 L 151.2,67.8 L 151.2,67.8 L 151.2,67.8 L 150.8,67.8 Z" style="fill:#000000;fill-rule:evenodd;fill-opacity:1;stroke:#000000;stroke-width:0.0px;stroke-linecap:butt;stroke-linejoin:miter;stroke-opacity:1;"/>
<path class="atom-14" d="M 149.7,67.8 L 149.6,67.9 L 149.6,67.9 L 149.6,67.9 L 149.6,68.0 L 149.6,68.0 L 149.6,68.0 L 149.6,68.0 L 149.6,68.1 L 149.5,68.1 L 149.5,68.1 L 149.5,68.1 L 149.5,68.2 L 149.4,68.2 L 149.4,68.2 L 149.4,68.2 L 149.3,68.2 L 149.3,68.2 L 149.3,68.2 L 149.2,68.2 L 149.2,68.2 L 149.2,68.2 L 149.1,68.2 L 149.1,68.2 L 149.1,68.2 L 149.1,68.1 L 149.0,68.1 L 149.0,68.1 L 149.0,68.1 L 149.0,68.1 L 148.9,68.0 L 148.9,68.0 L 148.9,68.0 L 148.9,67.9 L 148.9,67.9 L 148.9,67.9 L 148.9,67.8 L 148.9,67.8 L 148.9,67.8 L 148.9,67.7 L 148.9,67.7 L 148.9,67.7 L 148.9,67.7 L 148.9,67.6 L 149.0,67.6 L 149.0,67.6 L 149.0,67.5 L 149.0,67.5 L 149.1,67.5 L 149.1,67.5 L 149.1,67.5 L 149.1,67.5 L 149.2,67.5 L 149.2,67.5 L 149.2,67.4 L 149.3,67.4 L 149.3,67.4 L 149.3,67.5 L 149.4,67.5 L 149.4,67.5 L 149.4,67.5 L 149.5,67.5 L 149.5,67.5 L 149.5,67.5 L 149.5,67.6 L 149.6,67.6 L 149.6,67.6 L 149.6,67.6 L 149.6,67.7 L 149.6,67.7 L 149.6,67.7 L 149.6,67.8 L 149.6,67.8 L 149.7,67.8 L 149.3,67.8 Z" style="fill:#000000;fill-rule:evenodd;fill-opacity:1;stroke:#000000;stroke-width:0.0px;stroke-linecap:butt;stroke-linejoin:miter;stroke-opacity:1;"/>
<path class="bond-0 atom-0 atom-1" d="M 322.3,104.7 L 330.5,104.0" style="fill:none;fill-rule:evenodd;stroke:#000000;stroke-width:2.0px;stroke-linecap:butt;stroke-linejoin:miter;stroke-opacity:1"/>
<path class="bond-0 atom-0 atom-1" d="M 330.5,104.0 L 338.7,103.3" style="fill:none;fill-rule:evenodd;stroke:#0000FF;stroke-width:2.0px;stroke-linecap:butt;stroke-linejoin:miter;stroke-opacity:1"/>
<path class="bond-1 atom-1 atom-2" d="M 344.0,106.2 L 347.8,110.5" style="fill:none;fill-rule:evenodd;stroke:#0000FF;stroke-width:2.0px;stroke-linecap:butt;stroke-linejoin:miter;stroke-opacity:1"/>
<path class="bond-1 atom-1 atom-2" d="M 347.8,110.5 L 351.5,114.8" style="fill:none;fill-rule:evenodd;stroke:#CCCC00;stroke-width:2.0px;stroke-linecap:butt;stroke-linejoin:miter;stroke-opacity:1"/>
<path class="bond-2 atom-2 atom-3" d="M 356.2,116.5 L 362.5,113.9" style="fill:none;fill-rule:evenodd;stroke:#CCCC00;stroke-width:2.0px;stroke-linecap:butt;stroke-linejoin:miter;stroke-opacity:1"/>
<path class="bond-2 atom-2 atom-3" d="M 362.5,113.9 L 368.8,111.2" style="fill:none;fill-rule:evenodd;stroke:#0000FF;stroke-width:2.0px;stroke-linecap:butt;stroke-linejoin:miter;stroke-opacity:1"/>
<path class="bond-3 atom-3 atom-4" d="M 371.2,106.8 L 370.5,98.9" style="fill:none;fill-rule:evenodd;stroke:#0000FF;stroke-width:2.0px;stroke-linecap:butt;stroke-linejoin:miter;stroke-opacity:1"/>
<path class="bond-3 atom-3 atom-4" d="M 370.5,98.9 L 369.8,91.1" style="fill:none;fill-rule:evenodd;stroke:#000000;stroke-width:2.0px;stroke-linecap:butt;stroke-linejoin:miter;stroke-opacity:1"/>
<path class="bond-3 atom-3 atom-4" d="M 368.3,107.0 L 367.7,100.2" style="fill:none;fill-rule:evenodd;stroke:#0000FF;stroke-width:2.0px;stroke-linecap:butt;stroke-linejoin:miter;stroke-opacity:1"/>
<path class="bond-3 atom-3 atom-4" d="M 367.7,100.2 L 367.1,93.4" style="fill:none;fill-rule:evenodd;stroke:#000000;stroke-width:2.0px;stroke-linecap:butt;stroke-linejoin:miter;stroke-opacity:1"/>
<path class="bond-4 atom-4 atom-5" d="M 369.8,91.1 L 379.7,74.7" style="fill:none;fill-rule:evenodd;stroke:#000000;stroke-width:2.0px;stroke-linecap:butt;stroke-linejoin:miter;stroke-opacity:1"/>
<path class="bond-5 atom-5 atom-6" d="M 379.7,74.7 L 396.3,73.3" style="fill:none;fill-rule:evenodd;stroke:#000000;stroke-width:2.0px;stroke-linecap:butt;stroke-linejoin:miter;stroke-opacity:1"/>
<path class="bond-6 atom-6 atom-7" d="M 401.0,76.5 L 409.6,88.7" style="fill:none;fill-rule:evenodd;stroke:#000000;stroke-width:2.0px;stroke-linecap:butt;stroke-linejoin:miter;stroke-opacity:1"/>
<path class="bond-7 atom-7 atom-8" d="M 409.6,88.7 L 401.5,106.0" style="fill:none;fill-rule:evenodd;stroke:#000000;stroke-width:2.0px;stroke-linecap:butt;stroke-linejoin:miter;stroke-opacity:1"/>
<path class="bond-7 atom-7 atom-8" d="M 411.5,91.5 L 404.8,105.7" style="fill:none;fill-rule:evenodd;stroke:#000000;stroke-width:2.0px;stroke-linecap:butt;stroke-linejoin:miter;stroke-opacity:1"/>
<path class="bond-8 atom-8 atom-9" d="M 401.5,106.0 L 412.4,121.7" style="fill:none;fill-rule:evenodd;stroke:#000000;stroke-width:2.0px;stroke-linecap:butt;stroke-linejoin:miter;stroke-opacity:1"/>
<path class="bond-9 atom-9 atom-10" d="M 412.4,121.7 L 431.5,120.1" style="fill:none;fill-rule:evenodd;stroke:#000000;stroke-width:2.0px;stroke-linecap:butt;stroke-linejoin:miter;stroke-opacity:1"/>
<path class="bond-9 atom-9 atom-10" d="M 413.8,118.7 L 429.6,117.3" style="fill:none;fill-rule:evenodd;stroke:#000000;stroke-width:2.0px;stroke-linecap:butt;stroke-linejoin:miter;stroke-opacity:1"/>
<path class="bond-10 atom-10 atom-11" d="M 431.5,120.1 L 439.6,102.8" style="fill:none;fill-rule:evenodd;stroke:#000000;stroke-width:2.0px;stroke-linecap:butt;stroke-linejoin:miter;stroke-opacity:1"/>
<path class="bond-11 atom-11 atom-12" d="M 439.6,102.8 L 428.6,87.1" style="fill:none;fill-rule:evenodd;stroke:#000000;stroke-width:2.0px;stroke-linecap:butt;stroke-linejoin:miter;stroke-opacity:1"/>
<path class="bond-11 atom-11 atom-12" d="M 436.3,103.0 L 427.2,90.1" style="fill:none;fill-rule:evenodd;stroke:#000000;stroke-width:2.0px;stroke-linecap:butt;stroke-linejoin:miter;stroke-opacity:1"/>
<path class="bond-12 atom-12 atom-13" d="M 428.6,87.1 L 436.7,69.8" style="fill:none;fill-rule:evenodd;stroke:#000000;stroke-width:2.0px;stroke-linecap:butt;stroke-linejoin:miter;stroke-opacity:1"/>
<path class="bond-13 atom-13 atom-14" d="M 436.7,69.8 L 455.7,68.2" style="fill:none;fill-rule:evenodd;stroke:#000000;stroke-width:2.0px;stroke-linecap:butt;stroke-linejoin:miter;stroke-opacity:1"/>
<path class="bond-14 atom-14 atom-15" d="M 455.7,68.2 L 466.7,83.8" style="fill:none;fill-rule:evenodd;stroke:#000000;stroke-width:2.0px;stroke-linecap:butt;stroke-linejoin:miter;stroke-opacity:1"/>
<path class="bond-15 atom-15 atom-16" d="M 466.7,83.8 L 471.6,102.3" style="fill:none;fill-rule:evenodd;stroke:#000000;stroke-width:2.0px;stroke-linecap:butt;stroke-linejoin:miter;stroke-opacity:1"/>
<path class="bond-16 atom-15 atom-17" d="M 466.7,83.8 L 449.4,91.9" style="fill:none;fill-rule:evenodd;stroke:#000000;stroke-width:2.0px;stroke-linecap:butt;stroke-linejoin:miter;stroke-opacity:1"/>
<path class="bond-17 atom-15 atom-18" d="M 466.7,83.8 L 474.6,83.2" style="fill:none;fill-rule:evenodd;stroke:#000000;stroke-width:2.0px;stroke-linecap:butt;stroke-linejoin:miter;stroke-opacity:1"/>
<path class="bond-17 atom-15 atom-18" d="M 474.6,83.2 L 482.6,82.5" style="fill:none;fill-rule:evenodd;stroke:#FF0000;stroke-width:2.0px;stroke-linecap:butt;stroke-linejoin:miter;stroke-opacity:1"/>
<path class="bond-18 atom-18 atom-19" d="M 487.3,78.8 L 490.5,71.9" style="fill:none;fill-rule:evenodd;stroke:#FF0000;stroke-width:2.0px;stroke-linecap:butt;stroke-linejoin:miter;stroke-opacity:1"/>
<path class="bond-18 atom-18 atom-19" d="M 490.5,71.9 L 493.8,64.9" style="fill:none;fill-rule:evenodd;stroke:#000000;stroke-width:2.0px;stroke-linecap:butt;stroke-linejoin:miter;stroke-opacity:1"/>
<path class="bond-19 atom-19 atom-20" d="M 493.8,64.9 L 502.0,64.2" style="fill:none;fill-rule:evenodd;stroke:#000000;stroke-width:2.0px;stroke-linecap:butt;stroke-linejoin:miter;stroke-opacity:1"/>
<path class="bond-19 atom-19 atom-20" d="M 502.0,64.2 L 510.1,63.5" style="fill:none;fill-rule:evenodd;stroke:#0000FF;stroke-width:2.0px;stroke-linecap:butt;stroke-linejoin:miter;stroke-opacity:1"/>
<path class="bond-20 atom-20 atom-21" d="M 515.1,66.6 L 519.4,72.8" style="fill:none;fill-rule:evenodd;stroke:#0000FF;stroke-width:2.0px;stroke-linecap:butt;stroke-linejoin:miter;stroke-opacity:1"/>
<path class="bond-20 atom-20 atom-21" d="M 519.4,72.8 L 523.7,78.9" style="fill:none;fill-rule:evenodd;stroke:#000000;stroke-width:2.0px;stroke-linecap:butt;stroke-linejoin:miter;stroke-opacity:1"/>
<path class="bond-21 atom-21 atom-22" d="M 523.7,78.9 L 542.7,77.3" style="fill:none;fill-rule:evenodd;stroke:#000000;stroke-width:2.0px;stroke-linecap:butt;stroke-linejoin:miter;stroke-opacity:1"/>
<path class="bond-22 atom-22 atom-23" d="M 542.7,77.3 L 553.7,93.0" style="fill:none;fill-rule:evenodd;stroke:#000000;stroke-width:2.0px;stroke-linecap:butt;stroke-linejoin:miter;stroke-opacity:1"/>
<path class="bond-23 atom-23 atom-24" d="M 553.7,93.0 L 561.6,92.3" style="fill:none;fill-rule:evenodd;stroke:#000000;stroke-width:2.0px;stroke-linecap:butt;stroke-linejoin:miter;stroke-opacity:1"/>
<path class="bond-23 atom-23 atom-24" d="M 561.6,92.3 L 569.6,91.6" style="fill:none;fill-rule:evenodd;stroke:#FF0000;stroke-width:2.0px;stroke-linecap:butt;stroke-linejoin:miter;stroke-opacity:1"/>
<path class="bond-24 atom-21 atom-25" d="M 523.7,78.9 L 515.6,96.2" style="fill:none;fill-rule:evenodd;stroke:#000000;stroke-width:2.0px;stroke-linecap:butt;stroke-linejoin:miter;stroke-opacity:1"/>
<path class="bond-25 atom-25 atom-26" d="M 515.6,96.2 L 496.6,97.9" style="fill:none;fill-rule:evenodd;stroke:#000000;stroke-width:2.0px;stroke-linecap:butt;stroke-linejoin:miter;stroke-opacity:1"/>
<path class="bond-25 atom-25 atom-26" d="M 514.2,99.2 L 498.5,100.6" style="fill:none;fill-rule:evenodd;stroke:#000000;stroke-width:2.0px;stroke-linecap:butt;stroke-linejoin:miter;stroke-opacity:1"/>
<path class="bond-26 atom-26 atom-27" d="M 496.6,97.9 L 488.5,115.2" style="fill:none;fill-rule:evenodd;stroke:#000000;stroke-width:2.0px;stroke-linecap:butt;stroke-linejoin:miter;stroke-opacity:1"/>
<path class="bond-27 atom-27 atom-28" d="M 488.5,115.2 L 499.4,130.8" style="fill:none;fill-rule:evenodd;stroke:#000000;stroke-width:2.0px;stroke-linecap:butt;stroke-linejoin:miter;stroke-opacity:1"/>
<path class="bond-27 atom-27 atom-28" d="M 491.8,114.9 L 500.8,127.8" style="fill:none;fill-rule:evenodd;stroke:#000000;stroke-width:2.0px;stroke-linecap:butt;stroke-linejoin:miter;stroke-opacity:1"/>
<path class="bond-28 atom-28 atom-29" d="M 499.4,130.8 L 518.5,129.2" style="fill:none;fill-rule:evenodd;stroke:#000000;stroke-width:2.0px;stroke-linecap:butt;stroke-linejoin:miter;stroke-opacity:1"/>
<path class="bond-29 atom-29 atom-30" d="M 518.5,129.2 L 526.6,111.9" style="fill:none;fill-rule:evenodd;stroke:#000000;stroke-width:2.0px;stroke-linecap:butt;stroke-linejoin:miter;stroke-opacity:1"/>
<path class="bond-29 atom-29 atom-30" d="M 516.6,126.5 L 523.3,112.2" style="fill:none;fill-rule:evenodd;stroke:#000000;stroke-width:2.0px;stroke-linecap:butt;stroke-linejoin:miter;stroke-opacity:1"/>
<path class="bond-30 atom-30 atom-31" d="M 526.6,111.9 L 534.9,111.2" style="fill:none;fill-rule:evenodd;stroke:#000000;stroke-width:2.0px;stroke-linecap:butt;stroke-linejoin:miter;stroke-opacity:1"/>
<path class="bond-30 atom-30 atom-31" d="M 534.9,111.2 L 543.3,110.4" style="fill:none;fill-rule:evenodd;stroke:#33CCCC;stroke-width:2.0px;stroke-linecap:butt;stroke-linejoin:miter;stroke-opacity:1"/>
<path class="bond-31 atom-19 atom-32" d="M 493.8,64.9 L 489.5,58.8" style="fill:none;fill-rule:evenodd;stroke:#000000;stroke-width:2.0px;stroke-linecap:butt;stroke-linejoin:miter;stroke-opacity:1"/>
<path class="bond-31 atom-19 atom-32" d="M 489.5,58.8 L 485.2,52.6" style="fill:none;fill-rule:evenodd;stroke:#0000FF;stroke-width:2.0px;stroke-linecap:butt;stroke-linejoin:miter;stroke-opacity:1"/>
<path class="bond-31 atom-19 atom-32" d="M 490.5,65.2 L 486.7,59.7" style="fill:none;fill-rule:evenodd;stroke:#000000;stroke-width:2.0px;stroke-linecap:butt;stroke-linejoin:miter;stroke-opacity:1"/>
<path class="bond-31 atom-19 atom-32" d="M 486.7,59.7 L 482.8,54.2" style="fill:none;fill-rule:evenodd;stroke:#0000FF;stroke-width:2.0px;stroke-linecap:butt;stroke-linejoin:miter;stroke-opacity:1"/>
<path class="bond-32 atom-32 atom-33" d="M 480.2,49.5 L 473.2,50.1" style="fill:none;fill-rule:evenodd;stroke:#0000FF;stroke-width:2.0px;stroke-linecap:butt;stroke-linejoin:miter;stroke-opacity:1"/>
<path class="bond-32 atom-32 atom-33" d="M 473.2,50.1 L 466.2,50.7" style="fill:none;fill-rule:evenodd;stroke:#CCCC00;stroke-width:2.0px;stroke-linecap:butt;stroke-linejoin:miter;stroke-opacity:1"/>
<path class="bond-33 atom-33 atom-34" d="M 461.8,48.9 L 455.4,47.1" style="fill:none;fill-rule:evenodd;stroke:#CCCC00;stroke-width:2.0px;stroke-linecap:butt;stroke-linejoin:miter;stroke-opacity:1"/>
<path class="bond-33 atom-33 atom-34" d="M 455.4,47.1 L 448.9,45.4" style="fill:none;fill-rule:evenodd;stroke:#FF0000;stroke-width:2.0px;stroke-linecap:butt;stroke-linejoin:miter;stroke-opacity:1"/>
<path class="bond-33 atom-33 atom-34" d="M 461.1,51.6 L 454.6,49.9" style="fill:none;fill-rule:evenodd;stroke:#CCCC00;stroke-width:2.0px;stroke-linecap:butt;stroke-linejoin:miter;stroke-opacity:1"/>
<path class="bond-33 atom-33 atom-34" d="M 454.6,49.9 L 448.1,48.2" style="fill:none;fill-rule:evenodd;stroke:#FF0000;stroke-width:2.0px;stroke-linecap:butt;stroke-linejoin:miter;stroke-opacity:1"/>
<path class="bond-34 atom-33 atom-35" d="M 465.6,47.7 L 466.7,35.5" style="fill:none;fill-rule:evenodd;stroke:#CCCC00;stroke-width:2.0px;stroke-linecap:butt;stroke-linejoin:miter;stroke-opacity:1"/>
<path class="bond-34 atom-33 atom-35" d="M 462.7,47.4 L 463.8,35.2" style="fill:none;fill-rule:evenodd;stroke:#CCCC00;stroke-width:2.0px;stroke-linecap:butt;stroke-linejoin:miter;stroke-opacity:1"/>
<path class="bond-35 atom-5 atom-36" d="M 379.7,74.7 L 367.2,60.3" style="fill:none;fill-rule:evenodd;stroke:#000000;stroke-width:2.0px;stroke-linecap:butt;stroke-linejoin:miter;stroke-opacity:1"/>
<path class="bond-35 atom-5 atom-36" d="M 376.1,75.0 L 366.4,63.7" style="fill:none;fill-rule:evenodd;stroke:#000000;stroke-width:2.0px;stroke-linecap:butt;stroke-linejoin:miter;stroke-opacity:1"/>
<path class="bond-36 atom-36 atom-37" d="M 367.2,60.3 L 349.6,67.7" style="fill:none;fill-rule:evenodd;stroke:#000000;stroke-width:2.0px;stroke-linecap:butt;stroke-linejoin:miter;stroke-opacity:1"/>
<path class="bond-37 atom-37 atom-38" d="M 349.6,67.7 L 351.2,86.7" style="fill:none;fill-rule:evenodd;stroke:#000000;stroke-width:2.0px;stroke-linecap:butt;stroke-linejoin:miter;stroke-opacity:1"/>
<path class="bond-37 atom-37 atom-38" d="M 352.6,69.6 L 353.9,84.4" style="fill:none;fill-rule:evenodd;stroke:#000000;stroke-width:2.0px;stroke-linecap:butt;stroke-linejoin:miter;stroke-opacity:1"/>
<path class="bond-38 atom-38 atom-1" d="M 351.2,86.7 L 347.3,93.2" style="fill:none;fill-rule:evenodd;stroke:#000000;stroke-width:2.0px;stroke-linecap:butt;stroke-linejoin:miter;stroke-opacity:1"/>
<path class="bond-38 atom-38 atom-1" d="M 347.3,93.2 L 343.4,99.8" style="fill:none;fill-rule:evenodd;stroke:#0000FF;stroke-width:2.0px;stroke-linecap:butt;stroke-linejoin:miter;stroke-opacity:1"/>
<path class="bond-39 atom-38 atom-4" d="M 351.2,86.7 L 369.8,91.1" style="fill:none;fill-rule:evenodd;stroke:#000000;stroke-width:2.0px;stroke-linecap:butt;stroke-linejoin:miter;stroke-opacity:1"/>
<path class="bond-40 atom-12 atom-7" d="M 428.6,87.1 L 409.6,88.7" style="fill:none;fill-rule:evenodd;stroke:#000000;stroke-width:2.0px;stroke-linecap:butt;stroke-linejoin:miter;stroke-opacity:1"/>
<path class="bond-41 atom-33 atom-14" d="M 462.2,54.4 L 459.0,61.3" style="fill:none;fill-rule:evenodd;stroke:#CCCC00;stroke-width:2.0px;stroke-linecap:butt;stroke-linejoin:miter;stroke-opacity:1"/>
<path class="bond-41 atom-33 atom-14" d="M 459.0,61.3 L 455.7,68.2" style="fill:none;fill-rule:evenodd;stroke:#000000;stroke-width:2.0px;stroke-linecap:butt;stroke-linejoin:miter;stroke-opacity:1"/>
<path class="bond-42 atom-30 atom-25" d="M 526.6,111.9 L 515.6,96.2" style="fill:none;fill-rule:evenodd;stroke:#000000;stroke-width:2.0px;stroke-linecap:butt;stroke-linejoin:miter;stroke-opacity:1"/>
<path d="M 401.9,105.2 L 401.5,106.0 L 402.1,106.8" style="fill:none;stroke:#000000;stroke-width:2.0px;stroke-linecap:butt;stroke-linejoin:miter;stroke-opacity:1;"/>
<path d="M 411.9,120.9 L 412.4,121.7 L 413.4,121.6" style="fill:none;stroke:#000000;stroke-width:2.0px;stroke-linecap:butt;stroke-linejoin:miter;stroke-opacity:1;"/>
<path d="M 430.5,120.1 L 431.5,120.1 L 431.9,119.2" style="fill:none;stroke:#000000;stroke-width:2.0px;stroke-linecap:butt;stroke-linejoin:miter;stroke-opacity:1;"/>
<path d="M 439.1,103.6 L 439.6,102.8 L 439.0,102.0" style="fill:none;stroke:#000000;stroke-width:2.0px;stroke-linecap:butt;stroke-linejoin:miter;stroke-opacity:1;"/>
<path d="M 436.3,70.7 L 436.7,69.8 L 437.7,69.7" style="fill:none;stroke:#000000;stroke-width:2.0px;stroke-linecap:butt;stroke-linejoin:miter;stroke-opacity:1;"/>
<path d="M 541.8,77.4 L 542.7,77.3 L 543.3,78.1" style="fill:none;stroke:#000000;stroke-width:2.0px;stroke-linecap:butt;stroke-linejoin:miter;stroke-opacity:1;"/>
<path d="M 553.1,92.2 L 553.7,93.0 L 554.1,92.9" style="fill:none;stroke:#000000;stroke-width:2.0px;stroke-linecap:butt;stroke-linejoin:miter;stroke-opacity:1;"/>
<path d="M 497.6,97.8 L 496.6,97.9 L 496.2,98.7" style="fill:none;stroke:#000000;stroke-width:2.0px;stroke-linecap:butt;stroke-linejoin:miter;stroke-opacity:1;"/>
<path d="M 488.9,114.3 L 488.5,115.2 L 489.1,115.9" style="fill:none;stroke:#000000;stroke-width:2.0px;stroke-linecap:butt;stroke-linejoin:miter;stroke-opacity:1;"/>
<path d="M 498.9,130.0 L 499.4,130.8 L 500.4,130.7" style="fill:none;stroke:#000000;stroke-width:2.0px;stroke-linecap:butt;stroke-linejoin:miter;stroke-opacity:1;"/>
<path d="M 517.5,129.3 L 518.5,129.2 L 518.9,128.3" style="fill:none;stroke:#000000;stroke-width:2.0px;stroke-linecap:butt;stroke-linejoin:miter;stroke-opacity:1;"/>
<path d="M 367.8,61.0 L 367.2,60.3 L 366.3,60.7" style="fill:none;stroke:#000000;stroke-width:2.0px;stroke-linecap:butt;stroke-linejoin:miter;stroke-opacity:1;"/>
<path d="M 350.5,67.4 L 349.6,67.7 L 349.7,68.7" style="fill:none;stroke:#000000;stroke-width:2.0px;stroke-linecap:butt;stroke-linejoin:miter;stroke-opacity:1;"/>
<path class="atom-1" d="M 340.2 100.4 L 341.9 103.2 Q 342.1 103.5, 342.4 104.0 Q 342.7 104.6, 342.7 104.6 L 342.7 100.4 L 343.4 100.4 L 343.4 105.8 L 342.7 105.8 L 340.8 102.7 Q 340.5 102.3, 340.3 101.9 Q 340.1 101.5, 340.0 101.3 L 340.0 105.8 L 339.3 105.8 L 339.3 100.4 L 340.2 100.4 " fill="#0000FF"/>
<path class="atom-2" d="M 352.3 119.4 Q 352.4 119.4, 352.6 119.5 Q 352.9 119.6, 353.2 119.7 Q 353.4 119.7, 353.7 119.7 Q 354.2 119.7, 354.5 119.5 Q 354.8 119.2, 354.8 118.8 Q 354.8 118.5, 354.7 118.3 Q 354.5 118.1, 354.3 118.0 Q 354.1 117.9, 353.7 117.8 Q 353.2 117.7, 352.9 117.5 Q 352.6 117.4, 352.4 117.1 Q 352.2 116.8, 352.2 116.3 Q 352.2 115.7, 352.7 115.2 Q 353.2 114.8, 354.1 114.8 Q 354.7 114.8, 355.4 115.1 L 355.2 115.7 Q 354.6 115.4, 354.1 115.4 Q 353.6 115.4, 353.3 115.7 Q 353.0 115.9, 353.0 116.2 Q 353.0 116.5, 353.1 116.7 Q 353.3 116.9, 353.5 117.0 Q 353.7 117.1, 354.1 117.2 Q 354.6 117.4, 354.9 117.5 Q 355.2 117.7, 355.4 118.0 Q 355.6 118.3, 355.6 118.8 Q 355.6 119.6, 355.1 120.0 Q 354.6 120.4, 353.8 120.4 Q 353.3 120.4, 352.9 120.3 Q 352.5 120.2, 352.1 120.0 L 352.3 119.4 " fill="#CCCC00"/>
<path class="atom-3" d="M 370.2 107.4 L 372.0 110.2 Q 372.2 110.5, 372.5 111.0 Q 372.8 111.6, 372.8 111.6 L 372.8 107.4 L 373.5 107.4 L 373.5 112.8 L 372.7 112.8 L 370.8 109.7 Q 370.6 109.3, 370.4 108.9 Q 370.2 108.5, 370.1 108.3 L 370.1 112.8 L 369.4 112.8 L 369.4 107.4 L 370.2 107.4 " fill="#0000FF"/>
<path class="atom-6" d="M 397.2 75.0 Q 397.2 75.0, 397.5 75.1 Q 397.7 75.2, 398.0 75.3 Q 398.3 75.3, 398.6 75.3 Q 399.1 75.3, 399.4 75.1 Q 399.7 74.8, 399.7 74.4 Q 399.7 74.1, 399.5 73.9 Q 399.4 73.7, 399.1 73.6 Q 398.9 73.5, 398.5 73.4 Q 398.0 73.3, 397.8 73.1 Q 397.5 73.0, 397.3 72.7 Q 397.1 72.4, 397.1 71.9 Q 397.1 71.2, 397.5 70.8 Q 398.0 70.4, 398.9 70.4 Q 399.5 70.4, 400.2 70.7 L 400.1 71.3 Q 399.4 71.0, 398.9 71.0 Q 398.4 71.0, 398.1 71.2 Q 397.8 71.5, 397.8 71.8 Q 397.8 72.1, 398.0 72.3 Q 398.1 72.5, 398.3 72.6 Q 398.6 72.7, 398.9 72.8 Q 399.4 72.9, 399.7 73.1 Q 400.0 73.2, 400.2 73.6 Q 400.4 73.9, 400.4 74.4 Q 400.4 75.1, 399.9 75.5 Q 399.4 75.9, 398.6 75.9 Q 398.1 75.9, 397.7 75.8 Q 397.4 75.7, 397.0 75.6 L 397.2 75.0 " fill="#000000"/>
<path class="atom-6" d="M 401.0 70.4 L 401.7 70.4 L 401.7 71.0 L 401.0 71.0 L 401.0 70.4 M 401.0 71.9 L 401.7 71.9 L 401.7 75.8 L 401.0 75.8 L 401.0 71.9 " fill="#000000"/>
<path class="atom-18" d="M 483.2 82.2 Q 483.2 80.9, 483.8 80.2 Q 484.5 79.5, 485.7 79.5 Q 486.9 79.5, 487.5 80.2 Q 488.2 80.9, 488.2 82.2 Q 488.2 83.5, 487.5 84.3 Q 486.9 85.0, 485.7 85.0 Q 484.5 85.0, 483.8 84.3 Q 483.2 83.5, 483.2 82.2 M 485.7 84.4 Q 486.5 84.4, 487.0 83.9 Q 487.4 83.3, 487.4 82.2 Q 487.4 81.2, 487.0 80.6 Q 486.5 80.1, 485.7 80.1 Q 484.9 80.1, 484.4 80.6 Q 484.0 81.2, 484.0 82.2 Q 484.0 83.3, 484.4 83.9 Q 484.9 84.4, 485.7 84.4 " fill="#FF0000"/>
<path class="atom-20" d="M 511.6 60.6 L 513.4 63.5 Q 513.6 63.7, 513.8 64.2 Q 514.1 64.8, 514.1 64.8 L 514.1 60.6 L 514.9 60.6 L 514.9 66.0 L 514.1 66.0 L 512.2 62.9 Q 512.0 62.5, 511.8 62.1 Q 511.5 61.7, 511.5 61.5 L 511.5 66.0 L 510.8 66.0 L 510.8 60.6 L 511.6 60.6 " fill="#0000FF"/>
<path class="atom-20" d="M 515.9 60.6 L 516.6 60.6 L 516.6 62.9 L 519.4 62.9 L 519.4 60.6 L 520.1 60.6 L 520.1 66.0 L 519.4 66.0 L 519.4 63.5 L 516.6 63.5 L 516.6 66.0 L 515.9 66.0 L 515.9 60.6 " fill="#0000FF"/>
<path class="atom-24" d="M 570.2 91.4 Q 570.2 90.1, 570.8 89.3 Q 571.5 88.6, 572.7 88.6 Q 573.9 88.6, 574.5 89.3 Q 575.2 90.1, 575.2 91.4 Q 575.2 92.7, 574.5 93.4 Q 573.9 94.2, 572.7 94.2 Q 571.5 94.2, 570.8 93.4 Q 570.2 92.7, 570.2 91.4 M 572.7 93.5 Q 573.5 93.5, 574.0 93.0 Q 574.4 92.4, 574.4 91.4 Q 574.4 90.3, 574.0 89.8 Q 573.5 89.2, 572.7 89.2 Q 571.9 89.2, 571.4 89.7 Q 571.0 90.3, 571.0 91.4 Q 571.0 92.4, 571.4 93.0 Q 571.9 93.5, 572.7 93.5 " fill="#FF0000"/>
<path class="atom-24" d="M 576.0 88.7 L 576.7 88.7 L 576.7 91.0 L 579.5 91.0 L 579.5 88.7 L 580.2 88.7 L 580.2 94.1 L 579.5 94.1 L 579.5 91.6 L 576.7 91.6 L 576.7 94.1 L 576.0 94.1 L 576.0 88.7 " fill="#FF0000"/>
<path class="atom-31" d="M 544.0 107.6 L 547.2 107.6 L 547.2 108.2 L 544.7 108.2 L 544.7 109.8 L 546.9 109.8 L 546.9 110.4 L 544.7 110.4 L 544.7 113.0 L 544.0 113.0 L 544.0 107.6 " fill="#33CCCC"/>
<path class="atom-32" d="M 481.7 46.6 L 483.4 49.4 Q 483.6 49.7, 483.9 50.2 Q 484.2 50.7, 484.2 50.8 L 484.2 46.6 L 484.9 46.6 L 484.9 52.0 L 484.2 52.0 L 482.3 48.8 Q 482.0 48.5, 481.8 48.1 Q 481.6 47.6, 481.5 47.5 L 481.5 52.0 L 480.8 52.0 L 480.8 46.6 L 481.7 46.6 " fill="#0000FF"/>
<path class="atom-33" d="M 462.3 52.8 Q 462.4 52.8, 462.6 52.9 Q 462.9 53.0, 463.2 53.1 Q 463.4 53.1, 463.7 53.1 Q 464.2 53.1, 464.5 52.9 Q 464.8 52.6, 464.8 52.2 Q 464.8 51.9, 464.7 51.7 Q 464.5 51.5, 464.3 51.4 Q 464.1 51.3, 463.7 51.2 Q 463.2 51.1, 462.9 50.9 Q 462.6 50.8, 462.4 50.5 Q 462.2 50.2, 462.2 49.7 Q 462.2 49.0, 462.7 48.6 Q 463.1 48.2, 464.1 48.2 Q 464.7 48.2, 465.4 48.5 L 465.2 49.1 Q 464.6 48.8, 464.1 48.8 Q 463.6 48.8, 463.3 49.0 Q 463.0 49.3, 463.0 49.6 Q 463.0 49.9, 463.1 50.1 Q 463.3 50.3, 463.5 50.4 Q 463.7 50.5, 464.1 50.6 Q 464.6 50.7, 464.9 50.9 Q 465.2 51.0, 465.4 51.4 Q 465.6 51.7, 465.6 52.2 Q 465.6 52.9, 465.1 53.3 Q 464.6 53.7, 463.7 53.7 Q 463.3 53.7, 462.9 53.6 Q 462.5 53.5, 462.1 53.4 L 462.3 52.8 " fill="#CCCC00"/>
<path class="atom-34" d="M 442.9 45.9 Q 442.9 44.6, 443.6 43.9 Q 444.2 43.2, 445.4 43.2 Q 446.6 43.2, 447.2 43.9 Q 447.9 44.6, 447.9 45.9 Q 447.9 47.3, 447.2 48.0 Q 446.6 48.7, 445.4 48.7 Q 444.2 48.7, 443.6 48.0 Q 442.9 47.3, 442.9 45.9 M 445.4 48.1 Q 446.2 48.1, 446.7 47.6 Q 447.1 47.0, 447.1 45.9 Q 447.1 44.9, 446.7 44.3 Q 446.2 43.8, 445.4 43.8 Q 444.6 43.8, 444.1 44.3 Q 443.7 44.9, 443.7 45.9 Q 443.7 47.0, 444.1 47.6 Q 444.6 48.1, 445.4 48.1 " fill="#FF0000"/>
<path class="atom-35" d="M 464.0 33.7 Q 464.1 33.8, 464.3 33.9 Q 464.6 34.0, 464.8 34.0 Q 465.1 34.1, 465.4 34.1 Q 465.9 34.1, 466.2 33.9 Q 466.5 33.6, 466.5 33.2 Q 466.5 32.9, 466.4 32.7 Q 466.2 32.5, 466.0 32.4 Q 465.8 32.3, 465.4 32.2 Q 464.9 32.1, 464.6 31.9 Q 464.3 31.8, 464.1 31.5 Q 463.9 31.2, 463.9 30.7 Q 463.9 30.0, 464.4 29.6 Q 464.8 29.2, 465.8 29.2 Q 466.4 29.2, 467.1 29.5 L 466.9 30.1 Q 466.3 29.8, 465.8 29.8 Q 465.3 29.8, 465.0 30.0 Q 464.7 30.2, 464.7 30.6 Q 464.7 30.9, 464.8 31.1 Q 465.0 31.3, 465.2 31.4 Q 465.4 31.5, 465.8 31.6 Q 466.3 31.7, 466.6 31.9 Q 466.8 32.0, 467.1 32.3 Q 467.3 32.6, 467.3 33.2 Q 467.3 33.9, 466.8 34.3 Q 466.3 34.7, 465.4 34.7 Q 465.0 34.7, 464.6 34.6 Q 464.2 34.5, 463.8 34.3 L 464.0 33.7 " fill="#CCCC00"/>
<path class="atom-0" d="M 320.4,102.8 L 320.4,102.8 L 320.4,102.9 L 320.4,102.9 L 320.4,102.9 L 320.4,103.0 L 320.4,103.0 L 320.4,103.0 L 320.3,103.1 L 320.3,103.1 L 320.3,103.1 L 320.3,103.1 L 320.2,103.1 L 320.2,103.2 L 320.2,103.2 L 320.1,103.2 L 320.1,103.2 L 320.1,103.2 L 320.1,103.2 L 320.0,103.2 L 320.0,103.2 L 320.0,103.2 L 319.9,103.2 L 319.9,103.2 L 319.9,103.1 L 319.8,103.1 L 319.8,103.1 L 319.8,103.1 L 319.8,103.1 L 319.7,103.0 L 319.7,103.0 L 319.7,103.0 L 319.7,103.0 L 319.7,102.9 L 319.7,102.9 L 319.7,102.9 L 319.7,102.8 L 319.7,102.8 L 319.7,102.8 L 319.7,102.7 L 319.7,102.7 L 319.7,102.7 L 319.7,102.6 L 319.7,102.6 L 319.7,102.6 L 319.8,102.6 L 319.8,102.5 L 319.8,102.5 L 319.8,102.5 L 319.9,102.5 L 319.9,102.5 L 319.9,102.5 L 320.0,102.4 L 320.0,102.4 L 320.0,102.4 L 320.1,102.4 L 320.1,102.4 L 320.1,102.4 L 320.1,102.4 L 320.2,102.5 L 320.2,102.5 L 320.2,102.5 L 320.3,102.5 L 320.3,102.5 L 320.3,102.5 L 320.3,102.6 L 320.4,102.6 L 320.4,102.6 L 320.4,102.7 L 320.4,102.7 L 320.4,102.7 L 320.4,102.7 L 320.4,102.8 L 320.4,102.8 L 320.0,102.8 Z" style="fill:#000000;fill-rule:evenodd;fill-opacity:1;stroke:#000000;stroke-width:0.0px;stroke-linecap:butt;stroke-linejoin:miter;stroke-opacity:1;"/>
<path class="atom-0" d="M 320.4,106.6 L 320.4,106.7 L 320.4,106.7 L 320.4,106.7 L 320.4,106.8 L 320.4,106.8 L 320.4,106.8 L 320.4,106.8 L 320.3,106.9 L 320.3,106.9 L 320.3,106.9 L 320.3,106.9 L 320.2,107.0 L 320.2,107.0 L 320.2,107.0 L 320.1,107.0 L 320.1,107.0 L 320.1,107.0 L 320.1,107.0 L 320.0,107.0 L 320.0,107.0 L 320.0,107.0 L 319.9,107.0 L 319.9,107.0 L 319.9,107.0 L 319.8,107.0 L 319.8,106.9 L 319.8,106.9 L 319.8,106.9 L 319.7,106.9 L 319.7,106.8 L 319.7,106.8 L 319.7,106.8 L 319.7,106.7 L 319.7,106.7 L 319.7,106.7 L 319.7,106.6 L 319.7,106.6 L 319.7,106.6 L 319.7,106.5 L 319.7,106.5 L 319.7,106.5 L 319.7,106.5 L 319.7,106.4 L 319.7,106.4 L 319.8,106.4 L 319.8,106.4 L 319.8,106.3 L 319.8,106.3 L 319.9,106.3 L 319.9,106.3 L 319.9,106.3 L 320.0,106.3 L 320.0,106.3 L 320.0,106.3 L 320.1,106.2 L 320.1,106.3 L 320.1,106.3 L 320.1,106.3 L 320.2,106.3 L 320.2,106.3 L 320.2,106.3 L 320.3,106.3 L 320.3,106.3 L 320.3,106.4 L 320.3,106.4 L 320.4,106.4 L 320.4,106.4 L 320.4,106.5 L 320.4,106.5 L 320.4,106.5 L 320.4,106.6 L 320.4,106.6 L 320.4,106.6 L 320.0,106.6 Z" style="fill:#000000;fill-rule:evenodd;fill-opacity:1;stroke:#000000;stroke-width:0.0px;stroke-linecap:butt;stroke-linejoin:miter;stroke-opacity:1;"/>
<path class="atom-0" d="M 320.4,104.7 L 320.4,104.8 L 320.4,104.8 L 320.4,104.8 L 320.4,104.9 L 320.4,104.9 L 320.4,104.9 L 320.4,104.9 L 320.3,105.0 L 320.3,105.0 L 320.3,105.0 L 320.3,105.0 L 320.2,105.1 L 320.2,105.1 L 320.2,105.1 L 320.1,105.1 L 320.1,105.1 L 320.1,105.1 L 320.1,105.1 L 320.0,105.1 L 320.0,105.1 L 320.0,105.1 L 319.9,105.1 L 319.9,105.1 L 319.9,105.1 L 319.8,105.0 L 319.8,105.0 L 319.8,105.0 L 319.8,105.0 L 319.7,105.0 L 319.7,104.9 L 319.7,104.9 L 319.7,104.9 L 319.7,104.8 L 319.7,104.8 L 319.7,104.8 L 319.7,104.7 L 319.7,104.7 L 319.7,104.7 L 319.7,104.6 L 319.7,104.6 L 319.7,104.6 L 319.7,104.5 L 319.7,104.5 L 319.7,104.5 L 319.8,104.5 L 319.8,104.4 L 319.8,104.4 L 319.8,104.4 L 319.9,104.4 L 319.9,104.4 L 319.9,104.4 L 320.0,104.4 L 320.0,104.3 L 320.0,104.3 L 320.1,104.3 L 320.1,104.3 L 320.1,104.3 L 320.1,104.4 L 320.2,104.4 L 320.2,104.4 L 320.2,104.4 L 320.3,104.4 L 320.3,104.4 L 320.3,104.5 L 320.3,104.5 L 320.4,104.5 L 320.4,104.5 L 320.4,104.6 L 320.4,104.6 L 320.4,104.6 L 320.4,104.7 L 320.4,104.7 L 320.4,104.7 L 320.0,104.7 Z" style="fill:#000000;fill-rule:evenodd;fill-opacity:1;stroke:#000000;stroke-width:0.0px;stroke-linecap:butt;stroke-linejoin:miter;stroke-opacity:1;"/>
<path class="atom-6" d="M 403.2,73.9 L 403.2,73.9 L 403.2,73.9 L 403.2,73.9 L 403.2,74.0 L 403.2,74.0 L 403.2,74.0 L 403.1,74.1 L 403.1,74.1 L 403.1,74.1 L 403.1,74.1 L 403.1,74.2 L 403.0,74.2 L 403.0,74.2 L 403.0,74.2 L 402.9,74.2 L 402.9,74.2 L 402.9,74.2 L 402.8,74.2 L 402.8,74.2 L 402.8,74.2 L 402.7,74.2 L 402.7,74.2 L 402.7,74.2 L 402.7,74.2 L 402.6,74.2 L 402.6,74.2 L 402.6,74.1 L 402.5,74.1 L 402.5,74.1 L 402.5,74.1 L 402.5,74.0 L 402.5,74.0 L 402.5,74.0 L 402.5,73.9 L 402.5,73.9 L 402.5,73.9 L 402.5,73.8 L 402.5,73.8 L 402.5,73.8 L 402.5,73.7 L 402.5,73.7 L 402.5,73.7 L 402.5,73.6 L 402.5,73.6 L 402.5,73.6 L 402.6,73.6 L 402.6,73.6 L 402.6,73.5 L 402.7,73.5 L 402.7,73.5 L 402.7,73.5 L 402.7,73.5 L 402.8,73.5 L 402.8,73.5 L 402.8,73.5 L 402.9,73.5 L 402.9,73.5 L 402.9,73.5 L 403.0,73.5 L 403.0,73.5 L 403.0,73.5 L 403.1,73.5 L 403.1,73.6 L 403.1,73.6 L 403.1,73.6 L 403.1,73.6 L 403.2,73.7 L 403.2,73.7 L 403.2,73.7 L 403.2,73.8 L 403.2,73.8 L 403.2,73.8 L 403.2,73.9 L 402.8,73.9 Z" style="fill:#000000;fill-rule:evenodd;fill-opacity:1;stroke:#000000;stroke-width:0.0px;stroke-linecap:butt;stroke-linejoin:miter;stroke-opacity:1;"/>
<path class="atom-6" d="M 403.2,72.3 L 403.2,72.4 L 403.2,72.4 L 403.2,72.4 L 403.2,72.5 L 403.2,72.5 L 403.2,72.5 L 403.1,72.5 L 403.1,72.6 L 403.1,72.6 L 403.1,72.6 L 403.1,72.6 L 403.0,72.7 L 403.0,72.7 L 403.0,72.7 L 402.9,72.7 L 402.9,72.7 L 402.9,72.7 L 402.8,72.7 L 402.8,72.7 L 402.8,72.7 L 402.7,72.7 L 402.7,72.7 L 402.7,72.7 L 402.7,72.7 L 402.6,72.6 L 402.6,72.6 L 402.6,72.6 L 402.5,72.6 L 402.5,72.6 L 402.5,72.5 L 402.5,72.5 L 402.5,72.5 L 402.5,72.4 L 402.5,72.4 L 402.5,72.4 L 402.5,72.3 L 402.5,72.3 L 402.5,72.3 L 402.5,72.2 L 402.5,72.2 L 402.5,72.2 L 402.5,72.1 L 402.5,72.1 L 402.5,72.1 L 402.5,72.1 L 402.6,72.0 L 402.6,72.0 L 402.6,72.0 L 402.7,72.0 L 402.7,72.0 L 402.7,72.0 L 402.7,72.0 L 402.8,71.9 L 402.8,71.9 L 402.8,71.9 L 402.9,71.9 L 402.9,71.9 L 402.9,72.0 L 403.0,72.0 L 403.0,72.0 L 403.0,72.0 L 403.1,72.0 L 403.1,72.0 L 403.1,72.1 L 403.1,72.1 L 403.1,72.1 L 403.2,72.1 L 403.2,72.2 L 403.2,72.2 L 403.2,72.2 L 403.2,72.3 L 403.2,72.3 L 403.2,72.3 L 402.8,72.3 Z" style="fill:#000000;fill-rule:evenodd;fill-opacity:1;stroke:#000000;stroke-width:0.0px;stroke-linecap:butt;stroke-linejoin:miter;stroke-opacity:1;"/>
<path class="atom-13" d="M 434.8,70.6 L 434.8,70.6 L 434.8,70.7 L 434.8,70.7 L 434.8,70.7 L 434.8,70.7 L 434.8,70.8 L 434.7,70.8 L 434.7,70.8 L 434.7,70.9 L 434.7,70.9 L 434.7,70.9 L 434.6,70.9 L 434.6,70.9 L 434.6,70.9 L 434.5,71.0 L 434.5,71.0 L 434.5,71.0 L 434.4,71.0 L 434.4,71.0 L 434.4,71.0 L 434.3,71.0 L 434.3,70.9 L 434.3,70.9 L 434.3,70.9 L 434.2,70.9 L 434.2,70.9 L 434.2,70.9 L 434.1,70.8 L 434.1,70.8 L 434.1,70.8 L 434.1,70.8 L 434.1,70.7 L 434.1,70.7 L 434.1,70.7 L 434.1,70.6 L 434.1,70.6 L 434.1,70.6 L 434.1,70.5 L 434.1,70.5 L 434.1,70.5 L 434.1,70.4 L 434.1,70.4 L 434.1,70.4 L 434.1,70.4 L 434.1,70.3 L 434.2,70.3 L 434.2,70.3 L 434.2,70.3 L 434.3,70.2 L 434.3,70.2 L 434.3,70.2 L 434.3,70.2 L 434.4,70.2 L 434.4,70.2 L 434.4,70.2 L 434.5,70.2 L 434.5,70.2 L 434.5,70.2 L 434.6,70.2 L 434.6,70.2 L 434.6,70.3 L 434.7,70.3 L 434.7,70.3 L 434.7,70.3 L 434.7,70.3 L 434.7,70.4 L 434.8,70.4 L 434.8,70.4 L 434.8,70.5 L 434.8,70.5 L 434.8,70.5 L 434.8,70.6 L 434.8,70.6 L 434.4,70.6 Z" style="fill:#000000;fill-rule:evenodd;fill-opacity:1;stroke:#000000;stroke-width:0.0px;stroke-linecap:butt;stroke-linejoin:miter;stroke-opacity:1;"/>
<path class="atom-13" d="M 434.8,69.1 L 434.8,69.1 L 434.8,69.1 L 434.8,69.2 L 434.8,69.2 L 434.8,69.2 L 434.8,69.2 L 434.7,69.3 L 434.7,69.3 L 434.7,69.3 L 434.7,69.3 L 434.7,69.4 L 434.6,69.4 L 434.6,69.4 L 434.6,69.4 L 434.5,69.4 L 434.5,69.4 L 434.5,69.4 L 434.4,69.4 L 434.4,69.4 L 434.4,69.4 L 434.3,69.4 L 434.3,69.4 L 434.3,69.4 L 434.3,69.4 L 434.2,69.4 L 434.2,69.4 L 434.2,69.3 L 434.1,69.3 L 434.1,69.3 L 434.1,69.3 L 434.1,69.2 L 434.1,69.2 L 434.1,69.2 L 434.1,69.1 L 434.1,69.1 L 434.1,69.1 L 434.1,69.0 L 434.1,69.0 L 434.1,69.0 L 434.1,68.9 L 434.1,68.9 L 434.1,68.9 L 434.1,68.9 L 434.1,68.8 L 434.1,68.8 L 434.2,68.8 L 434.2,68.8 L 434.2,68.7 L 434.3,68.7 L 434.3,68.7 L 434.3,68.7 L 434.3,68.7 L 434.4,68.7 L 434.4,68.7 L 434.4,68.7 L 434.5,68.7 L 434.5,68.7 L 434.5,68.7 L 434.6,68.7 L 434.6,68.7 L 434.6,68.7 L 434.7,68.7 L 434.7,68.8 L 434.7,68.8 L 434.7,68.8 L 434.7,68.8 L 434.8,68.9 L 434.8,68.9 L 434.8,68.9 L 434.8,69.0 L 434.8,69.0 L 434.8,69.0 L 434.8,69.1 L 434.4,69.1 Z" style="fill:#000000;fill-rule:evenodd;fill-opacity:1;stroke:#000000;stroke-width:0.0px;stroke-linecap:butt;stroke-linejoin:miter;stroke-opacity:1;"/>
<path class="bond-0 atom-0 atom-1" d="M 801.8,128.0 L 806.2,122.0" style="fill:none;fill-rule:evenodd;stroke:#000000;stroke-width:2.0px;stroke-linecap:butt;stroke-linejoin:miter;stroke-opacity:1"/>
<path class="bond-0 atom-0 atom-1" d="M 806.2,122.0 L 810.7,116.0" style="fill:none;fill-rule:evenodd;stroke:#0000FF;stroke-width:2.0px;stroke-linecap:butt;stroke-linejoin:miter;stroke-opacity:1"/>
<path class="bond-1 atom-1 atom-2" d="M 815.8,112.7 L 822.8,112.8" style="fill:none;fill-rule:evenodd;stroke:#0000FF;stroke-width:2.0px;stroke-linecap:butt;stroke-linejoin:miter;stroke-opacity:1"/>
<path class="bond-1 atom-1 atom-2" d="M 822.8,112.8 L 829.8,112.8" style="fill:none;fill-rule:evenodd;stroke:#CCCC00;stroke-width:2.0px;stroke-linecap:butt;stroke-linejoin:miter;stroke-opacity:1"/>
<path class="bond-2 atom-2 atom-3" d="M 833.3,109.5 L 835.2,103.8" style="fill:none;fill-rule:evenodd;stroke:#CCCC00;stroke-width:2.0px;stroke-linecap:butt;stroke-linejoin:miter;stroke-opacity:1"/>
<path class="bond-2 atom-2 atom-3" d="M 835.2,103.8 L 837.2,98.1" style="fill:none;fill-rule:evenodd;stroke:#0000FF;stroke-width:2.0px;stroke-linecap:butt;stroke-linejoin:miter;stroke-opacity:1"/>
<path class="bond-3 atom-3 atom-4" d="M 835.6,92.8 L 829.3,88.1" style="fill:none;fill-rule:evenodd;stroke:#0000FF;stroke-width:2.0px;stroke-linecap:butt;stroke-linejoin:miter;stroke-opacity:1"/>
<path class="bond-3 atom-3 atom-4" d="M 829.3,88.1 L 822.9,83.4" style="fill:none;fill-rule:evenodd;stroke:#000000;stroke-width:2.0px;stroke-linecap:butt;stroke-linejoin:miter;stroke-opacity:1"/>
<path class="bond-3 atom-3 atom-4" d="M 833.9,95.1 L 828.4,91.0" style="fill:none;fill-rule:evenodd;stroke:#0000FF;stroke-width:2.0px;stroke-linecap:butt;stroke-linejoin:miter;stroke-opacity:1"/>
<path class="bond-3 atom-3 atom-4" d="M 828.4,91.0 L 822.9,86.9" style="fill:none;fill-rule:evenodd;stroke:#000000;stroke-width:2.0px;stroke-linecap:butt;stroke-linejoin:miter;stroke-opacity:1"/>
<path class="bond-4 atom-4 atom-5" d="M 822.9,83.4 L 817.2,65.2" style="fill:none;fill-rule:evenodd;stroke:#000000;stroke-width:2.0px;stroke-linecap:butt;stroke-linejoin:miter;stroke-opacity:1"/>
<path class="bond-5 atom-5 atom-6" d="M 817.2,65.2 L 826.0,53.3" style="fill:none;fill-rule:evenodd;stroke:#000000;stroke-width:2.0px;stroke-linecap:butt;stroke-linejoin:miter;stroke-opacity:1"/>
<path class="bond-6 atom-6 atom-7" d="M 829.5,49.9 L 847.5,52.0" style="fill:none;fill-rule:evenodd;stroke:#000000;stroke-width:2.0px;stroke-linecap:butt;stroke-linejoin:miter;stroke-opacity:1"/>
<path class="bond-7 atom-7 atom-8" d="M 847.5,52.0 L 855.1,69.5" style="fill:none;fill-rule:evenodd;stroke:#000000;stroke-width:2.0px;stroke-linecap:butt;stroke-linejoin:miter;stroke-opacity:1"/>
<path class="bond-7 atom-7 atom-8" d="M 850.8,52.4 L 857.1,66.8" style="fill:none;fill-rule:evenodd;stroke:#000000;stroke-width:2.0px;stroke-linecap:butt;stroke-linejoin:miter;stroke-opacity:1"/>
<path class="bond-8 atom-8 atom-9" d="M 855.1,69.5 L 874.1,71.7" style="fill:none;fill-rule:evenodd;stroke:#000000;stroke-width:2.0px;stroke-linecap:butt;stroke-linejoin:miter;stroke-opacity:1"/>
<path class="bond-9 atom-9 atom-10" d="M 874.1,71.7 L 885.4,56.3" style="fill:none;fill-rule:evenodd;stroke:#000000;stroke-width:2.0px;stroke-linecap:butt;stroke-linejoin:miter;stroke-opacity:1"/>
<path class="bond-9 atom-9 atom-10" d="M 872.8,68.6 L 882.2,55.9" style="fill:none;fill-rule:evenodd;stroke:#000000;stroke-width:2.0px;stroke-linecap:butt;stroke-linejoin:miter;stroke-opacity:1"/>
<path class="bond-10 atom-10 atom-11" d="M 885.4,56.3 L 877.8,38.8" style="fill:none;fill-rule:evenodd;stroke:#000000;stroke-width:2.0px;stroke-linecap:butt;stroke-linejoin:miter;stroke-opacity:1"/>
<path class="bond-11 atom-11 atom-12" d="M 877.8,38.8 L 858.9,36.6" style="fill:none;fill-rule:evenodd;stroke:#000000;stroke-width:2.0px;stroke-linecap:butt;stroke-linejoin:miter;stroke-opacity:1"/>
<path class="bond-11 atom-11 atom-12" d="M 875.9,41.5 L 860.2,39.7" style="fill:none;fill-rule:evenodd;stroke:#000000;stroke-width:2.0px;stroke-linecap:butt;stroke-linejoin:miter;stroke-opacity:1"/>
<path class="bond-12 atom-5 atom-13" d="M 817.2,65.2 L 798.1,65.0" style="fill:none;fill-rule:evenodd;stroke:#000000;stroke-width:2.0px;stroke-linecap:butt;stroke-linejoin:miter;stroke-opacity:1"/>
<path class="bond-12 atom-5 atom-13" d="M 815.1,68.0 L 800.2,67.9" style="fill:none;fill-rule:evenodd;stroke:#000000;stroke-width:2.0px;stroke-linecap:butt;stroke-linejoin:miter;stroke-opacity:1"/>
<path class="bond-13 atom-13 atom-14" d="M 798.1,65.0 L 792.0,83.1" style="fill:none;fill-rule:evenodd;stroke:#000000;stroke-width:2.0px;stroke-linecap:butt;stroke-linejoin:miter;stroke-opacity:1"/>
<path class="bond-14 atom-14 atom-15" d="M 792.0,83.1 L 784.3,85.5" style="fill:none;fill-rule:evenodd;stroke:#000000;stroke-width:2.0px;stroke-linecap:butt;stroke-linejoin:miter;stroke-opacity:1"/>
<path class="bond-14 atom-14 atom-15" d="M 784.3,85.5 L 776.5,88.0" style="fill:none;fill-rule:evenodd;stroke:#0000FF;stroke-width:2.0px;stroke-linecap:butt;stroke-linejoin:miter;stroke-opacity:1"/>
<path class="bond-15 atom-15 atom-16" d="M 771.2,86.4 L 765.5,81.2" style="fill:none;fill-rule:evenodd;stroke:#0000FF;stroke-width:2.0px;stroke-linecap:butt;stroke-linejoin:miter;stroke-opacity:1"/>
<path class="bond-15 atom-15 atom-16" d="M 765.5,81.2 L 759.8,75.9" style="fill:none;fill-rule:evenodd;stroke:#000000;stroke-width:2.0px;stroke-linecap:butt;stroke-linejoin:miter;stroke-opacity:1"/>
<path class="bond-16 atom-16 atom-17" d="M 759.8,75.9 L 741.6,81.7" style="fill:none;fill-rule:evenodd;stroke:#000000;stroke-width:2.0px;stroke-linecap:butt;stroke-linejoin:miter;stroke-opacity:1"/>
<path class="bond-17 atom-17 atom-18" d="M 741.6,81.7 L 727.5,68.8" style="fill:none;fill-rule:evenodd;stroke:#000000;stroke-width:2.0px;stroke-linecap:butt;stroke-linejoin:miter;stroke-opacity:1"/>
<path class="bond-18 atom-18 atom-19" d="M 727.5,68.8 L 718.7,51.8" style="fill:none;fill-rule:evenodd;stroke:#000000;stroke-width:2.0px;stroke-linecap:butt;stroke-linejoin:miter;stroke-opacity:1"/>
<path class="bond-19 atom-18 atom-20" d="M 727.5,68.8 L 742.6,57.2" style="fill:none;fill-rule:evenodd;stroke:#000000;stroke-width:2.0px;stroke-linecap:butt;stroke-linejoin:miter;stroke-opacity:1"/>
<path class="bond-20 atom-18 atom-21" d="M 727.5,68.8 L 719.9,71.2" style="fill:none;fill-rule:evenodd;stroke:#000000;stroke-width:2.0px;stroke-linecap:butt;stroke-linejoin:miter;stroke-opacity:1"/>
<path class="bond-20 atom-18 atom-21" d="M 719.9,71.2 L 712.4,73.5" style="fill:none;fill-rule:evenodd;stroke:#FF0000;stroke-width:2.0px;stroke-linecap:butt;stroke-linejoin:miter;stroke-opacity:1"/>
<path class="bond-21 atom-21 atom-22" d="M 708.5,78.0 L 706.8,85.6" style="fill:none;fill-rule:evenodd;stroke:#FF0000;stroke-width:2.0px;stroke-linecap:butt;stroke-linejoin:miter;stroke-opacity:1"/>
<path class="bond-21 atom-21 atom-22" d="M 706.8,85.6 L 705.1,93.2" style="fill:none;fill-rule:evenodd;stroke:#000000;stroke-width:2.0px;stroke-linecap:butt;stroke-linejoin:miter;stroke-opacity:1"/>
<path class="bond-22 atom-22 atom-23" d="M 705.1,93.2 L 697.4,95.6" style="fill:none;fill-rule:evenodd;stroke:#000000;stroke-width:2.0px;stroke-linecap:butt;stroke-linejoin:miter;stroke-opacity:1"/>
<path class="bond-22 atom-22 atom-23" d="M 697.4,95.6 L 689.6,98.0" style="fill:none;fill-rule:evenodd;stroke:#0000FF;stroke-width:2.0px;stroke-linecap:butt;stroke-linejoin:miter;stroke-opacity:1"/>
<path class="bond-23 atom-23 atom-24" d="M 684.3,96.4 L 678.6,91.2" style="fill:none;fill-rule:evenodd;stroke:#0000FF;stroke-width:2.0px;stroke-linecap:butt;stroke-linejoin:miter;stroke-opacity:1"/>
<path class="bond-23 atom-23 atom-24" d="M 678.6,91.2 L 672.9,86.0" style="fill:none;fill-rule:evenodd;stroke:#000000;stroke-width:2.0px;stroke-linecap:butt;stroke-linejoin:miter;stroke-opacity:1"/>
<path class="bond-24 atom-24 atom-25" d="M 672.9,86.0 L 654.7,91.7" style="fill:none;fill-rule:evenodd;stroke:#000000;stroke-width:2.0px;stroke-linecap:butt;stroke-linejoin:miter;stroke-opacity:1"/>
<path class="bond-25 atom-25 atom-26" d="M 654.7,91.7 L 640.6,78.8" style="fill:none;fill-rule:evenodd;stroke:#000000;stroke-width:2.0px;stroke-linecap:butt;stroke-linejoin:miter;stroke-opacity:1"/>
<path class="bond-26 atom-26 atom-27" d="M 640.6,78.8 L 633.0,81.2" style="fill:none;fill-rule:evenodd;stroke:#000000;stroke-width:2.0px;stroke-linecap:butt;stroke-linejoin:miter;stroke-opacity:1"/>
<path class="bond-26 atom-26 atom-27" d="M 633.0,81.2 L 625.5,83.6" style="fill:none;fill-rule:evenodd;stroke:#FF0000;stroke-width:2.0px;stroke-linecap:butt;stroke-linejoin:miter;stroke-opacity:1"/>
<path class="bond-27 atom-24 atom-28" d="M 672.9,86.0 L 677.0,67.4" style="fill:none;fill-rule:evenodd;stroke:#000000;stroke-width:2.0px;stroke-linecap:butt;stroke-linejoin:miter;stroke-opacity:1"/>
<path class="bond-28 atom-28 atom-29" d="M 677.0,67.4 L 695.2,61.6" style="fill:none;fill-rule:evenodd;stroke:#000000;stroke-width:2.0px;stroke-linecap:butt;stroke-linejoin:miter;stroke-opacity:1"/>
<path class="bond-28 atom-28 atom-29" d="M 677.7,64.1 L 692.8,59.4" style="fill:none;fill-rule:evenodd;stroke:#000000;stroke-width:2.0px;stroke-linecap:butt;stroke-linejoin:miter;stroke-opacity:1"/>
<path class="bond-29 atom-29 atom-30" d="M 695.2,61.6 L 699.3,43.0" style="fill:none;fill-rule:evenodd;stroke:#000000;stroke-width:2.0px;stroke-linecap:butt;stroke-linejoin:miter;stroke-opacity:1"/>
<path class="bond-30 atom-30 atom-31" d="M 699.3,43.0 L 685.3,30.1" style="fill:none;fill-rule:evenodd;stroke:#000000;stroke-width:2.0px;stroke-linecap:butt;stroke-linejoin:miter;stroke-opacity:1"/>
<path class="bond-30 atom-30 atom-31" d="M 696.2,44.0 L 684.5,33.3" style="fill:none;fill-rule:evenodd;stroke:#000000;stroke-width:2.0px;stroke-linecap:butt;stroke-linejoin:miter;stroke-opacity:1"/>
<path class="bond-31 atom-31 atom-32" d="M 685.3,30.1 L 667.1,35.8" style="fill:none;fill-rule:evenodd;stroke:#000000;stroke-width:2.0px;stroke-linecap:butt;stroke-linejoin:miter;stroke-opacity:1"/>
<path class="bond-32 atom-32 atom-33" d="M 667.1,35.8 L 662.9,54.5" style="fill:none;fill-rule:evenodd;stroke:#000000;stroke-width:2.0px;stroke-linecap:butt;stroke-linejoin:miter;stroke-opacity:1"/>
<path class="bond-32 atom-32 atom-33" d="M 669.5,38.1 L 666.1,53.5" style="fill:none;fill-rule:evenodd;stroke:#000000;stroke-width:2.0px;stroke-linecap:butt;stroke-linejoin:miter;stroke-opacity:1"/>
<path class="bond-33 atom-33 atom-34" d="M 662.9,54.5 L 654.9,57.0" style="fill:none;fill-rule:evenodd;stroke:#000000;stroke-width:2.0px;stroke-linecap:butt;stroke-linejoin:miter;stroke-opacity:1"/>
<path class="bond-33 atom-33 atom-34" d="M 654.9,57.0 L 647.0,59.5" style="fill:none;fill-rule:evenodd;stroke:#33CCCC;stroke-width:2.0px;stroke-linecap:butt;stroke-linejoin:miter;stroke-opacity:1"/>
<path class="bond-34 atom-22 atom-35" d="M 705.1,93.2 L 710.8,98.4" style="fill:none;fill-rule:evenodd;stroke:#000000;stroke-width:2.0px;stroke-linecap:butt;stroke-linejoin:miter;stroke-opacity:1"/>
<path class="bond-34 atom-22 atom-35" d="M 710.8,98.4 L 716.5,103.6" style="fill:none;fill-rule:evenodd;stroke:#0000FF;stroke-width:2.0px;stroke-linecap:butt;stroke-linejoin:miter;stroke-opacity:1"/>
<path class="bond-34 atom-22 atom-35" d="M 708.3,92.2 L 713.4,96.8" style="fill:none;fill-rule:evenodd;stroke:#000000;stroke-width:2.0px;stroke-linecap:butt;stroke-linejoin:miter;stroke-opacity:1"/>
<path class="bond-34 atom-22 atom-35" d="M 713.4,96.8 L 718.5,101.5" style="fill:none;fill-rule:evenodd;stroke:#0000FF;stroke-width:2.0px;stroke-linecap:butt;stroke-linejoin:miter;stroke-opacity:1"/>
<path class="bond-35 atom-35 atom-36" d="M 721.9,105.2 L 728.5,103.1" style="fill:none;fill-rule:evenodd;stroke:#0000FF;stroke-width:2.0px;stroke-linecap:butt;stroke-linejoin:miter;stroke-opacity:1"/>
<path class="bond-35 atom-35 atom-36" d="M 728.5,103.1 L 735.1,101.1" style="fill:none;fill-rule:evenodd;stroke:#CCCC00;stroke-width:2.0px;stroke-linecap:butt;stroke-linejoin:miter;stroke-opacity:1"/>
<path class="bond-36 atom-36 atom-37" d="M 739.7,101.8 L 746.5,102.1" style="fill:none;fill-rule:evenodd;stroke:#CCCC00;stroke-width:2.0px;stroke-linecap:butt;stroke-linejoin:miter;stroke-opacity:1"/>
<path class="bond-36 atom-36 atom-37" d="M 746.5,102.1 L 753.3,102.4" style="fill:none;fill-rule:evenodd;stroke:#FF0000;stroke-width:2.0px;stroke-linecap:butt;stroke-linejoin:miter;stroke-opacity:1"/>
<path class="bond-36 atom-36 atom-37" d="M 739.8,99.0 L 746.6,99.3" style="fill:none;fill-rule:evenodd;stroke:#CCCC00;stroke-width:2.0px;stroke-linecap:butt;stroke-linejoin:miter;stroke-opacity:1"/>
<path class="bond-36 atom-36 atom-37" d="M 746.6,99.3 L 753.4,99.6" style="fill:none;fill-rule:evenodd;stroke:#FF0000;stroke-width:2.0px;stroke-linecap:butt;stroke-linejoin:miter;stroke-opacity:1"/>
<path class="bond-37 atom-36 atom-38" d="M 736.5,104.0 L 737.3,110.0" style="fill:none;fill-rule:evenodd;stroke:#CCCC00;stroke-width:2.0px;stroke-linecap:butt;stroke-linejoin:miter;stroke-opacity:1"/>
<path class="bond-37 atom-36 atom-38" d="M 737.3,110.0 L 738.0,116.1" style="fill:none;fill-rule:evenodd;stroke:#FF0000;stroke-width:2.0px;stroke-linecap:butt;stroke-linejoin:miter;stroke-opacity:1"/>
<path class="bond-37 atom-36 atom-38" d="M 739.3,103.6 L 740.1,109.6" style="fill:none;fill-rule:evenodd;stroke:#CCCC00;stroke-width:2.0px;stroke-linecap:butt;stroke-linejoin:miter;stroke-opacity:1"/>
<path class="bond-37 atom-36 atom-38" d="M 740.1,109.6 L 740.9,115.7" style="fill:none;fill-rule:evenodd;stroke:#FF0000;stroke-width:2.0px;stroke-linecap:butt;stroke-linejoin:miter;stroke-opacity:1"/>
<path class="bond-38 atom-14 atom-39" d="M 792.0,83.1 L 807.4,94.5" style="fill:none;fill-rule:evenodd;stroke:#000000;stroke-width:2.0px;stroke-linecap:butt;stroke-linejoin:miter;stroke-opacity:1"/>
<path class="bond-38 atom-14 atom-39" d="M 795.4,82.0 L 807.4,90.9" style="fill:none;fill-rule:evenodd;stroke:#000000;stroke-width:2.0px;stroke-linecap:butt;stroke-linejoin:miter;stroke-opacity:1"/>
<path class="bond-39 atom-39 atom-1" d="M 807.4,94.5 L 809.7,101.9" style="fill:none;fill-rule:evenodd;stroke:#000000;stroke-width:2.0px;stroke-linecap:butt;stroke-linejoin:miter;stroke-opacity:1"/>
<path class="bond-39 atom-39 atom-1" d="M 809.7,101.9 L 812.1,109.3" style="fill:none;fill-rule:evenodd;stroke:#0000FF;stroke-width:2.0px;stroke-linecap:butt;stroke-linejoin:miter;stroke-opacity:1"/>
<path class="bond-40 atom-39 atom-4" d="M 807.4,94.5 L 822.9,83.4" style="fill:none;fill-rule:evenodd;stroke:#000000;stroke-width:2.0px;stroke-linecap:butt;stroke-linejoin:miter;stroke-opacity:1"/>
<path class="bond-41 atom-12 atom-7" d="M 858.9,36.6 L 847.5,52.0" style="fill:none;fill-rule:evenodd;stroke:#000000;stroke-width:2.0px;stroke-linecap:butt;stroke-linejoin:miter;stroke-opacity:1"/>
<path class="bond-42 atom-36 atom-17" d="M 738.2,97.0 L 739.9,89.3" style="fill:none;fill-rule:evenodd;stroke:#CCCC00;stroke-width:2.0px;stroke-linecap:butt;stroke-linejoin:miter;stroke-opacity:1"/>
<path class="bond-42 atom-36 atom-17" d="M 739.9,89.3 L 741.6,81.7" style="fill:none;fill-rule:evenodd;stroke:#000000;stroke-width:2.0px;stroke-linecap:butt;stroke-linejoin:miter;stroke-opacity:1"/>
<path class="bond-43 atom-33 atom-28" d="M 662.9,54.5 L 677.0,67.4" style="fill:none;fill-rule:evenodd;stroke:#000000;stroke-width:2.0px;stroke-linecap:butt;stroke-linejoin:miter;stroke-opacity:1"/>
<path d="M 854.7,68.6 L 855.1,69.5 L 856.1,69.6" style="fill:none;stroke:#000000;stroke-width:2.0px;stroke-linecap:butt;stroke-linejoin:miter;stroke-opacity:1;"/>
<path d="M 873.1,71.6 L 874.1,71.7 L 874.7,70.9" style="fill:none;stroke:#000000;stroke-width:2.0px;stroke-linecap:butt;stroke-linejoin:miter;stroke-opacity:1;"/>
<path d="M 884.9,57.1 L 885.4,56.3 L 885.1,55.4" style="fill:none;stroke:#000000;stroke-width:2.0px;stroke-linecap:butt;stroke-linejoin:miter;stroke-opacity:1;"/>
<path d="M 878.2,39.7 L 877.8,38.8 L 876.9,38.7" style="fill:none;stroke:#000000;stroke-width:2.0px;stroke-linecap:butt;stroke-linejoin:miter;stroke-opacity:1;"/>
<path d="M 859.8,36.8 L 858.9,36.6 L 858.3,37.4" style="fill:none;stroke:#000000;stroke-width:2.0px;stroke-linecap:butt;stroke-linejoin:miter;stroke-opacity:1;"/>
<path d="M 799.1,65.0 L 798.1,65.0 L 797.8,65.9" style="fill:none;stroke:#000000;stroke-width:2.0px;stroke-linecap:butt;stroke-linejoin:miter;stroke-opacity:1;"/>
<path d="M 760.0,76.2 L 759.8,75.9 L 758.9,76.2" style="fill:none;stroke:#000000;stroke-width:2.0px;stroke-linecap:butt;stroke-linejoin:miter;stroke-opacity:1;"/>
<path d="M 655.6,91.4 L 654.7,91.7 L 653.9,91.1" style="fill:none;stroke:#000000;stroke-width:2.0px;stroke-linecap:butt;stroke-linejoin:miter;stroke-opacity:1;"/>
<path d="M 641.3,79.5 L 640.6,78.8 L 640.2,78.9" style="fill:none;stroke:#000000;stroke-width:2.0px;stroke-linecap:butt;stroke-linejoin:miter;stroke-opacity:1;"/>
<path d="M 694.3,61.9 L 695.2,61.6 L 695.4,60.7" style="fill:none;stroke:#000000;stroke-width:2.0px;stroke-linecap:butt;stroke-linejoin:miter;stroke-opacity:1;"/>
<path d="M 699.1,43.9 L 699.3,43.0 L 698.6,42.3" style="fill:none;stroke:#000000;stroke-width:2.0px;stroke-linecap:butt;stroke-linejoin:miter;stroke-opacity:1;"/>
<path d="M 686.0,30.7 L 685.3,30.1 L 684.4,30.4" style="fill:none;stroke:#000000;stroke-width:2.0px;stroke-linecap:butt;stroke-linejoin:miter;stroke-opacity:1;"/>
<path d="M 668.0,35.5 L 667.1,35.8 L 666.9,36.7" style="fill:none;stroke:#000000;stroke-width:2.0px;stroke-linecap:butt;stroke-linejoin:miter;stroke-opacity:1;"/>
<path class="atom-1" d="M 811.9 110.0 L 813.7 112.8 Q 813.9 113.1, 814.2 113.6 Q 814.4 114.1, 814.5 114.2 L 814.5 110.0 L 815.2 110.0 L 815.2 115.4 L 814.4 115.4 L 812.5 112.2 Q 812.3 111.9, 812.1 111.5 Q 811.8 111.0, 811.8 110.9 L 811.8 115.4 L 811.1 115.4 L 811.1 110.0 L 811.9 110.0 " fill="#0000FF"/>
<path class="atom-2" d="M 830.7 114.7 Q 830.7 114.7, 831.0 114.8 Q 831.2 114.9, 831.5 115.0 Q 831.8 115.1, 832.1 115.1 Q 832.6 115.1, 832.9 114.8 Q 833.2 114.6, 833.2 114.1 Q 833.2 113.8, 833.0 113.6 Q 832.9 113.5, 832.7 113.4 Q 832.4 113.3, 832.0 113.2 Q 831.6 113.0, 831.3 112.9 Q 831.0 112.7, 830.8 112.4 Q 830.6 112.1, 830.6 111.7 Q 830.6 111.0, 831.0 110.6 Q 831.5 110.1, 832.4 110.1 Q 833.1 110.1, 833.8 110.4 L 833.6 111.0 Q 832.9 110.8, 832.5 110.8 Q 831.9 110.8, 831.6 111.0 Q 831.3 111.2, 831.4 111.6 Q 831.4 111.9, 831.5 112.0 Q 831.7 112.2, 831.9 112.3 Q 832.1 112.4, 832.5 112.5 Q 832.9 112.7, 833.2 112.8 Q 833.5 113.0, 833.7 113.3 Q 833.9 113.6, 833.9 114.1 Q 833.9 114.9, 833.4 115.3 Q 832.9 115.7, 832.1 115.7 Q 831.6 115.7, 831.3 115.6 Q 830.9 115.5, 830.5 115.3 L 830.7 114.7 " fill="#CCCC00"/>
<path class="atom-3" d="M 837.1 92.0 L 838.8 94.9 Q 839.0 95.2, 839.3 95.7 Q 839.6 96.2, 839.6 96.2 L 839.6 92.0 L 840.3 92.0 L 840.3 97.4 L 839.6 97.4 L 837.7 94.3 Q 837.5 93.9, 837.2 93.5 Q 837.0 93.1, 836.9 93.0 L 836.9 97.4 L 836.2 97.4 L 836.2 92.0 L 837.1 92.0 " fill="#0000FF"/>
<path class="atom-6" d="M 824.4 51.7 Q 824.4 51.7, 824.7 51.8 Q 824.9 51.9, 825.2 52.0 Q 825.5 52.1, 825.8 52.1 Q 826.3 52.1, 826.6 51.8 Q 826.9 51.6, 826.9 51.1 Q 826.9 50.8, 826.7 50.6 Q 826.6 50.5, 826.3 50.4 Q 826.1 50.3, 825.7 50.1 Q 825.3 50.0, 825.0 49.9 Q 824.7 49.7, 824.5 49.4 Q 824.3 49.1, 824.3 48.7 Q 824.3 48.0, 824.7 47.6 Q 825.2 47.1, 826.1 47.1 Q 826.7 47.1, 827.5 47.4 L 827.3 48.0 Q 826.6 47.8, 826.1 47.8 Q 825.6 47.8, 825.3 48.0 Q 825.0 48.2, 825.0 48.6 Q 825.0 48.9, 825.2 49.0 Q 825.3 49.2, 825.6 49.3 Q 825.8 49.4, 826.1 49.5 Q 826.6 49.7, 826.9 49.8 Q 827.2 50.0, 827.4 50.3 Q 827.6 50.6, 827.6 51.1 Q 827.6 51.9, 827.1 52.3 Q 826.6 52.7, 825.8 52.7 Q 825.3 52.7, 824.9 52.6 Q 824.6 52.5, 824.2 52.3 L 824.4 51.7 " fill="#000000"/>
<path class="atom-6" d="M 828.2 47.1 L 828.9 47.1 L 828.9 47.8 L 828.2 47.8 L 828.2 47.1 M 828.2 48.6 L 828.9 48.6 L 828.9 52.5 L 828.2 52.5 L 828.2 48.6 " fill="#000000"/>
<path class="atom-15" d="M 772.6 86.1 L 774.4 89.0 Q 774.6 89.3, 774.9 89.8 Q 775.2 90.3, 775.2 90.3 L 775.2 86.1 L 775.9 86.1 L 775.9 91.5 L 775.1 91.5 L 773.2 88.4 Q 773.0 88.0, 772.8 87.6 Q 772.6 87.2, 772.5 87.1 L 772.5 91.5 L 771.8 91.5 L 771.8 86.1 L 772.6 86.1 " fill="#0000FF"/>
<path class="atom-21" d="M 706.8 74.5 Q 706.8 73.2, 707.4 72.5 Q 708.1 71.8, 709.3 71.8 Q 710.5 71.8, 711.1 72.5 Q 711.8 73.2, 711.8 74.5 Q 711.8 75.8, 711.1 76.6 Q 710.5 77.3, 709.3 77.3 Q 708.1 77.3, 707.4 76.6 Q 706.8 75.9, 706.8 74.5 M 709.3 76.7 Q 710.1 76.7, 710.5 76.2 Q 711.0 75.6, 711.0 74.5 Q 711.0 73.5, 710.5 72.9 Q 710.1 72.4, 709.3 72.4 Q 708.4 72.4, 708.0 72.9 Q 707.6 73.5, 707.6 74.5 Q 707.6 75.6, 708.0 76.2 Q 708.4 76.7, 709.3 76.7 " fill="#FF0000"/>
<path class="atom-23" d="M 685.7 96.2 L 687.5 99.0 Q 687.7 99.3, 688.0 99.8 Q 688.2 100.4, 688.3 100.4 L 688.3 96.2 L 689.0 96.2 L 689.0 101.6 L 688.2 101.6 L 686.3 98.5 Q 686.1 98.1, 685.9 97.7 Q 685.7 97.3, 685.6 97.1 L 685.6 101.6 L 684.9 101.6 L 684.9 96.2 L 685.7 96.2 " fill="#0000FF"/>
<path class="atom-23" d="M 684.8 102.1 L 685.6 102.1 L 685.6 104.4 L 688.3 104.4 L 688.3 102.1 L 689.0 102.1 L 689.0 107.5 L 688.3 107.5 L 688.3 105.0 L 685.6 105.0 L 685.6 107.5 L 684.8 107.5 L 684.8 102.1 " fill="#0000FF"/>
<path class="atom-27" d="M 614.6 81.9 L 615.3 81.9 L 615.3 84.2 L 618.1 84.2 L 618.1 81.9 L 618.8 81.9 L 618.8 87.3 L 618.1 87.3 L 618.1 84.8 L 615.3 84.8 L 615.3 87.3 L 614.6 87.3 L 614.6 81.9 " fill="#FF0000"/>
<path class="atom-27" d="M 619.9 84.6 Q 619.9 83.3, 620.5 82.6 Q 621.2 81.8, 622.4 81.8 Q 623.6 81.8, 624.2 82.6 Q 624.9 83.3, 624.9 84.6 Q 624.9 85.9, 624.2 86.6 Q 623.6 87.4, 622.4 87.4 Q 621.2 87.4, 620.5 86.6 Q 619.9 85.9, 619.9 84.6 M 622.4 86.8 Q 623.2 86.8, 623.6 86.2 Q 624.1 85.7, 624.1 84.6 Q 624.1 83.5, 623.6 83.0 Q 623.2 82.4, 622.4 82.4 Q 621.5 82.4, 621.1 83.0 Q 620.7 83.5, 620.7 84.6 Q 620.7 85.7, 621.1 86.2 Q 621.5 86.8, 622.4 86.8 " fill="#FF0000"/>
<path class="atom-34" d="M 643.1 57.5 L 646.3 57.5 L 646.3 58.1 L 643.8 58.1 L 643.8 59.7 L 646.0 59.7 L 646.0 60.4 L 643.8 60.4 L 643.8 62.9 L 643.1 62.9 L 643.1 57.5 " fill="#33CCCC"/>
<path class="atom-35" d="M 718.0 103.3 L 719.8 106.2 Q 720.0 106.5, 720.2 107.0 Q 720.5 107.5, 720.5 107.5 L 720.5 103.3 L 721.3 103.3 L 721.3 108.8 L 720.5 108.8 L 718.6 105.6 Q 718.4 105.3, 718.2 104.8 Q 717.9 104.4, 717.9 104.3 L 717.9 108.8 L 717.2 108.8 L 717.2 103.3 L 718.0 103.3 " fill="#0000FF"/>
<path class="atom-36" d="M 735.9 102.2 Q 736.0 102.2, 736.2 102.3 Q 736.5 102.4, 736.7 102.5 Q 737.0 102.5, 737.3 102.5 Q 737.8 102.5, 738.1 102.3 Q 738.4 102.0, 738.4 101.6 Q 738.4 101.3, 738.2 101.1 Q 738.1 100.9, 737.9 100.8 Q 737.6 100.7, 737.3 100.6 Q 736.8 100.5, 736.5 100.3 Q 736.2 100.2, 736.0 99.9 Q 735.8 99.6, 735.8 99.1 Q 735.8 98.5, 736.3 98.0 Q 736.7 97.6, 737.6 97.6 Q 738.3 97.6, 739.0 97.9 L 738.8 98.5 Q 738.2 98.2, 737.7 98.2 Q 737.1 98.2, 736.8 98.5 Q 736.6 98.7, 736.6 99.0 Q 736.6 99.3, 736.7 99.5 Q 736.9 99.7, 737.1 99.8 Q 737.3 99.9, 737.7 100.0 Q 738.2 100.2, 738.4 100.3 Q 738.7 100.5, 738.9 100.8 Q 739.2 101.1, 739.2 101.6 Q 739.2 102.4, 738.6 102.8 Q 738.2 103.2, 737.3 103.2 Q 736.8 103.2, 736.5 103.0 Q 736.1 102.9, 735.7 102.8 L 735.9 102.2 " fill="#CCCC00"/>
<path class="atom-37" d="M 754.0 101.2 Q 754.0 99.9, 754.6 99.1 Q 755.3 98.4, 756.5 98.4 Q 757.7 98.4, 758.3 99.1 Q 759.0 99.9, 759.0 101.2 Q 759.0 102.5, 758.3 103.2 Q 757.7 104.0, 756.5 104.0 Q 755.3 104.0, 754.6 103.2 Q 754.0 102.5, 754.0 101.2 M 756.5 103.4 Q 757.3 103.4, 757.8 102.8 Q 758.2 102.2, 758.2 101.2 Q 758.2 100.1, 757.8 99.6 Q 757.3 99.0, 756.5 99.0 Q 755.7 99.0, 755.2 99.6 Q 754.8 100.1, 754.8 101.2 Q 754.8 102.3, 755.2 102.8 Q 755.7 103.4, 756.5 103.4 " fill="#FF0000"/>
<path class="atom-38" d="M 737.4 119.3 Q 737.4 118.0, 738.1 117.2 Q 738.7 116.5, 739.9 116.5 Q 741.1 116.5, 741.7 117.2 Q 742.4 118.0, 742.4 119.3 Q 742.4 120.6, 741.7 121.3 Q 741.1 122.1, 739.9 122.1 Q 738.7 122.1, 738.1 121.3 Q 737.4 120.6, 737.4 119.3 M 739.9 121.4 Q 740.7 121.4, 741.2 120.9 Q 741.6 120.3, 741.6 119.3 Q 741.6 118.2, 741.2 117.7 Q 740.7 117.1, 739.9 117.1 Q 739.1 117.1, 738.6 117.7 Q 738.2 118.2, 738.2 119.3 Q 738.2 120.3, 738.6 120.9 Q 739.1 121.4, 739.9 121.4 " fill="#FF0000"/>
<path class="atom-0" d="M 799.9,126.1 L 799.9,126.1 L 799.8,126.2 L 799.8,126.2 L 799.8,126.2 L 799.8,126.3 L 799.8,126.3 L 799.8,126.3 L 799.8,126.3 L 799.7,126.4 L 799.7,126.4 L 799.7,126.4 L 799.7,126.4 L 799.6,126.4 L 799.6,126.5 L 799.6,126.5 L 799.5,126.5 L 799.5,126.5 L 799.5,126.5 L 799.4,126.5 L 799.4,126.5 L 799.4,126.5 L 799.4,126.5 L 799.3,126.5 L 799.3,126.4 L 799.3,126.4 L 799.2,126.4 L 799.2,126.4 L 799.2,126.4 L 799.2,126.3 L 799.1,126.3 L 799.1,126.3 L 799.1,126.2 L 799.1,126.2 L 799.1,126.2 L 799.1,126.2 L 799.1,126.1 L 799.1,126.1 L 799.1,126.1 L 799.1,126.0 L 799.1,126.0 L 799.1,126.0 L 799.1,125.9 L 799.1,125.9 L 799.2,125.9 L 799.2,125.8 L 799.2,125.8 L 799.2,125.8 L 799.3,125.8 L 799.3,125.8 L 799.3,125.8 L 799.4,125.7 L 799.4,125.7 L 799.4,125.7 L 799.4,125.7 L 799.5,125.7 L 799.5,125.7 L 799.5,125.7 L 799.6,125.7 L 799.6,125.7 L 799.6,125.8 L 799.7,125.8 L 799.7,125.8 L 799.7,125.8 L 799.7,125.8 L 799.8,125.9 L 799.8,125.9 L 799.8,125.9 L 799.8,125.9 L 799.8,126.0 L 799.8,126.0 L 799.8,126.0 L 799.9,126.1 L 799.9,126.1 L 799.5,126.1 Z" style="fill:#000000;fill-rule:evenodd;fill-opacity:1;stroke:#000000;stroke-width:0.0px;stroke-linecap:butt;stroke-linejoin:miter;stroke-opacity:1;"/>
<path class="atom-0" d="M 799.9,129.9 L 799.9,130.0 L 799.8,130.0 L 799.8,130.0 L 799.8,130.0 L 799.8,130.1 L 799.8,130.1 L 799.8,130.1 L 799.8,130.2 L 799.7,130.2 L 799.7,130.2 L 799.7,130.2 L 799.7,130.2 L 799.6,130.3 L 799.6,130.3 L 799.6,130.3 L 799.5,130.3 L 799.5,130.3 L 799.5,130.3 L 799.4,130.3 L 799.4,130.3 L 799.4,130.3 L 799.4,130.3 L 799.3,130.3 L 799.3,130.3 L 799.3,130.2 L 799.2,130.2 L 799.2,130.2 L 799.2,130.2 L 799.2,130.1 L 799.1,130.1 L 799.1,130.1 L 799.1,130.1 L 799.1,130.0 L 799.1,130.0 L 799.1,130.0 L 799.1,129.9 L 799.1,129.9 L 799.1,129.9 L 799.1,129.8 L 799.1,129.8 L 799.1,129.8 L 799.1,129.7 L 799.1,129.7 L 799.2,129.7 L 799.2,129.7 L 799.2,129.6 L 799.2,129.6 L 799.3,129.6 L 799.3,129.6 L 799.3,129.6 L 799.4,129.6 L 799.4,129.5 L 799.4,129.5 L 799.4,129.5 L 799.5,129.5 L 799.5,129.5 L 799.5,129.5 L 799.6,129.6 L 799.6,129.6 L 799.6,129.6 L 799.7,129.6 L 799.7,129.6 L 799.7,129.6 L 799.7,129.7 L 799.8,129.7 L 799.8,129.7 L 799.8,129.7 L 799.8,129.8 L 799.8,129.8 L 799.8,129.8 L 799.8,129.9 L 799.9,129.9 L 799.9,129.9 L 799.5,129.9 Z" style="fill:#000000;fill-rule:evenodd;fill-opacity:1;stroke:#000000;stroke-width:0.0px;stroke-linecap:butt;stroke-linejoin:miter;stroke-opacity:1;"/>
<path class="atom-0" d="M 799.9,128.0 L 799.9,128.0 L 799.8,128.1 L 799.8,128.1 L 799.8,128.1 L 799.8,128.2 L 799.8,128.2 L 799.8,128.2 L 799.8,128.3 L 799.7,128.3 L 799.7,128.3 L 799.7,128.3 L 799.7,128.3 L 799.6,128.4 L 799.6,128.4 L 799.6,128.4 L 799.5,128.4 L 799.5,128.4 L 799.5,128.4 L 799.4,128.4 L 799.4,128.4 L 799.4,128.4 L 799.4,128.4 L 799.3,128.4 L 799.3,128.3 L 799.3,128.3 L 799.2,128.3 L 799.2,128.3 L 799.2,128.3 L 799.2,128.2 L 799.1,128.2 L 799.1,128.2 L 799.1,128.2 L 799.1,128.1 L 799.1,128.1 L 799.1,128.1 L 799.1,128.0 L 799.1,128.0 L 799.1,128.0 L 799.1,127.9 L 799.1,127.9 L 799.1,127.9 L 799.1,127.8 L 799.1,127.8 L 799.2,127.8 L 799.2,127.8 L 799.2,127.7 L 799.2,127.7 L 799.3,127.7 L 799.3,127.7 L 799.3,127.7 L 799.4,127.6 L 799.4,127.6 L 799.4,127.6 L 799.4,127.6 L 799.5,127.6 L 799.5,127.6 L 799.5,127.6 L 799.6,127.6 L 799.6,127.7 L 799.6,127.7 L 799.7,127.7 L 799.7,127.7 L 799.7,127.7 L 799.7,127.7 L 799.8,127.8 L 799.8,127.8 L 799.8,127.8 L 799.8,127.9 L 799.8,127.9 L 799.8,127.9 L 799.8,127.9 L 799.9,128.0 L 799.9,128.0 L 799.5,128.0 Z" style="fill:#000000;fill-rule:evenodd;fill-opacity:1;stroke:#000000;stroke-width:0.0px;stroke-linecap:butt;stroke-linejoin:miter;stroke-opacity:1;"/>
<path class="atom-6" d="M 823.4,50.6 L 823.4,50.6 L 823.4,50.7 L 823.4,50.7 L 823.4,50.7 L 823.4,50.7 L 823.3,50.8 L 823.3,50.8 L 823.3,50.8 L 823.3,50.9 L 823.3,50.9 L 823.2,50.9 L 823.2,50.9 L 823.2,50.9 L 823.2,50.9 L 823.1,51.0 L 823.1,51.0 L 823.1,51.0 L 823.0,51.0 L 823.0,51.0 L 823.0,51.0 L 822.9,51.0 L 822.9,51.0 L 822.9,50.9 L 822.8,50.9 L 822.8,50.9 L 822.8,50.9 L 822.8,50.9 L 822.7,50.8 L 822.7,50.8 L 822.7,50.8 L 822.7,50.8 L 822.7,50.7 L 822.7,50.7 L 822.6,50.7 L 822.6,50.6 L 822.6,50.6 L 822.6,50.6 L 822.6,50.5 L 822.6,50.5 L 822.7,50.5 L 822.7,50.4 L 822.7,50.4 L 822.7,50.4 L 822.7,50.4 L 822.7,50.3 L 822.8,50.3 L 822.8,50.3 L 822.8,50.3 L 822.8,50.3 L 822.9,50.2 L 822.9,50.2 L 822.9,50.2 L 823.0,50.2 L 823.0,50.2 L 823.0,50.2 L 823.1,50.2 L 823.1,50.2 L 823.1,50.2 L 823.2,50.2 L 823.2,50.2 L 823.2,50.3 L 823.2,50.3 L 823.3,50.3 L 823.3,50.3 L 823.3,50.3 L 823.3,50.4 L 823.3,50.4 L 823.4,50.4 L 823.4,50.5 L 823.4,50.5 L 823.4,50.5 L 823.4,50.6 L 823.4,50.6 L 823.0,50.6 Z" style="fill:#000000;fill-rule:evenodd;fill-opacity:1;stroke:#000000;stroke-width:0.0px;stroke-linecap:butt;stroke-linejoin:miter;stroke-opacity:1;"/>
<path class="atom-6" d="M 823.4,49.1 L 823.4,49.1 L 823.4,49.1 L 823.4,49.2 L 823.4,49.2 L 823.4,49.2 L 823.3,49.3 L 823.3,49.3 L 823.3,49.3 L 823.3,49.3 L 823.3,49.4 L 823.2,49.4 L 823.2,49.4 L 823.2,49.4 L 823.2,49.4 L 823.1,49.4 L 823.1,49.4 L 823.1,49.4 L 823.0,49.4 L 823.0,49.4 L 823.0,49.4 L 822.9,49.4 L 822.9,49.4 L 822.9,49.4 L 822.8,49.4 L 822.8,49.4 L 822.8,49.4 L 822.8,49.3 L 822.7,49.3 L 822.7,49.3 L 822.7,49.3 L 822.7,49.2 L 822.7,49.2 L 822.7,49.2 L 822.6,49.1 L 822.6,49.1 L 822.6,49.1 L 822.6,49.0 L 822.6,49.0 L 822.6,49.0 L 822.7,48.9 L 822.7,48.9 L 822.7,48.9 L 822.7,48.9 L 822.7,48.8 L 822.7,48.8 L 822.8,48.8 L 822.8,48.8 L 822.8,48.7 L 822.8,48.7 L 822.9,48.7 L 822.9,48.7 L 822.9,48.7 L 823.0,48.7 L 823.0,48.7 L 823.0,48.7 L 823.1,48.7 L 823.1,48.7 L 823.1,48.7 L 823.2,48.7 L 823.2,48.7 L 823.2,48.7 L 823.2,48.8 L 823.3,48.8 L 823.3,48.8 L 823.3,48.8 L 823.3,48.8 L 823.3,48.9 L 823.4,48.9 L 823.4,48.9 L 823.4,49.0 L 823.4,49.0 L 823.4,49.0 L 823.4,49.1 L 823.0,49.1 Z" style="fill:#000000;fill-rule:evenodd;fill-opacity:1;stroke:#000000;stroke-width:0.0px;stroke-linecap:butt;stroke-linejoin:miter;stroke-opacity:1;"/>
<path class="atom-15" d="M 777.4,88.8 L 777.4,88.9 L 777.4,88.9 L 777.4,88.9 L 777.4,89.0 L 777.4,89.0 L 777.4,89.0 L 777.3,89.1 L 777.3,89.1 L 777.3,89.1 L 777.3,89.1 L 777.3,89.1 L 777.2,89.2 L 777.2,89.2 L 777.2,89.2 L 777.1,89.2 L 777.1,89.2 L 777.1,89.2 L 777.0,89.2 L 777.0,89.2 L 777.0,89.2 L 776.9,89.2 L 776.9,89.2 L 776.9,89.2 L 776.8,89.2 L 776.8,89.2 L 776.8,89.1 L 776.8,89.1 L 776.7,89.1 L 776.7,89.1 L 776.7,89.0 L 776.7,89.0 L 776.7,89.0 L 776.7,89.0 L 776.7,88.9 L 776.7,88.9 L 776.6,88.9 L 776.6,88.8 L 776.7,88.8 L 776.7,88.8 L 776.7,88.7 L 776.7,88.7 L 776.7,88.7 L 776.7,88.6 L 776.7,88.6 L 776.7,88.6 L 776.8,88.6 L 776.8,88.5 L 776.8,88.5 L 776.8,88.5 L 776.9,88.5 L 776.9,88.5 L 776.9,88.5 L 777.0,88.5 L 777.0,88.5 L 777.0,88.5 L 777.1,88.5 L 777.1,88.5 L 777.1,88.5 L 777.2,88.5 L 777.2,88.5 L 777.2,88.5 L 777.3,88.5 L 777.3,88.6 L 777.3,88.6 L 777.3,88.6 L 777.3,88.6 L 777.4,88.7 L 777.4,88.7 L 777.4,88.7 L 777.4,88.7 L 777.4,88.8 L 777.4,88.8 L 777.4,88.8 L 777.0,88.8 Z" style="fill:#000000;fill-rule:evenodd;fill-opacity:1;stroke:#000000;stroke-width:0.0px;stroke-linecap:butt;stroke-linejoin:miter;stroke-opacity:1;"/>
</svg>