<svg xmlns="http://www.w3.org/2000/svg" xmlns:rdkit="http://www.rdkit.org/xml" xmlns:xlink="http://www.w3.org/1999/xlink" version="1.1" baseProfile="full" xml:space="preserve" width="900px" height="160px" viewBox="0 0 900 160">
<!-- END OF HEADER -->
<rect style="opacity:1.0;fill:#FFFFFF;stroke:none" width="900.0" height="160.0" x="0.0" y="0.0"> </rect>
<path class="bond-0 atom-0 atom-1" d="M 242.9,128.0 L 237.3,123.8" style="fill:none;fill-rule:evenodd;stroke:#000000;stroke-width:2.0px;stroke-linecap:butt;stroke-linejoin:miter;stroke-opacity:1"/>
<path class="bond-0 atom-0 atom-1" d="M 237.3,123.8 L 231.8,119.6" style="fill:none;fill-rule:evenodd;stroke:#CCCC00;stroke-width:2.0px;stroke-linecap:butt;stroke-linejoin:miter;stroke-opacity:1"/>
<path class="bond-0 atom-0 atom-1" d="M 244.7,125.5 L 239.2,121.3" style="fill:none;fill-rule:evenodd;stroke:#000000;stroke-width:2.0px;stroke-linecap:butt;stroke-linejoin:miter;stroke-opacity:1"/>
<path class="bond-0 atom-0 atom-1" d="M 239.2,121.3 L 233.7,117.1" style="fill:none;fill-rule:evenodd;stroke:#CCCC00;stroke-width:2.0px;stroke-linecap:butt;stroke-linejoin:miter;stroke-opacity:1"/>
<path class="bond-1 atom-1 atom-2" d="M 227.6,117.5 L 220.7,120.4" style="fill:none;fill-rule:evenodd;stroke:#CCCC00;stroke-width:2.0px;stroke-linecap:butt;stroke-linejoin:miter;stroke-opacity:1"/>
<path class="bond-1 atom-1 atom-2" d="M 220.7,120.4 L 213.9,123.3" style="fill:none;fill-rule:evenodd;stroke:#0000FF;stroke-width:2.0px;stroke-linecap:butt;stroke-linejoin:miter;stroke-opacity:1"/>
<path class="bond-2 atom-2 atom-3" d="M 209.5,128.2 L 207.1,134.2" style="fill:none;fill-rule:evenodd;stroke:#0000FF;stroke-width:2.0px;stroke-linecap:butt;stroke-linejoin:miter;stroke-opacity:1"/>
<path class="bond-2 atom-2 atom-3" d="M 207.1,134.2 L 204.6,140.3" style="fill:none;fill-rule:evenodd;stroke:#CCCC00;stroke-width:2.0px;stroke-linecap:butt;stroke-linejoin:miter;stroke-opacity:1"/>
<path class="bond-3 atom-3 atom-4" d="M 200.6,142.8 L 193.7,140.1" style="fill:none;fill-rule:evenodd;stroke:#CCCC00;stroke-width:2.0px;stroke-linecap:butt;stroke-linejoin:miter;stroke-opacity:1"/>
<path class="bond-3 atom-3 atom-4" d="M 193.7,140.1 L 186.8,137.3" style="fill:none;fill-rule:evenodd;stroke:#0000FF;stroke-width:2.0px;stroke-linecap:butt;stroke-linejoin:miter;stroke-opacity:1"/>
<path class="bond-4 atom-4 atom-5" d="M 185.3,132.4 L 188.5,124.6" style="fill:none;fill-rule:evenodd;stroke:#0000FF;stroke-width:2.0px;stroke-linecap:butt;stroke-linejoin:miter;stroke-opacity:1"/>
<path class="bond-4 atom-4 atom-5" d="M 188.5,124.6 L 191.7,116.8" style="fill:none;fill-rule:evenodd;stroke:#000000;stroke-width:2.0px;stroke-linecap:butt;stroke-linejoin:miter;stroke-opacity:1"/>
<path class="bond-4 atom-4 atom-5" d="M 188.2,133.6 L 190.8,127.2" style="fill:none;fill-rule:evenodd;stroke:#0000FF;stroke-width:2.0px;stroke-linecap:butt;stroke-linejoin:miter;stroke-opacity:1"/>
<path class="bond-4 atom-4 atom-5" d="M 190.8,127.2 L 193.4,120.8" style="fill:none;fill-rule:evenodd;stroke:#000000;stroke-width:2.0px;stroke-linecap:butt;stroke-linejoin:miter;stroke-opacity:1"/>
<path class="bond-5 atom-5 atom-6" d="M 191.7,116.8 L 188.4,109.1" style="fill:none;fill-rule:evenodd;stroke:#000000;stroke-width:2.0px;stroke-linecap:butt;stroke-linejoin:miter;stroke-opacity:1"/>
<path class="bond-5 atom-5 atom-6" d="M 188.4,109.1 L 185.2,101.4" style="fill:none;fill-rule:evenodd;stroke:#CCCC00;stroke-width:2.0px;stroke-linecap:butt;stroke-linejoin:miter;stroke-opacity:1"/>
<path class="bond-6 atom-6 atom-7" d="M 186.1,94.2 L 191.1,87.6" style="fill:none;fill-rule:evenodd;stroke:#CCCC00;stroke-width:2.0px;stroke-linecap:butt;stroke-linejoin:miter;stroke-opacity:1"/>
<path class="bond-6 atom-6 atom-7" d="M 191.1,87.6 L 196.1,81.0" style="fill:none;fill-rule:evenodd;stroke:#000000;stroke-width:2.0px;stroke-linecap:butt;stroke-linejoin:miter;stroke-opacity:1"/>
<path class="bond-7 atom-7 atom-8" d="M 196.1,81.0 L 204.8,81.2" style="fill:none;fill-rule:evenodd;stroke:#000000;stroke-width:2.0px;stroke-linecap:butt;stroke-linejoin:miter;stroke-opacity:1"/>
<path class="bond-7 atom-7 atom-8" d="M 204.8,81.2 L 213.5,81.3" style="fill:none;fill-rule:evenodd;stroke:#FF0000;stroke-width:2.0px;stroke-linecap:butt;stroke-linejoin:miter;stroke-opacity:1"/>
<path class="bond-8 atom-8 atom-9" d="M 218.2,77.7 L 220.9,69.7" style="fill:none;fill-rule:evenodd;stroke:#FF0000;stroke-width:2.0px;stroke-linecap:butt;stroke-linejoin:miter;stroke-opacity:1"/>
<path class="bond-8 atom-8 atom-9" d="M 220.9,69.7 L 223.7,61.7" style="fill:none;fill-rule:evenodd;stroke:#000000;stroke-width:2.0px;stroke-linecap:butt;stroke-linejoin:miter;stroke-opacity:1"/>
<path class="bond-9 atom-9 atom-10" d="M 223.7,61.7 L 242.8,53.6" style="fill:none;fill-rule:evenodd;stroke:#000000;stroke-width:2.0px;stroke-linecap:butt;stroke-linejoin:miter;stroke-opacity:1"/>
<path class="bond-9 atom-9 atom-10" d="M 224.1,58.1 L 240.0,51.4" style="fill:none;fill-rule:evenodd;stroke:#000000;stroke-width:2.0px;stroke-linecap:butt;stroke-linejoin:miter;stroke-opacity:1"/>
<path class="bond-10 atom-10 atom-11" d="M 242.8,53.6 L 245.4,32.9" style="fill:none;fill-rule:evenodd;stroke:#000000;stroke-width:2.0px;stroke-linecap:butt;stroke-linejoin:miter;stroke-opacity:1"/>
<path class="bond-11 atom-11 atom-12" d="M 245.4,32.9 L 228.7,20.4" style="fill:none;fill-rule:evenodd;stroke:#000000;stroke-width:2.0px;stroke-linecap:butt;stroke-linejoin:miter;stroke-opacity:1"/>
<path class="bond-11 atom-11 atom-12" d="M 242.1,34.3 L 228.3,23.9" style="fill:none;fill-rule:evenodd;stroke:#000000;stroke-width:2.0px;stroke-linecap:butt;stroke-linejoin:miter;stroke-opacity:1"/>
<path class="bond-12 atom-12 atom-13" d="M 228.7,20.4 L 209.6,28.5" style="fill:none;fill-rule:evenodd;stroke:#000000;stroke-width:2.0px;stroke-linecap:butt;stroke-linejoin:miter;stroke-opacity:1"/>
<path class="bond-13 atom-13 atom-14" d="M 209.6,28.5 L 202.5,23.2" style="fill:none;fill-rule:evenodd;stroke:#000000;stroke-width:2.0px;stroke-linecap:butt;stroke-linejoin:miter;stroke-opacity:1"/>
<path class="bond-13 atom-13 atom-14" d="M 202.5,23.2 L 195.4,17.8" style="fill:none;fill-rule:evenodd;stroke:#33CCCC;stroke-width:2.0px;stroke-linecap:butt;stroke-linejoin:miter;stroke-opacity:1"/>
<path class="bond-14 atom-13 atom-15" d="M 209.6,28.5 L 207.0,49.2" style="fill:none;fill-rule:evenodd;stroke:#000000;stroke-width:2.0px;stroke-linecap:butt;stroke-linejoin:miter;stroke-opacity:1"/>
<path class="bond-14 atom-13 atom-15" d="M 212.5,30.7 L 210.4,47.7" style="fill:none;fill-rule:evenodd;stroke:#000000;stroke-width:2.0px;stroke-linecap:butt;stroke-linejoin:miter;stroke-opacity:1"/>
<path class="bond-15 atom-15 atom-16" d="M 207.0,49.2 L 190.0,61.1" style="fill:none;fill-rule:evenodd;stroke:#000000;stroke-width:2.0px;stroke-linecap:butt;stroke-linejoin:miter;stroke-opacity:1"/>
<path class="bond-16 atom-16 atom-17" d="M 190.0,61.1 L 170.3,54.3" style="fill:none;fill-rule:evenodd;stroke:#000000;stroke-width:2.0px;stroke-linecap:butt;stroke-linejoin:miter;stroke-opacity:1"/>
<path class="bond-17 atom-17 atom-18" d="M 170.3,54.3 L 154.6,68.0" style="fill:none;fill-rule:evenodd;stroke:#000000;stroke-width:2.0px;stroke-linecap:butt;stroke-linejoin:miter;stroke-opacity:1"/>
<path class="bond-18 atom-18 atom-19" d="M 154.6,68.0 L 134.9,61.2" style="fill:none;fill-rule:evenodd;stroke:#000000;stroke-width:2.0px;stroke-linecap:butt;stroke-linejoin:miter;stroke-opacity:1"/>
<path class="bond-19 atom-19 atom-20" d="M 134.9,61.2 L 118.7,48.1" style="fill:none;fill-rule:evenodd;stroke:#000000;stroke-width:2.0px;stroke-linecap:butt;stroke-linejoin:miter;stroke-opacity:1"/>
<path class="bond-20 atom-19 atom-21" d="M 134.9,61.2 L 145.0,43.0" style="fill:none;fill-rule:evenodd;stroke:#000000;stroke-width:2.0px;stroke-linecap:butt;stroke-linejoin:miter;stroke-opacity:1"/>
<path class="bond-21 atom-19 atom-22" d="M 134.9,61.2 L 128.8,66.5" style="fill:none;fill-rule:evenodd;stroke:#000000;stroke-width:2.0px;stroke-linecap:butt;stroke-linejoin:miter;stroke-opacity:1"/>
<path class="bond-21 atom-19 atom-22" d="M 128.8,66.5 L 122.6,71.9" style="fill:none;fill-rule:evenodd;stroke:#FF0000;stroke-width:2.0px;stroke-linecap:butt;stroke-linejoin:miter;stroke-opacity:1"/>
<path class="bond-22 atom-22 atom-23" d="M 119.9,78.6 L 121.6,86.9" style="fill:none;fill-rule:evenodd;stroke:#FF0000;stroke-width:2.0px;stroke-linecap:butt;stroke-linejoin:miter;stroke-opacity:1"/>
<path class="bond-22 atom-22 atom-23" d="M 121.6,86.9 L 123.2,95.3" style="fill:none;fill-rule:evenodd;stroke:#000000;stroke-width:2.0px;stroke-linecap:butt;stroke-linejoin:miter;stroke-opacity:1"/>
<path class="bond-23 atom-23 atom-24" d="M 123.2,95.3 L 116.8,100.8" style="fill:none;fill-rule:evenodd;stroke:#000000;stroke-width:2.0px;stroke-linecap:butt;stroke-linejoin:miter;stroke-opacity:1"/>
<path class="bond-23 atom-23 atom-24" d="M 116.8,100.8 L 110.4,106.4" style="fill:none;fill-rule:evenodd;stroke:#0000FF;stroke-width:2.0px;stroke-linecap:butt;stroke-linejoin:miter;stroke-opacity:1"/>
<path class="bond-24 atom-24 atom-25" d="M 104.5,107.9 L 96.2,105.0" style="fill:none;fill-rule:evenodd;stroke:#0000FF;stroke-width:2.0px;stroke-linecap:butt;stroke-linejoin:miter;stroke-opacity:1"/>
<path class="bond-24 atom-24 atom-25" d="M 96.2,105.0 L 87.8,102.1" style="fill:none;fill-rule:evenodd;stroke:#000000;stroke-width:2.0px;stroke-linecap:butt;stroke-linejoin:miter;stroke-opacity:1"/>
<path class="bond-25 atom-25 atom-26" d="M 87.8,102.1 L 72.1,115.8" style="fill:none;fill-rule:evenodd;stroke:#000000;stroke-width:2.0px;stroke-linecap:butt;stroke-linejoin:miter;stroke-opacity:1"/>
<path class="bond-26 atom-25 atom-27" d="M 87.8,102.1 L 83.8,81.7" style="fill:none;fill-rule:evenodd;stroke:#000000;stroke-width:2.0px;stroke-linecap:butt;stroke-linejoin:miter;stroke-opacity:1"/>
<path class="bond-27 atom-27 atom-28" d="M 83.8,81.7 L 99.5,68.1" style="fill:none;fill-rule:evenodd;stroke:#000000;stroke-width:2.0px;stroke-linecap:butt;stroke-linejoin:miter;stroke-opacity:1"/>
<path class="bond-27 atom-27 atom-28" d="M 83.1,78.2 L 96.1,66.9" style="fill:none;fill-rule:evenodd;stroke:#000000;stroke-width:2.0px;stroke-linecap:butt;stroke-linejoin:miter;stroke-opacity:1"/>
<path class="bond-28 atom-28 atom-29" d="M 99.5,68.1 L 95.6,47.6" style="fill:none;fill-rule:evenodd;stroke:#000000;stroke-width:2.0px;stroke-linecap:butt;stroke-linejoin:miter;stroke-opacity:1"/>
<path class="bond-29 atom-29 atom-30" d="M 95.6,47.6 L 75.9,40.8" style="fill:none;fill-rule:evenodd;stroke:#000000;stroke-width:2.0px;stroke-linecap:butt;stroke-linejoin:miter;stroke-opacity:1"/>
<path class="bond-29 atom-29 atom-30" d="M 92.8,50.0 L 76.6,44.4" style="fill:none;fill-rule:evenodd;stroke:#000000;stroke-width:2.0px;stroke-linecap:butt;stroke-linejoin:miter;stroke-opacity:1"/>
<path class="bond-30 atom-30 atom-31" d="M 75.9,40.8 L 60.2,54.5" style="fill:none;fill-rule:evenodd;stroke:#000000;stroke-width:2.0px;stroke-linecap:butt;stroke-linejoin:miter;stroke-opacity:1"/>
<path class="bond-31 atom-31 atom-32" d="M 60.2,54.5 L 64.1,74.9" style="fill:none;fill-rule:evenodd;stroke:#000000;stroke-width:2.0px;stroke-linecap:butt;stroke-linejoin:miter;stroke-opacity:1"/>
<path class="bond-31 atom-31 atom-32" d="M 63.6,55.7 L 66.9,72.6" style="fill:none;fill-rule:evenodd;stroke:#000000;stroke-width:2.0px;stroke-linecap:butt;stroke-linejoin:miter;stroke-opacity:1"/>
<path class="bond-32 atom-32 atom-33" d="M 64.1,74.9 L 57.5,80.7" style="fill:none;fill-rule:evenodd;stroke:#000000;stroke-width:2.0px;stroke-linecap:butt;stroke-linejoin:miter;stroke-opacity:1"/>
<path class="bond-32 atom-32 atom-33" d="M 57.5,80.7 L 50.9,86.5" style="fill:none;fill-rule:evenodd;stroke:#33CCCC;stroke-width:2.0px;stroke-linecap:butt;stroke-linejoin:miter;stroke-opacity:1"/>
<path class="bond-33 atom-23 atom-34" d="M 123.2,95.3 L 131.6,98.2" style="fill:none;fill-rule:evenodd;stroke:#000000;stroke-width:2.0px;stroke-linecap:butt;stroke-linejoin:miter;stroke-opacity:1"/>
<path class="bond-33 atom-23 atom-34" d="M 131.6,98.2 L 139.9,101.0" style="fill:none;fill-rule:evenodd;stroke:#0000FF;stroke-width:2.0px;stroke-linecap:butt;stroke-linejoin:miter;stroke-opacity:1"/>
<path class="bond-33 atom-23 atom-34" d="M 125.9,92.9 L 133.4,95.5" style="fill:none;fill-rule:evenodd;stroke:#000000;stroke-width:2.0px;stroke-linecap:butt;stroke-linejoin:miter;stroke-opacity:1"/>
<path class="bond-33 atom-23 atom-34" d="M 133.4,95.5 L 141.0,98.1" style="fill:none;fill-rule:evenodd;stroke:#0000FF;stroke-width:2.0px;stroke-linecap:butt;stroke-linejoin:miter;stroke-opacity:1"/>
<path class="bond-34 atom-34 atom-35" d="M 145.8,99.5 L 150.9,95.1" style="fill:none;fill-rule:evenodd;stroke:#0000FF;stroke-width:2.0px;stroke-linecap:butt;stroke-linejoin:miter;stroke-opacity:1"/>
<path class="bond-34 atom-34 atom-35" d="M 150.9,95.1 L 156.0,90.6" style="fill:none;fill-rule:evenodd;stroke:#CCCC00;stroke-width:2.0px;stroke-linecap:butt;stroke-linejoin:miter;stroke-opacity:1"/>
<path class="bond-35 atom-35 atom-36" d="M 161.7,88.9 L 168.4,86.3" style="fill:none;fill-rule:evenodd;stroke:#CCCC00;stroke-width:2.0px;stroke-linecap:butt;stroke-linejoin:miter;stroke-opacity:1"/>
<path class="bond-35 atom-35 atom-36" d="M 168.4,86.3 L 175.2,83.7" style="fill:none;fill-rule:evenodd;stroke:#FF0000;stroke-width:2.0px;stroke-linecap:butt;stroke-linejoin:miter;stroke-opacity:1"/>
<path class="bond-35 atom-35 atom-36" d="M 160.6,86.0 L 167.3,83.4" style="fill:none;fill-rule:evenodd;stroke:#CCCC00;stroke-width:2.0px;stroke-linecap:butt;stroke-linejoin:miter;stroke-opacity:1"/>
<path class="bond-35 atom-35 atom-36" d="M 167.3,83.4 L 174.1,80.8" style="fill:none;fill-rule:evenodd;stroke:#FF0000;stroke-width:2.0px;stroke-linecap:butt;stroke-linejoin:miter;stroke-opacity:1"/>
<path class="bond-36 atom-35 atom-37" d="M 159.5,93.0 L 162.6,98.2" style="fill:none;fill-rule:evenodd;stroke:#CCCC00;stroke-width:2.0px;stroke-linecap:butt;stroke-linejoin:miter;stroke-opacity:1"/>
<path class="bond-36 atom-35 atom-37" d="M 162.6,98.2 L 165.7,103.4" style="fill:none;fill-rule:evenodd;stroke:#FF0000;stroke-width:2.0px;stroke-linecap:butt;stroke-linejoin:miter;stroke-opacity:1"/>
<path class="bond-36 atom-35 atom-37" d="M 162.2,91.4 L 165.3,96.6" style="fill:none;fill-rule:evenodd;stroke:#CCCC00;stroke-width:2.0px;stroke-linecap:butt;stroke-linejoin:miter;stroke-opacity:1"/>
<path class="bond-36 atom-35 atom-37" d="M 165.3,96.6 L 168.4,101.8" style="fill:none;fill-rule:evenodd;stroke:#FF0000;stroke-width:2.0px;stroke-linecap:butt;stroke-linejoin:miter;stroke-opacity:1"/>
<path class="bond-37 atom-5 atom-2" d="M 191.7,116.8 L 199.9,120.1" style="fill:none;fill-rule:evenodd;stroke:#000000;stroke-width:2.0px;stroke-linecap:butt;stroke-linejoin:miter;stroke-opacity:1"/>
<path class="bond-37 atom-5 atom-2" d="M 199.9,120.1 L 208.1,123.4" style="fill:none;fill-rule:evenodd;stroke:#0000FF;stroke-width:2.0px;stroke-linecap:butt;stroke-linejoin:miter;stroke-opacity:1"/>
<path class="bond-38 atom-16 atom-7" d="M 190.0,61.1 L 196.1,81.0" style="fill:none;fill-rule:evenodd;stroke:#000000;stroke-width:2.0px;stroke-linecap:butt;stroke-linejoin:miter;stroke-opacity:1"/>
<path class="bond-38 atom-16 atom-7" d="M 193.6,62.4 L 198.4,77.9" style="fill:none;fill-rule:evenodd;stroke:#000000;stroke-width:2.0px;stroke-linecap:butt;stroke-linejoin:miter;stroke-opacity:1"/>
<path class="bond-39 atom-35 atom-18" d="M 157.9,84.8 L 156.2,76.4" style="fill:none;fill-rule:evenodd;stroke:#CCCC00;stroke-width:2.0px;stroke-linecap:butt;stroke-linejoin:miter;stroke-opacity:1"/>
<path class="bond-39 atom-35 atom-18" d="M 156.2,76.4 L 154.6,68.0" style="fill:none;fill-rule:evenodd;stroke:#000000;stroke-width:2.0px;stroke-linecap:butt;stroke-linejoin:miter;stroke-opacity:1"/>
<path class="bond-40 atom-15 atom-9" d="M 207.0,49.2 L 223.7,61.7" style="fill:none;fill-rule:evenodd;stroke:#000000;stroke-width:2.0px;stroke-linecap:butt;stroke-linejoin:miter;stroke-opacity:1"/>
<path class="bond-41 atom-32 atom-27" d="M 64.1,74.9 L 83.8,81.7" style="fill:none;fill-rule:evenodd;stroke:#000000;stroke-width:2.0px;stroke-linecap:butt;stroke-linejoin:miter;stroke-opacity:1"/>
<path d="M 241.9,54.0 L 242.8,53.6 L 243.0,52.5" style="fill:none;stroke:#000000;stroke-width:2.0px;stroke-linecap:butt;stroke-linejoin:miter;stroke-opacity:1;"/>
<path d="M 245.2,33.9 L 245.4,32.9 L 244.5,32.3" style="fill:none;stroke:#000000;stroke-width:2.0px;stroke-linecap:butt;stroke-linejoin:miter;stroke-opacity:1;"/>
<path d="M 229.6,21.0 L 228.7,20.4 L 227.8,20.8" style="fill:none;stroke:#000000;stroke-width:2.0px;stroke-linecap:butt;stroke-linejoin:miter;stroke-opacity:1;"/>
<path d="M 171.3,54.7 L 170.3,54.3 L 169.5,55.0" style="fill:none;stroke:#000000;stroke-width:2.0px;stroke-linecap:butt;stroke-linejoin:miter;stroke-opacity:1;"/>
<path d="M 98.7,68.7 L 99.5,68.1 L 99.3,67.0" style="fill:none;stroke:#000000;stroke-width:2.0px;stroke-linecap:butt;stroke-linejoin:miter;stroke-opacity:1;"/>
<path d="M 95.8,48.6 L 95.6,47.6 L 94.6,47.3" style="fill:none;stroke:#000000;stroke-width:2.0px;stroke-linecap:butt;stroke-linejoin:miter;stroke-opacity:1;"/>
<path d="M 76.9,41.2 L 75.9,40.8 L 75.1,41.5" style="fill:none;stroke:#000000;stroke-width:2.0px;stroke-linecap:butt;stroke-linejoin:miter;stroke-opacity:1;"/>
<path d="M 61.0,53.8 L 60.2,54.5 L 60.4,55.5" style="fill:none;stroke:#000000;stroke-width:2.0px;stroke-linecap:butt;stroke-linejoin:miter;stroke-opacity:1;"/>
<path class="atom-0" d="M 244.5 129.0 Q 244.5 127.5, 245.2 126.8 Q 245.9 126.0, 247.2 126.0 Q 248.4 126.0, 249.0 126.9 L 248.5 127.3 Q 248.0 126.7, 247.2 126.7 Q 246.3 126.7, 245.8 127.3 Q 245.3 127.9, 245.3 129.0 Q 245.3 130.2, 245.8 130.8 Q 246.3 131.4, 247.3 131.4 Q 247.9 131.4, 248.7 131.0 L 248.9 131.6 Q 248.6 131.8, 248.1 131.9 Q 247.7 132.0, 247.1 132.0 Q 245.9 132.0, 245.2 131.3 Q 244.5 130.5, 244.5 129.0 " fill="#000000"/>
<path class="atom-0" d="M 249.7 127.0 L 251.8 127.0 L 251.8 127.4 L 249.7 127.4 L 249.7 127.0 " fill="#000000"/>
<path class="atom-1" d="M 228.5 118.5 Q 228.5 118.5, 228.8 118.6 Q 229.1 118.7, 229.4 118.8 Q 229.7 118.9, 230.0 118.9 Q 230.6 118.9, 230.9 118.6 Q 231.2 118.3, 231.2 117.9 Q 231.2 117.5, 231.0 117.3 Q 230.9 117.1, 230.6 117.0 Q 230.4 116.9, 230.0 116.8 Q 229.4 116.6, 229.1 116.5 Q 228.8 116.3, 228.6 116.0 Q 228.4 115.7, 228.4 115.2 Q 228.4 114.4, 228.9 114.0 Q 229.4 113.5, 230.4 113.5 Q 231.1 113.5, 231.8 113.8 L 231.6 114.5 Q 230.9 114.2, 230.4 114.2 Q 229.8 114.2, 229.5 114.4 Q 229.2 114.7, 229.2 115.1 Q 229.2 115.4, 229.4 115.6 Q 229.5 115.8, 229.8 115.9 Q 230.0 116.0, 230.4 116.1 Q 230.9 116.3, 231.3 116.4 Q 231.6 116.6, 231.8 117.0 Q 232.0 117.3, 232.0 117.9 Q 232.0 118.7, 231.5 119.1 Q 230.9 119.6, 230.0 119.6 Q 229.5 119.6, 229.1 119.4 Q 228.7 119.3, 228.2 119.1 L 228.5 118.5 " fill="#CCCC00"/>
<path class="atom-1" d="M 232.8 114.5 L 233.8 114.5 L 233.8 113.4 L 234.3 113.4 L 234.3 114.5 L 235.4 114.5 L 235.4 114.9 L 234.3 114.9 L 234.3 116.0 L 233.8 116.0 L 233.8 114.9 L 232.8 114.9 L 232.8 114.5 " fill="#CCCC00"/>
<path class="atom-2" d="M 209.7 121.6 L 211.6 124.8 Q 211.8 125.1, 212.1 125.6 Q 212.4 126.2, 212.4 126.2 L 212.4 121.6 L 213.2 121.6 L 213.2 127.5 L 212.4 127.5 L 210.3 124.1 Q 210.1 123.7, 209.8 123.3 Q 209.6 122.8, 209.5 122.7 L 209.5 127.5 L 208.7 127.5 L 208.7 121.6 L 209.7 121.6 " fill="#0000FF"/>
<path class="atom-3" d="M 201.5 145.9 Q 201.6 145.9, 201.9 146.0 Q 202.1 146.2, 202.4 146.2 Q 202.7 146.3, 203.0 146.3 Q 203.6 146.3, 203.9 146.0 Q 204.2 145.8, 204.2 145.3 Q 204.2 145.0, 204.1 144.8 Q 203.9 144.6, 203.7 144.5 Q 203.4 144.3, 203.0 144.2 Q 202.5 144.1, 202.2 143.9 Q 201.9 143.8, 201.6 143.4 Q 201.4 143.1, 201.4 142.6 Q 201.4 141.9, 201.9 141.4 Q 202.4 140.9, 203.4 140.9 Q 204.1 140.9, 204.9 141.3 L 204.7 141.9 Q 204.0 141.6, 203.4 141.6 Q 202.9 141.6, 202.6 141.9 Q 202.2 142.1, 202.2 142.5 Q 202.2 142.8, 202.4 143.0 Q 202.6 143.2, 202.8 143.3 Q 203.0 143.4, 203.4 143.5 Q 204.0 143.7, 204.3 143.9 Q 204.6 144.0, 204.8 144.4 Q 205.1 144.7, 205.1 145.3 Q 205.1 146.1, 204.5 146.5 Q 204.0 147.0, 203.1 147.0 Q 202.5 147.0, 202.1 146.9 Q 201.8 146.8, 201.3 146.6 L 201.5 145.9 " fill="#CCCC00"/>
<path class="atom-4" d="M 182.6 133.1 L 184.5 136.3 Q 184.7 136.6, 185.0 137.1 Q 185.3 137.7, 185.3 137.7 L 185.3 133.1 L 186.1 133.1 L 186.1 139.0 L 185.3 139.0 L 183.2 135.6 Q 183.0 135.2, 182.7 134.8 Q 182.5 134.3, 182.4 134.2 L 182.4 139.0 L 181.6 139.0 L 181.6 133.1 L 182.6 133.1 " fill="#0000FF"/>
<path class="atom-6" d="M 175.9 94.7 L 176.7 94.7 L 176.7 97.2 L 179.7 97.2 L 179.7 94.7 L 180.5 94.7 L 180.5 100.6 L 179.7 100.6 L 179.7 97.8 L 176.7 97.8 L 176.7 100.6 L 175.9 100.6 L 175.9 94.7 " fill="#CCCC00"/>
<path class="atom-6" d="M 181.9 99.7 Q 181.9 99.7, 182.2 99.8 Q 182.5 99.9, 182.8 100.0 Q 183.1 100.1, 183.4 100.1 Q 184.0 100.1, 184.3 99.8 Q 184.6 99.5, 184.6 99.0 Q 184.6 98.7, 184.4 98.5 Q 184.3 98.3, 184.0 98.2 Q 183.8 98.1, 183.4 98.0 Q 182.8 97.8, 182.5 97.7 Q 182.2 97.5, 182.0 97.2 Q 181.8 96.9, 181.8 96.3 Q 181.8 95.6, 182.3 95.1 Q 182.8 94.7, 183.8 94.7 Q 184.5 94.7, 185.2 95.0 L 185.1 95.7 Q 184.3 95.4, 183.8 95.4 Q 183.2 95.4, 182.9 95.6 Q 182.6 95.8, 182.6 96.2 Q 182.6 96.6, 182.8 96.8 Q 182.9 96.9, 183.2 97.1 Q 183.4 97.2, 183.8 97.3 Q 184.3 97.5, 184.7 97.6 Q 185.0 97.8, 185.2 98.1 Q 185.4 98.5, 185.4 99.0 Q 185.4 99.9, 184.9 100.3 Q 184.3 100.7, 183.4 100.7 Q 182.9 100.7, 182.5 100.6 Q 182.1 100.5, 181.7 100.3 L 181.9 99.7 " fill="#CCCC00"/>
<path class="atom-8" d="M 214.2 81.4 Q 214.2 80.0, 214.9 79.2 Q 215.6 78.4, 216.9 78.4 Q 218.2 78.4, 218.9 79.2 Q 219.6 80.0, 219.6 81.4 Q 219.6 82.8, 218.9 83.6 Q 218.2 84.4, 216.9 84.4 Q 215.6 84.4, 214.9 83.6 Q 214.2 82.8, 214.2 81.4 M 216.9 83.8 Q 217.8 83.8, 218.3 83.2 Q 218.8 82.6, 218.8 81.4 Q 218.8 80.2, 218.3 79.6 Q 217.8 79.1, 216.9 79.1 Q 216.0 79.1, 215.5 79.6 Q 215.0 80.2, 215.0 81.4 Q 215.0 82.6, 215.5 83.2 Q 216.0 83.8, 216.9 83.8 " fill="#FF0000"/>
<path class="atom-14" d="M 191.2 13.0 L 194.7 13.0 L 194.7 13.7 L 192.0 13.7 L 192.0 15.5 L 194.4 15.5 L 194.4 16.2 L 192.0 16.2 L 192.0 18.9 L 191.2 18.9 L 191.2 13.0 " fill="#33CCCC"/>
<path class="atom-22" d="M 116.5 74.9 Q 116.5 73.4, 117.2 72.7 Q 117.9 71.9, 119.2 71.9 Q 120.5 71.9, 121.2 72.7 Q 121.9 73.4, 121.9 74.9 Q 121.9 76.3, 121.2 77.1 Q 120.5 77.9, 119.2 77.9 Q 117.9 77.9, 117.2 77.1 Q 116.5 76.3, 116.5 74.9 M 119.2 77.2 Q 120.1 77.2, 120.6 76.6 Q 121.1 76.0, 121.1 74.9 Q 121.1 73.7, 120.6 73.1 Q 120.1 72.5, 119.2 72.5 Q 118.3 72.5, 117.8 73.1 Q 117.3 73.7, 117.3 74.9 Q 117.3 76.0, 117.8 76.6 Q 118.3 77.2, 119.2 77.2 " fill="#FF0000"/>
<path class="atom-24" d="M 106.2 106.0 L 108.1 109.1 Q 108.3 109.4, 108.6 110.0 Q 108.9 110.5, 108.9 110.6 L 108.9 106.0 L 109.7 106.0 L 109.7 111.9 L 108.9 111.9 L 106.8 108.5 Q 106.6 108.1, 106.3 107.6 Q 106.1 107.1, 106.0 107.0 L 106.0 111.9 L 105.2 111.9 L 105.2 106.0 L 106.2 106.0 " fill="#0000FF"/>
<path class="atom-24" d="M 105.2 112.5 L 106.0 112.5 L 106.0 115.0 L 109.0 115.0 L 109.0 112.5 L 109.8 112.5 L 109.8 118.4 L 109.0 118.4 L 109.0 115.6 L 106.0 115.6 L 106.0 118.4 L 105.2 118.4 L 105.2 112.5 " fill="#0000FF"/>
<path class="atom-33" d="M 46.7 85.6 L 50.2 85.6 L 50.2 86.3 L 47.5 86.3 L 47.5 88.1 L 49.9 88.1 L 49.9 88.8 L 47.5 88.8 L 47.5 91.5 L 46.7 91.5 L 46.7 85.6 " fill="#33CCCC"/>
<path class="atom-34" d="M 141.6 99.1 L 143.5 102.2 Q 143.7 102.5, 144.0 103.1 Q 144.3 103.7, 144.3 103.7 L 144.3 99.1 L 145.1 99.1 L 145.1 105.0 L 144.3 105.0 L 142.2 101.6 Q 142.0 101.2, 141.7 100.7 Q 141.5 100.3, 141.4 100.1 L 141.4 105.0 L 140.6 105.0 L 140.6 99.1 L 141.6 99.1 " fill="#0000FF"/>
<path class="atom-35" d="M 156.9 90.4 Q 157.0 90.4, 157.2 90.6 Q 157.5 90.7, 157.8 90.8 Q 158.1 90.8, 158.4 90.8 Q 159.0 90.8, 159.3 90.6 Q 159.6 90.3, 159.6 89.8 Q 159.6 89.5, 159.5 89.3 Q 159.3 89.1, 159.1 89.0 Q 158.8 88.9, 158.4 88.7 Q 157.9 88.6, 157.6 88.4 Q 157.2 88.3, 157.0 88.0 Q 156.8 87.7, 156.8 87.1 Q 156.8 86.4, 157.3 85.9 Q 157.8 85.5, 158.8 85.5 Q 159.5 85.5, 160.3 85.8 L 160.1 86.4 Q 159.4 86.1, 158.8 86.1 Q 158.3 86.1, 157.9 86.4 Q 157.6 86.6, 157.6 87.0 Q 157.6 87.3, 157.8 87.5 Q 158.0 87.7, 158.2 87.8 Q 158.4 87.9, 158.8 88.1 Q 159.4 88.2, 159.7 88.4 Q 160.0 88.6, 160.2 88.9 Q 160.5 89.2, 160.5 89.8 Q 160.5 90.6, 159.9 91.1 Q 159.4 91.5, 158.5 91.5 Q 157.9 91.5, 157.5 91.4 Q 157.1 91.3, 156.7 91.1 L 156.9 90.4 " fill="#CCCC00"/>
<path class="atom-36" d="M 175.3 81.0 Q 175.3 79.5, 176.0 78.8 Q 176.7 78.0, 178.0 78.0 Q 179.3 78.0, 180.0 78.8 Q 180.7 79.5, 180.7 81.0 Q 180.7 82.4, 180.0 83.2 Q 179.3 84.0, 178.0 84.0 Q 176.7 84.0, 176.0 83.2 Q 175.3 82.4, 175.3 81.0 M 178.0 83.4 Q 178.9 83.4, 179.4 82.8 Q 179.9 82.1, 179.9 81.0 Q 179.9 79.8, 179.4 79.2 Q 178.9 78.6, 178.0 78.6 Q 177.1 78.6, 176.6 79.2 Q 176.1 79.8, 176.1 81.0 Q 176.1 82.2, 176.6 82.8 Q 177.1 83.4, 178.0 83.4 " fill="#FF0000"/>
<path class="atom-37" d="M 166.6 106.3 Q 166.6 104.8, 167.3 104.1 Q 168.0 103.3, 169.3 103.3 Q 170.6 103.3, 171.3 104.1 Q 172.0 104.8, 172.0 106.3 Q 172.0 107.7, 171.3 108.5 Q 170.6 109.3, 169.3 109.3 Q 168.0 109.3, 167.3 108.5 Q 166.6 107.7, 166.6 106.3 M 169.3 108.6 Q 170.2 108.6, 170.7 108.1 Q 171.2 107.4, 171.2 106.3 Q 171.2 105.1, 170.7 104.5 Q 170.2 103.9, 169.3 103.9 Q 168.4 103.9, 167.9 104.5 Q 167.4 105.1, 167.4 106.3 Q 167.4 107.5, 167.9 108.1 Q 168.4 108.6, 169.3 108.6 " fill="#FF0000"/>
<path class="atom-0" d="M 253.4,129.0 L 253.4,129.0 L 253.4,129.1 L 253.4,129.1 L 253.4,129.1 L 253.4,129.2 L 253.4,129.2 L 253.4,129.2 L 253.3,129.2 L 253.3,129.3 L 253.3,129.3 L 253.3,129.3 L 253.2,129.3 L 253.2,129.4 L 253.2,129.4 L 253.1,129.4 L 253.1,129.4 L 253.1,129.4 L 253.0,129.4 L 253.0,129.4 L 252.9,129.4 L 252.9,129.4 L 252.9,129.4 L 252.8,129.4 L 252.8,129.3 L 252.8,129.3 L 252.8,129.3 L 252.7,129.3 L 252.7,129.3 L 252.7,129.2 L 252.7,129.2 L 252.6,129.2 L 252.6,129.1 L 252.6,129.1 L 252.6,129.1 L 252.6,129.0 L 252.6,129.0 L 252.6,129.0 L 252.6,128.9 L 252.6,128.9 L 252.6,128.9 L 252.6,128.8 L 252.6,128.8 L 252.7,128.8 L 252.7,128.7 L 252.7,128.7 L 252.7,128.7 L 252.8,128.7 L 252.8,128.6 L 252.8,128.6 L 252.8,128.6 L 252.9,128.6 L 252.9,128.6 L 252.9,128.6 L 253.0,128.6 L 253.0,128.6 L 253.1,128.6 L 253.1,128.6 L 253.1,128.6 L 253.2,128.6 L 253.2,128.6 L 253.2,128.6 L 253.3,128.6 L 253.3,128.7 L 253.3,128.7 L 253.3,128.7 L 253.4,128.7 L 253.4,128.8 L 253.4,128.8 L 253.4,128.8 L 253.4,128.9 L 253.4,128.9 L 253.4,128.9 L 253.4,129.0 L 253.0,129.0 Z" style="fill:#000000;fill-rule:evenodd;fill-opacity:1;stroke:#000000;stroke-width:0.0px;stroke-linecap:butt;stroke-linejoin:miter;stroke-opacity:1;"/>
<path class="atom-6" d="M 175.1,97.6 L 175.1,97.7 L 175.1,97.7 L 175.1,97.7 L 175.1,97.8 L 175.0,97.8 L 175.0,97.8 L 175.0,97.9 L 175.0,97.9 L 175.0,97.9 L 174.9,97.9 L 174.9,98.0 L 174.9,98.0 L 174.9,98.0 L 174.8,98.0 L 174.8,98.0 L 174.7,98.0 L 174.7,98.0 L 174.7,98.0 L 174.6,98.0 L 174.6,98.0 L 174.6,98.0 L 174.5,98.0 L 174.5,98.0 L 174.5,98.0 L 174.4,98.0 L 174.4,97.9 L 174.4,97.9 L 174.4,97.9 L 174.3,97.9 L 174.3,97.8 L 174.3,97.8 L 174.3,97.8 L 174.3,97.7 L 174.3,97.7 L 174.3,97.7 L 174.3,97.6 L 174.3,97.6 L 174.3,97.6 L 174.3,97.5 L 174.3,97.5 L 174.3,97.5 L 174.3,97.4 L 174.3,97.4 L 174.3,97.4 L 174.4,97.3 L 174.4,97.3 L 174.4,97.3 L 174.4,97.3 L 174.5,97.3 L 174.5,97.2 L 174.5,97.2 L 174.6,97.2 L 174.6,97.2 L 174.6,97.2 L 174.7,97.2 L 174.7,97.2 L 174.7,97.2 L 174.8,97.2 L 174.8,97.2 L 174.9,97.2 L 174.9,97.3 L 174.9,97.3 L 174.9,97.3 L 175.0,97.3 L 175.0,97.4 L 175.0,97.4 L 175.0,97.4 L 175.0,97.4 L 175.1,97.5 L 175.1,97.5 L 175.1,97.6 L 175.1,97.6 L 175.1,97.6 L 174.7,97.6 Z" style="fill:#000000;fill-rule:evenodd;fill-opacity:1;stroke:#000000;stroke-width:0.0px;stroke-linecap:butt;stroke-linejoin:miter;stroke-opacity:1;"/>
<path class="bond-0 atom-0 atom-1" d="M 324.2,94.7 L 330.7,98.0" style="fill:none;fill-rule:evenodd;stroke:#000000;stroke-width:2.0px;stroke-linecap:butt;stroke-linejoin:miter;stroke-opacity:1"/>
<path class="bond-0 atom-0 atom-1" d="M 330.7,98.0 L 337.3,101.2" style="fill:none;fill-rule:evenodd;stroke:#CCCC00;stroke-width:2.0px;stroke-linecap:butt;stroke-linejoin:miter;stroke-opacity:1"/>
<path class="bond-0 atom-0 atom-1" d="M 322.8,97.5 L 329.3,100.8" style="fill:none;fill-rule:evenodd;stroke:#000000;stroke-width:2.0px;stroke-linecap:butt;stroke-linejoin:miter;stroke-opacity:1"/>
<path class="bond-0 atom-0 atom-1" d="M 329.3,100.8 L 335.9,104.0" style="fill:none;fill-rule:evenodd;stroke:#CCCC00;stroke-width:2.0px;stroke-linecap:butt;stroke-linejoin:miter;stroke-opacity:1"/>
<path class="bond-1 atom-1 atom-2" d="M 344.8,100.1 L 349.2,97.2" style="fill:none;fill-rule:evenodd;stroke:#CCCC00;stroke-width:2.0px;stroke-linecap:butt;stroke-linejoin:miter;stroke-opacity:1"/>
<path class="bond-1 atom-1 atom-2" d="M 349.2,97.2 L 353.6,94.3" style="fill:none;fill-rule:evenodd;stroke:#0000FF;stroke-width:2.0px;stroke-linecap:butt;stroke-linejoin:miter;stroke-opacity:1"/>
<path class="bond-2 atom-2 atom-3" d="M 357.2,88.7 L 358.5,82.2" style="fill:none;fill-rule:evenodd;stroke:#0000FF;stroke-width:2.0px;stroke-linecap:butt;stroke-linejoin:miter;stroke-opacity:1"/>
<path class="bond-2 atom-2 atom-3" d="M 358.5,82.2 L 359.8,75.7" style="fill:none;fill-rule:evenodd;stroke:#CCCC00;stroke-width:2.0px;stroke-linecap:butt;stroke-linejoin:miter;stroke-opacity:1"/>
<path class="bond-3 atom-3 atom-4" d="M 363.1,72.4 L 370.6,73.9" style="fill:none;fill-rule:evenodd;stroke:#CCCC00;stroke-width:2.0px;stroke-linecap:butt;stroke-linejoin:miter;stroke-opacity:1"/>
<path class="bond-3 atom-3 atom-4" d="M 370.6,73.9 L 378.0,75.4" style="fill:none;fill-rule:evenodd;stroke:#0000FF;stroke-width:2.0px;stroke-linecap:butt;stroke-linejoin:miter;stroke-opacity:1"/>
<path class="bond-4 atom-4 atom-5" d="M 380.2,79.6 L 378.6,88.0" style="fill:none;fill-rule:evenodd;stroke:#0000FF;stroke-width:2.0px;stroke-linecap:butt;stroke-linejoin:miter;stroke-opacity:1"/>
<path class="bond-4 atom-4 atom-5" d="M 378.6,88.0 L 376.9,96.4" style="fill:none;fill-rule:evenodd;stroke:#000000;stroke-width:2.0px;stroke-linecap:butt;stroke-linejoin:miter;stroke-opacity:1"/>
<path class="bond-4 atom-4 atom-5" d="M 377.2,79.0 L 375.8,85.8" style="fill:none;fill-rule:evenodd;stroke:#0000FF;stroke-width:2.0px;stroke-linecap:butt;stroke-linejoin:miter;stroke-opacity:1"/>
<path class="bond-4 atom-4 atom-5" d="M 375.8,85.8 L 374.4,92.7" style="fill:none;fill-rule:evenodd;stroke:#000000;stroke-width:2.0px;stroke-linecap:butt;stroke-linejoin:miter;stroke-opacity:1"/>
<path class="bond-5 atom-5 atom-6" d="M 376.9,96.4 L 381.5,103.2" style="fill:none;fill-rule:evenodd;stroke:#000000;stroke-width:2.0px;stroke-linecap:butt;stroke-linejoin:miter;stroke-opacity:1"/>
<path class="bond-5 atom-5 atom-6" d="M 381.5,103.2 L 386.0,110.0" style="fill:none;fill-rule:evenodd;stroke:#CCCC00;stroke-width:2.0px;stroke-linecap:butt;stroke-linejoin:miter;stroke-opacity:1"/>
<path class="bond-6 atom-6 atom-7" d="M 391.0,113.5 L 400.1,112.9" style="fill:none;fill-rule:evenodd;stroke:#CCCC00;stroke-width:2.0px;stroke-linecap:butt;stroke-linejoin:miter;stroke-opacity:1"/>
<path class="bond-6 atom-6 atom-7" d="M 400.1,112.9 L 409.2,112.3" style="fill:none;fill-rule:evenodd;stroke:#000000;stroke-width:2.0px;stroke-linecap:butt;stroke-linejoin:miter;stroke-opacity:1"/>
<path class="bond-7 atom-7 atom-8" d="M 409.2,112.3 L 415.4,117.7" style="fill:none;fill-rule:evenodd;stroke:#000000;stroke-width:2.0px;stroke-linecap:butt;stroke-linejoin:miter;stroke-opacity:1"/>
<path class="bond-7 atom-7 atom-8" d="M 415.4,117.7 L 421.5,123.0" style="fill:none;fill-rule:evenodd;stroke:#FF0000;stroke-width:2.0px;stroke-linecap:butt;stroke-linejoin:miter;stroke-opacity:1"/>
<path class="bond-8 atom-8 atom-9" d="M 428.1,122.3 L 433.4,116.3" style="fill:none;fill-rule:evenodd;stroke:#FF0000;stroke-width:2.0px;stroke-linecap:butt;stroke-linejoin:miter;stroke-opacity:1"/>
<path class="bond-8 atom-8 atom-9" d="M 433.4,116.3 L 438.6,110.3" style="fill:none;fill-rule:evenodd;stroke:#000000;stroke-width:2.0px;stroke-linecap:butt;stroke-linejoin:miter;stroke-opacity:1"/>
<path class="bond-9 atom-9 atom-10" d="M 438.6,110.3 L 459.1,106.7" style="fill:none;fill-rule:evenodd;stroke:#000000;stroke-width:2.0px;stroke-linecap:butt;stroke-linejoin:miter;stroke-opacity:1"/>
<path class="bond-9 atom-9 atom-10" d="M 439.5,107.0 L 457.1,103.9" style="fill:none;fill-rule:evenodd;stroke:#000000;stroke-width:2.0px;stroke-linecap:butt;stroke-linejoin:miter;stroke-opacity:1"/>
<path class="bond-10 atom-10 atom-11" d="M 459.1,106.7 L 469.0,88.3" style="fill:none;fill-rule:evenodd;stroke:#000000;stroke-width:2.0px;stroke-linecap:butt;stroke-linejoin:miter;stroke-opacity:1"/>
<path class="bond-11 atom-11 atom-12" d="M 469.0,88.3 L 460.8,69.2" style="fill:none;fill-rule:evenodd;stroke:#000000;stroke-width:2.0px;stroke-linecap:butt;stroke-linejoin:miter;stroke-opacity:1"/>
<path class="bond-11 atom-11 atom-12" d="M 465.5,88.2 L 458.5,71.8" style="fill:none;fill-rule:evenodd;stroke:#000000;stroke-width:2.0px;stroke-linecap:butt;stroke-linejoin:miter;stroke-opacity:1"/>
<path class="bond-12 atom-12 atom-13" d="M 460.8,69.2 L 474.5,53.5" style="fill:none;fill-rule:evenodd;stroke:#000000;stroke-width:2.0px;stroke-linecap:butt;stroke-linejoin:miter;stroke-opacity:1"/>
<path class="bond-13 atom-13 atom-14" d="M 474.5,53.5 L 495.0,57.6" style="fill:none;fill-rule:evenodd;stroke:#000000;stroke-width:2.0px;stroke-linecap:butt;stroke-linejoin:miter;stroke-opacity:1"/>
<path class="bond-14 atom-14 atom-15" d="M 495.0,57.6 L 501.7,77.3" style="fill:none;fill-rule:evenodd;stroke:#000000;stroke-width:2.0px;stroke-linecap:butt;stroke-linejoin:miter;stroke-opacity:1"/>
<path class="bond-15 atom-15 atom-16" d="M 501.7,77.3 L 501.2,98.1" style="fill:none;fill-rule:evenodd;stroke:#000000;stroke-width:2.0px;stroke-linecap:butt;stroke-linejoin:miter;stroke-opacity:1"/>
<path class="bond-16 atom-15 atom-17" d="M 501.7,77.3 L 481.1,80.5" style="fill:none;fill-rule:evenodd;stroke:#000000;stroke-width:2.0px;stroke-linecap:butt;stroke-linejoin:miter;stroke-opacity:1"/>
<path class="bond-17 atom-15 atom-18" d="M 501.7,77.3 L 510.2,79.0" style="fill:none;fill-rule:evenodd;stroke:#000000;stroke-width:2.0px;stroke-linecap:butt;stroke-linejoin:miter;stroke-opacity:1"/>
<path class="bond-17 atom-15 atom-18" d="M 510.2,79.0 L 518.7,80.7" style="fill:none;fill-rule:evenodd;stroke:#FF0000;stroke-width:2.0px;stroke-linecap:butt;stroke-linejoin:miter;stroke-opacity:1"/>
<path class="bond-18 atom-18 atom-19" d="M 525.3,77.7 L 530.5,71.7" style="fill:none;fill-rule:evenodd;stroke:#FF0000;stroke-width:2.0px;stroke-linecap:butt;stroke-linejoin:miter;stroke-opacity:1"/>
<path class="bond-18 atom-18 atom-19" d="M 530.5,71.7 L 535.8,65.7" style="fill:none;fill-rule:evenodd;stroke:#000000;stroke-width:2.0px;stroke-linecap:butt;stroke-linejoin:miter;stroke-opacity:1"/>
<path class="bond-19 atom-19 atom-20" d="M 535.8,65.7 L 544.5,67.4" style="fill:none;fill-rule:evenodd;stroke:#000000;stroke-width:2.0px;stroke-linecap:butt;stroke-linejoin:miter;stroke-opacity:1"/>
<path class="bond-19 atom-19 atom-20" d="M 544.5,67.4 L 553.3,69.2" style="fill:none;fill-rule:evenodd;stroke:#0000FF;stroke-width:2.0px;stroke-linecap:butt;stroke-linejoin:miter;stroke-opacity:1"/>
<path class="bond-20 atom-20 atom-21" d="M 557.4,73.4 L 560.2,81.4" style="fill:none;fill-rule:evenodd;stroke:#0000FF;stroke-width:2.0px;stroke-linecap:butt;stroke-linejoin:miter;stroke-opacity:1"/>
<path class="bond-20 atom-20 atom-21" d="M 560.2,81.4 L 562.9,89.4" style="fill:none;fill-rule:evenodd;stroke:#000000;stroke-width:2.0px;stroke-linecap:butt;stroke-linejoin:miter;stroke-opacity:1"/>
<path class="bond-21 atom-21 atom-22" d="M 562.9,89.4 L 583.3,93.5" style="fill:none;fill-rule:evenodd;stroke:#000000;stroke-width:2.0px;stroke-linecap:butt;stroke-linejoin:miter;stroke-opacity:1"/>
<path class="bond-22 atom-21 atom-23" d="M 562.9,89.4 L 549.2,105.1" style="fill:none;fill-rule:evenodd;stroke:#000000;stroke-width:2.0px;stroke-linecap:butt;stroke-linejoin:miter;stroke-opacity:1"/>
<path class="bond-23 atom-23 atom-24" d="M 549.2,105.1 L 528.8,101.0" style="fill:none;fill-rule:evenodd;stroke:#000000;stroke-width:2.0px;stroke-linecap:butt;stroke-linejoin:miter;stroke-opacity:1"/>
<path class="bond-23 atom-23 atom-24" d="M 546.8,107.8 L 529.9,104.5" style="fill:none;fill-rule:evenodd;stroke:#000000;stroke-width:2.0px;stroke-linecap:butt;stroke-linejoin:miter;stroke-opacity:1"/>
<path class="bond-24 atom-24 atom-25" d="M 528.8,101.0 L 515.1,116.7" style="fill:none;fill-rule:evenodd;stroke:#000000;stroke-width:2.0px;stroke-linecap:butt;stroke-linejoin:miter;stroke-opacity:1"/>
<path class="bond-25 atom-25 atom-26" d="M 515.1,116.7 L 521.8,136.4" style="fill:none;fill-rule:evenodd;stroke:#000000;stroke-width:2.0px;stroke-linecap:butt;stroke-linejoin:miter;stroke-opacity:1"/>
<path class="bond-25 atom-25 atom-26" d="M 518.6,117.4 L 524.1,133.7" style="fill:none;fill-rule:evenodd;stroke:#000000;stroke-width:2.0px;stroke-linecap:butt;stroke-linejoin:miter;stroke-opacity:1"/>
<path class="bond-26 atom-26 atom-27" d="M 521.8,136.4 L 542.2,140.5" style="fill:none;fill-rule:evenodd;stroke:#000000;stroke-width:2.0px;stroke-linecap:butt;stroke-linejoin:miter;stroke-opacity:1"/>
<path class="bond-27 atom-27 atom-28" d="M 542.2,140.5 L 555.9,124.8" style="fill:none;fill-rule:evenodd;stroke:#000000;stroke-width:2.0px;stroke-linecap:butt;stroke-linejoin:miter;stroke-opacity:1"/>
<path class="bond-27 atom-27 atom-28" d="M 541.0,137.0 L 552.4,124.1" style="fill:none;fill-rule:evenodd;stroke:#000000;stroke-width:2.0px;stroke-linecap:butt;stroke-linejoin:miter;stroke-opacity:1"/>
<path class="bond-28 atom-28 atom-29" d="M 555.9,124.8 L 564.9,126.6" style="fill:none;fill-rule:evenodd;stroke:#000000;stroke-width:2.0px;stroke-linecap:butt;stroke-linejoin:miter;stroke-opacity:1"/>
<path class="bond-28 atom-28 atom-29" d="M 564.9,126.6 L 573.9,128.4" style="fill:none;fill-rule:evenodd;stroke:#33CCCC;stroke-width:2.0px;stroke-linecap:butt;stroke-linejoin:miter;stroke-opacity:1"/>
<path class="bond-29 atom-19 atom-30" d="M 535.8,65.7 L 533.1,57.6" style="fill:none;fill-rule:evenodd;stroke:#000000;stroke-width:2.0px;stroke-linecap:butt;stroke-linejoin:miter;stroke-opacity:1"/>
<path class="bond-29 atom-19 atom-30" d="M 533.1,57.6 L 530.3,49.6" style="fill:none;fill-rule:evenodd;stroke:#0000FF;stroke-width:2.0px;stroke-linecap:butt;stroke-linejoin:miter;stroke-opacity:1"/>
<path class="bond-29 atom-19 atom-30" d="M 532.3,65.0 L 529.8,57.8" style="fill:none;fill-rule:evenodd;stroke:#000000;stroke-width:2.0px;stroke-linecap:butt;stroke-linejoin:miter;stroke-opacity:1"/>
<path class="bond-29 atom-19 atom-30" d="M 529.8,57.8 L 527.4,50.6" style="fill:none;fill-rule:evenodd;stroke:#0000FF;stroke-width:2.0px;stroke-linecap:butt;stroke-linejoin:miter;stroke-opacity:1"/>
<path class="bond-30 atom-30 atom-31" d="M 526.2,45.4 L 518.7,43.9" style="fill:none;fill-rule:evenodd;stroke:#0000FF;stroke-width:2.0px;stroke-linecap:butt;stroke-linejoin:miter;stroke-opacity:1"/>
<path class="bond-30 atom-30 atom-31" d="M 518.7,43.9 L 511.3,42.4" style="fill:none;fill-rule:evenodd;stroke:#CCCC00;stroke-width:2.0px;stroke-linecap:butt;stroke-linejoin:miter;stroke-opacity:1"/>
<path class="bond-31 atom-31 atom-32" d="M 506.9,39.0 L 501.0,35.4" style="fill:none;fill-rule:evenodd;stroke:#CCCC00;stroke-width:2.0px;stroke-linecap:butt;stroke-linejoin:miter;stroke-opacity:1"/>
<path class="bond-31 atom-31 atom-32" d="M 501.0,35.4 L 495.1,31.9" style="fill:none;fill-rule:evenodd;stroke:#FF0000;stroke-width:2.0px;stroke-linecap:butt;stroke-linejoin:miter;stroke-opacity:1"/>
<path class="bond-31 atom-31 atom-32" d="M 505.3,41.7 L 499.4,38.1" style="fill:none;fill-rule:evenodd;stroke:#CCCC00;stroke-width:2.0px;stroke-linecap:butt;stroke-linejoin:miter;stroke-opacity:1"/>
<path class="bond-31 atom-31 atom-32" d="M 499.4,38.1 L 493.5,34.5" style="fill:none;fill-rule:evenodd;stroke:#FF0000;stroke-width:2.0px;stroke-linecap:butt;stroke-linejoin:miter;stroke-opacity:1"/>
<path class="bond-32 atom-31 atom-33" d="M 511.5,38.9 L 513.9,32.9" style="fill:none;fill-rule:evenodd;stroke:#CCCC00;stroke-width:2.0px;stroke-linecap:butt;stroke-linejoin:miter;stroke-opacity:1"/>
<path class="bond-32 atom-31 atom-33" d="M 513.9,32.9 L 516.2,26.8" style="fill:none;fill-rule:evenodd;stroke:#FF0000;stroke-width:2.0px;stroke-linecap:butt;stroke-linejoin:miter;stroke-opacity:1"/>
<path class="bond-32 atom-31 atom-33" d="M 508.6,37.7 L 511.0,31.7" style="fill:none;fill-rule:evenodd;stroke:#CCCC00;stroke-width:2.0px;stroke-linecap:butt;stroke-linejoin:miter;stroke-opacity:1"/>
<path class="bond-32 atom-31 atom-33" d="M 511.0,31.7 L 513.3,25.7" style="fill:none;fill-rule:evenodd;stroke:#FF0000;stroke-width:2.0px;stroke-linecap:butt;stroke-linejoin:miter;stroke-opacity:1"/>
<path class="bond-33 atom-12 atom-34" d="M 460.8,69.2 L 440.8,63.6" style="fill:none;fill-rule:evenodd;stroke:#000000;stroke-width:2.0px;stroke-linecap:butt;stroke-linejoin:miter;stroke-opacity:1"/>
<path class="bond-34 atom-34 atom-35" d="M 440.8,63.6 L 439.3,55.2" style="fill:none;fill-rule:evenodd;stroke:#000000;stroke-width:2.0px;stroke-linecap:butt;stroke-linejoin:miter;stroke-opacity:1"/>
<path class="bond-34 atom-34 atom-35" d="M 439.3,55.2 L 437.7,46.8" style="fill:none;fill-rule:evenodd;stroke:#33CCCC;stroke-width:2.0px;stroke-linecap:butt;stroke-linejoin:miter;stroke-opacity:1"/>
<path class="bond-35 atom-34 atom-36" d="M 440.8,63.6 L 423.9,75.8" style="fill:none;fill-rule:evenodd;stroke:#000000;stroke-width:2.0px;stroke-linecap:butt;stroke-linejoin:miter;stroke-opacity:1"/>
<path class="bond-35 atom-34 atom-36" d="M 441.4,67.0 L 427.0,77.5" style="fill:none;fill-rule:evenodd;stroke:#000000;stroke-width:2.0px;stroke-linecap:butt;stroke-linejoin:miter;stroke-opacity:1"/>
<path class="bond-36 atom-36 atom-37" d="M 423.9,75.8 L 423.0,96.6" style="fill:none;fill-rule:evenodd;stroke:#000000;stroke-width:2.0px;stroke-linecap:butt;stroke-linejoin:miter;stroke-opacity:1"/>
<path class="bond-37 atom-5 atom-2" d="M 376.9,96.4 L 368.1,94.6" style="fill:none;fill-rule:evenodd;stroke:#000000;stroke-width:2.0px;stroke-linecap:butt;stroke-linejoin:miter;stroke-opacity:1"/>
<path class="bond-37 atom-5 atom-2" d="M 368.1,94.6 L 359.4,92.9" style="fill:none;fill-rule:evenodd;stroke:#0000FF;stroke-width:2.0px;stroke-linecap:butt;stroke-linejoin:miter;stroke-opacity:1"/>
<path class="bond-38 atom-37 atom-7" d="M 423.0,96.6 L 409.2,112.3" style="fill:none;fill-rule:evenodd;stroke:#000000;stroke-width:2.0px;stroke-linecap:butt;stroke-linejoin:miter;stroke-opacity:1"/>
<path class="bond-38 atom-37 atom-7" d="M 423.2,101.0 L 413.6,112.0" style="fill:none;fill-rule:evenodd;stroke:#000000;stroke-width:2.0px;stroke-linecap:butt;stroke-linejoin:miter;stroke-opacity:1"/>
<path class="bond-39 atom-37 atom-9" d="M 423.0,96.6 L 438.6,110.3" style="fill:none;fill-rule:evenodd;stroke:#000000;stroke-width:2.0px;stroke-linecap:butt;stroke-linejoin:miter;stroke-opacity:1"/>
<path class="bond-40 atom-31 atom-14" d="M 506.1,44.9 L 500.5,51.2" style="fill:none;fill-rule:evenodd;stroke:#CCCC00;stroke-width:2.0px;stroke-linecap:butt;stroke-linejoin:miter;stroke-opacity:1"/>
<path class="bond-40 atom-31 atom-14" d="M 500.5,51.2 L 495.0,57.6" style="fill:none;fill-rule:evenodd;stroke:#000000;stroke-width:2.0px;stroke-linecap:butt;stroke-linejoin:miter;stroke-opacity:1"/>
<path class="bond-41 atom-28 atom-23" d="M 555.9,124.8 L 549.2,105.1" style="fill:none;fill-rule:evenodd;stroke:#000000;stroke-width:2.0px;stroke-linecap:butt;stroke-linejoin:miter;stroke-opacity:1"/>
<path d="M 458.1,106.8 L 459.1,106.7 L 459.6,105.7" style="fill:none;stroke:#000000;stroke-width:2.0px;stroke-linecap:butt;stroke-linejoin:miter;stroke-opacity:1;"/>
<path d="M 468.5,89.3 L 469.0,88.3 L 468.6,87.4" style="fill:none;stroke:#000000;stroke-width:2.0px;stroke-linecap:butt;stroke-linejoin:miter;stroke-opacity:1;"/>
<path d="M 473.9,54.3 L 474.5,53.5 L 475.6,53.7" style="fill:none;stroke:#000000;stroke-width:2.0px;stroke-linecap:butt;stroke-linejoin:miter;stroke-opacity:1;"/>
<path d="M 529.8,101.2 L 528.8,101.0 L 528.1,101.8" style="fill:none;stroke:#000000;stroke-width:2.0px;stroke-linecap:butt;stroke-linejoin:miter;stroke-opacity:1;"/>
<path d="M 515.8,115.9 L 515.1,116.7 L 515.4,117.7" style="fill:none;stroke:#000000;stroke-width:2.0px;stroke-linecap:butt;stroke-linejoin:miter;stroke-opacity:1;"/>
<path d="M 521.4,135.4 L 521.8,136.4 L 522.8,136.6" style="fill:none;stroke:#000000;stroke-width:2.0px;stroke-linecap:butt;stroke-linejoin:miter;stroke-opacity:1;"/>
<path d="M 541.2,140.3 L 542.2,140.5 L 542.9,139.7" style="fill:none;stroke:#000000;stroke-width:2.0px;stroke-linecap:butt;stroke-linejoin:miter;stroke-opacity:1;"/>
<path d="M 424.8,75.2 L 423.9,75.8 L 423.9,76.9" style="fill:none;stroke:#000000;stroke-width:2.0px;stroke-linecap:butt;stroke-linejoin:miter;stroke-opacity:1;"/>
<path class="atom-0" d="M 318.2 94.7 Q 318.2 93.3, 318.9 92.5 Q 319.6 91.7, 320.9 91.7 Q 322.1 91.7, 322.8 92.6 L 322.2 93.0 Q 321.8 92.4, 320.9 92.4 Q 320.0 92.4, 319.5 93.0 Q 319.1 93.6, 319.1 94.7 Q 319.1 95.9, 319.6 96.5 Q 320.1 97.1, 321.0 97.1 Q 321.7 97.1, 322.4 96.7 L 322.6 97.3 Q 322.3 97.5, 321.9 97.6 Q 321.4 97.7, 320.9 97.7 Q 319.6 97.7, 318.9 97.0 Q 318.2 96.2, 318.2 94.7 " fill="#000000"/>
<path class="atom-0" d="M 323.5 92.7 L 325.5 92.7 L 325.5 93.1 L 323.5 93.1 L 323.5 92.7 " fill="#000000"/>
<path class="atom-1" d="M 337.5 105.9 Q 337.6 105.9, 337.9 106.1 Q 338.1 106.2, 338.4 106.2 Q 338.7 106.3, 339.0 106.3 Q 339.6 106.3, 339.9 106.0 Q 340.2 105.8, 340.2 105.3 Q 340.2 105.0, 340.1 104.8 Q 339.9 104.6, 339.7 104.5 Q 339.4 104.4, 339.0 104.2 Q 338.5 104.1, 338.2 103.9 Q 337.9 103.8, 337.6 103.5 Q 337.4 103.1, 337.4 102.6 Q 337.4 101.9, 337.9 101.4 Q 338.4 100.9, 339.4 100.9 Q 340.1 100.9, 340.9 101.3 L 340.7 101.9 Q 340.0 101.6, 339.4 101.6 Q 338.9 101.6, 338.6 101.9 Q 338.2 102.1, 338.2 102.5 Q 338.2 102.8, 338.4 103.0 Q 338.6 103.2, 338.8 103.3 Q 339.0 103.4, 339.4 103.5 Q 340.0 103.7, 340.3 103.9 Q 340.6 104.0, 340.8 104.4 Q 341.1 104.7, 341.1 105.3 Q 341.1 106.1, 340.5 106.6 Q 340.0 107.0, 339.1 107.0 Q 338.5 107.0, 338.1 106.9 Q 337.8 106.8, 337.3 106.6 L 337.5 105.9 " fill="#CCCC00"/>
<path class="atom-1" d="M 341.8 101.9 L 342.9 101.9 L 342.9 100.8 L 343.3 100.8 L 343.3 101.9 L 344.4 101.9 L 344.4 102.3 L 343.3 102.3 L 343.3 103.4 L 342.9 103.4 L 342.9 102.3 L 341.8 102.3 L 341.8 101.9 " fill="#CCCC00"/>
<path class="atom-2" d="M 355.2 89.4 L 357.1 92.5 Q 357.3 92.8, 357.6 93.4 Q 357.9 93.9, 357.9 93.9 L 357.9 89.4 L 358.7 89.4 L 358.7 95.3 L 357.9 95.3 L 355.8 91.8 Q 355.6 91.4, 355.3 91.0 Q 355.1 90.5, 355.0 90.4 L 355.0 95.3 L 354.2 95.3 L 354.2 89.4 L 355.2 89.4 " fill="#0000FF"/>
<path class="atom-3" d="M 358.9 73.9 Q 358.9 73.9, 359.2 74.1 Q 359.5 74.2, 359.8 74.3 Q 360.1 74.3, 360.4 74.3 Q 360.9 74.3, 361.3 74.1 Q 361.6 73.8, 361.6 73.3 Q 361.6 73.0, 361.4 72.8 Q 361.3 72.6, 361.0 72.5 Q 360.8 72.4, 360.4 72.2 Q 359.8 72.1, 359.5 71.9 Q 359.2 71.8, 359.0 71.5 Q 358.8 71.1, 358.8 70.6 Q 358.8 69.9, 359.3 69.4 Q 359.8 69.0, 360.8 69.0 Q 361.5 69.0, 362.2 69.3 L 362.0 69.9 Q 361.3 69.6, 360.8 69.6 Q 360.2 69.6, 359.9 69.9 Q 359.6 70.1, 359.6 70.5 Q 359.6 70.8, 359.8 71.0 Q 359.9 71.2, 360.2 71.3 Q 360.4 71.4, 360.8 71.6 Q 361.3 71.7, 361.6 71.9 Q 362.0 72.1, 362.2 72.4 Q 362.4 72.7, 362.4 73.3 Q 362.4 74.1, 361.9 74.6 Q 361.3 75.0, 360.4 75.0 Q 359.9 75.0, 359.5 74.9 Q 359.1 74.8, 358.6 74.6 L 358.9 73.9 " fill="#CCCC00"/>
<path class="atom-4" d="M 379.6 73.0 L 381.6 76.1 Q 381.8 76.4, 382.1 77.0 Q 382.4 77.5, 382.4 77.6 L 382.4 73.0 L 383.2 73.0 L 383.2 78.9 L 382.4 78.9 L 380.3 75.5 Q 380.1 75.1, 379.8 74.6 Q 379.5 74.2, 379.5 74.0 L 379.5 78.9 L 378.7 78.9 L 378.7 73.0 L 379.6 73.0 " fill="#0000FF"/>
<path class="atom-6" d="M 380.8 110.7 L 381.6 110.7 L 381.6 113.2 L 384.7 113.2 L 384.7 110.7 L 385.5 110.7 L 385.5 116.6 L 384.7 116.6 L 384.7 113.9 L 381.6 113.9 L 381.6 116.6 L 380.8 116.6 L 380.8 110.7 " fill="#CCCC00"/>
<path class="atom-6" d="M 386.8 115.7 Q 386.9 115.7, 387.1 115.8 Q 387.4 116.0, 387.7 116.0 Q 388.0 116.1, 388.3 116.1 Q 388.9 116.1, 389.2 115.8 Q 389.5 115.6, 389.5 115.1 Q 389.5 114.8, 389.4 114.6 Q 389.2 114.4, 389.0 114.2 Q 388.7 114.1, 388.3 114.0 Q 387.8 113.9, 387.5 113.7 Q 387.1 113.6, 386.9 113.2 Q 386.7 112.9, 386.7 112.4 Q 386.7 111.6, 387.2 111.2 Q 387.7 110.7, 388.7 110.7 Q 389.4 110.7, 390.2 111.1 L 390.0 111.7 Q 389.3 111.4, 388.7 111.4 Q 388.2 111.4, 387.8 111.6 Q 387.5 111.9, 387.5 112.3 Q 387.5 112.6, 387.7 112.8 Q 387.9 113.0, 388.1 113.1 Q 388.3 113.2, 388.7 113.3 Q 389.3 113.5, 389.6 113.7 Q 389.9 113.8, 390.1 114.2 Q 390.4 114.5, 390.4 115.1 Q 390.4 115.9, 389.8 116.3 Q 389.3 116.8, 388.4 116.8 Q 387.8 116.8, 387.4 116.7 Q 387.0 116.5, 386.6 116.4 L 386.8 115.7 " fill="#CCCC00"/>
<path class="atom-8" d="M 422.2 126.0 Q 422.2 124.6, 422.9 123.8 Q 423.6 123.0, 424.9 123.0 Q 426.2 123.0, 426.9 123.8 Q 427.6 124.6, 427.6 126.0 Q 427.6 127.5, 426.9 128.3 Q 426.2 129.1, 424.9 129.1 Q 423.6 129.1, 422.9 128.3 Q 422.2 127.5, 422.2 126.0 M 424.9 128.4 Q 425.8 128.4, 426.3 127.8 Q 426.8 127.2, 426.8 126.0 Q 426.8 124.9, 426.3 124.3 Q 425.8 123.7, 424.9 123.7 Q 424.0 123.7, 423.5 124.3 Q 423.0 124.9, 423.0 126.0 Q 423.0 127.2, 423.5 127.8 Q 424.0 128.4, 424.9 128.4 " fill="#FF0000"/>
<path class="atom-18" d="M 519.4 81.4 Q 519.4 79.9, 520.1 79.1 Q 520.8 78.4, 522.1 78.4 Q 523.4 78.4, 524.1 79.1 Q 524.8 79.9, 524.8 81.4 Q 524.8 82.8, 524.1 83.6 Q 523.4 84.4, 522.1 84.4 Q 520.8 84.4, 520.1 83.6 Q 519.4 82.8, 519.4 81.4 M 522.1 83.7 Q 523.0 83.7, 523.5 83.1 Q 524.0 82.5, 524.0 81.4 Q 524.0 80.2, 523.5 79.6 Q 523.0 79.0, 522.1 79.0 Q 521.2 79.0, 520.7 79.6 Q 520.2 80.2, 520.2 81.4 Q 520.2 82.5, 520.7 83.1 Q 521.2 83.7, 522.1 83.7 " fill="#FF0000"/>
<path class="atom-20" d="M 554.9 66.8 L 556.8 69.9 Q 557.0 70.2, 557.3 70.8 Q 557.6 71.3, 557.7 71.4 L 557.7 66.8 L 558.4 66.8 L 558.4 72.7 L 557.6 72.7 L 555.6 69.3 Q 555.3 68.9, 555.1 68.4 Q 554.8 67.9, 554.7 67.8 L 554.7 72.7 L 554.0 72.7 L 554.0 66.8 L 554.9 66.8 " fill="#0000FF"/>
<path class="atom-20" d="M 559.6 66.8 L 560.4 66.8 L 560.4 69.3 L 563.4 69.3 L 563.4 66.8 L 564.2 66.8 L 564.2 72.7 L 563.4 72.7 L 563.4 70.0 L 560.4 70.0 L 560.4 72.7 L 559.6 72.7 L 559.6 66.8 " fill="#0000FF"/>
<path class="atom-29" d="M 574.6 125.9 L 578.1 125.9 L 578.1 126.6 L 575.4 126.6 L 575.4 128.4 L 577.8 128.4 L 577.8 129.1 L 575.4 129.1 L 575.4 131.8 L 574.6 131.8 L 574.6 125.9 " fill="#33CCCC"/>
<path class="atom-30" d="M 527.8 43.0 L 529.7 46.2 Q 529.9 46.5, 530.2 47.0 Q 530.5 47.6, 530.5 47.6 L 530.5 43.0 L 531.3 43.0 L 531.3 48.9 L 530.5 48.9 L 528.4 45.5 Q 528.2 45.1, 527.9 44.7 Q 527.7 44.2, 527.6 44.1 L 527.6 48.9 L 526.9 48.9 L 526.9 43.0 L 527.8 43.0 " fill="#0000FF"/>
<path class="atom-31" d="M 507.0 43.9 Q 507.1 44.0, 507.4 44.1 Q 507.6 44.2, 507.9 44.3 Q 508.2 44.3, 508.5 44.3 Q 509.1 44.3, 509.4 44.1 Q 509.7 43.8, 509.7 43.3 Q 509.7 43.0, 509.6 42.8 Q 509.4 42.6, 509.2 42.5 Q 508.9 42.4, 508.5 42.3 Q 508.0 42.1, 507.7 42.0 Q 507.4 41.8, 507.1 41.5 Q 506.9 41.2, 506.9 40.6 Q 506.9 39.9, 507.4 39.4 Q 507.9 39.0, 508.9 39.0 Q 509.6 39.0, 510.4 39.3 L 510.2 40.0 Q 509.5 39.7, 508.9 39.7 Q 508.4 39.7, 508.1 39.9 Q 507.7 40.1, 507.7 40.5 Q 507.7 40.9, 507.9 41.1 Q 508.1 41.2, 508.3 41.4 Q 508.5 41.5, 508.9 41.6 Q 509.5 41.8, 509.8 41.9 Q 510.1 42.1, 510.3 42.4 Q 510.6 42.8, 510.6 43.3 Q 510.6 44.1, 510.0 44.6 Q 509.5 45.0, 508.6 45.0 Q 508.0 45.0, 507.6 44.9 Q 507.3 44.8, 506.8 44.6 L 507.0 43.9 " fill="#CCCC00"/>
<path class="atom-32" d="M 488.2 31.2 Q 488.2 29.7, 488.9 28.9 Q 489.6 28.2, 490.9 28.2 Q 492.2 28.2, 492.9 28.9 Q 493.6 29.7, 493.6 31.2 Q 493.6 32.6, 492.9 33.4 Q 492.2 34.2, 490.9 34.2 Q 489.6 34.2, 488.9 33.4 Q 488.2 32.6, 488.2 31.2 M 490.9 33.5 Q 491.8 33.5, 492.3 32.9 Q 492.7 32.3, 492.7 31.2 Q 492.7 30.0, 492.3 29.4 Q 491.8 28.8, 490.9 28.8 Q 490.0 28.8, 489.5 29.4 Q 489.0 30.0, 489.0 31.2 Q 489.0 32.3, 489.5 32.9 Q 490.0 33.5, 490.9 33.5 " fill="#FF0000"/>
<path class="atom-33" d="M 513.5 22.5 Q 513.5 21.1, 514.2 20.3 Q 514.9 19.5, 516.2 19.5 Q 517.5 19.5, 518.2 20.3 Q 518.9 21.1, 518.9 22.5 Q 518.9 24.0, 518.2 24.8 Q 517.5 25.6, 516.2 25.6 Q 514.9 25.6, 514.2 24.8 Q 513.5 24.0, 513.5 22.5 M 516.2 24.9 Q 517.1 24.9, 517.6 24.3 Q 518.1 23.7, 518.1 22.5 Q 518.1 21.4, 517.6 20.8 Q 517.1 20.2, 516.2 20.2 Q 515.3 20.2, 514.8 20.8 Q 514.3 21.4, 514.3 22.5 Q 514.3 23.7, 514.8 24.3 Q 515.3 24.9, 516.2 24.9 " fill="#FF0000"/>
<path class="atom-35" d="M 435.3 40.2 L 438.8 40.2 L 438.8 40.9 L 436.1 40.9 L 436.1 42.7 L 438.5 42.7 L 438.5 43.3 L 436.1 43.3 L 436.1 46.1 L 435.3 46.1 L 435.3 40.2 " fill="#33CCCC"/>
<path class="atom-0" d="M 317.4,94.7 L 317.4,94.7 L 317.4,94.8 L 317.4,94.8 L 317.4,94.8 L 317.4,94.9 L 317.3,94.9 L 317.3,94.9 L 317.3,95.0 L 317.3,95.0 L 317.3,95.0 L 317.2,95.0 L 317.2,95.0 L 317.2,95.1 L 317.1,95.1 L 317.1,95.1 L 317.1,95.1 L 317.0,95.1 L 317.0,95.1 L 317.0,95.1 L 316.9,95.1 L 316.9,95.1 L 316.8,95.1 L 316.8,95.1 L 316.8,95.1 L 316.8,95.0 L 316.7,95.0 L 316.7,95.0 L 316.7,95.0 L 316.6,94.9 L 316.6,94.9 L 316.6,94.9 L 316.6,94.8 L 316.6,94.8 L 316.6,94.8 L 316.6,94.7 L 316.6,94.7 L 316.6,94.7 L 316.6,94.6 L 316.6,94.6 L 316.6,94.6 L 316.6,94.5 L 316.6,94.5 L 316.6,94.5 L 316.6,94.4 L 316.7,94.4 L 316.7,94.4 L 316.7,94.4 L 316.8,94.3 L 316.8,94.3 L 316.8,94.3 L 316.8,94.3 L 316.9,94.3 L 316.9,94.3 L 317.0,94.3 L 317.0,94.3 L 317.0,94.3 L 317.1,94.3 L 317.1,94.3 L 317.1,94.3 L 317.2,94.3 L 317.2,94.3 L 317.2,94.4 L 317.3,94.4 L 317.3,94.4 L 317.3,94.4 L 317.3,94.5 L 317.3,94.5 L 317.4,94.5 L 317.4,94.6 L 317.4,94.6 L 317.4,94.6 L 317.4,94.7 L 317.4,94.7 L 317.0,94.7 Z" style="fill:#000000;fill-rule:evenodd;fill-opacity:1;stroke:#000000;stroke-width:0.0px;stroke-linecap:butt;stroke-linejoin:miter;stroke-opacity:1;"/>
<path class="atom-6" d="M 380.0,113.7 L 380.0,113.7 L 380.0,113.7 L 380.0,113.8 L 380.0,113.8 L 380.0,113.8 L 380.0,113.9 L 379.9,113.9 L 379.9,113.9 L 379.9,114.0 L 379.9,114.0 L 379.8,114.0 L 379.8,114.0 L 379.8,114.0 L 379.7,114.1 L 379.7,114.1 L 379.7,114.1 L 379.6,114.1 L 379.6,114.1 L 379.6,114.1 L 379.5,114.1 L 379.5,114.1 L 379.5,114.1 L 379.4,114.0 L 379.4,114.0 L 379.4,114.0 L 379.3,114.0 L 379.3,114.0 L 379.3,113.9 L 379.3,113.9 L 379.2,113.9 L 379.2,113.9 L 379.2,113.8 L 379.2,113.8 L 379.2,113.8 L 379.2,113.7 L 379.2,113.7 L 379.2,113.6 L 379.2,113.6 L 379.2,113.6 L 379.2,113.5 L 379.2,113.5 L 379.2,113.5 L 379.2,113.4 L 379.3,113.4 L 379.3,113.4 L 379.3,113.4 L 379.3,113.3 L 379.4,113.3 L 379.4,113.3 L 379.4,113.3 L 379.5,113.3 L 379.5,113.3 L 379.5,113.3 L 379.6,113.2 L 379.6,113.2 L 379.6,113.2 L 379.7,113.3 L 379.7,113.3 L 379.7,113.3 L 379.8,113.3 L 379.8,113.3 L 379.8,113.3 L 379.9,113.3 L 379.9,113.4 L 379.9,113.4 L 379.9,113.4 L 380.0,113.5 L 380.0,113.5 L 380.0,113.5 L 380.0,113.6 L 380.0,113.6 L 380.0,113.6 L 380.0,113.7 L 379.6,113.7 Z" style="fill:#000000;fill-rule:evenodd;fill-opacity:1;stroke:#000000;stroke-width:0.0px;stroke-linecap:butt;stroke-linejoin:miter;stroke-opacity:1;"/>
<path class="bond-0 atom-0 atom-1" d="M 620.9,76.8 L 628.1,79.0" style="fill:none;fill-rule:evenodd;stroke:#000000;stroke-width:2.0px;stroke-linecap:butt;stroke-linejoin:miter;stroke-opacity:1"/>
<path class="bond-0 atom-0 atom-1" d="M 628.1,79.0 L 635.2,81.2" style="fill:none;fill-rule:evenodd;stroke:#CCCC00;stroke-width:2.0px;stroke-linecap:butt;stroke-linejoin:miter;stroke-opacity:1"/>
<path class="bond-0 atom-0 atom-1" d="M 620.0,79.8 L 627.1,82.0" style="fill:none;fill-rule:evenodd;stroke:#000000;stroke-width:2.0px;stroke-linecap:butt;stroke-linejoin:miter;stroke-opacity:1"/>
<path class="bond-0 atom-0 atom-1" d="M 627.1,82.0 L 634.3,84.2" style="fill:none;fill-rule:evenodd;stroke:#CCCC00;stroke-width:2.0px;stroke-linecap:butt;stroke-linejoin:miter;stroke-opacity:1"/>
<path class="bond-1 atom-1 atom-2" d="M 641.4,79.8 L 645.6,75.9" style="fill:none;fill-rule:evenodd;stroke:#CCCC00;stroke-width:2.0px;stroke-linecap:butt;stroke-linejoin:miter;stroke-opacity:1"/>
<path class="bond-1 atom-1 atom-2" d="M 645.6,75.9 L 649.7,72.1" style="fill:none;fill-rule:evenodd;stroke:#0000FF;stroke-width:2.0px;stroke-linecap:butt;stroke-linejoin:miter;stroke-opacity:1"/>
<path class="bond-2 atom-2 atom-3" d="M 652.8,65.8 L 653.0,59.1" style="fill:none;fill-rule:evenodd;stroke:#0000FF;stroke-width:2.0px;stroke-linecap:butt;stroke-linejoin:miter;stroke-opacity:1"/>
<path class="bond-2 atom-2 atom-3" d="M 653.0,59.1 L 653.3,52.4" style="fill:none;fill-rule:evenodd;stroke:#CCCC00;stroke-width:2.0px;stroke-linecap:butt;stroke-linejoin:miter;stroke-opacity:1"/>
<path class="bond-3 atom-3 atom-4" d="M 656.0,48.7 L 663.7,49.0" style="fill:none;fill-rule:evenodd;stroke:#CCCC00;stroke-width:2.0px;stroke-linecap:butt;stroke-linejoin:miter;stroke-opacity:1"/>
<path class="bond-3 atom-3 atom-4" d="M 663.7,49.0 L 671.3,49.3" style="fill:none;fill-rule:evenodd;stroke:#0000FF;stroke-width:2.0px;stroke-linecap:butt;stroke-linejoin:miter;stroke-opacity:1"/>
<path class="bond-4 atom-4 atom-5" d="M 674.1,53.1 L 673.8,61.6" style="fill:none;fill-rule:evenodd;stroke:#0000FF;stroke-width:2.0px;stroke-linecap:butt;stroke-linejoin:miter;stroke-opacity:1"/>
<path class="bond-4 atom-4 atom-5" d="M 673.8,61.6 L 673.4,70.2" style="fill:none;fill-rule:evenodd;stroke:#000000;stroke-width:2.0px;stroke-linecap:butt;stroke-linejoin:miter;stroke-opacity:1"/>
<path class="bond-4 atom-4 atom-5" d="M 671.0,52.9 L 670.7,60.0" style="fill:none;fill-rule:evenodd;stroke:#0000FF;stroke-width:2.0px;stroke-linecap:butt;stroke-linejoin:miter;stroke-opacity:1"/>
<path class="bond-4 atom-4 atom-5" d="M 670.7,60.0 L 670.4,67.0" style="fill:none;fill-rule:evenodd;stroke:#000000;stroke-width:2.0px;stroke-linecap:butt;stroke-linejoin:miter;stroke-opacity:1"/>
<path class="bond-5 atom-5 atom-6" d="M 673.4,70.2 L 679.2,76.5" style="fill:none;fill-rule:evenodd;stroke:#000000;stroke-width:2.0px;stroke-linecap:butt;stroke-linejoin:miter;stroke-opacity:1"/>
<path class="bond-5 atom-5 atom-6" d="M 679.2,76.5 L 685.0,82.7" style="fill:none;fill-rule:evenodd;stroke:#CCCC00;stroke-width:2.0px;stroke-linecap:butt;stroke-linejoin:miter;stroke-opacity:1"/>
<path class="bond-6 atom-6 atom-7" d="M 690.1,84.9 L 699.0,82.9" style="fill:none;fill-rule:evenodd;stroke:#CCCC00;stroke-width:2.0px;stroke-linecap:butt;stroke-linejoin:miter;stroke-opacity:1"/>
<path class="bond-6 atom-6 atom-7" d="M 699.0,82.9 L 707.9,80.9" style="fill:none;fill-rule:evenodd;stroke:#000000;stroke-width:2.0px;stroke-linecap:butt;stroke-linejoin:miter;stroke-opacity:1"/>
<path class="bond-7 atom-7 atom-8" d="M 707.9,80.9 L 711.2,73.2" style="fill:none;fill-rule:evenodd;stroke:#000000;stroke-width:2.0px;stroke-linecap:butt;stroke-linejoin:miter;stroke-opacity:1"/>
<path class="bond-7 atom-7 atom-8" d="M 711.2,73.2 L 714.5,65.6" style="fill:none;fill-rule:evenodd;stroke:#FF0000;stroke-width:2.0px;stroke-linecap:butt;stroke-linejoin:miter;stroke-opacity:1"/>
<path class="bond-8 atom-8 atom-9" d="M 719.5,62.1 L 728.1,62.9" style="fill:none;fill-rule:evenodd;stroke:#FF0000;stroke-width:2.0px;stroke-linecap:butt;stroke-linejoin:miter;stroke-opacity:1"/>
<path class="bond-8 atom-8 atom-9" d="M 728.1,62.9 L 736.8,63.7" style="fill:none;fill-rule:evenodd;stroke:#000000;stroke-width:2.0px;stroke-linecap:butt;stroke-linejoin:miter;stroke-opacity:1"/>
<path class="bond-9 atom-9 atom-10" d="M 736.8,63.7 L 748.0,51.0" style="fill:none;fill-rule:evenodd;stroke:#000000;stroke-width:2.0px;stroke-linecap:butt;stroke-linejoin:miter;stroke-opacity:1"/>
<path class="bond-10 atom-9 atom-11" d="M 736.8,63.7 L 741.4,84.0" style="fill:none;fill-rule:evenodd;stroke:#000000;stroke-width:2.0px;stroke-linecap:butt;stroke-linejoin:miter;stroke-opacity:1"/>
<path class="bond-10 atom-9 atom-11" d="M 734.3,66.6 L 737.9,82.5" style="fill:none;fill-rule:evenodd;stroke:#000000;stroke-width:2.0px;stroke-linecap:butt;stroke-linejoin:miter;stroke-opacity:1"/>
<path class="bond-11 atom-11 atom-12" d="M 741.4,84.0 L 760.5,92.2" style="fill:none;fill-rule:evenodd;stroke:#000000;stroke-width:2.0px;stroke-linecap:butt;stroke-linejoin:miter;stroke-opacity:1"/>
<path class="bond-12 atom-12 atom-13" d="M 760.5,92.2 L 777.2,79.8" style="fill:none;fill-rule:evenodd;stroke:#000000;stroke-width:2.0px;stroke-linecap:butt;stroke-linejoin:miter;stroke-opacity:1"/>
<path class="bond-13 atom-13 atom-14" d="M 777.2,79.8 L 796.3,88.0" style="fill:none;fill-rule:evenodd;stroke:#000000;stroke-width:2.0px;stroke-linecap:butt;stroke-linejoin:miter;stroke-opacity:1"/>
<path class="bond-14 atom-14 atom-15" d="M 796.3,88.0 L 811.5,102.2" style="fill:none;fill-rule:evenodd;stroke:#000000;stroke-width:2.0px;stroke-linecap:butt;stroke-linejoin:miter;stroke-opacity:1"/>
<path class="bond-15 atom-14 atom-16" d="M 796.3,88.0 L 784.9,105.4" style="fill:none;fill-rule:evenodd;stroke:#000000;stroke-width:2.0px;stroke-linecap:butt;stroke-linejoin:miter;stroke-opacity:1"/>
<path class="bond-16 atom-14 atom-17" d="M 796.3,88.0 L 803.0,83.0" style="fill:none;fill-rule:evenodd;stroke:#000000;stroke-width:2.0px;stroke-linecap:butt;stroke-linejoin:miter;stroke-opacity:1"/>
<path class="bond-16 atom-14 atom-17" d="M 803.0,83.0 L 809.6,78.1" style="fill:none;fill-rule:evenodd;stroke:#FF0000;stroke-width:2.0px;stroke-linecap:butt;stroke-linejoin:miter;stroke-opacity:1"/>
<path class="bond-17 atom-17 atom-18" d="M 812.6,71.9 L 811.6,63.4" style="fill:none;fill-rule:evenodd;stroke:#FF0000;stroke-width:2.0px;stroke-linecap:butt;stroke-linejoin:miter;stroke-opacity:1"/>
<path class="bond-17 atom-17 atom-18" d="M 811.6,63.4 L 810.6,54.9" style="fill:none;fill-rule:evenodd;stroke:#000000;stroke-width:2.0px;stroke-linecap:butt;stroke-linejoin:miter;stroke-opacity:1"/>
<path class="bond-18 atom-18 atom-19" d="M 810.6,54.9 L 817.4,49.7" style="fill:none;fill-rule:evenodd;stroke:#000000;stroke-width:2.0px;stroke-linecap:butt;stroke-linejoin:miter;stroke-opacity:1"/>
<path class="bond-18 atom-18 atom-19" d="M 817.4,49.7 L 824.3,44.6" style="fill:none;fill-rule:evenodd;stroke:#0000FF;stroke-width:2.0px;stroke-linecap:butt;stroke-linejoin:miter;stroke-opacity:1"/>
<path class="bond-19 atom-19 atom-20" d="M 830.2,43.7 L 838.3,47.1" style="fill:none;fill-rule:evenodd;stroke:#0000FF;stroke-width:2.0px;stroke-linecap:butt;stroke-linejoin:miter;stroke-opacity:1"/>
<path class="bond-19 atom-19 atom-20" d="M 838.3,47.1 L 846.4,50.6" style="fill:none;fill-rule:evenodd;stroke:#000000;stroke-width:2.0px;stroke-linecap:butt;stroke-linejoin:miter;stroke-opacity:1"/>
<path class="bond-20 atom-20 atom-21" d="M 846.4,50.6 L 863.0,38.2" style="fill:none;fill-rule:evenodd;stroke:#000000;stroke-width:2.0px;stroke-linecap:butt;stroke-linejoin:miter;stroke-opacity:1"/>
<path class="bond-21 atom-20 atom-22" d="M 846.4,50.6 L 848.8,71.3" style="fill:none;fill-rule:evenodd;stroke:#000000;stroke-width:2.0px;stroke-linecap:butt;stroke-linejoin:miter;stroke-opacity:1"/>
<path class="bond-22 atom-22 atom-23" d="M 848.8,71.3 L 832.1,83.7" style="fill:none;fill-rule:evenodd;stroke:#000000;stroke-width:2.0px;stroke-linecap:butt;stroke-linejoin:miter;stroke-opacity:1"/>
<path class="bond-22 atom-22 atom-23" d="M 849.2,74.9 L 835.4,85.2" style="fill:none;fill-rule:evenodd;stroke:#000000;stroke-width:2.0px;stroke-linecap:butt;stroke-linejoin:miter;stroke-opacity:1"/>
<path class="bond-23 atom-23 atom-24" d="M 832.1,83.7 L 834.6,104.4" style="fill:none;fill-rule:evenodd;stroke:#000000;stroke-width:2.0px;stroke-linecap:butt;stroke-linejoin:miter;stroke-opacity:1"/>
<path class="bond-24 atom-24 atom-25" d="M 834.6,104.4 L 853.7,112.6" style="fill:none;fill-rule:evenodd;stroke:#000000;stroke-width:2.0px;stroke-linecap:butt;stroke-linejoin:miter;stroke-opacity:1"/>
<path class="bond-24 atom-24 atom-25" d="M 837.5,102.3 L 853.3,109.1" style="fill:none;fill-rule:evenodd;stroke:#000000;stroke-width:2.0px;stroke-linecap:butt;stroke-linejoin:miter;stroke-opacity:1"/>
<path class="bond-25 atom-25 atom-26" d="M 853.7,112.6 L 870.4,100.2" style="fill:none;fill-rule:evenodd;stroke:#000000;stroke-width:2.0px;stroke-linecap:butt;stroke-linejoin:miter;stroke-opacity:1"/>
<path class="bond-26 atom-26 atom-27" d="M 870.4,100.2 L 867.9,79.5" style="fill:none;fill-rule:evenodd;stroke:#000000;stroke-width:2.0px;stroke-linecap:butt;stroke-linejoin:miter;stroke-opacity:1"/>
<path class="bond-26 atom-26 atom-27" d="M 867.1,98.8 L 865.0,81.7" style="fill:none;fill-rule:evenodd;stroke:#000000;stroke-width:2.0px;stroke-linecap:butt;stroke-linejoin:miter;stroke-opacity:1"/>
<path class="bond-27 atom-27 atom-28" d="M 867.9,79.5 L 875.1,74.2" style="fill:none;fill-rule:evenodd;stroke:#000000;stroke-width:2.0px;stroke-linecap:butt;stroke-linejoin:miter;stroke-opacity:1"/>
<path class="bond-27 atom-27 atom-28" d="M 875.1,74.2 L 882.2,68.9" style="fill:none;fill-rule:evenodd;stroke:#33CCCC;stroke-width:2.0px;stroke-linecap:butt;stroke-linejoin:miter;stroke-opacity:1"/>
<path class="bond-28 atom-18 atom-29" d="M 810.6,54.9 L 802.5,51.4" style="fill:none;fill-rule:evenodd;stroke:#000000;stroke-width:2.0px;stroke-linecap:butt;stroke-linejoin:miter;stroke-opacity:1"/>
<path class="bond-28 atom-18 atom-29" d="M 802.5,51.4 L 794.4,47.9" style="fill:none;fill-rule:evenodd;stroke:#0000FF;stroke-width:2.0px;stroke-linecap:butt;stroke-linejoin:miter;stroke-opacity:1"/>
<path class="bond-28 atom-18 atom-29" d="M 807.7,57.0 L 800.4,53.9" style="fill:none;fill-rule:evenodd;stroke:#000000;stroke-width:2.0px;stroke-linecap:butt;stroke-linejoin:miter;stroke-opacity:1"/>
<path class="bond-28 atom-18 atom-29" d="M 800.4,53.9 L 793.1,50.8" style="fill:none;fill-rule:evenodd;stroke:#0000FF;stroke-width:2.0px;stroke-linecap:butt;stroke-linejoin:miter;stroke-opacity:1"/>
<path class="bond-29 atom-29 atom-30" d="M 788.5,48.8 L 782.9,53.0" style="fill:none;fill-rule:evenodd;stroke:#0000FF;stroke-width:2.0px;stroke-linecap:butt;stroke-linejoin:miter;stroke-opacity:1"/>
<path class="bond-29 atom-29 atom-30" d="M 782.9,53.0 L 777.3,57.2" style="fill:none;fill-rule:evenodd;stroke:#CCCC00;stroke-width:2.0px;stroke-linecap:butt;stroke-linejoin:miter;stroke-opacity:1"/>
<path class="bond-30 atom-30 atom-31" d="M 771.7,58.4 L 764.7,60.5" style="fill:none;fill-rule:evenodd;stroke:#CCCC00;stroke-width:2.0px;stroke-linecap:butt;stroke-linejoin:miter;stroke-opacity:1"/>
<path class="bond-30 atom-30 atom-31" d="M 764.7,60.5 L 757.8,62.6" style="fill:none;fill-rule:evenodd;stroke:#FF0000;stroke-width:2.0px;stroke-linecap:butt;stroke-linejoin:miter;stroke-opacity:1"/>
<path class="bond-30 atom-30 atom-31" d="M 772.6,61.4 L 765.6,63.5" style="fill:none;fill-rule:evenodd;stroke:#CCCC00;stroke-width:2.0px;stroke-linecap:butt;stroke-linejoin:miter;stroke-opacity:1"/>
<path class="bond-30 atom-30 atom-31" d="M 765.6,63.5 L 758.7,65.6" style="fill:none;fill-rule:evenodd;stroke:#FF0000;stroke-width:2.0px;stroke-linecap:butt;stroke-linejoin:miter;stroke-opacity:1"/>
<path class="bond-31 atom-30 atom-32" d="M 774.3,54.8 L 771.5,49.2" style="fill:none;fill-rule:evenodd;stroke:#CCCC00;stroke-width:2.0px;stroke-linecap:butt;stroke-linejoin:miter;stroke-opacity:1"/>
<path class="bond-31 atom-30 atom-32" d="M 771.5,49.2 L 768.7,43.6" style="fill:none;fill-rule:evenodd;stroke:#FF0000;stroke-width:2.0px;stroke-linecap:butt;stroke-linejoin:miter;stroke-opacity:1"/>
<path class="bond-31 atom-30 atom-32" d="M 771.5,56.2 L 768.7,50.6" style="fill:none;fill-rule:evenodd;stroke:#CCCC00;stroke-width:2.0px;stroke-linecap:butt;stroke-linejoin:miter;stroke-opacity:1"/>
<path class="bond-31 atom-30 atom-32" d="M 768.7,50.6 L 765.9,45.0" style="fill:none;fill-rule:evenodd;stroke:#FF0000;stroke-width:2.0px;stroke-linecap:butt;stroke-linejoin:miter;stroke-opacity:1"/>
<path class="bond-32 atom-11 atom-33" d="M 741.4,84.0 L 723.5,94.6" style="fill:none;fill-rule:evenodd;stroke:#000000;stroke-width:2.0px;stroke-linecap:butt;stroke-linejoin:miter;stroke-opacity:1"/>
<path class="bond-33 atom-33 atom-34" d="M 723.5,94.6 L 721.6,115.4" style="fill:none;fill-rule:evenodd;stroke:#000000;stroke-width:2.0px;stroke-linecap:butt;stroke-linejoin:miter;stroke-opacity:1"/>
<path class="bond-34 atom-34 atom-35" d="M 721.6,115.4 L 713.4,119.2" style="fill:none;fill-rule:evenodd;stroke:#000000;stroke-width:2.0px;stroke-linecap:butt;stroke-linejoin:miter;stroke-opacity:1"/>
<path class="bond-34 atom-34 atom-35" d="M 713.4,119.2 L 705.1,123.0" style="fill:none;fill-rule:evenodd;stroke:#33CCCC;stroke-width:2.0px;stroke-linecap:butt;stroke-linejoin:miter;stroke-opacity:1"/>
<path class="bond-35 atom-5 atom-2" d="M 673.4,70.2 L 664.5,69.9" style="fill:none;fill-rule:evenodd;stroke:#000000;stroke-width:2.0px;stroke-linecap:butt;stroke-linejoin:miter;stroke-opacity:1"/>
<path class="bond-35 atom-5 atom-2" d="M 664.5,69.9 L 655.6,69.5" style="fill:none;fill-rule:evenodd;stroke:#0000FF;stroke-width:2.0px;stroke-linecap:butt;stroke-linejoin:miter;stroke-opacity:1"/>
<path class="bond-36 atom-33 atom-7" d="M 723.5,94.6 L 707.9,80.9" style="fill:none;fill-rule:evenodd;stroke:#000000;stroke-width:2.0px;stroke-linecap:butt;stroke-linejoin:miter;stroke-opacity:1"/>
<path class="bond-36 atom-33 atom-7" d="M 723.9,90.8 L 711.6,80.1" style="fill:none;fill-rule:evenodd;stroke:#000000;stroke-width:2.0px;stroke-linecap:butt;stroke-linejoin:miter;stroke-opacity:1"/>
<path class="bond-37 atom-30 atom-13" d="M 775.2,62.9 L 776.2,71.3" style="fill:none;fill-rule:evenodd;stroke:#CCCC00;stroke-width:2.0px;stroke-linecap:butt;stroke-linejoin:miter;stroke-opacity:1"/>
<path class="bond-37 atom-30 atom-13" d="M 776.2,71.3 L 777.2,79.8" style="fill:none;fill-rule:evenodd;stroke:#000000;stroke-width:2.0px;stroke-linecap:butt;stroke-linejoin:miter;stroke-opacity:1"/>
<path class="bond-38 atom-27 atom-22" d="M 867.9,79.5 L 848.8,71.3" style="fill:none;fill-rule:evenodd;stroke:#000000;stroke-width:2.0px;stroke-linecap:butt;stroke-linejoin:miter;stroke-opacity:1"/>
<path d="M 759.6,91.8 L 760.5,92.2 L 761.4,91.6" style="fill:none;stroke:#000000;stroke-width:2.0px;stroke-linecap:butt;stroke-linejoin:miter;stroke-opacity:1;"/>
<path d="M 833.0,83.1 L 832.1,83.7 L 832.3,84.8" style="fill:none;stroke:#000000;stroke-width:2.0px;stroke-linecap:butt;stroke-linejoin:miter;stroke-opacity:1;"/>
<path d="M 834.5,103.4 L 834.6,104.4 L 835.5,104.8" style="fill:none;stroke:#000000;stroke-width:2.0px;stroke-linecap:butt;stroke-linejoin:miter;stroke-opacity:1;"/>
<path d="M 852.7,112.2 L 853.7,112.6 L 854.5,112.0" style="fill:none;stroke:#000000;stroke-width:2.0px;stroke-linecap:butt;stroke-linejoin:miter;stroke-opacity:1;"/>
<path d="M 869.5,100.8 L 870.4,100.2 L 870.3,99.1" style="fill:none;stroke:#000000;stroke-width:2.0px;stroke-linecap:butt;stroke-linejoin:miter;stroke-opacity:1;"/>
<path d="M 721.7,114.3 L 721.6,115.4 L 721.2,115.6" style="fill:none;stroke:#000000;stroke-width:2.0px;stroke-linecap:butt;stroke-linejoin:miter;stroke-opacity:1;"/>
<path class="atom-0" d="M 615.2 77.4 Q 615.2 75.9, 615.9 75.2 Q 616.6 74.4, 617.9 74.4 Q 619.1 74.4, 619.7 75.2 L 619.2 75.7 Q 618.7 75.1, 617.9 75.1 Q 617.0 75.1, 616.5 75.7 Q 616.0 76.3, 616.0 77.4 Q 616.0 78.6, 616.5 79.2 Q 617.0 79.8, 618.0 79.8 Q 618.6 79.8, 619.4 79.4 L 619.6 80.0 Q 619.3 80.2, 618.8 80.3 Q 618.4 80.4, 617.9 80.4 Q 616.6 80.4, 615.9 79.6 Q 615.2 78.9, 615.2 77.4 " fill="#000000"/>
<path class="atom-0" d="M 620.5 75.4 L 622.5 75.4 L 622.5 75.8 L 620.5 75.8 L 620.5 75.4 " fill="#000000"/>
<path class="atom-1" d="M 635.7 85.6 Q 635.8 85.6, 636.0 85.7 Q 636.3 85.8, 636.6 85.9 Q 636.9 86.0, 637.2 86.0 Q 637.8 86.0, 638.1 85.7 Q 638.4 85.4, 638.4 84.9 Q 638.4 84.6, 638.2 84.4 Q 638.1 84.2, 637.8 84.1 Q 637.6 84.0, 637.2 83.9 Q 636.6 83.7, 636.3 83.6 Q 636.0 83.4, 635.8 83.1 Q 635.6 82.8, 635.6 82.3 Q 635.6 81.5, 636.1 81.1 Q 636.6 80.6, 637.6 80.6 Q 638.3 80.6, 639.0 80.9 L 638.9 81.6 Q 638.1 81.3, 637.6 81.3 Q 637.0 81.3, 636.7 81.5 Q 636.4 81.7, 636.4 82.2 Q 636.4 82.5, 636.6 82.7 Q 636.7 82.9, 637.0 83.0 Q 637.2 83.1, 637.6 83.2 Q 638.1 83.4, 638.5 83.5 Q 638.8 83.7, 639.0 84.0 Q 639.2 84.4, 639.2 84.9 Q 639.2 85.8, 638.7 86.2 Q 638.1 86.6, 637.2 86.6 Q 636.7 86.6, 636.3 86.5 Q 635.9 86.4, 635.5 86.2 L 635.7 85.6 " fill="#CCCC00"/>
<path class="atom-1" d="M 640.0 81.6 L 641.1 81.6 L 641.1 80.5 L 641.5 80.5 L 641.5 81.6 L 642.6 81.6 L 642.6 82.0 L 641.5 82.0 L 641.5 83.1 L 641.1 83.1 L 641.1 82.0 L 640.0 82.0 L 640.0 81.6 " fill="#CCCC00"/>
<path class="atom-2" d="M 651.3 66.5 L 653.3 69.6 Q 653.5 69.9, 653.8 70.4 Q 654.1 71.0, 654.1 71.0 L 654.1 66.5 L 654.9 66.5 L 654.9 72.4 L 654.1 72.4 L 652.0 68.9 Q 651.7 68.5, 651.5 68.1 Q 651.2 67.6, 651.2 67.5 L 651.2 72.4 L 650.4 72.4 L 650.4 66.5 L 651.3 66.5 " fill="#0000FF"/>
<path class="atom-3" d="M 651.8 50.6 Q 651.9 50.7, 652.1 50.8 Q 652.4 50.9, 652.7 51.0 Q 653.0 51.0, 653.3 51.0 Q 653.9 51.0, 654.2 50.8 Q 654.5 50.5, 654.5 50.0 Q 654.5 49.7, 654.4 49.5 Q 654.2 49.3, 653.9 49.2 Q 653.7 49.1, 653.3 48.9 Q 652.8 48.8, 652.4 48.6 Q 652.1 48.5, 651.9 48.2 Q 651.7 47.9, 651.7 47.3 Q 651.7 46.6, 652.2 46.1 Q 652.7 45.7, 653.7 45.7 Q 654.4 45.7, 655.2 46.0 L 655.0 46.6 Q 654.3 46.3, 653.7 46.3 Q 653.1 46.3, 652.8 46.6 Q 652.5 46.8, 652.5 47.2 Q 652.5 47.5, 652.7 47.7 Q 652.8 47.9, 653.1 48.0 Q 653.3 48.1, 653.7 48.3 Q 654.3 48.4, 654.6 48.6 Q 654.9 48.8, 655.1 49.1 Q 655.3 49.4, 655.3 50.0 Q 655.3 50.8, 654.8 51.3 Q 654.3 51.7, 653.3 51.7 Q 652.8 51.7, 652.4 51.6 Q 652.0 51.5, 651.6 51.3 L 651.8 50.6 " fill="#CCCC00"/>
<path class="atom-4" d="M 672.9 46.5 L 674.9 49.6 Q 675.1 49.9, 675.4 50.5 Q 675.7 51.0, 675.7 51.1 L 675.7 46.5 L 676.5 46.5 L 676.5 52.4 L 675.7 52.4 L 673.6 49.0 Q 673.4 48.6, 673.1 48.1 Q 672.9 47.6, 672.8 47.5 L 672.8 52.4 L 672.0 52.4 L 672.0 46.5 L 672.9 46.5 " fill="#0000FF"/>
<path class="atom-6" d="M 685.9 87.5 Q 686.0 87.6, 686.2 87.7 Q 686.5 87.8, 686.8 87.9 Q 687.1 87.9, 687.4 87.9 Q 688.0 87.9, 688.3 87.7 Q 688.6 87.4, 688.6 86.9 Q 688.6 86.6, 688.5 86.4 Q 688.3 86.2, 688.1 86.1 Q 687.8 86.0, 687.4 85.9 Q 686.9 85.7, 686.5 85.5 Q 686.2 85.4, 686.0 85.1 Q 685.8 84.8, 685.8 84.2 Q 685.8 83.5, 686.3 83.0 Q 686.8 82.6, 687.8 82.6 Q 688.5 82.6, 689.3 82.9 L 689.1 83.5 Q 688.4 83.2, 687.8 83.2 Q 687.3 83.2, 686.9 83.5 Q 686.6 83.7, 686.6 84.1 Q 686.6 84.4, 686.8 84.6 Q 687.0 84.8, 687.2 84.9 Q 687.4 85.0, 687.8 85.2 Q 688.4 85.3, 688.7 85.5 Q 689.0 85.7, 689.2 86.0 Q 689.5 86.3, 689.5 86.9 Q 689.5 87.7, 688.9 88.2 Q 688.4 88.6, 687.5 88.6 Q 686.9 88.6, 686.5 88.5 Q 686.1 88.4, 685.7 88.2 L 685.9 87.5 " fill="#CCCC00"/>
<path class="atom-6" d="M 685.3 89.2 L 686.1 89.2 L 686.1 91.7 L 689.1 91.7 L 689.1 89.2 L 689.9 89.2 L 689.9 95.1 L 689.1 95.1 L 689.1 92.4 L 686.1 92.4 L 686.1 95.1 L 685.3 95.1 L 685.3 89.2 " fill="#CCCC00"/>
<path class="atom-8" d="M 713.4 61.8 Q 713.4 60.4, 714.1 59.6 Q 714.8 58.8, 716.1 58.8 Q 717.4 58.8, 718.1 59.6 Q 718.8 60.4, 718.8 61.8 Q 718.8 63.2, 718.1 64.1 Q 717.4 64.9, 716.1 64.9 Q 714.8 64.9, 714.1 64.1 Q 713.4 63.2, 713.4 61.8 M 716.1 64.2 Q 717.0 64.2, 717.5 63.6 Q 718.0 63.0, 718.0 61.8 Q 718.0 60.7, 717.5 60.1 Q 717.0 59.5, 716.1 59.5 Q 715.2 59.5, 714.7 60.1 Q 714.2 60.6, 714.2 61.8 Q 714.2 63.0, 714.7 63.6 Q 715.2 64.2, 716.1 64.2 " fill="#FF0000"/>
<path class="atom-10" d="M 748.9 50.1 Q 748.9 50.1, 749.2 50.2 Q 749.5 50.3, 749.8 50.4 Q 750.1 50.5, 750.4 50.5 Q 750.9 50.5, 751.3 50.2 Q 751.6 49.9, 751.6 49.5 Q 751.6 49.1, 751.4 48.9 Q 751.3 48.7, 751.0 48.6 Q 750.8 48.5, 750.4 48.4 Q 749.8 48.2, 749.5 48.1 Q 749.2 47.9, 749.0 47.6 Q 748.8 47.3, 748.8 46.8 Q 748.8 46.0, 749.3 45.6 Q 749.8 45.1, 750.8 45.1 Q 751.5 45.1, 752.2 45.4 L 752.0 46.1 Q 751.3 45.8, 750.8 45.8 Q 750.2 45.8, 749.9 46.0 Q 749.6 46.3, 749.6 46.7 Q 749.6 47.0, 749.8 47.2 Q 749.9 47.4, 750.2 47.5 Q 750.4 47.6, 750.8 47.7 Q 751.3 47.9, 751.6 48.0 Q 752.0 48.2, 752.2 48.6 Q 752.4 48.9, 752.4 49.5 Q 752.4 50.3, 751.9 50.7 Q 751.3 51.2, 750.4 51.2 Q 749.9 51.2, 749.5 51.0 Q 749.1 50.9, 748.6 50.7 L 748.9 50.1 " fill="#000000"/>
<path class="atom-10" d="M 753.0 45.1 L 753.8 45.1 L 753.8 45.8 L 753.0 45.8 L 753.0 45.1 M 753.0 46.7 L 753.8 46.7 L 753.8 51.0 L 753.0 51.0 L 753.0 46.7 " fill="#000000"/>
<path class="atom-17" d="M 810.3 75.5 Q 810.3 74.1, 811.0 73.3 Q 811.7 72.5, 813.0 72.5 Q 814.3 72.5, 815.0 73.3 Q 815.7 74.1, 815.7 75.5 Q 815.7 77.0, 815.0 77.8 Q 814.3 78.6, 813.0 78.6 Q 811.7 78.6, 811.0 77.8 Q 810.3 77.0, 810.3 75.5 M 813.0 77.9 Q 813.9 77.9, 814.4 77.3 Q 814.9 76.7, 814.9 75.5 Q 814.9 74.4, 814.4 73.8 Q 813.9 73.2, 813.0 73.2 Q 812.1 73.2, 811.6 73.8 Q 811.1 74.4, 811.1 75.5 Q 811.1 76.7, 811.6 77.3 Q 812.1 77.9, 813.0 77.9 " fill="#FF0000"/>
<path class="atom-19" d="M 825.9 39.5 L 827.9 42.6 Q 828.1 42.9, 828.4 43.4 Q 828.7 44.0, 828.7 44.0 L 828.7 39.5 L 829.5 39.5 L 829.5 45.3 L 828.7 45.3 L 826.6 41.9 Q 826.4 41.5, 826.1 41.1 Q 825.8 40.6, 825.8 40.5 L 825.8 45.3 L 825.0 45.3 L 825.0 39.5 L 825.9 39.5 " fill="#0000FF"/>
<path class="atom-19" d="M 824.9 33.0 L 825.7 33.0 L 825.7 35.5 L 828.7 35.5 L 828.7 33.0 L 829.5 33.0 L 829.5 38.9 L 828.7 38.9 L 828.7 36.1 L 825.7 36.1 L 825.7 38.9 L 824.9 38.9 L 824.9 33.0 " fill="#0000FF"/>
<path class="atom-28" d="M 882.9 64.1 L 886.4 64.1 L 886.4 64.8 L 883.6 64.8 L 883.6 66.6 L 886.1 66.6 L 886.1 67.3 L 883.6 67.3 L 883.6 70.0 L 882.9 70.0 L 882.9 64.1 " fill="#33CCCC"/>
<path class="atom-29" d="M 790.1 43.7 L 792.1 46.8 Q 792.3 47.1, 792.6 47.7 Q 792.9 48.2, 792.9 48.3 L 792.9 43.7 L 793.7 43.7 L 793.7 49.6 L 792.9 49.6 L 790.8 46.2 Q 790.5 45.8, 790.3 45.3 Q 790.0 44.9, 790.0 44.7 L 790.0 49.6 L 789.2 49.6 L 789.2 43.7 L 790.1 43.7 " fill="#0000FF"/>
<path class="atom-30" d="M 773.1 61.1 Q 773.2 61.1, 773.4 61.3 Q 773.7 61.4, 774.0 61.4 Q 774.3 61.5, 774.6 61.5 Q 775.2 61.5, 775.5 61.2 Q 775.8 61.0, 775.8 60.5 Q 775.8 60.2, 775.7 60.0 Q 775.5 59.8, 775.2 59.7 Q 775.0 59.6, 774.6 59.4 Q 774.1 59.3, 773.7 59.1 Q 773.4 59.0, 773.2 58.7 Q 773.0 58.3, 773.0 57.8 Q 773.0 57.1, 773.5 56.6 Q 774.0 56.2, 775.0 56.2 Q 775.7 56.2, 776.5 56.5 L 776.3 57.1 Q 775.6 56.8, 775.0 56.8 Q 774.4 56.8, 774.1 57.1 Q 773.8 57.3, 773.8 57.7 Q 773.8 58.0, 774.0 58.2 Q 774.1 58.4, 774.4 58.5 Q 774.6 58.6, 775.0 58.8 Q 775.6 58.9, 775.9 59.1 Q 776.2 59.3, 776.4 59.6 Q 776.6 59.9, 776.6 60.5 Q 776.6 61.3, 776.1 61.8 Q 775.6 62.2, 774.6 62.2 Q 774.1 62.2, 773.7 62.1 Q 773.3 62.0, 772.9 61.8 L 773.1 61.1 " fill="#CCCC00"/>
<path class="atom-31" d="M 752.1 65.1 Q 752.1 63.7, 752.8 62.9 Q 753.5 62.1, 754.8 62.1 Q 756.1 62.1, 756.8 62.9 Q 757.5 63.7, 757.5 65.1 Q 757.5 66.5, 756.8 67.4 Q 756.1 68.2, 754.8 68.2 Q 753.5 68.2, 752.8 67.4 Q 752.1 66.5, 752.1 65.1 M 754.8 67.5 Q 755.7 67.5, 756.2 66.9 Q 756.7 66.3, 756.7 65.1 Q 756.7 63.9, 756.2 63.4 Q 755.7 62.8, 754.8 62.8 Q 753.9 62.8, 753.4 63.4 Q 753.0 63.9, 753.0 65.1 Q 753.0 66.3, 753.4 66.9 Q 753.9 67.5, 754.8 67.5 " fill="#FF0000"/>
<path class="atom-32" d="M 762.7 40.5 Q 762.7 39.1, 763.4 38.3 Q 764.1 37.5, 765.4 37.5 Q 766.7 37.5, 767.4 38.3 Q 768.1 39.1, 768.1 40.5 Q 768.1 42.0, 767.4 42.8 Q 766.7 43.6, 765.4 43.6 Q 764.1 43.6, 763.4 42.8 Q 762.7 42.0, 762.7 40.5 M 765.4 42.9 Q 766.3 42.9, 766.8 42.3 Q 767.3 41.7, 767.3 40.5 Q 767.3 39.4, 766.8 38.8 Q 766.3 38.2, 765.4 38.2 Q 764.5 38.2, 764.0 38.8 Q 763.5 39.4, 763.5 40.5 Q 763.5 41.7, 764.0 42.3 Q 764.5 42.9, 765.4 42.9 " fill="#FF0000"/>
<path class="atom-35" d="M 701.0 121.1 L 704.5 121.1 L 704.5 121.8 L 701.7 121.8 L 701.7 123.6 L 704.2 123.6 L 704.2 124.3 L 701.7 124.3 L 701.7 127.0 L 701.0 127.0 L 701.0 121.1 " fill="#33CCCC"/>
<path class="atom-0" d="M 614.4,77.4 L 614.4,77.4 L 614.4,77.4 L 614.4,77.5 L 614.3,77.5 L 614.3,77.5 L 614.3,77.6 L 614.3,77.6 L 614.3,77.6 L 614.2,77.7 L 614.2,77.7 L 614.2,77.7 L 614.2,77.7 L 614.1,77.7 L 614.1,77.8 L 614.1,77.8 L 614.0,77.8 L 614.0,77.8 L 614.0,77.8 L 613.9,77.8 L 613.9,77.8 L 613.9,77.8 L 613.8,77.8 L 613.8,77.7 L 613.8,77.7 L 613.7,77.7 L 613.7,77.7 L 613.7,77.7 L 613.6,77.6 L 613.6,77.6 L 613.6,77.6 L 613.6,77.6 L 613.6,77.5 L 613.6,77.5 L 613.5,77.5 L 613.5,77.4 L 613.5,77.4 L 613.5,77.3 L 613.5,77.3 L 613.5,77.3 L 613.6,77.2 L 613.6,77.2 L 613.6,77.2 L 613.6,77.1 L 613.6,77.1 L 613.6,77.1 L 613.7,77.1 L 613.7,77.0 L 613.7,77.0 L 613.8,77.0 L 613.8,77.0 L 613.8,77.0 L 613.9,77.0 L 613.9,77.0 L 613.9,76.9 L 614.0,76.9 L 614.0,76.9 L 614.0,77.0 L 614.1,77.0 L 614.1,77.0 L 614.1,77.0 L 614.2,77.0 L 614.2,77.0 L 614.2,77.0 L 614.2,77.1 L 614.3,77.1 L 614.3,77.1 L 614.3,77.2 L 614.3,77.2 L 614.3,77.2 L 614.4,77.3 L 614.4,77.3 L 614.4,77.3 L 614.4,77.4 L 613.9,77.4 Z" style="fill:#000000;fill-rule:evenodd;fill-opacity:1;stroke:#000000;stroke-width:0.0px;stroke-linecap:butt;stroke-linejoin:miter;stroke-opacity:1;"/>
<path class="atom-6" d="M 691.5,85.5 L 691.5,85.5 L 691.5,85.6 L 691.5,85.6 L 691.5,85.6 L 691.5,85.7 L 691.5,85.7 L 691.5,85.7 L 691.4,85.8 L 691.4,85.8 L 691.4,85.8 L 691.4,85.8 L 691.3,85.9 L 691.3,85.9 L 691.3,85.9 L 691.2,85.9 L 691.2,85.9 L 691.2,85.9 L 691.1,85.9 L 691.1,85.9 L 691.1,85.9 L 691.0,85.9 L 691.0,85.9 L 691.0,85.9 L 690.9,85.9 L 690.9,85.9 L 690.9,85.8 L 690.8,85.8 L 690.8,85.8 L 690.8,85.8 L 690.8,85.7 L 690.7,85.7 L 690.7,85.7 L 690.7,85.6 L 690.7,85.6 L 690.7,85.6 L 690.7,85.5 L 690.7,85.5 L 690.7,85.5 L 690.7,85.4 L 690.7,85.4 L 690.7,85.4 L 690.7,85.3 L 690.8,85.3 L 690.8,85.3 L 690.8,85.2 L 690.8,85.2 L 690.9,85.2 L 690.9,85.2 L 690.9,85.1 L 691.0,85.1 L 691.0,85.1 L 691.0,85.1 L 691.1,85.1 L 691.1,85.1 L 691.1,85.1 L 691.2,85.1 L 691.2,85.1 L 691.2,85.1 L 691.3,85.1 L 691.3,85.1 L 691.3,85.2 L 691.4,85.2 L 691.4,85.2 L 691.4,85.2 L 691.4,85.2 L 691.5,85.3 L 691.5,85.3 L 691.5,85.3 L 691.5,85.4 L 691.5,85.4 L 691.5,85.4 L 691.5,85.5 L 691.5,85.5 L 691.1,85.5 Z" style="fill:#000000;fill-rule:evenodd;fill-opacity:1;stroke:#000000;stroke-width:0.0px;stroke-linecap:butt;stroke-linejoin:miter;stroke-opacity:1;"/>
<path class="atom-10" d="M 755.5,46.0 L 755.5,46.0 L 755.5,46.0 L 755.5,46.1 L 755.4,46.1 L 755.4,46.1 L 755.4,46.2 L 755.4,46.2 L 755.4,46.2 L 755.4,46.3 L 755.3,46.3 L 755.3,46.3 L 755.3,46.3 L 755.2,46.3 L 755.2,46.4 L 755.2,46.4 L 755.1,46.4 L 755.1,46.4 L 755.1,46.4 L 755.0,46.4 L 755.0,46.4 L 755.0,46.4 L 754.9,46.4 L 754.9,46.3 L 754.9,46.3 L 754.8,46.3 L 754.8,46.3 L 754.8,46.3 L 754.7,46.2 L 754.7,46.2 L 754.7,46.2 L 754.7,46.2 L 754.7,46.1 L 754.7,46.1 L 754.6,46.1 L 754.6,46.0 L 754.6,46.0 L 754.6,45.9 L 754.6,45.9 L 754.6,45.9 L 754.7,45.8 L 754.7,45.8 L 754.7,45.8 L 754.7,45.7 L 754.7,45.7 L 754.7,45.7 L 754.8,45.7 L 754.8,45.6 L 754.8,45.6 L 754.9,45.6 L 754.9,45.6 L 754.9,45.6 L 755.0,45.6 L 755.0,45.6 L 755.0,45.6 L 755.1,45.6 L 755.1,45.6 L 755.1,45.6 L 755.2,45.6 L 755.2,45.6 L 755.2,45.6 L 755.3,45.6 L 755.3,45.6 L 755.3,45.7 L 755.4,45.7 L 755.4,45.7 L 755.4,45.7 L 755.4,45.8 L 755.4,45.8 L 755.4,45.8 L 755.5,45.9 L 755.5,45.9 L 755.5,45.9 L 755.5,46.0 L 755.1,46.0 Z" style="fill:#000000;fill-rule:evenodd;fill-opacity:1;stroke:#000000;stroke-width:0.0px;stroke-linecap:butt;stroke-linejoin:miter;stroke-opacity:1;"/>
<path class="atom-10" d="M 755.5,50.1 L 755.5,50.2 L 755.5,50.2 L 755.5,50.2 L 755.4,50.3 L 755.4,50.3 L 755.4,50.3 L 755.4,50.4 L 755.4,50.4 L 755.4,50.4 L 755.3,50.4 L 755.3,50.5 L 755.3,50.5 L 755.2,50.5 L 755.2,50.5 L 755.2,50.5 L 755.1,50.5 L 755.1,50.5 L 755.1,50.5 L 755.0,50.5 L 755.0,50.5 L 755.0,50.5 L 754.9,50.5 L 754.9,50.5 L 754.9,50.5 L 754.8,50.5 L 754.8,50.5 L 754.8,50.4 L 754.7,50.4 L 754.7,50.4 L 754.7,50.4 L 754.7,50.3 L 754.7,50.3 L 754.7,50.3 L 754.6,50.2 L 754.6,50.2 L 754.6,50.1 L 754.6,50.1 L 754.6,50.1 L 754.6,50.0 L 754.7,50.0 L 754.7,50.0 L 754.7,49.9 L 754.7,49.9 L 754.7,49.9 L 754.7,49.9 L 754.8,49.8 L 754.8,49.8 L 754.8,49.8 L 754.9,49.8 L 754.9,49.7 L 754.9,49.7 L 755.0,49.7 L 755.0,49.7 L 755.0,49.7 L 755.1,49.7 L 755.1,49.7 L 755.1,49.7 L 755.2,49.7 L 755.2,49.7 L 755.2,49.8 L 755.3,49.8 L 755.3,49.8 L 755.3,49.8 L 755.4,49.8 L 755.4,49.9 L 755.4,49.9 L 755.4,49.9 L 755.4,50.0 L 755.4,50.0 L 755.5,50.0 L 755.5,50.1 L 755.5,50.1 L 755.5,50.1 L 755.1,50.1 Z" style="fill:#000000;fill-rule:evenodd;fill-opacity:1;stroke:#000000;stroke-width:0.0px;stroke-linecap:butt;stroke-linejoin:miter;stroke-opacity:1;"/>
<path class="atom-10" d="M 755.5,48.0 L 755.5,48.1 L 755.5,48.1 L 755.5,48.2 L 755.4,48.2 L 755.4,48.2 L 755.4,48.3 L 755.4,48.3 L 755.4,48.3 L 755.4,48.3 L 755.3,48.4 L 755.3,48.4 L 755.3,48.4 L 755.2,48.4 L 755.2,48.4 L 755.2,48.4 L 755.1,48.5 L 755.1,48.5 L 755.1,48.5 L 755.0,48.5 L 755.0,48.5 L 755.0,48.5 L 754.9,48.4 L 754.9,48.4 L 754.9,48.4 L 754.8,48.4 L 754.8,48.4 L 754.8,48.4 L 754.7,48.3 L 754.7,48.3 L 754.7,48.3 L 754.7,48.2 L 754.7,48.2 L 754.7,48.2 L 754.6,48.1 L 754.6,48.1 L 754.6,48.1 L 754.6,48.0 L 754.6,48.0 L 754.6,48.0 L 754.7,47.9 L 754.7,47.9 L 754.7,47.9 L 754.7,47.8 L 754.7,47.8 L 754.7,47.8 L 754.8,47.7 L 754.8,47.7 L 754.8,47.7 L 754.9,47.7 L 754.9,47.7 L 754.9,47.7 L 755.0,47.6 L 755.0,47.6 L 755.0,47.6 L 755.1,47.6 L 755.1,47.6 L 755.1,47.6 L 755.2,47.6 L 755.2,47.7 L 755.2,47.7 L 755.3,47.7 L 755.3,47.7 L 755.3,47.7 L 755.4,47.8 L 755.4,47.8 L 755.4,47.8 L 755.4,47.8 L 755.4,47.9 L 755.4,47.9 L 755.5,47.9 L 755.5,48.0 L 755.5,48.0 L 755.5,48.0 L 755.1,48.0 Z" style="fill:#000000;fill-rule:evenodd;fill-opacity:1;stroke:#000000;stroke-width:0.0px;stroke-linecap:butt;stroke-linejoin:miter;stroke-opacity:1;"/>
</svg>