<svg xmlns="http://www.w3.org/2000/svg" xmlns:rdkit="http://www.rdkit.org/xml" xmlns:xlink="http://www.w3.org/1999/xlink" version="1.1" baseProfile="full" xml:space="preserve" width="900px" height="160px" viewBox="0 0 900 160">
<!-- END OF HEADER -->
<rect style="opacity:1.0;fill:#FFFFFF;stroke:none" width="900.0" height="160.0" x="0.0" y="0.0"> </rect>
<path class="bond-0 atom-0 atom-1" d="M 257.0,24.5 L 259.1,32.3" style="fill:none;fill-rule:evenodd;stroke:#000000;stroke-width:2.0px;stroke-linecap:butt;stroke-linejoin:miter;stroke-opacity:1"/>
<path class="bond-0 atom-0 atom-1" d="M 259.1,32.3 L 261.1,40.0" style="fill:none;fill-rule:evenodd;stroke:#0000FF;stroke-width:2.0px;stroke-linecap:butt;stroke-linejoin:miter;stroke-opacity:1"/>
<path class="bond-1 atom-1 atom-2" d="M 264.8,45.0 L 270.7,48.3" style="fill:none;fill-rule:evenodd;stroke:#0000FF;stroke-width:2.0px;stroke-linecap:butt;stroke-linejoin:miter;stroke-opacity:1"/>
<path class="bond-1 atom-1 atom-2" d="M 270.7,48.3 L 276.6,51.7" style="fill:none;fill-rule:evenodd;stroke:#CCCC00;stroke-width:2.0px;stroke-linecap:butt;stroke-linejoin:miter;stroke-opacity:1"/>
<path class="bond-2 atom-2 atom-3" d="M 276.9,56.7 L 274.1,61.6" style="fill:none;fill-rule:evenodd;stroke:#CCCC00;stroke-width:2.0px;stroke-linecap:butt;stroke-linejoin:miter;stroke-opacity:1"/>
<path class="bond-2 atom-2 atom-3" d="M 274.1,61.6 L 271.2,66.6" style="fill:none;fill-rule:evenodd;stroke:#0000FF;stroke-width:2.0px;stroke-linecap:butt;stroke-linejoin:miter;stroke-opacity:1"/>
<path class="bond-3 atom-3 atom-4" d="M 266.5,68.5 L 259.4,64.4" style="fill:none;fill-rule:evenodd;stroke:#0000FF;stroke-width:2.0px;stroke-linecap:butt;stroke-linejoin:miter;stroke-opacity:1"/>
<path class="bond-3 atom-3 atom-4" d="M 259.4,64.4 L 252.3,60.3" style="fill:none;fill-rule:evenodd;stroke:#000000;stroke-width:2.0px;stroke-linecap:butt;stroke-linejoin:miter;stroke-opacity:1"/>
<path class="bond-3 atom-3 atom-4" d="M 268.0,65.9 L 262.2,62.6" style="fill:none;fill-rule:evenodd;stroke:#0000FF;stroke-width:2.0px;stroke-linecap:butt;stroke-linejoin:miter;stroke-opacity:1"/>
<path class="bond-3 atom-3 atom-4" d="M 262.2,62.6 L 256.3,59.2" style="fill:none;fill-rule:evenodd;stroke:#000000;stroke-width:2.0px;stroke-linecap:butt;stroke-linejoin:miter;stroke-opacity:1"/>
<path class="bond-4 atom-4 atom-5" d="M 252.3,60.3 L 233.5,65.4" style="fill:none;fill-rule:evenodd;stroke:#000000;stroke-width:2.0px;stroke-linecap:butt;stroke-linejoin:miter;stroke-opacity:1"/>
<path class="bond-5 atom-5 atom-6" d="M 233.5,65.4 L 228.5,84.2" style="fill:none;fill-rule:evenodd;stroke:#000000;stroke-width:2.0px;stroke-linecap:butt;stroke-linejoin:miter;stroke-opacity:1"/>
<path class="bond-6 atom-6 atom-7" d="M 228.5,84.2 L 243.3,96.9" style="fill:none;fill-rule:evenodd;stroke:#000000;stroke-width:2.0px;stroke-linecap:butt;stroke-linejoin:miter;stroke-opacity:1"/>
<path class="bond-6 atom-6 atom-7" d="M 227.7,87.4 L 240.3,98.3" style="fill:none;fill-rule:evenodd;stroke:#000000;stroke-width:2.0px;stroke-linecap:butt;stroke-linejoin:miter;stroke-opacity:1"/>
<path class="bond-7 atom-7 atom-8" d="M 243.3,96.9 L 242.6,116.5" style="fill:none;fill-rule:evenodd;stroke:#000000;stroke-width:2.0px;stroke-linecap:butt;stroke-linejoin:miter;stroke-opacity:1"/>
<path class="bond-8 atom-8 atom-9" d="M 242.6,116.5 L 226.9,128.1" style="fill:none;fill-rule:evenodd;stroke:#000000;stroke-width:2.0px;stroke-linecap:butt;stroke-linejoin:miter;stroke-opacity:1"/>
<path class="bond-8 atom-8 atom-9" d="M 239.7,114.9 L 226.3,124.9" style="fill:none;fill-rule:evenodd;stroke:#000000;stroke-width:2.0px;stroke-linecap:butt;stroke-linejoin:miter;stroke-opacity:1"/>
<path class="bond-9 atom-9 atom-10" d="M 226.9,128.1 L 208.1,123.1" style="fill:none;fill-rule:evenodd;stroke:#000000;stroke-width:2.0px;stroke-linecap:butt;stroke-linejoin:miter;stroke-opacity:1"/>
<path class="bond-10 atom-10 atom-11" d="M 208.1,123.1 L 193.5,136.0" style="fill:none;fill-rule:evenodd;stroke:#000000;stroke-width:2.0px;stroke-linecap:butt;stroke-linejoin:miter;stroke-opacity:1"/>
<path class="bond-10 atom-10 atom-11" d="M 204.5,122.3 L 193.1,132.4" style="fill:none;fill-rule:evenodd;stroke:#000000;stroke-width:2.0px;stroke-linecap:butt;stroke-linejoin:miter;stroke-opacity:1"/>
<path class="bond-11 atom-11 atom-12" d="M 193.5,136.0 L 176.7,126.2" style="fill:none;fill-rule:evenodd;stroke:#000000;stroke-width:2.0px;stroke-linecap:butt;stroke-linejoin:miter;stroke-opacity:1"/>
<path class="bond-12 atom-12 atom-13" d="M 176.7,126.2 L 180.8,107.1" style="fill:none;fill-rule:evenodd;stroke:#000000;stroke-width:2.0px;stroke-linecap:butt;stroke-linejoin:miter;stroke-opacity:1"/>
<path class="bond-12 atom-12 atom-13" d="M 180.0,124.7 L 183.2,109.8" style="fill:none;fill-rule:evenodd;stroke:#000000;stroke-width:2.0px;stroke-linecap:butt;stroke-linejoin:miter;stroke-opacity:1"/>
<path class="bond-13 atom-13 atom-14" d="M 180.8,107.1 L 167.8,92.5" style="fill:none;fill-rule:evenodd;stroke:#000000;stroke-width:2.0px;stroke-linecap:butt;stroke-linejoin:miter;stroke-opacity:1"/>
<path class="bond-14 atom-14 atom-15" d="M 167.8,92.5 L 148.7,96.5" style="fill:none;fill-rule:evenodd;stroke:#000000;stroke-width:2.0px;stroke-linecap:butt;stroke-linejoin:miter;stroke-opacity:1"/>
<path class="bond-15 atom-15 atom-16" d="M 148.7,96.5 L 135.8,81.9" style="fill:none;fill-rule:evenodd;stroke:#000000;stroke-width:2.0px;stroke-linecap:butt;stroke-linejoin:miter;stroke-opacity:1"/>
<path class="bond-16 atom-16 atom-17" d="M 135.8,81.9 L 128.5,63.8" style="fill:none;fill-rule:evenodd;stroke:#000000;stroke-width:2.0px;stroke-linecap:butt;stroke-linejoin:miter;stroke-opacity:1"/>
<path class="bond-17 atom-16 atom-18" d="M 135.8,81.9 L 152.4,71.7" style="fill:none;fill-rule:evenodd;stroke:#000000;stroke-width:2.0px;stroke-linecap:butt;stroke-linejoin:miter;stroke-opacity:1"/>
<path class="bond-18 atom-16 atom-19" d="M 135.8,81.9 L 127.8,83.6" style="fill:none;fill-rule:evenodd;stroke:#000000;stroke-width:2.0px;stroke-linecap:butt;stroke-linejoin:miter;stroke-opacity:1"/>
<path class="bond-18 atom-16 atom-19" d="M 127.8,83.6 L 119.8,85.2" style="fill:none;fill-rule:evenodd;stroke:#FF0000;stroke-width:2.0px;stroke-linecap:butt;stroke-linejoin:miter;stroke-opacity:1"/>
<path class="bond-19 atom-19 atom-20" d="M 115.5,89.4 L 113.0,96.9" style="fill:none;fill-rule:evenodd;stroke:#FF0000;stroke-width:2.0px;stroke-linecap:butt;stroke-linejoin:miter;stroke-opacity:1"/>
<path class="bond-19 atom-19 atom-20" d="M 113.0,96.9 L 110.5,104.4" style="fill:none;fill-rule:evenodd;stroke:#000000;stroke-width:2.0px;stroke-linecap:butt;stroke-linejoin:miter;stroke-opacity:1"/>
<path class="bond-20 atom-20 atom-21" d="M 110.5,104.4 L 102.3,106.1" style="fill:none;fill-rule:evenodd;stroke:#000000;stroke-width:2.0px;stroke-linecap:butt;stroke-linejoin:miter;stroke-opacity:1"/>
<path class="bond-20 atom-20 atom-21" d="M 102.3,106.1 L 94.1,107.8" style="fill:none;fill-rule:evenodd;stroke:#0000FF;stroke-width:2.0px;stroke-linecap:butt;stroke-linejoin:miter;stroke-opacity:1"/>
<path class="bond-21 atom-21 atom-22" d="M 88.7,105.3 L 83.5,99.5" style="fill:none;fill-rule:evenodd;stroke:#0000FF;stroke-width:2.0px;stroke-linecap:butt;stroke-linejoin:miter;stroke-opacity:1"/>
<path class="bond-21 atom-21 atom-22" d="M 83.5,99.5 L 78.4,93.8" style="fill:none;fill-rule:evenodd;stroke:#000000;stroke-width:2.0px;stroke-linecap:butt;stroke-linejoin:miter;stroke-opacity:1"/>
<path class="bond-22 atom-22 atom-23" d="M 78.4,93.8 L 59.3,97.7" style="fill:none;fill-rule:evenodd;stroke:#000000;stroke-width:2.0px;stroke-linecap:butt;stroke-linejoin:miter;stroke-opacity:1"/>
<path class="bond-23 atom-23 atom-24" d="M 59.3,97.7 L 46.3,83.2" style="fill:none;fill-rule:evenodd;stroke:#000000;stroke-width:2.0px;stroke-linecap:butt;stroke-linejoin:miter;stroke-opacity:1"/>
<path class="bond-24 atom-24 atom-25" d="M 46.3,83.2 L 38.4,84.8" style="fill:none;fill-rule:evenodd;stroke:#000000;stroke-width:2.0px;stroke-linecap:butt;stroke-linejoin:miter;stroke-opacity:1"/>
<path class="bond-24 atom-24 atom-25" d="M 38.4,84.8 L 30.4,86.5" style="fill:none;fill-rule:evenodd;stroke:#FF0000;stroke-width:2.0px;stroke-linecap:butt;stroke-linejoin:miter;stroke-opacity:1"/>
<path class="bond-25 atom-22 atom-26" d="M 78.4,93.8 L 84.6,75.3" style="fill:none;fill-rule:evenodd;stroke:#000000;stroke-width:2.0px;stroke-linecap:butt;stroke-linejoin:miter;stroke-opacity:1"/>
<path class="bond-26 atom-26 atom-27" d="M 84.6,75.3 L 103.7,71.3" style="fill:none;fill-rule:evenodd;stroke:#000000;stroke-width:2.0px;stroke-linecap:butt;stroke-linejoin:miter;stroke-opacity:1"/>
<path class="bond-26 atom-26 atom-27" d="M 85.6,72.0 L 101.4,68.8" style="fill:none;fill-rule:evenodd;stroke:#000000;stroke-width:2.0px;stroke-linecap:butt;stroke-linejoin:miter;stroke-opacity:1"/>
<path class="bond-27 atom-27 atom-28" d="M 103.7,71.3 L 109.8,52.8" style="fill:none;fill-rule:evenodd;stroke:#000000;stroke-width:2.0px;stroke-linecap:butt;stroke-linejoin:miter;stroke-opacity:1"/>
<path class="bond-28 atom-28 atom-29" d="M 109.8,52.8 L 96.8,38.2" style="fill:none;fill-rule:evenodd;stroke:#000000;stroke-width:2.0px;stroke-linecap:butt;stroke-linejoin:miter;stroke-opacity:1"/>
<path class="bond-28 atom-28 atom-29" d="M 106.5,53.5 L 95.8,41.4" style="fill:none;fill-rule:evenodd;stroke:#000000;stroke-width:2.0px;stroke-linecap:butt;stroke-linejoin:miter;stroke-opacity:1"/>
<path class="bond-29 atom-29 atom-30" d="M 96.8,38.2 L 77.7,42.2" style="fill:none;fill-rule:evenodd;stroke:#000000;stroke-width:2.0px;stroke-linecap:butt;stroke-linejoin:miter;stroke-opacity:1"/>
<path class="bond-30 atom-30 atom-31" d="M 77.7,42.2 L 71.6,60.7" style="fill:none;fill-rule:evenodd;stroke:#000000;stroke-width:2.0px;stroke-linecap:butt;stroke-linejoin:miter;stroke-opacity:1"/>
<path class="bond-30 atom-30 atom-31" d="M 80.0,44.7 L 74.9,60.0" style="fill:none;fill-rule:evenodd;stroke:#000000;stroke-width:2.0px;stroke-linecap:butt;stroke-linejoin:miter;stroke-opacity:1"/>
<path class="bond-31 atom-31 atom-32" d="M 71.6,60.7 L 63.2,62.4" style="fill:none;fill-rule:evenodd;stroke:#000000;stroke-width:2.0px;stroke-linecap:butt;stroke-linejoin:miter;stroke-opacity:1"/>
<path class="bond-31 atom-31 atom-32" d="M 63.2,62.4 L 54.8,64.2" style="fill:none;fill-rule:evenodd;stroke:#33CCCC;stroke-width:2.0px;stroke-linecap:butt;stroke-linejoin:miter;stroke-opacity:1"/>
<path class="bond-32 atom-20 atom-33" d="M 110.5,104.4 L 115.6,110.1" style="fill:none;fill-rule:evenodd;stroke:#000000;stroke-width:2.0px;stroke-linecap:butt;stroke-linejoin:miter;stroke-opacity:1"/>
<path class="bond-32 atom-20 atom-33" d="M 115.6,110.1 L 120.8,115.9" style="fill:none;fill-rule:evenodd;stroke:#0000FF;stroke-width:2.0px;stroke-linecap:butt;stroke-linejoin:miter;stroke-opacity:1"/>
<path class="bond-32 atom-20 atom-33" d="M 113.8,103.7 L 118.4,108.8" style="fill:none;fill-rule:evenodd;stroke:#000000;stroke-width:2.0px;stroke-linecap:butt;stroke-linejoin:miter;stroke-opacity:1"/>
<path class="bond-32 atom-20 atom-33" d="M 118.4,108.8 L 122.9,113.9" style="fill:none;fill-rule:evenodd;stroke:#0000FF;stroke-width:2.0px;stroke-linecap:butt;stroke-linejoin:miter;stroke-opacity:1"/>
<path class="bond-33 atom-33 atom-34" d="M 126.2,118.4 L 133.2,117.0" style="fill:none;fill-rule:evenodd;stroke:#0000FF;stroke-width:2.0px;stroke-linecap:butt;stroke-linejoin:miter;stroke-opacity:1"/>
<path class="bond-33 atom-33 atom-34" d="M 133.2,117.0 L 140.2,115.5" style="fill:none;fill-rule:evenodd;stroke:#CCCC00;stroke-width:2.0px;stroke-linecap:butt;stroke-linejoin:miter;stroke-opacity:1"/>
<path class="bond-34 atom-34 atom-35" d="M 144.8,116.8 L 151.7,117.8" style="fill:none;fill-rule:evenodd;stroke:#CCCC00;stroke-width:2.0px;stroke-linecap:butt;stroke-linejoin:miter;stroke-opacity:1"/>
<path class="bond-34 atom-34 atom-35" d="M 151.7,117.8 L 158.5,118.8" style="fill:none;fill-rule:evenodd;stroke:#FF0000;stroke-width:2.0px;stroke-linecap:butt;stroke-linejoin:miter;stroke-opacity:1"/>
<path class="bond-34 atom-34 atom-35" d="M 145.2,113.9 L 152.1,114.9" style="fill:none;fill-rule:evenodd;stroke:#CCCC00;stroke-width:2.0px;stroke-linecap:butt;stroke-linejoin:miter;stroke-opacity:1"/>
<path class="bond-34 atom-34 atom-35" d="M 152.1,114.9 L 158.9,115.9" style="fill:none;fill-rule:evenodd;stroke:#FF0000;stroke-width:2.0px;stroke-linecap:butt;stroke-linejoin:miter;stroke-opacity:1"/>
<path class="bond-35 atom-34 atom-36" d="M 141.2,118.6 L 141.4,124.9" style="fill:none;fill-rule:evenodd;stroke:#CCCC00;stroke-width:2.0px;stroke-linecap:butt;stroke-linejoin:miter;stroke-opacity:1"/>
<path class="bond-35 atom-34 atom-36" d="M 141.4,124.9 L 141.6,131.1" style="fill:none;fill-rule:evenodd;stroke:#FF0000;stroke-width:2.0px;stroke-linecap:butt;stroke-linejoin:miter;stroke-opacity:1"/>
<path class="bond-35 atom-34 atom-36" d="M 144.2,118.5 L 144.4,124.8" style="fill:none;fill-rule:evenodd;stroke:#CCCC00;stroke-width:2.0px;stroke-linecap:butt;stroke-linejoin:miter;stroke-opacity:1"/>
<path class="bond-35 atom-34 atom-36" d="M 144.4,124.8 L 144.5,131.0" style="fill:none;fill-rule:evenodd;stroke:#FF0000;stroke-width:2.0px;stroke-linecap:butt;stroke-linejoin:miter;stroke-opacity:1"/>
<path class="bond-36 atom-13 atom-37" d="M 180.8,107.1 L 200.2,105.2" style="fill:none;fill-rule:evenodd;stroke:#000000;stroke-width:2.0px;stroke-linecap:butt;stroke-linejoin:miter;stroke-opacity:1"/>
<path class="bond-37 atom-37 atom-38" d="M 200.2,105.2 L 209.3,87.9" style="fill:none;fill-rule:evenodd;stroke:#000000;stroke-width:2.0px;stroke-linecap:butt;stroke-linejoin:miter;stroke-opacity:1"/>
<path class="bond-37 atom-37 atom-38" d="M 203.5,105.3 L 211.3,90.5" style="fill:none;fill-rule:evenodd;stroke:#000000;stroke-width:2.0px;stroke-linecap:butt;stroke-linejoin:miter;stroke-opacity:1"/>
<path class="bond-38 atom-38 atom-39" d="M 209.3,87.9 L 204.7,81.6" style="fill:none;fill-rule:evenodd;stroke:#000000;stroke-width:2.0px;stroke-linecap:butt;stroke-linejoin:miter;stroke-opacity:1"/>
<path class="bond-38 atom-38 atom-39" d="M 204.7,81.6 L 200.0,75.3" style="fill:none;fill-rule:evenodd;stroke:#33CCCC;stroke-width:2.0px;stroke-linecap:butt;stroke-linejoin:miter;stroke-opacity:1"/>
<path class="bond-39 atom-4 atom-1" d="M 252.3,60.3 L 256.2,53.5" style="fill:none;fill-rule:evenodd;stroke:#000000;stroke-width:2.0px;stroke-linecap:butt;stroke-linejoin:miter;stroke-opacity:1"/>
<path class="bond-39 atom-4 atom-1" d="M 256.2,53.5 L 260.1,46.8" style="fill:none;fill-rule:evenodd;stroke:#0000FF;stroke-width:2.0px;stroke-linecap:butt;stroke-linejoin:miter;stroke-opacity:1"/>
<path class="bond-40 atom-38 atom-6" d="M 209.3,87.9 L 228.5,84.2" style="fill:none;fill-rule:evenodd;stroke:#000000;stroke-width:2.0px;stroke-linecap:butt;stroke-linejoin:miter;stroke-opacity:1"/>
<path class="bond-41 atom-37 atom-10" d="M 200.2,105.2 L 208.1,123.1" style="fill:none;fill-rule:evenodd;stroke:#000000;stroke-width:2.0px;stroke-linecap:butt;stroke-linejoin:miter;stroke-opacity:1"/>
<path class="bond-42 atom-34 atom-15" d="M 143.7,111.6 L 146.2,104.1" style="fill:none;fill-rule:evenodd;stroke:#CCCC00;stroke-width:2.0px;stroke-linecap:butt;stroke-linejoin:miter;stroke-opacity:1"/>
<path class="bond-42 atom-34 atom-15" d="M 146.2,104.1 L 148.7,96.5" style="fill:none;fill-rule:evenodd;stroke:#000000;stroke-width:2.0px;stroke-linecap:butt;stroke-linejoin:miter;stroke-opacity:1"/>
<path class="bond-43 atom-31 atom-26" d="M 71.6,60.7 L 84.6,75.3" style="fill:none;fill-rule:evenodd;stroke:#000000;stroke-width:2.0px;stroke-linecap:butt;stroke-linejoin:miter;stroke-opacity:1"/>
<path d="M 234.4,65.1 L 233.5,65.4 L 233.3,66.3" style="fill:none;stroke:#000000;stroke-width:2.0px;stroke-linecap:butt;stroke-linejoin:miter;stroke-opacity:1;"/>
<path d="M 242.6,96.3 L 243.3,96.9 L 243.3,97.9" style="fill:none;stroke:#000000;stroke-width:2.0px;stroke-linecap:butt;stroke-linejoin:miter;stroke-opacity:1;"/>
<path d="M 242.7,115.5 L 242.6,116.5 L 241.8,117.0" style="fill:none;stroke:#000000;stroke-width:2.0px;stroke-linecap:butt;stroke-linejoin:miter;stroke-opacity:1;"/>
<path d="M 227.7,127.5 L 226.9,128.1 L 226.0,127.8" style="fill:none;stroke:#000000;stroke-width:2.0px;stroke-linecap:butt;stroke-linejoin:miter;stroke-opacity:1;"/>
<path d="M 194.2,135.4 L 193.5,136.0 L 192.7,135.5" style="fill:none;stroke:#000000;stroke-width:2.0px;stroke-linecap:butt;stroke-linejoin:miter;stroke-opacity:1;"/>
<path d="M 177.5,126.7 L 176.7,126.2 L 176.9,125.2" style="fill:none;stroke:#000000;stroke-width:2.0px;stroke-linecap:butt;stroke-linejoin:miter;stroke-opacity:1;"/>
<path d="M 168.5,93.3 L 167.8,92.5 L 166.9,92.7" style="fill:none;stroke:#000000;stroke-width:2.0px;stroke-linecap:butt;stroke-linejoin:miter;stroke-opacity:1;"/>
<path d="M 60.3,97.5 L 59.3,97.7 L 58.7,97.0" style="fill:none;stroke:#000000;stroke-width:2.0px;stroke-linecap:butt;stroke-linejoin:miter;stroke-opacity:1;"/>
<path d="M 47.0,83.9 L 46.3,83.2 L 45.9,83.2" style="fill:none;stroke:#000000;stroke-width:2.0px;stroke-linecap:butt;stroke-linejoin:miter;stroke-opacity:1;"/>
<path d="M 102.7,71.5 L 103.7,71.3 L 104.0,70.4" style="fill:none;stroke:#000000;stroke-width:2.0px;stroke-linecap:butt;stroke-linejoin:miter;stroke-opacity:1;"/>
<path d="M 109.5,53.7 L 109.8,52.8 L 109.2,52.0" style="fill:none;stroke:#000000;stroke-width:2.0px;stroke-linecap:butt;stroke-linejoin:miter;stroke-opacity:1;"/>
<path d="M 97.5,38.9 L 96.8,38.2 L 95.9,38.4" style="fill:none;stroke:#000000;stroke-width:2.0px;stroke-linecap:butt;stroke-linejoin:miter;stroke-opacity:1;"/>
<path d="M 78.7,42.0 L 77.7,42.2 L 77.4,43.1" style="fill:none;stroke:#000000;stroke-width:2.0px;stroke-linecap:butt;stroke-linejoin:miter;stroke-opacity:1;"/>
<path class="atom-1" d="M 260.8 40.6 L 262.7 43.5 Q 262.8 43.8, 263.1 44.4 Q 263.4 44.9, 263.4 44.9 L 263.4 40.6 L 264.2 40.6 L 264.2 46.1 L 263.4 46.1 L 261.5 42.9 Q 261.2 42.6, 261.0 42.1 Q 260.8 41.7, 260.7 41.6 L 260.7 46.1 L 260.0 46.1 L 260.0 40.6 L 260.8 40.6 " fill="#0000FF"/>
<path class="atom-2" d="M 277.4 55.0 Q 277.5 55.0, 277.7 55.1 Q 278.0 55.2, 278.3 55.3 Q 278.6 55.4, 278.9 55.4 Q 279.4 55.4, 279.7 55.1 Q 280.0 54.9, 280.0 54.4 Q 280.0 54.1, 279.8 53.9 Q 279.7 53.7, 279.4 53.6 Q 279.2 53.5, 278.8 53.4 Q 278.3 53.3, 278.0 53.1 Q 277.7 53.0, 277.5 52.7 Q 277.3 52.4, 277.3 51.9 Q 277.3 51.2, 277.8 50.8 Q 278.3 50.4, 279.2 50.4 Q 279.9 50.4, 280.6 50.7 L 280.4 51.3 Q 279.7 51.0, 279.2 51.0 Q 278.7 51.0, 278.4 51.2 Q 278.1 51.4, 278.1 51.8 Q 278.1 52.1, 278.3 52.3 Q 278.4 52.5, 278.6 52.6 Q 278.9 52.7, 279.2 52.8 Q 279.7 52.9, 280.0 53.1 Q 280.3 53.3, 280.5 53.6 Q 280.8 53.9, 280.8 54.4 Q 280.8 55.2, 280.2 55.6 Q 279.7 56.0, 278.9 56.0 Q 278.4 56.0, 278.0 55.9 Q 277.7 55.8, 277.2 55.6 L 277.4 55.0 " fill="#CCCC00"/>
<path class="atom-3" d="M 268.0 67.3 L 269.9 70.2 Q 270.0 70.5, 270.3 71.0 Q 270.6 71.5, 270.6 71.6 L 270.6 67.3 L 271.4 67.3 L 271.4 72.8 L 270.6 72.8 L 268.7 69.6 Q 268.4 69.2, 268.2 68.8 Q 268.0 68.4, 267.9 68.2 L 267.9 72.8 L 267.2 72.8 L 267.2 67.3 L 268.0 67.3 " fill="#0000FF"/>
<path class="atom-19" d="M 114.1 85.9 Q 114.1 84.6, 114.8 83.8 Q 115.4 83.1, 116.7 83.1 Q 117.9 83.1, 118.5 83.8 Q 119.2 84.6, 119.2 85.9 Q 119.2 87.2, 118.5 88.0 Q 117.9 88.8, 116.7 88.8 Q 115.4 88.8, 114.8 88.0 Q 114.1 87.2, 114.1 85.9 M 116.7 88.1 Q 117.5 88.1, 117.9 87.6 Q 118.4 87.0, 118.4 85.9 Q 118.4 84.8, 117.9 84.3 Q 117.5 83.7, 116.7 83.7 Q 115.8 83.7, 115.3 84.3 Q 114.9 84.8, 114.9 85.9 Q 114.9 87.0, 115.3 87.6 Q 115.8 88.1, 116.7 88.1 " fill="#FF0000"/>
<path class="atom-21" d="M 90.2 105.6 L 92.0 108.5 Q 92.2 108.8, 92.5 109.3 Q 92.8 109.9, 92.8 109.9 L 92.8 105.6 L 93.5 105.6 L 93.5 111.1 L 92.7 111.1 L 90.8 107.9 Q 90.6 107.5, 90.3 107.1 Q 90.1 106.7, 90.0 106.5 L 90.0 111.1 L 89.3 111.1 L 89.3 105.6 L 90.2 105.6 " fill="#0000FF"/>
<path class="atom-21" d="M 89.2 111.7 L 90.0 111.7 L 90.0 114.0 L 92.8 114.0 L 92.8 111.7 L 93.6 111.7 L 93.6 117.2 L 92.8 117.2 L 92.8 114.6 L 90.0 114.6 L 90.0 117.2 L 89.2 117.2 L 89.2 111.7 " fill="#0000FF"/>
<path class="atom-25" d="M 19.2 84.4 L 20.0 84.4 L 20.0 86.7 L 22.8 86.7 L 22.8 84.4 L 23.6 84.4 L 23.6 89.9 L 22.8 89.9 L 22.8 87.3 L 20.0 87.3 L 20.0 89.9 L 19.2 89.9 L 19.2 84.4 " fill="#FF0000"/>
<path class="atom-25" d="M 24.7 87.1 Q 24.7 85.8, 25.4 85.1 Q 26.0 84.3, 27.2 84.3 Q 28.5 84.3, 29.1 85.1 Q 29.8 85.8, 29.8 87.1 Q 29.8 88.5, 29.1 89.2 Q 28.4 90.0, 27.2 90.0 Q 26.0 90.0, 25.4 89.2 Q 24.7 88.5, 24.7 87.1 M 27.2 89.4 Q 28.1 89.4, 28.5 88.8 Q 29.0 88.2, 29.0 87.1 Q 29.0 86.0, 28.5 85.5 Q 28.1 84.9, 27.2 84.9 Q 26.4 84.9, 25.9 85.5 Q 25.5 86.0, 25.5 87.1 Q 25.5 88.2, 25.9 88.8 Q 26.4 89.4, 27.2 89.4 " fill="#FF0000"/>
<path class="atom-32" d="M 50.8 61.9 L 54.1 61.9 L 54.1 62.5 L 51.6 62.5 L 51.6 64.2 L 53.8 64.2 L 53.8 64.8 L 51.6 64.8 L 51.6 67.4 L 50.8 67.4 L 50.8 61.9 " fill="#33CCCC"/>
<path class="atom-33" d="M 122.3 116.2 L 124.1 119.1 Q 124.3 119.4, 124.6 119.9 Q 124.8 120.5, 124.9 120.5 L 124.9 116.2 L 125.6 116.2 L 125.6 121.7 L 124.8 121.7 L 122.9 118.5 Q 122.7 118.2, 122.4 117.7 Q 122.2 117.3, 122.1 117.2 L 122.1 121.7 L 121.4 121.7 L 121.4 116.2 L 122.3 116.2 " fill="#0000FF"/>
<path class="atom-34" d="M 141.0 116.9 Q 141.1 116.9, 141.4 117.1 Q 141.6 117.2, 141.9 117.2 Q 142.2 117.3, 142.5 117.3 Q 143.0 117.3, 143.3 117.0 Q 143.6 116.8, 143.6 116.3 Q 143.6 116.0, 143.4 115.8 Q 143.3 115.7, 143.1 115.6 Q 142.8 115.5, 142.4 115.3 Q 141.9 115.2, 141.7 115.1 Q 141.4 114.9, 141.2 114.6 Q 140.9 114.3, 140.9 113.8 Q 140.9 113.1, 141.4 112.7 Q 141.9 112.3, 142.8 112.3 Q 143.5 112.3, 144.2 112.6 L 144.0 113.2 Q 143.4 112.9, 142.9 112.9 Q 142.3 112.9, 142.0 113.1 Q 141.7 113.3, 141.7 113.7 Q 141.7 114.0, 141.9 114.2 Q 142.0 114.4, 142.3 114.5 Q 142.5 114.6, 142.9 114.7 Q 143.4 114.9, 143.7 115.0 Q 143.9 115.2, 144.2 115.5 Q 144.4 115.8, 144.4 116.3 Q 144.4 117.1, 143.9 117.5 Q 143.4 117.9, 142.5 117.9 Q 142.0 117.9, 141.6 117.8 Q 141.3 117.7, 140.8 117.5 L 141.0 116.9 " fill="#CCCC00"/>
<path class="atom-35" d="M 159.4 117.9 Q 159.4 116.5, 160.0 115.8 Q 160.7 115.0, 161.9 115.0 Q 163.1 115.0, 163.8 115.8 Q 164.5 116.5, 164.5 117.9 Q 164.5 119.2, 163.8 120.0 Q 163.1 120.7, 161.9 120.7 Q 160.7 120.7, 160.0 120.0 Q 159.4 119.2, 159.4 117.9 M 161.9 120.1 Q 162.8 120.1, 163.2 119.5 Q 163.7 119.0, 163.7 117.9 Q 163.7 116.8, 163.2 116.2 Q 162.8 115.7, 161.9 115.7 Q 161.1 115.7, 160.6 116.2 Q 160.2 116.8, 160.2 117.9 Q 160.2 119.0, 160.6 119.5 Q 161.1 120.1, 161.9 120.1 " fill="#FF0000"/>
<path class="atom-36" d="M 140.6 134.5 Q 140.6 133.2, 141.3 132.5 Q 142.0 131.7, 143.2 131.7 Q 144.4 131.7, 145.1 132.5 Q 145.7 133.2, 145.7 134.5 Q 145.7 135.9, 145.1 136.7 Q 144.4 137.4, 143.2 137.4 Q 142.0 137.4, 141.3 136.7 Q 140.6 135.9, 140.6 134.5 M 143.2 136.8 Q 144.0 136.8, 144.5 136.2 Q 144.9 135.7, 144.9 134.5 Q 144.9 133.5, 144.5 132.9 Q 144.0 132.4, 143.2 132.4 Q 142.3 132.4, 141.9 132.9 Q 141.4 133.4, 141.4 134.5 Q 141.4 135.7, 141.9 136.2 Q 142.3 136.8, 143.2 136.8 " fill="#FF0000"/>
<path class="atom-39" d="M 196.1 69.5 L 199.4 69.5 L 199.4 70.1 L 196.8 70.1 L 196.8 71.8 L 199.1 71.8 L 199.1 72.4 L 196.8 72.4 L 196.8 75.0 L 196.1 75.0 L 196.1 69.5 " fill="#33CCCC"/>
<path class="atom-0" d="M 259.7,22.6 L 259.7,22.6 L 259.7,22.7 L 259.7,22.7 L 259.7,22.7 L 259.7,22.8 L 259.7,22.8 L 259.6,22.8 L 259.6,22.8 L 259.6,22.9 L 259.6,22.9 L 259.6,22.9 L 259.5,22.9 L 259.5,22.9 L 259.5,23.0 L 259.4,23.0 L 259.4,23.0 L 259.4,23.0 L 259.3,23.0 L 259.3,23.0 L 259.3,23.0 L 259.2,23.0 L 259.2,23.0 L 259.2,23.0 L 259.1,22.9 L 259.1,22.9 L 259.1,22.9 L 259.1,22.9 L 259.0,22.9 L 259.0,22.8 L 259.0,22.8 L 259.0,22.8 L 259.0,22.7 L 259.0,22.7 L 258.9,22.7 L 258.9,22.6 L 258.9,22.6 L 258.9,22.6 L 258.9,22.5 L 258.9,22.5 L 259.0,22.5 L 259.0,22.4 L 259.0,22.4 L 259.0,22.4 L 259.0,22.4 L 259.0,22.3 L 259.1,22.3 L 259.1,22.3 L 259.1,22.3 L 259.1,22.2 L 259.2,22.2 L 259.2,22.2 L 259.2,22.2 L 259.3,22.2 L 259.3,22.2 L 259.3,22.2 L 259.4,22.2 L 259.4,22.2 L 259.4,22.2 L 259.5,22.2 L 259.5,22.2 L 259.5,22.3 L 259.6,22.3 L 259.6,22.3 L 259.6,22.3 L 259.6,22.3 L 259.6,22.4 L 259.7,22.4 L 259.7,22.4 L 259.7,22.5 L 259.7,22.5 L 259.7,22.5 L 259.7,22.6 L 259.7,22.6 L 259.3,22.6 Z" style="fill:#000000;fill-rule:evenodd;fill-opacity:1;stroke:#000000;stroke-width:0.0px;stroke-linecap:butt;stroke-linejoin:miter;stroke-opacity:1;"/>
<path class="atom-0" d="M 259.7,26.5 L 259.7,26.5 L 259.7,26.6 L 259.7,26.6 L 259.7,26.6 L 259.7,26.7 L 259.7,26.7 L 259.6,26.7 L 259.6,26.7 L 259.6,26.8 L 259.6,26.8 L 259.6,26.8 L 259.5,26.8 L 259.5,26.8 L 259.5,26.9 L 259.4,26.9 L 259.4,26.9 L 259.4,26.9 L 259.3,26.9 L 259.3,26.9 L 259.3,26.9 L 259.2,26.9 L 259.2,26.9 L 259.2,26.9 L 259.1,26.8 L 259.1,26.8 L 259.1,26.8 L 259.1,26.8 L 259.0,26.8 L 259.0,26.7 L 259.0,26.7 L 259.0,26.7 L 259.0,26.6 L 259.0,26.6 L 258.9,26.6 L 258.9,26.5 L 258.9,26.5 L 258.9,26.5 L 258.9,26.4 L 258.9,26.4 L 259.0,26.4 L 259.0,26.3 L 259.0,26.3 L 259.0,26.3 L 259.0,26.3 L 259.0,26.2 L 259.1,26.2 L 259.1,26.2 L 259.1,26.2 L 259.1,26.2 L 259.2,26.1 L 259.2,26.1 L 259.2,26.1 L 259.3,26.1 L 259.3,26.1 L 259.3,26.1 L 259.4,26.1 L 259.4,26.1 L 259.4,26.1 L 259.5,26.1 L 259.5,26.1 L 259.5,26.2 L 259.6,26.2 L 259.6,26.2 L 259.6,26.2 L 259.6,26.2 L 259.6,26.3 L 259.7,26.3 L 259.7,26.3 L 259.7,26.4 L 259.7,26.4 L 259.7,26.4 L 259.7,26.5 L 259.7,26.5 L 259.3,26.5 Z" style="fill:#000000;fill-rule:evenodd;fill-opacity:1;stroke:#000000;stroke-width:0.0px;stroke-linecap:butt;stroke-linejoin:miter;stroke-opacity:1;"/>
<path class="atom-0" d="M 259.7,24.5 L 259.7,24.6 L 259.7,24.6 L 259.7,24.6 L 259.7,24.7 L 259.7,24.7 L 259.7,24.7 L 259.6,24.8 L 259.6,24.8 L 259.6,24.8 L 259.6,24.8 L 259.6,24.9 L 259.5,24.9 L 259.5,24.9 L 259.5,24.9 L 259.4,24.9 L 259.4,24.9 L 259.4,24.9 L 259.3,24.9 L 259.3,24.9 L 259.3,24.9 L 259.2,24.9 L 259.2,24.9 L 259.2,24.9 L 259.1,24.9 L 259.1,24.9 L 259.1,24.9 L 259.1,24.8 L 259.0,24.8 L 259.0,24.8 L 259.0,24.8 L 259.0,24.7 L 259.0,24.7 L 259.0,24.7 L 258.9,24.6 L 258.9,24.6 L 258.9,24.6 L 258.9,24.5 L 258.9,24.5 L 258.9,24.5 L 259.0,24.4 L 259.0,24.4 L 259.0,24.4 L 259.0,24.3 L 259.0,24.3 L 259.0,24.3 L 259.1,24.3 L 259.1,24.2 L 259.1,24.2 L 259.1,24.2 L 259.2,24.2 L 259.2,24.2 L 259.2,24.2 L 259.3,24.2 L 259.3,24.2 L 259.3,24.2 L 259.4,24.2 L 259.4,24.2 L 259.4,24.2 L 259.5,24.2 L 259.5,24.2 L 259.5,24.2 L 259.6,24.2 L 259.6,24.2 L 259.6,24.3 L 259.6,24.3 L 259.6,24.3 L 259.7,24.4 L 259.7,24.4 L 259.7,24.4 L 259.7,24.4 L 259.7,24.5 L 259.7,24.5 L 259.7,24.5 L 259.3,24.5 Z" style="fill:#000000;fill-rule:evenodd;fill-opacity:1;stroke:#000000;stroke-width:0.0px;stroke-linecap:butt;stroke-linejoin:miter;stroke-opacity:1;"/>
<path class="bond-0 atom-0 atom-1" d="M 501.5,9.2 L 507.8,14.2" style="fill:none;fill-rule:evenodd;stroke:#000000;stroke-width:2.0px;stroke-linecap:butt;stroke-linejoin:miter;stroke-opacity:1"/>
<path class="bond-0 atom-0 atom-1" d="M 507.8,14.2 L 514.1,19.1" style="fill:none;fill-rule:evenodd;stroke:#0000FF;stroke-width:2.0px;stroke-linecap:butt;stroke-linejoin:miter;stroke-opacity:1"/>
<path class="bond-1 atom-1 atom-2" d="M 519.6,20.9 L 526.7,20.1" style="fill:none;fill-rule:evenodd;stroke:#0000FF;stroke-width:2.0px;stroke-linecap:butt;stroke-linejoin:miter;stroke-opacity:1"/>
<path class="bond-1 atom-1 atom-2" d="M 526.7,20.1 L 533.8,19.2" style="fill:none;fill-rule:evenodd;stroke:#CCCC00;stroke-width:2.0px;stroke-linecap:butt;stroke-linejoin:miter;stroke-opacity:1"/>
<path class="bond-2 atom-2 atom-3" d="M 536.7,22.5 L 537.4,28.7" style="fill:none;fill-rule:evenodd;stroke:#CCCC00;stroke-width:2.0px;stroke-linecap:butt;stroke-linejoin:miter;stroke-opacity:1"/>
<path class="bond-2 atom-2 atom-3" d="M 537.4,28.7 L 538.2,34.9" style="fill:none;fill-rule:evenodd;stroke:#0000FF;stroke-width:2.0px;stroke-linecap:butt;stroke-linejoin:miter;stroke-opacity:1"/>
<path class="bond-3 atom-3 atom-4" d="M 535.9,38.6 L 527.5,39.6" style="fill:none;fill-rule:evenodd;stroke:#0000FF;stroke-width:2.0px;stroke-linecap:butt;stroke-linejoin:miter;stroke-opacity:1"/>
<path class="bond-3 atom-3 atom-4" d="M 527.5,39.6 L 519.2,40.6" style="fill:none;fill-rule:evenodd;stroke:#000000;stroke-width:2.0px;stroke-linecap:butt;stroke-linejoin:miter;stroke-opacity:1"/>
<path class="bond-3 atom-3 atom-4" d="M 535.5,35.7 L 528.6,36.5" style="fill:none;fill-rule:evenodd;stroke:#0000FF;stroke-width:2.0px;stroke-linecap:butt;stroke-linejoin:miter;stroke-opacity:1"/>
<path class="bond-3 atom-3 atom-4" d="M 528.6,36.5 L 521.8,37.4" style="fill:none;fill-rule:evenodd;stroke:#000000;stroke-width:2.0px;stroke-linecap:butt;stroke-linejoin:miter;stroke-opacity:1"/>
<path class="bond-4 atom-4 atom-5" d="M 519.2,40.6 L 507.2,56.0" style="fill:none;fill-rule:evenodd;stroke:#000000;stroke-width:2.0px;stroke-linecap:butt;stroke-linejoin:miter;stroke-opacity:1"/>
<path class="bond-5 atom-5 atom-6" d="M 507.2,56.0 L 514.5,74.1" style="fill:none;fill-rule:evenodd;stroke:#000000;stroke-width:2.0px;stroke-linecap:butt;stroke-linejoin:miter;stroke-opacity:1"/>
<path class="bond-6 atom-6 atom-7" d="M 514.5,74.1 L 534.0,75.4" style="fill:none;fill-rule:evenodd;stroke:#000000;stroke-width:2.0px;stroke-linecap:butt;stroke-linejoin:miter;stroke-opacity:1"/>
<path class="bond-6 atom-6 atom-7" d="M 515.7,77.1 L 532.4,78.2" style="fill:none;fill-rule:evenodd;stroke:#000000;stroke-width:2.0px;stroke-linecap:butt;stroke-linejoin:miter;stroke-opacity:1"/>
<path class="bond-7 atom-7 atom-8" d="M 534.0,75.4 L 545.1,91.4" style="fill:none;fill-rule:evenodd;stroke:#000000;stroke-width:2.0px;stroke-linecap:butt;stroke-linejoin:miter;stroke-opacity:1"/>
<path class="bond-8 atom-8 atom-9" d="M 545.1,91.4 L 539.5,110.1" style="fill:none;fill-rule:evenodd;stroke:#000000;stroke-width:2.0px;stroke-linecap:butt;stroke-linejoin:miter;stroke-opacity:1"/>
<path class="bond-8 atom-8 atom-9" d="M 541.9,91.9 L 537.1,107.9" style="fill:none;fill-rule:evenodd;stroke:#000000;stroke-width:2.0px;stroke-linecap:butt;stroke-linejoin:miter;stroke-opacity:1"/>
<path class="bond-9 atom-9 atom-10" d="M 539.5,110.1 L 521.4,117.4" style="fill:none;fill-rule:evenodd;stroke:#000000;stroke-width:2.0px;stroke-linecap:butt;stroke-linejoin:miter;stroke-opacity:1"/>
<path class="bond-10 atom-10 atom-11" d="M 521.4,117.4 L 517.5,136.5" style="fill:none;fill-rule:evenodd;stroke:#000000;stroke-width:2.0px;stroke-linecap:butt;stroke-linejoin:miter;stroke-opacity:1"/>
<path class="bond-10 atom-10 atom-11" d="M 518.1,118.9 L 515.1,133.8" style="fill:none;fill-rule:evenodd;stroke:#000000;stroke-width:2.0px;stroke-linecap:butt;stroke-linejoin:miter;stroke-opacity:1"/>
<path class="bond-11 atom-11 atom-12" d="M 517.5,136.5 L 498.1,138.7" style="fill:none;fill-rule:evenodd;stroke:#000000;stroke-width:2.0px;stroke-linecap:butt;stroke-linejoin:miter;stroke-opacity:1"/>
<path class="bond-12 atom-12 atom-13" d="M 498.1,138.7 L 490.0,121.0" style="fill:none;fill-rule:evenodd;stroke:#000000;stroke-width:2.0px;stroke-linecap:butt;stroke-linejoin:miter;stroke-opacity:1"/>
<path class="bond-12 atom-12 atom-13" d="M 499.9,135.6 L 493.6,121.7" style="fill:none;fill-rule:evenodd;stroke:#000000;stroke-width:2.0px;stroke-linecap:butt;stroke-linejoin:miter;stroke-opacity:1"/>
<path class="bond-13 atom-13 atom-14" d="M 490.0,121.0 L 470.9,117.1" style="fill:none;fill-rule:evenodd;stroke:#000000;stroke-width:2.0px;stroke-linecap:butt;stroke-linejoin:miter;stroke-opacity:1"/>
<path class="bond-14 atom-14 atom-15" d="M 470.9,117.1 L 464.7,98.6" style="fill:none;fill-rule:evenodd;stroke:#000000;stroke-width:2.0px;stroke-linecap:butt;stroke-linejoin:miter;stroke-opacity:1"/>
<path class="bond-15 atom-15 atom-16" d="M 464.7,98.6 L 465.2,79.1" style="fill:none;fill-rule:evenodd;stroke:#000000;stroke-width:2.0px;stroke-linecap:butt;stroke-linejoin:miter;stroke-opacity:1"/>
<path class="bond-16 atom-15 atom-17" d="M 464.7,98.6 L 484.0,95.7" style="fill:none;fill-rule:evenodd;stroke:#000000;stroke-width:2.0px;stroke-linecap:butt;stroke-linejoin:miter;stroke-opacity:1"/>
<path class="bond-17 atom-15 atom-18" d="M 464.7,98.6 L 456.7,96.9" style="fill:none;fill-rule:evenodd;stroke:#000000;stroke-width:2.0px;stroke-linecap:butt;stroke-linejoin:miter;stroke-opacity:1"/>
<path class="bond-17 atom-15 atom-18" d="M 456.7,96.9 L 448.8,95.3" style="fill:none;fill-rule:evenodd;stroke:#FF0000;stroke-width:2.0px;stroke-linecap:butt;stroke-linejoin:miter;stroke-opacity:1"/>
<path class="bond-18 atom-18 atom-19" d="M 442.5,98.2 L 437.6,103.7" style="fill:none;fill-rule:evenodd;stroke:#FF0000;stroke-width:2.0px;stroke-linecap:butt;stroke-linejoin:miter;stroke-opacity:1"/>
<path class="bond-18 atom-18 atom-19" d="M 437.6,103.7 L 432.7,109.3" style="fill:none;fill-rule:evenodd;stroke:#000000;stroke-width:2.0px;stroke-linecap:butt;stroke-linejoin:miter;stroke-opacity:1"/>
<path class="bond-19 atom-19 atom-20" d="M 432.7,109.3 L 424.5,107.6" style="fill:none;fill-rule:evenodd;stroke:#000000;stroke-width:2.0px;stroke-linecap:butt;stroke-linejoin:miter;stroke-opacity:1"/>
<path class="bond-19 atom-19 atom-20" d="M 424.5,107.6 L 416.3,106.0" style="fill:none;fill-rule:evenodd;stroke:#0000FF;stroke-width:2.0px;stroke-linecap:butt;stroke-linejoin:miter;stroke-opacity:1"/>
<path class="bond-20 atom-20 atom-21" d="M 412.4,102.0 L 409.9,94.4" style="fill:none;fill-rule:evenodd;stroke:#0000FF;stroke-width:2.0px;stroke-linecap:butt;stroke-linejoin:miter;stroke-opacity:1"/>
<path class="bond-20 atom-20 atom-21" d="M 409.9,94.4 L 407.3,86.9" style="fill:none;fill-rule:evenodd;stroke:#000000;stroke-width:2.0px;stroke-linecap:butt;stroke-linejoin:miter;stroke-opacity:1"/>
<path class="bond-21 atom-21 atom-22" d="M 407.3,86.9 L 388.2,83.0" style="fill:none;fill-rule:evenodd;stroke:#000000;stroke-width:2.0px;stroke-linecap:butt;stroke-linejoin:miter;stroke-opacity:1"/>
<path class="bond-22 atom-22 atom-23" d="M 388.2,83.0 L 382.0,64.5" style="fill:none;fill-rule:evenodd;stroke:#000000;stroke-width:2.0px;stroke-linecap:butt;stroke-linejoin:miter;stroke-opacity:1"/>
<path class="bond-23 atom-23 atom-24" d="M 382.0,64.5 L 374.1,62.9" style="fill:none;fill-rule:evenodd;stroke:#000000;stroke-width:2.0px;stroke-linecap:butt;stroke-linejoin:miter;stroke-opacity:1"/>
<path class="bond-23 atom-23 atom-24" d="M 374.1,62.9 L 366.1,61.3" style="fill:none;fill-rule:evenodd;stroke:#FF0000;stroke-width:2.0px;stroke-linecap:butt;stroke-linejoin:miter;stroke-opacity:1"/>
<path class="bond-24 atom-21 atom-25" d="M 407.3,86.9 L 420.3,72.3" style="fill:none;fill-rule:evenodd;stroke:#000000;stroke-width:2.0px;stroke-linecap:butt;stroke-linejoin:miter;stroke-opacity:1"/>
<path class="bond-25 atom-25 atom-26" d="M 420.3,72.3 L 439.4,76.2" style="fill:none;fill-rule:evenodd;stroke:#000000;stroke-width:2.0px;stroke-linecap:butt;stroke-linejoin:miter;stroke-opacity:1"/>
<path class="bond-25 atom-25 atom-26" d="M 422.5,69.8 L 438.3,73.0" style="fill:none;fill-rule:evenodd;stroke:#000000;stroke-width:2.0px;stroke-linecap:butt;stroke-linejoin:miter;stroke-opacity:1"/>
<path class="bond-26 atom-26 atom-27" d="M 439.4,76.2 L 452.3,61.6" style="fill:none;fill-rule:evenodd;stroke:#000000;stroke-width:2.0px;stroke-linecap:butt;stroke-linejoin:miter;stroke-opacity:1"/>
<path class="bond-27 atom-27 atom-28" d="M 452.3,61.6 L 446.1,43.1" style="fill:none;fill-rule:evenodd;stroke:#000000;stroke-width:2.0px;stroke-linecap:butt;stroke-linejoin:miter;stroke-opacity:1"/>
<path class="bond-27 atom-27 atom-28" d="M 449.0,60.9 L 443.9,45.6" style="fill:none;fill-rule:evenodd;stroke:#000000;stroke-width:2.0px;stroke-linecap:butt;stroke-linejoin:miter;stroke-opacity:1"/>
<path class="bond-28 atom-28 atom-29" d="M 446.1,43.1 L 427.0,39.2" style="fill:none;fill-rule:evenodd;stroke:#000000;stroke-width:2.0px;stroke-linecap:butt;stroke-linejoin:miter;stroke-opacity:1"/>
<path class="bond-29 atom-29 atom-30" d="M 427.0,39.2 L 414.1,53.8" style="fill:none;fill-rule:evenodd;stroke:#000000;stroke-width:2.0px;stroke-linecap:butt;stroke-linejoin:miter;stroke-opacity:1"/>
<path class="bond-29 atom-29 atom-30" d="M 428.1,42.4 L 417.4,54.5" style="fill:none;fill-rule:evenodd;stroke:#000000;stroke-width:2.0px;stroke-linecap:butt;stroke-linejoin:miter;stroke-opacity:1"/>
<path class="bond-30 atom-30 atom-31" d="M 414.1,53.8 L 405.7,52.1" style="fill:none;fill-rule:evenodd;stroke:#000000;stroke-width:2.0px;stroke-linecap:butt;stroke-linejoin:miter;stroke-opacity:1"/>
<path class="bond-30 atom-30 atom-31" d="M 405.7,52.1 L 397.2,50.4" style="fill:none;fill-rule:evenodd;stroke:#33CCCC;stroke-width:2.0px;stroke-linecap:butt;stroke-linejoin:miter;stroke-opacity:1"/>
<path class="bond-31 atom-19 atom-32" d="M 432.7,109.3 L 435.2,116.8" style="fill:none;fill-rule:evenodd;stroke:#000000;stroke-width:2.0px;stroke-linecap:butt;stroke-linejoin:miter;stroke-opacity:1"/>
<path class="bond-31 atom-19 atom-32" d="M 435.2,116.8 L 437.7,124.4" style="fill:none;fill-rule:evenodd;stroke:#0000FF;stroke-width:2.0px;stroke-linecap:butt;stroke-linejoin:miter;stroke-opacity:1"/>
<path class="bond-31 atom-19 atom-32" d="M 436.0,110.0 L 438.2,116.7" style="fill:none;fill-rule:evenodd;stroke:#000000;stroke-width:2.0px;stroke-linecap:butt;stroke-linejoin:miter;stroke-opacity:1"/>
<path class="bond-31 atom-19 atom-32" d="M 438.2,116.7 L 440.5,123.5" style="fill:none;fill-rule:evenodd;stroke:#0000FF;stroke-width:2.0px;stroke-linecap:butt;stroke-linejoin:miter;stroke-opacity:1"/>
<path class="bond-32 atom-32 atom-33" d="M 441.6,128.4 L 448.6,129.8" style="fill:none;fill-rule:evenodd;stroke:#0000FF;stroke-width:2.0px;stroke-linecap:butt;stroke-linejoin:miter;stroke-opacity:1"/>
<path class="bond-32 atom-32 atom-33" d="M 448.6,129.8 L 455.6,131.2" style="fill:none;fill-rule:evenodd;stroke:#CCCC00;stroke-width:2.0px;stroke-linecap:butt;stroke-linejoin:miter;stroke-opacity:1"/>
<path class="bond-33 atom-33 atom-34" d="M 459.6,134.4 L 465.1,137.8" style="fill:none;fill-rule:evenodd;stroke:#CCCC00;stroke-width:2.0px;stroke-linecap:butt;stroke-linejoin:miter;stroke-opacity:1"/>
<path class="bond-33 atom-33 atom-34" d="M 465.1,137.8 L 470.7,141.2" style="fill:none;fill-rule:evenodd;stroke:#FF0000;stroke-width:2.0px;stroke-linecap:butt;stroke-linejoin:miter;stroke-opacity:1"/>
<path class="bond-33 atom-33 atom-34" d="M 461.2,131.9 L 466.7,135.3" style="fill:none;fill-rule:evenodd;stroke:#CCCC00;stroke-width:2.0px;stroke-linecap:butt;stroke-linejoin:miter;stroke-opacity:1"/>
<path class="bond-33 atom-33 atom-34" d="M 466.7,135.3 L 472.2,138.7" style="fill:none;fill-rule:evenodd;stroke:#FF0000;stroke-width:2.0px;stroke-linecap:butt;stroke-linejoin:miter;stroke-opacity:1"/>
<path class="bond-34 atom-33 atom-35" d="M 455.2,134.7 L 453.0,140.3" style="fill:none;fill-rule:evenodd;stroke:#CCCC00;stroke-width:2.0px;stroke-linecap:butt;stroke-linejoin:miter;stroke-opacity:1"/>
<path class="bond-34 atom-33 atom-35" d="M 453.0,140.3 L 450.8,145.9" style="fill:none;fill-rule:evenodd;stroke:#FF0000;stroke-width:2.0px;stroke-linecap:butt;stroke-linejoin:miter;stroke-opacity:1"/>
<path class="bond-34 atom-33 atom-35" d="M 457.9,135.8 L 455.7,141.4" style="fill:none;fill-rule:evenodd;stroke:#CCCC00;stroke-width:2.0px;stroke-linecap:butt;stroke-linejoin:miter;stroke-opacity:1"/>
<path class="bond-34 atom-33 atom-35" d="M 455.7,141.4 L 453.5,146.9" style="fill:none;fill-rule:evenodd;stroke:#FF0000;stroke-width:2.0px;stroke-linecap:butt;stroke-linejoin:miter;stroke-opacity:1"/>
<path class="bond-35 atom-13 atom-36" d="M 490.0,121.0 L 504.4,107.8" style="fill:none;fill-rule:evenodd;stroke:#000000;stroke-width:2.0px;stroke-linecap:butt;stroke-linejoin:miter;stroke-opacity:1"/>
<path class="bond-36 atom-36 atom-37" d="M 504.4,107.8 L 501.3,88.5" style="fill:none;fill-rule:evenodd;stroke:#000000;stroke-width:2.0px;stroke-linecap:butt;stroke-linejoin:miter;stroke-opacity:1"/>
<path class="bond-36 atom-36 atom-37" d="M 507.1,105.9 L 504.4,89.4" style="fill:none;fill-rule:evenodd;stroke:#000000;stroke-width:2.0px;stroke-linecap:butt;stroke-linejoin:miter;stroke-opacity:1"/>
<path class="bond-37 atom-37 atom-38" d="M 501.3,88.5 L 482.6,82.9" style="fill:none;fill-rule:evenodd;stroke:#000000;stroke-width:2.0px;stroke-linecap:butt;stroke-linejoin:miter;stroke-opacity:1"/>
<path class="bond-38 atom-38 atom-39" d="M 482.6,82.9 L 480.8,75.1" style="fill:none;fill-rule:evenodd;stroke:#000000;stroke-width:2.0px;stroke-linecap:butt;stroke-linejoin:miter;stroke-opacity:1"/>
<path class="bond-38 atom-38 atom-39" d="M 480.8,75.1 L 478.9,67.3" style="fill:none;fill-rule:evenodd;stroke:#33CCCC;stroke-width:2.0px;stroke-linecap:butt;stroke-linejoin:miter;stroke-opacity:1"/>
<path class="bond-39 atom-4 atom-1" d="M 519.2,40.6 L 518.3,32.6" style="fill:none;fill-rule:evenodd;stroke:#000000;stroke-width:2.0px;stroke-linecap:butt;stroke-linejoin:miter;stroke-opacity:1"/>
<path class="bond-39 atom-4 atom-1" d="M 518.3,32.6 L 517.3,24.7" style="fill:none;fill-rule:evenodd;stroke:#0000FF;stroke-width:2.0px;stroke-linecap:butt;stroke-linejoin:miter;stroke-opacity:1"/>
<path class="bond-40 atom-37 atom-6" d="M 501.3,88.5 L 514.5,74.1" style="fill:none;fill-rule:evenodd;stroke:#000000;stroke-width:2.0px;stroke-linecap:butt;stroke-linejoin:miter;stroke-opacity:1"/>
<path class="bond-41 atom-36 atom-10" d="M 504.4,107.8 L 521.4,117.4" style="fill:none;fill-rule:evenodd;stroke:#000000;stroke-width:2.0px;stroke-linecap:butt;stroke-linejoin:miter;stroke-opacity:1"/>
<path class="bond-42 atom-33 atom-14" d="M 460.4,129.0 L 465.6,123.0" style="fill:none;fill-rule:evenodd;stroke:#CCCC00;stroke-width:2.0px;stroke-linecap:butt;stroke-linejoin:miter;stroke-opacity:1"/>
<path class="bond-42 atom-33 atom-14" d="M 465.6,123.0 L 470.9,117.1" style="fill:none;fill-rule:evenodd;stroke:#000000;stroke-width:2.0px;stroke-linecap:butt;stroke-linejoin:miter;stroke-opacity:1"/>
<path class="bond-43 atom-30 atom-25" d="M 414.1,53.8 L 420.3,72.3" style="fill:none;fill-rule:evenodd;stroke:#000000;stroke-width:2.0px;stroke-linecap:butt;stroke-linejoin:miter;stroke-opacity:1"/>
<path d="M 507.8,55.2 L 507.2,56.0 L 507.6,56.9" style="fill:none;stroke:#000000;stroke-width:2.0px;stroke-linecap:butt;stroke-linejoin:miter;stroke-opacity:1;"/>
<path d="M 533.0,75.3 L 534.0,75.4 L 534.5,76.2" style="fill:none;stroke:#000000;stroke-width:2.0px;stroke-linecap:butt;stroke-linejoin:miter;stroke-opacity:1;"/>
<path d="M 544.5,90.6 L 545.1,91.4 L 544.8,92.3" style="fill:none;stroke:#000000;stroke-width:2.0px;stroke-linecap:butt;stroke-linejoin:miter;stroke-opacity:1;"/>
<path d="M 539.8,109.2 L 539.5,110.1 L 538.6,110.5" style="fill:none;stroke:#000000;stroke-width:2.0px;stroke-linecap:butt;stroke-linejoin:miter;stroke-opacity:1;"/>
<path d="M 517.7,135.6 L 517.5,136.5 L 516.5,136.6" style="fill:none;stroke:#000000;stroke-width:2.0px;stroke-linecap:butt;stroke-linejoin:miter;stroke-opacity:1;"/>
<path d="M 499.1,138.6 L 498.1,138.7 L 497.7,137.8" style="fill:none;stroke:#000000;stroke-width:2.0px;stroke-linecap:butt;stroke-linejoin:miter;stroke-opacity:1;"/>
<path d="M 389.2,83.2 L 388.2,83.0 L 387.9,82.1" style="fill:none;stroke:#000000;stroke-width:2.0px;stroke-linecap:butt;stroke-linejoin:miter;stroke-opacity:1;"/>
<path d="M 382.3,65.4 L 382.0,64.5 L 381.6,64.4" style="fill:none;stroke:#000000;stroke-width:2.0px;stroke-linecap:butt;stroke-linejoin:miter;stroke-opacity:1;"/>
<path d="M 438.4,76.0 L 439.4,76.2 L 440.0,75.4" style="fill:none;stroke:#000000;stroke-width:2.0px;stroke-linecap:butt;stroke-linejoin:miter;stroke-opacity:1;"/>
<path d="M 451.7,62.3 L 452.3,61.6 L 452.0,60.6" style="fill:none;stroke:#000000;stroke-width:2.0px;stroke-linecap:butt;stroke-linejoin:miter;stroke-opacity:1;"/>
<path d="M 446.4,44.0 L 446.1,43.1 L 445.2,42.9" style="fill:none;stroke:#000000;stroke-width:2.0px;stroke-linecap:butt;stroke-linejoin:miter;stroke-opacity:1;"/>
<path d="M 428.0,39.4 L 427.0,39.2 L 426.4,39.9" style="fill:none;stroke:#000000;stroke-width:2.0px;stroke-linecap:butt;stroke-linejoin:miter;stroke-opacity:1;"/>
<path d="M 483.6,83.2 L 482.6,82.9 L 482.5,82.5" style="fill:none;stroke:#000000;stroke-width:2.0px;stroke-linecap:butt;stroke-linejoin:miter;stroke-opacity:1;"/>
<path class="atom-1" d="M 515.7 18.5 L 517.5 21.4 Q 517.6 21.7, 517.9 22.2 Q 518.2 22.8, 518.2 22.8 L 518.2 18.5 L 519.0 18.5 L 519.0 24.0 L 518.2 24.0 L 516.3 20.8 Q 516.0 20.4, 515.8 20.0 Q 515.6 19.6, 515.5 19.5 L 515.5 24.0 L 514.8 24.0 L 514.8 18.5 L 515.7 18.5 " fill="#0000FF"/>
<path class="atom-2" d="M 534.7 20.8 Q 534.7 20.8, 535.0 20.9 Q 535.3 21.0, 535.5 21.1 Q 535.8 21.2, 536.1 21.2 Q 536.6 21.2, 536.9 20.9 Q 537.2 20.7, 537.2 20.2 Q 537.2 19.9, 537.1 19.7 Q 536.9 19.5, 536.7 19.4 Q 536.5 19.3, 536.1 19.2 Q 535.6 19.1, 535.3 18.9 Q 535.0 18.8, 534.8 18.5 Q 534.6 18.2, 534.6 17.7 Q 534.6 17.0, 535.1 16.6 Q 535.5 16.1, 536.5 16.1 Q 537.1 16.1, 537.8 16.5 L 537.7 17.1 Q 537.0 16.8, 536.5 16.8 Q 536.0 16.8, 535.7 17.0 Q 535.4 17.2, 535.4 17.6 Q 535.4 17.9, 535.5 18.1 Q 535.7 18.3, 535.9 18.4 Q 536.1 18.5, 536.5 18.6 Q 537.0 18.7, 537.3 18.9 Q 537.6 19.1, 537.8 19.4 Q 538.0 19.7, 538.0 20.2 Q 538.0 21.0, 537.5 21.4 Q 537.0 21.8, 536.1 21.8 Q 535.7 21.8, 535.3 21.7 Q 534.9 21.6, 534.5 21.4 L 534.7 20.8 " fill="#CCCC00"/>
<path class="atom-3" d="M 537.4 35.5 L 539.2 38.4 Q 539.4 38.7, 539.7 39.3 Q 539.9 39.8, 540.0 39.8 L 540.0 35.5 L 540.7 35.5 L 540.7 41.0 L 539.9 41.0 L 538.0 37.8 Q 537.8 37.5, 537.5 37.0 Q 537.3 36.6, 537.2 36.5 L 537.2 41.0 L 536.5 41.0 L 536.5 35.5 L 537.4 35.5 " fill="#0000FF"/>
<path class="atom-18" d="M 443.1 94.7 Q 443.1 93.4, 443.7 92.6 Q 444.4 91.9, 445.6 91.9 Q 446.8 91.9, 447.5 92.6 Q 448.1 93.4, 448.1 94.7 Q 448.1 96.0, 447.5 96.8 Q 446.8 97.6, 445.6 97.6 Q 444.4 97.6, 443.7 96.8 Q 443.1 96.0, 443.1 94.7 M 445.6 96.9 Q 446.4 96.9, 446.9 96.4 Q 447.3 95.8, 447.3 94.7 Q 447.3 93.6, 446.9 93.1 Q 446.4 92.5, 445.6 92.5 Q 444.7 92.5, 444.3 93.1 Q 443.8 93.6, 443.8 94.7 Q 443.8 95.8, 444.3 96.4 Q 444.7 96.9, 445.6 96.9 " fill="#FF0000"/>
<path class="atom-20" d="M 406.0 102.6 L 406.8 102.6 L 406.8 105.0 L 409.6 105.0 L 409.6 102.6 L 410.4 102.6 L 410.4 108.2 L 409.6 108.2 L 409.6 105.6 L 406.8 105.6 L 406.8 108.2 L 406.0 108.2 L 406.0 102.6 " fill="#0000FF"/>
<path class="atom-20" d="M 412.3 102.6 L 414.1 105.6 Q 414.3 105.9, 414.6 106.4 Q 414.9 106.9, 414.9 106.9 L 414.9 102.6 L 415.6 102.6 L 415.6 108.2 L 414.9 108.2 L 412.9 105.0 Q 412.7 104.6, 412.5 104.2 Q 412.2 103.7, 412.2 103.6 L 412.2 108.2 L 411.4 108.2 L 411.4 102.6 L 412.3 102.6 " fill="#0000FF"/>
<path class="atom-24" d="M 354.9 57.9 L 355.7 57.9 L 355.7 60.2 L 358.5 60.2 L 358.5 57.9 L 359.2 57.9 L 359.2 63.4 L 358.5 63.4 L 358.5 60.9 L 355.7 60.9 L 355.7 63.4 L 354.9 63.4 L 354.9 57.9 " fill="#FF0000"/>
<path class="atom-24" d="M 360.4 60.6 Q 360.4 59.3, 361.0 58.6 Q 361.7 57.8, 362.9 57.8 Q 364.1 57.8, 364.8 58.6 Q 365.4 59.3, 365.4 60.6 Q 365.4 62.0, 364.8 62.7 Q 364.1 63.5, 362.9 63.5 Q 361.7 63.5, 361.0 62.7 Q 360.4 62.0, 360.4 60.6 M 362.9 62.9 Q 363.8 62.9, 364.2 62.3 Q 364.7 61.7, 364.7 60.6 Q 364.7 59.5, 364.2 59.0 Q 363.8 58.4, 362.9 58.4 Q 362.1 58.4, 361.6 59.0 Q 361.2 59.5, 361.2 60.6 Q 361.2 61.7, 361.6 62.3 Q 362.1 62.9, 362.9 62.9 " fill="#FF0000"/>
<path class="atom-31" d="M 393.3 47.1 L 396.6 47.1 L 396.6 47.8 L 394.1 47.8 L 394.1 49.4 L 396.3 49.4 L 396.3 50.1 L 394.1 50.1 L 394.1 52.6 L 393.3 52.6 L 393.3 47.1 " fill="#33CCCC"/>
<path class="atom-32" d="M 437.6 125.0 L 439.4 128.0 Q 439.6 128.3, 439.9 128.8 Q 440.2 129.3, 440.2 129.3 L 440.2 125.0 L 440.9 125.0 L 440.9 130.6 L 440.2 130.6 L 438.2 127.4 Q 438.0 127.0, 437.8 126.6 Q 437.5 126.1, 437.5 126.0 L 437.5 130.6 L 436.8 130.6 L 436.8 125.0 L 437.6 125.0 " fill="#0000FF"/>
<path class="atom-33" d="M 456.4 133.6 Q 456.5 133.6, 456.7 133.7 Q 457.0 133.8, 457.3 133.9 Q 457.6 134.0, 457.8 134.0 Q 458.4 134.0, 458.7 133.7 Q 459.0 133.5, 459.0 133.0 Q 459.0 132.7, 458.8 132.5 Q 458.7 132.3, 458.4 132.2 Q 458.2 132.1, 457.8 132.0 Q 457.3 131.9, 457.0 131.7 Q 456.7 131.6, 456.5 131.3 Q 456.3 131.0, 456.3 130.5 Q 456.3 129.8, 456.8 129.4 Q 457.3 128.9, 458.2 128.9 Q 458.8 128.9, 459.6 129.2 L 459.4 129.8 Q 458.7 129.6, 458.2 129.6 Q 457.7 129.6, 457.4 129.8 Q 457.1 130.0, 457.1 130.4 Q 457.1 130.7, 457.2 130.9 Q 457.4 131.1, 457.6 131.2 Q 457.8 131.3, 458.2 131.4 Q 458.7 131.5, 459.0 131.7 Q 459.3 131.8, 459.5 132.2 Q 459.7 132.5, 459.7 133.0 Q 459.7 133.8, 459.2 134.2 Q 458.7 134.6, 457.9 134.6 Q 457.4 134.6, 457.0 134.5 Q 456.6 134.4, 456.2 134.2 L 456.4 133.6 " fill="#CCCC00"/>
<path class="atom-34" d="M 472.1 141.9 Q 472.1 140.6, 472.7 139.8 Q 473.4 139.1, 474.6 139.1 Q 475.8 139.1, 476.5 139.8 Q 477.1 140.6, 477.1 141.9 Q 477.1 143.2, 476.5 144.0 Q 475.8 144.8, 474.6 144.8 Q 473.4 144.8, 472.7 144.0 Q 472.1 143.3, 472.1 141.9 M 474.6 144.1 Q 475.5 144.1, 475.9 143.6 Q 476.4 143.0, 476.4 141.9 Q 476.4 140.8, 475.9 140.3 Q 475.5 139.7, 474.6 139.7 Q 473.8 139.7, 473.3 140.3 Q 472.9 140.8, 472.9 141.9 Q 472.9 143.0, 473.3 143.6 Q 473.8 144.1, 474.6 144.1 " fill="#FF0000"/>
<path class="atom-35" d="M 448.3 149.9 Q 448.3 148.5, 448.9 147.8 Q 449.6 147.1, 450.8 147.1 Q 452.0 147.1, 452.7 147.8 Q 453.4 148.5, 453.4 149.9 Q 453.4 151.2, 452.7 152.0 Q 452.0 152.7, 450.8 152.7 Q 449.6 152.7, 448.9 152.0 Q 448.3 151.2, 448.3 149.9 M 450.8 152.1 Q 451.7 152.1, 452.1 151.5 Q 452.6 151.0, 452.6 149.9 Q 452.6 148.8, 452.1 148.2 Q 451.7 147.7, 450.8 147.7 Q 450.0 147.7, 449.5 148.2 Q 449.1 148.8, 449.1 149.9 Q 449.1 151.0, 449.5 151.5 Q 450.0 152.1, 450.8 152.1 " fill="#FF0000"/>
<path class="atom-39" d="M 476.5 61.2 L 479.8 61.2 L 479.8 61.8 L 477.2 61.8 L 477.2 63.5 L 479.5 63.5 L 479.5 64.1 L 477.2 64.1 L 477.2 66.7 L 476.5 66.7 L 476.5 61.2 " fill="#33CCCC"/>
<path class="atom-0" d="M 499.6,7.3 L 499.6,7.3 L 499.6,7.3 L 499.5,7.4 L 499.5,7.4 L 499.5,7.4 L 499.5,7.5 L 499.5,7.5 L 499.5,7.5 L 499.5,7.5 L 499.4,7.6 L 499.4,7.6 L 499.4,7.6 L 499.3,7.6 L 499.3,7.6 L 499.3,7.6 L 499.2,7.7 L 499.2,7.7 L 499.2,7.7 L 499.1,7.7 L 499.1,7.7 L 499.1,7.7 L 499.0,7.6 L 499.0,7.6 L 499.0,7.6 L 499.0,7.6 L 498.9,7.6 L 498.9,7.6 L 498.9,7.5 L 498.9,7.5 L 498.8,7.5 L 498.8,7.5 L 498.8,7.4 L 498.8,7.4 L 498.8,7.4 L 498.8,7.3 L 498.8,7.3 L 498.8,7.3 L 498.8,7.2 L 498.8,7.2 L 498.8,7.2 L 498.8,7.1 L 498.8,7.1 L 498.8,7.1 L 498.9,7.0 L 498.9,7.0 L 498.9,7.0 L 498.9,7.0 L 499.0,6.9 L 499.0,6.9 L 499.0,6.9 L 499.0,6.9 L 499.1,6.9 L 499.1,6.9 L 499.1,6.9 L 499.2,6.9 L 499.2,6.9 L 499.2,6.9 L 499.3,6.9 L 499.3,6.9 L 499.3,6.9 L 499.4,6.9 L 499.4,7.0 L 499.4,7.0 L 499.5,7.0 L 499.5,7.0 L 499.5,7.1 L 499.5,7.1 L 499.5,7.1 L 499.5,7.1 L 499.5,7.2 L 499.6,7.2 L 499.6,7.2 L 499.6,7.3 L 499.2,7.3 Z" style="fill:#000000;fill-rule:evenodd;fill-opacity:1;stroke:#000000;stroke-width:0.0px;stroke-linecap:butt;stroke-linejoin:miter;stroke-opacity:1;"/>
<path class="atom-0" d="M 499.6,11.2 L 499.6,11.2 L 499.6,11.2 L 499.5,11.3 L 499.5,11.3 L 499.5,11.3 L 499.5,11.4 L 499.5,11.4 L 499.5,11.4 L 499.5,11.4 L 499.4,11.5 L 499.4,11.5 L 499.4,11.5 L 499.3,11.5 L 499.3,11.5 L 499.3,11.6 L 499.2,11.6 L 499.2,11.6 L 499.2,11.6 L 499.1,11.6 L 499.1,11.6 L 499.1,11.6 L 499.0,11.5 L 499.0,11.5 L 499.0,11.5 L 499.0,11.5 L 498.9,11.5 L 498.9,11.5 L 498.9,11.4 L 498.9,11.4 L 498.8,11.4 L 498.8,11.4 L 498.8,11.3 L 498.8,11.3 L 498.8,11.3 L 498.8,11.2 L 498.8,11.2 L 498.8,11.2 L 498.8,11.1 L 498.8,11.1 L 498.8,11.1 L 498.8,11.0 L 498.8,11.0 L 498.8,11.0 L 498.9,10.9 L 498.9,10.9 L 498.9,10.9 L 498.9,10.9 L 499.0,10.8 L 499.0,10.8 L 499.0,10.8 L 499.0,10.8 L 499.1,10.8 L 499.1,10.8 L 499.1,10.8 L 499.2,10.8 L 499.2,10.8 L 499.2,10.8 L 499.3,10.8 L 499.3,10.8 L 499.3,10.8 L 499.4,10.8 L 499.4,10.9 L 499.4,10.9 L 499.5,10.9 L 499.5,10.9 L 499.5,11.0 L 499.5,11.0 L 499.5,11.0 L 499.5,11.0 L 499.5,11.1 L 499.6,11.1 L 499.6,11.1 L 499.6,11.2 L 499.2,11.2 Z" style="fill:#000000;fill-rule:evenodd;fill-opacity:1;stroke:#000000;stroke-width:0.0px;stroke-linecap:butt;stroke-linejoin:miter;stroke-opacity:1;"/>
<path class="atom-0" d="M 499.6,9.2 L 499.6,9.3 L 499.6,9.3 L 499.5,9.3 L 499.5,9.4 L 499.5,9.4 L 499.5,9.4 L 499.5,9.4 L 499.5,9.5 L 499.5,9.5 L 499.4,9.5 L 499.4,9.5 L 499.4,9.6 L 499.3,9.6 L 499.3,9.6 L 499.3,9.6 L 499.2,9.6 L 499.2,9.6 L 499.2,9.6 L 499.1,9.6 L 499.1,9.6 L 499.1,9.6 L 499.0,9.6 L 499.0,9.6 L 499.0,9.6 L 499.0,9.6 L 498.9,9.5 L 498.9,9.5 L 498.9,9.5 L 498.9,9.5 L 498.8,9.4 L 498.8,9.4 L 498.8,9.4 L 498.8,9.3 L 498.8,9.3 L 498.8,9.3 L 498.8,9.2 L 498.8,9.2 L 498.8,9.2 L 498.8,9.1 L 498.8,9.1 L 498.8,9.1 L 498.8,9.0 L 498.8,9.0 L 498.9,9.0 L 498.9,9.0 L 498.9,8.9 L 498.9,8.9 L 499.0,8.9 L 499.0,8.9 L 499.0,8.9 L 499.0,8.9 L 499.1,8.8 L 499.1,8.8 L 499.1,8.8 L 499.2,8.8 L 499.2,8.8 L 499.2,8.8 L 499.3,8.8 L 499.3,8.9 L 499.3,8.9 L 499.4,8.9 L 499.4,8.9 L 499.4,8.9 L 499.5,9.0 L 499.5,9.0 L 499.5,9.0 L 499.5,9.0 L 499.5,9.1 L 499.5,9.1 L 499.5,9.1 L 499.6,9.2 L 499.6,9.2 L 499.6,9.2 L 499.2,9.2 Z" style="fill:#000000;fill-rule:evenodd;fill-opacity:1;stroke:#000000;stroke-width:0.0px;stroke-linecap:butt;stroke-linejoin:miter;stroke-opacity:1;"/>
<path class="atom-38" d="M 480.7,83.7 L 480.7,83.7 L 480.7,83.8 L 480.7,83.8 L 480.7,83.8 L 480.7,83.9 L 480.6,83.9 L 480.6,83.9 L 480.6,84.0 L 480.6,84.0 L 480.6,84.0 L 480.5,84.0 L 480.5,84.0 L 480.5,84.1 L 480.4,84.1 L 480.4,84.1 L 480.4,84.1 L 480.3,84.1 L 480.3,84.1 L 480.3,84.1 L 480.2,84.1 L 480.2,84.1 L 480.2,84.1 L 480.1,84.1 L 480.1,84.0 L 480.1,84.0 L 480.1,84.0 L 480.0,84.0 L 480.0,84.0 L 480.0,83.9 L 480.0,83.9 L 479.9,83.9 L 479.9,83.9 L 479.9,83.8 L 479.9,83.8 L 479.9,83.8 L 479.9,83.7 L 479.9,83.7 L 479.9,83.7 L 479.9,83.6 L 479.9,83.6 L 479.9,83.6 L 479.9,83.5 L 480.0,83.5 L 480.0,83.5 L 480.0,83.4 L 480.0,83.4 L 480.1,83.4 L 480.1,83.4 L 480.1,83.4 L 480.1,83.3 L 480.2,83.3 L 480.2,83.3 L 480.2,83.3 L 480.3,83.3 L 480.3,83.3 L 480.3,83.3 L 480.4,83.3 L 480.4,83.3 L 480.4,83.3 L 480.5,83.4 L 480.5,83.4 L 480.5,83.4 L 480.6,83.4 L 480.6,83.4 L 480.6,83.5 L 480.6,83.5 L 480.6,83.5 L 480.7,83.5 L 480.7,83.6 L 480.7,83.6 L 480.7,83.6 L 480.7,83.7 L 480.7,83.7 L 480.3,83.7 Z" style="fill:#000000;fill-rule:evenodd;fill-opacity:1;stroke:#000000;stroke-width:0.0px;stroke-linecap:butt;stroke-linejoin:miter;stroke-opacity:1;"/>
<path class="atom-38" d="M 480.7,82.1 L 480.7,82.2 L 480.7,82.2 L 480.7,82.2 L 480.7,82.3 L 480.7,82.3 L 480.6,82.3 L 480.6,82.4 L 480.6,82.4 L 480.6,82.4 L 480.6,82.4 L 480.5,82.5 L 480.5,82.5 L 480.5,82.5 L 480.4,82.5 L 480.4,82.5 L 480.4,82.5 L 480.3,82.5 L 480.3,82.5 L 480.3,82.5 L 480.2,82.5 L 480.2,82.5 L 480.2,82.5 L 480.1,82.5 L 480.1,82.5 L 480.1,82.5 L 480.1,82.5 L 480.0,82.4 L 480.0,82.4 L 480.0,82.4 L 480.0,82.4 L 479.9,82.3 L 479.9,82.3 L 479.9,82.3 L 479.9,82.2 L 479.9,82.2 L 479.9,82.2 L 479.9,82.1 L 479.9,82.1 L 479.9,82.1 L 479.9,82.0 L 479.9,82.0 L 479.9,82.0 L 480.0,81.9 L 480.0,81.9 L 480.0,81.9 L 480.0,81.9 L 480.1,81.8 L 480.1,81.8 L 480.1,81.8 L 480.1,81.8 L 480.2,81.8 L 480.2,81.8 L 480.2,81.8 L 480.3,81.8 L 480.3,81.8 L 480.3,81.8 L 480.4,81.8 L 480.4,81.8 L 480.4,81.8 L 480.5,81.8 L 480.5,81.8 L 480.5,81.8 L 480.6,81.8 L 480.6,81.9 L 480.6,81.9 L 480.6,81.9 L 480.6,82.0 L 480.7,82.0 L 480.7,82.0 L 480.7,82.0 L 480.7,82.1 L 480.7,82.1 L 480.7,82.1 L 480.3,82.1 Z" style="fill:#000000;fill-rule:evenodd;fill-opacity:1;stroke:#000000;stroke-width:0.0px;stroke-linecap:butt;stroke-linejoin:miter;stroke-opacity:1;"/>
<path class="bond-0 atom-0 atom-1" d="M 751.1,33.9 L 759.5,33.6" style="fill:none;fill-rule:evenodd;stroke:#000000;stroke-width:2.0px;stroke-linecap:butt;stroke-linejoin:miter;stroke-opacity:1"/>
<path class="bond-0 atom-0 atom-1" d="M 759.5,33.6 L 767.8,33.3" style="fill:none;fill-rule:evenodd;stroke:#0000FF;stroke-width:2.0px;stroke-linecap:butt;stroke-linejoin:miter;stroke-opacity:1"/>
<path class="bond-1 atom-1 atom-2" d="M 773.3,30.3 L 777.4,25.9" style="fill:none;fill-rule:evenodd;stroke:#0000FF;stroke-width:2.0px;stroke-linecap:butt;stroke-linejoin:miter;stroke-opacity:1"/>
<path class="bond-1 atom-1 atom-2" d="M 777.4,25.9 L 781.5,21.6" style="fill:none;fill-rule:evenodd;stroke:#CCCC00;stroke-width:2.0px;stroke-linecap:butt;stroke-linejoin:miter;stroke-opacity:1"/>
<path class="bond-2 atom-2 atom-3" d="M 786.3,21.3 L 790.9,25.5" style="fill:none;fill-rule:evenodd;stroke:#CCCC00;stroke-width:2.0px;stroke-linecap:butt;stroke-linejoin:miter;stroke-opacity:1"/>
<path class="bond-2 atom-2 atom-3" d="M 790.9,25.5 L 795.4,29.8" style="fill:none;fill-rule:evenodd;stroke:#0000FF;stroke-width:2.0px;stroke-linecap:butt;stroke-linejoin:miter;stroke-opacity:1"/>
<path class="bond-3 atom-3 atom-4" d="M 795.4,35.3 L 790.1,40.9" style="fill:none;fill-rule:evenodd;stroke:#0000FF;stroke-width:2.0px;stroke-linecap:butt;stroke-linejoin:miter;stroke-opacity:1"/>
<path class="bond-3 atom-3 atom-4" d="M 790.1,40.9 L 784.8,46.6" style="fill:none;fill-rule:evenodd;stroke:#000000;stroke-width:2.0px;stroke-linecap:butt;stroke-linejoin:miter;stroke-opacity:1"/>
<path class="bond-3 atom-3 atom-4" d="M 793.3,33.3 L 789.0,37.9" style="fill:none;fill-rule:evenodd;stroke:#0000FF;stroke-width:2.0px;stroke-linecap:butt;stroke-linejoin:miter;stroke-opacity:1"/>
<path class="bond-3 atom-3 atom-4" d="M 789.0,37.9 L 784.7,42.4" style="fill:none;fill-rule:evenodd;stroke:#000000;stroke-width:2.0px;stroke-linecap:butt;stroke-linejoin:miter;stroke-opacity:1"/>
<path class="bond-4 atom-4 atom-5" d="M 784.8,46.6 L 785.4,66.1" style="fill:none;fill-rule:evenodd;stroke:#000000;stroke-width:2.0px;stroke-linecap:butt;stroke-linejoin:miter;stroke-opacity:1"/>
<path class="bond-5 atom-5 atom-6" d="M 785.4,66.1 L 802.7,75.3" style="fill:none;fill-rule:evenodd;stroke:#000000;stroke-width:2.0px;stroke-linecap:butt;stroke-linejoin:miter;stroke-opacity:1"/>
<path class="bond-6 atom-6 atom-7" d="M 802.7,75.3 L 818.4,63.8" style="fill:none;fill-rule:evenodd;stroke:#000000;stroke-width:2.0px;stroke-linecap:butt;stroke-linejoin:miter;stroke-opacity:1"/>
<path class="bond-6 atom-6 atom-7" d="M 805.5,76.8 L 819.0,67.0" style="fill:none;fill-rule:evenodd;stroke:#000000;stroke-width:2.0px;stroke-linecap:butt;stroke-linejoin:miter;stroke-opacity:1"/>
<path class="bond-7 atom-7 atom-8" d="M 818.4,63.8 L 837.2,68.9" style="fill:none;fill-rule:evenodd;stroke:#000000;stroke-width:2.0px;stroke-linecap:butt;stroke-linejoin:miter;stroke-opacity:1"/>
<path class="bond-8 atom-8 atom-9" d="M 837.2,68.9 L 844.9,86.9" style="fill:none;fill-rule:evenodd;stroke:#000000;stroke-width:2.0px;stroke-linecap:butt;stroke-linejoin:miter;stroke-opacity:1"/>
<path class="bond-8 atom-8 atom-9" d="M 835.1,71.4 L 841.7,86.7" style="fill:none;fill-rule:evenodd;stroke:#000000;stroke-width:2.0px;stroke-linecap:butt;stroke-linejoin:miter;stroke-opacity:1"/>
<path class="bond-9 atom-9 atom-10" d="M 844.9,86.9 L 835.7,104.1" style="fill:none;fill-rule:evenodd;stroke:#000000;stroke-width:2.0px;stroke-linecap:butt;stroke-linejoin:miter;stroke-opacity:1"/>
<path class="bond-10 atom-10 atom-11" d="M 835.7,104.1 L 845.0,121.2" style="fill:none;fill-rule:evenodd;stroke:#000000;stroke-width:2.0px;stroke-linecap:butt;stroke-linejoin:miter;stroke-opacity:1"/>
<path class="bond-10 atom-10 atom-11" d="M 834.2,107.3 L 841.4,120.8" style="fill:none;fill-rule:evenodd;stroke:#000000;stroke-width:2.0px;stroke-linecap:butt;stroke-linejoin:miter;stroke-opacity:1"/>
<path class="bond-11 atom-11 atom-12" d="M 845.0,121.2 L 831.6,135.4" style="fill:none;fill-rule:evenodd;stroke:#000000;stroke-width:2.0px;stroke-linecap:butt;stroke-linejoin:miter;stroke-opacity:1"/>
<path class="bond-12 atom-12 atom-13" d="M 831.6,135.4 L 814.0,126.9" style="fill:none;fill-rule:evenodd;stroke:#000000;stroke-width:2.0px;stroke-linecap:butt;stroke-linejoin:miter;stroke-opacity:1"/>
<path class="bond-12 atom-12 atom-13" d="M 830.9,131.8 L 817.1,125.2" style="fill:none;fill-rule:evenodd;stroke:#000000;stroke-width:2.0px;stroke-linecap:butt;stroke-linejoin:miter;stroke-opacity:1"/>
<path class="bond-13 atom-13 atom-14" d="M 814.0,126.9 L 796.8,136.2" style="fill:none;fill-rule:evenodd;stroke:#000000;stroke-width:2.0px;stroke-linecap:butt;stroke-linejoin:miter;stroke-opacity:1"/>
<path class="bond-14 atom-13 atom-15" d="M 814.0,126.9 L 816.5,107.6" style="fill:none;fill-rule:evenodd;stroke:#000000;stroke-width:2.0px;stroke-linecap:butt;stroke-linejoin:miter;stroke-opacity:1"/>
<path class="bond-15 atom-15 atom-16" d="M 816.5,107.6 L 801.8,94.8" style="fill:none;fill-rule:evenodd;stroke:#000000;stroke-width:2.0px;stroke-linecap:butt;stroke-linejoin:miter;stroke-opacity:1"/>
<path class="bond-15 atom-15 atom-16" d="M 817.4,104.5 L 804.8,93.5" style="fill:none;fill-rule:evenodd;stroke:#000000;stroke-width:2.0px;stroke-linecap:butt;stroke-linejoin:miter;stroke-opacity:1"/>
<path class="bond-16 atom-16 atom-17" d="M 801.8,94.8 L 783.9,102.5" style="fill:none;fill-rule:evenodd;stroke:#000000;stroke-width:2.0px;stroke-linecap:butt;stroke-linejoin:miter;stroke-opacity:1"/>
<path class="bond-17 atom-17 atom-18" d="M 783.9,102.5 L 768.3,90.8" style="fill:none;fill-rule:evenodd;stroke:#000000;stroke-width:2.0px;stroke-linecap:butt;stroke-linejoin:miter;stroke-opacity:1"/>
<path class="bond-18 atom-18 atom-19" d="M 768.3,90.8 L 757.5,74.5" style="fill:none;fill-rule:evenodd;stroke:#000000;stroke-width:2.0px;stroke-linecap:butt;stroke-linejoin:miter;stroke-opacity:1"/>
<path class="bond-19 atom-18 atom-20" d="M 768.3,90.8 L 782.5,77.5" style="fill:none;fill-rule:evenodd;stroke:#000000;stroke-width:2.0px;stroke-linecap:butt;stroke-linejoin:miter;stroke-opacity:1"/>
<path class="bond-20 atom-18 atom-21" d="M 768.3,90.8 L 760.9,94.0" style="fill:none;fill-rule:evenodd;stroke:#000000;stroke-width:2.0px;stroke-linecap:butt;stroke-linejoin:miter;stroke-opacity:1"/>
<path class="bond-20 atom-18 atom-21" d="M 760.9,94.0 L 753.5,97.2" style="fill:none;fill-rule:evenodd;stroke:#FF0000;stroke-width:2.0px;stroke-linecap:butt;stroke-linejoin:miter;stroke-opacity:1"/>
<path class="bond-21 atom-21 atom-22" d="M 749.9,102.1 L 749.0,110.0" style="fill:none;fill-rule:evenodd;stroke:#FF0000;stroke-width:2.0px;stroke-linecap:butt;stroke-linejoin:miter;stroke-opacity:1"/>
<path class="bond-21 atom-21 atom-22" d="M 749.0,110.0 L 748.0,117.9" style="fill:none;fill-rule:evenodd;stroke:#000000;stroke-width:2.0px;stroke-linecap:butt;stroke-linejoin:miter;stroke-opacity:1"/>
<path class="bond-22 atom-22 atom-23" d="M 748.0,117.9 L 740.4,121.2" style="fill:none;fill-rule:evenodd;stroke:#000000;stroke-width:2.0px;stroke-linecap:butt;stroke-linejoin:miter;stroke-opacity:1"/>
<path class="bond-22 atom-22 atom-23" d="M 740.4,121.2 L 732.8,124.4" style="fill:none;fill-rule:evenodd;stroke:#0000FF;stroke-width:2.0px;stroke-linecap:butt;stroke-linejoin:miter;stroke-opacity:1"/>
<path class="bond-23 atom-23 atom-24" d="M 727.4,123.6 L 720.9,118.8" style="fill:none;fill-rule:evenodd;stroke:#0000FF;stroke-width:2.0px;stroke-linecap:butt;stroke-linejoin:miter;stroke-opacity:1"/>
<path class="bond-23 atom-23 atom-24" d="M 720.9,118.8 L 714.5,114.0" style="fill:none;fill-rule:evenodd;stroke:#000000;stroke-width:2.0px;stroke-linecap:butt;stroke-linejoin:miter;stroke-opacity:1"/>
<path class="bond-24 atom-24 atom-25" d="M 714.5,114.0 L 696.5,121.7" style="fill:none;fill-rule:evenodd;stroke:#000000;stroke-width:2.0px;stroke-linecap:butt;stroke-linejoin:miter;stroke-opacity:1"/>
<path class="bond-25 atom-25 atom-26" d="M 696.5,121.7 L 680.9,110.0" style="fill:none;fill-rule:evenodd;stroke:#000000;stroke-width:2.0px;stroke-linecap:butt;stroke-linejoin:miter;stroke-opacity:1"/>
<path class="bond-26 atom-26 atom-27" d="M 680.9,110.0 L 673.5,113.2" style="fill:none;fill-rule:evenodd;stroke:#000000;stroke-width:2.0px;stroke-linecap:butt;stroke-linejoin:miter;stroke-opacity:1"/>
<path class="bond-26 atom-26 atom-27" d="M 673.5,113.2 L 666.2,116.3" style="fill:none;fill-rule:evenodd;stroke:#FF0000;stroke-width:2.0px;stroke-linecap:butt;stroke-linejoin:miter;stroke-opacity:1"/>
<path class="bond-27 atom-24 atom-28" d="M 714.5,114.0 L 716.8,94.6" style="fill:none;fill-rule:evenodd;stroke:#000000;stroke-width:2.0px;stroke-linecap:butt;stroke-linejoin:miter;stroke-opacity:1"/>
<path class="bond-28 atom-28 atom-29" d="M 716.8,94.6 L 734.7,86.9" style="fill:none;fill-rule:evenodd;stroke:#000000;stroke-width:2.0px;stroke-linecap:butt;stroke-linejoin:miter;stroke-opacity:1"/>
<path class="bond-28 atom-28 atom-29" d="M 717.2,91.2 L 732.0,84.8" style="fill:none;fill-rule:evenodd;stroke:#000000;stroke-width:2.0px;stroke-linecap:butt;stroke-linejoin:miter;stroke-opacity:1"/>
<path class="bond-29 atom-29 atom-30" d="M 734.7,86.9 L 737.0,67.5" style="fill:none;fill-rule:evenodd;stroke:#000000;stroke-width:2.0px;stroke-linecap:butt;stroke-linejoin:miter;stroke-opacity:1"/>
<path class="bond-30 atom-30 atom-31" d="M 737.0,67.5 L 721.3,55.8" style="fill:none;fill-rule:evenodd;stroke:#000000;stroke-width:2.0px;stroke-linecap:butt;stroke-linejoin:miter;stroke-opacity:1"/>
<path class="bond-30 atom-30 atom-31" d="M 733.9,68.8 L 720.9,59.2" style="fill:none;fill-rule:evenodd;stroke:#000000;stroke-width:2.0px;stroke-linecap:butt;stroke-linejoin:miter;stroke-opacity:1"/>
<path class="bond-31 atom-31 atom-32" d="M 721.3,55.8 L 703.4,63.5" style="fill:none;fill-rule:evenodd;stroke:#000000;stroke-width:2.0px;stroke-linecap:butt;stroke-linejoin:miter;stroke-opacity:1"/>
<path class="bond-32 atom-32 atom-33" d="M 703.4,63.5 L 701.1,82.9" style="fill:none;fill-rule:evenodd;stroke:#000000;stroke-width:2.0px;stroke-linecap:butt;stroke-linejoin:miter;stroke-opacity:1"/>
<path class="bond-32 atom-32 atom-33" d="M 706.1,65.5 L 704.2,81.6" style="fill:none;fill-rule:evenodd;stroke:#000000;stroke-width:2.0px;stroke-linecap:butt;stroke-linejoin:miter;stroke-opacity:1"/>
<path class="bond-33 atom-33 atom-34" d="M 701.1,82.9 L 693.3,86.3" style="fill:none;fill-rule:evenodd;stroke:#000000;stroke-width:2.0px;stroke-linecap:butt;stroke-linejoin:miter;stroke-opacity:1"/>
<path class="bond-33 atom-33 atom-34" d="M 693.3,86.3 L 685.5,89.6" style="fill:none;fill-rule:evenodd;stroke:#33CCCC;stroke-width:2.0px;stroke-linecap:butt;stroke-linejoin:miter;stroke-opacity:1"/>
<path class="bond-34 atom-22 atom-35" d="M 748.0,117.9 L 754.5,122.7" style="fill:none;fill-rule:evenodd;stroke:#000000;stroke-width:2.0px;stroke-linecap:butt;stroke-linejoin:miter;stroke-opacity:1"/>
<path class="bond-34 atom-22 atom-35" d="M 754.5,122.7 L 760.9,127.5" style="fill:none;fill-rule:evenodd;stroke:#0000FF;stroke-width:2.0px;stroke-linecap:butt;stroke-linejoin:miter;stroke-opacity:1"/>
<path class="bond-34 atom-22 atom-35" d="M 751.1,116.6 L 756.9,120.9" style="fill:none;fill-rule:evenodd;stroke:#000000;stroke-width:2.0px;stroke-linecap:butt;stroke-linejoin:miter;stroke-opacity:1"/>
<path class="bond-34 atom-22 atom-35" d="M 756.9,120.9 L 762.7,125.2" style="fill:none;fill-rule:evenodd;stroke:#0000FF;stroke-width:2.0px;stroke-linecap:butt;stroke-linejoin:miter;stroke-opacity:1"/>
<path class="bond-35 atom-35 atom-36" d="M 766.4,128.4 L 772.8,125.7" style="fill:none;fill-rule:evenodd;stroke:#0000FF;stroke-width:2.0px;stroke-linecap:butt;stroke-linejoin:miter;stroke-opacity:1"/>
<path class="bond-35 atom-35 atom-36" d="M 772.8,125.7 L 779.2,122.9" style="fill:none;fill-rule:evenodd;stroke:#CCCC00;stroke-width:2.0px;stroke-linecap:butt;stroke-linejoin:miter;stroke-opacity:1"/>
<path class="bond-36 atom-36 atom-37" d="M 784.1,123.2 L 791.0,122.8" style="fill:none;fill-rule:evenodd;stroke:#CCCC00;stroke-width:2.0px;stroke-linecap:butt;stroke-linejoin:miter;stroke-opacity:1"/>
<path class="bond-36 atom-36 atom-37" d="M 791.0,122.8 L 798.0,122.4" style="fill:none;fill-rule:evenodd;stroke:#FF0000;stroke-width:2.0px;stroke-linecap:butt;stroke-linejoin:miter;stroke-opacity:1"/>
<path class="bond-36 atom-36 atom-37" d="M 783.9,120.3 L 790.9,119.9" style="fill:none;fill-rule:evenodd;stroke:#CCCC00;stroke-width:2.0px;stroke-linecap:butt;stroke-linejoin:miter;stroke-opacity:1"/>
<path class="bond-36 atom-36 atom-37" d="M 790.9,119.9 L 797.8,119.5" style="fill:none;fill-rule:evenodd;stroke:#FF0000;stroke-width:2.0px;stroke-linecap:butt;stroke-linejoin:miter;stroke-opacity:1"/>
<path class="bond-37 atom-36 atom-38" d="M 781.0,125.8 L 782.4,131.8" style="fill:none;fill-rule:evenodd;stroke:#CCCC00;stroke-width:2.0px;stroke-linecap:butt;stroke-linejoin:miter;stroke-opacity:1"/>
<path class="bond-37 atom-36 atom-38" d="M 782.4,131.8 L 783.8,137.8" style="fill:none;fill-rule:evenodd;stroke:#FF0000;stroke-width:2.0px;stroke-linecap:butt;stroke-linejoin:miter;stroke-opacity:1"/>
<path class="bond-37 atom-36 atom-38" d="M 783.9,125.1 L 785.3,131.1" style="fill:none;fill-rule:evenodd;stroke:#CCCC00;stroke-width:2.0px;stroke-linecap:butt;stroke-linejoin:miter;stroke-opacity:1"/>
<path class="bond-37 atom-36 atom-38" d="M 785.3,131.1 L 786.7,137.1" style="fill:none;fill-rule:evenodd;stroke:#FF0000;stroke-width:2.0px;stroke-linecap:butt;stroke-linejoin:miter;stroke-opacity:1"/>
<path class="bond-38 atom-4 atom-1" d="M 784.8,46.6 L 779.1,41.2" style="fill:none;fill-rule:evenodd;stroke:#000000;stroke-width:2.0px;stroke-linecap:butt;stroke-linejoin:miter;stroke-opacity:1"/>
<path class="bond-38 atom-4 atom-1" d="M 779.1,41.2 L 773.3,35.8" style="fill:none;fill-rule:evenodd;stroke:#0000FF;stroke-width:2.0px;stroke-linecap:butt;stroke-linejoin:miter;stroke-opacity:1"/>
<path class="bond-39 atom-16 atom-6" d="M 801.8,94.8 L 802.7,75.3" style="fill:none;fill-rule:evenodd;stroke:#000000;stroke-width:2.0px;stroke-linecap:butt;stroke-linejoin:miter;stroke-opacity:1"/>
<path class="bond-40 atom-36 atom-17" d="M 782.0,118.5 L 782.9,110.5" style="fill:none;fill-rule:evenodd;stroke:#CCCC00;stroke-width:2.0px;stroke-linecap:butt;stroke-linejoin:miter;stroke-opacity:1"/>
<path class="bond-40 atom-36 atom-17" d="M 782.9,110.5 L 783.9,102.5" style="fill:none;fill-rule:evenodd;stroke:#000000;stroke-width:2.0px;stroke-linecap:butt;stroke-linejoin:miter;stroke-opacity:1"/>
<path class="bond-41 atom-15 atom-10" d="M 816.5,107.6 L 835.7,104.1" style="fill:none;fill-rule:evenodd;stroke:#000000;stroke-width:2.0px;stroke-linecap:butt;stroke-linejoin:miter;stroke-opacity:1"/>
<path class="bond-42 atom-33 atom-28" d="M 701.1,82.9 L 716.8,94.6" style="fill:none;fill-rule:evenodd;stroke:#000000;stroke-width:2.0px;stroke-linecap:butt;stroke-linejoin:miter;stroke-opacity:1"/>
<path d="M 785.4,65.1 L 785.4,66.1 L 786.3,66.5" style="fill:none;stroke:#000000;stroke-width:2.0px;stroke-linecap:butt;stroke-linejoin:miter;stroke-opacity:1;"/>
<path d="M 817.6,64.4 L 818.4,63.8 L 819.4,64.1" style="fill:none;stroke:#000000;stroke-width:2.0px;stroke-linecap:butt;stroke-linejoin:miter;stroke-opacity:1;"/>
<path d="M 836.3,68.7 L 837.2,68.9 L 837.6,69.8" style="fill:none;stroke:#000000;stroke-width:2.0px;stroke-linecap:butt;stroke-linejoin:miter;stroke-opacity:1;"/>
<path d="M 844.6,86.0 L 844.9,86.9 L 844.5,87.7" style="fill:none;stroke:#000000;stroke-width:2.0px;stroke-linecap:butt;stroke-linejoin:miter;stroke-opacity:1;"/>
<path d="M 844.6,120.4 L 845.0,121.2 L 844.3,121.9" style="fill:none;stroke:#000000;stroke-width:2.0px;stroke-linecap:butt;stroke-linejoin:miter;stroke-opacity:1;"/>
<path d="M 832.2,134.7 L 831.6,135.4 L 830.7,135.0" style="fill:none;stroke:#000000;stroke-width:2.0px;stroke-linecap:butt;stroke-linejoin:miter;stroke-opacity:1;"/>
<path d="M 697.4,121.3 L 696.5,121.7 L 695.8,121.1" style="fill:none;stroke:#000000;stroke-width:2.0px;stroke-linecap:butt;stroke-linejoin:miter;stroke-opacity:1;"/>
<path d="M 681.7,110.6 L 680.9,110.0 L 680.5,110.2" style="fill:none;stroke:#000000;stroke-width:2.0px;stroke-linecap:butt;stroke-linejoin:miter;stroke-opacity:1;"/>
<path d="M 733.8,87.3 L 734.7,86.9 L 734.8,85.9" style="fill:none;stroke:#000000;stroke-width:2.0px;stroke-linecap:butt;stroke-linejoin:miter;stroke-opacity:1;"/>
<path d="M 736.9,68.5 L 737.0,67.5 L 736.2,66.9" style="fill:none;stroke:#000000;stroke-width:2.0px;stroke-linecap:butt;stroke-linejoin:miter;stroke-opacity:1;"/>
<path d="M 722.1,56.4 L 721.3,55.8 L 720.4,56.2" style="fill:none;stroke:#000000;stroke-width:2.0px;stroke-linecap:butt;stroke-linejoin:miter;stroke-opacity:1;"/>
<path d="M 704.3,63.1 L 703.4,63.5 L 703.3,64.5" style="fill:none;stroke:#000000;stroke-width:2.0px;stroke-linecap:butt;stroke-linejoin:miter;stroke-opacity:1;"/>
<path class="atom-1" d="M 769.4 30.5 L 771.2 33.4 Q 771.4 33.7, 771.6 34.2 Q 771.9 34.7, 771.9 34.8 L 771.9 30.5 L 772.7 30.5 L 772.7 36.0 L 771.9 36.0 L 770.0 32.8 Q 769.8 32.4, 769.5 32.0 Q 769.3 31.6, 769.2 31.4 L 769.2 36.0 L 768.5 36.0 L 768.5 30.5 L 769.4 30.5 " fill="#0000FF"/>
<path class="atom-2" d="M 782.4 20.9 Q 782.4 20.9, 782.7 21.0 Q 783.0 21.1, 783.2 21.2 Q 783.5 21.3, 783.8 21.3 Q 784.3 21.3, 784.6 21.0 Q 784.9 20.8, 784.9 20.3 Q 784.9 20.0, 784.8 19.8 Q 784.6 19.6, 784.4 19.5 Q 784.2 19.4, 783.8 19.3 Q 783.3 19.2, 783.0 19.0 Q 782.7 18.9, 782.5 18.6 Q 782.3 18.3, 782.3 17.8 Q 782.3 17.1, 782.7 16.7 Q 783.2 16.2, 784.2 16.2 Q 784.8 16.2, 785.5 16.5 L 785.3 17.2 Q 784.7 16.9, 784.2 16.9 Q 783.6 16.9, 783.3 17.1 Q 783.1 17.3, 783.1 17.7 Q 783.1 18.0, 783.2 18.2 Q 783.4 18.4, 783.6 18.5 Q 783.8 18.6, 784.2 18.7 Q 784.7 18.8, 785.0 19.0 Q 785.3 19.1, 785.5 19.5 Q 785.7 19.8, 785.7 20.3 Q 785.7 21.1, 785.2 21.5 Q 784.7 21.9, 783.8 21.9 Q 783.3 21.9, 783.0 21.8 Q 782.6 21.7, 782.2 21.5 L 782.4 20.9 " fill="#CCCC00"/>
<path class="atom-3" d="M 796.9 29.6 L 798.8 32.5 Q 798.9 32.8, 799.2 33.3 Q 799.5 33.8, 799.5 33.9 L 799.5 29.6 L 800.3 29.6 L 800.3 35.1 L 799.5 35.1 L 797.6 31.9 Q 797.3 31.5, 797.1 31.1 Q 796.9 30.7, 796.8 30.5 L 796.8 35.1 L 796.1 35.1 L 796.1 29.6 L 796.9 29.6 " fill="#0000FF"/>
<path class="atom-21" d="M 747.8 98.6 Q 747.8 97.2, 748.4 96.5 Q 749.1 95.7, 750.3 95.7 Q 751.5 95.7, 752.2 96.5 Q 752.9 97.2, 752.9 98.6 Q 752.9 99.9, 752.2 100.7 Q 751.5 101.4, 750.3 101.4 Q 749.1 101.4, 748.4 100.7 Q 747.8 99.9, 747.8 98.6 M 750.3 100.8 Q 751.2 100.8, 751.6 100.2 Q 752.1 99.7, 752.1 98.6 Q 752.1 97.5, 751.6 96.9 Q 751.2 96.4, 750.3 96.4 Q 749.5 96.4, 749.0 96.9 Q 748.6 97.5, 748.6 98.6 Q 748.6 99.7, 749.0 100.2 Q 749.5 100.8, 750.3 100.8 " fill="#FF0000"/>
<path class="atom-23" d="M 728.9 122.9 L 730.7 125.8 Q 730.9 126.1, 731.2 126.6 Q 731.5 127.1, 731.5 127.2 L 731.5 122.9 L 732.2 122.9 L 732.2 128.4 L 731.4 128.4 L 729.5 125.2 Q 729.3 124.8, 729.0 124.4 Q 728.8 124.0, 728.7 123.8 L 728.7 128.4 L 728.0 128.4 L 728.0 122.9 L 728.9 122.9 " fill="#0000FF"/>
<path class="atom-23" d="M 727.9 128.9 L 728.7 128.9 L 728.7 131.3 L 731.5 131.3 L 731.5 128.9 L 732.3 128.9 L 732.3 134.5 L 731.5 134.5 L 731.5 131.9 L 728.7 131.9 L 728.7 134.5 L 727.9 134.5 L 727.9 128.9 " fill="#0000FF"/>
<path class="atom-27" d="M 655.0 115.0 L 655.7 115.0 L 655.7 117.3 L 658.6 117.3 L 658.6 115.0 L 659.3 115.0 L 659.3 120.5 L 658.6 120.5 L 658.6 117.9 L 655.7 117.9 L 655.7 120.5 L 655.0 120.5 L 655.0 115.0 " fill="#FF0000"/>
<path class="atom-27" d="M 660.4 117.7 Q 660.4 116.4, 661.1 115.6 Q 661.8 114.9, 663.0 114.9 Q 664.2 114.9, 664.9 115.6 Q 665.5 116.4, 665.5 117.7 Q 665.5 119.1, 664.9 119.8 Q 664.2 120.6, 663.0 120.6 Q 661.8 120.6, 661.1 119.8 Q 660.4 119.1, 660.4 117.7 M 663.0 120.0 Q 663.8 120.0, 664.3 119.4 Q 664.7 118.8, 664.7 117.7 Q 664.7 116.6, 664.3 116.1 Q 663.8 115.5, 663.0 115.5 Q 662.1 115.5, 661.7 116.1 Q 661.2 116.6, 661.2 117.7 Q 661.2 118.8, 661.7 119.4 Q 662.1 120.0, 663.0 120.0 " fill="#FF0000"/>
<path class="atom-34" d="M 681.5 87.9 L 684.8 87.9 L 684.8 88.5 L 682.3 88.5 L 682.3 90.2 L 684.6 90.2 L 684.6 90.8 L 682.3 90.8 L 682.3 93.4 L 681.5 93.4 L 681.5 87.9 " fill="#33CCCC"/>
<path class="atom-35" d="M 762.5 126.8 L 764.3 129.8 Q 764.4 130.0, 764.7 130.6 Q 765.0 131.1, 765.0 131.1 L 765.0 126.8 L 765.8 126.8 L 765.8 132.4 L 765.0 132.4 L 763.1 129.2 Q 762.8 128.8, 762.6 128.3 Q 762.4 127.9, 762.3 127.8 L 762.3 132.4 L 761.6 132.4 L 761.6 126.8 L 762.5 126.8 " fill="#0000FF"/>
<path class="atom-36" d="M 780.0 123.8 Q 780.1 123.8, 780.4 123.9 Q 780.6 124.0, 780.9 124.1 Q 781.2 124.2, 781.5 124.2 Q 782.0 124.2, 782.3 123.9 Q 782.6 123.6, 782.6 123.2 Q 782.6 122.9, 782.4 122.7 Q 782.3 122.5, 782.1 122.4 Q 781.8 122.3, 781.4 122.2 Q 780.9 122.1, 780.7 121.9 Q 780.4 121.8, 780.2 121.5 Q 779.9 121.2, 779.9 120.7 Q 779.9 120.0, 780.4 119.6 Q 780.9 119.1, 781.8 119.1 Q 782.5 119.1, 783.2 119.4 L 783.0 120.0 Q 782.4 119.8, 781.9 119.8 Q 781.3 119.8, 781.0 120.0 Q 780.7 120.2, 780.7 120.6 Q 780.7 120.9, 780.9 121.1 Q 781.0 121.2, 781.3 121.3 Q 781.5 121.4, 781.9 121.6 Q 782.4 121.7, 782.6 121.9 Q 782.9 122.0, 783.2 122.3 Q 783.4 122.7, 783.4 123.2 Q 783.4 124.0, 782.9 124.4 Q 782.4 124.8, 781.5 124.8 Q 781.0 124.8, 780.6 124.7 Q 780.3 124.6, 779.8 124.4 L 780.0 123.8 " fill="#CCCC00"/>
<path class="atom-37" d="M 798.5 120.8 Q 798.5 119.5, 799.2 118.7 Q 799.9 118.0, 801.1 118.0 Q 802.3 118.0, 803.0 118.7 Q 803.6 119.5, 803.6 120.8 Q 803.6 122.1, 803.0 122.9 Q 802.3 123.6, 801.1 123.6 Q 799.9 123.6, 799.2 122.9 Q 798.5 122.1, 798.5 120.8 M 801.1 123.0 Q 801.9 123.0, 802.4 122.5 Q 802.8 121.9, 802.8 120.8 Q 802.8 119.7, 802.4 119.2 Q 801.9 118.6, 801.1 118.6 Q 800.2 118.6, 799.8 119.1 Q 799.3 119.7, 799.3 120.8 Q 799.3 121.9, 799.8 122.5 Q 800.2 123.0, 801.1 123.0 " fill="#FF0000"/>
<path class="atom-38" d="M 783.5 140.9 Q 783.5 139.6, 784.2 138.8 Q 784.9 138.1, 786.1 138.1 Q 787.3 138.1, 788.0 138.8 Q 788.6 139.6, 788.6 140.9 Q 788.6 142.2, 788.0 143.0 Q 787.3 143.8, 786.1 143.8 Q 784.9 143.8, 784.2 143.0 Q 783.5 142.2, 783.5 140.9 M 786.1 143.1 Q 786.9 143.1, 787.4 142.6 Q 787.8 142.0, 787.8 140.9 Q 787.8 139.8, 787.4 139.3 Q 786.9 138.7, 786.1 138.7 Q 785.2 138.7, 784.8 139.3 Q 784.3 139.8, 784.3 140.9 Q 784.3 142.0, 784.8 142.6 Q 785.2 143.1, 786.1 143.1 " fill="#FF0000"/>
<path class="atom-0" d="M 749.1,31.9 L 749.1,31.9 L 749.1,32.0 L 749.1,32.0 L 749.1,32.0 L 749.1,32.1 L 749.1,32.1 L 749.1,32.1 L 749.0,32.2 L 749.0,32.2 L 749.0,32.2 L 749.0,32.2 L 748.9,32.2 L 748.9,32.3 L 748.9,32.3 L 748.8,32.3 L 748.8,32.3 L 748.8,32.3 L 748.7,32.3 L 748.7,32.3 L 748.7,32.3 L 748.6,32.3 L 748.6,32.3 L 748.6,32.3 L 748.6,32.3 L 748.5,32.2 L 748.5,32.2 L 748.5,32.2 L 748.4,32.2 L 748.4,32.1 L 748.4,32.1 L 748.4,32.1 L 748.4,32.1 L 748.4,32.0 L 748.4,32.0 L 748.4,32.0 L 748.3,31.9 L 748.3,31.9 L 748.4,31.9 L 748.4,31.8 L 748.4,31.8 L 748.4,31.8 L 748.4,31.7 L 748.4,31.7 L 748.4,31.7 L 748.4,31.6 L 748.5,31.6 L 748.5,31.6 L 748.5,31.6 L 748.6,31.6 L 748.6,31.6 L 748.6,31.5 L 748.6,31.5 L 748.7,31.5 L 748.7,31.5 L 748.7,31.5 L 748.8,31.5 L 748.8,31.5 L 748.8,31.5 L 748.9,31.5 L 748.9,31.6 L 748.9,31.6 L 749.0,31.6 L 749.0,31.6 L 749.0,31.6 L 749.0,31.7 L 749.1,31.7 L 749.1,31.7 L 749.1,31.7 L 749.1,31.8 L 749.1,31.8 L 749.1,31.8 L 749.1,31.9 L 749.1,31.9 L 748.7,31.9 Z" style="fill:#000000;fill-rule:evenodd;fill-opacity:1;stroke:#000000;stroke-width:0.0px;stroke-linecap:butt;stroke-linejoin:miter;stroke-opacity:1;"/>
<path class="atom-0" d="M 749.1,35.8 L 749.1,35.8 L 749.1,35.9 L 749.1,35.9 L 749.1,35.9 L 749.1,36.0 L 749.1,36.0 L 749.1,36.0 L 749.0,36.1 L 749.0,36.1 L 749.0,36.1 L 749.0,36.1 L 748.9,36.1 L 748.9,36.2 L 748.9,36.2 L 748.8,36.2 L 748.8,36.2 L 748.8,36.2 L 748.7,36.2 L 748.7,36.2 L 748.7,36.2 L 748.6,36.2 L 748.6,36.2 L 748.6,36.2 L 748.6,36.2 L 748.5,36.1 L 748.5,36.1 L 748.5,36.1 L 748.4,36.1 L 748.4,36.0 L 748.4,36.0 L 748.4,36.0 L 748.4,36.0 L 748.4,35.9 L 748.4,35.9 L 748.4,35.9 L 748.3,35.8 L 748.3,35.8 L 748.4,35.8 L 748.4,35.7 L 748.4,35.7 L 748.4,35.7 L 748.4,35.6 L 748.4,35.6 L 748.4,35.6 L 748.4,35.6 L 748.5,35.5 L 748.5,35.5 L 748.5,35.5 L 748.6,35.5 L 748.6,35.5 L 748.6,35.4 L 748.6,35.4 L 748.7,35.4 L 748.7,35.4 L 748.7,35.4 L 748.8,35.4 L 748.8,35.4 L 748.8,35.4 L 748.9,35.4 L 748.9,35.5 L 748.9,35.5 L 749.0,35.5 L 749.0,35.5 L 749.0,35.5 L 749.0,35.6 L 749.1,35.6 L 749.1,35.6 L 749.1,35.6 L 749.1,35.7 L 749.1,35.7 L 749.1,35.7 L 749.1,35.8 L 749.1,35.8 L 748.7,35.8 Z" style="fill:#000000;fill-rule:evenodd;fill-opacity:1;stroke:#000000;stroke-width:0.0px;stroke-linecap:butt;stroke-linejoin:miter;stroke-opacity:1;"/>
<path class="atom-0" d="M 749.1,33.9 L 749.1,33.9 L 749.1,33.9 L 749.1,34.0 L 749.1,34.0 L 749.1,34.0 L 749.1,34.1 L 749.1,34.1 L 749.0,34.1 L 749.0,34.1 L 749.0,34.2 L 749.0,34.2 L 748.9,34.2 L 748.9,34.2 L 748.9,34.2 L 748.8,34.2 L 748.8,34.2 L 748.8,34.2 L 748.7,34.3 L 748.7,34.3 L 748.7,34.2 L 748.6,34.2 L 748.6,34.2 L 748.6,34.2 L 748.6,34.2 L 748.5,34.2 L 748.5,34.2 L 748.5,34.1 L 748.4,34.1 L 748.4,34.1 L 748.4,34.1 L 748.4,34.0 L 748.4,34.0 L 748.4,34.0 L 748.4,33.9 L 748.4,33.9 L 748.3,33.9 L 748.3,33.8 L 748.4,33.8 L 748.4,33.8 L 748.4,33.7 L 748.4,33.7 L 748.4,33.7 L 748.4,33.7 L 748.4,33.6 L 748.4,33.6 L 748.5,33.6 L 748.5,33.6 L 748.5,33.5 L 748.6,33.5 L 748.6,33.5 L 748.6,33.5 L 748.6,33.5 L 748.7,33.5 L 748.7,33.5 L 748.7,33.5 L 748.8,33.5 L 748.8,33.5 L 748.8,33.5 L 748.9,33.5 L 748.9,33.5 L 748.9,33.5 L 749.0,33.5 L 749.0,33.6 L 749.0,33.6 L 749.0,33.6 L 749.1,33.6 L 749.1,33.7 L 749.1,33.7 L 749.1,33.7 L 749.1,33.8 L 749.1,33.8 L 749.1,33.8 L 749.1,33.9 L 748.7,33.9 Z" style="fill:#000000;fill-rule:evenodd;fill-opacity:1;stroke:#000000;stroke-width:0.0px;stroke-linecap:butt;stroke-linejoin:miter;stroke-opacity:1;"/>
</svg>