<svg xmlns="http://www.w3.org/2000/svg" xmlns:rdkit="http://www.rdkit.org/xml" xmlns:xlink="http://www.w3.org/1999/xlink" version="1.1" baseProfile="full" xml:space="preserve" width="900px" height="160px" viewBox="0 0 900 160">
<!-- END OF HEADER -->
<rect style="opacity:1.0;fill:#FFFFFF;stroke:none" width="900.0" height="160.0" x="0.0" y="0.0"> </rect>
<path class="bond-0 atom-0 atom-1" d="M 162.2,13.7 L 167.3,29.0" style="fill:none;fill-rule:evenodd;stroke:#000000;stroke-width:2.0px;stroke-linecap:butt;stroke-linejoin:miter;stroke-opacity:1"/>
<path class="bond-1 atom-1 atom-2" d="M 167.1,36.2 L 163.0,40.8" style="fill:none;fill-rule:evenodd;stroke:#000000;stroke-width:2.0px;stroke-linecap:butt;stroke-linejoin:miter;stroke-opacity:1"/>
<path class="bond-1 atom-1 atom-2" d="M 163.0,40.8 L 158.9,45.5" style="fill:none;fill-rule:evenodd;stroke:#FF7F00;stroke-width:2.0px;stroke-linecap:butt;stroke-linejoin:miter;stroke-opacity:1"/>
<path class="bond-1 atom-1 atom-2" d="M 164.9,34.2 L 160.8,38.9" style="fill:none;fill-rule:evenodd;stroke:#000000;stroke-width:2.0px;stroke-linecap:butt;stroke-linejoin:miter;stroke-opacity:1"/>
<path class="bond-1 atom-1 atom-2" d="M 160.8,38.9 L 156.7,43.5" style="fill:none;fill-rule:evenodd;stroke:#FF7F00;stroke-width:2.0px;stroke-linecap:butt;stroke-linejoin:miter;stroke-opacity:1"/>
<path class="bond-2 atom-2 atom-3" d="M 156.5,50.7 L 158.5,56.6" style="fill:none;fill-rule:evenodd;stroke:#FF7F00;stroke-width:2.0px;stroke-linecap:butt;stroke-linejoin:miter;stroke-opacity:1"/>
<path class="bond-2 atom-2 atom-3" d="M 158.5,56.6 L 160.5,62.5" style="fill:none;fill-rule:evenodd;stroke:#CCCC00;stroke-width:2.0px;stroke-linecap:butt;stroke-linejoin:miter;stroke-opacity:1"/>
<path class="bond-2 atom-2 atom-3" d="M 159.3,49.7 L 161.3,55.7" style="fill:none;fill-rule:evenodd;stroke:#FF7F00;stroke-width:2.0px;stroke-linecap:butt;stroke-linejoin:miter;stroke-opacity:1"/>
<path class="bond-2 atom-2 atom-3" d="M 161.3,55.7 L 163.3,61.6" style="fill:none;fill-rule:evenodd;stroke:#CCCC00;stroke-width:2.0px;stroke-linecap:butt;stroke-linejoin:miter;stroke-opacity:1"/>
<path class="bond-2 atom-2 atom-3" d="M 153.7,51.6 L 155.7,57.6" style="fill:none;fill-rule:evenodd;stroke:#FF7F00;stroke-width:2.0px;stroke-linecap:butt;stroke-linejoin:miter;stroke-opacity:1"/>
<path class="bond-2 atom-2 atom-3" d="M 155.7,57.6 L 157.7,63.5" style="fill:none;fill-rule:evenodd;stroke:#CCCC00;stroke-width:2.0px;stroke-linecap:butt;stroke-linejoin:miter;stroke-opacity:1"/>
<path class="bond-3 atom-3 atom-4" d="M 159.2,68.7 L 153.8,74.8" style="fill:none;fill-rule:evenodd;stroke:#CCCC00;stroke-width:2.0px;stroke-linecap:butt;stroke-linejoin:miter;stroke-opacity:1"/>
<path class="bond-3 atom-3 atom-4" d="M 153.8,74.8 L 148.5,80.8" style="fill:none;fill-rule:evenodd;stroke:#000000;stroke-width:2.0px;stroke-linecap:butt;stroke-linejoin:miter;stroke-opacity:1"/>
<path class="bond-4 atom-4 atom-5" d="M 148.5,80.8 L 128.8,78.9" style="fill:none;fill-rule:evenodd;stroke:#000000;stroke-width:2.0px;stroke-linecap:butt;stroke-linejoin:miter;stroke-opacity:1"/>
<path class="bond-4 atom-4 atom-5" d="M 146.1,83.5 L 130.7,82.0" style="fill:none;fill-rule:evenodd;stroke:#000000;stroke-width:2.0px;stroke-linecap:butt;stroke-linejoin:miter;stroke-opacity:1"/>
<path class="bond-5 atom-5 atom-6" d="M 128.8,78.9 L 125.7,86.2" style="fill:none;fill-rule:evenodd;stroke:#000000;stroke-width:2.0px;stroke-linecap:butt;stroke-linejoin:miter;stroke-opacity:1"/>
<path class="bond-5 atom-5 atom-6" d="M 125.7,86.2 L 122.5,93.5" style="fill:none;fill-rule:evenodd;stroke:#0000FF;stroke-width:2.0px;stroke-linecap:butt;stroke-linejoin:miter;stroke-opacity:1"/>
<path class="bond-6 atom-6 atom-7" d="M 118.2,97.6 L 109.9,99.4" style="fill:none;fill-rule:evenodd;stroke:#0000FF;stroke-width:2.0px;stroke-linecap:butt;stroke-linejoin:miter;stroke-opacity:1"/>
<path class="bond-6 atom-6 atom-7" d="M 109.9,99.4 L 101.7,101.2" style="fill:none;fill-rule:evenodd;stroke:#000000;stroke-width:2.0px;stroke-linecap:butt;stroke-linejoin:miter;stroke-opacity:1"/>
<path class="bond-7 atom-7 atom-8" d="M 101.7,101.2 L 107.9,120.0" style="fill:none;fill-rule:evenodd;stroke:#000000;stroke-width:2.0px;stroke-linecap:butt;stroke-linejoin:miter;stroke-opacity:1"/>
<path class="bond-8 atom-8 atom-9" d="M 107.9,120.0 L 94.8,134.8" style="fill:none;fill-rule:evenodd;stroke:#000000;stroke-width:2.0px;stroke-linecap:butt;stroke-linejoin:miter;stroke-opacity:1"/>
<path class="bond-9 atom-9 atom-10" d="M 94.8,134.8 L 89.7,140.6" style="fill:none;fill-rule:evenodd;stroke:#000000;stroke-width:2.0px;stroke-linecap:butt;stroke-linejoin:miter;stroke-opacity:1"/>
<path class="bond-9 atom-9 atom-10" d="M 89.7,140.6 L 84.5,146.4" style="fill:none;fill-rule:evenodd;stroke:#0000FF;stroke-width:2.0px;stroke-linecap:butt;stroke-linejoin:miter;stroke-opacity:1"/>
<path class="bond-9 atom-9 atom-10" d="M 97.0,136.7 L 91.9,142.6" style="fill:none;fill-rule:evenodd;stroke:#000000;stroke-width:2.0px;stroke-linecap:butt;stroke-linejoin:miter;stroke-opacity:1"/>
<path class="bond-9 atom-9 atom-10" d="M 91.9,142.6 L 86.7,148.4" style="fill:none;fill-rule:evenodd;stroke:#0000FF;stroke-width:2.0px;stroke-linecap:butt;stroke-linejoin:miter;stroke-opacity:1"/>
<path class="bond-9 atom-9 atom-10" d="M 92.6,132.8 L 87.4,138.6" style="fill:none;fill-rule:evenodd;stroke:#000000;stroke-width:2.0px;stroke-linecap:butt;stroke-linejoin:miter;stroke-opacity:1"/>
<path class="bond-9 atom-9 atom-10" d="M 87.4,138.6 L 82.3,144.5" style="fill:none;fill-rule:evenodd;stroke:#0000FF;stroke-width:2.0px;stroke-linecap:butt;stroke-linejoin:miter;stroke-opacity:1"/>
<path class="bond-10 atom-7 atom-11" d="M 101.7,101.2 L 83.7,109.4" style="fill:none;fill-rule:evenodd;stroke:#000000;stroke-width:2.0px;stroke-linecap:butt;stroke-linejoin:miter;stroke-opacity:1"/>
<path class="bond-11 atom-11 atom-12" d="M 83.7,109.4 L 70.3,94.9" style="fill:none;fill-rule:evenodd;stroke:#000000;stroke-width:2.0px;stroke-linecap:butt;stroke-linejoin:miter;stroke-opacity:1"/>
<path class="bond-12 atom-12 atom-13" d="M 70.3,94.9 L 74.2,88.0" style="fill:none;fill-rule:evenodd;stroke:#000000;stroke-width:2.0px;stroke-linecap:butt;stroke-linejoin:miter;stroke-opacity:1"/>
<path class="bond-12 atom-12 atom-13" d="M 74.2,88.0 L 78.1,81.1" style="fill:none;fill-rule:evenodd;stroke:#0000FF;stroke-width:2.0px;stroke-linecap:butt;stroke-linejoin:miter;stroke-opacity:1"/>
<path class="bond-13 atom-13 atom-14" d="M 78.5,74.2 L 75.2,66.9" style="fill:none;fill-rule:evenodd;stroke:#0000FF;stroke-width:2.0px;stroke-linecap:butt;stroke-linejoin:miter;stroke-opacity:1"/>
<path class="bond-13 atom-13 atom-14" d="M 75.2,66.9 L 71.9,59.7" style="fill:none;fill-rule:evenodd;stroke:#000000;stroke-width:2.0px;stroke-linecap:butt;stroke-linejoin:miter;stroke-opacity:1"/>
<path class="bond-14 atom-14 atom-15" d="M 72.9,58.3 L 64.2,57.5" style="fill:none;fill-rule:evenodd;stroke:#000000;stroke-width:2.0px;stroke-linecap:butt;stroke-linejoin:miter;stroke-opacity:1"/>
<path class="bond-14 atom-14 atom-15" d="M 64.2,57.5 L 55.6,56.6" style="fill:none;fill-rule:evenodd;stroke:#FF0000;stroke-width:2.0px;stroke-linecap:butt;stroke-linejoin:miter;stroke-opacity:1"/>
<path class="bond-14 atom-14 atom-15" d="M 72.6,61.2 L 64.0,60.4" style="fill:none;fill-rule:evenodd;stroke:#000000;stroke-width:2.0px;stroke-linecap:butt;stroke-linejoin:miter;stroke-opacity:1"/>
<path class="bond-14 atom-14 atom-15" d="M 64.0,60.4 L 55.3,59.6" style="fill:none;fill-rule:evenodd;stroke:#FF0000;stroke-width:2.0px;stroke-linecap:butt;stroke-linejoin:miter;stroke-opacity:1"/>
<path class="bond-15 atom-14 atom-16" d="M 71.9,59.7 L 76.4,53.4" style="fill:none;fill-rule:evenodd;stroke:#000000;stroke-width:2.0px;stroke-linecap:butt;stroke-linejoin:miter;stroke-opacity:1"/>
<path class="bond-15 atom-14 atom-16" d="M 76.4,53.4 L 80.8,47.2" style="fill:none;fill-rule:evenodd;stroke:#FF0000;stroke-width:2.0px;stroke-linecap:butt;stroke-linejoin:miter;stroke-opacity:1"/>
<path class="bond-16 atom-16 atom-17" d="M 81.8,40.1 L 78.5,32.9" style="fill:none;fill-rule:evenodd;stroke:#FF0000;stroke-width:2.0px;stroke-linecap:butt;stroke-linejoin:miter;stroke-opacity:1"/>
<path class="bond-16 atom-16 atom-17" d="M 78.5,32.9 L 75.2,25.6" style="fill:none;fill-rule:evenodd;stroke:#000000;stroke-width:2.0px;stroke-linecap:butt;stroke-linejoin:miter;stroke-opacity:1"/>
<path class="bond-17 atom-17 atom-18" d="M 75.2,25.6 L 93.2,17.4" style="fill:none;fill-rule:evenodd;stroke:#000000;stroke-width:2.0px;stroke-linecap:butt;stroke-linejoin:miter;stroke-opacity:1"/>
<path class="bond-18 atom-17 atom-19" d="M 75.2,25.6 L 57.2,33.8" style="fill:none;fill-rule:evenodd;stroke:#000000;stroke-width:2.0px;stroke-linecap:butt;stroke-linejoin:miter;stroke-opacity:1"/>
<path class="bond-19 atom-17 atom-20" d="M 75.2,25.6 L 67.0,7.6" style="fill:none;fill-rule:evenodd;stroke:#000000;stroke-width:2.0px;stroke-linecap:butt;stroke-linejoin:miter;stroke-opacity:1"/>
<path class="bond-20 atom-13 atom-21" d="M 82.9,78.2 L 91.1,79.9" style="fill:none;fill-rule:evenodd;stroke:#0000FF;stroke-width:2.0px;stroke-linecap:butt;stroke-linejoin:miter;stroke-opacity:1"/>
<path class="bond-20 atom-13 atom-21" d="M 91.1,79.9 L 99.4,81.6" style="fill:none;fill-rule:evenodd;stroke:#000000;stroke-width:2.0px;stroke-linecap:butt;stroke-linejoin:miter;stroke-opacity:1"/>
<path class="bond-21 atom-6 atom-22" d="M 123.7,99.4 L 133.0,107.6" style="fill:none;fill-rule:evenodd;stroke:#0000FF;stroke-width:2.0px;stroke-linecap:butt;stroke-linejoin:miter;stroke-opacity:1"/>
<path class="bond-22 atom-22 atom-23" d="M 138.5,108.4 L 145.7,104.3" style="fill:none;fill-rule:evenodd;stroke:#0000FF;stroke-width:2.0px;stroke-linecap:butt;stroke-linejoin:miter;stroke-opacity:1"/>
<path class="bond-22 atom-22 atom-23" d="M 145.7,104.3 L 152.8,100.1" style="fill:none;fill-rule:evenodd;stroke:#000000;stroke-width:2.0px;stroke-linecap:butt;stroke-linejoin:miter;stroke-opacity:1"/>
<path class="bond-22 atom-22 atom-23" d="M 137.0,105.9 L 143.2,102.2" style="fill:none;fill-rule:evenodd;stroke:#0000FF;stroke-width:2.0px;stroke-linecap:butt;stroke-linejoin:miter;stroke-opacity:1"/>
<path class="bond-22 atom-22 atom-23" d="M 143.2,102.2 L 149.4,98.6" style="fill:none;fill-rule:evenodd;stroke:#000000;stroke-width:2.0px;stroke-linecap:butt;stroke-linejoin:miter;stroke-opacity:1"/>
<path class="bond-23 atom-23 atom-24" d="M 152.8,100.1 L 160.5,103.4" style="fill:none;fill-rule:evenodd;stroke:#000000;stroke-width:2.0px;stroke-linecap:butt;stroke-linejoin:miter;stroke-opacity:1"/>
<path class="bond-23 atom-23 atom-24" d="M 160.5,103.4 L 168.1,106.7" style="fill:none;fill-rule:evenodd;stroke:#0000FF;stroke-width:2.0px;stroke-linecap:butt;stroke-linejoin:miter;stroke-opacity:1"/>
<path class="bond-24 atom-24 atom-25" d="M 173.7,105.9 L 180.2,101.0" style="fill:none;fill-rule:evenodd;stroke:#0000FF;stroke-width:2.0px;stroke-linecap:butt;stroke-linejoin:miter;stroke-opacity:1"/>
<path class="bond-24 atom-24 atom-25" d="M 180.2,101.0 L 186.8,96.2" style="fill:none;fill-rule:evenodd;stroke:#000000;stroke-width:2.0px;stroke-linecap:butt;stroke-linejoin:miter;stroke-opacity:1"/>
<path class="bond-25 atom-25 atom-26" d="M 186.8,96.2 L 204.9,104.1" style="fill:none;fill-rule:evenodd;stroke:#000000;stroke-width:2.0px;stroke-linecap:butt;stroke-linejoin:miter;stroke-opacity:1"/>
<path class="bond-25 atom-25 atom-26" d="M 189.5,94.2 L 204.5,100.7" style="fill:none;fill-rule:evenodd;stroke:#000000;stroke-width:2.0px;stroke-linecap:butt;stroke-linejoin:miter;stroke-opacity:1"/>
<path class="bond-26 atom-26 atom-27" d="M 204.9,104.1 L 220.8,92.3" style="fill:none;fill-rule:evenodd;stroke:#000000;stroke-width:2.0px;stroke-linecap:butt;stroke-linejoin:miter;stroke-opacity:1"/>
<path class="bond-27 atom-27 atom-28" d="M 220.8,92.3 L 218.6,72.7" style="fill:none;fill-rule:evenodd;stroke:#000000;stroke-width:2.0px;stroke-linecap:butt;stroke-linejoin:miter;stroke-opacity:1"/>
<path class="bond-27 atom-27 atom-28" d="M 217.7,91.0 L 215.8,74.7" style="fill:none;fill-rule:evenodd;stroke:#000000;stroke-width:2.0px;stroke-linecap:butt;stroke-linejoin:miter;stroke-opacity:1"/>
<path class="bond-28 atom-28 atom-29" d="M 218.6,72.7 L 225.3,67.7" style="fill:none;fill-rule:evenodd;stroke:#000000;stroke-width:2.0px;stroke-linecap:butt;stroke-linejoin:miter;stroke-opacity:1"/>
<path class="bond-28 atom-28 atom-29" d="M 225.3,67.7 L 232.0,62.8" style="fill:none;fill-rule:evenodd;stroke:#CCCC00;stroke-width:2.0px;stroke-linecap:butt;stroke-linejoin:miter;stroke-opacity:1"/>
<path class="bond-29 atom-29 atom-30" d="M 236.9,59.2 L 243.6,54.2" style="fill:none;fill-rule:evenodd;stroke:#CCCC00;stroke-width:2.0px;stroke-linecap:butt;stroke-linejoin:miter;stroke-opacity:1"/>
<path class="bond-29 atom-29 atom-30" d="M 243.6,54.2 L 250.3,49.2" style="fill:none;fill-rule:evenodd;stroke:#000000;stroke-width:2.0px;stroke-linecap:butt;stroke-linejoin:miter;stroke-opacity:1"/>
<path class="bond-30 atom-29 atom-31" d="M 233.2,56.8 L 229.9,52.3" style="fill:none;fill-rule:evenodd;stroke:#CCCC00;stroke-width:2.0px;stroke-linecap:butt;stroke-linejoin:miter;stroke-opacity:1"/>
<path class="bond-30 atom-29 atom-31" d="M 229.9,52.3 L 226.5,47.8" style="fill:none;fill-rule:evenodd;stroke:#FF0000;stroke-width:2.0px;stroke-linecap:butt;stroke-linejoin:miter;stroke-opacity:1"/>
<path class="bond-30 atom-29 atom-31" d="M 230.8,58.5 L 227.5,54.0" style="fill:none;fill-rule:evenodd;stroke:#CCCC00;stroke-width:2.0px;stroke-linecap:butt;stroke-linejoin:miter;stroke-opacity:1"/>
<path class="bond-30 atom-29 atom-31" d="M 227.5,54.0 L 224.2,49.5" style="fill:none;fill-rule:evenodd;stroke:#FF0000;stroke-width:2.0px;stroke-linecap:butt;stroke-linejoin:miter;stroke-opacity:1"/>
<path class="bond-31 atom-29 atom-32" d="M 235.7,65.2 L 239.1,69.7" style="fill:none;fill-rule:evenodd;stroke:#CCCC00;stroke-width:2.0px;stroke-linecap:butt;stroke-linejoin:miter;stroke-opacity:1"/>
<path class="bond-31 atom-29 atom-32" d="M 239.1,69.7 L 242.4,74.3" style="fill:none;fill-rule:evenodd;stroke:#FF0000;stroke-width:2.0px;stroke-linecap:butt;stroke-linejoin:miter;stroke-opacity:1"/>
<path class="bond-31 atom-29 atom-32" d="M 238.1,63.4 L 241.4,67.9" style="fill:none;fill-rule:evenodd;stroke:#CCCC00;stroke-width:2.0px;stroke-linecap:butt;stroke-linejoin:miter;stroke-opacity:1"/>
<path class="bond-31 atom-29 atom-32" d="M 241.4,67.9 L 244.8,72.5" style="fill:none;fill-rule:evenodd;stroke:#FF0000;stroke-width:2.0px;stroke-linecap:butt;stroke-linejoin:miter;stroke-opacity:1"/>
<path class="bond-32 atom-28 atom-33" d="M 218.6,72.7 L 200.4,64.8" style="fill:none;fill-rule:evenodd;stroke:#000000;stroke-width:2.0px;stroke-linecap:butt;stroke-linejoin:miter;stroke-opacity:1"/>
<path class="bond-33 atom-33 atom-34" d="M 200.4,64.8 L 184.6,76.6" style="fill:none;fill-rule:evenodd;stroke:#000000;stroke-width:2.0px;stroke-linecap:butt;stroke-linejoin:miter;stroke-opacity:1"/>
<path class="bond-33 atom-33 atom-34" d="M 200.8,68.2 L 187.7,77.9" style="fill:none;fill-rule:evenodd;stroke:#000000;stroke-width:2.0px;stroke-linecap:butt;stroke-linejoin:miter;stroke-opacity:1"/>
<path class="bond-34 atom-23 atom-4" d="M 152.8,100.1 L 148.5,80.8" style="fill:none;fill-rule:evenodd;stroke:#000000;stroke-width:2.0px;stroke-linecap:butt;stroke-linejoin:miter;stroke-opacity:1"/>
<path class="bond-35 atom-34 atom-25" d="M 184.6,76.6 L 186.8,96.2" style="fill:none;fill-rule:evenodd;stroke:#000000;stroke-width:2.0px;stroke-linecap:butt;stroke-linejoin:miter;stroke-opacity:1"/>
<path class="bond-36 atom-21 atom-7" d="M 99.4,81.6 L 101.7,101.2" style="fill:none;fill-rule:evenodd;stroke:#000000;stroke-width:2.0px;stroke-linecap:butt;stroke-linejoin:miter;stroke-opacity:1"/>
<path d="M 129.8,79.0 L 128.8,78.9 L 128.7,79.2" style="fill:none;stroke:#000000;stroke-width:2.0px;stroke-linecap:butt;stroke-linejoin:miter;stroke-opacity:1;"/>
<path d="M 107.6,119.0 L 107.9,120.0 L 107.3,120.7" style="fill:none;stroke:#000000;stroke-width:2.0px;stroke-linecap:butt;stroke-linejoin:miter;stroke-opacity:1;"/>
<path d="M 95.5,134.0 L 94.8,134.8 L 94.6,135.1" style="fill:none;stroke:#000000;stroke-width:2.0px;stroke-linecap:butt;stroke-linejoin:miter;stroke-opacity:1;"/>
<path d="M 84.6,109.0 L 83.7,109.4 L 83.0,108.7" style="fill:none;stroke:#000000;stroke-width:2.0px;stroke-linecap:butt;stroke-linejoin:miter;stroke-opacity:1;"/>
<path d="M 71.0,95.6 L 70.3,94.9 L 70.5,94.5" style="fill:none;stroke:#000000;stroke-width:2.0px;stroke-linecap:butt;stroke-linejoin:miter;stroke-opacity:1;"/>
<path d="M 72.1,60.0 L 71.9,59.7 L 72.1,59.4" style="fill:none;stroke:#000000;stroke-width:2.0px;stroke-linecap:butt;stroke-linejoin:miter;stroke-opacity:1;"/>
<path d="M 99.0,81.5 L 99.4,81.6 L 99.6,82.6" style="fill:none;stroke:#000000;stroke-width:2.0px;stroke-linecap:butt;stroke-linejoin:miter;stroke-opacity:1;"/>
<path d="M 204.0,103.7 L 204.9,104.1 L 205.7,103.5" style="fill:none;stroke:#000000;stroke-width:2.0px;stroke-linecap:butt;stroke-linejoin:miter;stroke-opacity:1;"/>
<path d="M 220.0,92.9 L 220.8,92.3 L 220.7,91.4" style="fill:none;stroke:#000000;stroke-width:2.0px;stroke-linecap:butt;stroke-linejoin:miter;stroke-opacity:1;"/>
<path d="M 201.4,65.2 L 200.4,64.8 L 199.7,65.4" style="fill:none;stroke:#000000;stroke-width:2.0px;stroke-linecap:butt;stroke-linejoin:miter;stroke-opacity:1;"/>
<path d="M 185.4,76.0 L 184.6,76.6 L 184.7,77.6" style="fill:none;stroke:#000000;stroke-width:2.0px;stroke-linecap:butt;stroke-linejoin:miter;stroke-opacity:1;"/>
<path class="atom-1" d="M 166.9 34.4 Q 166.9 34.4, 167.2 34.5 Q 167.5 34.6, 167.7 34.7 Q 168.0 34.8, 168.3 34.8 Q 168.8 34.8, 169.2 34.5 Q 169.5 34.2, 169.5 33.8 Q 169.5 33.5, 169.3 33.3 Q 169.2 33.1, 168.9 33.0 Q 168.7 32.9, 168.3 32.8 Q 167.8 32.6, 167.5 32.5 Q 167.2 32.3, 167.0 32.0 Q 166.8 31.7, 166.8 31.2 Q 166.8 30.5, 167.3 30.1 Q 167.7 29.7, 168.7 29.7 Q 169.3 29.7, 170.1 30.0 L 169.9 30.6 Q 169.2 30.3, 168.7 30.3 Q 168.2 30.3, 167.9 30.5 Q 167.6 30.8, 167.6 31.1 Q 167.6 31.4, 167.7 31.6 Q 167.9 31.8, 168.1 31.9 Q 168.3 32.0, 168.7 32.1 Q 169.2 32.3, 169.5 32.4 Q 169.8 32.6, 170.0 32.9 Q 170.2 33.2, 170.2 33.8 Q 170.2 34.6, 169.7 35.0 Q 169.2 35.4, 168.3 35.4 Q 167.9 35.4, 167.5 35.3 Q 167.1 35.2, 166.7 35.0 L 166.9 34.4 " fill="#000000"/>
<path class="atom-1" d="M 170.9 29.6 L 171.7 29.6 L 171.7 30.3 L 170.9 30.3 L 170.9 29.6 M 170.9 31.2 L 171.7 31.2 L 171.7 35.2 L 170.9 35.2 L 170.9 31.2 " fill="#000000"/>
<path class="atom-1" d="M 172.6 29.6 L 173.4 29.6 L 173.4 32.0 L 176.3 32.0 L 176.3 29.6 L 177.0 29.6 L 177.0 35.2 L 176.3 35.2 L 176.3 32.7 L 173.4 32.7 L 173.4 35.2 L 172.6 35.2 L 172.6 29.6 " fill="#000000"/>
<path class="atom-1" d="M 179.8 36.1 Q 180.1 36.2, 180.3 36.4 Q 180.5 36.7, 180.5 37.0 Q 180.5 37.3, 180.3 37.6 Q 180.2 37.8, 179.9 38.0 Q 179.6 38.1, 179.2 38.1 Q 178.8 38.1, 178.5 38.0 Q 178.2 37.8, 178.0 37.5 L 178.3 37.2 Q 178.5 37.5, 178.7 37.6 Q 178.9 37.7, 179.2 37.7 Q 179.6 37.7, 179.8 37.5 Q 180.0 37.3, 180.0 37.0 Q 180.0 36.6, 179.8 36.5 Q 179.5 36.3, 179.1 36.3 L 178.8 36.3 L 178.8 35.9 L 179.1 35.9 Q 179.5 35.9, 179.7 35.8 Q 179.9 35.6, 179.9 35.2 Q 179.9 35.0, 179.7 34.9 Q 179.5 34.7, 179.2 34.7 Q 178.9 34.7, 178.7 34.8 Q 178.5 34.9, 178.4 35.2 L 178.0 35.0 Q 178.2 34.7, 178.5 34.5 Q 178.8 34.3, 179.2 34.3 Q 179.8 34.3, 180.1 34.6 Q 180.4 34.8, 180.4 35.2 Q 180.4 35.5, 180.3 35.8 Q 180.1 36.0, 179.8 36.1 " fill="#000000"/>
<path class="atom-2" d="M 144.9 44.4 L 145.7 44.4 L 145.7 46.8 L 148.6 46.8 L 148.6 44.4 L 149.3 44.4 L 149.3 50.0 L 148.6 50.0 L 148.6 47.4 L 145.7 47.4 L 145.7 50.0 L 144.9 50.0 L 144.9 44.4 " fill="#FF7F00"/>
<path class="atom-2" d="M 150.4 49.8 Q 150.5 49.5, 150.8 49.3 Q 151.2 49.1, 151.6 49.1 Q 152.2 49.1, 152.5 49.4 Q 152.8 49.7, 152.8 50.2 Q 152.8 50.8, 152.4 51.3 Q 152.0 51.8, 151.2 52.4 L 152.9 52.4 L 152.9 52.8 L 150.4 52.8 L 150.4 52.5 Q 151.1 52.0, 151.5 51.6 Q 151.9 51.3, 152.1 50.9 Q 152.3 50.6, 152.3 50.3 Q 152.3 49.9, 152.1 49.7 Q 151.9 49.5, 151.6 49.5 Q 151.3 49.5, 151.1 49.6 Q 150.9 49.8, 150.8 50.0 L 150.4 49.8 " fill="#FF7F00"/>
<path class="atom-2" d="M 155.2 44.4 Q 156.2 44.4, 156.7 44.9 Q 157.1 45.3, 157.1 46.1 Q 157.1 46.9, 156.6 47.3 Q 156.2 47.7, 155.2 47.7 L 154.3 47.7 L 154.3 50.0 L 153.6 50.0 L 153.6 44.4 L 155.2 44.4 M 155.2 47.1 Q 155.8 47.1, 156.1 46.8 Q 156.3 46.6, 156.3 46.1 Q 156.3 45.6, 156.1 45.3 Q 155.8 45.1, 155.2 45.1 L 154.3 45.1 L 154.3 47.1 L 155.2 47.1 " fill="#FF7F00"/>
<path class="atom-3" d="M 160.0 67.9 Q 160.1 67.9, 160.4 68.0 Q 160.6 68.1, 160.9 68.2 Q 161.2 68.3, 161.5 68.3 Q 162.0 68.3, 162.3 68.0 Q 162.6 67.8, 162.6 67.3 Q 162.6 67.0, 162.5 66.8 Q 162.3 66.6, 162.1 66.5 Q 161.8 66.4, 161.4 66.3 Q 160.9 66.2, 160.6 66.0 Q 160.4 65.9, 160.1 65.6 Q 159.9 65.3, 159.9 64.8 Q 159.9 64.1, 160.4 63.6 Q 160.9 63.2, 161.8 63.2 Q 162.5 63.2, 163.2 63.5 L 163.0 64.1 Q 162.4 63.8, 161.9 63.8 Q 161.3 63.8, 161.0 64.1 Q 160.7 64.3, 160.7 64.7 Q 160.7 65.0, 160.9 65.2 Q 161.0 65.3, 161.3 65.4 Q 161.5 65.5, 161.9 65.7 Q 162.4 65.8, 162.7 66.0 Q 163.0 66.1, 163.2 66.5 Q 163.4 66.8, 163.4 67.3 Q 163.4 68.1, 162.9 68.5 Q 162.4 68.9, 161.5 68.9 Q 161.0 68.9, 160.6 68.8 Q 160.3 68.7, 159.8 68.5 L 160.0 67.9 " fill="#CCCC00"/>
<path class="atom-3" d="M 164.2 63.2 L 164.9 63.2 L 164.9 65.6 L 167.8 65.6 L 167.8 63.2 L 168.6 63.2 L 168.6 68.8 L 167.8 68.8 L 167.8 66.2 L 164.9 66.2 L 164.9 68.8 L 164.2 68.8 L 164.2 63.2 " fill="#CCCC00"/>
<path class="atom-6" d="M 119.7 94.2 L 121.6 97.1 Q 121.7 97.4, 122.0 98.0 Q 122.3 98.5, 122.3 98.5 L 122.3 94.2 L 123.1 94.2 L 123.1 99.8 L 122.3 99.8 L 120.3 96.5 Q 120.1 96.2, 119.9 95.7 Q 119.6 95.3, 119.6 95.2 L 119.6 99.8 L 118.8 99.8 L 118.8 94.2 L 119.7 94.2 " fill="#0000FF"/>
<path class="atom-10" d="M 80.5 146.8 L 82.3 149.7 Q 82.5 150.0, 82.8 150.6 Q 83.1 151.1, 83.1 151.1 L 83.1 146.8 L 83.9 146.8 L 83.9 152.4 L 83.1 152.4 L 81.1 149.1 Q 80.9 148.7, 80.6 148.3 Q 80.4 147.9, 80.3 147.7 L 80.3 152.4 L 79.6 152.4 L 79.6 146.8 L 80.5 146.8 " fill="#0000FF"/>
<path class="atom-13" d="M 78.8 74.9 L 80.7 77.8 Q 80.9 78.1, 81.2 78.7 Q 81.4 79.2, 81.5 79.2 L 81.5 74.9 L 82.2 74.9 L 82.2 80.5 L 81.4 80.5 L 79.5 77.2 Q 79.2 76.8, 79.0 76.4 Q 78.8 76.0, 78.7 75.8 L 78.7 80.5 L 78.0 80.5 L 78.0 74.9 L 78.8 74.9 " fill="#0000FF"/>
<path class="atom-15" d="M 49.7 57.8 Q 49.7 56.4, 50.3 55.7 Q 51.0 54.9, 52.2 54.9 Q 53.5 54.9, 54.1 55.7 Q 54.8 56.4, 54.8 57.8 Q 54.8 59.2, 54.1 59.9 Q 53.5 60.7, 52.2 60.7 Q 51.0 60.7, 50.3 59.9 Q 49.7 59.2, 49.7 57.8 M 52.2 60.1 Q 53.1 60.1, 53.5 59.5 Q 54.0 58.9, 54.0 57.8 Q 54.0 56.7, 53.5 56.1 Q 53.1 55.6, 52.2 55.6 Q 51.4 55.6, 50.9 56.1 Q 50.5 56.7, 50.5 57.8 Q 50.5 58.9, 50.9 59.5 Q 51.4 60.1, 52.2 60.1 " fill="#FF0000"/>
<path class="atom-16" d="M 80.8 43.6 Q 80.8 42.3, 81.5 41.5 Q 82.1 40.8, 83.4 40.8 Q 84.6 40.8, 85.3 41.5 Q 85.9 42.3, 85.9 43.6 Q 85.9 45.0, 85.3 45.8 Q 84.6 46.5, 83.4 46.5 Q 82.1 46.5, 81.5 45.8 Q 80.8 45.0, 80.8 43.6 M 83.4 45.9 Q 84.2 45.9, 84.7 45.3 Q 85.2 44.7, 85.2 43.6 Q 85.2 42.5, 84.7 42.0 Q 84.2 41.4, 83.4 41.4 Q 82.5 41.4, 82.1 42.0 Q 81.6 42.5, 81.6 43.6 Q 81.6 44.7, 82.1 45.3 Q 82.5 45.9, 83.4 45.9 " fill="#FF0000"/>
<path class="atom-22" d="M 134.5 107.3 L 136.3 110.2 Q 136.5 110.5, 136.8 111.1 Q 137.1 111.6, 137.1 111.6 L 137.1 107.3 L 137.9 107.3 L 137.9 112.9 L 137.1 112.9 L 135.1 109.6 Q 134.9 109.3, 134.7 108.8 Q 134.4 108.4, 134.4 108.3 L 134.4 112.9 L 133.6 112.9 L 133.6 107.3 L 134.5 107.3 " fill="#0000FF"/>
<path class="atom-24" d="M 169.7 105.1 L 171.5 108.1 Q 171.7 108.4, 172.0 108.9 Q 172.3 109.5, 172.3 109.5 L 172.3 105.1 L 173.0 105.1 L 173.0 110.7 L 172.3 110.7 L 170.3 107.5 Q 170.1 107.1, 169.8 106.7 Q 169.6 106.3, 169.5 106.1 L 169.5 110.7 L 168.8 110.7 L 168.8 105.1 L 169.7 105.1 " fill="#0000FF"/>
<path class="atom-24" d="M 168.7 111.3 L 169.5 111.3 L 169.5 113.7 L 172.3 113.7 L 172.3 111.3 L 173.1 111.3 L 173.1 116.9 L 172.3 116.9 L 172.3 114.3 L 169.5 114.3 L 169.5 116.9 L 168.7 116.9 L 168.7 111.3 " fill="#0000FF"/>
<path class="atom-29" d="M 232.9 62.9 Q 232.9 62.9, 233.2 63.0 Q 233.5 63.1, 233.7 63.2 Q 234.0 63.3, 234.3 63.3 Q 234.8 63.3, 235.2 63.0 Q 235.5 62.8, 235.5 62.3 Q 235.5 62.0, 235.3 61.8 Q 235.2 61.6, 234.9 61.5 Q 234.7 61.4, 234.3 61.3 Q 233.8 61.1, 233.5 61.0 Q 233.2 60.9, 233.0 60.6 Q 232.8 60.3, 232.8 59.8 Q 232.8 59.0, 233.2 58.6 Q 233.7 58.2, 234.7 58.2 Q 235.3 58.2, 236.1 58.5 L 235.9 59.1 Q 235.2 58.8, 234.7 58.8 Q 234.2 58.8, 233.9 59.0 Q 233.6 59.3, 233.6 59.7 Q 233.6 60.0, 233.7 60.1 Q 233.9 60.3, 234.1 60.4 Q 234.3 60.5, 234.7 60.6 Q 235.2 60.8, 235.5 61.0 Q 235.8 61.1, 236.0 61.4 Q 236.2 61.8, 236.2 62.3 Q 236.2 63.1, 235.7 63.5 Q 235.2 63.9, 234.3 63.9 Q 233.8 63.9, 233.5 63.8 Q 233.1 63.7, 232.7 63.5 L 232.9 62.9 " fill="#CCCC00"/>
<path class="atom-31" d="M 220.1 45.1 Q 220.1 43.8, 220.8 43.0 Q 221.5 42.2, 222.7 42.2 Q 223.9 42.2, 224.6 43.0 Q 225.3 43.8, 225.3 45.1 Q 225.3 46.5, 224.6 47.2 Q 223.9 48.0, 222.7 48.0 Q 221.5 48.0, 220.8 47.2 Q 220.1 46.5, 220.1 45.1 M 222.7 47.4 Q 223.6 47.4, 224.0 46.8 Q 224.5 46.2, 224.5 45.1 Q 224.5 44.0, 224.0 43.4 Q 223.6 42.9, 222.7 42.9 Q 221.9 42.9, 221.4 43.4 Q 220.9 44.0, 220.9 45.1 Q 220.9 46.2, 221.4 46.8 Q 221.9 47.4, 222.7 47.4 " fill="#FF0000"/>
<path class="atom-32" d="M 243.6 76.9 Q 243.6 75.5, 244.3 74.8 Q 245.0 74.0, 246.2 74.0 Q 247.4 74.0, 248.1 74.8 Q 248.8 75.5, 248.8 76.9 Q 248.8 78.2, 248.1 79.0 Q 247.4 79.8, 246.2 79.8 Q 245.0 79.8, 244.3 79.0 Q 243.6 78.2, 243.6 76.9 M 246.2 79.1 Q 247.0 79.1, 247.5 78.6 Q 248.0 78.0, 248.0 76.9 Q 248.0 75.8, 247.5 75.2 Q 247.0 74.7, 246.2 74.7 Q 245.3 74.7, 244.9 75.2 Q 244.4 75.8, 244.4 76.9 Q 244.4 78.0, 244.9 78.6 Q 245.3 79.1, 246.2 79.1 " fill="#FF0000"/>
<path class="atom-0" d="M 165.0,11.7 L 165.0,11.8 L 165.0,11.8 L 164.9,11.8 L 164.9,11.9 L 164.9,11.9 L 164.9,11.9 L 164.9,12.0 L 164.9,12.0 L 164.8,12.0 L 164.8,12.0 L 164.8,12.0 L 164.8,12.1 L 164.7,12.1 L 164.7,12.1 L 164.7,12.1 L 164.6,12.1 L 164.6,12.1 L 164.6,12.1 L 164.5,12.1 L 164.5,12.1 L 164.5,12.1 L 164.4,12.1 L 164.4,12.1 L 164.4,12.1 L 164.3,12.1 L 164.3,12.0 L 164.3,12.0 L 164.3,12.0 L 164.2,12.0 L 164.2,11.9 L 164.2,11.9 L 164.2,11.9 L 164.2,11.8 L 164.2,11.8 L 164.2,11.8 L 164.2,11.7 L 164.2,11.7 L 164.2,11.7 L 164.2,11.6 L 164.2,11.6 L 164.2,11.6 L 164.2,11.5 L 164.2,11.5 L 164.2,11.5 L 164.3,11.5 L 164.3,11.4 L 164.3,11.4 L 164.3,11.4 L 164.4,11.4 L 164.4,11.4 L 164.4,11.4 L 164.5,11.3 L 164.5,11.3 L 164.5,11.3 L 164.6,11.3 L 164.6,11.3 L 164.6,11.3 L 164.7,11.3 L 164.7,11.4 L 164.7,11.4 L 164.8,11.4 L 164.8,11.4 L 164.8,11.4 L 164.8,11.5 L 164.9,11.5 L 164.9,11.5 L 164.9,11.5 L 164.9,11.6 L 164.9,11.6 L 164.9,11.6 L 165.0,11.7 L 165.0,11.7 L 165.0,11.7 L 164.6,11.7 Z" style="fill:#000000;fill-rule:evenodd;fill-opacity:1;stroke:#000000;stroke-width:0.0px;stroke-linecap:butt;stroke-linejoin:miter;stroke-opacity:1;"/>
<path class="atom-0" d="M 165.0,15.7 L 165.0,15.7 L 165.0,15.7 L 164.9,15.8 L 164.9,15.8 L 164.9,15.8 L 164.9,15.9 L 164.9,15.9 L 164.9,15.9 L 164.8,16.0 L 164.8,16.0 L 164.8,16.0 L 164.8,16.0 L 164.7,16.0 L 164.7,16.0 L 164.7,16.1 L 164.6,16.1 L 164.6,16.1 L 164.6,16.1 L 164.5,16.1 L 164.5,16.1 L 164.5,16.1 L 164.4,16.1 L 164.4,16.0 L 164.4,16.0 L 164.3,16.0 L 164.3,16.0 L 164.3,16.0 L 164.3,15.9 L 164.2,15.9 L 164.2,15.9 L 164.2,15.9 L 164.2,15.8 L 164.2,15.8 L 164.2,15.8 L 164.2,15.7 L 164.2,15.7 L 164.2,15.7 L 164.2,15.6 L 164.2,15.6 L 164.2,15.6 L 164.2,15.5 L 164.2,15.5 L 164.2,15.5 L 164.2,15.4 L 164.3,15.4 L 164.3,15.4 L 164.3,15.4 L 164.3,15.3 L 164.4,15.3 L 164.4,15.3 L 164.4,15.3 L 164.5,15.3 L 164.5,15.3 L 164.5,15.3 L 164.6,15.3 L 164.6,15.3 L 164.6,15.3 L 164.7,15.3 L 164.7,15.3 L 164.7,15.3 L 164.8,15.3 L 164.8,15.4 L 164.8,15.4 L 164.8,15.4 L 164.9,15.4 L 164.9,15.5 L 164.9,15.5 L 164.9,15.5 L 164.9,15.5 L 164.9,15.6 L 165.0,15.6 L 165.0,15.6 L 165.0,15.7 L 164.6,15.7 Z" style="fill:#000000;fill-rule:evenodd;fill-opacity:1;stroke:#000000;stroke-width:0.0px;stroke-linecap:butt;stroke-linejoin:miter;stroke-opacity:1;"/>
<path class="atom-0" d="M 165.0,13.7 L 165.0,13.7 L 165.0,13.8 L 164.9,13.8 L 164.9,13.8 L 164.9,13.9 L 164.9,13.9 L 164.9,13.9 L 164.9,14.0 L 164.8,14.0 L 164.8,14.0 L 164.8,14.0 L 164.8,14.0 L 164.7,14.1 L 164.7,14.1 L 164.7,14.1 L 164.6,14.1 L 164.6,14.1 L 164.6,14.1 L 164.5,14.1 L 164.5,14.1 L 164.5,14.1 L 164.4,14.1 L 164.4,14.1 L 164.4,14.1 L 164.3,14.0 L 164.3,14.0 L 164.3,14.0 L 164.3,14.0 L 164.2,13.9 L 164.2,13.9 L 164.2,13.9 L 164.2,13.9 L 164.2,13.8 L 164.2,13.8 L 164.2,13.8 L 164.2,13.7 L 164.2,13.7 L 164.2,13.7 L 164.2,13.6 L 164.2,13.6 L 164.2,13.6 L 164.2,13.5 L 164.2,13.5 L 164.2,13.5 L 164.3,13.4 L 164.3,13.4 L 164.3,13.4 L 164.3,13.4 L 164.4,13.4 L 164.4,13.3 L 164.4,13.3 L 164.5,13.3 L 164.5,13.3 L 164.5,13.3 L 164.6,13.3 L 164.6,13.3 L 164.6,13.3 L 164.7,13.3 L 164.7,13.3 L 164.7,13.3 L 164.8,13.4 L 164.8,13.4 L 164.8,13.4 L 164.8,13.4 L 164.9,13.5 L 164.9,13.5 L 164.9,13.5 L 164.9,13.5 L 164.9,13.6 L 164.9,13.6 L 165.0,13.6 L 165.0,13.7 L 165.0,13.7 L 164.6,13.7 Z" style="fill:#000000;fill-rule:evenodd;fill-opacity:1;stroke:#000000;stroke-width:0.0px;stroke-linecap:butt;stroke-linejoin:miter;stroke-opacity:1;"/>
<path class="atom-3" d="M 170.1,66.0 L 170.1,66.0 L 170.1,66.0 L 170.1,66.1 L 170.1,66.1 L 170.1,66.1 L 170.1,66.2 L 170.1,66.2 L 170.0,66.2 L 170.0,66.3 L 170.0,66.3 L 170.0,66.3 L 169.9,66.3 L 169.9,66.3 L 169.9,66.3 L 169.8,66.4 L 169.8,66.4 L 169.8,66.4 L 169.7,66.4 L 169.7,66.4 L 169.7,66.4 L 169.6,66.4 L 169.6,66.3 L 169.6,66.3 L 169.6,66.3 L 169.5,66.3 L 169.5,66.3 L 169.5,66.3 L 169.4,66.2 L 169.4,66.2 L 169.4,66.2 L 169.4,66.2 L 169.4,66.1 L 169.4,66.1 L 169.4,66.1 L 169.3,66.0 L 169.3,66.0 L 169.3,66.0 L 169.3,65.9 L 169.4,65.9 L 169.4,65.9 L 169.4,65.8 L 169.4,65.8 L 169.4,65.8 L 169.4,65.7 L 169.4,65.7 L 169.5,65.7 L 169.5,65.7 L 169.5,65.6 L 169.6,65.6 L 169.6,65.6 L 169.6,65.6 L 169.6,65.6 L 169.7,65.6 L 169.7,65.6 L 169.7,65.6 L 169.8,65.6 L 169.8,65.6 L 169.8,65.6 L 169.9,65.6 L 169.9,65.6 L 169.9,65.6 L 170.0,65.7 L 170.0,65.7 L 170.0,65.7 L 170.0,65.7 L 170.1,65.8 L 170.1,65.8 L 170.1,65.8 L 170.1,65.8 L 170.1,65.9 L 170.1,65.9 L 170.1,65.9 L 170.1,66.0 L 169.7,66.0 Z" style="fill:#000000;fill-rule:evenodd;fill-opacity:1;stroke:#000000;stroke-width:0.0px;stroke-linecap:butt;stroke-linejoin:miter;stroke-opacity:1;"/>
<path class="bond-0 atom-0 atom-1" d="M 512.9,139.3 L 493.3,142.0" style="fill:none;fill-rule:evenodd;stroke:#000000;stroke-width:2.0px;stroke-linecap:butt;stroke-linejoin:miter;stroke-opacity:1"/>
<path class="bond-1 atom-1 atom-2" d="M 493.3,142.0 L 488.6,136.0" style="fill:none;fill-rule:evenodd;stroke:#000000;stroke-width:2.0px;stroke-linecap:butt;stroke-linejoin:miter;stroke-opacity:1"/>
<path class="bond-1 atom-1 atom-2" d="M 488.6,136.0 L 483.9,129.9" style="fill:none;fill-rule:evenodd;stroke:#CCCC00;stroke-width:2.0px;stroke-linecap:butt;stroke-linejoin:miter;stroke-opacity:1"/>
<path class="bond-2 atom-2 atom-3" d="M 479.0,128.3 L 471.6,129.3" style="fill:none;fill-rule:evenodd;stroke:#CCCC00;stroke-width:2.0px;stroke-linecap:butt;stroke-linejoin:miter;stroke-opacity:1"/>
<path class="bond-2 atom-2 atom-3" d="M 471.6,129.3 L 464.3,130.3" style="fill:none;fill-rule:evenodd;stroke:#FF7F00;stroke-width:2.0px;stroke-linecap:butt;stroke-linejoin:miter;stroke-opacity:1"/>
<path class="bond-2 atom-2 atom-3" d="M 479.0,128.3 L 471.6,129.3" style="fill:none;fill-rule:evenodd;stroke:#CCCC00;stroke-width:2.0px;stroke-linecap:butt;stroke-linejoin:miter;stroke-opacity:1"/>
<path class="bond-2 atom-2 atom-3" d="M 471.6,129.3 L 464.3,130.3" style="fill:none;fill-rule:evenodd;stroke:#FF7F00;stroke-width:2.0px;stroke-linecap:butt;stroke-linejoin:miter;stroke-opacity:1"/>
<path class="bond-3 atom-3 atom-4" d="M 458.8,136.1 L 457.2,140.1" style="fill:none;fill-rule:evenodd;stroke:#FF7F00;stroke-width:2.0px;stroke-linecap:butt;stroke-linejoin:miter;stroke-opacity:1"/>
<path class="bond-3 atom-3 atom-4" d="M 457.2,140.1 L 455.6,144.0" style="fill:none;fill-rule:evenodd;stroke:#FF0000;stroke-width:2.0px;stroke-linecap:butt;stroke-linejoin:miter;stroke-opacity:1"/>
<path class="bond-4 atom-3 atom-5" d="M 459.2,126.0 L 454.3,119.8" style="fill:none;fill-rule:evenodd;stroke:#FF7F00;stroke-width:2.0px;stroke-linecap:butt;stroke-linejoin:miter;stroke-opacity:1"/>
<path class="bond-4 atom-3 atom-5" d="M 454.3,119.8 L 449.5,113.6" style="fill:none;fill-rule:evenodd;stroke:#000000;stroke-width:2.0px;stroke-linecap:butt;stroke-linejoin:miter;stroke-opacity:1"/>
<path class="bond-5 atom-5 atom-6" d="M 449.5,113.6 L 429.9,116.3" style="fill:none;fill-rule:evenodd;stroke:#000000;stroke-width:2.0px;stroke-linecap:butt;stroke-linejoin:miter;stroke-opacity:1"/>
<path class="bond-5 atom-5 atom-6" d="M 447.4,110.9 L 431.2,113.1" style="fill:none;fill-rule:evenodd;stroke:#000000;stroke-width:2.0px;stroke-linecap:butt;stroke-linejoin:miter;stroke-opacity:1"/>
<path class="bond-6 atom-6 atom-7" d="M 429.9,116.3 L 425.2,110.2" style="fill:none;fill-rule:evenodd;stroke:#000000;stroke-width:2.0px;stroke-linecap:butt;stroke-linejoin:miter;stroke-opacity:1"/>
<path class="bond-6 atom-6 atom-7" d="M 425.2,110.2 L 420.5,104.1" style="fill:none;fill-rule:evenodd;stroke:#0000FF;stroke-width:2.0px;stroke-linecap:butt;stroke-linejoin:miter;stroke-opacity:1"/>
<path class="bond-7 atom-7 atom-8" d="M 415.0,101.0 L 406.6,102.2" style="fill:none;fill-rule:evenodd;stroke:#0000FF;stroke-width:2.0px;stroke-linecap:butt;stroke-linejoin:miter;stroke-opacity:1"/>
<path class="bond-7 atom-7 atom-8" d="M 406.6,102.2 L 398.2,103.4" style="fill:none;fill-rule:evenodd;stroke:#000000;stroke-width:2.0px;stroke-linecap:butt;stroke-linejoin:miter;stroke-opacity:1"/>
<path class="bond-8 atom-8 atom-9" d="M 398.2,103.4 L 403.0,122.5" style="fill:none;fill-rule:evenodd;stroke:#000000;stroke-width:2.0px;stroke-linecap:butt;stroke-linejoin:miter;stroke-opacity:1"/>
<path class="bond-9 atom-9 atom-10" d="M 403.0,122.5 L 388.7,136.2" style="fill:none;fill-rule:evenodd;stroke:#000000;stroke-width:2.0px;stroke-linecap:butt;stroke-linejoin:miter;stroke-opacity:1"/>
<path class="bond-10 atom-10 atom-11" d="M 388.7,136.2 L 383.0,141.8" style="fill:none;fill-rule:evenodd;stroke:#000000;stroke-width:2.0px;stroke-linecap:butt;stroke-linejoin:miter;stroke-opacity:1"/>
<path class="bond-10 atom-10 atom-11" d="M 383.0,141.8 L 377.2,147.3" style="fill:none;fill-rule:evenodd;stroke:#0000FF;stroke-width:2.0px;stroke-linecap:butt;stroke-linejoin:miter;stroke-opacity:1"/>
<path class="bond-10 atom-10 atom-11" d="M 390.8,138.4 L 385.0,143.9" style="fill:none;fill-rule:evenodd;stroke:#000000;stroke-width:2.0px;stroke-linecap:butt;stroke-linejoin:miter;stroke-opacity:1"/>
<path class="bond-10 atom-10 atom-11" d="M 385.0,143.9 L 379.3,149.4" style="fill:none;fill-rule:evenodd;stroke:#0000FF;stroke-width:2.0px;stroke-linecap:butt;stroke-linejoin:miter;stroke-opacity:1"/>
<path class="bond-10 atom-10 atom-11" d="M 386.7,134.1 L 380.9,139.6" style="fill:none;fill-rule:evenodd;stroke:#000000;stroke-width:2.0px;stroke-linecap:butt;stroke-linejoin:miter;stroke-opacity:1"/>
<path class="bond-10 atom-10 atom-11" d="M 380.9,139.6 L 375.2,145.1" style="fill:none;fill-rule:evenodd;stroke:#0000FF;stroke-width:2.0px;stroke-linecap:butt;stroke-linejoin:miter;stroke-opacity:1"/>
<path class="bond-11 atom-8 atom-12" d="M 398.2,103.4 L 379.6,110.1" style="fill:none;fill-rule:evenodd;stroke:#000000;stroke-width:2.0px;stroke-linecap:butt;stroke-linejoin:miter;stroke-opacity:1"/>
<path class="bond-12 atom-12 atom-13" d="M 379.6,110.1 L 367.5,94.5" style="fill:none;fill-rule:evenodd;stroke:#000000;stroke-width:2.0px;stroke-linecap:butt;stroke-linejoin:miter;stroke-opacity:1"/>
<path class="bond-13 atom-13 atom-14" d="M 367.5,94.5 L 371.9,88.0" style="fill:none;fill-rule:evenodd;stroke:#000000;stroke-width:2.0px;stroke-linecap:butt;stroke-linejoin:miter;stroke-opacity:1"/>
<path class="bond-13 atom-13 atom-14" d="M 371.9,88.0 L 376.3,81.6" style="fill:none;fill-rule:evenodd;stroke:#0000FF;stroke-width:2.0px;stroke-linecap:butt;stroke-linejoin:miter;stroke-opacity:1"/>
<path class="bond-14 atom-14 atom-15" d="M 377.4,74.7 L 374.6,67.1" style="fill:none;fill-rule:evenodd;stroke:#0000FF;stroke-width:2.0px;stroke-linecap:butt;stroke-linejoin:miter;stroke-opacity:1"/>
<path class="bond-14 atom-14 atom-15" d="M 374.6,67.1 L 371.9,59.5" style="fill:none;fill-rule:evenodd;stroke:#000000;stroke-width:2.0px;stroke-linecap:butt;stroke-linejoin:miter;stroke-opacity:1"/>
<path class="bond-15 atom-15 atom-16" d="M 373.0,58.2 L 364.5,56.7" style="fill:none;fill-rule:evenodd;stroke:#000000;stroke-width:2.0px;stroke-linecap:butt;stroke-linejoin:miter;stroke-opacity:1"/>
<path class="bond-15 atom-15 atom-16" d="M 364.5,56.7 L 355.9,55.2" style="fill:none;fill-rule:evenodd;stroke:#FF0000;stroke-width:2.0px;stroke-linecap:butt;stroke-linejoin:miter;stroke-opacity:1"/>
<path class="bond-15 atom-15 atom-16" d="M 372.5,61.2 L 363.9,59.6" style="fill:none;fill-rule:evenodd;stroke:#000000;stroke-width:2.0px;stroke-linecap:butt;stroke-linejoin:miter;stroke-opacity:1"/>
<path class="bond-15 atom-15 atom-16" d="M 363.9,59.6 L 355.4,58.1" style="fill:none;fill-rule:evenodd;stroke:#FF0000;stroke-width:2.0px;stroke-linecap:butt;stroke-linejoin:miter;stroke-opacity:1"/>
<path class="bond-16 atom-15 atom-17" d="M 371.9,59.5 L 376.8,53.8" style="fill:none;fill-rule:evenodd;stroke:#000000;stroke-width:2.0px;stroke-linecap:butt;stroke-linejoin:miter;stroke-opacity:1"/>
<path class="bond-16 atom-15 atom-17" d="M 376.8,53.8 L 381.6,48.0" style="fill:none;fill-rule:evenodd;stroke:#FF0000;stroke-width:2.0px;stroke-linecap:butt;stroke-linejoin:miter;stroke-opacity:1"/>
<path class="bond-17 atom-17 atom-18" d="M 383.4,41.0 L 380.6,33.4" style="fill:none;fill-rule:evenodd;stroke:#FF0000;stroke-width:2.0px;stroke-linecap:butt;stroke-linejoin:miter;stroke-opacity:1"/>
<path class="bond-17 atom-17 atom-18" d="M 380.6,33.4 L 377.9,25.9" style="fill:none;fill-rule:evenodd;stroke:#000000;stroke-width:2.0px;stroke-linecap:butt;stroke-linejoin:miter;stroke-opacity:1"/>
<path class="bond-18 atom-18 atom-19" d="M 377.9,25.9 L 396.5,19.1" style="fill:none;fill-rule:evenodd;stroke:#000000;stroke-width:2.0px;stroke-linecap:butt;stroke-linejoin:miter;stroke-opacity:1"/>
<path class="bond-19 atom-18 atom-20" d="M 377.9,25.9 L 359.3,32.6" style="fill:none;fill-rule:evenodd;stroke:#000000;stroke-width:2.0px;stroke-linecap:butt;stroke-linejoin:miter;stroke-opacity:1"/>
<path class="bond-20 atom-18 atom-21" d="M 377.9,25.9 L 371.2,7.3" style="fill:none;fill-rule:evenodd;stroke:#000000;stroke-width:2.0px;stroke-linecap:butt;stroke-linejoin:miter;stroke-opacity:1"/>
<path class="bond-21 atom-14 atom-22" d="M 381.4,78.9 L 389.5,81.3" style="fill:none;fill-rule:evenodd;stroke:#0000FF;stroke-width:2.0px;stroke-linecap:butt;stroke-linejoin:miter;stroke-opacity:1"/>
<path class="bond-21 atom-14 atom-22" d="M 389.5,81.3 L 397.6,83.6" style="fill:none;fill-rule:evenodd;stroke:#000000;stroke-width:2.0px;stroke-linecap:butt;stroke-linejoin:miter;stroke-opacity:1"/>
<path class="bond-22 atom-7 atom-23" d="M 419.2,97.2 L 423.8,85.8" style="fill:none;fill-rule:evenodd;stroke:#0000FF;stroke-width:2.0px;stroke-linecap:butt;stroke-linejoin:miter;stroke-opacity:1"/>
<path class="bond-23 atom-23 atom-24" d="M 428.0,82.0 L 436.4,80.8" style="fill:none;fill-rule:evenodd;stroke:#0000FF;stroke-width:2.0px;stroke-linecap:butt;stroke-linejoin:miter;stroke-opacity:1"/>
<path class="bond-23 atom-23 atom-24" d="M 436.4,80.8 L 444.8,79.7" style="fill:none;fill-rule:evenodd;stroke:#000000;stroke-width:2.0px;stroke-linecap:butt;stroke-linejoin:miter;stroke-opacity:1"/>
<path class="bond-23 atom-23 atom-24" d="M 428.4,84.9 L 436.0,83.9" style="fill:none;fill-rule:evenodd;stroke:#0000FF;stroke-width:2.0px;stroke-linecap:butt;stroke-linejoin:miter;stroke-opacity:1"/>
<path class="bond-23 atom-23 atom-24" d="M 436.0,83.9 L 443.5,82.8" style="fill:none;fill-rule:evenodd;stroke:#000000;stroke-width:2.0px;stroke-linecap:butt;stroke-linejoin:miter;stroke-opacity:1"/>
<path class="bond-24 atom-24 atom-25" d="M 444.8,79.7 L 447.8,72.2" style="fill:none;fill-rule:evenodd;stroke:#000000;stroke-width:2.0px;stroke-linecap:butt;stroke-linejoin:miter;stroke-opacity:1"/>
<path class="bond-24 atom-24 atom-25" d="M 447.8,72.2 L 450.9,64.8" style="fill:none;fill-rule:evenodd;stroke:#0000FF;stroke-width:2.0px;stroke-linecap:butt;stroke-linejoin:miter;stroke-opacity:1"/>
<path class="bond-25 atom-25 atom-26" d="M 455.0,61.0 L 463.4,59.8" style="fill:none;fill-rule:evenodd;stroke:#0000FF;stroke-width:2.0px;stroke-linecap:butt;stroke-linejoin:miter;stroke-opacity:1"/>
<path class="bond-25 atom-25 atom-26" d="M 463.4,59.8 L 471.8,58.7" style="fill:none;fill-rule:evenodd;stroke:#000000;stroke-width:2.0px;stroke-linecap:butt;stroke-linejoin:miter;stroke-opacity:1"/>
<path class="bond-26 atom-26 atom-27" d="M 471.8,58.7 L 484.0,74.2" style="fill:none;fill-rule:evenodd;stroke:#000000;stroke-width:2.0px;stroke-linecap:butt;stroke-linejoin:miter;stroke-opacity:1"/>
<path class="bond-26 atom-26 atom-27" d="M 475.2,58.2 L 485.3,71.1" style="fill:none;fill-rule:evenodd;stroke:#000000;stroke-width:2.0px;stroke-linecap:butt;stroke-linejoin:miter;stroke-opacity:1"/>
<path class="bond-27 atom-27 atom-28" d="M 484.0,74.2 L 503.5,71.5" style="fill:none;fill-rule:evenodd;stroke:#000000;stroke-width:2.0px;stroke-linecap:butt;stroke-linejoin:miter;stroke-opacity:1"/>
<path class="bond-28 atom-28 atom-29" d="M 503.5,71.5 L 511.0,53.2" style="fill:none;fill-rule:evenodd;stroke:#000000;stroke-width:2.0px;stroke-linecap:butt;stroke-linejoin:miter;stroke-opacity:1"/>
<path class="bond-28 atom-28 atom-29" d="M 501.4,68.8 L 507.6,53.7" style="fill:none;fill-rule:evenodd;stroke:#000000;stroke-width:2.0px;stroke-linecap:butt;stroke-linejoin:miter;stroke-opacity:1"/>
<path class="bond-29 atom-29 atom-30" d="M 511.0,53.2 L 519.5,52.1" style="fill:none;fill-rule:evenodd;stroke:#000000;stroke-width:2.0px;stroke-linecap:butt;stroke-linejoin:miter;stroke-opacity:1"/>
<path class="bond-29 atom-29 atom-30" d="M 519.5,52.1 L 528.1,50.9" style="fill:none;fill-rule:evenodd;stroke:#CCCC00;stroke-width:2.0px;stroke-linecap:butt;stroke-linejoin:miter;stroke-opacity:1"/>
<path class="bond-30 atom-30 atom-31" d="M 533.0,50.2 L 541.6,49.0" style="fill:none;fill-rule:evenodd;stroke:#CCCC00;stroke-width:2.0px;stroke-linecap:butt;stroke-linejoin:miter;stroke-opacity:1"/>
<path class="bond-30 atom-30 atom-31" d="M 541.6,49.0 L 550.1,47.8" style="fill:none;fill-rule:evenodd;stroke:#000000;stroke-width:2.0px;stroke-linecap:butt;stroke-linejoin:miter;stroke-opacity:1"/>
<path class="bond-31 atom-30 atom-32" d="M 531.5,46.9 L 530.7,40.6" style="fill:none;fill-rule:evenodd;stroke:#CCCC00;stroke-width:2.0px;stroke-linecap:butt;stroke-linejoin:miter;stroke-opacity:1"/>
<path class="bond-31 atom-30 atom-32" d="M 530.7,40.6 L 529.8,34.3" style="fill:none;fill-rule:evenodd;stroke:#FF0000;stroke-width:2.0px;stroke-linecap:butt;stroke-linejoin:miter;stroke-opacity:1"/>
<path class="bond-31 atom-30 atom-32" d="M 528.6,47.3 L 527.7,41.0" style="fill:none;fill-rule:evenodd;stroke:#CCCC00;stroke-width:2.0px;stroke-linecap:butt;stroke-linejoin:miter;stroke-opacity:1"/>
<path class="bond-31 atom-30 atom-32" d="M 527.7,41.0 L 526.9,34.7" style="fill:none;fill-rule:evenodd;stroke:#FF0000;stroke-width:2.0px;stroke-linecap:butt;stroke-linejoin:miter;stroke-opacity:1"/>
<path class="bond-32 atom-30 atom-33" d="M 529.6,54.3 L 530.4,60.6" style="fill:none;fill-rule:evenodd;stroke:#CCCC00;stroke-width:2.0px;stroke-linecap:butt;stroke-linejoin:miter;stroke-opacity:1"/>
<path class="bond-32 atom-30 atom-33" d="M 530.4,60.6 L 531.3,66.8" style="fill:none;fill-rule:evenodd;stroke:#FF0000;stroke-width:2.0px;stroke-linecap:butt;stroke-linejoin:miter;stroke-opacity:1"/>
<path class="bond-32 atom-30 atom-33" d="M 532.5,53.9 L 533.4,60.2" style="fill:none;fill-rule:evenodd;stroke:#CCCC00;stroke-width:2.0px;stroke-linecap:butt;stroke-linejoin:miter;stroke-opacity:1"/>
<path class="bond-32 atom-30 atom-33" d="M 533.4,60.2 L 534.2,66.4" style="fill:none;fill-rule:evenodd;stroke:#FF0000;stroke-width:2.0px;stroke-linecap:butt;stroke-linejoin:miter;stroke-opacity:1"/>
<path class="bond-33 atom-29 atom-34" d="M 511.0,53.2 L 498.9,37.6" style="fill:none;fill-rule:evenodd;stroke:#000000;stroke-width:2.0px;stroke-linecap:butt;stroke-linejoin:miter;stroke-opacity:1"/>
<path class="bond-34 atom-34 atom-35" d="M 498.9,37.6 L 479.3,40.3" style="fill:none;fill-rule:evenodd;stroke:#000000;stroke-width:2.0px;stroke-linecap:butt;stroke-linejoin:miter;stroke-opacity:1"/>
<path class="bond-34 atom-34 atom-35" d="M 497.6,40.8 L 481.4,43.1" style="fill:none;fill-rule:evenodd;stroke:#000000;stroke-width:2.0px;stroke-linecap:butt;stroke-linejoin:miter;stroke-opacity:1"/>
<path class="bond-35 atom-24 atom-36" d="M 444.8,79.7 L 456.9,95.3" style="fill:none;fill-rule:evenodd;stroke:#000000;stroke-width:2.0px;stroke-linecap:butt;stroke-linejoin:miter;stroke-opacity:1"/>
<path class="bond-36 atom-36 atom-37" d="M 456.3,96.8 L 464.9,95.7" style="fill:none;fill-rule:evenodd;stroke:#000000;stroke-width:2.0px;stroke-linecap:butt;stroke-linejoin:miter;stroke-opacity:1"/>
<path class="bond-36 atom-36 atom-37" d="M 464.9,95.7 L 473.5,94.5" style="fill:none;fill-rule:evenodd;stroke:#FF0000;stroke-width:2.0px;stroke-linecap:butt;stroke-linejoin:miter;stroke-opacity:1"/>
<path class="bond-36 atom-36 atom-37" d="M 455.9,93.9 L 464.5,92.7" style="fill:none;fill-rule:evenodd;stroke:#000000;stroke-width:2.0px;stroke-linecap:butt;stroke-linejoin:miter;stroke-opacity:1"/>
<path class="bond-36 atom-36 atom-37" d="M 464.5,92.7 L 473.1,91.5" style="fill:none;fill-rule:evenodd;stroke:#FF0000;stroke-width:2.0px;stroke-linecap:butt;stroke-linejoin:miter;stroke-opacity:1"/>
<path class="bond-37 atom-36 atom-5" d="M 456.9,95.3 L 449.5,113.6" style="fill:none;fill-rule:evenodd;stroke:#000000;stroke-width:2.0px;stroke-linecap:butt;stroke-linejoin:miter;stroke-opacity:1"/>
<path class="bond-38 atom-22 atom-8" d="M 397.6,83.6 L 398.2,103.4" style="fill:none;fill-rule:evenodd;stroke:#000000;stroke-width:2.0px;stroke-linecap:butt;stroke-linejoin:miter;stroke-opacity:1"/>
<path class="bond-39 atom-35 atom-26" d="M 479.3,40.3 L 471.8,58.7" style="fill:none;fill-rule:evenodd;stroke:#000000;stroke-width:2.0px;stroke-linecap:butt;stroke-linejoin:miter;stroke-opacity:1"/>
<path d="M 494.3,141.9 L 493.3,142.0 L 493.1,141.7" style="fill:none;stroke:#000000;stroke-width:2.0px;stroke-linecap:butt;stroke-linejoin:miter;stroke-opacity:1;"/>
<path d="M 478.6,128.3 L 479.0,128.3 L 478.6,128.3" style="fill:none;stroke:#CCCC00;stroke-width:2.0px;stroke-linecap:butt;stroke-linejoin:miter;stroke-opacity:1;"/>
<path d="M 430.9,116.1 L 429.9,116.3 L 429.7,116.0" style="fill:none;stroke:#000000;stroke-width:2.0px;stroke-linecap:butt;stroke-linejoin:miter;stroke-opacity:1;"/>
<path d="M 402.7,121.6 L 403.0,122.5 L 402.3,123.2" style="fill:none;stroke:#000000;stroke-width:2.0px;stroke-linecap:butt;stroke-linejoin:miter;stroke-opacity:1;"/>
<path d="M 389.4,135.6 L 388.7,136.2 L 388.4,136.5" style="fill:none;stroke:#000000;stroke-width:2.0px;stroke-linecap:butt;stroke-linejoin:miter;stroke-opacity:1;"/>
<path d="M 380.6,109.7 L 379.6,110.1 L 379.0,109.3" style="fill:none;stroke:#000000;stroke-width:2.0px;stroke-linecap:butt;stroke-linejoin:miter;stroke-opacity:1;"/>
<path d="M 368.1,95.3 L 367.5,94.5 L 367.7,94.2" style="fill:none;stroke:#000000;stroke-width:2.0px;stroke-linecap:butt;stroke-linejoin:miter;stroke-opacity:1;"/>
<path d="M 372.0,59.9 L 371.9,59.5 L 372.1,59.3" style="fill:none;stroke:#000000;stroke-width:2.0px;stroke-linecap:butt;stroke-linejoin:miter;stroke-opacity:1;"/>
<path d="M 397.2,83.5 L 397.6,83.6 L 397.6,84.6" style="fill:none;stroke:#000000;stroke-width:2.0px;stroke-linecap:butt;stroke-linejoin:miter;stroke-opacity:1;"/>
<path d="M 483.4,73.5 L 484.0,74.2 L 484.9,74.1" style="fill:none;stroke:#000000;stroke-width:2.0px;stroke-linecap:butt;stroke-linejoin:miter;stroke-opacity:1;"/>
<path d="M 502.6,71.7 L 503.5,71.5 L 503.9,70.6" style="fill:none;stroke:#000000;stroke-width:2.0px;stroke-linecap:butt;stroke-linejoin:miter;stroke-opacity:1;"/>
<path d="M 499.5,38.4 L 498.9,37.6 L 497.9,37.8" style="fill:none;stroke:#000000;stroke-width:2.0px;stroke-linecap:butt;stroke-linejoin:miter;stroke-opacity:1;"/>
<path d="M 480.3,40.2 L 479.3,40.3 L 478.9,41.3" style="fill:none;stroke:#000000;stroke-width:2.0px;stroke-linecap:butt;stroke-linejoin:miter;stroke-opacity:1;"/>
<path d="M 456.3,94.5 L 456.9,95.3 L 456.6,96.2" style="fill:none;stroke:#000000;stroke-width:2.0px;stroke-linecap:butt;stroke-linejoin:miter;stroke-opacity:1;"/>
<path class="atom-2" d="M 479.6 128.4 Q 479.7 128.4, 479.9 128.5 Q 480.2 128.6, 480.5 128.7 Q 480.8 128.8, 481.1 128.8 Q 481.6 128.8, 481.9 128.5 Q 482.2 128.2, 482.2 127.8 Q 482.2 127.5, 482.1 127.3 Q 481.9 127.1, 481.7 127.0 Q 481.4 126.9, 481.0 126.8 Q 480.5 126.6, 480.2 126.5 Q 479.9 126.3, 479.7 126.0 Q 479.5 125.7, 479.5 125.2 Q 479.5 124.5, 480.0 124.1 Q 480.5 123.7, 481.4 123.7 Q 482.1 123.7, 482.8 124.0 L 482.6 124.6 Q 482.0 124.3, 481.5 124.3 Q 480.9 124.3, 480.6 124.5 Q 480.3 124.8, 480.3 125.1 Q 480.3 125.4, 480.5 125.6 Q 480.6 125.8, 480.8 125.9 Q 481.1 126.0, 481.5 126.1 Q 482.0 126.3, 482.3 126.5 Q 482.6 126.6, 482.8 126.9 Q 483.0 127.2, 483.0 127.8 Q 483.0 128.6, 482.5 129.0 Q 482.0 129.4, 481.1 129.4 Q 480.6 129.4, 480.2 129.3 Q 479.8 129.2, 479.4 129.0 L 479.6 128.4 " fill="#CCCC00"/>
<path class="atom-2" d="M 483.8 123.7 L 484.5 123.7 L 484.5 126.0 L 487.4 126.0 L 487.4 123.7 L 488.1 123.7 L 488.1 129.2 L 487.4 129.2 L 487.4 126.7 L 484.5 126.7 L 484.5 129.2 L 483.8 129.2 L 483.8 123.7 " fill="#CCCC00"/>
<path class="atom-3" d="M 461.5 126.4 Q 462.5 126.4, 462.9 126.8 Q 463.4 127.2, 463.4 128.0 Q 463.4 128.8, 462.9 129.2 Q 462.4 129.7, 461.5 129.7 L 460.6 129.7 L 460.6 132.0 L 459.8 132.0 L 459.8 126.4 L 461.5 126.4 M 461.5 129.0 Q 462.0 129.0, 462.3 128.8 Q 462.6 128.5, 462.6 128.0 Q 462.6 127.5, 462.3 127.2 Q 462.0 127.0, 461.5 127.0 L 460.6 127.0 L 460.6 129.0 L 461.5 129.0 " fill="#FF7F00"/>
<path class="atom-3" d="M 459.4 132.5 L 460.2 132.5 L 460.2 134.9 L 463.1 134.9 L 463.1 132.5 L 463.8 132.5 L 463.8 138.1 L 463.1 138.1 L 463.1 135.5 L 460.2 135.5 L 460.2 138.1 L 459.4 138.1 L 459.4 132.5 " fill="#FF7F00"/>
<path class="atom-4" d="M 446.1 144.7 L 446.8 144.7 L 446.8 147.1 L 449.7 147.1 L 449.7 144.7 L 450.5 144.7 L 450.5 150.3 L 449.7 150.3 L 449.7 147.7 L 446.8 147.7 L 446.8 150.3 L 446.1 150.3 L 446.1 144.7 " fill="#FF0000"/>
<path class="atom-4" d="M 451.6 147.5 Q 451.6 146.1, 452.3 145.4 Q 452.9 144.6, 454.2 144.6 Q 455.4 144.6, 456.1 145.4 Q 456.8 146.1, 456.8 147.5 Q 456.8 148.8, 456.1 149.6 Q 455.4 150.4, 454.2 150.4 Q 453.0 150.4, 452.3 149.6 Q 451.6 148.8, 451.6 147.5 M 454.2 149.7 Q 455.0 149.7, 455.5 149.2 Q 456.0 148.6, 456.0 147.5 Q 456.0 146.4, 455.5 145.8 Q 455.0 145.3, 454.2 145.3 Q 453.3 145.3, 452.9 145.8 Q 452.4 146.4, 452.4 147.5 Q 452.4 148.6, 452.9 149.2 Q 453.3 149.7, 454.2 149.7 " fill="#FF0000"/>
<path class="atom-7" d="M 416.6 97.9 L 418.4 100.8 Q 418.6 101.1, 418.9 101.6 Q 419.2 102.2, 419.2 102.2 L 419.2 97.9 L 419.9 97.9 L 419.9 103.5 L 419.2 103.5 L 417.2 100.2 Q 417.0 99.8, 416.7 99.4 Q 416.5 99.0, 416.4 98.8 L 416.4 103.5 L 415.7 103.5 L 415.7 97.9 L 416.6 97.9 " fill="#0000FF"/>
<path class="atom-11" d="M 373.2 147.1 L 375.1 150.1 Q 375.3 150.4, 375.5 150.9 Q 375.8 151.4, 375.9 151.5 L 375.9 147.1 L 376.6 147.1 L 376.6 152.7 L 375.8 152.7 L 373.9 149.5 Q 373.6 149.1, 373.4 148.7 Q 373.1 148.2, 373.1 148.1 L 373.1 152.7 L 372.4 152.7 L 372.4 147.1 L 373.2 147.1 " fill="#0000FF"/>
<path class="atom-14" d="M 377.4 75.3 L 379.2 78.3 Q 379.4 78.6, 379.7 79.1 Q 380.0 79.6, 380.0 79.7 L 380.0 75.3 L 380.7 75.3 L 380.7 80.9 L 380.0 80.9 L 378.0 77.7 Q 377.8 77.3, 377.5 76.9 Q 377.3 76.4, 377.2 76.3 L 377.2 80.9 L 376.5 80.9 L 376.5 75.3 L 377.4 75.3 " fill="#0000FF"/>
<path class="atom-16" d="M 349.9 56.1 Q 349.9 54.7, 350.5 54.0 Q 351.2 53.2, 352.4 53.2 Q 353.7 53.2, 354.3 54.0 Q 355.0 54.7, 355.0 56.1 Q 355.0 57.4, 354.3 58.2 Q 353.7 59.0, 352.4 59.0 Q 351.2 59.0, 350.5 58.2 Q 349.9 57.4, 349.9 56.1 M 352.4 58.4 Q 353.3 58.4, 353.8 57.8 Q 354.2 57.2, 354.2 56.1 Q 354.2 55.0, 353.8 54.4 Q 353.3 53.9, 352.4 53.9 Q 351.6 53.9, 351.1 54.4 Q 350.7 55.0, 350.7 56.1 Q 350.7 57.2, 351.1 57.8 Q 351.6 58.4, 352.4 58.4 " fill="#FF0000"/>
<path class="atom-17" d="M 382.1 44.5 Q 382.1 43.1, 382.7 42.4 Q 383.4 41.6, 384.6 41.6 Q 385.9 41.6, 386.5 42.4 Q 387.2 43.1, 387.2 44.5 Q 387.2 45.8, 386.5 46.6 Q 385.9 47.4, 384.6 47.4 Q 383.4 47.4, 382.7 46.6 Q 382.1 45.8, 382.1 44.5 M 384.6 46.7 Q 385.5 46.7, 385.9 46.2 Q 386.4 45.6, 386.4 44.5 Q 386.4 43.4, 385.9 42.8 Q 385.5 42.2, 384.6 42.2 Q 383.8 42.2, 383.3 42.8 Q 382.9 43.3, 382.9 44.5 Q 382.9 45.6, 383.3 46.2 Q 383.8 46.7, 384.6 46.7 " fill="#FF0000"/>
<path class="atom-23" d="M 424.0 79.6 L 425.8 82.5 Q 426.0 82.8, 426.3 83.3 Q 426.6 83.9, 426.6 83.9 L 426.6 79.6 L 427.4 79.6 L 427.4 85.2 L 426.6 85.2 L 424.6 81.9 Q 424.4 81.5, 424.2 81.1 Q 423.9 80.7, 423.9 80.5 L 423.9 85.2 L 423.1 85.2 L 423.1 79.6 L 424.0 79.6 " fill="#0000FF"/>
<path class="atom-25" d="M 444.7 58.6 L 445.4 58.6 L 445.4 60.9 L 448.3 60.9 L 448.3 58.6 L 449.0 58.6 L 449.0 64.2 L 448.3 64.2 L 448.3 61.6 L 445.4 61.6 L 445.4 64.2 L 444.7 64.2 L 444.7 58.6 " fill="#0000FF"/>
<path class="atom-25" d="M 451.0 58.6 L 452.9 61.5 Q 453.0 61.8, 453.3 62.3 Q 453.6 62.9, 453.6 62.9 L 453.6 58.6 L 454.4 58.6 L 454.4 64.2 L 453.6 64.2 L 451.7 60.9 Q 451.4 60.5, 451.2 60.1 Q 450.9 59.7, 450.9 59.5 L 450.9 64.2 L 450.1 64.2 L 450.1 58.6 L 451.0 58.6 " fill="#0000FF"/>
<path class="atom-30" d="M 529.0 52.5 Q 529.0 52.5, 529.3 52.6 Q 529.6 52.7, 529.8 52.8 Q 530.1 52.8, 530.4 52.8 Q 530.9 52.8, 531.3 52.6 Q 531.6 52.3, 531.6 51.9 Q 531.6 51.6, 531.4 51.4 Q 531.3 51.2, 531.0 51.1 Q 530.8 51.0, 530.4 50.9 Q 529.9 50.7, 529.6 50.6 Q 529.3 50.4, 529.1 50.1 Q 528.9 49.8, 528.9 49.3 Q 528.9 48.6, 529.4 48.2 Q 529.8 47.8, 530.8 47.8 Q 531.4 47.8, 532.2 48.1 L 532.0 48.7 Q 531.3 48.4, 530.8 48.4 Q 530.3 48.4, 530.0 48.6 Q 529.7 48.8, 529.7 49.2 Q 529.7 49.5, 529.8 49.7 Q 530.0 49.9, 530.2 50.0 Q 530.4 50.1, 530.8 50.2 Q 531.3 50.4, 531.6 50.5 Q 531.9 50.7, 532.1 51.0 Q 532.3 51.3, 532.3 51.9 Q 532.3 52.7, 531.8 53.1 Q 531.3 53.5, 530.4 53.5 Q 530.0 53.5, 529.6 53.4 Q 529.2 53.3, 528.8 53.1 L 529.0 52.5 " fill="#CCCC00"/>
<path class="atom-32" d="M 525.3 31.0 Q 525.3 29.6, 525.9 28.9 Q 526.6 28.1, 527.8 28.1 Q 529.1 28.1, 529.8 28.9 Q 530.4 29.6, 530.4 31.0 Q 530.4 32.3, 529.7 33.1 Q 529.1 33.9, 527.8 33.9 Q 526.6 33.9, 525.9 33.1 Q 525.3 32.4, 525.3 31.0 M 527.8 33.3 Q 528.7 33.3, 529.2 32.7 Q 529.6 32.1, 529.6 31.0 Q 529.6 29.9, 529.2 29.3 Q 528.7 28.8, 527.8 28.8 Q 527.0 28.8, 526.5 29.3 Q 526.1 29.9, 526.1 31.0 Q 526.1 32.1, 526.5 32.7 Q 527.0 33.3, 527.8 33.3 " fill="#FF0000"/>
<path class="atom-33" d="M 530.7 70.1 Q 530.7 68.8, 531.4 68.0 Q 532.0 67.3, 533.3 67.3 Q 534.5 67.3, 535.2 68.0 Q 535.8 68.8, 535.8 70.1 Q 535.8 71.5, 535.2 72.3 Q 534.5 73.0, 533.3 73.0 Q 532.0 73.0, 531.4 72.3 Q 530.7 71.5, 530.7 70.1 M 533.3 72.4 Q 534.1 72.4, 534.6 71.8 Q 535.0 71.3, 535.0 70.1 Q 535.0 69.0, 534.6 68.5 Q 534.1 67.9, 533.3 67.9 Q 532.4 67.9, 531.9 68.5 Q 531.5 69.0, 531.5 70.1 Q 531.5 71.3, 531.9 71.8 Q 532.4 72.4, 533.3 72.4 " fill="#FF0000"/>
<path class="atom-37" d="M 473.9 92.6 Q 473.9 91.2, 474.6 90.5 Q 475.3 89.7, 476.5 89.7 Q 477.8 89.7, 478.4 90.5 Q 479.1 91.2, 479.1 92.6 Q 479.1 93.9, 478.4 94.7 Q 477.7 95.5, 476.5 95.5 Q 475.3 95.5, 474.6 94.7 Q 473.9 93.9, 473.9 92.6 M 476.5 94.8 Q 477.4 94.8, 477.8 94.3 Q 478.3 93.7, 478.3 92.6 Q 478.3 91.5, 477.8 90.9 Q 477.4 90.4, 476.5 90.4 Q 475.7 90.4, 475.2 90.9 Q 474.7 91.5, 474.7 92.6 Q 474.7 93.7, 475.2 94.3 Q 475.7 94.8, 476.5 94.8 " fill="#FF0000"/>
<path class="atom-0" d="M 515.7,137.4 L 515.7,137.4 L 515.7,137.4 L 515.7,137.5 L 515.6,137.5 L 515.6,137.5 L 515.6,137.6 L 515.6,137.6 L 515.6,137.6 L 515.6,137.6 L 515.5,137.7 L 515.5,137.7 L 515.5,137.7 L 515.4,137.7 L 515.4,137.7 L 515.4,137.7 L 515.3,137.8 L 515.3,137.8 L 515.3,137.8 L 515.2,137.8 L 515.2,137.8 L 515.2,137.8 L 515.1,137.7 L 515.1,137.7 L 515.1,137.7 L 515.1,137.7 L 515.0,137.7 L 515.0,137.7 L 515.0,137.6 L 515.0,137.6 L 514.9,137.6 L 514.9,137.6 L 514.9,137.5 L 514.9,137.5 L 514.9,137.5 L 514.9,137.4 L 514.9,137.4 L 514.9,137.4 L 514.9,137.3 L 514.9,137.3 L 514.9,137.3 L 514.9,137.2 L 514.9,137.2 L 514.9,137.2 L 515.0,137.1 L 515.0,137.1 L 515.0,137.1 L 515.0,137.1 L 515.1,137.0 L 515.1,137.0 L 515.1,137.0 L 515.1,137.0 L 515.2,137.0 L 515.2,137.0 L 515.2,137.0 L 515.3,137.0 L 515.3,137.0 L 515.3,137.0 L 515.4,137.0 L 515.4,137.0 L 515.4,137.0 L 515.5,137.0 L 515.5,137.0 L 515.5,137.1 L 515.6,137.1 L 515.6,137.1 L 515.6,137.1 L 515.6,137.2 L 515.6,137.2 L 515.6,137.2 L 515.7,137.3 L 515.7,137.3 L 515.7,137.3 L 515.7,137.4 L 515.3,137.4 Z" style="fill:#000000;fill-rule:evenodd;fill-opacity:1;stroke:#000000;stroke-width:0.0px;stroke-linecap:butt;stroke-linejoin:miter;stroke-opacity:1;"/>
<path class="atom-0" d="M 515.7,141.3 L 515.7,141.4 L 515.7,141.4 L 515.7,141.4 L 515.6,141.5 L 515.6,141.5 L 515.6,141.5 L 515.6,141.5 L 515.6,141.6 L 515.6,141.6 L 515.5,141.6 L 515.5,141.6 L 515.5,141.7 L 515.4,141.7 L 515.4,141.7 L 515.4,141.7 L 515.3,141.7 L 515.3,141.7 L 515.3,141.7 L 515.2,141.7 L 515.2,141.7 L 515.2,141.7 L 515.1,141.7 L 515.1,141.7 L 515.1,141.7 L 515.1,141.7 L 515.0,141.6 L 515.0,141.6 L 515.0,141.6 L 515.0,141.6 L 514.9,141.5 L 514.9,141.5 L 514.9,141.5 L 514.9,141.4 L 514.9,141.4 L 514.9,141.4 L 514.9,141.3 L 514.9,141.3 L 514.9,141.3 L 514.9,141.2 L 514.9,141.2 L 514.9,141.2 L 514.9,141.1 L 514.9,141.1 L 515.0,141.1 L 515.0,141.1 L 515.0,141.0 L 515.0,141.0 L 515.1,141.0 L 515.1,141.0 L 515.1,141.0 L 515.1,140.9 L 515.2,140.9 L 515.2,140.9 L 515.2,140.9 L 515.3,140.9 L 515.3,140.9 L 515.3,140.9 L 515.4,140.9 L 515.4,141.0 L 515.4,141.0 L 515.5,141.0 L 515.5,141.0 L 515.5,141.0 L 515.6,141.0 L 515.6,141.1 L 515.6,141.1 L 515.6,141.1 L 515.6,141.2 L 515.6,141.2 L 515.7,141.2 L 515.7,141.3 L 515.7,141.3 L 515.7,141.3 L 515.3,141.3 Z" style="fill:#000000;fill-rule:evenodd;fill-opacity:1;stroke:#000000;stroke-width:0.0px;stroke-linecap:butt;stroke-linejoin:miter;stroke-opacity:1;"/>
<path class="atom-0" d="M 515.7,139.3 L 515.7,139.4 L 515.7,139.4 L 515.7,139.4 L 515.6,139.5 L 515.6,139.5 L 515.6,139.5 L 515.6,139.6 L 515.6,139.6 L 515.6,139.6 L 515.5,139.6 L 515.5,139.7 L 515.5,139.7 L 515.4,139.7 L 515.4,139.7 L 515.4,139.7 L 515.3,139.7 L 515.3,139.7 L 515.3,139.7 L 515.2,139.7 L 515.2,139.7 L 515.2,139.7 L 515.1,139.7 L 515.1,139.7 L 515.1,139.7 L 515.1,139.7 L 515.0,139.7 L 515.0,139.6 L 515.0,139.6 L 515.0,139.6 L 514.9,139.6 L 514.9,139.5 L 514.9,139.5 L 514.9,139.5 L 514.9,139.4 L 514.9,139.4 L 514.9,139.4 L 514.9,139.3 L 514.9,139.3 L 514.9,139.3 L 514.9,139.2 L 514.9,139.2 L 514.9,139.2 L 514.9,139.1 L 515.0,139.1 L 515.0,139.1 L 515.0,139.1 L 515.0,139.0 L 515.1,139.0 L 515.1,139.0 L 515.1,139.0 L 515.1,139.0 L 515.2,139.0 L 515.2,139.0 L 515.2,139.0 L 515.3,139.0 L 515.3,139.0 L 515.3,139.0 L 515.4,139.0 L 515.4,139.0 L 515.4,139.0 L 515.5,139.0 L 515.5,139.0 L 515.5,139.0 L 515.6,139.1 L 515.6,139.1 L 515.6,139.1 L 515.6,139.2 L 515.6,139.2 L 515.6,139.2 L 515.7,139.2 L 515.7,139.3 L 515.7,139.3 L 515.7,139.3 L 515.3,139.3 Z" style="fill:#000000;fill-rule:evenodd;fill-opacity:1;stroke:#000000;stroke-width:0.0px;stroke-linecap:butt;stroke-linejoin:miter;stroke-opacity:1;"/>
<path class="atom-1" d="M 491.4,142.8 L 491.4,142.9 L 491.3,142.9 L 491.3,142.9 L 491.3,143.0 L 491.3,143.0 L 491.3,143.0 L 491.3,143.1 L 491.3,143.1 L 491.2,143.1 L 491.2,143.1 L 491.2,143.2 L 491.2,143.2 L 491.1,143.2 L 491.1,143.2 L 491.1,143.2 L 491.0,143.2 L 491.0,143.2 L 491.0,143.2 L 490.9,143.2 L 490.9,143.2 L 490.9,143.2 L 490.8,143.2 L 490.8,143.2 L 490.8,143.2 L 490.7,143.2 L 490.7,143.1 L 490.7,143.1 L 490.7,143.1 L 490.6,143.1 L 490.6,143.0 L 490.6,143.0 L 490.6,143.0 L 490.6,143.0 L 490.6,142.9 L 490.6,142.9 L 490.6,142.9 L 490.6,142.8 L 490.6,142.8 L 490.6,142.8 L 490.6,142.7 L 490.6,142.7 L 490.6,142.7 L 490.6,142.6 L 490.6,142.6 L 490.7,142.6 L 490.7,142.6 L 490.7,142.5 L 490.7,142.5 L 490.8,142.5 L 490.8,142.5 L 490.8,142.5 L 490.9,142.5 L 490.9,142.4 L 490.9,142.4 L 491.0,142.4 L 491.0,142.4 L 491.0,142.5 L 491.1,142.5 L 491.1,142.5 L 491.1,142.5 L 491.2,142.5 L 491.2,142.5 L 491.2,142.5 L 491.2,142.6 L 491.3,142.6 L 491.3,142.6 L 491.3,142.6 L 491.3,142.7 L 491.3,142.7 L 491.3,142.7 L 491.3,142.8 L 491.4,142.8 L 491.4,142.8 L 491.0,142.8 Z" style="fill:#000000;fill-rule:evenodd;fill-opacity:1;stroke:#000000;stroke-width:0.0px;stroke-linecap:butt;stroke-linejoin:miter;stroke-opacity:1;"/>
<path class="atom-1" d="M 491.4,141.3 L 491.4,141.3 L 491.3,141.3 L 491.3,141.4 L 491.3,141.4 L 491.3,141.4 L 491.3,141.5 L 491.3,141.5 L 491.3,141.5 L 491.2,141.5 L 491.2,141.6 L 491.2,141.6 L 491.2,141.6 L 491.1,141.6 L 491.1,141.6 L 491.1,141.6 L 491.0,141.6 L 491.0,141.7 L 491.0,141.7 L 490.9,141.7 L 490.9,141.6 L 490.9,141.6 L 490.8,141.6 L 490.8,141.6 L 490.8,141.6 L 490.7,141.6 L 490.7,141.6 L 490.7,141.5 L 490.7,141.5 L 490.6,141.5 L 490.6,141.5 L 490.6,141.4 L 490.6,141.4 L 490.6,141.4 L 490.6,141.3 L 490.6,141.3 L 490.6,141.3 L 490.6,141.2 L 490.6,141.2 L 490.6,141.2 L 490.6,141.1 L 490.6,141.1 L 490.6,141.1 L 490.6,141.0 L 490.6,141.0 L 490.7,141.0 L 490.7,141.0 L 490.7,140.9 L 490.7,140.9 L 490.8,140.9 L 490.8,140.9 L 490.8,140.9 L 490.9,140.9 L 490.9,140.9 L 490.9,140.9 L 491.0,140.9 L 491.0,140.9 L 491.0,140.9 L 491.1,140.9 L 491.1,140.9 L 491.1,140.9 L 491.2,140.9 L 491.2,140.9 L 491.2,141.0 L 491.2,141.0 L 491.3,141.0 L 491.3,141.0 L 491.3,141.1 L 491.3,141.1 L 491.3,141.1 L 491.3,141.2 L 491.3,141.2 L 491.4,141.2 L 491.4,141.3 L 491.0,141.3 Z" style="fill:#000000;fill-rule:evenodd;fill-opacity:1;stroke:#000000;stroke-width:0.0px;stroke-linecap:butt;stroke-linejoin:miter;stroke-opacity:1;"/>
<path class="bond-0 atom-0 atom-1" d="M 769.2,31.9 L 764.0,38.0" style="fill:none;fill-rule:evenodd;stroke:#000000;stroke-width:2.0px;stroke-linecap:butt;stroke-linejoin:miter;stroke-opacity:1"/>
<path class="bond-0 atom-0 atom-1" d="M 764.0,38.0 L 758.8,44.1" style="fill:none;fill-rule:evenodd;stroke:#FF7F00;stroke-width:2.0px;stroke-linecap:butt;stroke-linejoin:miter;stroke-opacity:1"/>
<path class="bond-0 atom-0 atom-1" d="M 767.0,30.0 L 761.8,36.0" style="fill:none;fill-rule:evenodd;stroke:#000000;stroke-width:2.0px;stroke-linecap:butt;stroke-linejoin:miter;stroke-opacity:1"/>
<path class="bond-0 atom-0 atom-1" d="M 761.8,36.0 L 756.6,42.1" style="fill:none;fill-rule:evenodd;stroke:#FF7F00;stroke-width:2.0px;stroke-linecap:butt;stroke-linejoin:miter;stroke-opacity:1"/>
<path class="bond-1 atom-1 atom-2" d="M 756.5,49.4 L 758.5,55.3" style="fill:none;fill-rule:evenodd;stroke:#FF7F00;stroke-width:2.0px;stroke-linecap:butt;stroke-linejoin:miter;stroke-opacity:1"/>
<path class="bond-1 atom-1 atom-2" d="M 758.5,55.3 L 760.6,61.1" style="fill:none;fill-rule:evenodd;stroke:#CCCC00;stroke-width:2.0px;stroke-linecap:butt;stroke-linejoin:miter;stroke-opacity:1"/>
<path class="bond-1 atom-1 atom-2" d="M 759.3,48.4 L 761.3,54.3" style="fill:none;fill-rule:evenodd;stroke:#FF7F00;stroke-width:2.0px;stroke-linecap:butt;stroke-linejoin:miter;stroke-opacity:1"/>
<path class="bond-1 atom-1 atom-2" d="M 761.3,54.3 L 763.4,60.2" style="fill:none;fill-rule:evenodd;stroke:#CCCC00;stroke-width:2.0px;stroke-linecap:butt;stroke-linejoin:miter;stroke-opacity:1"/>
<path class="bond-1 atom-1 atom-2" d="M 753.7,50.4 L 755.7,56.2" style="fill:none;fill-rule:evenodd;stroke:#FF7F00;stroke-width:2.0px;stroke-linecap:butt;stroke-linejoin:miter;stroke-opacity:1"/>
<path class="bond-1 atom-1 atom-2" d="M 755.7,56.2 L 757.8,62.1" style="fill:none;fill-rule:evenodd;stroke:#CCCC00;stroke-width:2.0px;stroke-linecap:butt;stroke-linejoin:miter;stroke-opacity:1"/>
<path class="bond-2 atom-2 atom-3" d="M 759.4,67.4 L 754.2,73.5" style="fill:none;fill-rule:evenodd;stroke:#CCCC00;stroke-width:2.0px;stroke-linecap:butt;stroke-linejoin:miter;stroke-opacity:1"/>
<path class="bond-2 atom-2 atom-3" d="M 754.2,73.5 L 749.0,79.6" style="fill:none;fill-rule:evenodd;stroke:#000000;stroke-width:2.0px;stroke-linecap:butt;stroke-linejoin:miter;stroke-opacity:1"/>
<path class="bond-3 atom-3 atom-4" d="M 749.0,79.6 L 729.3,78.0" style="fill:none;fill-rule:evenodd;stroke:#000000;stroke-width:2.0px;stroke-linecap:butt;stroke-linejoin:miter;stroke-opacity:1"/>
<path class="bond-3 atom-3 atom-4" d="M 746.6,82.4 L 731.2,81.1" style="fill:none;fill-rule:evenodd;stroke:#000000;stroke-width:2.0px;stroke-linecap:butt;stroke-linejoin:miter;stroke-opacity:1"/>
<path class="bond-4 atom-4 atom-5" d="M 729.3,78.0 L 726.2,85.4" style="fill:none;fill-rule:evenodd;stroke:#000000;stroke-width:2.0px;stroke-linecap:butt;stroke-linejoin:miter;stroke-opacity:1"/>
<path class="bond-4 atom-4 atom-5" d="M 726.2,85.4 L 723.1,92.8" style="fill:none;fill-rule:evenodd;stroke:#0000FF;stroke-width:2.0px;stroke-linecap:butt;stroke-linejoin:miter;stroke-opacity:1"/>
<path class="bond-5 atom-5 atom-6" d="M 718.9,96.9 L 710.7,98.8" style="fill:none;fill-rule:evenodd;stroke:#0000FF;stroke-width:2.0px;stroke-linecap:butt;stroke-linejoin:miter;stroke-opacity:1"/>
<path class="bond-5 atom-5 atom-6" d="M 710.7,98.8 L 702.4,100.8" style="fill:none;fill-rule:evenodd;stroke:#000000;stroke-width:2.0px;stroke-linecap:butt;stroke-linejoin:miter;stroke-opacity:1"/>
<path class="bond-6 atom-6 atom-7" d="M 702.4,100.8 L 709.0,119.4" style="fill:none;fill-rule:evenodd;stroke:#000000;stroke-width:2.0px;stroke-linecap:butt;stroke-linejoin:miter;stroke-opacity:1"/>
<path class="bond-7 atom-7 atom-8" d="M 709.0,119.4 L 696.1,134.4" style="fill:none;fill-rule:evenodd;stroke:#000000;stroke-width:2.0px;stroke-linecap:butt;stroke-linejoin:miter;stroke-opacity:1"/>
<path class="bond-8 atom-8 atom-9" d="M 696.1,134.4 L 691.1,140.3" style="fill:none;fill-rule:evenodd;stroke:#000000;stroke-width:2.0px;stroke-linecap:butt;stroke-linejoin:miter;stroke-opacity:1"/>
<path class="bond-8 atom-8 atom-9" d="M 691.1,140.3 L 686.1,146.2" style="fill:none;fill-rule:evenodd;stroke:#0000FF;stroke-width:2.0px;stroke-linecap:butt;stroke-linejoin:miter;stroke-opacity:1"/>
<path class="bond-8 atom-8 atom-9" d="M 698.4,136.4 L 693.4,142.3" style="fill:none;fill-rule:evenodd;stroke:#000000;stroke-width:2.0px;stroke-linecap:butt;stroke-linejoin:miter;stroke-opacity:1"/>
<path class="bond-8 atom-8 atom-9" d="M 693.4,142.3 L 688.3,148.1" style="fill:none;fill-rule:evenodd;stroke:#0000FF;stroke-width:2.0px;stroke-linecap:butt;stroke-linejoin:miter;stroke-opacity:1"/>
<path class="bond-8 atom-8 atom-9" d="M 693.9,132.5 L 688.9,138.4" style="fill:none;fill-rule:evenodd;stroke:#000000;stroke-width:2.0px;stroke-linecap:butt;stroke-linejoin:miter;stroke-opacity:1"/>
<path class="bond-8 atom-8 atom-9" d="M 688.9,138.4 L 683.8,144.3" style="fill:none;fill-rule:evenodd;stroke:#0000FF;stroke-width:2.0px;stroke-linecap:butt;stroke-linejoin:miter;stroke-opacity:1"/>
<path class="bond-9 atom-6 atom-10" d="M 702.4,100.8 L 684.6,109.3" style="fill:none;fill-rule:evenodd;stroke:#000000;stroke-width:2.0px;stroke-linecap:butt;stroke-linejoin:miter;stroke-opacity:1"/>
<path class="bond-10 atom-10 atom-11" d="M 684.6,109.3 L 671.0,94.9" style="fill:none;fill-rule:evenodd;stroke:#000000;stroke-width:2.0px;stroke-linecap:butt;stroke-linejoin:miter;stroke-opacity:1"/>
<path class="bond-11 atom-11 atom-12" d="M 671.0,94.9 L 674.8,88.0" style="fill:none;fill-rule:evenodd;stroke:#000000;stroke-width:2.0px;stroke-linecap:butt;stroke-linejoin:miter;stroke-opacity:1"/>
<path class="bond-11 atom-11 atom-12" d="M 674.8,88.0 L 678.6,81.0" style="fill:none;fill-rule:evenodd;stroke:#0000FF;stroke-width:2.0px;stroke-linecap:butt;stroke-linejoin:miter;stroke-opacity:1"/>
<path class="bond-12 atom-12 atom-13" d="M 678.8,74.1 L 675.4,66.9" style="fill:none;fill-rule:evenodd;stroke:#0000FF;stroke-width:2.0px;stroke-linecap:butt;stroke-linejoin:miter;stroke-opacity:1"/>
<path class="bond-12 atom-12 atom-13" d="M 675.4,66.9 L 672.0,59.7" style="fill:none;fill-rule:evenodd;stroke:#000000;stroke-width:2.0px;stroke-linecap:butt;stroke-linejoin:miter;stroke-opacity:1"/>
<path class="bond-13 atom-13 atom-14" d="M 673.0,58.3 L 664.3,57.6" style="fill:none;fill-rule:evenodd;stroke:#000000;stroke-width:2.0px;stroke-linecap:butt;stroke-linejoin:miter;stroke-opacity:1"/>
<path class="bond-13 atom-13 atom-14" d="M 664.3,57.6 L 655.7,56.9" style="fill:none;fill-rule:evenodd;stroke:#FF0000;stroke-width:2.0px;stroke-linecap:butt;stroke-linejoin:miter;stroke-opacity:1"/>
<path class="bond-13 atom-13 atom-14" d="M 672.7,61.3 L 664.1,60.6" style="fill:none;fill-rule:evenodd;stroke:#000000;stroke-width:2.0px;stroke-linecap:butt;stroke-linejoin:miter;stroke-opacity:1"/>
<path class="bond-13 atom-13 atom-14" d="M 664.1,60.6 L 655.4,59.9" style="fill:none;fill-rule:evenodd;stroke:#FF0000;stroke-width:2.0px;stroke-linecap:butt;stroke-linejoin:miter;stroke-opacity:1"/>
<path class="bond-14 atom-13 atom-15" d="M 672.0,59.7 L 676.4,53.4" style="fill:none;fill-rule:evenodd;stroke:#000000;stroke-width:2.0px;stroke-linecap:butt;stroke-linejoin:miter;stroke-opacity:1"/>
<path class="bond-14 atom-13 atom-15" d="M 676.4,53.4 L 680.8,47.0" style="fill:none;fill-rule:evenodd;stroke:#FF0000;stroke-width:2.0px;stroke-linecap:butt;stroke-linejoin:miter;stroke-opacity:1"/>
<path class="bond-15 atom-15 atom-16" d="M 681.6,40.0 L 678.2,32.8" style="fill:none;fill-rule:evenodd;stroke:#FF0000;stroke-width:2.0px;stroke-linecap:butt;stroke-linejoin:miter;stroke-opacity:1"/>
<path class="bond-15 atom-15 atom-16" d="M 678.2,32.8 L 674.8,25.6" style="fill:none;fill-rule:evenodd;stroke:#000000;stroke-width:2.0px;stroke-linecap:butt;stroke-linejoin:miter;stroke-opacity:1"/>
<path class="bond-16 atom-16 atom-17" d="M 674.8,25.6 L 692.6,17.1" style="fill:none;fill-rule:evenodd;stroke:#000000;stroke-width:2.0px;stroke-linecap:butt;stroke-linejoin:miter;stroke-opacity:1"/>
<path class="bond-17 atom-16 atom-18" d="M 674.8,25.6 L 656.9,34.1" style="fill:none;fill-rule:evenodd;stroke:#000000;stroke-width:2.0px;stroke-linecap:butt;stroke-linejoin:miter;stroke-opacity:1"/>
<path class="bond-18 atom-16 atom-19" d="M 674.8,25.6 L 666.3,7.8" style="fill:none;fill-rule:evenodd;stroke:#000000;stroke-width:2.0px;stroke-linecap:butt;stroke-linejoin:miter;stroke-opacity:1"/>
<path class="bond-19 atom-12 atom-20" d="M 683.3,78.1 L 691.6,79.6" style="fill:none;fill-rule:evenodd;stroke:#0000FF;stroke-width:2.0px;stroke-linecap:butt;stroke-linejoin:miter;stroke-opacity:1"/>
<path class="bond-19 atom-12 atom-20" d="M 691.6,79.6 L 699.9,81.2" style="fill:none;fill-rule:evenodd;stroke:#000000;stroke-width:2.0px;stroke-linecap:butt;stroke-linejoin:miter;stroke-opacity:1"/>
<path class="bond-20 atom-5 atom-21" d="M 724.4,98.6 L 733.9,106.7" style="fill:none;fill-rule:evenodd;stroke:#0000FF;stroke-width:2.0px;stroke-linecap:butt;stroke-linejoin:miter;stroke-opacity:1"/>
<path class="bond-21 atom-21 atom-22" d="M 739.4,107.4 L 746.5,103.1" style="fill:none;fill-rule:evenodd;stroke:#0000FF;stroke-width:2.0px;stroke-linecap:butt;stroke-linejoin:miter;stroke-opacity:1"/>
<path class="bond-21 atom-21 atom-22" d="M 746.5,103.1 L 753.5,98.8" style="fill:none;fill-rule:evenodd;stroke:#000000;stroke-width:2.0px;stroke-linecap:butt;stroke-linejoin:miter;stroke-opacity:1"/>
<path class="bond-21 atom-21 atom-22" d="M 737.9,104.9 L 744.0,101.1" style="fill:none;fill-rule:evenodd;stroke:#0000FF;stroke-width:2.0px;stroke-linecap:butt;stroke-linejoin:miter;stroke-opacity:1"/>
<path class="bond-21 atom-21 atom-22" d="M 744.0,101.1 L 750.1,97.4" style="fill:none;fill-rule:evenodd;stroke:#000000;stroke-width:2.0px;stroke-linecap:butt;stroke-linejoin:miter;stroke-opacity:1"/>
<path class="bond-22 atom-22 atom-23" d="M 753.5,98.8 L 761.3,102.0" style="fill:none;fill-rule:evenodd;stroke:#000000;stroke-width:2.0px;stroke-linecap:butt;stroke-linejoin:miter;stroke-opacity:1"/>
<path class="bond-22 atom-22 atom-23" d="M 761.3,102.0 L 769.0,105.2" style="fill:none;fill-rule:evenodd;stroke:#0000FF;stroke-width:2.0px;stroke-linecap:butt;stroke-linejoin:miter;stroke-opacity:1"/>
<path class="bond-23 atom-23 atom-24" d="M 774.5,104.3 L 781.0,99.3" style="fill:none;fill-rule:evenodd;stroke:#0000FF;stroke-width:2.0px;stroke-linecap:butt;stroke-linejoin:miter;stroke-opacity:1"/>
<path class="bond-23 atom-23 atom-24" d="M 781.0,99.3 L 787.5,94.4" style="fill:none;fill-rule:evenodd;stroke:#000000;stroke-width:2.0px;stroke-linecap:butt;stroke-linejoin:miter;stroke-opacity:1"/>
<path class="bond-24 atom-24 atom-25" d="M 787.5,94.4 L 805.7,102.0" style="fill:none;fill-rule:evenodd;stroke:#000000;stroke-width:2.0px;stroke-linecap:butt;stroke-linejoin:miter;stroke-opacity:1"/>
<path class="bond-24 atom-24 atom-25" d="M 790.2,92.3 L 805.3,98.6" style="fill:none;fill-rule:evenodd;stroke:#000000;stroke-width:2.0px;stroke-linecap:butt;stroke-linejoin:miter;stroke-opacity:1"/>
<path class="bond-25 atom-25 atom-26" d="M 805.7,102.0 L 821.4,90.0" style="fill:none;fill-rule:evenodd;stroke:#000000;stroke-width:2.0px;stroke-linecap:butt;stroke-linejoin:miter;stroke-opacity:1"/>
<path class="bond-26 atom-26 atom-27" d="M 821.4,90.0 L 818.9,70.4" style="fill:none;fill-rule:evenodd;stroke:#000000;stroke-width:2.0px;stroke-linecap:butt;stroke-linejoin:miter;stroke-opacity:1"/>
<path class="bond-26 atom-26 atom-27" d="M 818.2,88.7 L 816.1,72.5" style="fill:none;fill-rule:evenodd;stroke:#000000;stroke-width:2.0px;stroke-linecap:butt;stroke-linejoin:miter;stroke-opacity:1"/>
<path class="bond-27 atom-27 atom-28" d="M 818.9,70.4 L 825.5,65.3" style="fill:none;fill-rule:evenodd;stroke:#000000;stroke-width:2.0px;stroke-linecap:butt;stroke-linejoin:miter;stroke-opacity:1"/>
<path class="bond-27 atom-27 atom-28" d="M 825.5,65.3 L 832.1,60.3" style="fill:none;fill-rule:evenodd;stroke:#CCCC00;stroke-width:2.0px;stroke-linecap:butt;stroke-linejoin:miter;stroke-opacity:1"/>
<path class="bond-28 atom-28 atom-29" d="M 837.0,56.5 L 843.6,51.5" style="fill:none;fill-rule:evenodd;stroke:#CCCC00;stroke-width:2.0px;stroke-linecap:butt;stroke-linejoin:miter;stroke-opacity:1"/>
<path class="bond-28 atom-28 atom-29" d="M 843.6,51.5 L 850.3,46.4" style="fill:none;fill-rule:evenodd;stroke:#000000;stroke-width:2.0px;stroke-linecap:butt;stroke-linejoin:miter;stroke-opacity:1"/>
<path class="bond-29 atom-28 atom-30" d="M 833.3,54.3 L 829.9,49.8" style="fill:none;fill-rule:evenodd;stroke:#CCCC00;stroke-width:2.0px;stroke-linecap:butt;stroke-linejoin:miter;stroke-opacity:1"/>
<path class="bond-29 atom-28 atom-30" d="M 829.9,49.8 L 826.5,45.4" style="fill:none;fill-rule:evenodd;stroke:#FF0000;stroke-width:2.0px;stroke-linecap:butt;stroke-linejoin:miter;stroke-opacity:1"/>
<path class="bond-29 atom-28 atom-30" d="M 830.9,56.1 L 827.5,51.6" style="fill:none;fill-rule:evenodd;stroke:#CCCC00;stroke-width:2.0px;stroke-linecap:butt;stroke-linejoin:miter;stroke-opacity:1"/>
<path class="bond-29 atom-28 atom-30" d="M 827.5,51.6 L 824.1,47.2" style="fill:none;fill-rule:evenodd;stroke:#FF0000;stroke-width:2.0px;stroke-linecap:butt;stroke-linejoin:miter;stroke-opacity:1"/>
<path class="bond-30 atom-28 atom-31" d="M 835.8,62.5 L 839.3,67.0" style="fill:none;fill-rule:evenodd;stroke:#CCCC00;stroke-width:2.0px;stroke-linecap:butt;stroke-linejoin:miter;stroke-opacity:1"/>
<path class="bond-30 atom-28 atom-31" d="M 839.3,67.0 L 842.7,71.5" style="fill:none;fill-rule:evenodd;stroke:#FF0000;stroke-width:2.0px;stroke-linecap:butt;stroke-linejoin:miter;stroke-opacity:1"/>
<path class="bond-30 atom-28 atom-31" d="M 838.2,60.7 L 841.6,65.2" style="fill:none;fill-rule:evenodd;stroke:#CCCC00;stroke-width:2.0px;stroke-linecap:butt;stroke-linejoin:miter;stroke-opacity:1"/>
<path class="bond-30 atom-28 atom-31" d="M 841.6,65.2 L 845.1,69.7" style="fill:none;fill-rule:evenodd;stroke:#FF0000;stroke-width:2.0px;stroke-linecap:butt;stroke-linejoin:miter;stroke-opacity:1"/>
<path class="bond-31 atom-27 atom-32" d="M 818.9,70.4 L 800.6,62.8" style="fill:none;fill-rule:evenodd;stroke:#000000;stroke-width:2.0px;stroke-linecap:butt;stroke-linejoin:miter;stroke-opacity:1"/>
<path class="bond-32 atom-32 atom-33" d="M 800.6,62.8 L 784.9,74.8" style="fill:none;fill-rule:evenodd;stroke:#000000;stroke-width:2.0px;stroke-linecap:butt;stroke-linejoin:miter;stroke-opacity:1"/>
<path class="bond-32 atom-32 atom-33" d="M 801.1,66.2 L 788.1,76.1" style="fill:none;fill-rule:evenodd;stroke:#000000;stroke-width:2.0px;stroke-linecap:butt;stroke-linejoin:miter;stroke-opacity:1"/>
<path class="bond-33 atom-22 atom-3" d="M 753.5,98.8 L 749.0,79.6" style="fill:none;fill-rule:evenodd;stroke:#000000;stroke-width:2.0px;stroke-linecap:butt;stroke-linejoin:miter;stroke-opacity:1"/>
<path class="bond-34 atom-33 atom-24" d="M 784.9,74.8 L 787.5,94.4" style="fill:none;fill-rule:evenodd;stroke:#000000;stroke-width:2.0px;stroke-linecap:butt;stroke-linejoin:miter;stroke-opacity:1"/>
<path class="bond-35 atom-20 atom-6" d="M 699.9,81.2 L 702.4,100.8" style="fill:none;fill-rule:evenodd;stroke:#000000;stroke-width:2.0px;stroke-linecap:butt;stroke-linejoin:miter;stroke-opacity:1"/>
<path d="M 730.2,78.1 L 729.3,78.0 L 729.1,78.4" style="fill:none;stroke:#000000;stroke-width:2.0px;stroke-linecap:butt;stroke-linejoin:miter;stroke-opacity:1;"/>
<path d="M 708.7,118.5 L 709.0,119.4 L 708.4,120.2" style="fill:none;stroke:#000000;stroke-width:2.0px;stroke-linecap:butt;stroke-linejoin:miter;stroke-opacity:1;"/>
<path d="M 696.8,133.7 L 696.1,134.4 L 695.9,134.7" style="fill:none;stroke:#000000;stroke-width:2.0px;stroke-linecap:butt;stroke-linejoin:miter;stroke-opacity:1;"/>
<path d="M 685.5,108.9 L 684.6,109.3 L 683.9,108.6" style="fill:none;stroke:#000000;stroke-width:2.0px;stroke-linecap:butt;stroke-linejoin:miter;stroke-opacity:1;"/>
<path d="M 671.7,95.6 L 671.0,94.9 L 671.2,94.6" style="fill:none;stroke:#000000;stroke-width:2.0px;stroke-linecap:butt;stroke-linejoin:miter;stroke-opacity:1;"/>
<path d="M 672.2,60.1 L 672.0,59.7 L 672.2,59.4" style="fill:none;stroke:#000000;stroke-width:2.0px;stroke-linecap:butt;stroke-linejoin:miter;stroke-opacity:1;"/>
<path d="M 699.5,81.1 L 699.9,81.2 L 700.0,82.2" style="fill:none;stroke:#000000;stroke-width:2.0px;stroke-linecap:butt;stroke-linejoin:miter;stroke-opacity:1;"/>
<path d="M 804.8,101.6 L 805.7,102.0 L 806.5,101.4" style="fill:none;stroke:#000000;stroke-width:2.0px;stroke-linecap:butt;stroke-linejoin:miter;stroke-opacity:1;"/>
<path d="M 820.6,90.6 L 821.4,90.0 L 821.3,89.0" style="fill:none;stroke:#000000;stroke-width:2.0px;stroke-linecap:butt;stroke-linejoin:miter;stroke-opacity:1;"/>
<path d="M 801.5,63.2 L 800.6,62.8 L 799.8,63.4" style="fill:none;stroke:#000000;stroke-width:2.0px;stroke-linecap:butt;stroke-linejoin:miter;stroke-opacity:1;"/>
<path d="M 785.7,74.2 L 784.9,74.8 L 785.1,75.8" style="fill:none;stroke:#000000;stroke-width:2.0px;stroke-linecap:butt;stroke-linejoin:miter;stroke-opacity:1;"/>
<path class="atom-1" d="M 744.8 43.1 L 745.6 43.1 L 745.6 45.5 L 748.5 45.5 L 748.5 43.1 L 749.2 43.1 L 749.2 48.7 L 748.5 48.7 L 748.5 46.1 L 745.6 46.1 L 745.6 48.7 L 744.8 48.7 L 744.8 43.1 " fill="#FF7F00"/>
<path class="atom-1" d="M 750.3 48.5 Q 750.4 48.2, 750.7 48.0 Q 751.1 47.8, 751.5 47.8 Q 752.1 47.8, 752.4 48.1 Q 752.7 48.4, 752.7 48.9 Q 752.7 49.5, 752.3 50.0 Q 751.9 50.5, 751.1 51.1 L 752.8 51.1 L 752.8 51.5 L 750.3 51.5 L 750.3 51.2 Q 751.0 50.7, 751.4 50.3 Q 751.8 50.0, 752.0 49.6 Q 752.2 49.3, 752.2 49.0 Q 752.2 48.6, 752.0 48.4 Q 751.8 48.2, 751.5 48.2 Q 751.2 48.2, 751.0 48.3 Q 750.8 48.5, 750.7 48.7 L 750.3 48.5 " fill="#FF7F00"/>
<path class="atom-1" d="M 755.1 43.1 Q 756.1 43.1, 756.6 43.6 Q 757.0 44.0, 757.0 44.8 Q 757.0 45.6, 756.5 46.0 Q 756.0 46.4, 755.1 46.4 L 754.2 46.4 L 754.2 48.7 L 753.5 48.7 L 753.5 43.1 L 755.1 43.1 M 755.1 45.8 Q 755.7 45.8, 756.0 45.5 Q 756.2 45.3, 756.2 44.8 Q 756.2 44.3, 756.0 44.0 Q 755.7 43.8, 755.1 43.8 L 754.2 43.8 L 754.2 45.8 L 755.1 45.8 " fill="#FF7F00"/>
<path class="atom-2" d="M 760.2 66.5 Q 760.3 66.5, 760.6 66.6 Q 760.8 66.7, 761.1 66.8 Q 761.4 66.9, 761.7 66.9 Q 762.2 66.9, 762.5 66.6 Q 762.8 66.4, 762.8 65.9 Q 762.8 65.6, 762.7 65.4 Q 762.5 65.2, 762.3 65.1 Q 762.0 65.0, 761.6 64.9 Q 761.1 64.8, 760.8 64.6 Q 760.6 64.5, 760.3 64.2 Q 760.1 63.9, 760.1 63.4 Q 760.1 62.7, 760.6 62.2 Q 761.1 61.8, 762.0 61.8 Q 762.7 61.8, 763.4 62.1 L 763.2 62.7 Q 762.6 62.4, 762.1 62.4 Q 761.5 62.4, 761.2 62.7 Q 760.9 62.9, 760.9 63.3 Q 760.9 63.6, 761.1 63.7 Q 761.2 63.9, 761.5 64.0 Q 761.7 64.1, 762.1 64.3 Q 762.6 64.4, 762.9 64.6 Q 763.2 64.7, 763.4 65.1 Q 763.6 65.4, 763.6 65.9 Q 763.6 66.7, 763.1 67.1 Q 762.6 67.5, 761.7 67.5 Q 761.2 67.5, 760.8 67.4 Q 760.5 67.3, 760.0 67.1 L 760.2 66.5 " fill="#CCCC00"/>
<path class="atom-2" d="M 764.4 61.8 L 765.1 61.8 L 765.1 64.2 L 768.0 64.2 L 768.0 61.8 L 768.8 61.8 L 768.8 67.4 L 768.0 67.4 L 768.0 64.8 L 765.1 64.8 L 765.1 67.4 L 764.4 67.4 L 764.4 61.8 " fill="#CCCC00"/>
<path class="atom-5" d="M 720.4 93.4 L 722.3 96.4 Q 722.4 96.7, 722.7 97.2 Q 723.0 97.7, 723.0 97.8 L 723.0 93.4 L 723.8 93.4 L 723.8 99.0 L 723.0 99.0 L 721.1 95.8 Q 720.8 95.4, 720.6 95.0 Q 720.3 94.5, 720.3 94.4 L 720.3 99.0 L 719.5 99.0 L 719.5 93.4 L 720.4 93.4 " fill="#0000FF"/>
<path class="atom-9" d="M 682.0 146.6 L 683.9 149.6 Q 684.1 149.9, 684.4 150.4 Q 684.6 151.0, 684.7 151.0 L 684.7 146.6 L 685.4 146.6 L 685.4 152.2 L 684.6 152.2 L 682.7 149.0 Q 682.4 148.6, 682.2 148.2 Q 682.0 147.7, 681.9 147.6 L 681.9 152.2 L 681.2 152.2 L 681.2 146.6 L 682.0 146.6 " fill="#0000FF"/>
<path class="atom-12" d="M 679.2 74.8 L 681.1 77.7 Q 681.3 78.0, 681.6 78.6 Q 681.8 79.1, 681.9 79.1 L 681.9 74.8 L 682.6 74.8 L 682.6 80.4 L 681.8 80.4 L 679.9 77.1 Q 679.6 76.7, 679.4 76.3 Q 679.2 75.9, 679.1 75.7 L 679.1 80.4 L 678.4 80.4 L 678.4 74.8 L 679.2 74.8 " fill="#0000FF"/>
<path class="atom-14" d="M 649.7 58.2 Q 649.7 56.8, 650.4 56.1 Q 651.1 55.3, 652.3 55.3 Q 653.6 55.3, 654.2 56.1 Q 654.9 56.8, 654.9 58.2 Q 654.9 59.5, 654.2 60.3 Q 653.5 61.1, 652.3 61.1 Q 651.1 61.1, 650.4 60.3 Q 649.7 59.5, 649.7 58.2 M 652.3 60.4 Q 653.2 60.4, 653.6 59.9 Q 654.1 59.3, 654.1 58.2 Q 654.1 57.1, 653.6 56.5 Q 653.2 55.9, 652.3 55.9 Q 651.5 55.9, 651.0 56.5 Q 650.5 57.0, 650.5 58.2 Q 650.5 59.3, 651.0 59.9 Q 651.5 60.4, 652.3 60.4 " fill="#FF0000"/>
<path class="atom-15" d="M 680.7 43.5 Q 680.7 42.1, 681.3 41.4 Q 682.0 40.6, 683.2 40.6 Q 684.5 40.6, 685.1 41.4 Q 685.8 42.1, 685.8 43.5 Q 685.8 44.8, 685.1 45.6 Q 684.5 46.4, 683.2 46.4 Q 682.0 46.4, 681.3 45.6 Q 680.7 44.8, 680.7 43.5 M 683.2 45.7 Q 684.1 45.7, 684.5 45.2 Q 685.0 44.6, 685.0 43.5 Q 685.0 42.4, 684.5 41.8 Q 684.1 41.3, 683.2 41.3 Q 682.4 41.3, 681.9 41.8 Q 681.4 42.4, 681.4 43.5 Q 681.4 44.6, 681.9 45.2 Q 682.4 45.7, 683.2 45.7 " fill="#FF0000"/>
<path class="atom-21" d="M 735.4 106.3 L 737.3 109.3 Q 737.4 109.5, 737.7 110.1 Q 738.0 110.6, 738.0 110.6 L 738.0 106.3 L 738.8 106.3 L 738.8 111.9 L 738.0 111.9 L 736.1 108.6 Q 735.8 108.3, 735.6 107.8 Q 735.3 107.4, 735.3 107.3 L 735.3 111.9 L 734.5 111.9 L 734.5 106.3 L 735.4 106.3 " fill="#0000FF"/>
<path class="atom-23" d="M 770.5 103.6 L 772.4 106.6 Q 772.5 106.8, 772.8 107.4 Q 773.1 107.9, 773.1 107.9 L 773.1 103.6 L 773.9 103.6 L 773.9 109.2 L 773.1 109.2 L 771.2 105.9 Q 770.9 105.6, 770.7 105.1 Q 770.4 104.7, 770.4 104.6 L 770.4 109.2 L 769.6 109.2 L 769.6 103.6 L 770.5 103.6 " fill="#0000FF"/>
<path class="atom-23" d="M 769.6 109.7 L 770.3 109.7 L 770.3 112.1 L 773.2 112.1 L 773.2 109.7 L 774.0 109.7 L 774.0 115.3 L 773.2 115.3 L 773.2 112.8 L 770.3 112.8 L 770.3 115.3 L 769.6 115.3 L 769.6 109.7 " fill="#0000FF"/>
<path class="atom-28" d="M 833.0 60.3 Q 833.0 60.3, 833.3 60.4 Q 833.6 60.6, 833.8 60.6 Q 834.1 60.7, 834.4 60.7 Q 835.0 60.7, 835.3 60.4 Q 835.6 60.2, 835.6 59.7 Q 835.6 59.4, 835.4 59.2 Q 835.3 59.0, 835.0 58.9 Q 834.8 58.8, 834.4 58.7 Q 833.9 58.6, 833.6 58.4 Q 833.3 58.3, 833.1 58.0 Q 832.9 57.7, 832.9 57.2 Q 832.9 56.5, 833.4 56.0 Q 833.8 55.6, 834.8 55.6 Q 835.4 55.6, 836.2 55.9 L 836.0 56.5 Q 835.3 56.2, 834.8 56.2 Q 834.3 56.2, 834.0 56.5 Q 833.7 56.7, 833.7 57.1 Q 833.7 57.4, 833.8 57.6 Q 834.0 57.7, 834.2 57.8 Q 834.4 57.9, 834.8 58.1 Q 835.3 58.2, 835.6 58.4 Q 835.9 58.5, 836.1 58.9 Q 836.4 59.2, 836.4 59.7 Q 836.4 60.5, 835.8 60.9 Q 835.3 61.3, 834.5 61.3 Q 834.0 61.3, 833.6 61.2 Q 833.2 61.1, 832.8 60.9 L 833.0 60.3 " fill="#CCCC00"/>
<path class="atom-30" d="M 820.0 42.7 Q 820.0 41.4, 820.7 40.6 Q 821.3 39.9, 822.6 39.9 Q 823.8 39.9, 824.5 40.6 Q 825.1 41.4, 825.1 42.7 Q 825.1 44.1, 824.5 44.8 Q 823.8 45.6, 822.6 45.6 Q 821.3 45.6, 820.7 44.8 Q 820.0 44.1, 820.0 42.7 M 822.6 45.0 Q 823.4 45.0, 823.9 44.4 Q 824.3 43.8, 824.3 42.7 Q 824.3 41.6, 823.9 41.1 Q 823.4 40.5, 822.6 40.5 Q 821.7 40.5, 821.2 41.0 Q 820.8 41.6, 820.8 42.7 Q 820.8 43.8, 821.2 44.4 Q 821.7 45.0, 822.6 45.0 " fill="#FF0000"/>
<path class="atom-31" d="M 844.0 74.1 Q 844.0 72.8, 844.7 72.0 Q 845.3 71.3, 846.6 71.3 Q 847.8 71.3, 848.5 72.0 Q 849.1 72.8, 849.1 74.1 Q 849.1 75.5, 848.5 76.2 Q 847.8 77.0, 846.6 77.0 Q 845.3 77.0, 844.7 76.2 Q 844.0 75.5, 844.0 74.1 M 846.6 76.4 Q 847.4 76.4, 847.9 75.8 Q 848.3 75.2, 848.3 74.1 Q 848.3 73.0, 847.9 72.5 Q 847.4 71.9, 846.6 71.9 Q 845.7 71.9, 845.2 72.4 Q 844.8 73.0, 844.8 74.1 Q 844.8 75.2, 845.2 75.8 Q 845.7 76.4, 846.6 76.4 " fill="#FF0000"/>
<path class="atom-0" d="M 770.9,31.7 L 770.9,31.8 L 770.9,31.8 L 770.9,31.8 L 770.9,31.9 L 770.8,31.9 L 770.8,31.9 L 770.8,31.9 L 770.8,32.0 L 770.8,32.0 L 770.7,32.0 L 770.7,32.0 L 770.7,32.1 L 770.7,32.1 L 770.6,32.1 L 770.6,32.1 L 770.6,32.1 L 770.5,32.1 L 770.5,32.1 L 770.5,32.1 L 770.4,32.1 L 770.4,32.1 L 770.4,32.1 L 770.3,32.1 L 770.3,32.1 L 770.3,32.1 L 770.2,32.0 L 770.2,32.0 L 770.2,32.0 L 770.2,32.0 L 770.1,31.9 L 770.1,31.9 L 770.1,31.9 L 770.1,31.8 L 770.1,31.8 L 770.1,31.8 L 770.1,31.7 L 770.1,31.7 L 770.1,31.7 L 770.1,31.6 L 770.1,31.6 L 770.1,31.6 L 770.1,31.5 L 770.1,31.5 L 770.2,31.5 L 770.2,31.5 L 770.2,31.4 L 770.2,31.4 L 770.3,31.4 L 770.3,31.4 L 770.3,31.4 L 770.4,31.3 L 770.4,31.3 L 770.4,31.3 L 770.5,31.3 L 770.5,31.3 L 770.5,31.3 L 770.6,31.3 L 770.6,31.3 L 770.6,31.4 L 770.7,31.4 L 770.7,31.4 L 770.7,31.4 L 770.7,31.4 L 770.8,31.4 L 770.8,31.5 L 770.8,31.5 L 770.8,31.5 L 770.8,31.6 L 770.9,31.6 L 770.9,31.6 L 770.9,31.7 L 770.9,31.7 L 770.9,31.7 L 770.5,31.7 Z" style="fill:#000000;fill-rule:evenodd;fill-opacity:1;stroke:#000000;stroke-width:0.0px;stroke-linecap:butt;stroke-linejoin:miter;stroke-opacity:1;"/>
<path class="atom-0" d="M 770.9,30.1 L 770.9,30.2 L 770.9,30.2 L 770.9,30.2 L 770.9,30.3 L 770.8,30.3 L 770.8,30.3 L 770.8,30.4 L 770.8,30.4 L 770.8,30.4 L 770.7,30.4 L 770.7,30.5 L 770.7,30.5 L 770.7,30.5 L 770.6,30.5 L 770.6,30.5 L 770.6,30.5 L 770.5,30.5 L 770.5,30.5 L 770.5,30.5 L 770.4,30.5 L 770.4,30.5 L 770.4,30.5 L 770.3,30.5 L 770.3,30.5 L 770.3,30.5 L 770.2,30.5 L 770.2,30.4 L 770.2,30.4 L 770.2,30.4 L 770.1,30.4 L 770.1,30.3 L 770.1,30.3 L 770.1,30.3 L 770.1,30.2 L 770.1,30.2 L 770.1,30.2 L 770.1,30.1 L 770.1,30.1 L 770.1,30.1 L 770.1,30.0 L 770.1,30.0 L 770.1,30.0 L 770.1,29.9 L 770.2,29.9 L 770.2,29.9 L 770.2,29.9 L 770.2,29.8 L 770.3,29.8 L 770.3,29.8 L 770.3,29.8 L 770.4,29.8 L 770.4,29.8 L 770.4,29.8 L 770.5,29.7 L 770.5,29.7 L 770.5,29.7 L 770.6,29.8 L 770.6,29.8 L 770.6,29.8 L 770.7,29.8 L 770.7,29.8 L 770.7,29.8 L 770.7,29.8 L 770.8,29.9 L 770.8,29.9 L 770.8,29.9 L 770.8,29.9 L 770.8,30.0 L 770.9,30.0 L 770.9,30.0 L 770.9,30.1 L 770.9,30.1 L 770.9,30.1 L 770.5,30.1 Z" style="fill:#000000;fill-rule:evenodd;fill-opacity:1;stroke:#000000;stroke-width:0.0px;stroke-linecap:butt;stroke-linejoin:miter;stroke-opacity:1;"/>
<path class="atom-2" d="M 770.3,64.6 L 770.3,64.6 L 770.3,64.6 L 770.3,64.7 L 770.3,64.7 L 770.3,64.7 L 770.3,64.8 L 770.3,64.8 L 770.2,64.8 L 770.2,64.8 L 770.2,64.9 L 770.2,64.9 L 770.1,64.9 L 770.1,64.9 L 770.1,64.9 L 770.0,65.0 L 770.0,65.0 L 770.0,65.0 L 769.9,65.0 L 769.9,65.0 L 769.9,65.0 L 769.8,65.0 L 769.8,64.9 L 769.8,64.9 L 769.8,64.9 L 769.7,64.9 L 769.7,64.9 L 769.7,64.9 L 769.6,64.8 L 769.6,64.8 L 769.6,64.8 L 769.6,64.8 L 769.6,64.7 L 769.6,64.7 L 769.6,64.7 L 769.5,64.6 L 769.5,64.6 L 769.5,64.6 L 769.5,64.5 L 769.6,64.5 L 769.6,64.5 L 769.6,64.4 L 769.6,64.4 L 769.6,64.4 L 769.6,64.3 L 769.6,64.3 L 769.7,64.3 L 769.7,64.3 L 769.7,64.2 L 769.8,64.2 L 769.8,64.2 L 769.8,64.2 L 769.8,64.2 L 769.9,64.2 L 769.9,64.2 L 769.9,64.2 L 770.0,64.2 L 770.0,64.2 L 770.0,64.2 L 770.1,64.2 L 770.1,64.2 L 770.1,64.2 L 770.2,64.2 L 770.2,64.3 L 770.2,64.3 L 770.2,64.3 L 770.3,64.3 L 770.3,64.4 L 770.3,64.4 L 770.3,64.4 L 770.3,64.5 L 770.3,64.5 L 770.3,64.5 L 770.3,64.6 L 769.9,64.6 Z" style="fill:#000000;fill-rule:evenodd;fill-opacity:1;stroke:#000000;stroke-width:0.0px;stroke-linecap:butt;stroke-linejoin:miter;stroke-opacity:1;"/>
</svg>