<svg xmlns="http://www.w3.org/2000/svg" xmlns:rdkit="http://www.rdkit.org/xml" xmlns:xlink="http://www.w3.org/1999/xlink" version="1.1" baseProfile="full" xml:space="preserve" width="900px" height="160px" viewBox="0 0 900 160">
<!-- END OF HEADER -->
<rect style="opacity:1.0;fill:#FFFFFF;stroke:none" width="900.0" height="160.0" x="0.0" y="0.0"> </rect>
<path class="bond-0 atom-0 atom-1" d="M 91.8,98.9 L 95.9,105.2" style="fill:none;fill-rule:evenodd;stroke:#000000;stroke-width:2.0px;stroke-linecap:butt;stroke-linejoin:miter;stroke-opacity:1"/>
<path class="bond-0 atom-0 atom-1" d="M 95.9,105.2 L 100.0,111.5" style="fill:none;fill-rule:evenodd;stroke:#0000FF;stroke-width:2.0px;stroke-linecap:butt;stroke-linejoin:miter;stroke-opacity:1"/>
<path class="bond-1 atom-1 atom-2" d="M 104.8,114.7 L 111.8,114.3" style="fill:none;fill-rule:evenodd;stroke:#0000FF;stroke-width:2.0px;stroke-linecap:butt;stroke-linejoin:miter;stroke-opacity:1"/>
<path class="bond-1 atom-1 atom-2" d="M 111.8,114.3 L 118.8,114.0" style="fill:none;fill-rule:evenodd;stroke:#CCCC00;stroke-width:2.0px;stroke-linecap:butt;stroke-linejoin:miter;stroke-opacity:1"/>
<path class="bond-2 atom-2 atom-3" d="M 123.4,117.3 L 127.4,123.5" style="fill:none;fill-rule:evenodd;stroke:#CCCC00;stroke-width:2.0px;stroke-linecap:butt;stroke-linejoin:miter;stroke-opacity:1"/>
<path class="bond-2 atom-2 atom-3" d="M 127.4,123.5 L 131.5,129.8" style="fill:none;fill-rule:evenodd;stroke:#000000;stroke-width:2.0px;stroke-linecap:butt;stroke-linejoin:miter;stroke-opacity:1"/>
<path class="bond-3 atom-3 atom-4" d="M 131.5,129.8 L 138.7,126.7" style="fill:none;fill-rule:evenodd;stroke:#000000;stroke-width:2.0px;stroke-linecap:butt;stroke-linejoin:miter;stroke-opacity:1"/>
<path class="bond-3 atom-3 atom-4" d="M 138.7,126.7 L 145.9,123.7" style="fill:none;fill-rule:evenodd;stroke:#FF0000;stroke-width:2.0px;stroke-linecap:butt;stroke-linejoin:miter;stroke-opacity:1"/>
<path class="bond-4 atom-4 atom-5" d="M 149.4,119.0 L 150.3,111.3" style="fill:none;fill-rule:evenodd;stroke:#FF0000;stroke-width:2.0px;stroke-linecap:butt;stroke-linejoin:miter;stroke-opacity:1"/>
<path class="bond-4 atom-4 atom-5" d="M 150.3,111.3 L 151.3,103.5" style="fill:none;fill-rule:evenodd;stroke:#000000;stroke-width:2.0px;stroke-linecap:butt;stroke-linejoin:miter;stroke-opacity:1"/>
<path class="bond-5 atom-5 atom-6" d="M 151.3,103.5 L 137.4,90.5" style="fill:none;fill-rule:evenodd;stroke:#000000;stroke-width:2.0px;stroke-linecap:butt;stroke-linejoin:miter;stroke-opacity:1"/>
<path class="bond-5 atom-5 atom-6" d="M 151.7,100.0 L 140.9,89.9" style="fill:none;fill-rule:evenodd;stroke:#000000;stroke-width:2.0px;stroke-linecap:butt;stroke-linejoin:miter;stroke-opacity:1"/>
<path class="bond-6 atom-6 atom-7" d="M 137.4,90.5 L 140.6,83.6" style="fill:none;fill-rule:evenodd;stroke:#000000;stroke-width:2.0px;stroke-linecap:butt;stroke-linejoin:miter;stroke-opacity:1"/>
<path class="bond-6 atom-6 atom-7" d="M 140.6,83.6 L 143.9,76.6" style="fill:none;fill-rule:evenodd;stroke:#0000FF;stroke-width:2.0px;stroke-linecap:butt;stroke-linejoin:miter;stroke-opacity:1"/>
<path class="bond-7 atom-7 atom-8" d="M 143.6,70.0 L 139.9,63.4" style="fill:none;fill-rule:evenodd;stroke:#0000FF;stroke-width:2.0px;stroke-linecap:butt;stroke-linejoin:miter;stroke-opacity:1"/>
<path class="bond-7 atom-7 atom-8" d="M 139.9,63.4 L 136.2,56.7" style="fill:none;fill-rule:evenodd;stroke:#000000;stroke-width:2.0px;stroke-linecap:butt;stroke-linejoin:miter;stroke-opacity:1"/>
<path class="bond-8 atom-8 atom-9" d="M 136.2,56.7 L 153.7,49.3" style="fill:none;fill-rule:evenodd;stroke:#000000;stroke-width:2.0px;stroke-linecap:butt;stroke-linejoin:miter;stroke-opacity:1"/>
<path class="bond-9 atom-9 atom-10" d="M 153.7,49.3 L 156.0,30.4" style="fill:none;fill-rule:evenodd;stroke:#000000;stroke-width:2.0px;stroke-linecap:butt;stroke-linejoin:miter;stroke-opacity:1"/>
<path class="bond-10 atom-10 atom-11" d="M 156.0,30.4 L 157.0,22.6" style="fill:none;fill-rule:evenodd;stroke:#000000;stroke-width:2.0px;stroke-linecap:butt;stroke-linejoin:miter;stroke-opacity:1"/>
<path class="bond-10 atom-10 atom-11" d="M 157.0,22.6 L 157.9,14.9" style="fill:none;fill-rule:evenodd;stroke:#0000FF;stroke-width:2.0px;stroke-linecap:butt;stroke-linejoin:miter;stroke-opacity:1"/>
<path class="bond-10 atom-10 atom-11" d="M 153.2,30.1 L 154.1,22.3" style="fill:none;fill-rule:evenodd;stroke:#000000;stroke-width:2.0px;stroke-linecap:butt;stroke-linejoin:miter;stroke-opacity:1"/>
<path class="bond-10 atom-10 atom-11" d="M 154.1,22.3 L 155.1,14.5" style="fill:none;fill-rule:evenodd;stroke:#0000FF;stroke-width:2.0px;stroke-linecap:butt;stroke-linejoin:miter;stroke-opacity:1"/>
<path class="bond-10 atom-10 atom-11" d="M 158.8,30.8 L 159.8,23.0" style="fill:none;fill-rule:evenodd;stroke:#000000;stroke-width:2.0px;stroke-linecap:butt;stroke-linejoin:miter;stroke-opacity:1"/>
<path class="bond-10 atom-10 atom-11" d="M 159.8,23.0 L 160.7,15.2" style="fill:none;fill-rule:evenodd;stroke:#0000FF;stroke-width:2.0px;stroke-linecap:butt;stroke-linejoin:miter;stroke-opacity:1"/>
<path class="bond-11 atom-8 atom-12" d="M 136.2,56.7 L 130.6,38.5" style="fill:none;fill-rule:evenodd;stroke:#000000;stroke-width:2.0px;stroke-linecap:butt;stroke-linejoin:miter;stroke-opacity:1"/>
<path class="bond-12 atom-12 atom-13" d="M 130.6,38.5 L 111.6,38.2" style="fill:none;fill-rule:evenodd;stroke:#000000;stroke-width:2.0px;stroke-linecap:butt;stroke-linejoin:miter;stroke-opacity:1"/>
<path class="bond-13 atom-13 atom-14" d="M 111.6,38.2 L 109.1,45.5" style="fill:none;fill-rule:evenodd;stroke:#000000;stroke-width:2.0px;stroke-linecap:butt;stroke-linejoin:miter;stroke-opacity:1"/>
<path class="bond-13 atom-13 atom-14" d="M 109.1,45.5 L 106.6,52.9" style="fill:none;fill-rule:evenodd;stroke:#0000FF;stroke-width:2.0px;stroke-linecap:butt;stroke-linejoin:miter;stroke-opacity:1"/>
<path class="bond-14 atom-14 atom-15" d="M 102.8,57.0 L 95.1,59.4" style="fill:none;fill-rule:evenodd;stroke:#0000FF;stroke-width:2.0px;stroke-linecap:butt;stroke-linejoin:miter;stroke-opacity:1"/>
<path class="bond-14 atom-14 atom-15" d="M 95.1,59.4 L 87.3,61.7" style="fill:none;fill-rule:evenodd;stroke:#000000;stroke-width:2.0px;stroke-linecap:butt;stroke-linejoin:miter;stroke-opacity:1"/>
<path class="bond-15 atom-15 atom-16" d="M 86.1,60.6 L 84.3,68.6" style="fill:none;fill-rule:evenodd;stroke:#000000;stroke-width:2.0px;stroke-linecap:butt;stroke-linejoin:miter;stroke-opacity:1"/>
<path class="bond-15 atom-15 atom-16" d="M 84.3,68.6 L 82.4,76.6" style="fill:none;fill-rule:evenodd;stroke:#FF0000;stroke-width:2.0px;stroke-linecap:butt;stroke-linejoin:miter;stroke-opacity:1"/>
<path class="bond-15 atom-15 atom-16" d="M 88.9,61.3 L 87.0,69.2" style="fill:none;fill-rule:evenodd;stroke:#000000;stroke-width:2.0px;stroke-linecap:butt;stroke-linejoin:miter;stroke-opacity:1"/>
<path class="bond-15 atom-15 atom-16" d="M 87.0,69.2 L 85.2,77.2" style="fill:none;fill-rule:evenodd;stroke:#FF0000;stroke-width:2.0px;stroke-linecap:butt;stroke-linejoin:miter;stroke-opacity:1"/>
<path class="bond-16 atom-15 atom-17" d="M 87.3,61.7 L 81.9,56.7" style="fill:none;fill-rule:evenodd;stroke:#000000;stroke-width:2.0px;stroke-linecap:butt;stroke-linejoin:miter;stroke-opacity:1"/>
<path class="bond-16 atom-15 atom-17" d="M 81.9,56.7 L 76.5,51.7" style="fill:none;fill-rule:evenodd;stroke:#FF0000;stroke-width:2.0px;stroke-linecap:butt;stroke-linejoin:miter;stroke-opacity:1"/>
<path class="bond-17 atom-17 atom-18" d="M 70.3,49.7 L 62.8,52.0" style="fill:none;fill-rule:evenodd;stroke:#FF0000;stroke-width:2.0px;stroke-linecap:butt;stroke-linejoin:miter;stroke-opacity:1"/>
<path class="bond-17 atom-17 atom-18" d="M 62.8,52.0 L 55.2,54.3" style="fill:none;fill-rule:evenodd;stroke:#000000;stroke-width:2.0px;stroke-linecap:butt;stroke-linejoin:miter;stroke-opacity:1"/>
<path class="bond-18 atom-18 atom-19" d="M 55.2,54.3 L 49.7,36.2" style="fill:none;fill-rule:evenodd;stroke:#000000;stroke-width:2.0px;stroke-linecap:butt;stroke-linejoin:miter;stroke-opacity:1"/>
<path class="bond-19 atom-18 atom-20" d="M 55.2,54.3 L 60.8,72.5" style="fill:none;fill-rule:evenodd;stroke:#000000;stroke-width:2.0px;stroke-linecap:butt;stroke-linejoin:miter;stroke-opacity:1"/>
<path class="bond-20 atom-18 atom-21" d="M 55.2,54.3 L 37.1,59.9" style="fill:none;fill-rule:evenodd;stroke:#000000;stroke-width:2.0px;stroke-linecap:butt;stroke-linejoin:miter;stroke-opacity:1"/>
<path class="bond-21 atom-14 atom-22" d="M 108.1,58.2 L 114.4,62.9" style="fill:none;fill-rule:evenodd;stroke:#0000FF;stroke-width:2.0px;stroke-linecap:butt;stroke-linejoin:miter;stroke-opacity:1"/>
<path class="bond-21 atom-14 atom-22" d="M 114.4,62.9 L 120.6,67.6" style="fill:none;fill-rule:evenodd;stroke:#000000;stroke-width:2.0px;stroke-linecap:butt;stroke-linejoin:miter;stroke-opacity:1"/>
<path class="bond-22 atom-7 atom-23" d="M 148.1,73.6 L 161.6,75.3" style="fill:none;fill-rule:evenodd;stroke:#0000FF;stroke-width:2.0px;stroke-linecap:butt;stroke-linejoin:miter;stroke-opacity:1"/>
<path class="bond-23 atom-23 atom-24" d="M 164.9,78.9 L 166.4,86.6" style="fill:none;fill-rule:evenodd;stroke:#0000FF;stroke-width:2.0px;stroke-linecap:butt;stroke-linejoin:miter;stroke-opacity:1"/>
<path class="bond-23 atom-23 atom-24" d="M 166.4,86.6 L 167.9,94.3" style="fill:none;fill-rule:evenodd;stroke:#000000;stroke-width:2.0px;stroke-linecap:butt;stroke-linejoin:miter;stroke-opacity:1"/>
<path class="bond-23 atom-23 atom-24" d="M 162.1,79.5 L 163.4,86.1" style="fill:none;fill-rule:evenodd;stroke:#0000FF;stroke-width:2.0px;stroke-linecap:butt;stroke-linejoin:miter;stroke-opacity:1"/>
<path class="bond-23 atom-23 atom-24" d="M 163.4,86.1 L 164.7,92.8" style="fill:none;fill-rule:evenodd;stroke:#000000;stroke-width:2.0px;stroke-linecap:butt;stroke-linejoin:miter;stroke-opacity:1"/>
<path class="bond-24 atom-24 atom-25" d="M 167.9,94.3 L 175.2,97.7" style="fill:none;fill-rule:evenodd;stroke:#000000;stroke-width:2.0px;stroke-linecap:butt;stroke-linejoin:miter;stroke-opacity:1"/>
<path class="bond-24 atom-24 atom-25" d="M 175.2,97.7 L 182.5,101.1" style="fill:none;fill-rule:evenodd;stroke:#0000FF;stroke-width:2.0px;stroke-linecap:butt;stroke-linejoin:miter;stroke-opacity:1"/>
<path class="bond-25 atom-25 atom-26" d="M 187.8,100.4 L 194.2,95.9" style="fill:none;fill-rule:evenodd;stroke:#0000FF;stroke-width:2.0px;stroke-linecap:butt;stroke-linejoin:miter;stroke-opacity:1"/>
<path class="bond-25 atom-25 atom-26" d="M 194.2,95.9 L 200.7,91.4" style="fill:none;fill-rule:evenodd;stroke:#000000;stroke-width:2.0px;stroke-linecap:butt;stroke-linejoin:miter;stroke-opacity:1"/>
<path class="bond-26 atom-26 atom-27" d="M 200.7,91.4 L 217.9,99.4" style="fill:none;fill-rule:evenodd;stroke:#000000;stroke-width:2.0px;stroke-linecap:butt;stroke-linejoin:miter;stroke-opacity:1"/>
<path class="bond-26 atom-26 atom-27" d="M 203.4,89.5 L 217.6,96.2" style="fill:none;fill-rule:evenodd;stroke:#000000;stroke-width:2.0px;stroke-linecap:butt;stroke-linejoin:miter;stroke-opacity:1"/>
<path class="bond-27 atom-27 atom-28" d="M 217.9,99.4 L 233.5,88.5" style="fill:none;fill-rule:evenodd;stroke:#000000;stroke-width:2.0px;stroke-linecap:butt;stroke-linejoin:miter;stroke-opacity:1"/>
<path class="bond-28 atom-28 atom-29" d="M 233.5,88.5 L 231.8,69.6" style="fill:none;fill-rule:evenodd;stroke:#000000;stroke-width:2.0px;stroke-linecap:butt;stroke-linejoin:miter;stroke-opacity:1"/>
<path class="bond-28 atom-28 atom-29" d="M 230.5,87.1 L 229.1,71.5" style="fill:none;fill-rule:evenodd;stroke:#000000;stroke-width:2.0px;stroke-linecap:butt;stroke-linejoin:miter;stroke-opacity:1"/>
<path class="bond-29 atom-29 atom-30" d="M 231.8,69.6 L 238.4,65.0" style="fill:none;fill-rule:evenodd;stroke:#000000;stroke-width:2.0px;stroke-linecap:butt;stroke-linejoin:miter;stroke-opacity:1"/>
<path class="bond-29 atom-29 atom-30" d="M 238.4,65.0 L 245.0,60.3" style="fill:none;fill-rule:evenodd;stroke:#CCCC00;stroke-width:2.0px;stroke-linecap:butt;stroke-linejoin:miter;stroke-opacity:1"/>
<path class="bond-30 atom-30 atom-31" d="M 249.7,57.1 L 256.3,52.4" style="fill:none;fill-rule:evenodd;stroke:#CCCC00;stroke-width:2.0px;stroke-linecap:butt;stroke-linejoin:miter;stroke-opacity:1"/>
<path class="bond-30 atom-30 atom-31" d="M 256.3,52.4 L 262.9,47.8" style="fill:none;fill-rule:evenodd;stroke:#000000;stroke-width:2.0px;stroke-linecap:butt;stroke-linejoin:miter;stroke-opacity:1"/>
<path class="bond-31 atom-30 atom-32" d="M 246.2,54.6 L 243.1,50.2" style="fill:none;fill-rule:evenodd;stroke:#CCCC00;stroke-width:2.0px;stroke-linecap:butt;stroke-linejoin:miter;stroke-opacity:1"/>
<path class="bond-31 atom-30 atom-32" d="M 243.1,50.2 L 240.0,45.8" style="fill:none;fill-rule:evenodd;stroke:#FF0000;stroke-width:2.0px;stroke-linecap:butt;stroke-linejoin:miter;stroke-opacity:1"/>
<path class="bond-31 atom-30 atom-32" d="M 243.9,56.2 L 240.8,51.8" style="fill:none;fill-rule:evenodd;stroke:#CCCC00;stroke-width:2.0px;stroke-linecap:butt;stroke-linejoin:miter;stroke-opacity:1"/>
<path class="bond-31 atom-30 atom-32" d="M 240.8,51.8 L 237.7,47.4" style="fill:none;fill-rule:evenodd;stroke:#FF0000;stroke-width:2.0px;stroke-linecap:butt;stroke-linejoin:miter;stroke-opacity:1"/>
<path class="bond-32 atom-30 atom-33" d="M 248.6,62.9 L 251.7,67.3" style="fill:none;fill-rule:evenodd;stroke:#CCCC00;stroke-width:2.0px;stroke-linecap:butt;stroke-linejoin:miter;stroke-opacity:1"/>
<path class="bond-32 atom-30 atom-33" d="M 251.7,67.3 L 254.8,71.7" style="fill:none;fill-rule:evenodd;stroke:#FF0000;stroke-width:2.0px;stroke-linecap:butt;stroke-linejoin:miter;stroke-opacity:1"/>
<path class="bond-32 atom-30 atom-33" d="M 250.9,61.2 L 254.0,65.7" style="fill:none;fill-rule:evenodd;stroke:#CCCC00;stroke-width:2.0px;stroke-linecap:butt;stroke-linejoin:miter;stroke-opacity:1"/>
<path class="bond-32 atom-30 atom-33" d="M 254.0,65.7 L 257.1,70.1" style="fill:none;fill-rule:evenodd;stroke:#FF0000;stroke-width:2.0px;stroke-linecap:butt;stroke-linejoin:miter;stroke-opacity:1"/>
<path class="bond-33 atom-29 atom-34" d="M 231.8,69.6 L 214.6,61.6" style="fill:none;fill-rule:evenodd;stroke:#000000;stroke-width:2.0px;stroke-linecap:butt;stroke-linejoin:miter;stroke-opacity:1"/>
<path class="bond-34 atom-34 atom-35" d="M 214.6,61.6 L 199.0,72.5" style="fill:none;fill-rule:evenodd;stroke:#000000;stroke-width:2.0px;stroke-linecap:butt;stroke-linejoin:miter;stroke-opacity:1"/>
<path class="bond-34 atom-34 atom-35" d="M 214.9,64.9 L 202.0,73.9" style="fill:none;fill-rule:evenodd;stroke:#000000;stroke-width:2.0px;stroke-linecap:butt;stroke-linejoin:miter;stroke-opacity:1"/>
<path class="bond-35 atom-3 atom-36" d="M 131.5,129.8 L 117.6,142.7" style="fill:none;fill-rule:evenodd;stroke:#000000;stroke-width:2.0px;stroke-linecap:butt;stroke-linejoin:miter;stroke-opacity:1"/>
<path class="bond-36 atom-36 atom-37" d="M 117.6,142.7 L 125.5,145.2" style="fill:none;fill-rule:evenodd;stroke:#000000;stroke-width:2.0px;stroke-linecap:butt;stroke-linejoin:miter;stroke-opacity:1"/>
<path class="bond-36 atom-36 atom-37" d="M 125.5,145.2 L 133.4,147.6" style="fill:none;fill-rule:evenodd;stroke:#CCCC00;stroke-width:2.0px;stroke-linecap:butt;stroke-linejoin:miter;stroke-opacity:1"/>
<path class="bond-36 atom-36 atom-37" d="M 123.2,141.5 L 128.7,143.2" style="fill:none;fill-rule:evenodd;stroke:#000000;stroke-width:2.0px;stroke-linecap:butt;stroke-linejoin:miter;stroke-opacity:1"/>
<path class="bond-36 atom-36 atom-37" d="M 128.7,143.2 L 134.3,144.9" style="fill:none;fill-rule:evenodd;stroke:#CCCC00;stroke-width:2.0px;stroke-linecap:butt;stroke-linejoin:miter;stroke-opacity:1"/>
<path class="bond-37 atom-37 atom-3" d="M 135.0,145.0 L 133.3,137.4" style="fill:none;fill-rule:evenodd;stroke:#CCCC00;stroke-width:2.0px;stroke-linecap:butt;stroke-linejoin:miter;stroke-opacity:1"/>
<path class="bond-37 atom-37 atom-3" d="M 133.3,137.4 L 131.5,129.8" style="fill:none;fill-rule:evenodd;stroke:#000000;stroke-width:2.0px;stroke-linecap:butt;stroke-linejoin:miter;stroke-opacity:1"/>
<path class="bond-38 atom-24 atom-5" d="M 167.9,94.3 L 151.3,103.5" style="fill:none;fill-rule:evenodd;stroke:#000000;stroke-width:2.0px;stroke-linecap:butt;stroke-linejoin:miter;stroke-opacity:1"/>
<path class="bond-39 atom-35 atom-26" d="M 199.0,72.5 L 200.7,91.4" style="fill:none;fill-rule:evenodd;stroke:#000000;stroke-width:2.0px;stroke-linecap:butt;stroke-linejoin:miter;stroke-opacity:1"/>
<path class="bond-40 atom-22 atom-8" d="M 120.6,67.6 L 136.2,56.7" style="fill:none;fill-rule:evenodd;stroke:#000000;stroke-width:2.0px;stroke-linecap:butt;stroke-linejoin:miter;stroke-opacity:1"/>
<path d="M 138.1,91.2 L 137.4,90.5 L 137.6,90.2" style="fill:none;stroke:#000000;stroke-width:2.0px;stroke-linecap:butt;stroke-linejoin:miter;stroke-opacity:1;"/>
<path d="M 152.8,49.6 L 153.7,49.3 L 153.8,48.3" style="fill:none;stroke:#000000;stroke-width:2.0px;stroke-linecap:butt;stroke-linejoin:miter;stroke-opacity:1;"/>
<path d="M 155.9,31.4 L 156.0,30.4 L 156.1,30.0" style="fill:none;stroke:#000000;stroke-width:2.0px;stroke-linecap:butt;stroke-linejoin:miter;stroke-opacity:1;"/>
<path d="M 130.9,39.4 L 130.6,38.5 L 129.7,38.5" style="fill:none;stroke:#000000;stroke-width:2.0px;stroke-linecap:butt;stroke-linejoin:miter;stroke-opacity:1;"/>
<path d="M 112.6,38.2 L 111.6,38.2 L 111.5,38.6" style="fill:none;stroke:#000000;stroke-width:2.0px;stroke-linecap:butt;stroke-linejoin:miter;stroke-opacity:1;"/>
<path d="M 87.7,61.6 L 87.3,61.7 L 87.0,61.5" style="fill:none;stroke:#000000;stroke-width:2.0px;stroke-linecap:butt;stroke-linejoin:miter;stroke-opacity:1;"/>
<path d="M 120.3,67.4 L 120.6,67.6 L 121.4,67.1" style="fill:none;stroke:#000000;stroke-width:2.0px;stroke-linecap:butt;stroke-linejoin:miter;stroke-opacity:1;"/>
<path d="M 217.1,99.0 L 217.9,99.4 L 218.7,98.9" style="fill:none;stroke:#000000;stroke-width:2.0px;stroke-linecap:butt;stroke-linejoin:miter;stroke-opacity:1;"/>
<path d="M 232.7,89.1 L 233.5,88.5 L 233.4,87.6" style="fill:none;stroke:#000000;stroke-width:2.0px;stroke-linecap:butt;stroke-linejoin:miter;stroke-opacity:1;"/>
<path d="M 215.5,62.0 L 214.6,61.6 L 213.8,62.1" style="fill:none;stroke:#000000;stroke-width:2.0px;stroke-linecap:butt;stroke-linejoin:miter;stroke-opacity:1;"/>
<path d="M 199.8,71.9 L 199.0,72.5 L 199.1,73.4" style="fill:none;stroke:#000000;stroke-width:2.0px;stroke-linecap:butt;stroke-linejoin:miter;stroke-opacity:1;"/>
<path d="M 118.3,142.1 L 117.6,142.7 L 118.0,142.9" style="fill:none;stroke:#000000;stroke-width:2.0px;stroke-linecap:butt;stroke-linejoin:miter;stroke-opacity:1;"/>
<path class="atom-1" d="M 101.0 112.2 L 102.7 115.0 Q 102.9 115.3, 103.2 115.8 Q 103.5 116.3, 103.5 116.3 L 103.5 112.2 L 104.2 112.2 L 104.2 117.5 L 103.5 117.5 L 101.6 114.4 Q 101.4 114.1, 101.1 113.6 Q 100.9 113.2, 100.8 113.1 L 100.8 117.5 L 100.1 117.5 L 100.1 112.2 L 101.0 112.2 " fill="#0000FF"/>
<path class="atom-2" d="M 119.6 115.7 Q 119.7 115.7, 119.9 115.8 Q 120.2 115.9, 120.5 116.0 Q 120.7 116.1, 121.0 116.1 Q 121.5 116.1, 121.8 115.8 Q 122.1 115.6, 122.1 115.1 Q 122.1 114.8, 122.0 114.7 Q 121.8 114.5, 121.6 114.4 Q 121.4 114.3, 121.0 114.2 Q 120.5 114.0, 120.2 113.9 Q 119.9 113.8, 119.7 113.5 Q 119.5 113.2, 119.5 112.7 Q 119.5 112.0, 120.0 111.6 Q 120.5 111.2, 121.4 111.2 Q 122.0 111.2, 122.7 111.5 L 122.5 112.1 Q 121.9 111.8, 121.4 111.8 Q 120.9 111.8, 120.6 112.0 Q 120.3 112.2, 120.3 112.6 Q 120.3 112.9, 120.4 113.1 Q 120.6 113.2, 120.8 113.3 Q 121.0 113.4, 121.4 113.5 Q 121.9 113.7, 122.2 113.9 Q 122.5 114.0, 122.7 114.3 Q 122.9 114.6, 122.9 115.1 Q 122.9 115.9, 122.4 116.3 Q 121.9 116.7, 121.0 116.7 Q 120.6 116.7, 120.2 116.6 Q 119.8 116.5, 119.4 116.3 L 119.6 115.7 " fill="#CCCC00"/>
<path class="atom-2" d="M 123.6 111.2 L 124.3 111.2 L 124.3 113.4 L 127.1 113.4 L 127.1 111.2 L 127.8 111.2 L 127.8 116.5 L 127.1 116.5 L 127.1 114.1 L 124.3 114.1 L 124.3 116.5 L 123.6 116.5 L 123.6 111.2 " fill="#CCCC00"/>
<path class="atom-4" d="M 146.5 122.4 Q 146.5 121.1, 147.2 120.4 Q 147.8 119.6, 149.0 119.6 Q 150.2 119.6, 150.8 120.4 Q 151.5 121.1, 151.5 122.4 Q 151.5 123.7, 150.8 124.4 Q 150.2 125.2, 149.0 125.2 Q 147.8 125.2, 147.2 124.4 Q 146.5 123.7, 146.5 122.4 M 149.0 124.6 Q 149.8 124.6, 150.2 124.0 Q 150.7 123.4, 150.7 122.4 Q 150.7 121.3, 150.2 120.8 Q 149.8 120.2, 149.0 120.2 Q 148.2 120.2, 147.7 120.8 Q 147.3 121.3, 147.3 122.4 Q 147.3 123.5, 147.7 124.0 Q 148.2 124.6, 149.0 124.6 " fill="#FF0000"/>
<path class="atom-7" d="M 144.2 70.6 L 146.0 73.5 Q 146.2 73.8, 146.5 74.3 Q 146.7 74.8, 146.7 74.8 L 146.7 70.6 L 147.5 70.6 L 147.5 76.0 L 146.7 76.0 L 144.8 72.9 Q 144.6 72.5, 144.4 72.1 Q 144.1 71.7, 144.1 71.6 L 144.1 76.0 L 143.4 76.0 L 143.4 70.6 L 144.2 70.6 " fill="#0000FF"/>
<path class="atom-11" d="M 157.1 8.9 L 158.9 11.7 Q 159.1 12.0, 159.3 12.5 Q 159.6 13.0, 159.6 13.1 L 159.6 8.9 L 160.4 8.9 L 160.4 14.3 L 159.6 14.3 L 157.7 11.1 Q 157.5 10.8, 157.3 10.4 Q 157.0 9.9, 157.0 9.8 L 157.0 14.3 L 156.3 14.3 L 156.3 8.9 L 157.1 8.9 " fill="#0000FF"/>
<path class="atom-14" d="M 104.3 53.5 L 106.0 56.3 Q 106.2 56.6, 106.5 57.1 Q 106.8 57.6, 106.8 57.7 L 106.8 53.5 L 107.5 53.5 L 107.5 58.9 L 106.8 58.9 L 104.9 55.8 Q 104.7 55.4, 104.4 55.0 Q 104.2 54.6, 104.1 54.4 L 104.1 58.9 L 103.4 58.9 L 103.4 53.5 L 104.3 53.5 " fill="#0000FF"/>
<path class="atom-16" d="M 80.6 80.3 Q 80.6 79.0, 81.2 78.3 Q 81.8 77.5, 83.0 77.5 Q 84.2 77.5, 84.9 78.3 Q 85.5 79.0, 85.5 80.3 Q 85.5 81.6, 84.9 82.3 Q 84.2 83.1, 83.0 83.1 Q 81.8 83.1, 81.2 82.3 Q 80.6 81.6, 80.6 80.3 M 83.0 82.4 Q 83.9 82.4, 84.3 81.9 Q 84.7 81.3, 84.7 80.3 Q 84.7 79.2, 84.3 78.7 Q 83.9 78.1, 83.0 78.1 Q 82.2 78.1, 81.8 78.7 Q 81.3 79.2, 81.3 80.3 Q 81.3 81.4, 81.8 81.9 Q 82.2 82.4, 83.0 82.4 " fill="#FF0000"/>
<path class="atom-17" d="M 70.9 48.8 Q 70.9 47.5, 71.6 46.8 Q 72.2 46.1, 73.4 46.1 Q 74.6 46.1, 75.2 46.8 Q 75.9 47.5, 75.9 48.8 Q 75.9 50.1, 75.2 50.9 Q 74.6 51.6, 73.4 51.6 Q 72.2 51.6, 71.6 50.9 Q 70.9 50.1, 70.9 48.8 M 73.4 51.0 Q 74.2 51.0, 74.7 50.4 Q 75.1 49.9, 75.1 48.8 Q 75.1 47.7, 74.7 47.2 Q 74.2 46.7, 73.4 46.7 Q 72.6 46.7, 72.1 47.2 Q 71.7 47.7, 71.7 48.8 Q 71.7 49.9, 72.1 50.4 Q 72.6 51.0, 73.4 51.0 " fill="#FF0000"/>
<path class="atom-23" d="M 163.1 72.9 L 164.9 75.8 Q 165.0 76.1, 165.3 76.6 Q 165.6 77.1, 165.6 77.1 L 165.6 72.9 L 166.3 72.9 L 166.3 78.3 L 165.6 78.3 L 163.7 75.2 Q 163.5 74.8, 163.2 74.4 Q 163.0 74.0, 162.9 73.9 L 162.9 78.3 L 162.2 78.3 L 162.2 72.9 L 163.1 72.9 " fill="#0000FF"/>
<path class="atom-25" d="M 183.9 99.6 L 185.7 102.5 Q 185.9 102.7, 186.2 103.3 Q 186.4 103.8, 186.5 103.8 L 186.5 99.6 L 187.2 99.6 L 187.2 105.0 L 186.4 105.0 L 184.5 101.9 Q 184.3 101.5, 184.1 101.1 Q 183.9 100.7, 183.8 100.6 L 183.8 105.0 L 183.1 105.0 L 183.1 99.6 L 183.9 99.6 " fill="#0000FF"/>
<path class="atom-25" d="M 183.0 105.5 L 183.8 105.5 L 183.8 107.8 L 186.5 107.8 L 186.5 105.5 L 187.2 105.5 L 187.2 110.9 L 186.5 110.9 L 186.5 108.4 L 183.8 108.4 L 183.8 110.9 L 183.0 110.9 L 183.0 105.5 " fill="#0000FF"/>
<path class="atom-30" d="M 245.9 60.5 Q 245.9 60.6, 246.2 60.7 Q 246.4 60.8, 246.7 60.9 Q 247.0 60.9, 247.2 60.9 Q 247.8 60.9, 248.0 60.7 Q 248.3 60.4, 248.3 60.0 Q 248.3 59.7, 248.2 59.5 Q 248.0 59.3, 247.8 59.2 Q 247.6 59.1, 247.2 59.0 Q 246.7 58.9, 246.4 58.7 Q 246.2 58.6, 246.0 58.3 Q 245.8 58.0, 245.8 57.5 Q 245.8 56.9, 246.2 56.4 Q 246.7 56.0, 247.6 56.0 Q 248.2 56.0, 248.9 56.3 L 248.7 56.9 Q 248.1 56.6, 247.6 56.6 Q 247.1 56.6, 246.8 56.9 Q 246.5 57.1, 246.5 57.4 Q 246.5 57.7, 246.7 57.9 Q 246.8 58.1, 247.0 58.2 Q 247.3 58.3, 247.6 58.4 Q 248.1 58.5, 248.4 58.7 Q 248.7 58.8, 248.9 59.2 Q 249.1 59.5, 249.1 60.0 Q 249.1 60.7, 248.6 61.1 Q 248.1 61.5, 247.3 61.5 Q 246.8 61.5, 246.4 61.4 Q 246.1 61.3, 245.6 61.1 L 245.9 60.5 " fill="#CCCC00"/>
<path class="atom-32" d="M 234.0 43.2 Q 234.0 41.9, 234.6 41.1 Q 235.3 40.4, 236.5 40.4 Q 237.7 40.4, 238.3 41.1 Q 238.9 41.9, 238.9 43.2 Q 238.9 44.5, 238.3 45.2 Q 237.6 45.9, 236.5 45.9 Q 235.3 45.9, 234.6 45.2 Q 234.0 44.5, 234.0 43.2 M 236.5 45.3 Q 237.3 45.3, 237.7 44.8 Q 238.2 44.2, 238.2 43.2 Q 238.2 42.1, 237.7 41.6 Q 237.3 41.0, 236.5 41.0 Q 235.7 41.0, 235.2 41.6 Q 234.8 42.1, 234.8 43.2 Q 234.8 44.2, 235.2 44.8 Q 235.7 45.3, 236.5 45.3 " fill="#FF0000"/>
<path class="atom-33" d="M 255.8 74.3 Q 255.8 73.0, 256.4 72.3 Q 257.1 71.5, 258.3 71.5 Q 259.5 71.5, 260.1 72.3 Q 260.7 73.0, 260.7 74.3 Q 260.7 75.6, 260.1 76.3 Q 259.5 77.1, 258.3 77.1 Q 257.1 77.1, 256.4 76.3 Q 255.8 75.6, 255.8 74.3 M 258.3 76.5 Q 259.1 76.5, 259.5 75.9 Q 260.0 75.4, 260.0 74.3 Q 260.0 73.2, 259.5 72.7 Q 259.1 72.1, 258.3 72.1 Q 257.5 72.1, 257.0 72.7 Q 256.6 73.2, 256.6 74.3 Q 256.6 75.4, 257.0 75.9 Q 257.5 76.5, 258.3 76.5 " fill="#FF0000"/>
<path class="atom-37" d="M 134.3 150.1 Q 134.3 150.2, 134.6 150.3 Q 134.8 150.4, 135.1 150.5 Q 135.4 150.5, 135.6 150.5 Q 136.2 150.5, 136.5 150.3 Q 136.7 150.0, 136.7 149.6 Q 136.7 149.3, 136.6 149.1 Q 136.5 148.9, 136.2 148.8 Q 136.0 148.7, 135.6 148.6 Q 135.1 148.5, 134.8 148.3 Q 134.6 148.2, 134.4 147.9 Q 134.2 147.6, 134.2 147.1 Q 134.2 146.5, 134.6 146.0 Q 135.1 145.6, 136.0 145.6 Q 136.6 145.6, 137.3 145.9 L 137.2 146.5 Q 136.5 146.2, 136.0 146.2 Q 135.5 146.2, 135.2 146.5 Q 134.9 146.7, 134.9 147.0 Q 134.9 147.3, 135.1 147.5 Q 135.2 147.7, 135.4 147.8 Q 135.7 147.9, 136.0 148.0 Q 136.5 148.1, 136.8 148.3 Q 137.1 148.4, 137.3 148.8 Q 137.5 149.1, 137.5 149.6 Q 137.5 150.3, 137.0 150.7 Q 136.5 151.1, 135.7 151.1 Q 135.2 151.1, 134.8 151.0 Q 134.5 150.9, 134.1 150.7 L 134.3 150.1 " fill="#CCCC00"/>
<path class="atom-37" d="M 138.2 145.6 L 139.0 145.6 L 139.0 147.9 L 141.7 147.9 L 141.7 145.6 L 142.5 145.6 L 142.5 151.0 L 141.7 151.0 L 141.7 148.5 L 139.0 148.5 L 139.0 151.0 L 138.2 151.0 L 138.2 145.6 " fill="#CCCC00"/>
<path class="atom-0" d="M 89.9,97.0 L 89.9,97.1 L 89.9,97.1 L 89.9,97.1 L 89.9,97.1 L 89.9,97.2 L 89.9,97.2 L 89.9,97.2 L 89.8,97.3 L 89.8,97.3 L 89.8,97.3 L 89.8,97.3 L 89.7,97.3 L 89.7,97.4 L 89.7,97.4 L 89.6,97.4 L 89.6,97.4 L 89.6,97.4 L 89.5,97.4 L 89.5,97.4 L 89.5,97.4 L 89.5,97.4 L 89.4,97.4 L 89.4,97.4 L 89.4,97.4 L 89.3,97.3 L 89.3,97.3 L 89.3,97.3 L 89.3,97.3 L 89.2,97.2 L 89.2,97.2 L 89.2,97.2 L 89.2,97.2 L 89.2,97.1 L 89.2,97.1 L 89.2,97.1 L 89.2,97.0 L 89.2,97.0 L 89.2,97.0 L 89.2,96.9 L 89.2,96.9 L 89.2,96.9 L 89.2,96.8 L 89.2,96.8 L 89.2,96.8 L 89.3,96.8 L 89.3,96.7 L 89.3,96.7 L 89.3,96.7 L 89.4,96.7 L 89.4,96.7 L 89.4,96.7 L 89.5,96.6 L 89.5,96.6 L 89.5,96.6 L 89.5,96.6 L 89.6,96.6 L 89.6,96.6 L 89.6,96.7 L 89.7,96.7 L 89.7,96.7 L 89.7,96.7 L 89.8,96.7 L 89.8,96.7 L 89.8,96.8 L 89.8,96.8 L 89.9,96.8 L 89.9,96.8 L 89.9,96.9 L 89.9,96.9 L 89.9,96.9 L 89.9,97.0 L 89.9,97.0 L 89.9,97.0 L 89.5,97.0 Z" style="fill:#000000;fill-rule:evenodd;fill-opacity:1;stroke:#000000;stroke-width:0.0px;stroke-linecap:butt;stroke-linejoin:miter;stroke-opacity:1;"/>
<path class="atom-0" d="M 89.9,100.8 L 89.9,100.9 L 89.9,100.9 L 89.9,100.9 L 89.9,100.9 L 89.9,101.0 L 89.9,101.0 L 89.9,101.0 L 89.8,101.1 L 89.8,101.1 L 89.8,101.1 L 89.8,101.1 L 89.7,101.1 L 89.7,101.2 L 89.7,101.2 L 89.6,101.2 L 89.6,101.2 L 89.6,101.2 L 89.5,101.2 L 89.5,101.2 L 89.5,101.2 L 89.5,101.2 L 89.4,101.2 L 89.4,101.2 L 89.4,101.2 L 89.3,101.1 L 89.3,101.1 L 89.3,101.1 L 89.3,101.1 L 89.2,101.0 L 89.2,101.0 L 89.2,101.0 L 89.2,101.0 L 89.2,100.9 L 89.2,100.9 L 89.2,100.9 L 89.2,100.8 L 89.2,100.8 L 89.2,100.8 L 89.2,100.7 L 89.2,100.7 L 89.2,100.7 L 89.2,100.6 L 89.2,100.6 L 89.2,100.6 L 89.3,100.6 L 89.3,100.5 L 89.3,100.5 L 89.3,100.5 L 89.4,100.5 L 89.4,100.5 L 89.4,100.5 L 89.5,100.4 L 89.5,100.4 L 89.5,100.4 L 89.5,100.4 L 89.6,100.4 L 89.6,100.4 L 89.6,100.5 L 89.7,100.5 L 89.7,100.5 L 89.7,100.5 L 89.8,100.5 L 89.8,100.5 L 89.8,100.6 L 89.8,100.6 L 89.9,100.6 L 89.9,100.6 L 89.9,100.7 L 89.9,100.7 L 89.9,100.7 L 89.9,100.8 L 89.9,100.8 L 89.9,100.8 L 89.5,100.8 Z" style="fill:#000000;fill-rule:evenodd;fill-opacity:1;stroke:#000000;stroke-width:0.0px;stroke-linecap:butt;stroke-linejoin:miter;stroke-opacity:1;"/>
<path class="atom-0" d="M 89.9,98.9 L 89.9,99.0 L 89.9,99.0 L 89.9,99.0 L 89.9,99.0 L 89.9,99.1 L 89.9,99.1 L 89.9,99.1 L 89.8,99.2 L 89.8,99.2 L 89.8,99.2 L 89.8,99.2 L 89.7,99.2 L 89.7,99.3 L 89.7,99.3 L 89.6,99.3 L 89.6,99.3 L 89.6,99.3 L 89.5,99.3 L 89.5,99.3 L 89.5,99.3 L 89.5,99.3 L 89.4,99.3 L 89.4,99.3 L 89.4,99.3 L 89.3,99.2 L 89.3,99.2 L 89.3,99.2 L 89.3,99.2 L 89.2,99.1 L 89.2,99.1 L 89.2,99.1 L 89.2,99.1 L 89.2,99.0 L 89.2,99.0 L 89.2,99.0 L 89.2,98.9 L 89.2,98.9 L 89.2,98.9 L 89.2,98.8 L 89.2,98.8 L 89.2,98.8 L 89.2,98.7 L 89.2,98.7 L 89.2,98.7 L 89.3,98.7 L 89.3,98.6 L 89.3,98.6 L 89.3,98.6 L 89.4,98.6 L 89.4,98.6 L 89.4,98.6 L 89.5,98.5 L 89.5,98.5 L 89.5,98.5 L 89.5,98.5 L 89.6,98.5 L 89.6,98.5 L 89.6,98.6 L 89.7,98.6 L 89.7,98.6 L 89.7,98.6 L 89.8,98.6 L 89.8,98.6 L 89.8,98.7 L 89.8,98.7 L 89.9,98.7 L 89.9,98.7 L 89.9,98.8 L 89.9,98.8 L 89.9,98.8 L 89.9,98.9 L 89.9,98.9 L 89.9,98.9 L 89.5,98.9 Z" style="fill:#000000;fill-rule:evenodd;fill-opacity:1;stroke:#000000;stroke-width:0.0px;stroke-linecap:butt;stroke-linejoin:miter;stroke-opacity:1;"/>
<path class="atom-1" d="M 99.4,114.9 L 99.4,114.9 L 99.4,114.9 L 99.4,114.9 L 99.3,115.0 L 99.3,115.0 L 99.3,115.0 L 99.3,115.1 L 99.3,115.1 L 99.3,115.1 L 99.2,115.1 L 99.2,115.2 L 99.2,115.2 L 99.2,115.2 L 99.1,115.2 L 99.1,115.2 L 99.1,115.2 L 99.0,115.2 L 99.0,115.2 L 99.0,115.2 L 98.9,115.2 L 98.9,115.2 L 98.9,115.2 L 98.8,115.2 L 98.8,115.2 L 98.8,115.2 L 98.8,115.1 L 98.7,115.1 L 98.7,115.1 L 98.7,115.1 L 98.7,115.1 L 98.7,115.0 L 98.6,115.0 L 98.6,115.0 L 98.6,114.9 L 98.6,114.9 L 98.6,114.9 L 98.6,114.8 L 98.6,114.8 L 98.6,114.8 L 98.6,114.7 L 98.6,114.7 L 98.7,114.7 L 98.7,114.6 L 98.7,114.6 L 98.7,114.6 L 98.7,114.6 L 98.8,114.6 L 98.8,114.5 L 98.8,114.5 L 98.8,114.5 L 98.9,114.5 L 98.9,114.5 L 98.9,114.5 L 99.0,114.5 L 99.0,114.5 L 99.0,114.5 L 99.1,114.5 L 99.1,114.5 L 99.1,114.5 L 99.2,114.5 L 99.2,114.5 L 99.2,114.5 L 99.2,114.6 L 99.3,114.6 L 99.3,114.6 L 99.3,114.6 L 99.3,114.7 L 99.3,114.7 L 99.3,114.7 L 99.4,114.8 L 99.4,114.8 L 99.4,114.8 L 99.4,114.9 L 99.0,114.9 Z" style="fill:#000000;fill-rule:evenodd;fill-opacity:1;stroke:#000000;stroke-width:0.0px;stroke-linecap:butt;stroke-linejoin:miter;stroke-opacity:1;"/>
<path class="atom-2" d="M 129.3,113.9 L 129.3,113.9 L 129.3,113.9 L 129.3,113.9 L 129.3,114.0 L 129.3,114.0 L 129.3,114.0 L 129.3,114.1 L 129.3,114.1 L 129.2,114.1 L 129.2,114.1 L 129.2,114.2 L 129.2,114.2 L 129.1,114.2 L 129.1,114.2 L 129.1,114.2 L 129.0,114.2 L 129.0,114.2 L 129.0,114.2 L 128.9,114.2 L 128.9,114.2 L 128.9,114.2 L 128.8,114.2 L 128.8,114.2 L 128.8,114.2 L 128.8,114.2 L 128.7,114.2 L 128.7,114.1 L 128.7,114.1 L 128.7,114.1 L 128.6,114.1 L 128.6,114.0 L 128.6,114.0 L 128.6,114.0 L 128.6,113.9 L 128.6,113.9 L 128.6,113.9 L 128.6,113.8 L 128.6,113.8 L 128.6,113.8 L 128.6,113.7 L 128.6,113.7 L 128.6,113.7 L 128.6,113.6 L 128.7,113.6 L 128.7,113.6 L 128.7,113.6 L 128.7,113.6 L 128.8,113.5 L 128.8,113.5 L 128.8,113.5 L 128.8,113.5 L 128.9,113.5 L 128.9,113.5 L 128.9,113.5 L 129.0,113.5 L 129.0,113.5 L 129.0,113.5 L 129.1,113.5 L 129.1,113.5 L 129.1,113.5 L 129.2,113.5 L 129.2,113.5 L 129.2,113.6 L 129.2,113.6 L 129.3,113.6 L 129.3,113.6 L 129.3,113.7 L 129.3,113.7 L 129.3,113.7 L 129.3,113.8 L 129.3,113.8 L 129.3,113.8 L 129.3,113.9 L 129.0,113.9 Z" style="fill:#000000;fill-rule:evenodd;fill-opacity:1;stroke:#000000;stroke-width:0.0px;stroke-linecap:butt;stroke-linejoin:miter;stroke-opacity:1;"/>
<path class="bond-0 atom-0 atom-1" d="M 397.4,90.3 L 400.3,97.4" style="fill:none;fill-rule:evenodd;stroke:#000000;stroke-width:2.0px;stroke-linecap:butt;stroke-linejoin:miter;stroke-opacity:1"/>
<path class="bond-0 atom-0 atom-1" d="M 400.3,97.4 L 403.3,104.5" style="fill:none;fill-rule:evenodd;stroke:#0000FF;stroke-width:2.0px;stroke-linecap:butt;stroke-linejoin:miter;stroke-opacity:1"/>
<path class="bond-1 atom-1 atom-2" d="M 407.3,108.2 L 414.2,109.1" style="fill:none;fill-rule:evenodd;stroke:#0000FF;stroke-width:2.0px;stroke-linecap:butt;stroke-linejoin:miter;stroke-opacity:1"/>
<path class="bond-1 atom-1 atom-2" d="M 414.2,109.1 L 421.1,110.0" style="fill:none;fill-rule:evenodd;stroke:#CCCC00;stroke-width:2.0px;stroke-linecap:butt;stroke-linejoin:miter;stroke-opacity:1"/>
<path class="bond-2 atom-2 atom-3" d="M 424.9,113.8 L 427.8,120.9" style="fill:none;fill-rule:evenodd;stroke:#CCCC00;stroke-width:2.0px;stroke-linecap:butt;stroke-linejoin:miter;stroke-opacity:1"/>
<path class="bond-2 atom-2 atom-3" d="M 427.8,120.9 L 430.7,127.9" style="fill:none;fill-rule:evenodd;stroke:#000000;stroke-width:2.0px;stroke-linecap:butt;stroke-linejoin:miter;stroke-opacity:1"/>
<path class="bond-3 atom-3 atom-4" d="M 430.7,127.9 L 438.0,124.9" style="fill:none;fill-rule:evenodd;stroke:#000000;stroke-width:2.0px;stroke-linecap:butt;stroke-linejoin:miter;stroke-opacity:1"/>
<path class="bond-3 atom-3 atom-4" d="M 438.0,124.9 L 445.2,121.9" style="fill:none;fill-rule:evenodd;stroke:#FF0000;stroke-width:2.0px;stroke-linecap:butt;stroke-linejoin:miter;stroke-opacity:1"/>
<path class="bond-4 atom-4 atom-5" d="M 448.7,117.3 L 449.8,109.6" style="fill:none;fill-rule:evenodd;stroke:#FF0000;stroke-width:2.0px;stroke-linecap:butt;stroke-linejoin:miter;stroke-opacity:1"/>
<path class="bond-4 atom-4 atom-5" d="M 449.8,109.6 L 450.8,101.8" style="fill:none;fill-rule:evenodd;stroke:#000000;stroke-width:2.0px;stroke-linecap:butt;stroke-linejoin:miter;stroke-opacity:1"/>
<path class="bond-5 atom-5 atom-6" d="M 450.8,101.8 L 437.0,88.7" style="fill:none;fill-rule:evenodd;stroke:#000000;stroke-width:2.0px;stroke-linecap:butt;stroke-linejoin:miter;stroke-opacity:1"/>
<path class="bond-5 atom-5 atom-6" d="M 451.3,98.3 L 440.5,88.1" style="fill:none;fill-rule:evenodd;stroke:#000000;stroke-width:2.0px;stroke-linecap:butt;stroke-linejoin:miter;stroke-opacity:1"/>
<path class="bond-6 atom-6 atom-7" d="M 437.0,88.7 L 440.3,81.8" style="fill:none;fill-rule:evenodd;stroke:#000000;stroke-width:2.0px;stroke-linecap:butt;stroke-linejoin:miter;stroke-opacity:1"/>
<path class="bond-6 atom-6 atom-7" d="M 440.3,81.8 L 443.6,74.9" style="fill:none;fill-rule:evenodd;stroke:#0000FF;stroke-width:2.0px;stroke-linecap:butt;stroke-linejoin:miter;stroke-opacity:1"/>
<path class="bond-7 atom-7 atom-8" d="M 443.4,68.3 L 439.8,61.6" style="fill:none;fill-rule:evenodd;stroke:#0000FF;stroke-width:2.0px;stroke-linecap:butt;stroke-linejoin:miter;stroke-opacity:1"/>
<path class="bond-7 atom-7 atom-8" d="M 439.8,61.6 L 436.2,54.9" style="fill:none;fill-rule:evenodd;stroke:#000000;stroke-width:2.0px;stroke-linecap:butt;stroke-linejoin:miter;stroke-opacity:1"/>
<path class="bond-8 atom-8 atom-9" d="M 436.2,54.9 L 453.7,47.6" style="fill:none;fill-rule:evenodd;stroke:#000000;stroke-width:2.0px;stroke-linecap:butt;stroke-linejoin:miter;stroke-opacity:1"/>
<path class="bond-9 atom-9 atom-10" d="M 453.7,47.6 L 456.2,28.8" style="fill:none;fill-rule:evenodd;stroke:#000000;stroke-width:2.0px;stroke-linecap:butt;stroke-linejoin:miter;stroke-opacity:1"/>
<path class="bond-10 atom-10 atom-11" d="M 456.2,28.8 L 457.3,21.0" style="fill:none;fill-rule:evenodd;stroke:#000000;stroke-width:2.0px;stroke-linecap:butt;stroke-linejoin:miter;stroke-opacity:1"/>
<path class="bond-10 atom-10 atom-11" d="M 457.3,21.0 L 458.3,13.3" style="fill:none;fill-rule:evenodd;stroke:#0000FF;stroke-width:2.0px;stroke-linecap:butt;stroke-linejoin:miter;stroke-opacity:1"/>
<path class="bond-10 atom-10 atom-11" d="M 453.4,28.4 L 454.4,20.7" style="fill:none;fill-rule:evenodd;stroke:#000000;stroke-width:2.0px;stroke-linecap:butt;stroke-linejoin:miter;stroke-opacity:1"/>
<path class="bond-10 atom-10 atom-11" d="M 454.4,20.7 L 455.5,12.9" style="fill:none;fill-rule:evenodd;stroke:#0000FF;stroke-width:2.0px;stroke-linecap:butt;stroke-linejoin:miter;stroke-opacity:1"/>
<path class="bond-10 atom-10 atom-11" d="M 459.1,29.2 L 460.1,21.4" style="fill:none;fill-rule:evenodd;stroke:#000000;stroke-width:2.0px;stroke-linecap:butt;stroke-linejoin:miter;stroke-opacity:1"/>
<path class="bond-10 atom-10 atom-11" d="M 460.1,21.4 L 461.1,13.7" style="fill:none;fill-rule:evenodd;stroke:#0000FF;stroke-width:2.0px;stroke-linecap:butt;stroke-linejoin:miter;stroke-opacity:1"/>
<path class="bond-11 atom-8 atom-12" d="M 436.2,54.9 L 430.8,36.7" style="fill:none;fill-rule:evenodd;stroke:#000000;stroke-width:2.0px;stroke-linecap:butt;stroke-linejoin:miter;stroke-opacity:1"/>
<path class="bond-12 atom-12 atom-13" d="M 430.8,36.7 L 411.8,36.1" style="fill:none;fill-rule:evenodd;stroke:#000000;stroke-width:2.0px;stroke-linecap:butt;stroke-linejoin:miter;stroke-opacity:1"/>
<path class="bond-13 atom-13 atom-14" d="M 411.8,36.1 L 409.2,43.4" style="fill:none;fill-rule:evenodd;stroke:#000000;stroke-width:2.0px;stroke-linecap:butt;stroke-linejoin:miter;stroke-opacity:1"/>
<path class="bond-13 atom-13 atom-14" d="M 409.2,43.4 L 406.6,50.7" style="fill:none;fill-rule:evenodd;stroke:#0000FF;stroke-width:2.0px;stroke-linecap:butt;stroke-linejoin:miter;stroke-opacity:1"/>
<path class="bond-14 atom-14 atom-15" d="M 402.8,54.8 L 395.0,57.1" style="fill:none;fill-rule:evenodd;stroke:#0000FF;stroke-width:2.0px;stroke-linecap:butt;stroke-linejoin:miter;stroke-opacity:1"/>
<path class="bond-14 atom-14 atom-15" d="M 395.0,57.1 L 387.2,59.4" style="fill:none;fill-rule:evenodd;stroke:#000000;stroke-width:2.0px;stroke-linecap:butt;stroke-linejoin:miter;stroke-opacity:1"/>
<path class="bond-15 atom-15 atom-16" d="M 386.0,58.3 L 384.1,66.3" style="fill:none;fill-rule:evenodd;stroke:#000000;stroke-width:2.0px;stroke-linecap:butt;stroke-linejoin:miter;stroke-opacity:1"/>
<path class="bond-15 atom-15 atom-16" d="M 384.1,66.3 L 382.2,74.2" style="fill:none;fill-rule:evenodd;stroke:#FF0000;stroke-width:2.0px;stroke-linecap:butt;stroke-linejoin:miter;stroke-opacity:1"/>
<path class="bond-15 atom-15 atom-16" d="M 388.8,59.0 L 386.9,66.9" style="fill:none;fill-rule:evenodd;stroke:#000000;stroke-width:2.0px;stroke-linecap:butt;stroke-linejoin:miter;stroke-opacity:1"/>
<path class="bond-15 atom-15 atom-16" d="M 386.9,66.9 L 385.0,74.9" style="fill:none;fill-rule:evenodd;stroke:#FF0000;stroke-width:2.0px;stroke-linecap:butt;stroke-linejoin:miter;stroke-opacity:1"/>
<path class="bond-16 atom-15 atom-17" d="M 387.2,59.4 L 381.9,54.4" style="fill:none;fill-rule:evenodd;stroke:#000000;stroke-width:2.0px;stroke-linecap:butt;stroke-linejoin:miter;stroke-opacity:1"/>
<path class="bond-16 atom-15 atom-17" d="M 381.9,54.4 L 376.6,49.3" style="fill:none;fill-rule:evenodd;stroke:#FF0000;stroke-width:2.0px;stroke-linecap:butt;stroke-linejoin:miter;stroke-opacity:1"/>
<path class="bond-17 atom-17 atom-18" d="M 370.4,47.3 L 362.8,49.5" style="fill:none;fill-rule:evenodd;stroke:#FF0000;stroke-width:2.0px;stroke-linecap:butt;stroke-linejoin:miter;stroke-opacity:1"/>
<path class="bond-17 atom-17 atom-18" d="M 362.8,49.5 L 355.2,51.7" style="fill:none;fill-rule:evenodd;stroke:#000000;stroke-width:2.0px;stroke-linecap:butt;stroke-linejoin:miter;stroke-opacity:1"/>
<path class="bond-18 atom-18 atom-19" d="M 355.2,51.7 L 349.9,33.5" style="fill:none;fill-rule:evenodd;stroke:#000000;stroke-width:2.0px;stroke-linecap:butt;stroke-linejoin:miter;stroke-opacity:1"/>
<path class="bond-19 atom-18 atom-20" d="M 355.2,51.7 L 360.6,69.9" style="fill:none;fill-rule:evenodd;stroke:#000000;stroke-width:2.0px;stroke-linecap:butt;stroke-linejoin:miter;stroke-opacity:1"/>
<path class="bond-20 atom-18 atom-21" d="M 355.2,51.7 L 337.0,57.1" style="fill:none;fill-rule:evenodd;stroke:#000000;stroke-width:2.0px;stroke-linecap:butt;stroke-linejoin:miter;stroke-opacity:1"/>
<path class="bond-21 atom-14 atom-22" d="M 408.1,56.1 L 414.3,60.9" style="fill:none;fill-rule:evenodd;stroke:#0000FF;stroke-width:2.0px;stroke-linecap:butt;stroke-linejoin:miter;stroke-opacity:1"/>
<path class="bond-21 atom-14 atom-22" d="M 414.3,60.9 L 420.5,65.6" style="fill:none;fill-rule:evenodd;stroke:#000000;stroke-width:2.0px;stroke-linecap:butt;stroke-linejoin:miter;stroke-opacity:1"/>
<path class="bond-22 atom-7 atom-23" d="M 447.9,71.9 L 461.4,73.7" style="fill:none;fill-rule:evenodd;stroke:#0000FF;stroke-width:2.0px;stroke-linecap:butt;stroke-linejoin:miter;stroke-opacity:1"/>
<path class="bond-23 atom-23 atom-24" d="M 464.7,77.4 L 466.1,85.1" style="fill:none;fill-rule:evenodd;stroke:#0000FF;stroke-width:2.0px;stroke-linecap:butt;stroke-linejoin:miter;stroke-opacity:1"/>
<path class="bond-23 atom-23 atom-24" d="M 466.1,85.1 L 467.5,92.8" style="fill:none;fill-rule:evenodd;stroke:#000000;stroke-width:2.0px;stroke-linecap:butt;stroke-linejoin:miter;stroke-opacity:1"/>
<path class="bond-23 atom-23 atom-24" d="M 461.9,77.9 L 463.1,84.6" style="fill:none;fill-rule:evenodd;stroke:#0000FF;stroke-width:2.0px;stroke-linecap:butt;stroke-linejoin:miter;stroke-opacity:1"/>
<path class="bond-23 atom-23 atom-24" d="M 463.1,84.6 L 464.3,91.3" style="fill:none;fill-rule:evenodd;stroke:#000000;stroke-width:2.0px;stroke-linecap:butt;stroke-linejoin:miter;stroke-opacity:1"/>
<path class="bond-24 atom-24 atom-25" d="M 467.5,92.8 L 474.7,96.2" style="fill:none;fill-rule:evenodd;stroke:#000000;stroke-width:2.0px;stroke-linecap:butt;stroke-linejoin:miter;stroke-opacity:1"/>
<path class="bond-24 atom-24 atom-25" d="M 474.7,96.2 L 482.0,99.7" style="fill:none;fill-rule:evenodd;stroke:#0000FF;stroke-width:2.0px;stroke-linecap:butt;stroke-linejoin:miter;stroke-opacity:1"/>
<path class="bond-25 atom-25 atom-26" d="M 487.3,99.1 L 493.8,94.7" style="fill:none;fill-rule:evenodd;stroke:#0000FF;stroke-width:2.0px;stroke-linecap:butt;stroke-linejoin:miter;stroke-opacity:1"/>
<path class="bond-25 atom-25 atom-26" d="M 493.8,94.7 L 500.3,90.2" style="fill:none;fill-rule:evenodd;stroke:#000000;stroke-width:2.0px;stroke-linecap:butt;stroke-linejoin:miter;stroke-opacity:1"/>
<path class="bond-26 atom-26 atom-27" d="M 500.3,90.2 L 517.5,98.4" style="fill:none;fill-rule:evenodd;stroke:#000000;stroke-width:2.0px;stroke-linecap:butt;stroke-linejoin:miter;stroke-opacity:1"/>
<path class="bond-26 atom-26 atom-27" d="M 503.0,88.4 L 517.2,95.1" style="fill:none;fill-rule:evenodd;stroke:#000000;stroke-width:2.0px;stroke-linecap:butt;stroke-linejoin:miter;stroke-opacity:1"/>
<path class="bond-27 atom-27 atom-28" d="M 517.5,98.4 L 533.1,87.7" style="fill:none;fill-rule:evenodd;stroke:#000000;stroke-width:2.0px;stroke-linecap:butt;stroke-linejoin:miter;stroke-opacity:1"/>
<path class="bond-28 atom-28 atom-29" d="M 533.1,87.7 L 531.7,68.7" style="fill:none;fill-rule:evenodd;stroke:#000000;stroke-width:2.0px;stroke-linecap:butt;stroke-linejoin:miter;stroke-opacity:1"/>
<path class="bond-28 atom-28 atom-29" d="M 530.2,86.3 L 528.9,70.6" style="fill:none;fill-rule:evenodd;stroke:#000000;stroke-width:2.0px;stroke-linecap:butt;stroke-linejoin:miter;stroke-opacity:1"/>
<path class="bond-29 atom-29 atom-30" d="M 531.7,68.7 L 538.3,64.2" style="fill:none;fill-rule:evenodd;stroke:#000000;stroke-width:2.0px;stroke-linecap:butt;stroke-linejoin:miter;stroke-opacity:1"/>
<path class="bond-29 atom-29 atom-30" d="M 538.3,64.2 L 545.0,59.6" style="fill:none;fill-rule:evenodd;stroke:#CCCC00;stroke-width:2.0px;stroke-linecap:butt;stroke-linejoin:miter;stroke-opacity:1"/>
<path class="bond-30 atom-30 atom-31" d="M 549.7,56.4 L 556.3,51.8" style="fill:none;fill-rule:evenodd;stroke:#CCCC00;stroke-width:2.0px;stroke-linecap:butt;stroke-linejoin:miter;stroke-opacity:1"/>
<path class="bond-30 atom-30 atom-31" d="M 556.3,51.8 L 563.0,47.2" style="fill:none;fill-rule:evenodd;stroke:#000000;stroke-width:2.0px;stroke-linecap:butt;stroke-linejoin:miter;stroke-opacity:1"/>
<path class="bond-31 atom-30 atom-32" d="M 546.2,53.9 L 543.2,49.4" style="fill:none;fill-rule:evenodd;stroke:#CCCC00;stroke-width:2.0px;stroke-linecap:butt;stroke-linejoin:miter;stroke-opacity:1"/>
<path class="bond-31 atom-30 atom-32" d="M 543.2,49.4 L 540.1,44.9" style="fill:none;fill-rule:evenodd;stroke:#FF0000;stroke-width:2.0px;stroke-linecap:butt;stroke-linejoin:miter;stroke-opacity:1"/>
<path class="bond-31 atom-30 atom-32" d="M 543.9,55.5 L 540.8,51.0" style="fill:none;fill-rule:evenodd;stroke:#CCCC00;stroke-width:2.0px;stroke-linecap:butt;stroke-linejoin:miter;stroke-opacity:1"/>
<path class="bond-31 atom-30 atom-32" d="M 540.8,51.0 L 537.8,46.6" style="fill:none;fill-rule:evenodd;stroke:#FF0000;stroke-width:2.0px;stroke-linecap:butt;stroke-linejoin:miter;stroke-opacity:1"/>
<path class="bond-32 atom-30 atom-33" d="M 548.5,62.2 L 551.5,66.7" style="fill:none;fill-rule:evenodd;stroke:#CCCC00;stroke-width:2.0px;stroke-linecap:butt;stroke-linejoin:miter;stroke-opacity:1"/>
<path class="bond-32 atom-30 atom-33" d="M 551.5,66.7 L 554.6,71.1" style="fill:none;fill-rule:evenodd;stroke:#FF0000;stroke-width:2.0px;stroke-linecap:butt;stroke-linejoin:miter;stroke-opacity:1"/>
<path class="bond-32 atom-30 atom-33" d="M 550.8,60.6 L 553.9,65.1" style="fill:none;fill-rule:evenodd;stroke:#CCCC00;stroke-width:2.0px;stroke-linecap:butt;stroke-linejoin:miter;stroke-opacity:1"/>
<path class="bond-32 atom-30 atom-33" d="M 553.9,65.1 L 556.9,69.5" style="fill:none;fill-rule:evenodd;stroke:#FF0000;stroke-width:2.0px;stroke-linecap:butt;stroke-linejoin:miter;stroke-opacity:1"/>
<path class="bond-33 atom-29 atom-34" d="M 531.7,68.7 L 514.5,60.5" style="fill:none;fill-rule:evenodd;stroke:#000000;stroke-width:2.0px;stroke-linecap:butt;stroke-linejoin:miter;stroke-opacity:1"/>
<path class="bond-34 atom-34 atom-35" d="M 514.5,60.5 L 498.8,71.3" style="fill:none;fill-rule:evenodd;stroke:#000000;stroke-width:2.0px;stroke-linecap:butt;stroke-linejoin:miter;stroke-opacity:1"/>
<path class="bond-34 atom-34 atom-35" d="M 514.8,63.8 L 501.8,72.7" style="fill:none;fill-rule:evenodd;stroke:#000000;stroke-width:2.0px;stroke-linecap:butt;stroke-linejoin:miter;stroke-opacity:1"/>
<path class="bond-35 atom-3 atom-36" d="M 430.7,127.9 L 438.0,145.5" style="fill:none;fill-rule:evenodd;stroke:#000000;stroke-width:2.0px;stroke-linecap:butt;stroke-linejoin:miter;stroke-opacity:1"/>
<path class="bond-36 atom-36 atom-37" d="M 438.0,145.5 L 420.4,152.7" style="fill:none;fill-rule:evenodd;stroke:#000000;stroke-width:2.0px;stroke-linecap:butt;stroke-linejoin:miter;stroke-opacity:1"/>
<path class="bond-36 atom-36 atom-37" d="M 434.3,143.9 L 422.0,149.0" style="fill:none;fill-rule:evenodd;stroke:#000000;stroke-width:2.0px;stroke-linecap:butt;stroke-linejoin:miter;stroke-opacity:1"/>
<path class="bond-37 atom-37 atom-38" d="M 420.4,152.7 L 417.5,145.7" style="fill:none;fill-rule:evenodd;stroke:#000000;stroke-width:2.0px;stroke-linecap:butt;stroke-linejoin:miter;stroke-opacity:1"/>
<path class="bond-37 atom-37 atom-38" d="M 417.5,145.7 L 414.6,138.6" style="fill:none;fill-rule:evenodd;stroke:#FF0000;stroke-width:2.0px;stroke-linecap:butt;stroke-linejoin:miter;stroke-opacity:1"/>
<path class="bond-38 atom-38 atom-3" d="M 416.3,133.9 L 423.5,130.9" style="fill:none;fill-rule:evenodd;stroke:#FF0000;stroke-width:2.0px;stroke-linecap:butt;stroke-linejoin:miter;stroke-opacity:1"/>
<path class="bond-38 atom-38 atom-3" d="M 423.5,130.9 L 430.7,127.9" style="fill:none;fill-rule:evenodd;stroke:#000000;stroke-width:2.0px;stroke-linecap:butt;stroke-linejoin:miter;stroke-opacity:1"/>
<path class="bond-39 atom-24 atom-5" d="M 467.5,92.8 L 450.8,101.8" style="fill:none;fill-rule:evenodd;stroke:#000000;stroke-width:2.0px;stroke-linecap:butt;stroke-linejoin:miter;stroke-opacity:1"/>
<path class="bond-40 atom-35 atom-26" d="M 498.8,71.3 L 500.3,90.2" style="fill:none;fill-rule:evenodd;stroke:#000000;stroke-width:2.0px;stroke-linecap:butt;stroke-linejoin:miter;stroke-opacity:1"/>
<path class="bond-41 atom-22 atom-8" d="M 420.5,65.6 L 436.2,54.9" style="fill:none;fill-rule:evenodd;stroke:#000000;stroke-width:2.0px;stroke-linecap:butt;stroke-linejoin:miter;stroke-opacity:1"/>
<path d="M 437.7,89.4 L 437.0,88.7 L 437.2,88.4" style="fill:none;stroke:#000000;stroke-width:2.0px;stroke-linecap:butt;stroke-linejoin:miter;stroke-opacity:1;"/>
<path d="M 452.9,48.0 L 453.7,47.6 L 453.9,46.7" style="fill:none;stroke:#000000;stroke-width:2.0px;stroke-linecap:butt;stroke-linejoin:miter;stroke-opacity:1;"/>
<path d="M 456.1,29.7 L 456.2,28.8 L 456.3,28.4" style="fill:none;stroke:#000000;stroke-width:2.0px;stroke-linecap:butt;stroke-linejoin:miter;stroke-opacity:1;"/>
<path d="M 431.1,37.6 L 430.8,36.7 L 429.8,36.6" style="fill:none;stroke:#000000;stroke-width:2.0px;stroke-linecap:butt;stroke-linejoin:miter;stroke-opacity:1;"/>
<path d="M 412.8,36.2 L 411.8,36.1 L 411.7,36.5" style="fill:none;stroke:#000000;stroke-width:2.0px;stroke-linecap:butt;stroke-linejoin:miter;stroke-opacity:1;"/>
<path d="M 387.6,59.3 L 387.2,59.4 L 387.0,59.2" style="fill:none;stroke:#000000;stroke-width:2.0px;stroke-linecap:butt;stroke-linejoin:miter;stroke-opacity:1;"/>
<path d="M 420.2,65.4 L 420.5,65.6 L 421.3,65.1" style="fill:none;stroke:#000000;stroke-width:2.0px;stroke-linecap:butt;stroke-linejoin:miter;stroke-opacity:1;"/>
<path d="M 516.6,98.0 L 517.5,98.4 L 518.2,97.9" style="fill:none;stroke:#000000;stroke-width:2.0px;stroke-linecap:butt;stroke-linejoin:miter;stroke-opacity:1;"/>
<path d="M 532.3,88.2 L 533.1,87.7 L 533.1,86.7" style="fill:none;stroke:#000000;stroke-width:2.0px;stroke-linecap:butt;stroke-linejoin:miter;stroke-opacity:1;"/>
<path d="M 515.4,60.9 L 514.5,60.5 L 513.7,61.1" style="fill:none;stroke:#000000;stroke-width:2.0px;stroke-linecap:butt;stroke-linejoin:miter;stroke-opacity:1;"/>
<path d="M 499.6,70.7 L 498.8,71.3 L 498.9,72.2" style="fill:none;stroke:#000000;stroke-width:2.0px;stroke-linecap:butt;stroke-linejoin:miter;stroke-opacity:1;"/>
<path d="M 437.6,144.6 L 438.0,145.5 L 437.1,145.8" style="fill:none;stroke:#000000;stroke-width:2.0px;stroke-linecap:butt;stroke-linejoin:miter;stroke-opacity:1;"/>
<path d="M 421.3,152.4 L 420.4,152.7 L 420.3,152.4" style="fill:none;stroke:#000000;stroke-width:2.0px;stroke-linecap:butt;stroke-linejoin:miter;stroke-opacity:1;"/>
<path class="atom-1" d="M 403.5 105.2 L 405.2 108.0 Q 405.4 108.3, 405.7 108.8 Q 406.0 109.3, 406.0 109.3 L 406.0 105.2 L 406.7 105.2 L 406.7 110.5 L 406.0 110.5 L 404.1 107.4 Q 403.8 107.1, 403.6 106.6 Q 403.4 106.2, 403.3 106.1 L 403.3 110.5 L 402.6 110.5 L 402.6 105.2 L 403.5 105.2 " fill="#0000FF"/>
<path class="atom-2" d="M 422.0 112.2 Q 422.0 112.2, 422.3 112.3 Q 422.5 112.4, 422.8 112.5 Q 423.1 112.6, 423.4 112.6 Q 423.9 112.6, 424.2 112.3 Q 424.5 112.1, 424.5 111.6 Q 424.5 111.3, 424.3 111.2 Q 424.2 111.0, 423.9 110.9 Q 423.7 110.8, 423.3 110.7 Q 422.9 110.5, 422.6 110.4 Q 422.3 110.3, 422.1 110.0 Q 421.9 109.7, 421.9 109.2 Q 421.9 108.5, 422.3 108.1 Q 422.8 107.7, 423.7 107.7 Q 424.3 107.7, 425.0 108.0 L 424.9 108.6 Q 424.2 108.3, 423.7 108.3 Q 423.2 108.3, 422.9 108.5 Q 422.6 108.7, 422.6 109.1 Q 422.6 109.4, 422.8 109.6 Q 422.9 109.7, 423.1 109.8 Q 423.4 109.9, 423.7 110.0 Q 424.2 110.2, 424.5 110.4 Q 424.8 110.5, 425.0 110.8 Q 425.2 111.1, 425.2 111.6 Q 425.2 112.4, 424.7 112.8 Q 424.2 113.2, 423.4 113.2 Q 422.9 113.2, 422.5 113.1 Q 422.2 113.0, 421.8 112.8 L 422.0 112.2 " fill="#CCCC00"/>
<path class="atom-2" d="M 426.0 107.7 L 426.7 107.7 L 426.7 110.0 L 429.4 110.0 L 429.4 107.7 L 430.2 107.7 L 430.2 113.0 L 429.4 113.0 L 429.4 110.6 L 426.7 110.6 L 426.7 113.0 L 426.0 113.0 L 426.0 107.7 " fill="#CCCC00"/>
<path class="atom-4" d="M 445.8 120.7 Q 445.8 119.4, 446.5 118.7 Q 447.1 117.9, 448.3 117.9 Q 449.5 117.9, 450.1 118.7 Q 450.8 119.4, 450.8 120.7 Q 450.8 122.0, 450.1 122.7 Q 449.5 123.5, 448.3 123.5 Q 447.1 123.5, 446.5 122.7 Q 445.8 122.0, 445.8 120.7 M 448.3 122.9 Q 449.1 122.9, 449.6 122.3 Q 450.0 121.8, 450.0 120.7 Q 450.0 119.6, 449.6 119.1 Q 449.1 118.5, 448.3 118.5 Q 447.5 118.5, 447.0 119.1 Q 446.6 119.6, 446.6 120.7 Q 446.6 121.8, 447.0 122.3 Q 447.5 122.9, 448.3 122.9 " fill="#FF0000"/>
<path class="atom-7" d="M 444.0 68.9 L 445.8 71.8 Q 446.0 72.0, 446.3 72.5 Q 446.5 73.1, 446.6 73.1 L 446.6 68.9 L 447.3 68.9 L 447.3 74.3 L 446.5 74.3 L 444.6 71.2 Q 444.4 70.8, 444.2 70.4 Q 444.0 70.0, 443.9 69.8 L 443.9 74.3 L 443.2 74.3 L 443.2 68.9 L 444.0 68.9 " fill="#0000FF"/>
<path class="atom-11" d="M 457.5 7.3 L 459.3 10.1 Q 459.5 10.4, 459.8 10.9 Q 460.0 11.4, 460.1 11.5 L 460.1 7.3 L 460.8 7.3 L 460.8 12.7 L 460.0 12.7 L 458.1 9.5 Q 457.9 9.2, 457.7 8.8 Q 457.5 8.3, 457.4 8.2 L 457.4 12.7 L 456.7 12.7 L 456.7 7.3 L 457.5 7.3 " fill="#0000FF"/>
<path class="atom-14" d="M 404.3 51.4 L 406.0 54.2 Q 406.2 54.5, 406.5 55.0 Q 406.8 55.5, 406.8 55.5 L 406.8 51.4 L 407.5 51.4 L 407.5 56.7 L 406.8 56.7 L 404.9 53.6 Q 404.6 53.3, 404.4 52.8 Q 404.2 52.4, 404.1 52.3 L 404.1 56.7 L 403.4 56.7 L 403.4 51.4 L 404.3 51.4 " fill="#0000FF"/>
<path class="atom-16" d="M 380.3 77.9 Q 380.3 76.6, 380.9 75.9 Q 381.6 75.2, 382.8 75.2 Q 384.0 75.2, 384.6 75.9 Q 385.2 76.6, 385.2 77.9 Q 385.2 79.2, 384.6 80.0 Q 384.0 80.7, 382.8 80.7 Q 381.6 80.7, 380.9 80.0 Q 380.3 79.2, 380.3 77.9 M 382.8 80.1 Q 383.6 80.1, 384.0 79.6 Q 384.5 79.0, 384.5 77.9 Q 384.5 76.9, 384.0 76.3 Q 383.6 75.8, 382.8 75.8 Q 382.0 75.8, 381.5 76.3 Q 381.1 76.9, 381.1 77.9 Q 381.1 79.0, 381.5 79.6 Q 382.0 80.1, 382.8 80.1 " fill="#FF0000"/>
<path class="atom-17" d="M 371.0 46.4 Q 371.0 45.1, 371.6 44.3 Q 372.3 43.6, 373.5 43.6 Q 374.6 43.6, 375.3 44.3 Q 375.9 45.1, 375.9 46.4 Q 375.9 47.7, 375.3 48.4 Q 374.6 49.1, 373.5 49.1 Q 372.3 49.1, 371.6 48.4 Q 371.0 47.7, 371.0 46.4 M 373.5 48.5 Q 374.3 48.5, 374.7 48.0 Q 375.2 47.4, 375.2 46.4 Q 375.2 45.3, 374.7 44.8 Q 374.3 44.2, 373.5 44.2 Q 372.6 44.2, 372.2 44.8 Q 371.7 45.3, 371.7 46.4 Q 371.7 47.4, 372.2 48.0 Q 372.6 48.5, 373.5 48.5 " fill="#FF0000"/>
<path class="atom-23" d="M 462.9 71.4 L 464.6 74.2 Q 464.8 74.5, 465.1 75.0 Q 465.4 75.5, 465.4 75.6 L 465.4 71.4 L 466.1 71.4 L 466.1 76.8 L 465.4 76.8 L 463.5 73.7 Q 463.3 73.3, 463.0 72.9 Q 462.8 72.5, 462.7 72.3 L 462.7 76.8 L 462.0 76.8 L 462.0 71.4 L 462.9 71.4 " fill="#0000FF"/>
<path class="atom-25" d="M 483.5 98.3 L 485.2 101.1 Q 485.4 101.4, 485.7 101.9 Q 486.0 102.4, 486.0 102.5 L 486.0 98.3 L 486.7 98.3 L 486.7 103.7 L 486.0 103.7 L 484.1 100.5 Q 483.8 100.2, 483.6 99.8 Q 483.4 99.3, 483.3 99.2 L 483.3 103.7 L 482.6 103.7 L 482.6 98.3 L 483.5 98.3 " fill="#0000FF"/>
<path class="atom-25" d="M 482.5 104.2 L 483.3 104.2 L 483.3 106.5 L 486.0 106.5 L 486.0 104.2 L 486.8 104.2 L 486.8 109.6 L 486.0 109.6 L 486.0 107.1 L 483.3 107.1 L 483.3 109.6 L 482.5 109.6 L 482.5 104.2 " fill="#0000FF"/>
<path class="atom-30" d="M 545.8 59.8 Q 545.9 59.9, 546.1 60.0 Q 546.4 60.1, 546.6 60.1 Q 546.9 60.2, 547.2 60.2 Q 547.7 60.2, 548.0 60.0 Q 548.3 59.7, 548.3 59.3 Q 548.3 59.0, 548.1 58.8 Q 548.0 58.6, 547.8 58.5 Q 547.5 58.4, 547.2 58.3 Q 546.7 58.2, 546.4 58.0 Q 546.1 57.9, 545.9 57.6 Q 545.7 57.3, 545.7 56.8 Q 545.7 56.1, 546.2 55.7 Q 546.6 55.3, 547.5 55.3 Q 548.2 55.3, 548.9 55.6 L 548.7 56.2 Q 548.1 55.9, 547.6 55.9 Q 547.0 55.9, 546.8 56.1 Q 546.5 56.3, 546.5 56.7 Q 546.5 57.0, 546.6 57.2 Q 546.8 57.4, 547.0 57.5 Q 547.2 57.6, 547.6 57.7 Q 548.1 57.8, 548.3 58.0 Q 548.6 58.1, 548.8 58.4 Q 549.0 58.7, 549.0 59.3 Q 549.0 60.0, 548.5 60.4 Q 548.1 60.8, 547.2 60.8 Q 546.7 60.8, 546.4 60.7 Q 546.0 60.6, 545.6 60.4 L 545.8 59.8 " fill="#CCCC00"/>
<path class="atom-32" d="M 534.1 42.3 Q 534.1 41.0, 534.7 40.3 Q 535.4 39.6, 536.6 39.6 Q 537.8 39.6, 538.4 40.3 Q 539.0 41.0, 539.0 42.3 Q 539.0 43.6, 538.4 44.4 Q 537.8 45.1, 536.6 45.1 Q 535.4 45.1, 534.7 44.4 Q 534.1 43.6, 534.1 42.3 M 536.6 44.5 Q 537.4 44.5, 537.8 44.0 Q 538.3 43.4, 538.3 42.3 Q 538.3 41.3, 537.8 40.7 Q 537.4 40.2, 536.6 40.2 Q 535.8 40.2, 535.3 40.7 Q 534.9 41.3, 534.9 42.3 Q 534.9 43.4, 535.3 44.0 Q 535.8 44.5, 536.6 44.5 " fill="#FF0000"/>
<path class="atom-33" d="M 555.6 73.7 Q 555.6 72.4, 556.2 71.7 Q 556.9 70.9, 558.1 70.9 Q 559.3 70.9, 559.9 71.7 Q 560.5 72.4, 560.5 73.7 Q 560.5 75.0, 559.9 75.7 Q 559.2 76.5, 558.1 76.5 Q 556.9 76.5, 556.2 75.7 Q 555.6 75.0, 555.6 73.7 M 558.1 75.8 Q 558.9 75.8, 559.3 75.3 Q 559.8 74.7, 559.8 73.7 Q 559.8 72.6, 559.3 72.1 Q 558.9 71.5, 558.1 71.5 Q 557.2 71.5, 556.8 72.1 Q 556.4 72.6, 556.4 73.7 Q 556.4 74.8, 556.8 75.3 Q 557.2 75.8, 558.1 75.8 " fill="#FF0000"/>
<path class="atom-38" d="M 410.7 135.2 Q 410.7 133.9, 411.4 133.2 Q 412.0 132.4, 413.2 132.4 Q 414.4 132.4, 415.0 133.2 Q 415.7 133.9, 415.7 135.2 Q 415.7 136.5, 415.0 137.2 Q 414.4 138.0, 413.2 138.0 Q 412.0 138.0, 411.4 137.2 Q 410.7 136.5, 410.7 135.2 M 413.2 137.4 Q 414.0 137.4, 414.4 136.8 Q 414.9 136.3, 414.9 135.2 Q 414.9 134.1, 414.4 133.6 Q 414.0 133.1, 413.2 133.1 Q 412.4 133.1, 411.9 133.6 Q 411.5 134.1, 411.5 135.2 Q 411.5 136.3, 411.9 136.8 Q 412.4 137.4, 413.2 137.4 " fill="#FF0000"/>
<path class="atom-0" d="M 395.5,88.4 L 395.5,88.4 L 395.5,88.5 L 395.5,88.5 L 395.5,88.5 L 395.5,88.6 L 395.5,88.6 L 395.4,88.6 L 395.4,88.6 L 395.4,88.7 L 395.4,88.7 L 395.3,88.7 L 395.3,88.7 L 395.3,88.7 L 395.3,88.7 L 395.2,88.8 L 395.2,88.8 L 395.2,88.8 L 395.1,88.8 L 395.1,88.8 L 395.1,88.8 L 395.0,88.8 L 395.0,88.8 L 395.0,88.7 L 394.9,88.7 L 394.9,88.7 L 394.9,88.7 L 394.9,88.7 L 394.8,88.6 L 394.8,88.6 L 394.8,88.6 L 394.8,88.6 L 394.8,88.5 L 394.8,88.5 L 394.7,88.5 L 394.7,88.4 L 394.7,88.4 L 394.7,88.4 L 394.7,88.3 L 394.7,88.3 L 394.8,88.3 L 394.8,88.3 L 394.8,88.2 L 394.8,88.2 L 394.8,88.2 L 394.8,88.1 L 394.9,88.1 L 394.9,88.1 L 394.9,88.1 L 394.9,88.1 L 395.0,88.0 L 395.0,88.0 L 395.0,88.0 L 395.1,88.0 L 395.1,88.0 L 395.1,88.0 L 395.2,88.0 L 395.2,88.0 L 395.2,88.0 L 395.3,88.0 L 395.3,88.1 L 395.3,88.1 L 395.3,88.1 L 395.4,88.1 L 395.4,88.1 L 395.4,88.2 L 395.4,88.2 L 395.5,88.2 L 395.5,88.2 L 395.5,88.3 L 395.5,88.3 L 395.5,88.3 L 395.5,88.4 L 395.5,88.4 L 395.1,88.4 Z" style="fill:#000000;fill-rule:evenodd;fill-opacity:1;stroke:#000000;stroke-width:0.0px;stroke-linecap:butt;stroke-linejoin:miter;stroke-opacity:1;"/>
<path class="atom-0" d="M 395.5,92.2 L 395.5,92.2 L 395.5,92.3 L 395.5,92.3 L 395.5,92.3 L 395.5,92.4 L 395.5,92.4 L 395.4,92.4 L 395.4,92.4 L 395.4,92.5 L 395.4,92.5 L 395.3,92.5 L 395.3,92.5 L 395.3,92.5 L 395.3,92.5 L 395.2,92.6 L 395.2,92.6 L 395.2,92.6 L 395.1,92.6 L 395.1,92.6 L 395.1,92.6 L 395.0,92.6 L 395.0,92.6 L 395.0,92.5 L 394.9,92.5 L 394.9,92.5 L 394.9,92.5 L 394.9,92.5 L 394.8,92.4 L 394.8,92.4 L 394.8,92.4 L 394.8,92.4 L 394.8,92.3 L 394.8,92.3 L 394.7,92.3 L 394.7,92.2 L 394.7,92.2 L 394.7,92.2 L 394.7,92.1 L 394.7,92.1 L 394.8,92.1 L 394.8,92.1 L 394.8,92.0 L 394.8,92.0 L 394.8,92.0 L 394.8,91.9 L 394.9,91.9 L 394.9,91.9 L 394.9,91.9 L 394.9,91.9 L 395.0,91.8 L 395.0,91.8 L 395.0,91.8 L 395.1,91.8 L 395.1,91.8 L 395.1,91.8 L 395.2,91.8 L 395.2,91.8 L 395.2,91.8 L 395.3,91.8 L 395.3,91.9 L 395.3,91.9 L 395.3,91.9 L 395.4,91.9 L 395.4,91.9 L 395.4,92.0 L 395.4,92.0 L 395.5,92.0 L 395.5,92.0 L 395.5,92.1 L 395.5,92.1 L 395.5,92.1 L 395.5,92.2 L 395.5,92.2 L 395.1,92.2 Z" style="fill:#000000;fill-rule:evenodd;fill-opacity:1;stroke:#000000;stroke-width:0.0px;stroke-linecap:butt;stroke-linejoin:miter;stroke-opacity:1;"/>
<path class="atom-0" d="M 395.5,90.3 L 395.5,90.3 L 395.5,90.4 L 395.5,90.4 L 395.5,90.4 L 395.5,90.5 L 395.5,90.5 L 395.4,90.5 L 395.4,90.5 L 395.4,90.6 L 395.4,90.6 L 395.3,90.6 L 395.3,90.6 L 395.3,90.6 L 395.3,90.6 L 395.2,90.7 L 395.2,90.7 L 395.2,90.7 L 395.1,90.7 L 395.1,90.7 L 395.1,90.7 L 395.0,90.7 L 395.0,90.7 L 395.0,90.6 L 394.9,90.6 L 394.9,90.6 L 394.9,90.6 L 394.9,90.6 L 394.8,90.5 L 394.8,90.5 L 394.8,90.5 L 394.8,90.5 L 394.8,90.4 L 394.8,90.4 L 394.7,90.4 L 394.7,90.3 L 394.7,90.3 L 394.7,90.3 L 394.7,90.2 L 394.7,90.2 L 394.8,90.2 L 394.8,90.2 L 394.8,90.1 L 394.8,90.1 L 394.8,90.1 L 394.8,90.0 L 394.9,90.0 L 394.9,90.0 L 394.9,90.0 L 394.9,90.0 L 395.0,89.9 L 395.0,89.9 L 395.0,89.9 L 395.1,89.9 L 395.1,89.9 L 395.1,89.9 L 395.2,89.9 L 395.2,89.9 L 395.2,89.9 L 395.3,89.9 L 395.3,90.0 L 395.3,90.0 L 395.3,90.0 L 395.4,90.0 L 395.4,90.0 L 395.4,90.1 L 395.4,90.1 L 395.5,90.1 L 395.5,90.1 L 395.5,90.2 L 395.5,90.2 L 395.5,90.2 L 395.5,90.3 L 395.5,90.3 L 395.1,90.3 Z" style="fill:#000000;fill-rule:evenodd;fill-opacity:1;stroke:#000000;stroke-width:0.0px;stroke-linecap:butt;stroke-linejoin:miter;stroke-opacity:1;"/>
<path class="atom-1" d="M 401.9,107.9 L 401.9,107.9 L 401.8,107.9 L 401.8,108.0 L 401.8,108.0 L 401.8,108.0 L 401.8,108.0 L 401.8,108.1 L 401.8,108.1 L 401.7,108.1 L 401.7,108.1 L 401.7,108.2 L 401.7,108.2 L 401.6,108.2 L 401.6,108.2 L 401.6,108.2 L 401.5,108.2 L 401.5,108.2 L 401.5,108.2 L 401.4,108.2 L 401.4,108.2 L 401.4,108.2 L 401.4,108.2 L 401.3,108.2 L 401.3,108.2 L 401.3,108.2 L 401.2,108.2 L 401.2,108.1 L 401.2,108.1 L 401.2,108.1 L 401.2,108.1 L 401.1,108.0 L 401.1,108.0 L 401.1,108.0 L 401.1,107.9 L 401.1,107.9 L 401.1,107.9 L 401.1,107.8 L 401.1,107.8 L 401.1,107.8 L 401.1,107.7 L 401.1,107.7 L 401.1,107.7 L 401.2,107.7 L 401.2,107.6 L 401.2,107.6 L 401.2,107.6 L 401.2,107.6 L 401.3,107.5 L 401.3,107.5 L 401.3,107.5 L 401.4,107.5 L 401.4,107.5 L 401.4,107.5 L 401.4,107.5 L 401.5,107.5 L 401.5,107.5 L 401.5,107.5 L 401.6,107.5 L 401.6,107.5 L 401.6,107.5 L 401.7,107.5 L 401.7,107.5 L 401.7,107.6 L 401.7,107.6 L 401.8,107.6 L 401.8,107.6 L 401.8,107.7 L 401.8,107.7 L 401.8,107.7 L 401.8,107.8 L 401.8,107.8 L 401.9,107.8 L 401.9,107.9 L 401.5,107.9 Z" style="fill:#000000;fill-rule:evenodd;fill-opacity:1;stroke:#000000;stroke-width:0.0px;stroke-linecap:butt;stroke-linejoin:miter;stroke-opacity:1;"/>
<path class="atom-2" d="M 431.7,110.4 L 431.7,110.4 L 431.7,110.4 L 431.7,110.4 L 431.7,110.5 L 431.7,110.5 L 431.6,110.5 L 431.6,110.6 L 431.6,110.6 L 431.6,110.6 L 431.6,110.6 L 431.5,110.7 L 431.5,110.7 L 431.5,110.7 L 431.4,110.7 L 431.4,110.7 L 431.4,110.7 L 431.3,110.7 L 431.3,110.7 L 431.3,110.7 L 431.2,110.7 L 431.2,110.7 L 431.2,110.7 L 431.2,110.7 L 431.1,110.7 L 431.1,110.7 L 431.1,110.7 L 431.0,110.6 L 431.0,110.6 L 431.0,110.6 L 431.0,110.6 L 431.0,110.5 L 431.0,110.5 L 430.9,110.5 L 430.9,110.4 L 430.9,110.4 L 430.9,110.4 L 430.9,110.3 L 430.9,110.3 L 430.9,110.3 L 430.9,110.2 L 431.0,110.2 L 431.0,110.2 L 431.0,110.2 L 431.0,110.1 L 431.0,110.1 L 431.0,110.1 L 431.1,110.1 L 431.1,110.0 L 431.1,110.0 L 431.2,110.0 L 431.2,110.0 L 431.2,110.0 L 431.2,110.0 L 431.3,110.0 L 431.3,110.0 L 431.3,110.0 L 431.4,110.0 L 431.4,110.0 L 431.4,110.0 L 431.5,110.0 L 431.5,110.0 L 431.5,110.0 L 431.6,110.1 L 431.6,110.1 L 431.6,110.1 L 431.6,110.1 L 431.6,110.2 L 431.7,110.2 L 431.7,110.2 L 431.7,110.3 L 431.7,110.3 L 431.7,110.3 L 431.7,110.4 L 431.3,110.4 Z" style="fill:#000000;fill-rule:evenodd;fill-opacity:1;stroke:#000000;stroke-width:0.0px;stroke-linecap:butt;stroke-linejoin:miter;stroke-opacity:1;"/>
<path class="bond-0 atom-0 atom-1" d="M 761.7,16.2 L 767.7,34.3" style="fill:none;fill-rule:evenodd;stroke:#000000;stroke-width:2.0px;stroke-linecap:butt;stroke-linejoin:miter;stroke-opacity:1"/>
<path class="bond-1 atom-1 atom-2" d="M 767.7,34.3 L 762.6,40.1" style="fill:none;fill-rule:evenodd;stroke:#000000;stroke-width:2.0px;stroke-linecap:butt;stroke-linejoin:miter;stroke-opacity:1"/>
<path class="bond-1 atom-1 atom-2" d="M 762.6,40.1 L 757.5,45.8" style="fill:none;fill-rule:evenodd;stroke:#CCCC00;stroke-width:2.0px;stroke-linecap:butt;stroke-linejoin:miter;stroke-opacity:1"/>
<path class="bond-2 atom-2 atom-3" d="M 756.3,51.9 L 760.1,63.2" style="fill:none;fill-rule:evenodd;stroke:#CCCC00;stroke-width:2.0px;stroke-linecap:butt;stroke-linejoin:miter;stroke-opacity:1"/>
<path class="bond-2 atom-2 atom-3" d="M 759.0,51.0 L 762.8,62.3" style="fill:none;fill-rule:evenodd;stroke:#CCCC00;stroke-width:2.0px;stroke-linecap:butt;stroke-linejoin:miter;stroke-opacity:1"/>
<path class="bond-2 atom-2 atom-3" d="M 753.6,52.8 L 757.4,64.1" style="fill:none;fill-rule:evenodd;stroke:#CCCC00;stroke-width:2.0px;stroke-linecap:butt;stroke-linejoin:miter;stroke-opacity:1"/>
<path class="bond-3 atom-3 atom-4" d="M 758.8,69.2 L 753.7,75.0" style="fill:none;fill-rule:evenodd;stroke:#CCCC00;stroke-width:2.0px;stroke-linecap:butt;stroke-linejoin:miter;stroke-opacity:1"/>
<path class="bond-3 atom-3 atom-4" d="M 753.7,75.0 L 748.6,80.7" style="fill:none;fill-rule:evenodd;stroke:#000000;stroke-width:2.0px;stroke-linecap:butt;stroke-linejoin:miter;stroke-opacity:1"/>
<path class="bond-4 atom-4 atom-5" d="M 748.6,80.7 L 729.7,78.9" style="fill:none;fill-rule:evenodd;stroke:#000000;stroke-width:2.0px;stroke-linecap:butt;stroke-linejoin:miter;stroke-opacity:1"/>
<path class="bond-4 atom-4 atom-5" d="M 746.2,83.4 L 731.4,81.9" style="fill:none;fill-rule:evenodd;stroke:#000000;stroke-width:2.0px;stroke-linecap:butt;stroke-linejoin:miter;stroke-opacity:1"/>
<path class="bond-5 atom-5 atom-6" d="M 729.7,78.9 L 726.6,86.0" style="fill:none;fill-rule:evenodd;stroke:#000000;stroke-width:2.0px;stroke-linecap:butt;stroke-linejoin:miter;stroke-opacity:1"/>
<path class="bond-5 atom-5 atom-6" d="M 726.6,86.0 L 723.5,93.0" style="fill:none;fill-rule:evenodd;stroke:#0000FF;stroke-width:2.0px;stroke-linecap:butt;stroke-linejoin:miter;stroke-opacity:1"/>
<path class="bond-6 atom-6 atom-7" d="M 719.4,96.9 L 711.5,98.7" style="fill:none;fill-rule:evenodd;stroke:#0000FF;stroke-width:2.0px;stroke-linecap:butt;stroke-linejoin:miter;stroke-opacity:1"/>
<path class="bond-6 atom-6 atom-7" d="M 711.5,98.7 L 703.5,100.4" style="fill:none;fill-rule:evenodd;stroke:#000000;stroke-width:2.0px;stroke-linecap:butt;stroke-linejoin:miter;stroke-opacity:1"/>
<path class="bond-7 atom-7 atom-8" d="M 703.5,100.4 L 709.5,118.4" style="fill:none;fill-rule:evenodd;stroke:#000000;stroke-width:2.0px;stroke-linecap:butt;stroke-linejoin:miter;stroke-opacity:1"/>
<path class="bond-8 atom-8 atom-9" d="M 709.5,118.4 L 696.9,132.7" style="fill:none;fill-rule:evenodd;stroke:#000000;stroke-width:2.0px;stroke-linecap:butt;stroke-linejoin:miter;stroke-opacity:1"/>
<path class="bond-9 atom-9 atom-10" d="M 696.9,132.7 L 692.0,138.3" style="fill:none;fill-rule:evenodd;stroke:#000000;stroke-width:2.0px;stroke-linecap:butt;stroke-linejoin:miter;stroke-opacity:1"/>
<path class="bond-9 atom-9 atom-10" d="M 692.0,138.3 L 687.0,143.9" style="fill:none;fill-rule:evenodd;stroke:#0000FF;stroke-width:2.0px;stroke-linecap:butt;stroke-linejoin:miter;stroke-opacity:1"/>
<path class="bond-9 atom-9 atom-10" d="M 699.1,134.6 L 694.1,140.2" style="fill:none;fill-rule:evenodd;stroke:#000000;stroke-width:2.0px;stroke-linecap:butt;stroke-linejoin:miter;stroke-opacity:1"/>
<path class="bond-9 atom-9 atom-10" d="M 694.1,140.2 L 689.2,145.8" style="fill:none;fill-rule:evenodd;stroke:#0000FF;stroke-width:2.0px;stroke-linecap:butt;stroke-linejoin:miter;stroke-opacity:1"/>
<path class="bond-9 atom-9 atom-10" d="M 694.8,130.8 L 689.8,136.4" style="fill:none;fill-rule:evenodd;stroke:#000000;stroke-width:2.0px;stroke-linecap:butt;stroke-linejoin:miter;stroke-opacity:1"/>
<path class="bond-9 atom-9 atom-10" d="M 689.8,136.4 L 684.9,142.0" style="fill:none;fill-rule:evenodd;stroke:#0000FF;stroke-width:2.0px;stroke-linecap:butt;stroke-linejoin:miter;stroke-opacity:1"/>
<path class="bond-10 atom-7 atom-11" d="M 703.5,100.4 L 686.2,108.3" style="fill:none;fill-rule:evenodd;stroke:#000000;stroke-width:2.0px;stroke-linecap:butt;stroke-linejoin:miter;stroke-opacity:1"/>
<path class="bond-11 atom-11 atom-12" d="M 686.2,108.3 L 673.4,94.3" style="fill:none;fill-rule:evenodd;stroke:#000000;stroke-width:2.0px;stroke-linecap:butt;stroke-linejoin:miter;stroke-opacity:1"/>
<path class="bond-12 atom-12 atom-13" d="M 673.4,94.3 L 677.1,87.7" style="fill:none;fill-rule:evenodd;stroke:#000000;stroke-width:2.0px;stroke-linecap:butt;stroke-linejoin:miter;stroke-opacity:1"/>
<path class="bond-12 atom-12 atom-13" d="M 677.1,87.7 L 680.9,81.1" style="fill:none;fill-rule:evenodd;stroke:#0000FF;stroke-width:2.0px;stroke-linecap:butt;stroke-linejoin:miter;stroke-opacity:1"/>
<path class="bond-13 atom-13 atom-14" d="M 681.3,74.4 L 678.1,67.4" style="fill:none;fill-rule:evenodd;stroke:#0000FF;stroke-width:2.0px;stroke-linecap:butt;stroke-linejoin:miter;stroke-opacity:1"/>
<path class="bond-13 atom-13 atom-14" d="M 678.1,67.4 L 674.9,60.5" style="fill:none;fill-rule:evenodd;stroke:#000000;stroke-width:2.0px;stroke-linecap:butt;stroke-linejoin:miter;stroke-opacity:1"/>
<path class="bond-14 atom-14 atom-15" d="M 675.9,59.1 L 667.5,58.3" style="fill:none;fill-rule:evenodd;stroke:#000000;stroke-width:2.0px;stroke-linecap:butt;stroke-linejoin:miter;stroke-opacity:1"/>
<path class="bond-14 atom-14 atom-15" d="M 667.5,58.3 L 659.2,57.5" style="fill:none;fill-rule:evenodd;stroke:#FF0000;stroke-width:2.0px;stroke-linecap:butt;stroke-linejoin:miter;stroke-opacity:1"/>
<path class="bond-14 atom-14 atom-15" d="M 675.6,62.0 L 667.3,61.2" style="fill:none;fill-rule:evenodd;stroke:#000000;stroke-width:2.0px;stroke-linecap:butt;stroke-linejoin:miter;stroke-opacity:1"/>
<path class="bond-14 atom-14 atom-15" d="M 667.3,61.2 L 658.9,60.3" style="fill:none;fill-rule:evenodd;stroke:#FF0000;stroke-width:2.0px;stroke-linecap:butt;stroke-linejoin:miter;stroke-opacity:1"/>
<path class="bond-15 atom-14 atom-16" d="M 674.9,60.5 L 679.2,54.4" style="fill:none;fill-rule:evenodd;stroke:#000000;stroke-width:2.0px;stroke-linecap:butt;stroke-linejoin:miter;stroke-opacity:1"/>
<path class="bond-15 atom-14 atom-16" d="M 679.2,54.4 L 683.5,48.4" style="fill:none;fill-rule:evenodd;stroke:#FF0000;stroke-width:2.0px;stroke-linecap:butt;stroke-linejoin:miter;stroke-opacity:1"/>
<path class="bond-16 atom-16 atom-17" d="M 684.4,41.7 L 681.2,34.7" style="fill:none;fill-rule:evenodd;stroke:#FF0000;stroke-width:2.0px;stroke-linecap:butt;stroke-linejoin:miter;stroke-opacity:1"/>
<path class="bond-16 atom-16 atom-17" d="M 681.2,34.7 L 678.1,27.7" style="fill:none;fill-rule:evenodd;stroke:#000000;stroke-width:2.0px;stroke-linecap:butt;stroke-linejoin:miter;stroke-opacity:1"/>
<path class="bond-17 atom-17 atom-18" d="M 678.1,27.7 L 695.4,19.8" style="fill:none;fill-rule:evenodd;stroke:#000000;stroke-width:2.0px;stroke-linecap:butt;stroke-linejoin:miter;stroke-opacity:1"/>
<path class="bond-18 atom-17 atom-19" d="M 678.1,27.7 L 660.8,35.6" style="fill:none;fill-rule:evenodd;stroke:#000000;stroke-width:2.0px;stroke-linecap:butt;stroke-linejoin:miter;stroke-opacity:1"/>
<path class="bond-19 atom-17 atom-20" d="M 678.1,27.7 L 670.2,10.4" style="fill:none;fill-rule:evenodd;stroke:#000000;stroke-width:2.0px;stroke-linecap:butt;stroke-linejoin:miter;stroke-opacity:1"/>
<path class="bond-20 atom-13 atom-21" d="M 685.4,78.3 L 693.4,79.9" style="fill:none;fill-rule:evenodd;stroke:#0000FF;stroke-width:2.0px;stroke-linecap:butt;stroke-linejoin:miter;stroke-opacity:1"/>
<path class="bond-20 atom-13 atom-21" d="M 693.4,79.9 L 701.4,81.6" style="fill:none;fill-rule:evenodd;stroke:#000000;stroke-width:2.0px;stroke-linecap:butt;stroke-linejoin:miter;stroke-opacity:1"/>
<path class="bond-21 atom-6 atom-22" d="M 724.7,98.7 L 733.6,106.6" style="fill:none;fill-rule:evenodd;stroke:#0000FF;stroke-width:2.0px;stroke-linecap:butt;stroke-linejoin:miter;stroke-opacity:1"/>
<path class="bond-22 atom-22 atom-23" d="M 739.0,107.4 L 745.8,103.3" style="fill:none;fill-rule:evenodd;stroke:#0000FF;stroke-width:2.0px;stroke-linecap:butt;stroke-linejoin:miter;stroke-opacity:1"/>
<path class="bond-22 atom-22 atom-23" d="M 745.8,103.3 L 752.7,99.3" style="fill:none;fill-rule:evenodd;stroke:#000000;stroke-width:2.0px;stroke-linecap:butt;stroke-linejoin:miter;stroke-opacity:1"/>
<path class="bond-22 atom-22 atom-23" d="M 737.5,104.9 L 743.5,101.4" style="fill:none;fill-rule:evenodd;stroke:#0000FF;stroke-width:2.0px;stroke-linecap:butt;stroke-linejoin:miter;stroke-opacity:1"/>
<path class="bond-22 atom-22 atom-23" d="M 743.5,101.4 L 749.4,97.9" style="fill:none;fill-rule:evenodd;stroke:#000000;stroke-width:2.0px;stroke-linecap:butt;stroke-linejoin:miter;stroke-opacity:1"/>
<path class="bond-23 atom-23 atom-24" d="M 752.7,99.3 L 760.0,102.5" style="fill:none;fill-rule:evenodd;stroke:#000000;stroke-width:2.0px;stroke-linecap:butt;stroke-linejoin:miter;stroke-opacity:1"/>
<path class="bond-23 atom-23 atom-24" d="M 760.0,102.5 L 767.4,105.7" style="fill:none;fill-rule:evenodd;stroke:#0000FF;stroke-width:2.0px;stroke-linecap:butt;stroke-linejoin:miter;stroke-opacity:1"/>
<path class="bond-24 atom-24 atom-25" d="M 772.8,104.9 L 779.1,100.2" style="fill:none;fill-rule:evenodd;stroke:#0000FF;stroke-width:2.0px;stroke-linecap:butt;stroke-linejoin:miter;stroke-opacity:1"/>
<path class="bond-24 atom-24 atom-25" d="M 779.1,100.2 L 785.4,95.6" style="fill:none;fill-rule:evenodd;stroke:#000000;stroke-width:2.0px;stroke-linecap:butt;stroke-linejoin:miter;stroke-opacity:1"/>
<path class="bond-25 atom-25 atom-26" d="M 785.4,95.6 L 802.8,103.2" style="fill:none;fill-rule:evenodd;stroke:#000000;stroke-width:2.0px;stroke-linecap:butt;stroke-linejoin:miter;stroke-opacity:1"/>
<path class="bond-25 atom-25 atom-26" d="M 788.0,93.6 L 802.4,99.9" style="fill:none;fill-rule:evenodd;stroke:#000000;stroke-width:2.0px;stroke-linecap:butt;stroke-linejoin:miter;stroke-opacity:1"/>
<path class="bond-26 atom-26 atom-27" d="M 802.8,103.2 L 818.1,91.9" style="fill:none;fill-rule:evenodd;stroke:#000000;stroke-width:2.0px;stroke-linecap:butt;stroke-linejoin:miter;stroke-opacity:1"/>
<path class="bond-27 atom-27 atom-28" d="M 818.1,91.9 L 815.9,73.0" style="fill:none;fill-rule:evenodd;stroke:#000000;stroke-width:2.0px;stroke-linecap:butt;stroke-linejoin:miter;stroke-opacity:1"/>
<path class="bond-27 atom-27 atom-28" d="M 815.1,90.6 L 813.3,74.9" style="fill:none;fill-rule:evenodd;stroke:#000000;stroke-width:2.0px;stroke-linecap:butt;stroke-linejoin:miter;stroke-opacity:1"/>
<path class="bond-28 atom-28 atom-29" d="M 815.9,73.0 L 822.4,68.2" style="fill:none;fill-rule:evenodd;stroke:#000000;stroke-width:2.0px;stroke-linecap:butt;stroke-linejoin:miter;stroke-opacity:1"/>
<path class="bond-28 atom-28 atom-29" d="M 822.4,68.2 L 828.9,63.4" style="fill:none;fill-rule:evenodd;stroke:#CCCC00;stroke-width:2.0px;stroke-linecap:butt;stroke-linejoin:miter;stroke-opacity:1"/>
<path class="bond-29 atom-29 atom-30" d="M 833.6,60.0 L 840.0,55.2" style="fill:none;fill-rule:evenodd;stroke:#CCCC00;stroke-width:2.0px;stroke-linecap:butt;stroke-linejoin:miter;stroke-opacity:1"/>
<path class="bond-29 atom-29 atom-30" d="M 840.0,55.2 L 846.5,50.4" style="fill:none;fill-rule:evenodd;stroke:#000000;stroke-width:2.0px;stroke-linecap:butt;stroke-linejoin:miter;stroke-opacity:1"/>
<path class="bond-30 atom-29 atom-31" d="M 830.0,57.7 L 826.8,53.3" style="fill:none;fill-rule:evenodd;stroke:#CCCC00;stroke-width:2.0px;stroke-linecap:butt;stroke-linejoin:miter;stroke-opacity:1"/>
<path class="bond-30 atom-29 atom-31" d="M 826.8,53.3 L 823.6,49.0" style="fill:none;fill-rule:evenodd;stroke:#FF0000;stroke-width:2.0px;stroke-linecap:butt;stroke-linejoin:miter;stroke-opacity:1"/>
<path class="bond-30 atom-29 atom-31" d="M 827.7,59.4 L 824.5,55.0" style="fill:none;fill-rule:evenodd;stroke:#CCCC00;stroke-width:2.0px;stroke-linecap:butt;stroke-linejoin:miter;stroke-opacity:1"/>
<path class="bond-30 atom-29 atom-31" d="M 824.5,55.0 L 821.3,50.7" style="fill:none;fill-rule:evenodd;stroke:#FF0000;stroke-width:2.0px;stroke-linecap:butt;stroke-linejoin:miter;stroke-opacity:1"/>
<path class="bond-31 atom-29 atom-32" d="M 832.4,65.7 L 835.6,70.1" style="fill:none;fill-rule:evenodd;stroke:#CCCC00;stroke-width:2.0px;stroke-linecap:butt;stroke-linejoin:miter;stroke-opacity:1"/>
<path class="bond-31 atom-29 atom-32" d="M 835.6,70.1 L 838.9,74.5" style="fill:none;fill-rule:evenodd;stroke:#FF0000;stroke-width:2.0px;stroke-linecap:butt;stroke-linejoin:miter;stroke-opacity:1"/>
<path class="bond-31 atom-29 atom-32" d="M 834.7,64.0 L 837.9,68.4" style="fill:none;fill-rule:evenodd;stroke:#CCCC00;stroke-width:2.0px;stroke-linecap:butt;stroke-linejoin:miter;stroke-opacity:1"/>
<path class="bond-31 atom-29 atom-32" d="M 837.9,68.4 L 841.2,72.8" style="fill:none;fill-rule:evenodd;stroke:#FF0000;stroke-width:2.0px;stroke-linecap:butt;stroke-linejoin:miter;stroke-opacity:1"/>
<path class="bond-32 atom-28 atom-33" d="M 815.9,73.0 L 798.5,65.4" style="fill:none;fill-rule:evenodd;stroke:#000000;stroke-width:2.0px;stroke-linecap:butt;stroke-linejoin:miter;stroke-opacity:1"/>
<path class="bond-33 atom-33 atom-34" d="M 798.5,65.4 L 783.2,76.7" style="fill:none;fill-rule:evenodd;stroke:#000000;stroke-width:2.0px;stroke-linecap:butt;stroke-linejoin:miter;stroke-opacity:1"/>
<path class="bond-33 atom-33 atom-34" d="M 798.9,68.7 L 786.2,78.0" style="fill:none;fill-rule:evenodd;stroke:#000000;stroke-width:2.0px;stroke-linecap:butt;stroke-linejoin:miter;stroke-opacity:1"/>
<path class="bond-34 atom-23 atom-4" d="M 752.7,99.3 L 748.6,80.7" style="fill:none;fill-rule:evenodd;stroke:#000000;stroke-width:2.0px;stroke-linecap:butt;stroke-linejoin:miter;stroke-opacity:1"/>
<path class="bond-35 atom-34 atom-25" d="M 783.2,76.7 L 785.4,95.6" style="fill:none;fill-rule:evenodd;stroke:#000000;stroke-width:2.0px;stroke-linecap:butt;stroke-linejoin:miter;stroke-opacity:1"/>
<path class="bond-36 atom-21 atom-7" d="M 701.4,81.6 L 703.5,100.4" style="fill:none;fill-rule:evenodd;stroke:#000000;stroke-width:2.0px;stroke-linecap:butt;stroke-linejoin:miter;stroke-opacity:1"/>
<path d="M 767.4,33.4 L 767.7,34.3 L 767.5,34.6" style="fill:none;stroke:#000000;stroke-width:2.0px;stroke-linecap:butt;stroke-linejoin:miter;stroke-opacity:1;"/>
<path d="M 730.6,79.0 L 729.7,78.9 L 729.5,79.3" style="fill:none;stroke:#000000;stroke-width:2.0px;stroke-linecap:butt;stroke-linejoin:miter;stroke-opacity:1;"/>
<path d="M 709.2,117.5 L 709.5,118.4 L 708.9,119.2" style="fill:none;stroke:#000000;stroke-width:2.0px;stroke-linecap:butt;stroke-linejoin:miter;stroke-opacity:1;"/>
<path d="M 697.6,132.0 L 696.9,132.7 L 696.7,133.0" style="fill:none;stroke:#000000;stroke-width:2.0px;stroke-linecap:butt;stroke-linejoin:miter;stroke-opacity:1;"/>
<path d="M 687.1,107.9 L 686.2,108.3 L 685.6,107.6" style="fill:none;stroke:#000000;stroke-width:2.0px;stroke-linecap:butt;stroke-linejoin:miter;stroke-opacity:1;"/>
<path d="M 674.0,95.0 L 673.4,94.3 L 673.6,94.0" style="fill:none;stroke:#000000;stroke-width:2.0px;stroke-linecap:butt;stroke-linejoin:miter;stroke-opacity:1;"/>
<path d="M 675.1,60.8 L 674.9,60.5 L 675.1,60.2" style="fill:none;stroke:#000000;stroke-width:2.0px;stroke-linecap:butt;stroke-linejoin:miter;stroke-opacity:1;"/>
<path d="M 701.0,81.5 L 701.4,81.6 L 701.5,82.5" style="fill:none;stroke:#000000;stroke-width:2.0px;stroke-linecap:butt;stroke-linejoin:miter;stroke-opacity:1;"/>
<path d="M 801.9,102.8 L 802.8,103.2 L 803.6,102.6" style="fill:none;stroke:#000000;stroke-width:2.0px;stroke-linecap:butt;stroke-linejoin:miter;stroke-opacity:1;"/>
<path d="M 817.3,92.4 L 818.1,91.9 L 818.0,90.9" style="fill:none;stroke:#000000;stroke-width:2.0px;stroke-linecap:butt;stroke-linejoin:miter;stroke-opacity:1;"/>
<path d="M 799.4,65.8 L 798.5,65.4 L 797.7,66.0" style="fill:none;stroke:#000000;stroke-width:2.0px;stroke-linecap:butt;stroke-linejoin:miter;stroke-opacity:1;"/>
<path d="M 784.0,76.1 L 783.2,76.7 L 783.3,77.6" style="fill:none;stroke:#000000;stroke-width:2.0px;stroke-linecap:butt;stroke-linejoin:miter;stroke-opacity:1;"/>
<path class="atom-2" d="M 753.6 50.3 Q 753.7 50.4, 753.9 50.5 Q 754.2 50.6, 754.5 50.6 Q 754.7 50.7, 755.0 50.7 Q 755.5 50.7, 755.8 50.5 Q 756.1 50.2, 756.1 49.8 Q 756.1 49.5, 756.0 49.3 Q 755.8 49.1, 755.6 49.0 Q 755.4 48.9, 755.0 48.8 Q 754.5 48.7, 754.2 48.5 Q 753.9 48.4, 753.7 48.1 Q 753.5 47.8, 753.5 47.3 Q 753.5 46.6, 754.0 46.2 Q 754.5 45.8, 755.4 45.8 Q 756.0 45.8, 756.7 46.1 L 756.5 46.7 Q 755.9 46.4, 755.4 46.4 Q 754.9 46.4, 754.6 46.6 Q 754.3 46.9, 754.3 47.2 Q 754.3 47.5, 754.4 47.7 Q 754.6 47.9, 754.8 48.0 Q 755.0 48.1, 755.4 48.2 Q 755.9 48.3, 756.2 48.5 Q 756.5 48.6, 756.7 48.9 Q 756.9 49.3, 756.9 49.8 Q 756.9 50.5, 756.4 50.9 Q 755.9 51.3, 755.0 51.3 Q 754.6 51.3, 754.2 51.2 Q 753.8 51.1, 753.4 50.9 L 753.6 50.3 " fill="#CCCC00"/>
<path class="atom-3" d="M 759.6 68.4 Q 759.7 68.4, 760.0 68.5 Q 760.2 68.6, 760.5 68.7 Q 760.8 68.7, 761.0 68.7 Q 761.5 68.7, 761.8 68.5 Q 762.1 68.2, 762.1 67.8 Q 762.1 67.5, 762.0 67.3 Q 761.8 67.1, 761.6 67.0 Q 761.4 66.9, 761.0 66.8 Q 760.5 66.7, 760.2 66.6 Q 760.0 66.4, 759.8 66.1 Q 759.6 65.8, 759.6 65.4 Q 759.6 64.7, 760.0 64.3 Q 760.5 63.8, 761.4 63.8 Q 762.0 63.8, 762.7 64.1 L 762.5 64.7 Q 761.9 64.5, 761.4 64.5 Q 760.9 64.5, 760.6 64.7 Q 760.3 64.9, 760.3 65.3 Q 760.3 65.5, 760.5 65.7 Q 760.6 65.9, 760.8 66.0 Q 761.0 66.1, 761.4 66.2 Q 761.9 66.4, 762.2 66.5 Q 762.5 66.7, 762.7 67.0 Q 762.9 67.3, 762.9 67.8 Q 762.9 68.6, 762.4 69.0 Q 761.9 69.3, 761.1 69.3 Q 760.6 69.3, 760.2 69.2 Q 759.9 69.1, 759.4 69.0 L 759.6 68.4 " fill="#CCCC00"/>
<path class="atom-3" d="M 763.6 63.8 L 764.4 63.8 L 764.4 66.1 L 767.1 66.1 L 767.1 63.8 L 767.8 63.8 L 767.8 69.2 L 767.1 69.2 L 767.1 66.7 L 764.4 66.7 L 764.4 69.2 L 763.6 69.2 L 763.6 63.8 " fill="#CCCC00"/>
<path class="atom-6" d="M 720.9 93.6 L 722.6 96.5 Q 722.8 96.8, 723.1 97.3 Q 723.4 97.8, 723.4 97.8 L 723.4 93.6 L 724.1 93.6 L 724.1 99.0 L 723.4 99.0 L 721.5 95.9 Q 721.3 95.5, 721.0 95.1 Q 720.8 94.7, 720.7 94.6 L 720.7 99.0 L 720.0 99.0 L 720.0 93.6 L 720.9 93.6 " fill="#0000FF"/>
<path class="atom-10" d="M 683.2 144.2 L 684.9 147.1 Q 685.1 147.3, 685.4 147.8 Q 685.7 148.4, 685.7 148.4 L 685.7 144.2 L 686.4 144.2 L 686.4 149.6 L 685.7 149.6 L 683.8 146.5 Q 683.5 146.1, 683.3 145.7 Q 683.1 145.3, 683.0 145.1 L 683.0 149.6 L 682.3 149.6 L 682.3 144.2 L 683.2 144.2 " fill="#0000FF"/>
<path class="atom-13" d="M 681.6 75.1 L 683.3 77.9 Q 683.5 78.2, 683.8 78.7 Q 684.1 79.2, 684.1 79.2 L 684.1 75.1 L 684.8 75.1 L 684.8 80.4 L 684.1 80.4 L 682.2 77.3 Q 682.0 77.0, 681.7 76.5 Q 681.5 76.1, 681.4 76.0 L 681.4 80.4 L 680.7 80.4 L 680.7 75.1 L 681.6 75.1 " fill="#0000FF"/>
<path class="atom-15" d="M 653.5 58.6 Q 653.5 57.4, 654.2 56.6 Q 654.8 55.9, 656.0 55.9 Q 657.2 55.9, 657.8 56.6 Q 658.5 57.4, 658.5 58.6 Q 658.5 60.0, 657.8 60.7 Q 657.2 61.4, 656.0 61.4 Q 654.8 61.4, 654.2 60.7 Q 653.5 60.0, 653.5 58.6 M 656.0 60.8 Q 656.8 60.8, 657.2 60.3 Q 657.7 59.7, 657.7 58.6 Q 657.7 57.6, 657.2 57.1 Q 656.8 56.5, 656.0 56.5 Q 655.2 56.5, 654.7 57.0 Q 654.3 57.6, 654.3 58.6 Q 654.3 59.7, 654.7 60.3 Q 655.2 60.8, 656.0 60.8 " fill="#FF0000"/>
<path class="atom-16" d="M 683.5 45.0 Q 683.5 43.7, 684.1 43.0 Q 684.7 42.3, 685.9 42.3 Q 687.1 42.3, 687.8 43.0 Q 688.4 43.7, 688.4 45.0 Q 688.4 46.3, 687.8 47.1 Q 687.1 47.8, 685.9 47.8 Q 684.8 47.8, 684.1 47.1 Q 683.5 46.3, 683.5 45.0 M 685.9 47.2 Q 686.8 47.2, 687.2 46.6 Q 687.6 46.1, 687.6 45.0 Q 687.6 44.0, 687.2 43.4 Q 686.8 42.9, 685.9 42.9 Q 685.1 42.9, 684.7 43.4 Q 684.2 43.9, 684.2 45.0 Q 684.2 46.1, 684.7 46.6 Q 685.1 47.2, 685.9 47.2 " fill="#FF0000"/>
<path class="atom-22" d="M 735.1 106.2 L 736.9 109.1 Q 737.0 109.4, 737.3 109.9 Q 737.6 110.4, 737.6 110.4 L 737.6 106.2 L 738.3 106.2 L 738.3 111.6 L 737.6 111.6 L 735.7 108.5 Q 735.5 108.1, 735.3 107.7 Q 735.0 107.3, 735.0 107.2 L 735.0 111.6 L 734.3 111.6 L 734.3 106.2 L 735.1 106.2 " fill="#0000FF"/>
<path class="atom-24" d="M 768.9 104.2 L 770.7 107.0 Q 770.8 107.3, 771.1 107.8 Q 771.4 108.3, 771.4 108.4 L 771.4 104.2 L 772.1 104.2 L 772.1 109.6 L 771.4 109.6 L 769.5 106.4 Q 769.3 106.1, 769.0 105.7 Q 768.8 105.2, 768.8 105.1 L 768.8 109.6 L 768.1 109.6 L 768.1 104.2 L 768.9 104.2 " fill="#0000FF"/>
<path class="atom-24" d="M 768.0 110.1 L 768.7 110.1 L 768.7 112.4 L 771.5 112.4 L 771.5 110.1 L 772.2 110.1 L 772.2 115.5 L 771.5 115.5 L 771.5 113.0 L 768.7 113.0 L 768.7 115.5 L 768.0 115.5 L 768.0 110.1 " fill="#0000FF"/>
<path class="atom-29" d="M 829.7 63.5 Q 829.7 63.6, 830.0 63.7 Q 830.2 63.8, 830.5 63.8 Q 830.8 63.9, 831.1 63.9 Q 831.6 63.9, 831.9 63.7 Q 832.2 63.4, 832.2 63.0 Q 832.2 62.7, 832.0 62.5 Q 831.9 62.3, 831.7 62.2 Q 831.4 62.1, 831.0 62.0 Q 830.6 61.9, 830.3 61.7 Q 830.0 61.6, 829.8 61.3 Q 829.6 61.0, 829.6 60.5 Q 829.6 59.9, 830.1 59.4 Q 830.5 59.0, 831.4 59.0 Q 832.1 59.0, 832.8 59.3 L 832.6 59.9 Q 831.9 59.6, 831.5 59.6 Q 830.9 59.6, 830.6 59.9 Q 830.3 60.1, 830.4 60.4 Q 830.4 60.7, 830.5 60.9 Q 830.7 61.1, 830.9 61.2 Q 831.1 61.3, 831.5 61.4 Q 831.9 61.5, 832.2 61.7 Q 832.5 61.8, 832.7 62.2 Q 832.9 62.5, 832.9 63.0 Q 832.9 63.7, 832.4 64.1 Q 831.9 64.5, 831.1 64.5 Q 830.6 64.5, 830.3 64.4 Q 829.9 64.3, 829.5 64.1 L 829.7 63.5 " fill="#CCCC00"/>
<path class="atom-31" d="M 817.4 46.4 Q 817.4 45.1, 818.1 44.4 Q 818.7 43.7, 819.9 43.7 Q 821.1 43.7, 821.7 44.4 Q 822.4 45.1, 822.4 46.4 Q 822.4 47.7, 821.7 48.5 Q 821.1 49.2, 819.9 49.2 Q 818.7 49.2, 818.1 48.5 Q 817.4 47.7, 817.4 46.4 M 819.9 48.6 Q 820.7 48.6, 821.2 48.1 Q 821.6 47.5, 821.6 46.4 Q 821.6 45.4, 821.2 44.8 Q 820.7 44.3, 819.9 44.3 Q 819.1 44.3, 818.6 44.8 Q 818.2 45.4, 818.2 46.4 Q 818.2 47.5, 818.6 48.1 Q 819.1 48.6, 819.9 48.6 " fill="#FF0000"/>
<path class="atom-32" d="M 840.0 77.0 Q 840.0 75.7, 840.7 75.0 Q 841.3 74.3, 842.5 74.3 Q 843.7 74.3, 844.3 75.0 Q 845.0 75.7, 845.0 77.0 Q 845.0 78.3, 844.3 79.0 Q 843.7 79.8, 842.5 79.8 Q 841.3 79.8, 840.7 79.0 Q 840.0 78.3, 840.0 77.0 M 842.5 79.2 Q 843.3 79.2, 843.8 78.6 Q 844.2 78.1, 844.2 77.0 Q 844.2 75.9, 843.8 75.4 Q 843.3 74.9, 842.5 74.9 Q 841.7 74.9, 841.2 75.4 Q 840.8 75.9, 840.8 77.0 Q 840.8 78.1, 841.2 78.6 Q 841.7 79.2, 842.5 79.2 " fill="#FF0000"/>
<path class="atom-0" d="M 764.4,14.3 L 764.4,14.4 L 764.4,14.4 L 764.4,14.4 L 764.4,14.5 L 764.3,14.5 L 764.3,14.5 L 764.3,14.6 L 764.3,14.6 L 764.3,14.6 L 764.3,14.6 L 764.2,14.7 L 764.2,14.7 L 764.2,14.7 L 764.1,14.7 L 764.1,14.7 L 764.1,14.7 L 764.0,14.7 L 764.0,14.7 L 764.0,14.7 L 763.9,14.7 L 763.9,14.7 L 763.9,14.7 L 763.9,14.7 L 763.8,14.7 L 763.8,14.7 L 763.8,14.6 L 763.7,14.6 L 763.7,14.6 L 763.7,14.6 L 763.7,14.6 L 763.7,14.5 L 763.7,14.5 L 763.6,14.5 L 763.6,14.4 L 763.6,14.4 L 763.6,14.4 L 763.6,14.3 L 763.6,14.3 L 763.6,14.3 L 763.6,14.2 L 763.7,14.2 L 763.7,14.2 L 763.7,14.1 L 763.7,14.1 L 763.7,14.1 L 763.7,14.1 L 763.8,14.1 L 763.8,14.0 L 763.8,14.0 L 763.9,14.0 L 763.9,14.0 L 763.9,14.0 L 763.9,14.0 L 764.0,14.0 L 764.0,14.0 L 764.0,14.0 L 764.1,14.0 L 764.1,14.0 L 764.1,14.0 L 764.2,14.0 L 764.2,14.0 L 764.2,14.0 L 764.3,14.1 L 764.3,14.1 L 764.3,14.1 L 764.3,14.1 L 764.3,14.2 L 764.3,14.2 L 764.4,14.2 L 764.4,14.3 L 764.4,14.3 L 764.4,14.3 L 764.4,14.3 L 764.0,14.3 Z" style="fill:#000000;fill-rule:evenodd;fill-opacity:1;stroke:#000000;stroke-width:0.0px;stroke-linecap:butt;stroke-linejoin:miter;stroke-opacity:1;"/>
<path class="atom-0" d="M 764.4,18.1 L 764.4,18.2 L 764.4,18.2 L 764.4,18.2 L 764.4,18.3 L 764.3,18.3 L 764.3,18.3 L 764.3,18.4 L 764.3,18.4 L 764.3,18.4 L 764.3,18.4 L 764.2,18.5 L 764.2,18.5 L 764.2,18.5 L 764.1,18.5 L 764.1,18.5 L 764.1,18.5 L 764.0,18.5 L 764.0,18.5 L 764.0,18.5 L 763.9,18.5 L 763.9,18.5 L 763.9,18.5 L 763.9,18.5 L 763.8,18.5 L 763.8,18.5 L 763.8,18.4 L 763.7,18.4 L 763.7,18.4 L 763.7,18.4 L 763.7,18.4 L 763.7,18.3 L 763.7,18.3 L 763.6,18.3 L 763.6,18.2 L 763.6,18.2 L 763.6,18.2 L 763.6,18.1 L 763.6,18.1 L 763.6,18.1 L 763.6,18.0 L 763.7,18.0 L 763.7,18.0 L 763.7,17.9 L 763.7,17.9 L 763.7,17.9 L 763.7,17.9 L 763.8,17.9 L 763.8,17.8 L 763.8,17.8 L 763.9,17.8 L 763.9,17.8 L 763.9,17.8 L 763.9,17.8 L 764.0,17.8 L 764.0,17.8 L 764.0,17.8 L 764.1,17.8 L 764.1,17.8 L 764.1,17.8 L 764.2,17.8 L 764.2,17.8 L 764.2,17.8 L 764.3,17.9 L 764.3,17.9 L 764.3,17.9 L 764.3,17.9 L 764.3,18.0 L 764.3,18.0 L 764.4,18.0 L 764.4,18.1 L 764.4,18.1 L 764.4,18.1 L 764.4,18.1 L 764.0,18.1 Z" style="fill:#000000;fill-rule:evenodd;fill-opacity:1;stroke:#000000;stroke-width:0.0px;stroke-linecap:butt;stroke-linejoin:miter;stroke-opacity:1;"/>
<path class="atom-0" d="M 764.4,16.2 L 764.4,16.3 L 764.4,16.3 L 764.4,16.3 L 764.4,16.4 L 764.3,16.4 L 764.3,16.4 L 764.3,16.5 L 764.3,16.5 L 764.3,16.5 L 764.3,16.5 L 764.2,16.6 L 764.2,16.6 L 764.2,16.6 L 764.1,16.6 L 764.1,16.6 L 764.1,16.6 L 764.0,16.6 L 764.0,16.6 L 764.0,16.6 L 763.9,16.6 L 763.9,16.6 L 763.9,16.6 L 763.9,16.6 L 763.8,16.6 L 763.8,16.6 L 763.8,16.5 L 763.7,16.5 L 763.7,16.5 L 763.7,16.5 L 763.7,16.5 L 763.7,16.4 L 763.7,16.4 L 763.6,16.4 L 763.6,16.3 L 763.6,16.3 L 763.6,16.3 L 763.6,16.2 L 763.6,16.2 L 763.6,16.2 L 763.6,16.1 L 763.7,16.1 L 763.7,16.1 L 763.7,16.0 L 763.7,16.0 L 763.7,16.0 L 763.7,16.0 L 763.8,16.0 L 763.8,15.9 L 763.8,15.9 L 763.9,15.9 L 763.9,15.9 L 763.9,15.9 L 763.9,15.9 L 764.0,15.9 L 764.0,15.9 L 764.0,15.9 L 764.1,15.9 L 764.1,15.9 L 764.1,15.9 L 764.2,15.9 L 764.2,15.9 L 764.2,15.9 L 764.3,16.0 L 764.3,16.0 L 764.3,16.0 L 764.3,16.0 L 764.3,16.1 L 764.3,16.1 L 764.4,16.1 L 764.4,16.2 L 764.4,16.2 L 764.4,16.2 L 764.4,16.2 L 764.0,16.2 Z" style="fill:#000000;fill-rule:evenodd;fill-opacity:1;stroke:#000000;stroke-width:0.0px;stroke-linecap:butt;stroke-linejoin:miter;stroke-opacity:1;"/>
<path class="atom-3" d="M 769.4,66.5 L 769.4,66.5 L 769.4,66.6 L 769.3,66.6 L 769.3,66.6 L 769.3,66.7 L 769.3,66.7 L 769.3,66.7 L 769.3,66.8 L 769.3,66.8 L 769.2,66.8 L 769.2,66.8 L 769.2,66.8 L 769.1,66.9 L 769.1,66.9 L 769.1,66.9 L 769.1,66.9 L 769.0,66.9 L 769.0,66.9 L 769.0,66.9 L 768.9,66.9 L 768.9,66.9 L 768.9,66.9 L 768.8,66.9 L 768.8,66.8 L 768.8,66.8 L 768.7,66.8 L 768.7,66.8 L 768.7,66.8 L 768.7,66.7 L 768.7,66.7 L 768.6,66.7 L 768.6,66.7 L 768.6,66.6 L 768.6,66.6 L 768.6,66.6 L 768.6,66.5 L 768.6,66.5 L 768.6,66.5 L 768.6,66.4 L 768.6,66.4 L 768.6,66.4 L 768.6,66.3 L 768.7,66.3 L 768.7,66.3 L 768.7,66.3 L 768.7,66.2 L 768.7,66.2 L 768.8,66.2 L 768.8,66.2 L 768.8,66.2 L 768.9,66.2 L 768.9,66.1 L 768.9,66.1 L 769.0,66.1 L 769.0,66.1 L 769.0,66.1 L 769.1,66.1 L 769.1,66.1 L 769.1,66.2 L 769.1,66.2 L 769.2,66.2 L 769.2,66.2 L 769.2,66.2 L 769.3,66.2 L 769.3,66.3 L 769.3,66.3 L 769.3,66.3 L 769.3,66.4 L 769.3,66.4 L 769.3,66.4 L 769.4,66.4 L 769.4,66.5 L 769.4,66.5 L 769.0,66.5 Z" style="fill:#000000;fill-rule:evenodd;fill-opacity:1;stroke:#000000;stroke-width:0.0px;stroke-linecap:butt;stroke-linejoin:miter;stroke-opacity:1;"/>
</svg>