<svg baseProfile="full" height="160px" version="1.1" viewBox="0 0 1500 160" width="1500px" xml:space="preserve" xmlns="http://www.w3.org/2000/svg" xmlns:rdkit="http://www.rdkit.org/xml" xmlns:xlink="http://www.w3.org/1999/xlink">
<!-- END OF HEADER -->
<rect height="160.0" style="opacity:1.0;fill:#FFFFFF;stroke:none" width="1500.0" x="0.0" y="0.0"> </rect>
<rect height="160.0" style="opacity:1.0;fill:#FFFFFF;stroke:none" width="1500.0" x="0.0" y="0.0"> </rect>
<rect height="160.0" style="opacity:1.0;fill:#FFFFFF;stroke:none" width="1500.0" x="0.0" y="0.0"> </rect>
<rect height="160.0" style="opacity:1.0;fill:#FFFFFF;stroke:none" width="1500.0" x="0.0" y="0.0"> </rect>
<path class="bond-0 atom-0 atom-1" d="M 140.9,147.5 L 143.5,140.9" style="fill:none;fill-rule:evenodd;stroke:#000000;stroke-width:2.0px;stroke-linecap:butt;stroke-linejoin:miter;stroke-opacity:1"/>
<path class="bond-0 atom-0 atom-1" d="M 143.5,140.9 L 146.2,134.2" style="fill:none;fill-rule:evenodd;stroke:#0000FF;stroke-width:2.0px;stroke-linecap:butt;stroke-linejoin:miter;stroke-opacity:1"/>
<path class="bond-1 atom-1 atom-2" d="M 145.1,128.4 L 142.0,124.5" style="fill:none;fill-rule:evenodd;stroke:#0000FF;stroke-width:2.0px;stroke-linecap:butt;stroke-linejoin:miter;stroke-opacity:1"/>
<path class="bond-1 atom-1 atom-2" d="M 142.0,124.5 L 138.9,120.6" style="fill:none;fill-rule:evenodd;stroke:#FF0000;stroke-width:2.0px;stroke-linecap:butt;stroke-linejoin:miter;stroke-opacity:1"/>
<path class="bond-2 atom-1 atom-3" d="M 149.7,131.0 L 157.1,129.9" style="fill:none;fill-rule:evenodd;stroke:#0000FF;stroke-width:2.0px;stroke-linecap:butt;stroke-linejoin:miter;stroke-opacity:1"/>
<path class="bond-2 atom-1 atom-3" d="M 157.1,129.9 L 164.6,128.8" style="fill:none;fill-rule:evenodd;stroke:#000000;stroke-width:2.0px;stroke-linecap:butt;stroke-linejoin:miter;stroke-opacity:1"/>
<path class="bond-3 atom-3 atom-4" d="M 163.2,129.9 L 167.5,135.3" style="fill:none;fill-rule:evenodd;stroke:#000000;stroke-width:2.0px;stroke-linecap:butt;stroke-linejoin:miter;stroke-opacity:1"/>
<path class="bond-3 atom-3 atom-4" d="M 167.5,135.3 L 171.7,140.7" style="fill:none;fill-rule:evenodd;stroke:#0000FF;stroke-width:2.0px;stroke-linecap:butt;stroke-linejoin:miter;stroke-opacity:1"/>
<path class="bond-3 atom-3 atom-4" d="M 166.0,127.8 L 170.2,133.2" style="fill:none;fill-rule:evenodd;stroke:#000000;stroke-width:2.0px;stroke-linecap:butt;stroke-linejoin:miter;stroke-opacity:1"/>
<path class="bond-3 atom-3 atom-4" d="M 170.2,133.2 L 174.5,138.5" style="fill:none;fill-rule:evenodd;stroke:#0000FF;stroke-width:2.0px;stroke-linecap:butt;stroke-linejoin:miter;stroke-opacity:1"/>
<path class="bond-4 atom-3 atom-5" d="M 164.6,128.8 L 171.1,112.7" style="fill:none;fill-rule:evenodd;stroke:#000000;stroke-width:2.0px;stroke-linecap:butt;stroke-linejoin:miter;stroke-opacity:1"/>
<path class="bond-5 atom-5 atom-6" d="M 171.3,114.4 L 178.9,113.3" style="fill:none;fill-rule:evenodd;stroke:#000000;stroke-width:2.0px;stroke-linecap:butt;stroke-linejoin:miter;stroke-opacity:1"/>
<path class="bond-5 atom-5 atom-6" d="M 178.9,113.3 L 186.5,112.2" style="fill:none;fill-rule:evenodd;stroke:#CCCC00;stroke-width:2.0px;stroke-linecap:butt;stroke-linejoin:miter;stroke-opacity:1"/>
<path class="bond-5 atom-5 atom-6" d="M 170.8,110.9 L 178.4,109.8" style="fill:none;fill-rule:evenodd;stroke:#000000;stroke-width:2.0px;stroke-linecap:butt;stroke-linejoin:miter;stroke-opacity:1"/>
<path class="bond-5 atom-5 atom-6" d="M 178.4,109.8 L 186.0,108.8" style="fill:none;fill-rule:evenodd;stroke:#CCCC00;stroke-width:2.0px;stroke-linecap:butt;stroke-linejoin:miter;stroke-opacity:1"/>
<path class="bond-6 atom-5 atom-7" d="M 171.1,112.7 L 160.3,99.0" style="fill:none;fill-rule:evenodd;stroke:#000000;stroke-width:2.0px;stroke-linecap:butt;stroke-linejoin:miter;stroke-opacity:1"/>
<path class="bond-7 atom-7 atom-8" d="M 160.3,99.0 L 143.1,101.5" style="fill:none;fill-rule:evenodd;stroke:#000000;stroke-width:2.0px;stroke-linecap:butt;stroke-linejoin:miter;stroke-opacity:1"/>
<path class="bond-7 atom-7 atom-8" d="M 157.2,95.9 L 145.1,97.7" style="fill:none;fill-rule:evenodd;stroke:#000000;stroke-width:2.0px;stroke-linecap:butt;stroke-linejoin:miter;stroke-opacity:1"/>
<path class="bond-39 atom-38 atom-7" d="M 166.7,82.8 L 160.3,99.0" style="fill:none;fill-rule:evenodd;stroke:#000000;stroke-width:2.0px;stroke-linecap:butt;stroke-linejoin:miter;stroke-opacity:1"/>
<path class="bond-8 atom-8 atom-9" d="M 143.1,101.5 L 138.8,96.1" style="fill:none;fill-rule:evenodd;stroke:#000000;stroke-width:2.0px;stroke-linecap:butt;stroke-linejoin:miter;stroke-opacity:1"/>
<path class="bond-8 atom-8 atom-9" d="M 138.8,96.1 L 134.6,90.7" style="fill:none;fill-rule:evenodd;stroke:#0000FF;stroke-width:2.0px;stroke-linecap:butt;stroke-linejoin:miter;stroke-opacity:1"/>
<path class="bond-9 atom-9 atom-10" d="M 130.0,88.1 L 122.5,89.2" style="fill:none;fill-rule:evenodd;stroke:#0000FF;stroke-width:2.0px;stroke-linecap:butt;stroke-linejoin:miter;stroke-opacity:1"/>
<path class="bond-9 atom-9 atom-10" d="M 122.5,89.2 L 115.0,90.3" style="fill:none;fill-rule:evenodd;stroke:#000000;stroke-width:2.0px;stroke-linecap:butt;stroke-linejoin:miter;stroke-opacity:1"/>
<path class="bond-25 atom-9 atom-26" d="M 133.4,84.9 L 137.6,74.4" style="fill:none;fill-rule:evenodd;stroke:#0000FF;stroke-width:2.0px;stroke-linecap:butt;stroke-linejoin:miter;stroke-opacity:1"/>
<path class="bond-10 atom-10 atom-11" d="M 115.0,90.3 L 120.5,106.8" style="fill:none;fill-rule:evenodd;stroke:#000000;stroke-width:2.0px;stroke-linecap:butt;stroke-linejoin:miter;stroke-opacity:1"/>
<path class="bond-13 atom-10 atom-14" d="M 115.0,90.3 L 115.6,72.9" style="fill:none;fill-rule:evenodd;stroke:#000000;stroke-width:2.0px;stroke-linecap:butt;stroke-linejoin:miter;stroke-opacity:1"/>
<path class="bond-40 atom-25 atom-10" d="M 99.7,98.5 L 115.0,90.3" style="fill:none;fill-rule:evenodd;stroke:#000000;stroke-width:2.0px;stroke-linecap:butt;stroke-linejoin:miter;stroke-opacity:1"/>
<path class="bond-11 atom-11 atom-12" d="M 120.5,106.8 L 108.9,119.8" style="fill:none;fill-rule:evenodd;stroke:#000000;stroke-width:2.0px;stroke-linecap:butt;stroke-linejoin:miter;stroke-opacity:1"/>
<path class="bond-12 atom-12 atom-13" d="M 108.9,119.8 L 104.2,125.0" style="fill:none;fill-rule:evenodd;stroke:#000000;stroke-width:2.0px;stroke-linecap:butt;stroke-linejoin:miter;stroke-opacity:1"/>
<path class="bond-12 atom-12 atom-13" d="M 104.2,125.0 L 99.6,130.2" style="fill:none;fill-rule:evenodd;stroke:#0000FF;stroke-width:2.0px;stroke-linecap:butt;stroke-linejoin:miter;stroke-opacity:1"/>
<path class="bond-12 atom-12 atom-13" d="M 104.9,119.1 L 100.9,123.5" style="fill:none;fill-rule:evenodd;stroke:#000000;stroke-width:2.0px;stroke-linecap:butt;stroke-linejoin:miter;stroke-opacity:1"/>
<path class="bond-12 atom-12 atom-13" d="M 100.9,123.5 L 97.0,127.9" style="fill:none;fill-rule:evenodd;stroke:#0000FF;stroke-width:2.0px;stroke-linecap:butt;stroke-linejoin:miter;stroke-opacity:1"/>
<path class="bond-12 atom-12 atom-13" d="M 110.1,123.7 L 106.1,128.1" style="fill:none;fill-rule:evenodd;stroke:#000000;stroke-width:2.0px;stroke-linecap:butt;stroke-linejoin:miter;stroke-opacity:1"/>
<path class="bond-12 atom-12 atom-13" d="M 106.1,128.1 L 102.2,132.5" style="fill:none;fill-rule:evenodd;stroke:#0000FF;stroke-width:2.0px;stroke-linecap:butt;stroke-linejoin:miter;stroke-opacity:1"/>
<path class="bond-14 atom-14 atom-15" d="M 115.6,72.9 L 100.8,63.7" style="fill:none;fill-rule:evenodd;stroke:#000000;stroke-width:2.0px;stroke-linecap:butt;stroke-linejoin:miter;stroke-opacity:1"/>
<path class="bond-15 atom-15 atom-16" d="M 100.8,63.7 L 94.3,67.2" style="fill:none;fill-rule:evenodd;stroke:#000000;stroke-width:2.0px;stroke-linecap:butt;stroke-linejoin:miter;stroke-opacity:1"/>
<path class="bond-15 atom-15 atom-16" d="M 94.3,67.2 L 87.7,70.7" style="fill:none;fill-rule:evenodd;stroke:#0000FF;stroke-width:2.0px;stroke-linecap:butt;stroke-linejoin:miter;stroke-opacity:1"/>
<path class="bond-16 atom-16 atom-17" d="M 83.1,70.5 L 76.9,66.6" style="fill:none;fill-rule:evenodd;stroke:#0000FF;stroke-width:2.0px;stroke-linecap:butt;stroke-linejoin:miter;stroke-opacity:1"/>
<path class="bond-16 atom-16 atom-17" d="M 76.9,66.6 L 70.6,62.8" style="fill:none;fill-rule:evenodd;stroke:#000000;stroke-width:2.0px;stroke-linecap:butt;stroke-linejoin:miter;stroke-opacity:1"/>
<path class="bond-23 atom-16 atom-24" d="M 85.3,74.8 L 85.1,82.1" style="fill:none;fill-rule:evenodd;stroke:#0000FF;stroke-width:2.0px;stroke-linecap:butt;stroke-linejoin:miter;stroke-opacity:1"/>
<path class="bond-23 atom-16 atom-24" d="M 85.1,82.1 L 84.9,89.3" style="fill:none;fill-rule:evenodd;stroke:#000000;stroke-width:2.0px;stroke-linecap:butt;stroke-linejoin:miter;stroke-opacity:1"/>
<path class="bond-17 atom-17 atom-18" d="M 69.8,61.2 L 63.5,64.6" style="fill:none;fill-rule:evenodd;stroke:#000000;stroke-width:2.0px;stroke-linecap:butt;stroke-linejoin:miter;stroke-opacity:1"/>
<path class="bond-17 atom-17 atom-18" d="M 63.5,64.6 L 57.2,68.0" style="fill:none;fill-rule:evenodd;stroke:#FF0000;stroke-width:2.0px;stroke-linecap:butt;stroke-linejoin:miter;stroke-opacity:1"/>
<path class="bond-17 atom-17 atom-18" d="M 71.5,64.3 L 65.1,67.7" style="fill:none;fill-rule:evenodd;stroke:#000000;stroke-width:2.0px;stroke-linecap:butt;stroke-linejoin:miter;stroke-opacity:1"/>
<path class="bond-17 atom-17 atom-18" d="M 65.1,67.7 L 58.8,71.1" style="fill:none;fill-rule:evenodd;stroke:#FF0000;stroke-width:2.0px;stroke-linecap:butt;stroke-linejoin:miter;stroke-opacity:1"/>
<path class="bond-18 atom-17 atom-19" d="M 70.6,62.8 L 70.9,55.6" style="fill:none;fill-rule:evenodd;stroke:#000000;stroke-width:2.0px;stroke-linecap:butt;stroke-linejoin:miter;stroke-opacity:1"/>
<path class="bond-18 atom-17 atom-19" d="M 70.9,55.6 L 71.1,48.4" style="fill:none;fill-rule:evenodd;stroke:#FF0000;stroke-width:2.0px;stroke-linecap:butt;stroke-linejoin:miter;stroke-opacity:1"/>
<path class="bond-19 atom-19 atom-20" d="M 68.5,43.7 L 62.4,39.9" style="fill:none;fill-rule:evenodd;stroke:#FF0000;stroke-width:2.0px;stroke-linecap:butt;stroke-linejoin:miter;stroke-opacity:1"/>
<path class="bond-19 atom-19 atom-20" d="M 62.4,39.9 L 56.4,36.2" style="fill:none;fill-rule:evenodd;stroke:#000000;stroke-width:2.0px;stroke-linecap:butt;stroke-linejoin:miter;stroke-opacity:1"/>
<path class="bond-20 atom-20 atom-21" d="M 56.4,36.2 L 65.5,21.4" style="fill:none;fill-rule:evenodd;stroke:#000000;stroke-width:2.0px;stroke-linecap:butt;stroke-linejoin:miter;stroke-opacity:1"/>
<path class="bond-21 atom-20 atom-22" d="M 56.4,36.2 L 47.2,51.0" style="fill:none;fill-rule:evenodd;stroke:#000000;stroke-width:2.0px;stroke-linecap:butt;stroke-linejoin:miter;stroke-opacity:1"/>
<path class="bond-22 atom-20 atom-23" d="M 56.4,36.2 L 41.6,27.0" style="fill:none;fill-rule:evenodd;stroke:#000000;stroke-width:2.0px;stroke-linecap:butt;stroke-linejoin:miter;stroke-opacity:1"/>
<path class="bond-24 atom-24 atom-25" d="M 84.9,89.3 L 99.7,98.5" style="fill:none;fill-rule:evenodd;stroke:#000000;stroke-width:2.0px;stroke-linecap:butt;stroke-linejoin:miter;stroke-opacity:1"/>
<path class="bond-26 atom-26 atom-27" d="M 141.0,71.3 L 148.5,70.2" style="fill:none;fill-rule:evenodd;stroke:#0000FF;stroke-width:2.0px;stroke-linecap:butt;stroke-linejoin:miter;stroke-opacity:1"/>
<path class="bond-26 atom-26 atom-27" d="M 148.5,70.2 L 156.0,69.1" style="fill:none;fill-rule:evenodd;stroke:#000000;stroke-width:2.0px;stroke-linecap:butt;stroke-linejoin:miter;stroke-opacity:1"/>
<path class="bond-26 atom-26 atom-27" d="M 143.8,74.4 L 149.0,73.7" style="fill:none;fill-rule:evenodd;stroke:#0000FF;stroke-width:2.0px;stroke-linecap:butt;stroke-linejoin:miter;stroke-opacity:1"/>
<path class="bond-26 atom-26 atom-27" d="M 149.0,73.7 L 154.2,72.9" style="fill:none;fill-rule:evenodd;stroke:#000000;stroke-width:2.0px;stroke-linecap:butt;stroke-linejoin:miter;stroke-opacity:1"/>
<path class="bond-27 atom-27 atom-28" d="M 156.0,69.1 L 158.6,62.5" style="fill:none;fill-rule:evenodd;stroke:#000000;stroke-width:2.0px;stroke-linecap:butt;stroke-linejoin:miter;stroke-opacity:1"/>
<path class="bond-27 atom-27 atom-28" d="M 158.6,62.5 L 161.3,55.9" style="fill:none;fill-rule:evenodd;stroke:#0000FF;stroke-width:2.0px;stroke-linecap:butt;stroke-linejoin:miter;stroke-opacity:1"/>
<path class="bond-37 atom-27 atom-38" d="M 156.0,69.1 L 166.7,82.8" style="fill:none;fill-rule:evenodd;stroke:#000000;stroke-width:2.0px;stroke-linecap:butt;stroke-linejoin:miter;stroke-opacity:1"/>
<path class="bond-28 atom-28 atom-29" d="M 164.7,52.6 L 172.2,51.6" style="fill:none;fill-rule:evenodd;stroke:#0000FF;stroke-width:2.0px;stroke-linecap:butt;stroke-linejoin:miter;stroke-opacity:1"/>
<path class="bond-28 atom-28 atom-29" d="M 172.2,51.6 L 179.7,50.5" style="fill:none;fill-rule:evenodd;stroke:#000000;stroke-width:2.0px;stroke-linecap:butt;stroke-linejoin:miter;stroke-opacity:1"/>
<path class="bond-29 atom-29 atom-30" d="M 179.7,50.5 L 190.4,64.2" style="fill:none;fill-rule:evenodd;stroke:#000000;stroke-width:2.0px;stroke-linecap:butt;stroke-linejoin:miter;stroke-opacity:1"/>
<path class="bond-29 atom-29 atom-30" d="M 184.0,50.4 L 191.6,60.0" style="fill:none;fill-rule:evenodd;stroke:#000000;stroke-width:2.0px;stroke-linecap:butt;stroke-linejoin:miter;stroke-opacity:1"/>
<path class="bond-41 atom-37 atom-29" d="M 186.1,34.3 L 179.7,50.5" style="fill:none;fill-rule:evenodd;stroke:#000000;stroke-width:2.0px;stroke-linecap:butt;stroke-linejoin:miter;stroke-opacity:1"/>
<path class="bond-30 atom-30 atom-31" d="M 190.4,64.2 L 207.7,61.7" style="fill:none;fill-rule:evenodd;stroke:#000000;stroke-width:2.0px;stroke-linecap:butt;stroke-linejoin:miter;stroke-opacity:1"/>
<path class="bond-31 atom-31 atom-32" d="M 207.7,61.7 L 214.1,45.5" style="fill:none;fill-rule:evenodd;stroke:#000000;stroke-width:2.0px;stroke-linecap:butt;stroke-linejoin:miter;stroke-opacity:1"/>
<path class="bond-31 atom-31 atom-32" d="M 205.4,58.0 L 209.9,46.6" style="fill:none;fill-rule:evenodd;stroke:#000000;stroke-width:2.0px;stroke-linecap:butt;stroke-linejoin:miter;stroke-opacity:1"/>
<path class="bond-32 atom-32 atom-33" d="M 214.1,45.5 L 231.4,43.0" style="fill:none;fill-rule:evenodd;stroke:#000000;stroke-width:2.0px;stroke-linecap:butt;stroke-linejoin:miter;stroke-opacity:1"/>
<path class="bond-35 atom-32 atom-36" d="M 214.1,45.5 L 203.4,31.8" style="fill:none;fill-rule:evenodd;stroke:#000000;stroke-width:2.0px;stroke-linecap:butt;stroke-linejoin:miter;stroke-opacity:1"/>
<path class="bond-33 atom-33 atom-34" d="M 231.4,43.0 L 242.2,56.7" style="fill:none;fill-rule:evenodd;stroke:#000000;stroke-width:2.0px;stroke-linecap:butt;stroke-linejoin:miter;stroke-opacity:1"/>
<path class="bond-34 atom-33 atom-35" d="M 233.0,43.7 L 235.6,37.1" style="fill:none;fill-rule:evenodd;stroke:#000000;stroke-width:2.0px;stroke-linecap:butt;stroke-linejoin:miter;stroke-opacity:1"/>
<path class="bond-34 atom-33 atom-35" d="M 235.6,37.1 L 238.3,30.5" style="fill:none;fill-rule:evenodd;stroke:#FF0000;stroke-width:2.0px;stroke-linecap:butt;stroke-linejoin:miter;stroke-opacity:1"/>
<path class="bond-34 atom-33 atom-35" d="M 229.8,42.4 L 232.4,35.8" style="fill:none;fill-rule:evenodd;stroke:#000000;stroke-width:2.0px;stroke-linecap:butt;stroke-linejoin:miter;stroke-opacity:1"/>
<path class="bond-34 atom-33 atom-35" d="M 232.4,35.8 L 235.0,29.2" style="fill:none;fill-rule:evenodd;stroke:#FF0000;stroke-width:2.0px;stroke-linecap:butt;stroke-linejoin:miter;stroke-opacity:1"/>
<path class="bond-36 atom-36 atom-37" d="M 203.4,31.8 L 186.1,34.3" style="fill:none;fill-rule:evenodd;stroke:#000000;stroke-width:2.0px;stroke-linecap:butt;stroke-linejoin:miter;stroke-opacity:1"/>
<path class="bond-36 atom-36 atom-37" d="M 201.3,35.6 L 189.2,37.4" style="fill:none;fill-rule:evenodd;stroke:#000000;stroke-width:2.0px;stroke-linecap:butt;stroke-linejoin:miter;stroke-opacity:1"/>
<path class="bond-38 atom-38 atom-39" d="M 167.0,84.5 L 174.3,83.5" style="fill:none;fill-rule:evenodd;stroke:#000000;stroke-width:2.0px;stroke-linecap:butt;stroke-linejoin:miter;stroke-opacity:1"/>
<path class="bond-38 atom-38 atom-39" d="M 174.3,83.5 L 181.5,82.4" style="fill:none;fill-rule:evenodd;stroke:#FF0000;stroke-width:2.0px;stroke-linecap:butt;stroke-linejoin:miter;stroke-opacity:1"/>
<path class="bond-38 atom-38 atom-39" d="M 166.5,81.1 L 173.8,80.0" style="fill:none;fill-rule:evenodd;stroke:#000000;stroke-width:2.0px;stroke-linecap:butt;stroke-linejoin:miter;stroke-opacity:1"/>
<path class="bond-38 atom-38 atom-39" d="M 173.8,80.0 L 181.0,79.0" style="fill:none;fill-rule:evenodd;stroke:#FF0000;stroke-width:2.0px;stroke-linecap:butt;stroke-linejoin:miter;stroke-opacity:1"/>
<path class="atom-1" d="M 146.3 128.9 L 147.9 131.5 Q 148.0 131.7, 148.3 132.2 Q 148.6 132.7, 148.6 132.7 L 148.6 128.9 L 149.2 128.9 L 149.2 133.8 L 148.6 133.8 L 146.8 130.9 Q 146.6 130.6, 146.4 130.2 Q 146.2 129.8, 146.1 129.7 L 146.1 133.8 L 145.5 133.8 L 145.5 128.9 L 146.3 128.9 " fill="#0000FF"/>
<path class="atom-2" d="M 130.1 115.2 L 130.8 115.2 L 130.8 117.3 L 133.3 117.3 L 133.3 115.2 L 134.0 115.2 L 134.0 120.1 L 133.3 120.1 L 133.3 117.9 L 130.8 117.9 L 130.8 120.1 L 130.1 120.1 L 130.1 115.2 " fill="#FF0000"/>
<path class="atom-2" d="M 134.3 117.7 Q 134.3 116.5, 134.9 115.8 Q 135.5 115.2, 136.6 115.2 Q 137.7 115.2, 138.3 115.8 Q 138.9 116.5, 138.9 117.7 Q 138.9 118.9, 138.3 119.5 Q 137.7 120.2, 136.6 120.2 Q 135.5 120.2, 134.9 119.5 Q 134.3 118.9, 134.3 117.7 M 136.6 119.7 Q 137.3 119.7, 137.7 119.2 Q 138.2 118.7, 138.2 117.7 Q 138.2 116.7, 137.7 116.2 Q 137.3 115.7, 136.6 115.7 Q 135.8 115.7, 135.4 116.2 Q 135.0 116.7, 135.0 117.7 Q 135.0 118.7, 135.4 119.2 Q 135.8 119.7, 136.6 119.7 " fill="#FF0000"/>
<path class="atom-4" d="M 174.3 140.1 L 175.9 142.7 Q 176.1 142.9, 176.3 143.4 Q 176.6 143.9, 176.6 143.9 L 176.6 140.1 L 177.2 140.1 L 177.2 145.0 L 176.6 145.0 L 174.8 142.1 Q 174.6 141.8, 174.4 141.4 Q 174.2 141.0, 174.1 140.9 L 174.1 145.0 L 173.5 145.0 L 173.5 140.1 L 174.3 140.1 " fill="#0000FF"/>
<path class="atom-6" d="M 186.9 111.9 Q 187.0 111.9, 187.2 112.0 Q 187.4 112.1, 187.7 112.2 Q 187.9 112.2, 188.2 112.2 Q 188.6 112.2, 188.9 112.0 Q 189.2 111.8, 189.2 111.4 Q 189.2 111.1, 189.0 110.9 Q 188.9 110.8, 188.7 110.7 Q 188.5 110.6, 188.1 110.5 Q 187.7 110.3, 187.4 110.2 Q 187.2 110.1, 187.0 109.8 Q 186.8 109.6, 186.8 109.1 Q 186.8 108.5, 187.2 108.1 Q 187.7 107.7, 188.5 107.7 Q 189.1 107.7, 189.7 108.0 L 189.6 108.5 Q 189.0 108.3, 188.5 108.3 Q 188.0 108.3, 187.8 108.5 Q 187.5 108.7, 187.5 109.0 Q 187.5 109.3, 187.6 109.5 Q 187.8 109.6, 188.0 109.7 Q 188.2 109.8, 188.5 109.9 Q 189.0 110.0, 189.2 110.2 Q 189.5 110.3, 189.7 110.6 Q 189.9 110.9, 189.9 111.4 Q 189.9 112.0, 189.4 112.4 Q 189.0 112.8, 188.2 112.8 Q 187.8 112.8, 187.4 112.7 Q 187.1 112.6, 186.7 112.4 L 186.9 111.9 " fill="#CCCC00"/>
<path class="atom-9" d="M 131.2 85.3 L 132.8 87.9 Q 133.0 88.2, 133.2 88.7 Q 133.5 89.1, 133.5 89.2 L 133.5 85.3 L 134.1 85.3 L 134.1 90.3 L 133.5 90.3 L 131.7 87.4 Q 131.5 87.1, 131.3 86.7 Q 131.1 86.3, 131.0 86.2 L 131.0 90.3 L 130.4 90.3 L 130.4 85.3 L 131.2 85.3 " fill="#0000FF"/>
<path class="atom-13" d="M 96.2 130.3 L 97.8 132.9 Q 98.0 133.2, 98.2 133.7 Q 98.5 134.1, 98.5 134.2 L 98.5 130.3 L 99.1 130.3 L 99.1 135.3 L 98.5 135.3 L 96.7 132.4 Q 96.5 132.1, 96.3 131.7 Q 96.1 131.3, 96.0 131.2 L 96.0 135.3 L 95.4 135.3 L 95.4 130.3 L 96.2 130.3 " fill="#0000FF"/>
<path class="atom-16" d="M 84.3 69.5 L 86.0 72.1 Q 86.1 72.3, 86.4 72.8 Q 86.6 73.3, 86.7 73.3 L 86.7 69.5 L 87.3 69.5 L 87.3 74.4 L 86.6 74.4 L 84.9 71.5 Q 84.7 71.2, 84.5 70.8 Q 84.3 70.4, 84.2 70.3 L 84.2 74.4 L 83.6 74.4 L 83.6 69.5 L 84.3 69.5 " fill="#0000FF"/>
<path class="atom-18" d="M 53.0 71.0 Q 53.0 69.8, 53.6 69.2 Q 54.2 68.5, 55.3 68.5 Q 56.4 68.5, 57.0 69.2 Q 57.6 69.8, 57.6 71.0 Q 57.6 72.2, 57.0 72.9 Q 56.4 73.6, 55.3 73.6 Q 54.2 73.6, 53.6 72.9 Q 53.0 72.2, 53.0 71.0 M 55.3 73.0 Q 56.0 73.0, 56.4 72.5 Q 56.9 72.0, 56.9 71.0 Q 56.9 70.0, 56.4 69.6 Q 56.0 69.1, 55.3 69.1 Q 54.5 69.1, 54.1 69.5 Q 53.7 70.0, 53.7 71.0 Q 53.7 72.0, 54.1 72.5 Q 54.5 73.0, 55.3 73.0 " fill="#FF0000"/>
<path class="atom-19" d="M 68.9 45.4 Q 68.9 44.2, 69.5 43.5 Q 70.1 42.9, 71.2 42.9 Q 72.3 42.9, 72.9 43.5 Q 73.4 44.2, 73.4 45.4 Q 73.4 46.6, 72.8 47.3 Q 72.3 47.9, 71.2 47.9 Q 70.1 47.9, 69.5 47.3 Q 68.9 46.6, 68.9 45.4 M 71.2 47.4 Q 71.9 47.4, 72.3 46.9 Q 72.7 46.4, 72.7 45.4 Q 72.7 44.4, 72.3 43.9 Q 71.9 43.4, 71.2 43.4 Q 70.4 43.4, 70.0 43.9 Q 69.6 44.4, 69.6 45.4 Q 69.6 46.4, 70.0 46.9 Q 70.4 47.4, 71.2 47.4 " fill="#FF0000"/>
<path class="atom-26" d="M 137.7 69.2 L 139.3 71.8 Q 139.4 72.0, 139.7 72.5 Q 139.9 73.0, 140.0 73.0 L 140.0 69.2 L 140.6 69.2 L 140.6 74.1 L 139.9 74.1 L 138.2 71.2 Q 138.0 70.9, 137.8 70.5 Q 137.6 70.1, 137.5 70.0 L 137.5 74.1 L 136.9 74.1 L 136.9 69.2 L 137.7 69.2 " fill="#0000FF"/>
<path class="atom-28" d="M 156.1 50.5 L 156.8 50.5 L 156.8 52.6 L 159.3 52.6 L 159.3 50.5 L 160.0 50.5 L 160.0 55.4 L 159.3 55.4 L 159.3 53.2 L 156.8 53.2 L 156.8 55.4 L 156.1 55.4 L 156.1 50.5 " fill="#0000FF"/>
<path class="atom-28" d="M 161.3 50.5 L 163.0 53.1 Q 163.1 53.4, 163.4 53.8 Q 163.6 54.3, 163.7 54.3 L 163.7 50.5 L 164.3 50.5 L 164.3 55.4 L 163.6 55.4 L 161.9 52.6 Q 161.7 52.2, 161.5 51.9 Q 161.3 51.5, 161.2 51.4 L 161.2 55.4 L 160.6 55.4 L 160.6 50.5 L 161.3 50.5 " fill="#0000FF"/>
<path class="atom-35" d="M 235.6 26.9 Q 235.6 25.7, 236.2 25.0 Q 236.8 24.3, 237.8 24.3 Q 238.9 24.3, 239.5 25.0 Q 240.1 25.7, 240.1 26.9 Q 240.1 28.1, 239.5 28.7 Q 238.9 29.4, 237.8 29.4 Q 236.8 29.4, 236.2 28.7 Q 235.6 28.1, 235.6 26.9 M 237.8 28.9 Q 238.6 28.9, 239.0 28.4 Q 239.4 27.8, 239.4 26.9 Q 239.4 25.9, 239.0 25.4 Q 238.6 24.9, 237.8 24.9 Q 237.1 24.9, 236.7 25.4 Q 236.3 25.9, 236.3 26.9 Q 236.3 27.9, 236.7 28.4 Q 237.1 28.9, 237.8 28.9 " fill="#FF0000"/>
<path class="atom-39" d="M 181.7 80.3 Q 181.7 79.2, 182.3 78.5 Q 182.9 77.8, 184.0 77.8 Q 185.1 77.8, 185.7 78.5 Q 186.2 79.2, 186.2 80.3 Q 186.2 81.5, 185.7 82.2 Q 185.1 82.9, 184.0 82.9 Q 182.9 82.9, 182.3 82.2 Q 181.7 81.5, 181.7 80.3 M 184.0 82.3 Q 184.7 82.3, 185.1 81.8 Q 185.6 81.3, 185.6 80.3 Q 185.6 79.4, 185.1 78.9 Q 184.7 78.4, 184.0 78.4 Q 183.2 78.4, 182.8 78.9 Q 182.4 79.4, 182.4 80.3 Q 182.4 81.3, 182.8 81.8 Q 183.2 82.3, 184.0 82.3 " fill="#FF0000"/>
<path d="M 139.2,147.5 L 139.2,147.5 L 139.2,147.4 L 139.1,147.4 L 139.1,147.4 L 139.1,147.4 L 139.1,147.3 L 139.1,147.3 L 139.1,147.3 L 139.1,147.3 L 139.0,147.2 L 139.0,147.2 L 139.0,147.2 L 139.0,147.2 L 138.9,147.2 L 138.9,147.2 L 138.9,147.2 L 138.8,147.2 L 138.8,147.2 L 138.8,147.2 L 138.8,147.2 L 138.7,147.2 L 138.7,147.2 L 138.7,147.2 L 138.6,147.2 L 138.6,147.2 L 138.6,147.2 L 138.6,147.2 L 138.5,147.3 L 138.5,147.3 L 138.5,147.3 L 138.5,147.3 L 138.5,147.4 L 138.5,147.4 L 138.5,147.4 L 138.5,147.5 L 138.5,147.5 L 138.5,147.5 L 138.5,147.5 L 138.5,147.6 L 138.5,147.6 L 138.5,147.6 L 138.5,147.7 L 138.5,147.7 L 138.5,147.7 L 138.5,147.7 L 138.6,147.8 L 138.6,147.8 L 138.6,147.8 L 138.6,147.8 L 138.7,147.8 L 138.7,147.8 L 138.7,147.8 L 138.8,147.8 L 138.8,147.8 L 138.8,147.9 L 138.8,147.8 L 138.9,147.8 L 138.9,147.8 L 138.9,147.8 L 139.0,147.8 L 139.0,147.8 L 139.0,147.8 L 139.0,147.8 L 139.1,147.7 L 139.1,147.7 L 139.1,147.7 L 139.1,147.7 L 139.1,147.6 L 139.1,147.6 L 139.1,147.6 L 139.2,147.6 L 139.2,147.5 L 139.2,147.5 L 138.8,147.5 Z" style="fill:#000000;fill-rule:evenodd;fill-opacity:1;stroke:#000000;stroke-width:0.0px;stroke-linecap:butt;stroke-linejoin:miter;stroke-opacity:1;"/>
<path d="M 139.2,148.9 L 139.2,148.9 L 139.2,148.8 L 139.1,148.8 L 139.1,148.8 L 139.1,148.7 L 139.1,148.7 L 139.1,148.7 L 139.1,148.7 L 139.1,148.7 L 139.0,148.6 L 139.0,148.6 L 139.0,148.6 L 139.0,148.6 L 138.9,148.6 L 138.9,148.6 L 138.9,148.6 L 138.8,148.5 L 138.8,148.5 L 138.8,148.5 L 138.8,148.6 L 138.7,148.6 L 138.7,148.6 L 138.7,148.6 L 138.6,148.6 L 138.6,148.6 L 138.6,148.6 L 138.6,148.6 L 138.5,148.7 L 138.5,148.7 L 138.5,148.7 L 138.5,148.7 L 138.5,148.8 L 138.5,148.8 L 138.5,148.8 L 138.5,148.9 L 138.5,148.9 L 138.5,148.9 L 138.5,148.9 L 138.5,149.0 L 138.5,149.0 L 138.5,149.0 L 138.5,149.1 L 138.5,149.1 L 138.5,149.1 L 138.5,149.1 L 138.6,149.1 L 138.6,149.2 L 138.6,149.2 L 138.6,149.2 L 138.7,149.2 L 138.7,149.2 L 138.7,149.2 L 138.8,149.2 L 138.8,149.2 L 138.8,149.2 L 138.8,149.2 L 138.9,149.2 L 138.9,149.2 L 138.9,149.2 L 139.0,149.2 L 139.0,149.2 L 139.0,149.2 L 139.0,149.2 L 139.1,149.1 L 139.1,149.1 L 139.1,149.1 L 139.1,149.1 L 139.1,149.0 L 139.1,149.0 L 139.1,149.0 L 139.2,149.0 L 139.2,148.9 L 139.2,148.9 L 138.8,148.9 Z" style="fill:#000000;fill-rule:evenodd;fill-opacity:1;stroke:#000000;stroke-width:0.0px;stroke-linecap:butt;stroke-linejoin:miter;stroke-opacity:1;"/>
<path d="M 139.2,146.1 L 139.2,146.1 L 139.2,146.0 L 139.1,146.0 L 139.1,146.0 L 139.1,146.0 L 139.1,145.9 L 139.1,145.9 L 139.1,145.9 L 139.1,145.9 L 139.0,145.8 L 139.0,145.8 L 139.0,145.8 L 139.0,145.8 L 138.9,145.8 L 138.9,145.8 L 138.9,145.8 L 138.8,145.8 L 138.8,145.8 L 138.8,145.8 L 138.8,145.8 L 138.7,145.8 L 138.7,145.8 L 138.7,145.8 L 138.6,145.8 L 138.6,145.8 L 138.6,145.8 L 138.6,145.9 L 138.5,145.9 L 138.5,145.9 L 138.5,145.9 L 138.5,146.0 L 138.5,146.0 L 138.5,146.0 L 138.5,146.0 L 138.5,146.1 L 138.5,146.1 L 138.5,146.1 L 138.5,146.2 L 138.5,146.2 L 138.5,146.2 L 138.5,146.2 L 138.5,146.3 L 138.5,146.3 L 138.5,146.3 L 138.5,146.3 L 138.6,146.4 L 138.6,146.4 L 138.6,146.4 L 138.6,146.4 L 138.7,146.4 L 138.7,146.4 L 138.7,146.4 L 138.8,146.5 L 138.8,146.5 L 138.8,146.5 L 138.8,146.5 L 138.9,146.5 L 138.9,146.4 L 138.9,146.4 L 139.0,146.4 L 139.0,146.4 L 139.0,146.4 L 139.0,146.4 L 139.1,146.4 L 139.1,146.3 L 139.1,146.3 L 139.1,146.3 L 139.1,146.3 L 139.1,146.2 L 139.1,146.2 L 139.2,146.2 L 139.2,146.1 L 139.2,146.1 L 138.8,146.1 Z" style="fill:#000000;fill-rule:evenodd;fill-opacity:1;stroke:#000000;stroke-width:0.0px;stroke-linecap:butt;stroke-linejoin:miter;stroke-opacity:1;"/>
<path d="M 139.2,147.5 L 139.2,147.5 L 139.2,147.4 L 139.1,147.4 L 139.1,147.4 L 139.1,147.4 L 139.1,147.3 L 139.1,147.3 L 139.1,147.3 L 139.1,147.3 L 139.0,147.2 L 139.0,147.2 L 139.0,147.2 L 139.0,147.2 L 138.9,147.2 L 138.9,147.2 L 138.9,147.2 L 138.8,147.2 L 138.8,147.2 L 138.8,147.2 L 138.8,147.2 L 138.7,147.2 L 138.7,147.2 L 138.7,147.2 L 138.6,147.2 L 138.6,147.2 L 138.6,147.2 L 138.6,147.2 L 138.5,147.3 L 138.5,147.3 L 138.5,147.3 L 138.5,147.3 L 138.5,147.4 L 138.5,147.4 L 138.5,147.4 L 138.5,147.5 L 138.5,147.5 L 138.5,147.5 L 138.5,147.5 L 138.5,147.6 L 138.5,147.6 L 138.5,147.6 L 138.5,147.7 L 138.5,147.7 L 138.5,147.7 L 138.5,147.7 L 138.6,147.8 L 138.6,147.8 L 138.6,147.8 L 138.6,147.8 L 138.7,147.8 L 138.7,147.8 L 138.7,147.8 L 138.8,147.8 L 138.8,147.8 L 138.8,147.9 L 138.8,147.8 L 138.9,147.8 L 138.9,147.8 L 138.9,147.8 L 139.0,147.8 L 139.0,147.8 L 139.0,147.8 L 139.0,147.8 L 139.1,147.7 L 139.1,147.7 L 139.1,147.7 L 139.1,147.7 L 139.1,147.6 L 139.1,147.6 L 139.1,147.6 L 139.2,147.6 L 139.2,147.5 L 139.2,147.5 L 138.8,147.5 Z" style="fill:#000000;fill-rule:evenodd;fill-opacity:1;stroke:#000000;stroke-width:0.0px;stroke-linecap:butt;stroke-linejoin:miter;stroke-opacity:1;"/>
<path d="M 178.6,142.5 L 178.6,142.5 L 178.6,142.5 L 178.6,142.4 L 178.6,142.4 L 178.6,142.4 L 178.6,142.4 L 178.6,142.3 L 178.6,142.3 L 178.5,142.3 L 178.5,142.3 L 178.5,142.2 L 178.5,142.2 L 178.4,142.2 L 178.4,142.2 L 178.4,142.2 L 178.4,142.2 L 178.3,142.2 L 178.3,142.2 L 178.3,142.2 L 178.2,142.2 L 178.2,142.2 L 178.2,142.2 L 178.1,142.2 L 178.1,142.2 L 178.1,142.2 L 178.1,142.3 L 178.0,142.3 L 178.0,142.3 L 178.0,142.3 L 178.0,142.3 L 178.0,142.4 L 178.0,142.4 L 178.0,142.4 L 177.9,142.5 L 177.9,142.5 L 177.9,142.5 L 177.9,142.5 L 177.9,142.6 L 177.9,142.6 L 178.0,142.6 L 178.0,142.7 L 178.0,142.7 L 178.0,142.7 L 178.0,142.7 L 178.0,142.8 L 178.0,142.8 L 178.1,142.8 L 178.1,142.8 L 178.1,142.8 L 178.1,142.8 L 178.2,142.9 L 178.2,142.9 L 178.2,142.9 L 178.3,142.9 L 178.3,142.9 L 178.3,142.9 L 178.4,142.9 L 178.4,142.9 L 178.4,142.9 L 178.4,142.8 L 178.5,142.8 L 178.5,142.8 L 178.5,142.8 L 178.5,142.8 L 178.6,142.7 L 178.6,142.7 L 178.6,142.7 L 178.6,142.7 L 178.6,142.6 L 178.6,142.6 L 178.6,142.6 L 178.6,142.6 L 178.6,142.5 L 178.3,142.5 Z" style="fill:#000000;fill-rule:evenodd;fill-opacity:1;stroke:#000000;stroke-width:0.0px;stroke-linecap:butt;stroke-linejoin:miter;stroke-opacity:1;"/>
<path class="bond-0 atom-0 atom-1" d="M 531.2,87.5 L 524.1,85.0" style="fill:none;fill-rule:evenodd;stroke:#000000;stroke-width:2.0px;stroke-linecap:butt;stroke-linejoin:miter;stroke-opacity:1"/>
<path class="bond-0 atom-0 atom-1" d="M 524.1,85.0 L 517.0,82.5" style="fill:none;fill-rule:evenodd;stroke:#0000FF;stroke-width:2.0px;stroke-linecap:butt;stroke-linejoin:miter;stroke-opacity:1"/>
<path class="bond-1 atom-1 atom-2" d="M 514.2,78.8 L 512.8,71.7" style="fill:none;fill-rule:evenodd;stroke:#0000FF;stroke-width:2.0px;stroke-linecap:butt;stroke-linejoin:miter;stroke-opacity:1"/>
<path class="bond-1 atom-1 atom-2" d="M 512.8,71.7 L 511.5,64.6" style="fill:none;fill-rule:evenodd;stroke:#000000;stroke-width:2.0px;stroke-linecap:butt;stroke-linejoin:miter;stroke-opacity:1"/>
<path class="bond-3 atom-1 atom-4" d="M 512.4,83.7 L 507.0,88.4" style="fill:none;fill-rule:evenodd;stroke:#0000FF;stroke-width:2.0px;stroke-linecap:butt;stroke-linejoin:miter;stroke-opacity:1"/>
<path class="bond-3 atom-1 atom-4" d="M 507.0,88.4 L 501.5,93.1" style="fill:none;fill-rule:evenodd;stroke:#000000;stroke-width:2.0px;stroke-linecap:butt;stroke-linejoin:miter;stroke-opacity:1"/>
<path class="bond-2 atom-2 atom-3" d="M 511.5,64.6 L 516.8,60.1" style="fill:none;fill-rule:evenodd;stroke:#000000;stroke-width:2.0px;stroke-linecap:butt;stroke-linejoin:miter;stroke-opacity:1"/>
<path class="bond-2 atom-2 atom-3" d="M 516.8,60.1 L 522.0,55.6" style="fill:none;fill-rule:evenodd;stroke:#FF0000;stroke-width:2.0px;stroke-linecap:butt;stroke-linejoin:miter;stroke-opacity:1"/>
<path class="bond-4 atom-4 atom-5" d="M 499.8,93.4 L 501.2,100.5" style="fill:none;fill-rule:evenodd;stroke:#000000;stroke-width:2.0px;stroke-linecap:butt;stroke-linejoin:miter;stroke-opacity:1"/>
<path class="bond-4 atom-4 atom-5" d="M 501.2,100.5 L 502.5,107.6" style="fill:none;fill-rule:evenodd;stroke:#0000FF;stroke-width:2.0px;stroke-linecap:butt;stroke-linejoin:miter;stroke-opacity:1"/>
<path class="bond-4 atom-4 atom-5" d="M 503.3,92.8 L 504.6,99.9" style="fill:none;fill-rule:evenodd;stroke:#000000;stroke-width:2.0px;stroke-linecap:butt;stroke-linejoin:miter;stroke-opacity:1"/>
<path class="bond-4 atom-4 atom-5" d="M 504.6,99.9 L 505.9,107.0" style="fill:none;fill-rule:evenodd;stroke:#0000FF;stroke-width:2.0px;stroke-linecap:butt;stroke-linejoin:miter;stroke-opacity:1"/>
<path class="bond-5 atom-4 atom-6" d="M 501.5,93.1 L 485.1,87.3" style="fill:none;fill-rule:evenodd;stroke:#000000;stroke-width:2.0px;stroke-linecap:butt;stroke-linejoin:miter;stroke-opacity:1"/>
<path class="bond-6 atom-6 atom-7" d="M 485.1,87.3 L 471.9,98.7" style="fill:none;fill-rule:evenodd;stroke:#000000;stroke-width:2.0px;stroke-linecap:butt;stroke-linejoin:miter;stroke-opacity:1"/>
<path class="bond-6 atom-6 atom-7" d="M 480.9,86.4 L 471.6,94.4" style="fill:none;fill-rule:evenodd;stroke:#000000;stroke-width:2.0px;stroke-linecap:butt;stroke-linejoin:miter;stroke-opacity:1"/>
<path class="bond-39 atom-37 atom-6" d="M 481.9,70.2 L 485.1,87.3" style="fill:none;fill-rule:evenodd;stroke:#000000;stroke-width:2.0px;stroke-linecap:butt;stroke-linejoin:miter;stroke-opacity:1"/>
<path class="bond-7 atom-7 atom-8" d="M 471.9,98.7 L 464.8,96.2" style="fill:none;fill-rule:evenodd;stroke:#000000;stroke-width:2.0px;stroke-linecap:butt;stroke-linejoin:miter;stroke-opacity:1"/>
<path class="bond-7 atom-7 atom-8" d="M 464.8,96.2 L 457.8,93.8" style="fill:none;fill-rule:evenodd;stroke:#0000FF;stroke-width:2.0px;stroke-linecap:butt;stroke-linejoin:miter;stroke-opacity:1"/>
<path class="bond-8 atom-8 atom-9" d="M 453.2,94.9 L 447.7,99.6" style="fill:none;fill-rule:evenodd;stroke:#0000FF;stroke-width:2.0px;stroke-linecap:butt;stroke-linejoin:miter;stroke-opacity:1"/>
<path class="bond-8 atom-8 atom-9" d="M 447.7,99.6 L 442.3,104.3" style="fill:none;fill-rule:evenodd;stroke:#000000;stroke-width:2.0px;stroke-linecap:butt;stroke-linejoin:miter;stroke-opacity:1"/>
<path class="bond-24 atom-8 atom-25" d="M 454.9,90.0 L 452.8,78.7" style="fill:none;fill-rule:evenodd;stroke:#0000FF;stroke-width:2.0px;stroke-linecap:butt;stroke-linejoin:miter;stroke-opacity:1"/>
<path class="bond-9 atom-9 atom-10" d="M 442.3,104.3 L 455.7,115.3" style="fill:none;fill-rule:evenodd;stroke:#000000;stroke-width:2.0px;stroke-linecap:butt;stroke-linejoin:miter;stroke-opacity:1"/>
<path class="bond-12 atom-9 atom-13" d="M 442.3,104.3 L 433.4,89.3" style="fill:none;fill-rule:evenodd;stroke:#000000;stroke-width:2.0px;stroke-linecap:butt;stroke-linejoin:miter;stroke-opacity:1"/>
<path class="bond-40 atom-24 atom-9" d="M 433.7,119.5 L 442.3,104.3" style="fill:none;fill-rule:evenodd;stroke:#000000;stroke-width:2.0px;stroke-linecap:butt;stroke-linejoin:miter;stroke-opacity:1"/>
<path class="bond-10 atom-10 atom-11" d="M 455.7,115.3 L 452.9,132.5" style="fill:none;fill-rule:evenodd;stroke:#000000;stroke-width:2.0px;stroke-linecap:butt;stroke-linejoin:miter;stroke-opacity:1"/>
<path class="bond-11 atom-11 atom-12" d="M 452.9,132.5 L 451.8,139.7" style="fill:none;fill-rule:evenodd;stroke:#000000;stroke-width:2.0px;stroke-linecap:butt;stroke-linejoin:miter;stroke-opacity:1"/>
<path class="bond-11 atom-11 atom-12" d="M 451.8,139.7 L 450.6,146.8" style="fill:none;fill-rule:evenodd;stroke:#0000FF;stroke-width:2.0px;stroke-linecap:butt;stroke-linejoin:miter;stroke-opacity:1"/>
<path class="bond-11 atom-11 atom-12" d="M 449.2,134.1 L 448.2,140.2" style="fill:none;fill-rule:evenodd;stroke:#000000;stroke-width:2.0px;stroke-linecap:butt;stroke-linejoin:miter;stroke-opacity:1"/>
<path class="bond-11 atom-11 atom-12" d="M 448.2,140.2 L 447.2,146.2" style="fill:none;fill-rule:evenodd;stroke:#0000FF;stroke-width:2.0px;stroke-linecap:butt;stroke-linejoin:miter;stroke-opacity:1"/>
<path class="bond-11 atom-11 atom-12" d="M 456.0,135.2 L 455.0,141.3" style="fill:none;fill-rule:evenodd;stroke:#000000;stroke-width:2.0px;stroke-linecap:butt;stroke-linejoin:miter;stroke-opacity:1"/>
<path class="bond-11 atom-11 atom-12" d="M 455.0,141.3 L 454.0,147.4" style="fill:none;fill-rule:evenodd;stroke:#0000FF;stroke-width:2.0px;stroke-linecap:butt;stroke-linejoin:miter;stroke-opacity:1"/>
<path class="bond-13 atom-13 atom-14" d="M 433.4,89.3 L 416.0,89.5" style="fill:none;fill-rule:evenodd;stroke:#000000;stroke-width:2.0px;stroke-linecap:butt;stroke-linejoin:miter;stroke-opacity:1"/>
<path class="bond-14 atom-14 atom-15" d="M 416.0,89.5 L 412.5,95.7" style="fill:none;fill-rule:evenodd;stroke:#000000;stroke-width:2.0px;stroke-linecap:butt;stroke-linejoin:miter;stroke-opacity:1"/>
<path class="bond-14 atom-14 atom-15" d="M 412.5,95.7 L 409.1,101.8" style="fill:none;fill-rule:evenodd;stroke:#0000FF;stroke-width:2.0px;stroke-linecap:butt;stroke-linejoin:miter;stroke-opacity:1"/>
<path class="bond-15 atom-15 atom-16" d="M 405.1,104.8 L 397.6,104.9" style="fill:none;fill-rule:evenodd;stroke:#0000FF;stroke-width:2.0px;stroke-linecap:butt;stroke-linejoin:miter;stroke-opacity:1"/>
<path class="bond-15 atom-15 atom-16" d="M 397.6,104.9 L 390.0,105.0" style="fill:none;fill-rule:evenodd;stroke:#000000;stroke-width:2.0px;stroke-linecap:butt;stroke-linejoin:miter;stroke-opacity:1"/>
<path class="bond-22 atom-15 atom-23" d="M 409.2,107.6 L 412.8,113.7" style="fill:none;fill-rule:evenodd;stroke:#0000FF;stroke-width:2.0px;stroke-linecap:butt;stroke-linejoin:miter;stroke-opacity:1"/>
<path class="bond-22 atom-15 atom-23" d="M 412.8,113.7 L 416.3,119.7" style="fill:none;fill-rule:evenodd;stroke:#000000;stroke-width:2.0px;stroke-linecap:butt;stroke-linejoin:miter;stroke-opacity:1"/>
<path class="bond-16 atom-16 atom-17" d="M 388.5,104.1 L 385.1,110.2" style="fill:none;fill-rule:evenodd;stroke:#000000;stroke-width:2.0px;stroke-linecap:butt;stroke-linejoin:miter;stroke-opacity:1"/>
<path class="bond-16 atom-16 atom-17" d="M 385.1,110.2 L 381.6,116.4" style="fill:none;fill-rule:evenodd;stroke:#FF0000;stroke-width:2.0px;stroke-linecap:butt;stroke-linejoin:miter;stroke-opacity:1"/>
<path class="bond-16 atom-16 atom-17" d="M 391.5,105.8 L 388.1,111.9" style="fill:none;fill-rule:evenodd;stroke:#000000;stroke-width:2.0px;stroke-linecap:butt;stroke-linejoin:miter;stroke-opacity:1"/>
<path class="bond-16 atom-16 atom-17" d="M 388.1,111.9 L 384.7,118.1" style="fill:none;fill-rule:evenodd;stroke:#FF0000;stroke-width:2.0px;stroke-linecap:butt;stroke-linejoin:miter;stroke-opacity:1"/>
<path class="bond-17 atom-16 atom-18" d="M 390.0,105.0 L 386.5,99.0" style="fill:none;fill-rule:evenodd;stroke:#000000;stroke-width:2.0px;stroke-linecap:butt;stroke-linejoin:miter;stroke-opacity:1"/>
<path class="bond-17 atom-16 atom-18" d="M 386.5,99.0 L 382.9,93.0" style="fill:none;fill-rule:evenodd;stroke:#FF0000;stroke-width:2.0px;stroke-linecap:butt;stroke-linejoin:miter;stroke-opacity:1"/>
<path class="bond-18 atom-18 atom-19" d="M 378.4,90.0 L 371.1,90.1" style="fill:none;fill-rule:evenodd;stroke:#FF0000;stroke-width:2.0px;stroke-linecap:butt;stroke-linejoin:miter;stroke-opacity:1"/>
<path class="bond-18 atom-18 atom-19" d="M 371.1,90.1 L 363.7,90.2" style="fill:none;fill-rule:evenodd;stroke:#000000;stroke-width:2.0px;stroke-linecap:butt;stroke-linejoin:miter;stroke-opacity:1"/>
<path class="bond-19 atom-19 atom-20" d="M 363.7,90.2 L 363.5,72.8" style="fill:none;fill-rule:evenodd;stroke:#000000;stroke-width:2.0px;stroke-linecap:butt;stroke-linejoin:miter;stroke-opacity:1"/>
<path class="bond-20 atom-19 atom-21" d="M 363.7,90.2 L 363.9,107.6" style="fill:none;fill-rule:evenodd;stroke:#000000;stroke-width:2.0px;stroke-linecap:butt;stroke-linejoin:miter;stroke-opacity:1"/>
<path class="bond-21 atom-19 atom-22" d="M 363.7,90.2 L 346.3,90.4" style="fill:none;fill-rule:evenodd;stroke:#000000;stroke-width:2.0px;stroke-linecap:butt;stroke-linejoin:miter;stroke-opacity:1"/>
<path class="bond-23 atom-23 atom-24" d="M 416.3,119.7 L 433.7,119.5" style="fill:none;fill-rule:evenodd;stroke:#000000;stroke-width:2.0px;stroke-linecap:butt;stroke-linejoin:miter;stroke-opacity:1"/>
<path class="bond-25 atom-25 atom-26" d="M 454.5,73.8 L 460.0,69.2" style="fill:none;fill-rule:evenodd;stroke:#0000FF;stroke-width:2.0px;stroke-linecap:butt;stroke-linejoin:miter;stroke-opacity:1"/>
<path class="bond-25 atom-25 atom-26" d="M 460.0,69.2 L 465.4,64.5" style="fill:none;fill-rule:evenodd;stroke:#000000;stroke-width:2.0px;stroke-linecap:butt;stroke-linejoin:miter;stroke-opacity:1"/>
<path class="bond-25 atom-25 atom-26" d="M 458.4,75.1 L 462.3,71.8" style="fill:none;fill-rule:evenodd;stroke:#0000FF;stroke-width:2.0px;stroke-linecap:butt;stroke-linejoin:miter;stroke-opacity:1"/>
<path class="bond-25 atom-25 atom-26" d="M 462.3,71.8 L 466.1,68.5" style="fill:none;fill-rule:evenodd;stroke:#000000;stroke-width:2.0px;stroke-linecap:butt;stroke-linejoin:miter;stroke-opacity:1"/>
<path class="bond-26 atom-26 atom-27" d="M 465.4,64.5 L 464.1,57.4" style="fill:none;fill-rule:evenodd;stroke:#000000;stroke-width:2.0px;stroke-linecap:butt;stroke-linejoin:miter;stroke-opacity:1"/>
<path class="bond-26 atom-26 atom-27" d="M 464.1,57.4 L 462.7,50.3" style="fill:none;fill-rule:evenodd;stroke:#0000FF;stroke-width:2.0px;stroke-linecap:butt;stroke-linejoin:miter;stroke-opacity:1"/>
<path class="bond-36 atom-26 atom-37" d="M 465.4,64.5 L 481.9,70.2" style="fill:none;fill-rule:evenodd;stroke:#000000;stroke-width:2.0px;stroke-linecap:butt;stroke-linejoin:miter;stroke-opacity:1"/>
<path class="bond-27 atom-27 atom-28" d="M 459.9,46.6 L 452.8,44.1" style="fill:none;fill-rule:evenodd;stroke:#0000FF;stroke-width:2.0px;stroke-linecap:butt;stroke-linejoin:miter;stroke-opacity:1"/>
<path class="bond-27 atom-27 atom-28" d="M 452.8,44.1 L 445.8,41.6" style="fill:none;fill-rule:evenodd;stroke:#000000;stroke-width:2.0px;stroke-linecap:butt;stroke-linejoin:miter;stroke-opacity:1"/>
<path class="bond-28 atom-28 atom-29" d="M 445.8,41.6 L 442.5,24.5" style="fill:none;fill-rule:evenodd;stroke:#000000;stroke-width:2.0px;stroke-linecap:butt;stroke-linejoin:miter;stroke-opacity:1"/>
<path class="bond-28 atom-28 atom-29" d="M 441.8,39.7 L 439.6,27.7" style="fill:none;fill-rule:evenodd;stroke:#000000;stroke-width:2.0px;stroke-linecap:butt;stroke-linejoin:miter;stroke-opacity:1"/>
<path class="bond-41 atom-36 atom-28" d="M 432.6,53.0 L 445.8,41.6" style="fill:none;fill-rule:evenodd;stroke:#000000;stroke-width:2.0px;stroke-linecap:butt;stroke-linejoin:miter;stroke-opacity:1"/>
<path class="bond-29 atom-29 atom-30" d="M 442.5,24.5 L 426.1,18.7" style="fill:none;fill-rule:evenodd;stroke:#000000;stroke-width:2.0px;stroke-linecap:butt;stroke-linejoin:miter;stroke-opacity:1"/>
<path class="bond-30 atom-30 atom-31" d="M 426.1,18.7 L 412.9,30.1" style="fill:none;fill-rule:evenodd;stroke:#000000;stroke-width:2.0px;stroke-linecap:butt;stroke-linejoin:miter;stroke-opacity:1"/>
<path class="bond-30 atom-30 atom-31" d="M 426.4,23.1 L 417.1,31.0" style="fill:none;fill-rule:evenodd;stroke:#000000;stroke-width:2.0px;stroke-linecap:butt;stroke-linejoin:miter;stroke-opacity:1"/>
<path class="bond-31 atom-31 atom-32" d="M 412.9,30.1 L 396.4,24.4" style="fill:none;fill-rule:evenodd;stroke:#000000;stroke-width:2.0px;stroke-linecap:butt;stroke-linejoin:miter;stroke-opacity:1"/>
<path class="bond-34 atom-31 atom-35" d="M 412.9,30.1 L 416.1,47.2" style="fill:none;fill-rule:evenodd;stroke:#000000;stroke-width:2.0px;stroke-linecap:butt;stroke-linejoin:miter;stroke-opacity:1"/>
<path class="bond-32 atom-32 atom-33" d="M 396.4,24.4 L 393.2,7.2" style="fill:none;fill-rule:evenodd;stroke:#000000;stroke-width:2.0px;stroke-linecap:butt;stroke-linejoin:miter;stroke-opacity:1"/>
<path class="bond-33 atom-32 atom-34" d="M 395.3,23.0 L 390.1,27.6" style="fill:none;fill-rule:evenodd;stroke:#000000;stroke-width:2.0px;stroke-linecap:butt;stroke-linejoin:miter;stroke-opacity:1"/>
<path class="bond-33 atom-32 atom-34" d="M 390.1,27.6 L 384.8,32.1" style="fill:none;fill-rule:evenodd;stroke:#FF0000;stroke-width:2.0px;stroke-linecap:butt;stroke-linejoin:miter;stroke-opacity:1"/>
<path class="bond-33 atom-32 atom-34" d="M 397.6,25.7 L 392.3,30.2" style="fill:none;fill-rule:evenodd;stroke:#000000;stroke-width:2.0px;stroke-linecap:butt;stroke-linejoin:miter;stroke-opacity:1"/>
<path class="bond-33 atom-32 atom-34" d="M 392.3,30.2 L 387.1,34.7" style="fill:none;fill-rule:evenodd;stroke:#FF0000;stroke-width:2.0px;stroke-linecap:butt;stroke-linejoin:miter;stroke-opacity:1"/>
<path class="bond-35 atom-35 atom-36" d="M 416.1,47.2 L 432.6,53.0" style="fill:none;fill-rule:evenodd;stroke:#000000;stroke-width:2.0px;stroke-linecap:butt;stroke-linejoin:miter;stroke-opacity:1"/>
<path class="bond-35 atom-35 atom-36" d="M 419.7,44.8 L 431.2,48.8" style="fill:none;fill-rule:evenodd;stroke:#000000;stroke-width:2.0px;stroke-linecap:butt;stroke-linejoin:miter;stroke-opacity:1"/>
<path class="bond-37 atom-37 atom-38" d="M 481.9,70.2 L 487.3,65.5" style="fill:none;fill-rule:evenodd;stroke:#000000;stroke-width:2.0px;stroke-linecap:butt;stroke-linejoin:miter;stroke-opacity:1"/>
<path class="bond-37 atom-37 atom-38" d="M 487.3,65.5 L 492.8,60.8" style="fill:none;fill-rule:evenodd;stroke:#0000FF;stroke-width:2.0px;stroke-linecap:butt;stroke-linejoin:miter;stroke-opacity:1"/>
<path class="bond-37 atom-37 atom-38" d="M 481.2,66.2 L 485.0,62.9" style="fill:none;fill-rule:evenodd;stroke:#000000;stroke-width:2.0px;stroke-linecap:butt;stroke-linejoin:miter;stroke-opacity:1"/>
<path class="bond-37 atom-37 atom-38" d="M 485.0,62.9 L 488.9,59.6" style="fill:none;fill-rule:evenodd;stroke:#0000FF;stroke-width:2.0px;stroke-linecap:butt;stroke-linejoin:miter;stroke-opacity:1"/>
<path class="bond-38 atom-38 atom-39" d="M 494.5,56.0 L 493.4,50.3" style="fill:none;fill-rule:evenodd;stroke:#0000FF;stroke-width:2.0px;stroke-linecap:butt;stroke-linejoin:miter;stroke-opacity:1"/>
<path class="bond-38 atom-38 atom-39" d="M 493.4,50.3 L 492.4,44.7" style="fill:none;fill-rule:evenodd;stroke:#FF0000;stroke-width:2.0px;stroke-linecap:butt;stroke-linejoin:miter;stroke-opacity:1"/>
<path class="atom-1" d="M 513.7 79.3 L 515.3 81.9 Q 515.4 82.1, 515.7 82.6 Q 515.9 83.1, 516.0 83.1 L 516.0 79.3 L 516.6 79.3 L 516.6 84.2 L 515.9 84.2 L 514.2 81.3 Q 514.0 81.0, 513.8 80.6 Q 513.6 80.2, 513.5 80.1 L 513.5 84.2 L 512.9 84.2 L 512.9 79.3 L 513.7 79.3 " fill="#0000FF"/>
<path class="atom-3" d="M 522.4 53.3 Q 522.4 52.1, 523.0 51.4 Q 523.6 50.8, 524.7 50.8 Q 525.8 50.8, 526.4 51.4 Q 527.0 52.1, 527.0 53.3 Q 527.0 54.5, 526.4 55.2 Q 525.8 55.8, 524.7 55.8 Q 523.6 55.8, 523.0 55.2 Q 522.4 54.5, 522.4 53.3 M 524.7 55.3 Q 525.5 55.3, 525.9 54.8 Q 526.3 54.3, 526.3 53.3 Q 526.3 52.3, 525.9 51.8 Q 525.5 51.3, 524.7 51.3 Q 524.0 51.3, 523.5 51.8 Q 523.1 52.3, 523.1 53.3 Q 523.1 54.3, 523.5 54.8 Q 524.0 55.3, 524.7 55.3 " fill="#FF0000"/>
<path class="atom-5" d="M 503.7 107.7 L 505.3 110.3 Q 505.5 110.6, 505.7 111.1 Q 506.0 111.5, 506.0 111.6 L 506.0 107.7 L 506.7 107.7 L 506.7 112.7 L 506.0 112.7 L 504.2 109.8 Q 504.0 109.5, 503.8 109.1 Q 503.6 108.7, 503.6 108.6 L 503.6 112.7 L 502.9 112.7 L 502.9 107.7 L 503.7 107.7 " fill="#0000FF"/>
<path class="atom-8" d="M 454.4 90.5 L 456.0 93.1 Q 456.2 93.3, 456.4 93.8 Q 456.7 94.3, 456.7 94.3 L 456.7 90.5 L 457.3 90.5 L 457.3 95.4 L 456.7 95.4 L 454.9 92.6 Q 454.7 92.2, 454.5 91.8 Q 454.3 91.5, 454.2 91.3 L 454.2 95.4 L 453.6 95.4 L 453.6 90.5 L 454.4 90.5 " fill="#0000FF"/>
<path class="atom-12" d="M 449.0 147.2 L 450.7 149.8 Q 450.8 150.1, 451.1 150.6 Q 451.3 151.0, 451.3 151.1 L 451.3 147.2 L 452.0 147.2 L 452.0 152.2 L 451.3 152.2 L 449.6 149.3 Q 449.4 149.0, 449.2 148.6 Q 449.0 148.2, 448.9 148.1 L 448.9 152.2 L 448.3 152.2 L 448.3 147.2 L 449.0 147.2 " fill="#0000FF"/>
<path class="atom-15" d="M 406.4 102.3 L 408.0 104.9 Q 408.1 105.1, 408.4 105.6 Q 408.6 106.1, 408.7 106.1 L 408.7 102.3 L 409.3 102.3 L 409.3 107.2 L 408.6 107.2 L 406.9 104.3 Q 406.7 104.0, 406.5 103.6 Q 406.3 103.2, 406.2 103.1 L 406.2 107.2 L 405.6 107.2 L 405.6 102.3 L 406.4 102.3 " fill="#0000FF"/>
<path class="atom-17" d="M 379.2 120.2 Q 379.2 119.0, 379.8 118.3 Q 380.4 117.7, 381.5 117.7 Q 382.6 117.7, 383.2 118.3 Q 383.8 119.0, 383.8 120.2 Q 383.8 121.4, 383.2 122.0 Q 382.6 122.7, 381.5 122.7 Q 380.4 122.7, 379.8 122.0 Q 379.2 121.4, 379.2 120.2 M 381.5 122.2 Q 382.3 122.2, 382.7 121.7 Q 383.1 121.1, 383.1 120.2 Q 383.1 119.2, 382.7 118.7 Q 382.3 118.2, 381.5 118.2 Q 380.8 118.2, 380.3 118.7 Q 379.9 119.2, 379.9 120.2 Q 379.9 121.2, 380.3 121.7 Q 380.8 122.2, 381.5 122.2 " fill="#FF0000"/>
<path class="atom-18" d="M 378.9 90.0 Q 378.9 88.8, 379.5 88.2 Q 380.0 87.5, 381.1 87.5 Q 382.2 87.5, 382.8 88.2 Q 383.4 88.8, 383.4 90.0 Q 383.4 91.2, 382.8 91.9 Q 382.2 92.6, 381.1 92.6 Q 380.0 92.6, 379.5 91.9 Q 378.9 91.2, 378.9 90.0 M 381.1 92.0 Q 381.9 92.0, 382.3 91.5 Q 382.7 91.0, 382.7 90.0 Q 382.7 89.0, 382.3 88.5 Q 381.9 88.0, 381.1 88.0 Q 380.4 88.0, 380.0 88.5 Q 379.6 89.0, 379.6 90.0 Q 379.6 91.0, 380.0 91.5 Q 380.4 92.0, 381.1 92.0 " fill="#FF0000"/>
<path class="atom-25" d="M 451.1 73.4 L 452.8 76.0 Q 452.9 76.2, 453.2 76.7 Q 453.4 77.2, 453.4 77.2 L 453.4 73.4 L 454.1 73.4 L 454.1 78.3 L 453.4 78.3 L 451.7 75.4 Q 451.5 75.1, 451.3 74.7 Q 451.1 74.3, 451.0 74.2 L 451.0 78.3 L 450.4 78.3 L 450.4 73.4 L 451.1 73.4 " fill="#0000FF"/>
<path class="atom-27" d="M 461.1 44.9 L 462.7 47.5 Q 462.9 47.8, 463.1 48.2 Q 463.4 48.7, 463.4 48.7 L 463.4 44.9 L 464.1 44.9 L 464.1 49.8 L 463.4 49.8 L 461.7 47.0 Q 461.4 46.6, 461.2 46.3 Q 461.0 45.9, 461.0 45.8 L 461.0 49.8 L 460.3 49.8 L 460.3 44.9 L 461.1 44.9 " fill="#0000FF"/>
<path class="atom-27" d="M 464.7 44.9 L 465.3 44.9 L 465.3 47.0 L 467.8 47.0 L 467.8 44.9 L 468.5 44.9 L 468.5 49.8 L 467.8 49.8 L 467.8 47.6 L 465.3 47.6 L 465.3 49.8 L 464.7 49.8 L 464.7 44.9 " fill="#0000FF"/>
<path class="atom-34" d="M 381.0 35.7 Q 381.0 34.5, 381.6 33.9 Q 382.1 33.2, 383.2 33.2 Q 384.3 33.2, 384.9 33.9 Q 385.5 34.5, 385.5 35.7 Q 385.5 36.9, 384.9 37.6 Q 384.3 38.3, 383.2 38.3 Q 382.2 38.3, 381.6 37.6 Q 381.0 36.9, 381.0 35.7 M 383.2 37.7 Q 384.0 37.7, 384.4 37.2 Q 384.8 36.7, 384.8 35.7 Q 384.8 34.8, 384.4 34.3 Q 384.0 33.8, 383.2 33.8 Q 382.5 33.8, 382.1 34.3 Q 381.7 34.8, 381.7 35.7 Q 381.7 36.7, 382.1 37.2 Q 382.5 37.7, 383.2 37.7 " fill="#FF0000"/>
<path class="atom-38" d="M 494.0 56.4 L 495.6 59.0 Q 495.8 59.3, 496.0 59.7 Q 496.3 60.2, 496.3 60.2 L 496.3 56.4 L 496.9 56.4 L 496.9 61.3 L 496.3 61.3 L 494.5 58.5 Q 494.3 58.1, 494.1 57.8 Q 493.9 57.4, 493.8 57.3 L 493.8 61.3 L 493.2 61.3 L 493.2 56.4 L 494.0 56.4 " fill="#0000FF"/>
<path class="atom-39" d="M 489.6 41.8 Q 489.6 40.6, 490.1 39.9 Q 490.7 39.3, 491.8 39.3 Q 492.9 39.3, 493.5 39.9 Q 494.1 40.6, 494.1 41.8 Q 494.1 43.0, 493.5 43.6 Q 492.9 44.3, 491.8 44.3 Q 490.7 44.3, 490.1 43.6 Q 489.6 43.0, 489.6 41.8 M 491.8 43.8 Q 492.6 43.8, 493.0 43.3 Q 493.4 42.8, 493.4 41.8 Q 493.4 40.8, 493.0 40.3 Q 492.6 39.8, 491.8 39.8 Q 491.1 39.8, 490.7 40.3 Q 490.3 40.8, 490.3 41.8 Q 490.3 42.8, 490.7 43.3 Q 491.1 43.8, 491.8 43.8 " fill="#FF0000"/>
<path class="atom-39" d="M 494.7 39.3 L 495.4 39.3 L 495.4 41.4 L 497.9 41.4 L 497.9 39.3 L 498.5 39.3 L 498.5 44.2 L 497.9 44.2 L 497.9 42.0 L 495.4 42.0 L 495.4 44.2 L 494.7 44.2 L 494.7 39.3 " fill="#FF0000"/>
<path d="M 533.6,87.5 L 533.6,87.4 L 533.6,87.4 L 533.6,87.4 L 533.6,87.4 L 533.6,87.3 L 533.6,87.3 L 533.6,87.3 L 533.5,87.3 L 533.5,87.2 L 533.5,87.2 L 533.5,87.2 L 533.4,87.2 L 533.4,87.2 L 533.4,87.2 L 533.4,87.1 L 533.3,87.1 L 533.3,87.1 L 533.3,87.1 L 533.2,87.1 L 533.2,87.1 L 533.2,87.1 L 533.2,87.1 L 533.1,87.2 L 533.1,87.2 L 533.1,87.2 L 533.1,87.2 L 533.0,87.2 L 533.0,87.2 L 533.0,87.3 L 533.0,87.3 L 533.0,87.3 L 532.9,87.3 L 532.9,87.4 L 532.9,87.4 L 532.9,87.4 L 532.9,87.5 L 532.9,87.5 L 532.9,87.5 L 532.9,87.6 L 532.9,87.6 L 532.9,87.6 L 533.0,87.6 L 533.0,87.7 L 533.0,87.7 L 533.0,87.7 L 533.0,87.7 L 533.1,87.8 L 533.1,87.8 L 533.1,87.8 L 533.1,87.8 L 533.2,87.8 L 533.2,87.8 L 533.2,87.8 L 533.2,87.8 L 533.3,87.8 L 533.3,87.8 L 533.3,87.8 L 533.4,87.8 L 533.4,87.8 L 533.4,87.8 L 533.4,87.8 L 533.5,87.8 L 533.5,87.7 L 533.5,87.7 L 533.5,87.7 L 533.6,87.7 L 533.6,87.6 L 533.6,87.6 L 533.6,87.6 L 533.6,87.6 L 533.6,87.5 L 533.6,87.5 L 533.6,87.5 L 533.3,87.5 Z" style="fill:#000000;fill-rule:evenodd;fill-opacity:1;stroke:#000000;stroke-width:0.0px;stroke-linecap:butt;stroke-linejoin:miter;stroke-opacity:1;"/>
<path d="M 533.6,88.9 L 533.6,88.8 L 533.6,88.8 L 533.6,88.8 L 533.6,88.8 L 533.6,88.7 L 533.6,88.7 L 533.6,88.7 L 533.5,88.6 L 533.5,88.6 L 533.5,88.6 L 533.5,88.6 L 533.4,88.6 L 533.4,88.6 L 533.4,88.5 L 533.4,88.5 L 533.3,88.5 L 533.3,88.5 L 533.3,88.5 L 533.2,88.5 L 533.2,88.5 L 533.2,88.5 L 533.2,88.5 L 533.1,88.6 L 533.1,88.6 L 533.1,88.6 L 533.1,88.6 L 533.0,88.6 L 533.0,88.6 L 533.0,88.7 L 533.0,88.7 L 533.0,88.7 L 532.9,88.7 L 532.9,88.8 L 532.9,88.8 L 532.9,88.8 L 532.9,88.9 L 532.9,88.9 L 532.9,88.9 L 532.9,88.9 L 532.9,89.0 L 532.9,89.0 L 533.0,89.0 L 533.0,89.1 L 533.0,89.1 L 533.0,89.1 L 533.0,89.1 L 533.1,89.1 L 533.1,89.2 L 533.1,89.2 L 533.1,89.2 L 533.2,89.2 L 533.2,89.2 L 533.2,89.2 L 533.2,89.2 L 533.3,89.2 L 533.3,89.2 L 533.3,89.2 L 533.4,89.2 L 533.4,89.2 L 533.4,89.2 L 533.4,89.2 L 533.5,89.2 L 533.5,89.1 L 533.5,89.1 L 533.5,89.1 L 533.6,89.1 L 533.6,89.0 L 533.6,89.0 L 533.6,89.0 L 533.6,89.0 L 533.6,88.9 L 533.6,88.9 L 533.6,88.9 L 533.3,88.9 Z" style="fill:#000000;fill-rule:evenodd;fill-opacity:1;stroke:#000000;stroke-width:0.0px;stroke-linecap:butt;stroke-linejoin:miter;stroke-opacity:1;"/>
<path d="M 533.6,86.1 L 533.6,86.1 L 533.6,86.0 L 533.6,86.0 L 533.6,86.0 L 533.6,85.9 L 533.6,85.9 L 533.6,85.9 L 533.5,85.9 L 533.5,85.8 L 533.5,85.8 L 533.5,85.8 L 533.4,85.8 L 533.4,85.8 L 533.4,85.8 L 533.4,85.8 L 533.3,85.7 L 533.3,85.7 L 533.3,85.7 L 533.2,85.7 L 533.2,85.7 L 533.2,85.7 L 533.2,85.8 L 533.1,85.8 L 533.1,85.8 L 533.1,85.8 L 533.1,85.8 L 533.0,85.8 L 533.0,85.9 L 533.0,85.9 L 533.0,85.9 L 533.0,85.9 L 532.9,86.0 L 532.9,86.0 L 532.9,86.0 L 532.9,86.0 L 532.9,86.1 L 532.9,86.1 L 532.9,86.1 L 532.9,86.2 L 532.9,86.2 L 532.9,86.2 L 533.0,86.2 L 533.0,86.3 L 533.0,86.3 L 533.0,86.3 L 533.0,86.3 L 533.1,86.4 L 533.1,86.4 L 533.1,86.4 L 533.1,86.4 L 533.2,86.4 L 533.2,86.4 L 533.2,86.4 L 533.2,86.4 L 533.3,86.4 L 533.3,86.4 L 533.3,86.4 L 533.4,86.4 L 533.4,86.4 L 533.4,86.4 L 533.4,86.4 L 533.5,86.4 L 533.5,86.3 L 533.5,86.3 L 533.5,86.3 L 533.6,86.3 L 533.6,86.3 L 533.6,86.2 L 533.6,86.2 L 533.6,86.2 L 533.6,86.1 L 533.6,86.1 L 533.6,86.1 L 533.3,86.1 Z" style="fill:#000000;fill-rule:evenodd;fill-opacity:1;stroke:#000000;stroke-width:0.0px;stroke-linecap:butt;stroke-linejoin:miter;stroke-opacity:1;"/>
<path d="M 533.6,87.5 L 533.6,87.4 L 533.6,87.4 L 533.6,87.4 L 533.6,87.4 L 533.6,87.3 L 533.6,87.3 L 533.6,87.3 L 533.5,87.3 L 533.5,87.2 L 533.5,87.2 L 533.5,87.2 L 533.4,87.2 L 533.4,87.2 L 533.4,87.2 L 533.4,87.1 L 533.3,87.1 L 533.3,87.1 L 533.3,87.1 L 533.2,87.1 L 533.2,87.1 L 533.2,87.1 L 533.2,87.1 L 533.1,87.2 L 533.1,87.2 L 533.1,87.2 L 533.1,87.2 L 533.0,87.2 L 533.0,87.2 L 533.0,87.3 L 533.0,87.3 L 533.0,87.3 L 532.9,87.3 L 532.9,87.4 L 532.9,87.4 L 532.9,87.4 L 532.9,87.5 L 532.9,87.5 L 532.9,87.5 L 532.9,87.6 L 532.9,87.6 L 532.9,87.6 L 533.0,87.6 L 533.0,87.7 L 533.0,87.7 L 533.0,87.7 L 533.0,87.7 L 533.1,87.8 L 533.1,87.8 L 533.1,87.8 L 533.1,87.8 L 533.2,87.8 L 533.2,87.8 L 533.2,87.8 L 533.2,87.8 L 533.3,87.8 L 533.3,87.8 L 533.3,87.8 L 533.4,87.8 L 533.4,87.8 L 533.4,87.8 L 533.4,87.8 L 533.5,87.8 L 533.5,87.7 L 533.5,87.7 L 533.5,87.7 L 533.6,87.7 L 533.6,87.6 L 533.6,87.6 L 533.6,87.6 L 533.6,87.6 L 533.6,87.5 L 533.6,87.5 L 533.6,87.5 L 533.3,87.5 Z" style="fill:#000000;fill-rule:evenodd;fill-opacity:1;stroke:#000000;stroke-width:0.0px;stroke-linecap:butt;stroke-linejoin:miter;stroke-opacity:1;"/>
<path d="M 528.4,53.3 L 528.4,53.2 L 528.4,53.2 L 528.3,53.2 L 528.3,53.1 L 528.3,53.1 L 528.3,53.1 L 528.3,53.1 L 528.3,53.0 L 528.3,53.0 L 528.2,53.0 L 528.2,53.0 L 528.2,53.0 L 528.2,52.9 L 528.1,52.9 L 528.1,52.9 L 528.1,52.9 L 528.0,52.9 L 528.0,52.9 L 528.0,52.9 L 528.0,52.9 L 527.9,52.9 L 527.9,52.9 L 527.9,52.9 L 527.8,52.9 L 527.8,53.0 L 527.8,53.0 L 527.8,53.0 L 527.8,53.0 L 527.7,53.0 L 527.7,53.1 L 527.7,53.1 L 527.7,53.1 L 527.7,53.2 L 527.7,53.2 L 527.7,53.2 L 527.7,53.2 L 527.7,53.3 L 527.7,53.3 L 527.7,53.3 L 527.7,53.4 L 527.7,53.4 L 527.7,53.4 L 527.7,53.4 L 527.7,53.5 L 527.8,53.5 L 527.8,53.5 L 527.8,53.5 L 527.8,53.5 L 527.8,53.6 L 527.9,53.6 L 527.9,53.6 L 527.9,53.6 L 528.0,53.6 L 528.0,53.6 L 528.0,53.6 L 528.0,53.6 L 528.1,53.6 L 528.1,53.6 L 528.1,53.6 L 528.2,53.6 L 528.2,53.6 L 528.2,53.5 L 528.2,53.5 L 528.3,53.5 L 528.3,53.5 L 528.3,53.5 L 528.3,53.4 L 528.3,53.4 L 528.3,53.4 L 528.3,53.3 L 528.4,53.3 L 528.4,53.3 L 528.4,53.3 L 528.0,53.3 Z" style="fill:#000000;fill-rule:evenodd;fill-opacity:1;stroke:#000000;stroke-width:0.0px;stroke-linecap:butt;stroke-linejoin:miter;stroke-opacity:1;"/>
<path d="M 508.0,110.2 L 508.0,110.2 L 508.0,110.1 L 508.0,110.1 L 508.0,110.1 L 508.0,110.1 L 508.0,110.0 L 508.0,110.0 L 508.0,110.0 L 507.9,110.0 L 507.9,109.9 L 507.9,109.9 L 507.9,109.9 L 507.8,109.9 L 507.8,109.9 L 507.8,109.9 L 507.8,109.9 L 507.7,109.9 L 507.7,109.8 L 507.7,109.8 L 507.6,109.9 L 507.6,109.9 L 507.6,109.9 L 507.6,109.9 L 507.5,109.9 L 507.5,109.9 L 507.5,109.9 L 507.5,109.9 L 507.4,110.0 L 507.4,110.0 L 507.4,110.0 L 507.4,110.0 L 507.4,110.1 L 507.4,110.1 L 507.4,110.1 L 507.3,110.2 L 507.3,110.2 L 507.3,110.2 L 507.3,110.2 L 507.4,110.3 L 507.4,110.3 L 507.4,110.3 L 507.4,110.4 L 507.4,110.4 L 507.4,110.4 L 507.4,110.4 L 507.5,110.5 L 507.5,110.5 L 507.5,110.5 L 507.5,110.5 L 507.6,110.5 L 507.6,110.5 L 507.6,110.5 L 507.6,110.5 L 507.7,110.5 L 507.7,110.5 L 507.7,110.5 L 507.8,110.5 L 507.8,110.5 L 507.8,110.5 L 507.8,110.5 L 507.9,110.5 L 507.9,110.5 L 507.9,110.5 L 507.9,110.4 L 508.0,110.4 L 508.0,110.4 L 508.0,110.4 L 508.0,110.3 L 508.0,110.3 L 508.0,110.3 L 508.0,110.3 L 508.0,110.2 L 508.0,110.2 L 507.7,110.2 Z" style="fill:#000000;fill-rule:evenodd;fill-opacity:1;stroke:#000000;stroke-width:0.0px;stroke-linecap:butt;stroke-linejoin:miter;stroke-opacity:1;"/>
<path class="bond-0 atom-0 atom-1" d="M 775.4,143.5 L 771.2,138.1" style="fill:none;fill-rule:evenodd;stroke:#000000;stroke-width:2.0px;stroke-linecap:butt;stroke-linejoin:miter;stroke-opacity:1"/>
<path class="bond-0 atom-0 atom-1" d="M 771.2,138.1 L 766.9,132.7" style="fill:none;fill-rule:evenodd;stroke:#0000FF;stroke-width:2.0px;stroke-linecap:butt;stroke-linejoin:miter;stroke-opacity:1"/>
<path class="bond-1 atom-1 atom-2" d="M 762.3,130.2 L 754.8,131.2" style="fill:none;fill-rule:evenodd;stroke:#0000FF;stroke-width:2.0px;stroke-linecap:butt;stroke-linejoin:miter;stroke-opacity:1"/>
<path class="bond-1 atom-1 atom-2" d="M 754.8,131.2 L 747.4,132.3" style="fill:none;fill-rule:evenodd;stroke:#000000;stroke-width:2.0px;stroke-linecap:butt;stroke-linejoin:miter;stroke-opacity:1"/>
<path class="bond-3 atom-1 atom-4" d="M 765.8,126.9 L 768.4,120.3" style="fill:none;fill-rule:evenodd;stroke:#0000FF;stroke-width:2.0px;stroke-linecap:butt;stroke-linejoin:miter;stroke-opacity:1"/>
<path class="bond-3 atom-1 atom-4" d="M 768.4,120.3 L 771.0,113.6" style="fill:none;fill-rule:evenodd;stroke:#000000;stroke-width:2.0px;stroke-linecap:butt;stroke-linejoin:miter;stroke-opacity:1"/>
<path class="bond-2 atom-2 atom-3" d="M 747.4,132.3 L 744.7,139.0" style="fill:none;fill-rule:evenodd;stroke:#000000;stroke-width:2.0px;stroke-linecap:butt;stroke-linejoin:miter;stroke-opacity:1"/>
<path class="bond-2 atom-2 atom-3" d="M 744.7,139.0 L 742.1,145.6" style="fill:none;fill-rule:evenodd;stroke:#0000FF;stroke-width:2.0px;stroke-linecap:butt;stroke-linejoin:miter;stroke-opacity:1"/>
<path class="bond-4 atom-4 atom-5" d="M 771.3,115.4 L 786.5,113.1" style="fill:none;fill-rule:evenodd;stroke:#000000;stroke-width:2.0px;stroke-linecap:butt;stroke-linejoin:miter;stroke-opacity:1"/>
<path class="bond-4 atom-4 atom-5" d="M 770.8,111.9 L 786.0,109.7" style="fill:none;fill-rule:evenodd;stroke:#000000;stroke-width:2.0px;stroke-linecap:butt;stroke-linejoin:miter;stroke-opacity:1"/>
<path class="bond-5 atom-4 atom-6" d="M 771.0,113.6 L 760.2,100.0" style="fill:none;fill-rule:evenodd;stroke:#000000;stroke-width:2.0px;stroke-linecap:butt;stroke-linejoin:miter;stroke-opacity:1"/>
<path class="bond-6 atom-6 atom-7" d="M 760.2,100.0 L 743.0,102.5" style="fill:none;fill-rule:evenodd;stroke:#000000;stroke-width:2.0px;stroke-linecap:butt;stroke-linejoin:miter;stroke-opacity:1"/>
<path class="bond-6 atom-6 atom-7" d="M 757.2,96.9 L 745.1,98.7" style="fill:none;fill-rule:evenodd;stroke:#000000;stroke-width:2.0px;stroke-linecap:butt;stroke-linejoin:miter;stroke-opacity:1"/>
<path class="bond-38 atom-37 atom-6" d="M 766.7,83.8 L 760.2,100.0" style="fill:none;fill-rule:evenodd;stroke:#000000;stroke-width:2.0px;stroke-linecap:butt;stroke-linejoin:miter;stroke-opacity:1"/>
<path class="bond-7 atom-7 atom-8" d="M 743.0,102.5 L 738.8,97.1" style="fill:none;fill-rule:evenodd;stroke:#000000;stroke-width:2.0px;stroke-linecap:butt;stroke-linejoin:miter;stroke-opacity:1"/>
<path class="bond-7 atom-7 atom-8" d="M 738.8,97.1 L 734.5,91.7" style="fill:none;fill-rule:evenodd;stroke:#0000FF;stroke-width:2.0px;stroke-linecap:butt;stroke-linejoin:miter;stroke-opacity:1"/>
<path class="bond-8 atom-8 atom-9" d="M 729.9,89.2 L 722.4,90.3" style="fill:none;fill-rule:evenodd;stroke:#0000FF;stroke-width:2.0px;stroke-linecap:butt;stroke-linejoin:miter;stroke-opacity:1"/>
<path class="bond-8 atom-8 atom-9" d="M 722.4,90.3 L 715.0,91.4" style="fill:none;fill-rule:evenodd;stroke:#000000;stroke-width:2.0px;stroke-linecap:butt;stroke-linejoin:miter;stroke-opacity:1"/>
<path class="bond-24 atom-8 atom-25" d="M 733.4,85.9 L 737.5,75.5" style="fill:none;fill-rule:evenodd;stroke:#0000FF;stroke-width:2.0px;stroke-linecap:butt;stroke-linejoin:miter;stroke-opacity:1"/>
<path class="bond-9 atom-9 atom-10" d="M 715.0,91.4 L 720.5,107.9" style="fill:none;fill-rule:evenodd;stroke:#000000;stroke-width:2.0px;stroke-linecap:butt;stroke-linejoin:miter;stroke-opacity:1"/>
<path class="bond-12 atom-9 atom-13" d="M 715.0,91.4 L 715.5,73.9" style="fill:none;fill-rule:evenodd;stroke:#000000;stroke-width:2.0px;stroke-linecap:butt;stroke-linejoin:miter;stroke-opacity:1"/>
<path class="bond-39 atom-24 atom-9" d="M 699.7,99.6 L 715.0,91.4" style="fill:none;fill-rule:evenodd;stroke:#000000;stroke-width:2.0px;stroke-linecap:butt;stroke-linejoin:miter;stroke-opacity:1"/>
<path class="bond-10 atom-10 atom-11" d="M 720.5,107.9 L 708.9,120.9" style="fill:none;fill-rule:evenodd;stroke:#000000;stroke-width:2.0px;stroke-linecap:butt;stroke-linejoin:miter;stroke-opacity:1"/>
<path class="bond-11 atom-11 atom-12" d="M 708.9,120.9 L 704.2,126.1" style="fill:none;fill-rule:evenodd;stroke:#000000;stroke-width:2.0px;stroke-linecap:butt;stroke-linejoin:miter;stroke-opacity:1"/>
<path class="bond-11 atom-11 atom-12" d="M 704.2,126.1 L 699.6,131.3" style="fill:none;fill-rule:evenodd;stroke:#0000FF;stroke-width:2.0px;stroke-linecap:butt;stroke-linejoin:miter;stroke-opacity:1"/>
<path class="bond-11 atom-11 atom-12" d="M 704.9,120.1 L 700.9,124.6" style="fill:none;fill-rule:evenodd;stroke:#000000;stroke-width:2.0px;stroke-linecap:butt;stroke-linejoin:miter;stroke-opacity:1"/>
<path class="bond-11 atom-11 atom-12" d="M 700.9,124.6 L 697.0,129.0" style="fill:none;fill-rule:evenodd;stroke:#0000FF;stroke-width:2.0px;stroke-linecap:butt;stroke-linejoin:miter;stroke-opacity:1"/>
<path class="bond-11 atom-11 atom-12" d="M 710.1,124.8 L 706.1,129.2" style="fill:none;fill-rule:evenodd;stroke:#000000;stroke-width:2.0px;stroke-linecap:butt;stroke-linejoin:miter;stroke-opacity:1"/>
<path class="bond-11 atom-11 atom-12" d="M 706.1,129.2 L 702.2,133.6" style="fill:none;fill-rule:evenodd;stroke:#0000FF;stroke-width:2.0px;stroke-linecap:butt;stroke-linejoin:miter;stroke-opacity:1"/>
<path class="bond-13 atom-13 atom-14" d="M 715.5,73.9 L 700.7,64.8" style="fill:none;fill-rule:evenodd;stroke:#000000;stroke-width:2.0px;stroke-linecap:butt;stroke-linejoin:miter;stroke-opacity:1"/>
<path class="bond-14 atom-14 atom-15" d="M 700.7,64.8 L 694.2,68.3" style="fill:none;fill-rule:evenodd;stroke:#000000;stroke-width:2.0px;stroke-linecap:butt;stroke-linejoin:miter;stroke-opacity:1"/>
<path class="bond-14 atom-14 atom-15" d="M 694.2,68.3 L 687.6,71.8" style="fill:none;fill-rule:evenodd;stroke:#0000FF;stroke-width:2.0px;stroke-linecap:butt;stroke-linejoin:miter;stroke-opacity:1"/>
<path class="bond-15 atom-15 atom-16" d="M 683.0,71.6 L 676.8,67.8" style="fill:none;fill-rule:evenodd;stroke:#0000FF;stroke-width:2.0px;stroke-linecap:butt;stroke-linejoin:miter;stroke-opacity:1"/>
<path class="bond-15 atom-15 atom-16" d="M 676.8,67.8 L 670.5,63.9" style="fill:none;fill-rule:evenodd;stroke:#000000;stroke-width:2.0px;stroke-linecap:butt;stroke-linejoin:miter;stroke-opacity:1"/>
<path class="bond-22 atom-15 atom-23" d="M 685.3,76.0 L 685.0,83.2" style="fill:none;fill-rule:evenodd;stroke:#0000FF;stroke-width:2.0px;stroke-linecap:butt;stroke-linejoin:miter;stroke-opacity:1"/>
<path class="bond-22 atom-15 atom-23" d="M 685.0,83.2 L 684.8,90.5" style="fill:none;fill-rule:evenodd;stroke:#000000;stroke-width:2.0px;stroke-linecap:butt;stroke-linejoin:miter;stroke-opacity:1"/>
<path class="bond-16 atom-16 atom-17" d="M 669.7,62.4 L 663.4,65.8" style="fill:none;fill-rule:evenodd;stroke:#000000;stroke-width:2.0px;stroke-linecap:butt;stroke-linejoin:miter;stroke-opacity:1"/>
<path class="bond-16 atom-16 atom-17" d="M 663.4,65.8 L 657.1,69.2" style="fill:none;fill-rule:evenodd;stroke:#FF0000;stroke-width:2.0px;stroke-linecap:butt;stroke-linejoin:miter;stroke-opacity:1"/>
<path class="bond-16 atom-16 atom-17" d="M 671.3,65.4 L 665.0,68.9" style="fill:none;fill-rule:evenodd;stroke:#000000;stroke-width:2.0px;stroke-linecap:butt;stroke-linejoin:miter;stroke-opacity:1"/>
<path class="bond-16 atom-16 atom-17" d="M 665.0,68.9 L 658.7,72.3" style="fill:none;fill-rule:evenodd;stroke:#FF0000;stroke-width:2.0px;stroke-linecap:butt;stroke-linejoin:miter;stroke-opacity:1"/>
<path class="bond-17 atom-16 atom-18" d="M 670.5,63.9 L 670.7,56.7" style="fill:none;fill-rule:evenodd;stroke:#000000;stroke-width:2.0px;stroke-linecap:butt;stroke-linejoin:miter;stroke-opacity:1"/>
<path class="bond-17 atom-16 atom-18" d="M 670.7,56.7 L 670.9,49.5" style="fill:none;fill-rule:evenodd;stroke:#FF0000;stroke-width:2.0px;stroke-linecap:butt;stroke-linejoin:miter;stroke-opacity:1"/>
<path class="bond-18 atom-18 atom-19" d="M 668.3,44.8 L 662.3,41.1" style="fill:none;fill-rule:evenodd;stroke:#FF0000;stroke-width:2.0px;stroke-linecap:butt;stroke-linejoin:miter;stroke-opacity:1"/>
<path class="bond-18 atom-18 atom-19" d="M 662.3,41.1 L 656.2,37.4" style="fill:none;fill-rule:evenodd;stroke:#000000;stroke-width:2.0px;stroke-linecap:butt;stroke-linejoin:miter;stroke-opacity:1"/>
<path class="bond-19 atom-19 atom-20" d="M 656.2,37.4 L 665.4,22.5" style="fill:none;fill-rule:evenodd;stroke:#000000;stroke-width:2.0px;stroke-linecap:butt;stroke-linejoin:miter;stroke-opacity:1"/>
<path class="bond-20 atom-19 atom-21" d="M 656.2,37.4 L 647.1,52.2" style="fill:none;fill-rule:evenodd;stroke:#000000;stroke-width:2.0px;stroke-linecap:butt;stroke-linejoin:miter;stroke-opacity:1"/>
<path class="bond-21 atom-19 atom-22" d="M 656.2,37.4 L 641.4,28.2" style="fill:none;fill-rule:evenodd;stroke:#000000;stroke-width:2.0px;stroke-linecap:butt;stroke-linejoin:miter;stroke-opacity:1"/>
<path class="bond-23 atom-23 atom-24" d="M 684.8,90.5 L 699.7,99.6" style="fill:none;fill-rule:evenodd;stroke:#000000;stroke-width:2.0px;stroke-linecap:butt;stroke-linejoin:miter;stroke-opacity:1"/>
<path class="bond-25 atom-25 atom-26" d="M 741.0,72.3 L 748.4,71.2" style="fill:none;fill-rule:evenodd;stroke:#0000FF;stroke-width:2.0px;stroke-linecap:butt;stroke-linejoin:miter;stroke-opacity:1"/>
<path class="bond-25 atom-25 atom-26" d="M 748.4,71.2 L 755.9,70.1" style="fill:none;fill-rule:evenodd;stroke:#000000;stroke-width:2.0px;stroke-linecap:butt;stroke-linejoin:miter;stroke-opacity:1"/>
<path class="bond-25 atom-25 atom-26" d="M 743.7,75.4 L 748.9,74.7" style="fill:none;fill-rule:evenodd;stroke:#0000FF;stroke-width:2.0px;stroke-linecap:butt;stroke-linejoin:miter;stroke-opacity:1"/>
<path class="bond-25 atom-25 atom-26" d="M 748.9,74.7 L 754.1,73.9" style="fill:none;fill-rule:evenodd;stroke:#000000;stroke-width:2.0px;stroke-linecap:butt;stroke-linejoin:miter;stroke-opacity:1"/>
<path class="bond-26 atom-26 atom-27" d="M 755.9,70.1 L 758.5,63.5" style="fill:none;fill-rule:evenodd;stroke:#000000;stroke-width:2.0px;stroke-linecap:butt;stroke-linejoin:miter;stroke-opacity:1"/>
<path class="bond-26 atom-26 atom-27" d="M 758.5,63.5 L 761.2,56.8" style="fill:none;fill-rule:evenodd;stroke:#0000FF;stroke-width:2.0px;stroke-linecap:butt;stroke-linejoin:miter;stroke-opacity:1"/>
<path class="bond-36 atom-26 atom-37" d="M 755.9,70.1 L 766.7,83.8" style="fill:none;fill-rule:evenodd;stroke:#000000;stroke-width:2.0px;stroke-linecap:butt;stroke-linejoin:miter;stroke-opacity:1"/>
<path class="bond-27 atom-27 atom-28" d="M 764.6,53.6 L 772.1,52.5" style="fill:none;fill-rule:evenodd;stroke:#0000FF;stroke-width:2.0px;stroke-linecap:butt;stroke-linejoin:miter;stroke-opacity:1"/>
<path class="bond-27 atom-27 atom-28" d="M 772.1,52.5 L 779.5,51.4" style="fill:none;fill-rule:evenodd;stroke:#000000;stroke-width:2.0px;stroke-linecap:butt;stroke-linejoin:miter;stroke-opacity:1"/>
<path class="bond-28 atom-28 atom-29" d="M 779.5,51.4 L 790.3,65.1" style="fill:none;fill-rule:evenodd;stroke:#000000;stroke-width:2.0px;stroke-linecap:butt;stroke-linejoin:miter;stroke-opacity:1"/>
<path class="bond-28 atom-28 atom-29" d="M 783.9,51.3 L 791.5,60.9" style="fill:none;fill-rule:evenodd;stroke:#000000;stroke-width:2.0px;stroke-linecap:butt;stroke-linejoin:miter;stroke-opacity:1"/>
<path class="bond-40 atom-36 atom-28" d="M 786.0,35.2 L 779.5,51.4" style="fill:none;fill-rule:evenodd;stroke:#000000;stroke-width:2.0px;stroke-linecap:butt;stroke-linejoin:miter;stroke-opacity:1"/>
<path class="bond-29 atom-29 atom-30" d="M 790.3,65.1 L 807.6,62.6" style="fill:none;fill-rule:evenodd;stroke:#000000;stroke-width:2.0px;stroke-linecap:butt;stroke-linejoin:miter;stroke-opacity:1"/>
<path class="bond-30 atom-30 atom-31" d="M 807.6,62.6 L 814.0,46.4" style="fill:none;fill-rule:evenodd;stroke:#000000;stroke-width:2.0px;stroke-linecap:butt;stroke-linejoin:miter;stroke-opacity:1"/>
<path class="bond-30 atom-30 atom-31" d="M 805.3,58.9 L 809.8,47.5" style="fill:none;fill-rule:evenodd;stroke:#000000;stroke-width:2.0px;stroke-linecap:butt;stroke-linejoin:miter;stroke-opacity:1"/>
<path class="bond-31 atom-31 atom-32" d="M 814.0,46.4 L 831.2,43.9" style="fill:none;fill-rule:evenodd;stroke:#000000;stroke-width:2.0px;stroke-linecap:butt;stroke-linejoin:miter;stroke-opacity:1"/>
<path class="bond-34 atom-31 atom-35" d="M 814.0,46.4 L 803.2,32.7" style="fill:none;fill-rule:evenodd;stroke:#000000;stroke-width:2.0px;stroke-linecap:butt;stroke-linejoin:miter;stroke-opacity:1"/>
<path class="bond-32 atom-32 atom-33" d="M 831.2,43.9 L 842.0,57.5" style="fill:none;fill-rule:evenodd;stroke:#000000;stroke-width:2.0px;stroke-linecap:butt;stroke-linejoin:miter;stroke-opacity:1"/>
<path class="bond-33 atom-32 atom-34" d="M 832.9,44.5 L 835.5,37.9" style="fill:none;fill-rule:evenodd;stroke:#000000;stroke-width:2.0px;stroke-linecap:butt;stroke-linejoin:miter;stroke-opacity:1"/>
<path class="bond-33 atom-32 atom-34" d="M 835.5,37.9 L 838.1,31.3" style="fill:none;fill-rule:evenodd;stroke:#FF0000;stroke-width:2.0px;stroke-linecap:butt;stroke-linejoin:miter;stroke-opacity:1"/>
<path class="bond-33 atom-32 atom-34" d="M 829.6,43.2 L 832.2,36.6" style="fill:none;fill-rule:evenodd;stroke:#000000;stroke-width:2.0px;stroke-linecap:butt;stroke-linejoin:miter;stroke-opacity:1"/>
<path class="bond-33 atom-32 atom-34" d="M 832.2,36.6 L 834.9,30.0" style="fill:none;fill-rule:evenodd;stroke:#FF0000;stroke-width:2.0px;stroke-linecap:butt;stroke-linejoin:miter;stroke-opacity:1"/>
<path class="bond-35 atom-35 atom-36" d="M 803.2,32.7 L 786.0,35.2" style="fill:none;fill-rule:evenodd;stroke:#000000;stroke-width:2.0px;stroke-linecap:butt;stroke-linejoin:miter;stroke-opacity:1"/>
<path class="bond-35 atom-35 atom-36" d="M 801.1,36.5 L 789.1,38.3" style="fill:none;fill-rule:evenodd;stroke:#000000;stroke-width:2.0px;stroke-linecap:butt;stroke-linejoin:miter;stroke-opacity:1"/>
<path class="bond-37 atom-37 atom-38" d="M 766.9,85.5 L 774.2,84.5" style="fill:none;fill-rule:evenodd;stroke:#000000;stroke-width:2.0px;stroke-linecap:butt;stroke-linejoin:miter;stroke-opacity:1"/>
<path class="bond-37 atom-37 atom-38" d="M 774.2,84.5 L 781.5,83.4" style="fill:none;fill-rule:evenodd;stroke:#FF0000;stroke-width:2.0px;stroke-linecap:butt;stroke-linejoin:miter;stroke-opacity:1"/>
<path class="bond-37 atom-37 atom-38" d="M 766.4,82.1 L 773.7,81.0" style="fill:none;fill-rule:evenodd;stroke:#000000;stroke-width:2.0px;stroke-linecap:butt;stroke-linejoin:miter;stroke-opacity:1"/>
<path class="bond-37 atom-37 atom-38" d="M 773.7,81.0 L 781.0,79.9" style="fill:none;fill-rule:evenodd;stroke:#FF0000;stroke-width:2.0px;stroke-linecap:butt;stroke-linejoin:miter;stroke-opacity:1"/>
<path class="atom-1" d="M 763.5 127.4 L 765.1 130.0 Q 765.3 130.2, 765.6 130.7 Q 765.8 131.2, 765.8 131.2 L 765.8 127.4 L 766.5 127.4 L 766.5 132.3 L 765.8 132.3 L 764.1 129.4 Q 763.9 129.1, 763.6 128.7 Q 763.4 128.3, 763.4 128.2 L 763.4 132.3 L 762.7 132.3 L 762.7 127.4 L 763.5 127.4 " fill="#0000FF"/>
<path class="atom-3" d="M 732.2 146.1 L 732.9 146.1 L 732.9 148.2 L 735.4 148.2 L 735.4 146.1 L 736.1 146.1 L 736.1 151.0 L 735.4 151.0 L 735.4 148.7 L 732.9 148.7 L 732.9 151.0 L 732.2 151.0 L 732.2 146.1 " fill="#0000FF"/>
<path class="atom-3" d="M 736.3 150.8 Q 736.4 150.5, 736.7 150.3 Q 737.0 150.2, 737.4 150.2 Q 737.9 150.2, 738.2 150.4 Q 738.4 150.7, 738.4 151.2 Q 738.4 151.7, 738.1 152.1 Q 737.7 152.6, 737.0 153.1 L 738.5 153.1 L 738.5 153.5 L 736.3 153.5 L 736.3 153.1 Q 736.9 152.7, 737.3 152.4 Q 737.6 152.1, 737.8 151.8 Q 738.0 151.5, 738.0 151.2 Q 738.0 150.9, 737.8 150.7 Q 737.7 150.5, 737.4 150.5 Q 737.1 150.5, 737.0 150.6 Q 736.8 150.7, 736.7 151.0 L 736.3 150.8 " fill="#0000FF"/>
<path class="atom-3" d="M 739.9 146.1 L 741.5 148.7 Q 741.6 148.9, 741.9 149.4 Q 742.1 149.9, 742.2 149.9 L 742.2 146.1 L 742.8 146.1 L 742.8 151.0 L 742.1 151.0 L 740.4 148.1 Q 740.2 147.8, 740.0 147.4 Q 739.8 147.0, 739.7 146.9 L 739.7 151.0 L 739.1 151.0 L 739.1 146.1 L 739.9 146.1 " fill="#0000FF"/>
<path class="atom-5" d="M 786.9 112.8 Q 786.9 112.8, 787.2 112.9 Q 787.4 113.0, 787.6 113.1 Q 787.9 113.2, 788.2 113.2 Q 788.6 113.2, 788.9 112.9 Q 789.2 112.7, 789.2 112.3 Q 789.2 112.0, 789.0 111.9 Q 788.9 111.7, 788.7 111.6 Q 788.5 111.5, 788.1 111.4 Q 787.7 111.3, 787.4 111.2 Q 787.2 111.0, 787.0 110.8 Q 786.8 110.5, 786.8 110.1 Q 786.8 109.4, 787.2 109.0 Q 787.6 108.7, 788.5 108.7 Q 789.0 108.7, 789.7 108.9 L 789.5 109.5 Q 788.9 109.2, 788.5 109.2 Q 788.0 109.2, 787.7 109.4 Q 787.5 109.6, 787.5 110.0 Q 787.5 110.2, 787.6 110.4 Q 787.8 110.6, 788.0 110.6 Q 788.2 110.7, 788.5 110.8 Q 788.9 111.0, 789.2 111.1 Q 789.5 111.3, 789.7 111.5 Q 789.9 111.8, 789.9 112.3 Q 789.9 113.0, 789.4 113.4 Q 788.9 113.7, 788.2 113.7 Q 787.7 113.7, 787.4 113.6 Q 787.1 113.5, 786.7 113.4 L 786.9 112.8 " fill="#000000"/>
<path class="atom-5" d="M 790.5 108.7 L 791.1 108.7 L 791.1 109.3 L 790.5 109.3 L 790.5 108.7 M 790.5 110.0 L 791.1 110.0 L 791.1 113.6 L 790.5 113.6 L 790.5 110.0 " fill="#000000"/>
<path class="atom-8" d="M 731.1 86.4 L 732.7 89.0 Q 732.9 89.2, 733.2 89.7 Q 733.4 90.2, 733.4 90.2 L 733.4 86.4 L 734.1 86.4 L 734.1 91.3 L 733.4 91.3 L 731.7 88.4 Q 731.5 88.1, 731.3 87.7 Q 731.0 87.3, 731.0 87.2 L 731.0 91.3 L 730.3 91.3 L 730.3 86.4 L 731.1 86.4 " fill="#0000FF"/>
<path class="atom-12" d="M 696.2 131.4 L 697.8 134.0 Q 698.0 134.3, 698.2 134.8 Q 698.5 135.2, 698.5 135.3 L 698.5 131.4 L 699.2 131.4 L 699.2 136.4 L 698.5 136.4 L 696.8 133.5 Q 696.6 133.2, 696.3 132.8 Q 696.1 132.4, 696.1 132.3 L 696.1 136.4 L 695.4 136.4 L 695.4 131.4 L 696.2 131.4 " fill="#0000FF"/>
<path class="atom-15" d="M 684.3 70.6 L 685.9 73.2 Q 686.0 73.5, 686.3 73.9 Q 686.5 74.4, 686.6 74.4 L 686.6 70.6 L 687.2 70.6 L 687.2 75.5 L 686.5 75.5 L 684.8 72.7 Q 684.6 72.3, 684.4 72.0 Q 684.2 71.6, 684.1 71.5 L 684.1 75.5 L 683.5 75.5 L 683.5 70.6 L 684.3 70.6 " fill="#0000FF"/>
<path class="atom-17" d="M 652.9 72.2 Q 652.9 71.0, 653.5 70.3 Q 654.1 69.7, 655.2 69.7 Q 656.3 69.7, 656.9 70.3 Q 657.5 71.0, 657.5 72.2 Q 657.5 73.4, 656.9 74.1 Q 656.3 74.7, 655.2 74.7 Q 654.1 74.7, 653.5 74.1 Q 652.9 73.4, 652.9 72.2 M 655.2 74.2 Q 655.9 74.2, 656.3 73.7 Q 656.8 73.2, 656.8 72.2 Q 656.8 71.2, 656.3 70.7 Q 655.9 70.2, 655.2 70.2 Q 654.4 70.2, 654.0 70.7 Q 653.6 71.2, 653.6 72.2 Q 653.6 73.2, 654.0 73.7 Q 654.4 74.2, 655.2 74.2 " fill="#FF0000"/>
<path class="atom-18" d="M 668.8 46.5 Q 668.8 45.3, 669.4 44.7 Q 669.9 44.0, 671.0 44.0 Q 672.1 44.0, 672.7 44.7 Q 673.3 45.3, 673.3 46.5 Q 673.3 47.7, 672.7 48.4 Q 672.1 49.1, 671.0 49.1 Q 669.9 49.1, 669.4 48.4 Q 668.8 47.7, 668.8 46.5 M 671.0 48.5 Q 671.8 48.5, 672.2 48.0 Q 672.6 47.5, 672.6 46.5 Q 672.6 45.6, 672.2 45.1 Q 671.8 44.6, 671.0 44.6 Q 670.3 44.6, 669.9 45.1 Q 669.5 45.5, 669.5 46.5 Q 669.5 47.5, 669.9 48.0 Q 670.3 48.5, 671.0 48.5 " fill="#FF0000"/>
<path class="atom-25" d="M 737.6 70.2 L 739.2 72.8 Q 739.3 73.1, 739.6 73.5 Q 739.8 74.0, 739.9 74.0 L 739.9 70.2 L 740.5 70.2 L 740.5 75.1 L 739.8 75.1 L 738.1 72.3 Q 737.9 71.9, 737.7 71.5 Q 737.5 71.2, 737.4 71.0 L 737.4 75.1 L 736.8 75.1 L 736.8 70.2 L 737.6 70.2 " fill="#0000FF"/>
<path class="atom-27" d="M 756.0 51.5 L 756.7 51.5 L 756.7 53.6 L 759.2 53.6 L 759.2 51.5 L 759.9 51.5 L 759.9 56.4 L 759.2 56.4 L 759.2 54.1 L 756.7 54.1 L 756.7 56.4 L 756.0 56.4 L 756.0 51.5 " fill="#0000FF"/>
<path class="atom-27" d="M 761.2 51.5 L 762.8 54.1 Q 763.0 54.3, 763.3 54.8 Q 763.5 55.3, 763.5 55.3 L 763.5 51.5 L 764.2 51.5 L 764.2 56.4 L 763.5 56.4 L 761.8 53.6 Q 761.6 53.2, 761.4 52.8 Q 761.1 52.5, 761.1 52.3 L 761.1 56.4 L 760.4 56.4 L 760.4 51.5 L 761.2 51.5 " fill="#0000FF"/>
<path class="atom-34" d="M 835.4 27.7 Q 835.4 26.5, 836.0 25.9 Q 836.6 25.2, 837.7 25.2 Q 838.8 25.2, 839.3 25.9 Q 839.9 26.5, 839.9 27.7 Q 839.9 28.9, 839.3 29.6 Q 838.7 30.3, 837.7 30.3 Q 836.6 30.3, 836.0 29.6 Q 835.4 28.9, 835.4 27.7 M 837.7 29.7 Q 838.4 29.7, 838.8 29.2 Q 839.2 28.7, 839.2 27.7 Q 839.2 26.7, 838.8 26.2 Q 838.4 25.7, 837.7 25.7 Q 836.9 25.7, 836.5 26.2 Q 836.1 26.7, 836.1 27.7 Q 836.1 28.7, 836.5 29.2 Q 836.9 29.7, 837.7 29.7 " fill="#FF0000"/>
<path class="atom-38" d="M 781.6 81.3 Q 781.6 80.1, 782.2 79.4 Q 782.8 78.8, 783.9 78.8 Q 785.0 78.8, 785.6 79.4 Q 786.2 80.1, 786.2 81.3 Q 786.2 82.5, 785.6 83.2 Q 785.0 83.8, 783.9 83.8 Q 782.8 83.8, 782.2 83.2 Q 781.6 82.5, 781.6 81.3 M 783.9 83.3 Q 784.7 83.3, 785.1 82.8 Q 785.5 82.3, 785.5 81.3 Q 785.5 80.3, 785.1 79.8 Q 784.7 79.3, 783.9 79.3 Q 783.2 79.3, 782.7 79.8 Q 782.3 80.3, 782.3 81.3 Q 782.3 82.3, 782.7 82.8 Q 783.2 83.3, 783.9 83.3 " fill="#FF0000"/>
<path d="M 777.8,143.5 L 777.8,143.5 L 777.8,143.4 L 777.8,143.4 L 777.8,143.4 L 777.8,143.3 L 777.8,143.3 L 777.8,143.3 L 777.8,143.3 L 777.7,143.2 L 777.7,143.2 L 777.7,143.2 L 777.7,143.2 L 777.6,143.2 L 777.6,143.2 L 777.6,143.1 L 777.6,143.1 L 777.5,143.1 L 777.5,143.1 L 777.5,143.1 L 777.4,143.1 L 777.4,143.1 L 777.4,143.2 L 777.4,143.2 L 777.3,143.2 L 777.3,143.2 L 777.3,143.2 L 777.3,143.2 L 777.2,143.2 L 777.2,143.3 L 777.2,143.3 L 777.2,143.3 L 777.2,143.4 L 777.2,143.4 L 777.2,143.4 L 777.2,143.4 L 777.1,143.5 L 777.1,143.5 L 777.2,143.5 L 777.2,143.6 L 777.2,143.6 L 777.2,143.6 L 777.2,143.6 L 777.2,143.7 L 777.2,143.7 L 777.2,143.7 L 777.3,143.7 L 777.3,143.8 L 777.3,143.8 L 777.3,143.8 L 777.4,143.8 L 777.4,143.8 L 777.4,143.8 L 777.4,143.8 L 777.5,143.8 L 777.5,143.8 L 777.5,143.8 L 777.6,143.8 L 777.6,143.8 L 777.6,143.8 L 777.6,143.8 L 777.7,143.8 L 777.7,143.8 L 777.7,143.7 L 777.7,143.7 L 777.8,143.7 L 777.8,143.7 L 777.8,143.7 L 777.8,143.6 L 777.8,143.6 L 777.8,143.6 L 777.8,143.5 L 777.8,143.5 L 777.8,143.5 L 777.5,143.5 Z" style="fill:#000000;fill-rule:evenodd;fill-opacity:1;stroke:#000000;stroke-width:0.0px;stroke-linecap:butt;stroke-linejoin:miter;stroke-opacity:1;"/>
<path d="M 777.8,144.9 L 777.8,144.8 L 777.8,144.8 L 777.8,144.8 L 777.8,144.8 L 777.8,144.7 L 777.8,144.7 L 777.8,144.7 L 777.8,144.7 L 777.7,144.6 L 777.7,144.6 L 777.7,144.6 L 777.7,144.6 L 777.6,144.6 L 777.6,144.6 L 777.6,144.5 L 777.6,144.5 L 777.5,144.5 L 777.5,144.5 L 777.5,144.5 L 777.4,144.5 L 777.4,144.5 L 777.4,144.5 L 777.4,144.6 L 777.3,144.6 L 777.3,144.6 L 777.3,144.6 L 777.3,144.6 L 777.2,144.6 L 777.2,144.7 L 777.2,144.7 L 777.2,144.7 L 777.2,144.7 L 777.2,144.8 L 777.2,144.8 L 777.2,144.8 L 777.1,144.9 L 777.1,144.9 L 777.2,144.9 L 777.2,144.9 L 777.2,145.0 L 777.2,145.0 L 777.2,145.0 L 777.2,145.1 L 777.2,145.1 L 777.2,145.1 L 777.3,145.1 L 777.3,145.1 L 777.3,145.2 L 777.3,145.2 L 777.4,145.2 L 777.4,145.2 L 777.4,145.2 L 777.4,145.2 L 777.5,145.2 L 777.5,145.2 L 777.5,145.2 L 777.6,145.2 L 777.6,145.2 L 777.6,145.2 L 777.6,145.2 L 777.7,145.2 L 777.7,145.2 L 777.7,145.1 L 777.7,145.1 L 777.8,145.1 L 777.8,145.1 L 777.8,145.0 L 777.8,145.0 L 777.8,145.0 L 777.8,145.0 L 777.8,144.9 L 777.8,144.9 L 777.8,144.9 L 777.5,144.9 Z" style="fill:#000000;fill-rule:evenodd;fill-opacity:1;stroke:#000000;stroke-width:0.0px;stroke-linecap:butt;stroke-linejoin:miter;stroke-opacity:1;"/>
<path d="M 777.8,142.1 L 777.8,142.1 L 777.8,142.0 L 777.8,142.0 L 777.8,142.0 L 777.8,141.9 L 777.8,141.9 L 777.8,141.9 L 777.8,141.9 L 777.7,141.8 L 777.7,141.8 L 777.7,141.8 L 777.7,141.8 L 777.6,141.8 L 777.6,141.8 L 777.6,141.8 L 777.6,141.7 L 777.5,141.7 L 777.5,141.7 L 777.5,141.7 L 777.4,141.7 L 777.4,141.8 L 777.4,141.8 L 777.4,141.8 L 777.3,141.8 L 777.3,141.8 L 777.3,141.8 L 777.3,141.8 L 777.2,141.9 L 777.2,141.9 L 777.2,141.9 L 777.2,141.9 L 777.2,142.0 L 777.2,142.0 L 777.2,142.0 L 777.2,142.0 L 777.1,142.1 L 777.1,142.1 L 777.2,142.1 L 777.2,142.2 L 777.2,142.2 L 777.2,142.2 L 777.2,142.2 L 777.2,142.3 L 777.2,142.3 L 777.2,142.3 L 777.3,142.3 L 777.3,142.4 L 777.3,142.4 L 777.3,142.4 L 777.4,142.4 L 777.4,142.4 L 777.4,142.4 L 777.4,142.4 L 777.5,142.4 L 777.5,142.4 L 777.5,142.4 L 777.6,142.4 L 777.6,142.4 L 777.6,142.4 L 777.6,142.4 L 777.7,142.4 L 777.7,142.4 L 777.7,142.4 L 777.7,142.3 L 777.8,142.3 L 777.8,142.3 L 777.8,142.3 L 777.8,142.2 L 777.8,142.2 L 777.8,142.2 L 777.8,142.1 L 777.8,142.1 L 777.8,142.1 L 777.5,142.1 Z" style="fill:#000000;fill-rule:evenodd;fill-opacity:1;stroke:#000000;stroke-width:0.0px;stroke-linecap:butt;stroke-linejoin:miter;stroke-opacity:1;"/>
<path d="M 777.8,143.5 L 777.8,143.5 L 777.8,143.4 L 777.8,143.4 L 777.8,143.4 L 777.8,143.3 L 777.8,143.3 L 777.8,143.3 L 777.8,143.3 L 777.7,143.2 L 777.7,143.2 L 777.7,143.2 L 777.7,143.2 L 777.6,143.2 L 777.6,143.2 L 777.6,143.1 L 777.6,143.1 L 777.5,143.1 L 777.5,143.1 L 777.5,143.1 L 777.4,143.1 L 777.4,143.1 L 777.4,143.2 L 777.4,143.2 L 777.3,143.2 L 777.3,143.2 L 777.3,143.2 L 777.3,143.2 L 777.2,143.2 L 777.2,143.3 L 777.2,143.3 L 777.2,143.3 L 777.2,143.4 L 777.2,143.4 L 777.2,143.4 L 777.2,143.4 L 777.1,143.5 L 777.1,143.5 L 777.2,143.5 L 777.2,143.6 L 777.2,143.6 L 777.2,143.6 L 777.2,143.6 L 777.2,143.7 L 777.2,143.7 L 777.2,143.7 L 777.3,143.7 L 777.3,143.8 L 777.3,143.8 L 777.3,143.8 L 777.4,143.8 L 777.4,143.8 L 777.4,143.8 L 777.4,143.8 L 777.5,143.8 L 777.5,143.8 L 777.5,143.8 L 777.6,143.8 L 777.6,143.8 L 777.6,143.8 L 777.6,143.8 L 777.7,143.8 L 777.7,143.8 L 777.7,143.7 L 777.7,143.7 L 777.8,143.7 L 777.8,143.7 L 777.8,143.7 L 777.8,143.6 L 777.8,143.6 L 777.8,143.6 L 777.8,143.5 L 777.8,143.5 L 777.8,143.5 L 777.5,143.5 Z" style="fill:#000000;fill-rule:evenodd;fill-opacity:1;stroke:#000000;stroke-width:0.0px;stroke-linecap:butt;stroke-linejoin:miter;stroke-opacity:1;"/>
<path d="M 792.5,110.4 L 792.5,110.4 L 792.5,110.4 L 792.5,110.3 L 792.5,110.3 L 792.5,110.3 L 792.4,110.2 L 792.4,110.2 L 792.4,110.2 L 792.4,110.2 L 792.4,110.2 L 792.3,110.1 L 792.3,110.1 L 792.3,110.1 L 792.3,110.1 L 792.2,110.1 L 792.2,110.1 L 792.2,110.1 L 792.1,110.1 L 792.1,110.1 L 792.1,110.1 L 792.1,110.1 L 792.0,110.1 L 792.0,110.1 L 792.0,110.1 L 791.9,110.1 L 791.9,110.1 L 791.9,110.2 L 791.9,110.2 L 791.9,110.2 L 791.8,110.2 L 791.8,110.3 L 791.8,110.3 L 791.8,110.3 L 791.8,110.3 L 791.8,110.4 L 791.8,110.4 L 791.8,110.4 L 791.8,110.5 L 791.8,110.5 L 791.8,110.5 L 791.8,110.6 L 791.8,110.6 L 791.8,110.6 L 791.9,110.6 L 791.9,110.7 L 791.9,110.7 L 791.9,110.7 L 791.9,110.7 L 792.0,110.7 L 792.0,110.7 L 792.0,110.8 L 792.1,110.8 L 792.1,110.8 L 792.1,110.8 L 792.1,110.8 L 792.2,110.8 L 792.2,110.8 L 792.2,110.8 L 792.3,110.7 L 792.3,110.7 L 792.3,110.7 L 792.3,110.7 L 792.4,110.7 L 792.4,110.7 L 792.4,110.6 L 792.4,110.6 L 792.4,110.6 L 792.5,110.6 L 792.5,110.5 L 792.5,110.5 L 792.5,110.5 L 792.5,110.4 L 792.5,110.4 L 792.1,110.4 Z" style="fill:#000000;fill-rule:evenodd;fill-opacity:1;stroke:#000000;stroke-width:0.0px;stroke-linecap:butt;stroke-linejoin:miter;stroke-opacity:1;"/>
<path d="M 792.5,111.8 L 792.5,111.8 L 792.5,111.8 L 792.5,111.7 L 792.5,111.7 L 792.5,111.7 L 792.4,111.6 L 792.4,111.6 L 792.4,111.6 L 792.4,111.6 L 792.4,111.5 L 792.3,111.5 L 792.3,111.5 L 792.3,111.5 L 792.3,111.5 L 792.2,111.5 L 792.2,111.5 L 792.2,111.5 L 792.1,111.5 L 792.1,111.5 L 792.1,111.5 L 792.1,111.5 L 792.0,111.5 L 792.0,111.5 L 792.0,111.5 L 791.9,111.5 L 791.9,111.5 L 791.9,111.6 L 791.9,111.6 L 791.9,111.6 L 791.8,111.6 L 791.8,111.7 L 791.8,111.7 L 791.8,111.7 L 791.8,111.7 L 791.8,111.8 L 791.8,111.8 L 791.8,111.8 L 791.8,111.9 L 791.8,111.9 L 791.8,111.9 L 791.8,111.9 L 791.8,112.0 L 791.8,112.0 L 791.9,112.0 L 791.9,112.0 L 791.9,112.1 L 791.9,112.1 L 791.9,112.1 L 792.0,112.1 L 792.0,112.1 L 792.0,112.1 L 792.1,112.2 L 792.1,112.2 L 792.1,112.2 L 792.1,112.2 L 792.2,112.2 L 792.2,112.2 L 792.2,112.1 L 792.3,112.1 L 792.3,112.1 L 792.3,112.1 L 792.3,112.1 L 792.4,112.1 L 792.4,112.1 L 792.4,112.0 L 792.4,112.0 L 792.4,112.0 L 792.5,112.0 L 792.5,111.9 L 792.5,111.9 L 792.5,111.9 L 792.5,111.8 L 792.5,111.8 L 792.1,111.8 Z" style="fill:#000000;fill-rule:evenodd;fill-opacity:1;stroke:#000000;stroke-width:0.0px;stroke-linecap:butt;stroke-linejoin:miter;stroke-opacity:1;"/>
</svg>