<svg baseProfile="full" height="160px" version="1.1" viewBox="0 0 1500 160" width="1500px" xml:space="preserve" xmlns="http://www.w3.org/2000/svg" xmlns:rdkit="http://www.rdkit.org/xml" xmlns:xlink="http://www.w3.org/1999/xlink">
<!-- END OF HEADER -->
<rect height="160.0" style="opacity:1.0;fill:#FFFFFF;stroke:none" width="1500.0" x="0.0" y="0.0"> </rect>
<rect height="160.0" style="opacity:1.0;fill:#FFFFFF;stroke:none" width="1500.0" x="0.0" y="0.0"> </rect>
<rect height="160.0" style="opacity:1.0;fill:#FFFFFF;stroke:none" width="1500.0" x="0.0" y="0.0"> </rect>
<rect height="160.0" style="opacity:1.0;fill:#FFFFFF;stroke:none" width="1500.0" x="0.0" y="0.0"> </rect>
<path class="bond-0 atom-0 atom-1" d="M 216.1,125.6 L 214.1,119.0" style="fill:none;fill-rule:evenodd;stroke:#0000FF;stroke-width:2.0px;stroke-linecap:butt;stroke-linejoin:miter;stroke-opacity:1"/>
<path class="bond-0 atom-0 atom-1" d="M 214.1,119.0 L 212.2,112.4" style="fill:none;fill-rule:evenodd;stroke:#000000;stroke-width:2.0px;stroke-linecap:butt;stroke-linejoin:miter;stroke-opacity:1"/>
<path class="bond-0 atom-0 atom-1" d="M 219.3,124.6 L 217.6,119.1" style="fill:none;fill-rule:evenodd;stroke:#0000FF;stroke-width:2.0px;stroke-linecap:butt;stroke-linejoin:miter;stroke-opacity:1"/>
<path class="bond-0 atom-0 atom-1" d="M 217.6,119.1 L 215.9,113.5" style="fill:none;fill-rule:evenodd;stroke:#000000;stroke-width:2.0px;stroke-linecap:butt;stroke-linejoin:miter;stroke-opacity:1"/>
<path class="bond-0 atom-0 atom-1" d="M 212.9,126.5 L 211.2,121.0" style="fill:none;fill-rule:evenodd;stroke:#0000FF;stroke-width:2.0px;stroke-linecap:butt;stroke-linejoin:miter;stroke-opacity:1"/>
<path class="bond-0 atom-0 atom-1" d="M 211.2,121.0 L 209.6,115.4" style="fill:none;fill-rule:evenodd;stroke:#000000;stroke-width:2.0px;stroke-linecap:butt;stroke-linejoin:miter;stroke-opacity:1"/>
<path class="bond-1 atom-1 atom-2" d="M 212.2,112.4 L 207.4,96.5" style="fill:none;fill-rule:evenodd;stroke:#000000;stroke-width:2.0px;stroke-linecap:butt;stroke-linejoin:miter;stroke-opacity:1"/>
<path class="bond-2 atom-2 atom-3" d="M 207.4,96.5 L 191.2,92.7" style="fill:none;fill-rule:evenodd;stroke:#000000;stroke-width:2.0px;stroke-linecap:butt;stroke-linejoin:miter;stroke-opacity:1"/>
<path class="bond-3 atom-3 atom-4" d="M 191.2,92.7 L 193.9,86.5" style="fill:none;fill-rule:evenodd;stroke:#000000;stroke-width:2.0px;stroke-linecap:butt;stroke-linejoin:miter;stroke-opacity:1"/>
<path class="bond-3 atom-3 atom-4" d="M 193.9,86.5 L 196.6,80.2" style="fill:none;fill-rule:evenodd;stroke:#0000FF;stroke-width:2.0px;stroke-linecap:butt;stroke-linejoin:miter;stroke-opacity:1"/>
<path class="bond-19 atom-3 atom-20" d="M 191.2,92.7 L 177.4,83.6" style="fill:none;fill-rule:evenodd;stroke:#000000;stroke-width:2.0px;stroke-linecap:butt;stroke-linejoin:miter;stroke-opacity:1"/>
<path class="bond-38 atom-38 atom-3" d="M 190.3,109.3 L 191.2,92.7" style="fill:none;fill-rule:evenodd;stroke:#000000;stroke-width:2.0px;stroke-linecap:butt;stroke-linejoin:miter;stroke-opacity:1"/>
<path class="bond-4 atom-4 atom-5" d="M 196.2,74.7 L 192.8,68.9" style="fill:none;fill-rule:evenodd;stroke:#0000FF;stroke-width:2.0px;stroke-linecap:butt;stroke-linejoin:miter;stroke-opacity:1"/>
<path class="bond-4 atom-4 atom-5" d="M 192.8,68.9 L 189.4,63.2" style="fill:none;fill-rule:evenodd;stroke:#000000;stroke-width:2.0px;stroke-linecap:butt;stroke-linejoin:miter;stroke-opacity:1"/>
<path class="bond-39 atom-19 atom-4" d="M 211.8,74.3 L 200.0,77.0" style="fill:none;fill-rule:evenodd;stroke:#0000FF;stroke-width:2.0px;stroke-linecap:butt;stroke-linejoin:miter;stroke-opacity:1"/>
<path class="bond-5 atom-5 atom-6" d="M 189.4,63.2 L 200.3,50.7" style="fill:none;fill-rule:evenodd;stroke:#000000;stroke-width:2.0px;stroke-linecap:butt;stroke-linejoin:miter;stroke-opacity:1"/>
<path class="bond-5 atom-5 atom-6" d="M 193.5,63.5 L 201.2,54.8" style="fill:none;fill-rule:evenodd;stroke:#000000;stroke-width:2.0px;stroke-linecap:butt;stroke-linejoin:miter;stroke-opacity:1"/>
<path class="bond-6 atom-6 atom-7" d="M 200.3,50.7 L 196.7,34.5" style="fill:none;fill-rule:evenodd;stroke:#000000;stroke-width:2.0px;stroke-linecap:butt;stroke-linejoin:miter;stroke-opacity:1"/>
<path class="bond-9 atom-6 atom-10" d="M 200.3,50.7 L 215.6,57.3" style="fill:none;fill-rule:evenodd;stroke:#000000;stroke-width:2.0px;stroke-linecap:butt;stroke-linejoin:miter;stroke-opacity:1"/>
<path class="bond-7 atom-7 atom-8" d="M 196.7,34.5 L 189.9,32.4" style="fill:none;fill-rule:evenodd;stroke:#000000;stroke-width:2.0px;stroke-linecap:butt;stroke-linejoin:miter;stroke-opacity:1"/>
<path class="bond-7 atom-7 atom-8" d="M 189.9,32.4 L 183.0,30.2" style="fill:none;fill-rule:evenodd;stroke:#0000FF;stroke-width:2.0px;stroke-linecap:butt;stroke-linejoin:miter;stroke-opacity:1"/>
<path class="bond-8 atom-7 atom-9" d="M 197.8,35.7 L 202.6,31.3" style="fill:none;fill-rule:evenodd;stroke:#000000;stroke-width:2.0px;stroke-linecap:butt;stroke-linejoin:miter;stroke-opacity:1"/>
<path class="bond-8 atom-7 atom-9" d="M 202.6,31.3 L 207.5,26.8" style="fill:none;fill-rule:evenodd;stroke:#FF0000;stroke-width:2.0px;stroke-linecap:butt;stroke-linejoin:miter;stroke-opacity:1"/>
<path class="bond-8 atom-7 atom-9" d="M 195.6,33.3 L 200.4,28.8" style="fill:none;fill-rule:evenodd;stroke:#000000;stroke-width:2.0px;stroke-linecap:butt;stroke-linejoin:miter;stroke-opacity:1"/>
<path class="bond-8 atom-7 atom-9" d="M 200.4,28.8 L 205.2,24.4" style="fill:none;fill-rule:evenodd;stroke:#FF0000;stroke-width:2.0px;stroke-linecap:butt;stroke-linejoin:miter;stroke-opacity:1"/>
<path class="bond-10 atom-10 atom-11" d="M 215.6,57.3 L 221.6,53.7" style="fill:none;fill-rule:evenodd;stroke:#000000;stroke-width:2.0px;stroke-linecap:butt;stroke-linejoin:miter;stroke-opacity:1"/>
<path class="bond-10 atom-10 atom-11" d="M 221.6,53.7 L 227.7,50.1" style="fill:none;fill-rule:evenodd;stroke:#0000FF;stroke-width:2.0px;stroke-linecap:butt;stroke-linejoin:miter;stroke-opacity:1"/>
<path class="bond-18 atom-10 atom-19" d="M 215.6,57.3 L 214.9,64.2" style="fill:none;fill-rule:evenodd;stroke:#000000;stroke-width:2.0px;stroke-linecap:butt;stroke-linejoin:miter;stroke-opacity:1"/>
<path class="bond-18 atom-10 atom-19" d="M 214.9,64.2 L 214.3,71.0" style="fill:none;fill-rule:evenodd;stroke:#0000FF;stroke-width:2.0px;stroke-linecap:butt;stroke-linejoin:miter;stroke-opacity:1"/>
<path class="bond-18 atom-10 atom-19" d="M 212.1,59.0 L 211.6,63.9" style="fill:none;fill-rule:evenodd;stroke:#000000;stroke-width:2.0px;stroke-linecap:butt;stroke-linejoin:miter;stroke-opacity:1"/>
<path class="bond-18 atom-10 atom-19" d="M 211.6,63.9 L 211.2,68.7" style="fill:none;fill-rule:evenodd;stroke:#0000FF;stroke-width:2.0px;stroke-linecap:butt;stroke-linejoin:miter;stroke-opacity:1"/>
<path class="bond-11 atom-11 atom-12" d="M 232.1,50.0 L 238.2,53.5" style="fill:none;fill-rule:evenodd;stroke:#0000FF;stroke-width:2.0px;stroke-linecap:butt;stroke-linejoin:miter;stroke-opacity:1"/>
<path class="bond-11 atom-11 atom-12" d="M 238.2,53.5 L 244.3,56.9" style="fill:none;fill-rule:evenodd;stroke:#000000;stroke-width:2.0px;stroke-linecap:butt;stroke-linejoin:miter;stroke-opacity:1"/>
<path class="bond-12 atom-12 atom-13" d="M 244.3,56.9 L 244.5,73.6" style="fill:none;fill-rule:evenodd;stroke:#000000;stroke-width:2.0px;stroke-linecap:butt;stroke-linejoin:miter;stroke-opacity:1"/>
<path class="bond-12 atom-12 atom-13" d="M 247.7,59.4 L 247.8,71.0" style="fill:none;fill-rule:evenodd;stroke:#000000;stroke-width:2.0px;stroke-linecap:butt;stroke-linejoin:miter;stroke-opacity:1"/>
<path class="bond-41 atom-18 atom-12" d="M 258.6,48.5 L 244.3,56.9" style="fill:none;fill-rule:evenodd;stroke:#000000;stroke-width:2.0px;stroke-linecap:butt;stroke-linejoin:miter;stroke-opacity:1"/>
<path class="bond-13 atom-13 atom-14" d="M 244.5,73.6 L 259.0,81.7" style="fill:none;fill-rule:evenodd;stroke:#000000;stroke-width:2.0px;stroke-linecap:butt;stroke-linejoin:miter;stroke-opacity:1"/>
<path class="bond-14 atom-14 atom-15" d="M 259.0,81.7 L 265.1,78.1" style="fill:none;fill-rule:evenodd;stroke:#000000;stroke-width:2.0px;stroke-linecap:butt;stroke-linejoin:miter;stroke-opacity:1"/>
<path class="bond-14 atom-14 atom-15" d="M 265.1,78.1 L 271.1,74.5" style="fill:none;fill-rule:evenodd;stroke:#0000FF;stroke-width:2.0px;stroke-linecap:butt;stroke-linejoin:miter;stroke-opacity:1"/>
<path class="bond-14 atom-14 atom-15" d="M 259.1,77.8 L 263.4,75.3" style="fill:none;fill-rule:evenodd;stroke:#000000;stroke-width:2.0px;stroke-linecap:butt;stroke-linejoin:miter;stroke-opacity:1"/>
<path class="bond-14 atom-14 atom-15" d="M 263.4,75.3 L 267.6,72.7" style="fill:none;fill-rule:evenodd;stroke:#0000FF;stroke-width:2.0px;stroke-linecap:butt;stroke-linejoin:miter;stroke-opacity:1"/>
<path class="bond-15 atom-15 atom-16" d="M 273.3,70.5 L 273.2,63.5" style="fill:none;fill-rule:evenodd;stroke:#0000FF;stroke-width:2.0px;stroke-linecap:butt;stroke-linejoin:miter;stroke-opacity:1"/>
<path class="bond-15 atom-15 atom-16" d="M 273.2,63.5 L 273.1,56.6" style="fill:none;fill-rule:evenodd;stroke:#000000;stroke-width:2.0px;stroke-linecap:butt;stroke-linejoin:miter;stroke-opacity:1"/>
<path class="bond-16 atom-16 atom-17" d="M 273.1,56.6 L 279.3,52.9" style="fill:none;fill-rule:evenodd;stroke:#000000;stroke-width:2.0px;stroke-linecap:butt;stroke-linejoin:miter;stroke-opacity:1"/>
<path class="bond-16 atom-16 atom-17" d="M 279.3,52.9 L 285.6,49.2" style="fill:none;fill-rule:evenodd;stroke:#33CCCC;stroke-width:2.0px;stroke-linecap:butt;stroke-linejoin:miter;stroke-opacity:1"/>
<path class="bond-17 atom-16 atom-18" d="M 273.1,56.6 L 258.6,48.5" style="fill:none;fill-rule:evenodd;stroke:#000000;stroke-width:2.0px;stroke-linecap:butt;stroke-linejoin:miter;stroke-opacity:1"/>
<path class="bond-17 atom-16 atom-18" d="M 269.3,58.3 L 259.2,52.6" style="fill:none;fill-rule:evenodd;stroke:#000000;stroke-width:2.0px;stroke-linecap:butt;stroke-linejoin:miter;stroke-opacity:1"/>
<path class="bond-20 atom-20 atom-21" d="M 177.4,83.6 L 162.5,91.0" style="fill:none;fill-rule:evenodd;stroke:#000000;stroke-width:2.0px;stroke-linecap:butt;stroke-linejoin:miter;stroke-opacity:1"/>
<path class="bond-21 atom-21 atom-22" d="M 162.5,91.0 L 162.1,97.9" style="fill:none;fill-rule:evenodd;stroke:#000000;stroke-width:2.0px;stroke-linecap:butt;stroke-linejoin:miter;stroke-opacity:1"/>
<path class="bond-21 atom-21 atom-22" d="M 162.1,97.9 L 161.7,104.8" style="fill:none;fill-rule:evenodd;stroke:#0000FF;stroke-width:2.0px;stroke-linecap:butt;stroke-linejoin:miter;stroke-opacity:1"/>
<path class="bond-22 atom-22 atom-23" d="M 159.4,108.7 L 153.0,111.9" style="fill:none;fill-rule:evenodd;stroke:#0000FF;stroke-width:2.0px;stroke-linecap:butt;stroke-linejoin:miter;stroke-opacity:1"/>
<path class="bond-22 atom-22 atom-23" d="M 153.0,111.9 L 146.7,115.1" style="fill:none;fill-rule:evenodd;stroke:#000000;stroke-width:2.0px;stroke-linecap:butt;stroke-linejoin:miter;stroke-opacity:1"/>
<path class="bond-36 atom-22 atom-37" d="M 163.8,109.0 L 169.6,112.9" style="fill:none;fill-rule:evenodd;stroke:#0000FF;stroke-width:2.0px;stroke-linecap:butt;stroke-linejoin:miter;stroke-opacity:1"/>
<path class="bond-36 atom-22 atom-37" d="M 169.6,112.9 L 175.4,116.7" style="fill:none;fill-rule:evenodd;stroke:#000000;stroke-width:2.0px;stroke-linecap:butt;stroke-linejoin:miter;stroke-opacity:1"/>
<path class="bond-23 atom-23 atom-24" d="M 146.7,115.1 L 132.8,105.9" style="fill:none;fill-rule:evenodd;stroke:#000000;stroke-width:2.0px;stroke-linecap:butt;stroke-linejoin:miter;stroke-opacity:1"/>
<path class="bond-24 atom-24 atom-25" d="M 132.8,105.9 L 133.8,89.3" style="fill:none;fill-rule:evenodd;stroke:#000000;stroke-width:2.0px;stroke-linecap:butt;stroke-linejoin:miter;stroke-opacity:1"/>
<path class="bond-24 atom-24 atom-25" d="M 129.7,103.2 L 130.3,91.6" style="fill:none;fill-rule:evenodd;stroke:#000000;stroke-width:2.0px;stroke-linecap:butt;stroke-linejoin:miter;stroke-opacity:1"/>
<path class="bond-40 atom-36 atom-24" d="M 118.0,113.4 L 132.8,105.9" style="fill:none;fill-rule:evenodd;stroke:#000000;stroke-width:2.0px;stroke-linecap:butt;stroke-linejoin:miter;stroke-opacity:1"/>
<path class="bond-25 atom-25 atom-26" d="M 133.8,89.3 L 119.9,80.2" style="fill:none;fill-rule:evenodd;stroke:#000000;stroke-width:2.0px;stroke-linecap:butt;stroke-linejoin:miter;stroke-opacity:1"/>
<path class="bond-26 atom-26 atom-27" d="M 119.9,80.2 L 105.1,87.7" style="fill:none;fill-rule:evenodd;stroke:#000000;stroke-width:2.0px;stroke-linecap:butt;stroke-linejoin:miter;stroke-opacity:1"/>
<path class="bond-26 atom-26 atom-27" d="M 119.2,84.3 L 108.8,89.5" style="fill:none;fill-rule:evenodd;stroke:#000000;stroke-width:2.0px;stroke-linecap:butt;stroke-linejoin:miter;stroke-opacity:1"/>
<path class="bond-27 atom-27 atom-28" d="M 105.1,87.7 L 91.2,78.5" style="fill:none;fill-rule:evenodd;stroke:#000000;stroke-width:2.0px;stroke-linecap:butt;stroke-linejoin:miter;stroke-opacity:1"/>
<path class="bond-34 atom-27 atom-35" d="M 105.1,87.7 L 104.7,94.6" style="fill:none;fill-rule:evenodd;stroke:#000000;stroke-width:2.0px;stroke-linecap:butt;stroke-linejoin:miter;stroke-opacity:1"/>
<path class="bond-34 atom-27 atom-35" d="M 104.7,94.6 L 104.3,101.5" style="fill:none;fill-rule:evenodd;stroke:#0000FF;stroke-width:2.0px;stroke-linecap:butt;stroke-linejoin:miter;stroke-opacity:1"/>
<path class="bond-28 atom-28 atom-29" d="M 91.2,78.5 L 84.2,82.1" style="fill:none;fill-rule:evenodd;stroke:#000000;stroke-width:2.0px;stroke-linecap:butt;stroke-linejoin:miter;stroke-opacity:1"/>
<path class="bond-28 atom-28 atom-29" d="M 84.2,82.1 L 77.1,85.6" style="fill:none;fill-rule:evenodd;stroke:#00CC00;stroke-width:2.0px;stroke-linecap:butt;stroke-linejoin:miter;stroke-opacity:1"/>
<path class="bond-29 atom-28 atom-30" d="M 91.2,78.5 L 92.2,62.0" style="fill:none;fill-rule:evenodd;stroke:#000000;stroke-width:2.0px;stroke-linecap:butt;stroke-linejoin:miter;stroke-opacity:1"/>
<path class="bond-30 atom-30 atom-31" d="M 92.2,62.0 L 78.3,52.8" style="fill:none;fill-rule:evenodd;stroke:#000000;stroke-width:2.0px;stroke-linecap:butt;stroke-linejoin:miter;stroke-opacity:1"/>
<path class="bond-30 atom-30 atom-31" d="M 88.3,63.4 L 78.6,57.0" style="fill:none;fill-rule:evenodd;stroke:#000000;stroke-width:2.0px;stroke-linecap:butt;stroke-linejoin:miter;stroke-opacity:1"/>
<path class="bond-31 atom-31 atom-32" d="M 78.3,52.8 L 79.3,36.2" style="fill:none;fill-rule:evenodd;stroke:#000000;stroke-width:2.0px;stroke-linecap:butt;stroke-linejoin:miter;stroke-opacity:1"/>
<path class="bond-32 atom-32 atom-33" d="M 79.3,36.2 L 65.4,27.1" style="fill:none;fill-rule:evenodd;stroke:#000000;stroke-width:2.0px;stroke-linecap:butt;stroke-linejoin:miter;stroke-opacity:1"/>
<path class="bond-32 atom-32 atom-33" d="M 75.4,37.7 L 65.7,31.3" style="fill:none;fill-rule:evenodd;stroke:#000000;stroke-width:2.0px;stroke-linecap:butt;stroke-linejoin:miter;stroke-opacity:1"/>
<path class="bond-33 atom-33 atom-34" d="M 65.4,27.1 L 65.8,20.2" style="fill:none;fill-rule:evenodd;stroke:#000000;stroke-width:2.0px;stroke-linecap:butt;stroke-linejoin:miter;stroke-opacity:1"/>
<path class="bond-33 atom-33 atom-34" d="M 65.8,20.2 L 66.2,13.3" style="fill:none;fill-rule:evenodd;stroke:#0000FF;stroke-width:2.0px;stroke-linecap:butt;stroke-linejoin:miter;stroke-opacity:1"/>
<path class="bond-35 atom-35 atom-36" d="M 106.3,105.7 L 112.2,109.5" style="fill:none;fill-rule:evenodd;stroke:#0000FF;stroke-width:2.0px;stroke-linecap:butt;stroke-linejoin:miter;stroke-opacity:1"/>
<path class="bond-35 atom-35 atom-36" d="M 112.2,109.5 L 118.0,113.4" style="fill:none;fill-rule:evenodd;stroke:#000000;stroke-width:2.0px;stroke-linecap:butt;stroke-linejoin:miter;stroke-opacity:1"/>
<path class="bond-35 atom-35 atom-36" d="M 109.9,104.1 L 114.0,106.8" style="fill:none;fill-rule:evenodd;stroke:#0000FF;stroke-width:2.0px;stroke-linecap:butt;stroke-linejoin:miter;stroke-opacity:1"/>
<path class="bond-35 atom-35 atom-36" d="M 114.0,106.8 L 118.1,109.4" style="fill:none;fill-rule:evenodd;stroke:#000000;stroke-width:2.0px;stroke-linecap:butt;stroke-linejoin:miter;stroke-opacity:1"/>
<path class="bond-37 atom-37 atom-38" d="M 175.4,116.7 L 190.3,109.3" style="fill:none;fill-rule:evenodd;stroke:#000000;stroke-width:2.0px;stroke-linecap:butt;stroke-linejoin:miter;stroke-opacity:1"/>
<path class="atom-0" d="M 215.9 126.0 L 217.4 128.5 Q 217.6 128.7, 217.8 129.2 Q 218.1 129.6, 218.1 129.7 L 218.1 126.0 L 218.7 126.0 L 218.7 130.7 L 218.1 130.7 L 216.4 128.0 Q 216.2 127.7, 216.0 127.3 Q 215.8 126.9, 215.7 126.8 L 215.7 130.7 L 215.1 130.7 L 215.1 126.0 L 215.9 126.0 " fill="#0000FF"/>
<path class="atom-4" d="M 196.8 75.1 L 198.3 77.6 Q 198.5 77.8, 198.7 78.3 Q 199.0 78.7, 199.0 78.8 L 199.0 75.1 L 199.6 75.1 L 199.6 79.8 L 199.0 79.8 L 197.3 77.1 Q 197.1 76.8, 196.9 76.4 Q 196.7 76.0, 196.6 75.9 L 196.6 79.8 L 196.0 79.8 L 196.0 75.1 L 196.8 75.1 " fill="#0000FF"/>
<path class="atom-8" d="M 172.5 27.2 L 173.1 27.2 L 173.1 29.2 L 175.6 29.2 L 175.6 27.2 L 176.2 27.2 L 176.2 31.9 L 175.6 31.9 L 175.6 29.7 L 173.1 29.7 L 173.1 31.9 L 172.5 31.9 L 172.5 27.2 " fill="#0000FF"/>
<path class="atom-8" d="M 176.4 31.7 Q 176.5 31.4, 176.8 31.3 Q 177.1 31.1, 177.5 31.1 Q 177.9 31.1, 178.2 31.4 Q 178.4 31.6, 178.4 32.1 Q 178.4 32.5, 178.1 33.0 Q 177.8 33.4, 177.1 33.9 L 178.5 33.9 L 178.5 34.2 L 176.4 34.2 L 176.4 33.9 Q 177.0 33.5, 177.3 33.2 Q 177.7 32.9, 177.8 32.6 Q 178.0 32.4, 178.0 32.1 Q 178.0 31.8, 177.9 31.6 Q 177.7 31.5, 177.5 31.5 Q 177.2 31.5, 177.0 31.6 Q 176.9 31.7, 176.7 31.9 L 176.4 31.7 " fill="#0000FF"/>
<path class="atom-8" d="M 179.8 27.2 L 181.3 29.7 Q 181.5 29.9, 181.7 30.4 Q 182.0 30.8, 182.0 30.8 L 182.0 27.2 L 182.6 27.2 L 182.6 31.9 L 182.0 31.9 L 180.3 29.2 Q 180.1 28.8, 179.9 28.5 Q 179.7 28.1, 179.7 28.0 L 179.7 31.9 L 179.1 31.9 L 179.1 27.2 L 179.8 27.2 " fill="#0000FF"/>
<path class="atom-9" d="M 206.7 23.3 Q 206.7 22.1, 207.3 21.5 Q 207.9 20.9, 208.9 20.9 Q 209.9 20.9, 210.5 21.5 Q 211.1 22.1, 211.1 23.3 Q 211.1 24.4, 210.5 25.0 Q 209.9 25.7, 208.9 25.7 Q 207.9 25.7, 207.3 25.0 Q 206.7 24.4, 206.7 23.3 M 208.9 25.2 Q 209.6 25.2, 210.0 24.7 Q 210.4 24.2, 210.4 23.3 Q 210.4 22.3, 210.0 21.9 Q 209.6 21.4, 208.9 21.4 Q 208.2 21.4, 207.8 21.9 Q 207.4 22.3, 207.4 23.3 Q 207.4 24.2, 207.8 24.7 Q 208.2 25.2, 208.9 25.2 " fill="#FF0000"/>
<path class="atom-11" d="M 228.8 46.5 L 230.4 48.9 Q 230.5 49.2, 230.8 49.6 Q 231.0 50.1, 231.0 50.1 L 231.0 46.5 L 231.6 46.5 L 231.6 51.2 L 231.0 51.2 L 229.3 48.4 Q 229.2 48.1, 228.9 47.8 Q 228.7 47.4, 228.7 47.3 L 228.7 51.2 L 228.1 51.2 L 228.1 46.5 L 228.8 46.5 " fill="#0000FF"/>
<path class="atom-11" d="M 228.0 41.3 L 228.7 41.3 L 228.7 43.3 L 231.1 43.3 L 231.1 41.3 L 231.7 41.3 L 231.7 46.0 L 231.1 46.0 L 231.1 43.8 L 228.7 43.8 L 228.7 46.0 L 228.0 46.0 L 228.0 41.3 " fill="#0000FF"/>
<path class="atom-15" d="M 272.3 70.9 L 273.8 73.4 Q 273.9 73.6, 274.2 74.1 Q 274.4 74.5, 274.5 74.5 L 274.5 70.9 L 275.1 70.9 L 275.1 75.6 L 274.4 75.6 L 272.8 72.9 Q 272.6 72.5, 272.4 72.2 Q 272.2 71.8, 272.1 71.7 L 272.1 75.6 L 271.5 75.6 L 271.5 70.9 L 272.3 70.9 " fill="#0000FF"/>
<path class="atom-17" d="M 286.0 45.8 L 288.8 45.8 L 288.8 46.3 L 286.6 46.3 L 286.6 47.8 L 288.6 47.8 L 288.6 48.3 L 286.6 48.3 L 286.6 50.5 L 286.0 50.5 L 286.0 45.8 " fill="#33CCCC"/>
<path class="atom-19" d="M 213.0 71.5 L 214.5 74.0 Q 214.7 74.2, 214.9 74.6 Q 215.2 75.1, 215.2 75.1 L 215.2 71.5 L 215.8 71.5 L 215.8 76.2 L 215.2 76.2 L 213.5 73.4 Q 213.3 73.1, 213.1 72.8 Q 212.9 72.4, 212.9 72.3 L 212.9 76.2 L 212.2 76.2 L 212.2 71.5 L 213.0 71.5 " fill="#0000FF"/>
<path class="atom-22" d="M 160.5 105.3 L 162.1 107.7 Q 162.2 108.0, 162.5 108.4 Q 162.7 108.9, 162.7 108.9 L 162.7 105.3 L 163.3 105.3 L 163.3 110.0 L 162.7 110.0 L 161.0 107.2 Q 160.8 106.9, 160.6 106.5 Q 160.4 106.2, 160.4 106.1 L 160.4 110.0 L 159.8 110.0 L 159.8 105.3 L 160.5 105.3 " fill="#0000FF"/>
<path class="atom-29" d="M 71.9 86.1 Q 71.9 85.0, 72.4 84.4 Q 73.0 83.8, 74.0 83.8 Q 75.0 83.8, 75.5 84.4 L 75.1 84.8 Q 74.7 84.3, 74.0 84.3 Q 73.3 84.3, 72.9 84.8 Q 72.5 85.2, 72.5 86.1 Q 72.5 87.1, 72.9 87.6 Q 73.3 88.0, 74.1 88.0 Q 74.6 88.0, 75.2 87.7 L 75.4 88.2 Q 75.1 88.4, 74.8 88.5 Q 74.4 88.6, 74.0 88.6 Q 73.0 88.6, 72.4 87.9 Q 71.9 87.3, 71.9 86.1 " fill="#00CC00"/>
<path class="atom-29" d="M 76.1 83.5 L 76.7 83.5 L 76.7 88.5 L 76.1 88.5 L 76.1 83.5 " fill="#00CC00"/>
<path class="atom-34" d="M 65.3 8.2 L 66.9 10.7 Q 67.0 10.9, 67.3 11.4 Q 67.5 11.8, 67.5 11.8 L 67.5 8.2 L 68.2 8.2 L 68.2 12.9 L 67.5 12.9 L 65.9 10.2 Q 65.7 9.8, 65.5 9.5 Q 65.3 9.1, 65.2 9.0 L 65.2 12.9 L 64.6 12.9 L 64.6 8.2 L 65.3 8.2 " fill="#0000FF"/>
<path class="atom-34" d="M 68.7 8.2 L 69.4 8.2 L 69.4 10.2 L 71.8 10.2 L 71.8 8.2 L 72.4 8.2 L 72.4 12.9 L 71.8 12.9 L 71.8 10.7 L 69.4 10.7 L 69.4 12.9 L 68.7 12.9 L 68.7 8.2 " fill="#0000FF"/>
<path class="atom-35" d="M 103.1 101.9 L 104.6 104.4 Q 104.8 104.6, 105.0 105.1 Q 105.3 105.5, 105.3 105.5 L 105.3 101.9 L 105.9 101.9 L 105.9 106.6 L 105.3 106.6 L 103.6 103.9 Q 103.4 103.6, 103.2 103.2 Q 103.0 102.8, 102.9 102.7 L 102.9 106.6 L 102.3 106.6 L 102.3 101.9 L 103.1 101.9 " fill="#0000FF"/>
<path d="M 81.6,36.2 L 81.6,36.2 L 81.6,36.2 L 81.6,36.2 L 81.6,36.1 L 81.6,36.1 L 81.6,36.1 L 81.5,36.1 L 81.5,36.0 L 81.5,36.0 L 81.5,36.0 L 81.5,36.0 L 81.4,36.0 L 81.4,35.9 L 81.4,35.9 L 81.4,35.9 L 81.3,35.9 L 81.3,35.9 L 81.3,35.9 L 81.2,35.9 L 81.2,35.9 L 81.2,35.9 L 81.2,35.9 L 81.1,35.9 L 81.1,36.0 L 81.1,36.0 L 81.1,36.0 L 81.0,36.0 L 81.0,36.0 L 81.0,36.0 L 81.0,36.1 L 81.0,36.1 L 81.0,36.1 L 81.0,36.1 L 80.9,36.2 L 80.9,36.2 L 80.9,36.2 L 80.9,36.3 L 80.9,36.3 L 80.9,36.3 L 81.0,36.3 L 81.0,36.4 L 81.0,36.4 L 81.0,36.4 L 81.0,36.4 L 81.0,36.5 L 81.0,36.5 L 81.1,36.5 L 81.1,36.5 L 81.1,36.5 L 81.1,36.6 L 81.2,36.6 L 81.2,36.6 L 81.2,36.6 L 81.2,36.6 L 81.3,36.6 L 81.3,36.6 L 81.3,36.6 L 81.4,36.6 L 81.4,36.6 L 81.4,36.5 L 81.4,36.5 L 81.5,36.5 L 81.5,36.5 L 81.5,36.5 L 81.5,36.5 L 81.5,36.4 L 81.6,36.4 L 81.6,36.4 L 81.6,36.4 L 81.6,36.3 L 81.6,36.3 L 81.6,36.3 L 81.6,36.2 L 81.3,36.2 Z" style="fill:#000000;fill-rule:evenodd;fill-opacity:1;stroke:#000000;stroke-width:0.0px;stroke-linecap:butt;stroke-linejoin:miter;stroke-opacity:1;"/>
<path d="M 73.7,10.5 L 73.7,10.5 L 73.7,10.5 L 73.7,10.5 L 73.7,10.4 L 73.7,10.4 L 73.7,10.4 L 73.7,10.3 L 73.7,10.3 L 73.6,10.3 L 73.6,10.3 L 73.6,10.3 L 73.6,10.3 L 73.5,10.2 L 73.5,10.2 L 73.5,10.2 L 73.5,10.2 L 73.4,10.2 L 73.4,10.2 L 73.4,10.2 L 73.3,10.2 L 73.3,10.2 L 73.3,10.2 L 73.3,10.2 L 73.2,10.2 L 73.2,10.3 L 73.2,10.3 L 73.2,10.3 L 73.2,10.3 L 73.1,10.3 L 73.1,10.4 L 73.1,10.4 L 73.1,10.4 L 73.1,10.4 L 73.1,10.5 L 73.1,10.5 L 73.1,10.5 L 73.1,10.6 L 73.1,10.6 L 73.1,10.6 L 73.1,10.6 L 73.1,10.7 L 73.1,10.7 L 73.1,10.7 L 73.1,10.7 L 73.2,10.8 L 73.2,10.8 L 73.2,10.8 L 73.2,10.8 L 73.2,10.8 L 73.3,10.8 L 73.3,10.9 L 73.3,10.9 L 73.3,10.9 L 73.4,10.9 L 73.4,10.9 L 73.4,10.9 L 73.5,10.9 L 73.5,10.9 L 73.5,10.8 L 73.5,10.8 L 73.6,10.8 L 73.6,10.8 L 73.6,10.8 L 73.6,10.8 L 73.7,10.7 L 73.7,10.7 L 73.7,10.7 L 73.7,10.7 L 73.7,10.6 L 73.7,10.6 L 73.7,10.6 L 73.7,10.6 L 73.7,10.5 L 73.4,10.5 Z" style="fill:#000000;fill-rule:evenodd;fill-opacity:1;stroke:#000000;stroke-width:0.0px;stroke-linecap:butt;stroke-linejoin:miter;stroke-opacity:1;"/>
<path class="bond-0 atom-0 atom-1" d="M 390.6,58.8 L 403.8,64.6" style="fill:none;fill-rule:evenodd;stroke:#000000;stroke-width:2.0px;stroke-linecap:butt;stroke-linejoin:miter;stroke-opacity:1"/>
<path class="bond-1 atom-1 atom-2" d="M 406.1,68.2 L 407.7,82.0" style="fill:none;fill-rule:evenodd;stroke:#000000;stroke-width:2.0px;stroke-linecap:butt;stroke-linejoin:miter;stroke-opacity:1"/>
<path class="bond-6 atom-1 atom-7" d="M 407.8,64.0 L 419.2,55.6" style="fill:none;fill-rule:evenodd;stroke:#000000;stroke-width:2.0px;stroke-linecap:butt;stroke-linejoin:miter;stroke-opacity:1"/>
<path class="bond-2 atom-2 atom-3" d="M 407.7,82.0 L 394.3,91.8" style="fill:none;fill-rule:evenodd;stroke:#000000;stroke-width:2.0px;stroke-linecap:butt;stroke-linejoin:miter;stroke-opacity:1"/>
<path class="bond-3 atom-3 atom-4" d="M 394.3,91.8 L 387.1,88.7" style="fill:none;fill-rule:evenodd;stroke:#000000;stroke-width:2.0px;stroke-linecap:butt;stroke-linejoin:miter;stroke-opacity:1"/>
<path class="bond-3 atom-3 atom-4" d="M 387.1,88.7 L 379.8,85.5" style="fill:none;fill-rule:evenodd;stroke:#00CC00;stroke-width:2.0px;stroke-linecap:butt;stroke-linejoin:miter;stroke-opacity:1"/>
<path class="bond-4 atom-3 atom-5" d="M 394.3,91.8 L 396.2,108.3" style="fill:none;fill-rule:evenodd;stroke:#000000;stroke-width:2.0px;stroke-linecap:butt;stroke-linejoin:miter;stroke-opacity:1"/>
<path class="bond-4 atom-3 atom-5" d="M 397.9,93.9 L 399.2,105.5" style="fill:none;fill-rule:evenodd;stroke:#000000;stroke-width:2.0px;stroke-linecap:butt;stroke-linejoin:miter;stroke-opacity:1"/>
<path class="bond-5 atom-5 atom-6" d="M 396.2,108.3 L 390.6,112.5" style="fill:none;fill-rule:evenodd;stroke:#000000;stroke-width:2.0px;stroke-linecap:butt;stroke-linejoin:miter;stroke-opacity:1"/>
<path class="bond-5 atom-5 atom-6" d="M 390.6,112.5 L 385.0,116.6" style="fill:none;fill-rule:evenodd;stroke:#0000FF;stroke-width:2.0px;stroke-linecap:butt;stroke-linejoin:miter;stroke-opacity:1"/>
<path class="bond-7 atom-7 atom-8" d="M 419.2,55.6 L 417.3,39.1" style="fill:none;fill-rule:evenodd;stroke:#000000;stroke-width:2.0px;stroke-linecap:butt;stroke-linejoin:miter;stroke-opacity:1"/>
<path class="bond-7 atom-7 atom-8" d="M 422.2,52.7 L 420.9,41.2" style="fill:none;fill-rule:evenodd;stroke:#000000;stroke-width:2.0px;stroke-linecap:butt;stroke-linejoin:miter;stroke-opacity:1"/>
<path class="bond-38 atom-38 atom-7" d="M 432.2,61.3 L 425.7,58.4" style="fill:none;fill-rule:evenodd;stroke:#0000FF;stroke-width:2.0px;stroke-linecap:butt;stroke-linejoin:miter;stroke-opacity:1"/>
<path class="bond-38 atom-38 atom-7" d="M 425.7,58.4 L 419.2,55.6" style="fill:none;fill-rule:evenodd;stroke:#000000;stroke-width:2.0px;stroke-linecap:butt;stroke-linejoin:miter;stroke-opacity:1"/>
<path class="bond-8 atom-8 atom-9" d="M 417.3,39.1 L 430.7,29.2" style="fill:none;fill-rule:evenodd;stroke:#000000;stroke-width:2.0px;stroke-linecap:butt;stroke-linejoin:miter;stroke-opacity:1"/>
<path class="bond-9 atom-9 atom-10" d="M 430.7,29.2 L 445.9,35.9" style="fill:none;fill-rule:evenodd;stroke:#000000;stroke-width:2.0px;stroke-linecap:butt;stroke-linejoin:miter;stroke-opacity:1"/>
<path class="bond-9 atom-9 atom-10" d="M 431.6,33.3 L 442.3,37.9" style="fill:none;fill-rule:evenodd;stroke:#000000;stroke-width:2.0px;stroke-linecap:butt;stroke-linejoin:miter;stroke-opacity:1"/>
<path class="bond-10 atom-10 atom-11" d="M 445.9,35.9 L 459.2,26.0" style="fill:none;fill-rule:evenodd;stroke:#000000;stroke-width:2.0px;stroke-linecap:butt;stroke-linejoin:miter;stroke-opacity:1"/>
<path class="bond-36 atom-10 atom-37" d="M 445.9,35.9 L 447.8,52.4" style="fill:none;fill-rule:evenodd;stroke:#000000;stroke-width:2.0px;stroke-linecap:butt;stroke-linejoin:miter;stroke-opacity:1"/>
<path class="bond-11 atom-11 atom-12" d="M 459.2,26.0 L 465.7,28.8" style="fill:none;fill-rule:evenodd;stroke:#000000;stroke-width:2.0px;stroke-linecap:butt;stroke-linejoin:miter;stroke-opacity:1"/>
<path class="bond-11 atom-11 atom-12" d="M 465.7,28.8 L 472.3,31.7" style="fill:none;fill-rule:evenodd;stroke:#0000FF;stroke-width:2.0px;stroke-linecap:butt;stroke-linejoin:miter;stroke-opacity:1"/>
<path class="bond-12 atom-12 atom-13" d="M 474.8,35.4 L 475.6,42.2" style="fill:none;fill-rule:evenodd;stroke:#0000FF;stroke-width:2.0px;stroke-linecap:butt;stroke-linejoin:miter;stroke-opacity:1"/>
<path class="bond-12 atom-12 atom-13" d="M 475.6,42.2 L 476.3,49.1" style="fill:none;fill-rule:evenodd;stroke:#000000;stroke-width:2.0px;stroke-linecap:butt;stroke-linejoin:miter;stroke-opacity:1"/>
<path class="bond-39 atom-36 atom-12" d="M 487.8,22.7 L 482.2,26.9" style="fill:none;fill-rule:evenodd;stroke:#000000;stroke-width:2.0px;stroke-linecap:butt;stroke-linejoin:miter;stroke-opacity:1"/>
<path class="bond-39 atom-36 atom-12" d="M 482.2,26.9 L 476.7,31.0" style="fill:none;fill-rule:evenodd;stroke:#0000FF;stroke-width:2.0px;stroke-linecap:butt;stroke-linejoin:miter;stroke-opacity:1"/>
<path class="bond-13 atom-13 atom-14" d="M 476.3,49.1 L 491.6,55.7" style="fill:none;fill-rule:evenodd;stroke:#000000;stroke-width:2.0px;stroke-linecap:butt;stroke-linejoin:miter;stroke-opacity:1"/>
<path class="bond-14 atom-14 atom-15" d="M 491.6,55.7 L 504.9,45.9" style="fill:none;fill-rule:evenodd;stroke:#000000;stroke-width:2.0px;stroke-linecap:butt;stroke-linejoin:miter;stroke-opacity:1"/>
<path class="bond-15 atom-15 atom-16" d="M 504.9,45.9 L 520.8,41.2" style="fill:none;fill-rule:evenodd;stroke:#000000;stroke-width:2.0px;stroke-linecap:butt;stroke-linejoin:miter;stroke-opacity:1"/>
<path class="bond-18 atom-15 atom-19" d="M 504.9,45.9 L 507.9,51.9" style="fill:none;fill-rule:evenodd;stroke:#000000;stroke-width:2.0px;stroke-linecap:butt;stroke-linejoin:miter;stroke-opacity:1"/>
<path class="bond-18 atom-15 atom-19" d="M 507.9,51.9 L 510.9,58.0" style="fill:none;fill-rule:evenodd;stroke:#0000FF;stroke-width:2.0px;stroke-linecap:butt;stroke-linejoin:miter;stroke-opacity:1"/>
<path class="bond-34 atom-15 atom-35" d="M 504.9,45.9 L 503.0,29.4" style="fill:none;fill-rule:evenodd;stroke:#000000;stroke-width:2.0px;stroke-linecap:butt;stroke-linejoin:miter;stroke-opacity:1"/>
<path class="bond-16 atom-16 atom-17" d="M 520.8,41.2 L 532.9,52.6" style="fill:none;fill-rule:evenodd;stroke:#000000;stroke-width:2.0px;stroke-linecap:butt;stroke-linejoin:miter;stroke-opacity:1"/>
<path class="bond-17 atom-17 atom-18" d="M 532.9,52.6 L 537.8,57.3" style="fill:none;fill-rule:evenodd;stroke:#000000;stroke-width:2.0px;stroke-linecap:butt;stroke-linejoin:miter;stroke-opacity:1"/>
<path class="bond-17 atom-17 atom-18" d="M 537.8,57.3 L 542.7,61.9" style="fill:none;fill-rule:evenodd;stroke:#0000FF;stroke-width:2.0px;stroke-linecap:butt;stroke-linejoin:miter;stroke-opacity:1"/>
<path class="bond-17 atom-17 atom-18" d="M 532.1,56.4 L 536.3,60.4" style="fill:none;fill-rule:evenodd;stroke:#000000;stroke-width:2.0px;stroke-linecap:butt;stroke-linejoin:miter;stroke-opacity:1"/>
<path class="bond-17 atom-17 atom-18" d="M 536.3,60.4 L 540.4,64.4" style="fill:none;fill-rule:evenodd;stroke:#0000FF;stroke-width:2.0px;stroke-linecap:butt;stroke-linejoin:miter;stroke-opacity:1"/>
<path class="bond-17 atom-17 atom-18" d="M 536.7,51.6 L 540.8,55.6" style="fill:none;fill-rule:evenodd;stroke:#000000;stroke-width:2.0px;stroke-linecap:butt;stroke-linejoin:miter;stroke-opacity:1"/>
<path class="bond-17 atom-17 atom-18" d="M 540.8,55.6 L 545.0,59.5" style="fill:none;fill-rule:evenodd;stroke:#0000FF;stroke-width:2.0px;stroke-linecap:butt;stroke-linejoin:miter;stroke-opacity:1"/>
<path class="bond-19 atom-19 atom-20" d="M 514.5,61.1 L 521.6,62.3" style="fill:none;fill-rule:evenodd;stroke:#0000FF;stroke-width:2.0px;stroke-linecap:butt;stroke-linejoin:miter;stroke-opacity:1"/>
<path class="bond-19 atom-19 atom-20" d="M 521.6,62.3 L 528.7,63.5" style="fill:none;fill-rule:evenodd;stroke:#000000;stroke-width:2.0px;stroke-linecap:butt;stroke-linejoin:miter;stroke-opacity:1"/>
<path class="bond-40 atom-34 atom-19" d="M 506.1,72.7 L 510.9,63.4" style="fill:none;fill-rule:evenodd;stroke:#0000FF;stroke-width:2.0px;stroke-linecap:butt;stroke-linejoin:miter;stroke-opacity:1"/>
<path class="bond-20 atom-20 atom-21" d="M 528.7,63.5 L 531.1,79.9" style="fill:none;fill-rule:evenodd;stroke:#000000;stroke-width:2.0px;stroke-linecap:butt;stroke-linejoin:miter;stroke-opacity:1"/>
<path class="bond-20 atom-20 atom-21" d="M 525.8,66.4 L 527.5,77.9" style="fill:none;fill-rule:evenodd;stroke:#000000;stroke-width:2.0px;stroke-linecap:butt;stroke-linejoin:miter;stroke-opacity:1"/>
<path class="bond-21 atom-21 atom-22" d="M 531.1,79.9 L 545.9,87.6" style="fill:none;fill-rule:evenodd;stroke:#000000;stroke-width:2.0px;stroke-linecap:butt;stroke-linejoin:miter;stroke-opacity:1"/>
<path class="bond-24 atom-21 atom-25" d="M 531.1,79.9 L 516.3,87.3" style="fill:none;fill-rule:evenodd;stroke:#000000;stroke-width:2.0px;stroke-linecap:butt;stroke-linejoin:miter;stroke-opacity:1"/>
<path class="bond-22 atom-22 atom-23" d="M 545.9,87.6 L 546.2,94.5" style="fill:none;fill-rule:evenodd;stroke:#000000;stroke-width:2.0px;stroke-linecap:butt;stroke-linejoin:miter;stroke-opacity:1"/>
<path class="bond-22 atom-22 atom-23" d="M 546.2,94.5 L 546.5,101.4" style="fill:none;fill-rule:evenodd;stroke:#0000FF;stroke-width:2.0px;stroke-linecap:butt;stroke-linejoin:miter;stroke-opacity:1"/>
<path class="bond-23 atom-22 atom-24" d="M 546.8,89.0 L 552.5,85.3" style="fill:none;fill-rule:evenodd;stroke:#000000;stroke-width:2.0px;stroke-linecap:butt;stroke-linejoin:miter;stroke-opacity:1"/>
<path class="bond-23 atom-22 atom-24" d="M 552.5,85.3 L 558.2,81.7" style="fill:none;fill-rule:evenodd;stroke:#FF0000;stroke-width:2.0px;stroke-linecap:butt;stroke-linejoin:miter;stroke-opacity:1"/>
<path class="bond-23 atom-22 atom-24" d="M 545.0,86.2 L 550.7,82.5" style="fill:none;fill-rule:evenodd;stroke:#000000;stroke-width:2.0px;stroke-linecap:butt;stroke-linejoin:miter;stroke-opacity:1"/>
<path class="bond-23 atom-22 atom-24" d="M 550.7,82.5 L 556.4,78.9" style="fill:none;fill-rule:evenodd;stroke:#FF0000;stroke-width:2.0px;stroke-linecap:butt;stroke-linejoin:miter;stroke-opacity:1"/>
<path class="bond-25 atom-25 atom-26" d="M 516.3,87.3 L 515.1,94.1" style="fill:none;fill-rule:evenodd;stroke:#000000;stroke-width:2.0px;stroke-linecap:butt;stroke-linejoin:miter;stroke-opacity:1"/>
<path class="bond-25 atom-25 atom-26" d="M 515.1,94.1 L 514.0,100.9" style="fill:none;fill-rule:evenodd;stroke:#0000FF;stroke-width:2.0px;stroke-linecap:butt;stroke-linejoin:miter;stroke-opacity:1"/>
<path class="bond-33 atom-25 atom-34" d="M 516.3,87.3 L 511.6,82.5" style="fill:none;fill-rule:evenodd;stroke:#000000;stroke-width:2.0px;stroke-linecap:butt;stroke-linejoin:miter;stroke-opacity:1"/>
<path class="bond-33 atom-25 atom-34" d="M 511.6,82.5 L 506.8,77.7" style="fill:none;fill-rule:evenodd;stroke:#0000FF;stroke-width:2.0px;stroke-linecap:butt;stroke-linejoin:miter;stroke-opacity:1"/>
<path class="bond-33 atom-25 atom-34" d="M 517.2,83.5 L 513.9,80.2" style="fill:none;fill-rule:evenodd;stroke:#000000;stroke-width:2.0px;stroke-linecap:butt;stroke-linejoin:miter;stroke-opacity:1"/>
<path class="bond-33 atom-25 atom-34" d="M 513.9,80.2 L 510.6,76.8" style="fill:none;fill-rule:evenodd;stroke:#0000FF;stroke-width:2.0px;stroke-linecap:butt;stroke-linejoin:miter;stroke-opacity:1"/>
<path class="bond-26 atom-26 atom-27" d="M 511.3,104.5 L 504.7,107.0" style="fill:none;fill-rule:evenodd;stroke:#0000FF;stroke-width:2.0px;stroke-linecap:butt;stroke-linejoin:miter;stroke-opacity:1"/>
<path class="bond-26 atom-26 atom-27" d="M 504.7,107.0 L 498.0,109.5" style="fill:none;fill-rule:evenodd;stroke:#000000;stroke-width:2.0px;stroke-linecap:butt;stroke-linejoin:miter;stroke-opacity:1"/>
<path class="bond-27 atom-27 atom-28" d="M 498.0,109.5 L 485.2,98.9" style="fill:none;fill-rule:evenodd;stroke:#000000;stroke-width:2.0px;stroke-linecap:butt;stroke-linejoin:miter;stroke-opacity:1"/>
<path class="bond-27 atom-27 atom-28" d="M 493.9,110.5 L 485.0,103.1" style="fill:none;fill-rule:evenodd;stroke:#000000;stroke-width:2.0px;stroke-linecap:butt;stroke-linejoin:miter;stroke-opacity:1"/>
<path class="bond-41 atom-33 atom-27" d="M 495.2,125.9 L 498.0,109.5" style="fill:none;fill-rule:evenodd;stroke:#000000;stroke-width:2.0px;stroke-linecap:butt;stroke-linejoin:miter;stroke-opacity:1"/>
<path class="bond-28 atom-28 atom-29" d="M 485.2,98.9 L 469.6,104.7" style="fill:none;fill-rule:evenodd;stroke:#000000;stroke-width:2.0px;stroke-linecap:butt;stroke-linejoin:miter;stroke-opacity:1"/>
<path class="bond-29 atom-29 atom-30" d="M 469.6,104.7 L 468.5,111.5" style="fill:none;fill-rule:evenodd;stroke:#000000;stroke-width:2.0px;stroke-linecap:butt;stroke-linejoin:miter;stroke-opacity:1"/>
<path class="bond-29 atom-29 atom-30" d="M 468.5,111.5 L 467.3,118.4" style="fill:none;fill-rule:evenodd;stroke:#0000FF;stroke-width:2.0px;stroke-linecap:butt;stroke-linejoin:miter;stroke-opacity:1"/>
<path class="bond-29 atom-29 atom-30" d="M 472.5,107.3 L 471.7,112.1" style="fill:none;fill-rule:evenodd;stroke:#000000;stroke-width:2.0px;stroke-linecap:butt;stroke-linejoin:miter;stroke-opacity:1"/>
<path class="bond-29 atom-29 atom-30" d="M 471.7,112.1 L 470.9,116.9" style="fill:none;fill-rule:evenodd;stroke:#0000FF;stroke-width:2.0px;stroke-linecap:butt;stroke-linejoin:miter;stroke-opacity:1"/>
<path class="bond-30 atom-30 atom-31" d="M 469.1,122.9 L 474.4,127.3" style="fill:none;fill-rule:evenodd;stroke:#0000FF;stroke-width:2.0px;stroke-linecap:butt;stroke-linejoin:miter;stroke-opacity:1"/>
<path class="bond-30 atom-30 atom-31" d="M 474.4,127.3 L 479.7,131.7" style="fill:none;fill-rule:evenodd;stroke:#000000;stroke-width:2.0px;stroke-linecap:butt;stroke-linejoin:miter;stroke-opacity:1"/>
<path class="bond-31 atom-31 atom-32" d="M 479.7,131.7 L 478.5,138.5" style="fill:none;fill-rule:evenodd;stroke:#000000;stroke-width:2.0px;stroke-linecap:butt;stroke-linejoin:miter;stroke-opacity:1"/>
<path class="bond-31 atom-31 atom-32" d="M 478.5,138.5 L 477.4,145.3" style="fill:none;fill-rule:evenodd;stroke:#33CCCC;stroke-width:2.0px;stroke-linecap:butt;stroke-linejoin:miter;stroke-opacity:1"/>
<path class="bond-32 atom-31 atom-33" d="M 479.7,131.7 L 495.2,125.9" style="fill:none;fill-rule:evenodd;stroke:#000000;stroke-width:2.0px;stroke-linecap:butt;stroke-linejoin:miter;stroke-opacity:1"/>
<path class="bond-32 atom-31 atom-33" d="M 480.8,127.7 L 491.7,123.6" style="fill:none;fill-rule:evenodd;stroke:#000000;stroke-width:2.0px;stroke-linecap:butt;stroke-linejoin:miter;stroke-opacity:1"/>
<path class="bond-35 atom-35 atom-36" d="M 503.0,29.4 L 487.8,22.7" style="fill:none;fill-rule:evenodd;stroke:#000000;stroke-width:2.0px;stroke-linecap:butt;stroke-linejoin:miter;stroke-opacity:1"/>
<path class="bond-37 atom-37 atom-38" d="M 447.8,52.4 L 442.2,56.5" style="fill:none;fill-rule:evenodd;stroke:#000000;stroke-width:2.0px;stroke-linecap:butt;stroke-linejoin:miter;stroke-opacity:1"/>
<path class="bond-37 atom-37 atom-38" d="M 442.2,56.5 L 436.6,60.6" style="fill:none;fill-rule:evenodd;stroke:#0000FF;stroke-width:2.0px;stroke-linecap:butt;stroke-linejoin:miter;stroke-opacity:1"/>
<path class="bond-37 atom-37 atom-38" d="M 444.1,50.9 L 440.2,53.8" style="fill:none;fill-rule:evenodd;stroke:#000000;stroke-width:2.0px;stroke-linecap:butt;stroke-linejoin:miter;stroke-opacity:1"/>
<path class="bond-37 atom-37 atom-38" d="M 440.2,53.8 L 436.3,56.7" style="fill:none;fill-rule:evenodd;stroke:#0000FF;stroke-width:2.0px;stroke-linecap:butt;stroke-linejoin:miter;stroke-opacity:1"/>
<path class="atom-1" d="M 406.5 65.4 Q 407.0 65.5, 407.2 65.8 Q 407.4 66.0, 407.4 66.4 Q 407.4 67.1, 407.0 67.5 Q 406.6 67.8, 405.8 67.8 L 404.2 67.8 L 404.2 63.1 L 405.6 63.1 Q 406.4 63.1, 406.8 63.4 Q 407.2 63.8, 407.2 64.4 Q 407.2 65.1, 406.5 65.4 M 404.8 63.7 L 404.8 65.1 L 405.6 65.1 Q 406.1 65.1, 406.3 64.9 Q 406.6 64.7, 406.6 64.4 Q 406.6 63.7, 405.6 63.7 L 404.8 63.7 M 405.8 67.3 Q 406.3 67.3, 406.5 67.1 Q 406.7 66.9, 406.7 66.4 Q 406.7 66.0, 406.5 65.9 Q 406.2 65.7, 405.7 65.7 L 404.8 65.7 L 404.8 67.3 L 405.8 67.3 " fill="#000000"/>
<path class="atom-4" d="M 374.6 85.4 Q 374.6 84.2, 375.1 83.6 Q 375.7 83.0, 376.7 83.0 Q 377.7 83.0, 378.2 83.7 L 377.8 84.0 Q 377.4 83.5, 376.7 83.5 Q 376.0 83.5, 375.6 84.0 Q 375.3 84.5, 375.3 85.4 Q 375.3 86.3, 375.7 86.8 Q 376.1 87.3, 376.8 87.3 Q 377.3 87.3, 377.9 87.0 L 378.1 87.5 Q 377.9 87.6, 377.5 87.7 Q 377.1 87.8, 376.7 87.8 Q 375.7 87.8, 375.1 87.2 Q 374.6 86.5, 374.6 85.4 " fill="#00CC00"/>
<path class="atom-4" d="M 378.8 82.7 L 379.4 82.7 L 379.4 87.7 L 378.8 87.7 L 378.8 82.7 " fill="#00CC00"/>
<path class="atom-6" d="M 376.8 115.9 L 377.5 115.9 L 377.5 117.9 L 379.9 117.9 L 379.9 115.9 L 380.5 115.9 L 380.5 120.6 L 379.9 120.6 L 379.9 118.4 L 377.5 118.4 L 377.5 120.6 L 376.8 120.6 L 376.8 115.9 " fill="#0000FF"/>
<path class="atom-6" d="M 381.8 115.9 L 383.3 118.4 Q 383.5 118.6, 383.7 119.1 Q 384.0 119.5, 384.0 119.5 L 384.0 115.9 L 384.6 115.9 L 384.6 120.6 L 384.0 120.6 L 382.3 117.9 Q 382.1 117.5, 381.9 117.2 Q 381.7 116.8, 381.7 116.7 L 381.7 120.6 L 381.1 120.6 L 381.1 115.9 L 381.8 115.9 " fill="#0000FF"/>
<path class="atom-12" d="M 473.4 30.3 L 475.0 32.7 Q 475.1 33.0, 475.4 33.4 Q 475.6 33.9, 475.6 33.9 L 475.6 30.3 L 476.2 30.3 L 476.2 35.0 L 475.6 35.0 L 473.9 32.2 Q 473.8 31.9, 473.5 31.6 Q 473.3 31.2, 473.3 31.1 L 473.3 35.0 L 472.7 35.0 L 472.7 30.3 L 473.4 30.3 " fill="#0000FF"/>
<path class="atom-18" d="M 543.9 61.7 L 545.4 64.2 Q 545.6 64.4, 545.8 64.9 Q 546.1 65.3, 546.1 65.3 L 546.1 61.7 L 546.7 61.7 L 546.7 66.4 L 546.1 66.4 L 544.4 63.7 Q 544.2 63.3, 544.0 63.0 Q 543.8 62.6, 543.8 62.5 L 543.8 66.4 L 543.1 66.4 L 543.1 61.7 L 543.9 61.7 " fill="#0000FF"/>
<path class="atom-19" d="M 511.3 58.4 L 512.8 60.9 Q 513.0 61.1, 513.2 61.6 Q 513.5 62.0, 513.5 62.0 L 513.5 58.4 L 514.1 58.4 L 514.1 63.1 L 513.5 63.1 L 511.8 60.4 Q 511.6 60.0, 511.4 59.7 Q 511.2 59.3, 511.1 59.2 L 511.1 63.1 L 510.5 63.1 L 510.5 58.4 L 511.3 58.4 " fill="#0000FF"/>
<path class="atom-23" d="M 545.6 101.8 L 547.1 104.3 Q 547.2 104.6, 547.5 105.0 Q 547.7 105.5, 547.8 105.5 L 547.8 101.8 L 548.4 101.8 L 548.4 106.5 L 547.7 106.5 L 546.1 103.8 Q 545.9 103.5, 545.7 103.1 Q 545.5 102.8, 545.4 102.6 L 545.4 106.5 L 544.8 106.5 L 544.8 101.8 L 545.6 101.8 " fill="#0000FF"/>
<path class="atom-23" d="M 548.9 101.8 L 549.6 101.8 L 549.6 103.8 L 552.0 103.8 L 552.0 101.8 L 552.6 101.8 L 552.6 106.5 L 552.0 106.5 L 552.0 104.4 L 549.6 104.4 L 549.6 106.5 L 548.9 106.5 L 548.9 101.8 " fill="#0000FF"/>
<path class="atom-23" d="M 552.9 106.4 Q 553.0 106.1, 553.2 105.9 Q 553.5 105.7, 553.9 105.7 Q 554.4 105.7, 554.6 106.0 Q 554.9 106.3, 554.9 106.7 Q 554.9 107.2, 554.5 107.6 Q 554.2 108.0, 553.5 108.5 L 554.9 108.5 L 554.9 108.9 L 552.8 108.9 L 552.8 108.6 Q 553.4 108.2, 553.8 107.9 Q 554.1 107.6, 554.3 107.3 Q 554.4 107.0, 554.4 106.7 Q 554.4 106.4, 554.3 106.3 Q 554.1 106.1, 553.9 106.1 Q 553.6 106.1, 553.5 106.2 Q 553.3 106.3, 553.2 106.5 L 552.9 106.4 " fill="#0000FF"/>
<path class="atom-24" d="M 557.7 78.7 Q 557.7 77.6, 558.3 76.9 Q 558.8 76.3, 559.9 76.3 Q 560.9 76.3, 561.5 76.9 Q 562.0 77.6, 562.0 78.7 Q 562.0 79.8, 561.5 80.5 Q 560.9 81.1, 559.9 81.1 Q 558.9 81.1, 558.3 80.5 Q 557.7 79.8, 557.7 78.7 M 559.9 80.6 Q 560.6 80.6, 561.0 80.1 Q 561.4 79.6, 561.4 78.7 Q 561.4 77.8, 561.0 77.3 Q 560.6 76.8, 559.9 76.8 Q 559.2 76.8, 558.8 77.3 Q 558.4 77.8, 558.4 78.7 Q 558.4 79.6, 558.8 80.1 Q 559.2 80.6, 559.9 80.6 " fill="#FF0000"/>
<path class="atom-26" d="M 512.5 101.3 L 514.0 103.8 Q 514.2 104.1, 514.4 104.5 Q 514.7 105.0, 514.7 105.0 L 514.7 101.3 L 515.3 101.3 L 515.3 106.0 L 514.7 106.0 L 513.0 103.3 Q 512.8 103.0, 512.6 102.6 Q 512.4 102.3, 512.4 102.2 L 512.4 106.0 L 511.8 106.0 L 511.8 101.3 L 512.5 101.3 " fill="#0000FF"/>
<path class="atom-26" d="M 515.9 101.3 L 516.5 101.3 L 516.5 103.3 L 518.9 103.3 L 518.9 101.3 L 519.6 101.3 L 519.6 106.0 L 518.9 106.0 L 518.9 103.9 L 516.5 103.9 L 516.5 106.0 L 515.9 106.0 L 515.9 101.3 " fill="#0000FF"/>
<path class="atom-30" d="M 465.8 118.8 L 467.4 121.3 Q 467.5 121.5, 467.8 122.0 Q 468.0 122.4, 468.0 122.4 L 468.0 118.8 L 468.6 118.8 L 468.6 123.5 L 468.0 123.5 L 466.3 120.7 Q 466.1 120.4, 465.9 120.1 Q 465.7 119.7, 465.7 119.6 L 465.7 123.5 L 465.1 123.5 L 465.1 118.8 L 465.8 118.8 " fill="#0000FF"/>
<path class="atom-32" d="M 475.5 145.7 L 478.3 145.7 L 478.3 146.3 L 476.2 146.3 L 476.2 147.7 L 478.1 147.7 L 478.1 148.2 L 476.2 148.2 L 476.2 150.4 L 475.5 150.4 L 475.5 145.7 " fill="#33CCCC"/>
<path class="atom-34" d="M 503.6 73.1 L 505.1 75.6 Q 505.3 75.8, 505.5 76.3 Q 505.8 76.7, 505.8 76.8 L 505.8 73.1 L 506.4 73.1 L 506.4 77.8 L 505.8 77.8 L 504.1 75.1 Q 503.9 74.8, 503.7 74.4 Q 503.5 74.0, 503.5 73.9 L 503.5 77.8 L 502.9 77.8 L 502.9 73.1 L 503.6 73.1 " fill="#0000FF"/>
<path class="atom-38" d="M 433.4 59.9 L 434.9 62.4 Q 435.1 62.6, 435.3 63.1 Q 435.5 63.5, 435.6 63.5 L 435.6 59.9 L 436.2 59.9 L 436.2 64.6 L 435.5 64.6 L 433.9 61.9 Q 433.7 61.5, 433.5 61.2 Q 433.3 60.8, 433.2 60.7 L 433.2 64.6 L 432.6 64.6 L 432.6 59.9 L 433.4 59.9 " fill="#0000FF"/>
<path d="M 388.9,58.2 L 388.9,58.1 L 388.9,58.1 L 388.9,58.1 L 388.9,58.1 L 388.9,58.0 L 388.9,58.0 L 388.9,58.0 L 388.8,58.0 L 388.8,57.9 L 388.8,57.9 L 388.8,57.9 L 388.8,57.9 L 388.7,57.9 L 388.7,57.9 L 388.7,57.9 L 388.7,57.9 L 388.6,57.8 L 388.6,57.8 L 388.6,57.8 L 388.5,57.8 L 388.5,57.9 L 388.5,57.9 L 388.5,57.9 L 388.4,57.9 L 388.4,57.9 L 388.4,57.9 L 388.4,57.9 L 388.3,58.0 L 388.3,58.0 L 388.3,58.0 L 388.3,58.0 L 388.3,58.1 L 388.3,58.1 L 388.3,58.1 L 388.3,58.1 L 388.3,58.2 L 388.3,58.2 L 388.3,58.2 L 388.3,58.2 L 388.3,58.3 L 388.3,58.3 L 388.3,58.3 L 388.3,58.4 L 388.3,58.4 L 388.3,58.4 L 388.4,58.4 L 388.4,58.4 L 388.4,58.5 L 388.4,58.5 L 388.5,58.5 L 388.5,58.5 L 388.5,58.5 L 388.5,58.5 L 388.6,58.5 L 388.6,58.5 L 388.6,58.5 L 388.7,58.5 L 388.7,58.5 L 388.7,58.5 L 388.7,58.5 L 388.8,58.5 L 388.8,58.4 L 388.8,58.4 L 388.8,58.4 L 388.8,58.4 L 388.9,58.4 L 388.9,58.3 L 388.9,58.3 L 388.9,58.3 L 388.9,58.3 L 388.9,58.2 L 388.9,58.2 L 388.9,58.2 L 388.6,58.2 Z" style="fill:#000000;fill-rule:evenodd;fill-opacity:1;stroke:#000000;stroke-width:0.0px;stroke-linecap:butt;stroke-linejoin:miter;stroke-opacity:1;"/>
<path d="M 388.9,59.5 L 388.9,59.5 L 388.9,59.4 L 388.9,59.4 L 388.9,59.4 L 388.9,59.4 L 388.9,59.3 L 388.9,59.3 L 388.8,59.3 L 388.8,59.3 L 388.8,59.3 L 388.8,59.2 L 388.8,59.2 L 388.7,59.2 L 388.7,59.2 L 388.7,59.2 L 388.7,59.2 L 388.6,59.2 L 388.6,59.2 L 388.6,59.2 L 388.5,59.2 L 388.5,59.2 L 388.5,59.2 L 388.5,59.2 L 388.4,59.2 L 388.4,59.2 L 388.4,59.2 L 388.4,59.3 L 388.3,59.3 L 388.3,59.3 L 388.3,59.3 L 388.3,59.4 L 388.3,59.4 L 388.3,59.4 L 388.3,59.4 L 388.3,59.5 L 388.3,59.5 L 388.3,59.5 L 388.3,59.5 L 388.3,59.6 L 388.3,59.6 L 388.3,59.6 L 388.3,59.7 L 388.3,59.7 L 388.3,59.7 L 388.3,59.7 L 388.4,59.7 L 388.4,59.8 L 388.4,59.8 L 388.4,59.8 L 388.5,59.8 L 388.5,59.8 L 388.5,59.8 L 388.5,59.8 L 388.6,59.8 L 388.6,59.8 L 388.6,59.8 L 388.7,59.8 L 388.7,59.8 L 388.7,59.8 L 388.7,59.8 L 388.8,59.8 L 388.8,59.8 L 388.8,59.8 L 388.8,59.7 L 388.8,59.7 L 388.9,59.7 L 388.9,59.7 L 388.9,59.6 L 388.9,59.6 L 388.9,59.6 L 388.9,59.6 L 388.9,59.5 L 388.9,59.5 L 388.6,59.5 Z" style="fill:#000000;fill-rule:evenodd;fill-opacity:1;stroke:#000000;stroke-width:0.0px;stroke-linecap:butt;stroke-linejoin:miter;stroke-opacity:1;"/>
<path d="M 376.2,118.2 L 376.2,118.2 L 376.2,118.2 L 376.2,118.1 L 376.1,118.1 L 376.1,118.1 L 376.1,118.1 L 376.1,118.0 L 376.1,118.0 L 376.1,118.0 L 376.1,118.0 L 376.0,118.0 L 376.0,117.9 L 376.0,117.9 L 376.0,117.9 L 375.9,117.9 L 375.9,117.9 L 375.9,117.9 L 375.8,117.9 L 375.8,117.9 L 375.8,117.9 L 375.8,117.9 L 375.7,117.9 L 375.7,117.9 L 375.7,117.9 L 375.7,117.9 L 375.6,118.0 L 375.6,118.0 L 375.6,118.0 L 375.6,118.0 L 375.6,118.0 L 375.5,118.1 L 375.5,118.1 L 375.5,118.1 L 375.5,118.2 L 375.5,118.2 L 375.5,118.2 L 375.5,118.2 L 375.5,118.3 L 375.5,118.3 L 375.5,118.3 L 375.5,118.3 L 375.5,118.4 L 375.6,118.4 L 375.6,118.4 L 375.6,118.4 L 375.6,118.5 L 375.6,118.5 L 375.7,118.5 L 375.7,118.5 L 375.7,118.5 L 375.7,118.5 L 375.8,118.5 L 375.8,118.6 L 375.8,118.6 L 375.8,118.6 L 375.9,118.6 L 375.9,118.5 L 375.9,118.5 L 376.0,118.5 L 376.0,118.5 L 376.0,118.5 L 376.0,118.5 L 376.1,118.5 L 376.1,118.5 L 376.1,118.4 L 376.1,118.4 L 376.1,118.4 L 376.1,118.4 L 376.1,118.3 L 376.2,118.3 L 376.2,118.3 L 376.2,118.3 L 376.2,118.2 L 375.8,118.2 Z" style="fill:#000000;fill-rule:evenodd;fill-opacity:1;stroke:#000000;stroke-width:0.0px;stroke-linecap:butt;stroke-linejoin:miter;stroke-opacity:1;"/>
<path class="bond-0 atom-0 atom-1" d="M 675.0,80.6 L 687.3,69.4" style="fill:none;fill-rule:evenodd;stroke:#000000;stroke-width:2.0px;stroke-linecap:butt;stroke-linejoin:miter;stroke-opacity:1"/>
<path class="bond-1 atom-1 atom-2" d="M 687.3,69.4 L 701.1,73.8" style="fill:none;fill-rule:evenodd;stroke:#000000;stroke-width:2.0px;stroke-linecap:butt;stroke-linejoin:miter;stroke-opacity:1"/>
<path class="bond-2 atom-2 atom-3" d="M 703.7,77.2 L 706.7,90.6" style="fill:none;fill-rule:evenodd;stroke:#000000;stroke-width:2.0px;stroke-linecap:butt;stroke-linejoin:miter;stroke-opacity:1"/>
<path class="bond-5 atom-2 atom-6" d="M 705.1,72.5 L 715.4,63.2" style="fill:none;fill-rule:evenodd;stroke:#000000;stroke-width:2.0px;stroke-linecap:butt;stroke-linejoin:miter;stroke-opacity:1"/>
<path class="bond-3 atom-3 atom-4" d="M 706.7,90.6 L 694.4,101.8" style="fill:none;fill-rule:evenodd;stroke:#000000;stroke-width:2.0px;stroke-linecap:butt;stroke-linejoin:miter;stroke-opacity:1"/>
<path class="bond-3 atom-3 atom-4" d="M 702.6,89.8 L 694.0,97.7" style="fill:none;fill-rule:evenodd;stroke:#000000;stroke-width:2.0px;stroke-linecap:butt;stroke-linejoin:miter;stroke-opacity:1"/>
<path class="bond-4 atom-4 atom-5" d="M 694.4,101.8 L 695.9,108.5" style="fill:none;fill-rule:evenodd;stroke:#000000;stroke-width:2.0px;stroke-linecap:butt;stroke-linejoin:miter;stroke-opacity:1"/>
<path class="bond-4 atom-4 atom-5" d="M 695.9,108.5 L 697.4,115.3" style="fill:none;fill-rule:evenodd;stroke:#33CCCC;stroke-width:2.0px;stroke-linecap:butt;stroke-linejoin:miter;stroke-opacity:1"/>
<path class="bond-6 atom-6 atom-7" d="M 715.4,63.2 L 711.8,47.0" style="fill:none;fill-rule:evenodd;stroke:#000000;stroke-width:2.0px;stroke-linecap:butt;stroke-linejoin:miter;stroke-opacity:1"/>
<path class="bond-6 atom-6 atom-7" d="M 718.1,60.0 L 715.6,48.7" style="fill:none;fill-rule:evenodd;stroke:#000000;stroke-width:2.0px;stroke-linecap:butt;stroke-linejoin:miter;stroke-opacity:1"/>
<path class="bond-37 atom-37 atom-6" d="M 731.2,68.2 L 715.4,63.2" style="fill:none;fill-rule:evenodd;stroke:#000000;stroke-width:2.0px;stroke-linecap:butt;stroke-linejoin:miter;stroke-opacity:1"/>
<path class="bond-7 atom-7 atom-8" d="M 711.8,47.0 L 724.1,35.8" style="fill:none;fill-rule:evenodd;stroke:#000000;stroke-width:2.0px;stroke-linecap:butt;stroke-linejoin:miter;stroke-opacity:1"/>
<path class="bond-8 atom-8 atom-9" d="M 724.1,35.8 L 739.9,40.8" style="fill:none;fill-rule:evenodd;stroke:#000000;stroke-width:2.0px;stroke-linecap:butt;stroke-linejoin:miter;stroke-opacity:1"/>
<path class="bond-8 atom-8 atom-9" d="M 725.5,39.7 L 736.5,43.2" style="fill:none;fill-rule:evenodd;stroke:#000000;stroke-width:2.0px;stroke-linecap:butt;stroke-linejoin:miter;stroke-opacity:1"/>
<path class="bond-9 atom-9 atom-10" d="M 739.9,40.8 L 752.2,29.6" style="fill:none;fill-rule:evenodd;stroke:#000000;stroke-width:2.0px;stroke-linecap:butt;stroke-linejoin:miter;stroke-opacity:1"/>
<path class="bond-35 atom-9 atom-36" d="M 739.9,40.8 L 743.5,57.0" style="fill:none;fill-rule:evenodd;stroke:#000000;stroke-width:2.0px;stroke-linecap:butt;stroke-linejoin:miter;stroke-opacity:1"/>
<path class="bond-10 atom-10 atom-11" d="M 752.2,29.6 L 759.0,31.7" style="fill:none;fill-rule:evenodd;stroke:#000000;stroke-width:2.0px;stroke-linecap:butt;stroke-linejoin:miter;stroke-opacity:1"/>
<path class="bond-10 atom-10 atom-11" d="M 759.0,31.7 L 765.8,33.9" style="fill:none;fill-rule:evenodd;stroke:#0000FF;stroke-width:2.0px;stroke-linecap:butt;stroke-linejoin:miter;stroke-opacity:1"/>
<path class="bond-11 atom-11 atom-12" d="M 768.6,37.4 L 770.1,44.1" style="fill:none;fill-rule:evenodd;stroke:#0000FF;stroke-width:2.0px;stroke-linecap:butt;stroke-linejoin:miter;stroke-opacity:1"/>
<path class="bond-11 atom-11 atom-12" d="M 770.1,44.1 L 771.6,50.8" style="fill:none;fill-rule:evenodd;stroke:#000000;stroke-width:2.0px;stroke-linecap:butt;stroke-linejoin:miter;stroke-opacity:1"/>
<path class="bond-38 atom-35 atom-11" d="M 780.3,23.4 L 775.2,28.0" style="fill:none;fill-rule:evenodd;stroke:#000000;stroke-width:2.0px;stroke-linecap:butt;stroke-linejoin:miter;stroke-opacity:1"/>
<path class="bond-38 atom-35 atom-11" d="M 775.2,28.0 L 770.2,32.6" style="fill:none;fill-rule:evenodd;stroke:#0000FF;stroke-width:2.0px;stroke-linecap:butt;stroke-linejoin:miter;stroke-opacity:1"/>
<path class="bond-12 atom-12 atom-13" d="M 771.6,50.8 L 787.4,55.8" style="fill:none;fill-rule:evenodd;stroke:#000000;stroke-width:2.0px;stroke-linecap:butt;stroke-linejoin:miter;stroke-opacity:1"/>
<path class="bond-13 atom-13 atom-14" d="M 787.4,55.8 L 799.7,44.6" style="fill:none;fill-rule:evenodd;stroke:#000000;stroke-width:2.0px;stroke-linecap:butt;stroke-linejoin:miter;stroke-opacity:1"/>
<path class="bond-14 atom-14 atom-15" d="M 799.7,44.6 L 815.0,38.3" style="fill:none;fill-rule:evenodd;stroke:#000000;stroke-width:2.0px;stroke-linecap:butt;stroke-linejoin:miter;stroke-opacity:1"/>
<path class="bond-17 atom-14 atom-18" d="M 799.7,44.6 L 803.2,50.3" style="fill:none;fill-rule:evenodd;stroke:#000000;stroke-width:2.0px;stroke-linecap:butt;stroke-linejoin:miter;stroke-opacity:1"/>
<path class="bond-17 atom-14 atom-18" d="M 803.2,50.3 L 806.8,55.9" style="fill:none;fill-rule:evenodd;stroke:#0000FF;stroke-width:2.0px;stroke-linecap:butt;stroke-linejoin:miter;stroke-opacity:1"/>
<path class="bond-33 atom-14 atom-34" d="M 799.7,44.6 L 796.1,28.4" style="fill:none;fill-rule:evenodd;stroke:#000000;stroke-width:2.0px;stroke-linecap:butt;stroke-linejoin:miter;stroke-opacity:1"/>
<path class="bond-15 atom-15 atom-16" d="M 815.0,38.3 L 828.2,48.4" style="fill:none;fill-rule:evenodd;stroke:#000000;stroke-width:2.0px;stroke-linecap:butt;stroke-linejoin:miter;stroke-opacity:1"/>
<path class="bond-16 atom-16 atom-17" d="M 828.2,48.4 L 833.7,52.6" style="fill:none;fill-rule:evenodd;stroke:#000000;stroke-width:2.0px;stroke-linecap:butt;stroke-linejoin:miter;stroke-opacity:1"/>
<path class="bond-16 atom-16 atom-17" d="M 833.7,52.6 L 839.2,56.9" style="fill:none;fill-rule:evenodd;stroke:#0000FF;stroke-width:2.0px;stroke-linecap:butt;stroke-linejoin:miter;stroke-opacity:1"/>
<path class="bond-16 atom-16 atom-17" d="M 827.8,52.3 L 832.5,55.9" style="fill:none;fill-rule:evenodd;stroke:#000000;stroke-width:2.0px;stroke-linecap:butt;stroke-linejoin:miter;stroke-opacity:1"/>
<path class="bond-16 atom-16 atom-17" d="M 832.5,55.9 L 837.1,59.5" style="fill:none;fill-rule:evenodd;stroke:#0000FF;stroke-width:2.0px;stroke-linecap:butt;stroke-linejoin:miter;stroke-opacity:1"/>
<path class="bond-16 atom-16 atom-17" d="M 831.9,47.1 L 836.5,50.6" style="fill:none;fill-rule:evenodd;stroke:#000000;stroke-width:2.0px;stroke-linecap:butt;stroke-linejoin:miter;stroke-opacity:1"/>
<path class="bond-16 atom-16 atom-17" d="M 836.5,50.6 L 841.2,54.2" style="fill:none;fill-rule:evenodd;stroke:#0000FF;stroke-width:2.0px;stroke-linecap:butt;stroke-linejoin:miter;stroke-opacity:1"/>
<path class="bond-18 atom-18 atom-19" d="M 810.8,58.8 L 818.0,59.2" style="fill:none;fill-rule:evenodd;stroke:#0000FF;stroke-width:2.0px;stroke-linecap:butt;stroke-linejoin:miter;stroke-opacity:1"/>
<path class="bond-18 atom-18 atom-19" d="M 818.0,59.2 L 825.2,59.7" style="fill:none;fill-rule:evenodd;stroke:#000000;stroke-width:2.0px;stroke-linecap:butt;stroke-linejoin:miter;stroke-opacity:1"/>
<path class="bond-39 atom-33 atom-18" d="M 803.6,71.3 L 807.5,61.3" style="fill:none;fill-rule:evenodd;stroke:#0000FF;stroke-width:2.0px;stroke-linecap:butt;stroke-linejoin:miter;stroke-opacity:1"/>
<path class="bond-19 atom-19 atom-20" d="M 825.2,59.7 L 829.3,75.8" style="fill:none;fill-rule:evenodd;stroke:#000000;stroke-width:2.0px;stroke-linecap:butt;stroke-linejoin:miter;stroke-opacity:1"/>
<path class="bond-19 atom-19 atom-20" d="M 822.6,62.9 L 825.5,74.2" style="fill:none;fill-rule:evenodd;stroke:#000000;stroke-width:2.0px;stroke-linecap:butt;stroke-linejoin:miter;stroke-opacity:1"/>
<path class="bond-20 atom-20 atom-21" d="M 829.3,75.8 L 844.7,81.9" style="fill:none;fill-rule:evenodd;stroke:#000000;stroke-width:2.0px;stroke-linecap:butt;stroke-linejoin:miter;stroke-opacity:1"/>
<path class="bond-23 atom-20 atom-24" d="M 829.3,75.8 L 815.3,84.7" style="fill:none;fill-rule:evenodd;stroke:#000000;stroke-width:2.0px;stroke-linecap:butt;stroke-linejoin:miter;stroke-opacity:1"/>
<path class="bond-21 atom-21 atom-22" d="M 844.7,81.9 L 845.7,88.7" style="fill:none;fill-rule:evenodd;stroke:#000000;stroke-width:2.0px;stroke-linecap:butt;stroke-linejoin:miter;stroke-opacity:1"/>
<path class="bond-21 atom-21 atom-22" d="M 845.7,88.7 L 846.8,95.5" style="fill:none;fill-rule:evenodd;stroke:#0000FF;stroke-width:2.0px;stroke-linecap:butt;stroke-linejoin:miter;stroke-opacity:1"/>
<path class="bond-22 atom-21 atom-23" d="M 845.8,83.2 L 851.0,79.0" style="fill:none;fill-rule:evenodd;stroke:#000000;stroke-width:2.0px;stroke-linecap:butt;stroke-linejoin:miter;stroke-opacity:1"/>
<path class="bond-22 atom-21 atom-23" d="M 851.0,79.0 L 856.2,74.9" style="fill:none;fill-rule:evenodd;stroke:#FF0000;stroke-width:2.0px;stroke-linecap:butt;stroke-linejoin:miter;stroke-opacity:1"/>
<path class="bond-22 atom-21 atom-23" d="M 843.7,80.6 L 848.9,76.4" style="fill:none;fill-rule:evenodd;stroke:#000000;stroke-width:2.0px;stroke-linecap:butt;stroke-linejoin:miter;stroke-opacity:1"/>
<path class="bond-22 atom-21 atom-23" d="M 848.9,76.4 L 854.1,72.3" style="fill:none;fill-rule:evenodd;stroke:#FF0000;stroke-width:2.0px;stroke-linecap:butt;stroke-linejoin:miter;stroke-opacity:1"/>
<path class="bond-24 atom-24 atom-25" d="M 815.3,84.7 L 814.8,91.6" style="fill:none;fill-rule:evenodd;stroke:#000000;stroke-width:2.0px;stroke-linecap:butt;stroke-linejoin:miter;stroke-opacity:1"/>
<path class="bond-24 atom-24 atom-25" d="M 814.8,91.6 L 814.4,98.5" style="fill:none;fill-rule:evenodd;stroke:#0000FF;stroke-width:2.0px;stroke-linecap:butt;stroke-linejoin:miter;stroke-opacity:1"/>
<path class="bond-32 atom-24 atom-33" d="M 815.3,84.7 L 810.0,80.3" style="fill:none;fill-rule:evenodd;stroke:#000000;stroke-width:2.0px;stroke-linecap:butt;stroke-linejoin:miter;stroke-opacity:1"/>
<path class="bond-32 atom-24 atom-33" d="M 810.0,80.3 L 804.7,75.9" style="fill:none;fill-rule:evenodd;stroke:#0000FF;stroke-width:2.0px;stroke-linecap:butt;stroke-linejoin:miter;stroke-opacity:1"/>
<path class="bond-32 atom-24 atom-33" d="M 815.8,80.8 L 812.1,77.7" style="fill:none;fill-rule:evenodd;stroke:#000000;stroke-width:2.0px;stroke-linecap:butt;stroke-linejoin:miter;stroke-opacity:1"/>
<path class="bond-32 atom-24 atom-33" d="M 812.1,77.7 L 808.4,74.7" style="fill:none;fill-rule:evenodd;stroke:#0000FF;stroke-width:2.0px;stroke-linecap:butt;stroke-linejoin:miter;stroke-opacity:1"/>
<path class="bond-25 atom-25 atom-26" d="M 812.0,102.3 L 805.7,105.5" style="fill:none;fill-rule:evenodd;stroke:#0000FF;stroke-width:2.0px;stroke-linecap:butt;stroke-linejoin:miter;stroke-opacity:1"/>
<path class="bond-25 atom-25 atom-26" d="M 805.7,105.5 L 799.4,108.6" style="fill:none;fill-rule:evenodd;stroke:#000000;stroke-width:2.0px;stroke-linecap:butt;stroke-linejoin:miter;stroke-opacity:1"/>
<path class="bond-26 atom-26 atom-27" d="M 799.4,108.6 L 785.5,99.5" style="fill:none;fill-rule:evenodd;stroke:#000000;stroke-width:2.0px;stroke-linecap:butt;stroke-linejoin:miter;stroke-opacity:1"/>
<path class="bond-26 atom-26 atom-27" d="M 795.4,110.0 L 785.8,103.6" style="fill:none;fill-rule:evenodd;stroke:#000000;stroke-width:2.0px;stroke-linecap:butt;stroke-linejoin:miter;stroke-opacity:1"/>
<path class="bond-40 atom-32 atom-26" d="M 798.3,125.2 L 799.4,108.6" style="fill:none;fill-rule:evenodd;stroke:#000000;stroke-width:2.0px;stroke-linecap:butt;stroke-linejoin:miter;stroke-opacity:1"/>
<path class="bond-27 atom-27 atom-28" d="M 785.5,99.5 L 770.6,106.8" style="fill:none;fill-rule:evenodd;stroke:#000000;stroke-width:2.0px;stroke-linecap:butt;stroke-linejoin:miter;stroke-opacity:1"/>
<path class="bond-28 atom-28 atom-29" d="M 770.6,106.8 L 770.2,113.7" style="fill:none;fill-rule:evenodd;stroke:#000000;stroke-width:2.0px;stroke-linecap:butt;stroke-linejoin:miter;stroke-opacity:1"/>
<path class="bond-28 atom-28 atom-29" d="M 770.2,113.7 L 769.8,120.7" style="fill:none;fill-rule:evenodd;stroke:#0000FF;stroke-width:2.0px;stroke-linecap:butt;stroke-linejoin:miter;stroke-opacity:1"/>
<path class="bond-28 atom-28 atom-29" d="M 773.8,109.1 L 773.5,114.0" style="fill:none;fill-rule:evenodd;stroke:#000000;stroke-width:2.0px;stroke-linecap:butt;stroke-linejoin:miter;stroke-opacity:1"/>
<path class="bond-28 atom-28 atom-29" d="M 773.5,114.0 L 773.2,118.8" style="fill:none;fill-rule:evenodd;stroke:#0000FF;stroke-width:2.0px;stroke-linecap:butt;stroke-linejoin:miter;stroke-opacity:1"/>
<path class="bond-29 atom-29 atom-30" d="M 771.8,124.9 L 777.6,128.7" style="fill:none;fill-rule:evenodd;stroke:#0000FF;stroke-width:2.0px;stroke-linecap:butt;stroke-linejoin:miter;stroke-opacity:1"/>
<path class="bond-29 atom-29 atom-30" d="M 777.6,128.7 L 783.4,132.6" style="fill:none;fill-rule:evenodd;stroke:#000000;stroke-width:2.0px;stroke-linecap:butt;stroke-linejoin:miter;stroke-opacity:1"/>
<path class="bond-30 atom-30 atom-31" d="M 783.4,132.6 L 783.0,139.5" style="fill:none;fill-rule:evenodd;stroke:#000000;stroke-width:2.0px;stroke-linecap:butt;stroke-linejoin:miter;stroke-opacity:1"/>
<path class="bond-30 atom-30 atom-31" d="M 783.0,139.5 L 782.6,146.4" style="fill:none;fill-rule:evenodd;stroke:#33CCCC;stroke-width:2.0px;stroke-linecap:butt;stroke-linejoin:miter;stroke-opacity:1"/>
<path class="bond-31 atom-30 atom-32" d="M 783.4,132.6 L 798.3,125.2" style="fill:none;fill-rule:evenodd;stroke:#000000;stroke-width:2.0px;stroke-linecap:butt;stroke-linejoin:miter;stroke-opacity:1"/>
<path class="bond-31 atom-30 atom-32" d="M 784.2,128.5 L 794.6,123.4" style="fill:none;fill-rule:evenodd;stroke:#000000;stroke-width:2.0px;stroke-linecap:butt;stroke-linejoin:miter;stroke-opacity:1"/>
<path class="bond-34 atom-34 atom-35" d="M 796.1,28.4 L 780.3,23.4" style="fill:none;fill-rule:evenodd;stroke:#000000;stroke-width:2.0px;stroke-linecap:butt;stroke-linejoin:miter;stroke-opacity:1"/>
<path class="bond-36 atom-36 atom-37" d="M 743.5,57.0 L 731.2,68.2" style="fill:none;fill-rule:evenodd;stroke:#000000;stroke-width:2.0px;stroke-linecap:butt;stroke-linejoin:miter;stroke-opacity:1"/>
<path class="bond-36 atom-36 atom-37" d="M 739.4,56.2 L 730.8,64.1" style="fill:none;fill-rule:evenodd;stroke:#000000;stroke-width:2.0px;stroke-linecap:butt;stroke-linejoin:miter;stroke-opacity:1"/>
<path class="atom-2" d="M 703.8 74.3 Q 704.3 74.4, 704.5 74.7 Q 704.7 74.9, 704.7 75.4 Q 704.7 76.0, 704.3 76.4 Q 703.9 76.7, 703.1 76.7 L 701.5 76.7 L 701.5 72.0 L 702.9 72.0 Q 703.7 72.0, 704.1 72.4 Q 704.5 72.7, 704.5 73.3 Q 704.5 74.0, 703.8 74.3 M 702.2 72.6 L 702.2 74.0 L 702.9 74.0 Q 703.4 74.0, 703.6 73.9 Q 703.9 73.7, 703.9 73.3 Q 703.9 72.6, 702.9 72.6 L 702.2 72.6 M 703.1 76.2 Q 703.6 76.2, 703.8 76.0 Q 704.1 75.8, 704.1 75.4 Q 704.1 75.0, 703.8 74.8 Q 703.5 74.6, 703.0 74.6 L 702.2 74.6 L 702.2 76.2 L 703.1 76.2 " fill="#000000"/>
<path class="atom-5" d="M 696.6 115.7 L 699.4 115.7 L 699.4 116.2 L 697.2 116.2 L 697.2 117.6 L 699.2 117.6 L 699.2 118.2 L 697.2 118.2 L 697.2 120.4 L 696.6 120.4 L 696.6 115.7 " fill="#33CCCC"/>
<path class="atom-11" d="M 767.0 32.2 L 768.5 34.7 Q 768.7 35.0, 768.9 35.4 Q 769.2 35.9, 769.2 35.9 L 769.2 32.2 L 769.8 32.2 L 769.8 36.9 L 769.2 36.9 L 767.5 34.2 Q 767.3 33.9, 767.1 33.5 Q 766.9 33.2, 766.8 33.1 L 766.8 36.9 L 766.2 36.9 L 766.2 32.2 L 767.0 32.2 " fill="#0000FF"/>
<path class="atom-17" d="M 840.3 56.2 L 841.9 58.7 Q 842.0 58.9, 842.3 59.4 Q 842.5 59.8, 842.5 59.9 L 842.5 56.2 L 843.1 56.2 L 843.1 60.9 L 842.5 60.9 L 840.8 58.2 Q 840.6 57.9, 840.4 57.5 Q 840.2 57.1, 840.2 57.0 L 840.2 60.9 L 839.6 60.9 L 839.6 56.2 L 840.3 56.2 " fill="#0000FF"/>
<path class="atom-18" d="M 807.5 56.3 L 809.1 58.8 Q 809.2 59.0, 809.5 59.5 Q 809.7 59.9, 809.7 60.0 L 809.7 56.3 L 810.4 56.3 L 810.4 61.0 L 809.7 61.0 L 808.1 58.3 Q 807.9 58.0, 807.7 57.6 Q 807.5 57.2, 807.4 57.1 L 807.4 61.0 L 806.8 61.0 L 806.8 56.3 L 807.5 56.3 " fill="#0000FF"/>
<path class="atom-22" d="M 846.1 96.0 L 847.7 98.5 Q 847.8 98.7, 848.1 99.1 Q 848.3 99.6, 848.3 99.6 L 848.3 96.0 L 848.9 96.0 L 848.9 100.7 L 848.3 100.7 L 846.7 97.9 Q 846.5 97.6, 846.3 97.3 Q 846.1 96.9, 846.0 96.8 L 846.0 100.7 L 845.4 100.7 L 845.4 96.0 L 846.1 96.0 " fill="#0000FF"/>
<path class="atom-22" d="M 849.5 96.0 L 850.2 96.0 L 850.2 98.0 L 852.6 98.0 L 852.6 96.0 L 853.2 96.0 L 853.2 100.7 L 852.6 100.7 L 852.6 98.5 L 850.2 98.5 L 850.2 100.7 L 849.5 100.7 L 849.5 96.0 " fill="#0000FF"/>
<path class="atom-22" d="M 853.4 100.5 Q 853.5 100.2, 853.8 100.0 Q 854.1 99.9, 854.5 99.9 Q 854.9 99.9, 855.2 100.1 Q 855.5 100.4, 855.5 100.8 Q 855.5 101.3, 855.1 101.7 Q 854.8 102.2, 854.1 102.7 L 855.5 102.7 L 855.5 103.0 L 853.4 103.0 L 853.4 102.7 Q 854.0 102.3, 854.3 102.0 Q 854.7 101.7, 854.8 101.4 Q 855.0 101.1, 855.0 100.9 Q 855.0 100.6, 854.9 100.4 Q 854.7 100.2, 854.5 100.2 Q 854.2 100.2, 854.0 100.3 Q 853.9 100.4, 853.8 100.7 L 853.4 100.5 " fill="#0000FF"/>
<path class="atom-23" d="M 855.6 71.6 Q 855.6 70.4, 856.1 69.8 Q 856.7 69.2, 857.7 69.2 Q 858.8 69.2, 859.3 69.8 Q 859.9 70.4, 859.9 71.6 Q 859.9 72.7, 859.3 73.4 Q 858.8 74.0, 857.7 74.0 Q 856.7 74.0, 856.1 73.4 Q 855.6 72.7, 855.6 71.6 M 857.7 73.5 Q 858.5 73.5, 858.9 73.0 Q 859.2 72.5, 859.2 71.6 Q 859.2 70.7, 858.9 70.2 Q 858.5 69.7, 857.7 69.7 Q 857.0 69.7, 856.6 70.2 Q 856.3 70.6, 856.3 71.6 Q 856.3 72.5, 856.6 73.0 Q 857.0 73.5, 857.7 73.5 " fill="#FF0000"/>
<path class="atom-25" d="M 813.2 98.9 L 814.7 101.4 Q 814.9 101.6, 815.1 102.1 Q 815.4 102.5, 815.4 102.6 L 815.4 98.9 L 816.0 98.9 L 816.0 103.6 L 815.4 103.6 L 813.7 100.9 Q 813.5 100.6, 813.3 100.2 Q 813.1 99.8, 813.1 99.7 L 813.1 103.6 L 812.4 103.6 L 812.4 98.9 L 813.2 98.9 " fill="#0000FF"/>
<path class="atom-25" d="M 816.6 98.9 L 817.2 98.9 L 817.2 100.9 L 819.6 100.9 L 819.6 98.9 L 820.3 98.9 L 820.3 103.6 L 819.6 103.6 L 819.6 101.4 L 817.2 101.4 L 817.2 103.6 L 816.6 103.6 L 816.6 98.9 " fill="#0000FF"/>
<path class="atom-29" d="M 768.6 121.1 L 770.1 123.6 Q 770.3 123.8, 770.5 124.3 Q 770.8 124.7, 770.8 124.7 L 770.8 121.1 L 771.4 121.1 L 771.4 125.8 L 770.7 125.8 L 769.1 123.0 Q 768.9 122.7, 768.7 122.4 Q 768.5 122.0, 768.4 121.9 L 768.4 125.8 L 767.8 125.8 L 767.8 121.1 L 768.6 121.1 " fill="#0000FF"/>
<path class="atom-31" d="M 781.0 146.8 L 783.8 146.8 L 783.8 147.4 L 781.6 147.4 L 781.6 148.8 L 783.6 148.8 L 783.6 149.3 L 781.6 149.3 L 781.6 151.5 L 781.0 151.5 L 781.0 146.8 " fill="#33CCCC"/>
<path class="atom-33" d="M 801.4 71.7 L 803.0 74.2 Q 803.1 74.5, 803.4 74.9 Q 803.6 75.4, 803.6 75.4 L 803.6 71.7 L 804.3 71.7 L 804.3 76.4 L 803.6 76.4 L 802.0 73.7 Q 801.8 73.4, 801.6 73.0 Q 801.4 72.7, 801.3 72.6 L 801.3 76.4 L 800.7 76.4 L 800.7 71.7 L 801.4 71.7 " fill="#0000FF"/>
<path d="M 673.4,80.6 L 673.4,80.5 L 673.4,80.5 L 673.4,80.5 L 673.4,80.5 L 673.3,80.4 L 673.3,80.4 L 673.3,80.4 L 673.3,80.4 L 673.3,80.3 L 673.3,80.3 L 673.2,80.3 L 673.2,80.3 L 673.2,80.3 L 673.2,80.3 L 673.1,80.3 L 673.1,80.2 L 673.1,80.2 L 673.1,80.2 L 673.0,80.2 L 673.0,80.2 L 673.0,80.3 L 672.9,80.3 L 672.9,80.3 L 672.9,80.3 L 672.9,80.3 L 672.8,80.3 L 672.8,80.3 L 672.8,80.4 L 672.8,80.4 L 672.8,80.4 L 672.8,80.4 L 672.7,80.4 L 672.7,80.5 L 672.7,80.5 L 672.7,80.5 L 672.7,80.6 L 672.7,80.6 L 672.7,80.6 L 672.7,80.6 L 672.7,80.7 L 672.7,80.7 L 672.8,80.7 L 672.8,80.7 L 672.8,80.8 L 672.8,80.8 L 672.8,80.8 L 672.8,80.8 L 672.9,80.9 L 672.9,80.9 L 672.9,80.9 L 672.9,80.9 L 673.0,80.9 L 673.0,80.9 L 673.0,80.9 L 673.1,80.9 L 673.1,80.9 L 673.1,80.9 L 673.1,80.9 L 673.2,80.9 L 673.2,80.9 L 673.2,80.9 L 673.2,80.8 L 673.3,80.8 L 673.3,80.8 L 673.3,80.8 L 673.3,80.8 L 673.3,80.7 L 673.3,80.7 L 673.4,80.7 L 673.4,80.7 L 673.4,80.6 L 673.4,80.6 L 673.4,80.6 L 673.0,80.6 Z" style="fill:#000000;fill-rule:evenodd;fill-opacity:1;stroke:#000000;stroke-width:0.0px;stroke-linecap:butt;stroke-linejoin:miter;stroke-opacity:1;"/>
<path d="M 673.4,81.9 L 673.4,81.9 L 673.4,81.8 L 673.4,81.8 L 673.4,81.8 L 673.3,81.8 L 673.3,81.7 L 673.3,81.7 L 673.3,81.7 L 673.3,81.7 L 673.3,81.6 L 673.2,81.6 L 673.2,81.6 L 673.2,81.6 L 673.2,81.6 L 673.1,81.6 L 673.1,81.6 L 673.1,81.6 L 673.1,81.6 L 673.0,81.6 L 673.0,81.6 L 673.0,81.6 L 672.9,81.6 L 672.9,81.6 L 672.9,81.6 L 672.9,81.6 L 672.8,81.6 L 672.8,81.7 L 672.8,81.7 L 672.8,81.7 L 672.8,81.7 L 672.8,81.8 L 672.7,81.8 L 672.7,81.8 L 672.7,81.8 L 672.7,81.9 L 672.7,81.9 L 672.7,81.9 L 672.7,81.9 L 672.7,82.0 L 672.7,82.0 L 672.7,82.0 L 672.8,82.1 L 672.8,82.1 L 672.8,82.1 L 672.8,82.1 L 672.8,82.1 L 672.8,82.2 L 672.9,82.2 L 672.9,82.2 L 672.9,82.2 L 672.9,82.2 L 673.0,82.2 L 673.0,82.2 L 673.0,82.2 L 673.1,82.2 L 673.1,82.2 L 673.1,82.2 L 673.1,82.2 L 673.2,82.2 L 673.2,82.2 L 673.2,82.2 L 673.2,82.2 L 673.3,82.2 L 673.3,82.1 L 673.3,82.1 L 673.3,82.1 L 673.3,82.1 L 673.3,82.0 L 673.4,82.0 L 673.4,82.0 L 673.4,82.0 L 673.4,81.9 L 673.4,81.9 L 673.0,81.9 Z" style="fill:#000000;fill-rule:evenodd;fill-opacity:1;stroke:#000000;stroke-width:0.0px;stroke-linecap:butt;stroke-linejoin:miter;stroke-opacity:1;"/>
<path d="M 673.4,79.2 L 673.4,79.2 L 673.4,79.2 L 673.4,79.2 L 673.4,79.1 L 673.3,79.1 L 673.3,79.1 L 673.3,79.1 L 673.3,79.0 L 673.3,79.0 L 673.3,79.0 L 673.2,79.0 L 673.2,79.0 L 673.2,78.9 L 673.2,78.9 L 673.1,78.9 L 673.1,78.9 L 673.1,78.9 L 673.1,78.9 L 673.0,78.9 L 673.0,78.9 L 673.0,78.9 L 672.9,78.9 L 672.9,78.9 L 672.9,79.0 L 672.9,79.0 L 672.8,79.0 L 672.8,79.0 L 672.8,79.0 L 672.8,79.0 L 672.8,79.1 L 672.8,79.1 L 672.7,79.1 L 672.7,79.1 L 672.7,79.2 L 672.7,79.2 L 672.7,79.2 L 672.7,79.3 L 672.7,79.3 L 672.7,79.3 L 672.7,79.3 L 672.7,79.4 L 672.8,79.4 L 672.8,79.4 L 672.8,79.4 L 672.8,79.5 L 672.8,79.5 L 672.8,79.5 L 672.9,79.5 L 672.9,79.5 L 672.9,79.5 L 672.9,79.6 L 673.0,79.6 L 673.0,79.6 L 673.0,79.6 L 673.1,79.6 L 673.1,79.6 L 673.1,79.6 L 673.1,79.6 L 673.2,79.6 L 673.2,79.5 L 673.2,79.5 L 673.2,79.5 L 673.3,79.5 L 673.3,79.5 L 673.3,79.5 L 673.3,79.4 L 673.3,79.4 L 673.3,79.4 L 673.4,79.4 L 673.4,79.3 L 673.4,79.3 L 673.4,79.3 L 673.4,79.2 L 673.0,79.2 Z" style="fill:#000000;fill-rule:evenodd;fill-opacity:1;stroke:#000000;stroke-width:0.0px;stroke-linecap:butt;stroke-linejoin:miter;stroke-opacity:1;"/>
<path d="M 673.4,80.6 L 673.4,80.5 L 673.4,80.5 L 673.4,80.5 L 673.4,80.5 L 673.3,80.4 L 673.3,80.4 L 673.3,80.4 L 673.3,80.4 L 673.3,80.3 L 673.3,80.3 L 673.2,80.3 L 673.2,80.3 L 673.2,80.3 L 673.2,80.3 L 673.1,80.3 L 673.1,80.2 L 673.1,80.2 L 673.1,80.2 L 673.0,80.2 L 673.0,80.2 L 673.0,80.3 L 672.9,80.3 L 672.9,80.3 L 672.9,80.3 L 672.9,80.3 L 672.8,80.3 L 672.8,80.3 L 672.8,80.4 L 672.8,80.4 L 672.8,80.4 L 672.8,80.4 L 672.7,80.4 L 672.7,80.5 L 672.7,80.5 L 672.7,80.5 L 672.7,80.6 L 672.7,80.6 L 672.7,80.6 L 672.7,80.6 L 672.7,80.7 L 672.7,80.7 L 672.8,80.7 L 672.8,80.7 L 672.8,80.8 L 672.8,80.8 L 672.8,80.8 L 672.8,80.8 L 672.9,80.9 L 672.9,80.9 L 672.9,80.9 L 672.9,80.9 L 673.0,80.9 L 673.0,80.9 L 673.0,80.9 L 673.1,80.9 L 673.1,80.9 L 673.1,80.9 L 673.1,80.9 L 673.2,80.9 L 673.2,80.9 L 673.2,80.9 L 673.2,80.8 L 673.3,80.8 L 673.3,80.8 L 673.3,80.8 L 673.3,80.8 L 673.3,80.7 L 673.3,80.7 L 673.4,80.7 L 673.4,80.7 L 673.4,80.6 L 673.4,80.6 L 673.4,80.6 L 673.0,80.6 Z" style="fill:#000000;fill-rule:evenodd;fill-opacity:1;stroke:#000000;stroke-width:0.0px;stroke-linecap:butt;stroke-linejoin:miter;stroke-opacity:1;"/>
<path d="M 687.6,67.9 L 687.6,67.8 L 687.6,67.8 L 687.6,67.8 L 687.6,67.8 L 687.6,67.7 L 687.6,67.7 L 687.6,67.7 L 687.6,67.7 L 687.5,67.6 L 687.5,67.6 L 687.5,67.6 L 687.5,67.6 L 687.4,67.6 L 687.4,67.6 L 687.4,67.6 L 687.4,67.5 L 687.3,67.5 L 687.3,67.5 L 687.3,67.5 L 687.3,67.5 L 687.2,67.6 L 687.2,67.6 L 687.2,67.6 L 687.1,67.6 L 687.1,67.6 L 687.1,67.6 L 687.1,67.6 L 687.1,67.7 L 687.0,67.7 L 687.0,67.7 L 687.0,67.7 L 687.0,67.8 L 687.0,67.8 L 687.0,67.8 L 687.0,67.8 L 687.0,67.9 L 687.0,67.9 L 687.0,67.9 L 687.0,67.9 L 687.0,68.0 L 687.0,68.0 L 687.0,68.0 L 687.0,68.1 L 687.0,68.1 L 687.1,68.1 L 687.1,68.1 L 687.1,68.1 L 687.1,68.2 L 687.1,68.2 L 687.2,68.2 L 687.2,68.2 L 687.2,68.2 L 687.3,68.2 L 687.3,68.2 L 687.3,68.2 L 687.3,68.2 L 687.4,68.2 L 687.4,68.2 L 687.4,68.2 L 687.4,68.2 L 687.5,68.2 L 687.5,68.1 L 687.5,68.1 L 687.5,68.1 L 687.6,68.1 L 687.6,68.1 L 687.6,68.0 L 687.6,68.0 L 687.6,68.0 L 687.6,68.0 L 687.6,67.9 L 687.6,67.9 L 687.6,67.9 L 687.3,67.9 Z" style="fill:#000000;fill-rule:evenodd;fill-opacity:1;stroke:#000000;stroke-width:0.0px;stroke-linecap:butt;stroke-linejoin:miter;stroke-opacity:1;"/>
<path d="M 692.8,101.8 L 692.8,101.8 L 692.8,101.8 L 692.8,101.7 L 692.8,101.7 L 692.8,101.7 L 692.7,101.6 L 692.7,101.6 L 692.7,101.6 L 692.7,101.6 L 692.7,101.6 L 692.6,101.5 L 692.6,101.5 L 692.6,101.5 L 692.6,101.5 L 692.5,101.5 L 692.5,101.5 L 692.5,101.5 L 692.5,101.5 L 692.4,101.5 L 692.4,101.5 L 692.4,101.5 L 692.3,101.5 L 692.3,101.5 L 692.3,101.5 L 692.3,101.5 L 692.2,101.5 L 692.2,101.6 L 692.2,101.6 L 692.2,101.6 L 692.2,101.6 L 692.2,101.7 L 692.1,101.7 L 692.1,101.7 L 692.1,101.7 L 692.1,101.8 L 692.1,101.8 L 692.1,101.8 L 692.1,101.9 L 692.1,101.9 L 692.1,101.9 L 692.1,101.9 L 692.2,102.0 L 692.2,102.0 L 692.2,102.0 L 692.2,102.0 L 692.2,102.1 L 692.2,102.1 L 692.3,102.1 L 692.3,102.1 L 692.3,102.1 L 692.3,102.1 L 692.4,102.1 L 692.4,102.1 L 692.4,102.1 L 692.5,102.1 L 692.5,102.1 L 692.5,102.1 L 692.5,102.1 L 692.6,102.1 L 692.6,102.1 L 692.6,102.1 L 692.6,102.1 L 692.7,102.1 L 692.7,102.0 L 692.7,102.0 L 692.7,102.0 L 692.7,102.0 L 692.8,101.9 L 692.8,101.9 L 692.8,101.9 L 692.8,101.9 L 692.8,101.8 L 692.8,101.8 L 692.5,101.8 Z" style="fill:#000000;fill-rule:evenodd;fill-opacity:1;stroke:#000000;stroke-width:0.0px;stroke-linecap:butt;stroke-linejoin:miter;stroke-opacity:1;"/>
</svg>